M48
;Layer_Color=9474304
;FILE_FORMAT=4:4
METRIC,LZ
;TYPE=PLATED
T1F00S00C0.3000
T2F00S00C1.1000
T4F00S00C3.0000
T5F00S00C4.8000
;TYPE=NON_PLATED
T6F00S00C0.9000
%
T01
X00239Y00169
X00285Y0017
X0015975Y0031225
T02
X001015Y0009505
Y0012045
Y0014585
X002319Y0007
X002573
X002827
X003081
X004995Y002599
Y002853
Y003107
Y003361
X0010125Y0032835
Y0030295
Y0027755
Y0025215
X001015Y0017125
Y0040885
Y0043425
Y0045965
Y0048505
T04
X0021Y00115
X0033
Y00485
X0021
T05
X0004Y0004
X005
Y0054
X0004
T06
X0048Y004025
Y004325
M30
