G04 Layer_Physical_Order=2*
G04 Layer_Color=16711680*
%FSLAX44Y44*%
%MOMM*%
G71*
G01*
G75*
%ADD14C,0.5000*%
%ADD15C,0.6000*%
%ADD16C,1.8000*%
%ADD17P,1.9483X8X112.5*%
%ADD18P,1.9483X8X22.5*%
%ADD19C,5.5000*%
%ADD20C,4.0000*%
G36*
X475109Y495686D02*
X480022Y494196D01*
X484550Y491776D01*
X488518Y488519D01*
X491776Y484550D01*
X494196Y480022D01*
X495686Y475109D01*
X496165Y470248D01*
X496115Y470000D01*
X496115Y30000D01*
X496165Y29752D01*
X495686Y24891D01*
X494196Y19978D01*
X491776Y15450D01*
X488518Y11482D01*
X484550Y8225D01*
X480022Y5804D01*
X475109Y4314D01*
X471250Y3934D01*
X470000Y3885D01*
X470000Y3885D01*
X468730Y3885D01*
X31269Y3885D01*
X30000Y3885D01*
X28750Y3934D01*
X24891Y4314D01*
X19978Y5804D01*
X15450Y8225D01*
X11481Y11482D01*
X8225Y15450D01*
X5804Y19978D01*
X4314Y24891D01*
X3934Y28751D01*
X3885Y30000D01*
X3885Y30000D01*
X3885Y31252D01*
X3885Y470000D01*
X3835Y470248D01*
X4314Y475109D01*
X5804Y480022D01*
X8225Y484550D01*
X11481Y488519D01*
X15450Y491776D01*
X19978Y494196D01*
X24891Y495686D01*
X29752Y496165D01*
X30000Y496115D01*
X470000Y496115D01*
X470248Y496165D01*
X475109Y495686D01*
D02*
G37*
%LPC*%
G36*
X358605Y57178D02*
X358355Y57128D01*
X358100D01*
X356344Y56779D01*
X355411Y56392D01*
X353922Y55398D01*
X353922Y55398D01*
X353208Y54683D01*
X353208Y54683D01*
X352213Y53195D01*
X351826Y52261D01*
X351477Y50505D01*
Y49495D01*
X351826Y47739D01*
X352213Y46805D01*
X353208Y45317D01*
X353208Y45317D01*
X353922Y44602D01*
X353922Y44602D01*
X355411Y43608D01*
X356344Y43221D01*
X358100Y42872D01*
X358355D01*
X358605Y42822D01*
X358855Y42872D01*
X359110D01*
X360866Y43221D01*
X361800Y43608D01*
X363288Y44602D01*
X363288Y44602D01*
X364003Y45317D01*
X364003Y45317D01*
X364997Y46805D01*
X365384Y47739D01*
X365733Y49495D01*
Y50505D01*
X365384Y52261D01*
X364997Y53195D01*
X364003Y54683D01*
X364003Y54683D01*
X363288Y55398D01*
X363288Y55398D01*
X361800Y56392D01*
X360866Y56779D01*
X359110Y57128D01*
X358855D01*
X358605Y57178D01*
D02*
G37*
G36*
X96400Y113590D02*
X87400D01*
X86409Y113393D01*
X85569Y112831D01*
X81069Y108331D01*
X80507Y107491D01*
X80310Y106500D01*
Y97500D01*
X80507Y96509D01*
X81069Y95669D01*
X85569Y91169D01*
X86409Y90607D01*
X87400Y90410D01*
X96400D01*
X97391Y90607D01*
X98231Y91169D01*
X102731Y95669D01*
X103293Y96509D01*
X103490Y97500D01*
Y106500D01*
X103293Y107491D01*
X102731Y108331D01*
X98231Y112831D01*
X97391Y113393D01*
X96400Y113590D01*
D02*
G37*
G36*
X390000Y162649D02*
X385581Y162214D01*
X381333Y160925D01*
X377417Y158832D01*
X373985Y156015D01*
X371168Y152583D01*
X369075Y148667D01*
X367786Y144419D01*
X367351Y140000D01*
X367786Y135581D01*
X369075Y131333D01*
X371168Y127417D01*
X373985Y123985D01*
X377417Y121168D01*
X381333Y119075D01*
X385581Y117786D01*
X390000Y117351D01*
X394419Y117786D01*
X398667Y119075D01*
X402583Y121168D01*
X406015Y123985D01*
X408832Y127417D01*
X410925Y131333D01*
X412214Y135581D01*
X412649Y140000D01*
X412214Y144419D01*
X410925Y148667D01*
X408832Y152583D01*
X406015Y156015D01*
X402583Y158832D01*
X398667Y160925D01*
X394419Y162214D01*
X390000Y162649D01*
D02*
G37*
G36*
X45000Y75133D02*
X40286Y74762D01*
X35688Y73658D01*
X31320Y71849D01*
X27288Y69378D01*
X23693Y66307D01*
X20622Y62712D01*
X18151Y58680D01*
X16342Y54312D01*
X15238Y49714D01*
X14867Y45000D01*
X15238Y40286D01*
X16342Y35689D01*
X18151Y31320D01*
X20622Y27288D01*
X23693Y23693D01*
X27288Y20622D01*
X31320Y18152D01*
X35688Y16342D01*
X40286Y15238D01*
X45000Y14867D01*
X49714Y15238D01*
X54312Y16342D01*
X58680Y18152D01*
X62712Y20622D01*
X66307Y23693D01*
X69378Y27288D01*
X71849Y31320D01*
X73658Y35689D01*
X74762Y40286D01*
X75133Y45000D01*
X74762Y49714D01*
X73658Y54312D01*
X71849Y58680D01*
X69378Y62712D01*
X66307Y66307D01*
X62712Y69378D01*
X58680Y71849D01*
X54312Y73658D01*
X49714Y74762D01*
X45000Y75133D01*
D02*
G37*
G36*
X455000D02*
X450286Y74762D01*
X445689Y73658D01*
X441320Y71849D01*
X437288Y69378D01*
X433693Y66307D01*
X430622Y62712D01*
X428151Y58680D01*
X426342Y54312D01*
X425238Y49714D01*
X424867Y45000D01*
X425238Y40286D01*
X426342Y35689D01*
X428151Y31320D01*
X430622Y27288D01*
X433693Y23693D01*
X437288Y20622D01*
X441320Y18152D01*
X445689Y16342D01*
X450286Y15238D01*
X455000Y14867D01*
X459714Y15238D01*
X464312Y16342D01*
X468680Y18152D01*
X472712Y20622D01*
X476307Y23693D01*
X479378Y27288D01*
X481849Y31320D01*
X483658Y35689D01*
X484762Y40286D01*
X485133Y45000D01*
X484762Y49714D01*
X483658Y54312D01*
X481849Y58680D01*
X479378Y62712D01*
X476307Y66307D01*
X472712Y69378D01*
X468680Y71849D01*
X464312Y73658D01*
X459714Y74762D01*
X455000Y75133D01*
D02*
G37*
G36*
X328605Y57178D02*
X328355Y57128D01*
X328100D01*
X326344Y56779D01*
X325411Y56392D01*
X323922Y55398D01*
X323922Y55398D01*
X323208Y54683D01*
X323208Y54683D01*
X322213Y53195D01*
X321826Y52261D01*
X321477Y50505D01*
Y49495D01*
X321826Y47739D01*
X322213Y46805D01*
X323208Y45317D01*
X323208Y45317D01*
X323922Y44602D01*
X323922Y44602D01*
X325411Y43608D01*
X326344Y43221D01*
X328100Y42872D01*
X328355D01*
X328605Y42822D01*
X328855Y42872D01*
X329110D01*
X330866Y43221D01*
X331800Y43608D01*
X333288Y44602D01*
X333288Y44602D01*
X334003Y45317D01*
X334003Y45317D01*
X334997Y46805D01*
X335384Y47739D01*
X335733Y49495D01*
Y50505D01*
X335384Y52261D01*
X334997Y53195D01*
X334003Y54683D01*
X334003Y54683D01*
X333288Y55398D01*
X333288Y55398D01*
X331800Y56392D01*
X330866Y56779D01*
X329110Y57128D01*
X328855D01*
X328605Y57178D01*
D02*
G37*
G36*
X45000Y485133D02*
X40286Y484762D01*
X35688Y483658D01*
X31320Y481849D01*
X27288Y479378D01*
X23693Y476307D01*
X20622Y472712D01*
X18151Y468680D01*
X16342Y464312D01*
X15238Y459714D01*
X14867Y455000D01*
X15238Y450286D01*
X16342Y445689D01*
X18151Y441320D01*
X20622Y437288D01*
X23693Y433693D01*
X27288Y430622D01*
X31320Y428152D01*
X35688Y426342D01*
X40286Y425238D01*
X45000Y424867D01*
X49714Y425238D01*
X54312Y426342D01*
X58680Y428152D01*
X62712Y430622D01*
X66307Y433693D01*
X69378Y437288D01*
X71849Y441320D01*
X73658Y445689D01*
X74762Y450286D01*
X75133Y455000D01*
X74762Y459714D01*
X73658Y464312D01*
X71849Y468680D01*
X69378Y472712D01*
X66307Y476307D01*
X62712Y479378D01*
X58680Y481849D01*
X54312Y483658D01*
X49714Y484762D01*
X45000Y485133D01*
D02*
G37*
G36*
X455000D02*
X450286Y484762D01*
X445689Y483658D01*
X441320Y481849D01*
X437288Y479378D01*
X433693Y476307D01*
X430622Y472712D01*
X428151Y468680D01*
X426342Y464312D01*
X425238Y459714D01*
X424867Y455000D01*
X425238Y450286D01*
X426342Y445689D01*
X428151Y441320D01*
X430622Y437288D01*
X433693Y433693D01*
X437288Y430622D01*
X441320Y428152D01*
X445689Y426342D01*
X450286Y425238D01*
X455000Y424867D01*
X459714Y425238D01*
X464312Y426342D01*
X468680Y428152D01*
X472712Y430622D01*
X476307Y433693D01*
X479378Y437288D01*
X481849Y441320D01*
X483658Y445689D01*
X484762Y450286D01*
X485133Y455000D01*
X484762Y459714D01*
X483658Y464312D01*
X481849Y468680D01*
X479378Y472712D01*
X476307Y476307D01*
X472712Y479378D01*
X468680Y481849D01*
X464312Y483658D01*
X459714Y484762D01*
X455000Y485133D01*
D02*
G37*
G36*
X91440Y471139D02*
X88427Y470743D01*
X85620Y469580D01*
X83210Y467730D01*
X81360Y465320D01*
X80197Y462513D01*
X79800Y459500D01*
X80197Y456488D01*
X81360Y453680D01*
X83210Y451270D01*
X85620Y449420D01*
X88427Y448257D01*
X91440Y447860D01*
X94452Y448257D01*
X97260Y449420D01*
X99670Y451270D01*
X101520Y453680D01*
X102683Y456488D01*
X103080Y459500D01*
X102683Y462513D01*
X101520Y465320D01*
X99670Y467730D01*
X97260Y469580D01*
X94452Y470743D01*
X91440Y471139D01*
D02*
G37*
G36*
X430000Y298250D02*
X426987Y297853D01*
X424180Y296690D01*
X421770Y294841D01*
X419920Y292430D01*
X418757Y289623D01*
X418360Y286610D01*
X418757Y283598D01*
X419920Y280790D01*
X421770Y278380D01*
X424180Y276530D01*
X426987Y275367D01*
X430000Y274971D01*
X433013Y275367D01*
X435820Y276530D01*
X438230Y278380D01*
X438940Y279305D01*
X440210Y278874D01*
Y268947D01*
X438940Y268515D01*
X438230Y269441D01*
X435820Y271290D01*
X433013Y272453D01*
X430000Y272850D01*
X426987Y272453D01*
X424180Y271290D01*
X421770Y269441D01*
X419920Y267030D01*
X418757Y264223D01*
X418360Y261210D01*
X418757Y258198D01*
X419920Y255390D01*
X421770Y252980D01*
X424180Y251130D01*
X426987Y249967D01*
X430000Y249571D01*
X433013Y249967D01*
X435820Y251130D01*
X438230Y252980D01*
X438940Y253905D01*
X440210Y253474D01*
Y243547D01*
X438940Y243116D01*
X438230Y244041D01*
X435820Y245890D01*
X433013Y247053D01*
X430000Y247450D01*
X426987Y247053D01*
X424180Y245890D01*
X421770Y244041D01*
X419920Y241630D01*
X418757Y238823D01*
X418360Y235810D01*
X418757Y232798D01*
X419920Y229990D01*
X421770Y227580D01*
X424180Y225730D01*
X426987Y224567D01*
X430000Y224171D01*
X433013Y224567D01*
X435820Y225730D01*
X438230Y227580D01*
X438940Y228505D01*
X440210Y228074D01*
Y219022D01*
X439037Y218536D01*
X436331Y221241D01*
X435491Y221803D01*
X434500Y222000D01*
X425500D01*
X424509Y221803D01*
X423669Y221241D01*
X419169Y216741D01*
X418607Y215901D01*
X418410Y214910D01*
Y205910D01*
X418607Y204919D01*
X419169Y204079D01*
X423669Y199579D01*
X424509Y199018D01*
X425500Y198820D01*
X434500D01*
X435491Y199018D01*
X436331Y199579D01*
X440831Y204079D01*
X441393Y204919D01*
X441590Y205910D01*
Y212366D01*
X442800Y213420D01*
X462800D01*
X463791Y213617D01*
X464631Y214179D01*
X465193Y215019D01*
X465390Y216010D01*
Y281010D01*
X465193Y282001D01*
X464631Y282841D01*
X463791Y283403D01*
X462800Y283600D01*
X442800D01*
X442517Y283544D01*
X441364Y284517D01*
X441640Y286610D01*
X441243Y289623D01*
X440080Y292430D01*
X438230Y294841D01*
X435820Y296690D01*
X433013Y297853D01*
X430000Y298250D01*
D02*
G37*
G36*
X390000Y382649D02*
X385581Y382214D01*
X381333Y380925D01*
X377417Y378832D01*
X373985Y376015D01*
X371168Y372583D01*
X369075Y368667D01*
X367786Y364419D01*
X367351Y360000D01*
X367786Y355581D01*
X369075Y351333D01*
X371168Y347417D01*
X373985Y343985D01*
X377417Y341168D01*
X381333Y339075D01*
X385581Y337786D01*
X390000Y337351D01*
X394419Y337786D01*
X398667Y339075D01*
X402583Y341168D01*
X406015Y343985D01*
X408832Y347417D01*
X410925Y351333D01*
X412214Y355581D01*
X412649Y360000D01*
X412214Y364419D01*
X410925Y368667D01*
X408832Y372583D01*
X406015Y376015D01*
X402583Y378832D01*
X398667Y380925D01*
X394419Y382214D01*
X390000Y382649D01*
D02*
G37*
G36*
X167640Y471139D02*
X164627Y470743D01*
X161820Y469580D01*
X159410Y467730D01*
X157560Y465320D01*
X156397Y462513D01*
X156000Y459500D01*
X156397Y456488D01*
X157560Y453680D01*
X159410Y451270D01*
X161820Y449420D01*
X162501Y449138D01*
Y395139D01*
X160033D01*
X158066Y394748D01*
X156399Y393634D01*
X141691Y378926D01*
X140577Y377259D01*
X140186Y375292D01*
Y370154D01*
X134409Y364376D01*
X134227Y364385D01*
X133139Y364782D01*
Y375872D01*
X144427Y387160D01*
X145874Y388126D01*
X146988Y389794D01*
X147379Y391760D01*
Y449138D01*
X148060Y449420D01*
X150470Y451270D01*
X152320Y453680D01*
X153483Y456488D01*
X153879Y459500D01*
X153483Y462513D01*
X152320Y465320D01*
X150470Y467730D01*
X148060Y469580D01*
X145253Y470743D01*
X142240Y471139D01*
X139228Y470743D01*
X136420Y469580D01*
X134010Y467730D01*
X132160Y465320D01*
X130997Y462513D01*
X130600Y459500D01*
X130997Y456488D01*
X132160Y453680D01*
X134010Y451270D01*
X136420Y449420D01*
X137101Y449138D01*
Y394369D01*
X124366Y381634D01*
X124219Y381412D01*
X122949Y381798D01*
Y449641D01*
X125070Y451270D01*
X126920Y453680D01*
X128083Y456488D01*
X128479Y459500D01*
X128083Y462513D01*
X126920Y465320D01*
X125070Y467730D01*
X122660Y469580D01*
X119853Y470743D01*
X116840Y471139D01*
X113827Y470743D01*
X111020Y469580D01*
X108610Y467730D01*
X106760Y465320D01*
X105597Y462513D01*
X105200Y459500D01*
X105597Y456488D01*
X106760Y453680D01*
X108610Y451270D01*
X111020Y449420D01*
X111651Y449158D01*
Y112151D01*
X111480Y112080D01*
X109070Y110230D01*
X107220Y107820D01*
X106057Y105013D01*
X105660Y102000D01*
X106057Y98988D01*
X107220Y96180D01*
X109070Y93770D01*
X111480Y91920D01*
X114288Y90757D01*
X117300Y90360D01*
X120313Y90757D01*
X123120Y91920D01*
X125530Y93770D01*
X127380Y96180D01*
X128543Y98988D01*
X128940Y102000D01*
X128543Y105013D01*
X127566Y107370D01*
X128643Y108090D01*
X131039Y105694D01*
X130757Y105013D01*
X130360Y102000D01*
X130757Y98988D01*
X131920Y96180D01*
X133770Y93770D01*
X136180Y91920D01*
X138988Y90757D01*
X142000Y90360D01*
X145013Y90757D01*
X147820Y91920D01*
X150230Y93770D01*
X152080Y96180D01*
X153243Y98988D01*
X153640Y102000D01*
X153243Y105013D01*
X152080Y107820D01*
X150230Y110230D01*
X147820Y112080D01*
X145013Y113243D01*
X142000Y113639D01*
X138988Y113243D01*
X138306Y112961D01*
X133139Y118128D01*
Y128018D01*
X134227Y128415D01*
X134409Y128424D01*
X157139Y105694D01*
X156857Y105013D01*
X156461Y102000D01*
X156857Y98988D01*
X158020Y96180D01*
X159870Y93770D01*
X162280Y91920D01*
X165088Y90757D01*
X168100Y90360D01*
X171113Y90757D01*
X173920Y91920D01*
X176330Y93770D01*
X178180Y96180D01*
X179343Y98988D01*
X179740Y102000D01*
X179343Y105013D01*
X178180Y107820D01*
X176624Y109848D01*
X176748Y110034D01*
X177139Y112000D01*
X176748Y113967D01*
X175634Y115634D01*
X174335Y116502D01*
X174391Y117364D01*
X174554Y117827D01*
X178667Y119075D01*
X182583Y121168D01*
X186015Y123985D01*
X188832Y127417D01*
X190925Y131333D01*
X192214Y135581D01*
X192649Y140000D01*
X192214Y144419D01*
X190925Y148667D01*
X188832Y152583D01*
X186015Y156015D01*
X182583Y158832D01*
X178667Y160925D01*
X174419Y162214D01*
X170000Y162649D01*
X165581Y162214D01*
X161333Y160925D01*
X157417Y158832D01*
X153985Y156015D01*
X151168Y152583D01*
X149075Y148667D01*
X147786Y144419D01*
X147351Y140000D01*
X147786Y135581D01*
X149075Y131333D01*
X150504Y128660D01*
X149473Y127895D01*
X143139Y134228D01*
Y358572D01*
X146322Y361755D01*
X147470Y361212D01*
X147351Y360000D01*
X147786Y355581D01*
X149075Y351333D01*
X151168Y347417D01*
X153985Y343985D01*
X157417Y341168D01*
X161333Y339075D01*
X165581Y337786D01*
X170000Y337351D01*
X174419Y337786D01*
X178667Y339075D01*
X182583Y341168D01*
X186015Y343985D01*
X188832Y347417D01*
X190925Y351333D01*
X192214Y355581D01*
X192649Y360000D01*
X192214Y364419D01*
X190925Y368667D01*
X188832Y372583D01*
X186015Y376015D01*
X182583Y378832D01*
X178667Y380925D01*
X174419Y382214D01*
X170000Y382649D01*
X165581Y382214D01*
X161333Y380925D01*
X158515Y379419D01*
X157750Y380450D01*
X162161Y384861D01*
X167640D01*
X169606Y385252D01*
X171274Y386366D01*
X172388Y388033D01*
X172779Y390000D01*
Y449138D01*
X173460Y449420D01*
X175870Y451270D01*
X177720Y453680D01*
X178883Y456488D01*
X179280Y459500D01*
X178883Y462513D01*
X177720Y465320D01*
X175870Y467730D01*
X173460Y469580D01*
X170653Y470743D01*
X167640Y471139D01*
D02*
G37*
%LPD*%
D14*
X138000Y132100D02*
X168100Y102000D01*
X167640Y390000D02*
Y459500D01*
X141760Y391760D02*
X142240D01*
X128000Y378000D02*
X141760Y391760D01*
X128000Y116000D02*
Y378000D01*
Y116000D02*
X142000Y102000D01*
X168100Y108100D02*
X172000Y112000D01*
X168100Y102000D02*
Y108100D01*
X142240Y459040D02*
Y459500D01*
Y391760D02*
Y459040D01*
X142000Y102000D02*
Y106000D01*
X160033Y390000D02*
X167640D01*
X138000Y132100D02*
Y360700D01*
X145325Y368025D02*
Y375292D01*
X138000Y360700D02*
X145325Y368025D01*
Y375292D02*
X160033Y390000D01*
D15*
X142240Y459040D02*
X142700Y459500D01*
X142000Y458800D02*
X142240Y459040D01*
X117300Y102000D02*
Y459500D01*
D16*
X91440D02*
D03*
X167640D02*
D03*
X142240D02*
D03*
X116840D02*
D03*
X430000Y286610D02*
D03*
Y261210D02*
D03*
Y235810D02*
D03*
X168100Y102000D02*
D03*
X142000D02*
D03*
X117300D02*
D03*
D17*
X430000Y210410D02*
D03*
D18*
X91900Y102000D02*
D03*
D19*
X455000Y45000D02*
D03*
X45000D02*
D03*
X455000Y455000D02*
D03*
X45000D02*
D03*
D20*
X170000Y360000D02*
D03*
X390000D02*
D03*
Y140000D02*
D03*
X170000D02*
D03*
M02*
