G04 Layer_Physical_Order=1*
G04 Layer_Color=255*
%FSLAX44Y44*%
%MOMM*%
G71*
G01*
G75*
%ADD10R,1.6000X1.5000*%
%ADD11R,0.9500X0.8500*%
%ADD12R,0.8000X0.9000*%
%ADD13R,0.9000X1.2500*%
%ADD14C,0.5000*%
%ADD15C,0.6000*%
%ADD16C,1.8000*%
%ADD17P,1.9483X8X112.5*%
%ADD18P,1.9483X8X22.5*%
%ADD19C,5.5000*%
%ADD20C,4.0000*%
G36*
X475109Y495686D02*
X480022Y494196D01*
X484550Y491776D01*
X488518Y488519D01*
X491776Y484550D01*
X494196Y480022D01*
X495686Y475109D01*
X496165Y470248D01*
X496115Y470000D01*
X496115Y30000D01*
X496165Y29752D01*
X495686Y24891D01*
X494196Y19978D01*
X491776Y15450D01*
X488518Y11482D01*
X484550Y8225D01*
X480022Y5804D01*
X475109Y4314D01*
X471250Y3934D01*
X470000Y3885D01*
X470000Y3885D01*
X468730Y3885D01*
X31269Y3885D01*
X30000Y3885D01*
X28750Y3934D01*
X24891Y4314D01*
X19978Y5804D01*
X15450Y8225D01*
X11481Y11482D01*
X8225Y15450D01*
X5804Y19978D01*
X4314Y24891D01*
X3934Y28751D01*
X3885Y30000D01*
X3885Y30000D01*
X3885Y31252D01*
X3885Y470000D01*
X3835Y470248D01*
X4314Y475109D01*
X5804Y480022D01*
X8225Y484550D01*
X11481Y488519D01*
X15450Y491776D01*
X19978Y494196D01*
X24891Y495686D01*
X29752Y496165D01*
X30000Y496115D01*
X470000Y496115D01*
X470248Y496165D01*
X475109Y495686D01*
D02*
G37*
%LPC*%
G36*
X358605Y57178D02*
X358355Y57128D01*
X358100D01*
X356344Y56779D01*
X355411Y56392D01*
X353922Y55398D01*
X353922Y55398D01*
X353208Y54683D01*
X353208Y54683D01*
X352213Y53195D01*
X351826Y52261D01*
X351477Y50505D01*
Y49495D01*
X351826Y47739D01*
X352213Y46805D01*
X353208Y45317D01*
X353208Y45317D01*
X353922Y44602D01*
X353922Y44602D01*
X355411Y43608D01*
X356344Y43221D01*
X358100Y42872D01*
X358355D01*
X358605Y42822D01*
X358855Y42872D01*
X359110D01*
X360866Y43221D01*
X361800Y43608D01*
X363288Y44602D01*
X363288Y44602D01*
X364003Y45317D01*
X364003Y45317D01*
X364997Y46805D01*
X365384Y47739D01*
X365733Y49495D01*
Y50505D01*
X365384Y52261D01*
X364997Y53195D01*
X364003Y54683D01*
X364003Y54683D01*
X363288Y55398D01*
X363288Y55398D01*
X361800Y56392D01*
X360866Y56779D01*
X359110Y57128D01*
X358855D01*
X358605Y57178D01*
D02*
G37*
G36*
X328605D02*
X328355Y57128D01*
X328100D01*
X326344Y56779D01*
X325411Y56392D01*
X323922Y55398D01*
X323922Y55398D01*
X323208Y54683D01*
X323208Y54683D01*
X322213Y53195D01*
X321826Y52261D01*
X321477Y50505D01*
Y49495D01*
X321826Y47739D01*
X322213Y46805D01*
X323208Y45317D01*
X323208Y45317D01*
X323922Y44602D01*
X323922Y44602D01*
X325411Y43608D01*
X326344Y43221D01*
X328100Y42872D01*
X328355D01*
X328605Y42822D01*
X328855Y42872D01*
X329110D01*
X330866Y43221D01*
X331800Y43608D01*
X333288Y44602D01*
X333288Y44602D01*
X334003Y45317D01*
X334003Y45317D01*
X334997Y46805D01*
X335384Y47739D01*
X335733Y49495D01*
Y50505D01*
X335384Y52261D01*
X334997Y53195D01*
X334003Y54683D01*
X334003Y54683D01*
X333288Y55398D01*
X333288Y55398D01*
X331800Y56392D01*
X330866Y56779D01*
X329110Y57128D01*
X328855D01*
X328605Y57178D01*
D02*
G37*
G36*
X170000Y162649D02*
X165581Y162214D01*
X161333Y160925D01*
X157417Y158832D01*
X153985Y156015D01*
X151168Y152583D01*
X149075Y148667D01*
X147786Y144419D01*
X147351Y140000D01*
X147786Y135581D01*
X149075Y131333D01*
X151168Y127417D01*
X153985Y123985D01*
X157417Y121168D01*
X161333Y119075D01*
X165581Y117786D01*
X170000Y117351D01*
X174419Y117786D01*
X178667Y119075D01*
X182583Y121168D01*
X186015Y123985D01*
X188832Y127417D01*
X190925Y131333D01*
X192214Y135581D01*
X192649Y140000D01*
X192214Y144419D01*
X190925Y148667D01*
X188832Y152583D01*
X186015Y156015D01*
X182583Y158832D01*
X178667Y160925D01*
X174419Y162214D01*
X170000Y162649D01*
D02*
G37*
G36*
X386105Y67090D02*
X378105D01*
X377114Y66893D01*
X376274Y66331D01*
X375713Y65491D01*
X375516Y64500D01*
Y55500D01*
X375713Y54509D01*
X376274Y53669D01*
X377114Y53107D01*
X378105Y52910D01*
X386105D01*
X387096Y53107D01*
X387936Y53669D01*
X388498Y54509D01*
X388695Y55500D01*
Y64500D01*
X388498Y65491D01*
X387936Y66331D01*
X387096Y66893D01*
X386105Y67090D01*
D02*
G37*
G36*
X455000Y75133D02*
X450286Y74762D01*
X445689Y73658D01*
X441320Y71849D01*
X437288Y69378D01*
X433693Y66307D01*
X430622Y62712D01*
X428151Y58680D01*
X426342Y54312D01*
X425238Y49714D01*
X424867Y45000D01*
X425238Y40286D01*
X426342Y35689D01*
X428151Y31320D01*
X430622Y27288D01*
X433693Y23693D01*
X437288Y20622D01*
X441320Y18152D01*
X445689Y16342D01*
X450286Y15238D01*
X455000Y14867D01*
X459714Y15238D01*
X464312Y16342D01*
X468680Y18152D01*
X472712Y20622D01*
X476307Y23693D01*
X479378Y27288D01*
X481849Y31320D01*
X483658Y35689D01*
X484762Y40286D01*
X485133Y45000D01*
X484762Y49714D01*
X483658Y54312D01*
X481849Y58680D01*
X479378Y62712D01*
X476307Y66307D01*
X472712Y69378D01*
X468680Y71849D01*
X464312Y73658D01*
X459714Y74762D01*
X455000Y75133D01*
D02*
G37*
G36*
X45000D02*
X40286Y74762D01*
X35688Y73658D01*
X31320Y71849D01*
X27288Y69378D01*
X23693Y66307D01*
X20622Y62712D01*
X18151Y58680D01*
X16342Y54312D01*
X15238Y49714D01*
X14867Y45000D01*
X15238Y40286D01*
X16342Y35689D01*
X18151Y31320D01*
X20622Y27288D01*
X23693Y23693D01*
X27288Y20622D01*
X31320Y18152D01*
X35688Y16342D01*
X40286Y15238D01*
X45000Y14867D01*
X49714Y15238D01*
X54312Y16342D01*
X58680Y18152D01*
X62712Y20622D01*
X66307Y23693D01*
X69378Y27288D01*
X71849Y31320D01*
X73658Y35689D01*
X74762Y40286D01*
X75133Y45000D01*
X74762Y49714D01*
X73658Y54312D01*
X71849Y58680D01*
X69378Y62712D01*
X66307Y66307D01*
X62712Y69378D01*
X58680Y71849D01*
X54312Y73658D01*
X49714Y74762D01*
X45000Y75133D01*
D02*
G37*
G36*
X386105Y47090D02*
X378105D01*
X377114Y46893D01*
X376274Y46331D01*
X375713Y45491D01*
X375516Y44500D01*
Y35500D01*
X375713Y34509D01*
X376274Y33669D01*
X377114Y33107D01*
X378105Y32910D01*
X386105D01*
X387096Y33107D01*
X387936Y33669D01*
X388498Y34509D01*
X388695Y35500D01*
Y44500D01*
X388498Y45491D01*
X387936Y46331D01*
X387096Y46893D01*
X386105Y47090D01*
D02*
G37*
G36*
X309105D02*
X301105D01*
X300114Y46893D01*
X299274Y46331D01*
X298713Y45491D01*
X298515Y44500D01*
Y35500D01*
X298713Y34509D01*
X299274Y33669D01*
X300114Y33107D01*
X301105Y32910D01*
X309105D01*
X310096Y33107D01*
X310936Y33669D01*
X311498Y34509D01*
X311695Y35500D01*
Y44500D01*
X311498Y45491D01*
X310936Y46331D01*
X310096Y46893D01*
X309105Y47090D01*
D02*
G37*
G36*
X455000Y485133D02*
X450286Y484762D01*
X445689Y483658D01*
X441320Y481849D01*
X437288Y479378D01*
X433693Y476307D01*
X430622Y472712D01*
X428151Y468680D01*
X426342Y464312D01*
X425238Y459714D01*
X424867Y455000D01*
X425238Y450286D01*
X426342Y445689D01*
X428151Y441320D01*
X430622Y437288D01*
X433693Y433693D01*
X437288Y430622D01*
X441320Y428152D01*
X445689Y426342D01*
X450286Y425238D01*
X455000Y424867D01*
X459714Y425238D01*
X464312Y426342D01*
X468680Y428152D01*
X472712Y430622D01*
X476307Y433693D01*
X479378Y437288D01*
X481849Y441320D01*
X483658Y445689D01*
X484762Y450286D01*
X485133Y455000D01*
X484762Y459714D01*
X483658Y464312D01*
X481849Y468680D01*
X479378Y472712D01*
X476307Y476307D01*
X472712Y479378D01*
X468680Y481849D01*
X464312Y483658D01*
X459714Y484762D01*
X455000Y485133D01*
D02*
G37*
G36*
X45000D02*
X40286Y484762D01*
X35688Y483658D01*
X31320Y481849D01*
X27288Y479378D01*
X23693Y476307D01*
X20622Y472712D01*
X18151Y468680D01*
X16342Y464312D01*
X15238Y459714D01*
X14867Y455000D01*
X15238Y450286D01*
X16342Y445689D01*
X18151Y441320D01*
X20622Y437288D01*
X23693Y433693D01*
X27288Y430622D01*
X31320Y428152D01*
X35688Y426342D01*
X40286Y425238D01*
X45000Y424867D01*
X49714Y425238D01*
X54312Y426342D01*
X58680Y428152D01*
X62712Y430622D01*
X66307Y433693D01*
X69378Y437288D01*
X71849Y441320D01*
X73658Y445689D01*
X74762Y450286D01*
X75133Y455000D01*
X74762Y459714D01*
X73658Y464312D01*
X71849Y468680D01*
X69378Y472712D01*
X66307Y476307D01*
X62712Y479378D01*
X58680Y481849D01*
X54312Y483658D01*
X49714Y484762D01*
X45000Y485133D01*
D02*
G37*
G36*
X167640Y471139D02*
X164627Y470743D01*
X161820Y469580D01*
X159410Y467730D01*
X157560Y465320D01*
X156397Y462513D01*
X156000Y459500D01*
X156397Y456488D01*
X157560Y453680D01*
X159410Y451270D01*
X161820Y449420D01*
X164627Y448257D01*
X167640Y447860D01*
X170653Y448257D01*
X173460Y449420D01*
X175870Y451270D01*
X177720Y453680D01*
X178883Y456488D01*
X179280Y459500D01*
X178883Y462513D01*
X177720Y465320D01*
X175870Y467730D01*
X173460Y469580D01*
X170653Y470743D01*
X167640Y471139D01*
D02*
G37*
G36*
X142240D02*
X139228Y470743D01*
X136420Y469580D01*
X134010Y467730D01*
X132160Y465320D01*
X130997Y462513D01*
X130600Y459500D01*
X130997Y456488D01*
X132160Y453680D01*
X134010Y451270D01*
X136420Y449420D01*
X139228Y448257D01*
X142240Y447860D01*
X145253Y448257D01*
X148060Y449420D01*
X150470Y451270D01*
X152320Y453680D01*
X153483Y456488D01*
X153879Y459500D01*
X153483Y462513D01*
X152320Y465320D01*
X150470Y467730D01*
X148060Y469580D01*
X145253Y470743D01*
X142240Y471139D01*
D02*
G37*
G36*
X240000Y485649D02*
X240000Y485648D01*
X112400D01*
X110238Y485219D01*
X108406Y483994D01*
X108406Y483994D01*
X94949Y470537D01*
X94452Y470743D01*
X91440Y471139D01*
X88427Y470743D01*
X85620Y469580D01*
X83210Y467730D01*
X81360Y465320D01*
X80197Y462513D01*
X79800Y459500D01*
X80197Y456488D01*
X81360Y453680D01*
X83210Y451270D01*
X85620Y449420D01*
X88427Y448257D01*
X91440Y447860D01*
X94452Y448257D01*
X97260Y449420D01*
X99670Y451270D01*
X101520Y453680D01*
X102683Y456488D01*
X103080Y459500D01*
X102708Y462320D01*
X105157Y464769D01*
X106234Y464049D01*
X105597Y462513D01*
X105200Y459500D01*
X105597Y456488D01*
X106760Y453680D01*
X108610Y451270D01*
X111020Y449420D01*
X113827Y448257D01*
X116840Y447860D01*
X119853Y448257D01*
X122660Y449420D01*
X125070Y451270D01*
X126920Y453680D01*
X128083Y456488D01*
X128479Y459500D01*
X128083Y462513D01*
X126920Y465320D01*
X125070Y467730D01*
X122660Y469580D01*
X119853Y470743D01*
X116840Y471139D01*
X113827Y470743D01*
X112291Y470106D01*
X111571Y471183D01*
X114740Y474352D01*
X237660D01*
X326352Y385660D01*
Y346000D01*
X326351Y346000D01*
X326781Y343838D01*
X328006Y342006D01*
X387396Y282616D01*
X387396Y282616D01*
X389228Y281392D01*
X391390Y280962D01*
X391390Y280962D01*
X419849D01*
X419920Y280790D01*
X421770Y278380D01*
X424180Y276530D01*
X426987Y275367D01*
X430000Y274971D01*
X433013Y275367D01*
X435820Y276530D01*
X438230Y278380D01*
X438940Y279305D01*
X440210Y278874D01*
Y268947D01*
X438940Y268515D01*
X438230Y269441D01*
X435820Y271290D01*
X433013Y272453D01*
X430000Y272850D01*
X426987Y272453D01*
X424180Y271290D01*
X421770Y269441D01*
X419920Y267030D01*
X419849Y266859D01*
X387210D01*
X387210Y266859D01*
X385049Y266429D01*
X383216Y265204D01*
X381660Y263648D01*
X337718D01*
X336764Y264835D01*
X336900Y265396D01*
X337143Y265759D01*
X337340Y266750D01*
Y275250D01*
X337143Y276241D01*
X336581Y277081D01*
X335741Y277643D01*
X334750Y277840D01*
X325250D01*
X324259Y277643D01*
X323419Y277081D01*
X323130Y276649D01*
X317000D01*
X317000Y276649D01*
X314838Y276218D01*
X313006Y274994D01*
X313006Y274994D01*
X311660Y273648D01*
X305000D01*
X302838Y273219D01*
X302719Y273139D01*
X284590D01*
Y275500D01*
X284393Y276491D01*
X283831Y277331D01*
X282991Y277893D01*
X282000Y278090D01*
X266000D01*
X265009Y277893D01*
X264169Y277331D01*
X263607Y276491D01*
X263410Y275500D01*
Y260500D01*
X263607Y259509D01*
X264169Y258669D01*
X265009Y258107D01*
X266000Y257910D01*
X282000D01*
X282991Y258107D01*
X283831Y258669D01*
X284393Y259509D01*
X284590Y260500D01*
Y262861D01*
X302719D01*
X302838Y262781D01*
X305000Y262351D01*
X314000D01*
X314000Y262351D01*
X316162Y262781D01*
X317994Y264006D01*
X319340Y265352D01*
X322282D01*
X323236Y264165D01*
X323100Y263604D01*
X322857Y263241D01*
X322660Y262250D01*
Y253750D01*
X322857Y252759D01*
X323419Y251919D01*
X324259Y251357D01*
X325250Y251160D01*
X334750D01*
X335741Y251357D01*
X336581Y251919D01*
X336870Y252351D01*
X384000D01*
X384000Y252351D01*
X386162Y252781D01*
X387994Y254006D01*
X389550Y255562D01*
X419849D01*
X419920Y255390D01*
X421770Y252980D01*
X424180Y251130D01*
X426987Y249967D01*
X430000Y249571D01*
X433013Y249967D01*
X435820Y251130D01*
X438230Y252980D01*
X438940Y253905D01*
X440210Y253474D01*
Y243547D01*
X438940Y243116D01*
X438230Y244041D01*
X435820Y245890D01*
X433013Y247053D01*
X430000Y247450D01*
X426987Y247053D01*
X424180Y245890D01*
X421770Y244041D01*
X419920Y241630D01*
X419849Y241459D01*
X404530D01*
X401994Y243994D01*
X400162Y245219D01*
X398000Y245649D01*
X398000Y245648D01*
X326000D01*
X326000Y245649D01*
X323838Y245219D01*
X322006Y243994D01*
X322006Y243994D01*
X315660Y237649D01*
X284590D01*
Y239500D01*
X284393Y240491D01*
X283831Y241331D01*
X282991Y241893D01*
X282000Y242090D01*
X266000D01*
X265009Y241893D01*
X264169Y241331D01*
X263607Y240491D01*
X263410Y239500D01*
Y224500D01*
X263607Y223509D01*
X264169Y222669D01*
X265009Y222107D01*
X266000Y221910D01*
X282000D01*
X282991Y222107D01*
X283831Y222669D01*
X284393Y223509D01*
X284590Y224500D01*
Y226352D01*
X318000D01*
X318000Y226352D01*
X320162Y226782D01*
X321994Y228006D01*
X328340Y234352D01*
X395660D01*
X398196Y231816D01*
X398196Y231816D01*
X400028Y230592D01*
X402190Y230162D01*
X402190Y230162D01*
X419849D01*
X419920Y229990D01*
X421770Y227580D01*
X424180Y225730D01*
X426987Y224567D01*
X430000Y224171D01*
X433013Y224567D01*
X435820Y225730D01*
X438230Y227580D01*
X438940Y228505D01*
X440210Y228074D01*
Y219022D01*
X439037Y218536D01*
X436331Y221241D01*
X435491Y221803D01*
X434500Y222000D01*
X425500D01*
X424509Y221803D01*
X423669Y221241D01*
X419169Y216741D01*
X418607Y215901D01*
X418410Y214910D01*
Y205910D01*
X418607Y204919D01*
X419169Y204079D01*
X423669Y199579D01*
X424509Y199018D01*
X424861Y198948D01*
Y134129D01*
X381871Y91139D01*
X370000D01*
X368033Y90748D01*
X366366Y89634D01*
X361972Y85239D01*
X360858Y83572D01*
X360466Y81605D01*
Y80463D01*
X360114Y80393D01*
X359274Y79831D01*
X358774Y79083D01*
X358105Y79010D01*
X357436Y79083D01*
X356936Y79831D01*
X356096Y80393D01*
X355744Y80463D01*
Y81395D01*
X355353Y83361D01*
X354239Y85028D01*
X351634Y87634D01*
X349967Y88748D01*
X348000Y89139D01*
X168550D01*
X168467Y90409D01*
X168951Y90472D01*
X171113Y90757D01*
X173920Y91920D01*
X176330Y93770D01*
X178180Y96180D01*
X179343Y98988D01*
X179740Y102000D01*
X179343Y105013D01*
X178180Y107820D01*
X176330Y110230D01*
X173920Y112080D01*
X171113Y113243D01*
X168100Y113639D01*
X165088Y113243D01*
X162280Y112080D01*
X159870Y110230D01*
X158020Y107820D01*
X156857Y105013D01*
X156461Y102000D01*
X156857Y98988D01*
X158020Y96180D01*
X159870Y93770D01*
X162280Y91920D01*
X165088Y90757D01*
X167249Y90472D01*
X167733Y90409D01*
X167650Y89139D01*
X142450D01*
X142367Y90409D01*
X142851Y90472D01*
X145013Y90757D01*
X147820Y91920D01*
X150230Y93770D01*
X152080Y96180D01*
X153243Y98988D01*
X153640Y102000D01*
X153243Y105013D01*
X152080Y107820D01*
X150230Y110230D01*
X147820Y112080D01*
X145013Y113243D01*
X142000Y113639D01*
X138988Y113243D01*
X136180Y112080D01*
X133770Y110230D01*
X131920Y107820D01*
X130757Y105013D01*
X130360Y102000D01*
X130757Y98988D01*
X131920Y96180D01*
X133770Y93770D01*
X136180Y91920D01*
X138988Y90757D01*
X141149Y90472D01*
X141633Y90409D01*
X141550Y89139D01*
X118123D01*
X118068Y89180D01*
X118119Y89979D01*
X118321Y90495D01*
X120313Y90757D01*
X123120Y91920D01*
X125530Y93770D01*
X127380Y96180D01*
X128543Y98988D01*
X128940Y102000D01*
X128543Y105013D01*
X127380Y107820D01*
X125530Y110230D01*
X123120Y112080D01*
X120313Y113243D01*
X117300Y113639D01*
X114288Y113243D01*
X111480Y112080D01*
X109070Y110230D01*
X107220Y107820D01*
X106057Y105013D01*
X105660Y102000D01*
X106057Y98988D01*
X107220Y96180D01*
X108660Y94303D01*
X107703Y93464D01*
X103490Y97677D01*
Y106500D01*
X103293Y107491D01*
X102731Y108331D01*
X98231Y112831D01*
X97391Y113393D01*
X96400Y113590D01*
X87400D01*
X86409Y113393D01*
X85569Y112831D01*
X81069Y108331D01*
X80507Y107491D01*
X80310Y106500D01*
Y97500D01*
X80507Y96509D01*
X81069Y95669D01*
X85569Y91169D01*
X86409Y90607D01*
X87400Y90410D01*
X96222D01*
X106266Y80366D01*
X107934Y79252D01*
X109900Y78861D01*
X309809D01*
X310515Y78000D01*
Y68024D01*
X309245Y67062D01*
X309105Y67090D01*
X301105D01*
X300114Y66893D01*
X299274Y66331D01*
X298713Y65491D01*
X298515Y64500D01*
Y55500D01*
X298713Y54509D01*
X299274Y53669D01*
X300114Y53107D01*
X301105Y52910D01*
X309105D01*
X310096Y53107D01*
X310936Y53669D01*
X311498Y54509D01*
X311695Y55500D01*
Y61976D01*
X312965Y62938D01*
X313105Y62910D01*
X322105D01*
X323096Y63107D01*
X323936Y63669D01*
X324498Y64509D01*
X324695Y65500D01*
Y78000D01*
X325402Y78861D01*
X342809D01*
X343516Y78000D01*
Y65500D01*
X343713Y64509D01*
X344274Y63669D01*
X345114Y63107D01*
X346105Y62910D01*
X355105D01*
X356096Y63107D01*
X356936Y63669D01*
X357436Y64416D01*
X358105Y64490D01*
X358774Y64416D01*
X359274Y63669D01*
X360114Y63107D01*
X361105Y62910D01*
X370105D01*
X371096Y63107D01*
X371936Y63669D01*
X372498Y64509D01*
X372695Y65500D01*
Y78000D01*
X372498Y78991D01*
X372085Y79609D01*
X372366Y80443D01*
X372659Y80861D01*
X384000D01*
X385966Y81252D01*
X387634Y82366D01*
X433634Y128366D01*
X434748Y130034D01*
X435139Y132000D01*
Y198948D01*
X435491Y199018D01*
X436331Y199579D01*
X440831Y204079D01*
X441393Y204919D01*
X441590Y205910D01*
Y212366D01*
X442800Y213420D01*
X462800D01*
X463791Y213617D01*
X464631Y214179D01*
X465193Y215019D01*
X465390Y216010D01*
Y281010D01*
X465193Y282001D01*
X464631Y282841D01*
X463791Y283403D01*
X462800Y283600D01*
X442800D01*
X442517Y283544D01*
X441364Y284517D01*
X441640Y286610D01*
X441243Y289623D01*
X440080Y292430D01*
X438230Y294841D01*
X435820Y296690D01*
X433013Y297853D01*
X430000Y298250D01*
X426987Y297853D01*
X424180Y296690D01*
X421770Y294841D01*
X419920Y292430D01*
X419849Y292259D01*
X393730D01*
X337649Y348340D01*
Y388000D01*
X337649Y388000D01*
X337219Y390162D01*
X335994Y391994D01*
X335994Y391994D01*
X243994Y483994D01*
X242162Y485219D01*
X240000Y485649D01*
D02*
G37*
G36*
X390000Y162649D02*
X385581Y162214D01*
X381333Y160925D01*
X377417Y158832D01*
X373985Y156015D01*
X371168Y152583D01*
X369075Y148667D01*
X367786Y144419D01*
X367351Y140000D01*
X367786Y135581D01*
X369075Y131333D01*
X371168Y127417D01*
X373985Y123985D01*
X377417Y121168D01*
X381333Y119075D01*
X385581Y117786D01*
X390000Y117351D01*
X394419Y117786D01*
X398667Y119075D01*
X402583Y121168D01*
X406015Y123985D01*
X408832Y127417D01*
X410925Y131333D01*
X412214Y135581D01*
X412649Y140000D01*
X412214Y144419D01*
X410925Y148667D01*
X408832Y152583D01*
X406015Y156015D01*
X402583Y158832D01*
X398667Y160925D01*
X394419Y162214D01*
X390000Y162649D01*
D02*
G37*
G36*
Y382649D02*
X385581Y382214D01*
X381333Y380925D01*
X377417Y378832D01*
X373985Y376015D01*
X371168Y372583D01*
X369075Y368667D01*
X367786Y364419D01*
X367351Y360000D01*
X367786Y355581D01*
X369075Y351333D01*
X371168Y347417D01*
X373985Y343985D01*
X377417Y341168D01*
X381333Y339075D01*
X385581Y337786D01*
X390000Y337351D01*
X394419Y337786D01*
X398667Y339075D01*
X402583Y341168D01*
X406015Y343985D01*
X408832Y347417D01*
X410925Y351333D01*
X412214Y355581D01*
X412649Y360000D01*
X412214Y364419D01*
X410925Y368667D01*
X408832Y372583D01*
X406015Y376015D01*
X402583Y378832D01*
X398667Y380925D01*
X394419Y382214D01*
X390000Y382649D01*
D02*
G37*
G36*
X170000D02*
X165581Y382214D01*
X161333Y380925D01*
X157417Y378832D01*
X153985Y376015D01*
X151168Y372583D01*
X149075Y368667D01*
X147786Y364419D01*
X147351Y360000D01*
X147786Y355581D01*
X149075Y351333D01*
X151168Y347417D01*
X153985Y343985D01*
X157417Y341168D01*
X161333Y339075D01*
X165581Y337786D01*
X170000Y337351D01*
X174419Y337786D01*
X178667Y339075D01*
X182583Y341168D01*
X186015Y343985D01*
X188832Y347417D01*
X190925Y351333D01*
X192214Y355581D01*
X192649Y360000D01*
X192214Y364419D01*
X190925Y368667D01*
X188832Y372583D01*
X186015Y376015D01*
X182583Y378832D01*
X178667Y380925D01*
X174419Y382214D01*
X170000Y382649D01*
D02*
G37*
%LPD*%
D10*
X274000Y268000D02*
D03*
Y232000D02*
D03*
D11*
X330000Y258000D02*
D03*
Y271000D02*
D03*
D12*
X305105Y60000D02*
D03*
Y40000D02*
D03*
X382105Y60000D02*
D03*
Y40000D02*
D03*
D13*
X365605Y71750D02*
D03*
X350605D02*
D03*
X317605D02*
D03*
D14*
X370000Y86000D02*
X384000D01*
X365605Y81605D02*
X370000Y86000D01*
X365605Y71750D02*
Y81605D01*
X350605Y71750D02*
Y81395D01*
X348000Y84000D02*
X350605Y81395D01*
X430000Y132000D02*
Y210410D01*
X384000Y86000D02*
X430000Y132000D01*
X109900Y84000D02*
X348000D01*
X91900Y102000D02*
X109900Y84000D01*
X274000Y268000D02*
X305000D01*
D15*
X391390Y286610D02*
X430000D01*
X332000Y346000D02*
X391390Y286610D01*
X332000Y346000D02*
Y388000D01*
X240000Y480000D02*
X332000Y388000D01*
X305000Y268000D02*
X314000D01*
X317000Y271000D01*
X330000D01*
X387210Y261210D02*
X430000D01*
X384000Y258000D02*
X387210Y261210D01*
X330000Y258000D02*
X384000D01*
X274000Y232000D02*
X318000D01*
X326000Y240000D01*
X398000D01*
X402190Y235810D01*
X430000D01*
Y286610D02*
Y290000D01*
X91900Y459500D02*
X112400Y480000D01*
X240000D01*
D16*
X91440Y459500D02*
D03*
X167640D02*
D03*
X142240D02*
D03*
X116840D02*
D03*
X430000Y286610D02*
D03*
Y261210D02*
D03*
Y235810D02*
D03*
X168100Y102000D02*
D03*
X142000D02*
D03*
X117300D02*
D03*
D17*
X430000Y210410D02*
D03*
D18*
X91900Y102000D02*
D03*
D19*
X455000Y45000D02*
D03*
X45000D02*
D03*
X455000Y455000D02*
D03*
X45000D02*
D03*
D20*
X170000Y360000D02*
D03*
X390000D02*
D03*
Y140000D02*
D03*
X170000D02*
D03*
M02*
