G04 Layer_Color=8388736*
%FSLAX44Y44*%
%MOMM*%
G71*
G01*
G75*
%ADD25R,1.8032X1.7032*%
%ADD26R,1.1532X1.0532*%
%ADD27R,1.0032X1.1032*%
%ADD28R,1.1032X1.4532*%
%ADD29C,2.0032*%
%ADD30P,2.1683X8X112.5*%
G04:AMPARAMS|DCode=31|XSize=0.2032mm|YSize=0.2032mm|CornerRadius=0mm|HoleSize=0mm|Usage=FLASHONLY|Rotation=90.000|XOffset=0mm|YOffset=0mm|HoleType=Round|Shape=RoundedRectangle|*
%AMROUNDEDRECTD31*
21,1,0.2032,0.2032,0,0,90.0*
21,1,0.2032,0.2032,0,0,90.0*
1,1,0.0000,0.1016,0.1016*
1,1,0.0000,0.1016,-0.1016*
1,1,0.0000,-0.1016,-0.1016*
1,1,0.0000,-0.1016,0.1016*
%
%ADD31ROUNDEDRECTD31*%
%ADD32P,2.1683X8X22.5*%
%ADD33C,0.2032*%
%ADD34C,5.7032*%
%ADD35C,4.2032*%
D25*
X274000Y268000D02*
D03*
Y232000D02*
D03*
D26*
X330000Y258000D02*
D03*
Y271000D02*
D03*
D27*
X305105Y60000D02*
D03*
Y40000D02*
D03*
X382105Y60000D02*
D03*
Y40000D02*
D03*
D28*
X365605Y71750D02*
D03*
X350605D02*
D03*
X317605D02*
D03*
D29*
X91440Y459500D02*
D03*
X167640D02*
D03*
X142240D02*
D03*
X116840D02*
D03*
X430000Y286610D02*
D03*
Y261210D02*
D03*
Y235810D02*
D03*
X168100Y102000D02*
D03*
X142000D02*
D03*
X117300D02*
D03*
D30*
X430000Y210410D02*
D03*
D31*
X452800Y248510D02*
D03*
D32*
X91900Y102000D02*
D03*
D33*
X328605Y50000D02*
D03*
X358605D02*
D03*
D34*
X455000Y45000D02*
D03*
X45000D02*
D03*
X455000Y455000D02*
D03*
X45000D02*
D03*
D35*
X170000Y360000D02*
D03*
X390000D02*
D03*
Y140000D02*
D03*
X170000D02*
D03*
M02*
