G04 Layer_Color=65535*
%FSLAX44Y44*%
%MOMM*%
G71*
G01*
G75*
%ADD21C,0.2540*%
%ADD22C,0.2000*%
G36*
X506982Y232488D02*
X507336Y232424D01*
X507755Y232295D01*
X508173Y232102D01*
X508624Y231812D01*
X509043Y231458D01*
X509075Y231426D01*
X509204Y231265D01*
X509397Y231039D01*
X509590Y230749D01*
X509784Y230363D01*
X509977Y229912D01*
X510106Y229429D01*
X510138Y228881D01*
Y218639D01*
Y218607D01*
Y218575D01*
Y218382D01*
X510074Y218092D01*
X510009Y217738D01*
X509880Y217351D01*
X509687Y216900D01*
X509397Y216481D01*
X509043Y216063D01*
X509011Y216031D01*
X508850Y215902D01*
X508624Y215741D01*
X508335Y215548D01*
X507948Y215322D01*
X507497Y215161D01*
X506982Y215032D01*
X506434Y215000D01*
X504663D01*
X504470Y215032D01*
X504180Y215064D01*
X503825Y215129D01*
X503407Y215258D01*
X502988Y215451D01*
X502537Y215709D01*
X502118Y216063D01*
X502086Y216127D01*
X501957Y216256D01*
X501796Y216481D01*
X501603Y216771D01*
X501410Y217158D01*
X501249Y217609D01*
X501120Y218092D01*
X501088Y218639D01*
Y223760D01*
Y223793D01*
Y223825D01*
X501120Y224018D01*
X501152Y224308D01*
X501217Y224662D01*
X501345Y225081D01*
X501539Y225499D01*
X501796Y225950D01*
X502151Y226369D01*
X502215Y226401D01*
X502344Y226530D01*
X502569Y226691D01*
X502859Y226917D01*
X503246Y227110D01*
X503697Y227271D01*
X504180Y227400D01*
X504727Y227432D01*
X507884D01*
Y228881D01*
Y228913D01*
Y228978D01*
X507851Y229107D01*
X507819Y229236D01*
X507723Y229590D01*
X507594Y229751D01*
X507465Y229912D01*
X507433Y229944D01*
X507401Y229976D01*
X507304Y230041D01*
X507175Y230137D01*
X506853Y230266D01*
X506660Y230298D01*
X506434Y230331D01*
X503858D01*
X503729Y230363D01*
X503536Y230395D01*
X503342Y230459D01*
X503149Y230588D01*
X502956Y230781D01*
X502827Y231071D01*
X502795Y231426D01*
Y231490D01*
X502827Y231619D01*
X502859Y231780D01*
X502924Y232005D01*
X503052Y232199D01*
X503246Y232392D01*
X503536Y232521D01*
X503890Y232553D01*
X506692D01*
X506982Y232488D01*
D02*
G37*
G36*
X521346Y227400D02*
X521507Y227368D01*
X521733Y227303D01*
X521958Y227142D01*
X522119Y226949D01*
X522248Y226691D01*
X522312Y226305D01*
Y217802D01*
Y217770D01*
Y217705D01*
X522345Y217609D01*
X522409Y217512D01*
X522506Y217383D01*
X522667Y217287D01*
X522860Y217222D01*
X523150Y217190D01*
X523279D01*
X523440Y217126D01*
X523601Y217061D01*
X523730Y216932D01*
X523890Y216739D01*
X523987Y216449D01*
X524019Y216095D01*
Y216063D01*
X523987Y215934D01*
X523955Y215741D01*
X523890Y215548D01*
X523730Y215354D01*
X523536Y215161D01*
X523246Y215032D01*
X522860Y215000D01*
X522635D01*
X522409Y215064D01*
X522119Y215129D01*
X521829Y215226D01*
X521475Y215387D01*
X521185Y215612D01*
X520895Y215902D01*
X520863Y215870D01*
X520734Y215773D01*
X520573Y215612D01*
X520316Y215451D01*
X519994Y215290D01*
X519607Y215129D01*
X519124Y215032D01*
X518609Y215000D01*
X516837D01*
X516644Y215032D01*
X516354Y215064D01*
X516000Y215129D01*
X515581Y215258D01*
X515162Y215451D01*
X514711Y215676D01*
X514293Y216031D01*
X514261Y216095D01*
X514132Y216224D01*
X513971Y216449D01*
X513778Y216771D01*
X513584Y217126D01*
X513423Y217577D01*
X513294Y218092D01*
X513262Y218639D01*
Y223760D01*
Y223793D01*
Y223825D01*
X513294Y224018D01*
X513327Y224308D01*
X513391Y224662D01*
X513520Y225081D01*
X513713Y225499D01*
X513938Y225950D01*
X514293Y226369D01*
X514357Y226401D01*
X514486Y226530D01*
X514711Y226691D01*
X515034Y226917D01*
X515388Y227110D01*
X515839Y227271D01*
X516354Y227400D01*
X516902Y227432D01*
X521217D01*
X521346Y227400D01*
D02*
G37*
G36*
X105683Y414219D02*
X111925Y412151D01*
X111945D01*
X111984Y412112D01*
X112062Y412073D01*
X112140Y412034D01*
X112218Y411956D01*
X112296Y411858D01*
X112335Y411761D01*
X112354Y411624D01*
Y409517D01*
Y409498D01*
Y409439D01*
X112335Y409342D01*
X112296Y409244D01*
X112218Y409166D01*
X112140Y409069D01*
X112003Y409010D01*
X111827Y408991D01*
X105429D01*
X105351Y409010D01*
X105254Y409049D01*
X105156Y409127D01*
X105078Y409205D01*
X105020Y409342D01*
X105000Y409517D01*
Y409537D01*
Y409595D01*
X105020Y409693D01*
X105058Y409771D01*
X105117Y409869D01*
X105215Y409966D01*
X105332Y410025D01*
X105507Y410044D01*
X111301D01*
Y411254D01*
X105351Y413224D01*
X105332D01*
X105293Y413243D01*
X105176Y413321D01*
X105117Y413399D01*
X105058Y413477D01*
X105020Y413575D01*
X105000Y413712D01*
Y413731D01*
Y413789D01*
X105020Y413887D01*
X105058Y413965D01*
X105137Y414063D01*
X105215Y414160D01*
X105351Y414219D01*
X105527Y414238D01*
X105585D01*
X105683Y414219D01*
D02*
G37*
G36*
X115163Y429981D02*
X115261Y429941D01*
X115339Y429883D01*
X115436Y429785D01*
X115495Y429668D01*
X115514Y429493D01*
Y426859D01*
Y426840D01*
Y426801D01*
Y426742D01*
X115495Y426664D01*
X115475Y426469D01*
X115417Y426216D01*
X115339Y425904D01*
X115202Y425591D01*
X115007Y425279D01*
X114754Y424987D01*
X114715Y424948D01*
X114617Y424870D01*
X114461Y424753D01*
X114227Y424596D01*
X113954Y424460D01*
X113642Y424343D01*
X113291Y424265D01*
X112881Y424226D01*
X112764D01*
X112666Y424245D01*
X112432Y424284D01*
X112159Y424343D01*
X111827Y424460D01*
X111476Y424636D01*
X111320Y424753D01*
X111145Y424870D01*
X110989Y425026D01*
X110833Y425201D01*
X110813Y425182D01*
X110794Y425143D01*
X110735Y425065D01*
X110657Y424967D01*
X110579Y424850D01*
X110462Y424733D01*
X110325Y424596D01*
X110169Y424440D01*
X109974Y424304D01*
X109779Y424167D01*
X109565Y424050D01*
X109311Y423933D01*
X109058Y423836D01*
X108765Y423758D01*
X108472Y423719D01*
X108141Y423699D01*
X108024D01*
X107926Y423719D01*
X107809D01*
X107673Y423738D01*
X107380Y423816D01*
X107029Y423933D01*
X106658Y424089D01*
X106268Y424323D01*
X106092Y424479D01*
X105917Y424636D01*
Y424655D01*
X105878Y424674D01*
X105839Y424733D01*
X105780Y424792D01*
X105624Y424987D01*
X105468Y425260D01*
X105293Y425572D01*
X105137Y425962D01*
X105039Y426391D01*
X105020Y426625D01*
X105000Y426859D01*
Y429493D01*
Y429512D01*
Y429571D01*
X105020Y429649D01*
X105058Y429746D01*
X105117Y429844D01*
X105215Y429922D01*
X105332Y429981D01*
X105507Y430000D01*
X115066D01*
X115163Y429981D01*
D02*
G37*
G36*
X112003Y421573D02*
X112101Y421534D01*
X112179Y421456D01*
X112276Y421378D01*
X112335Y421241D01*
X112354Y421066D01*
Y421046D01*
Y420988D01*
X112335Y420890D01*
X112296Y420793D01*
X112218Y420715D01*
X112140Y420617D01*
X112003Y420559D01*
X111827Y420539D01*
X108902D01*
X112198Y417242D01*
X112218Y417223D01*
X112276Y417145D01*
X112335Y417028D01*
X112354Y416872D01*
Y416852D01*
Y416794D01*
X112335Y416696D01*
X112296Y416599D01*
X112218Y416521D01*
X112140Y416423D01*
X112003Y416365D01*
X111827Y416345D01*
X111789D01*
X111711Y416365D01*
X111574Y416404D01*
X111457Y416501D01*
X109136Y418803D01*
X105819Y416442D01*
X105800Y416423D01*
X105722Y416384D01*
X105624Y416365D01*
X105507Y416345D01*
X105429D01*
X105351Y416365D01*
X105254Y416404D01*
X105156Y416482D01*
X105078Y416559D01*
X105020Y416696D01*
X105000Y416872D01*
Y416891D01*
Y416911D01*
X105020Y417028D01*
X105098Y417164D01*
X105137Y417242D01*
X105215Y417301D01*
X108375Y419564D01*
X107399Y420539D01*
X105429D01*
X105351Y420559D01*
X105254Y420597D01*
X105156Y420676D01*
X105078Y420754D01*
X105020Y420890D01*
X105000Y421066D01*
Y421085D01*
Y421144D01*
X105020Y421241D01*
X105058Y421319D01*
X105117Y421417D01*
X105215Y421514D01*
X105332Y421573D01*
X105507Y421592D01*
X111906D01*
X112003Y421573D01*
D02*
G37*
G36*
Y468165D02*
X112101Y468126D01*
X112179Y468048D01*
X112276Y467970D01*
X112335Y467834D01*
X112354Y467658D01*
Y467639D01*
Y467580D01*
X112335Y467483D01*
X112296Y467385D01*
X112218Y467307D01*
X112140Y467210D01*
X112003Y467151D01*
X111827Y467131D01*
X108902D01*
X112198Y463835D01*
X112218Y463815D01*
X112276Y463737D01*
X112335Y463620D01*
X112354Y463464D01*
Y463445D01*
Y463386D01*
X112335Y463288D01*
X112296Y463191D01*
X112218Y463113D01*
X112140Y463015D01*
X112003Y462957D01*
X111827Y462937D01*
X111789D01*
X111711Y462957D01*
X111574Y462996D01*
X111457Y463093D01*
X109136Y465395D01*
X105819Y463035D01*
X105800Y463015D01*
X105722Y462976D01*
X105624Y462957D01*
X105507Y462937D01*
X105429D01*
X105351Y462957D01*
X105254Y462996D01*
X105156Y463074D01*
X105078Y463152D01*
X105020Y463288D01*
X105000Y463464D01*
Y463484D01*
Y463503D01*
X105020Y463620D01*
X105098Y463757D01*
X105137Y463835D01*
X105215Y463893D01*
X108375Y466156D01*
X107399Y467131D01*
X105429D01*
X105351Y467151D01*
X105254Y467190D01*
X105156Y467268D01*
X105078Y467346D01*
X105020Y467483D01*
X105000Y467658D01*
Y467678D01*
Y467736D01*
X105020Y467834D01*
X105058Y467912D01*
X105117Y468009D01*
X105215Y468107D01*
X105332Y468165D01*
X105507Y468185D01*
X111906D01*
X112003Y468165D01*
D02*
G37*
G36*
X105683Y460811D02*
X111925Y458743D01*
X111945D01*
X111984Y458704D01*
X112062Y458665D01*
X112140Y458626D01*
X112218Y458548D01*
X112296Y458451D01*
X112335Y458353D01*
X112354Y458217D01*
Y456110D01*
Y456090D01*
Y456032D01*
X112335Y455934D01*
X112296Y455837D01*
X112218Y455759D01*
X112140Y455661D01*
X112003Y455603D01*
X111827Y455583D01*
X105429D01*
X105351Y455603D01*
X105254Y455642D01*
X105156Y455720D01*
X105078Y455798D01*
X105020Y455934D01*
X105000Y456110D01*
Y456129D01*
Y456188D01*
X105020Y456285D01*
X105058Y456363D01*
X105117Y456461D01*
X105215Y456558D01*
X105332Y456617D01*
X105507Y456637D01*
X111301D01*
Y457846D01*
X105351Y459816D01*
X105332D01*
X105293Y459836D01*
X105176Y459914D01*
X105117Y459992D01*
X105058Y460070D01*
X105020Y460167D01*
X105000Y460304D01*
Y460323D01*
Y460382D01*
X105020Y460480D01*
X105058Y460558D01*
X105137Y460655D01*
X105215Y460753D01*
X105351Y460811D01*
X105527Y460831D01*
X105585D01*
X105683Y460811D01*
D02*
G37*
G36*
X112003Y471325D02*
X112101Y471287D01*
X112179Y471208D01*
X112276Y471130D01*
X112335Y470994D01*
X112354Y470818D01*
Y470799D01*
Y470740D01*
X112335Y470643D01*
X112296Y470545D01*
X112218Y470467D01*
X112140Y470370D01*
X112003Y470311D01*
X111827Y470292D01*
X105429D01*
X105351Y470311D01*
X105254Y470350D01*
X105156Y470428D01*
X105078Y470506D01*
X105020Y470643D01*
X105000Y470818D01*
Y470838D01*
Y470896D01*
X105020Y470994D01*
X105058Y471072D01*
X105117Y471169D01*
X105215Y471267D01*
X105332Y471325D01*
X105507Y471345D01*
X111906D01*
X112003Y471325D01*
D02*
G37*
G36*
X115163Y484981D02*
X115261Y484941D01*
X115339Y484883D01*
X115436Y484785D01*
X115495Y484668D01*
X115514Y484493D01*
Y481859D01*
Y481840D01*
Y481801D01*
Y481742D01*
X115495Y481664D01*
X115475Y481469D01*
X115417Y481216D01*
X115339Y480904D01*
X115202Y480591D01*
X115007Y480279D01*
X114754Y479987D01*
X114715Y479948D01*
X114617Y479870D01*
X114461Y479753D01*
X114227Y479596D01*
X113954Y479460D01*
X113642Y479343D01*
X113291Y479265D01*
X112881Y479226D01*
X112764D01*
X112666Y479245D01*
X112432Y479284D01*
X112159Y479343D01*
X111827Y479460D01*
X111476Y479636D01*
X111320Y479753D01*
X111145Y479870D01*
X110989Y480026D01*
X110833Y480201D01*
X110813Y480182D01*
X110794Y480143D01*
X110735Y480065D01*
X110657Y479967D01*
X110579Y479850D01*
X110462Y479733D01*
X110325Y479596D01*
X110169Y479440D01*
X109974Y479304D01*
X109779Y479167D01*
X109565Y479050D01*
X109311Y478933D01*
X109058Y478836D01*
X108765Y478758D01*
X108472Y478719D01*
X108141Y478699D01*
X108024D01*
X107926Y478719D01*
X107809D01*
X107673Y478738D01*
X107380Y478816D01*
X107029Y478933D01*
X106658Y479089D01*
X106268Y479323D01*
X106092Y479479D01*
X105917Y479636D01*
Y479655D01*
X105878Y479675D01*
X105839Y479733D01*
X105780Y479792D01*
X105624Y479987D01*
X105468Y480260D01*
X105293Y480572D01*
X105137Y480962D01*
X105039Y481391D01*
X105020Y481625D01*
X105000Y481859D01*
Y484493D01*
Y484512D01*
Y484571D01*
X105020Y484649D01*
X105058Y484746D01*
X105117Y484844D01*
X105215Y484922D01*
X105332Y484981D01*
X105507Y485000D01*
X115066D01*
X115163Y484981D01*
D02*
G37*
G36*
X112003Y476573D02*
X112101Y476534D01*
X112179Y476456D01*
X112276Y476378D01*
X112335Y476241D01*
X112354Y476066D01*
Y476046D01*
Y475988D01*
X112335Y475890D01*
X112296Y475793D01*
X112218Y475715D01*
X112140Y475617D01*
X112003Y475559D01*
X111827Y475539D01*
X109214D01*
Y474486D01*
Y474466D01*
Y474447D01*
Y474330D01*
X109175Y474174D01*
X109136Y473979D01*
X109058Y473744D01*
X108960Y473491D01*
X108804Y473237D01*
X108589Y473003D01*
X108570Y472984D01*
X108472Y472906D01*
X108355Y472808D01*
X108180Y472691D01*
X107965Y472574D01*
X107711Y472476D01*
X107419Y472398D01*
X107107Y472379D01*
X106951D01*
X106795Y472418D01*
X106580Y472457D01*
X106346Y472535D01*
X106092Y472632D01*
X105839Y472789D01*
X105605Y473003D01*
X105585Y473023D01*
X105507Y473120D01*
X105410Y473237D01*
X105312Y473413D01*
X105195Y473627D01*
X105098Y473881D01*
X105020Y474174D01*
X105000Y474486D01*
Y476066D01*
Y476085D01*
Y476144D01*
X105020Y476241D01*
X105058Y476319D01*
X105117Y476417D01*
X105215Y476514D01*
X105332Y476573D01*
X105507Y476592D01*
X111906D01*
X112003Y476573D01*
D02*
G37*
G36*
X493745Y227400D02*
X494099Y227368D01*
X494550Y227271D01*
X495033Y227110D01*
X495580Y226884D01*
X496128Y226562D01*
X496643Y226112D01*
X496708Y226047D01*
X496837Y225886D01*
X497062Y225596D01*
X497320Y225210D01*
X497545Y224759D01*
X497771Y224211D01*
X497899Y223567D01*
X497964Y222891D01*
Y219509D01*
Y219477D01*
Y219412D01*
Y219316D01*
X497932Y219187D01*
X497899Y218865D01*
X497803Y218414D01*
X497642Y217899D01*
X497384Y217383D01*
X497062Y216836D01*
X496611Y216320D01*
X496547Y216256D01*
X496386Y216127D01*
X496096Y215902D01*
X495709Y215676D01*
X495258Y215419D01*
X494711Y215193D01*
X494099Y215064D01*
X493423Y215000D01*
X493229D01*
X493101Y215032D01*
X492746Y215064D01*
X492295Y215161D01*
X491812Y215322D01*
X491265Y215548D01*
X490717Y215870D01*
X490202Y216288D01*
X490137Y216353D01*
X490009Y216514D01*
X489783Y216804D01*
X489558Y217190D01*
X489332Y217641D01*
X489107Y218221D01*
X488978Y218833D01*
X488913Y219509D01*
Y222891D01*
Y222923D01*
Y222987D01*
Y223084D01*
X488946Y223213D01*
X488978Y223567D01*
X489075Y224018D01*
X489236Y224501D01*
X489461Y225049D01*
X489783Y225596D01*
X490202Y226112D01*
X490266Y226176D01*
X490427Y226305D01*
X490717Y226530D01*
X491104Y226788D01*
X491554Y227013D01*
X492134Y227239D01*
X492746Y227368D01*
X493423Y227432D01*
X493616D01*
X493745Y227400D01*
D02*
G37*
G36*
X245620Y563741D02*
X246206Y563623D01*
X247026Y563389D01*
X247846Y562803D01*
X248432Y562100D01*
X248901Y561163D01*
X249135Y559757D01*
Y513240D01*
Y513123D01*
Y513006D01*
Y512303D01*
X248901Y511248D01*
X248666Y509959D01*
X248197Y508553D01*
X247495Y506913D01*
X246440Y505390D01*
X245151Y503867D01*
X245034Y503749D01*
X244448Y503281D01*
X243628Y502695D01*
X242573Y501992D01*
X241167Y501172D01*
X239527Y500586D01*
X237652Y500117D01*
X235660Y500000D01*
X220077D01*
X219608Y500117D01*
X218905Y500234D01*
X218202Y500469D01*
X217382Y500937D01*
X216796Y501640D01*
X216327Y502695D01*
X216093Y503984D01*
Y504218D01*
X216210Y504687D01*
X216327Y505273D01*
X216562Y506093D01*
X217147Y506796D01*
X217850Y507499D01*
X218788Y507968D01*
X220194Y508085D01*
X236012D01*
X236363Y508202D01*
X236949Y508319D01*
X238121Y508788D01*
X238707Y509139D01*
X239293Y509608D01*
X239410Y509725D01*
X239527Y509842D01*
X239761Y510194D01*
X240113Y510662D01*
X240699Y511834D01*
X240816Y512537D01*
X240933Y513240D01*
Y524723D01*
X226052D01*
X225466Y524840D01*
X224881D01*
X224060Y524957D01*
X223240Y525192D01*
X221131Y525777D01*
X219960Y526246D01*
X218788Y526832D01*
X217616Y527418D01*
X216444Y528238D01*
X215273Y529292D01*
X214101Y530347D01*
X213046Y531636D01*
X212109Y533159D01*
X211992Y533276D01*
X211758Y533745D01*
X211406Y534448D01*
X211054Y535385D01*
X210703Y536557D01*
X210352Y537963D01*
X210117Y539486D01*
X210000Y541127D01*
Y559757D01*
Y559991D01*
X210117Y560460D01*
X210234Y561046D01*
X210469Y561866D01*
X210937Y562569D01*
X211640Y563272D01*
X212695Y563741D01*
X213984Y563858D01*
X214218D01*
X214687Y563741D01*
X215273Y563623D01*
X216093Y563389D01*
X216913Y562803D01*
X217499Y562100D01*
X217968Y561163D01*
X218202Y559757D01*
Y541127D01*
Y541010D01*
Y540541D01*
X218319Y539838D01*
X218553Y539018D01*
X218788Y538080D01*
X219139Y537143D01*
X219725Y536088D01*
X220545Y535151D01*
X220662Y535034D01*
X221014Y534799D01*
X221483Y534448D01*
X222186Y533979D01*
X223006Y533511D01*
X224060Y533159D01*
X225232Y532925D01*
X226404Y532808D01*
X240933D01*
Y559757D01*
Y559991D01*
X241050Y560460D01*
X241167Y561046D01*
X241402Y561866D01*
X241870Y562569D01*
X242573Y563272D01*
X243628Y563741D01*
X244917Y563858D01*
X245151D01*
X245620Y563741D01*
D02*
G37*
G36*
X83678Y222530D02*
X83874Y222491D01*
X84147Y222413D01*
X84420Y222218D01*
X84615Y221984D01*
X84771Y221672D01*
X84850Y221203D01*
Y210896D01*
Y210857D01*
Y210779D01*
X84888Y210662D01*
X84967Y210545D01*
X85084Y210389D01*
X85279Y210272D01*
X85513Y210194D01*
X85864Y210155D01*
X86021D01*
X86216Y210077D01*
X86411Y209999D01*
X86567Y209842D01*
X86762Y209608D01*
X86880Y209257D01*
X86919Y208827D01*
Y208788D01*
X86880Y208632D01*
X86840Y208398D01*
X86762Y208164D01*
X86567Y207929D01*
X86333Y207695D01*
X85982Y207539D01*
X85513Y207500D01*
X85240D01*
X84967Y207578D01*
X84615Y207656D01*
X84264Y207773D01*
X83834Y207969D01*
X83483Y208242D01*
X83132Y208593D01*
X83093Y208554D01*
X82936Y208437D01*
X82741Y208242D01*
X82429Y208047D01*
X82039Y207851D01*
X81570Y207656D01*
X80984Y207539D01*
X80360Y207500D01*
X78213D01*
X77979Y207539D01*
X77627Y207578D01*
X77198Y207656D01*
X76690Y207812D01*
X76183Y208047D01*
X75636Y208320D01*
X75129Y208749D01*
X75090Y208827D01*
X74933Y208983D01*
X74738Y209257D01*
X74504Y209647D01*
X74270Y210077D01*
X74075Y210623D01*
X73918Y211248D01*
X73879Y211912D01*
Y218119D01*
Y218158D01*
Y218197D01*
X73918Y218431D01*
X73957Y218783D01*
X74035Y219212D01*
X74192Y219720D01*
X74426Y220227D01*
X74699Y220774D01*
X75129Y221281D01*
X75207Y221320D01*
X75363Y221476D01*
X75636Y221672D01*
X76027Y221945D01*
X76456Y222179D01*
X77003Y222374D01*
X77627Y222530D01*
X78291Y222569D01*
X83522D01*
X83678Y222530D01*
D02*
G37*
G36*
X331857Y563741D02*
X333146Y563623D01*
X334786Y563272D01*
X336661Y562686D01*
X338653Y561866D01*
X340645Y560694D01*
X342519Y559054D01*
X342754Y558819D01*
X343223Y558234D01*
X344043Y557179D01*
X344980Y555773D01*
X345800Y554133D01*
X346620Y552141D01*
X347089Y549797D01*
X347323Y547337D01*
Y547220D01*
Y546985D01*
Y546634D01*
X347206Y546048D01*
X346972Y544642D01*
X346620Y542884D01*
X345917Y541010D01*
X344863Y539018D01*
X344160Y537963D01*
X343457Y537026D01*
X342519Y536206D01*
X341465Y535385D01*
X341582D01*
X341816Y535151D01*
X342285Y534917D01*
X342871Y534448D01*
X343574Y533862D01*
X344277Y533276D01*
X345097Y532456D01*
X345917Y531519D01*
X346738Y530464D01*
X347558Y529292D01*
X348261Y528004D01*
X348964Y526598D01*
X349550Y524957D01*
X350018Y523317D01*
X350253Y521442D01*
X350370Y519450D01*
Y519333D01*
Y519099D01*
Y518630D01*
X350253Y518044D01*
Y517458D01*
X350018Y516638D01*
X349667Y514646D01*
X348964Y512537D01*
X347909Y510194D01*
X347323Y509022D01*
X346503Y507850D01*
X345683Y506679D01*
X344629Y505624D01*
X344511Y505507D01*
X344394Y505390D01*
X344043Y505155D01*
X343574Y504804D01*
X342402Y503867D01*
X340762Y502812D01*
X338653Y501758D01*
X336310Y500937D01*
X333615Y500234D01*
X332209Y500117D01*
X330685Y500000D01*
X315102D01*
X314633Y500117D01*
X313930Y500234D01*
X313227Y500469D01*
X312524Y500937D01*
X311821Y501640D01*
X311352Y502695D01*
X311235Y503984D01*
Y559757D01*
Y559991D01*
X311352Y560460D01*
X311469Y561046D01*
X311704Y561866D01*
X312172Y562569D01*
X312875Y563272D01*
X313930Y563741D01*
X315219Y563858D01*
X331388D01*
X331857Y563741D01*
D02*
G37*
G36*
X296237D02*
X296823Y563623D01*
X297643Y563389D01*
X298463Y562803D01*
X299049Y562100D01*
X299518Y561163D01*
X299752Y559757D01*
Y503984D01*
Y503867D01*
X299635Y503398D01*
X299518Y502695D01*
X299284Y501992D01*
X298698Y501289D01*
X297995Y500586D01*
X296940Y500117D01*
X295534Y500000D01*
X295417D01*
X294948Y500117D01*
X294245Y500234D01*
X293542Y500469D01*
X292839Y500937D01*
X292136Y501640D01*
X291668Y502695D01*
X291551Y503984D01*
Y555773D01*
X268820D01*
Y503984D01*
Y503867D01*
X268702Y503398D01*
X268585Y502695D01*
X268351Y501992D01*
X267765Y501289D01*
X267062Y500586D01*
X266007Y500117D01*
X264601Y500000D01*
X264484D01*
X264016Y500117D01*
X263312Y500234D01*
X262609Y500469D01*
X261906Y500937D01*
X261203Y501640D01*
X260735Y502695D01*
X260618Y503984D01*
Y559757D01*
Y559991D01*
X260735Y560460D01*
X260852Y561046D01*
X261086Y561866D01*
X261555Y562569D01*
X262258Y563272D01*
X263312Y563741D01*
X264601Y563858D01*
X295769D01*
X296237Y563741D01*
D02*
G37*
G36*
X34371Y228738D02*
X34800Y228699D01*
X35347Y228582D01*
X35972Y228386D01*
X36635Y228113D01*
X37299Y227723D01*
X37924Y227176D01*
X38002Y227098D01*
X38158Y226903D01*
X38431Y226551D01*
X38744Y226083D01*
X39017Y225536D01*
X39290Y224873D01*
X39446Y224092D01*
X39524Y223272D01*
Y223233D01*
Y223155D01*
Y223038D01*
X39485Y222843D01*
X39407Y222374D01*
X39290Y221789D01*
X39056Y221164D01*
X38704Y220500D01*
X38470Y220149D01*
X38236Y219837D01*
X37924Y219563D01*
X37572Y219290D01*
X37611D01*
X37689Y219212D01*
X37845Y219134D01*
X38041Y218978D01*
X38275Y218783D01*
X38509Y218587D01*
X38782Y218314D01*
X39056Y218002D01*
X39329Y217650D01*
X39602Y217260D01*
X39837Y216831D01*
X40071Y216362D01*
X40266Y215816D01*
X40422Y215269D01*
X40500Y214644D01*
X40539Y213981D01*
Y213942D01*
Y213864D01*
Y213707D01*
X40500Y213512D01*
Y213317D01*
X40422Y213044D01*
X40305Y212380D01*
X40071Y211677D01*
X39720Y210896D01*
X39524Y210506D01*
X39251Y210116D01*
X38978Y209725D01*
X38626Y209374D01*
X38587Y209335D01*
X38548Y209296D01*
X38431Y209218D01*
X38275Y209101D01*
X37885Y208788D01*
X37338Y208437D01*
X36635Y208086D01*
X35854Y207812D01*
X34957Y207578D01*
X34488Y207539D01*
X33981Y207500D01*
X28788D01*
X28632Y207539D01*
X28398Y207578D01*
X28164Y207656D01*
X27929Y207812D01*
X27695Y208047D01*
X27539Y208398D01*
X27500Y208827D01*
Y227410D01*
Y227488D01*
X27539Y227645D01*
X27578Y227840D01*
X27656Y228113D01*
X27812Y228347D01*
X28047Y228582D01*
X28398Y228738D01*
X28827Y228777D01*
X34215D01*
X34371Y228738D01*
D02*
G37*
G36*
X50221Y222530D02*
X50651Y222491D01*
X51197Y222374D01*
X51783Y222179D01*
X52446Y221906D01*
X53110Y221515D01*
X53735Y220969D01*
X53813Y220891D01*
X53969Y220695D01*
X54242Y220344D01*
X54555Y219876D01*
X54828Y219329D01*
X55101Y218665D01*
X55257Y217885D01*
X55335Y217065D01*
Y212966D01*
Y212927D01*
Y212848D01*
Y212731D01*
X55296Y212575D01*
X55257Y212185D01*
X55140Y211638D01*
X54945Y211014D01*
X54633Y210389D01*
X54242Y209725D01*
X53696Y209101D01*
X53618Y209023D01*
X53422Y208866D01*
X53071Y208593D01*
X52603Y208320D01*
X52056Y208008D01*
X51392Y207734D01*
X50651Y207578D01*
X49831Y207500D01*
X49597D01*
X49440Y207539D01*
X49011Y207578D01*
X48464Y207695D01*
X47879Y207890D01*
X47215Y208164D01*
X46551Y208554D01*
X45927Y209062D01*
X45849Y209140D01*
X45693Y209335D01*
X45419Y209686D01*
X45146Y210155D01*
X44873Y210701D01*
X44599Y211404D01*
X44443Y212146D01*
X44365Y212966D01*
Y217065D01*
Y217104D01*
Y217182D01*
Y217299D01*
X44404Y217455D01*
X44443Y217885D01*
X44560Y218431D01*
X44756Y219017D01*
X45029Y219680D01*
X45419Y220344D01*
X45927Y220969D01*
X46005Y221047D01*
X46200Y221203D01*
X46551Y221476D01*
X47020Y221789D01*
X47566Y222062D01*
X48269Y222335D01*
X49011Y222491D01*
X49831Y222569D01*
X50065D01*
X50221Y222530D01*
D02*
G37*
G36*
X66266Y228699D02*
X66696Y228620D01*
X67203Y228464D01*
X67711Y228230D01*
X68257Y227879D01*
X68765Y227449D01*
X68804Y227410D01*
X68960Y227215D01*
X69194Y226942D01*
X69429Y226590D01*
X69663Y226122D01*
X69897Y225575D01*
X70053Y224990D01*
X70092Y224326D01*
Y211912D01*
Y211873D01*
Y211833D01*
Y211599D01*
X70014Y211248D01*
X69936Y210818D01*
X69780Y210350D01*
X69546Y209803D01*
X69194Y209296D01*
X68765Y208788D01*
X68726Y208749D01*
X68531Y208593D01*
X68257Y208398D01*
X67906Y208164D01*
X67438Y207890D01*
X66891Y207695D01*
X66266Y207539D01*
X65603Y207500D01*
X63456D01*
X63221Y207539D01*
X62870Y207578D01*
X62441Y207656D01*
X61933Y207812D01*
X61426Y208047D01*
X60879Y208359D01*
X60371Y208788D01*
X60332Y208866D01*
X60176Y209023D01*
X59981Y209296D01*
X59747Y209647D01*
X59513Y210116D01*
X59317Y210662D01*
X59161Y211248D01*
X59122Y211912D01*
Y218119D01*
Y218158D01*
Y218197D01*
X59161Y218431D01*
X59200Y218783D01*
X59278Y219212D01*
X59435Y219720D01*
X59669Y220227D01*
X59981Y220774D01*
X60410Y221281D01*
X60489Y221320D01*
X60645Y221476D01*
X60918Y221672D01*
X61269Y221945D01*
X61738Y222179D01*
X62284Y222374D01*
X62870Y222530D01*
X63534Y222569D01*
X67360D01*
Y224326D01*
Y224365D01*
Y224443D01*
X67321Y224599D01*
X67282Y224756D01*
X67164Y225185D01*
X67008Y225380D01*
X66852Y225575D01*
X66813Y225614D01*
X66774Y225653D01*
X66657Y225732D01*
X66501Y225849D01*
X66110Y226005D01*
X65876Y226044D01*
X65603Y226083D01*
X62480D01*
X62323Y226122D01*
X62089Y226161D01*
X61855Y226239D01*
X61621Y226395D01*
X61386Y226630D01*
X61230Y226981D01*
X61191Y227410D01*
Y227488D01*
X61230Y227645D01*
X61269Y227840D01*
X61347Y228113D01*
X61504Y228347D01*
X61738Y228582D01*
X62089Y228738D01*
X62519Y228777D01*
X65915D01*
X66266Y228699D01*
D02*
G37*
G36*
X480668Y232521D02*
X481023Y232488D01*
X481474Y232392D01*
X481989Y232231D01*
X482537Y232005D01*
X483084Y231683D01*
X483599Y231232D01*
X483664Y231168D01*
X483793Y231007D01*
X484018Y230717D01*
X484276Y230331D01*
X484501Y229880D01*
X484727Y229332D01*
X484855Y228688D01*
X484920Y228012D01*
Y227980D01*
Y227915D01*
Y227819D01*
X484888Y227657D01*
X484823Y227271D01*
X484727Y226788D01*
X484533Y226273D01*
X484244Y225725D01*
X484050Y225435D01*
X483857Y225177D01*
X483599Y224952D01*
X483310Y224727D01*
X483342D01*
X483406Y224662D01*
X483535Y224598D01*
X483696Y224469D01*
X483889Y224308D01*
X484082Y224147D01*
X484308Y223921D01*
X484533Y223664D01*
X484759Y223374D01*
X484984Y223052D01*
X485177Y222698D01*
X485371Y222311D01*
X485532Y221860D01*
X485661Y221409D01*
X485725Y220894D01*
X485757Y220346D01*
Y220314D01*
Y220250D01*
Y220121D01*
X485725Y219960D01*
Y219799D01*
X485661Y219573D01*
X485564Y219026D01*
X485371Y218446D01*
X485081Y217802D01*
X484920Y217480D01*
X484694Y217158D01*
X484469Y216836D01*
X484179Y216546D01*
X484147Y216514D01*
X484115Y216481D01*
X484018Y216417D01*
X483889Y216320D01*
X483567Y216063D01*
X483116Y215773D01*
X482537Y215483D01*
X481892Y215258D01*
X481152Y215064D01*
X480765Y215032D01*
X480346Y215000D01*
X476063D01*
X475934Y215032D01*
X475741Y215064D01*
X475547Y215129D01*
X475354Y215258D01*
X475161Y215451D01*
X475032Y215741D01*
X475000Y216095D01*
Y231426D01*
Y231490D01*
X475032Y231619D01*
X475064Y231780D01*
X475129Y232005D01*
X475258Y232199D01*
X475451Y232392D01*
X475741Y232521D01*
X476095Y232553D01*
X480540D01*
X480668Y232521D01*
D02*
G37*
%LPC*%
G36*
X507884Y225210D02*
X504631D01*
X504534Y225177D01*
X504373Y225145D01*
X504051Y225049D01*
X503890Y224920D01*
X503729Y224791D01*
X503697Y224759D01*
X503664Y224727D01*
X503600Y224630D01*
X503536Y224501D01*
X503375Y224179D01*
X503342Y223986D01*
X503310Y223760D01*
Y218639D01*
Y218607D01*
Y218543D01*
X503342Y218446D01*
X503375Y218285D01*
X503503Y217963D01*
X503600Y217802D01*
X503729Y217641D01*
X503761Y217609D01*
X503793Y217577D01*
X503890Y217512D01*
X504019Y217448D01*
X504341Y217287D01*
X504534Y217255D01*
X504727Y217222D01*
X506531D01*
X506628Y217255D01*
X506788Y217287D01*
X507111Y217416D01*
X507272Y217512D01*
X507433Y217641D01*
X507465Y217673D01*
X507497Y217705D01*
X507561Y217802D01*
X507658Y217931D01*
X507819Y218253D01*
X507851Y218446D01*
X507884Y218639D01*
Y225210D01*
D02*
G37*
G36*
X520058D02*
X516805D01*
X516708Y225177D01*
X516547Y225145D01*
X516225Y225049D01*
X516064Y224920D01*
X515903Y224791D01*
Y224759D01*
X515839Y224727D01*
X515774Y224630D01*
X515710Y224501D01*
X515581Y224179D01*
X515549Y223986D01*
X515517Y223760D01*
Y218639D01*
Y218607D01*
Y218543D01*
X515549Y218446D01*
X515581Y218285D01*
X515710Y217963D01*
X515807Y217802D01*
X515935Y217641D01*
X515968Y217609D01*
X516000Y217577D01*
X516096Y217512D01*
X516225Y217448D01*
X516515Y217287D01*
X516708Y217255D01*
X516902Y217222D01*
X518705D01*
X518802Y217255D01*
X518963Y217287D01*
X519285Y217416D01*
X519446Y217512D01*
X519607Y217641D01*
X519639Y217673D01*
X519671Y217705D01*
X519736Y217802D01*
X519832Y217931D01*
X519994Y218253D01*
X520026Y218446D01*
X520058Y218639D01*
Y225210D01*
D02*
G37*
G36*
X114461Y428947D02*
X111301D01*
Y426859D01*
Y426840D01*
Y426742D01*
X111320Y426625D01*
X111359Y426469D01*
X111418Y426313D01*
X111496Y426118D01*
X111594Y425923D01*
X111749Y425747D01*
X111769Y425728D01*
X111827Y425669D01*
X111925Y425591D01*
X112062Y425513D01*
X112237Y425435D01*
X112432Y425357D01*
X112647Y425299D01*
X112881Y425279D01*
X112998D01*
X113115Y425299D01*
X113271Y425338D01*
X113427Y425396D01*
X113622Y425474D01*
X113817Y425591D01*
X113993Y425747D01*
X114012Y425767D01*
X114071Y425826D01*
X114149Y425923D01*
X114227Y426059D01*
X114305Y426216D01*
X114383Y426411D01*
X114441Y426625D01*
X114461Y426859D01*
Y428947D01*
D02*
G37*
G36*
X110247D02*
X106053D01*
Y426859D01*
Y426840D01*
Y426820D01*
X106073Y426703D01*
X106092Y426547D01*
X106131Y426352D01*
X106209Y426118D01*
X106307Y425864D01*
X106463Y425611D01*
X106658Y425377D01*
X106678Y425357D01*
X106775Y425279D01*
X106892Y425182D01*
X107068Y425065D01*
X107282Y424948D01*
X107536Y424850D01*
X107829Y424772D01*
X108141Y424753D01*
X108297D01*
X108453Y424792D01*
X108648Y424831D01*
X108882Y424909D01*
X109136Y425006D01*
X109389Y425162D01*
X109623Y425377D01*
X109643Y425396D01*
X109721Y425494D01*
X109818Y425611D01*
X109935Y425786D01*
X110052Y426001D01*
X110150Y426255D01*
X110228Y426547D01*
X110247Y426859D01*
Y428947D01*
D02*
G37*
G36*
X114461Y483947D02*
X111301D01*
Y481859D01*
Y481840D01*
Y481742D01*
X111320Y481625D01*
X111359Y481469D01*
X111418Y481313D01*
X111496Y481118D01*
X111594Y480923D01*
X111749Y480747D01*
X111769Y480728D01*
X111827Y480669D01*
X111925Y480591D01*
X112062Y480513D01*
X112237Y480435D01*
X112432Y480357D01*
X112647Y480299D01*
X112881Y480279D01*
X112998D01*
X113115Y480299D01*
X113271Y480338D01*
X113427Y480396D01*
X113622Y480474D01*
X113817Y480591D01*
X113993Y480747D01*
X114012Y480767D01*
X114071Y480826D01*
X114149Y480923D01*
X114227Y481060D01*
X114305Y481216D01*
X114383Y481411D01*
X114441Y481625D01*
X114461Y481859D01*
Y483947D01*
D02*
G37*
G36*
X110247D02*
X106053D01*
Y481859D01*
Y481840D01*
Y481820D01*
X106073Y481703D01*
X106092Y481547D01*
X106131Y481352D01*
X106209Y481118D01*
X106307Y480864D01*
X106463Y480611D01*
X106658Y480377D01*
X106678Y480357D01*
X106775Y480279D01*
X106892Y480182D01*
X107068Y480065D01*
X107282Y479948D01*
X107536Y479850D01*
X107829Y479772D01*
X108141Y479753D01*
X108297D01*
X108453Y479792D01*
X108648Y479831D01*
X108882Y479909D01*
X109136Y480006D01*
X109389Y480162D01*
X109623Y480377D01*
X109643Y480396D01*
X109721Y480494D01*
X109818Y480611D01*
X109935Y480787D01*
X110052Y481001D01*
X110150Y481255D01*
X110228Y481547D01*
X110247Y481859D01*
Y483947D01*
D02*
G37*
G36*
X108160Y475539D02*
X106053D01*
Y474486D01*
Y474466D01*
Y474408D01*
X106073Y474330D01*
X106092Y474232D01*
X106131Y474115D01*
X106171Y473998D01*
X106249Y473861D01*
X106346Y473744D01*
X106365Y473725D01*
X106404Y473686D01*
X106463Y473647D01*
X106561Y473588D01*
X106678Y473530D01*
X106795Y473471D01*
X106951Y473452D01*
X107107Y473432D01*
X107185D01*
X107263Y473452D01*
X107360Y473471D01*
X107477Y473510D01*
X107594Y473569D01*
X107731Y473647D01*
X107848Y473744D01*
X107868Y473764D01*
X107907Y473803D01*
X107946Y473861D01*
X108004Y473959D01*
X108063Y474057D01*
X108121Y474193D01*
X108141Y474330D01*
X108160Y474486D01*
Y475539D01*
D02*
G37*
G36*
X493423Y225210D02*
X493261D01*
X493101Y225177D01*
X492875Y225113D01*
X492617Y225049D01*
X492360Y224920D01*
X492070Y224759D01*
X491812Y224533D01*
X491780Y224501D01*
X491716Y224405D01*
X491619Y224276D01*
X491490Y224082D01*
X491361Y223825D01*
X491265Y223567D01*
X491200Y223245D01*
X491168Y222891D01*
Y219509D01*
Y219477D01*
Y219348D01*
X491200Y219155D01*
X491265Y218929D01*
X491329Y218672D01*
X491426Y218382D01*
X491587Y218124D01*
X491812Y217866D01*
X491844Y217834D01*
X491941Y217770D01*
X492070Y217673D01*
X492263Y217544D01*
X492489Y217416D01*
X492778Y217319D01*
X493068Y217255D01*
X493423Y217222D01*
X493584D01*
X493745Y217255D01*
X493970Y217319D01*
X494228Y217383D01*
X494485Y217480D01*
X494775Y217641D01*
X495033Y217866D01*
X495065Y217899D01*
X495130Y217995D01*
X495258Y218124D01*
X495387Y218317D01*
X495484Y218575D01*
X495613Y218833D01*
X495677Y219155D01*
X495709Y219509D01*
Y222891D01*
Y222923D01*
Y223052D01*
X495677Y223245D01*
X495613Y223470D01*
X495548Y223728D01*
X495419Y223986D01*
X495258Y224276D01*
X495033Y224533D01*
X495001Y224566D01*
X494904Y224630D01*
X494775Y224759D01*
X494582Y224888D01*
X494356Y224984D01*
X494067Y225113D01*
X493777Y225177D01*
X493423Y225210D01*
D02*
G37*
G36*
X82117Y219876D02*
X78174D01*
X78057Y219837D01*
X77861Y219798D01*
X77471Y219680D01*
X77276Y219524D01*
X77080Y219368D01*
Y219329D01*
X77003Y219290D01*
X76924Y219173D01*
X76846Y219017D01*
X76690Y218626D01*
X76651Y218392D01*
X76612Y218119D01*
Y211912D01*
Y211873D01*
Y211794D01*
X76651Y211677D01*
X76690Y211482D01*
X76846Y211092D01*
X76963Y210896D01*
X77120Y210701D01*
X77159Y210662D01*
X77198Y210623D01*
X77315Y210545D01*
X77471Y210467D01*
X77822Y210272D01*
X78057Y210233D01*
X78291Y210194D01*
X80477D01*
X80594Y210233D01*
X80789Y210272D01*
X81180Y210428D01*
X81375Y210545D01*
X81570Y210701D01*
X81609Y210740D01*
X81648Y210779D01*
X81726Y210896D01*
X81843Y211053D01*
X82039Y211443D01*
X82078Y211677D01*
X82117Y211912D01*
Y219876D01*
D02*
G37*
G36*
X330685Y555773D02*
X319437D01*
Y539018D01*
X331271D01*
X331974Y539135D01*
X332794Y539369D01*
X333732Y539604D01*
X334669Y539955D01*
X335724Y540541D01*
X336661Y541361D01*
X336778Y541478D01*
X337012Y541830D01*
X337481Y542298D01*
X337950Y543002D01*
X338301Y543939D01*
X338770Y544876D01*
X339004Y546048D01*
X339122Y547337D01*
Y547454D01*
Y547923D01*
X339004Y548508D01*
X338770Y549329D01*
X338536Y550266D01*
X338067Y551203D01*
X337481Y552258D01*
X336661Y553195D01*
X336544Y553312D01*
X336192Y553547D01*
X335724Y554016D01*
X335021Y554484D01*
X334083Y554953D01*
X333146Y555421D01*
X331974Y555656D01*
X330685Y555773D01*
D02*
G37*
G36*
Y530933D02*
X319437D01*
Y508085D01*
X331506D01*
X332326Y508319D01*
X333497Y508553D01*
X334786Y508905D01*
X336075Y509491D01*
X337481Y510311D01*
X338770Y511366D01*
X338887Y511483D01*
X339356Y511951D01*
X339825Y512654D01*
X340528Y513592D01*
X341114Y514763D01*
X341699Y516170D01*
X342051Y517693D01*
X342168Y519450D01*
Y519685D01*
Y520270D01*
X342051Y521091D01*
X341699Y522262D01*
X341348Y523551D01*
X340762Y524840D01*
X339942Y526246D01*
X338770Y527535D01*
X338653Y527652D01*
X338184Y528121D01*
X337481Y528590D01*
X336544Y529292D01*
X335372Y529878D01*
X333966Y530464D01*
X332443Y530816D01*
X330685Y530933D01*
D02*
G37*
G36*
X33981Y217806D02*
X30233D01*
Y210194D01*
X34254D01*
X34527Y210272D01*
X34918Y210350D01*
X35347Y210467D01*
X35776Y210662D01*
X36245Y210935D01*
X36674Y211287D01*
X36713Y211326D01*
X36869Y211482D01*
X37026Y211716D01*
X37260Y212029D01*
X37455Y212419D01*
X37650Y212887D01*
X37768Y213395D01*
X37806Y213981D01*
Y214059D01*
Y214254D01*
X37768Y214527D01*
X37650Y214918D01*
X37533Y215347D01*
X37338Y215777D01*
X37065Y216245D01*
X36674Y216674D01*
X36635Y216713D01*
X36479Y216870D01*
X36245Y217026D01*
X35933Y217260D01*
X35542Y217455D01*
X35074Y217650D01*
X34566Y217768D01*
X33981Y217806D01*
D02*
G37*
G36*
Y226083D02*
X30233D01*
Y220500D01*
X34176D01*
X34410Y220539D01*
X34683Y220617D01*
X34996Y220695D01*
X35308Y220813D01*
X35659Y221008D01*
X35972Y221281D01*
X36011Y221320D01*
X36089Y221437D01*
X36245Y221593D01*
X36401Y221828D01*
X36518Y222140D01*
X36674Y222452D01*
X36752Y222843D01*
X36792Y223272D01*
Y223311D01*
Y223467D01*
X36752Y223662D01*
X36674Y223936D01*
X36596Y224248D01*
X36440Y224560D01*
X36245Y224912D01*
X35972Y225224D01*
X35933Y225263D01*
X35815Y225341D01*
X35659Y225497D01*
X35425Y225653D01*
X35113Y225810D01*
X34800Y225966D01*
X34410Y226044D01*
X33981Y226083D01*
D02*
G37*
G36*
X49831Y219876D02*
X49636D01*
X49440Y219837D01*
X49167Y219758D01*
X48855Y219680D01*
X48542Y219524D01*
X48191Y219329D01*
X47879Y219056D01*
X47840Y219017D01*
X47762Y218900D01*
X47645Y218743D01*
X47488Y218509D01*
X47332Y218197D01*
X47215Y217885D01*
X47137Y217494D01*
X47098Y217065D01*
Y212966D01*
Y212927D01*
Y212770D01*
X47137Y212536D01*
X47215Y212263D01*
X47293Y211951D01*
X47410Y211599D01*
X47606Y211287D01*
X47879Y210975D01*
X47918Y210935D01*
X48035Y210857D01*
X48191Y210740D01*
X48425Y210584D01*
X48699Y210428D01*
X49050Y210311D01*
X49401Y210233D01*
X49831Y210194D01*
X50026D01*
X50221Y210233D01*
X50494Y210311D01*
X50807Y210389D01*
X51119Y210506D01*
X51470Y210701D01*
X51783Y210975D01*
X51822Y211014D01*
X51900Y211131D01*
X52056Y211287D01*
X52212Y211521D01*
X52329Y211833D01*
X52485Y212146D01*
X52564Y212536D01*
X52603Y212966D01*
Y217065D01*
Y217104D01*
Y217260D01*
X52564Y217494D01*
X52485Y217768D01*
X52407Y218080D01*
X52251Y218392D01*
X52056Y218743D01*
X51783Y219056D01*
X51744Y219095D01*
X51627Y219173D01*
X51470Y219329D01*
X51236Y219485D01*
X50963Y219602D01*
X50612Y219758D01*
X50260Y219837D01*
X49831Y219876D01*
D02*
G37*
G36*
X67360D02*
X63417D01*
X63299Y219837D01*
X63104Y219798D01*
X62714Y219680D01*
X62519Y219524D01*
X62323Y219368D01*
X62284Y219329D01*
X62245Y219290D01*
X62167Y219173D01*
X62089Y219017D01*
X61894Y218626D01*
X61855Y218392D01*
X61816Y218119D01*
Y211912D01*
Y211873D01*
Y211794D01*
X61855Y211677D01*
X61894Y211482D01*
X62050Y211092D01*
X62167Y210896D01*
X62323Y210701D01*
X62362Y210662D01*
X62402Y210623D01*
X62519Y210545D01*
X62675Y210467D01*
X63065Y210272D01*
X63299Y210233D01*
X63534Y210194D01*
X65720D01*
X65837Y210233D01*
X66032Y210272D01*
X66423Y210428D01*
X66618Y210545D01*
X66813Y210701D01*
X66852Y210740D01*
X66891Y210779D01*
X66969Y210896D01*
X67086Y211053D01*
X67282Y211443D01*
X67321Y211677D01*
X67360Y211912D01*
Y219876D01*
D02*
G37*
G36*
X480346Y223503D02*
X477254D01*
Y217222D01*
X480572D01*
X480797Y217287D01*
X481119Y217351D01*
X481474Y217448D01*
X481828Y217609D01*
X482214Y217834D01*
X482569Y218124D01*
X482601Y218156D01*
X482730Y218285D01*
X482859Y218478D01*
X483052Y218736D01*
X483213Y219058D01*
X483374Y219445D01*
X483470Y219863D01*
X483503Y220346D01*
Y220411D01*
Y220572D01*
X483470Y220797D01*
X483374Y221119D01*
X483277Y221474D01*
X483116Y221828D01*
X482891Y222214D01*
X482569Y222569D01*
X482537Y222601D01*
X482408Y222730D01*
X482214Y222859D01*
X481957Y223052D01*
X481635Y223213D01*
X481248Y223374D01*
X480830Y223470D01*
X480346Y223503D01*
D02*
G37*
G36*
Y230331D02*
X477254D01*
Y225725D01*
X480507D01*
X480701Y225757D01*
X480926Y225822D01*
X481184Y225886D01*
X481441Y225983D01*
X481731Y226144D01*
X481989Y226369D01*
X482021Y226401D01*
X482086Y226498D01*
X482214Y226627D01*
X482343Y226820D01*
X482440Y227078D01*
X482569Y227335D01*
X482633Y227657D01*
X482665Y228012D01*
Y228044D01*
Y228173D01*
X482633Y228334D01*
X482569Y228559D01*
X482504Y228817D01*
X482375Y229074D01*
X482214Y229364D01*
X481989Y229622D01*
X481957Y229654D01*
X481860Y229719D01*
X481731Y229848D01*
X481538Y229976D01*
X481280Y230105D01*
X481023Y230234D01*
X480701Y230298D01*
X480346Y230331D01*
D02*
G37*
%LPD*%
D21*
X37500Y187500D02*
X97500D01*
X82500Y182500D02*
X97500Y187500D01*
X82500Y192500D02*
X97500Y187500D01*
X524080Y200000D02*
X539080Y195000D01*
X524080Y190000D02*
X539080Y195000D01*
X479080D02*
X539080D01*
D22*
X93000Y243250D02*
X121000D01*
X93000Y347550D02*
X121000D01*
X93000Y243250D02*
Y347550D01*
X121000Y243250D02*
Y347550D01*
X284910Y235220D02*
Y261720D01*
X297410Y235220D02*
Y261720D01*
X284910Y235220D02*
X297410D01*
X284910Y261720D02*
X297410D01*
X281800Y277360D02*
Y311360D01*
X298300Y277360D02*
Y311360D01*
X281800Y277360D02*
X298300D01*
X281800Y311360D02*
X298300D01*
X222700Y94000D02*
X327000D01*
X222700Y66000D02*
X327000D01*
X222700D02*
Y94000D01*
X327000Y66000D02*
Y94000D01*
M02*
