G04 Layer_Physical_Order=2*
G04 Layer_Color=16711680*
%FSLAX44Y44*%
%MOMM*%
G71*
G01*
G75*
%ADD16C,0.8000*%
%ADD18C,1.8000*%
%ADD19P,1.9483X8X22.5*%
%ADD20P,1.9483X8X292.5*%
%ADD21C,4.0000*%
%ADD22C,6.0000*%
G36*
X537366Y585711D02*
X539371Y584371D01*
X540711Y582366D01*
X541149Y580167D01*
X541115Y580000D01*
Y20000D01*
X541149Y19833D01*
X540711Y17634D01*
X539371Y15629D01*
X537366Y14289D01*
X536199Y14057D01*
X535000Y13885D01*
Y13885D01*
X15000D01*
X14833Y13851D01*
X12634Y14289D01*
X10629Y15629D01*
X9289Y17634D01*
X9057Y18801D01*
X8885Y20000D01*
X8885D01*
Y580000D01*
X8851Y580167D01*
X9289Y582366D01*
X10629Y584371D01*
X12634Y585711D01*
X14833Y586149D01*
X15000Y586115D01*
X535000D01*
X535167Y586149D01*
X537366Y585711D01*
D02*
G37*
%LPC*%
G36*
X504500Y218390D02*
X501488Y217993D01*
X498680Y216830D01*
X496270Y214980D01*
X494420Y212570D01*
X493257Y209762D01*
X492860Y206750D01*
X493257Y203738D01*
X494420Y200930D01*
X496270Y198520D01*
X498680Y196670D01*
X501488Y195507D01*
X504500Y195110D01*
X507513Y195507D01*
X510320Y196670D01*
X512730Y198520D01*
X514580Y200930D01*
X515743Y203738D01*
X516140Y206750D01*
X515743Y209762D01*
X514580Y212570D01*
X512730Y214980D01*
X510320Y216830D01*
X507513Y217993D01*
X504500Y218390D01*
D02*
G37*
G36*
X360000Y237649D02*
X355581Y237214D01*
X351333Y235925D01*
X347417Y233832D01*
X343985Y231015D01*
X341168Y227583D01*
X339075Y223667D01*
X337786Y219419D01*
X337351Y215000D01*
X337786Y210581D01*
X339075Y206333D01*
X341168Y202417D01*
X343985Y198985D01*
X347417Y196168D01*
X351333Y194075D01*
X355581Y192786D01*
X360000Y192351D01*
X364419Y192786D01*
X368667Y194075D01*
X372583Y196168D01*
X376015Y198985D01*
X378832Y202417D01*
X380925Y206333D01*
X382214Y210581D01*
X382649Y215000D01*
X382214Y219419D01*
X380925Y223667D01*
X378832Y227583D01*
X376015Y231015D01*
X372583Y233832D01*
X368667Y235925D01*
X364419Y237214D01*
X360000Y237649D01*
D02*
G37*
G36*
X107000Y273540D02*
X103988Y273143D01*
X101180Y271980D01*
X98770Y270130D01*
X96920Y267720D01*
X95757Y264913D01*
X95360Y261900D01*
X95757Y258888D01*
X96920Y256080D01*
X98770Y253670D01*
X101180Y251820D01*
X103988Y250657D01*
X107000Y250261D01*
X110013Y250657D01*
X112820Y251820D01*
X115230Y253670D01*
X117080Y256080D01*
X118243Y258888D01*
X118640Y261900D01*
X118243Y264913D01*
X117080Y267720D01*
X115230Y270130D01*
X112820Y271980D01*
X110013Y273143D01*
X107000Y273540D01*
D02*
G37*
G36*
X465505Y292368D02*
X464495D01*
X462739Y292019D01*
X461805Y291632D01*
X460317Y290638D01*
X460317Y290638D01*
X459602Y289923D01*
X459602Y289923D01*
X458608Y288435D01*
X458221Y287501D01*
X457872Y285745D01*
Y285490D01*
X457822Y285240D01*
X457872Y284990D01*
Y284735D01*
X458221Y282979D01*
X458608Y282045D01*
X459602Y280557D01*
X459602Y280557D01*
X460317Y279842D01*
X460317Y279842D01*
X461805Y278848D01*
X462739Y278461D01*
X464495Y278112D01*
X465505D01*
X467261Y278461D01*
X468195Y278848D01*
X469683Y279842D01*
X469683Y279842D01*
X470398Y280557D01*
X470398Y280557D01*
X471392Y282045D01*
X471779Y282979D01*
X472128Y284735D01*
Y284990D01*
X472178Y285240D01*
X472128Y285490D01*
Y285745D01*
X471779Y287501D01*
X471392Y288435D01*
X470398Y289923D01*
X470398Y289923D01*
X469683Y290638D01*
X469683Y290638D01*
X468195Y291632D01*
X467261Y292019D01*
X465505Y292368D01*
D02*
G37*
G36*
X107000Y298940D02*
X103988Y298543D01*
X101180Y297380D01*
X98770Y295530D01*
X96920Y293120D01*
X95757Y290313D01*
X95360Y287300D01*
X95757Y284287D01*
X96920Y281480D01*
X98770Y279070D01*
X101180Y277220D01*
X103988Y276057D01*
X107000Y275660D01*
X110013Y276057D01*
X112820Y277220D01*
X115230Y279070D01*
X117080Y281480D01*
X118243Y284287D01*
X118640Y287300D01*
X118243Y290313D01*
X117080Y293120D01*
X115230Y295530D01*
X112820Y297380D01*
X110013Y298543D01*
X107000Y298940D01*
D02*
G37*
G36*
X505000Y82641D02*
X499894Y82239D01*
X494913Y81043D01*
X490182Y79083D01*
X485814Y76407D01*
X481920Y73080D01*
X478593Y69186D01*
X475917Y64819D01*
X473957Y60086D01*
X472761Y55106D01*
X472359Y50000D01*
X472761Y44894D01*
X473957Y39913D01*
X475917Y35182D01*
X478593Y30814D01*
X481920Y26920D01*
X485814Y23593D01*
X490182Y20917D01*
X494913Y18957D01*
X499894Y17761D01*
X505000Y17359D01*
X510106Y17761D01*
X515087Y18957D01*
X519818Y20917D01*
X524186Y23593D01*
X528080Y26920D01*
X531407Y30814D01*
X534083Y35182D01*
X536043Y39913D01*
X537239Y44894D01*
X537641Y50000D01*
X537239Y55106D01*
X536043Y60086D01*
X534083Y64819D01*
X531407Y69186D01*
X528080Y73080D01*
X524186Y76407D01*
X519818Y79083D01*
X515087Y81043D01*
X510106Y82239D01*
X505000Y82641D01*
D02*
G37*
G36*
X45000D02*
X39894Y82239D01*
X34913Y81043D01*
X30182Y79083D01*
X25814Y76407D01*
X21920Y73080D01*
X18593Y69186D01*
X15917Y64819D01*
X13957Y60086D01*
X12761Y55106D01*
X12359Y50000D01*
X12761Y44894D01*
X13957Y39913D01*
X15917Y35182D01*
X18593Y30814D01*
X21920Y26920D01*
X25814Y23593D01*
X30182Y20917D01*
X34913Y18957D01*
X39894Y17761D01*
X45000Y17359D01*
X50106Y17761D01*
X55086Y18957D01*
X59819Y20917D01*
X64186Y23593D01*
X68080Y26920D01*
X71407Y30814D01*
X74083Y35182D01*
X76043Y39913D01*
X77239Y44894D01*
X77641Y50000D01*
X77239Y55106D01*
X76043Y60086D01*
X74083Y64819D01*
X71407Y69186D01*
X68080Y73080D01*
X64186Y76407D01*
X59819Y79083D01*
X55086Y81043D01*
X50106Y82239D01*
X45000Y82641D01*
D02*
G37*
G36*
X504500Y167590D02*
X501488Y167193D01*
X498680Y166030D01*
X496270Y164180D01*
X494420Y161770D01*
X493257Y158962D01*
X492860Y155950D01*
X493257Y152937D01*
X494420Y150130D01*
X496270Y147720D01*
X498680Y145870D01*
X501488Y144707D01*
X504500Y144311D01*
X507513Y144707D01*
X510320Y145870D01*
X512730Y147720D01*
X514580Y150130D01*
X515743Y152937D01*
X516140Y155950D01*
X515743Y158962D01*
X514580Y161770D01*
X512730Y164180D01*
X510320Y166030D01*
X507513Y167193D01*
X504500Y167590D01*
D02*
G37*
G36*
X190000Y237649D02*
X185581Y237214D01*
X181333Y235925D01*
X177417Y233832D01*
X173985Y231015D01*
X171168Y227583D01*
X169075Y223667D01*
X167786Y219419D01*
X167351Y215000D01*
X167786Y210581D01*
X169075Y206333D01*
X171168Y202417D01*
X173985Y198985D01*
X177417Y196168D01*
X181333Y194075D01*
X185581Y192786D01*
X190000Y192351D01*
X194419Y192786D01*
X198667Y194075D01*
X202583Y196168D01*
X206015Y198985D01*
X208832Y202417D01*
X210925Y206333D01*
X212214Y210581D01*
X212649Y215000D01*
X212214Y219419D01*
X210925Y223667D01*
X208832Y227583D01*
X206015Y231015D01*
X202583Y233832D01*
X198667Y235925D01*
X194419Y237214D01*
X190000Y237649D01*
D02*
G37*
G36*
X504500Y192990D02*
X501488Y192593D01*
X498680Y191430D01*
X496270Y189580D01*
X494420Y187170D01*
X493257Y184363D01*
X492860Y181350D01*
X493257Y178337D01*
X494420Y175530D01*
X496270Y173120D01*
X498680Y171270D01*
X501488Y170107D01*
X504500Y169711D01*
X507513Y170107D01*
X510320Y171270D01*
X512730Y173120D01*
X514580Y175530D01*
X515743Y178337D01*
X516140Y181350D01*
X515743Y184363D01*
X514580Y187170D01*
X512730Y189580D01*
X510320Y191430D01*
X507513Y192593D01*
X504500Y192990D01*
D02*
G37*
G36*
X505000Y429340D02*
X501987Y428943D01*
X499180Y427780D01*
X496770Y425930D01*
X494920Y423520D01*
X493757Y420713D01*
X493360Y417700D01*
X493757Y414688D01*
X494920Y411880D01*
X496770Y409470D01*
X499180Y407620D01*
X501987Y406457D01*
X505000Y406060D01*
X508013Y406457D01*
X510820Y407620D01*
X513230Y409470D01*
X515080Y411880D01*
X516243Y414688D01*
X516640Y417700D01*
X516243Y420713D01*
X515080Y423520D01*
X513230Y425930D01*
X510820Y427780D01*
X508013Y428943D01*
X505000Y429340D01*
D02*
G37*
G36*
Y403940D02*
X501987Y403543D01*
X499180Y402380D01*
X496770Y400530D01*
X494920Y398120D01*
X493757Y395312D01*
X493360Y392300D01*
X493757Y389287D01*
X494920Y386480D01*
X496770Y384070D01*
X499180Y382220D01*
X501987Y381057D01*
X505000Y380661D01*
X508013Y381057D01*
X510820Y382220D01*
X513230Y384070D01*
X515080Y386480D01*
X516243Y389287D01*
X516640Y392300D01*
X516243Y395312D01*
X515080Y398120D01*
X513230Y400530D01*
X510820Y402380D01*
X508013Y403543D01*
X505000Y403940D01*
D02*
G37*
G36*
Y454740D02*
X501987Y454343D01*
X499180Y453180D01*
X496770Y451330D01*
X495516Y449696D01*
X474100D01*
X472393Y449472D01*
X470802Y448813D01*
X469436Y447764D01*
X459336Y437664D01*
X458287Y436298D01*
X457628Y434707D01*
X457404Y433000D01*
Y363000D01*
X457628Y361293D01*
X458287Y359702D01*
X459336Y358336D01*
X497904Y319768D01*
Y241634D01*
X496270Y240380D01*
X495016Y238746D01*
X472150D01*
X470443Y238522D01*
X468852Y237863D01*
X467486Y236814D01*
X464336Y233664D01*
X463287Y232298D01*
X462628Y230707D01*
X462404Y229000D01*
Y121732D01*
X426268Y85596D01*
X323273D01*
X323180Y85820D01*
X321330Y88230D01*
X318920Y90080D01*
X316113Y91243D01*
X313100Y91640D01*
X310088Y91243D01*
X307280Y90080D01*
X304870Y88230D01*
X303020Y85820D01*
X301857Y83013D01*
X301460Y80000D01*
X301857Y76988D01*
X303020Y74180D01*
X304870Y71770D01*
X305795Y71060D01*
X305364Y69790D01*
X295436D01*
X295005Y71060D01*
X295930Y71770D01*
X297780Y74180D01*
X298943Y76988D01*
X299340Y80000D01*
X298943Y83013D01*
X297780Y85820D01*
X295930Y88230D01*
X293520Y90080D01*
X290713Y91243D01*
X287700Y91640D01*
X284688Y91243D01*
X281880Y90080D01*
X279470Y88230D01*
X277620Y85820D01*
X276457Y83013D01*
X276061Y80000D01*
X276457Y76988D01*
X277620Y74180D01*
X279470Y71770D01*
X280395Y71060D01*
X279963Y69790D01*
X270037D01*
X269605Y71060D01*
X270530Y71770D01*
X272380Y74180D01*
X273543Y76988D01*
X273940Y80000D01*
X273543Y83013D01*
X272380Y85820D01*
X270530Y88230D01*
X268120Y90080D01*
X265313Y91243D01*
X262300Y91640D01*
X259287Y91243D01*
X256480Y90080D01*
X254070Y88230D01*
X252220Y85820D01*
X251057Y83013D01*
X250660Y80000D01*
X251057Y76988D01*
X252220Y74180D01*
X254070Y71770D01*
X254995Y71060D01*
X254564Y69790D01*
X245512D01*
X245026Y70963D01*
X247731Y73669D01*
X248293Y74509D01*
X248490Y75500D01*
Y84500D01*
X248293Y85491D01*
X247731Y86331D01*
X243231Y90831D01*
X242391Y91393D01*
X241400Y91590D01*
X232400D01*
X231409Y91393D01*
X230569Y90831D01*
X228334Y88596D01*
X134732D01*
X82697Y140632D01*
Y331504D01*
X96434D01*
X100669Y327269D01*
X101509Y326707D01*
X102500Y326510D01*
X111500D01*
X112491Y326707D01*
X113331Y327269D01*
X117831Y331769D01*
X118393Y332609D01*
X118590Y333600D01*
Y342600D01*
X118393Y343591D01*
X117831Y344431D01*
X113331Y348931D01*
X112491Y349493D01*
X111500Y349690D01*
X102500D01*
X101509Y349493D01*
X100669Y348931D01*
X96434Y344696D01*
X76100D01*
X74393Y344472D01*
X72802Y343813D01*
X71436Y342764D01*
X70387Y341398D01*
X69728Y339807D01*
X69504Y338100D01*
Y137900D01*
X69728Y136193D01*
X70387Y134602D01*
X71436Y133236D01*
X127336Y77336D01*
X128702Y76287D01*
X130293Y75628D01*
X132000Y75404D01*
X225329D01*
X225507Y74509D01*
X226069Y73669D01*
X230569Y69169D01*
X231409Y68607D01*
X232400Y68410D01*
X238856D01*
X239910Y67200D01*
Y47200D01*
X240107Y46209D01*
X240669Y45369D01*
X241509Y44807D01*
X242500Y44610D01*
X307500D01*
X308491Y44807D01*
X309331Y45369D01*
X309893Y46209D01*
X310090Y47200D01*
Y67200D01*
X310033Y67483D01*
X311006Y68636D01*
X313100Y68361D01*
X316113Y68757D01*
X318920Y69920D01*
X321330Y71770D01*
X321817Y72404D01*
X429000D01*
X430707Y72628D01*
X432298Y73287D01*
X433664Y74336D01*
X473664Y114336D01*
X474713Y115702D01*
X475372Y117293D01*
X475596Y119000D01*
Y225554D01*
X495016D01*
X496270Y223920D01*
X498680Y222070D01*
X501488Y220907D01*
X504500Y220511D01*
X507513Y220907D01*
X510320Y222070D01*
X512730Y223920D01*
X514580Y226330D01*
X515743Y229137D01*
X516140Y232150D01*
X515743Y235163D01*
X514580Y237970D01*
X512730Y240380D01*
X511096Y241634D01*
Y322500D01*
X510872Y324207D01*
X510213Y325798D01*
X509164Y327164D01*
X470596Y365732D01*
Y430268D01*
X476832Y436504D01*
X495516D01*
X496770Y434870D01*
X499180Y433020D01*
X501987Y431857D01*
X505000Y431460D01*
X508013Y431857D01*
X510820Y433020D01*
X513230Y434870D01*
X515080Y437280D01*
X516243Y440088D01*
X516640Y443100D01*
X516243Y446113D01*
X515080Y448920D01*
X513230Y451330D01*
X510820Y453180D01*
X508013Y454343D01*
X505000Y454740D01*
D02*
G37*
G36*
Y582641D02*
X499894Y582239D01*
X494913Y581043D01*
X490182Y579083D01*
X485814Y576407D01*
X481920Y573080D01*
X478593Y569186D01*
X475917Y564818D01*
X473957Y560087D01*
X472761Y555106D01*
X472359Y550000D01*
X472761Y544894D01*
X473957Y539913D01*
X475917Y535182D01*
X478593Y530814D01*
X481920Y526920D01*
X485814Y523593D01*
X490182Y520917D01*
X494913Y518957D01*
X499894Y517761D01*
X505000Y517359D01*
X510106Y517761D01*
X515087Y518957D01*
X519818Y520917D01*
X524186Y523593D01*
X528080Y526920D01*
X531407Y530814D01*
X534083Y535182D01*
X536043Y539913D01*
X537239Y544894D01*
X537641Y550000D01*
X537239Y555106D01*
X536043Y560087D01*
X534083Y564818D01*
X531407Y569186D01*
X528080Y573080D01*
X524186Y576407D01*
X519818Y579083D01*
X515087Y581043D01*
X510106Y582239D01*
X505000Y582641D01*
D02*
G37*
G36*
X45000D02*
X39894Y582239D01*
X34913Y581043D01*
X30182Y579083D01*
X25814Y576407D01*
X21920Y573080D01*
X18593Y569186D01*
X15917Y564818D01*
X13957Y560087D01*
X12761Y555106D01*
X12359Y550000D01*
X12761Y544894D01*
X13957Y539913D01*
X15917Y535182D01*
X18593Y530814D01*
X21920Y526920D01*
X25814Y523593D01*
X30182Y520917D01*
X34913Y518957D01*
X39894Y517761D01*
X45000Y517359D01*
X50106Y517761D01*
X55086Y518957D01*
X59819Y520917D01*
X64186Y523593D01*
X68080Y526920D01*
X71407Y530814D01*
X74083Y535182D01*
X76043Y539913D01*
X77239Y544894D01*
X77641Y550000D01*
X77239Y555106D01*
X76043Y560087D01*
X74083Y564818D01*
X71407Y569186D01*
X68080Y573080D01*
X64186Y576407D01*
X59819Y579083D01*
X55086Y581043D01*
X50106Y582239D01*
X45000Y582641D01*
D02*
G37*
G36*
X465505Y322368D02*
X464495D01*
X462739Y322019D01*
X461805Y321632D01*
X460317Y320638D01*
X460317Y320638D01*
X459602Y319923D01*
X459602Y319923D01*
X458608Y318435D01*
X458221Y317501D01*
X457872Y315745D01*
Y315490D01*
X457822Y315240D01*
X457872Y314990D01*
Y314735D01*
X458221Y312979D01*
X458608Y312045D01*
X459602Y310557D01*
X459602Y310557D01*
X460317Y309842D01*
X460317Y309842D01*
X461805Y308848D01*
X462739Y308461D01*
X464495Y308112D01*
X465505D01*
X467261Y308461D01*
X468195Y308848D01*
X469683Y309842D01*
X469683Y309842D01*
X470398Y310557D01*
X470398Y310557D01*
X471392Y312045D01*
X471779Y312979D01*
X472128Y314735D01*
Y314990D01*
X472178Y315240D01*
X472128Y315490D01*
Y315745D01*
X471779Y317501D01*
X471392Y318435D01*
X470398Y319923D01*
X470398Y319923D01*
X469683Y320638D01*
X469683Y320638D01*
X468195Y321632D01*
X467261Y322019D01*
X465505Y322368D01*
D02*
G37*
G36*
X107000Y324340D02*
X103988Y323943D01*
X101180Y322780D01*
X98770Y320930D01*
X96920Y318520D01*
X95757Y315713D01*
X95360Y312700D01*
X95757Y309688D01*
X96920Y306880D01*
X98770Y304470D01*
X101180Y302620D01*
X103988Y301457D01*
X107000Y301061D01*
X110013Y301457D01*
X112820Y302620D01*
X115230Y304470D01*
X117080Y306880D01*
X118243Y309688D01*
X118640Y312700D01*
X118243Y315713D01*
X117080Y318520D01*
X115230Y320930D01*
X112820Y322780D01*
X110013Y323943D01*
X107000Y324340D01*
D02*
G37*
G36*
X505000Y378540D02*
X501987Y378143D01*
X499180Y376980D01*
X496770Y375130D01*
X494920Y372720D01*
X493757Y369912D01*
X493360Y366900D01*
X493757Y363887D01*
X494920Y361080D01*
X496770Y358670D01*
X499180Y356820D01*
X501987Y355657D01*
X505000Y355261D01*
X508013Y355657D01*
X510820Y356820D01*
X513230Y358670D01*
X515080Y361080D01*
X516243Y363887D01*
X516640Y366900D01*
X516243Y369912D01*
X515080Y372720D01*
X513230Y375130D01*
X510820Y376980D01*
X508013Y378143D01*
X505000Y378540D01*
D02*
G37*
G36*
X360000Y407649D02*
X355581Y407214D01*
X351333Y405925D01*
X347417Y403832D01*
X343985Y401015D01*
X341168Y397583D01*
X339075Y393667D01*
X337786Y389419D01*
X337351Y385000D01*
X337786Y380581D01*
X339075Y376333D01*
X341168Y372417D01*
X343985Y368985D01*
X347417Y366168D01*
X351333Y364075D01*
X355581Y362786D01*
X360000Y362351D01*
X364419Y362786D01*
X368667Y364075D01*
X372583Y366168D01*
X376015Y368985D01*
X378832Y372417D01*
X380925Y376333D01*
X382214Y380581D01*
X382649Y385000D01*
X382214Y389419D01*
X380925Y393667D01*
X378832Y397583D01*
X376015Y401015D01*
X372583Y403832D01*
X368667Y405925D01*
X364419Y407214D01*
X360000Y407649D01*
D02*
G37*
G36*
X190000D02*
X185581Y407214D01*
X181333Y405925D01*
X177417Y403832D01*
X173985Y401015D01*
X171168Y397583D01*
X169075Y393667D01*
X167786Y389419D01*
X167351Y385000D01*
X167786Y380581D01*
X169075Y376333D01*
X171168Y372417D01*
X173985Y368985D01*
X177417Y366168D01*
X181333Y364075D01*
X185581Y362786D01*
X190000Y362351D01*
X194419Y362786D01*
X198667Y364075D01*
X202583Y366168D01*
X206015Y368985D01*
X208832Y372417D01*
X210925Y376333D01*
X212214Y380581D01*
X212649Y385000D01*
X212214Y389419D01*
X210925Y393667D01*
X208832Y397583D01*
X206015Y401015D01*
X202583Y403832D01*
X198667Y405925D01*
X194419Y407214D01*
X190000Y407649D01*
D02*
G37*
%LPD*%
D16*
X76100Y338100D02*
X107000D01*
X76100Y137900D02*
Y338100D01*
X429000Y79000D02*
X469000Y119000D01*
Y229000D01*
X472150Y232150D01*
X504500D01*
Y322500D01*
X464000Y363000D02*
X504500Y322500D01*
X464000Y363000D02*
Y433000D01*
X474100Y443100D01*
X505000D01*
X76100Y137900D02*
X132000Y82000D01*
X234900D01*
X236900Y80000D01*
X313100Y79000D02*
X429000D01*
D18*
X505000Y417700D02*
D03*
Y392300D02*
D03*
Y366900D02*
D03*
Y443100D02*
D03*
X504500Y206750D02*
D03*
Y181350D02*
D03*
Y155950D02*
D03*
Y232150D02*
D03*
X262300Y80000D02*
D03*
X287700D02*
D03*
X313100D02*
D03*
X107000Y261900D02*
D03*
Y287300D02*
D03*
Y312700D02*
D03*
D19*
X236900Y80000D02*
D03*
D20*
X107000Y338100D02*
D03*
D21*
X360000Y385000D02*
D03*
X190000D02*
D03*
Y215000D02*
D03*
X360000D02*
D03*
D22*
X505000Y550000D02*
D03*
X45000D02*
D03*
Y50000D02*
D03*
X505000D02*
D03*
M02*
