M48
;Layer_Color=9474304
;FILE_FORMAT=4:4
METRIC,LZ
;TYPE=PLATED
T1F00S00C1.1000
T3F00S00C3.0000
T4F00S00C4.8000
;TYPE=NON_PLATED
T5F00S00C0.9000
%
T01
X00107Y002619
Y002873
Y003127
Y003381
X002369Y0008
X002623
X002877
X003131
X005045Y0015595
Y0018135
Y0020675
Y0023215
X00505Y003669
Y003923
Y004177
Y004431
T03
X0019Y00215
Y00385
X0036
Y00215
T04
X00505Y0005
X00045
X00505Y0055
X00045
T05
X00465Y0028524
Y0031524
M30
