G04 Layer_Color=16711935*
%FSLAX44Y44*%
%MOMM*%
G71*
G01*
G75*
%ADD43C,0.2540*%
%ADD44C,0.2000*%
D43*
X60000Y630000D02*
G03*
X50000Y620000I0J-10000D01*
G01*
X590000D02*
G03*
X580000Y630000I-10000J0D01*
G01*
X50000Y60000D02*
G03*
X60000Y50000I10000J0D01*
G01*
X580000D02*
G03*
X590000Y60000I0J10000D01*
G01*
X620000Y630000D02*
G03*
X610000Y620000I0J-10000D01*
G01*
X1150000D02*
G03*
X1140000Y630000I-10000J0D01*
G01*
X610000Y60000D02*
G03*
X620000Y50000I10000J0D01*
G01*
X1140000D02*
G03*
X1150000Y60000I0J10000D01*
G01*
X1224433Y120000D02*
G03*
X1237500Y110000I11533J1533D01*
G01*
X1577500D02*
G03*
X1590567Y120000I1533J11533D01*
G01*
X1355833Y60000D02*
G03*
X1367500Y50000I10833J833D01*
G01*
X1447500D02*
G03*
X1459167Y60000I833J10833D01*
G01*
X1349167Y100000D02*
G03*
X1337500Y110000I-10833J-833D01*
G01*
X1477500D02*
G03*
X1465833Y100000I-833J-10833D01*
G01*
X1187500Y235000D02*
G03*
X1185200Y230000I1350J-3650D01*
G01*
X1299607D02*
G03*
X1292500Y235000I-6740J-2029D01*
G01*
X1310262Y205000D02*
G03*
X1320262Y195000I10000J0D01*
G01*
X1384500Y710000D02*
G03*
X1377392Y705000I-368J-7029D01*
G01*
X1367500Y690000D02*
G03*
X1377500Y700000I0J10000D01*
G01*
X1495522Y195000D02*
G03*
X1505522Y205000I0J10000D01*
G01*
X1447395Y205000D02*
G03*
X1457395Y195000I10000J0D01*
G01*
X1522500Y235000D02*
G03*
X1515392Y230000I-368J-7029D01*
G01*
X1629800D02*
G03*
X1627500Y235000I-3650J1350D01*
G01*
X1357589Y194830D02*
G03*
X1367589Y204830I0J10000D01*
G01*
X1437500Y700000D02*
G03*
X1447500Y690000I10000J0D01*
G01*
X1437607Y705000D02*
G03*
X1430500Y710000I-6740J-2029D01*
G01*
X770000Y660000D02*
G03*
X780000Y650000I10000J0D01*
G01*
X960000D02*
G03*
X970000Y660000I0J10000D01*
G01*
X773690Y1148347D02*
G03*
X770000Y1130000I51718J-19948D01*
G01*
X970000D02*
G03*
X966310Y1148347I-55409J-1601D01*
G01*
X891843Y1351485D02*
G03*
X848157Y1351485I-21843J-21843D01*
G01*
Y1351485D02*
G03*
X773690Y1148347I2057177J-869338D01*
G01*
X966310D02*
G03*
X891843Y1351485I-2131644J-666200D01*
G01*
X1190000Y370000D02*
G03*
X1210000Y350000I20000J0D01*
G01*
X1310000D02*
G03*
X1330000Y370000I0J20000D01*
G01*
X1210000Y610000D02*
G03*
X1190000Y590000I0J-20000D01*
G01*
X1330000D02*
G03*
X1310000Y610000I-20000J0D01*
G01*
X1470000Y470000D02*
G03*
X1490000Y450000I20000J0D01*
G01*
X1590000D02*
G03*
X1610000Y470000I0J20000D01*
G01*
X1490000Y710000D02*
G03*
X1470000Y690000I0J-20000D01*
G01*
X1610000D02*
G03*
X1590000Y710000I-20000J0D01*
G01*
X990000Y670000D02*
G03*
X1010000Y650000I20000J0D01*
G01*
X1110000D02*
G03*
X1130000Y670000I0J20000D01*
G01*
X1010000Y910000D02*
G03*
X990000Y890000I0J-20000D01*
G01*
X1130000D02*
G03*
X1110000Y910000I-20000J0D01*
G01*
X1060000Y1470000D02*
G03*
X1040000Y1450000I0J-20000D01*
G01*
Y1350000D02*
G03*
X1060000Y1330000I20000J0D01*
G01*
X1300000Y1450000D02*
G03*
X1280000Y1470000I-20000J0D01*
G01*
Y1330000D02*
G03*
X1300000Y1350000I0J20000D01*
G01*
X460000Y1440000D02*
G03*
X450000Y1430000I0J-10000D01*
G01*
Y1310000D02*
G03*
X460000Y1301000I9500J500D01*
G01*
X510000Y1297500D02*
G03*
X492500Y1301000I-16500J-37000D01*
G01*
X582500Y1205000D02*
G03*
X579541Y1220827I-44576J-144D01*
G01*
X579541D02*
G03*
X510000Y1297500I-199119J-110725D01*
G01*
X582500Y1170000D02*
G03*
X592500Y1161000I9500J500D01*
G01*
X710000D02*
G03*
X721468Y1170500I984J10484D01*
G01*
X511000Y1436500D02*
G03*
X493500Y1440000I-16500J-37000D01*
G01*
X721468Y1205500D02*
G03*
X718509Y1221327I-44576J-144D01*
G01*
X718509D02*
G03*
X511000Y1436500I-365681J-145011D01*
G01*
X40000Y1180000D02*
G03*
X50000Y1170000I10000J0D01*
G01*
X170000D02*
G03*
X179000Y1180000I-500J9500D01*
G01*
X182500Y1230000D02*
G03*
X179000Y1212500I37000J-16500D01*
G01*
X275000Y1302500D02*
G03*
X259173Y1299541I144J-44576D01*
G01*
Y1299541D02*
G03*
X182500Y1230000I110725J-199119D01*
G01*
X310000Y1302500D02*
G03*
X319000Y1312500I-500J9500D01*
G01*
Y1430000D02*
G03*
X309500Y1441468I-10484J984D01*
G01*
X43500Y1231000D02*
G03*
X40000Y1213500I37000J-16500D01*
G01*
X274500Y1441468D02*
G03*
X258673Y1438509I144J-44576D01*
G01*
Y1438509D02*
G03*
X43500Y1231000I145011J-365681D01*
G01*
X1347552Y1422989D02*
G03*
X1337552Y1412989I0J-10000D01*
G01*
Y1292989D02*
G03*
X1347552Y1283989I9500J500D01*
G01*
X1397552Y1280489D02*
G03*
X1380052Y1283989I-16500J-37000D01*
G01*
X1470052Y1187989D02*
G03*
X1467093Y1203817I-44576J-144D01*
G01*
X1467093D02*
G03*
X1397552Y1280489I-199119J-110725D01*
G01*
X1470052Y1152989D02*
G03*
X1480052Y1143989I9500J500D01*
G01*
X1597552D02*
G03*
X1609020Y1153489I984J10484D01*
G01*
X1398553Y1419489D02*
G03*
X1381053Y1422989I-16500J-37000D01*
G01*
X1608968Y1190500D02*
G03*
X1606061Y1204317I-44524J-2154D01*
G01*
X1606061D02*
G03*
X1398553Y1419489I-365681J-145011D01*
G01*
X1580000Y1020000D02*
G03*
X1570000Y1030000I-10000J0D01*
G01*
X1290000D02*
G03*
X1280000Y1020000I0J-10000D01*
G01*
Y740000D02*
G03*
X1290000Y730000I10000J0D01*
G01*
X1570000D02*
G03*
X1580000Y740000I0J10000D01*
G01*
X1262411Y1165170D02*
G03*
X1252411Y1155170I0J-10000D01*
G01*
X1372500Y1245000D02*
G03*
X1367500Y1250000I-7500J-2500D01*
G01*
X1057500D02*
G03*
X1052500Y1245000I2500J-7500D01*
G01*
X990200Y1130000D02*
G03*
X992500Y1125000I3650J-1350D01*
G01*
X1097500D02*
G03*
X1104607Y1130000I368J7029D01*
G01*
X1172605Y1155000D02*
G03*
X1162605Y1165000I-10000J0D01*
G01*
X1124478Y1165000D02*
G03*
X1114478Y1155000I0J-10000D01*
G01*
X1182393Y655000D02*
G03*
X1189500Y650000I6740J2029D01*
G01*
X1182500Y661000D02*
G03*
X1172500Y671000I-10000J0D01*
G01*
X1252500Y670000D02*
G03*
X1242500Y660000I0J-10000D01*
G01*
X1235500Y650000D02*
G03*
X1242607Y655000I368J7029D01*
G01*
X1309738Y1155000D02*
G03*
X1299738Y1165000I-10000J0D01*
G01*
X1320392Y1130000D02*
G03*
X1327500Y1125000I6740J2029D01*
G01*
X1432500D02*
G03*
X1434800Y1130000I-1350J3650D01*
G01*
X485603Y1233013D02*
G03*
X312397Y1233013I-86602J-50000D01*
G01*
X649000Y650000D02*
G03*
X735603Y800000I0J100000D01*
G01*
X62397D02*
G03*
X149000Y650000I86602J-50000D01*
G01*
X20000Y390000D02*
G03*
X50000Y390000I15000J5000D01*
G01*
Y340000D02*
G03*
X20000Y340000I-15000J-5000D01*
G01*
X1367501Y440000D02*
G03*
X1330000Y440000I-18750J-12501D01*
G01*
X1330000Y490000D02*
G03*
X1367501Y490000I18750J12501D01*
G01*
X1447561Y580000D02*
G03*
X1470000Y580000I11220J1220D01*
G01*
Y530000D02*
G03*
X1447561Y530000I-11220J-1220D01*
G01*
X1150000Y490000D02*
G03*
X1190000Y490000I20000J15000D01*
G01*
Y440000D02*
G03*
X1150000Y440000I-20000J-15000D01*
G01*
X1130000Y790000D02*
G03*
X1172443Y790000I21222J17443D01*
G01*
X1172417Y730000D02*
G03*
X1129973Y730000I-21222J-17443D01*
G01*
X1300000Y1400000D02*
G03*
X1337552Y1400000I18776J12552D01*
G01*
Y1350000D02*
G03*
X1300000Y1350000I-18776J-12552D01*
G01*
X1609014Y1190502D02*
G03*
X1660000Y1190000I26077J59043D01*
G01*
X1660007Y1160502D02*
G03*
X1609020Y1160000I-24842J-66351D01*
G01*
X-10000Y0D02*
Y1520000D01*
Y0D02*
X1690000D01*
Y1520000D01*
X-10000D02*
X1690000D01*
X1237500Y110000D02*
X1337500Y110000D01*
X1185200Y230000D02*
X1224433Y120000D01*
X1590567D02*
X1629800Y230000D01*
X1477500Y110000D02*
X1577500Y110000D01*
X1349167Y100000D02*
X1355833Y60000D01*
X1459167D02*
X1465833Y100000D01*
X1187500Y235000D02*
X1292500Y235000D01*
X1299607Y230000D02*
X1310262Y205000D01*
X1320262Y194998D02*
X1357590Y194916D01*
X1457395Y194916D02*
X1495522Y195000D01*
X1522500Y235000D02*
X1627500Y235000D01*
X1384500Y710000D02*
X1430500D01*
X1377392Y705000D02*
X1377500Y700000D01*
X1505500Y205000D02*
X1515392Y230000D01*
X1437505Y700215D02*
X1437607Y705000D01*
X1210000Y350000D02*
X1310000D01*
X1210000Y610000D02*
X1310000D01*
X1490000Y450000D02*
X1590000D01*
X1010000Y910000D02*
X1110000D01*
X1040000Y1350000D02*
Y1450000D01*
X460000Y1301000D02*
X492500D01*
X582500Y1170000D02*
Y1205000D01*
X460000Y1440000D02*
X493500D01*
X721468Y1170500D02*
Y1205500D01*
X50000Y1170000D02*
X170000D01*
X179000Y1180000D02*
Y1212500D01*
X275000Y1302500D02*
X310000D01*
X274500Y1441468D02*
X309500D01*
X1347552Y1283989D02*
X1380052D01*
X1470052Y1152989D02*
Y1187989D01*
X1347552Y1422989D02*
X1381053D01*
X1280000Y740000D02*
Y1020000D01*
X1104607Y1130000D02*
X1114500Y1155000D01*
X1242500Y660000D02*
X1242607Y655000D01*
X1372500Y1245000D02*
X1434800Y1130000D01*
X990200D02*
X1052500Y1245000D01*
X1189500Y650000D02*
X1235500D01*
X992500Y1125000D02*
X1097500Y1125000D01*
X1124478Y1165000D02*
X1162605Y1165084D01*
X1182393Y655000D02*
X1182457Y661001D01*
X1262410Y1165084D02*
X1299738Y1165002D01*
X1309738Y1155000D02*
X1320392Y1130000D01*
X1327500Y1125000D02*
X1432500Y1125000D01*
X1252395Y1155170D02*
X1252610Y670000D01*
X1495000Y1030000D02*
Y1143989D01*
X1545000Y1030000D02*
Y1143989D01*
X1175000Y1250000D02*
Y1330000D01*
X1215000Y1250000D02*
Y1330000D01*
X319000Y1410000D02*
X450000D01*
X319000Y1350000D02*
X450000D01*
X640000Y1070000D02*
Y1161000D01*
Y1070000D02*
X770000D01*
X690000Y1100000D02*
Y1161000D01*
Y1100000D02*
X770000D01*
X970000Y1050000D02*
X1172559D01*
X970000Y1000000D02*
X1172536D01*
X1610000Y600000D02*
X1660000D01*
X1610000Y560000D02*
X1660000D01*
X20000Y1050000D02*
X206735D01*
X20000Y980000D02*
X166320D01*
X620000Y1000000D02*
X770000D01*
X643226Y960000D02*
X770000D01*
X20000Y390000D02*
Y980000D01*
X50000Y390000D02*
Y620000D01*
X60000Y630000D02*
X310000Y630000D01*
X149000Y650000D02*
X310000D01*
X355000Y630000D02*
X580000Y630000D01*
X355000Y650000D02*
X649000D01*
X590000Y345000D02*
Y620000D01*
Y300000D02*
X590000Y60000D01*
X305000Y50000D02*
X580000D01*
X60000D02*
X260000D01*
X50000Y60000D02*
Y340000D01*
X20000Y30000D02*
Y340000D01*
Y30000D02*
X260000D01*
X305000D02*
X860000D01*
X610000Y60000D02*
Y300000D01*
Y345000D02*
Y620000D01*
X905000Y30000D02*
X1385000D01*
X905000Y50000D02*
X1140000D01*
X620000D02*
X860000D01*
X620000Y630000D02*
X855000D01*
X900000Y650000D02*
X960000D01*
X900000Y630000D02*
X1040000Y630000D01*
X1085000Y650000D02*
X1110000D01*
X1010000Y650000D02*
X1040000Y650000D01*
X1085000Y630000D02*
X1140000Y630000D01*
X1129973Y730000D02*
X1130000Y670000D01*
Y790000D02*
X1130000Y890000D01*
X990000Y820000D02*
Y890000D01*
X970000Y820000D02*
Y1000000D01*
Y775000D02*
X970000Y660000D01*
X990000Y670000D02*
Y775000D01*
X970000Y1050000D02*
X970000Y1130000D01*
X780000Y650000D02*
X855000Y650000D01*
X770000Y660000D02*
Y960000D01*
Y1000000D02*
Y1070000D01*
Y1100000D02*
Y1130000D01*
X643226Y960000D02*
X735603Y800000D01*
X485603Y1233013D02*
X620000Y1000000D01*
X592500Y1160988D02*
X640000Y1161000D01*
X690000D02*
X710000Y1160988D01*
X450000Y1410000D02*
Y1429988D01*
Y1310000D02*
Y1350000D01*
X319000Y1410000D02*
Y1430000D01*
Y1312500D02*
Y1350000D01*
X62397Y800000D02*
X166320Y980000D01*
X206735Y1050000D02*
X312397Y1233013D01*
X20000Y1210000D02*
X40000D01*
X20000Y1190000D02*
X40000D01*
X20000Y1210000D02*
Y1490000D01*
Y1050000D02*
Y1190000D01*
X40000Y1180000D02*
Y1190000D01*
Y1210000D02*
X40012Y1213500D01*
X1172559Y1050000D02*
X1172605Y1155000D01*
X1172443Y790000D02*
X1172536Y1000000D01*
X1172417Y730000D02*
X1172500Y671000D01*
X1580000Y900000D02*
X1660000D01*
X1580000Y850000D02*
X1660000D01*
X1580000Y900000D02*
X1580000Y1020000D01*
X1580000Y850000D02*
X1580000Y740000D01*
X1660000Y900000D02*
X1660007Y1160502D01*
X1660000Y1190000D02*
Y1490000D01*
Y600000D02*
Y850000D01*
Y30000D02*
Y560000D01*
X1430000Y30000D02*
X1660000D01*
X1430000Y50000D02*
X1447500Y50000D01*
X1367500D02*
X1385000Y50000D01*
X1610000Y560000D02*
X1610000Y470000D01*
X1610000Y600000D02*
Y690000D01*
X1470000Y580000D02*
Y690000D01*
Y470000D02*
Y530000D01*
X1447500Y690000D02*
X1447561Y580000D01*
X1550000Y710000D02*
X1590000Y710000D01*
X1490000D02*
X1505000Y710000D01*
X1290000Y730000D02*
X1505000D01*
X1550000D02*
X1570000D01*
X1447395Y205000D02*
X1447561Y530000D01*
X1367501Y440000D02*
X1367589Y204830D01*
X1367500Y690000D02*
X1367501Y490000D01*
X1330000D02*
Y590000D01*
X1330000Y440000D02*
X1330000Y370000D01*
X1190000D02*
Y440000D01*
Y490000D02*
Y590000D01*
X1150000Y490000D02*
Y620000D01*
Y60000D02*
Y440000D01*
X1480052Y1143989D02*
X1495000D01*
X1545000D02*
X1597552Y1143977D01*
X1545000Y1030000D02*
X1570000D01*
X1290000D02*
X1495000D01*
X1609020Y1153477D02*
Y1160000D01*
X1337552Y1292989D02*
Y1350000D01*
Y1400000D02*
Y1412977D01*
X1300000Y1400000D02*
Y1450000D01*
X1215000Y1330000D02*
X1280000Y1330000D01*
X1060000D02*
X1175000Y1330000D01*
X1180000Y1470000D02*
X1280000Y1470000D01*
X1060000D02*
X1135000Y1470000D01*
X1180000Y1490000D02*
X1660000D01*
X20000D02*
X1135000D01*
X1057542Y1250010D02*
X1175000Y1250000D01*
X1215000D02*
X1367500Y1250000D01*
X580000Y50000D02*
G03*
X590000Y60000I0J10000D01*
G01*
X50000D02*
G03*
X60000Y50000I10000J0D01*
G01*
X590000Y620000D02*
G03*
X580000Y630000I-10000J0D01*
G01*
X60000D02*
G03*
X50000Y620000I0J-10000D01*
G01*
X60000Y50000D02*
X580000D01*
X590000Y60000D02*
Y620000D01*
X50000Y60000D02*
Y620000D01*
X60000Y630000D02*
X580000D01*
X486603Y1233013D02*
G03*
X313398Y1233013I-86602J-50000D01*
G01*
X650000Y650000D02*
G03*
X736603Y800000I0J100000D01*
G01*
X63397D02*
G03*
X150000Y650000I86602J-50000D01*
G01*
X486603Y1233013D02*
X736603Y800000D01*
X63397D02*
X313398Y1233013D01*
X150000Y650000D02*
X650000D01*
X770000Y660000D02*
G03*
X780000Y650000I10000J0D01*
G01*
X960000D02*
G03*
X970000Y660000I0J10000D01*
G01*
X773690Y1148347D02*
G03*
X770000Y1130000I51718J-19948D01*
G01*
X970000D02*
G03*
X966310Y1148347I-55409J-1601D01*
G01*
X891843Y1351485D02*
G03*
X848157Y1351485I-21843J-21843D01*
G01*
Y1351485D02*
G03*
X773690Y1148347I2057177J-869338D01*
G01*
X966310D02*
G03*
X891843Y1351485I-2131644J-666200D01*
G01*
X770000Y660000D02*
Y1130000D01*
X780000Y650000D02*
X960000D01*
X970000Y660000D02*
Y1130000D01*
X1437566Y704990D02*
G03*
X1430458Y709990I-6740J-2029D01*
G01*
X1437458Y699990D02*
G03*
X1447458Y689990I10000J0D01*
G01*
X1357548Y194821D02*
G03*
X1367548Y204821I0J10000D01*
G01*
X1629758Y229990D02*
G03*
X1627458Y234990I-3650J1350D01*
G01*
X1522458Y234990D02*
G03*
X1515351Y229990I-368J-7029D01*
G01*
X1447353Y204990D02*
G03*
X1457353Y194990I10000J0D01*
G01*
X1495480Y194990D02*
G03*
X1505480Y204990I0J10000D01*
G01*
X1367458Y689990D02*
G03*
X1377458Y699990I0J10000D01*
G01*
X1384458Y709990D02*
G03*
X1377351Y704990I-368J-7029D01*
G01*
X1310220Y204990D02*
G03*
X1320220Y194990I10000J0D01*
G01*
X1299566Y229990D02*
G03*
X1292458Y234990I-6740J-2029D01*
G01*
X1187458Y234990D02*
G03*
X1185158Y229990I1350J-3650D01*
G01*
X1477458Y109990D02*
G03*
X1465792Y99990I-833J-10833D01*
G01*
X1349125D02*
G03*
X1337458Y109990I-10833J-833D01*
G01*
X1447458Y49990D02*
G03*
X1459125Y59990I833J10833D01*
G01*
X1355792D02*
G03*
X1367458Y49990I10833J833D01*
G01*
X1577458Y109990D02*
G03*
X1590525Y119990I1533J11533D01*
G01*
X1224392D02*
G03*
X1237458Y109990I11533J1533D01*
G01*
X1437566Y704990D02*
X1437463Y700205D01*
X1515351Y229990D02*
X1505458Y204990D01*
X1377458Y699990D02*
X1377351Y704990D01*
X1430458Y709990D02*
X1384458D01*
X1627458Y234990D02*
X1522458Y234990D01*
X1495480Y194990D02*
X1457353Y194906D01*
X1447568Y689990D02*
X1447353Y204990D01*
X1367563Y204821D02*
X1367349Y689990D01*
X1357548Y194906D02*
X1320220Y194989D01*
X1310220Y204990D02*
X1299566Y229990D01*
X1292458Y234990D02*
X1187458Y234990D01*
X1447458Y49990D02*
X1367458Y49990D01*
X1465792Y99990D02*
X1459125Y59990D01*
X1355792D02*
X1349125Y99990D01*
X1577458Y109990D02*
X1477458Y109990D01*
X1629758Y229990D02*
X1590525Y119990D01*
X1224392D02*
X1185158Y229990D01*
X1337458Y109990D02*
X1237458Y109990D01*
X1580000Y1020000D02*
G03*
X1570000Y1030000I-10000J0D01*
G01*
X1290000D02*
G03*
X1280000Y1020000I0J-10000D01*
G01*
Y740000D02*
G03*
X1290000Y730000I10000J0D01*
G01*
X1570000D02*
G03*
X1580000Y740000I0J10000D01*
G01*
X1290000Y730000D02*
X1570000D01*
X1290000Y1030000D02*
X1570000D01*
X1580000Y740000D02*
Y1020000D01*
X1280000Y740000D02*
Y1020000D01*
X1140000Y50000D02*
G03*
X1150000Y60000I0J10000D01*
G01*
X610000D02*
G03*
X620000Y50000I10000J0D01*
G01*
X1150000Y620000D02*
G03*
X1140000Y630000I-10000J0D01*
G01*
X620000D02*
G03*
X610000Y620000I0J-10000D01*
G01*
X620000Y50000D02*
X1140000D01*
X1150000Y60000D02*
Y620000D01*
X610000Y60000D02*
Y620000D01*
X620000Y630000D02*
X1140000D01*
X1470000Y470000D02*
G03*
X1490000Y450000I20000J0D01*
G01*
X1590000D02*
G03*
X1610000Y470000I0J20000D01*
G01*
X1490000Y710000D02*
G03*
X1470000Y690000I0J-20000D01*
G01*
X1610000D02*
G03*
X1590000Y710000I-20000J0D01*
G01*
X1470000Y690000D02*
Y470000D01*
X1490000Y450000D02*
X1590000D01*
X1610000Y690000D02*
Y470000D01*
X1490000Y710000D02*
X1590000D01*
X1190000Y370000D02*
G03*
X1210000Y350000I20000J0D01*
G01*
X1310000D02*
G03*
X1330000Y370000I0J20000D01*
G01*
X1210000Y610000D02*
G03*
X1190000Y590000I0J-20000D01*
G01*
X1330000D02*
G03*
X1310000Y610000I-20000J0D01*
G01*
X1190000Y590000D02*
Y370000D01*
X1210000Y350000D02*
X1310000D01*
X1330000Y590000D02*
Y370000D01*
X1210000Y610000D02*
X1310000D01*
X1130000Y890000D02*
G03*
X1110000Y910000I-20000J0D01*
G01*
X1010000D02*
G03*
X990000Y890000I0J-20000D01*
G01*
X1110000Y650000D02*
G03*
X1130000Y670000I0J20000D01*
G01*
X990000D02*
G03*
X1010000Y650000I20000J0D01*
G01*
X1130000Y670000D02*
Y890000D01*
X1110000Y910000D02*
X1010000D01*
X990000Y670000D02*
Y890000D01*
X1110000Y650000D02*
X1010000D01*
X1060000Y1470000D02*
G03*
X1040000Y1450000I0J-20000D01*
G01*
Y1350000D02*
G03*
X1060000Y1330000I20000J0D01*
G01*
X1300000Y1450000D02*
G03*
X1280000Y1470000I-20000J0D01*
G01*
Y1330000D02*
G03*
X1300000Y1350000I0J20000D01*
G01*
X1280000Y1470000D02*
X1060000D01*
X1040000Y1450000D02*
Y1350000D01*
X1280000Y1330000D02*
X1060000D01*
X1300000Y1450000D02*
Y1350000D01*
X40012Y1180000D02*
G03*
X50012Y1170000I10000J0D01*
G01*
X170012D02*
G03*
X179012Y1180000I-500J9500D01*
G01*
X182512Y1230000D02*
G03*
X179012Y1212500I37000J-16500D01*
G01*
X275012Y1302500D02*
G03*
X259185Y1299541I144J-44576D01*
G01*
Y1299541D02*
G03*
X182512Y1230000I110725J-199119D01*
G01*
X310012Y1302500D02*
G03*
X319012Y1312500I-500J9500D01*
G01*
Y1430000D02*
G03*
X309512Y1441468I-10484J984D01*
G01*
X43512Y1231000D02*
G03*
X40012Y1213500I37000J-16500D01*
G01*
X274512Y1441468D02*
G03*
X258685Y1438509I144J-44576D01*
G01*
Y1438509D02*
G03*
X43512Y1231000I145011J-365681D01*
G01*
X50012Y1170000D02*
X170012D01*
X179012Y1180000D02*
Y1212500D01*
X275012Y1302500D02*
X310012D01*
X319012Y1312500D02*
Y1430000D01*
X40012Y1180000D02*
Y1213500D01*
X274512Y1441468D02*
X309512D01*
X460000Y1439988D02*
G03*
X450000Y1429988I0J-10000D01*
G01*
Y1309988D02*
G03*
X460000Y1300988I9500J500D01*
G01*
X510000Y1297488D02*
G03*
X492500Y1300988I-16500J-37000D01*
G01*
X582500Y1204988D02*
G03*
X579541Y1220815I-44576J-144D01*
G01*
X579541D02*
G03*
X510000Y1297488I-199119J-110725D01*
G01*
X582500Y1169988D02*
G03*
X592500Y1160988I9500J500D01*
G01*
X710000D02*
G03*
X721468Y1170488I984J10484D01*
G01*
X511000Y1436488D02*
G03*
X493500Y1439988I-16500J-37000D01*
G01*
X721468Y1205488D02*
G03*
X718509Y1221315I-44576J-144D01*
G01*
X718509D02*
G03*
X511000Y1436488I-365681J-145011D01*
G01*
X450000Y1429988D02*
Y1309988D01*
X460000Y1300988D02*
X492500D01*
X582500Y1204988D02*
Y1169988D01*
X592500Y1160988D02*
X710000D01*
X460000Y1439988D02*
X493500D01*
X721468Y1205488D02*
Y1170488D01*
X1347552Y1422977D02*
G03*
X1337552Y1412977I0J-10000D01*
G01*
Y1292977D02*
G03*
X1347552Y1283977I9500J500D01*
G01*
X1397552Y1280477D02*
G03*
X1380052Y1283977I-16500J-37000D01*
G01*
X1470052Y1187977D02*
G03*
X1467093Y1203804I-44576J-144D01*
G01*
X1467093D02*
G03*
X1397552Y1280477I-199119J-110725D01*
G01*
X1470052Y1152977D02*
G03*
X1480052Y1143977I9500J500D01*
G01*
X1597552D02*
G03*
X1609020Y1153477I984J10484D01*
G01*
X1398553Y1419477D02*
G03*
X1381053Y1422977I-16500J-37000D01*
G01*
X1609020Y1188477D02*
G03*
X1606061Y1204305I-44576J-144D01*
G01*
X1606061D02*
G03*
X1398553Y1419477I-365681J-145011D01*
G01*
X1337552Y1412977D02*
Y1292977D01*
X1347552Y1283977D02*
X1380052D01*
X1470052Y1187977D02*
Y1152977D01*
X1480052Y1143977D02*
X1597552D01*
X1347552Y1422977D02*
X1381053D01*
X1609020Y1188477D02*
Y1153477D01*
X1262452Y1165179D02*
G03*
X1252452Y1155179I0J-10000D01*
G01*
X1372542Y1245010D02*
G03*
X1367542Y1250010I-7500J-2500D01*
G01*
X1057542D02*
G03*
X1052542Y1245010I2500J-7500D01*
G01*
X990242Y1130010D02*
G03*
X992542Y1125010I3650J-1350D01*
G01*
X1097542D02*
G03*
X1104649Y1130010I368J7029D01*
G01*
X1172647Y1155010D02*
G03*
X1162647Y1165010I-10000J0D01*
G01*
X1124520Y1165010D02*
G03*
X1114520Y1155010I0J-10000D01*
G01*
X1182434Y655010D02*
G03*
X1189542Y650010I6740J2029D01*
G01*
X1182542Y661010D02*
G03*
X1172542Y671010I-10000J0D01*
G01*
X1252542Y670010D02*
G03*
X1242542Y660010I0J-10000D01*
G01*
X1235542Y650010D02*
G03*
X1242649Y655010I368J7029D01*
G01*
X1309780Y1155010D02*
G03*
X1299780Y1165010I-10000J0D01*
G01*
X1320434Y1130010D02*
G03*
X1327542Y1125010I6740J2029D01*
G01*
X1432542D02*
G03*
X1434842Y1130010I-1350J3650D01*
G01*
X1104649D02*
X1114542Y1155010D01*
X1242542Y660010D02*
X1242649Y655010D01*
X1057542Y1250010D02*
X1367542D01*
X1372542Y1245010D02*
X1434842Y1130010D01*
X990242D02*
X1052542Y1245010D01*
X1189542Y650010D02*
X1235542D01*
X992542Y1125010D02*
X1097542Y1125010D01*
X1124520Y1165010D02*
X1162647Y1165094D01*
X1182434Y655010D02*
X1182499Y661010D01*
X1262452Y1165094D02*
X1299780Y1165011D01*
X1309780Y1155010D02*
X1320434Y1130010D01*
X1327542Y1125010D02*
X1432542Y1125010D01*
X1252436Y1155179D02*
X1252651Y670010D01*
X1172432Y671010D02*
X1172647Y1155010D01*
D44*
X305000Y50000D02*
G03*
X305000Y30000I0J-10000D01*
G01*
X260000D02*
G03*
X260000Y50000I0J10000D01*
G01*
X905000D02*
G03*
X905000Y30000I0J-10000D01*
G01*
X860000D02*
G03*
X860000Y50000I0J10000D01*
G01*
X590000Y345000D02*
G03*
X610000Y345000I10000J0D01*
G01*
Y300000D02*
G03*
X590000Y300000I-10000J0D01*
G01*
X855000Y630000D02*
G03*
X855000Y650000I0J10000D01*
G01*
X900000D02*
G03*
X900000Y630000I0J-10000D01*
G01*
X990000Y775000D02*
G03*
X970000Y775000I-10000J0D01*
G01*
Y820000D02*
G03*
X990000Y820000I10000J0D01*
G01*
X1085000Y650000D02*
G03*
X1085000Y630000I0J-10000D01*
G01*
X1040000D02*
G03*
X1040000Y650000I0J10000D01*
G01*
X355000D02*
G03*
X355000Y630000I0J-10000D01*
G01*
X310000D02*
G03*
X310000Y650000I0J10000D01*
G01*
X1385000Y30000D02*
G03*
X1385000Y50000I0J10000D01*
G01*
X1430000D02*
G03*
X1430000Y30000I0J-10000D01*
G01*
X1505000Y710000D02*
G03*
X1505000Y730000I0J10000D01*
G01*
X1550000D02*
G03*
X1550000Y710000I0J-10000D01*
G01*
X1135000Y1470000D02*
G03*
X1135000Y1490000I0J10000D01*
G01*
X1180000D02*
G03*
X1180000Y1470000I0J-10000D01*
G01*
M02*
