G04 Layer_Color=32896*
%FSLAX44Y44*%
%MOMM*%
G71*
G01*
G75*
%ADD43C,0.2540*%
%ADD44C,0.2000*%
%ADD79C,0.0508*%
%ADD80C,0.0254*%
G36*
X553125Y1328218D02*
X553359Y1328199D01*
X553788Y1328101D01*
X554178Y1327945D01*
X554490Y1327769D01*
X554763Y1327613D01*
X554958Y1327457D01*
X555017Y1327399D01*
X555075Y1327360D01*
X555095Y1327321D01*
X555115D01*
X555271Y1327145D01*
X555427Y1326970D01*
X555661Y1326579D01*
X555817Y1326209D01*
X555934Y1325858D01*
X556012Y1325565D01*
X556031Y1325429D01*
Y1325311D01*
X556051Y1325214D01*
Y1325097D01*
X556031Y1324765D01*
X555992Y1324473D01*
X555914Y1324180D01*
X555817Y1323927D01*
X555700Y1323673D01*
X555583Y1323458D01*
X555446Y1323263D01*
X555309Y1323068D01*
X555154Y1322912D01*
X555017Y1322776D01*
X554900Y1322659D01*
X554783Y1322581D01*
X554685Y1322502D01*
X554607Y1322444D01*
X554568Y1322424D01*
X554549Y1322405D01*
X554724Y1322249D01*
X554880Y1322093D01*
X554997Y1321917D01*
X555115Y1321761D01*
X555290Y1321410D01*
X555407Y1321078D01*
X555466Y1320805D01*
X555505Y1320571D01*
X555524Y1320474D01*
Y1320357D01*
X555485Y1319947D01*
X555407Y1319596D01*
X555290Y1319284D01*
X555154Y1319011D01*
X554997Y1318777D01*
X554880Y1318621D01*
X554802Y1318523D01*
X554763Y1318484D01*
X554471Y1318230D01*
X554159Y1318035D01*
X553847Y1317899D01*
X553534Y1317821D01*
X553281Y1317762D01*
X553086Y1317743D01*
X553008Y1317723D01*
X550257D01*
X550082Y1317743D01*
X549965Y1317801D01*
X549867Y1317899D01*
X549809Y1317977D01*
X549770Y1318074D01*
X549750Y1318172D01*
Y1327730D01*
X549770Y1327906D01*
X549828Y1328023D01*
X549906Y1328121D01*
X550004Y1328179D01*
X550101Y1328218D01*
X550179Y1328238D01*
X552891D01*
X553125Y1328218D01*
D02*
G37*
G36*
X555661Y1313218D02*
X555778Y1313160D01*
X555856Y1313101D01*
X555875Y1313082D01*
X555973Y1312964D01*
X556031Y1312847D01*
X556051Y1312769D01*
Y1312633D01*
X556031Y1312555D01*
X556012Y1312496D01*
X555992Y1312477D01*
X554159Y1308810D01*
X554490Y1308653D01*
X554783Y1308478D01*
X555036Y1308263D01*
X555251Y1308029D01*
X555446Y1307795D01*
X555583Y1307561D01*
X555719Y1307307D01*
X555817Y1307073D01*
X555895Y1306839D01*
X555953Y1306605D01*
X555992Y1306410D01*
X556031Y1306234D01*
Y1306098D01*
X556051Y1305981D01*
Y1305883D01*
X556031Y1305649D01*
X556012Y1305415D01*
X555914Y1304986D01*
X555758Y1304596D01*
X555583Y1304284D01*
X555407Y1304011D01*
X555271Y1303816D01*
X555192Y1303757D01*
X555154Y1303699D01*
X555134Y1303679D01*
X555115Y1303660D01*
X554939Y1303504D01*
X554763Y1303347D01*
X554373Y1303113D01*
X554002Y1302957D01*
X553651Y1302840D01*
X553359Y1302762D01*
X553222Y1302743D01*
X553105D01*
X553027Y1302723D01*
X550257D01*
X550082Y1302743D01*
X549965Y1302801D01*
X549867Y1302899D01*
X549809Y1302977D01*
X549770Y1303074D01*
X549750Y1303172D01*
Y1312730D01*
X549770Y1312906D01*
X549828Y1313023D01*
X549925Y1313121D01*
X550023Y1313179D01*
X550101Y1313218D01*
X550199Y1313238D01*
X550277D01*
X550452Y1313218D01*
X550589Y1313160D01*
X550667Y1313062D01*
X550745Y1312964D01*
X550784Y1312887D01*
X550803Y1312789D01*
Y1309024D01*
X553027D01*
X553066Y1309044D01*
X553086D01*
X555036Y1312945D01*
X555095Y1313043D01*
X555173Y1313121D01*
X555251Y1313160D01*
X555349Y1313199D01*
X555466Y1313238D01*
X555524D01*
X555661Y1313218D01*
D02*
G37*
G36*
X1440677Y1311207D02*
X1440911Y1311188D01*
X1441340Y1311091D01*
X1441731Y1310934D01*
X1442043Y1310759D01*
X1442316Y1310603D01*
X1442511Y1310447D01*
X1442569Y1310388D01*
X1442628Y1310349D01*
X1442648Y1310310D01*
X1442667D01*
X1442823Y1310135D01*
X1442979Y1309959D01*
X1443213Y1309569D01*
X1443369Y1309198D01*
X1443486Y1308847D01*
X1443564Y1308555D01*
X1443584Y1308418D01*
Y1308301D01*
X1443603Y1308203D01*
Y1308086D01*
X1443584Y1307755D01*
X1443545Y1307462D01*
X1443467Y1307169D01*
X1443369Y1306916D01*
X1443252Y1306662D01*
X1443135Y1306448D01*
X1442999Y1306253D01*
X1442862Y1306058D01*
X1442706Y1305902D01*
X1442569Y1305765D01*
X1442452Y1305648D01*
X1442335Y1305570D01*
X1442238Y1305492D01*
X1442160Y1305433D01*
X1442121Y1305414D01*
X1442101Y1305394D01*
X1442277Y1305238D01*
X1442433Y1305082D01*
X1442550Y1304907D01*
X1442667Y1304751D01*
X1442843Y1304400D01*
X1442960Y1304068D01*
X1443018Y1303795D01*
X1443057Y1303561D01*
X1443077Y1303463D01*
Y1303346D01*
X1443038Y1302937D01*
X1442960Y1302585D01*
X1442843Y1302273D01*
X1442706Y1302000D01*
X1442550Y1301766D01*
X1442433Y1301610D01*
X1442355Y1301512D01*
X1442316Y1301473D01*
X1442023Y1301220D01*
X1441711Y1301025D01*
X1441399Y1300888D01*
X1441087Y1300810D01*
X1440833Y1300752D01*
X1440638Y1300732D01*
X1440560Y1300713D01*
X1437810D01*
X1437634Y1300732D01*
X1437517Y1300791D01*
X1437420Y1300888D01*
X1437361Y1300966D01*
X1437322Y1301064D01*
X1437303Y1301161D01*
Y1310720D01*
X1437322Y1310895D01*
X1437381Y1311013D01*
X1437459Y1311110D01*
X1437556Y1311169D01*
X1437654Y1311207D01*
X1437732Y1311227D01*
X1440443D01*
X1440677Y1311207D01*
D02*
G37*
G36*
X1443213Y1296207D02*
X1443330Y1296149D01*
X1443408Y1296091D01*
X1443428Y1296071D01*
X1443525Y1295954D01*
X1443584Y1295837D01*
X1443603Y1295759D01*
Y1295622D01*
X1443584Y1295544D01*
X1443564Y1295486D01*
X1443545Y1295466D01*
X1441711Y1291799D01*
X1442043Y1291643D01*
X1442335Y1291467D01*
X1442589Y1291253D01*
X1442803Y1291019D01*
X1442999Y1290784D01*
X1443135Y1290551D01*
X1443272Y1290297D01*
X1443369Y1290063D01*
X1443447Y1289829D01*
X1443506Y1289595D01*
X1443545Y1289400D01*
X1443584Y1289224D01*
Y1289087D01*
X1443603Y1288970D01*
Y1288873D01*
X1443584Y1288639D01*
X1443564Y1288405D01*
X1443467Y1287975D01*
X1443311Y1287585D01*
X1443135Y1287273D01*
X1442960Y1287000D01*
X1442823Y1286805D01*
X1442745Y1286747D01*
X1442706Y1286688D01*
X1442686Y1286669D01*
X1442667Y1286649D01*
X1442491Y1286493D01*
X1442316Y1286337D01*
X1441926Y1286103D01*
X1441555Y1285947D01*
X1441204Y1285830D01*
X1440911Y1285752D01*
X1440775Y1285732D01*
X1440658D01*
X1440580Y1285713D01*
X1437810D01*
X1437634Y1285732D01*
X1437517Y1285791D01*
X1437420Y1285888D01*
X1437361Y1285966D01*
X1437322Y1286064D01*
X1437303Y1286161D01*
Y1295720D01*
X1437322Y1295895D01*
X1437381Y1296013D01*
X1437478Y1296110D01*
X1437576Y1296169D01*
X1437654Y1296207D01*
X1437751Y1296227D01*
X1437829D01*
X1438005Y1296207D01*
X1438141Y1296149D01*
X1438219Y1296051D01*
X1438297Y1295954D01*
X1438336Y1295876D01*
X1438356Y1295778D01*
Y1292014D01*
X1440580D01*
X1440619Y1292033D01*
X1440638D01*
X1442589Y1295934D01*
X1442648Y1296032D01*
X1442726Y1296110D01*
X1442803Y1296149D01*
X1442901Y1296188D01*
X1443018Y1296227D01*
X1443077D01*
X1443213Y1296207D01*
D02*
G37*
G36*
X555700Y1295718D02*
X555836Y1295660D01*
X555914Y1295582D01*
X555992Y1295484D01*
X556031Y1295387D01*
X556051Y1295309D01*
Y1289964D01*
X556031Y1289788D01*
X555973Y1289651D01*
X555875Y1289573D01*
X555797Y1289495D01*
X555700Y1289456D01*
X555602Y1289437D01*
X553944D01*
X553769Y1289456D01*
X553632Y1289515D01*
X553554Y1289612D01*
X553476Y1289690D01*
X553437Y1289788D01*
X553417Y1289886D01*
Y1289964D01*
X553437Y1290139D01*
X553495Y1290276D01*
X553593Y1290354D01*
X553690Y1290432D01*
X553769Y1290471D01*
X553866Y1290490D01*
X554997D01*
Y1294684D01*
X552364D01*
X552130Y1294665D01*
X551915Y1294606D01*
X551720Y1294548D01*
X551564Y1294450D01*
X551428Y1294372D01*
X551330Y1294314D01*
X551272Y1294255D01*
X551252Y1294236D01*
X551096Y1294060D01*
X550998Y1293865D01*
X550920Y1293689D01*
X550862Y1293514D01*
X550823Y1293358D01*
X550803Y1293241D01*
Y1287857D01*
X550823Y1287623D01*
X550881Y1287408D01*
X550940Y1287213D01*
X551037Y1287057D01*
X551115Y1286920D01*
X551174Y1286823D01*
X551232Y1286764D01*
X551252Y1286745D01*
X551428Y1286589D01*
X551623Y1286472D01*
X551798Y1286394D01*
X551974Y1286335D01*
X552130Y1286296D01*
X552247Y1286277D01*
X555524D01*
X555700Y1286257D01*
X555836Y1286199D01*
X555914Y1286101D01*
X555992Y1286004D01*
X556031Y1285925D01*
X556051Y1285828D01*
Y1285750D01*
X556031Y1285574D01*
X555973Y1285438D01*
X555875Y1285360D01*
X555797Y1285282D01*
X555700Y1285243D01*
X555602Y1285223D01*
X552364D01*
X551974Y1285262D01*
X551623Y1285340D01*
X551291Y1285477D01*
X551037Y1285613D01*
X550803Y1285750D01*
X550647Y1285887D01*
X550550Y1285965D01*
X550511Y1286004D01*
X550257Y1286296D01*
X550062Y1286608D01*
X549945Y1286920D01*
X549847Y1287213D01*
X549789Y1287467D01*
X549770Y1287681D01*
X549750Y1287759D01*
Y1293124D01*
X549789Y1293514D01*
X549867Y1293865D01*
X549984Y1294197D01*
X550140Y1294450D01*
X550277Y1294684D01*
X550394Y1294840D01*
X550472Y1294938D01*
X550511Y1294977D01*
X550803Y1295231D01*
X551115Y1295426D01*
X551428Y1295543D01*
X551720Y1295640D01*
X551974Y1295699D01*
X552188Y1295718D01*
X552266Y1295738D01*
X555524D01*
X555700Y1295718D01*
D02*
G37*
G36*
X174351Y1276031D02*
X174585Y1276012D01*
X175014Y1275914D01*
X175404Y1275758D01*
X175716Y1275583D01*
X175989Y1275407D01*
X176184Y1275270D01*
X176243Y1275192D01*
X176301Y1275154D01*
X176321Y1275134D01*
X176340Y1275115D01*
X176496Y1274939D01*
X176653Y1274763D01*
X176887Y1274373D01*
X177043Y1274003D01*
X177160Y1273651D01*
X177238Y1273359D01*
X177257Y1273222D01*
Y1273105D01*
X177277Y1273027D01*
Y1272949D01*
Y1272910D01*
Y1272891D01*
Y1270257D01*
X177257Y1270082D01*
X177199Y1269965D01*
X177101Y1269867D01*
X177023Y1269809D01*
X176926Y1269770D01*
X176828Y1269750D01*
X167269D01*
X167094Y1269770D01*
X166977Y1269828D01*
X166879Y1269926D01*
X166821Y1270023D01*
X166782Y1270101D01*
X166762Y1270199D01*
Y1270257D01*
Y1270277D01*
X166782Y1270452D01*
X166840Y1270589D01*
X166938Y1270667D01*
X167036Y1270745D01*
X167113Y1270784D01*
X167211Y1270803D01*
X170976D01*
Y1272891D01*
Y1272969D01*
Y1273027D01*
X170956Y1273066D01*
Y1273086D01*
X167055Y1275036D01*
X166957Y1275095D01*
X166879Y1275173D01*
X166840Y1275251D01*
X166801Y1275349D01*
X166762Y1275466D01*
Y1275505D01*
Y1275524D01*
X166782Y1275661D01*
X166840Y1275778D01*
X166899Y1275856D01*
X166918Y1275875D01*
X167036Y1275973D01*
X167153Y1276031D01*
X167230Y1276051D01*
X167367D01*
X167445Y1276031D01*
X167504Y1276012D01*
X167523Y1275992D01*
X171190Y1274159D01*
X171346Y1274490D01*
X171522Y1274783D01*
X171737Y1275036D01*
X171971Y1275251D01*
X172205Y1275446D01*
X172439Y1275583D01*
X172693Y1275719D01*
X172927Y1275817D01*
X173161Y1275895D01*
X173395Y1275953D01*
X173590Y1275992D01*
X173765Y1276031D01*
X173902D01*
X174019Y1276051D01*
X174117D01*
X174351Y1276031D01*
D02*
G37*
G36*
X194426D02*
X194562Y1275973D01*
X194640Y1275875D01*
X194718Y1275797D01*
X194757Y1275700D01*
X194777Y1275602D01*
Y1275544D01*
Y1275524D01*
Y1272364D01*
X194738Y1271974D01*
X194660Y1271623D01*
X194523Y1271291D01*
X194387Y1271038D01*
X194250Y1270803D01*
X194114Y1270647D01*
X194035Y1270550D01*
X193996Y1270511D01*
X193704Y1270257D01*
X193392Y1270062D01*
X193080Y1269945D01*
X192787Y1269847D01*
X192533Y1269789D01*
X192319Y1269770D01*
X192241Y1269750D01*
X186876D01*
X186486Y1269789D01*
X186135Y1269867D01*
X185803Y1269984D01*
X185550Y1270140D01*
X185316Y1270277D01*
X185160Y1270394D01*
X185062Y1270472D01*
X185023Y1270511D01*
X184769Y1270803D01*
X184575Y1271115D01*
X184457Y1271428D01*
X184360Y1271720D01*
X184301Y1271974D01*
X184282Y1272188D01*
X184262Y1272266D01*
Y1272325D01*
Y1272344D01*
Y1272364D01*
Y1275524D01*
X184282Y1275700D01*
X184340Y1275836D01*
X184418Y1275914D01*
X184516Y1275992D01*
X184613Y1276031D01*
X184692Y1276051D01*
X190037D01*
X190212Y1276031D01*
X190349Y1275973D01*
X190427Y1275875D01*
X190505Y1275797D01*
X190544Y1275700D01*
X190563Y1275602D01*
Y1275544D01*
Y1275524D01*
Y1273944D01*
X190544Y1273768D01*
X190485Y1273632D01*
X190388Y1273554D01*
X190310Y1273476D01*
X190212Y1273437D01*
X190114Y1273417D01*
X190037D01*
X189861Y1273437D01*
X189724Y1273495D01*
X189646Y1273593D01*
X189568Y1273690D01*
X189529Y1273768D01*
X189510Y1273866D01*
Y1273924D01*
Y1273944D01*
Y1274997D01*
X185316D01*
Y1272364D01*
X185335Y1272130D01*
X185394Y1271915D01*
X185452Y1271720D01*
X185550Y1271564D01*
X185628Y1271428D01*
X185686Y1271330D01*
X185745Y1271272D01*
X185764Y1271252D01*
X185940Y1271096D01*
X186135Y1270998D01*
X186311Y1270920D01*
X186486Y1270862D01*
X186642Y1270823D01*
X186759Y1270803D01*
X192143D01*
X192377Y1270823D01*
X192592Y1270881D01*
X192787Y1270940D01*
X192943Y1271038D01*
X193080Y1271115D01*
X193177Y1271174D01*
X193236Y1271233D01*
X193255Y1271252D01*
X193411Y1271428D01*
X193528Y1271623D01*
X193606Y1271798D01*
X193665Y1271974D01*
X193704Y1272130D01*
X193723Y1272247D01*
Y1272344D01*
Y1272364D01*
Y1275524D01*
X193743Y1275700D01*
X193801Y1275836D01*
X193899Y1275914D01*
X193996Y1275992D01*
X194074Y1276031D01*
X194172Y1276051D01*
X194250D01*
X194426Y1276031D01*
D02*
G37*
G36*
X1443252Y1278708D02*
X1443389Y1278649D01*
X1443467Y1278571D01*
X1443545Y1278474D01*
X1443584Y1278376D01*
X1443603Y1278298D01*
Y1272953D01*
X1443584Y1272777D01*
X1443525Y1272641D01*
X1443428Y1272563D01*
X1443350Y1272485D01*
X1443252Y1272446D01*
X1443155Y1272426D01*
X1441497D01*
X1441321Y1272446D01*
X1441184Y1272504D01*
X1441106Y1272602D01*
X1441028Y1272680D01*
X1440989Y1272777D01*
X1440970Y1272875D01*
Y1272953D01*
X1440989Y1273129D01*
X1441048Y1273265D01*
X1441145Y1273343D01*
X1441243Y1273421D01*
X1441321Y1273460D01*
X1441418Y1273480D01*
X1442550D01*
Y1277674D01*
X1439917D01*
X1439682Y1277654D01*
X1439468Y1277596D01*
X1439273Y1277537D01*
X1439117Y1277440D01*
X1438980Y1277362D01*
X1438883Y1277303D01*
X1438824Y1277244D01*
X1438805Y1277225D01*
X1438649Y1277049D01*
X1438551Y1276854D01*
X1438473Y1276679D01*
X1438414Y1276503D01*
X1438375Y1276347D01*
X1438356Y1276230D01*
Y1270846D01*
X1438375Y1270612D01*
X1438434Y1270397D01*
X1438492Y1270202D01*
X1438590Y1270046D01*
X1438668Y1269910D01*
X1438727Y1269812D01*
X1438785Y1269754D01*
X1438805Y1269734D01*
X1438980Y1269578D01*
X1439175Y1269461D01*
X1439351Y1269383D01*
X1439526Y1269325D01*
X1439682Y1269286D01*
X1439799Y1269266D01*
X1443077D01*
X1443252Y1269247D01*
X1443389Y1269188D01*
X1443467Y1269090D01*
X1443545Y1268993D01*
X1443584Y1268915D01*
X1443603Y1268817D01*
Y1268739D01*
X1443584Y1268564D01*
X1443525Y1268427D01*
X1443428Y1268349D01*
X1443350Y1268271D01*
X1443252Y1268232D01*
X1443155Y1268213D01*
X1439917D01*
X1439526Y1268252D01*
X1439175Y1268330D01*
X1438844Y1268466D01*
X1438590Y1268603D01*
X1438356Y1268739D01*
X1438200Y1268876D01*
X1438102Y1268954D01*
X1438063Y1268993D01*
X1437810Y1269286D01*
X1437615Y1269598D01*
X1437498Y1269910D01*
X1437400Y1270202D01*
X1437341Y1270456D01*
X1437322Y1270671D01*
X1437303Y1270749D01*
Y1276113D01*
X1437341Y1276503D01*
X1437420Y1276854D01*
X1437537Y1277186D01*
X1437693Y1277440D01*
X1437829Y1277674D01*
X1437946Y1277830D01*
X1438024Y1277927D01*
X1438063Y1277966D01*
X1438356Y1278220D01*
X1438668Y1278415D01*
X1438980Y1278532D01*
X1439273Y1278630D01*
X1439526Y1278688D01*
X1439741Y1278708D01*
X1439819Y1278727D01*
X1443077D01*
X1443252Y1278708D01*
D02*
G37*
G36*
X155235Y1276031D02*
X155527Y1275992D01*
X155820Y1275914D01*
X156073Y1275817D01*
X156327Y1275700D01*
X156542Y1275583D01*
X156737Y1275446D01*
X156932Y1275310D01*
X157088Y1275154D01*
X157224Y1275017D01*
X157341Y1274900D01*
X157419Y1274783D01*
X157498Y1274685D01*
X157556Y1274607D01*
X157576Y1274568D01*
X157595Y1274549D01*
X157751Y1274724D01*
X157907Y1274880D01*
X158083Y1274997D01*
X158239Y1275115D01*
X158590Y1275290D01*
X158921Y1275407D01*
X159195Y1275466D01*
X159429Y1275505D01*
X159526Y1275524D01*
X159643D01*
X160053Y1275485D01*
X160404Y1275407D01*
X160716Y1275290D01*
X160989Y1275154D01*
X161223Y1274997D01*
X161379Y1274880D01*
X161477Y1274802D01*
X161516Y1274763D01*
X161770Y1274471D01*
X161965Y1274159D01*
X162101Y1273847D01*
X162179Y1273534D01*
X162238Y1273281D01*
X162257Y1273086D01*
X162277Y1273008D01*
Y1272949D01*
Y1272910D01*
Y1272891D01*
Y1270257D01*
X162257Y1270082D01*
X162199Y1269965D01*
X162101Y1269867D01*
X162023Y1269809D01*
X161926Y1269770D01*
X161828Y1269750D01*
X152269D01*
X152094Y1269770D01*
X151977Y1269828D01*
X151879Y1269906D01*
X151821Y1270004D01*
X151782Y1270101D01*
X151762Y1270179D01*
Y1270238D01*
Y1270257D01*
Y1272891D01*
X151782Y1273125D01*
X151801Y1273359D01*
X151899Y1273788D01*
X152055Y1274178D01*
X152231Y1274490D01*
X152387Y1274763D01*
X152543Y1274958D01*
X152601Y1275017D01*
X152640Y1275076D01*
X152679Y1275095D01*
Y1275115D01*
X152855Y1275270D01*
X153030Y1275427D01*
X153420Y1275661D01*
X153791Y1275817D01*
X154142Y1275934D01*
X154435Y1276012D01*
X154571Y1276031D01*
X154688D01*
X154786Y1276051D01*
X154903D01*
X155235Y1276031D01*
D02*
G37*
%LPC*%
G36*
X552930Y1327184D02*
X550803D01*
Y1322990D01*
X552891D01*
X553203Y1323010D01*
X553495Y1323088D01*
X553749Y1323185D01*
X553964Y1323302D01*
X554139Y1323419D01*
X554256Y1323517D01*
X554354Y1323595D01*
X554373Y1323614D01*
X554588Y1323849D01*
X554744Y1324102D01*
X554841Y1324356D01*
X554919Y1324590D01*
X554958Y1324785D01*
X554997Y1324941D01*
Y1325097D01*
X554978Y1325409D01*
X554900Y1325702D01*
X554802Y1325955D01*
X554685Y1326170D01*
X554568Y1326345D01*
X554471Y1326463D01*
X554393Y1326560D01*
X554373Y1326579D01*
X554139Y1326775D01*
X553885Y1326931D01*
X553632Y1327028D01*
X553398Y1327106D01*
X553203Y1327145D01*
X553047Y1327165D01*
X552930Y1327184D01*
D02*
G37*
G36*
X553008Y1321937D02*
X550803D01*
Y1318777D01*
X552891D01*
X553125Y1318796D01*
X553339Y1318855D01*
X553534Y1318933D01*
X553690Y1319011D01*
X553827Y1319089D01*
X553924Y1319167D01*
X553983Y1319225D01*
X554002Y1319245D01*
X554159Y1319420D01*
X554276Y1319615D01*
X554354Y1319810D01*
X554412Y1319967D01*
X554451Y1320123D01*
X554471Y1320240D01*
Y1320357D01*
X554451Y1320591D01*
X554393Y1320805D01*
X554315Y1321001D01*
X554237Y1321176D01*
X554159Y1321313D01*
X554081Y1321410D01*
X554022Y1321469D01*
X554002Y1321488D01*
X553827Y1321644D01*
X553632Y1321742D01*
X553437Y1321820D01*
X553281Y1321878D01*
X553125Y1321917D01*
X553008Y1321937D01*
D02*
G37*
G36*
X552930Y1307971D02*
X550803D01*
Y1303777D01*
X552891D01*
X553203Y1303796D01*
X553495Y1303874D01*
X553749Y1303972D01*
X553964Y1304089D01*
X554139Y1304206D01*
X554256Y1304303D01*
X554354Y1304381D01*
X554373Y1304401D01*
X554588Y1304635D01*
X554744Y1304889D01*
X554841Y1305142D01*
X554919Y1305376D01*
X554958Y1305571D01*
X554997Y1305727D01*
Y1305883D01*
X554978Y1306196D01*
X554900Y1306488D01*
X554802Y1306742D01*
X554685Y1306956D01*
X554568Y1307132D01*
X554471Y1307249D01*
X554393Y1307346D01*
X554373Y1307366D01*
X554139Y1307561D01*
X553885Y1307717D01*
X553632Y1307815D01*
X553398Y1307893D01*
X553203Y1307932D01*
X553047Y1307951D01*
X552930Y1307971D01*
D02*
G37*
G36*
X1440482Y1310174D02*
X1438356D01*
Y1305980D01*
X1440443D01*
X1440755Y1305999D01*
X1441048Y1306077D01*
X1441302Y1306175D01*
X1441516Y1306292D01*
X1441692Y1306409D01*
X1441809Y1306506D01*
X1441906Y1306584D01*
X1441926Y1306604D01*
X1442140Y1306838D01*
X1442296Y1307092D01*
X1442394Y1307345D01*
X1442472Y1307579D01*
X1442511Y1307774D01*
X1442550Y1307930D01*
Y1308086D01*
X1442530Y1308398D01*
X1442452Y1308691D01*
X1442355Y1308945D01*
X1442238Y1309159D01*
X1442121Y1309335D01*
X1442023Y1309452D01*
X1441945Y1309549D01*
X1441926Y1309569D01*
X1441692Y1309764D01*
X1441438Y1309920D01*
X1441184Y1310018D01*
X1440950Y1310096D01*
X1440755Y1310135D01*
X1440599Y1310154D01*
X1440482Y1310174D01*
D02*
G37*
G36*
X1440560Y1304926D02*
X1438356D01*
Y1301766D01*
X1440443D01*
X1440677Y1301786D01*
X1440892Y1301844D01*
X1441087Y1301922D01*
X1441243Y1302000D01*
X1441380Y1302078D01*
X1441477Y1302156D01*
X1441536Y1302215D01*
X1441555Y1302234D01*
X1441711Y1302410D01*
X1441828Y1302605D01*
X1441906Y1302800D01*
X1441965Y1302956D01*
X1442004Y1303112D01*
X1442023Y1303229D01*
Y1303346D01*
X1442004Y1303580D01*
X1441945Y1303795D01*
X1441867Y1303990D01*
X1441789Y1304165D01*
X1441711Y1304302D01*
X1441633Y1304400D01*
X1441575Y1304458D01*
X1441555Y1304478D01*
X1441380Y1304634D01*
X1441184Y1304731D01*
X1440989Y1304809D01*
X1440833Y1304868D01*
X1440677Y1304907D01*
X1440560Y1304926D01*
D02*
G37*
G36*
X1440482Y1290960D02*
X1438356D01*
Y1286766D01*
X1440443D01*
X1440755Y1286786D01*
X1441048Y1286864D01*
X1441302Y1286961D01*
X1441516Y1287078D01*
X1441692Y1287195D01*
X1441809Y1287293D01*
X1441906Y1287371D01*
X1441926Y1287390D01*
X1442140Y1287624D01*
X1442296Y1287878D01*
X1442394Y1288132D01*
X1442472Y1288366D01*
X1442511Y1288561D01*
X1442550Y1288717D01*
Y1288873D01*
X1442530Y1289185D01*
X1442452Y1289478D01*
X1442355Y1289731D01*
X1442238Y1289946D01*
X1442121Y1290121D01*
X1442023Y1290238D01*
X1441945Y1290336D01*
X1441926Y1290355D01*
X1441692Y1290551D01*
X1441438Y1290706D01*
X1441184Y1290804D01*
X1440950Y1290882D01*
X1440755Y1290921D01*
X1440599Y1290941D01*
X1440482Y1290960D01*
D02*
G37*
G36*
X174273Y1274997D02*
X174117D01*
X173804Y1274978D01*
X173512Y1274900D01*
X173258Y1274802D01*
X173044Y1274685D01*
X172868Y1274568D01*
X172751Y1274471D01*
X172654Y1274393D01*
X172634Y1274373D01*
X172439Y1274139D01*
X172283Y1273885D01*
X172185Y1273632D01*
X172107Y1273398D01*
X172068Y1273203D01*
X172049Y1273047D01*
X172029Y1272930D01*
Y1272910D01*
Y1272891D01*
Y1270803D01*
X176223D01*
Y1272891D01*
X176204Y1273203D01*
X176126Y1273495D01*
X176028Y1273749D01*
X175911Y1273963D01*
X175794Y1274139D01*
X175697Y1274256D01*
X175619Y1274354D01*
X175599Y1274373D01*
X175365Y1274588D01*
X175111Y1274744D01*
X174858Y1274841D01*
X174624Y1274919D01*
X174429Y1274958D01*
X174273Y1274997D01*
D02*
G37*
G36*
X159760Y1274471D02*
X159643D01*
X159409Y1274451D01*
X159195Y1274393D01*
X159000Y1274315D01*
X158824Y1274237D01*
X158687Y1274159D01*
X158590Y1274081D01*
X158531Y1274022D01*
X158512Y1274003D01*
X158356Y1273827D01*
X158258Y1273632D01*
X158180Y1273437D01*
X158122Y1273281D01*
X158083Y1273125D01*
X158063Y1273008D01*
Y1272910D01*
Y1272891D01*
Y1270803D01*
X161223D01*
Y1272891D01*
X161204Y1273125D01*
X161145Y1273339D01*
X161067Y1273534D01*
X160989Y1273690D01*
X160911Y1273827D01*
X160833Y1273924D01*
X160775Y1273983D01*
X160755Y1274003D01*
X160580Y1274159D01*
X160385Y1274276D01*
X160189Y1274354D01*
X160033Y1274412D01*
X159877Y1274451D01*
X159760Y1274471D01*
D02*
G37*
G36*
X155059Y1274997D02*
X154903D01*
X154591Y1274978D01*
X154298Y1274900D01*
X154045Y1274802D01*
X153830Y1274685D01*
X153655Y1274568D01*
X153538Y1274471D01*
X153440Y1274393D01*
X153420Y1274373D01*
X153225Y1274139D01*
X153069Y1273885D01*
X152972Y1273632D01*
X152894Y1273398D01*
X152855Y1273203D01*
X152835Y1273047D01*
X152816Y1272930D01*
Y1272910D01*
Y1272891D01*
Y1270803D01*
X157010D01*
Y1272891D01*
X156990Y1273203D01*
X156912Y1273495D01*
X156815Y1273749D01*
X156698Y1273963D01*
X156581Y1274139D01*
X156483Y1274256D01*
X156405Y1274354D01*
X156386Y1274373D01*
X156152Y1274588D01*
X155898Y1274744D01*
X155644Y1274841D01*
X155410Y1274919D01*
X155215Y1274958D01*
X155059Y1274997D01*
D02*
G37*
%LPD*%
D43*
X210164Y337750D02*
G03*
X210164Y337750I-1414J0D01*
G01*
X209868Y312250D02*
G03*
X209868Y312250I-1118J0D01*
G01*
X209458Y286750D02*
G03*
X209458Y286750I-1458J0D01*
G01*
D44*
X265000Y316250D02*
X291500D01*
X265000Y328750D02*
X291500D01*
X265000Y316250D02*
Y328750D01*
X291500Y316250D02*
Y328750D01*
X203000Y317500D02*
Y326500D01*
X190500Y317500D02*
Y327500D01*
Y317500D02*
X212500D01*
Y327500D01*
X190500D02*
X212500D01*
X203000Y343000D02*
Y352000D01*
X190500Y343000D02*
Y353000D01*
Y343000D02*
X212500D01*
Y353000D01*
X190500D02*
X212500D01*
X203000Y292250D02*
Y301250D01*
X190500Y292250D02*
Y302250D01*
Y292250D02*
X212500D01*
Y302250D01*
X190500D02*
X212500D01*
X794500Y949750D02*
X821000D01*
X794500Y937250D02*
X821000D01*
Y949750D01*
X794500Y937250D02*
Y949750D01*
X793750Y907500D02*
Y934000D01*
X806250Y907500D02*
Y934000D01*
X793750D02*
X806250D01*
X793750Y907500D02*
X806250D01*
X819000Y953000D02*
Y979500D01*
X806500Y953000D02*
Y979500D01*
Y953000D02*
X819000D01*
X806500Y979500D02*
X819000D01*
X1549758Y186340D02*
X1543408Y192690D01*
X1530708D01*
X1524358Y186340D01*
Y173640D01*
X1530708Y167290D02*
X1524358Y173640D01*
X1543408Y167290D02*
X1530708D01*
X1549758Y173640D02*
X1543408Y167290D01*
X1600558D02*
X1575158D01*
Y173640D02*
X1568808Y167290D01*
X1556108D01*
X1549758Y173640D01*
Y186340D02*
Y173640D01*
X1556108Y192690D02*
X1549758Y186340D01*
X1568808Y192690D02*
X1556108D01*
X1575158Y186340D02*
X1568808Y192690D01*
X1600558D02*
Y167290D01*
X1575158Y192690D02*
Y167290D01*
X1600558Y192690D02*
X1575158D01*
X1271508Y167290D02*
X1265158Y173640D01*
X1284208Y167290D02*
X1271508D01*
X1290558Y173640D02*
X1284208Y167290D01*
X1290558Y186340D02*
Y173640D01*
Y186340D02*
X1284208Y192690D01*
X1271508D01*
X1265158Y186340D01*
X1239758Y192690D02*
X1214358D01*
X1246108D02*
X1239758Y186340D01*
X1258808Y192690D02*
X1246108D01*
X1265158Y186340D02*
X1258808Y192690D01*
X1265158Y186340D02*
Y173640D01*
X1258808Y167290D01*
X1246108D01*
X1239758Y173640D01*
X1214358Y192690D02*
Y167290D01*
X1239758Y192690D02*
Y167290D01*
X1214358D01*
X161762Y1324750D02*
X181762D01*
X161762Y1304750D02*
X181762D01*
X171762Y1302250D02*
Y1327250D01*
Y1324750D02*
X181762Y1304750D01*
X161762D02*
X171762Y1324750D01*
X212262Y1318250D02*
Y1344750D01*
X199762Y1318250D02*
Y1344750D01*
Y1318250D02*
X212262D01*
X199762Y1344750D02*
X212262D01*
X604750Y1318238D02*
Y1298238D01*
X584750Y1318238D02*
Y1298238D01*
X582250Y1308238D02*
X607250D01*
X604750D02*
X584750Y1298238D01*
Y1318238D02*
X604750Y1308238D01*
X598250Y1267738D02*
X624750D01*
X598250Y1280238D02*
X624750D01*
X598250D02*
Y1267738D01*
X624750Y1280238D02*
Y1267738D01*
X1492303Y1301227D02*
Y1281227D01*
X1472303Y1301227D02*
Y1281227D01*
X1469803Y1291227D02*
X1494803D01*
X1492303D02*
X1472303Y1281227D01*
Y1301227D02*
X1492303Y1291227D01*
X1485802Y1250727D02*
X1512303D01*
X1485802Y1263227D02*
X1512303D01*
X1485802D02*
Y1250727D01*
X1512303Y1263227D02*
Y1250727D01*
X1195542Y1213260D02*
X1229542D01*
X1195542Y1196760D02*
X1229542D01*
Y1213260D01*
X1195542Y1196760D02*
Y1213260D01*
D79*
X331444Y289484D02*
X338048D01*
X327380Y289992D02*
X342112D01*
X324332Y290500D02*
X344652D01*
X322300Y291008D02*
X346684D01*
X320776Y291516D02*
X348716D01*
X319252Y292024D02*
X350240D01*
X318236Y292532D02*
X351256D01*
X316712Y293040D02*
X352780D01*
X315696Y293548D02*
X353796D01*
X314680Y294056D02*
X354812D01*
X313664Y294564D02*
X355828D01*
X312648Y295072D02*
X356844D01*
X311632Y295580D02*
X357860D01*
X311124Y296088D02*
X358368D01*
X310108Y296596D02*
X359384D01*
X309092Y297104D02*
X359892D01*
X308584Y297612D02*
X360908D01*
X308076Y298120D02*
X361416D01*
X307060Y298628D02*
X361924D01*
X306552Y299136D02*
X362940D01*
X306044Y299644D02*
X363448D01*
X305536Y300152D02*
X363956D01*
X304520Y300660D02*
X364464D01*
X304012Y301168D02*
X364464D01*
X303504Y301676D02*
X364972D01*
X360400Y302184D02*
X364972D01*
X340080D02*
X358368D01*
X302996D02*
X329412D01*
X360908Y302692D02*
X365480D01*
X342620D02*
X357352D01*
X302488D02*
X326872D01*
X361416Y303200D02*
X365480D01*
X344144D02*
X357352D01*
X301980D02*
X324840D01*
X361416Y303708D02*
X365480D01*
X345668D02*
X356844D01*
X301472D02*
X323316D01*
X361416Y304216D02*
X365480D01*
X347192D02*
X356844D01*
X300964D02*
X322300D01*
X361416Y304724D02*
X365480D01*
X348208D02*
X356844D01*
X300964D02*
X321284D01*
X361416Y305232D02*
X365480D01*
X349224D02*
X356844D01*
X300456D02*
X320268D01*
X360908Y305740D02*
X365480D01*
X350240D02*
X357352D01*
X299948D02*
X319252D01*
X360400Y306248D02*
X364972D01*
X351256D02*
X357860D01*
X329412D02*
X340080D01*
X299440D02*
X318236D01*
X352272Y306756D02*
X364972D01*
X326872D02*
X342112D01*
X298932D02*
X317220D01*
X352780Y307264D02*
X364464D01*
X325348D02*
X344144D01*
X298424D02*
X316712D01*
X353796Y307772D02*
X364464D01*
X323824D02*
X345160D01*
X298424D02*
X315696D01*
X354304Y308280D02*
X363956D01*
X322808D02*
X346684D01*
X297916D02*
X315188D01*
X354812Y308788D02*
X363448D01*
X321792D02*
X347700D01*
X297408D02*
X314680D01*
X355828Y309296D02*
X362940D01*
X320776D02*
X348716D01*
X297408D02*
X313664D01*
X356336Y309804D02*
X361924D01*
X319760D02*
X349224D01*
X296900D02*
X313156D01*
X357860Y310312D02*
X360400D01*
X318744D02*
X350240D01*
X296392D02*
X312648D01*
X318236Y310820D02*
X351256D01*
X296392D02*
X312140D01*
X317728Y311328D02*
X351764D01*
X295884D02*
X311632D01*
X316712Y311836D02*
X352272D01*
X295376D02*
X311124D01*
X316204Y312344D02*
X352780D01*
X295376D02*
X310616D01*
X315696Y312852D02*
X353796D01*
X294868D02*
X310108D01*
X315188Y313360D02*
X354304D01*
X294868D02*
X309600D01*
X315188Y313868D02*
X354812D01*
X294360D02*
X309092D01*
X314680Y314376D02*
X355320D01*
X294360D02*
X309092D01*
X314680Y314884D02*
X355828D01*
X293852D02*
X308584D01*
X314172Y315392D02*
X356336D01*
X293852D02*
X308076D01*
X314172Y315900D02*
X356844D01*
X293344D02*
X307568D01*
X314172Y316408D02*
X356844D01*
X293344D02*
X307568D01*
X314172Y316916D02*
X357352D01*
X292836D02*
X307060D01*
X314172Y317424D02*
X357860D01*
X292836D02*
X306552D01*
X314172Y317932D02*
X358368D01*
X292836D02*
X306552D01*
X337540Y318440D02*
X358368D01*
X314172D02*
X331444D01*
X292328D02*
X306044D01*
X339572Y318948D02*
X358876D01*
X314680D02*
X329412D01*
X292328D02*
X306044D01*
X341096Y319456D02*
X359384D01*
X314680D02*
X328396D01*
X291820D02*
X305536D01*
X342112Y319964D02*
X359384D01*
X314680D02*
X327380D01*
X291820D02*
X305536D01*
X343128Y320472D02*
X359892D01*
X315188D02*
X326364D01*
X291820D02*
X305028D01*
X343636Y320980D02*
X359892D01*
X315696D02*
X325348D01*
X291312D02*
X305028D01*
X344652Y321488D02*
X360400D01*
X316204D02*
X324840D01*
X291312D02*
X304520D01*
X345160Y321996D02*
X360400D01*
X316712D02*
X323824D01*
X291312D02*
X304520D01*
X345668Y322504D02*
X360908D01*
X317728D02*
X323316D01*
X291312D02*
X304012D01*
X346176Y323012D02*
X360908D01*
X318744D02*
X321792D01*
X290804D02*
X304012D01*
X346684Y323520D02*
X361416D01*
X290804D02*
X304012D01*
X347192Y324028D02*
X361416D01*
X290804D02*
X303504D01*
X347700Y324536D02*
X361924D01*
X290804D02*
X303504D01*
X348208Y325044D02*
X361924D01*
X290296D02*
X303504D01*
X348208Y325552D02*
X361924D01*
X290296D02*
X302996D01*
X348716Y326060D02*
X362432D01*
X290296D02*
X302996D01*
X348716Y326568D02*
X362432D01*
X290296D02*
X302996D01*
X349224Y327076D02*
X362432D01*
X290296D02*
X302488D01*
X349732Y327584D02*
X362432D01*
X289788D02*
X302488D01*
X349732Y328092D02*
X362940D01*
X289788D02*
X302488D01*
X349732Y328600D02*
X362940D01*
X289788D02*
X336016D01*
X350240Y329108D02*
X362940D01*
X289788D02*
X337540D01*
X350240Y329616D02*
X362940D01*
X289788D02*
X338556D01*
X350240Y330124D02*
X362940D01*
X289788D02*
X339064D01*
X350748Y330632D02*
X363448D01*
X289788D02*
X339572D01*
X350748Y331140D02*
X363448D01*
X289788D02*
X340080D01*
X350748Y331648D02*
X363448D01*
X336016D02*
X340080D01*
X289788D02*
X332968D01*
X350748Y332156D02*
X363448D01*
X337032D02*
X340588D01*
X289280D02*
X332460D01*
X350748Y332664D02*
X363448D01*
X337540D02*
X340588D01*
X289280D02*
X331952D01*
X351256Y333172D02*
X363448D01*
X337540D02*
X341096D01*
X289280D02*
X331952D01*
X351256Y333680D02*
X363448D01*
X338048D02*
X341096D01*
X289280D02*
X331444D01*
X351256Y334188D02*
X363448D01*
X338048D02*
X341096D01*
X289280D02*
X331444D01*
X351256Y334696D02*
X363448D01*
X338048D02*
X341096D01*
X289280D02*
X331444D01*
X351256Y335204D02*
X363448D01*
X338048D02*
X341096D01*
X289280D02*
X331444D01*
X351256Y335712D02*
X363448D01*
X338048D02*
X341096D01*
X289280D02*
X331444D01*
X350748Y336220D02*
X363448D01*
X337540D02*
X340588D01*
X289280D02*
X331952D01*
X350748Y336728D02*
X363448D01*
X337032D02*
X340588D01*
X289280D02*
X331952D01*
X350748Y337236D02*
X363448D01*
X336524D02*
X340588D01*
X289788D02*
X332968D01*
X350748Y337744D02*
X363448D01*
X335508D02*
X340080D01*
X289788D02*
X333476D01*
X350748Y338252D02*
X363448D01*
X289788D02*
X340080D01*
X350748Y338760D02*
X362940D01*
X289788D02*
X339572D01*
X350240Y339268D02*
X362940D01*
X289788D02*
X339064D01*
X350240Y339776D02*
X362940D01*
X289788D02*
X338556D01*
X350240Y340284D02*
X362940D01*
X289788D02*
X337540D01*
X349732Y340792D02*
X362940D01*
X289788D02*
X335508D01*
X349732Y341300D02*
X362940D01*
X289788D02*
X302488D01*
X349224Y341808D02*
X362432D01*
X289788D02*
X302488D01*
X349224Y342316D02*
X362432D01*
X290296D02*
X302996D01*
X348716Y342824D02*
X362432D01*
X290296D02*
X302996D01*
X348716Y343332D02*
X361924D01*
X290296D02*
X302996D01*
X348208Y343840D02*
X361924D01*
X290296D02*
X302996D01*
X347700Y344348D02*
X361924D01*
X290296D02*
X303504D01*
X347192Y344856D02*
X361416D01*
X290804D02*
X303504D01*
X347192Y345364D02*
X361416D01*
X290804D02*
X303504D01*
X346684Y345872D02*
X361416D01*
X290804D02*
X304012D01*
X346176Y346380D02*
X360908D01*
X318236D02*
X322300D01*
X290804D02*
X304012D01*
X345668Y346888D02*
X360908D01*
X317220D02*
X323824D01*
X291312D02*
X304520D01*
X344652Y347396D02*
X360400D01*
X316204D02*
X324332D01*
X291312D02*
X304520D01*
X344144Y347904D02*
X360400D01*
X315696D02*
X324840D01*
X291312D02*
X304520D01*
X343636Y348412D02*
X359892D01*
X315696D02*
X325856D01*
X291820D02*
X305028D01*
X342620Y348920D02*
X359892D01*
X315188D02*
X326364D01*
X291820D02*
X305028D01*
X341604Y349428D02*
X359384D01*
X314680D02*
X327380D01*
X291820D02*
X305536D01*
X340588Y349936D02*
X358876D01*
X314680D02*
X328904D01*
X292328D02*
X305536D01*
X339064Y350444D02*
X358876D01*
X314680D02*
X330428D01*
X292328D02*
X306044D01*
X336524Y350952D02*
X358368D01*
X314172D02*
X332968D01*
X292328D02*
X306044D01*
X314172Y351460D02*
X357860D01*
X292836D02*
X306552D01*
X314172Y351968D02*
X357860D01*
X292836D02*
X307060D01*
X314172Y352476D02*
X357352D01*
X293344D02*
X307060D01*
X314172Y352984D02*
X356844D01*
X293344D02*
X307568D01*
X314172Y353492D02*
X356336D01*
X293344D02*
X308076D01*
X314680Y354000D02*
X355828D01*
X293852D02*
X308076D01*
X314680Y354508D02*
X355320D01*
X293852D02*
X308584D01*
X314680Y355016D02*
X354812D01*
X294360D02*
X309092D01*
X315188Y355524D02*
X354304D01*
X294360D02*
X309600D01*
X315696Y356032D02*
X353796D01*
X294868D02*
X310108D01*
X315696Y356540D02*
X353288D01*
X295376D02*
X310108D01*
X316712Y357048D02*
X352780D01*
X295376D02*
X310616D01*
X317220Y357556D02*
X352272D01*
X295884D02*
X311124D01*
X317728Y358064D02*
X351256D01*
X295884D02*
X311632D01*
X318744Y358572D02*
X350748D01*
X296392D02*
X312140D01*
X357352Y359080D02*
X361416D01*
X319252D02*
X349732D01*
X296900D02*
X312648D01*
X355828Y359588D02*
X362432D01*
X320268D02*
X349224D01*
X296900D02*
X313664D01*
X355320Y360096D02*
X362940D01*
X321284D02*
X348208D01*
X297408D02*
X314172D01*
X354812Y360604D02*
X363956D01*
X322300D02*
X347192D01*
X297916D02*
X314680D01*
X353796Y361112D02*
X363956D01*
X323316D02*
X346176D01*
X297916D02*
X315188D01*
X353288Y361620D02*
X364464D01*
X324332D02*
X344652D01*
X298424D02*
X316204D01*
X352272Y362128D02*
X364972D01*
X325856D02*
X343128D01*
X298932D02*
X316712D01*
X360400Y362636D02*
X364972D01*
X351764D02*
X358368D01*
X327888D02*
X341604D01*
X299440D02*
X317728D01*
X360908Y363144D02*
X364972D01*
X350748D02*
X357352D01*
X330428D02*
X338556D01*
X299440D02*
X318744D01*
X361416Y363652D02*
X365480D01*
X349732D02*
X357352D01*
X299948D02*
X319252D01*
X361416Y364160D02*
X365480D01*
X348716D02*
X356844D01*
X300456D02*
X320268D01*
X361416Y364668D02*
X365480D01*
X347700D02*
X356844D01*
X300964D02*
X321792D01*
X361416Y365176D02*
X365480D01*
X346684D02*
X356844D01*
X301472D02*
X322808D01*
X361416Y365684D02*
X365480D01*
X345160D02*
X356844D01*
X301980D02*
X324332D01*
X360908Y366192D02*
X365480D01*
X343636D02*
X357352D01*
X302488D02*
X325856D01*
X360400Y366700D02*
X364972D01*
X341604D02*
X357860D01*
X302996D02*
X327888D01*
X338556Y367208D02*
X364972D01*
X303504D02*
X330936D01*
X304012Y367716D02*
X364972D01*
X304520Y368224D02*
X364464D01*
X305028Y368732D02*
X363956D01*
X305536Y369240D02*
X363956D01*
X306044Y369748D02*
X363448D01*
X307060Y370256D02*
X362432D01*
X307568Y370764D02*
X361924D01*
X308076Y371272D02*
X361416D01*
X309092Y371780D02*
X360400D01*
X309600Y372288D02*
X359892D01*
X310616Y372796D02*
X358876D01*
X311124Y373304D02*
X358368D01*
X312140Y373812D02*
X357352D01*
X313156Y374320D02*
X356336D01*
X314172Y374828D02*
X355320D01*
X315188Y375336D02*
X354304D01*
X316204Y375844D02*
X353288D01*
X317220Y376352D02*
X352272D01*
X318744Y376860D02*
X350748D01*
X319760Y377368D02*
X349224D01*
X321284Y377876D02*
X347700D01*
X323316Y378384D02*
X346176D01*
X325348Y378892D02*
X343636D01*
X328396Y379400D02*
X340588D01*
X399396Y970193D02*
X411588D01*
X396348Y969685D02*
X414636D01*
X394316Y969177D02*
X417176D01*
X392284Y968669D02*
X418700D01*
X390760Y968161D02*
X420224D01*
X389744Y967653D02*
X421748D01*
X388220Y967145D02*
X423272D01*
X387204Y966637D02*
X424288D01*
X386188Y966129D02*
X425304D01*
X385172Y965621D02*
X426320D01*
X384156Y965113D02*
X427336D01*
X383140Y964605D02*
X428352D01*
X382124Y964097D02*
X429368D01*
X381616Y963589D02*
X429876D01*
X380600Y963081D02*
X430892D01*
X380092Y962573D02*
X431400D01*
X379076Y962065D02*
X432416D01*
X378568Y961557D02*
X432924D01*
X378060Y961049D02*
X433432D01*
X377044Y960541D02*
X434448D01*
X376536Y960033D02*
X434956D01*
X376028Y959525D02*
X434956D01*
X375520Y959017D02*
X435464D01*
X375012Y958509D02*
X435972D01*
X374504Y958001D02*
X401936D01*
X409556D02*
X435972D01*
X373996Y957493D02*
X398888D01*
X412604D02*
X428860D01*
X431400D02*
X435972D01*
X373488Y956985D02*
X396856D01*
X414636D02*
X428352D01*
X431908D02*
X436480D01*
X372980Y956477D02*
X395332D01*
X416160D02*
X427844D01*
X432416D02*
X436480D01*
X372472Y955969D02*
X393808D01*
X417684D02*
X427844D01*
X432416D02*
X436480D01*
X371964Y955461D02*
X392792D01*
X418700D02*
X427844D01*
X432416D02*
X436480D01*
X371456Y954953D02*
X391268D01*
X419716D02*
X427844D01*
X432416D02*
X436480D01*
X370948Y954445D02*
X390252D01*
X420732D02*
X428352D01*
X432416D02*
X436480D01*
X370440Y953937D02*
X389744D01*
X401428D02*
X409556D01*
X421748D02*
X428352D01*
X431908D02*
X435972D01*
X370440Y953429D02*
X388728D01*
X398888D02*
X412604D01*
X422764D02*
X429368D01*
X431400D02*
X435972D01*
X369932Y952921D02*
X387712D01*
X396856D02*
X414128D01*
X423272D02*
X435972D01*
X369424Y952413D02*
X387204D01*
X395332D02*
X415652D01*
X424288D02*
X435464D01*
X368916Y951905D02*
X386188D01*
X394316D02*
X417176D01*
X424796D02*
X434956D01*
X368916Y951397D02*
X385680D01*
X393300D02*
X418192D01*
X425812D02*
X434956D01*
X368408Y950889D02*
X385172D01*
X392284D02*
X419208D01*
X426320D02*
X433940D01*
X367900Y950381D02*
X384664D01*
X391268D02*
X420224D01*
X426828D02*
X433432D01*
X367900Y949873D02*
X383648D01*
X390252D02*
X420732D01*
X428352D02*
X432416D01*
X367392Y949365D02*
X383140D01*
X389744D02*
X421748D01*
X366884Y948857D02*
X382632D01*
X388728D02*
X422256D01*
X366884Y948349D02*
X382124D01*
X388220D02*
X423272D01*
X366376Y947841D02*
X381616D01*
X387712D02*
X423780D01*
X366376Y947333D02*
X381108D01*
X386696D02*
X424288D01*
X365868Y946825D02*
X381108D01*
X386696D02*
X424796D01*
X365360Y946317D02*
X380600D01*
X386188D02*
X425304D01*
X365360Y945809D02*
X380092D01*
X385680D02*
X425812D01*
X364852Y945301D02*
X379584D01*
X385680D02*
X426320D01*
X364852Y944793D02*
X379076D01*
X385680D02*
X426828D01*
X364344Y944285D02*
X379076D01*
X385172D02*
X427336D01*
X364344Y943777D02*
X378568D01*
X385172D02*
X427844D01*
X364344Y943269D02*
X378060D01*
X385172D02*
X428352D01*
X363836Y942761D02*
X378060D01*
X385172D02*
X428860D01*
X363836Y942253D02*
X377552D01*
X385172D02*
X428860D01*
X363328Y941745D02*
X377044D01*
X385172D02*
X403968D01*
X407524D02*
X429368D01*
X363328Y941237D02*
X377044D01*
X385680D02*
X401428D01*
X410064D02*
X429876D01*
X363328Y940729D02*
X376536D01*
X385680D02*
X399904D01*
X411588D02*
X429876D01*
X362820Y940221D02*
X376536D01*
X385680D02*
X398380D01*
X412604D02*
X430384D01*
X362820Y939713D02*
X376028D01*
X386188D02*
X397364D01*
X413620D02*
X430892D01*
X362820Y939205D02*
X376028D01*
X386696D02*
X396856D01*
X414636D02*
X430892D01*
X362312Y938697D02*
X375520D01*
X386696D02*
X395840D01*
X415144D02*
X431400D01*
X362312Y938189D02*
X375520D01*
X387204D02*
X395332D01*
X415652D02*
X431400D01*
X362312Y937681D02*
X375520D01*
X388220D02*
X394824D01*
X416668D02*
X431908D01*
X361804Y937173D02*
X375012D01*
X389236D02*
X393300D01*
X417176D02*
X431908D01*
X361804Y936665D02*
X375012D01*
X417684D02*
X432416D01*
X361804Y936157D02*
X374504D01*
X418192D02*
X432416D01*
X361804Y935649D02*
X374504D01*
X418192D02*
X432416D01*
X361296Y935141D02*
X374504D01*
X418700D02*
X432924D01*
X361296Y934633D02*
X373996D01*
X419208D02*
X432924D01*
X361296Y934125D02*
X373996D01*
X419716D02*
X432924D01*
X361296Y933617D02*
X373996D01*
X419716D02*
X433432D01*
X361296Y933109D02*
X373996D01*
X420224D02*
X433432D01*
X360788Y932601D02*
X373488D01*
X420224D02*
X433432D01*
X360788Y932093D02*
X373488D01*
X420732D02*
X433940D01*
X360788Y931585D02*
X406508D01*
X420732D02*
X433940D01*
X360788Y931077D02*
X408540D01*
X421240D02*
X433940D01*
X360788Y930569D02*
X409556D01*
X421240D02*
X433940D01*
X360788Y930061D02*
X410064D01*
X421240D02*
X433940D01*
X360788Y929553D02*
X410572D01*
X421748D02*
X433940D01*
X360788Y929045D02*
X411080D01*
X421748D02*
X434448D01*
X360788Y928537D02*
X404476D01*
X406508D02*
X411080D01*
X421748D02*
X434448D01*
X360788Y928029D02*
X403968D01*
X407524D02*
X411588D01*
X421748D02*
X434448D01*
X360280Y927521D02*
X402952D01*
X408032D02*
X411588D01*
X421748D02*
X434448D01*
X360280Y927013D02*
X402952D01*
X408540D02*
X411588D01*
X421748D02*
X434448D01*
X360280Y926505D02*
X402444D01*
X409048D02*
X412096D01*
X422256D02*
X434448D01*
X360280Y925997D02*
X402444D01*
X409048D02*
X412096D01*
X422256D02*
X434448D01*
X360280Y925489D02*
X402444D01*
X409048D02*
X412096D01*
X422256D02*
X434448D01*
X360280Y924981D02*
X402444D01*
X409048D02*
X412096D01*
X422256D02*
X434448D01*
X360280Y924473D02*
X402444D01*
X409048D02*
X412096D01*
X422256D02*
X434448D01*
X360280Y923965D02*
X402952D01*
X408540D02*
X412096D01*
X422256D02*
X434448D01*
X360280Y923457D02*
X402952D01*
X408540D02*
X411588D01*
X421748D02*
X434448D01*
X360280Y922949D02*
X403460D01*
X408032D02*
X411588D01*
X421748D02*
X434448D01*
X360788Y922441D02*
X403968D01*
X407016D02*
X411080D01*
X421748D02*
X434448D01*
X360788Y921933D02*
X411080D01*
X421748D02*
X434448D01*
X360788Y921425D02*
X410572D01*
X421748D02*
X434448D01*
X360788Y920917D02*
X410064D01*
X421240D02*
X433940D01*
X360788Y920409D02*
X409556D01*
X421240D02*
X433940D01*
X360788Y919901D02*
X408540D01*
X421240D02*
X433940D01*
X360788Y919393D02*
X407016D01*
X420732D02*
X433940D01*
X360788Y918885D02*
X373488D01*
X420732D02*
X433940D01*
X360788Y918377D02*
X373488D01*
X420732D02*
X433432D01*
X361296Y917869D02*
X373488D01*
X420224D02*
X433432D01*
X361296Y917361D02*
X373996D01*
X419716D02*
X433432D01*
X361296Y916853D02*
X373996D01*
X419716D02*
X433432D01*
X361296Y916345D02*
X373996D01*
X419208D02*
X432924D01*
X361296Y915837D02*
X374504D01*
X419208D02*
X432924D01*
X361804Y915329D02*
X374504D01*
X418700D02*
X432924D01*
X361804Y914821D02*
X374504D01*
X418192D02*
X432416D01*
X361804Y914313D02*
X375012D01*
X417684D02*
X432416D01*
X361804Y913805D02*
X375012D01*
X389744D02*
X392792D01*
X417176D02*
X431908D01*
X362312Y913297D02*
X375012D01*
X388728D02*
X394316D01*
X416668D02*
X431908D01*
X362312Y912789D02*
X375520D01*
X387712D02*
X394824D01*
X416160D02*
X431400D01*
X362312Y912281D02*
X375520D01*
X387204D02*
X395840D01*
X415652D02*
X431400D01*
X362312Y911773D02*
X376028D01*
X386696D02*
X396348D01*
X414636D02*
X430892D01*
X362820Y911265D02*
X376028D01*
X386188D02*
X397364D01*
X414128D02*
X430892D01*
X362820Y910757D02*
X376536D01*
X385680D02*
X398380D01*
X413112D02*
X430384D01*
X362820Y910249D02*
X376536D01*
X385680D02*
X399396D01*
X412096D02*
X430384D01*
X363328Y909741D02*
X377044D01*
X385680D02*
X400412D01*
X410572D02*
X429876D01*
X363328Y909233D02*
X377044D01*
X385172D02*
X402444D01*
X408540D02*
X429368D01*
X363836Y908725D02*
X377552D01*
X385172D02*
X429368D01*
X363836Y908217D02*
X377552D01*
X385172D02*
X428860D01*
X363836Y907709D02*
X378060D01*
X385172D02*
X428352D01*
X364344Y907201D02*
X378568D01*
X385172D02*
X427844D01*
X364344Y906693D02*
X378568D01*
X385172D02*
X427844D01*
X364852Y906185D02*
X379076D01*
X385172D02*
X427336D01*
X364852Y905677D02*
X379584D01*
X385680D02*
X426828D01*
X365360Y905169D02*
X380092D01*
X385680D02*
X426320D01*
X365360Y904661D02*
X380092D01*
X386188D02*
X425812D01*
X365868Y904153D02*
X380600D01*
X386188D02*
X425304D01*
X365868Y903645D02*
X381108D01*
X386696D02*
X424796D01*
X366376Y903137D02*
X381616D01*
X387204D02*
X423780D01*
X366376Y902629D02*
X382124D01*
X387712D02*
X423272D01*
X366884Y902121D02*
X382632D01*
X388728D02*
X422764D01*
X367392Y901613D02*
X383140D01*
X389236D02*
X422256D01*
X367392Y901105D02*
X383648D01*
X389744D02*
X421240D01*
X428860D02*
X431400D01*
X367900Y900597D02*
X384156D01*
X390760D02*
X420224D01*
X427336D02*
X432924D01*
X368408Y900089D02*
X384664D01*
X391776D02*
X419716D01*
X426828D02*
X433940D01*
X368408Y899581D02*
X385680D01*
X392792D02*
X418700D01*
X425812D02*
X434448D01*
X368916Y899073D02*
X386188D01*
X393808D02*
X417684D01*
X425304D02*
X434956D01*
X369424Y898565D02*
X386696D01*
X394824D02*
X416160D01*
X424796D02*
X435464D01*
X369424Y898057D02*
X387712D01*
X396348D02*
X415144D01*
X423780D02*
X435464D01*
X369932Y897549D02*
X388220D01*
X397872D02*
X413112D01*
X423272D02*
X435972D01*
X370440Y897041D02*
X389236D01*
X400412D02*
X411080D01*
X422256D02*
X428860D01*
X431400D02*
X435972D01*
X370948Y896533D02*
X390252D01*
X421240D02*
X428352D01*
X431908D02*
X436480D01*
X371456Y896025D02*
X391268D01*
X420224D02*
X427844D01*
X432416D02*
X436480D01*
X371964Y895517D02*
X392284D01*
X419208D02*
X427844D01*
X432416D02*
X436480D01*
X371964Y895009D02*
X393300D01*
X418192D02*
X427844D01*
X432416D02*
X436480D01*
X372472Y894501D02*
X394316D01*
X416668D02*
X427844D01*
X432416D02*
X436480D01*
X372980Y893993D02*
X395840D01*
X415144D02*
X428352D01*
X432416D02*
X436480D01*
X373488Y893485D02*
X397872D01*
X413620D02*
X428352D01*
X431908D02*
X436480D01*
X373996Y892977D02*
X400412D01*
X411080D02*
X429368D01*
X431400D02*
X435972D01*
X374504Y892469D02*
X435972D01*
X375012Y891961D02*
X435464D01*
X375520Y891453D02*
X435464D01*
X376536Y890945D02*
X434956D01*
X377044Y890437D02*
X434448D01*
X377552Y889929D02*
X433940D01*
X378060Y889421D02*
X432924D01*
X379076Y888913D02*
X432416D01*
X379584Y888405D02*
X431908D01*
X380092Y887897D02*
X430892D01*
X381108Y887389D02*
X430384D01*
X382124Y886881D02*
X429368D01*
X382632Y886373D02*
X428860D01*
X383648Y885865D02*
X427844D01*
X384664Y885357D02*
X426828D01*
X385680Y884849D02*
X425812D01*
X386696Y884341D02*
X424796D01*
X387712Y883833D02*
X423780D01*
X389236Y883325D02*
X422256D01*
X390252Y882817D02*
X421240D01*
X391776Y882309D02*
X419716D01*
X393300Y881801D02*
X417684D01*
X395332Y881293D02*
X415652D01*
X398380Y880785D02*
X413112D01*
X402444Y880277D02*
X409048D01*
X891444Y289484D02*
X898048D01*
X887380Y289992D02*
X902112D01*
X884332Y290500D02*
X904652D01*
X882300Y291008D02*
X906684D01*
X880776Y291516D02*
X908716D01*
X879252Y292024D02*
X910240D01*
X878236Y292532D02*
X911256D01*
X876712Y293040D02*
X912780D01*
X875696Y293548D02*
X913796D01*
X874680Y294056D02*
X914812D01*
X873664Y294564D02*
X915828D01*
X872648Y295072D02*
X916844D01*
X871632Y295580D02*
X917860D01*
X871124Y296088D02*
X918368D01*
X870108Y296596D02*
X919384D01*
X869092Y297104D02*
X919892D01*
X868584Y297612D02*
X920908D01*
X868076Y298120D02*
X921416D01*
X867060Y298628D02*
X921924D01*
X866552Y299136D02*
X922940D01*
X866044Y299644D02*
X923448D01*
X865536Y300152D02*
X923956D01*
X864520Y300660D02*
X924464D01*
X864012Y301168D02*
X924464D01*
X863504Y301676D02*
X924972D01*
X920400Y302184D02*
X924972D01*
X900080D02*
X918368D01*
X862996D02*
X889412D01*
X920908Y302692D02*
X925480D01*
X902620D02*
X917352D01*
X862488D02*
X886872D01*
X921416Y303200D02*
X925480D01*
X904144D02*
X917352D01*
X861980D02*
X884840D01*
X921416Y303708D02*
X925480D01*
X905668D02*
X916844D01*
X861472D02*
X883316D01*
X921416Y304216D02*
X925480D01*
X907192D02*
X916844D01*
X860964D02*
X882300D01*
X921416Y304724D02*
X925480D01*
X908208D02*
X916844D01*
X860964D02*
X881284D01*
X921416Y305232D02*
X925480D01*
X909224D02*
X916844D01*
X860456D02*
X880268D01*
X920908Y305740D02*
X925480D01*
X910240D02*
X917352D01*
X859948D02*
X879252D01*
X920400Y306248D02*
X924972D01*
X911256D02*
X917860D01*
X889412D02*
X900080D01*
X859440D02*
X878236D01*
X912272Y306756D02*
X924972D01*
X886872D02*
X902112D01*
X858932D02*
X877220D01*
X912780Y307264D02*
X924464D01*
X885348D02*
X904144D01*
X858424D02*
X876712D01*
X913796Y307772D02*
X924464D01*
X883824D02*
X905160D01*
X858424D02*
X875696D01*
X914304Y308280D02*
X923956D01*
X882808D02*
X906684D01*
X857916D02*
X875188D01*
X914812Y308788D02*
X923448D01*
X881792D02*
X907700D01*
X857408D02*
X874680D01*
X915828Y309296D02*
X922940D01*
X880776D02*
X908716D01*
X857408D02*
X873664D01*
X916336Y309804D02*
X921924D01*
X879760D02*
X909224D01*
X856900D02*
X873156D01*
X917860Y310312D02*
X920400D01*
X878744D02*
X910240D01*
X856392D02*
X872648D01*
X878236Y310820D02*
X911256D01*
X856392D02*
X872140D01*
X877728Y311328D02*
X911764D01*
X855884D02*
X871632D01*
X876712Y311836D02*
X912272D01*
X855376D02*
X871124D01*
X876204Y312344D02*
X912780D01*
X855376D02*
X870616D01*
X875696Y312852D02*
X913796D01*
X854868D02*
X870108D01*
X875188Y313360D02*
X914304D01*
X854868D02*
X869600D01*
X875188Y313868D02*
X914812D01*
X854360D02*
X869092D01*
X874680Y314376D02*
X915320D01*
X854360D02*
X869092D01*
X874680Y314884D02*
X915828D01*
X853852D02*
X868584D01*
X874172Y315392D02*
X916336D01*
X853852D02*
X868076D01*
X874172Y315900D02*
X916844D01*
X853344D02*
X867568D01*
X874172Y316408D02*
X916844D01*
X853344D02*
X867568D01*
X874172Y316916D02*
X917352D01*
X852836D02*
X867060D01*
X874172Y317424D02*
X917860D01*
X852836D02*
X866552D01*
X874172Y317932D02*
X918368D01*
X852836D02*
X866552D01*
X897540Y318440D02*
X918368D01*
X874172D02*
X891444D01*
X852328D02*
X866044D01*
X899572Y318948D02*
X918876D01*
X874680D02*
X889412D01*
X852328D02*
X866044D01*
X901096Y319456D02*
X919384D01*
X874680D02*
X888396D01*
X851820D02*
X865536D01*
X902112Y319964D02*
X919384D01*
X874680D02*
X887380D01*
X851820D02*
X865536D01*
X903128Y320472D02*
X919892D01*
X875188D02*
X886364D01*
X851820D02*
X865028D01*
X903636Y320980D02*
X919892D01*
X875696D02*
X885348D01*
X851312D02*
X865028D01*
X904652Y321488D02*
X920400D01*
X876204D02*
X884840D01*
X851312D02*
X864520D01*
X905160Y321996D02*
X920400D01*
X876712D02*
X883824D01*
X851312D02*
X864520D01*
X905668Y322504D02*
X920908D01*
X877728D02*
X883316D01*
X851312D02*
X864012D01*
X906176Y323012D02*
X920908D01*
X878744D02*
X881792D01*
X850804D02*
X864012D01*
X906684Y323520D02*
X921416D01*
X850804D02*
X864012D01*
X907192Y324028D02*
X921416D01*
X850804D02*
X863504D01*
X907700Y324536D02*
X921924D01*
X850804D02*
X863504D01*
X908208Y325044D02*
X921924D01*
X850296D02*
X863504D01*
X908208Y325552D02*
X921924D01*
X850296D02*
X862996D01*
X908716Y326060D02*
X922432D01*
X850296D02*
X862996D01*
X908716Y326568D02*
X922432D01*
X850296D02*
X862996D01*
X909224Y327076D02*
X922432D01*
X850296D02*
X862488D01*
X909732Y327584D02*
X922432D01*
X849788D02*
X862488D01*
X909732Y328092D02*
X922940D01*
X849788D02*
X862488D01*
X909732Y328600D02*
X922940D01*
X849788D02*
X896016D01*
X910240Y329108D02*
X922940D01*
X849788D02*
X897540D01*
X910240Y329616D02*
X922940D01*
X849788D02*
X898556D01*
X910240Y330124D02*
X922940D01*
X849788D02*
X899064D01*
X910748Y330632D02*
X923448D01*
X849788D02*
X899572D01*
X910748Y331140D02*
X923448D01*
X849788D02*
X900080D01*
X910748Y331648D02*
X923448D01*
X896016D02*
X900080D01*
X849788D02*
X892968D01*
X910748Y332156D02*
X923448D01*
X897032D02*
X900588D01*
X849280D02*
X892460D01*
X910748Y332664D02*
X923448D01*
X897540D02*
X900588D01*
X849280D02*
X891952D01*
X911256Y333172D02*
X923448D01*
X897540D02*
X901096D01*
X849280D02*
X891952D01*
X911256Y333680D02*
X923448D01*
X898048D02*
X901096D01*
X849280D02*
X891444D01*
X911256Y334188D02*
X923448D01*
X898048D02*
X901096D01*
X849280D02*
X891444D01*
X911256Y334696D02*
X923448D01*
X898048D02*
X901096D01*
X849280D02*
X891444D01*
X911256Y335204D02*
X923448D01*
X898048D02*
X901096D01*
X849280D02*
X891444D01*
X911256Y335712D02*
X923448D01*
X898048D02*
X901096D01*
X849280D02*
X891444D01*
X910748Y336220D02*
X923448D01*
X897540D02*
X900588D01*
X849280D02*
X891952D01*
X910748Y336728D02*
X923448D01*
X897032D02*
X900588D01*
X849280D02*
X891952D01*
X910748Y337236D02*
X923448D01*
X896524D02*
X900588D01*
X849788D02*
X892968D01*
X910748Y337744D02*
X923448D01*
X895508D02*
X900080D01*
X849788D02*
X893476D01*
X910748Y338252D02*
X923448D01*
X849788D02*
X900080D01*
X910748Y338760D02*
X922940D01*
X849788D02*
X899572D01*
X910240Y339268D02*
X922940D01*
X849788D02*
X899064D01*
X910240Y339776D02*
X922940D01*
X849788D02*
X898556D01*
X910240Y340284D02*
X922940D01*
X849788D02*
X897540D01*
X909732Y340792D02*
X922940D01*
X849788D02*
X895508D01*
X909732Y341300D02*
X922940D01*
X849788D02*
X862488D01*
X909224Y341808D02*
X922432D01*
X849788D02*
X862488D01*
X909224Y342316D02*
X922432D01*
X850296D02*
X862996D01*
X908716Y342824D02*
X922432D01*
X850296D02*
X862996D01*
X908716Y343332D02*
X921924D01*
X850296D02*
X862996D01*
X908208Y343840D02*
X921924D01*
X850296D02*
X862996D01*
X907700Y344348D02*
X921924D01*
X850296D02*
X863504D01*
X907192Y344856D02*
X921416D01*
X850804D02*
X863504D01*
X907192Y345364D02*
X921416D01*
X850804D02*
X863504D01*
X906684Y345872D02*
X921416D01*
X850804D02*
X864012D01*
X906176Y346380D02*
X920908D01*
X878236D02*
X882300D01*
X850804D02*
X864012D01*
X905668Y346888D02*
X920908D01*
X877220D02*
X883824D01*
X851312D02*
X864520D01*
X904652Y347396D02*
X920400D01*
X876204D02*
X884332D01*
X851312D02*
X864520D01*
X904144Y347904D02*
X920400D01*
X875696D02*
X884840D01*
X851312D02*
X864520D01*
X903636Y348412D02*
X919892D01*
X875696D02*
X885856D01*
X851820D02*
X865028D01*
X902620Y348920D02*
X919892D01*
X875188D02*
X886364D01*
X851820D02*
X865028D01*
X901604Y349428D02*
X919384D01*
X874680D02*
X887380D01*
X851820D02*
X865536D01*
X900588Y349936D02*
X918876D01*
X874680D02*
X888904D01*
X852328D02*
X865536D01*
X899064Y350444D02*
X918876D01*
X874680D02*
X890428D01*
X852328D02*
X866044D01*
X896524Y350952D02*
X918368D01*
X874172D02*
X892968D01*
X852328D02*
X866044D01*
X874172Y351460D02*
X917860D01*
X852836D02*
X866552D01*
X874172Y351968D02*
X917860D01*
X852836D02*
X867060D01*
X874172Y352476D02*
X917352D01*
X853344D02*
X867060D01*
X874172Y352984D02*
X916844D01*
X853344D02*
X867568D01*
X874172Y353492D02*
X916336D01*
X853344D02*
X868076D01*
X874680Y354000D02*
X915828D01*
X853852D02*
X868076D01*
X874680Y354508D02*
X915320D01*
X853852D02*
X868584D01*
X874680Y355016D02*
X914812D01*
X854360D02*
X869092D01*
X875188Y355524D02*
X914304D01*
X854360D02*
X869600D01*
X875696Y356032D02*
X913796D01*
X854868D02*
X870108D01*
X875696Y356540D02*
X913288D01*
X855376D02*
X870108D01*
X876712Y357048D02*
X912780D01*
X855376D02*
X870616D01*
X877220Y357556D02*
X912272D01*
X855884D02*
X871124D01*
X877728Y358064D02*
X911256D01*
X855884D02*
X871632D01*
X878744Y358572D02*
X910748D01*
X856392D02*
X872140D01*
X917352Y359080D02*
X921416D01*
X879252D02*
X909732D01*
X856900D02*
X872648D01*
X915828Y359588D02*
X922432D01*
X880268D02*
X909224D01*
X856900D02*
X873664D01*
X915320Y360096D02*
X922940D01*
X881284D02*
X908208D01*
X857408D02*
X874172D01*
X914812Y360604D02*
X923956D01*
X882300D02*
X907192D01*
X857916D02*
X874680D01*
X913796Y361112D02*
X923956D01*
X883316D02*
X906176D01*
X857916D02*
X875188D01*
X913288Y361620D02*
X924464D01*
X884332D02*
X904652D01*
X858424D02*
X876204D01*
X912272Y362128D02*
X924972D01*
X885856D02*
X903128D01*
X858932D02*
X876712D01*
X920400Y362636D02*
X924972D01*
X911764D02*
X918368D01*
X887888D02*
X901604D01*
X859440D02*
X877728D01*
X920908Y363144D02*
X924972D01*
X910748D02*
X917352D01*
X890428D02*
X898556D01*
X859440D02*
X878744D01*
X921416Y363652D02*
X925480D01*
X909732D02*
X917352D01*
X859948D02*
X879252D01*
X921416Y364160D02*
X925480D01*
X908716D02*
X916844D01*
X860456D02*
X880268D01*
X921416Y364668D02*
X925480D01*
X907700D02*
X916844D01*
X860964D02*
X881792D01*
X921416Y365176D02*
X925480D01*
X906684D02*
X916844D01*
X861472D02*
X882808D01*
X921416Y365684D02*
X925480D01*
X905160D02*
X916844D01*
X861980D02*
X884332D01*
X920908Y366192D02*
X925480D01*
X903636D02*
X917352D01*
X862488D02*
X885856D01*
X920400Y366700D02*
X924972D01*
X901604D02*
X917860D01*
X862996D02*
X887888D01*
X898556Y367208D02*
X924972D01*
X863504D02*
X890936D01*
X864012Y367716D02*
X924972D01*
X864520Y368224D02*
X924464D01*
X865028Y368732D02*
X923956D01*
X865536Y369240D02*
X923956D01*
X866044Y369748D02*
X923448D01*
X867060Y370256D02*
X922432D01*
X867568Y370764D02*
X921924D01*
X868076Y371272D02*
X921416D01*
X869092Y371780D02*
X920400D01*
X869600Y372288D02*
X919892D01*
X870616Y372796D02*
X918876D01*
X871124Y373304D02*
X918368D01*
X872140Y373812D02*
X917352D01*
X873156Y374320D02*
X916336D01*
X874172Y374828D02*
X915320D01*
X875188Y375336D02*
X914304D01*
X876204Y375844D02*
X913288D01*
X877220Y376352D02*
X912272D01*
X878744Y376860D02*
X910748D01*
X879760Y377368D02*
X909224D01*
X881284Y377876D02*
X907700D01*
X883316Y378384D02*
X906176D01*
X885348Y378892D02*
X903636D01*
X888396Y379400D02*
X900588D01*
D80*
X872500Y1235106D02*
X875802D01*
X870468Y1234852D02*
X877834D01*
X868944Y1234598D02*
X879104D01*
X867928Y1234344D02*
X880120D01*
X867166Y1234090D02*
X881136D01*
X866404Y1233836D02*
X881898D01*
X865896Y1233582D02*
X882406D01*
X865134Y1233328D02*
X883168D01*
X864626Y1233074D02*
X883676D01*
X864118Y1232820D02*
X884184D01*
X863610Y1232566D02*
X884692D01*
X863102Y1232312D02*
X885200D01*
X862594Y1232058D02*
X885708D01*
X862340Y1231804D02*
X885962D01*
X861832Y1231550D02*
X886470D01*
X861324Y1231296D02*
X886724D01*
X861070Y1231042D02*
X887232D01*
X860816Y1230788D02*
X887486D01*
X860308Y1230534D02*
X887740D01*
X860054Y1230280D02*
X888248D01*
X859800Y1230026D02*
X888502D01*
X859546Y1229772D02*
X888756D01*
X859038Y1229518D02*
X889010D01*
X858784Y1229264D02*
X889010D01*
X858530Y1229010D02*
X889264D01*
X886978Y1228756D02*
X889264D01*
X876818D02*
X885962D01*
X858276D02*
X871484D01*
X887232Y1228502D02*
X889518D01*
X878088D02*
X885454D01*
X858022D02*
X870214D01*
X887486Y1228248D02*
X889518D01*
X878850D02*
X885454D01*
X857768D02*
X869198D01*
X887486Y1227994D02*
X889518D01*
X879612D02*
X885200D01*
X857514D02*
X868436D01*
X887486Y1227740D02*
X889518D01*
X880374D02*
X885200D01*
X857260D02*
X867928D01*
X887486Y1227486D02*
X889518D01*
X880882D02*
X885200D01*
X857260D02*
X867420D01*
X887486Y1227232D02*
X889518D01*
X881390D02*
X885200D01*
X857006D02*
X866912D01*
X887232Y1226978D02*
X889518D01*
X881898D02*
X885454D01*
X856752D02*
X866404D01*
X886978Y1226724D02*
X889264D01*
X882406D02*
X885708D01*
X871484D02*
X876818D01*
X856498D02*
X865896D01*
X882914Y1226470D02*
X889264D01*
X870214D02*
X877834D01*
X856244D02*
X865388D01*
X883168Y1226216D02*
X889010D01*
X869452D02*
X878850D01*
X855990D02*
X865134D01*
X883676Y1225962D02*
X889010D01*
X868690D02*
X879358D01*
X855990D02*
X864626D01*
X883930Y1225708D02*
X888756D01*
X868182D02*
X880120D01*
X855736D02*
X864372D01*
X884184Y1225454D02*
X888502D01*
X867674D02*
X880628D01*
X855482D02*
X864118D01*
X884692Y1225200D02*
X888248D01*
X867166D02*
X881136D01*
X855482D02*
X863610D01*
X884946Y1224946D02*
X887740D01*
X866658D02*
X881390D01*
X855228D02*
X863356D01*
X885708Y1224692D02*
X886978D01*
X866150D02*
X881898D01*
X854974D02*
X863102D01*
X865896Y1224438D02*
X882406D01*
X854974D02*
X862848D01*
X865642Y1224184D02*
X882660D01*
X854720D02*
X862594D01*
X865134Y1223930D02*
X882914D01*
X854466D02*
X862340D01*
X864880Y1223676D02*
X883168D01*
X854466D02*
X862086D01*
X864626Y1223422D02*
X883676D01*
X854212D02*
X861832D01*
X864372Y1223168D02*
X883930D01*
X854212D02*
X861578D01*
X864372Y1222914D02*
X884184D01*
X853958D02*
X861324D01*
X864118Y1222660D02*
X884438D01*
X853958D02*
X861324D01*
X864118Y1222406D02*
X884692D01*
X853704D02*
X861070D01*
X863864Y1222152D02*
X884946D01*
X853704D02*
X860816D01*
X863864Y1221898D02*
X885200D01*
X853450D02*
X860562D01*
X863864Y1221644D02*
X885200D01*
X853450D02*
X860562D01*
X863864Y1221390D02*
X885454D01*
X853196D02*
X860308D01*
X863864Y1221136D02*
X885708D01*
X853196D02*
X860054D01*
X863864Y1220882D02*
X885962D01*
X853196D02*
X860054D01*
X875548Y1220628D02*
X885962D01*
X863864D02*
X872500D01*
X852942D02*
X859800D01*
X876564Y1220374D02*
X886216D01*
X864118D02*
X871484D01*
X852942D02*
X859800D01*
X877326Y1220120D02*
X886470D01*
X864118D02*
X870976D01*
X852688D02*
X859546D01*
X877834Y1219866D02*
X886470D01*
X864118D02*
X870468D01*
X852688D02*
X859546D01*
X878342Y1219612D02*
X886724D01*
X864372D02*
X869960D01*
X852688D02*
X859292D01*
X878596Y1219358D02*
X886724D01*
X864626D02*
X869452D01*
X852434D02*
X859292D01*
X879104Y1219104D02*
X886978D01*
X864880D02*
X869198D01*
X852434D02*
X859038D01*
X879358Y1218850D02*
X886978D01*
X865134D02*
X868690D01*
X852434D02*
X859038D01*
X879612Y1218596D02*
X887232D01*
X865642D02*
X868436D01*
X852434D02*
X858784D01*
X879866Y1218342D02*
X887232D01*
X866150D02*
X867674D01*
X852180D02*
X858784D01*
X880120Y1218088D02*
X887486D01*
X852180D02*
X858784D01*
X880374Y1217834D02*
X887486D01*
X852180D02*
X858530D01*
X880628Y1217580D02*
X887740D01*
X852180D02*
X858530D01*
X880882Y1217326D02*
X887740D01*
X851926D02*
X858530D01*
X880882Y1217072D02*
X887740D01*
X851926D02*
X858276D01*
X881136Y1216818D02*
X887994D01*
X851926D02*
X858276D01*
X881136Y1216564D02*
X887994D01*
X851926D02*
X858276D01*
X881390Y1216310D02*
X887994D01*
X851926D02*
X858022D01*
X881644Y1216056D02*
X887994D01*
X851672D02*
X858022D01*
X881644Y1215802D02*
X888248D01*
X851672D02*
X858022D01*
X881644Y1215548D02*
X888248D01*
X851672D02*
X874786D01*
X881898Y1215294D02*
X888248D01*
X851672D02*
X875548D01*
X881898Y1215040D02*
X888248D01*
X851672D02*
X876056D01*
X881898Y1214786D02*
X888248D01*
X851672D02*
X876310D01*
X882152Y1214532D02*
X888502D01*
X851672D02*
X876564D01*
X882152Y1214278D02*
X888502D01*
X851672D02*
X876818D01*
X882152Y1214024D02*
X888502D01*
X874786D02*
X876818D01*
X851672D02*
X873262D01*
X882152Y1213770D02*
X888502D01*
X875294D02*
X877072D01*
X851418D02*
X873008D01*
X882152Y1213516D02*
X888502D01*
X875548D02*
X877072D01*
X851418D02*
X872754D01*
X882406Y1213262D02*
X888502D01*
X875548D02*
X877326D01*
X851418D02*
X872754D01*
X882406Y1213008D02*
X888502D01*
X875802D02*
X877326D01*
X851418D02*
X872500D01*
X882406Y1212754D02*
X888502D01*
X875802D02*
X877326D01*
X851418D02*
X872500D01*
X882406Y1212500D02*
X888502D01*
X875802D02*
X877326D01*
X851418D02*
X872500D01*
X882406Y1212246D02*
X888502D01*
X875802D02*
X877326D01*
X851418D02*
X872500D01*
X882406Y1211992D02*
X888502D01*
X875802D02*
X877326D01*
X851418D02*
X872500D01*
X882152Y1211738D02*
X888502D01*
X875548D02*
X877072D01*
X851418D02*
X872754D01*
X882152Y1211484D02*
X888502D01*
X875294D02*
X877072D01*
X851418D02*
X872754D01*
X882152Y1211230D02*
X888502D01*
X875040D02*
X877072D01*
X851672D02*
X873262D01*
X882152Y1210976D02*
X888502D01*
X874532D02*
X876818D01*
X851672D02*
X873516D01*
X882152Y1210722D02*
X888502D01*
X851672D02*
X876818D01*
X882152Y1210468D02*
X888248D01*
X851672D02*
X876564D01*
X881898Y1210214D02*
X888248D01*
X851672D02*
X876310D01*
X881898Y1209960D02*
X888248D01*
X851672D02*
X876056D01*
X881898Y1209706D02*
X888248D01*
X851672D02*
X875548D01*
X881644Y1209452D02*
X888248D01*
X851672D02*
X874532D01*
X881644Y1209198D02*
X888248D01*
X851672D02*
X858022D01*
X881390Y1208944D02*
X887994D01*
X851672D02*
X858022D01*
X881390Y1208690D02*
X887994D01*
X851926D02*
X858276D01*
X881136Y1208436D02*
X887994D01*
X851926D02*
X858276D01*
X881136Y1208182D02*
X887740D01*
X851926D02*
X858276D01*
X880882Y1207928D02*
X887740D01*
X851926D02*
X858276D01*
X880628Y1207674D02*
X887740D01*
X851926D02*
X858530D01*
X880374Y1207420D02*
X887486D01*
X852180D02*
X858530D01*
X880374Y1207166D02*
X887486D01*
X852180D02*
X858530D01*
X880120Y1206912D02*
X887486D01*
X852180D02*
X858784D01*
X879866Y1206658D02*
X887232D01*
X865896D02*
X867928D01*
X852180D02*
X858784D01*
X879612Y1206404D02*
X887232D01*
X865388D02*
X868690D01*
X852434D02*
X859038D01*
X879104Y1206150D02*
X886978D01*
X864880D02*
X868944D01*
X852434D02*
X859038D01*
X878850Y1205896D02*
X886978D01*
X864626D02*
X869198D01*
X852434D02*
X859038D01*
X878596Y1205642D02*
X886724D01*
X864626D02*
X869706D01*
X852688D02*
X859292D01*
X878088Y1205388D02*
X886724D01*
X864372D02*
X869960D01*
X852688D02*
X859292D01*
X877580Y1205134D02*
X886470D01*
X864118D02*
X870468D01*
X852688D02*
X859546D01*
X877072Y1204880D02*
X886216D01*
X864118D02*
X871230D01*
X852942D02*
X859546D01*
X876310Y1204626D02*
X886216D01*
X864118D02*
X871992D01*
X852942D02*
X859800D01*
X875040Y1204372D02*
X885962D01*
X863864D02*
X873262D01*
X852942D02*
X859800D01*
X863864Y1204118D02*
X885708D01*
X853196D02*
X860054D01*
X863864Y1203864D02*
X885708D01*
X853196D02*
X860308D01*
X863864Y1203610D02*
X885454D01*
X853450D02*
X860308D01*
X863864Y1203356D02*
X885200D01*
X853450D02*
X860562D01*
X863864Y1203102D02*
X884946D01*
X853450D02*
X860816D01*
X864118Y1202848D02*
X884692D01*
X853704D02*
X860816D01*
X864118Y1202594D02*
X884438D01*
X853704D02*
X861070D01*
X864118Y1202340D02*
X884184D01*
X853958D02*
X861324D01*
X864372Y1202086D02*
X883930D01*
X853958D02*
X861578D01*
X864626Y1201832D02*
X883676D01*
X854212D02*
X861832D01*
X864626Y1201578D02*
X883422D01*
X854466D02*
X861832D01*
X865134Y1201324D02*
X883168D01*
X854466D02*
X862086D01*
X865388Y1201070D02*
X882914D01*
X854720D02*
X862340D01*
X865642Y1200816D02*
X882406D01*
X854720D02*
X862594D01*
X866150Y1200562D02*
X882152D01*
X854974D02*
X862848D01*
X885454Y1200308D02*
X887486D01*
X866404D02*
X881644D01*
X855228D02*
X863102D01*
X884692Y1200054D02*
X887994D01*
X866912D02*
X881390D01*
X855228D02*
X863610D01*
X884438Y1199800D02*
X888248D01*
X867420D02*
X880882D01*
X855482D02*
X863864D01*
X884184Y1199546D02*
X888756D01*
X867928D02*
X880374D01*
X855736D02*
X864118D01*
X883676Y1199292D02*
X888756D01*
X868436D02*
X879866D01*
X855736D02*
X864372D01*
X883422Y1199038D02*
X889010D01*
X868944D02*
X879104D01*
X855990D02*
X864880D01*
X882914Y1198784D02*
X889264D01*
X869706D02*
X878342D01*
X856244D02*
X865134D01*
X886978Y1198530D02*
X889264D01*
X882660D02*
X885962D01*
X870722D02*
X877580D01*
X856498D02*
X865642D01*
X887232Y1198276D02*
X889264D01*
X882152D02*
X885454D01*
X871992D02*
X876056D01*
X856498D02*
X866150D01*
X887486Y1198022D02*
X889518D01*
X881644D02*
X885454D01*
X856752D02*
X866404D01*
X887486Y1197768D02*
X889518D01*
X881136D02*
X885200D01*
X857006D02*
X866912D01*
X887486Y1197514D02*
X889518D01*
X880628D02*
X885200D01*
X857260D02*
X867674D01*
X887486Y1197260D02*
X889518D01*
X880120D02*
X885200D01*
X857514D02*
X868182D01*
X887486Y1197006D02*
X889518D01*
X879358D02*
X885200D01*
X857768D02*
X868944D01*
X887232Y1196752D02*
X889518D01*
X878596D02*
X885454D01*
X858022D02*
X869706D01*
X886978Y1196498D02*
X889264D01*
X877580D02*
X885708D01*
X858276D02*
X870722D01*
X876056Y1196244D02*
X889264D01*
X858530D02*
X872246D01*
X858784Y1195990D02*
X889264D01*
X859038Y1195736D02*
X889010D01*
X859292Y1195482D02*
X888756D01*
X859546Y1195228D02*
X888756D01*
X859800Y1194974D02*
X888502D01*
X860308Y1194720D02*
X887994D01*
X860562Y1194466D02*
X887740D01*
X860816Y1194212D02*
X887486D01*
X861324Y1193958D02*
X886978D01*
X861578Y1193704D02*
X886724D01*
X862086Y1193450D02*
X886216D01*
X862340Y1193196D02*
X885962D01*
X862848Y1192942D02*
X885454D01*
X863356Y1192688D02*
X884946D01*
X863864Y1192434D02*
X884438D01*
X864372Y1192180D02*
X883930D01*
X864880Y1191926D02*
X883422D01*
X865388Y1191672D02*
X882914D01*
X866150Y1191418D02*
X882152D01*
X866658Y1191164D02*
X881390D01*
X867420Y1190910D02*
X880628D01*
X868436Y1190656D02*
X879866D01*
X869452Y1190402D02*
X878596D01*
X870976Y1190148D02*
X877072D01*
X1429238Y825082D02*
X1432540D01*
X1427206Y824828D02*
X1434572D01*
X1425682Y824574D02*
X1435842D01*
X1424666Y824320D02*
X1436858D01*
X1423904Y824066D02*
X1437874D01*
X1423142Y823812D02*
X1438636D01*
X1422634Y823558D02*
X1439144D01*
X1421872Y823304D02*
X1439906D01*
X1421364Y823050D02*
X1440414D01*
X1420856Y822796D02*
X1440922D01*
X1420348Y822542D02*
X1441430D01*
X1419840Y822288D02*
X1441938D01*
X1419332Y822034D02*
X1442446D01*
X1419078Y821780D02*
X1442700D01*
X1418570Y821526D02*
X1443208D01*
X1418062Y821272D02*
X1443462D01*
X1417808Y821018D02*
X1443970D01*
X1417554Y820764D02*
X1444224D01*
X1417046Y820510D02*
X1444478D01*
X1416792Y820256D02*
X1444986D01*
X1416538Y820002D02*
X1445240D01*
X1416284Y819748D02*
X1445494D01*
X1415776Y819494D02*
X1445748D01*
X1415522Y819240D02*
X1445748D01*
X1415268Y818986D02*
X1446002D01*
X1443716Y818732D02*
X1446002D01*
X1433556D02*
X1442700D01*
X1415014D02*
X1428222D01*
X1443970Y818478D02*
X1446256D01*
X1434826D02*
X1442192D01*
X1414760D02*
X1426952D01*
X1444224Y818224D02*
X1446256D01*
X1435588D02*
X1442192D01*
X1414506D02*
X1425936D01*
X1444224Y817970D02*
X1446256D01*
X1436350D02*
X1441938D01*
X1414252D02*
X1425174D01*
X1444224Y817716D02*
X1446256D01*
X1437112D02*
X1441938D01*
X1413998D02*
X1424666D01*
X1444224Y817462D02*
X1446256D01*
X1437620D02*
X1441938D01*
X1413998D02*
X1424158D01*
X1444224Y817208D02*
X1446256D01*
X1438128D02*
X1441938D01*
X1413744D02*
X1423650D01*
X1443970Y816954D02*
X1446256D01*
X1438636D02*
X1442192D01*
X1413490D02*
X1423142D01*
X1443716Y816700D02*
X1446002D01*
X1439144D02*
X1442446D01*
X1428222D02*
X1433556D01*
X1413236D02*
X1422634D01*
X1439652Y816446D02*
X1446002D01*
X1426952D02*
X1434572D01*
X1412982D02*
X1422126D01*
X1439906Y816192D02*
X1445748D01*
X1426190D02*
X1435588D01*
X1412728D02*
X1421872D01*
X1440414Y815938D02*
X1445748D01*
X1425428D02*
X1436096D01*
X1412728D02*
X1421364D01*
X1440668Y815684D02*
X1445494D01*
X1424920D02*
X1436858D01*
X1412474D02*
X1421110D01*
X1440922Y815430D02*
X1445240D01*
X1424412D02*
X1437366D01*
X1412220D02*
X1420856D01*
X1441430Y815176D02*
X1444986D01*
X1423904D02*
X1437874D01*
X1412220D02*
X1420348D01*
X1441684Y814922D02*
X1444478D01*
X1423396D02*
X1438128D01*
X1411966D02*
X1420094D01*
X1442446Y814668D02*
X1443716D01*
X1422888D02*
X1438636D01*
X1411712D02*
X1419840D01*
X1422634Y814414D02*
X1439144D01*
X1411712D02*
X1419586D01*
X1422380Y814160D02*
X1439398D01*
X1411458D02*
X1419332D01*
X1421872Y813906D02*
X1439652D01*
X1411204D02*
X1419078D01*
X1421618Y813652D02*
X1439906D01*
X1411204D02*
X1418824D01*
X1421364Y813398D02*
X1440414D01*
X1410950D02*
X1418570D01*
X1421110Y813144D02*
X1440668D01*
X1410950D02*
X1418316D01*
X1421110Y812890D02*
X1440922D01*
X1410696D02*
X1418062D01*
X1420856Y812636D02*
X1441176D01*
X1410696D02*
X1418062D01*
X1420856Y812382D02*
X1441430D01*
X1410442D02*
X1417808D01*
X1420602Y812128D02*
X1441684D01*
X1410442D02*
X1417554D01*
X1420602Y811874D02*
X1441938D01*
X1410188D02*
X1417300D01*
X1420602Y811620D02*
X1441938D01*
X1410188D02*
X1417300D01*
X1420602Y811366D02*
X1442192D01*
X1409934D02*
X1417046D01*
X1420602Y811112D02*
X1442446D01*
X1409934D02*
X1416792D01*
X1420602Y810858D02*
X1442700D01*
X1409934D02*
X1416792D01*
X1432286Y810604D02*
X1442700D01*
X1420602D02*
X1429238D01*
X1409680D02*
X1416538D01*
X1433302Y810350D02*
X1442954D01*
X1420856D02*
X1428222D01*
X1409680D02*
X1416538D01*
X1434064Y810096D02*
X1443208D01*
X1420856D02*
X1427714D01*
X1409426D02*
X1416284D01*
X1434572Y809842D02*
X1443208D01*
X1420856D02*
X1427206D01*
X1409426D02*
X1416284D01*
X1435080Y809588D02*
X1443462D01*
X1421110D02*
X1426698D01*
X1409426D02*
X1416030D01*
X1435334Y809334D02*
X1443462D01*
X1421364D02*
X1426190D01*
X1409172D02*
X1416030D01*
X1435842Y809080D02*
X1443716D01*
X1421618D02*
X1425936D01*
X1409172D02*
X1415776D01*
X1436096Y808826D02*
X1443716D01*
X1421872D02*
X1425428D01*
X1409172D02*
X1415776D01*
X1436350Y808572D02*
X1443970D01*
X1422380D02*
X1425174D01*
X1409172D02*
X1415522D01*
X1436604Y808318D02*
X1443970D01*
X1422888D02*
X1424412D01*
X1408918D02*
X1415522D01*
X1436858Y808064D02*
X1444224D01*
X1408918D02*
X1415522D01*
X1437112Y807810D02*
X1444224D01*
X1408918D02*
X1415268D01*
X1437366Y807556D02*
X1444478D01*
X1408918D02*
X1415268D01*
X1437620Y807302D02*
X1444478D01*
X1408664D02*
X1415268D01*
X1437620Y807048D02*
X1444478D01*
X1408664D02*
X1415014D01*
X1437874Y806794D02*
X1444732D01*
X1408664D02*
X1415014D01*
X1437874Y806540D02*
X1444732D01*
X1408664D02*
X1415014D01*
X1438128Y806286D02*
X1444732D01*
X1408664D02*
X1414760D01*
X1438382Y806032D02*
X1444732D01*
X1408410D02*
X1414760D01*
X1438382Y805778D02*
X1444986D01*
X1408410D02*
X1414760D01*
X1438382Y805524D02*
X1444986D01*
X1408410D02*
X1431524D01*
X1438636Y805270D02*
X1444986D01*
X1408410D02*
X1432286D01*
X1438636Y805016D02*
X1444986D01*
X1408410D02*
X1432794D01*
X1438636Y804762D02*
X1444986D01*
X1408410D02*
X1433048D01*
X1438890Y804508D02*
X1445240D01*
X1408410D02*
X1433302D01*
X1438890Y804254D02*
X1445240D01*
X1408410D02*
X1433556D01*
X1438890Y804000D02*
X1445240D01*
X1431524D02*
X1433556D01*
X1408410D02*
X1430000D01*
X1438890Y803746D02*
X1445240D01*
X1432032D02*
X1433810D01*
X1408156D02*
X1429746D01*
X1438890Y803492D02*
X1445240D01*
X1432286D02*
X1433810D01*
X1408156D02*
X1429492D01*
X1439144Y803238D02*
X1445240D01*
X1432286D02*
X1434064D01*
X1408156D02*
X1429492D01*
X1439144Y802984D02*
X1445240D01*
X1432540D02*
X1434064D01*
X1408156D02*
X1429238D01*
X1439144Y802730D02*
X1445240D01*
X1432540D02*
X1434064D01*
X1408156D02*
X1429238D01*
X1439144Y802476D02*
X1445240D01*
X1432540D02*
X1434064D01*
X1408156D02*
X1429238D01*
X1439144Y802222D02*
X1445240D01*
X1432540D02*
X1434064D01*
X1408156D02*
X1429238D01*
X1439144Y801968D02*
X1445240D01*
X1432540D02*
X1434064D01*
X1408156D02*
X1429238D01*
X1438890Y801714D02*
X1445240D01*
X1432286D02*
X1433810D01*
X1408156D02*
X1429492D01*
X1438890Y801460D02*
X1445240D01*
X1432032D02*
X1433810D01*
X1408156D02*
X1429492D01*
X1438890Y801206D02*
X1445240D01*
X1431778D02*
X1433810D01*
X1408410D02*
X1430000D01*
X1438890Y800952D02*
X1445240D01*
X1431270D02*
X1433556D01*
X1408410D02*
X1430254D01*
X1438890Y800698D02*
X1445240D01*
X1408410D02*
X1433556D01*
X1438890Y800444D02*
X1444986D01*
X1408410D02*
X1433302D01*
X1438636Y800190D02*
X1444986D01*
X1408410D02*
X1433048D01*
X1438636Y799936D02*
X1444986D01*
X1408410D02*
X1432794D01*
X1438636Y799682D02*
X1444986D01*
X1408410D02*
X1432286D01*
X1438382Y799428D02*
X1444986D01*
X1408410D02*
X1431270D01*
X1438382Y799174D02*
X1444986D01*
X1408410D02*
X1414760D01*
X1438128Y798920D02*
X1444732D01*
X1408410D02*
X1414760D01*
X1438128Y798666D02*
X1444732D01*
X1408664D02*
X1415014D01*
X1437874Y798412D02*
X1444732D01*
X1408664D02*
X1415014D01*
X1437874Y798158D02*
X1444478D01*
X1408664D02*
X1415014D01*
X1437620Y797904D02*
X1444478D01*
X1408664D02*
X1415014D01*
X1437366Y797650D02*
X1444478D01*
X1408664D02*
X1415268D01*
X1437112Y797396D02*
X1444224D01*
X1408918D02*
X1415268D01*
X1437112Y797142D02*
X1444224D01*
X1408918D02*
X1415268D01*
X1436858Y796888D02*
X1444224D01*
X1408918D02*
X1415522D01*
X1436604Y796634D02*
X1443970D01*
X1422634D02*
X1424666D01*
X1408918D02*
X1415522D01*
X1436350Y796380D02*
X1443970D01*
X1422126D02*
X1425428D01*
X1409172D02*
X1415776D01*
X1435842Y796126D02*
X1443716D01*
X1421618D02*
X1425682D01*
X1409172D02*
X1415776D01*
X1435588Y795872D02*
X1443716D01*
X1421364D02*
X1425936D01*
X1409172D02*
X1415776D01*
X1435334Y795618D02*
X1443462D01*
X1421364D02*
X1426444D01*
X1409426D02*
X1416030D01*
X1434826Y795364D02*
X1443462D01*
X1421110D02*
X1426698D01*
X1409426D02*
X1416030D01*
X1434318Y795110D02*
X1443208D01*
X1420856D02*
X1427206D01*
X1409426D02*
X1416284D01*
X1433810Y794856D02*
X1442954D01*
X1420856D02*
X1427968D01*
X1409680D02*
X1416284D01*
X1433048Y794602D02*
X1442954D01*
X1420856D02*
X1428730D01*
X1409680D02*
X1416538D01*
X1431778Y794348D02*
X1442700D01*
X1420602D02*
X1430000D01*
X1409680D02*
X1416538D01*
X1420602Y794094D02*
X1442446D01*
X1409934D02*
X1416792D01*
X1420602Y793840D02*
X1442446D01*
X1409934D02*
X1417046D01*
X1420602Y793586D02*
X1442192D01*
X1410188D02*
X1417046D01*
X1420602Y793332D02*
X1441938D01*
X1410188D02*
X1417300D01*
X1420602Y793078D02*
X1441684D01*
X1410188D02*
X1417554D01*
X1420856Y792824D02*
X1441430D01*
X1410442D02*
X1417554D01*
X1420856Y792570D02*
X1441176D01*
X1410442D02*
X1417808D01*
X1420856Y792316D02*
X1440922D01*
X1410696D02*
X1418062D01*
X1421110Y792062D02*
X1440668D01*
X1410696D02*
X1418316D01*
X1421364Y791808D02*
X1440414D01*
X1410950D02*
X1418570D01*
X1421364Y791554D02*
X1440160D01*
X1411204D02*
X1418570D01*
X1421872Y791300D02*
X1439906D01*
X1411204D02*
X1418824D01*
X1422126Y791046D02*
X1439652D01*
X1411458D02*
X1419078D01*
X1422380Y790792D02*
X1439144D01*
X1411458D02*
X1419332D01*
X1422888Y790538D02*
X1438890D01*
X1411712D02*
X1419586D01*
X1442192Y790284D02*
X1444224D01*
X1423142D02*
X1438382D01*
X1411966D02*
X1419840D01*
X1441430Y790030D02*
X1444732D01*
X1423650D02*
X1438128D01*
X1411966D02*
X1420348D01*
X1441176Y789776D02*
X1444986D01*
X1424158D02*
X1437620D01*
X1412220D02*
X1420602D01*
X1440922Y789522D02*
X1445494D01*
X1424666D02*
X1437112D01*
X1412474D02*
X1420856D01*
X1440414Y789268D02*
X1445494D01*
X1425174D02*
X1436604D01*
X1412474D02*
X1421110D01*
X1440160Y789014D02*
X1445748D01*
X1425682D02*
X1435842D01*
X1412728D02*
X1421618D01*
X1439652Y788760D02*
X1446002D01*
X1426444D02*
X1435080D01*
X1412982D02*
X1421872D01*
X1443716Y788506D02*
X1446002D01*
X1439398D02*
X1442700D01*
X1427460D02*
X1434318D01*
X1413236D02*
X1422380D01*
X1443970Y788252D02*
X1446002D01*
X1438890D02*
X1442192D01*
X1428730D02*
X1432794D01*
X1413236D02*
X1422888D01*
X1444224Y787998D02*
X1446256D01*
X1438382D02*
X1442192D01*
X1413490D02*
X1423142D01*
X1444224Y787744D02*
X1446256D01*
X1437874D02*
X1441938D01*
X1413744D02*
X1423650D01*
X1444224Y787490D02*
X1446256D01*
X1437366D02*
X1441938D01*
X1413998D02*
X1424412D01*
X1444224Y787236D02*
X1446256D01*
X1436858D02*
X1441938D01*
X1414252D02*
X1424920D01*
X1444224Y786982D02*
X1446256D01*
X1436096D02*
X1441938D01*
X1414506D02*
X1425682D01*
X1443970Y786728D02*
X1446256D01*
X1435334D02*
X1442192D01*
X1414760D02*
X1426444D01*
X1443716Y786474D02*
X1446002D01*
X1434318D02*
X1442446D01*
X1415014D02*
X1427460D01*
X1432794Y786220D02*
X1446002D01*
X1415268D02*
X1428984D01*
X1415522Y785966D02*
X1446002D01*
X1415776Y785712D02*
X1445748D01*
X1416030Y785458D02*
X1445494D01*
X1416284Y785204D02*
X1445494D01*
X1416538Y784950D02*
X1445240D01*
X1417046Y784696D02*
X1444732D01*
X1417300Y784442D02*
X1444478D01*
X1417554Y784188D02*
X1444224D01*
X1418062Y783934D02*
X1443716D01*
X1418316Y783680D02*
X1443462D01*
X1418824Y783426D02*
X1442954D01*
X1419078Y783172D02*
X1442700D01*
X1419586Y782918D02*
X1442192D01*
X1420094Y782664D02*
X1441684D01*
X1420602Y782410D02*
X1441176D01*
X1421110Y782156D02*
X1440668D01*
X1421618Y781902D02*
X1440160D01*
X1422126Y781648D02*
X1439652D01*
X1422888Y781394D02*
X1438890D01*
X1423396Y781140D02*
X1438128D01*
X1424158Y780886D02*
X1437366D01*
X1425174Y780632D02*
X1436604D01*
X1426190Y780378D02*
X1435334D01*
X1427714Y780124D02*
X1433810D01*
X1212542Y753124D02*
X1215844D01*
X1210510Y752870D02*
X1217876D01*
X1208986Y752616D02*
X1219146D01*
X1207970Y752362D02*
X1220162D01*
X1207208Y752108D02*
X1221178D01*
X1206446Y751854D02*
X1221940D01*
X1205938Y751600D02*
X1222448D01*
X1205176Y751346D02*
X1223210D01*
X1204668Y751092D02*
X1223718D01*
X1204160Y750838D02*
X1224226D01*
X1203652Y750584D02*
X1224734D01*
X1203144Y750330D02*
X1225242D01*
X1202636Y750076D02*
X1225750D01*
X1202382Y749822D02*
X1226004D01*
X1201874Y749568D02*
X1226512D01*
X1201366Y749314D02*
X1226766D01*
X1201112Y749060D02*
X1227274D01*
X1200858Y748806D02*
X1227528D01*
X1200350Y748552D02*
X1227782D01*
X1200096Y748298D02*
X1228290D01*
X1199842Y748044D02*
X1228544D01*
X1199588Y747790D02*
X1228798D01*
X1199080Y747536D02*
X1229052D01*
X1198826Y747282D02*
X1229052D01*
X1198572Y747028D02*
X1229306D01*
X1227020Y746774D02*
X1229306D01*
X1216860D02*
X1226004D01*
X1198318D02*
X1211526D01*
X1227274Y746520D02*
X1229560D01*
X1218130D02*
X1225496D01*
X1198064D02*
X1210256D01*
X1227528Y746266D02*
X1229560D01*
X1218892D02*
X1225496D01*
X1197810D02*
X1209240D01*
X1227528Y746012D02*
X1229560D01*
X1219654D02*
X1225242D01*
X1197556D02*
X1208478D01*
X1227528Y745758D02*
X1229560D01*
X1220416D02*
X1225242D01*
X1197302D02*
X1207970D01*
X1227528Y745504D02*
X1229560D01*
X1220924D02*
X1225242D01*
X1197302D02*
X1207462D01*
X1227528Y745250D02*
X1229560D01*
X1221432D02*
X1225242D01*
X1197048D02*
X1206954D01*
X1227274Y744996D02*
X1229560D01*
X1221940D02*
X1225496D01*
X1196794D02*
X1206446D01*
X1227020Y744742D02*
X1229306D01*
X1222448D02*
X1225750D01*
X1211526D02*
X1216860D01*
X1196540D02*
X1205938D01*
X1222956Y744488D02*
X1229306D01*
X1210256D02*
X1217876D01*
X1196286D02*
X1205430D01*
X1223210Y744234D02*
X1229052D01*
X1209494D02*
X1218892D01*
X1196032D02*
X1205176D01*
X1223718Y743980D02*
X1229052D01*
X1208732D02*
X1219400D01*
X1196032D02*
X1204668D01*
X1223972Y743726D02*
X1228798D01*
X1208224D02*
X1220162D01*
X1195778D02*
X1204414D01*
X1224226Y743472D02*
X1228544D01*
X1207716D02*
X1220670D01*
X1195524D02*
X1204160D01*
X1224734Y743218D02*
X1228290D01*
X1207208D02*
X1221178D01*
X1195524D02*
X1203652D01*
X1224988Y742964D02*
X1227782D01*
X1206700D02*
X1221432D01*
X1195270D02*
X1203398D01*
X1225750Y742710D02*
X1227020D01*
X1206192D02*
X1221940D01*
X1195016D02*
X1203144D01*
X1205938Y742456D02*
X1222448D01*
X1195016D02*
X1202890D01*
X1205684Y742202D02*
X1222702D01*
X1194762D02*
X1202636D01*
X1205176Y741948D02*
X1222956D01*
X1194508D02*
X1202382D01*
X1204922Y741694D02*
X1223210D01*
X1194508D02*
X1202128D01*
X1204668Y741440D02*
X1223718D01*
X1194254D02*
X1201874D01*
X1204414Y741186D02*
X1223972D01*
X1194254D02*
X1201620D01*
X1204414Y740932D02*
X1224226D01*
X1194000D02*
X1201366D01*
X1204160Y740678D02*
X1224480D01*
X1194000D02*
X1201366D01*
X1204160Y740424D02*
X1224734D01*
X1193746D02*
X1201112D01*
X1203906Y740170D02*
X1224988D01*
X1193746D02*
X1200858D01*
X1203906Y739916D02*
X1225242D01*
X1193492D02*
X1200604D01*
X1203906Y739662D02*
X1225242D01*
X1193492D02*
X1200604D01*
X1203906Y739408D02*
X1225496D01*
X1193238D02*
X1200350D01*
X1203906Y739154D02*
X1225750D01*
X1193238D02*
X1200096D01*
X1203906Y738900D02*
X1226004D01*
X1193238D02*
X1200096D01*
X1215590Y738646D02*
X1226004D01*
X1203906D02*
X1212542D01*
X1192984D02*
X1199842D01*
X1216606Y738392D02*
X1226258D01*
X1204160D02*
X1211526D01*
X1192984D02*
X1199842D01*
X1217368Y738138D02*
X1226512D01*
X1204160D02*
X1211018D01*
X1192730D02*
X1199588D01*
X1217876Y737884D02*
X1226512D01*
X1204160D02*
X1210510D01*
X1192730D02*
X1199588D01*
X1218384Y737630D02*
X1226766D01*
X1204414D02*
X1210002D01*
X1192730D02*
X1199334D01*
X1218638Y737376D02*
X1226766D01*
X1204668D02*
X1209494D01*
X1192476D02*
X1199334D01*
X1219146Y737122D02*
X1227020D01*
X1204922D02*
X1209240D01*
X1192476D02*
X1199080D01*
X1219400Y736868D02*
X1227020D01*
X1205176D02*
X1208732D01*
X1192476D02*
X1199080D01*
X1219654Y736614D02*
X1227274D01*
X1205684D02*
X1208478D01*
X1192476D02*
X1198826D01*
X1219908Y736360D02*
X1227274D01*
X1206192D02*
X1207716D01*
X1192222D02*
X1198826D01*
X1220162Y736106D02*
X1227528D01*
X1192222D02*
X1198826D01*
X1220416Y735852D02*
X1227528D01*
X1192222D02*
X1198572D01*
X1220670Y735598D02*
X1227782D01*
X1192222D02*
X1198572D01*
X1220924Y735344D02*
X1227782D01*
X1191968D02*
X1198572D01*
X1220924Y735090D02*
X1227782D01*
X1191968D02*
X1198318D01*
X1221178Y734836D02*
X1228036D01*
X1191968D02*
X1198318D01*
X1221178Y734582D02*
X1228036D01*
X1191968D02*
X1198318D01*
X1221432Y734328D02*
X1228036D01*
X1191968D02*
X1198064D01*
X1221686Y734074D02*
X1228036D01*
X1191714D02*
X1198064D01*
X1221686Y733820D02*
X1228290D01*
X1191714D02*
X1198064D01*
X1221686Y733566D02*
X1228290D01*
X1191714D02*
X1214828D01*
X1221940Y733312D02*
X1228290D01*
X1191714D02*
X1215590D01*
X1221940Y733058D02*
X1228290D01*
X1191714D02*
X1216098D01*
X1221940Y732804D02*
X1228290D01*
X1191714D02*
X1216352D01*
X1222194Y732550D02*
X1228544D01*
X1191714D02*
X1216606D01*
X1222194Y732296D02*
X1228544D01*
X1191714D02*
X1216860D01*
X1222194Y732042D02*
X1228544D01*
X1214828D02*
X1216860D01*
X1191714D02*
X1213304D01*
X1222194Y731788D02*
X1228544D01*
X1215336D02*
X1217114D01*
X1191460D02*
X1213050D01*
X1222194Y731534D02*
X1228544D01*
X1215590D02*
X1217114D01*
X1191460D02*
X1212796D01*
X1222448Y731280D02*
X1228544D01*
X1215590D02*
X1217368D01*
X1191460D02*
X1212796D01*
X1222448Y731026D02*
X1228544D01*
X1215844D02*
X1217368D01*
X1191460D02*
X1212542D01*
X1222448Y730772D02*
X1228544D01*
X1215844D02*
X1217368D01*
X1191460D02*
X1212542D01*
X1222448Y730518D02*
X1228544D01*
X1215844D02*
X1217368D01*
X1191460D02*
X1212542D01*
X1222448Y730264D02*
X1228544D01*
X1215844D02*
X1217368D01*
X1191460D02*
X1212542D01*
X1222448Y730010D02*
X1228544D01*
X1215844D02*
X1217368D01*
X1191460D02*
X1212542D01*
X1222194Y729756D02*
X1228544D01*
X1215590D02*
X1217114D01*
X1191460D02*
X1212796D01*
X1222194Y729502D02*
X1228544D01*
X1215336D02*
X1217114D01*
X1191460D02*
X1212796D01*
X1222194Y729248D02*
X1228544D01*
X1215082D02*
X1217114D01*
X1191714D02*
X1213304D01*
X1222194Y728994D02*
X1228544D01*
X1214574D02*
X1216860D01*
X1191714D02*
X1213558D01*
X1222194Y728740D02*
X1228544D01*
X1191714D02*
X1216860D01*
X1222194Y728486D02*
X1228290D01*
X1191714D02*
X1216606D01*
X1221940Y728232D02*
X1228290D01*
X1191714D02*
X1216352D01*
X1221940Y727978D02*
X1228290D01*
X1191714D02*
X1216098D01*
X1221940Y727724D02*
X1228290D01*
X1191714D02*
X1215590D01*
X1221686Y727470D02*
X1228290D01*
X1191714D02*
X1214574D01*
X1221686Y727216D02*
X1228290D01*
X1191714D02*
X1198064D01*
X1221432Y726962D02*
X1228036D01*
X1191714D02*
X1198064D01*
X1221432Y726708D02*
X1228036D01*
X1191968D02*
X1198318D01*
X1221178Y726454D02*
X1228036D01*
X1191968D02*
X1198318D01*
X1221178Y726200D02*
X1227782D01*
X1191968D02*
X1198318D01*
X1220924Y725946D02*
X1227782D01*
X1191968D02*
X1198318D01*
X1220670Y725692D02*
X1227782D01*
X1191968D02*
X1198572D01*
X1220416Y725438D02*
X1227528D01*
X1192222D02*
X1198572D01*
X1220416Y725184D02*
X1227528D01*
X1192222D02*
X1198572D01*
X1220162Y724930D02*
X1227528D01*
X1192222D02*
X1198826D01*
X1219908Y724676D02*
X1227274D01*
X1205938D02*
X1207970D01*
X1192222D02*
X1198826D01*
X1219654Y724422D02*
X1227274D01*
X1205430D02*
X1208732D01*
X1192476D02*
X1199080D01*
X1219146Y724168D02*
X1227020D01*
X1204922D02*
X1208986D01*
X1192476D02*
X1199080D01*
X1218892Y723914D02*
X1227020D01*
X1204668D02*
X1209240D01*
X1192476D02*
X1199080D01*
X1218638Y723660D02*
X1226766D01*
X1204668D02*
X1209748D01*
X1192730D02*
X1199334D01*
X1218130Y723406D02*
X1226766D01*
X1204414D02*
X1210002D01*
X1192730D02*
X1199334D01*
X1217622Y723152D02*
X1226512D01*
X1204160D02*
X1210510D01*
X1192730D02*
X1199588D01*
X1217114Y722898D02*
X1226258D01*
X1204160D02*
X1211272D01*
X1192984D02*
X1199588D01*
X1216352Y722644D02*
X1226258D01*
X1204160D02*
X1212034D01*
X1192984D02*
X1199842D01*
X1215082Y722390D02*
X1226004D01*
X1203906D02*
X1213304D01*
X1192984D02*
X1199842D01*
X1203906Y722136D02*
X1225750D01*
X1193238D02*
X1200096D01*
X1203906Y721882D02*
X1225750D01*
X1193238D02*
X1200350D01*
X1203906Y721628D02*
X1225496D01*
X1193492D02*
X1200350D01*
X1203906Y721374D02*
X1225242D01*
X1193492D02*
X1200604D01*
X1203906Y721120D02*
X1224988D01*
X1193492D02*
X1200858D01*
X1204160Y720866D02*
X1224734D01*
X1193746D02*
X1200858D01*
X1204160Y720612D02*
X1224480D01*
X1193746D02*
X1201112D01*
X1204160Y720358D02*
X1224226D01*
X1194000D02*
X1201366D01*
X1204414Y720104D02*
X1223972D01*
X1194000D02*
X1201620D01*
X1204668Y719850D02*
X1223718D01*
X1194254D02*
X1201874D01*
X1204668Y719596D02*
X1223464D01*
X1194508D02*
X1201874D01*
X1205176Y719342D02*
X1223210D01*
X1194508D02*
X1202128D01*
X1205430Y719088D02*
X1222956D01*
X1194762D02*
X1202382D01*
X1205684Y718834D02*
X1222448D01*
X1194762D02*
X1202636D01*
X1206192Y718580D02*
X1222194D01*
X1195016D02*
X1202890D01*
X1225496Y718326D02*
X1227528D01*
X1206446D02*
X1221686D01*
X1195270D02*
X1203144D01*
X1224734Y718072D02*
X1228036D01*
X1206954D02*
X1221432D01*
X1195270D02*
X1203652D01*
X1224480Y717818D02*
X1228290D01*
X1207462D02*
X1220924D01*
X1195524D02*
X1203906D01*
X1224226Y717564D02*
X1228798D01*
X1207970D02*
X1220416D01*
X1195778D02*
X1204160D01*
X1223718Y717310D02*
X1228798D01*
X1208478D02*
X1219908D01*
X1195778D02*
X1204414D01*
X1223464Y717056D02*
X1229052D01*
X1208986D02*
X1219146D01*
X1196032D02*
X1204922D01*
X1222956Y716802D02*
X1229306D01*
X1209748D02*
X1218384D01*
X1196286D02*
X1205176D01*
X1227020Y716548D02*
X1229306D01*
X1222702D02*
X1226004D01*
X1210764D02*
X1217622D01*
X1196540D02*
X1205684D01*
X1227274Y716294D02*
X1229306D01*
X1222194D02*
X1225496D01*
X1212034D02*
X1216098D01*
X1196540D02*
X1206192D01*
X1227528Y716040D02*
X1229560D01*
X1221686D02*
X1225496D01*
X1196794D02*
X1206446D01*
X1227528Y715786D02*
X1229560D01*
X1221178D02*
X1225242D01*
X1197048D02*
X1206954D01*
X1227528Y715532D02*
X1229560D01*
X1220670D02*
X1225242D01*
X1197302D02*
X1207716D01*
X1227528Y715278D02*
X1229560D01*
X1220162D02*
X1225242D01*
X1197556D02*
X1208224D01*
X1227528Y715024D02*
X1229560D01*
X1219400D02*
X1225242D01*
X1197810D02*
X1208986D01*
X1227274Y714770D02*
X1229560D01*
X1218638D02*
X1225496D01*
X1198064D02*
X1209748D01*
X1227020Y714516D02*
X1229306D01*
X1217622D02*
X1225750D01*
X1198318D02*
X1210764D01*
X1216098Y714262D02*
X1229306D01*
X1198572D02*
X1212288D01*
X1198826Y714008D02*
X1229306D01*
X1199080Y713754D02*
X1229052D01*
X1199334Y713500D02*
X1228798D01*
X1199588Y713246D02*
X1228798D01*
X1199842Y712992D02*
X1228544D01*
X1200350Y712738D02*
X1228036D01*
X1200604Y712484D02*
X1227782D01*
X1200858Y712230D02*
X1227528D01*
X1201366Y711976D02*
X1227020D01*
X1201620Y711722D02*
X1226766D01*
X1202128Y711468D02*
X1226258D01*
X1202382Y711214D02*
X1226004D01*
X1202890Y710960D02*
X1225496D01*
X1203398Y710706D02*
X1224988D01*
X1203906Y710452D02*
X1224480D01*
X1204414Y710198D02*
X1223972D01*
X1204922Y709944D02*
X1223464D01*
X1205430Y709690D02*
X1222956D01*
X1206192Y709436D02*
X1222194D01*
X1206700Y709182D02*
X1221432D01*
X1207462Y708928D02*
X1220670D01*
X1208478Y708674D02*
X1219908D01*
X1209494Y708420D02*
X1218638D01*
X1211018Y708166D02*
X1217114D01*
M02*
