G04 Layer_Physical_Order=2*
G04 Layer_Color=16711680*
%FSLAX44Y44*%
%MOMM*%
G71*
G01*
G75*
%ADD11C,0.6000*%
%ADD12C,0.7000*%
%ADD13R,0.8500X0.8500*%
%ADD14R,0.8500X0.8500*%
%ADD17C,0.3000*%
G04:AMPARAMS|DCode=18|XSize=1.3mm|YSize=1mm|CornerRadius=0.25mm|HoleSize=0mm|Usage=FLASHONLY|Rotation=360.000|XOffset=0mm|YOffset=0mm|HoleType=Round|Shape=RoundedRectangle|*
%AMROUNDEDRECTD18*
21,1,1.3000,0.5000,0,0,360.0*
21,1,0.8000,1.0000,0,0,360.0*
1,1,0.5000,0.4000,-0.2500*
1,1,0.5000,-0.4000,-0.2500*
1,1,0.5000,-0.4000,0.2500*
1,1,0.5000,0.4000,0.2500*
%
%ADD18ROUNDEDRECTD18*%
%ADD22C,1.0000*%
G04:AMPARAMS|DCode=27|XSize=1.3mm|YSize=1mm|CornerRadius=0.25mm|HoleSize=0mm|Usage=FLASHONLY|Rotation=270.000|XOffset=0mm|YOffset=0mm|HoleType=Round|Shape=RoundedRectangle|*
%AMROUNDEDRECTD27*
21,1,1.3000,0.5000,0,0,270.0*
21,1,0.8000,1.0000,0,0,270.0*
1,1,0.5000,-0.2500,-0.4000*
1,1,0.5000,-0.2500,0.4000*
1,1,0.5000,0.2500,0.4000*
1,1,0.5000,0.2500,-0.4000*
%
%ADD27ROUNDEDRECTD27*%
%ADD28C,0.5000*%
%ADD29R,1.0000X1.2500*%
%ADD30C,1.5240*%
%ADD31C,4.0000*%
%ADD32P,1.9483X8X292.5*%
%ADD33C,1.8000*%
%ADD34P,1.9483X8X22.5*%
%ADD35C,6.0000*%
%ADD36C,0.7000*%
%ADD37C,2.0000*%
%ADD38C,1.2000*%
%ADD39C,2.6400*%
%ADD40R,2.0000X2.0000*%
%ADD41P,1.9483X8X382.5*%
%ADD42R,0.5000X0.4000*%
G36*
X1283149Y1465831D02*
X1286177Y1464912D01*
X1288967Y1463421D01*
X1291413Y1461413D01*
X1293421Y1458967D01*
X1294912Y1456177D01*
X1295831Y1453149D01*
X1296132Y1450085D01*
X1296115Y1450000D01*
Y1350000D01*
X1296132Y1349915D01*
X1295831Y1346851D01*
X1294912Y1343823D01*
X1293421Y1341033D01*
X1291413Y1338587D01*
X1288967Y1336579D01*
X1286177Y1335088D01*
X1283149Y1334169D01*
X1280085Y1333868D01*
X1280000Y1333885D01*
X1060000D01*
X1059915Y1333868D01*
X1056851Y1334169D01*
X1053823Y1335088D01*
X1051033Y1336579D01*
X1048587Y1338587D01*
X1046580Y1341033D01*
X1045088Y1343823D01*
X1044169Y1346851D01*
X1043868Y1349915D01*
X1043885Y1350000D01*
Y1450000D01*
X1043868Y1450085D01*
X1044169Y1453149D01*
X1045088Y1456177D01*
X1046580Y1458967D01*
X1048587Y1461413D01*
X1051033Y1463421D01*
X1053823Y1464912D01*
X1056851Y1465831D01*
X1059915Y1466132D01*
X1060000Y1466115D01*
X1280000D01*
X1280085Y1466132D01*
X1283149Y1465831D01*
D02*
G37*
G36*
X500239Y1435724D02*
X505837Y1434380D01*
X508255Y1433379D01*
X509418Y1432885D01*
Y1432885D01*
X509418Y1432885D01*
X519388Y1428466D01*
X536467Y1419869D01*
X553104Y1410444D01*
X569258Y1400215D01*
X584891Y1389205D01*
X599965Y1377441D01*
X614443Y1364952D01*
X628291Y1351767D01*
X641476Y1337919D01*
X653965Y1323441D01*
X665729Y1308367D01*
X676738Y1292734D01*
X686968Y1276580D01*
X696393Y1259943D01*
X704989Y1242864D01*
X712738Y1225384D01*
X714848Y1219914D01*
X714846Y1219910D01*
X714846Y1219910D01*
X715661Y1217941D01*
X717155Y1211721D01*
X717628Y1205712D01*
X717583Y1205488D01*
Y1172063D01*
X717552Y1170855D01*
X717358Y1169631D01*
X716743Y1168147D01*
X715686Y1166769D01*
X714309Y1165713D01*
X712705Y1165048D01*
X711596Y1164902D01*
X710367Y1164903D01*
X710367Y1164903D01*
X709149Y1164872D01*
X708768Y1164872D01*
X593545D01*
X592500Y1164872D01*
X592296Y1164861D01*
X591094Y1164982D01*
X589824Y1165235D01*
X587980Y1166468D01*
X586747Y1168312D01*
X586385Y1170136D01*
Y1204988D01*
X586395Y1205000D01*
X586404Y1205000D01*
X585999Y1211173D01*
X584762Y1217394D01*
X583178Y1222060D01*
X583150Y1222200D01*
X583150Y1222200D01*
X583130Y1222302D01*
X582981Y1222525D01*
X582899Y1222682D01*
X582580Y1223278D01*
X581139Y1225974D01*
X573130Y1238853D01*
X564296Y1251181D01*
X554674Y1262905D01*
X544307Y1273975D01*
X533237Y1284342D01*
X521513Y1293964D01*
X512186Y1300648D01*
X512167Y1300622D01*
X511487Y1301077D01*
X511350Y1301104D01*
X510498Y1301524D01*
X504996Y1303392D01*
X499298Y1304525D01*
X493500Y1304905D01*
X492624Y1304848D01*
X492500Y1304872D01*
X461045D01*
X460000Y1304872D01*
X459796Y1304861D01*
X458594Y1304982D01*
X457324Y1305235D01*
X455480Y1306467D01*
X454247Y1308312D01*
X453885Y1310136D01*
Y1429988D01*
X453851Y1430155D01*
X454289Y1432353D01*
X455629Y1434359D01*
X457634Y1435699D01*
X459833Y1436136D01*
X460000Y1436103D01*
X492337D01*
X493500Y1436103D01*
X493596Y1436105D01*
X494860Y1436148D01*
X500239Y1435724D01*
D02*
G37*
G36*
X274512Y1437583D02*
X307937D01*
X309145Y1437552D01*
X310369Y1437358D01*
X311853Y1436743D01*
X313231Y1435686D01*
X314287Y1434309D01*
X314952Y1432705D01*
X315098Y1431595D01*
X315097Y1430367D01*
X315097Y1430367D01*
X315128Y1429149D01*
X315128Y1428768D01*
Y1313545D01*
X315128Y1312500D01*
X315139Y1312296D01*
X315018Y1311094D01*
X314765Y1309824D01*
X313533Y1307980D01*
X311688Y1306747D01*
X309864Y1306385D01*
X275012D01*
X275000Y1306395D01*
X275000Y1306404D01*
X268827Y1305999D01*
X262606Y1304762D01*
X257939Y1303178D01*
X257800Y1303150D01*
X257800Y1303150D01*
X257698Y1303130D01*
X257475Y1302981D01*
X257318Y1302899D01*
X256723Y1302581D01*
X254026Y1301139D01*
X241147Y1293130D01*
X228819Y1284296D01*
X217095Y1274675D01*
X206025Y1264307D01*
X195658Y1253237D01*
X186036Y1241514D01*
X179352Y1232186D01*
X179378Y1232167D01*
X178923Y1231487D01*
X178896Y1231350D01*
X178476Y1230498D01*
X176608Y1224996D01*
X175475Y1219298D01*
X175095Y1213500D01*
X175152Y1212624D01*
X175128Y1212500D01*
Y1181045D01*
X175128Y1180000D01*
X175139Y1179796D01*
X175018Y1178594D01*
X174765Y1177324D01*
X173533Y1175480D01*
X171688Y1174247D01*
X169864Y1173885D01*
X50012D01*
X49845Y1173851D01*
X47647Y1174289D01*
X45641Y1175629D01*
X44301Y1177634D01*
X43864Y1179833D01*
X43897Y1180000D01*
Y1212337D01*
X43897Y1213500D01*
X43895Y1213596D01*
X43852Y1214860D01*
X44276Y1220239D01*
X45620Y1225837D01*
X46621Y1228255D01*
X47115Y1229418D01*
X47115D01*
X47115Y1229418D01*
X51534Y1239388D01*
X60131Y1256467D01*
X69556Y1273104D01*
X79785Y1289258D01*
X90795Y1304891D01*
X102559Y1319965D01*
X115048Y1334443D01*
X128233Y1348291D01*
X142081Y1361476D01*
X156559Y1373965D01*
X171633Y1385728D01*
X187266Y1396738D01*
X203420Y1406968D01*
X220057Y1416393D01*
X237136Y1424989D01*
X254616Y1432738D01*
X260086Y1434848D01*
X260091Y1434846D01*
X260091Y1434846D01*
X262059Y1435661D01*
X268279Y1437155D01*
X274288Y1437628D01*
X274512Y1437583D01*
D02*
G37*
G36*
X1387792Y1418714D02*
X1393390Y1417370D01*
X1395807Y1416369D01*
X1396971Y1415874D01*
Y1415874D01*
X1396971Y1415874D01*
X1406940Y1411455D01*
X1424019Y1402858D01*
X1440656Y1393434D01*
X1456810Y1383204D01*
X1472443Y1372194D01*
X1487517Y1360430D01*
X1501996Y1347941D01*
X1515844Y1334757D01*
X1529028Y1320909D01*
X1541517Y1306430D01*
X1553281Y1291356D01*
X1564291Y1275724D01*
X1574521Y1259569D01*
X1583945Y1242933D01*
X1592542Y1225854D01*
X1600291Y1208373D01*
X1602401Y1202903D01*
X1602399Y1202899D01*
X1602399Y1202899D01*
X1603214Y1200930D01*
X1604707Y1194710D01*
X1605180Y1188701D01*
X1605136Y1188477D01*
Y1155052D01*
X1605105Y1153845D01*
X1604910Y1152620D01*
X1604295Y1151136D01*
X1603239Y1149759D01*
X1601861Y1148702D01*
X1600258Y1148038D01*
X1599148Y1147892D01*
X1597920Y1147892D01*
X1597919Y1147892D01*
X1596702Y1147862D01*
X1596321Y1147862D01*
X1481097D01*
X1480052Y1147862D01*
X1479849Y1147851D01*
X1478647Y1147972D01*
X1477377Y1148224D01*
X1475532Y1149457D01*
X1474300Y1151301D01*
X1473937Y1153125D01*
Y1187977D01*
X1473947Y1187990D01*
X1473956Y1187990D01*
X1473552Y1194163D01*
X1472314Y1200384D01*
X1470730Y1205050D01*
X1470703Y1205190D01*
X1470703Y1205190D01*
X1470682Y1205291D01*
X1470533Y1205514D01*
X1470451Y1205672D01*
X1470133Y1206267D01*
X1468692Y1208963D01*
X1460683Y1221843D01*
X1451849Y1234171D01*
X1442227Y1245895D01*
X1431859Y1256964D01*
X1420790Y1267332D01*
X1409066Y1276954D01*
X1399738Y1283638D01*
X1399720Y1283611D01*
X1399039Y1284066D01*
X1398903Y1284093D01*
X1398050Y1284513D01*
X1392549Y1286381D01*
X1386850Y1287514D01*
X1381053Y1287894D01*
X1380176Y1287837D01*
X1380052Y1287862D01*
X1348598D01*
X1347552Y1287862D01*
X1347349Y1287851D01*
X1346147Y1287972D01*
X1344877Y1288224D01*
X1343032Y1289457D01*
X1341800Y1291301D01*
X1341437Y1293125D01*
Y1412977D01*
X1341404Y1413144D01*
X1341841Y1415343D01*
X1343181Y1417348D01*
X1345187Y1418688D01*
X1347386Y1419126D01*
X1347552Y1419092D01*
X1379890D01*
X1381053Y1419092D01*
X1381148Y1419094D01*
X1382412Y1419137D01*
X1387792Y1418714D01*
D02*
G37*
G36*
X409431Y1278768D02*
X418772Y1277383D01*
X427931Y1275089D01*
X436822Y1271907D01*
X445357Y1267870D01*
X453456Y1263016D01*
X461041Y1257391D01*
X468037Y1251050D01*
X474378Y1244053D01*
X480003Y1236469D01*
X483239Y1231071D01*
X483274Y1231091D01*
X733274Y798078D01*
X733239Y798058D01*
X734858Y795357D01*
X738895Y786821D01*
X742076Y777931D01*
X744370Y768771D01*
X745756Y759431D01*
X746219Y750000D01*
X745756Y740569D01*
X744370Y731229D01*
X742076Y722069D01*
X738895Y713179D01*
X734858Y704643D01*
X730003Y696544D01*
X724378Y688959D01*
X718037Y681963D01*
X711041Y675622D01*
X703456Y669997D01*
X695357Y665143D01*
X686822Y661105D01*
X677931Y657924D01*
X668772Y655630D01*
X659431Y654244D01*
X650253Y653793D01*
X650000Y653844D01*
X150000D01*
X149747Y653793D01*
X140569Y654244D01*
X131229Y655630D01*
X122069Y657924D01*
X113179Y661105D01*
X104643Y665143D01*
X96544Y669997D01*
X88959Y675622D01*
X81963Y681963D01*
X75622Y688959D01*
X69997Y696544D01*
X65142Y704643D01*
X61105Y713179D01*
X57924Y722069D01*
X55630Y731229D01*
X54244Y740569D01*
X53781Y750000D01*
X54244Y759431D01*
X55630Y768771D01*
X57924Y777931D01*
X61105Y786821D01*
X65142Y795357D01*
X66761Y798058D01*
X66726Y798078D01*
X316726Y1231091D01*
X316761Y1231071D01*
X319997Y1236469D01*
X325622Y1244053D01*
X331963Y1251050D01*
X338959Y1257391D01*
X346544Y1263016D01*
X354643Y1267870D01*
X363179Y1271907D01*
X372069Y1275089D01*
X381229Y1277383D01*
X390569Y1278768D01*
X400000Y1279232D01*
X409431Y1278768D01*
D02*
G37*
G36*
X1367932Y1245400D02*
X1368818Y1244074D01*
X1368875Y1243787D01*
X1368875Y1243787D01*
X1368989Y1243545D01*
X1368990Y1243539D01*
X1368996Y1243530D01*
X1369162Y1243179D01*
X1430505Y1129945D01*
X1429855Y1128853D01*
X1328777Y1128854D01*
X1328602Y1128854D01*
X1327363Y1128868D01*
X1326637Y1128970D01*
X1327302Y1128874D01*
X1326155Y1129038D01*
X1325948Y1129079D01*
X1324909Y1129774D01*
X1324215Y1130813D01*
X1324152Y1131129D01*
X1324152Y1131129D01*
X1323970Y1131517D01*
X1313539Y1155993D01*
X1313195Y1158604D01*
X1311808Y1161954D01*
X1309601Y1164830D01*
X1306724Y1167038D01*
X1303375Y1168425D01*
X1299780Y1168898D01*
Y1168898D01*
X1299737Y1168855D01*
X1262886Y1168937D01*
X1262452Y1169023D01*
Y1169068D01*
X1258858Y1168595D01*
X1255508Y1167207D01*
X1252631Y1165000D01*
X1250424Y1162124D01*
X1249037Y1158774D01*
X1248564Y1155179D01*
X1248591D01*
X1248593Y1155178D01*
X1248806Y673367D01*
X1245597Y672038D01*
X1242721Y669830D01*
X1240514Y666954D01*
X1239126Y663604D01*
X1238653Y660010D01*
X1238653D01*
X1238724Y658769D01*
X1238790Y655695D01*
X1238174Y654774D01*
X1237135Y654079D01*
X1236928Y654038D01*
X1235782Y653874D01*
X1236446Y653970D01*
X1236928Y654038D01*
X1236968Y654046D01*
X1236446Y653970D01*
X1235720Y653868D01*
X1234481Y653854D01*
X1234306Y653854D01*
X1190777D01*
X1190602Y653854D01*
X1189363Y653868D01*
X1188637Y653970D01*
X1188115Y654046D01*
X1188155Y654038D01*
X1188637Y653970D01*
X1189302Y653874D01*
X1188155Y654038D01*
X1187948Y654079D01*
X1186909Y654774D01*
X1186286Y655706D01*
X1186340Y660782D01*
X1186385Y661010D01*
X1186431D01*
X1185957Y664604D01*
X1184570Y667954D01*
X1182363Y670831D01*
X1179486Y673038D01*
X1176278Y674367D01*
X1176491Y1155008D01*
X1176536Y1155010D01*
X1176062Y1158604D01*
X1174675Y1161954D01*
X1172468Y1164830D01*
X1169591Y1167038D01*
X1166242Y1168425D01*
X1163226Y1168822D01*
X1162638Y1168938D01*
X1124565Y1168854D01*
X1124520Y1168898D01*
Y1168898D01*
X1120925Y1168425D01*
X1117575Y1167038D01*
X1114699Y1164830D01*
X1112492Y1161954D01*
X1111104Y1158604D01*
X1110742Y1155854D01*
X1101529Y1132572D01*
X1101405Y1132257D01*
X1100935Y1131138D01*
X1100855Y1130985D01*
X1100929Y1131125D01*
X1100389Y1130101D01*
X1100855Y1130985D01*
X1100342Y1130025D01*
X1100174Y1129774D01*
X1099135Y1129079D01*
X1098928Y1129038D01*
X1097782Y1128874D01*
X1098446Y1128970D01*
X1098928Y1129038D01*
X1098968Y1129046D01*
X1098446Y1128970D01*
X1097720Y1128868D01*
X1096481Y1128854D01*
X1096306Y1128854D01*
X995228Y1128853D01*
X994578Y1129945D01*
X1055665Y1242706D01*
X1055921Y1243179D01*
X1056087Y1243531D01*
X1056093Y1243539D01*
X1056209Y1243787D01*
X1056780Y1244845D01*
X1057152Y1245400D01*
X1058298Y1246166D01*
X1366785D01*
X1367932Y1245400D01*
D02*
G37*
G36*
X1572381Y1025749D02*
X1574400Y1024400D01*
X1575749Y1022381D01*
X1576189Y1020167D01*
X1576156Y1020000D01*
Y740000D01*
X1576189Y739833D01*
X1575749Y737619D01*
X1574400Y735600D01*
X1572381Y734251D01*
X1570167Y733811D01*
X1570000Y733844D01*
X1290000D01*
X1289833Y733811D01*
X1287619Y734251D01*
X1285600Y735600D01*
X1284251Y737619D01*
X1283811Y739833D01*
X1283844Y740000D01*
Y1020000D01*
X1283811Y1020167D01*
X1284251Y1022381D01*
X1285600Y1024400D01*
X1287619Y1025749D01*
X1289833Y1026189D01*
X1290000Y1026156D01*
X1570000D01*
X1570167Y1026189D01*
X1572381Y1025749D01*
D02*
G37*
G36*
X1113149Y905831D02*
X1116177Y904912D01*
X1118967Y903420D01*
X1121413Y901413D01*
X1123420Y898967D01*
X1124912Y896177D01*
X1125831Y893149D01*
X1126132Y890085D01*
X1126115Y890000D01*
Y670000D01*
X1126132Y669915D01*
X1125831Y666851D01*
X1124912Y663823D01*
X1123420Y661033D01*
X1121413Y658587D01*
X1118967Y656580D01*
X1116177Y655088D01*
X1113149Y654169D01*
X1110085Y653868D01*
X1110000Y653885D01*
X1010000D01*
X1009915Y653868D01*
X1006851Y654169D01*
X1003823Y655088D01*
X1001033Y656580D01*
X998587Y658587D01*
X996580Y661033D01*
X995088Y663823D01*
X994169Y666851D01*
X993868Y669915D01*
X993885Y670000D01*
Y890000D01*
X993868Y890085D01*
X994169Y893149D01*
X995088Y896177D01*
X996580Y898967D01*
X998587Y901413D01*
X1001033Y903420D01*
X1003823Y904912D01*
X1006851Y905831D01*
X1009915Y906132D01*
X1010000Y906115D01*
X1110000D01*
X1110085Y906132D01*
X1113149Y905831D01*
D02*
G37*
G36*
X874157Y1355891D02*
X878212Y1354917D01*
X882065Y1353321D01*
X885621Y1351142D01*
X888199Y1348940D01*
X902977Y1313263D01*
X920152Y1269175D01*
X936387Y1224733D01*
X951675Y1179955D01*
X961845Y1147964D01*
X962138Y1147043D01*
X962138D01*
X962247Y1146780D01*
X962649Y1145596D01*
X963993Y1141636D01*
X965298Y1135075D01*
X965639Y1129874D01*
X965639Y1129874D01*
X965639D01*
X965646Y1129867D01*
Y737778D01*
X964414Y737469D01*
X964216Y737840D01*
X961342Y741342D01*
X957840Y744216D01*
X953844Y746352D01*
X949509Y747667D01*
X945000Y748111D01*
X940491Y747667D01*
X936156Y746352D01*
X932160Y744216D01*
X928658Y741342D01*
X925784Y737840D01*
X923648Y733844D01*
X922333Y729509D01*
X921889Y725000D01*
X922333Y720491D01*
X923648Y716156D01*
X925784Y712160D01*
X928658Y708658D01*
X932160Y705784D01*
X936156Y703648D01*
X940491Y702333D01*
X945000Y701889D01*
X949509Y702333D01*
X953844Y703648D01*
X957840Y705784D01*
X961342Y708658D01*
X964216Y712160D01*
X964414Y712531D01*
X965646Y712222D01*
Y660000D01*
X965680Y659833D01*
X965278Y657814D01*
X964040Y655960D01*
X962186Y654722D01*
X960167Y654321D01*
X960000Y654354D01*
X780000D01*
X779833Y654321D01*
X777814Y654722D01*
X775960Y655960D01*
X774722Y657814D01*
X774320Y659833D01*
X774354Y660000D01*
Y712222D01*
X775586Y712531D01*
X775784Y712160D01*
X778658Y708658D01*
X782160Y705784D01*
X786156Y703648D01*
X790491Y702333D01*
X795000Y701889D01*
X799509Y702333D01*
X803844Y703648D01*
X807840Y705784D01*
X811342Y708658D01*
X814216Y712160D01*
X816352Y716156D01*
X817667Y720491D01*
X818111Y725000D01*
X817667Y729509D01*
X816352Y733844D01*
X814216Y737840D01*
X811342Y741342D01*
X807840Y744216D01*
X803844Y746352D01*
X799509Y747667D01*
X795000Y748111D01*
X790491Y747667D01*
X786156Y746352D01*
X782160Y744216D01*
X778658Y741342D01*
X775784Y737840D01*
X775586Y737469D01*
X774354Y737778D01*
Y1129867D01*
X774361Y1129874D01*
X774361Y1129874D01*
X774361Y1129874D01*
X774702Y1135075D01*
X776007Y1141636D01*
X777443Y1145865D01*
X777862Y1147043D01*
X777862Y1147043D01*
X777862Y1147043D01*
X778155Y1147964D01*
X788325Y1179955D01*
X803613Y1224733D01*
X819848Y1269175D01*
X837023Y1313263D01*
X851801Y1348940D01*
X854379Y1351142D01*
X857935Y1353321D01*
X861788Y1354917D01*
X865843Y1355891D01*
X870000Y1356218D01*
X874157Y1355891D01*
D02*
G37*
G36*
X1593149Y705831D02*
X1596177Y704912D01*
X1598967Y703420D01*
X1601413Y701413D01*
X1603421Y698967D01*
X1604912Y696177D01*
X1605831Y693149D01*
X1606132Y690085D01*
X1606115Y690000D01*
Y470000D01*
X1606132Y469915D01*
X1605831Y466851D01*
X1604912Y463823D01*
X1603421Y461033D01*
X1601413Y458587D01*
X1598967Y456580D01*
X1596177Y455088D01*
X1593149Y454169D01*
X1590085Y453868D01*
X1590000Y453885D01*
X1490000D01*
X1489915Y453868D01*
X1486851Y454169D01*
X1483823Y455088D01*
X1481033Y456580D01*
X1478587Y458587D01*
X1476579Y461033D01*
X1475088Y463823D01*
X1474169Y466851D01*
X1473868Y469915D01*
X1473885Y470000D01*
Y690000D01*
X1473868Y690085D01*
X1474169Y693149D01*
X1475088Y696177D01*
X1476579Y698967D01*
X1478587Y701413D01*
X1481033Y703420D01*
X1483823Y704912D01*
X1486851Y705831D01*
X1489915Y706132D01*
X1490000Y706115D01*
X1590000D01*
X1590085Y706132D01*
X1593149Y705831D01*
D02*
G37*
G36*
X1429400Y706106D02*
X1430638Y706091D01*
X1431393Y705985D01*
X1431885Y705913D01*
X1431847Y705921D01*
X1431393Y705985D01*
X1430702Y706085D01*
X1431847Y705921D01*
X1432036Y705883D01*
X1433062Y705198D01*
X1433665Y704295D01*
X1433599Y701231D01*
X1433529Y699990D01*
X1433529D01*
X1434004Y696385D01*
X1435395Y693026D01*
X1437609Y690141D01*
X1440494Y687927D01*
X1443682Y686607D01*
X1443468Y204992D01*
X1443424Y204990D01*
X1443899Y201385D01*
X1445290Y198026D01*
X1447504Y195141D01*
X1450389Y192927D01*
X1453748Y191536D01*
X1456767Y191138D01*
X1457362Y191021D01*
X1495436Y191106D01*
X1495480Y191061D01*
Y191061D01*
X1499086Y191536D01*
X1502445Y192927D01*
X1505330Y195141D01*
X1507543Y198026D01*
X1508935Y201385D01*
X1509297Y204133D01*
X1518508Y227412D01*
X1518634Y227731D01*
X1519103Y228849D01*
X1519198Y229029D01*
X1519109Y228864D01*
X1519653Y229890D01*
X1519198Y229029D01*
X1519697Y229961D01*
X1519855Y230198D01*
X1520880Y230883D01*
X1521070Y230921D01*
X1522215Y231085D01*
X1521524Y230985D01*
X1521070Y230921D01*
X1521031Y230913D01*
X1521524Y230985D01*
X1522279Y231091D01*
X1523517Y231106D01*
X1523695Y231106D01*
X1624930Y231106D01*
X1625661Y230068D01*
X1586866Y121295D01*
X1586770Y120640D01*
X1586740Y120493D01*
X1586622Y120509D01*
X1586491Y119514D01*
X1585716Y117642D01*
X1584482Y116033D01*
X1582874Y114800D01*
X1581001Y114024D01*
X1579219Y113789D01*
X1577977Y113893D01*
X1577976Y113893D01*
X1576768Y113875D01*
X1477458Y113875D01*
X1477381Y113860D01*
X1476625Y113959D01*
X1472794Y113455D01*
X1469224Y111976D01*
X1466158Y109624D01*
X1463806Y106558D01*
X1462327Y102988D01*
X1462047Y100860D01*
X1461960Y100629D01*
X1455437Y61492D01*
X1455210Y60292D01*
X1455210D01*
X1455210Y60292D01*
X1455042Y59015D01*
X1454344Y57330D01*
X1453233Y55882D01*
X1451786Y54772D01*
X1450100Y54074D01*
X1448987Y53927D01*
X1447760Y53906D01*
X1447759Y53906D01*
X1446535Y53875D01*
X1446233Y53875D01*
X1368683Y53875D01*
X1368382Y53875D01*
X1367158Y53906D01*
X1367157Y53906D01*
X1365930Y53927D01*
X1364816Y54074D01*
X1363131Y54772D01*
X1361684Y55882D01*
X1360573Y57330D01*
X1359875Y59015D01*
X1359707Y60292D01*
X1359707Y60292D01*
X1359707D01*
X1359480Y61492D01*
X1352957Y100629D01*
X1352869Y100860D01*
X1352589Y102988D01*
X1351111Y106558D01*
X1348758Y109624D01*
X1345693Y111976D01*
X1342123Y113455D01*
X1338292Y113959D01*
X1337536Y113860D01*
X1337458Y113875D01*
X1238149Y113875D01*
X1236941Y113893D01*
X1236939Y113893D01*
X1235697Y113789D01*
X1233915Y114024D01*
X1232043Y114800D01*
X1230435Y116033D01*
X1229201Y117642D01*
X1228425Y119514D01*
X1228294Y120509D01*
X1228176Y120493D01*
X1228147Y120640D01*
X1228051Y121295D01*
X1189255Y230068D01*
X1189987Y231106D01*
X1291222Y231106D01*
X1291400Y231106D01*
X1292638Y231091D01*
X1293393Y230985D01*
X1293885Y230913D01*
X1293847Y230921D01*
X1293393Y230985D01*
X1292702Y231085D01*
X1293847Y230921D01*
X1294036Y230883D01*
X1295062Y230198D01*
X1295748Y229172D01*
X1295810Y228860D01*
X1295810Y228860D01*
X1295992Y228467D01*
X1306422Y203994D01*
X1306765Y201385D01*
X1308157Y198026D01*
X1310371Y195141D01*
X1313255Y192927D01*
X1316615Y191536D01*
X1320220Y191061D01*
Y191061D01*
X1320263Y191104D01*
X1357114Y191022D01*
X1357548Y190936D01*
Y190891D01*
X1361153Y191366D01*
X1364512Y192758D01*
X1367397Y194971D01*
X1369611Y197856D01*
X1371002Y201216D01*
X1371477Y204821D01*
X1371450D01*
X1371448Y204823D01*
X1371235Y686607D01*
X1374423Y687927D01*
X1377308Y690141D01*
X1379521Y693026D01*
X1380913Y696385D01*
X1381387Y699990D01*
X1381387D01*
X1381317Y701231D01*
X1381251Y704295D01*
X1381855Y705198D01*
X1382880Y705883D01*
X1383070Y705921D01*
X1384215Y706085D01*
X1383524Y705985D01*
X1383070Y705921D01*
X1383031Y705913D01*
X1383524Y705985D01*
X1384279Y706091D01*
X1385517Y706106D01*
X1385695Y706106D01*
X1429222D01*
X1429400Y706106D01*
D02*
G37*
G36*
X1142186Y625278D02*
X1144040Y624040D01*
X1145278Y622186D01*
X1145680Y620167D01*
X1145646Y620000D01*
Y60000D01*
X1145680Y59833D01*
X1145278Y57814D01*
X1144040Y55960D01*
X1142186Y54722D01*
X1141199Y54526D01*
X1140000Y54354D01*
Y54354D01*
X620000D01*
X619833Y54320D01*
X617814Y54722D01*
X615960Y55960D01*
X614722Y57814D01*
X614526Y58801D01*
X614354Y60000D01*
X614354D01*
Y620000D01*
X614320Y620167D01*
X614722Y622186D01*
X615960Y624040D01*
X617814Y625278D01*
X619833Y625680D01*
X620000Y625646D01*
X1140000D01*
X1140167Y625680D01*
X1142186Y625278D01*
D02*
G37*
G36*
X582186D02*
X584040Y624040D01*
X585278Y622186D01*
X585680Y620167D01*
X585646Y620000D01*
Y60000D01*
X585680Y59833D01*
X585278Y57814D01*
X584040Y55960D01*
X582186Y54722D01*
X581199Y54526D01*
X580000Y54354D01*
Y54354D01*
X60000D01*
X59833Y54320D01*
X57814Y54722D01*
X55960Y55960D01*
X54722Y57814D01*
X54526Y58801D01*
X54354Y60000D01*
X54354D01*
Y620000D01*
X54321Y620167D01*
X54722Y622186D01*
X55960Y624040D01*
X57814Y625278D01*
X59833Y625680D01*
X60000Y625646D01*
X580000D01*
X580167Y625680D01*
X582186Y625278D01*
D02*
G37*
G36*
X1313149Y605831D02*
X1316177Y604912D01*
X1318967Y603420D01*
X1321413Y601413D01*
X1323421Y598967D01*
X1324912Y596177D01*
X1325831Y593149D01*
X1326132Y590085D01*
X1326115Y590000D01*
Y370000D01*
X1326132Y369915D01*
X1325831Y366851D01*
X1324912Y363823D01*
X1323421Y361033D01*
X1321413Y358587D01*
X1318967Y356580D01*
X1316177Y355088D01*
X1313149Y354169D01*
X1310085Y353868D01*
X1310000Y353885D01*
X1210000D01*
X1209915Y353868D01*
X1206851Y354169D01*
X1203823Y355088D01*
X1201033Y356580D01*
X1198587Y358587D01*
X1196580Y361033D01*
X1195088Y363823D01*
X1194169Y366851D01*
X1193868Y369915D01*
X1193885Y370000D01*
Y590000D01*
X1193868Y590085D01*
X1194169Y593149D01*
X1195088Y596177D01*
X1196580Y598967D01*
X1198587Y601413D01*
X1201033Y603420D01*
X1203823Y604912D01*
X1206851Y605831D01*
X1209915Y606132D01*
X1210000Y606115D01*
X1310000D01*
X1310085Y606132D01*
X1313149Y605831D01*
D02*
G37*
%LPC*%
G36*
X1080000Y1449240D02*
X1076988Y1448843D01*
X1074180Y1447680D01*
X1071770Y1445830D01*
X1069920Y1443420D01*
X1068757Y1440613D01*
X1068360Y1437600D01*
X1068757Y1434588D01*
X1069920Y1431780D01*
X1071770Y1429370D01*
X1074180Y1427520D01*
X1076988Y1426357D01*
X1080000Y1425961D01*
X1083012Y1426357D01*
X1085820Y1427520D01*
X1088230Y1429370D01*
X1090080Y1431780D01*
X1090151Y1431951D01*
X1247475D01*
X1247670Y1431480D01*
X1249520Y1429070D01*
X1251930Y1427220D01*
X1254737Y1426057D01*
X1257750Y1425661D01*
X1260763Y1426057D01*
X1263570Y1427220D01*
X1265980Y1429070D01*
X1267830Y1431480D01*
X1268993Y1434288D01*
X1269390Y1437300D01*
X1268993Y1440313D01*
X1267830Y1443120D01*
X1265980Y1445530D01*
X1263570Y1447380D01*
X1260763Y1448543D01*
X1257750Y1448940D01*
X1254737Y1448543D01*
X1251930Y1447380D01*
X1249520Y1445530D01*
X1247769Y1443248D01*
X1090151D01*
X1090080Y1443420D01*
X1088230Y1445830D01*
X1085820Y1447680D01*
X1083012Y1448843D01*
X1080000Y1449240D01*
D02*
G37*
G36*
Y1423840D02*
X1076988Y1423443D01*
X1074180Y1422280D01*
X1071770Y1420430D01*
X1069920Y1418020D01*
X1068757Y1415213D01*
X1068360Y1412200D01*
X1068757Y1409187D01*
X1069920Y1406380D01*
X1071770Y1403970D01*
X1074180Y1402120D01*
X1076988Y1400957D01*
X1080000Y1400560D01*
X1083012Y1400957D01*
X1085820Y1402120D01*
X1088230Y1403970D01*
X1090080Y1406380D01*
X1090151Y1406552D01*
X1247475D01*
X1247670Y1406080D01*
X1249520Y1403670D01*
X1251930Y1401820D01*
X1254737Y1400657D01*
X1257750Y1400260D01*
X1260763Y1400657D01*
X1263570Y1401820D01*
X1265980Y1403670D01*
X1267830Y1406080D01*
X1268993Y1408887D01*
X1269390Y1411900D01*
X1268993Y1414913D01*
X1267830Y1417720D01*
X1265980Y1420130D01*
X1263570Y1421980D01*
X1260763Y1423143D01*
X1257750Y1423540D01*
X1254737Y1423143D01*
X1251930Y1421980D01*
X1249520Y1420130D01*
X1247769Y1417849D01*
X1090151D01*
X1090080Y1418020D01*
X1088230Y1420430D01*
X1085820Y1422280D01*
X1083012Y1423443D01*
X1080000Y1423840D01*
D02*
G37*
G36*
Y1398440D02*
X1076988Y1398043D01*
X1074180Y1396880D01*
X1071770Y1395030D01*
X1069920Y1392620D01*
X1068757Y1389813D01*
X1068360Y1386800D01*
X1068757Y1383788D01*
X1069920Y1380980D01*
X1071770Y1378570D01*
X1074180Y1376720D01*
X1076988Y1375557D01*
X1080000Y1375161D01*
X1083012Y1375557D01*
X1085820Y1376720D01*
X1088230Y1378570D01*
X1090080Y1380980D01*
X1090151Y1381151D01*
X1247475D01*
X1247670Y1380680D01*
X1249520Y1378270D01*
X1251930Y1376420D01*
X1254737Y1375257D01*
X1257750Y1374861D01*
X1260763Y1375257D01*
X1263570Y1376420D01*
X1265980Y1378270D01*
X1267830Y1380680D01*
X1268993Y1383488D01*
X1269390Y1386500D01*
X1268993Y1389513D01*
X1267830Y1392320D01*
X1265980Y1394730D01*
X1263570Y1396580D01*
X1260763Y1397743D01*
X1257750Y1398140D01*
X1254737Y1397743D01*
X1251930Y1396580D01*
X1249520Y1394730D01*
X1247769Y1392448D01*
X1090151D01*
X1090080Y1392620D01*
X1088230Y1395030D01*
X1085820Y1396880D01*
X1083012Y1398043D01*
X1080000Y1398440D01*
D02*
G37*
G36*
Y1373040D02*
X1076988Y1372643D01*
X1074180Y1371480D01*
X1071770Y1369630D01*
X1069920Y1367220D01*
X1068757Y1364413D01*
X1068360Y1361400D01*
X1068757Y1358387D01*
X1069920Y1355580D01*
X1071770Y1353170D01*
X1074180Y1351320D01*
X1076988Y1350157D01*
X1080000Y1349760D01*
X1083012Y1350157D01*
X1085820Y1351320D01*
X1088230Y1353170D01*
X1090080Y1355580D01*
X1090151Y1355751D01*
X1246329D01*
X1246357Y1355609D01*
X1246919Y1354769D01*
X1251419Y1350269D01*
X1252259Y1349707D01*
X1253250Y1349510D01*
X1262250D01*
X1263241Y1349707D01*
X1264081Y1350269D01*
X1268581Y1354769D01*
X1269143Y1355609D01*
X1269340Y1356600D01*
Y1365600D01*
X1269143Y1366591D01*
X1268581Y1367431D01*
X1264081Y1371931D01*
X1263241Y1372493D01*
X1262250Y1372690D01*
X1253250D01*
X1252259Y1372493D01*
X1251419Y1371931D01*
X1246919Y1367431D01*
X1246663Y1367048D01*
X1090151D01*
X1090080Y1367220D01*
X1088230Y1369630D01*
X1085820Y1371480D01*
X1083012Y1372643D01*
X1080000Y1373040D01*
D02*
G37*
G36*
X490000Y1419727D02*
X486987Y1419331D01*
X484180Y1418168D01*
X481770Y1416318D01*
X479920Y1413907D01*
X478757Y1411100D01*
X478360Y1408088D01*
X478757Y1405075D01*
X479920Y1402268D01*
X481770Y1399857D01*
X484180Y1398008D01*
X486987Y1396845D01*
X490000Y1396448D01*
X493013Y1396845D01*
X495820Y1398008D01*
X498230Y1399857D01*
X500080Y1402268D01*
X500362Y1402949D01*
X510271D01*
X589361Y1323859D01*
Y1310553D01*
X588188Y1310067D01*
X586384Y1311871D01*
X584716Y1312985D01*
X582750Y1313376D01*
X579548D01*
X578884Y1314371D01*
X577263Y1315454D01*
X577216Y1315754D01*
Y1316471D01*
X577263Y1316771D01*
X578884Y1317854D01*
X579997Y1319521D01*
X580389Y1321488D01*
Y1326488D01*
X579997Y1328454D01*
X578884Y1330121D01*
X577216Y1331235D01*
X575250Y1331626D01*
X567250D01*
X565284Y1331235D01*
X563616Y1330121D01*
X562952Y1329126D01*
X560129D01*
X502934Y1386321D01*
X501267Y1387435D01*
X500458Y1387596D01*
X500080Y1388507D01*
X498230Y1390918D01*
X495820Y1392768D01*
X493013Y1393931D01*
X490000Y1394327D01*
X486987Y1393931D01*
X484180Y1392768D01*
X481770Y1390918D01*
X479920Y1388507D01*
X478757Y1385700D01*
X478360Y1382688D01*
X478757Y1379675D01*
X479920Y1376868D01*
X481770Y1374457D01*
X484180Y1372608D01*
X486987Y1371445D01*
X490000Y1371048D01*
X493013Y1371445D01*
X495820Y1372608D01*
X498230Y1374457D01*
X498527Y1374843D01*
X499794Y1374926D01*
X554366Y1320354D01*
X556034Y1319240D01*
X558000Y1318849D01*
X562952D01*
X563616Y1317854D01*
X565237Y1316771D01*
X565284Y1316471D01*
Y1315754D01*
X565237Y1315454D01*
X563616Y1314371D01*
X562952Y1313376D01*
X557878D01*
X510334Y1360921D01*
X508666Y1362035D01*
X506700Y1362426D01*
X500362D01*
X500080Y1363107D01*
X498230Y1365518D01*
X495820Y1367368D01*
X493013Y1368531D01*
X490000Y1368927D01*
X486987Y1368531D01*
X484180Y1367368D01*
X481770Y1365518D01*
X479920Y1363107D01*
X478757Y1360300D01*
X478360Y1357288D01*
X478757Y1354275D01*
X479920Y1351468D01*
X481770Y1349057D01*
X484180Y1347207D01*
X486987Y1346045D01*
X490000Y1345648D01*
X493013Y1346045D01*
X495820Y1347207D01*
X498230Y1349057D01*
X500080Y1351468D01*
X500362Y1352149D01*
X504571D01*
X552116Y1304604D01*
X553783Y1303490D01*
X555750Y1303099D01*
X562952D01*
X563616Y1302104D01*
X565237Y1301021D01*
X565284Y1300721D01*
Y1300004D01*
X565237Y1299704D01*
X563616Y1298621D01*
X562952Y1297626D01*
X544128D01*
X506234Y1335521D01*
X504566Y1336635D01*
X502600Y1337026D01*
X500362D01*
X500080Y1337707D01*
X498230Y1340118D01*
X495820Y1341968D01*
X493013Y1343131D01*
X490000Y1343527D01*
X486987Y1343131D01*
X484180Y1341968D01*
X481770Y1340118D01*
X479920Y1337707D01*
X478757Y1334900D01*
X478360Y1331888D01*
X478757Y1328875D01*
X479920Y1326068D01*
X481770Y1323657D01*
X484180Y1321808D01*
X486987Y1320645D01*
X490000Y1320248D01*
X493013Y1320645D01*
X495820Y1321808D01*
X498230Y1323657D01*
X499766Y1325658D01*
X501033Y1325910D01*
X501366Y1325854D01*
X538366Y1288854D01*
X540033Y1287740D01*
X542000Y1287349D01*
X562952D01*
X563616Y1286354D01*
X565284Y1285240D01*
X566111Y1285075D01*
Y1268738D01*
X566502Y1266771D01*
X567616Y1265104D01*
X609461Y1223259D01*
Y1211450D01*
X609109Y1211380D01*
X608269Y1210819D01*
X603769Y1206319D01*
X603207Y1205479D01*
X603010Y1204488D01*
Y1195488D01*
X603207Y1194497D01*
X603769Y1193656D01*
X608269Y1189156D01*
X609109Y1188595D01*
X610100Y1188398D01*
X619100D01*
X620091Y1188595D01*
X620931Y1189156D01*
X625431Y1193656D01*
X625993Y1194497D01*
X626190Y1195488D01*
Y1204488D01*
X625993Y1205479D01*
X625431Y1206319D01*
X620931Y1210819D01*
X620091Y1211380D01*
X619739Y1211450D01*
Y1225388D01*
X619348Y1227354D01*
X618234Y1229021D01*
X576389Y1270866D01*
Y1285075D01*
X577216Y1285240D01*
X578884Y1286354D01*
X579997Y1288021D01*
X580389Y1289988D01*
Y1294988D01*
X579997Y1296954D01*
X578884Y1298621D01*
X577263Y1299704D01*
X577216Y1300004D01*
Y1300721D01*
X577263Y1301021D01*
X578884Y1302104D01*
X579427Y1302917D01*
X580724Y1302996D01*
X581821Y1301899D01*
Y1271574D01*
X582212Y1269608D01*
X583326Y1267941D01*
X588453Y1262814D01*
X590120Y1261700D01*
X592087Y1261309D01*
X594284D01*
X632861Y1222731D01*
Y1209056D01*
X631770Y1208218D01*
X629920Y1205807D01*
X628757Y1203000D01*
X628360Y1199988D01*
X628757Y1196975D01*
X629920Y1194168D01*
X631770Y1191757D01*
X634180Y1189908D01*
X636987Y1188745D01*
X640000Y1188348D01*
X643012Y1188745D01*
X645820Y1189908D01*
X648230Y1191757D01*
X650080Y1194168D01*
X651243Y1196975D01*
X651639Y1199988D01*
X651243Y1203000D01*
X650080Y1205807D01*
X648230Y1208218D01*
X645820Y1210068D01*
X643139Y1211178D01*
Y1224860D01*
X642748Y1226826D01*
X641634Y1228494D01*
X604153Y1265975D01*
X604639Y1267148D01*
X608750D01*
X609741Y1267345D01*
X610581Y1267906D01*
X610771Y1268191D01*
X612229D01*
X612419Y1267906D01*
X613259Y1267345D01*
X614250Y1267148D01*
X622750D01*
X623741Y1267345D01*
X624581Y1267906D01*
X625143Y1268747D01*
X625340Y1269738D01*
Y1278238D01*
X625143Y1279229D01*
X624581Y1280069D01*
X623741Y1280630D01*
X623639Y1280651D01*
Y1285125D01*
X624216Y1285240D01*
X625884Y1286354D01*
X626998Y1288021D01*
X627389Y1289988D01*
Y1294988D01*
X626998Y1296954D01*
X625884Y1298621D01*
X624263Y1299704D01*
X624216Y1300004D01*
Y1300721D01*
X624263Y1301021D01*
X625884Y1302104D01*
X626998Y1303771D01*
X627389Y1305738D01*
Y1310738D01*
X626998Y1312704D01*
X625884Y1314371D01*
X624263Y1315454D01*
X624216Y1315754D01*
Y1316471D01*
X624263Y1316771D01*
X625884Y1317854D01*
X626998Y1319521D01*
X627389Y1321488D01*
Y1326488D01*
X626998Y1328454D01*
X625884Y1330121D01*
X624216Y1331235D01*
X622250Y1331626D01*
X614250D01*
X612284Y1331235D01*
X610616Y1330121D01*
X609502Y1328454D01*
X609111Y1326488D01*
Y1321488D01*
X609502Y1319521D01*
X610616Y1317854D01*
X612237Y1316771D01*
X612284Y1316471D01*
Y1315754D01*
X612237Y1315454D01*
X610616Y1314371D01*
X609502Y1312704D01*
X609111Y1310738D01*
Y1305738D01*
X609502Y1303771D01*
X610616Y1302104D01*
X612237Y1301021D01*
X612284Y1300721D01*
Y1300004D01*
X612237Y1299704D01*
X610616Y1298621D01*
X609502Y1296954D01*
X609111Y1294988D01*
Y1289988D01*
X609502Y1288021D01*
X610616Y1286354D01*
X612284Y1285240D01*
X613361Y1285026D01*
Y1280651D01*
X613259Y1280630D01*
X612419Y1280069D01*
X612229Y1279784D01*
X610771D01*
X610581Y1280069D01*
X609741Y1280630D01*
X608750Y1280827D01*
X600250D01*
X599639Y1281329D01*
Y1325988D01*
X599248Y1327954D01*
X598134Y1329621D01*
X516034Y1411721D01*
X514366Y1412835D01*
X512400Y1413226D01*
X500362D01*
X500080Y1413907D01*
X498230Y1416318D01*
X495820Y1418168D01*
X493013Y1419331D01*
X490000Y1419727D01*
D02*
G37*
G36*
X690800Y1211627D02*
X687787Y1211231D01*
X684980Y1210068D01*
X682570Y1208218D01*
X680720Y1205807D01*
X679557Y1203000D01*
X679160Y1199988D01*
X679557Y1196975D01*
X680720Y1194168D01*
X682570Y1191757D01*
X684980Y1189908D01*
X687787Y1188745D01*
X690800Y1188348D01*
X693812Y1188745D01*
X696620Y1189908D01*
X699030Y1191757D01*
X700880Y1194168D01*
X702043Y1196975D01*
X702439Y1199988D01*
X702043Y1203000D01*
X700880Y1205807D01*
X699030Y1208218D01*
X696620Y1210068D01*
X693812Y1211231D01*
X690800Y1211627D01*
D02*
G37*
G36*
X665400D02*
X662387Y1211231D01*
X659580Y1210068D01*
X657170Y1208218D01*
X655320Y1205807D01*
X654157Y1203000D01*
X653760Y1199988D01*
X654157Y1196975D01*
X655320Y1194168D01*
X657170Y1191757D01*
X659580Y1189908D01*
X662387Y1188745D01*
X665400Y1188348D01*
X668412Y1188745D01*
X671220Y1189908D01*
X673630Y1191757D01*
X675480Y1194168D01*
X676643Y1196975D01*
X677039Y1199988D01*
X676643Y1203000D01*
X675480Y1205807D01*
X673630Y1208218D01*
X671220Y1210068D01*
X668412Y1211231D01*
X665400Y1211627D01*
D02*
G37*
G36*
X280012Y1422440D02*
X277000Y1422043D01*
X274193Y1420880D01*
X271782Y1419030D01*
X269932Y1416620D01*
X268769Y1413813D01*
X268373Y1410800D01*
X268769Y1407787D01*
X269932Y1404980D01*
X271782Y1402570D01*
X274193Y1400720D01*
X277000Y1399557D01*
X280012Y1399160D01*
X283025Y1399557D01*
X285832Y1400720D01*
X288243Y1402570D01*
X290093Y1404980D01*
X291255Y1407787D01*
X291652Y1410800D01*
X291255Y1413813D01*
X290093Y1416620D01*
X288243Y1419030D01*
X285832Y1420880D01*
X283025Y1422043D01*
X280012Y1422440D01*
D02*
G37*
G36*
Y1397039D02*
X277000Y1396643D01*
X274193Y1395480D01*
X271782Y1393630D01*
X269932Y1391220D01*
X268769Y1388412D01*
X268373Y1385400D01*
X268769Y1382388D01*
X269932Y1379580D01*
X271782Y1377170D01*
X274193Y1375320D01*
X277000Y1374157D01*
X280012Y1373760D01*
X283025Y1374157D01*
X285832Y1375320D01*
X288243Y1377170D01*
X290093Y1379580D01*
X291255Y1382388D01*
X291652Y1385400D01*
X291255Y1388412D01*
X290093Y1391220D01*
X288243Y1393630D01*
X285832Y1395480D01*
X283025Y1396643D01*
X280012Y1397039D01*
D02*
G37*
G36*
Y1371640D02*
X277000Y1371243D01*
X274193Y1370080D01*
X271782Y1368230D01*
X269932Y1365820D01*
X268822Y1363139D01*
X255140D01*
X253174Y1362748D01*
X251506Y1361634D01*
X214025Y1324153D01*
X212852Y1324639D01*
Y1328750D01*
X212655Y1329741D01*
X212094Y1330581D01*
X211809Y1330771D01*
Y1332229D01*
X212094Y1332419D01*
X212655Y1333259D01*
X212852Y1334250D01*
Y1342750D01*
X212655Y1343741D01*
X212094Y1344581D01*
X211253Y1345143D01*
X210262Y1345340D01*
X201762D01*
X200771Y1345143D01*
X199931Y1344581D01*
X199370Y1343741D01*
X199349Y1343639D01*
X194875D01*
X194760Y1344216D01*
X193646Y1345884D01*
X191979Y1346998D01*
X190012Y1347389D01*
X185012D01*
X183046Y1346998D01*
X181379Y1345884D01*
X180296Y1344263D01*
X179996Y1344216D01*
X179279D01*
X178979Y1344263D01*
X177896Y1345884D01*
X176229Y1346998D01*
X174262Y1347389D01*
X169262D01*
X167296Y1346998D01*
X165629Y1345884D01*
X164546Y1344263D01*
X164246Y1344216D01*
X163529D01*
X163229Y1344263D01*
X162146Y1345884D01*
X160479Y1346998D01*
X158512Y1347389D01*
X153512D01*
X151546Y1346998D01*
X149879Y1345884D01*
X148765Y1344216D01*
X148374Y1342250D01*
Y1334250D01*
X148765Y1332283D01*
X149879Y1330616D01*
X151546Y1329502D01*
X153512Y1329111D01*
X158512D01*
X160479Y1329502D01*
X162146Y1330616D01*
X163229Y1332237D01*
X163529Y1332283D01*
X164246D01*
X164546Y1332237D01*
X165629Y1330616D01*
X167296Y1329502D01*
X169262Y1329111D01*
X174262D01*
X176229Y1329502D01*
X177896Y1330616D01*
X178979Y1332237D01*
X179279Y1332283D01*
X179996D01*
X180296Y1332237D01*
X181379Y1330616D01*
X183046Y1329502D01*
X185012Y1329111D01*
X190012D01*
X191979Y1329502D01*
X193646Y1330616D01*
X194760Y1332283D01*
X194974Y1333361D01*
X199349D01*
X199370Y1333259D01*
X199931Y1332419D01*
X200216Y1332229D01*
Y1330771D01*
X199931Y1330581D01*
X199370Y1329741D01*
X199173Y1328750D01*
Y1320250D01*
X198671Y1319639D01*
X154012D01*
X152046Y1319248D01*
X150379Y1318134D01*
X68279Y1236034D01*
X67165Y1234367D01*
X66774Y1232400D01*
Y1220362D01*
X66093Y1220080D01*
X63682Y1218230D01*
X61832Y1215820D01*
X60669Y1213012D01*
X60273Y1210000D01*
X60669Y1206988D01*
X61832Y1204180D01*
X63682Y1201770D01*
X66093Y1199920D01*
X68900Y1198757D01*
X71912Y1198360D01*
X74925Y1198757D01*
X77732Y1199920D01*
X80143Y1201770D01*
X81993Y1204180D01*
X83155Y1206988D01*
X83552Y1210000D01*
X83155Y1213012D01*
X81993Y1215820D01*
X80143Y1218230D01*
X77732Y1220080D01*
X77051Y1220362D01*
Y1230272D01*
X156141Y1309361D01*
X169447D01*
X169933Y1308188D01*
X168129Y1306384D01*
X167015Y1304716D01*
X166624Y1302750D01*
Y1299548D01*
X165629Y1298884D01*
X164546Y1297263D01*
X164246Y1297216D01*
X163529D01*
X163229Y1297263D01*
X162146Y1298884D01*
X160479Y1299998D01*
X158512Y1300389D01*
X153512D01*
X151546Y1299998D01*
X149879Y1298884D01*
X148765Y1297216D01*
X148374Y1295250D01*
Y1287250D01*
X148765Y1285284D01*
X149879Y1283616D01*
X150874Y1282952D01*
Y1280128D01*
X93679Y1222934D01*
X92565Y1221266D01*
X92404Y1220458D01*
X91493Y1220080D01*
X89082Y1218230D01*
X87232Y1215820D01*
X86069Y1213012D01*
X85673Y1210000D01*
X86069Y1206988D01*
X87232Y1204180D01*
X89082Y1201770D01*
X91493Y1199920D01*
X94300Y1198757D01*
X97312Y1198360D01*
X100325Y1198757D01*
X103132Y1199920D01*
X105543Y1201770D01*
X107393Y1204180D01*
X108555Y1206988D01*
X108952Y1210000D01*
X108555Y1213012D01*
X107393Y1215820D01*
X105543Y1218230D01*
X105157Y1218527D01*
X105074Y1219794D01*
X159646Y1274366D01*
X160760Y1276033D01*
X161151Y1278000D01*
Y1282952D01*
X162146Y1283616D01*
X163229Y1285237D01*
X163529Y1285284D01*
X164246D01*
X164546Y1285237D01*
X165629Y1283616D01*
X166624Y1282952D01*
Y1277878D01*
X119079Y1230334D01*
X117965Y1228667D01*
X117574Y1226700D01*
Y1220362D01*
X116893Y1220080D01*
X114482Y1218230D01*
X112632Y1215820D01*
X111469Y1213012D01*
X111073Y1210000D01*
X111469Y1206988D01*
X112632Y1204180D01*
X114482Y1201770D01*
X116893Y1199920D01*
X119700Y1198757D01*
X122712Y1198360D01*
X125725Y1198757D01*
X128532Y1199920D01*
X130943Y1201770D01*
X132793Y1204180D01*
X133955Y1206988D01*
X134352Y1210000D01*
X133955Y1213012D01*
X132793Y1215820D01*
X130943Y1218230D01*
X128532Y1220080D01*
X127851Y1220362D01*
Y1224572D01*
X175396Y1272116D01*
X176510Y1273783D01*
X176901Y1275750D01*
Y1282952D01*
X177896Y1283616D01*
X178979Y1285237D01*
X179279Y1285284D01*
X179996D01*
X180296Y1285237D01*
X181379Y1283616D01*
X182374Y1282952D01*
Y1264128D01*
X144479Y1226234D01*
X143365Y1224566D01*
X142974Y1222600D01*
Y1220362D01*
X142293Y1220080D01*
X139882Y1218230D01*
X138032Y1215820D01*
X136869Y1213012D01*
X136473Y1210000D01*
X136869Y1206988D01*
X138032Y1204180D01*
X139882Y1201770D01*
X142293Y1199920D01*
X145100Y1198757D01*
X148112Y1198360D01*
X151125Y1198757D01*
X153932Y1199920D01*
X156343Y1201770D01*
X158193Y1204180D01*
X159355Y1206988D01*
X159752Y1210000D01*
X159355Y1213012D01*
X158193Y1215820D01*
X156343Y1218230D01*
X154342Y1219766D01*
X154090Y1221033D01*
X154146Y1221366D01*
X191146Y1258366D01*
X192260Y1260033D01*
X192651Y1262000D01*
Y1282952D01*
X193646Y1283616D01*
X194760Y1285284D01*
X194925Y1286111D01*
X211262D01*
X213229Y1286502D01*
X214896Y1287616D01*
X256741Y1329461D01*
X268550D01*
X268620Y1329109D01*
X269181Y1328269D01*
X273681Y1323769D01*
X274521Y1323207D01*
X275512Y1323010D01*
X284512D01*
X285503Y1323207D01*
X286344Y1323769D01*
X290844Y1328269D01*
X291405Y1329109D01*
X291602Y1330100D01*
Y1339100D01*
X291405Y1340091D01*
X290844Y1340931D01*
X286344Y1345431D01*
X285503Y1345993D01*
X284512Y1346190D01*
X275512D01*
X274521Y1345993D01*
X273681Y1345431D01*
X269181Y1340931D01*
X268620Y1340091D01*
X268550Y1339739D01*
X254612D01*
X252646Y1339348D01*
X250979Y1338234D01*
X209134Y1296389D01*
X194925D01*
X194760Y1297216D01*
X193646Y1298884D01*
X191979Y1299998D01*
X190012Y1300389D01*
X185012D01*
X183046Y1299998D01*
X181379Y1298884D01*
X180296Y1297263D01*
X179996Y1297216D01*
X179279D01*
X178979Y1297263D01*
X177896Y1298884D01*
X177083Y1299427D01*
X177004Y1300724D01*
X178101Y1301821D01*
X208426D01*
X210392Y1302212D01*
X212059Y1303326D01*
X217186Y1308453D01*
X218300Y1310120D01*
X218691Y1312087D01*
Y1314284D01*
X257269Y1352861D01*
X270944D01*
X271782Y1351770D01*
X274193Y1349920D01*
X277000Y1348757D01*
X280012Y1348360D01*
X283025Y1348757D01*
X285832Y1349920D01*
X288243Y1351770D01*
X290093Y1354180D01*
X291255Y1356987D01*
X291652Y1360000D01*
X291255Y1363013D01*
X290093Y1365820D01*
X288243Y1368230D01*
X285832Y1370080D01*
X283025Y1371243D01*
X280012Y1371640D01*
D02*
G37*
G36*
X1377552Y1402717D02*
X1374540Y1402320D01*
X1371733Y1401157D01*
X1369322Y1399308D01*
X1367472Y1396897D01*
X1366310Y1394090D01*
X1365913Y1391077D01*
X1366310Y1388065D01*
X1367472Y1385257D01*
X1369322Y1382847D01*
X1371733Y1380997D01*
X1374540Y1379834D01*
X1377552Y1379438D01*
X1380565Y1379834D01*
X1383372Y1380997D01*
X1385783Y1382847D01*
X1387633Y1385257D01*
X1387915Y1385938D01*
X1397824D01*
X1476914Y1306849D01*
Y1293542D01*
X1475741Y1293056D01*
X1473936Y1294861D01*
X1472269Y1295975D01*
X1470302Y1296366D01*
X1467101D01*
X1466436Y1297361D01*
X1464815Y1298444D01*
X1464769Y1298743D01*
Y1299461D01*
X1464815Y1299760D01*
X1466436Y1300843D01*
X1467550Y1302511D01*
X1467941Y1304477D01*
Y1309477D01*
X1467550Y1311444D01*
X1466436Y1313111D01*
X1464769Y1314225D01*
X1462802Y1314616D01*
X1454803D01*
X1452836Y1314225D01*
X1451169Y1313111D01*
X1450504Y1312116D01*
X1447681D01*
X1390486Y1369311D01*
X1388819Y1370425D01*
X1388010Y1370585D01*
X1387633Y1371497D01*
X1385783Y1373907D01*
X1383372Y1375757D01*
X1380565Y1376920D01*
X1377552Y1377317D01*
X1374540Y1376920D01*
X1371733Y1375757D01*
X1369322Y1373907D01*
X1367472Y1371497D01*
X1366310Y1368690D01*
X1365913Y1365677D01*
X1366310Y1362664D01*
X1367472Y1359857D01*
X1369322Y1357447D01*
X1371733Y1355597D01*
X1374540Y1354434D01*
X1377552Y1354037D01*
X1380565Y1354434D01*
X1383372Y1355597D01*
X1385783Y1357447D01*
X1386079Y1357833D01*
X1387346Y1357916D01*
X1441919Y1303343D01*
X1443586Y1302229D01*
X1445553Y1301838D01*
X1450504D01*
X1451169Y1300843D01*
X1452790Y1299760D01*
X1452836Y1299461D01*
Y1298743D01*
X1452790Y1298444D01*
X1451169Y1297361D01*
X1450504Y1296366D01*
X1445431D01*
X1397886Y1343911D01*
X1396219Y1345025D01*
X1394252Y1345416D01*
X1387915D01*
X1387633Y1346097D01*
X1385783Y1348508D01*
X1383372Y1350357D01*
X1380565Y1351520D01*
X1377552Y1351917D01*
X1374540Y1351520D01*
X1371733Y1350357D01*
X1369322Y1348508D01*
X1367472Y1346097D01*
X1366310Y1343290D01*
X1365913Y1340277D01*
X1366310Y1337265D01*
X1367472Y1334457D01*
X1369322Y1332047D01*
X1371733Y1330197D01*
X1374540Y1329034D01*
X1377552Y1328638D01*
X1380565Y1329034D01*
X1383372Y1330197D01*
X1385783Y1332047D01*
X1387633Y1334457D01*
X1387915Y1335138D01*
X1392124D01*
X1439669Y1287593D01*
X1441336Y1286479D01*
X1443302Y1286088D01*
X1450504D01*
X1451169Y1285093D01*
X1452790Y1284010D01*
X1452836Y1283711D01*
Y1282993D01*
X1452790Y1282694D01*
X1451169Y1281611D01*
X1450504Y1280616D01*
X1431681D01*
X1393786Y1318511D01*
X1392119Y1319625D01*
X1390152Y1320016D01*
X1387915D01*
X1387633Y1320697D01*
X1385783Y1323107D01*
X1383372Y1324957D01*
X1380565Y1326120D01*
X1377552Y1326517D01*
X1374540Y1326120D01*
X1371733Y1324957D01*
X1369322Y1323107D01*
X1367472Y1320697D01*
X1366310Y1317890D01*
X1365913Y1314877D01*
X1366310Y1311864D01*
X1367472Y1309057D01*
X1369322Y1306647D01*
X1371733Y1304797D01*
X1374540Y1303634D01*
X1377552Y1303237D01*
X1380565Y1303634D01*
X1383372Y1304797D01*
X1385783Y1306647D01*
X1387319Y1308648D01*
X1388585Y1308899D01*
X1388919Y1308844D01*
X1425919Y1271843D01*
X1427586Y1270730D01*
X1429552Y1270338D01*
X1450504D01*
X1451169Y1269343D01*
X1452836Y1268230D01*
X1453664Y1268065D01*
Y1251727D01*
X1454055Y1249761D01*
X1455169Y1248093D01*
X1497014Y1206248D01*
Y1194440D01*
X1496662Y1194370D01*
X1495821Y1193808D01*
X1491321Y1189308D01*
X1490760Y1188468D01*
X1490563Y1187477D01*
Y1178477D01*
X1490760Y1177486D01*
X1491321Y1176646D01*
X1495821Y1172146D01*
X1496662Y1171584D01*
X1497652Y1171387D01*
X1506653D01*
X1507644Y1171584D01*
X1508484Y1172146D01*
X1512984Y1176646D01*
X1513545Y1177486D01*
X1513742Y1178477D01*
Y1187477D01*
X1513545Y1188468D01*
X1512984Y1189308D01*
X1508484Y1193808D01*
X1507644Y1194370D01*
X1507291Y1194440D01*
Y1208377D01*
X1506900Y1210344D01*
X1505786Y1212011D01*
X1463941Y1253856D01*
Y1268065D01*
X1464769Y1268230D01*
X1466436Y1269343D01*
X1467550Y1271011D01*
X1467941Y1272977D01*
Y1277977D01*
X1467550Y1279943D01*
X1466436Y1281611D01*
X1464815Y1282694D01*
X1464769Y1282993D01*
Y1283711D01*
X1464815Y1284010D01*
X1466436Y1285093D01*
X1466979Y1285906D01*
X1468277Y1285986D01*
X1469374Y1284888D01*
Y1254564D01*
X1469765Y1252597D01*
X1470879Y1250930D01*
X1476006Y1245803D01*
X1477673Y1244689D01*
X1479639Y1244298D01*
X1481836D01*
X1520414Y1205721D01*
Y1192045D01*
X1519322Y1191208D01*
X1517472Y1188797D01*
X1516310Y1185990D01*
X1515913Y1182977D01*
X1516310Y1179965D01*
X1517472Y1177157D01*
X1519322Y1174747D01*
X1521733Y1172897D01*
X1524540Y1171734D01*
X1527552Y1171338D01*
X1530565Y1171734D01*
X1533372Y1172897D01*
X1535783Y1174747D01*
X1537633Y1177157D01*
X1538795Y1179965D01*
X1539192Y1182977D01*
X1538795Y1185990D01*
X1537633Y1188797D01*
X1535783Y1191208D01*
X1533372Y1193057D01*
X1530691Y1194168D01*
Y1207849D01*
X1530300Y1209816D01*
X1529186Y1211483D01*
X1491705Y1248964D01*
X1492191Y1250137D01*
X1496302D01*
X1497294Y1250334D01*
X1498134Y1250896D01*
X1498324Y1251181D01*
X1499781D01*
X1499971Y1250896D01*
X1500811Y1250334D01*
X1501803Y1250137D01*
X1510302D01*
X1511294Y1250334D01*
X1512134Y1250896D01*
X1512695Y1251736D01*
X1512892Y1252727D01*
Y1261227D01*
X1512695Y1262218D01*
X1512134Y1263058D01*
X1511294Y1263620D01*
X1511191Y1263640D01*
Y1268115D01*
X1511769Y1268230D01*
X1513436Y1269343D01*
X1514550Y1271011D01*
X1514941Y1272977D01*
Y1277977D01*
X1514550Y1279943D01*
X1513436Y1281611D01*
X1511815Y1282694D01*
X1511769Y1282993D01*
Y1283711D01*
X1511815Y1284010D01*
X1513436Y1285093D01*
X1514550Y1286761D01*
X1514941Y1288727D01*
Y1293727D01*
X1514550Y1295694D01*
X1513436Y1297361D01*
X1511815Y1298444D01*
X1511769Y1298743D01*
Y1299461D01*
X1511815Y1299760D01*
X1513436Y1300843D01*
X1514550Y1302511D01*
X1514941Y1304477D01*
Y1309477D01*
X1514550Y1311444D01*
X1513436Y1313111D01*
X1511769Y1314225D01*
X1509803Y1314616D01*
X1501803D01*
X1499836Y1314225D01*
X1498169Y1313111D01*
X1497055Y1311444D01*
X1496664Y1309477D01*
Y1304477D01*
X1497055Y1302511D01*
X1498169Y1300843D01*
X1499790Y1299760D01*
X1499836Y1299461D01*
Y1298743D01*
X1499790Y1298444D01*
X1498169Y1297361D01*
X1497055Y1295694D01*
X1496664Y1293727D01*
Y1288727D01*
X1497055Y1286761D01*
X1498169Y1285093D01*
X1499790Y1284010D01*
X1499836Y1283711D01*
Y1282993D01*
X1499790Y1282694D01*
X1498169Y1281611D01*
X1497055Y1279943D01*
X1496664Y1277977D01*
Y1272977D01*
X1497055Y1271011D01*
X1498169Y1269343D01*
X1499836Y1268230D01*
X1500914Y1268015D01*
Y1263640D01*
X1500811Y1263620D01*
X1499971Y1263058D01*
X1499781Y1262774D01*
X1498324D01*
X1498134Y1263058D01*
X1497294Y1263620D01*
X1496302Y1263817D01*
X1487802D01*
X1487191Y1264318D01*
Y1308977D01*
X1486800Y1310944D01*
X1485686Y1312611D01*
X1403586Y1394711D01*
X1401919Y1395825D01*
X1399953Y1396216D01*
X1387915D01*
X1387633Y1396897D01*
X1385783Y1399308D01*
X1383372Y1401157D01*
X1380565Y1402320D01*
X1377552Y1402717D01*
D02*
G37*
G36*
X1578353Y1194617D02*
X1575340Y1194220D01*
X1572533Y1193057D01*
X1570122Y1191208D01*
X1568272Y1188797D01*
X1567110Y1185990D01*
X1566713Y1182977D01*
X1567110Y1179965D01*
X1568272Y1177157D01*
X1570122Y1174747D01*
X1572533Y1172897D01*
X1575340Y1171734D01*
X1578353Y1171338D01*
X1581365Y1171734D01*
X1584172Y1172897D01*
X1586583Y1174747D01*
X1588433Y1177157D01*
X1589595Y1179965D01*
X1589992Y1182977D01*
X1589595Y1185990D01*
X1588433Y1188797D01*
X1586583Y1191208D01*
X1584172Y1193057D01*
X1581365Y1194220D01*
X1578353Y1194617D01*
D02*
G37*
G36*
X1552953D02*
X1549940Y1194220D01*
X1547133Y1193057D01*
X1544722Y1191208D01*
X1542872Y1188797D01*
X1541710Y1185990D01*
X1541313Y1182977D01*
X1541710Y1179965D01*
X1542872Y1177157D01*
X1544722Y1174747D01*
X1547133Y1172897D01*
X1549940Y1171734D01*
X1552953Y1171338D01*
X1555965Y1171734D01*
X1558772Y1172897D01*
X1561183Y1174747D01*
X1563033Y1177157D01*
X1564196Y1179965D01*
X1564592Y1182977D01*
X1564196Y1185990D01*
X1563033Y1188797D01*
X1561183Y1191208D01*
X1558772Y1193057D01*
X1555965Y1194220D01*
X1552953Y1194617D01*
D02*
G37*
G36*
X400000Y1215613D02*
X394900Y1215212D01*
X389926Y1214018D01*
X385200Y1212060D01*
X380838Y1209387D01*
X376948Y1206065D01*
X373626Y1202175D01*
X370953Y1197813D01*
X368995Y1193087D01*
X367801Y1188113D01*
X367400Y1183013D01*
X367801Y1177913D01*
X368995Y1172939D01*
X370953Y1168212D01*
X373626Y1163851D01*
X376948Y1159961D01*
X380838Y1156638D01*
X385200Y1153966D01*
X389926Y1152008D01*
X394900Y1150814D01*
X400000Y1150412D01*
X405100Y1150814D01*
X410074Y1152008D01*
X414800Y1153966D01*
X419162Y1156638D01*
X423052Y1159961D01*
X426374Y1163851D01*
X429047Y1168212D01*
X431005Y1172939D01*
X432199Y1177913D01*
X432601Y1183013D01*
X432199Y1188113D01*
X431005Y1193087D01*
X429047Y1197813D01*
X426374Y1202175D01*
X423052Y1206065D01*
X419162Y1209387D01*
X414800Y1212060D01*
X410074Y1214018D01*
X405100Y1215212D01*
X400000Y1215613D01*
D02*
G37*
G36*
X566823Y1041086D02*
X565881Y1040766D01*
X565881Y1040766D01*
X548561Y1030766D01*
X547813Y1030110D01*
X547373Y1029218D01*
X547308Y1028226D01*
X547628Y1027284D01*
X552953Y1018061D01*
X552116Y1017106D01*
X551913Y1017189D01*
X548650Y1017619D01*
X545387Y1017189D01*
X542346Y1015930D01*
X539735Y1013926D01*
X537731Y1011315D01*
X536472Y1008274D01*
X536042Y1005011D01*
X536472Y1001748D01*
X537731Y998707D01*
X539735Y996096D01*
X542346Y994092D01*
X545387Y992833D01*
X548650Y992403D01*
X551576Y992789D01*
X551577Y992787D01*
X552228Y991661D01*
X552228Y991660D01*
X550813Y989815D01*
X258639Y1008422D01*
X258269Y1009315D01*
X256265Y1011926D01*
X253654Y1013930D01*
X250613Y1015190D01*
X247350Y1015619D01*
X244087Y1015190D01*
X243885Y1015106D01*
X243047Y1016061D01*
X248372Y1025284D01*
X248692Y1026226D01*
X248627Y1027218D01*
X248187Y1028110D01*
X247439Y1028766D01*
X230119Y1038766D01*
X230119Y1038766D01*
X229177Y1039086D01*
X228185Y1039021D01*
X227293Y1038581D01*
X226637Y1037833D01*
X194137Y981541D01*
X193817Y980600D01*
X193882Y979607D01*
X194322Y978715D01*
X195070Y978059D01*
X212390Y968059D01*
X212390Y968059D01*
X213332Y967740D01*
X214325Y967805D01*
X215217Y968245D01*
X215872Y968992D01*
X221198Y978216D01*
X222443Y977968D01*
X222472Y977751D01*
X223731Y974710D01*
X225735Y972099D01*
X228346Y970095D01*
X231387Y968836D01*
X234650Y968406D01*
X237913Y968836D01*
X240954Y970096D01*
X243565Y972099D01*
X245569Y974710D01*
X246828Y977751D01*
X247258Y981014D01*
X246828Y984277D01*
X245569Y987318D01*
X243772Y989660D01*
X243773Y989662D01*
X244422Y990787D01*
X244424Y990789D01*
X247350Y990403D01*
X250613Y990833D01*
X253654Y992093D01*
X256265Y994096D01*
X257887Y996210D01*
X550061Y977603D01*
X550431Y976710D01*
X552435Y974099D01*
X555046Y972095D01*
X558087Y970836D01*
X561350Y970406D01*
X564613Y970836D01*
X567654Y972095D01*
X570265Y974099D01*
X572269Y976710D01*
X573528Y979751D01*
X573557Y979968D01*
X574803Y980216D01*
X580128Y970992D01*
X580783Y970245D01*
X581675Y969805D01*
X582668Y969740D01*
X583610Y970060D01*
X583610Y970060D01*
X600930Y980060D01*
X601678Y980715D01*
X602118Y981607D01*
X602183Y982600D01*
X601863Y983541D01*
X569363Y1039833D01*
X568707Y1040581D01*
X567815Y1041021D01*
X566823Y1041086D01*
D02*
G37*
G36*
X394250Y785130D02*
X391909Y784665D01*
X389924Y783338D01*
X388598Y781354D01*
X388133Y779013D01*
Y770763D01*
X388598Y768422D01*
X389924Y766437D01*
X419674Y736687D01*
X421659Y735361D01*
X424000Y734895D01*
X426341Y735361D01*
X428326Y736687D01*
X429652Y738672D01*
X430118Y741013D01*
X429652Y743354D01*
X428326Y745339D01*
X400368Y773297D01*
Y779013D01*
X399902Y781354D01*
X398576Y783338D01*
X396591Y784665D01*
X394250Y785130D01*
D02*
G37*
G36*
X650000Y782603D02*
X644900Y782202D01*
X639926Y781008D01*
X635200Y779050D01*
X630838Y776377D01*
X626948Y773055D01*
X623626Y769165D01*
X620953Y764803D01*
X618995Y760077D01*
X617801Y755103D01*
X617400Y750003D01*
X617801Y744903D01*
X618995Y739929D01*
X620953Y735202D01*
X623626Y730841D01*
X626948Y726951D01*
X630838Y723628D01*
X635200Y720956D01*
X639926Y718998D01*
X644900Y717804D01*
X650000Y717402D01*
X655100Y717804D01*
X660074Y718998D01*
X664800Y720956D01*
X669162Y723628D01*
X673052Y726951D01*
X676374Y730841D01*
X679047Y735202D01*
X681005Y739929D01*
X682199Y744903D01*
X682601Y750003D01*
X682199Y755103D01*
X681005Y760077D01*
X679047Y764803D01*
X676374Y769165D01*
X673052Y773055D01*
X669162Y776377D01*
X664800Y779050D01*
X660074Y781008D01*
X655100Y782202D01*
X650000Y782603D01*
D02*
G37*
G36*
X150000D02*
X144900Y782202D01*
X139926Y781008D01*
X135200Y779050D01*
X130838Y776377D01*
X126948Y773055D01*
X123626Y769165D01*
X120953Y764803D01*
X118995Y760077D01*
X117801Y755103D01*
X117400Y750003D01*
X117801Y744903D01*
X118995Y739929D01*
X120953Y735202D01*
X123626Y730841D01*
X126948Y726951D01*
X130838Y723628D01*
X135200Y720956D01*
X139926Y718998D01*
X144900Y717804D01*
X150000Y717402D01*
X155100Y717804D01*
X160074Y718998D01*
X164800Y720956D01*
X169162Y723628D01*
X173052Y726951D01*
X176374Y730841D01*
X179047Y735202D01*
X181005Y739929D01*
X182199Y744903D01*
X182601Y750003D01*
X182199Y755103D01*
X181005Y760077D01*
X179047Y764803D01*
X176374Y769165D01*
X173052Y773055D01*
X169162Y776377D01*
X164800Y779050D01*
X160074Y781008D01*
X155100Y782202D01*
X150000Y782603D01*
D02*
G37*
G36*
X424250Y725386D02*
X422031Y725094D01*
X419963Y724238D01*
X418188Y722875D01*
X416825Y721099D01*
X415969Y719032D01*
X415677Y716813D01*
X415969Y714594D01*
X416825Y712526D01*
X418188Y710751D01*
X419963Y709388D01*
X422031Y708531D01*
X424250Y708239D01*
X426469Y708531D01*
X428537Y709388D01*
X430312Y710751D01*
X431675Y712526D01*
X432531Y714594D01*
X432823Y716813D01*
X432531Y719032D01*
X431675Y721099D01*
X430312Y722875D01*
X428537Y724238D01*
X426469Y725094D01*
X424250Y725386D01*
D02*
G37*
G36*
X375750D02*
X373531Y725094D01*
X371463Y724238D01*
X369688Y722875D01*
X368325Y721099D01*
X367469Y719032D01*
X367177Y716813D01*
X367469Y714594D01*
X368325Y712526D01*
X369688Y710751D01*
X371463Y709388D01*
X373531Y708531D01*
X375750Y708239D01*
X377969Y708531D01*
X380037Y709388D01*
X381812Y710751D01*
X383175Y712526D01*
X384031Y714594D01*
X384323Y716813D01*
X384031Y719032D01*
X383175Y721099D01*
X381812Y722875D01*
X380037Y724238D01*
X377969Y725094D01*
X375750Y725386D01*
D02*
G37*
G36*
X436250Y705789D02*
X433172Y705486D01*
X430213Y704588D01*
X427485Y703130D01*
X425095Y701168D01*
X423133Y698777D01*
X421675Y696050D01*
X420777Y693091D01*
X420474Y690013D01*
X420777Y686935D01*
X421675Y683976D01*
X423133Y681248D01*
X425095Y678857D01*
X427485Y676896D01*
X430213Y675438D01*
X433172Y674540D01*
X436250Y674237D01*
X439328Y674540D01*
X442287Y675438D01*
X445015Y676896D01*
X447405Y678857D01*
X449367Y681248D01*
X450825Y683976D01*
X451723Y686935D01*
X452026Y690013D01*
X451723Y693091D01*
X450825Y696050D01*
X449367Y698777D01*
X447405Y701168D01*
X445015Y703130D01*
X442287Y704588D01*
X439328Y705486D01*
X436250Y705789D01*
D02*
G37*
G36*
X363750D02*
X360672Y705486D01*
X357713Y704588D01*
X354985Y703130D01*
X352595Y701168D01*
X350633Y698777D01*
X349175Y696050D01*
X348277Y693091D01*
X347974Y690013D01*
X348277Y686935D01*
X349175Y683976D01*
X350633Y681248D01*
X352595Y678857D01*
X354985Y676896D01*
X357713Y675438D01*
X360672Y674540D01*
X363750Y674237D01*
X366828Y674540D01*
X369787Y675438D01*
X372515Y676896D01*
X374905Y678857D01*
X376867Y681248D01*
X378325Y683976D01*
X379223Y686935D01*
X379526Y690013D01*
X379223Y693091D01*
X378325Y696050D01*
X376867Y698777D01*
X374905Y701168D01*
X372515Y703130D01*
X369787Y704588D01*
X366828Y705486D01*
X363750Y705789D01*
D02*
G37*
G36*
X1207542Y1213809D02*
X1197542D01*
X1196566Y1213615D01*
X1195739Y1213062D01*
X1195187Y1212235D01*
X1194993Y1211260D01*
Y1210617D01*
X1164949D01*
X1164883Y1210661D01*
X1162542Y1211127D01*
X1160201Y1210661D01*
X1158216Y1209335D01*
X1156890Y1207351D01*
X1156424Y1205010D01*
X1156890Y1202669D01*
X1158216Y1200684D01*
X1160201Y1199358D01*
X1162542Y1198892D01*
X1164883Y1199358D01*
X1164949Y1199402D01*
X1194993D01*
Y1198760D01*
X1195187Y1197784D01*
X1195739Y1196957D01*
X1196566Y1196405D01*
X1197542Y1196211D01*
X1207542D01*
X1208517Y1196405D01*
X1209344Y1196957D01*
X1209897Y1197784D01*
X1210091Y1198760D01*
Y1211260D01*
X1209897Y1212235D01*
X1209344Y1213062D01*
X1208517Y1213615D01*
X1207542Y1213809D01*
D02*
G37*
G36*
X1222542Y1228117D02*
X1117542D01*
X1115396Y1227691D01*
X1113576Y1226475D01*
X1073976Y1186875D01*
X1072761Y1185056D01*
X1072334Y1182910D01*
Y1172717D01*
X1030442D01*
X1028296Y1172290D01*
X1026476Y1171075D01*
X1023176Y1167775D01*
X1021961Y1165956D01*
X1021534Y1163810D01*
Y1156217D01*
X1020838Y1155928D01*
X1018226Y1153925D01*
X1016223Y1151314D01*
X1014963Y1148273D01*
X1014534Y1145010D01*
X1014963Y1141747D01*
X1016223Y1138706D01*
X1018226Y1136095D01*
X1020838Y1134091D01*
X1023878Y1132831D01*
X1027142Y1132402D01*
X1030405Y1132831D01*
X1033446Y1134091D01*
X1036057Y1136095D01*
X1038060Y1138706D01*
X1039190Y1141432D01*
X1039192Y1141433D01*
X1040492D01*
X1040493Y1141432D01*
X1041623Y1138706D01*
X1043626Y1136095D01*
X1046238Y1134091D01*
X1049278Y1132831D01*
X1052542Y1132402D01*
X1055805Y1132831D01*
X1058846Y1134091D01*
X1061457Y1136095D01*
X1063460Y1138706D01*
X1064123Y1140305D01*
X1065393Y1140052D01*
Y1135010D01*
X1065587Y1134034D01*
X1066139Y1133207D01*
X1066966Y1132655D01*
X1067942Y1132461D01*
X1087942D01*
X1088917Y1132655D01*
X1089744Y1133207D01*
X1090297Y1134034D01*
X1090491Y1135010D01*
Y1155010D01*
X1090297Y1155985D01*
X1089744Y1156812D01*
X1088917Y1157365D01*
X1087942Y1157559D01*
X1083549D01*
Y1167110D01*
Y1180587D01*
X1119865Y1216902D01*
X1216934D01*
Y1213688D01*
X1216566Y1213615D01*
X1215739Y1213062D01*
X1215187Y1212235D01*
X1214993Y1211260D01*
Y1198760D01*
X1215187Y1197784D01*
X1215739Y1196957D01*
X1216566Y1196405D01*
X1217542Y1196211D01*
X1219634D01*
Y803134D01*
X1219442Y803055D01*
X1217040Y801211D01*
X1215197Y798809D01*
X1214038Y796012D01*
X1213643Y793010D01*
X1214038Y790007D01*
X1215197Y787210D01*
X1217040Y784808D01*
X1219442Y782964D01*
X1222240Y781806D01*
X1225242Y781410D01*
X1228244Y781806D01*
X1231041Y782964D01*
X1233444Y784808D01*
X1235287Y787210D01*
X1236446Y790007D01*
X1236841Y793010D01*
X1236446Y796012D01*
X1235287Y798809D01*
X1233444Y801211D01*
X1231041Y803055D01*
X1230849Y803134D01*
Y1199402D01*
X1312719D01*
X1341534Y1170587D01*
Y1156217D01*
X1340838Y1155928D01*
X1338227Y1153925D01*
X1336223Y1151314D01*
X1334963Y1148273D01*
X1334534Y1145010D01*
X1334963Y1141747D01*
X1336223Y1138706D01*
X1338227Y1136095D01*
X1340838Y1134091D01*
X1343878Y1132831D01*
X1347142Y1132402D01*
X1350405Y1132831D01*
X1353446Y1134091D01*
X1356057Y1136095D01*
X1358060Y1138706D01*
X1359190Y1141432D01*
X1359192Y1141433D01*
X1360492D01*
X1360493Y1141432D01*
X1361623Y1138706D01*
X1363627Y1136095D01*
X1366238Y1134091D01*
X1369279Y1132831D01*
X1372542Y1132402D01*
X1375805Y1132831D01*
X1378846Y1134091D01*
X1381457Y1136095D01*
X1383460Y1138706D01*
X1384123Y1140305D01*
X1385393Y1140052D01*
Y1135010D01*
X1385587Y1134034D01*
X1386139Y1133207D01*
X1386966Y1132655D01*
X1387942Y1132461D01*
X1407942D01*
X1408917Y1132655D01*
X1409744Y1133207D01*
X1410297Y1134034D01*
X1410491Y1135010D01*
Y1155010D01*
X1410297Y1155985D01*
X1409744Y1156812D01*
X1408917Y1157365D01*
X1407942Y1157559D01*
X1403549D01*
Y1162110D01*
X1403123Y1164256D01*
X1401907Y1166075D01*
X1394007Y1173975D01*
X1392188Y1175191D01*
X1390042Y1175617D01*
X1351947D01*
X1351107Y1176875D01*
X1319007Y1208975D01*
X1317188Y1210191D01*
X1315042Y1210617D01*
X1230091D01*
Y1211260D01*
X1229897Y1212235D01*
X1229344Y1213062D01*
X1228517Y1213615D01*
X1228149Y1213688D01*
Y1222510D01*
X1227722Y1224656D01*
X1226507Y1226475D01*
X1224688Y1227691D01*
X1222542Y1228117D01*
D02*
G37*
G36*
X1326115Y1129046D02*
X1326155Y1129038D01*
X1326637Y1128970D01*
X1326115Y1129046D01*
D02*
G37*
G36*
X1199842Y804609D02*
X1196840Y804214D01*
X1194042Y803055D01*
X1191640Y801211D01*
X1189797Y798809D01*
X1188638Y796012D01*
X1188242Y793010D01*
X1188638Y790007D01*
X1189797Y787210D01*
X1191640Y784808D01*
X1194042Y782964D01*
X1196840Y781806D01*
X1199842Y781410D01*
X1202844Y781806D01*
X1205641Y782964D01*
X1208044Y784808D01*
X1209887Y787210D01*
X1211046Y790007D01*
X1211441Y793010D01*
X1211046Y796012D01*
X1209887Y798809D01*
X1208044Y801211D01*
X1205641Y803055D01*
X1202844Y804214D01*
X1199842Y804609D01*
D02*
G37*
%LPD*%
G36*
X1392334Y1159787D02*
Y1157559D01*
X1387942D01*
X1386966Y1157365D01*
X1386139Y1156812D01*
X1385587Y1155985D01*
X1385393Y1155010D01*
Y1149967D01*
X1384123Y1149715D01*
X1383460Y1151314D01*
X1381457Y1153925D01*
X1378846Y1155928D01*
X1375805Y1157188D01*
X1372542Y1157617D01*
X1369279Y1157188D01*
X1366238Y1155928D01*
X1363627Y1153925D01*
X1361623Y1151314D01*
X1360493Y1148587D01*
X1360492Y1148586D01*
X1359192D01*
X1359190Y1148587D01*
X1358060Y1151314D01*
X1356057Y1153925D01*
X1353446Y1155928D01*
X1352749Y1156217D01*
Y1164402D01*
X1387719D01*
X1392334Y1159787D01*
D02*
G37*
G36*
X1072334Y1157559D02*
X1067942D01*
X1066966Y1157365D01*
X1066139Y1156812D01*
X1065587Y1155985D01*
X1065393Y1155010D01*
Y1149967D01*
X1064123Y1149715D01*
X1063460Y1151314D01*
X1061457Y1153925D01*
X1058846Y1155928D01*
X1055805Y1157188D01*
X1052542Y1157617D01*
X1049278Y1157188D01*
X1046238Y1155928D01*
X1043626Y1153925D01*
X1041623Y1151314D01*
X1040493Y1148587D01*
X1040492Y1148586D01*
X1039192D01*
X1039190Y1148587D01*
X1038060Y1151314D01*
X1036057Y1153925D01*
X1033446Y1155928D01*
X1032749Y1156217D01*
Y1161487D01*
X1032765Y1161502D01*
X1072334D01*
Y1157559D01*
D02*
G37*
%LPC*%
G36*
X1540000Y1022600D02*
X1534900Y1022199D01*
X1529926Y1021005D01*
X1525200Y1019047D01*
X1520838Y1016374D01*
X1516948Y1013052D01*
X1513626Y1009162D01*
X1510953Y1004800D01*
X1508995Y1000074D01*
X1507801Y995100D01*
X1507399Y990000D01*
X1507801Y984900D01*
X1508995Y979926D01*
X1510953Y975200D01*
X1513626Y970838D01*
X1516948Y966948D01*
X1520838Y963626D01*
X1525200Y960953D01*
X1529926Y958995D01*
X1534900Y957801D01*
X1540000Y957400D01*
X1545100Y957801D01*
X1550074Y958995D01*
X1554800Y960953D01*
X1559162Y963626D01*
X1563052Y966948D01*
X1566374Y970838D01*
X1569047Y975200D01*
X1571005Y979926D01*
X1572199Y984900D01*
X1572601Y990000D01*
X1572199Y995100D01*
X1571005Y1000074D01*
X1569047Y1004800D01*
X1566374Y1009162D01*
X1563052Y1013052D01*
X1559162Y1016374D01*
X1554800Y1019047D01*
X1550074Y1021005D01*
X1545100Y1022199D01*
X1540000Y1022600D01*
D02*
G37*
G36*
X1320000D02*
X1314900Y1022199D01*
X1309926Y1021005D01*
X1305200Y1019047D01*
X1300838Y1016374D01*
X1296948Y1013052D01*
X1293626Y1009162D01*
X1290953Y1004800D01*
X1288995Y1000074D01*
X1287801Y995100D01*
X1287399Y990000D01*
X1287801Y984900D01*
X1288995Y979926D01*
X1290953Y975200D01*
X1293626Y970838D01*
X1296948Y966948D01*
X1300838Y963626D01*
X1305200Y960953D01*
X1309926Y958995D01*
X1314900Y957801D01*
X1320000Y957400D01*
X1325100Y957801D01*
X1330074Y958995D01*
X1334800Y960953D01*
X1339162Y963626D01*
X1343052Y966948D01*
X1346374Y970838D01*
X1349047Y975200D01*
X1351005Y979926D01*
X1352199Y984900D01*
X1352601Y990000D01*
X1352199Y995100D01*
X1351005Y1000074D01*
X1349047Y1004800D01*
X1346374Y1009162D01*
X1343052Y1013052D01*
X1339162Y1016374D01*
X1334800Y1019047D01*
X1330074Y1021005D01*
X1325100Y1022199D01*
X1320000Y1022600D01*
D02*
G37*
G36*
X1442700Y920408D02*
X1439437Y919978D01*
X1436396Y918719D01*
X1433785Y916715D01*
X1431781Y914104D01*
X1430652Y911377D01*
X1430650Y911377D01*
X1429350D01*
X1429348Y911377D01*
X1428219Y914104D01*
X1426215Y916715D01*
X1423604Y918719D01*
X1420563Y919978D01*
X1417300Y920408D01*
X1414037Y919978D01*
X1410996Y918719D01*
X1408385Y916715D01*
X1406381Y914104D01*
X1405122Y911063D01*
X1404692Y907800D01*
X1405122Y904537D01*
X1406381Y901496D01*
X1408385Y898885D01*
X1408559Y898752D01*
X1408150Y897549D01*
X1397500D01*
X1396525Y897355D01*
X1395698Y896802D01*
X1395145Y895975D01*
X1394951Y895000D01*
Y875000D01*
X1395145Y874025D01*
X1395698Y873198D01*
X1396525Y872645D01*
X1397500Y872451D01*
X1462500D01*
X1463475Y872645D01*
X1464302Y873198D01*
X1464855Y874025D01*
X1465049Y875000D01*
Y895000D01*
X1464855Y895975D01*
X1464302Y896802D01*
X1463475Y897355D01*
X1462500Y897549D01*
X1451850D01*
X1451441Y898752D01*
X1451615Y898885D01*
X1453619Y901496D01*
X1454878Y904537D01*
X1455308Y907800D01*
X1454878Y911063D01*
X1453619Y914104D01*
X1451615Y916715D01*
X1449004Y918719D01*
X1445963Y919978D01*
X1442700Y920408D01*
D02*
G37*
G36*
X1490000Y952609D02*
X1485589Y952175D01*
X1481348Y950888D01*
X1477439Y948799D01*
X1474013Y945987D01*
X1471201Y942561D01*
X1469112Y938652D01*
X1467826Y934411D01*
X1467391Y930000D01*
X1467826Y925589D01*
X1469112Y921348D01*
X1471201Y917439D01*
X1474013Y914013D01*
X1477439Y911201D01*
X1481348Y909112D01*
X1485589Y907826D01*
X1490000Y907391D01*
X1494411Y907826D01*
X1498652Y909112D01*
X1502561Y911201D01*
X1505987Y914013D01*
X1508799Y917439D01*
X1510888Y921348D01*
X1512174Y925589D01*
X1512609Y930000D01*
X1512174Y934411D01*
X1510888Y938652D01*
X1508799Y942561D01*
X1505987Y945987D01*
X1502561Y948799D01*
X1498652Y950888D01*
X1494411Y952175D01*
X1490000Y952609D01*
D02*
G37*
G36*
X1370000D02*
X1365589Y952175D01*
X1361348Y950888D01*
X1357439Y948799D01*
X1354013Y945987D01*
X1351201Y942561D01*
X1349112Y938652D01*
X1347825Y934411D01*
X1347391Y930000D01*
X1347825Y925589D01*
X1349112Y921348D01*
X1351201Y917439D01*
X1354013Y914013D01*
X1357439Y911201D01*
X1361348Y909112D01*
X1365589Y907826D01*
X1370000Y907391D01*
X1374411Y907826D01*
X1378652Y909112D01*
X1382561Y911201D01*
X1385987Y914013D01*
X1388799Y917439D01*
X1390888Y921348D01*
X1392174Y925589D01*
X1392609Y930000D01*
X1392174Y934411D01*
X1390888Y938652D01*
X1388799Y942561D01*
X1385987Y945987D01*
X1382561Y948799D01*
X1378652Y950888D01*
X1374411Y952175D01*
X1370000Y952609D01*
D02*
G37*
G36*
X1490000Y852609D02*
X1485589Y852175D01*
X1481348Y850888D01*
X1477439Y848799D01*
X1474013Y845987D01*
X1471201Y842561D01*
X1469112Y838652D01*
X1467826Y834411D01*
X1467391Y830000D01*
X1467826Y825589D01*
X1469112Y821348D01*
X1471201Y817439D01*
X1474013Y814013D01*
X1477439Y811201D01*
X1481348Y809112D01*
X1485589Y807826D01*
X1490000Y807391D01*
X1494411Y807826D01*
X1498652Y809112D01*
X1502561Y811201D01*
X1505987Y814013D01*
X1508799Y817439D01*
X1510888Y821348D01*
X1512174Y825589D01*
X1512609Y830000D01*
X1512174Y834411D01*
X1510888Y838652D01*
X1508799Y842561D01*
X1505987Y845987D01*
X1502561Y848799D01*
X1498652Y850888D01*
X1494411Y852175D01*
X1490000Y852609D01*
D02*
G37*
G36*
X1370000D02*
X1365589Y852175D01*
X1361348Y850888D01*
X1357439Y848799D01*
X1354013Y845987D01*
X1351201Y842561D01*
X1349112Y838652D01*
X1347825Y834411D01*
X1347391Y830000D01*
X1347825Y825589D01*
X1349112Y821348D01*
X1351201Y817439D01*
X1354013Y814013D01*
X1357439Y811201D01*
X1361348Y809112D01*
X1365589Y807826D01*
X1370000Y807391D01*
X1374411Y807826D01*
X1378652Y809112D01*
X1382561Y811201D01*
X1385987Y814013D01*
X1388799Y817439D01*
X1390888Y821348D01*
X1392174Y825589D01*
X1392609Y830000D01*
X1392174Y834411D01*
X1390888Y838652D01*
X1388799Y842561D01*
X1385987Y845987D01*
X1382561Y848799D01*
X1378652Y850888D01*
X1374411Y852175D01*
X1370000Y852609D01*
D02*
G37*
G36*
X1540000Y802601D02*
X1534900Y802199D01*
X1529926Y801005D01*
X1525200Y799047D01*
X1520838Y796374D01*
X1516948Y793052D01*
X1513626Y789162D01*
X1510953Y784800D01*
X1508995Y780074D01*
X1507801Y775100D01*
X1507399Y770000D01*
X1507801Y764900D01*
X1508995Y759926D01*
X1510953Y755200D01*
X1513626Y750838D01*
X1516948Y746948D01*
X1520838Y743626D01*
X1525200Y740953D01*
X1529926Y738995D01*
X1534900Y737801D01*
X1540000Y737400D01*
X1545100Y737801D01*
X1550074Y738995D01*
X1554800Y740953D01*
X1559162Y743626D01*
X1563052Y746948D01*
X1566374Y750838D01*
X1569047Y755200D01*
X1571005Y759926D01*
X1572199Y764900D01*
X1572601Y770000D01*
X1572199Y775100D01*
X1571005Y780074D01*
X1569047Y784800D01*
X1566374Y789162D01*
X1563052Y793052D01*
X1559162Y796374D01*
X1554800Y799047D01*
X1550074Y801005D01*
X1545100Y802199D01*
X1540000Y802601D01*
D02*
G37*
G36*
X1320000D02*
X1314900Y802199D01*
X1309926Y801005D01*
X1305200Y799047D01*
X1300838Y796374D01*
X1296948Y793052D01*
X1293626Y789162D01*
X1290953Y784800D01*
X1288995Y780074D01*
X1287801Y775100D01*
X1287399Y770000D01*
X1287801Y764900D01*
X1288995Y759926D01*
X1290953Y755200D01*
X1293626Y750838D01*
X1296948Y746948D01*
X1300838Y743626D01*
X1305200Y740953D01*
X1309926Y738995D01*
X1314900Y737801D01*
X1320000Y737400D01*
X1325100Y737801D01*
X1330074Y738995D01*
X1334800Y740953D01*
X1339162Y743626D01*
X1343052Y746948D01*
X1346374Y750838D01*
X1349047Y755200D01*
X1351005Y759926D01*
X1352199Y764900D01*
X1352601Y770000D01*
X1352199Y775100D01*
X1351005Y780074D01*
X1349047Y784800D01*
X1346374Y789162D01*
X1343052Y793052D01*
X1339162Y796374D01*
X1334800Y799047D01*
X1330074Y801005D01*
X1325100Y802199D01*
X1320000Y802601D01*
D02*
G37*
G36*
X1021400Y881640D02*
X1018388Y881243D01*
X1015580Y880080D01*
X1013170Y878230D01*
X1011320Y875820D01*
X1010157Y873013D01*
X1009761Y870000D01*
X1010157Y866988D01*
X1011320Y864180D01*
X1013170Y861770D01*
X1015580Y859920D01*
X1015751Y859849D01*
Y703671D01*
X1015609Y703643D01*
X1014769Y703081D01*
X1010269Y698581D01*
X1009707Y697741D01*
X1009510Y696750D01*
Y687750D01*
X1009707Y686759D01*
X1010269Y685919D01*
X1014769Y681419D01*
X1015609Y680857D01*
X1016600Y680660D01*
X1025600D01*
X1026591Y680857D01*
X1027431Y681419D01*
X1031931Y685919D01*
X1032493Y686759D01*
X1032690Y687750D01*
Y696750D01*
X1032493Y697741D01*
X1031931Y698581D01*
X1027431Y703081D01*
X1027048Y703337D01*
Y859849D01*
X1027220Y859920D01*
X1029630Y861770D01*
X1031480Y864180D01*
X1032643Y866988D01*
X1033040Y870000D01*
X1032643Y873013D01*
X1031480Y875820D01*
X1029630Y878230D01*
X1027220Y880080D01*
X1024413Y881243D01*
X1021400Y881640D01*
D02*
G37*
G36*
X1097600D02*
X1094587Y881243D01*
X1091780Y880080D01*
X1089370Y878230D01*
X1087520Y875820D01*
X1086357Y873013D01*
X1085960Y870000D01*
X1086357Y866988D01*
X1087520Y864180D01*
X1089370Y861770D01*
X1091780Y859920D01*
X1091952Y859849D01*
Y702525D01*
X1091480Y702330D01*
X1089070Y700480D01*
X1087220Y698070D01*
X1086057Y695263D01*
X1085660Y692250D01*
X1086057Y689238D01*
X1087220Y686430D01*
X1089070Y684020D01*
X1091480Y682170D01*
X1094287Y681007D01*
X1097300Y680610D01*
X1100313Y681007D01*
X1103120Y682170D01*
X1105530Y684020D01*
X1107380Y686430D01*
X1108543Y689238D01*
X1108940Y692250D01*
X1108543Y695263D01*
X1107380Y698070D01*
X1105530Y700480D01*
X1103249Y702231D01*
Y859849D01*
X1103420Y859920D01*
X1105830Y861770D01*
X1107680Y864180D01*
X1108843Y866988D01*
X1109240Y870000D01*
X1108843Y873013D01*
X1107680Y875820D01*
X1105830Y878230D01*
X1103420Y880080D01*
X1100613Y881243D01*
X1097600Y881640D01*
D02*
G37*
G36*
X1072200D02*
X1069187Y881243D01*
X1066380Y880080D01*
X1063970Y878230D01*
X1062120Y875820D01*
X1060957Y873013D01*
X1060561Y870000D01*
X1060957Y866988D01*
X1062120Y864180D01*
X1063970Y861770D01*
X1066380Y859920D01*
X1066552Y859849D01*
Y702525D01*
X1066080Y702330D01*
X1063670Y700480D01*
X1061820Y698070D01*
X1060657Y695263D01*
X1060260Y692250D01*
X1060657Y689238D01*
X1061820Y686430D01*
X1063670Y684020D01*
X1066080Y682170D01*
X1068887Y681007D01*
X1071900Y680610D01*
X1074913Y681007D01*
X1077720Y682170D01*
X1080130Y684020D01*
X1081980Y686430D01*
X1083143Y689238D01*
X1083540Y692250D01*
X1083143Y695263D01*
X1081980Y698070D01*
X1080130Y700480D01*
X1077849Y702231D01*
Y859849D01*
X1078020Y859920D01*
X1080430Y861770D01*
X1082280Y864180D01*
X1083443Y866988D01*
X1083840Y870000D01*
X1083443Y873013D01*
X1082280Y875820D01*
X1080430Y878230D01*
X1078020Y880080D01*
X1075213Y881243D01*
X1072200Y881640D01*
D02*
G37*
G36*
X1046800D02*
X1043788Y881243D01*
X1040980Y880080D01*
X1038570Y878230D01*
X1036720Y875820D01*
X1035557Y873013D01*
X1035161Y870000D01*
X1035557Y866988D01*
X1036720Y864180D01*
X1038570Y861770D01*
X1040980Y859920D01*
X1041152Y859849D01*
Y702525D01*
X1040680Y702330D01*
X1038270Y700480D01*
X1036420Y698070D01*
X1035257Y695263D01*
X1034861Y692250D01*
X1035257Y689238D01*
X1036420Y686430D01*
X1038270Y684020D01*
X1040680Y682170D01*
X1043487Y681007D01*
X1046500Y680610D01*
X1049513Y681007D01*
X1052320Y682170D01*
X1054730Y684020D01*
X1056580Y686430D01*
X1057743Y689238D01*
X1058140Y692250D01*
X1057743Y695263D01*
X1056580Y698070D01*
X1054730Y700480D01*
X1052449Y702231D01*
Y859849D01*
X1052620Y859920D01*
X1055030Y861770D01*
X1056880Y864180D01*
X1058043Y866988D01*
X1058440Y870000D01*
X1058043Y873013D01*
X1056880Y875820D01*
X1055030Y878230D01*
X1052620Y880080D01*
X1049813Y881243D01*
X1046800Y881640D01*
D02*
G37*
G36*
X870000Y1348111D02*
X865491Y1347667D01*
X861156Y1346352D01*
X857160Y1344216D01*
X853658Y1341342D01*
X850784Y1337840D01*
X848648Y1333844D01*
X847333Y1329509D01*
X846889Y1325000D01*
X847333Y1320491D01*
X848648Y1316156D01*
X850784Y1312160D01*
X853658Y1308658D01*
X857160Y1305784D01*
X861156Y1303648D01*
X865491Y1302333D01*
X870000Y1301889D01*
X874509Y1302333D01*
X878844Y1303648D01*
X882840Y1305784D01*
X886342Y1308658D01*
X889216Y1312160D01*
X891352Y1316156D01*
X892667Y1320491D01*
X893111Y1325000D01*
X892667Y1329509D01*
X891352Y1333844D01*
X889216Y1337840D01*
X886342Y1341342D01*
X882840Y1344216D01*
X878844Y1346352D01*
X874509Y1347667D01*
X870000Y1348111D01*
D02*
G37*
G36*
X875750Y1094740D02*
X872520D01*
Y1084420D01*
X882840D01*
Y1087650D01*
X882643Y1088641D01*
X882081Y1089481D01*
X877581Y1093981D01*
X876741Y1094543D01*
X875750Y1094740D01*
D02*
G37*
G36*
X869980D02*
X866750D01*
X865759Y1094543D01*
X864919Y1093981D01*
X860419Y1089481D01*
X859857Y1088641D01*
X859660Y1087650D01*
Y1084420D01*
X869980D01*
Y1094740D01*
D02*
G37*
G36*
X882840Y1081880D02*
X872520D01*
Y1071560D01*
X875750D01*
X876741Y1071758D01*
X877581Y1072319D01*
X882081Y1076819D01*
X882643Y1077659D01*
X882840Y1078650D01*
Y1081880D01*
D02*
G37*
G36*
X869980D02*
X859660D01*
Y1078650D01*
X859857Y1077659D01*
X860419Y1076819D01*
X864919Y1072319D01*
X865759Y1071758D01*
X866750Y1071560D01*
X869980D01*
Y1081880D01*
D02*
G37*
G36*
X871250Y1069854D02*
X868117Y1069441D01*
X865198Y1068232D01*
X862691Y1066309D01*
X860818Y1063868D01*
X819000D01*
X816659Y1063402D01*
X814674Y1062076D01*
X777924Y1025326D01*
X776598Y1023341D01*
X776133Y1021000D01*
Y913750D01*
X776598Y911409D01*
X777924Y909424D01*
X779909Y908098D01*
X782250Y907633D01*
X793390D01*
X793587Y907337D01*
X794579Y906674D01*
X795750Y906441D01*
X804250D01*
X805421Y906674D01*
X806413Y907337D01*
X807076Y908329D01*
X807309Y909500D01*
Y918000D01*
X807076Y919171D01*
X806413Y920163D01*
Y920444D01*
X807561Y921633D01*
X812034D01*
X812553Y921417D01*
X814250Y921194D01*
X815947Y921417D01*
X817528Y922072D01*
X818886Y923114D01*
X819928Y924472D01*
X820583Y926053D01*
X820806Y927750D01*
X820583Y929447D01*
X819928Y931028D01*
X818886Y932386D01*
X817528Y933428D01*
X815947Y934083D01*
X814250Y934306D01*
X812553Y934083D01*
X812034Y933868D01*
X806610D01*
X806413Y934163D01*
X805421Y934826D01*
X804942Y934921D01*
X805000Y936191D01*
X806171Y936424D01*
X807163Y937087D01*
X808337D01*
X809330Y936424D01*
X810500Y936191D01*
X819000D01*
X820171Y936424D01*
X821163Y937087D01*
X821360Y937383D01*
X823784D01*
X824303Y937167D01*
X826000Y936944D01*
X827697Y937167D01*
X829278Y937822D01*
X830636Y938864D01*
X831678Y940222D01*
X832333Y941803D01*
X832556Y943500D01*
X832333Y945197D01*
X831678Y946778D01*
X830636Y948136D01*
X829278Y949178D01*
X827697Y949833D01*
X826000Y950056D01*
X824303Y949833D01*
X823784Y949618D01*
X821360D01*
X821163Y949913D01*
X820171Y950576D01*
X819000Y950809D01*
X817817D01*
X817691Y952079D01*
X818170Y952174D01*
X819163Y952837D01*
X819360Y953132D01*
X823784D01*
X824303Y952917D01*
X826000Y952694D01*
X827697Y952917D01*
X829278Y953572D01*
X830636Y954614D01*
X831678Y955972D01*
X832333Y957553D01*
X832556Y959250D01*
X832333Y960947D01*
X831678Y962528D01*
X830636Y963886D01*
X829278Y964928D01*
X827697Y965583D01*
X826000Y965806D01*
X824303Y965583D01*
X823784Y965368D01*
X820291D01*
X819757Y966250D01*
X820291Y967132D01*
X862500D01*
X864841Y967598D01*
X866826Y968924D01*
X875576Y977674D01*
X876902Y979659D01*
X877368Y982000D01*
Y996519D01*
X879809Y998392D01*
X881732Y1000898D01*
X882941Y1003817D01*
X883354Y1006950D01*
X882941Y1010083D01*
X881732Y1013002D01*
X879809Y1015509D01*
X877302Y1017432D01*
X874383Y1018641D01*
X872155Y1018934D01*
X871584Y1019010D01*
Y1020291D01*
X872155Y1020366D01*
X874383Y1020659D01*
X877302Y1021868D01*
X879809Y1023792D01*
X881732Y1026298D01*
X882941Y1029217D01*
X883354Y1032350D01*
X882941Y1035483D01*
X881732Y1038402D01*
X879809Y1040909D01*
X877302Y1042832D01*
X874383Y1044041D01*
X872155Y1044334D01*
X871584Y1044410D01*
Y1045691D01*
X872155Y1045766D01*
X874383Y1046059D01*
X877302Y1047268D01*
X879809Y1049192D01*
X881732Y1051698D01*
X882941Y1054617D01*
X883354Y1057750D01*
X882941Y1060883D01*
X881732Y1063802D01*
X879809Y1066309D01*
X877302Y1068232D01*
X874383Y1069441D01*
X871250Y1069854D01*
D02*
G37*
G36*
X861500Y858306D02*
X859803Y858083D01*
X858222Y857428D01*
X856864Y856386D01*
X855822Y855028D01*
X855167Y853447D01*
X854944Y851750D01*
X855167Y850053D01*
X855383Y849534D01*
Y735784D01*
X831241Y711643D01*
X830722Y711428D01*
X829364Y710386D01*
X828322Y709028D01*
X827667Y707447D01*
X827444Y705750D01*
X827667Y704053D01*
X828322Y702472D01*
X829364Y701114D01*
X830722Y700072D01*
X832303Y699417D01*
X834000Y699194D01*
X835697Y699417D01*
X837278Y700072D01*
X838636Y701114D01*
X839678Y702472D01*
X839893Y702991D01*
X865826Y728924D01*
X867152Y730909D01*
X867617Y733250D01*
Y849534D01*
X867833Y850053D01*
X868056Y851750D01*
X867833Y853447D01*
X867178Y855028D01*
X866136Y856386D01*
X864778Y857428D01*
X863197Y858083D01*
X861500Y858306D01*
D02*
G37*
G36*
X930250Y1003806D02*
X928553Y1003583D01*
X926972Y1002928D01*
X925614Y1001886D01*
X924572Y1000528D01*
X924357Y1000009D01*
X918674Y994326D01*
X917348Y992341D01*
X916882Y990000D01*
Y761284D01*
X867241Y711643D01*
X866722Y711428D01*
X865364Y710386D01*
X864322Y709028D01*
X863667Y707447D01*
X863444Y705750D01*
X863667Y704053D01*
X864322Y702472D01*
X865364Y701114D01*
X866722Y700072D01*
X868303Y699417D01*
X870000Y699194D01*
X871697Y699417D01*
X873278Y700072D01*
X874636Y701114D01*
X875678Y702472D01*
X875893Y702991D01*
X927326Y754424D01*
X928652Y756409D01*
X929118Y758750D01*
Y987466D01*
X933009Y991357D01*
X933528Y991572D01*
X934886Y992614D01*
X935928Y993972D01*
X936583Y995553D01*
X936806Y997250D01*
X936583Y998947D01*
X935928Y1000528D01*
X934886Y1001886D01*
X933528Y1002928D01*
X931947Y1003583D01*
X930250Y1003806D01*
D02*
G37*
%LPD*%
G36*
X862691Y1023792D02*
X865198Y1021868D01*
X868117Y1020659D01*
X870345Y1020366D01*
X870916Y1020291D01*
Y1019010D01*
X870346Y1018934D01*
X868117Y1018641D01*
X865198Y1017432D01*
X862691Y1015509D01*
X860768Y1013002D01*
X859559Y1010083D01*
X859146Y1006950D01*
X859559Y1003817D01*
X860768Y1000898D01*
X862691Y998392D01*
X865133Y996519D01*
Y984534D01*
X859966Y979368D01*
X819360D01*
X819163Y979663D01*
X818170Y980326D01*
X817000Y980559D01*
X808500D01*
X808138Y980487D01*
X806868Y981429D01*
Y999216D01*
X833884Y1026233D01*
X860818D01*
X862691Y1023792D01*
D02*
G37*
G36*
Y1049192D02*
X865198Y1047268D01*
X868117Y1046059D01*
X870345Y1045766D01*
X870916Y1045691D01*
Y1044410D01*
X870346Y1044334D01*
X868117Y1044041D01*
X865198Y1042832D01*
X862691Y1040909D01*
X860818Y1038468D01*
X831350D01*
X829009Y1038002D01*
X827024Y1036676D01*
X796424Y1006076D01*
X795098Y1004091D01*
X794632Y1001750D01*
Y950110D01*
X794337Y949913D01*
X793674Y948921D01*
X793441Y947750D01*
Y939250D01*
X793674Y938080D01*
X794337Y937087D01*
X795329Y936424D01*
X795808Y936329D01*
X795750Y935059D01*
X794579Y934826D01*
X793587Y934163D01*
X792924Y933171D01*
X792691Y932000D01*
Y923500D01*
X792924Y922329D01*
X793587Y921337D01*
X793424Y919919D01*
X793390Y919868D01*
X788368D01*
Y1018466D01*
X821534Y1051633D01*
X860818D01*
X862691Y1049192D01*
D02*
G37*
%LPC*%
G36*
X1583400Y679340D02*
X1574400D01*
X1573409Y679143D01*
X1572569Y678581D01*
X1568069Y674081D01*
X1567507Y673241D01*
X1567310Y672250D01*
Y663250D01*
X1567507Y662259D01*
X1568069Y661419D01*
X1572569Y656919D01*
X1572952Y656663D01*
Y500151D01*
X1572780Y500080D01*
X1570370Y498230D01*
X1568520Y495820D01*
X1567357Y493013D01*
X1566960Y490000D01*
X1567357Y486987D01*
X1568520Y484180D01*
X1570370Y481770D01*
X1572780Y479920D01*
X1575587Y478757D01*
X1578600Y478360D01*
X1581613Y478757D01*
X1584420Y479920D01*
X1586830Y481770D01*
X1588680Y484180D01*
X1589843Y486987D01*
X1590240Y490000D01*
X1589843Y493013D01*
X1588680Y495820D01*
X1586830Y498230D01*
X1584420Y500080D01*
X1584249Y500151D01*
Y656329D01*
X1584391Y656357D01*
X1585231Y656919D01*
X1589731Y661419D01*
X1590293Y662259D01*
X1590490Y663250D01*
Y672250D01*
X1590293Y673241D01*
X1589731Y674081D01*
X1585231Y678581D01*
X1584391Y679143D01*
X1583400Y679340D01*
D02*
G37*
G36*
X1553500Y679390D02*
X1550488Y678993D01*
X1547680Y677830D01*
X1545270Y675980D01*
X1543420Y673570D01*
X1542257Y670763D01*
X1541860Y667750D01*
X1542257Y664737D01*
X1543420Y661930D01*
X1545270Y659520D01*
X1547552Y657769D01*
Y500151D01*
X1547380Y500080D01*
X1544970Y498230D01*
X1543120Y495820D01*
X1541957Y493013D01*
X1541560Y490000D01*
X1541957Y486987D01*
X1543120Y484180D01*
X1544970Y481770D01*
X1547380Y479920D01*
X1550188Y478757D01*
X1553200Y478360D01*
X1556212Y478757D01*
X1559020Y479920D01*
X1561430Y481770D01*
X1563280Y484180D01*
X1564443Y486987D01*
X1564839Y490000D01*
X1564443Y493013D01*
X1563280Y495820D01*
X1561430Y498230D01*
X1559020Y500080D01*
X1558849Y500151D01*
Y657475D01*
X1559320Y657670D01*
X1561730Y659520D01*
X1563580Y661930D01*
X1564743Y664737D01*
X1565139Y667750D01*
X1564743Y670763D01*
X1563580Y673570D01*
X1561730Y675980D01*
X1559320Y677830D01*
X1556512Y678993D01*
X1553500Y679390D01*
D02*
G37*
G36*
X1528100D02*
X1525087Y678993D01*
X1522280Y677830D01*
X1519870Y675980D01*
X1518020Y673570D01*
X1516857Y670763D01*
X1516460Y667750D01*
X1516857Y664737D01*
X1518020Y661930D01*
X1519870Y659520D01*
X1522151Y657769D01*
Y500151D01*
X1521980Y500080D01*
X1519570Y498230D01*
X1517720Y495820D01*
X1516557Y493013D01*
X1516160Y490000D01*
X1516557Y486987D01*
X1517720Y484180D01*
X1519570Y481770D01*
X1521980Y479920D01*
X1524787Y478757D01*
X1527800Y478360D01*
X1530813Y478757D01*
X1533620Y479920D01*
X1536030Y481770D01*
X1537880Y484180D01*
X1539043Y486987D01*
X1539440Y490000D01*
X1539043Y493013D01*
X1537880Y495820D01*
X1536030Y498230D01*
X1533620Y500080D01*
X1533448Y500151D01*
Y657475D01*
X1533920Y657670D01*
X1536330Y659520D01*
X1538180Y661930D01*
X1539343Y664737D01*
X1539740Y667750D01*
X1539343Y670763D01*
X1538180Y673570D01*
X1536330Y675980D01*
X1533920Y677830D01*
X1531113Y678993D01*
X1528100Y679390D01*
D02*
G37*
G36*
X1502700D02*
X1499688Y678993D01*
X1496880Y677830D01*
X1494470Y675980D01*
X1492620Y673570D01*
X1491457Y670763D01*
X1491060Y667750D01*
X1491457Y664737D01*
X1492620Y661930D01*
X1494470Y659520D01*
X1496752Y657769D01*
Y500151D01*
X1496580Y500080D01*
X1494170Y498230D01*
X1492320Y495820D01*
X1491157Y493013D01*
X1490760Y490000D01*
X1491157Y486987D01*
X1492320Y484180D01*
X1494170Y481770D01*
X1496580Y479920D01*
X1499388Y478757D01*
X1502400Y478360D01*
X1505412Y478757D01*
X1508220Y479920D01*
X1510630Y481770D01*
X1512480Y484180D01*
X1513643Y486987D01*
X1514039Y490000D01*
X1513643Y493013D01*
X1512480Y495820D01*
X1510630Y498230D01*
X1508220Y500080D01*
X1508049Y500151D01*
Y657475D01*
X1508520Y657670D01*
X1510930Y659520D01*
X1512780Y661930D01*
X1513943Y664737D01*
X1514339Y667750D01*
X1513943Y670763D01*
X1512780Y673570D01*
X1510930Y675980D01*
X1508520Y677830D01*
X1505712Y678993D01*
X1502700Y679390D01*
D02*
G37*
G36*
X1587858Y227639D02*
X1584585Y227208D01*
X1581534Y225944D01*
X1578915Y223934D01*
X1576905Y221314D01*
X1575846Y218758D01*
X1574471D01*
X1573412Y221314D01*
X1571402Y223934D01*
X1568782Y225944D01*
X1565732Y227208D01*
X1562458Y227639D01*
X1559185Y227208D01*
X1556134Y225944D01*
X1553515Y223934D01*
X1551505Y221314D01*
X1550918Y219898D01*
X1549648Y220151D01*
Y224990D01*
X1549451Y225981D01*
X1548889Y226822D01*
X1548049Y227383D01*
X1547058Y227580D01*
X1527058D01*
X1526067Y227383D01*
X1525227Y226822D01*
X1524666Y225981D01*
X1524469Y224990D01*
Y204990D01*
X1524666Y203999D01*
X1525227Y203159D01*
X1526067Y202598D01*
X1527058Y202401D01*
X1547058D01*
X1548049Y202598D01*
X1548889Y203159D01*
X1549451Y203999D01*
X1549648Y204990D01*
Y209830D01*
X1550918Y210082D01*
X1551505Y208666D01*
X1553515Y206047D01*
X1556134Y204037D01*
X1559185Y202773D01*
X1562458Y202342D01*
X1565732Y202773D01*
X1568782Y204037D01*
X1571402Y206047D01*
X1573412Y208666D01*
X1574471Y211223D01*
X1575846D01*
X1576905Y208666D01*
X1578915Y206047D01*
X1581534Y204037D01*
X1584585Y202773D01*
X1587858Y202342D01*
X1591132Y202773D01*
X1594182Y204037D01*
X1596802Y206047D01*
X1598812Y208666D01*
X1600076Y211717D01*
X1600506Y214990D01*
X1600076Y218264D01*
X1598812Y221314D01*
X1596802Y223934D01*
X1594182Y225944D01*
X1591132Y227208D01*
X1587858Y227639D01*
D02*
G37*
G36*
X1252458D02*
X1249185Y227208D01*
X1246134Y225944D01*
X1243515Y223934D01*
X1241505Y221314D01*
X1240446Y218758D01*
X1239071D01*
X1238012Y221314D01*
X1236002Y223934D01*
X1233382Y225944D01*
X1230332Y227208D01*
X1227058Y227639D01*
X1223785Y227208D01*
X1220734Y225944D01*
X1218115Y223934D01*
X1216105Y221314D01*
X1214841Y218264D01*
X1214410Y214990D01*
X1214841Y211717D01*
X1216105Y208666D01*
X1218115Y206047D01*
X1220734Y204037D01*
X1223785Y202773D01*
X1227058Y202342D01*
X1230332Y202773D01*
X1233382Y204037D01*
X1236002Y206047D01*
X1238012Y208666D01*
X1239071Y211223D01*
X1240446D01*
X1241505Y208666D01*
X1243515Y206047D01*
X1246134Y204037D01*
X1249185Y202773D01*
X1252458Y202342D01*
X1255732Y202773D01*
X1258782Y204037D01*
X1261402Y206047D01*
X1263412Y208666D01*
X1263998Y210082D01*
X1265268Y209830D01*
Y204990D01*
X1265466Y203999D01*
X1266027Y203159D01*
X1266867Y202598D01*
X1267858Y202401D01*
X1287858D01*
X1288849Y202598D01*
X1289689Y203159D01*
X1290251Y203999D01*
X1290448Y204990D01*
Y224990D01*
X1290251Y225981D01*
X1289689Y226822D01*
X1288849Y227383D01*
X1287858Y227580D01*
X1267858D01*
X1266867Y227383D01*
X1266027Y226822D01*
X1265466Y225981D01*
X1265268Y224990D01*
Y220151D01*
X1263998Y219898D01*
X1263412Y221314D01*
X1261402Y223934D01*
X1258782Y225944D01*
X1255732Y227208D01*
X1252458Y227639D01*
D02*
G37*
G36*
X1419858Y632630D02*
X1416846Y632233D01*
X1414039Y631071D01*
X1411628Y629221D01*
X1409778Y626810D01*
X1408615Y624003D01*
X1408219Y620990D01*
X1408615Y617978D01*
X1409778Y615171D01*
X1411628Y612760D01*
X1412553Y612050D01*
Y173290D01*
X1412812Y171322D01*
X1413257Y170248D01*
X1413572Y169488D01*
X1414781Y167913D01*
X1439081Y143613D01*
X1440656Y142404D01*
X1442490Y141644D01*
X1444458Y141385D01*
X1562458D01*
X1564427Y141644D01*
X1566261Y142404D01*
X1567836Y143613D01*
X1569044Y145188D01*
X1569804Y147022D01*
X1570063Y148990D01*
Y170020D01*
X1571402Y171047D01*
X1573412Y173666D01*
X1573999Y175082D01*
X1575269Y174830D01*
Y169990D01*
X1575466Y168999D01*
X1576027Y168159D01*
X1576867Y167598D01*
X1577858Y167401D01*
X1597858D01*
X1598849Y167598D01*
X1599689Y168159D01*
X1600251Y168999D01*
X1600448Y169990D01*
Y189990D01*
X1600251Y190981D01*
X1599689Y191822D01*
X1598849Y192383D01*
X1597858Y192580D01*
X1577858D01*
X1576867Y192383D01*
X1576027Y191822D01*
X1575466Y190981D01*
X1575269Y189990D01*
Y185151D01*
X1573999Y184898D01*
X1573412Y186315D01*
X1571402Y188934D01*
X1568782Y190944D01*
X1565732Y192208D01*
X1562458Y192639D01*
X1559185Y192208D01*
X1556134Y190944D01*
X1553515Y188934D01*
X1551505Y186315D01*
X1550446Y183758D01*
X1549071D01*
X1548012Y186315D01*
X1546002Y188934D01*
X1543382Y190944D01*
X1540332Y192208D01*
X1537058Y192639D01*
X1533785Y192208D01*
X1530734Y190944D01*
X1528115Y188934D01*
X1526105Y186315D01*
X1524841Y183264D01*
X1524410Y179990D01*
X1524841Y176717D01*
X1526105Y173666D01*
X1528115Y171047D01*
X1530734Y169037D01*
X1533785Y167773D01*
X1537058Y167342D01*
X1540332Y167773D01*
X1543382Y169037D01*
X1546002Y171047D01*
X1548012Y173666D01*
X1549071Y176223D01*
X1550446D01*
X1551505Y173666D01*
X1553515Y171047D01*
X1554853Y170020D01*
Y156595D01*
X1447608D01*
X1427763Y176441D01*
Y612510D01*
X1428089Y612760D01*
X1429938Y615171D01*
X1431101Y617978D01*
X1431498Y620990D01*
X1431101Y624003D01*
X1429938Y626810D01*
X1428089Y629221D01*
X1425678Y631071D01*
X1422871Y632233D01*
X1419858Y632630D01*
D02*
G37*
G36*
X1394458D02*
X1391446Y632233D01*
X1388638Y631071D01*
X1386228Y629221D01*
X1384378Y626810D01*
X1383215Y624003D01*
X1382819Y620990D01*
X1383215Y617978D01*
X1384378Y615171D01*
X1386228Y612760D01*
X1387153Y612050D01*
Y175441D01*
X1367308Y155595D01*
X1285463D01*
Y170020D01*
X1286802Y171047D01*
X1288812Y173666D01*
X1290076Y176717D01*
X1290506Y179990D01*
X1290076Y183264D01*
X1288812Y186315D01*
X1286802Y188934D01*
X1284182Y190944D01*
X1281132Y192208D01*
X1277858Y192639D01*
X1274585Y192208D01*
X1271534Y190944D01*
X1268915Y188934D01*
X1266905Y186315D01*
X1265846Y183758D01*
X1264471D01*
X1263412Y186315D01*
X1261402Y188934D01*
X1258782Y190944D01*
X1255732Y192208D01*
X1252458Y192639D01*
X1249185Y192208D01*
X1246134Y190944D01*
X1243515Y188934D01*
X1241505Y186315D01*
X1240918Y184898D01*
X1239648Y185151D01*
Y189990D01*
X1239451Y190981D01*
X1238889Y191822D01*
X1238049Y192383D01*
X1237058Y192580D01*
X1217058D01*
X1216067Y192383D01*
X1215227Y191822D01*
X1214666Y190981D01*
X1214469Y189990D01*
Y169990D01*
X1214666Y168999D01*
X1215227Y168159D01*
X1216067Y167598D01*
X1217058Y167401D01*
X1237058D01*
X1238049Y167598D01*
X1238889Y168159D01*
X1239451Y168999D01*
X1239648Y169990D01*
Y174830D01*
X1240918Y175082D01*
X1241505Y173666D01*
X1243515Y171047D01*
X1246134Y169037D01*
X1249185Y167773D01*
X1252458Y167342D01*
X1255732Y167773D01*
X1258782Y169037D01*
X1261402Y171047D01*
X1263412Y173666D01*
X1264471Y176223D01*
X1265846D01*
X1266905Y173666D01*
X1268915Y171047D01*
X1270253Y170020D01*
Y149590D01*
X1270512Y147622D01*
X1270957Y146548D01*
X1271272Y145788D01*
X1272481Y144213D01*
X1274081Y142613D01*
X1275656Y141404D01*
X1277490Y140644D01*
X1279458Y140385D01*
X1370458D01*
X1372427Y140644D01*
X1373501Y141089D01*
X1374261Y141404D01*
X1375836Y142613D01*
X1400136Y166913D01*
X1401344Y168488D01*
X1402104Y170322D01*
X1402363Y172290D01*
Y612510D01*
X1402689Y612760D01*
X1404538Y615171D01*
X1405701Y617978D01*
X1406098Y620990D01*
X1405701Y624003D01*
X1404538Y626810D01*
X1402689Y629221D01*
X1400278Y631071D01*
X1397471Y632233D01*
X1394458Y632630D01*
D02*
G37*
G36*
X1110000Y623102D02*
X1104822Y622695D01*
X1099771Y621482D01*
X1094972Y619494D01*
X1090543Y616780D01*
X1086593Y613407D01*
X1083220Y609457D01*
X1080506Y605028D01*
X1078518Y600229D01*
X1077306Y595178D01*
X1076898Y590000D01*
X1077306Y584822D01*
X1078518Y579771D01*
X1080506Y574972D01*
X1083220Y570543D01*
X1086593Y566593D01*
X1090543Y563220D01*
X1094972Y560506D01*
X1099771Y558518D01*
X1104822Y557305D01*
X1110000Y556898D01*
X1115178Y557305D01*
X1120229Y558518D01*
X1125028Y560506D01*
X1129457Y563220D01*
X1133407Y566593D01*
X1136780Y570543D01*
X1139494Y574972D01*
X1141482Y579771D01*
X1142694Y584822D01*
X1143102Y590000D01*
X1142694Y595178D01*
X1141482Y600229D01*
X1139494Y605028D01*
X1136780Y609457D01*
X1133407Y613407D01*
X1129457Y616780D01*
X1125028Y619494D01*
X1120229Y621482D01*
X1115178Y622695D01*
X1110000Y623102D01*
D02*
G37*
G36*
X650000D02*
X644822Y622695D01*
X639771Y621482D01*
X634972Y619494D01*
X630543Y616780D01*
X626593Y613407D01*
X623220Y609457D01*
X620506Y605028D01*
X618518Y600229D01*
X617305Y595178D01*
X616898Y590000D01*
X617305Y584822D01*
X618518Y579771D01*
X620506Y574972D01*
X623220Y570543D01*
X626593Y566593D01*
X630543Y563220D01*
X634972Y560506D01*
X639771Y558518D01*
X644822Y557305D01*
X650000Y556898D01*
X655178Y557305D01*
X660229Y558518D01*
X665028Y560506D01*
X669457Y563220D01*
X673407Y566593D01*
X676780Y570543D01*
X679494Y574972D01*
X681482Y579771D01*
X682694Y584822D01*
X683102Y590000D01*
X682694Y595178D01*
X681482Y600229D01*
X679494Y605028D01*
X676780Y609457D01*
X673407Y613407D01*
X669457Y616780D01*
X665028Y619494D01*
X660229Y621482D01*
X655178Y622695D01*
X650000Y623102D01*
D02*
G37*
G36*
X1049347Y484088D02*
X1048153D01*
X1046397Y483739D01*
X1045295Y483282D01*
X1043806Y482288D01*
X1042962Y481444D01*
X1041968Y479955D01*
X1041511Y478853D01*
X1041162Y477097D01*
Y476796D01*
X1041103Y476500D01*
X1041162Y476204D01*
Y475903D01*
X1041511Y474147D01*
X1041968Y473045D01*
X1042962Y471556D01*
X1043806Y470712D01*
X1045295Y469718D01*
X1046397Y469261D01*
X1048153Y468912D01*
X1049347D01*
X1051103Y469261D01*
X1052205Y469718D01*
X1053694Y470712D01*
X1054538Y471556D01*
X1055532Y473045D01*
X1055989Y474147D01*
X1056338Y475903D01*
Y476204D01*
X1056397Y476500D01*
X1056338Y476796D01*
Y477097D01*
X1055989Y478853D01*
X1055532Y479955D01*
X1054538Y481444D01*
X1053694Y482288D01*
X1052205Y483282D01*
X1051103Y483739D01*
X1049347Y484088D01*
D02*
G37*
G36*
X707500Y491909D02*
X706329Y491676D01*
X705337Y491013D01*
X700837Y486513D01*
X700174Y485521D01*
X699941Y484350D01*
Y476443D01*
X672174Y448676D01*
X670848Y446691D01*
X670383Y444350D01*
Y313150D01*
Y182000D01*
X670848Y179659D01*
X672174Y177674D01*
X734174Y115674D01*
X736159Y114348D01*
X738500Y113883D01*
X830373D01*
X830737Y113337D01*
X835237Y108837D01*
X836229Y108174D01*
X837400Y107941D01*
X843833D01*
X844441Y107200D01*
Y87200D01*
X844674Y86030D01*
X845337Y85037D01*
X846329Y84374D01*
X847500Y84141D01*
X912500D01*
X913671Y84374D01*
X914663Y85037D01*
X915326Y86030D01*
X915559Y87200D01*
Y106950D01*
X916351Y108046D01*
X916418Y108118D01*
X918100Y107896D01*
X921233Y108309D01*
X924152Y109518D01*
X926658Y111441D01*
X928582Y113948D01*
X929791Y116867D01*
X930203Y120000D01*
X929791Y123133D01*
X928582Y126052D01*
X926658Y128559D01*
X924152Y130482D01*
X921233Y131691D01*
X918100Y132104D01*
X914967Y131691D01*
X912048Y130482D01*
X909541Y128559D01*
X907618Y126052D01*
X906409Y123133D01*
X906116Y120905D01*
X906040Y120334D01*
X904760D01*
X904684Y120905D01*
X904391Y123133D01*
X903182Y126052D01*
X901258Y128559D01*
X898752Y130482D01*
X895833Y131691D01*
X892700Y132104D01*
X889567Y131691D01*
X886648Y130482D01*
X884141Y128559D01*
X882218Y126052D01*
X881009Y123133D01*
X880716Y120905D01*
X880640Y120334D01*
X879360D01*
X879284Y120905D01*
X878991Y123133D01*
X877782Y126052D01*
X875859Y128559D01*
X873352Y130482D01*
X870433Y131691D01*
X867300Y132104D01*
X864167Y131691D01*
X861248Y130482D01*
X858742Y128559D01*
X856818Y126052D01*
X855609Y123133D01*
X855362Y121255D01*
X854656Y120910D01*
X854029Y120862D01*
X853959Y120944D01*
Y124500D01*
X853959Y124500D01*
X853726Y125670D01*
X853063Y126663D01*
X848563Y131163D01*
X847570Y131826D01*
X846400Y132059D01*
X837400D01*
X837400Y132059D01*
X836229Y131826D01*
X835237Y131163D01*
X830737Y126663D01*
X830373Y126118D01*
X741034D01*
X682618Y184534D01*
Y296722D01*
X683791Y297208D01*
X700441Y280557D01*
Y272650D01*
X700441Y272650D01*
X700674Y271479D01*
X701337Y270487D01*
X705837Y265987D01*
X706830Y265324D01*
X708000Y265091D01*
X712171D01*
X712255Y263821D01*
X711538Y263727D01*
X709367Y263441D01*
X706448Y262232D01*
X703941Y260308D01*
X702018Y257802D01*
X700809Y254883D01*
X700396Y251750D01*
X700809Y248617D01*
X702018Y245698D01*
X703941Y243192D01*
X706448Y241268D01*
X709367Y240059D01*
X711595Y239766D01*
X712166Y239690D01*
Y238410D01*
X711596Y238334D01*
X709367Y238041D01*
X706448Y236832D01*
X703941Y234909D01*
X702018Y232402D01*
X700809Y229483D01*
X700396Y226350D01*
X700809Y223217D01*
X702018Y220298D01*
X703941Y217792D01*
X706448Y215868D01*
X709367Y214659D01*
X711595Y214366D01*
X712166Y214291D01*
Y213010D01*
X711596Y212934D01*
X709367Y212641D01*
X706448Y211432D01*
X703941Y209508D01*
X702018Y207002D01*
X700809Y204083D01*
X700396Y200950D01*
X700809Y197817D01*
X702018Y194898D01*
X703941Y192391D01*
X706448Y190468D01*
X709367Y189259D01*
X712500Y188846D01*
X715633Y189259D01*
X718552Y190468D01*
X721059Y192391D01*
X722932Y194832D01*
X1097760D01*
X1099442Y192642D01*
X1101948Y190718D01*
X1104867Y189509D01*
X1108000Y189097D01*
X1111133Y189509D01*
X1114052Y190718D01*
X1116559Y192642D01*
X1118482Y195148D01*
X1119691Y198067D01*
X1120104Y201200D01*
X1119691Y204333D01*
X1118482Y207252D01*
X1116559Y209758D01*
X1114052Y211682D01*
X1111133Y212891D01*
X1108905Y213184D01*
X1108334Y213260D01*
Y214540D01*
X1108905Y214616D01*
X1111133Y214909D01*
X1114052Y216118D01*
X1116559Y218041D01*
X1118482Y220548D01*
X1119691Y223467D01*
X1120104Y226600D01*
X1119691Y229733D01*
X1118482Y232652D01*
X1116559Y235159D01*
X1114052Y237082D01*
X1111133Y238291D01*
X1108905Y238584D01*
X1108334Y238660D01*
Y239940D01*
X1108905Y240016D01*
X1111133Y240309D01*
X1114052Y241518D01*
X1116559Y243442D01*
X1118482Y245948D01*
X1119691Y248867D01*
X1120104Y252000D01*
X1119691Y255133D01*
X1118482Y258052D01*
X1116559Y260558D01*
X1114052Y262482D01*
X1111133Y263691D01*
X1108905Y263984D01*
X1108334Y264060D01*
Y265340D01*
X1108905Y265416D01*
X1111133Y265709D01*
X1114052Y266918D01*
X1116559Y268841D01*
X1118482Y271348D01*
X1119691Y274267D01*
X1120104Y277400D01*
X1119691Y280533D01*
X1118482Y283452D01*
X1116559Y285958D01*
X1114052Y287882D01*
X1111133Y289091D01*
X1108000Y289503D01*
X1104867Y289091D01*
X1101948Y287882D01*
X1099442Y285958D01*
X1097518Y283452D01*
X1096309Y280533D01*
X1095897Y277400D01*
X1096309Y274267D01*
X1097518Y271348D01*
X1099442Y268841D01*
X1101948Y266918D01*
X1104867Y265709D01*
X1107095Y265416D01*
X1107666Y265340D01*
Y264060D01*
X1107095Y263984D01*
X1104867Y263691D01*
X1101948Y262482D01*
X1099442Y260558D01*
X1097518Y258052D01*
X1096309Y255133D01*
X1095897Y252000D01*
X1096309Y248867D01*
X1097518Y245948D01*
X1099442Y243442D01*
X1101948Y241518D01*
X1104867Y240309D01*
X1107095Y240016D01*
X1107666Y239940D01*
Y238660D01*
X1107095Y238584D01*
X1104867Y238291D01*
X1101948Y237082D01*
X1099442Y235159D01*
X1097518Y232652D01*
X1096309Y229733D01*
X1095897Y226600D01*
X1096309Y223467D01*
X1097518Y220548D01*
X1099442Y218041D01*
X1101948Y216118D01*
X1104867Y214909D01*
X1107095Y214616D01*
X1107666Y214540D01*
Y213260D01*
X1107095Y213184D01*
X1104867Y212891D01*
X1101948Y211682D01*
X1099442Y209758D01*
X1097518Y207252D01*
X1097442Y207068D01*
X722932D01*
X721059Y209508D01*
X718552Y211432D01*
X715633Y212641D01*
X713405Y212934D01*
X712834Y213010D01*
Y214291D01*
X713405Y214366D01*
X715633Y214659D01*
X718552Y215868D01*
X721059Y217792D01*
X722982Y220298D01*
X724191Y223217D01*
X724604Y226350D01*
X724191Y229483D01*
X722982Y232402D01*
X721059Y234909D01*
X718552Y236832D01*
X715633Y238041D01*
X713405Y238334D01*
X712834Y238410D01*
Y239690D01*
X713405Y239766D01*
X715633Y240059D01*
X718552Y241268D01*
X721059Y243192D01*
X722982Y245698D01*
X724191Y248617D01*
X724604Y251750D01*
X724191Y254883D01*
X722982Y257802D01*
X721059Y260308D01*
X718552Y262232D01*
X715633Y263441D01*
X713462Y263727D01*
X712745Y263821D01*
X712829Y265091D01*
X717000D01*
X717000Y265091D01*
X718170Y265324D01*
X719163Y265987D01*
X723663Y270487D01*
X724326Y271479D01*
X724559Y272650D01*
Y281650D01*
X724559Y281650D01*
X724326Y282820D01*
X723663Y283813D01*
X719163Y288313D01*
X718170Y288976D01*
X717000Y289209D01*
X709093D01*
X682618Y315684D01*
Y441816D01*
X699323Y458522D01*
X700400Y457802D01*
X700309Y457583D01*
X699896Y454450D01*
X700309Y451317D01*
X701518Y448398D01*
X703441Y445891D01*
X705948Y443968D01*
X708867Y442759D01*
X711095Y442466D01*
X711666Y442391D01*
Y441110D01*
X711096Y441034D01*
X708867Y440741D01*
X705948Y439532D01*
X703441Y437608D01*
X701518Y435102D01*
X700309Y432183D01*
X699896Y429050D01*
X700309Y425917D01*
X701518Y422998D01*
X703441Y420491D01*
X705948Y418568D01*
X708867Y417359D01*
X711095Y417066D01*
X711666Y416991D01*
Y415710D01*
X711096Y415634D01*
X708867Y415341D01*
X705948Y414132D01*
X703441Y412209D01*
X701518Y409702D01*
X700309Y406783D01*
X699896Y403650D01*
X700309Y400517D01*
X701518Y397598D01*
X703441Y395092D01*
X705948Y393168D01*
X708867Y391959D01*
X712000Y391547D01*
X715133Y391959D01*
X718052Y393168D01*
X720558Y395092D01*
X722482Y397598D01*
X723691Y400517D01*
X724104Y403650D01*
X723691Y406783D01*
X722482Y409702D01*
X720558Y412209D01*
X718052Y414132D01*
X715133Y415341D01*
X712905Y415634D01*
X712334Y415710D01*
Y416991D01*
X712905Y417066D01*
X715133Y417359D01*
X718052Y418568D01*
X720558Y420491D01*
X722482Y422998D01*
X723691Y425917D01*
X724104Y429050D01*
X723691Y432183D01*
X722482Y435102D01*
X720558Y437608D01*
X718052Y439532D01*
X715133Y440741D01*
X712905Y441034D01*
X712334Y441110D01*
Y442391D01*
X712905Y442466D01*
X715133Y442759D01*
X718052Y443968D01*
X720558Y445891D01*
X722482Y448398D01*
X723691Y451317D01*
X724104Y454450D01*
X723691Y457583D01*
X722482Y460502D01*
X720558Y463008D01*
X718052Y464932D01*
X715133Y466141D01*
X713255Y466388D01*
X712910Y467094D01*
X712862Y467721D01*
X712944Y467791D01*
X716500D01*
X716500Y467791D01*
X717671Y468024D01*
X718663Y468687D01*
X723163Y473187D01*
X723826Y474179D01*
X724059Y475350D01*
Y484350D01*
X724059Y484350D01*
X723826Y485521D01*
X723163Y486513D01*
X718663Y491013D01*
X717671Y491676D01*
X716500Y491909D01*
X707500D01*
X707500Y491909D01*
D02*
G37*
G36*
X1049347Y454088D02*
X1048153D01*
X1046397Y453739D01*
X1045295Y453282D01*
X1043806Y452288D01*
X1042962Y451444D01*
X1041968Y449955D01*
X1041511Y448853D01*
X1041162Y447097D01*
Y446796D01*
X1041103Y446500D01*
X1041162Y446204D01*
Y445903D01*
X1041511Y444147D01*
X1041968Y443045D01*
X1042962Y441556D01*
X1043806Y440712D01*
X1045295Y439718D01*
X1046397Y439261D01*
X1048153Y438912D01*
X1049347D01*
X1051103Y439261D01*
X1052205Y439718D01*
X1053694Y440712D01*
X1054538Y441556D01*
X1055532Y443045D01*
X1055989Y444147D01*
X1056338Y445903D01*
Y446204D01*
X1056397Y446500D01*
X1056338Y446796D01*
Y447097D01*
X1055989Y448853D01*
X1055532Y449955D01*
X1054538Y451444D01*
X1053694Y452288D01*
X1052205Y453282D01*
X1051103Y453739D01*
X1049347Y454088D01*
D02*
G37*
G36*
X965000Y448111D02*
X960491Y447667D01*
X956156Y446352D01*
X952160Y444216D01*
X948658Y441342D01*
X945784Y437840D01*
X943648Y433844D01*
X942333Y429509D01*
X941889Y425000D01*
X942333Y420491D01*
X943648Y416156D01*
X945784Y412160D01*
X948658Y408658D01*
X952160Y405784D01*
X956156Y403648D01*
X960491Y402333D01*
X965000Y401889D01*
X969509Y402333D01*
X973844Y403648D01*
X977840Y405784D01*
X981342Y408658D01*
X984216Y412160D01*
X986352Y416156D01*
X987667Y420491D01*
X988111Y425000D01*
X987667Y429509D01*
X986352Y433844D01*
X984216Y437840D01*
X981342Y441342D01*
X977840Y444216D01*
X973844Y446352D01*
X969509Y447667D01*
X965000Y448111D01*
D02*
G37*
G36*
X795000D02*
X790491Y447667D01*
X786156Y446352D01*
X782160Y444216D01*
X778658Y441342D01*
X775784Y437840D01*
X773648Y433844D01*
X772333Y429509D01*
X771889Y425000D01*
X772333Y420491D01*
X773648Y416156D01*
X775784Y412160D01*
X778658Y408658D01*
X782160Y405784D01*
X786156Y403648D01*
X790491Y402333D01*
X795000Y401889D01*
X799509Y402333D01*
X803844Y403648D01*
X807840Y405784D01*
X811342Y408658D01*
X814216Y412160D01*
X816352Y416156D01*
X817667Y420491D01*
X818111Y425000D01*
X817667Y429509D01*
X816352Y433844D01*
X814216Y437840D01*
X811342Y441342D01*
X807840Y444216D01*
X803844Y446352D01*
X799509Y447667D01*
X795000Y448111D01*
D02*
G37*
G36*
X1107250Y492154D02*
X1104117Y491741D01*
X1101198Y490532D01*
X1098691Y488609D01*
X1096768Y486102D01*
X1095559Y483183D01*
X1095146Y480050D01*
X1095559Y476917D01*
X1096768Y473998D01*
X1098691Y471492D01*
X1101198Y469568D01*
X1104117Y468359D01*
X1106345Y468066D01*
X1106916Y467990D01*
Y466710D01*
X1106345Y466634D01*
X1104117Y466341D01*
X1101198Y465132D01*
X1098691Y463209D01*
X1096768Y460702D01*
X1095559Y457783D01*
X1095146Y454650D01*
X1095559Y451517D01*
X1096768Y448598D01*
X1098691Y446091D01*
X1101133Y444218D01*
Y439682D01*
X1098691Y437808D01*
X1096768Y435302D01*
X1095559Y432383D01*
X1095146Y429250D01*
X1095559Y426117D01*
X1096768Y423198D01*
X1098691Y420691D01*
X1101133Y418819D01*
Y414282D01*
X1098691Y412408D01*
X1096768Y409902D01*
X1095559Y406983D01*
X1095146Y403850D01*
X1095559Y400717D01*
X1096768Y397798D01*
X1098691Y395291D01*
X1101198Y393368D01*
X1104117Y392159D01*
X1107250Y391746D01*
X1110383Y392159D01*
X1113302Y393368D01*
X1115808Y395291D01*
X1117732Y397798D01*
X1118941Y400717D01*
X1119353Y403850D01*
X1118941Y406983D01*
X1117732Y409902D01*
X1115808Y412408D01*
X1113367Y414282D01*
Y418819D01*
X1115808Y420691D01*
X1117732Y423198D01*
X1118941Y426117D01*
X1119353Y429250D01*
X1118941Y432383D01*
X1117732Y435302D01*
X1115808Y437808D01*
X1113367Y439682D01*
Y444218D01*
X1115808Y446091D01*
X1117732Y448598D01*
X1118941Y451517D01*
X1119353Y454650D01*
X1118941Y457783D01*
X1117732Y460702D01*
X1115808Y463209D01*
X1113302Y465132D01*
X1110383Y466341D01*
X1108155Y466634D01*
X1107584Y466710D01*
Y467990D01*
X1108155Y468066D01*
X1110383Y468359D01*
X1113302Y469568D01*
X1115808Y471492D01*
X1117732Y473998D01*
X1118941Y476917D01*
X1119353Y480050D01*
X1118941Y483183D01*
X1117732Y486102D01*
X1115808Y488609D01*
X1113302Y490532D01*
X1110383Y491741D01*
X1107250Y492154D01*
D02*
G37*
G36*
X1000250Y490056D02*
X998553Y489833D01*
X996972Y489178D01*
X995614Y488136D01*
X994572Y486778D01*
X993917Y485197D01*
X993694Y483500D01*
X993917Y481803D01*
X994133Y481284D01*
Y408000D01*
X994598Y405659D01*
X995924Y403674D01*
X1005632Y393966D01*
Y362466D01*
X1005417Y361947D01*
X1005194Y360250D01*
X1005417Y358553D01*
X1006072Y356972D01*
X1007114Y355614D01*
X1008472Y354572D01*
X1010053Y353917D01*
X1011750Y353694D01*
X1013447Y353917D01*
X1015028Y354572D01*
X1016386Y355614D01*
X1017428Y356972D01*
X1018083Y358553D01*
X1018306Y360250D01*
X1018083Y361947D01*
X1017868Y362466D01*
Y396500D01*
X1017402Y398841D01*
X1016076Y400826D01*
X1006368Y410534D01*
Y481284D01*
X1006583Y481803D01*
X1006806Y483500D01*
X1006583Y485197D01*
X1005928Y486778D01*
X1004886Y488136D01*
X1003528Y489178D01*
X1001947Y489833D01*
X1000250Y490056D01*
D02*
G37*
G36*
X965000Y278111D02*
X960491Y277667D01*
X956156Y276352D01*
X952160Y274216D01*
X948658Y271342D01*
X945784Y267840D01*
X943648Y263844D01*
X942333Y259509D01*
X941889Y255000D01*
X942333Y250491D01*
X943648Y246156D01*
X945784Y242160D01*
X948658Y238658D01*
X952160Y235784D01*
X956156Y233648D01*
X960491Y232333D01*
X965000Y231889D01*
X969509Y232333D01*
X973844Y233648D01*
X977840Y235784D01*
X981342Y238658D01*
X984216Y242160D01*
X986352Y246156D01*
X987667Y250491D01*
X988111Y255000D01*
X987667Y259509D01*
X986352Y263844D01*
X984216Y267840D01*
X981342Y271342D01*
X977840Y274216D01*
X973844Y276352D01*
X969509Y277667D01*
X965000Y278111D01*
D02*
G37*
G36*
X795000D02*
X790491Y277667D01*
X786156Y276352D01*
X782160Y274216D01*
X778658Y271342D01*
X775784Y267840D01*
X773648Y263844D01*
X772333Y259509D01*
X771889Y255000D01*
X772333Y250491D01*
X773648Y246156D01*
X775784Y242160D01*
X778658Y238658D01*
X782160Y235784D01*
X786156Y233648D01*
X790491Y232333D01*
X795000Y231889D01*
X799509Y232333D01*
X803844Y233648D01*
X807840Y235784D01*
X811342Y238658D01*
X814216Y242160D01*
X816352Y246156D01*
X817667Y250491D01*
X818111Y255000D01*
X817667Y259509D01*
X816352Y263844D01*
X814216Y267840D01*
X811342Y271342D01*
X807840Y274216D01*
X803844Y276352D01*
X799509Y277667D01*
X795000Y278111D01*
D02*
G37*
G36*
X1110000Y123102D02*
X1104822Y122695D01*
X1099771Y121482D01*
X1094972Y119494D01*
X1090543Y116780D01*
X1086593Y113407D01*
X1083220Y109457D01*
X1080506Y105028D01*
X1078518Y100229D01*
X1077306Y95178D01*
X1076898Y90000D01*
X1077306Y84822D01*
X1078518Y79771D01*
X1080506Y74972D01*
X1083220Y70543D01*
X1086593Y66593D01*
X1090543Y63220D01*
X1094972Y60506D01*
X1099771Y58518D01*
X1104822Y57305D01*
X1110000Y56898D01*
X1115178Y57305D01*
X1120229Y58518D01*
X1125028Y60506D01*
X1129457Y63220D01*
X1133407Y66593D01*
X1136780Y70543D01*
X1139494Y74972D01*
X1141482Y79771D01*
X1142694Y84822D01*
X1143102Y90000D01*
X1142694Y95178D01*
X1141482Y100229D01*
X1139494Y105028D01*
X1136780Y109457D01*
X1133407Y113407D01*
X1129457Y116780D01*
X1125028Y119494D01*
X1120229Y121482D01*
X1115178Y122695D01*
X1110000Y123102D01*
D02*
G37*
G36*
X650000D02*
X644822Y122695D01*
X639771Y121482D01*
X634972Y119494D01*
X630543Y116780D01*
X626593Y113407D01*
X623220Y109457D01*
X620506Y105028D01*
X618518Y100229D01*
X617305Y95178D01*
X616898Y90000D01*
X617305Y84822D01*
X618518Y79771D01*
X620506Y74972D01*
X623220Y70543D01*
X626593Y66593D01*
X630543Y63220D01*
X634972Y60506D01*
X639771Y58518D01*
X644822Y57305D01*
X650000Y56898D01*
X655178Y57305D01*
X660229Y58518D01*
X665028Y60506D01*
X669457Y63220D01*
X673407Y66593D01*
X676780Y70543D01*
X679494Y74972D01*
X681482Y79771D01*
X682694Y84822D01*
X683102Y90000D01*
X682694Y95178D01*
X681482Y100229D01*
X679494Y105028D01*
X676780Y109457D01*
X673407Y113407D01*
X669457Y116780D01*
X665028Y119494D01*
X660229Y121482D01*
X655178Y122695D01*
X650000Y123102D01*
D02*
G37*
G36*
X550000Y623102D02*
X544822Y622695D01*
X539771Y621482D01*
X534972Y619494D01*
X530543Y616780D01*
X526593Y613407D01*
X523220Y609457D01*
X520506Y605028D01*
X518518Y600229D01*
X517306Y595178D01*
X516898Y590000D01*
X517306Y584822D01*
X518518Y579771D01*
X520506Y574972D01*
X523220Y570543D01*
X526593Y566593D01*
X530543Y563220D01*
X534972Y560506D01*
X539771Y558518D01*
X544822Y557305D01*
X550000Y556898D01*
X555178Y557305D01*
X560229Y558518D01*
X565028Y560506D01*
X569457Y563220D01*
X573407Y566593D01*
X576780Y570543D01*
X579494Y574972D01*
X581482Y579771D01*
X582695Y584822D01*
X583102Y590000D01*
X582695Y595178D01*
X581482Y600229D01*
X579494Y605028D01*
X576780Y609457D01*
X573407Y613407D01*
X569457Y616780D01*
X565028Y619494D01*
X560229Y621482D01*
X555178Y622695D01*
X550000Y623102D01*
D02*
G37*
G36*
X90000D02*
X84822Y622695D01*
X79771Y621482D01*
X74972Y619494D01*
X70543Y616780D01*
X66593Y613407D01*
X63220Y609457D01*
X60506Y605028D01*
X58518Y600229D01*
X57306Y595178D01*
X56898Y590000D01*
X57306Y584822D01*
X58518Y579771D01*
X60506Y574972D01*
X63220Y570543D01*
X66593Y566593D01*
X70543Y563220D01*
X74972Y560506D01*
X79771Y558518D01*
X84822Y557305D01*
X90000Y556898D01*
X95178Y557305D01*
X100229Y558518D01*
X105028Y560506D01*
X109457Y563220D01*
X113407Y566593D01*
X116780Y570543D01*
X119494Y574972D01*
X121482Y579771D01*
X122695Y584822D01*
X123102Y590000D01*
X122695Y595178D01*
X121482Y600229D01*
X119494Y605028D01*
X116780Y609457D01*
X113407Y613407D01*
X109457Y616780D01*
X105028Y619494D01*
X100229Y621482D01*
X95178Y622695D01*
X90000Y623102D01*
D02*
G37*
G36*
X415000Y448111D02*
X410491Y447667D01*
X406156Y446352D01*
X402160Y444216D01*
X398658Y441342D01*
X395784Y437840D01*
X393648Y433844D01*
X392333Y429509D01*
X391889Y425000D01*
X392333Y420491D01*
X393648Y416156D01*
X395784Y412160D01*
X398658Y408658D01*
X402160Y405784D01*
X406156Y403648D01*
X410491Y402333D01*
X415000Y401889D01*
X419509Y402333D01*
X423844Y403648D01*
X427840Y405784D01*
X431342Y408658D01*
X434216Y412160D01*
X436352Y416156D01*
X437667Y420491D01*
X438111Y425000D01*
X437667Y429509D01*
X436352Y433844D01*
X434216Y437840D01*
X431342Y441342D01*
X427840Y444216D01*
X423844Y446352D01*
X419509Y447667D01*
X415000Y448111D01*
D02*
G37*
G36*
X245000D02*
X240491Y447667D01*
X236156Y446352D01*
X232160Y444216D01*
X228658Y441342D01*
X225784Y437840D01*
X223648Y433844D01*
X222333Y429509D01*
X221889Y425000D01*
X222333Y420491D01*
X223648Y416156D01*
X225784Y412160D01*
X228658Y408658D01*
X232160Y405784D01*
X236156Y403648D01*
X240491Y402333D01*
X245000Y401889D01*
X249509Y402333D01*
X253844Y403648D01*
X257840Y405784D01*
X261342Y408658D01*
X264216Y412160D01*
X266352Y416156D01*
X267667Y420491D01*
X268111Y425000D01*
X267667Y429509D01*
X266352Y433844D01*
X264216Y437840D01*
X261342Y441342D01*
X257840Y444216D01*
X253844Y446352D01*
X249509Y447667D01*
X245000Y448111D01*
D02*
G37*
G36*
X147500Y385409D02*
X146329Y385176D01*
X145337Y384513D01*
X140837Y380013D01*
X140174Y379021D01*
X139941Y377850D01*
Y368850D01*
X139941Y368850D01*
X140174Y367679D01*
X140837Y366687D01*
X145337Y362187D01*
X146329Y361524D01*
X147500Y361291D01*
X151672D01*
X151755Y360021D01*
X151038Y359927D01*
X148867Y359641D01*
X145948Y358432D01*
X143442Y356508D01*
X141518Y354002D01*
X140309Y351083D01*
X139896Y347950D01*
X140309Y344817D01*
X141518Y341898D01*
X143442Y339392D01*
X145948Y337468D01*
X148867Y336259D01*
X151095Y335966D01*
X151666Y335890D01*
Y334610D01*
X151096Y334534D01*
X148867Y334241D01*
X145948Y333032D01*
X143442Y331109D01*
X141518Y328602D01*
X140309Y325683D01*
X139896Y322550D01*
X140309Y319417D01*
X141518Y316498D01*
X143442Y313992D01*
X145948Y312068D01*
X148867Y310859D01*
X151095Y310566D01*
X151666Y310490D01*
Y309210D01*
X151096Y309134D01*
X148867Y308841D01*
X145948Y307632D01*
X143442Y305709D01*
X141518Y303202D01*
X140309Y300283D01*
X139896Y297150D01*
X140309Y294017D01*
X141518Y291098D01*
X143442Y288591D01*
X145948Y286668D01*
X148867Y285459D01*
X152000Y285047D01*
X155133Y285459D01*
X158052Y286668D01*
X160558Y288591D01*
X162482Y291098D01*
X163088Y292562D01*
X191123D01*
X191329Y292424D01*
X192500Y292191D01*
X197500D01*
X198671Y292424D01*
X199663Y293087D01*
X200326Y294079D01*
X200559Y295250D01*
Y299250D01*
X200326Y300420D01*
X199663Y301413D01*
X198671Y302076D01*
X197500Y302309D01*
X192500D01*
X191329Y302076D01*
X190824Y301738D01*
X163088D01*
X162482Y303202D01*
X160558Y305709D01*
X158052Y307632D01*
X155133Y308841D01*
X152905Y309134D01*
X152334Y309210D01*
Y310490D01*
X152905Y310566D01*
X155133Y310859D01*
X158052Y312068D01*
X160558Y313992D01*
X162482Y316498D01*
X163088Y317962D01*
X190899D01*
X191329Y317674D01*
X192500Y317441D01*
X197500D01*
X198671Y317674D01*
X199663Y318337D01*
X200326Y319329D01*
X200559Y320500D01*
Y324500D01*
X200326Y325671D01*
X199663Y326663D01*
X198671Y327326D01*
X197500Y327559D01*
X192500D01*
X191329Y327326D01*
X191049Y327138D01*
X163088D01*
X162482Y328602D01*
X160558Y331109D01*
X158052Y333032D01*
X155133Y334241D01*
X152905Y334534D01*
X152334Y334610D01*
Y335890D01*
X152905Y335966D01*
X155133Y336259D01*
X158052Y337468D01*
X160558Y339392D01*
X162482Y341898D01*
X163088Y343362D01*
X191049D01*
X191329Y343174D01*
X192500Y342941D01*
X197500D01*
X198671Y343174D01*
X199663Y343837D01*
X200326Y344829D01*
X200559Y346000D01*
Y350000D01*
X200326Y351171D01*
X199663Y352163D01*
X198671Y352826D01*
X197500Y353059D01*
X192500D01*
X191329Y352826D01*
X190899Y352538D01*
X163088D01*
X162482Y354002D01*
X160558Y356508D01*
X158052Y358432D01*
X155133Y359641D01*
X152962Y359927D01*
X152245Y360021D01*
X152329Y361291D01*
X156500D01*
X156500Y361291D01*
X157671Y361524D01*
X158663Y362187D01*
X163163Y366687D01*
X163826Y367679D01*
X164059Y368850D01*
Y377850D01*
X164059Y377850D01*
X163826Y379021D01*
X163163Y380013D01*
X158663Y384513D01*
X157671Y385176D01*
X156500Y385409D01*
X147500D01*
X147500Y385409D01*
D02*
G37*
G36*
X210500Y353059D02*
X205500D01*
X204329Y352826D01*
X203337Y352163D01*
X202674Y351171D01*
X202441Y350000D01*
Y346000D01*
X202674Y344829D01*
X203337Y343837D01*
X203412Y343787D01*
Y326713D01*
X203337Y326663D01*
X202674Y325671D01*
X202441Y324500D01*
Y320500D01*
X202674Y319329D01*
X203337Y318337D01*
X203412Y318287D01*
Y301463D01*
X203337Y301413D01*
X202674Y300420D01*
X202441Y299250D01*
Y295250D01*
X202674Y294079D01*
X203337Y293087D01*
X204329Y292424D01*
X205500Y292191D01*
X210500D01*
X211671Y292424D01*
X212663Y293087D01*
X213326Y294079D01*
X213559Y295250D01*
Y299250D01*
X213326Y300420D01*
X212663Y301413D01*
X212588Y301463D01*
Y317912D01*
X238317D01*
X239909Y316848D01*
X242250Y316383D01*
X264640D01*
X264837Y316087D01*
X265830Y315424D01*
X267000Y315191D01*
X275500D01*
X276671Y315424D01*
X277663Y316087D01*
X278837D01*
X279830Y315424D01*
X281000Y315191D01*
X289500D01*
X290671Y315424D01*
X291663Y316087D01*
X291860Y316383D01*
X304284D01*
X304803Y316167D01*
X306500Y315944D01*
X308197Y316167D01*
X309778Y316822D01*
X311136Y317864D01*
X312178Y319222D01*
X312833Y320803D01*
X313056Y322500D01*
X312833Y324197D01*
X312178Y325778D01*
X311136Y327136D01*
X309778Y328178D01*
X308197Y328833D01*
X306500Y329056D01*
X304803Y328833D01*
X304284Y328618D01*
X291860D01*
X291663Y328913D01*
X290671Y329576D01*
X289500Y329809D01*
X281000D01*
X279830Y329576D01*
X278837Y328913D01*
X277663D01*
X276671Y329576D01*
X275500Y329809D01*
X267000D01*
X265830Y329576D01*
X264837Y328913D01*
X264640Y328618D01*
X242250D01*
X239909Y328152D01*
X238317Y327088D01*
X212588D01*
Y343787D01*
X212663Y343837D01*
X213326Y344829D01*
X213559Y346000D01*
Y350000D01*
X213326Y351171D01*
X212663Y352163D01*
X211671Y352826D01*
X210500Y353059D01*
D02*
G37*
G36*
X415000Y278111D02*
X410491Y277667D01*
X406156Y276352D01*
X402160Y274216D01*
X398658Y271342D01*
X395784Y267840D01*
X393648Y263844D01*
X392333Y259509D01*
X391889Y255000D01*
X392333Y250491D01*
X393648Y246156D01*
X395784Y242160D01*
X398658Y238658D01*
X402160Y235784D01*
X406156Y233648D01*
X410491Y232333D01*
X415000Y231889D01*
X419509Y232333D01*
X423844Y233648D01*
X427840Y235784D01*
X431342Y238658D01*
X434216Y242160D01*
X436352Y246156D01*
X437667Y250491D01*
X438111Y255000D01*
X437667Y259509D01*
X436352Y263844D01*
X434216Y267840D01*
X431342Y271342D01*
X427840Y274216D01*
X423844Y276352D01*
X419509Y277667D01*
X415000Y278111D01*
D02*
G37*
G36*
X245000D02*
X240491Y277667D01*
X236156Y276352D01*
X232160Y274216D01*
X228658Y271342D01*
X225784Y267840D01*
X223648Y263844D01*
X222333Y259509D01*
X221889Y255000D01*
X222333Y250491D01*
X223648Y246156D01*
X225784Y242160D01*
X228658Y238658D01*
X232160Y235784D01*
X236156Y233648D01*
X240491Y232333D01*
X245000Y231889D01*
X249509Y232333D01*
X253844Y233648D01*
X257840Y235784D01*
X261342Y238658D01*
X264216Y242160D01*
X266352Y246156D01*
X267667Y250491D01*
X268111Y255000D01*
X267667Y259509D01*
X266352Y263844D01*
X264216Y267840D01*
X261342Y271342D01*
X257840Y274216D01*
X253844Y276352D01*
X249509Y277667D01*
X245000Y278111D01*
D02*
G37*
G36*
X358100Y132104D02*
X354967Y131691D01*
X352048Y130482D01*
X349542Y128559D01*
X347618Y126052D01*
X346409Y123133D01*
X346116Y120905D01*
X346040Y120334D01*
X344760D01*
X344684Y120905D01*
X344391Y123133D01*
X343182Y126052D01*
X341259Y128559D01*
X338752Y130482D01*
X335833Y131691D01*
X332700Y132104D01*
X329567Y131691D01*
X326648Y130482D01*
X324142Y128559D01*
X322218Y126052D01*
X321009Y123133D01*
X320716Y120905D01*
X320640Y120334D01*
X319360D01*
X319284Y120905D01*
X318991Y123133D01*
X317782Y126052D01*
X315858Y128559D01*
X313352Y130482D01*
X310433Y131691D01*
X307300Y132104D01*
X304167Y131691D01*
X301248Y130482D01*
X298742Y128559D01*
X296818Y126052D01*
X295609Y123133D01*
X295362Y121255D01*
X294656Y120910D01*
X294029Y120862D01*
X293959Y120944D01*
Y124500D01*
X293959Y124500D01*
X293726Y125670D01*
X293063Y126663D01*
X288563Y131163D01*
X287571Y131826D01*
X286400Y132059D01*
X277400D01*
X277400Y132059D01*
X276229Y131826D01*
X275237Y131163D01*
X270737Y126663D01*
X270074Y125670D01*
X269841Y124500D01*
Y115500D01*
X269841Y115500D01*
X270074Y114330D01*
X270737Y113337D01*
X275237Y108837D01*
X276229Y108174D01*
X277400Y107941D01*
X283833D01*
X284441Y107200D01*
Y87200D01*
X284674Y86029D01*
X285337Y85037D01*
X286329Y84374D01*
X287500Y84141D01*
X352500D01*
X353671Y84374D01*
X354663Y85037D01*
X355326Y86029D01*
X355559Y87200D01*
Y106950D01*
X356352Y108046D01*
X356418Y108118D01*
X358100Y107896D01*
X361233Y108309D01*
X364152Y109518D01*
X366659Y111441D01*
X368582Y113948D01*
X369791Y116867D01*
X370204Y120000D01*
X369791Y123133D01*
X368582Y126052D01*
X366659Y128559D01*
X364152Y130482D01*
X361233Y131691D01*
X358100Y132104D01*
D02*
G37*
G36*
X550000Y123102D02*
X544822Y122695D01*
X539771Y121482D01*
X534972Y119494D01*
X530543Y116780D01*
X526593Y113407D01*
X523220Y109457D01*
X520506Y105028D01*
X518518Y100229D01*
X517306Y95178D01*
X516898Y90000D01*
X517306Y84822D01*
X518518Y79771D01*
X520506Y74972D01*
X523220Y70543D01*
X526593Y66593D01*
X530543Y63220D01*
X534972Y60506D01*
X539771Y58518D01*
X544822Y57305D01*
X550000Y56898D01*
X555178Y57305D01*
X560229Y58518D01*
X565028Y60506D01*
X569457Y63220D01*
X573407Y66593D01*
X576780Y70543D01*
X579494Y74972D01*
X581482Y79771D01*
X582695Y84822D01*
X583102Y90000D01*
X582695Y95178D01*
X581482Y100229D01*
X579494Y105028D01*
X576780Y109457D01*
X573407Y113407D01*
X569457Y116780D01*
X565028Y119494D01*
X560229Y121482D01*
X555178Y122695D01*
X550000Y123102D01*
D02*
G37*
G36*
X90000D02*
X84822Y122695D01*
X79771Y121482D01*
X74972Y119494D01*
X70543Y116780D01*
X66593Y113407D01*
X63220Y109457D01*
X60506Y105028D01*
X58518Y100229D01*
X57306Y95178D01*
X56898Y90000D01*
X57306Y84822D01*
X58518Y79771D01*
X60506Y74972D01*
X63220Y70543D01*
X66593Y66593D01*
X70543Y63220D01*
X74972Y60506D01*
X79771Y58518D01*
X84822Y57305D01*
X90000Y56898D01*
X95178Y57305D01*
X100229Y58518D01*
X105028Y60506D01*
X109457Y63220D01*
X113407Y66593D01*
X116780Y70543D01*
X119494Y74972D01*
X121482Y79771D01*
X122695Y84822D01*
X123102Y90000D01*
X122695Y95178D01*
X121482Y100229D01*
X119494Y105028D01*
X116780Y109457D01*
X113407Y113407D01*
X109457Y116780D01*
X105028Y119494D01*
X100229Y121482D01*
X95178Y122695D01*
X90000Y123102D01*
D02*
G37*
G36*
X1303400Y579340D02*
X1294400D01*
X1293409Y579143D01*
X1292569Y578581D01*
X1288069Y574081D01*
X1287507Y573241D01*
X1287310Y572250D01*
Y563250D01*
X1287507Y562259D01*
X1288069Y561419D01*
X1292569Y556919D01*
X1292952Y556663D01*
Y400151D01*
X1292780Y400080D01*
X1290370Y398230D01*
X1288520Y395820D01*
X1287357Y393013D01*
X1286960Y390000D01*
X1287357Y386987D01*
X1288520Y384180D01*
X1290370Y381770D01*
X1292780Y379920D01*
X1295587Y378757D01*
X1298600Y378360D01*
X1301613Y378757D01*
X1304420Y379920D01*
X1306830Y381770D01*
X1308680Y384180D01*
X1309843Y386987D01*
X1310240Y390000D01*
X1309843Y393013D01*
X1308680Y395820D01*
X1306830Y398230D01*
X1304420Y400080D01*
X1304249Y400151D01*
Y556329D01*
X1304391Y556357D01*
X1305231Y556919D01*
X1309731Y561419D01*
X1310293Y562259D01*
X1310490Y563250D01*
Y572250D01*
X1310293Y573241D01*
X1309731Y574081D01*
X1305231Y578581D01*
X1304391Y579143D01*
X1303400Y579340D01*
D02*
G37*
G36*
X1273500Y579390D02*
X1270488Y578993D01*
X1267680Y577830D01*
X1265270Y575980D01*
X1263420Y573570D01*
X1262257Y570763D01*
X1261860Y567750D01*
X1262257Y564738D01*
X1263420Y561930D01*
X1265270Y559520D01*
X1267551Y557769D01*
Y400151D01*
X1267380Y400080D01*
X1264970Y398230D01*
X1263120Y395820D01*
X1261957Y393013D01*
X1261560Y390000D01*
X1261957Y386987D01*
X1263120Y384180D01*
X1264970Y381770D01*
X1267380Y379920D01*
X1270188Y378757D01*
X1273200Y378360D01*
X1276212Y378757D01*
X1279020Y379920D01*
X1281430Y381770D01*
X1283280Y384180D01*
X1284443Y386987D01*
X1284839Y390000D01*
X1284443Y393013D01*
X1283280Y395820D01*
X1281430Y398230D01*
X1279020Y400080D01*
X1278848Y400151D01*
Y557475D01*
X1279320Y557670D01*
X1281730Y559520D01*
X1283580Y561930D01*
X1284743Y564738D01*
X1285139Y567750D01*
X1284743Y570763D01*
X1283580Y573570D01*
X1281730Y575980D01*
X1279320Y577830D01*
X1276513Y578993D01*
X1273500Y579390D01*
D02*
G37*
G36*
X1248100D02*
X1245088Y578993D01*
X1242280Y577830D01*
X1239870Y575980D01*
X1238020Y573570D01*
X1236857Y570763D01*
X1236460Y567750D01*
X1236857Y564738D01*
X1238020Y561930D01*
X1239870Y559520D01*
X1242151Y557769D01*
Y400151D01*
X1241980Y400080D01*
X1239570Y398230D01*
X1237720Y395820D01*
X1236557Y393013D01*
X1236160Y390000D01*
X1236557Y386987D01*
X1237720Y384180D01*
X1239570Y381770D01*
X1241980Y379920D01*
X1244788Y378757D01*
X1247800Y378360D01*
X1250813Y378757D01*
X1253620Y379920D01*
X1256030Y381770D01*
X1257880Y384180D01*
X1259043Y386987D01*
X1259439Y390000D01*
X1259043Y393013D01*
X1257880Y395820D01*
X1256030Y398230D01*
X1253620Y400080D01*
X1253448Y400151D01*
Y557475D01*
X1253920Y557670D01*
X1256330Y559520D01*
X1258180Y561930D01*
X1259343Y564738D01*
X1259740Y567750D01*
X1259343Y570763D01*
X1258180Y573570D01*
X1256330Y575980D01*
X1253920Y577830D01*
X1251113Y578993D01*
X1248100Y579390D01*
D02*
G37*
G36*
X1222700D02*
X1219688Y578993D01*
X1216880Y577830D01*
X1214470Y575980D01*
X1212620Y573570D01*
X1211457Y570763D01*
X1211060Y567750D01*
X1211457Y564738D01*
X1212620Y561930D01*
X1214470Y559520D01*
X1216751Y557769D01*
Y400151D01*
X1216580Y400080D01*
X1214170Y398230D01*
X1212320Y395820D01*
X1211157Y393013D01*
X1210760Y390000D01*
X1211157Y386987D01*
X1212320Y384180D01*
X1214170Y381770D01*
X1216580Y379920D01*
X1219388Y378757D01*
X1222400Y378360D01*
X1225413Y378757D01*
X1228220Y379920D01*
X1230630Y381770D01*
X1232480Y384180D01*
X1233643Y386987D01*
X1234040Y390000D01*
X1233643Y393013D01*
X1232480Y395820D01*
X1230630Y398230D01*
X1228220Y400080D01*
X1228048Y400151D01*
Y557475D01*
X1228520Y557670D01*
X1230930Y559520D01*
X1232780Y561930D01*
X1233943Y564738D01*
X1234340Y567750D01*
X1233943Y570763D01*
X1232780Y573570D01*
X1230930Y575980D01*
X1228520Y577830D01*
X1225713Y578993D01*
X1222700Y579390D01*
D02*
G37*
%LPD*%
D11*
X285250Y322500D02*
X306500D01*
X242250D02*
X271250D01*
X814750Y943500D02*
X826000D01*
X812750Y959250D02*
X826000D01*
X800000Y927750D02*
X814250D01*
X800000Y927750D02*
X800000Y927750D01*
X812750Y973250D02*
X862500D01*
X871250Y982000D01*
Y1006950D01*
X800750Y943500D02*
Y1001750D01*
X831350Y1032350D01*
X871250D01*
X782250Y913750D02*
X800000D01*
X782250D02*
Y1021000D01*
X819000Y1057750D01*
X871250D01*
X861500Y733250D02*
Y851750D01*
X834000Y705750D02*
X861500Y733250D01*
X870000Y705750D02*
X923000Y758750D01*
Y990000D01*
X930250Y997250D01*
X676500Y444350D02*
X712000Y479850D01*
X676500Y313150D02*
Y444350D01*
Y313150D02*
X712500Y277150D01*
X676500Y182000D02*
Y313150D01*
Y182000D02*
X738500Y120000D01*
X841900D01*
X1011750Y360250D02*
Y396500D01*
X1000250Y408000D02*
X1011750Y396500D01*
X1000250Y408000D02*
Y483500D01*
X712500Y200950D02*
X1107750D01*
X1108000Y201200D01*
X1107250Y403850D02*
Y429250D01*
Y454650D01*
X1527800Y667750D02*
Y490000D01*
X1578600Y667750D02*
Y490000D01*
X1502400Y667750D02*
Y490000D01*
X1553200Y667750D02*
Y490000D01*
X1247800Y567750D02*
Y390000D01*
X1298600Y567750D02*
Y390000D01*
X1222400Y567750D02*
Y390000D01*
X1273200Y567750D02*
Y390000D01*
X1072200Y692250D02*
Y870000D01*
X1021400Y692250D02*
Y870000D01*
X1097600Y692250D02*
Y870000D01*
X1046800Y692250D02*
Y870000D01*
X1257750Y1412200D02*
X1080000D01*
X1257750Y1361400D02*
X1080000D01*
X1257750Y1437600D02*
X1080000D01*
X1257750Y1386800D02*
X1080000D01*
X1225242Y793010D02*
Y1202310D01*
X1347142Y1170010D02*
Y1172910D01*
Y1145010D02*
Y1170010D01*
X1222542Y1205010D02*
X1225242Y1202310D01*
X1347142Y1170010D02*
X1390042D01*
X1397942Y1162110D01*
Y1145010D02*
Y1162110D01*
X1030442Y1167110D02*
X1077942D01*
X1027142Y1163810D02*
X1030442Y1167110D01*
X1027142Y1145010D02*
Y1163810D01*
X1162542Y1205010D02*
X1202542D01*
X1222542D02*
X1315042D01*
X1347142Y1172910D01*
X1077942Y1182910D02*
X1117542Y1222510D01*
X1222542D01*
Y1205010D02*
Y1222510D01*
X1077942Y1145010D02*
Y1167110D01*
Y1182910D01*
D12*
X247350Y1003011D02*
X561350Y983014D01*
X394250Y770763D02*
Y779013D01*
Y770763D02*
X424000Y741013D01*
D13*
X271250Y322500D02*
D03*
X285250D02*
D03*
X814750Y943500D02*
D03*
X800750D02*
D03*
X604500Y1273988D02*
D03*
X618500D02*
D03*
X1492052Y1256977D02*
D03*
X1506053D02*
D03*
D14*
X800000Y927750D02*
D03*
Y913750D02*
D03*
X812750Y959250D02*
D03*
Y973250D02*
D03*
X206012Y1324500D02*
D03*
Y1338500D02*
D03*
D17*
X208000Y322500D02*
X242250D01*
X208000D02*
Y348000D01*
Y297250D02*
Y322500D01*
X194900Y297150D02*
X195000Y297250D01*
X152000Y297150D02*
X194900D01*
X194950Y322550D02*
X195000Y322500D01*
X152000Y322550D02*
X194950D01*
X194950Y347950D02*
X195000Y348000D01*
X152000Y347950D02*
X194950D01*
D18*
X571250Y1292488D02*
D03*
Y1308238D02*
D03*
Y1323988D02*
D03*
X618250D02*
D03*
Y1308238D02*
D03*
Y1292488D02*
D03*
X1458802Y1275477D02*
D03*
Y1291227D02*
D03*
Y1306977D02*
D03*
X1505802D02*
D03*
Y1291227D02*
D03*
Y1275477D02*
D03*
D22*
X1420158Y620990D02*
Y173290D01*
X1394758Y620990D02*
Y172290D01*
X1444458Y148990D02*
X1420158Y173290D01*
X1562458Y148990D02*
X1444458D01*
X1562458Y179990D02*
Y148990D01*
X1394758Y172290D02*
X1370458Y147990D01*
X1279458D01*
X1277858Y149590D01*
Y179990D02*
Y149590D01*
D27*
X187512Y1291250D02*
D03*
X171762D02*
D03*
X156012D02*
D03*
Y1338250D02*
D03*
X171762D02*
D03*
X187512D02*
D03*
D28*
X148112Y1210000D02*
Y1222600D01*
X187512Y1262000D01*
Y1291250D01*
X171762Y1275750D02*
Y1291250D01*
X122712Y1226700D02*
X171762Y1275750D01*
X122712Y1210000D02*
Y1226700D01*
X156012Y1278000D02*
Y1291250D01*
X97312Y1219300D02*
X156012Y1278000D01*
X97312Y1210000D02*
Y1219300D01*
X156012Y1338250D02*
X156262Y1338500D01*
X71912Y1210000D02*
Y1232400D01*
X154012Y1314500D01*
X205302D01*
X206012Y1315210D02*
Y1324500D01*
X205302Y1314500D02*
X206012Y1315210D01*
X187512Y1291250D02*
X211262D01*
X254612Y1334600D01*
X280012D01*
X171762Y1291250D02*
Y1302750D01*
X175972Y1306960D01*
X208426D01*
X213552Y1312087D01*
Y1316412D01*
X255140Y1358000D01*
X278012D01*
X280012Y1360000D01*
X156262Y1338500D02*
X206012D01*
X490000Y1331888D02*
X502600D01*
X542000Y1292488D01*
X571250D01*
X555750Y1308238D02*
X571250D01*
X506700Y1357288D02*
X555750Y1308238D01*
X490000Y1357288D02*
X506700D01*
X558000Y1323988D02*
X571250D01*
X499300Y1382688D02*
X558000Y1323988D01*
X490000Y1382688D02*
X499300D01*
X618250Y1323988D02*
X618500Y1323738D01*
X490000Y1408088D02*
X512400D01*
X594500Y1325988D01*
Y1274698D01*
X595210Y1273988D02*
X604500D01*
X594500Y1274698D02*
X595210Y1273988D01*
X571250Y1292488D02*
Y1268738D01*
X614600Y1225388D01*
Y1199988D01*
X571250Y1308238D02*
X582750D01*
X586960Y1304028D01*
Y1271574D01*
X592087Y1266448D01*
X596412D01*
X638000Y1224860D01*
Y1201988D01*
X640000Y1199988D01*
X618500Y1323738D02*
Y1273988D01*
X1377552Y1314877D02*
X1390152D01*
X1429552Y1275477D01*
X1458802D01*
X1443302Y1291227D02*
X1458802D01*
X1394252Y1340277D02*
X1443302Y1291227D01*
X1377552Y1340277D02*
X1394252D01*
X1445553Y1306977D02*
X1458802D01*
X1386853Y1365677D02*
X1445553Y1306977D01*
X1377552Y1365677D02*
X1386853D01*
X1505802Y1306977D02*
X1506053Y1306727D01*
X1377552Y1391077D02*
X1399953D01*
X1482052Y1308977D01*
Y1257687D01*
X1482762Y1256977D02*
X1492052D01*
X1482052Y1257687D02*
X1482762Y1256977D01*
X1458802Y1275477D02*
Y1251727D01*
X1502153Y1208377D01*
Y1182977D01*
X1458802Y1291227D02*
X1470302D01*
X1474512Y1287017D01*
Y1254564D01*
X1479639Y1249437D01*
X1483965D01*
X1525553Y1207849D01*
Y1184977D01*
X1527552Y1182977D01*
X1506053Y1306727D02*
Y1256977D01*
D29*
X1222542Y1205010D02*
D03*
X1202542D02*
D03*
D30*
X1674000Y1503000D02*
D03*
X8000Y18000D02*
D03*
D31*
X415000Y255000D02*
D03*
Y425000D02*
D03*
X245000D02*
D03*
Y255000D02*
D03*
X795000Y725000D02*
D03*
X945000D02*
D03*
X870000Y1325000D02*
D03*
X1490000Y930000D02*
D03*
X1370000D02*
D03*
Y830000D02*
D03*
X1490000D02*
D03*
X965000Y425000D02*
D03*
X795000D02*
D03*
Y255000D02*
D03*
X965000D02*
D03*
D32*
X152000Y373350D02*
D03*
X871250Y1083150D02*
D03*
X712000Y479850D02*
D03*
X712500Y277150D02*
D03*
X1257750Y1361100D02*
D03*
X280012Y1334600D02*
D03*
D33*
X152000Y347950D02*
D03*
Y322550D02*
D03*
Y297150D02*
D03*
X358100Y120000D02*
D03*
X332700D02*
D03*
X307300D02*
D03*
X871250Y1057750D02*
D03*
Y1032350D02*
D03*
Y1006950D02*
D03*
X1394458Y620990D02*
D03*
X1419858D02*
D03*
X1107250Y480050D02*
D03*
Y403850D02*
D03*
Y429250D02*
D03*
Y454650D02*
D03*
X918100Y120000D02*
D03*
X892700D02*
D03*
X867300D02*
D03*
X712000Y403650D02*
D03*
Y429050D02*
D03*
Y454450D02*
D03*
X1108000Y277400D02*
D03*
Y201200D02*
D03*
Y226600D02*
D03*
Y252000D02*
D03*
X712500Y200950D02*
D03*
Y226350D02*
D03*
Y251750D02*
D03*
X1553500Y667750D02*
D03*
X1528100D02*
D03*
X1502700D02*
D03*
X1578600Y490000D02*
D03*
X1502400D02*
D03*
X1527800D02*
D03*
X1553200D02*
D03*
X1273500Y567750D02*
D03*
X1248100D02*
D03*
X1222700D02*
D03*
X1298600Y390000D02*
D03*
X1222400D02*
D03*
X1247800D02*
D03*
X1273200D02*
D03*
X1046500Y692250D02*
D03*
X1071900D02*
D03*
X1097300D02*
D03*
X1021400Y870000D02*
D03*
X1097600D02*
D03*
X1072200D02*
D03*
X1046800D02*
D03*
X1257750Y1386500D02*
D03*
Y1411900D02*
D03*
Y1437300D02*
D03*
X1080000Y1361400D02*
D03*
Y1437600D02*
D03*
Y1412200D02*
D03*
Y1386800D02*
D03*
X280012Y1360000D02*
D03*
Y1385400D02*
D03*
Y1410800D02*
D03*
X148112Y1210000D02*
D03*
X71912D02*
D03*
X97312D02*
D03*
X122712D02*
D03*
X640000Y1199988D02*
D03*
X665400D02*
D03*
X690800D02*
D03*
X490000Y1331888D02*
D03*
Y1408088D02*
D03*
Y1382688D02*
D03*
Y1357288D02*
D03*
X1527552Y1182977D02*
D03*
X1552953D02*
D03*
X1578353D02*
D03*
X1377552Y1314877D02*
D03*
Y1391077D02*
D03*
Y1365677D02*
D03*
Y1340277D02*
D03*
X1199842Y793010D02*
D03*
X1225242D02*
D03*
D34*
X281900Y120000D02*
D03*
X841900Y120000D02*
D03*
X1578900Y667750D02*
D03*
X1298900Y567750D02*
D03*
D35*
X550000Y590000D02*
D03*
X90000D02*
D03*
Y90000D02*
D03*
X550000D02*
D03*
X400000Y1183013D02*
D03*
X150000Y750003D02*
D03*
X650000D02*
D03*
X1320000Y990000D02*
D03*
X1540000D02*
D03*
Y770000D02*
D03*
X1320000D02*
D03*
X1110000Y590000D02*
D03*
X650000D02*
D03*
Y90000D02*
D03*
X1110000D02*
D03*
D36*
X306500Y322500D02*
D03*
X424000Y741013D02*
D03*
X394250Y779013D02*
D03*
X814250Y927750D02*
D03*
X826000Y959250D02*
D03*
Y943500D02*
D03*
X834000Y705750D02*
D03*
X861500Y851750D02*
D03*
X930250Y997250D02*
D03*
X870000Y705750D02*
D03*
X1011750Y360250D02*
D03*
X1000250Y483500D02*
D03*
X1162542Y1205010D02*
D03*
D37*
X247350Y1003011D02*
D03*
X234650Y981014D02*
D03*
X561350Y983014D02*
D03*
X548650Y1005011D02*
D03*
X1562458Y214990D02*
D03*
X1587858D02*
D03*
X1252458D02*
D03*
X1227058D02*
D03*
X1562458Y179990D02*
D03*
X1537058D02*
D03*
X1252458D02*
D03*
X1277858D02*
D03*
X1417300Y907800D02*
D03*
X1442700D02*
D03*
X1027142Y1145010D02*
D03*
X1052542D02*
D03*
X1347142D02*
D03*
X1372542D02*
D03*
D38*
X375750Y716813D02*
D03*
X424250D02*
D03*
D39*
X363750Y690013D02*
D03*
X436250D02*
D03*
D40*
X1537058Y214990D02*
D03*
X1277858D02*
D03*
X1587858Y179990D02*
D03*
X1227058D02*
D03*
X1077942Y1145010D02*
D03*
X1397942D02*
D03*
D41*
X1021100Y692250D02*
D03*
X614600Y1199988D02*
D03*
X1502153Y1182977D02*
D03*
D42*
X195000Y322500D02*
D03*
X208000D02*
D03*
X195000Y348000D02*
D03*
X208000D02*
D03*
X195000Y297250D02*
D03*
X208000D02*
D03*
M02*
