G04 Layer_Color=8388736*
%FSLAX44Y44*%
%MOMM*%
G71*
G01*
G75*
%ADD48R,1.4532X1.2032*%
%ADD49R,1.0532X1.0532*%
%ADD50R,1.0532X1.0532*%
%ADD51R,0.6032X1.8032*%
%ADD52R,1.0032X1.0032*%
G04:AMPARAMS|DCode=53|XSize=1.5032mm|YSize=1.2032mm|CornerRadius=0.3516mm|HoleSize=0mm|Usage=FLASHONLY|Rotation=360.000|XOffset=0mm|YOffset=0mm|HoleType=Round|Shape=RoundedRectangle|*
%AMROUNDEDRECTD53*
21,1,1.5032,0.5000,0,0,360.0*
21,1,0.8000,1.2032,0,0,360.0*
1,1,0.7032,0.4000,-0.2500*
1,1,0.7032,-0.4000,-0.2500*
1,1,0.7032,-0.4000,0.2500*
1,1,0.7032,0.4000,0.2500*
%
%ADD53ROUNDEDRECTD53*%
%ADD54R,1.3032X0.8032*%
%ADD55R,0.8032X1.3032*%
%ADD56R,1.2032X1.8032*%
%ADD57R,1.4532X1.1032*%
%ADD58R,1.1032X1.0032*%
%ADD59R,1.8032X1.2032*%
G04:AMPARAMS|DCode=60|XSize=1.5032mm|YSize=1.2032mm|CornerRadius=0.3516mm|HoleSize=0mm|Usage=FLASHONLY|Rotation=270.000|XOffset=0mm|YOffset=0mm|HoleType=Round|Shape=RoundedRectangle|*
%AMROUNDEDRECTD60*
21,1,1.5032,0.5000,0,0,270.0*
21,1,0.8000,1.2032,0,0,270.0*
1,1,0.7032,-0.2500,-0.4000*
1,1,0.7032,-0.2500,0.4000*
1,1,0.7032,0.2500,0.4000*
1,1,0.7032,0.2500,-0.4000*
%
%ADD60ROUNDEDRECTD60*%
%ADD61R,1.2032X1.4532*%
%ADD62C,0.2032*%
%ADD63C,1.7272*%
%ADD64C,4.2032*%
%ADD65P,2.1683X8X292.5*%
%ADD66C,2.0032*%
%ADD67P,2.1683X8X22.5*%
G04:AMPARAMS|DCode=68|XSize=0.2032mm|YSize=0.2032mm|CornerRadius=0mm|HoleSize=0mm|Usage=FLASHONLY|Rotation=0.000|XOffset=0mm|YOffset=0mm|HoleType=Round|Shape=RoundedRectangle|*
%AMROUNDEDRECTD68*
21,1,0.2032,0.2032,0,0,0.0*
21,1,0.2032,0.2032,0,0,0.0*
1,1,0.0000,0.1016,-0.1016*
1,1,0.0000,-0.1016,-0.1016*
1,1,0.0000,-0.1016,0.1016*
1,1,0.0000,0.1016,0.1016*
%
%ADD68ROUNDEDRECTD68*%
%ADD69C,6.2032*%
%ADD70C,0.9032*%
%ADD71C,2.2032*%
G04:AMPARAMS|DCode=72|XSize=0.2032mm|YSize=0.2032mm|CornerRadius=0mm|HoleSize=0mm|Usage=FLASHONLY|Rotation=240.000|XOffset=0mm|YOffset=0mm|HoleType=Round|Shape=RoundedRectangle|*
%AMROUNDEDRECTD72*
21,1,0.2032,0.2032,0,0,240.0*
21,1,0.2032,0.2032,0,0,240.0*
1,1,0.0000,-0.1388,-0.0372*
1,1,0.0000,-0.0372,0.1388*
1,1,0.0000,0.1388,0.0372*
1,1,0.0000,0.0372,-0.1388*
%
%ADD72ROUNDEDRECTD72*%
G04:AMPARAMS|DCode=73|XSize=0.2032mm|YSize=0.2032mm|CornerRadius=0mm|HoleSize=0mm|Usage=FLASHONLY|Rotation=120.000|XOffset=0mm|YOffset=0mm|HoleType=Round|Shape=RoundedRectangle|*
%AMROUNDEDRECTD73*
21,1,0.2032,0.2032,0,0,120.0*
21,1,0.2032,0.2032,0,0,120.0*
1,1,0.0000,0.0372,0.1388*
1,1,0.0000,0.1388,-0.0372*
1,1,0.0000,-0.0372,-0.1388*
1,1,0.0000,-0.1388,0.0372*
%
%ADD73ROUNDEDRECTD73*%
%ADD74C,1.4032*%
%ADD75C,2.8432*%
%ADD76R,2.2032X2.2032*%
%ADD77P,2.1683X8X382.5*%
D48*
X335050Y324360D02*
D03*
Y344360D02*
D03*
X906000Y686000D02*
D03*
Y666000D02*
D03*
X870000Y686000D02*
D03*
Y666000D02*
D03*
X834000Y686000D02*
D03*
Y666000D02*
D03*
X836000Y813500D02*
D03*
Y833500D02*
D03*
X912750Y878750D02*
D03*
Y898750D02*
D03*
X816250Y879000D02*
D03*
Y899000D02*
D03*
D49*
X393000Y795013D02*
D03*
X407000D02*
D03*
X861500Y863250D02*
D03*
X875500D02*
D03*
X877250Y298000D02*
D03*
X891250D02*
D03*
X1161500Y1357000D02*
D03*
X1175500D02*
D03*
X604250Y1273988D02*
D03*
X618250D02*
D03*
X1491803Y1256977D02*
D03*
X1505802D02*
D03*
D50*
X408000Y752013D02*
D03*
Y766013D02*
D03*
X394000D02*
D03*
Y752013D02*
D03*
X899250Y780500D02*
D03*
Y794500D02*
D03*
X815750Y847500D02*
D03*
Y833500D02*
D03*
X930250Y979000D02*
D03*
Y965000D02*
D03*
X894500Y913250D02*
D03*
Y899250D02*
D03*
X834750Y913250D02*
D03*
Y899250D02*
D03*
X856000Y833500D02*
D03*
Y819500D02*
D03*
X931500Y898750D02*
D03*
Y884750D02*
D03*
X835000Y883500D02*
D03*
Y869500D02*
D03*
X1492600Y887000D02*
D03*
Y873000D02*
D03*
X1583000Y571500D02*
D03*
Y585500D02*
D03*
X1303000Y471500D02*
D03*
Y485500D02*
D03*
X1017000Y788500D02*
D03*
Y774500D02*
D03*
X206012Y1324250D02*
D03*
Y1338250D02*
D03*
X1052542Y1173010D02*
D03*
Y1187010D02*
D03*
D51*
X413000Y722013D02*
D03*
X406500D02*
D03*
X400000D02*
D03*
X393500D02*
D03*
X387000D02*
D03*
D52*
X407500Y813013D02*
D03*
X392500D02*
D03*
D53*
X854000Y959250D02*
D03*
Y943500D02*
D03*
Y927750D02*
D03*
X901000D02*
D03*
Y943500D02*
D03*
Y959250D02*
D03*
X1517000Y585500D02*
D03*
Y569750D02*
D03*
Y554000D02*
D03*
X1564000D02*
D03*
Y569750D02*
D03*
Y585500D02*
D03*
X1237000Y485500D02*
D03*
Y469750D02*
D03*
Y454000D02*
D03*
X1284000D02*
D03*
Y469750D02*
D03*
Y485500D02*
D03*
X1083000Y774500D02*
D03*
Y790250D02*
D03*
Y806000D02*
D03*
X1036000D02*
D03*
Y790250D02*
D03*
Y774500D02*
D03*
X571250Y1324238D02*
D03*
Y1308488D02*
D03*
Y1292738D02*
D03*
X618250D02*
D03*
Y1308488D02*
D03*
Y1324238D02*
D03*
X1458802Y1307227D02*
D03*
Y1291477D02*
D03*
Y1275727D02*
D03*
X1505802D02*
D03*
Y1291477D02*
D03*
Y1307227D02*
D03*
D54*
X875000Y833500D02*
D03*
Y814500D02*
D03*
X899000Y824000D02*
D03*
X851500Y899500D02*
D03*
Y880500D02*
D03*
X875500Y890000D02*
D03*
D55*
X920750Y922250D02*
D03*
X939750D02*
D03*
X930250Y946250D02*
D03*
D56*
X1446000Y852000D02*
D03*
X1416000D02*
D03*
D57*
X1027000Y435500D02*
D03*
Y468500D02*
D03*
Y483500D02*
D03*
D58*
X1058750Y500000D02*
D03*
X1038750D02*
D03*
X1058750Y423000D02*
D03*
X1038750D02*
D03*
D59*
X877250Y328000D02*
D03*
Y358000D02*
D03*
D60*
X1175500Y1423000D02*
D03*
X1159750D02*
D03*
X1144000D02*
D03*
Y1376000D02*
D03*
X1159750D02*
D03*
X1175500D02*
D03*
X155762Y1291250D02*
D03*
X171512D02*
D03*
X187262D02*
D03*
Y1338250D02*
D03*
X171512D02*
D03*
X155762D02*
D03*
D61*
X1202542Y1205010D02*
D03*
X1222542D02*
D03*
D62*
X295000Y47500D02*
D03*
X288500D02*
D03*
X275250D02*
D03*
X281750D02*
D03*
X269000D02*
D03*
X895000D02*
D03*
X888500D02*
D03*
X875250D02*
D03*
X881750D02*
D03*
X869000D02*
D03*
X592500Y335000D02*
D03*
Y328500D02*
D03*
Y315250D02*
D03*
Y321750D02*
D03*
Y309000D02*
D03*
X607750Y309500D02*
D03*
Y322250D02*
D03*
Y315750D02*
D03*
Y329000D02*
D03*
Y335500D02*
D03*
X865000Y632500D02*
D03*
X871500D02*
D03*
X884750D02*
D03*
X878250D02*
D03*
X891000D02*
D03*
X890500Y647750D02*
D03*
X877750D02*
D03*
X884250D02*
D03*
X871000D02*
D03*
X864500D02*
D03*
X987500Y785000D02*
D03*
Y791500D02*
D03*
Y804750D02*
D03*
Y798250D02*
D03*
Y811000D02*
D03*
X972250Y810500D02*
D03*
Y797750D02*
D03*
Y804250D02*
D03*
Y791000D02*
D03*
Y784500D02*
D03*
X1075000Y647500D02*
D03*
X1068500D02*
D03*
X1055250D02*
D03*
X1061750D02*
D03*
X1049000D02*
D03*
X1049500Y632250D02*
D03*
X1062250D02*
D03*
X1055750D02*
D03*
X1069000D02*
D03*
X1075500D02*
D03*
X345000Y647500D02*
D03*
X338500D02*
D03*
X325250D02*
D03*
X331750D02*
D03*
X319000D02*
D03*
X319500Y632250D02*
D03*
X332250D02*
D03*
X325750D02*
D03*
X339000D02*
D03*
X345500D02*
D03*
X47750Y355250D02*
D03*
Y368750D02*
D03*
Y362250D02*
D03*
Y375500D02*
D03*
Y382000D02*
D03*
Y348000D02*
D03*
X1394000Y47500D02*
D03*
X1406750D02*
D03*
X1400250D02*
D03*
X1413500D02*
D03*
X1420000D02*
D03*
X1540500Y712250D02*
D03*
X1534000D02*
D03*
X1520750D02*
D03*
X1527250D02*
D03*
X1514500D02*
D03*
X1514000Y727500D02*
D03*
X1526750D02*
D03*
X1520250D02*
D03*
X1533500D02*
D03*
X1540000D02*
D03*
X1170500Y1472250D02*
D03*
X1164000D02*
D03*
X1150750D02*
D03*
X1157250D02*
D03*
X1144500D02*
D03*
X202000Y1047000D02*
D03*
X198000Y1041000D02*
D03*
X194000Y1034000D02*
D03*
X190000Y1027000D02*
D03*
X186000Y1020000D02*
D03*
X182000Y1013000D02*
D03*
X178000Y1006000D02*
D03*
X174000Y998000D02*
D03*
X169000Y991000D02*
D03*
X165000Y983000D02*
D03*
X1366000Y485000D02*
D03*
Y478000D02*
D03*
Y471000D02*
D03*
Y464000D02*
D03*
Y457000D02*
D03*
Y451000D02*
D03*
Y445000D02*
D03*
X1331501Y445000D02*
D03*
Y451000D02*
D03*
Y457000D02*
D03*
Y464000D02*
D03*
Y471000D02*
D03*
Y478000D02*
D03*
Y485000D02*
D03*
X1448000Y573000D02*
D03*
Y566000D02*
D03*
Y559000D02*
D03*
Y552000D02*
D03*
Y545000D02*
D03*
Y537000D02*
D03*
X1469561D02*
D03*
Y545000D02*
D03*
Y552000D02*
D03*
Y559000D02*
D03*
Y566000D02*
D03*
Y573000D02*
D03*
X1612000Y562000D02*
D03*
X1611636Y569687D02*
D03*
Y576687D02*
D03*
Y583687D02*
D03*
Y590687D02*
D03*
Y597687D02*
D03*
X623000Y998000D02*
D03*
X627000Y991000D02*
D03*
X632000Y984000D02*
D03*
X636000Y977000D02*
D03*
X640000Y970000D02*
D03*
X645000Y962000D02*
D03*
X769000Y998000D02*
D03*
Y991000D02*
D03*
Y984000D02*
D03*
Y977000D02*
D03*
Y962000D02*
D03*
Y969000D02*
D03*
Y1098000D02*
D03*
Y1090000D02*
D03*
Y1072000D02*
D03*
Y1081000D02*
D03*
X642000Y1160000D02*
D03*
X651000D02*
D03*
X661000D02*
D03*
X671000D02*
D03*
X688000D02*
D03*
X680000D02*
D03*
X449000Y1407000D02*
D03*
Y1399000D02*
D03*
Y1391000D02*
D03*
Y1383000D02*
D03*
Y1376000D02*
D03*
Y1368000D02*
D03*
Y1360000D02*
D03*
Y1352000D02*
D03*
X320000D02*
D03*
Y1360000D02*
D03*
Y1368000D02*
D03*
Y1376000D02*
D03*
Y1383000D02*
D03*
Y1391000D02*
D03*
Y1399000D02*
D03*
Y1407000D02*
D03*
X39000Y1208000D02*
D03*
Y1192000D02*
D03*
Y1199000D02*
D03*
X1188499Y445000D02*
D03*
Y451000D02*
D03*
Y457000D02*
D03*
Y464000D02*
D03*
Y471000D02*
D03*
Y478000D02*
D03*
Y485000D02*
D03*
X1151000D02*
D03*
Y478000D02*
D03*
Y472000D02*
D03*
Y466000D02*
D03*
Y459000D02*
D03*
Y452000D02*
D03*
Y445000D02*
D03*
X1171000Y786000D02*
D03*
Y777000D02*
D03*
Y769000D02*
D03*
Y761000D02*
D03*
Y752000D02*
D03*
Y743000D02*
D03*
Y735000D02*
D03*
X1131443D02*
D03*
Y743000D02*
D03*
Y752000D02*
D03*
Y761000D02*
D03*
Y769000D02*
D03*
Y777000D02*
D03*
Y786000D02*
D03*
X1171000Y1048000D02*
D03*
Y1040000D02*
D03*
Y1032000D02*
D03*
Y1025000D02*
D03*
Y1018000D02*
D03*
Y1010000D02*
D03*
Y1002000D02*
D03*
X971559D02*
D03*
Y1010000D02*
D03*
Y1018000D02*
D03*
Y1025000D02*
D03*
Y1032000D02*
D03*
Y1040000D02*
D03*
Y1048000D02*
D03*
X1177000Y1251000D02*
D03*
X1213000D02*
D03*
X1205000D02*
D03*
X1187000D02*
D03*
X1196000D02*
D03*
Y1329000D02*
D03*
X1187000D02*
D03*
X1205000D02*
D03*
X1213000D02*
D03*
X1177000D02*
D03*
X1301000Y1396000D02*
D03*
Y1387000D02*
D03*
Y1377000D02*
D03*
Y1369000D02*
D03*
Y1362000D02*
D03*
Y1354000D02*
D03*
X1336552D02*
D03*
Y1362000D02*
D03*
Y1369000D02*
D03*
Y1377000D02*
D03*
Y1387000D02*
D03*
Y1396000D02*
D03*
X1498000Y1142000D02*
D03*
X1506000D02*
D03*
X1514000D02*
D03*
X1522000D02*
D03*
X1543000D02*
D03*
X1536000D02*
D03*
X1529000D02*
D03*
Y1031989D02*
D03*
X1536000D02*
D03*
X1543000D02*
D03*
X1522000D02*
D03*
X1514000D02*
D03*
X1506000D02*
D03*
X1498000D02*
D03*
X1611000Y1187000D02*
D03*
Y1178000D02*
D03*
Y1171000D02*
D03*
Y1163000D02*
D03*
X1581000Y897000D02*
D03*
Y887000D02*
D03*
Y877000D02*
D03*
Y869000D02*
D03*
Y860000D02*
D03*
Y852000D02*
D03*
X1048750Y476500D02*
D03*
Y446500D02*
D03*
D63*
X1674000Y1503000D02*
D03*
X8000Y18000D02*
D03*
D64*
X415000Y255000D02*
D03*
Y425000D02*
D03*
X245000D02*
D03*
Y255000D02*
D03*
X795000Y725000D02*
D03*
X945000D02*
D03*
X870000Y1325000D02*
D03*
X1490000Y930000D02*
D03*
X1370000D02*
D03*
Y830000D02*
D03*
X1490000D02*
D03*
X965000Y425000D02*
D03*
X795000D02*
D03*
Y255000D02*
D03*
X965000D02*
D03*
D65*
X152000Y373350D02*
D03*
X871250Y1083150D02*
D03*
X712000Y479850D02*
D03*
X712500Y277150D02*
D03*
X1257750Y1361100D02*
D03*
X280012Y1334600D02*
D03*
D66*
X152000Y347950D02*
D03*
Y322550D02*
D03*
Y297150D02*
D03*
X358100Y120000D02*
D03*
X332700D02*
D03*
X307300D02*
D03*
X871250Y1057750D02*
D03*
Y1032350D02*
D03*
Y1006950D02*
D03*
X1394458Y620990D02*
D03*
X1419858D02*
D03*
X1107250Y480050D02*
D03*
Y403850D02*
D03*
Y429250D02*
D03*
Y454650D02*
D03*
X918100Y120000D02*
D03*
X892700D02*
D03*
X867300D02*
D03*
X712000Y403650D02*
D03*
Y429050D02*
D03*
Y454450D02*
D03*
X1108000Y277400D02*
D03*
Y201200D02*
D03*
Y226600D02*
D03*
Y252000D02*
D03*
X712500Y200950D02*
D03*
Y226350D02*
D03*
Y251750D02*
D03*
X1553500Y667750D02*
D03*
X1528100D02*
D03*
X1502700D02*
D03*
X1578600Y490000D02*
D03*
X1502400D02*
D03*
X1527800D02*
D03*
X1553200D02*
D03*
X1273500Y567750D02*
D03*
X1248100D02*
D03*
X1222700D02*
D03*
X1298600Y390000D02*
D03*
X1222400D02*
D03*
X1247800D02*
D03*
X1273200D02*
D03*
X1046500Y692250D02*
D03*
X1071900D02*
D03*
X1097300D02*
D03*
X1021400Y870000D02*
D03*
X1097600D02*
D03*
X1072200D02*
D03*
X1046800D02*
D03*
X1257750Y1386500D02*
D03*
Y1411900D02*
D03*
Y1437300D02*
D03*
X1080000Y1361400D02*
D03*
Y1437600D02*
D03*
Y1412200D02*
D03*
Y1386800D02*
D03*
X280012Y1360000D02*
D03*
Y1385400D02*
D03*
Y1410800D02*
D03*
X148112Y1210000D02*
D03*
X71912D02*
D03*
X97312D02*
D03*
X122712D02*
D03*
X640000Y1199988D02*
D03*
X665400D02*
D03*
X690800D02*
D03*
X490000Y1331888D02*
D03*
Y1408088D02*
D03*
Y1382688D02*
D03*
Y1357288D02*
D03*
X1527552Y1182977D02*
D03*
X1552953D02*
D03*
X1578353D02*
D03*
X1377552Y1314877D02*
D03*
Y1391077D02*
D03*
Y1365677D02*
D03*
Y1340277D02*
D03*
X1199842Y793010D02*
D03*
X1225242D02*
D03*
D67*
X281900Y120000D02*
D03*
X841900Y120000D02*
D03*
X1578900Y667750D02*
D03*
X1298900Y567750D02*
D03*
D68*
X320000Y97200D02*
D03*
X1430000Y885000D02*
D03*
X880000Y97200D02*
D03*
D69*
X550000Y590000D02*
D03*
X90000D02*
D03*
Y90000D02*
D03*
X550000D02*
D03*
X400000Y1183013D02*
D03*
X150000Y750003D02*
D03*
X650000D02*
D03*
X1320000Y990000D02*
D03*
X1540000D02*
D03*
Y770000D02*
D03*
X1320000D02*
D03*
X1110000Y590000D02*
D03*
X650000D02*
D03*
Y90000D02*
D03*
X1110000D02*
D03*
D70*
X306500Y322500D02*
D03*
X424000Y741013D02*
D03*
X394250Y779013D02*
D03*
X814250Y927750D02*
D03*
X826000Y959250D02*
D03*
Y943500D02*
D03*
X834000Y705750D02*
D03*
X861500Y851750D02*
D03*
X930250Y997250D02*
D03*
X870000Y705750D02*
D03*
X1011750Y360250D02*
D03*
X1000250Y483500D02*
D03*
X1162542Y1205010D02*
D03*
D71*
X247350Y1003011D02*
D03*
X234650Y981014D02*
D03*
X561350Y983014D02*
D03*
X548650Y1005011D02*
D03*
X1562458Y214990D02*
D03*
X1587858D02*
D03*
X1252458D02*
D03*
X1227058D02*
D03*
X1562458Y179990D02*
D03*
X1537058D02*
D03*
X1252458D02*
D03*
X1277858D02*
D03*
X1417300Y907800D02*
D03*
X1442700D02*
D03*
X1027142Y1145010D02*
D03*
X1052542D02*
D03*
X1347142D02*
D03*
X1372542D02*
D03*
D72*
X221255Y1003413D02*
D03*
D73*
X574745Y1005413D02*
D03*
D74*
X375750Y716813D02*
D03*
X424250D02*
D03*
D75*
X363750Y690013D02*
D03*
X436250D02*
D03*
D76*
X1537058Y214990D02*
D03*
X1277858D02*
D03*
X1587858Y179990D02*
D03*
X1227058D02*
D03*
X1077942Y1145010D02*
D03*
X1397942D02*
D03*
D77*
X1021100Y692250D02*
D03*
X614600Y1199988D02*
D03*
X1502153Y1182977D02*
D03*
M02*
