G04*
G04 #@! TF.GenerationSoftware,Altium Limited,Altium Designer,18.1.7 (191)*
G04*
G04 Layer_Physical_Order=2*
G04 Layer_Color=16711680*
%FSLAX44Y44*%
%MOMM*%
G71*
G01*
G75*
%ADD12R,1.0000X1.2500*%
%ADD20C,0.6000*%
%ADD21C,1.8000*%
%ADD22C,2.0000*%
%ADD23R,2.0000X2.0000*%
%ADD24C,0.7000*%
%ADD25C,0.5000*%
G36*
X-90002Y496201D02*
X88730Y496116D01*
X90000Y496115D01*
X91199Y495943D01*
X92366Y495711D01*
X94371Y494371D01*
X95711Y492366D01*
X96149Y490167D01*
X96115Y490000D01*
Y390000D01*
X96149Y389833D01*
X95711Y387634D01*
X94371Y385629D01*
X92366Y384289D01*
X90167Y383852D01*
X90000Y383885D01*
X70000Y383885D01*
X70000Y383885D01*
X70000Y383885D01*
X68801Y384057D01*
X67634Y384289D01*
X65629Y385629D01*
X64289Y387634D01*
X63851Y389833D01*
X63885Y390000D01*
X63885Y405000D01*
X63885Y440000D01*
X63589Y441487D01*
X62747Y442747D01*
X61487Y443589D01*
X60000Y443885D01*
X40448D01*
X39922Y445155D01*
X55029Y460261D01*
X67410D01*
Y455400D01*
X67607Y454409D01*
X68169Y453569D01*
X69009Y453007D01*
X70000Y452810D01*
X74839D01*
X75092Y451540D01*
X73676Y450954D01*
X71056Y448944D01*
X69046Y446324D01*
X67783Y443274D01*
X67352Y440000D01*
X67783Y436726D01*
X69046Y433676D01*
X71056Y431056D01*
X73676Y429046D01*
X76233Y427987D01*
Y426613D01*
X73676Y425554D01*
X71056Y423544D01*
X69046Y420924D01*
X67783Y417874D01*
X67352Y414600D01*
X67783Y411326D01*
X69046Y408276D01*
X71056Y405656D01*
X73676Y403646D01*
X76726Y402383D01*
X80000Y401952D01*
X83274Y402383D01*
X86324Y403646D01*
X88944Y405656D01*
X90954Y408276D01*
X92217Y411326D01*
X92648Y414600D01*
X92217Y417874D01*
X90954Y420924D01*
X88944Y423544D01*
X86324Y425554D01*
X83767Y426613D01*
Y427987D01*
X86324Y429046D01*
X88944Y431056D01*
X90954Y433676D01*
X92217Y436726D01*
X92648Y440000D01*
X92217Y443274D01*
X90954Y446324D01*
X88944Y448944D01*
X86324Y450954D01*
X84908Y451540D01*
X85161Y452810D01*
X90000D01*
X90991Y453007D01*
X91831Y453569D01*
X92393Y454409D01*
X92590Y455400D01*
Y475400D01*
X92393Y476391D01*
X91831Y477231D01*
X90991Y477793D01*
X90000Y477990D01*
X70000D01*
X69009Y477793D01*
X68169Y477231D01*
X67607Y476391D01*
X67410Y475400D01*
Y470539D01*
X52900D01*
X50933Y470148D01*
X49266Y469034D01*
X9066Y428834D01*
X7952Y427166D01*
X7561Y425200D01*
Y153362D01*
X6880Y153080D01*
X4470Y151230D01*
X2620Y148820D01*
X1457Y146012D01*
X1060Y143000D01*
X1457Y139987D01*
X2620Y137180D01*
X4470Y134770D01*
X6880Y132920D01*
X9688Y131757D01*
X12700Y131360D01*
X15712Y131757D01*
X18520Y132920D01*
X20930Y134770D01*
X22780Y137180D01*
X23943Y139987D01*
X24340Y143000D01*
X23943Y146012D01*
X22780Y148820D01*
X20930Y151230D01*
X18520Y153080D01*
X17839Y153362D01*
Y423072D01*
X34696Y439929D01*
X35966Y439403D01*
X36115Y179998D01*
X36262Y179263D01*
X36411Y178513D01*
X36412Y178512D01*
X36412Y178511D01*
X36829Y177888D01*
X37253Y177253D01*
X37254Y177253D01*
X37255Y177252D01*
X37892Y176826D01*
X38513Y176411D01*
X38514Y176411D01*
X38516Y176410D01*
X39267Y176261D01*
X40000Y176115D01*
X41230Y176019D01*
X43149Y175831D01*
X46177Y174912D01*
X48967Y173421D01*
X51413Y171413D01*
X53421Y168967D01*
X54912Y166177D01*
X55831Y163149D01*
X56132Y160085D01*
X56115Y160000D01*
X56115Y40000D01*
X56132Y39915D01*
X55831Y36851D01*
X54912Y33823D01*
X53421Y31033D01*
X51413Y28587D01*
X48967Y26579D01*
X46177Y25088D01*
X43149Y24169D01*
X41248Y23982D01*
X40000Y23929D01*
Y23929D01*
X36395Y23455D01*
X33035Y22063D01*
X30151Y19849D01*
X27937Y16965D01*
X26545Y13605D01*
X26071Y10000D01*
X26071D01*
X26141Y8759D01*
X26207Y5695D01*
X25604Y4793D01*
X24578Y4107D01*
X24388Y4070D01*
X23244Y3905D01*
X23934Y4006D01*
X24388Y4070D01*
X24427Y4077D01*
X23934Y4006D01*
X23179Y3899D01*
X21942Y3885D01*
X21764Y3885D01*
X-21764D01*
X-21942Y3885D01*
X-23179Y3899D01*
X-23934Y4006D01*
X-24427Y4077D01*
X-24388Y4070D01*
X-23934Y4006D01*
X-23244Y3905D01*
X-24388Y4070D01*
X-24578Y4107D01*
X-25604Y4793D01*
X-26207Y5695D01*
X-26141Y8759D01*
X-26071Y10000D01*
Y10000D01*
X-26071Y10000D01*
X-26546Y13605D01*
X-27937Y16965D01*
X-30151Y19849D01*
X-33035Y22063D01*
X-36395Y23455D01*
X-38778Y23768D01*
X-40000Y23929D01*
X-41248Y23982D01*
X-43149Y24169D01*
X-46177Y25088D01*
X-48967Y26579D01*
X-51413Y28587D01*
X-53421Y31033D01*
X-54912Y33823D01*
X-55831Y36851D01*
X-56132Y39915D01*
X-56115Y40000D01*
Y160000D01*
X-56132Y160085D01*
X-55831Y163149D01*
X-54912Y166177D01*
X-53421Y168967D01*
X-51413Y171413D01*
X-48967Y173421D01*
X-46177Y174912D01*
X-43149Y175831D01*
X-41230Y176019D01*
X-40000Y176115D01*
X-39260Y176263D01*
X-38519Y176409D01*
X-38517Y176410D01*
X-38513Y176411D01*
X-37887Y176830D01*
X-37258Y177249D01*
X-37256Y177251D01*
X-37253Y177253D01*
X-36833Y177882D01*
X-36414Y178507D01*
X-36413Y178511D01*
X-36411Y178513D01*
X-36264Y179254D01*
X-36115Y179993D01*
X-35757Y395156D01*
X-35760Y395171D01*
X-35757Y395186D01*
X-36032Y440024D01*
X-36182Y440754D01*
X-36328Y441487D01*
X-36335Y441497D01*
X-36337Y441509D01*
X-36755Y442126D01*
X-37170Y442747D01*
X-37180Y442754D01*
X-37187Y442764D01*
X-37810Y443175D01*
X-38430Y443589D01*
X-38442Y443591D01*
X-38452Y443598D01*
X-39185Y443739D01*
X-39917Y443885D01*
X-60000D01*
X-61487Y443589D01*
X-62747Y442747D01*
X-63589Y441487D01*
X-63885Y440000D01*
X-63885Y405085D01*
X-63885Y391355D01*
X-63885Y390085D01*
X-64057Y388886D01*
X-64289Y387720D01*
X-65629Y385714D01*
X-67635Y384374D01*
X-68801Y384142D01*
X-70000Y383970D01*
Y383970D01*
X-90000Y383970D01*
X-90167Y383937D01*
X-92366Y384374D01*
X-94371Y385714D01*
X-95711Y387720D01*
X-96149Y389918D01*
X-96116Y390085D01*
Y490085D01*
X-96149Y490252D01*
X-95711Y492451D01*
X-94371Y494456D01*
X-92366Y495797D01*
X-90168Y496234D01*
X-90002Y496201D01*
D02*
G37*
%LPC*%
G36*
X10000Y483658D02*
X7643Y483190D01*
X5645Y481855D01*
X4311Y479857D01*
X3842Y477500D01*
X4311Y475143D01*
X4351Y475082D01*
Y468711D01*
X4009Y468643D01*
X3169Y468081D01*
X2607Y467241D01*
X2410Y466250D01*
Y453750D01*
X2607Y452759D01*
X3169Y451919D01*
X4009Y451357D01*
X5000Y451160D01*
X15000D01*
X15991Y451357D01*
X16831Y451919D01*
X17393Y452759D01*
X17590Y453750D01*
Y466250D01*
X17393Y467241D01*
X16831Y468081D01*
X15991Y468643D01*
X15648Y468711D01*
Y475082D01*
X15690Y475143D01*
X16158Y477500D01*
X15690Y479857D01*
X14355Y481855D01*
X12357Y483190D01*
X10000Y483658D01*
D02*
G37*
G36*
X-5000Y468840D02*
X-15000D01*
X-15991Y468643D01*
X-16831Y468081D01*
X-17393Y467241D01*
X-17590Y466250D01*
Y453750D01*
X-17393Y452759D01*
X-16831Y451919D01*
X-15991Y451357D01*
X-15000Y451160D01*
X-5000D01*
X-4009Y451357D01*
X-3169Y451919D01*
X-2607Y452759D01*
X-2410Y453750D01*
Y466250D01*
X-2607Y467241D01*
X-3169Y468081D01*
X-4009Y468643D01*
X-5000Y468840D01*
D02*
G37*
G36*
X-70000Y477990D02*
X-90000D01*
X-90991Y477793D01*
X-91831Y477231D01*
X-92393Y476391D01*
X-92590Y475400D01*
Y455400D01*
X-92393Y454409D01*
X-91831Y453569D01*
X-90991Y453007D01*
X-90000Y452810D01*
X-85161D01*
X-84908Y451540D01*
X-86324Y450954D01*
X-88944Y448944D01*
X-90954Y446324D01*
X-92217Y443274D01*
X-92648Y440000D01*
X-92217Y436726D01*
X-90954Y433676D01*
X-88944Y431056D01*
X-86324Y429046D01*
X-83767Y427987D01*
Y426613D01*
X-86324Y425554D01*
X-88944Y423544D01*
X-90954Y420924D01*
X-92217Y417874D01*
X-92648Y414600D01*
X-92217Y411326D01*
X-90954Y408276D01*
X-88944Y405656D01*
X-86324Y403646D01*
X-83274Y402383D01*
X-80000Y401952D01*
X-76726Y402383D01*
X-73676Y403646D01*
X-71056Y405656D01*
X-69046Y408276D01*
X-67783Y411326D01*
X-67352Y414600D01*
X-67783Y417874D01*
X-69046Y420924D01*
X-71056Y423544D01*
X-73676Y425554D01*
X-76233Y426613D01*
Y427987D01*
X-73676Y429046D01*
X-71056Y431056D01*
X-69046Y433676D01*
X-67783Y436726D01*
X-67352Y440000D01*
X-67783Y443274D01*
X-69046Y446324D01*
X-71056Y448944D01*
X-73676Y450954D01*
X-75092Y451540D01*
X-74839Y452810D01*
X-70000D01*
X-69009Y453007D01*
X-68169Y453569D01*
X-67607Y454409D01*
X-67410Y455400D01*
Y475400D01*
X-67607Y476391D01*
X-68169Y477231D01*
X-69009Y477793D01*
X-70000Y477990D01*
D02*
G37*
G36*
X38100Y154640D02*
X35087Y154243D01*
X32280Y153080D01*
X29870Y151230D01*
X28020Y148820D01*
X26857Y146012D01*
X26460Y143000D01*
X26857Y139987D01*
X28020Y137180D01*
X29870Y134770D01*
X32280Y132920D01*
X35087Y131757D01*
X38100Y131360D01*
X41112Y131757D01*
X43920Y132920D01*
X46330Y134770D01*
X48180Y137180D01*
X49343Y139987D01*
X49739Y143000D01*
X49343Y146012D01*
X48180Y148820D01*
X46330Y151230D01*
X43920Y153080D01*
X41112Y154243D01*
X38100Y154640D01*
D02*
G37*
G36*
X-12700D02*
X-15712Y154243D01*
X-18520Y153080D01*
X-20930Y151230D01*
X-22780Y148820D01*
X-23943Y146012D01*
X-24340Y143000D01*
X-23943Y139987D01*
X-22780Y137180D01*
X-20930Y134770D01*
X-18520Y132920D01*
X-15712Y131757D01*
X-12700Y131360D01*
X-9688Y131757D01*
X-6880Y132920D01*
X-4470Y134770D01*
X-2620Y137180D01*
X-1457Y139987D01*
X-1060Y143000D01*
X-1457Y146012D01*
X-2620Y148820D01*
X-4470Y151230D01*
X-6880Y153080D01*
X-9688Y154243D01*
X-12700Y154640D01*
D02*
G37*
G36*
X-38100D02*
X-41112Y154243D01*
X-43920Y153080D01*
X-46330Y151230D01*
X-48180Y148820D01*
X-49343Y146012D01*
X-49739Y143000D01*
X-49343Y139987D01*
X-48180Y137180D01*
X-46330Y134770D01*
X-43920Y132920D01*
X-41112Y131757D01*
X-38100Y131360D01*
X-35087Y131757D01*
X-32280Y132920D01*
X-29870Y134770D01*
X-28020Y137180D01*
X-26857Y139987D01*
X-26460Y143000D01*
X-26857Y146012D01*
X-28020Y148820D01*
X-29870Y151230D01*
X-32280Y153080D01*
X-35087Y154243D01*
X-38100Y154640D01*
D02*
G37*
%LPD*%
D12*
X-10000Y460000D02*
D03*
X10000D02*
D03*
D20*
Y477500D01*
D21*
X12700Y143000D02*
D03*
X-12700D02*
D03*
X-38100D02*
D03*
X38100D02*
D03*
D22*
X-80000Y414600D02*
D03*
Y440000D02*
D03*
X80000Y414600D02*
D03*
Y440000D02*
D03*
D23*
X-80000Y465400D02*
D03*
X80000D02*
D03*
D24*
X10000Y477500D02*
D03*
D25*
X52900Y465400D02*
X80000D01*
X12700Y425200D02*
X52900Y465400D01*
X12700Y143000D02*
Y425200D01*
M02*
