M48
;Layer_Color=9474304
;FILE_FORMAT=4:4
METRIC,LZ
;TYPE=PLATED
T1F00S00C0.3000
T2F00S00C0.5000
T3F00S00C0.7000
T4F00S00C0.7620
T5F00S00C1.0000
T6F00S00C1.1000
T7F00S00C1.7600
T9F00S00C3.0000
T10F00S00C4.8000
%
T01
X0071725Y0008975
X0067925Y00194
X006635
X0064775Y0020575
X0057175Y001585
X0042575Y0015
X0042575Y00186
X00424Y00461013
X0039425Y00499013
X0082499Y00810042
T02
X001745Y0004775
X00181
X0018775
X0019425
X002005
X0035225Y001245
Y00131
Y0013775
Y0014425
X003675Y0014475
Y0013825
Y001315
Y00125
X00519Y000475
X0052525
X0053175
X005385
X00545
X00779
X0078525
X0079175
X007985
X00805
X00915Y00067
X00925Y0007
X00936Y00074
X00944Y00077
X00953Y00081
X00962Y00084
X00971Y00087
X00981Y00091
X00991Y00095
X01Y00099
X01009Y00102
X01017Y00105
X0113825Y000975
Y00091
Y0008425
Y0007775
Y000715
X013395Y0028625
X0134575
X0135225
X01359
X013655
X01315Y00257
Y00249
X01171Y00256
Y00262
Y00268
X01170541Y00274804
Y00281805
X01003093Y00502315
X00996843
X00990343
X00983593
X00977093
X00976593Y00517565
X00983093
X00989843
X00996343
X01002593
X00578Y0036775
X0057175
X0056525
X005585
X00552
X005525Y002525
X00559Y00252
X00566
X00572
X00578
X003675Y00151
X0035225Y001505
X00231Y003525
X0022475
X0021825
X002115
X00205
X002045Y0036775
X00211
X0021775
X0022425
X002305
X000475Y00221
Y0021475
Y0020825
Y002015
Y00195
X00165Y00703
X00169Y00711
X00174Y00718
X00178Y00726
X00182Y00733
X00186Y0074
X0019Y00747
X00194Y00754
X00198Y00761
X00202Y00767
X00572Y00809
X00567Y00817
X00563Y00824
X00559Y00831
X00554Y00838
X0055Y00845
X00778Y00844
Y00837
Y0083
Y00823
Y00816
Y00809
X009595Y0081775
X00966
X0097275
X0097925
X009855
X009975Y009025
X01004
X0101075
X0101725
X010235
X012025
X01209
X0121575
X0122225
X012285
X011755Y0081775
X0116925
X0116275
X01156
X011495
X0115Y006025
X011565
X0116325
X0116975
X01176
X00986
X0097975
X0097325
X009665
X0096
X014325Y00575
Y005685
Y0056175
Y0055525
Y00549
X013825Y008465
Y0085275
Y0085925
Y00866
Y008725
T03
X0037575Y00436813
X0042425
T04
X000175Y000175
X014925Y011325
T05
X013625Y00218416
Y00243815
X013371
Y00218416
T06
X011573Y00071115
Y00096516
X011827
Y00071115
X01129541Y00252727
Y00278127
Y00303527
Y00328927
X0126526Y00379558
Y00404958
Y00430358
X0130026
Y00404958
Y00379558
X01004941Y00460827
X00979541
X00954141
X00928741
X0080315Y0014875
X0077775
X0075235
X0072695
X002127Y002278
X001873
X0023465Y00701014
X0024735Y00723011
X0054865Y00725011
X0056135Y00703014
X0088499Y00700042
Y00674642
Y00725442
X0085926Y00572358
Y00546958
X0126526Y00689558
Y00714958
Y00740358
X0130026
Y00714958
Y00689558
X0123699Y00847342
Y00872742
X0088499Y00994642
Y01020042
Y01045442
T07
X0036375Y00410013
X0043625
T09
X00445Y00075
X01045Y0015
X00445Y00225
X0026Y0025
Y0015
X0014
Y0025
T10
X0009Y0009
X0031
X0065Y00470003
X0015
X0031Y0031
X0009
X004Y00903013
M30
