G04 Layer_Physical_Order=2*
G04 Layer_Color=16711680*
%FSLAX44Y44*%
%MOMM*%
G71*
G01*
G75*
%ADD15C,0.6000*%
%ADD16C,4.0000*%
%ADD17P,1.9483X8X22.5*%
%ADD18C,1.8000*%
%ADD19P,1.9483X8X292.5*%
%ADD20C,6.0000*%
G36*
X537186Y585278D02*
X539040Y584040D01*
X540278Y582186D01*
X540680Y580167D01*
X540646Y580000D01*
Y20000D01*
X540680Y19833D01*
X540278Y17814D01*
X539040Y15960D01*
X537186Y14722D01*
X536199Y14526D01*
X535000Y14354D01*
Y14354D01*
X15000D01*
X14833Y14320D01*
X12814Y14722D01*
X10961Y15960D01*
X9722Y17814D01*
X9526Y18801D01*
X9354Y20000D01*
X9354D01*
Y580000D01*
X9320Y580167D01*
X9722Y582186D01*
X10961Y584040D01*
X12814Y585278D01*
X14833Y585680D01*
X15000Y585646D01*
X535000D01*
X535167Y585680D01*
X537186Y585278D01*
D02*
G37*
%LPC*%
G36*
X150000Y173111D02*
X145491Y172667D01*
X141156Y171352D01*
X137160Y169216D01*
X133658Y166342D01*
X130784Y162840D01*
X128648Y158844D01*
X127333Y154509D01*
X126889Y150000D01*
X127333Y145491D01*
X128648Y141156D01*
X130784Y137160D01*
X133658Y133658D01*
X137160Y130784D01*
X141156Y128648D01*
X145491Y127333D01*
X150000Y126889D01*
X154509Y127333D01*
X158844Y128648D01*
X162840Y130784D01*
X166342Y133658D01*
X169216Y137160D01*
X171352Y141156D01*
X172667Y145491D01*
X173111Y150000D01*
X172667Y154509D01*
X171352Y158844D01*
X169216Y162840D01*
X166342Y166342D01*
X162840Y169216D01*
X158844Y171352D01*
X154509Y172667D01*
X150000Y173111D01*
D02*
G37*
G36*
X450000D02*
X445491Y172667D01*
X441156Y171352D01*
X437160Y169216D01*
X433658Y166342D01*
X430784Y162840D01*
X428648Y158844D01*
X427333Y154509D01*
X426889Y150000D01*
X427333Y145491D01*
X428648Y141156D01*
X430784Y137160D01*
X433658Y133658D01*
X437160Y130784D01*
X441156Y128648D01*
X445491Y127333D01*
X450000Y126889D01*
X454509Y127333D01*
X458844Y128648D01*
X462840Y130784D01*
X466342Y133658D01*
X469216Y137160D01*
X471352Y141156D01*
X472667Y145491D01*
X473111Y150000D01*
X472667Y154509D01*
X471352Y158844D01*
X469216Y162840D01*
X466342Y166342D01*
X462840Y169216D01*
X458844Y171352D01*
X454509Y172667D01*
X450000Y173111D01*
D02*
G37*
G36*
X505000Y347504D02*
X501867Y347091D01*
X498948Y345882D01*
X496441Y343959D01*
X494568Y341517D01*
X430400D01*
X428059Y341052D01*
X426074Y339726D01*
X308774Y222426D01*
X307448Y220441D01*
X306982Y218100D01*
Y90431D01*
X304541Y88559D01*
X302618Y86052D01*
X301409Y83133D01*
X301116Y80905D01*
X301040Y80334D01*
X299760D01*
X299684Y80905D01*
X299391Y83133D01*
X298182Y86052D01*
X296259Y88559D01*
X293752Y90482D01*
X290833Y91691D01*
X287700Y92104D01*
X284567Y91691D01*
X281648Y90482D01*
X279142Y88559D01*
X277218Y86052D01*
X276009Y83133D01*
X275716Y80905D01*
X275640Y80334D01*
X274360D01*
X274284Y80905D01*
X273991Y83133D01*
X272782Y86052D01*
X270858Y88559D01*
X268352Y90482D01*
X265433Y91691D01*
X262300Y92104D01*
X259167Y91691D01*
X256248Y90482D01*
X253741Y88559D01*
X251818Y86052D01*
X250609Y83133D01*
X250362Y81255D01*
X249656Y80910D01*
X249029Y80862D01*
X248959Y80944D01*
Y84500D01*
X248959Y84500D01*
X248726Y85670D01*
X248063Y86663D01*
X243563Y91163D01*
X243018Y91527D01*
Y278100D01*
X242552Y280441D01*
X241226Y282426D01*
X185976Y337676D01*
X183991Y339002D01*
X181650Y339468D01*
X118527D01*
X118163Y340013D01*
X113663Y344513D01*
X112670Y345176D01*
X111500Y345409D01*
X102500D01*
X102500Y345409D01*
X101329Y345176D01*
X100337Y344513D01*
X95837Y340013D01*
X95174Y339021D01*
X94941Y337850D01*
Y328850D01*
X94941Y328850D01*
X95174Y327679D01*
X95837Y326687D01*
X100337Y322187D01*
X101329Y321524D01*
X102500Y321291D01*
X106671D01*
X106755Y320021D01*
X106038Y319927D01*
X103867Y319641D01*
X100948Y318432D01*
X98441Y316509D01*
X96518Y314002D01*
X95309Y311083D01*
X94896Y307950D01*
X95309Y304817D01*
X96518Y301898D01*
X98441Y299391D01*
X100948Y297468D01*
X103867Y296259D01*
X106095Y295966D01*
X106666Y295890D01*
Y294610D01*
X106095Y294534D01*
X103867Y294241D01*
X100948Y293032D01*
X98441Y291108D01*
X96518Y288602D01*
X95309Y285683D01*
X94896Y282550D01*
X95309Y279417D01*
X96518Y276498D01*
X98441Y273992D01*
X100948Y272068D01*
X103867Y270859D01*
X106095Y270566D01*
X106666Y270490D01*
Y269210D01*
X106095Y269134D01*
X103867Y268841D01*
X100948Y267632D01*
X98441Y265709D01*
X96518Y263202D01*
X95309Y260283D01*
X94896Y257150D01*
X95309Y254017D01*
X96518Y251098D01*
X98441Y248591D01*
X100948Y246668D01*
X103867Y245459D01*
X107000Y245047D01*
X110133Y245459D01*
X113052Y246668D01*
X115559Y248591D01*
X117482Y251098D01*
X118691Y254017D01*
X119103Y257150D01*
X118691Y260283D01*
X117482Y263202D01*
X115559Y265709D01*
X113052Y267632D01*
X110133Y268841D01*
X107905Y269134D01*
X107334Y269210D01*
Y270490D01*
X107905Y270566D01*
X110133Y270859D01*
X113052Y272068D01*
X115559Y273992D01*
X117482Y276498D01*
X118691Y279417D01*
X119103Y282550D01*
X118691Y285683D01*
X117482Y288602D01*
X115559Y291108D01*
X113052Y293032D01*
X110133Y294241D01*
X107905Y294534D01*
X107334Y294610D01*
Y295890D01*
X107905Y295966D01*
X110133Y296259D01*
X113052Y297468D01*
X115559Y299391D01*
X117482Y301898D01*
X118691Y304817D01*
X119103Y307950D01*
X118691Y311083D01*
X117482Y314002D01*
X115559Y316509D01*
X113052Y318432D01*
X110133Y319641D01*
X107962Y319927D01*
X107245Y320021D01*
X107329Y321291D01*
X111500D01*
X111500Y321291D01*
X112670Y321524D01*
X113663Y322187D01*
X118163Y326687D01*
X118527Y327233D01*
X179116D01*
X230783Y275566D01*
Y91527D01*
X230237Y91163D01*
X225737Y86663D01*
X225074Y85670D01*
X224841Y84500D01*
Y75500D01*
X224841Y75500D01*
X225074Y74330D01*
X225737Y73337D01*
X230237Y68837D01*
X231229Y68174D01*
X232400Y67941D01*
X238833D01*
X239441Y67200D01*
Y47200D01*
X239674Y46029D01*
X240337Y45037D01*
X241329Y44374D01*
X242500Y44141D01*
X307500D01*
X308671Y44374D01*
X309663Y45037D01*
X310326Y46029D01*
X310559Y47200D01*
Y66950D01*
X311352Y68046D01*
X311418Y68118D01*
X313100Y67896D01*
X316233Y68309D01*
X319152Y69518D01*
X321659Y71441D01*
X323582Y73948D01*
X324791Y76867D01*
X325204Y80000D01*
X324791Y83133D01*
X323582Y86052D01*
X321659Y88559D01*
X319217Y90431D01*
Y215566D01*
X432934Y329282D01*
X494568D01*
X496441Y326842D01*
X498948Y324918D01*
X501867Y323709D01*
X504095Y323416D01*
X504666Y323340D01*
Y322060D01*
X504095Y321984D01*
X501867Y321691D01*
X498948Y320482D01*
X496441Y318559D01*
X494518Y316052D01*
X493309Y313133D01*
X492896Y310000D01*
X493309Y306867D01*
X494518Y303948D01*
X496441Y301441D01*
X498948Y299518D01*
X501867Y298309D01*
X504095Y298016D01*
X504666Y297940D01*
Y296660D01*
X504095Y296584D01*
X501867Y296291D01*
X498948Y295082D01*
X496441Y293158D01*
X494518Y290652D01*
X493309Y287733D01*
X492896Y284600D01*
X493309Y281467D01*
X494518Y278548D01*
X496441Y276042D01*
X498948Y274118D01*
X501867Y272909D01*
X504095Y272616D01*
X504666Y272540D01*
Y271260D01*
X504095Y271184D01*
X501867Y270891D01*
X498948Y269682D01*
X496441Y267759D01*
X494518Y265252D01*
X493309Y262333D01*
X492896Y259200D01*
X493309Y256067D01*
X494518Y253148D01*
X496441Y250641D01*
X498948Y248718D01*
X501867Y247509D01*
X505000Y247097D01*
X508133Y247509D01*
X511052Y248718D01*
X513559Y250641D01*
X515482Y253148D01*
X516691Y256067D01*
X517104Y259200D01*
X516691Y262333D01*
X515482Y265252D01*
X513559Y267759D01*
X511052Y269682D01*
X508133Y270891D01*
X505905Y271184D01*
X505334Y271260D01*
Y272540D01*
X505905Y272616D01*
X508133Y272909D01*
X511052Y274118D01*
X513559Y276042D01*
X515482Y278548D01*
X516691Y281467D01*
X517104Y284600D01*
X516691Y287733D01*
X515482Y290652D01*
X513559Y293158D01*
X511052Y295082D01*
X508133Y296291D01*
X505905Y296584D01*
X505334Y296660D01*
Y297940D01*
X505905Y298016D01*
X508133Y298309D01*
X511052Y299518D01*
X513559Y301441D01*
X515482Y303948D01*
X516691Y306867D01*
X517104Y310000D01*
X516691Y313133D01*
X515482Y316052D01*
X513559Y318559D01*
X511052Y320482D01*
X508133Y321691D01*
X505905Y321984D01*
X505334Y322060D01*
Y323340D01*
X505905Y323416D01*
X508133Y323709D01*
X511052Y324918D01*
X513559Y326842D01*
X515482Y329348D01*
X516691Y332267D01*
X517104Y335400D01*
X516691Y338533D01*
X515482Y341452D01*
X513559Y343959D01*
X511052Y345882D01*
X508133Y347091D01*
X505000Y347504D01*
D02*
G37*
G36*
X45000Y83102D02*
X39822Y82695D01*
X34771Y81482D01*
X29972Y79494D01*
X25543Y76780D01*
X21593Y73407D01*
X18220Y69457D01*
X15506Y65028D01*
X13518Y60229D01*
X12306Y55178D01*
X11898Y50000D01*
X12306Y44822D01*
X13518Y39771D01*
X15506Y34972D01*
X18220Y30543D01*
X21593Y26593D01*
X25543Y23220D01*
X29972Y20506D01*
X34771Y18518D01*
X39822Y17306D01*
X45000Y16898D01*
X50178Y17306D01*
X55229Y18518D01*
X60028Y20506D01*
X64457Y23220D01*
X68407Y26593D01*
X71780Y30543D01*
X74494Y34972D01*
X76482Y39771D01*
X77695Y44822D01*
X78102Y50000D01*
X77695Y55178D01*
X76482Y60229D01*
X74494Y65028D01*
X71780Y69457D01*
X68407Y73407D01*
X64457Y76780D01*
X60028Y79494D01*
X55229Y81482D01*
X50178Y82695D01*
X45000Y83102D01*
D02*
G37*
G36*
X505000D02*
X499822Y82695D01*
X494771Y81482D01*
X489972Y79494D01*
X485543Y76780D01*
X481593Y73407D01*
X478220Y69457D01*
X475506Y65028D01*
X473518Y60229D01*
X472305Y55178D01*
X471898Y50000D01*
X472305Y44822D01*
X473518Y39771D01*
X475506Y34972D01*
X478220Y30543D01*
X481593Y26593D01*
X485543Y23220D01*
X489972Y20506D01*
X494771Y18518D01*
X499822Y17306D01*
X505000Y16898D01*
X510178Y17306D01*
X515229Y18518D01*
X520028Y20506D01*
X524457Y23220D01*
X528407Y26593D01*
X531780Y30543D01*
X534494Y34972D01*
X536482Y39771D01*
X537695Y44822D01*
X538102Y50000D01*
X537695Y55178D01*
X536482Y60229D01*
X534494Y65028D01*
X531780Y69457D01*
X528407Y73407D01*
X524457Y76780D01*
X520028Y79494D01*
X515229Y81482D01*
X510178Y82695D01*
X505000Y83102D01*
D02*
G37*
G36*
X60597Y437348D02*
X59403D01*
X57648Y436999D01*
X56545Y436542D01*
X55056Y435548D01*
X54212Y434704D01*
X53218Y433215D01*
X52761Y432113D01*
X52412Y430357D01*
Y430056D01*
X52353Y429760D01*
X52412Y429464D01*
Y429163D01*
X52761Y427407D01*
X53218Y426305D01*
X54212Y424816D01*
X55056Y423972D01*
X56545Y422978D01*
X57648Y422521D01*
X59403Y422172D01*
X60597D01*
X62352Y422521D01*
X63455Y422978D01*
X64944Y423972D01*
X65788Y424816D01*
X66782Y426305D01*
X67239Y427407D01*
X67588Y429163D01*
Y429464D01*
X67647Y429760D01*
X67588Y430056D01*
Y430357D01*
X67239Y432113D01*
X66782Y433215D01*
X65788Y434704D01*
X64944Y435548D01*
X63455Y436542D01*
X62353Y436999D01*
X60597Y437348D01*
D02*
G37*
G36*
X45000Y583102D02*
X39822Y582695D01*
X34771Y581482D01*
X29972Y579494D01*
X25543Y576780D01*
X21593Y573407D01*
X18220Y569457D01*
X15506Y565028D01*
X13518Y560229D01*
X12306Y555178D01*
X11898Y550000D01*
X12306Y544822D01*
X13518Y539771D01*
X15506Y534972D01*
X18220Y530543D01*
X21593Y526593D01*
X25543Y523220D01*
X29972Y520506D01*
X34771Y518518D01*
X39822Y517305D01*
X45000Y516898D01*
X50178Y517305D01*
X55229Y518518D01*
X60028Y520506D01*
X64457Y523220D01*
X68407Y526593D01*
X71780Y530543D01*
X74494Y534972D01*
X76482Y539771D01*
X77695Y544822D01*
X78102Y550000D01*
X77695Y555178D01*
X76482Y560229D01*
X74494Y565028D01*
X71780Y569457D01*
X68407Y573407D01*
X64457Y576780D01*
X60028Y579494D01*
X55229Y581482D01*
X50178Y582695D01*
X45000Y583102D01*
D02*
G37*
G36*
X505000D02*
X499822Y582695D01*
X494771Y581482D01*
X489972Y579494D01*
X485543Y576780D01*
X481593Y573407D01*
X478220Y569457D01*
X475506Y565028D01*
X473518Y560229D01*
X472305Y555178D01*
X471898Y550000D01*
X472305Y544822D01*
X473518Y539771D01*
X475506Y534972D01*
X478220Y530543D01*
X481593Y526593D01*
X485543Y523220D01*
X489972Y520506D01*
X494771Y518518D01*
X499822Y517305D01*
X505000Y516898D01*
X510178Y517305D01*
X515229Y518518D01*
X520028Y520506D01*
X524457Y523220D01*
X528407Y526593D01*
X531780Y530543D01*
X534494Y534972D01*
X536482Y539771D01*
X537695Y544822D01*
X538102Y550000D01*
X537695Y555178D01*
X536482Y560229D01*
X534494Y565028D01*
X531780Y569457D01*
X528407Y573407D01*
X524457Y576780D01*
X520028Y579494D01*
X515229Y581482D01*
X510178Y582695D01*
X505000Y583102D01*
D02*
G37*
G36*
X60597Y467348D02*
X59403D01*
X57648Y466999D01*
X56545Y466542D01*
X55056Y465548D01*
X54212Y464704D01*
X53218Y463215D01*
X52761Y462113D01*
X52412Y460357D01*
Y460056D01*
X52353Y459760D01*
X52412Y459464D01*
Y459163D01*
X52761Y457407D01*
X53218Y456305D01*
X54212Y454816D01*
X55056Y453972D01*
X56545Y452978D01*
X57648Y452521D01*
X59403Y452172D01*
X60597D01*
X62352Y452521D01*
X63455Y452978D01*
X64944Y453972D01*
X65788Y454816D01*
X66782Y456305D01*
X67239Y457407D01*
X67588Y459163D01*
Y459464D01*
X67647Y459760D01*
X67588Y460056D01*
Y460357D01*
X67239Y462113D01*
X66782Y463215D01*
X65788Y464704D01*
X64944Y465548D01*
X63455Y466542D01*
X62353Y466999D01*
X60597Y467348D01*
D02*
G37*
G36*
X150000Y473111D02*
X145491Y472667D01*
X141156Y471352D01*
X137160Y469216D01*
X133658Y466342D01*
X130784Y462840D01*
X128648Y458844D01*
X127333Y454509D01*
X126889Y450000D01*
X127333Y445491D01*
X128648Y441156D01*
X130784Y437160D01*
X133658Y433658D01*
X137160Y430784D01*
X141156Y428648D01*
X145491Y427333D01*
X150000Y426889D01*
X154509Y427333D01*
X158844Y428648D01*
X162840Y430784D01*
X166342Y433658D01*
X169216Y437160D01*
X171352Y441156D01*
X172667Y445491D01*
X173111Y450000D01*
X172667Y454509D01*
X171352Y458844D01*
X169216Y462840D01*
X166342Y466342D01*
X162840Y469216D01*
X158844Y471352D01*
X154509Y472667D01*
X150000Y473111D01*
D02*
G37*
G36*
X450000D02*
X445491Y472667D01*
X441156Y471352D01*
X437160Y469216D01*
X433658Y466342D01*
X430784Y462840D01*
X428648Y458844D01*
X427333Y454509D01*
X426889Y450000D01*
X427333Y445491D01*
X428648Y441156D01*
X430784Y437160D01*
X433658Y433658D01*
X437160Y430784D01*
X441156Y428648D01*
X445491Y427333D01*
X450000Y426889D01*
X454509Y427333D01*
X458844Y428648D01*
X462840Y430784D01*
X466342Y433658D01*
X469216Y437160D01*
X471352Y441156D01*
X472667Y445491D01*
X473111Y450000D01*
X472667Y454509D01*
X471352Y458844D01*
X469216Y462840D01*
X466342Y466342D01*
X462840Y469216D01*
X458844Y471352D01*
X454509Y472667D01*
X450000Y473111D01*
D02*
G37*
%LPD*%
D15*
X236900Y80000D02*
Y278100D01*
X181650Y333350D02*
X236900Y278100D01*
X107000Y333350D02*
X181650D01*
X313100Y80000D02*
Y218100D01*
X430400Y335400D01*
X505000D01*
D16*
X450000Y450000D02*
D03*
Y150000D02*
D03*
X150000D02*
D03*
Y450000D02*
D03*
D17*
X236900Y80000D02*
D03*
D18*
X262300D02*
D03*
X287700D02*
D03*
X313100D02*
D03*
X107000Y257150D02*
D03*
Y282550D02*
D03*
Y307950D02*
D03*
X505000Y310000D02*
D03*
Y284600D02*
D03*
Y259200D02*
D03*
Y335400D02*
D03*
D19*
X107000Y333350D02*
D03*
D20*
X505000Y50000D02*
D03*
X45000D02*
D03*
Y550000D02*
D03*
X505000D02*
D03*
M02*
