G04 Layer_Physical_Order=2*
G04 Layer_Color=16711680*
%FSLAX44Y44*%
%MOMM*%
G71*
G01*
G75*
%ADD14C,0.6000*%
%ADD15P,1.9483X8X22.5*%
%ADD16C,1.8000*%
%ADD17P,1.9483X8X292.5*%
%ADD18C,6.0000*%
%ADD19C,4.0000*%
%ADD20C,0.7000*%
%ADD21R,0.5000X0.4000*%
%ADD22C,0.3000*%
G36*
X537366Y585711D02*
X539371Y584371D01*
X540711Y582366D01*
X541149Y580167D01*
X541115Y580000D01*
Y20000D01*
X541149Y19833D01*
X540711Y17634D01*
X539371Y15629D01*
X537366Y14289D01*
X536199Y14057D01*
X535000Y13885D01*
Y13885D01*
X15000D01*
X14833Y13851D01*
X12634Y14289D01*
X10629Y15629D01*
X9289Y17634D01*
X9057Y18801D01*
X8885Y20000D01*
X8885D01*
Y580000D01*
X8851Y580167D01*
X9289Y582366D01*
X10629Y584371D01*
X12634Y585711D01*
X14833Y586149D01*
X15000Y586115D01*
X535000D01*
X535167Y586149D01*
X537366Y585711D01*
D02*
G37*
%LPC*%
G36*
X487500Y306158D02*
X485143Y305690D01*
X483145Y304355D01*
X481810Y302357D01*
X481342Y300000D01*
X481810Y297643D01*
X481852Y297582D01*
Y208750D01*
X481852Y208750D01*
X482281Y206588D01*
X483506Y204756D01*
X485506Y202756D01*
X485506Y202756D01*
X487338Y201531D01*
X489500Y201101D01*
X489500Y201101D01*
X494349D01*
X494420Y200930D01*
X496270Y198520D01*
X498680Y196670D01*
X501488Y195507D01*
X504500Y195110D01*
X507513Y195507D01*
X510320Y196670D01*
X512730Y198520D01*
X514580Y200930D01*
X515743Y203738D01*
X516140Y206750D01*
X515743Y209762D01*
X514580Y212570D01*
X512730Y214980D01*
X510320Y216830D01*
X507513Y217993D01*
X504500Y218390D01*
X501488Y217993D01*
X498680Y216830D01*
X496270Y214980D01*
X494420Y212570D01*
X494349Y212398D01*
X493148D01*
Y226081D01*
X494418Y226333D01*
X494420Y226330D01*
X496270Y223920D01*
X498680Y222070D01*
X501488Y220907D01*
X504500Y220511D01*
X507513Y220907D01*
X510320Y222070D01*
X512730Y223920D01*
X514580Y226330D01*
X515743Y229137D01*
X516140Y232150D01*
X515743Y235163D01*
X514580Y237970D01*
X512730Y240380D01*
X510320Y242230D01*
X507513Y243393D01*
X504500Y243790D01*
X501488Y243393D01*
X498680Y242230D01*
X496270Y240380D01*
X494420Y237970D01*
X494418Y237967D01*
X493148Y238219D01*
Y297582D01*
X493190Y297643D01*
X493658Y300000D01*
X493190Y302357D01*
X491855Y304355D01*
X489857Y305690D01*
X487500Y306158D01*
D02*
G37*
G36*
X504500Y192990D02*
X501488Y192593D01*
X498680Y191430D01*
X496270Y189580D01*
X494420Y187170D01*
X493257Y184363D01*
X492860Y181350D01*
X493257Y178337D01*
X494420Y175530D01*
X496270Y173120D01*
X498680Y171270D01*
X501488Y170107D01*
X504500Y169711D01*
X507513Y170107D01*
X510320Y171270D01*
X512730Y173120D01*
X514580Y175530D01*
X515743Y178337D01*
X516140Y181350D01*
X515743Y184363D01*
X514580Y187170D01*
X512730Y189580D01*
X510320Y191430D01*
X507513Y192593D01*
X504500Y192990D01*
D02*
G37*
G36*
X107000Y273540D02*
X103988Y273143D01*
X101180Y271980D01*
X98770Y270130D01*
X96920Y267720D01*
X95757Y264913D01*
X95360Y261900D01*
X95757Y258888D01*
X96920Y256080D01*
X98770Y253670D01*
X101180Y251820D01*
X103988Y250657D01*
X107000Y250261D01*
X110013Y250657D01*
X112820Y251820D01*
X115230Y253670D01*
X117080Y256080D01*
X117412Y256881D01*
X135100D01*
X135509Y256607D01*
X136500Y256410D01*
X141500D01*
X142491Y256607D01*
X143331Y257169D01*
X143893Y258009D01*
X144090Y259000D01*
Y263000D01*
X143893Y263991D01*
X143331Y264831D01*
X142491Y265393D01*
X141500Y265590D01*
X136500D01*
X135509Y265393D01*
X135100Y265119D01*
X118157D01*
X117080Y267720D01*
X115230Y270130D01*
X112820Y271980D01*
X110013Y273143D01*
X107000Y273540D01*
D02*
G37*
G36*
Y298940D02*
X103988Y298543D01*
X101180Y297380D01*
X98770Y295530D01*
X96920Y293120D01*
X95757Y290313D01*
X95360Y287300D01*
X95757Y284287D01*
X96920Y281480D01*
X98770Y279070D01*
X101180Y277220D01*
X103988Y276057D01*
X107000Y275660D01*
X110013Y276057D01*
X112820Y277220D01*
X115230Y279070D01*
X117080Y281480D01*
X117660Y282881D01*
X136100D01*
X136509Y282607D01*
X137500Y282410D01*
X142500D01*
X143491Y282607D01*
X144331Y283169D01*
X144893Y284009D01*
X145090Y285000D01*
Y289000D01*
X144893Y289991D01*
X144331Y290831D01*
X143491Y291393D01*
X142500Y291590D01*
X137500D01*
X136509Y291393D01*
X136100Y291119D01*
X117909D01*
X117080Y293120D01*
X115230Y295530D01*
X112820Y297380D01*
X110013Y298543D01*
X107000Y298940D01*
D02*
G37*
G36*
X465505Y292368D02*
X464495D01*
X462739Y292019D01*
X461805Y291632D01*
X460317Y290638D01*
X460317Y290638D01*
X459602Y289923D01*
X459602Y289923D01*
X458608Y288435D01*
X458221Y287501D01*
X457872Y285745D01*
Y285490D01*
X457822Y285240D01*
X457872Y284990D01*
Y284735D01*
X458221Y282979D01*
X458608Y282045D01*
X459602Y280557D01*
X459602Y280557D01*
X460317Y279842D01*
X460317Y279842D01*
X461805Y278848D01*
X462739Y278461D01*
X464495Y278112D01*
X465505D01*
X467261Y278461D01*
X468195Y278848D01*
X469683Y279842D01*
X469683Y279842D01*
X470398Y280557D01*
X470398Y280557D01*
X471392Y282045D01*
X471779Y282979D01*
X472128Y284735D01*
Y284990D01*
X472178Y285240D01*
X472128Y285490D01*
Y285745D01*
X471779Y287501D01*
X471392Y288435D01*
X470398Y289923D01*
X470398Y289923D01*
X469683Y290638D01*
X469683Y290638D01*
X468195Y291632D01*
X467261Y292019D01*
X465505Y292368D01*
D02*
G37*
G36*
X504500Y167590D02*
X501488Y167193D01*
X498680Y166030D01*
X496270Y164180D01*
X494420Y161770D01*
X493257Y158962D01*
X492860Y155950D01*
X493257Y152937D01*
X494420Y150130D01*
X496270Y147720D01*
X498680Y145870D01*
X501488Y144707D01*
X504500Y144311D01*
X507513Y144707D01*
X510320Y145870D01*
X512730Y147720D01*
X514580Y150130D01*
X515743Y152937D01*
X516140Y155950D01*
X515743Y158962D01*
X514580Y161770D01*
X512730Y164180D01*
X510320Y166030D01*
X507513Y167193D01*
X504500Y167590D01*
D02*
G37*
G36*
X505000Y82641D02*
X499894Y82239D01*
X494913Y81043D01*
X490182Y79083D01*
X485814Y76407D01*
X481920Y73080D01*
X478593Y69186D01*
X475917Y64819D01*
X473957Y60086D01*
X472761Y55106D01*
X472359Y50000D01*
X472761Y44894D01*
X473957Y39913D01*
X475917Y35182D01*
X478593Y30814D01*
X481920Y26920D01*
X485814Y23593D01*
X490182Y20917D01*
X494913Y18957D01*
X499894Y17761D01*
X505000Y17359D01*
X510106Y17761D01*
X515087Y18957D01*
X519818Y20917D01*
X524186Y23593D01*
X528080Y26920D01*
X531407Y30814D01*
X534083Y35182D01*
X536043Y39913D01*
X537239Y44894D01*
X537641Y50000D01*
X537239Y55106D01*
X536043Y60086D01*
X534083Y64819D01*
X531407Y69186D01*
X528080Y73080D01*
X524186Y76407D01*
X519818Y79083D01*
X515087Y81043D01*
X510106Y82239D01*
X505000Y82641D01*
D02*
G37*
G36*
X45000D02*
X39894Y82239D01*
X34913Y81043D01*
X30182Y79083D01*
X25814Y76407D01*
X21920Y73080D01*
X18593Y69186D01*
X15917Y64819D01*
X13957Y60086D01*
X12761Y55106D01*
X12359Y50000D01*
X12761Y44894D01*
X13957Y39913D01*
X15917Y35182D01*
X18593Y30814D01*
X21920Y26920D01*
X25814Y23593D01*
X30182Y20917D01*
X34913Y18957D01*
X39894Y17761D01*
X45000Y17359D01*
X50106Y17761D01*
X55086Y18957D01*
X59819Y20917D01*
X64186Y23593D01*
X68080Y26920D01*
X71407Y30814D01*
X74083Y35182D01*
X76043Y39913D01*
X77239Y44894D01*
X77641Y50000D01*
X77239Y55106D01*
X76043Y60086D01*
X74083Y64819D01*
X71407Y69186D01*
X68080Y73080D01*
X64186Y76407D01*
X59819Y79083D01*
X55086Y81043D01*
X50106Y82239D01*
X45000Y82641D01*
D02*
G37*
G36*
X313100Y91640D02*
X310088Y91243D01*
X307280Y90080D01*
X304870Y88230D01*
X303020Y85820D01*
X301857Y83013D01*
X301460Y80000D01*
X301857Y76988D01*
X303020Y74180D01*
X304870Y71770D01*
X305795Y71060D01*
X305364Y69790D01*
X295436D01*
X295005Y71060D01*
X295930Y71770D01*
X297780Y74180D01*
X298943Y76988D01*
X299340Y80000D01*
X298943Y83013D01*
X297780Y85820D01*
X295930Y88230D01*
X293520Y90080D01*
X290713Y91243D01*
X287700Y91640D01*
X284688Y91243D01*
X281880Y90080D01*
X279470Y88230D01*
X277620Y85820D01*
X276457Y83013D01*
X276061Y80000D01*
X276457Y76988D01*
X277620Y74180D01*
X279470Y71770D01*
X280395Y71060D01*
X279963Y69790D01*
X270037D01*
X269605Y71060D01*
X270530Y71770D01*
X272380Y74180D01*
X273543Y76988D01*
X273940Y80000D01*
X273543Y83013D01*
X272380Y85820D01*
X270530Y88230D01*
X268120Y90080D01*
X265313Y91243D01*
X262300Y91640D01*
X259287Y91243D01*
X256480Y90080D01*
X254070Y88230D01*
X252220Y85820D01*
X251057Y83013D01*
X250660Y80000D01*
X251057Y76988D01*
X252220Y74180D01*
X254070Y71770D01*
X254995Y71060D01*
X254564Y69790D01*
X245512D01*
X245026Y70963D01*
X247731Y73669D01*
X248293Y74509D01*
X248490Y75500D01*
Y84500D01*
X248293Y85491D01*
X247731Y86331D01*
X243231Y90831D01*
X242391Y91393D01*
X241400Y91590D01*
X232400D01*
X231409Y91393D01*
X230569Y90831D01*
X226069Y86331D01*
X225507Y85491D01*
X225310Y84500D01*
Y75500D01*
X225507Y74509D01*
X226069Y73669D01*
X230569Y69169D01*
X231409Y68607D01*
X232400Y68410D01*
X238856D01*
X239910Y67200D01*
Y47200D01*
X240107Y46209D01*
X240669Y45369D01*
X241509Y44807D01*
X242500Y44610D01*
X307500D01*
X308491Y44807D01*
X309331Y45369D01*
X309893Y46209D01*
X310090Y47200D01*
Y67200D01*
X310033Y67483D01*
X311006Y68636D01*
X313100Y68361D01*
X316113Y68757D01*
X318920Y69920D01*
X321330Y71770D01*
X323180Y74180D01*
X324343Y76988D01*
X324740Y80000D01*
X324343Y83013D01*
X323180Y85820D01*
X321330Y88230D01*
X318920Y90080D01*
X316113Y91243D01*
X313100Y91640D01*
D02*
G37*
G36*
X360000Y137649D02*
X355581Y137214D01*
X351333Y135925D01*
X347417Y133832D01*
X343985Y131015D01*
X341168Y127583D01*
X339075Y123667D01*
X337786Y119419D01*
X337351Y115000D01*
X337786Y110581D01*
X339075Y106333D01*
X341168Y102417D01*
X343985Y98985D01*
X347417Y96168D01*
X351333Y94075D01*
X355581Y92786D01*
X360000Y92351D01*
X364419Y92786D01*
X368667Y94075D01*
X372583Y96168D01*
X376015Y98985D01*
X378832Y102417D01*
X380925Y106333D01*
X382214Y110581D01*
X382649Y115000D01*
X382214Y119419D01*
X380925Y123667D01*
X378832Y127583D01*
X376015Y131015D01*
X372583Y133832D01*
X368667Y135925D01*
X364419Y137214D01*
X360000Y137649D01*
D02*
G37*
G36*
X190000D02*
X185581Y137214D01*
X181333Y135925D01*
X177417Y133832D01*
X173985Y131015D01*
X171168Y127583D01*
X169075Y123667D01*
X167786Y119419D01*
X167351Y115000D01*
X167786Y110581D01*
X169075Y106333D01*
X171168Y102417D01*
X173985Y98985D01*
X177417Y96168D01*
X181333Y94075D01*
X185581Y92786D01*
X190000Y92351D01*
X194419Y92786D01*
X198667Y94075D01*
X202583Y96168D01*
X206015Y98985D01*
X208832Y102417D01*
X210925Y106333D01*
X212214Y110581D01*
X212649Y115000D01*
X212214Y119419D01*
X210925Y123667D01*
X208832Y127583D01*
X206015Y131015D01*
X202583Y133832D01*
X198667Y135925D01*
X194419Y137214D01*
X190000Y137649D01*
D02*
G37*
G36*
X107000Y324340D02*
X103988Y323943D01*
X101180Y322780D01*
X98770Y320930D01*
X96920Y318520D01*
X95757Y315713D01*
X95360Y312700D01*
X95757Y309688D01*
X96920Y306880D01*
X98770Y304470D01*
X101180Y302620D01*
X103988Y301457D01*
X107000Y301061D01*
X110013Y301457D01*
X112820Y302620D01*
X115230Y304470D01*
X117080Y306880D01*
X118243Y309688D01*
X118640Y312700D01*
X118243Y315713D01*
X117080Y318520D01*
X115230Y320930D01*
X112820Y322780D01*
X110013Y323943D01*
X107000Y324340D01*
D02*
G37*
G36*
X190000Y507649D02*
X185581Y507214D01*
X181333Y505925D01*
X177417Y503832D01*
X173985Y501015D01*
X171168Y497583D01*
X169075Y493667D01*
X167786Y489419D01*
X167351Y485000D01*
X167786Y480581D01*
X169075Y476333D01*
X171168Y472417D01*
X173985Y468985D01*
X177417Y466168D01*
X181333Y464075D01*
X185581Y462786D01*
X190000Y462351D01*
X194419Y462786D01*
X198667Y464075D01*
X202583Y466168D01*
X206015Y468985D01*
X208832Y472417D01*
X210925Y476333D01*
X212214Y480581D01*
X212649Y485000D01*
X212214Y489419D01*
X210925Y493667D01*
X208832Y497583D01*
X206015Y501015D01*
X202583Y503832D01*
X198667Y505925D01*
X194419Y507214D01*
X190000Y507649D01*
D02*
G37*
G36*
X505000Y454740D02*
X501987Y454343D01*
X499180Y453180D01*
X496770Y451330D01*
X494920Y448920D01*
X493757Y446113D01*
X493360Y443100D01*
X493757Y440088D01*
X494920Y437280D01*
X496770Y434870D01*
X499180Y433020D01*
X501987Y431857D01*
X505000Y431460D01*
X508013Y431857D01*
X510820Y433020D01*
X513230Y434870D01*
X515080Y437280D01*
X516243Y440088D01*
X516640Y443100D01*
X516243Y446113D01*
X515080Y448920D01*
X513230Y451330D01*
X510820Y453180D01*
X508013Y454343D01*
X505000Y454740D01*
D02*
G37*
G36*
X360000Y507649D02*
X355581Y507214D01*
X351333Y505925D01*
X347417Y503832D01*
X343985Y501015D01*
X341168Y497583D01*
X339075Y493667D01*
X337786Y489419D01*
X337351Y485000D01*
X337786Y480581D01*
X339075Y476333D01*
X341168Y472417D01*
X343985Y468985D01*
X347417Y466168D01*
X351333Y464075D01*
X355581Y462786D01*
X360000Y462351D01*
X364419Y462786D01*
X368667Y464075D01*
X372583Y466168D01*
X376015Y468985D01*
X378832Y472417D01*
X380925Y476333D01*
X382214Y480581D01*
X382649Y485000D01*
X382214Y489419D01*
X380925Y493667D01*
X378832Y497583D01*
X376015Y501015D01*
X372583Y503832D01*
X368667Y505925D01*
X364419Y507214D01*
X360000Y507649D01*
D02*
G37*
G36*
X505000Y582641D02*
X499894Y582239D01*
X494913Y581043D01*
X490182Y579083D01*
X485814Y576407D01*
X481920Y573080D01*
X478593Y569186D01*
X475917Y564818D01*
X473957Y560087D01*
X472761Y555106D01*
X472359Y550000D01*
X472761Y544894D01*
X473957Y539913D01*
X475917Y535182D01*
X478593Y530814D01*
X481920Y526920D01*
X485814Y523593D01*
X490182Y520917D01*
X494913Y518957D01*
X499894Y517761D01*
X505000Y517359D01*
X510106Y517761D01*
X515087Y518957D01*
X519818Y520917D01*
X524186Y523593D01*
X528080Y526920D01*
X531407Y530814D01*
X534083Y535182D01*
X536043Y539913D01*
X537239Y544894D01*
X537641Y550000D01*
X537239Y555106D01*
X536043Y560087D01*
X534083Y564818D01*
X531407Y569186D01*
X528080Y573080D01*
X524186Y576407D01*
X519818Y579083D01*
X515087Y581043D01*
X510106Y582239D01*
X505000Y582641D01*
D02*
G37*
G36*
X45000D02*
X39894Y582239D01*
X34913Y581043D01*
X30182Y579083D01*
X25814Y576407D01*
X21920Y573080D01*
X18593Y569186D01*
X15917Y564818D01*
X13957Y560087D01*
X12761Y555106D01*
X12359Y550000D01*
X12761Y544894D01*
X13957Y539913D01*
X15917Y535182D01*
X18593Y530814D01*
X21920Y526920D01*
X25814Y523593D01*
X30182Y520917D01*
X34913Y518957D01*
X39894Y517761D01*
X45000Y517359D01*
X50106Y517761D01*
X55086Y518957D01*
X59819Y520917D01*
X64186Y523593D01*
X68080Y526920D01*
X71407Y530814D01*
X74083Y535182D01*
X76043Y539913D01*
X77239Y544894D01*
X77641Y550000D01*
X77239Y555106D01*
X76043Y560087D01*
X74083Y564818D01*
X71407Y569186D01*
X68080Y573080D01*
X64186Y576407D01*
X59819Y579083D01*
X55086Y581043D01*
X50106Y582239D01*
X45000Y582641D01*
D02*
G37*
G36*
X505000Y429340D02*
X501987Y428943D01*
X499180Y427780D01*
X496770Y425930D01*
X494920Y423520D01*
X493757Y420713D01*
X493360Y417700D01*
X493757Y414688D01*
X494920Y411880D01*
X496770Y409470D01*
X499180Y407620D01*
X501987Y406457D01*
X505000Y406060D01*
X508013Y406457D01*
X510820Y407620D01*
X513230Y409470D01*
X515080Y411880D01*
X516243Y414688D01*
X516640Y417700D01*
X516243Y420713D01*
X515080Y423520D01*
X513230Y425930D01*
X510820Y427780D01*
X508013Y428943D01*
X505000Y429340D01*
D02*
G37*
G36*
X407500Y328658D02*
X405143Y328190D01*
X405082Y328148D01*
X402500D01*
X400338Y327719D01*
X398506Y326494D01*
X398506Y326494D01*
X363306Y291294D01*
X362081Y289462D01*
X361695Y287521D01*
X339294Y265119D01*
X156119D01*
Y275396D01*
X156806Y276424D01*
X157119Y278000D01*
Y283027D01*
X157331Y283169D01*
X157893Y284009D01*
X158090Y285000D01*
Y289000D01*
X157893Y289991D01*
X157331Y290831D01*
X156491Y291393D01*
X155500Y291590D01*
X150500D01*
X149509Y291393D01*
X148669Y290831D01*
X148107Y289991D01*
X147910Y289000D01*
Y285000D01*
X148107Y284009D01*
X148669Y283169D01*
X148881Y283027D01*
Y279604D01*
X148194Y278576D01*
X147881Y277000D01*
Y264973D01*
X147669Y264831D01*
X147107Y263991D01*
X146910Y263000D01*
Y259000D01*
X147107Y258009D01*
X147669Y257169D01*
X148509Y256607D01*
X149500Y256410D01*
X154500D01*
X155491Y256607D01*
X155900Y256881D01*
X341000D01*
X342576Y257194D01*
X343913Y258087D01*
X367521Y281695D01*
X369462Y282082D01*
X371294Y283306D01*
X404840Y316852D01*
X405082D01*
X405143Y316810D01*
X407500Y316342D01*
X409857Y316810D01*
X411855Y318145D01*
X413190Y320143D01*
X413658Y322500D01*
X413190Y324857D01*
X411855Y326855D01*
X409857Y328190D01*
X407500Y328658D01*
D02*
G37*
G36*
X465505Y322368D02*
X464495D01*
X462739Y322019D01*
X461805Y321632D01*
X460317Y320638D01*
X460317Y320638D01*
X459602Y319923D01*
X459602Y319923D01*
X458608Y318435D01*
X458221Y317501D01*
X457872Y315745D01*
Y315490D01*
X457822Y315240D01*
X457872Y314990D01*
Y314735D01*
X458221Y312979D01*
X458608Y312045D01*
X459602Y310557D01*
X459602Y310557D01*
X460317Y309842D01*
X460317Y309842D01*
X461805Y308848D01*
X462739Y308461D01*
X464495Y308112D01*
X465505D01*
X467261Y308461D01*
X468195Y308848D01*
X469683Y309842D01*
X469683Y309842D01*
X470398Y310557D01*
X470398Y310557D01*
X471392Y312045D01*
X471779Y312979D01*
X472128Y314735D01*
Y314990D01*
X472178Y315240D01*
X472128Y315490D01*
Y315745D01*
X471779Y317501D01*
X471392Y318435D01*
X470398Y319923D01*
X470398Y319923D01*
X469683Y320638D01*
X469683Y320638D01*
X468195Y321632D01*
X467261Y322019D01*
X465505Y322368D01*
D02*
G37*
G36*
X111500Y349690D02*
X102500D01*
X101509Y349493D01*
X100669Y348931D01*
X96169Y344431D01*
X95607Y343591D01*
X95410Y342600D01*
Y333600D01*
X95607Y332609D01*
X96169Y331769D01*
X100669Y327269D01*
X101509Y326707D01*
X102500Y326510D01*
X111500D01*
X112491Y326707D01*
X113331Y327269D01*
X117831Y331769D01*
X118393Y332609D01*
X118590Y333600D01*
Y342600D01*
X118393Y343591D01*
X117831Y344431D01*
X113331Y348931D01*
X112491Y349493D01*
X111500Y349690D01*
D02*
G37*
G36*
X505000Y403940D02*
X501987Y403543D01*
X499180Y402380D01*
X496770Y400530D01*
X494920Y398120D01*
X493757Y395312D01*
X493360Y392300D01*
X493757Y389287D01*
X494920Y386480D01*
X496770Y384070D01*
X499180Y382220D01*
X501987Y381057D01*
X505000Y380661D01*
X508013Y381057D01*
X510820Y382220D01*
X513230Y384070D01*
X515080Y386480D01*
X516243Y389287D01*
X516640Y392300D01*
X516243Y395312D01*
X515080Y398120D01*
X513230Y400530D01*
X510820Y402380D01*
X508013Y403543D01*
X505000Y403940D01*
D02*
G37*
G36*
Y378540D02*
X501987Y378143D01*
X499180Y376980D01*
X496770Y375130D01*
X494920Y372720D01*
X493757Y369912D01*
X493360Y366900D01*
X493757Y363887D01*
X494920Y361080D01*
X496770Y358670D01*
X499180Y356820D01*
X501987Y355657D01*
X505000Y355261D01*
X508013Y355657D01*
X510820Y356820D01*
X513230Y358670D01*
X515080Y361080D01*
X516243Y363887D01*
X516640Y366900D01*
X516243Y369912D01*
X515080Y372720D01*
X513230Y375130D01*
X510820Y376980D01*
X508013Y378143D01*
X505000Y378540D01*
D02*
G37*
%LPD*%
D14*
X487500Y208750D02*
X489500Y206750D01*
X487500Y208750D02*
Y300000D01*
X489500Y206750D02*
X504500D01*
X402500Y322500D02*
X407500D01*
X367300Y287300D02*
X402500Y322500D01*
D15*
X236900Y80000D02*
D03*
D16*
X262300D02*
D03*
X287700D02*
D03*
X313100D02*
D03*
X107000Y261900D02*
D03*
Y287300D02*
D03*
Y312700D02*
D03*
X504500Y206750D02*
D03*
Y181350D02*
D03*
Y155950D02*
D03*
Y232150D02*
D03*
X505000Y417700D02*
D03*
Y392300D02*
D03*
Y366900D02*
D03*
Y443100D02*
D03*
D17*
X107000Y338100D02*
D03*
D18*
X505000Y550000D02*
D03*
X45000D02*
D03*
Y50000D02*
D03*
X505000D02*
D03*
D19*
X360000Y485000D02*
D03*
X190000D02*
D03*
Y115000D02*
D03*
X360000D02*
D03*
D20*
X487500Y300000D02*
D03*
X407500Y322500D02*
D03*
D21*
X153000Y287000D02*
D03*
X140000D02*
D03*
X152000Y261000D02*
D03*
X139000D02*
D03*
D22*
X107300Y287000D02*
X140000D01*
X107000Y287300D02*
X107300Y287000D01*
X107900Y261000D02*
X139000D01*
X107000Y261900D02*
X107900Y261000D01*
X152000D02*
X341000D01*
X367300Y287300D01*
X152000Y261000D02*
Y277000D01*
X153000Y278000D01*
Y287000D01*
M02*
