G04 Layer_Physical_Order=1*
G04 Layer_Color=255*
%FSLAX44Y44*%
%MOMM*%
G71*
G01*
G75*
%ADD10R,1.2500X0.9000*%
%ADD11R,0.9000X0.8000*%
%ADD12R,1.5000X1.6000*%
%ADD13R,0.8500X0.9500*%
%ADD14C,0.5000*%
%ADD15P,1.9483X8X112.5*%
%ADD16C,1.8000*%
%ADD17C,5.5000*%
%ADD18C,4.0000*%
G36*
X475109Y495686D02*
X480022Y494196D01*
X484550Y491776D01*
X488518Y488519D01*
X491776Y484550D01*
X494196Y480022D01*
X495686Y475109D01*
X496165Y470248D01*
X496115Y470000D01*
X496115Y30000D01*
X496165Y29752D01*
X495686Y24891D01*
X494196Y19978D01*
X491776Y15450D01*
X488518Y11482D01*
X484550Y8225D01*
X480022Y5804D01*
X475109Y4314D01*
X471250Y3934D01*
X470000Y3885D01*
X470000Y3885D01*
X468730Y3885D01*
X31269Y3885D01*
X30000Y3885D01*
X28750Y3934D01*
X24891Y4314D01*
X19978Y5804D01*
X15450Y8225D01*
X11481Y11482D01*
X8225Y15450D01*
X5804Y19978D01*
X4314Y24891D01*
X3934Y28751D01*
X3885Y30000D01*
X3885Y30000D01*
X3885Y31252D01*
X3885Y470000D01*
X3835Y470248D01*
X4314Y475109D01*
X5804Y480022D01*
X8225Y484550D01*
X11481Y488519D01*
X15450Y491776D01*
X19978Y494196D01*
X24891Y495686D01*
X29752Y496165D01*
X30000Y496115D01*
X470000Y496115D01*
X470248Y496165D01*
X475109Y495686D01*
D02*
G37*
%LPC*%
G36*
X444500Y337695D02*
X435500D01*
X434509Y337498D01*
X433669Y336936D01*
X433107Y336096D01*
X432910Y335105D01*
Y327105D01*
X433107Y326114D01*
X433669Y325274D01*
X434509Y324713D01*
X435500Y324515D01*
X444500D01*
X445491Y324713D01*
X446331Y325274D01*
X446893Y326114D01*
X447090Y327105D01*
Y335105D01*
X446893Y336096D01*
X446331Y336936D01*
X445491Y337498D01*
X444500Y337695D01*
D02*
G37*
G36*
X430505Y361733D02*
X429495D01*
X427739Y361384D01*
X426805Y360997D01*
X425317Y360003D01*
X425317Y360003D01*
X424602Y359288D01*
X424602Y359288D01*
X423608Y357800D01*
X423221Y356866D01*
X422872Y355110D01*
Y354855D01*
X422822Y354605D01*
X422872Y354355D01*
Y354100D01*
X423221Y352344D01*
X423608Y351411D01*
X424602Y349922D01*
X424602Y349922D01*
X425317Y349208D01*
X425317Y349208D01*
X426805Y348213D01*
X427739Y347826D01*
X429495Y347477D01*
X430505D01*
X432261Y347826D01*
X433195Y348213D01*
X434683Y349208D01*
X434683Y349208D01*
X435398Y349922D01*
X435398Y349922D01*
X436392Y351411D01*
X436779Y352344D01*
X437128Y354100D01*
Y354355D01*
X437178Y354605D01*
X437128Y354855D01*
Y355110D01*
X436779Y356866D01*
X436392Y357800D01*
X435398Y359288D01*
X435398Y359288D01*
X434683Y360003D01*
X434683Y360003D01*
X433195Y360997D01*
X432261Y361384D01*
X430505Y361733D01*
D02*
G37*
G36*
X414500Y398695D02*
X402000D01*
X401009Y398498D01*
X400169Y397936D01*
X399607Y397096D01*
X399537Y396744D01*
X395605D01*
X393639Y396353D01*
X391972Y395239D01*
X380366Y383634D01*
X379252Y381967D01*
X378861Y380000D01*
Y262129D01*
X371871Y255139D01*
X278090D01*
Y258000D01*
X277893Y258991D01*
X277331Y259831D01*
X276491Y260393D01*
X275500Y260590D01*
X260500D01*
X259509Y260393D01*
X258669Y259831D01*
X258107Y258991D01*
X257910Y258000D01*
Y242000D01*
X258107Y241009D01*
X258669Y240169D01*
X259509Y239607D01*
X260500Y239410D01*
X275500D01*
X276491Y239607D01*
X277331Y240169D01*
X277893Y241009D01*
X278090Y242000D01*
Y244861D01*
X374000D01*
X375966Y245252D01*
X377634Y246366D01*
X387634Y256366D01*
X388748Y258034D01*
X389139Y260000D01*
Y265918D01*
X390227Y266315D01*
X390409Y266324D01*
X397666Y259066D01*
X399333Y257952D01*
X401300Y257561D01*
X419638D01*
X419920Y256880D01*
X421770Y254470D01*
X424180Y252620D01*
X426987Y251457D01*
X430000Y251061D01*
X433013Y251457D01*
X435820Y252620D01*
X438230Y254470D01*
X438940Y255395D01*
X440210Y254963D01*
Y245037D01*
X438940Y244605D01*
X438230Y245530D01*
X435820Y247380D01*
X433013Y248543D01*
X430000Y248940D01*
X426987Y248543D01*
X424180Y247380D01*
X421770Y245530D01*
X419920Y243120D01*
X419638Y242439D01*
X359300D01*
X357333Y242048D01*
X355666Y240934D01*
X349871Y235139D01*
X248500D01*
X246534Y234748D01*
X244866Y233634D01*
X244573Y233340D01*
X240250D01*
X239259Y233143D01*
X238896Y232900D01*
X238331Y232763D01*
X237139Y233512D01*
Y239410D01*
X239500D01*
X240491Y239607D01*
X241331Y240169D01*
X241893Y241009D01*
X242090Y242000D01*
Y258000D01*
X241893Y258991D01*
X241331Y259831D01*
X240491Y260393D01*
X239500Y260590D01*
X224500D01*
X223509Y260393D01*
X222669Y259831D01*
X222107Y258991D01*
X221910Y258000D01*
Y242000D01*
X222107Y241009D01*
X222669Y240169D01*
X223509Y239607D01*
X224500Y239410D01*
X226861D01*
Y233262D01*
X226259Y233143D01*
X225419Y232581D01*
X224857Y231741D01*
X224660Y230750D01*
Y221250D01*
X224857Y220259D01*
X225419Y219419D01*
X226259Y218857D01*
X227250Y218660D01*
X235750D01*
X236741Y218857D01*
X237104Y219100D01*
X238000Y219317D01*
X238896Y219100D01*
X239259Y218857D01*
X240250Y218660D01*
X248750D01*
X249741Y218857D01*
X250581Y219419D01*
X251143Y220259D01*
X251340Y221250D01*
Y224861D01*
X352000D01*
X353966Y225252D01*
X355634Y226366D01*
X361428Y232161D01*
X419638D01*
X419920Y231480D01*
X421770Y229070D01*
X424180Y227220D01*
X426987Y226057D01*
X430000Y225660D01*
X433013Y226057D01*
X435820Y227220D01*
X438230Y229070D01*
X438940Y229995D01*
X440210Y229564D01*
Y220512D01*
X439037Y220026D01*
X436331Y222731D01*
X435491Y223293D01*
X434500Y223490D01*
X425500D01*
X424509Y223293D01*
X423669Y222731D01*
X419169Y218231D01*
X418607Y217391D01*
X418410Y216400D01*
Y207400D01*
X418607Y206409D01*
X419169Y205569D01*
X423669Y201069D01*
X424509Y200507D01*
X425500Y200310D01*
X434500D01*
X435491Y200507D01*
X436331Y201069D01*
X440831Y205569D01*
X441393Y206409D01*
X441590Y207400D01*
Y213856D01*
X442800Y214910D01*
X462800D01*
X463791Y215107D01*
X464631Y215669D01*
X465193Y216509D01*
X465390Y217500D01*
Y282500D01*
X465193Y283491D01*
X464631Y284331D01*
X463791Y284893D01*
X462800Y285090D01*
X442800D01*
X442517Y285033D01*
X441364Y286006D01*
X441640Y288100D01*
X441243Y291112D01*
X440080Y293920D01*
X438230Y296330D01*
X435820Y298180D01*
X433013Y299343D01*
X430000Y299740D01*
X426987Y299343D01*
X424180Y298180D01*
X421770Y296330D01*
X419920Y293920D01*
X418757Y291112D01*
X418360Y288100D01*
X418757Y285088D01*
X419920Y282280D01*
X421770Y279870D01*
X424180Y278020D01*
X426987Y276857D01*
X430000Y276460D01*
X433013Y276857D01*
X435820Y278020D01*
X438230Y279870D01*
X438940Y280795D01*
X440210Y280364D01*
Y270436D01*
X438940Y270005D01*
X438230Y270930D01*
X435820Y272780D01*
X433013Y273943D01*
X430000Y274340D01*
X426987Y273943D01*
X424180Y272780D01*
X421770Y270930D01*
X419920Y268520D01*
X419638Y267839D01*
X403428D01*
X399139Y272129D01*
Y336551D01*
X399541Y336834D01*
X400409Y337114D01*
X401009Y336713D01*
X402000Y336516D01*
X411976D01*
X412938Y335245D01*
X412910Y335105D01*
Y327105D01*
X413107Y326114D01*
X413669Y325274D01*
X414509Y324713D01*
X415500Y324515D01*
X424500D01*
X425491Y324713D01*
X426331Y325274D01*
X426893Y326114D01*
X427090Y327105D01*
Y335105D01*
X426893Y336096D01*
X426331Y336936D01*
X425491Y337498D01*
X424500Y337695D01*
X418024D01*
X417062Y338965D01*
X417090Y339105D01*
Y348105D01*
X416893Y349096D01*
X416331Y349936D01*
X415491Y350498D01*
X414500Y350695D01*
X402000D01*
X401009Y350498D01*
X400409Y350097D01*
X399541Y350377D01*
X399139Y350659D01*
Y367872D01*
X400992Y369724D01*
X401009Y369713D01*
X402000Y369515D01*
X414500D01*
X415491Y369713D01*
X416331Y370274D01*
X416893Y371114D01*
X417090Y372105D01*
Y381105D01*
X416893Y382096D01*
X416331Y382936D01*
X415583Y383436D01*
X415510Y384105D01*
X415583Y384774D01*
X416331Y385274D01*
X416893Y386114D01*
X417090Y387105D01*
Y396105D01*
X416893Y397096D01*
X416331Y397936D01*
X415491Y398498D01*
X414500Y398695D01*
D02*
G37*
G36*
X335000Y87649D02*
X330581Y87214D01*
X326333Y85925D01*
X322417Y83832D01*
X318985Y81015D01*
X316168Y77583D01*
X314075Y73667D01*
X312786Y69419D01*
X312351Y65000D01*
X312786Y60581D01*
X314075Y56333D01*
X316168Y52417D01*
X318985Y48985D01*
X322417Y46168D01*
X326333Y44075D01*
X330581Y42786D01*
X335000Y42351D01*
X339419Y42786D01*
X343667Y44075D01*
X347583Y46168D01*
X351015Y48985D01*
X353832Y52417D01*
X355925Y56333D01*
X357214Y60581D01*
X357649Y65000D01*
X357214Y69419D01*
X355925Y73667D01*
X353832Y77583D01*
X351015Y81015D01*
X347583Y83832D01*
X343667Y85925D01*
X339419Y87214D01*
X335000Y87649D01*
D02*
G37*
G36*
X45000Y75133D02*
X40286Y74762D01*
X35688Y73658D01*
X31320Y71849D01*
X27288Y69378D01*
X23693Y66307D01*
X20622Y62712D01*
X18151Y58680D01*
X16342Y54312D01*
X15238Y49714D01*
X14867Y45000D01*
X15238Y40286D01*
X16342Y35689D01*
X18151Y31320D01*
X20622Y27288D01*
X23693Y23693D01*
X27288Y20622D01*
X31320Y18152D01*
X35688Y16342D01*
X40286Y15238D01*
X45000Y14867D01*
X49714Y15238D01*
X54312Y16342D01*
X58680Y18152D01*
X62712Y20622D01*
X66307Y23693D01*
X69378Y27288D01*
X71849Y31320D01*
X73658Y35689D01*
X74762Y40286D01*
X75133Y45000D01*
X74762Y49714D01*
X73658Y54312D01*
X71849Y58680D01*
X69378Y62712D01*
X66307Y66307D01*
X62712Y69378D01*
X58680Y71849D01*
X54312Y73658D01*
X49714Y74762D01*
X45000Y75133D01*
D02*
G37*
G36*
X455000D02*
X450286Y74762D01*
X445689Y73658D01*
X441320Y71849D01*
X437288Y69378D01*
X433693Y66307D01*
X430622Y62712D01*
X428151Y58680D01*
X426342Y54312D01*
X425238Y49714D01*
X424867Y45000D01*
X425238Y40286D01*
X426342Y35689D01*
X428151Y31320D01*
X430622Y27288D01*
X433693Y23693D01*
X437288Y20622D01*
X441320Y18152D01*
X445689Y16342D01*
X450286Y15238D01*
X455000Y14867D01*
X459714Y15238D01*
X464312Y16342D01*
X468680Y18152D01*
X472712Y20622D01*
X476307Y23693D01*
X479378Y27288D01*
X481849Y31320D01*
X483658Y35689D01*
X484762Y40286D01*
X485133Y45000D01*
X484762Y49714D01*
X483658Y54312D01*
X481849Y58680D01*
X479378Y62712D01*
X476307Y66307D01*
X472712Y69378D01*
X468680Y71849D01*
X464312Y73658D01*
X459714Y74762D01*
X455000Y75133D01*
D02*
G37*
G36*
X165000Y87649D02*
X160581Y87214D01*
X156333Y85925D01*
X152417Y83832D01*
X148985Y81015D01*
X146168Y77583D01*
X144075Y73667D01*
X142786Y69419D01*
X142351Y65000D01*
X142786Y60581D01*
X144075Y56333D01*
X146168Y52417D01*
X148985Y48985D01*
X152417Y46168D01*
X156333Y44075D01*
X160581Y42786D01*
X165000Y42351D01*
X169419Y42786D01*
X173667Y44075D01*
X177583Y46168D01*
X181015Y48985D01*
X183832Y52417D01*
X185925Y56333D01*
X187214Y60581D01*
X187649Y65000D01*
X187214Y69419D01*
X185925Y73667D01*
X183832Y77583D01*
X181015Y81015D01*
X177583Y83832D01*
X173667Y85925D01*
X169419Y87214D01*
X165000Y87649D01*
D02*
G37*
G36*
X335000Y457649D02*
X330581Y457214D01*
X326333Y455925D01*
X322417Y453832D01*
X318985Y451015D01*
X316168Y447583D01*
X314075Y443667D01*
X312786Y439419D01*
X312351Y435000D01*
X312786Y430581D01*
X314075Y426333D01*
X316168Y422417D01*
X318985Y418985D01*
X322417Y416168D01*
X326333Y414075D01*
X330581Y412786D01*
X335000Y412351D01*
X339419Y412786D01*
X343667Y414075D01*
X347583Y416168D01*
X351015Y418985D01*
X353832Y422417D01*
X355925Y426333D01*
X357214Y430581D01*
X357649Y435000D01*
X357214Y439419D01*
X355925Y443667D01*
X353832Y447583D01*
X351015Y451015D01*
X347583Y453832D01*
X343667Y455925D01*
X339419Y457214D01*
X335000Y457649D01*
D02*
G37*
G36*
X45000Y485133D02*
X40286Y484762D01*
X35688Y483658D01*
X31320Y481849D01*
X27288Y479378D01*
X23693Y476307D01*
X20622Y472712D01*
X18151Y468680D01*
X16342Y464312D01*
X15238Y459714D01*
X14867Y455000D01*
X15238Y450286D01*
X16342Y445689D01*
X18151Y441320D01*
X20622Y437288D01*
X23693Y433693D01*
X27288Y430622D01*
X31320Y428152D01*
X35688Y426342D01*
X40286Y425238D01*
X45000Y424867D01*
X49714Y425238D01*
X54312Y426342D01*
X58680Y428152D01*
X62712Y430622D01*
X66307Y433693D01*
X69378Y437288D01*
X71849Y441320D01*
X73658Y445689D01*
X74762Y450286D01*
X75133Y455000D01*
X74762Y459714D01*
X73658Y464312D01*
X71849Y468680D01*
X69378Y472712D01*
X66307Y476307D01*
X62712Y479378D01*
X58680Y481849D01*
X54312Y483658D01*
X49714Y484762D01*
X45000Y485133D01*
D02*
G37*
G36*
X455000D02*
X450286Y484762D01*
X445689Y483658D01*
X441320Y481849D01*
X437288Y479378D01*
X433693Y476307D01*
X430622Y472712D01*
X428151Y468680D01*
X426342Y464312D01*
X425238Y459714D01*
X424867Y455000D01*
X425238Y450286D01*
X426342Y445689D01*
X428151Y441320D01*
X430622Y437288D01*
X433693Y433693D01*
X437288Y430622D01*
X441320Y428152D01*
X445689Y426342D01*
X450286Y425238D01*
X455000Y424867D01*
X459714Y425238D01*
X464312Y426342D01*
X468680Y428152D01*
X472712Y430622D01*
X476307Y433693D01*
X479378Y437288D01*
X481849Y441320D01*
X483658Y445689D01*
X484762Y450286D01*
X485133Y455000D01*
X484762Y459714D01*
X483658Y464312D01*
X481849Y468680D01*
X479378Y472712D01*
X476307Y476307D01*
X472712Y479378D01*
X468680Y481849D01*
X464312Y483658D01*
X459714Y484762D01*
X455000Y485133D01*
D02*
G37*
G36*
X165000Y457649D02*
X160581Y457214D01*
X156333Y455925D01*
X152417Y453832D01*
X148985Y451015D01*
X146168Y447583D01*
X144075Y443667D01*
X142786Y439419D01*
X142351Y435000D01*
X142786Y430581D01*
X144075Y426333D01*
X146168Y422417D01*
X148985Y418985D01*
X152417Y416168D01*
X156333Y414075D01*
X160581Y412786D01*
X165000Y412351D01*
X169419Y412786D01*
X173667Y414075D01*
X177583Y416168D01*
X181015Y418985D01*
X183832Y422417D01*
X185925Y426333D01*
X187214Y430581D01*
X187649Y435000D01*
X187214Y439419D01*
X185925Y443667D01*
X183832Y447583D01*
X181015Y451015D01*
X177583Y453832D01*
X173667Y455925D01*
X169419Y457214D01*
X165000Y457649D01*
D02*
G37*
G36*
X430505Y391733D02*
X429495D01*
X427739Y391384D01*
X426805Y390997D01*
X425317Y390003D01*
X425317Y390003D01*
X424602Y389288D01*
X424602Y389288D01*
X423608Y387800D01*
X423221Y386866D01*
X422872Y385110D01*
Y384855D01*
X422822Y384605D01*
X422872Y384355D01*
Y384100D01*
X423221Y382344D01*
X423608Y381411D01*
X424602Y379922D01*
X424602Y379922D01*
X425317Y379208D01*
X425317Y379207D01*
X426805Y378213D01*
X427739Y377826D01*
X429495Y377477D01*
X430505D01*
X432261Y377826D01*
X433195Y378213D01*
X434683Y379207D01*
X434683Y379208D01*
X435398Y379922D01*
X435398Y379922D01*
X436392Y381411D01*
X436779Y382344D01*
X437128Y384100D01*
Y384355D01*
X437178Y384605D01*
X437128Y384855D01*
Y385110D01*
X436779Y386866D01*
X436392Y387800D01*
X435398Y389288D01*
X435398Y389288D01*
X434683Y390003D01*
X434683Y390003D01*
X433195Y390997D01*
X432261Y391384D01*
X430505Y391733D01*
D02*
G37*
G36*
X424500Y414695D02*
X415500D01*
X414509Y414498D01*
X413669Y413936D01*
X413107Y413096D01*
X412910Y412105D01*
Y404105D01*
X413107Y403114D01*
X413669Y402274D01*
X414509Y401713D01*
X415500Y401516D01*
X424500D01*
X425491Y401713D01*
X426331Y402274D01*
X426893Y403114D01*
X427090Y404105D01*
Y412105D01*
X426893Y413096D01*
X426331Y413936D01*
X425491Y414498D01*
X424500Y414695D01*
D02*
G37*
G36*
X444500D02*
X435500D01*
X434509Y414498D01*
X433669Y413936D01*
X433107Y413096D01*
X432910Y412105D01*
Y404105D01*
X433107Y403114D01*
X433669Y402274D01*
X434509Y401713D01*
X435500Y401516D01*
X444500D01*
X445491Y401713D01*
X446331Y402274D01*
X446893Y403114D01*
X447090Y404105D01*
Y412105D01*
X446893Y413096D01*
X446331Y413936D01*
X445491Y414498D01*
X444500Y414695D01*
D02*
G37*
%LPD*%
D10*
X408250Y343605D02*
D03*
Y376605D02*
D03*
Y391605D02*
D03*
D11*
X440000Y408105D02*
D03*
X420000D02*
D03*
X440000Y331105D02*
D03*
X420000D02*
D03*
D12*
X268000Y250000D02*
D03*
X232000D02*
D03*
D13*
X231500Y226000D02*
D03*
X244500D02*
D03*
D14*
X268000Y250000D02*
X374000D01*
X384000Y260000D01*
Y380000D01*
X395605Y391605D01*
X408250D01*
X400605Y376605D02*
X408250D01*
X394000Y370000D02*
X400605Y376605D01*
X394000Y270000D02*
Y370000D01*
Y270000D02*
X401300Y262700D01*
X430000D01*
X359300Y237300D02*
X430000D01*
X352000Y230000D02*
X359300Y237300D01*
X248500Y230000D02*
X352000D01*
X244500Y226000D02*
X248500Y230000D01*
X231500Y226000D02*
X232000Y226500D01*
Y250000D01*
D15*
X430000Y211900D02*
D03*
D16*
Y237300D02*
D03*
Y262700D02*
D03*
Y288100D02*
D03*
D17*
X455000Y45000D02*
D03*
X45000D02*
D03*
X455000Y455000D02*
D03*
X45000D02*
D03*
D18*
X165000Y435000D02*
D03*
X335000D02*
D03*
X165000Y65000D02*
D03*
X335000D02*
D03*
M02*
