G04 Layer_Color=32896*
%FSLAX44Y44*%
%MOMM*%
G71*
G01*
G75*
%ADD31C,0.0508*%
D31*
X289308Y233900D02*
Y246092D01*
X288800Y230852D02*
Y249140D01*
X288292Y228312D02*
Y251172D01*
X287784Y226788D02*
Y253204D01*
X287276Y225264D02*
Y254728D01*
X286768Y223740D02*
Y255744D01*
X286260Y222216D02*
Y257268D01*
X285752Y221200D02*
Y258284D01*
X285244Y220184D02*
Y259300D01*
X284736Y219168D02*
Y260316D01*
X284228Y218152D02*
Y261332D01*
X283720Y217136D02*
Y262348D01*
X283212Y216120D02*
Y263364D01*
X282704Y215612D02*
Y263872D01*
X282196Y214596D02*
Y264888D01*
X281688Y214088D02*
Y265396D01*
X281180Y213072D02*
Y266412D01*
X280672Y212564D02*
Y266920D01*
X280164Y212056D02*
Y267428D01*
X279656Y211040D02*
Y268444D01*
X279148Y210532D02*
Y268952D01*
X278640Y210532D02*
Y269460D01*
X278132Y210024D02*
Y269968D01*
X277624Y209516D02*
Y270476D01*
X277116Y243552D02*
Y270984D01*
Y209516D02*
Y235932D01*
X276608Y246600D02*
Y271492D01*
Y216628D02*
Y232884D01*
Y209516D02*
Y214088D01*
X276100Y248632D02*
Y272000D01*
Y217136D02*
Y230852D01*
Y209008D02*
Y213580D01*
X275592Y250156D02*
Y272508D01*
Y217644D02*
Y229328D01*
Y209008D02*
Y213072D01*
X275084Y251680D02*
Y273016D01*
Y217644D02*
Y227804D01*
Y209008D02*
Y213072D01*
X274576Y252696D02*
Y273524D01*
Y217644D02*
Y226788D01*
Y209008D02*
Y213072D01*
X274068Y254220D02*
Y274032D01*
Y217644D02*
Y225772D01*
Y209008D02*
Y213072D01*
X273560Y255236D02*
Y274540D01*
Y217136D02*
Y224756D01*
Y209008D02*
Y213072D01*
X273052Y255744D02*
Y275048D01*
Y235932D02*
Y244060D01*
Y217136D02*
Y223740D01*
Y209516D02*
Y213580D01*
X272544Y256760D02*
Y275048D01*
Y232884D02*
Y246600D01*
Y216120D02*
Y222724D01*
Y209516D02*
Y214088D01*
X272036Y257776D02*
Y275556D01*
Y231360D02*
Y248632D01*
Y209516D02*
Y222216D01*
X271528Y258284D02*
Y276064D01*
Y229836D02*
Y250156D01*
Y210024D02*
Y221200D01*
X271020Y259300D02*
Y276572D01*
Y228312D02*
Y251172D01*
Y210532D02*
Y220692D01*
X270512Y259808D02*
Y276572D01*
Y227296D02*
Y252188D01*
Y210532D02*
Y219676D01*
X270004Y260316D02*
Y277080D01*
Y226280D02*
Y253204D01*
Y211548D02*
Y219168D01*
X269496Y260824D02*
Y277588D01*
Y225264D02*
Y254220D01*
Y212056D02*
Y218660D01*
X268988Y261840D02*
Y277588D01*
Y224756D02*
Y255236D01*
Y213072D02*
Y217136D01*
X268480Y262348D02*
Y278096D01*
Y223740D02*
Y255744D01*
X267972Y262856D02*
Y278604D01*
Y223232D02*
Y256760D01*
X267464Y263364D02*
Y278604D01*
Y222216D02*
Y257268D01*
X266956Y263872D02*
Y279112D01*
Y221708D02*
Y257776D01*
X266448Y264380D02*
Y279112D01*
Y221200D02*
Y258792D01*
X265940Y264380D02*
Y279620D01*
Y220692D02*
Y258792D01*
X265432Y264888D02*
Y280128D01*
Y220184D02*
Y259300D01*
X264924Y265396D02*
Y280128D01*
Y219676D02*
Y259808D01*
X264416Y265904D02*
Y280636D01*
Y219168D02*
Y259808D01*
X263908Y266412D02*
Y280636D01*
Y218660D02*
Y259808D01*
X263400Y266412D02*
Y281144D01*
Y218152D02*
Y260316D01*
X262892Y266920D02*
Y281144D01*
Y217644D02*
Y260316D01*
X262384Y267428D02*
Y281144D01*
Y217136D02*
Y260316D01*
X261876Y267428D02*
Y281652D01*
Y216628D02*
Y260316D01*
X261368Y267936D02*
Y281652D01*
Y216628D02*
Y260316D01*
X260860Y268444D02*
Y282160D01*
Y241520D02*
Y260316D01*
Y216120D02*
Y237964D01*
X260352Y268444D02*
Y282160D01*
Y244060D02*
Y259808D01*
Y215612D02*
Y235424D01*
X259844Y268952D02*
Y282160D01*
Y245584D02*
Y259808D01*
Y215612D02*
Y233900D01*
X259336Y268952D02*
Y282668D01*
Y247108D02*
Y259808D01*
Y215104D02*
Y232884D01*
X258828Y269460D02*
Y282668D01*
Y248124D02*
Y259300D01*
Y214596D02*
Y231868D01*
X258320Y269460D02*
Y282668D01*
Y248632D02*
Y258792D01*
Y214596D02*
Y230852D01*
X257812Y269968D02*
Y283176D01*
Y249648D02*
Y258792D01*
Y214088D02*
Y230344D01*
X257304Y269968D02*
Y283176D01*
Y250156D02*
Y258284D01*
Y214088D02*
Y229836D01*
X256796Y269968D02*
Y283176D01*
Y250664D02*
Y257268D01*
Y213580D02*
Y228820D01*
X256288Y270476D02*
Y283684D01*
Y252188D02*
Y256252D01*
Y213580D02*
Y228312D01*
X255780Y270476D02*
Y283684D01*
Y213072D02*
Y227804D01*
X255272Y270984D02*
Y283684D01*
Y213072D02*
Y227296D01*
X254764Y270984D02*
Y283684D01*
Y213072D02*
Y227296D01*
X254256Y270984D02*
Y284192D01*
Y212564D02*
Y226788D01*
X253748Y271492D02*
Y284192D01*
Y212564D02*
Y226280D01*
X253240Y271492D02*
Y284192D01*
Y212564D02*
Y225772D01*
X252732Y271492D02*
Y284192D01*
Y212056D02*
Y225772D01*
X252224Y271492D02*
Y284192D01*
Y212056D02*
Y225264D01*
X251716Y272000D02*
Y284700D01*
Y212056D02*
Y225264D01*
X251208Y272000D02*
Y284700D01*
Y211548D02*
Y224756D01*
X250700Y238980D02*
Y284700D01*
Y211548D02*
Y224756D01*
X250192Y236948D02*
Y284700D01*
Y211548D02*
Y224248D01*
X249684Y235932D02*
Y284700D01*
Y211548D02*
Y224248D01*
X249176Y235424D02*
Y284700D01*
Y211548D02*
Y224248D01*
X248668Y234916D02*
Y284700D01*
Y211548D02*
Y223740D01*
X248160Y234408D02*
Y284700D01*
Y211040D02*
Y223740D01*
X247652Y241012D02*
Y284700D01*
Y234408D02*
Y238980D01*
Y211040D02*
Y223740D01*
X247144Y241520D02*
Y284700D01*
Y233900D02*
Y237964D01*
Y211040D02*
Y223740D01*
X246636Y242536D02*
Y285208D01*
Y233900D02*
Y237456D01*
Y211040D02*
Y223740D01*
X246128Y242536D02*
Y285208D01*
Y233900D02*
Y236948D01*
Y211040D02*
Y223740D01*
X245620Y243044D02*
Y285208D01*
Y233392D02*
Y236440D01*
Y211040D02*
Y223232D01*
X245112Y243044D02*
Y285208D01*
Y233392D02*
Y236440D01*
Y211040D02*
Y223232D01*
X244604Y243044D02*
Y285208D01*
Y233392D02*
Y236440D01*
Y211040D02*
Y223232D01*
X244096Y243044D02*
Y285208D01*
Y233392D02*
Y236440D01*
Y211040D02*
Y223232D01*
X243588Y243044D02*
Y285208D01*
Y233392D02*
Y236440D01*
Y211040D02*
Y223232D01*
X243080Y242536D02*
Y285208D01*
Y233392D02*
Y236948D01*
Y211040D02*
Y223232D01*
X242572Y242536D02*
Y285208D01*
Y233900D02*
Y236948D01*
Y211040D02*
Y223740D01*
X242064Y242028D02*
Y285208D01*
Y233900D02*
Y237456D01*
Y211040D02*
Y223740D01*
X241556Y241520D02*
Y284700D01*
Y234408D02*
Y238472D01*
Y211040D02*
Y223740D01*
X241048Y234408D02*
Y284700D01*
Y211040D02*
Y223740D01*
X240540Y234916D02*
Y284700D01*
Y211040D02*
Y223740D01*
X240032Y235424D02*
Y284700D01*
Y211548D02*
Y224248D01*
X239524Y235932D02*
Y284700D01*
Y211548D02*
Y224248D01*
X239016Y236948D02*
Y284700D01*
Y211548D02*
Y224248D01*
X238508Y238472D02*
Y284700D01*
Y211548D02*
Y224756D01*
X238000Y272000D02*
Y284700D01*
Y211548D02*
Y224756D01*
X237492Y272000D02*
Y284700D01*
Y212056D02*
Y224756D01*
X236984Y272000D02*
Y284192D01*
Y212056D02*
Y225264D01*
X236476Y271492D02*
Y284192D01*
Y212056D02*
Y225772D01*
X235968Y271492D02*
Y284192D01*
Y212056D02*
Y225772D01*
X235460Y271492D02*
Y284192D01*
Y212564D02*
Y226280D01*
X234952Y270984D02*
Y284192D01*
Y212564D02*
Y226280D01*
X234444Y270984D02*
Y283684D01*
Y212564D02*
Y226788D01*
X233936Y270984D02*
Y283684D01*
Y213072D02*
Y227296D01*
X233428Y270476D02*
Y283684D01*
Y213072D02*
Y227804D01*
X232920Y270476D02*
Y283684D01*
Y252696D02*
Y255744D01*
Y213580D02*
Y228312D01*
X232412Y270476D02*
Y283176D01*
Y251172D02*
Y256760D01*
Y213580D02*
Y228820D01*
X231904Y269968D02*
Y283176D01*
Y250664D02*
Y257776D01*
Y214088D02*
Y229328D01*
X231396Y269968D02*
Y283176D01*
Y249648D02*
Y258284D01*
Y214088D02*
Y229836D01*
X230888Y269460D02*
Y283176D01*
Y249140D02*
Y258792D01*
Y214596D02*
Y230852D01*
X230380Y269460D02*
Y282668D01*
Y248124D02*
Y259300D01*
Y214596D02*
Y231360D01*
X229872Y268952D02*
Y282668D01*
Y247108D02*
Y259808D01*
Y215104D02*
Y232376D01*
X229364Y268952D02*
Y282668D01*
Y246092D02*
Y259808D01*
Y215104D02*
Y233392D01*
X228856Y268444D02*
Y282160D01*
Y245076D02*
Y259808D01*
Y215612D02*
Y234916D01*
X228348Y268444D02*
Y282160D01*
Y243044D02*
Y260316D01*
Y216120D02*
Y236948D01*
X227840Y267936D02*
Y281652D01*
Y216120D02*
Y260316D01*
X227332Y267936D02*
Y281652D01*
Y216628D02*
Y260316D01*
X226824Y267428D02*
Y281652D01*
Y217136D02*
Y260316D01*
X226316Y266920D02*
Y281144D01*
Y217644D02*
Y260316D01*
X225808Y266920D02*
Y281144D01*
Y217644D02*
Y260316D01*
X225300Y266412D02*
Y280636D01*
Y218152D02*
Y260316D01*
X224792Y265904D02*
Y280636D01*
Y218660D02*
Y259808D01*
X224284Y265396D02*
Y280128D01*
Y219168D02*
Y259808D01*
X223776Y265396D02*
Y280128D01*
Y219676D02*
Y259300D01*
X223268Y264888D02*
Y279620D01*
Y220184D02*
Y259300D01*
X222760Y264380D02*
Y279620D01*
Y220692D02*
Y258792D01*
X222252Y263872D02*
Y279112D01*
Y221708D02*
Y258284D01*
X221744Y263364D02*
Y279112D01*
Y222216D02*
Y257776D01*
X221236Y262856D02*
Y278604D01*
Y222724D02*
Y256760D01*
X220728Y262348D02*
Y278096D01*
Y223232D02*
Y256252D01*
X220220Y261840D02*
Y278096D01*
Y224248D02*
Y255744D01*
Y214088D02*
Y216628D01*
X219712Y261332D02*
Y277588D01*
Y225264D02*
Y254728D01*
Y212564D02*
Y218152D01*
X219204Y260824D02*
Y277080D01*
Y225772D02*
Y253712D01*
Y211548D02*
Y218660D01*
X218696Y259808D02*
Y277080D01*
Y226788D02*
Y252696D01*
Y211040D02*
Y219676D01*
X218188Y259300D02*
Y276572D01*
Y227804D02*
Y251680D01*
Y210532D02*
Y220184D01*
X217680Y258792D02*
Y276064D01*
Y229328D02*
Y250664D01*
Y210024D02*
Y220692D01*
X217172Y257776D02*
Y276064D01*
Y230344D02*
Y249140D01*
Y210024D02*
Y221708D01*
X216664Y257268D02*
Y275556D01*
Y232376D02*
Y247616D01*
Y209516D02*
Y222216D01*
X216156Y256252D02*
Y275048D01*
Y234408D02*
Y245076D01*
Y216628D02*
Y223232D01*
Y209516D02*
Y214088D01*
X215648Y255236D02*
Y274540D01*
Y217136D02*
Y224248D01*
Y209008D02*
Y213580D01*
X215140Y254220D02*
Y274032D01*
Y217644D02*
Y225264D01*
Y209008D02*
Y213072D01*
X214632Y253204D02*
Y273524D01*
Y217644D02*
Y226280D01*
Y209008D02*
Y213072D01*
X214124Y252188D02*
Y273524D01*
Y217644D02*
Y227296D01*
Y209008D02*
Y213072D01*
X213616Y251172D02*
Y273016D01*
Y217644D02*
Y228820D01*
Y209008D02*
Y213072D01*
X213108Y249648D02*
Y272508D01*
Y217136D02*
Y230344D01*
Y209008D02*
Y213072D01*
X212600Y247616D02*
Y272000D01*
Y217136D02*
Y231868D01*
Y209008D02*
Y213580D01*
X212092Y245076D02*
Y271492D01*
Y216120D02*
Y234408D01*
Y209516D02*
Y214088D01*
X211584Y209516D02*
Y270984D01*
X211076Y210024D02*
Y270476D01*
X210568Y210024D02*
Y269968D01*
X210060Y210532D02*
Y268952D01*
X209552Y211040D02*
Y268444D01*
X209044Y211548D02*
Y267936D01*
X208536Y212564D02*
Y267428D01*
X208028Y213072D02*
Y266412D01*
X207520Y213580D02*
Y265904D01*
X207012Y214596D02*
Y265396D01*
X206504Y215104D02*
Y264380D01*
X205996Y216120D02*
Y263364D01*
X205488Y216628D02*
Y262856D01*
X204980Y217644D02*
Y261840D01*
X204472Y218660D02*
Y260824D01*
X203964Y219676D02*
Y259808D01*
X203456Y220692D02*
Y258792D01*
X202948Y221708D02*
Y257776D01*
X202440Y223232D02*
Y256252D01*
X201932Y224248D02*
Y255236D01*
X201424Y225772D02*
Y253712D01*
X200916Y227804D02*
Y252188D01*
X200408Y229836D02*
Y250156D01*
X199900Y232376D02*
Y247108D01*
X199392Y236440D02*
Y243044D01*
M02*
