G04 Layer_Color=65535*
%FSLAX44Y44*%
%MOMM*%
G71*
G01*
G75*
%ADD19C,0.1500*%
%ADD20C,0.2000*%
G36*
X80734Y326456D02*
X105727Y318177D01*
X105805D01*
X105962Y318020D01*
X106274Y317864D01*
X106586Y317708D01*
X106899Y317396D01*
X107211Y317005D01*
X107367Y316615D01*
X107446Y316068D01*
Y307633D01*
Y307554D01*
Y307320D01*
X107367Y306930D01*
X107211Y306539D01*
X106899Y306227D01*
X106586Y305836D01*
X106040Y305602D01*
X105337Y305524D01*
X79718D01*
X79406Y305602D01*
X79015Y305758D01*
X78625Y306070D01*
X78312Y306383D01*
X78078Y306930D01*
X78000Y307633D01*
Y307711D01*
Y307945D01*
X78078Y308335D01*
X78234Y308648D01*
X78469Y309038D01*
X78859Y309429D01*
X79328Y309663D01*
X80031Y309741D01*
X103228D01*
Y314584D01*
X79406Y322472D01*
X79328D01*
X79172Y322551D01*
X78703Y322863D01*
X78469Y323175D01*
X78234Y323488D01*
X78078Y323878D01*
X78000Y324425D01*
Y324503D01*
Y324738D01*
X78078Y325128D01*
X78234Y325440D01*
X78547Y325831D01*
X78859Y326222D01*
X79406Y326456D01*
X80109Y326534D01*
X80343D01*
X80734Y326456D01*
D02*
G37*
G36*
X97604Y297010D02*
X98463Y296932D01*
X99479Y296698D01*
X100650Y296307D01*
X101900Y295839D01*
X103150Y295058D01*
X104321Y294042D01*
X104478Y293886D01*
X104790Y293496D01*
X105337Y292871D01*
X105884Y291933D01*
X106430Y290918D01*
X106977Y289590D01*
X107289Y288184D01*
X107446Y286622D01*
Y286544D01*
Y286388D01*
Y286154D01*
X107367Y285841D01*
X107289Y285060D01*
X107055Y284045D01*
X106743Y282795D01*
X106196Y281545D01*
X105415Y280296D01*
X104399Y279124D01*
X104243Y278968D01*
X103853Y278656D01*
X103228Y278187D01*
X102291Y277562D01*
X101197Y277015D01*
X99948Y276547D01*
X98542Y276234D01*
X96901Y276078D01*
X88076D01*
X87763Y276156D01*
X86904Y276234D01*
X85889Y276469D01*
X84717Y276859D01*
X83467Y277406D01*
X82218Y278187D01*
X81046Y279202D01*
X80890Y279359D01*
X80577Y279749D01*
X80109Y280374D01*
X79562Y281233D01*
X78937Y282327D01*
X78469Y283576D01*
X78156Y285060D01*
X78000Y286622D01*
Y286700D01*
Y286779D01*
Y287013D01*
X78078Y287325D01*
X78156Y288184D01*
X78390Y289200D01*
X78781Y290371D01*
X79250Y291621D01*
X80031Y292871D01*
X81046Y294042D01*
X81202Y294198D01*
X81593Y294511D01*
X82218Y294979D01*
X83155Y295526D01*
X84170Y296151D01*
X85498Y296620D01*
X86904Y296932D01*
X88466Y297088D01*
X97292D01*
X97604Y297010D01*
D02*
G37*
G36*
X106040Y355901D02*
X106430Y355745D01*
X106743Y355433D01*
X107133Y355120D01*
X107367Y354574D01*
X107446Y353871D01*
Y353793D01*
Y353558D01*
X107367Y353168D01*
X107211Y352777D01*
X106899Y352465D01*
X106586Y352074D01*
X106040Y351840D01*
X105337Y351762D01*
X86045D01*
X85732Y351684D01*
X85342Y351606D01*
X84873Y351449D01*
X84405Y351293D01*
X83858Y350981D01*
X83389Y350590D01*
X83311Y350512D01*
X83233Y350356D01*
X82999Y350122D01*
X82843Y349731D01*
X82608Y349341D01*
X82374Y348794D01*
X82296Y348247D01*
X82218Y347622D01*
Y339187D01*
X105649D01*
X106040Y339109D01*
X106430Y338953D01*
X106743Y338640D01*
X107133Y338328D01*
X107367Y337781D01*
X107446Y337078D01*
Y337000D01*
Y336766D01*
X107367Y336375D01*
X107211Y335985D01*
X106899Y335672D01*
X106586Y335282D01*
X106040Y335047D01*
X105337Y334969D01*
X79718D01*
X79406Y335047D01*
X79015Y335204D01*
X78625Y335516D01*
X78312Y335828D01*
X78078Y336375D01*
X78000Y337078D01*
Y347622D01*
Y347779D01*
X78078Y348169D01*
X78156Y348872D01*
X78312Y349653D01*
X78625Y350590D01*
X79015Y351606D01*
X79640Y352621D01*
X80421Y353558D01*
X80499Y353636D01*
X80890Y353949D01*
X81358Y354339D01*
X82062Y354730D01*
X82921Y355199D01*
X83936Y355589D01*
X85108Y355901D01*
X86357Y355979D01*
X105649D01*
X106040Y355901D01*
D02*
G37*
G36*
X453683Y330161D02*
X459925Y328093D01*
X459945D01*
X459984Y328054D01*
X460062Y328015D01*
X460140Y327976D01*
X460218Y327898D01*
X460296Y327801D01*
X460335Y327703D01*
X460354Y327567D01*
Y325460D01*
Y325440D01*
Y325382D01*
X460335Y325284D01*
X460296Y325187D01*
X460218Y325109D01*
X460140Y325011D01*
X460003Y324953D01*
X459827Y324933D01*
X453429D01*
X453351Y324953D01*
X453254Y324992D01*
X453156Y325070D01*
X453078Y325148D01*
X453019Y325284D01*
X453000Y325460D01*
Y325479D01*
Y325538D01*
X453019Y325635D01*
X453059Y325713D01*
X453117Y325811D01*
X453215Y325909D01*
X453332Y325967D01*
X453507Y325987D01*
X459301D01*
Y327196D01*
X453351Y329166D01*
X453332D01*
X453293Y329186D01*
X453176Y329264D01*
X453117Y329342D01*
X453059Y329420D01*
X453019Y329517D01*
X453000Y329654D01*
Y329673D01*
Y329732D01*
X453019Y329829D01*
X453059Y329907D01*
X453137Y330005D01*
X453215Y330103D01*
X453351Y330161D01*
X453527Y330181D01*
X453585D01*
X453683Y330161D01*
D02*
G37*
G36*
X118537Y397922D02*
X119005Y397766D01*
X119396Y397531D01*
X119786Y397141D01*
X120021Y396672D01*
X120099Y395969D01*
Y395891D01*
Y395813D01*
X119942Y395344D01*
X119708Y394798D01*
X119396Y394485D01*
X119083Y394251D01*
X102759Y383316D01*
X118224D01*
X118615Y383238D01*
X119005Y383082D01*
X119396Y382770D01*
X119786Y382457D01*
X120021Y381910D01*
X120099Y381207D01*
Y381129D01*
Y380895D01*
X120021Y380504D01*
X119864Y380114D01*
X119552Y379801D01*
X119239Y379411D01*
X118693Y379177D01*
X117990Y379099D01*
X102837D01*
X119083Y368320D01*
X119161D01*
X119239Y368164D01*
X119630Y367851D01*
X119942Y367305D01*
X120021Y366914D01*
X120099Y366524D01*
Y366446D01*
Y366367D01*
X120021Y365977D01*
X119786Y365508D01*
X119396Y365040D01*
X119318Y364962D01*
X119005Y364727D01*
X118537Y364493D01*
X117912Y364415D01*
X117833D01*
X117521Y364493D01*
X117131Y364571D01*
X116740Y364805D01*
X99010Y376599D01*
X81280Y364805D01*
X81202Y364727D01*
X80968Y364571D01*
X80577Y364493D01*
X80109Y364415D01*
X79953D01*
X79640Y364493D01*
X79093Y364649D01*
X78625Y365040D01*
X78547Y365118D01*
X78312Y365430D01*
X78078Y365899D01*
X78000Y366524D01*
Y366602D01*
Y366680D01*
X78078Y367149D01*
X78390Y367773D01*
X78547Y368086D01*
X78859Y368320D01*
X95183Y379099D01*
X79718D01*
X79406Y379177D01*
X79015Y379333D01*
X78625Y379645D01*
X78312Y379958D01*
X78078Y380504D01*
X78000Y381207D01*
Y381286D01*
Y381520D01*
X78078Y381910D01*
X78234Y382223D01*
X78547Y382613D01*
X78859Y383004D01*
X79406Y383238D01*
X80109Y383316D01*
X95261D01*
X78859Y394251D01*
X78703Y394329D01*
X78469Y394720D01*
X78156Y395266D01*
X78078Y395657D01*
X78000Y396047D01*
Y396125D01*
Y396360D01*
X78156Y396672D01*
X78312Y396985D01*
X78547Y397375D01*
X78937Y397688D01*
X79484Y397922D01*
X80187Y398000D01*
X80265D01*
X80499Y397922D01*
X80890Y397844D01*
X81280Y397688D01*
X99010Y385972D01*
X116740Y397766D01*
X116818D01*
X117052Y397844D01*
X117443Y397922D01*
X117833Y398000D01*
X118224D01*
X118537Y397922D01*
D02*
G37*
G36*
X118693Y263425D02*
X119083Y263269D01*
X119396Y262956D01*
X119786Y262644D01*
X120021Y262097D01*
X120099Y261394D01*
Y252959D01*
Y252881D01*
Y252647D01*
X120021Y252256D01*
X119864Y251866D01*
X119552Y251553D01*
X119239Y251163D01*
X118693Y250928D01*
X117990Y250850D01*
X117677D01*
X117287Y250928D01*
X116974Y251084D01*
X116584Y251397D01*
X116193Y251709D01*
X115959Y252256D01*
X115881Y252959D01*
Y261394D01*
Y261472D01*
Y261707D01*
X115959Y262097D01*
X116115Y262410D01*
X116428Y262800D01*
X116740Y263191D01*
X117287Y263425D01*
X117990Y263503D01*
X118302D01*
X118693Y263425D01*
D02*
G37*
G36*
X97604Y154000D02*
X98463Y153922D01*
X99479Y153688D01*
X100650Y153297D01*
X101900Y152828D01*
X103150Y152047D01*
X104321Y151032D01*
X104478Y150876D01*
X104790Y150485D01*
X105337Y149860D01*
X105884Y148923D01*
X106430Y147908D01*
X106977Y146580D01*
X107289Y145174D01*
X107446Y143612D01*
Y143534D01*
Y143378D01*
Y143143D01*
X107367Y142831D01*
X107289Y142050D01*
X107055Y141034D01*
X106743Y139785D01*
X106196Y138535D01*
X105415Y137285D01*
X104399Y136114D01*
X104243Y135958D01*
X103853Y135645D01*
X103228Y135177D01*
X102291Y134552D01*
X101197Y134005D01*
X99948Y133537D01*
X98542Y133224D01*
X96901Y133068D01*
X88076D01*
X87763Y133146D01*
X86904Y133224D01*
X85889Y133458D01*
X84717Y133849D01*
X83467Y134396D01*
X82218Y135177D01*
X81046Y136192D01*
X80890Y136348D01*
X80577Y136739D01*
X80109Y137364D01*
X79562Y138223D01*
X78937Y139316D01*
X78469Y140566D01*
X78156Y142050D01*
X78000Y143612D01*
Y143690D01*
Y143768D01*
Y144003D01*
X78078Y144315D01*
X78156Y145174D01*
X78390Y146189D01*
X78781Y147361D01*
X79250Y148611D01*
X80031Y149860D01*
X81046Y151032D01*
X81202Y151188D01*
X81593Y151501D01*
X82218Y151969D01*
X83155Y152516D01*
X84170Y153141D01*
X85498Y153609D01*
X86904Y153922D01*
X88466Y154078D01*
X97292D01*
X97604Y154000D01*
D02*
G37*
G36*
X106040Y124554D02*
X106430Y124398D01*
X106743Y124086D01*
X107133Y123773D01*
X107367Y123227D01*
X107446Y122524D01*
Y122446D01*
Y122211D01*
X107367Y121821D01*
X107211Y121430D01*
X106899Y121118D01*
X106586Y120727D01*
X106040Y120493D01*
X105337Y120415D01*
X93621D01*
X106821Y107215D01*
X106899Y107137D01*
X107133Y106825D01*
X107367Y106356D01*
X107446Y105731D01*
Y105653D01*
Y105419D01*
X107367Y105028D01*
X107211Y104638D01*
X106899Y104325D01*
X106586Y103935D01*
X106040Y103700D01*
X105337Y103622D01*
X105181D01*
X104868Y103700D01*
X104321Y103857D01*
X103853Y104247D01*
X94558Y113463D01*
X81280Y104013D01*
X81202Y103935D01*
X80890Y103778D01*
X80499Y103700D01*
X80031Y103622D01*
X79718D01*
X79406Y103700D01*
X79015Y103857D01*
X78625Y104169D01*
X78312Y104481D01*
X78078Y105028D01*
X78000Y105731D01*
Y105809D01*
Y105887D01*
X78078Y106356D01*
X78390Y106903D01*
X78547Y107215D01*
X78859Y107449D01*
X91512Y116510D01*
X87607Y120415D01*
X79718D01*
X79406Y120493D01*
X79015Y120649D01*
X78625Y120962D01*
X78312Y121274D01*
X78078Y121821D01*
X78000Y122524D01*
Y122602D01*
Y122836D01*
X78078Y123227D01*
X78234Y123539D01*
X78469Y123930D01*
X78859Y124320D01*
X79328Y124554D01*
X80031Y124633D01*
X105649D01*
X106040Y124554D01*
D02*
G37*
G36*
X80734Y183446D02*
X105727Y175166D01*
X105805D01*
X105962Y175010D01*
X106274Y174854D01*
X106586Y174698D01*
X106899Y174385D01*
X107211Y173995D01*
X107367Y173604D01*
X107446Y173058D01*
Y164622D01*
Y164544D01*
Y164310D01*
X107367Y163919D01*
X107211Y163529D01*
X106899Y163216D01*
X106586Y162826D01*
X106040Y162591D01*
X105337Y162513D01*
X79718D01*
X79406Y162591D01*
X79015Y162748D01*
X78625Y163060D01*
X78312Y163373D01*
X78078Y163919D01*
X78000Y164622D01*
Y164700D01*
Y164935D01*
X78078Y165325D01*
X78234Y165638D01*
X78469Y166028D01*
X78859Y166419D01*
X79328Y166653D01*
X80031Y166731D01*
X103228D01*
Y171574D01*
X79406Y179462D01*
X79328D01*
X79172Y179540D01*
X78703Y179853D01*
X78469Y180165D01*
X78234Y180478D01*
X78078Y180868D01*
X78000Y181415D01*
Y181493D01*
Y181727D01*
X78078Y182118D01*
X78234Y182430D01*
X78547Y182821D01*
X78859Y183211D01*
X79406Y183446D01*
X80109Y183524D01*
X80343D01*
X80734Y183446D01*
D02*
G37*
G36*
X106040Y267565D02*
X106430Y267408D01*
X106743Y267096D01*
X107133Y266784D01*
X107367Y266237D01*
X107446Y265534D01*
Y265456D01*
Y265222D01*
X107367Y264831D01*
X107211Y264440D01*
X106899Y264128D01*
X106586Y263738D01*
X106040Y263503D01*
X105337Y263425D01*
X86045D01*
X85732Y263347D01*
X85342Y263269D01*
X84873Y263113D01*
X84405Y262956D01*
X83858Y262644D01*
X83389Y262253D01*
X83311Y262175D01*
X83233Y262019D01*
X82999Y261785D01*
X82843Y261394D01*
X82608Y261004D01*
X82374Y260457D01*
X82296Y259910D01*
X82218Y259286D01*
Y250850D01*
X105649D01*
X106040Y250772D01*
X106430Y250616D01*
X106743Y250303D01*
X107133Y249991D01*
X107367Y249444D01*
X107446Y248741D01*
Y248663D01*
Y248429D01*
X107367Y248038D01*
X107211Y247648D01*
X106899Y247335D01*
X106586Y246945D01*
X106040Y246711D01*
X105337Y246632D01*
X79718D01*
X79406Y246711D01*
X79015Y246867D01*
X78625Y247179D01*
X78312Y247492D01*
X78078Y248038D01*
X78000Y248741D01*
Y259286D01*
Y259442D01*
X78078Y259832D01*
X78156Y260535D01*
X78312Y261316D01*
X78625Y262253D01*
X79015Y263269D01*
X79640Y264284D01*
X80421Y265222D01*
X80499Y265300D01*
X80890Y265612D01*
X81358Y266003D01*
X82062Y266393D01*
X82921Y266862D01*
X83936Y267252D01*
X85108Y267565D01*
X86357Y267643D01*
X105649D01*
X106040Y267565D01*
D02*
G37*
G36*
X118615Y212891D02*
X119005Y212735D01*
X119396Y212501D01*
X119786Y212110D01*
X120021Y211642D01*
X120099Y210938D01*
Y194068D01*
Y193990D01*
Y193755D01*
X120021Y193365D01*
X119864Y192974D01*
X119552Y192662D01*
X119239Y192271D01*
X118693Y192037D01*
X117990Y191959D01*
X117677D01*
X117287Y192037D01*
X116974Y192193D01*
X116584Y192506D01*
X116193Y192818D01*
X115959Y193365D01*
X115881Y194068D01*
Y206018D01*
X104712Y195396D01*
X104634Y195317D01*
X104556Y195239D01*
X104087Y194849D01*
X103306Y194302D01*
X102369Y193677D01*
X101197Y193053D01*
X99869Y192506D01*
X98463Y192115D01*
X97683Y191959D01*
X88076D01*
X87763Y192037D01*
X86904Y192115D01*
X85889Y192349D01*
X84717Y192740D01*
X83467Y193287D01*
X82218Y194068D01*
X81046Y195083D01*
X80890Y195239D01*
X80577Y195630D01*
X80109Y196255D01*
X79562Y197114D01*
X78937Y198207D01*
X78469Y199457D01*
X78156Y200941D01*
X78000Y202503D01*
Y202581D01*
Y202659D01*
Y202894D01*
X78078Y203206D01*
X78156Y204065D01*
X78390Y205081D01*
X78781Y206252D01*
X79250Y207502D01*
X80031Y208752D01*
X81046Y209923D01*
X81202Y210079D01*
X81593Y210392D01*
X82218Y210860D01*
X83155Y211407D01*
X84170Y212032D01*
X85498Y212501D01*
X86904Y212813D01*
X88466Y212969D01*
X97526D01*
X97917Y212891D01*
X98463Y212813D01*
X99088Y212657D01*
X100416Y212266D01*
X101197Y212032D01*
X101978Y211642D01*
X102759Y211251D01*
X103462Y210704D01*
X104243Y210079D01*
X104946Y209376D01*
X105571Y208517D01*
X106196Y207580D01*
X106274Y207502D01*
X106430Y207190D01*
X106586Y206721D01*
X106821Y206174D01*
X107055Y205549D01*
X107289Y204846D01*
X107367Y204065D01*
X107446Y203362D01*
X116662Y212579D01*
X116740Y212657D01*
X116974Y212735D01*
X117365Y212891D01*
X117912Y212969D01*
X118224D01*
X118615Y212891D01*
D02*
G37*
G36*
X460003Y337515D02*
X460101Y337476D01*
X460179Y337398D01*
X460276Y337320D01*
X460335Y337184D01*
X460354Y337008D01*
Y336989D01*
Y336930D01*
X460335Y336833D01*
X460296Y336735D01*
X460218Y336657D01*
X460140Y336559D01*
X460003Y336501D01*
X459827Y336481D01*
X456901D01*
X460198Y333185D01*
X460218Y333165D01*
X460276Y333087D01*
X460335Y332970D01*
X460354Y332814D01*
Y332795D01*
Y332736D01*
X460335Y332639D01*
X460296Y332541D01*
X460218Y332463D01*
X460140Y332365D01*
X460003Y332307D01*
X459827Y332287D01*
X459789D01*
X459711Y332307D01*
X459574Y332346D01*
X459457Y332443D01*
X457136Y334745D01*
X453819Y332385D01*
X453800Y332365D01*
X453722Y332326D01*
X453624Y332307D01*
X453507Y332287D01*
X453429D01*
X453351Y332307D01*
X453254Y332346D01*
X453156Y332424D01*
X453078Y332502D01*
X453019Y332639D01*
X453000Y332814D01*
Y332834D01*
Y332853D01*
X453019Y332970D01*
X453097Y333107D01*
X453137Y333185D01*
X453215Y333243D01*
X456375Y335506D01*
X455399Y336481D01*
X453429D01*
X453351Y336501D01*
X453254Y336540D01*
X453156Y336618D01*
X453078Y336696D01*
X453019Y336833D01*
X453000Y337008D01*
Y337028D01*
Y337086D01*
X453019Y337184D01*
X453059Y337262D01*
X453117Y337359D01*
X453215Y337457D01*
X453332Y337515D01*
X453507Y337535D01*
X459906D01*
X460003Y337515D01*
D02*
G37*
G36*
X463163Y354330D02*
X463261Y354291D01*
X463339Y354233D01*
X463436Y354135D01*
X463495Y354018D01*
X463514Y353843D01*
Y351209D01*
Y351190D01*
Y351151D01*
Y351092D01*
X463495Y351014D01*
X463475Y350819D01*
X463417Y350566D01*
X463339Y350253D01*
X463202Y349941D01*
X463007Y349629D01*
X462754Y349337D01*
X462715Y349298D01*
X462617Y349220D01*
X462461Y349103D01*
X462227Y348946D01*
X461954Y348810D01*
X461642Y348693D01*
X461291Y348615D01*
X460881Y348576D01*
X460764D01*
X460666Y348595D01*
X460432Y348634D01*
X460159Y348693D01*
X459827Y348810D01*
X459476Y348985D01*
X459320Y349103D01*
X459145Y349220D01*
X458989Y349376D01*
X458833Y349551D01*
X458813Y349532D01*
X458794Y349493D01*
X458735Y349415D01*
X458657Y349317D01*
X458579Y349200D01*
X458462Y349083D01*
X458326Y348946D01*
X458169Y348791D01*
X457974Y348654D01*
X457779Y348517D01*
X457565Y348400D01*
X457311Y348283D01*
X457057Y348186D01*
X456765Y348108D01*
X456472Y348069D01*
X456141Y348049D01*
X456024D01*
X455926Y348069D01*
X455809D01*
X455672Y348088D01*
X455380Y348166D01*
X455029Y348283D01*
X454658Y348439D01*
X454268Y348673D01*
X454092Y348829D01*
X453917Y348985D01*
Y349005D01*
X453878Y349025D01*
X453839Y349083D01*
X453780Y349142D01*
X453624Y349337D01*
X453468Y349610D01*
X453293Y349922D01*
X453137Y350312D01*
X453039Y350741D01*
X453019Y350975D01*
X453000Y351209D01*
Y353843D01*
Y353862D01*
Y353921D01*
X453019Y353999D01*
X453059Y354096D01*
X453117Y354194D01*
X453215Y354272D01*
X453332Y354330D01*
X453507Y354350D01*
X463066D01*
X463163Y354330D01*
D02*
G37*
G36*
X453683Y398569D02*
X459925Y396501D01*
X459945D01*
X459984Y396462D01*
X460062Y396423D01*
X460140Y396384D01*
X460218Y396306D01*
X460296Y396208D01*
X460335Y396111D01*
X460354Y395974D01*
Y393867D01*
Y393848D01*
Y393789D01*
X460335Y393692D01*
X460296Y393594D01*
X460218Y393516D01*
X460140Y393419D01*
X460003Y393360D01*
X459827Y393341D01*
X453429D01*
X453351Y393360D01*
X453254Y393399D01*
X453156Y393477D01*
X453078Y393555D01*
X453019Y393692D01*
X453000Y393867D01*
Y393887D01*
Y393946D01*
X453019Y394043D01*
X453059Y394121D01*
X453117Y394219D01*
X453215Y394316D01*
X453332Y394375D01*
X453507Y394394D01*
X459301D01*
Y395604D01*
X453351Y397574D01*
X453332D01*
X453293Y397593D01*
X453176Y397671D01*
X453117Y397749D01*
X453059Y397827D01*
X453019Y397925D01*
X453000Y398061D01*
Y398081D01*
Y398139D01*
X453019Y398237D01*
X453059Y398315D01*
X453137Y398413D01*
X453215Y398510D01*
X453351Y398569D01*
X453527Y398588D01*
X453585D01*
X453683Y398569D01*
D02*
G37*
G36*
X463163Y414330D02*
X463261Y414291D01*
X463339Y414233D01*
X463436Y414135D01*
X463495Y414018D01*
X463514Y413843D01*
Y411209D01*
Y411190D01*
Y411151D01*
Y411092D01*
X463495Y411014D01*
X463475Y410819D01*
X463417Y410566D01*
X463339Y410253D01*
X463202Y409941D01*
X463007Y409629D01*
X462754Y409337D01*
X462715Y409298D01*
X462617Y409220D01*
X462461Y409103D01*
X462227Y408946D01*
X461954Y408810D01*
X461642Y408693D01*
X461291Y408615D01*
X460881Y408576D01*
X460764D01*
X460666Y408595D01*
X460432Y408634D01*
X460159Y408693D01*
X459827Y408810D01*
X459476Y408985D01*
X459320Y409103D01*
X459145Y409220D01*
X458989Y409376D01*
X458833Y409551D01*
X458813Y409532D01*
X458794Y409493D01*
X458735Y409415D01*
X458657Y409317D01*
X458579Y409200D01*
X458462Y409083D01*
X458326Y408946D01*
X458169Y408791D01*
X457974Y408654D01*
X457779Y408517D01*
X457565Y408400D01*
X457311Y408283D01*
X457057Y408186D01*
X456765Y408108D01*
X456472Y408069D01*
X456141Y408049D01*
X456024D01*
X455926Y408069D01*
X455809D01*
X455672Y408088D01*
X455380Y408166D01*
X455029Y408283D01*
X454658Y408439D01*
X454268Y408673D01*
X454092Y408829D01*
X453917Y408985D01*
Y409005D01*
X453878Y409025D01*
X453839Y409083D01*
X453780Y409142D01*
X453624Y409337D01*
X453468Y409610D01*
X453293Y409922D01*
X453137Y410312D01*
X453039Y410741D01*
X453019Y410975D01*
X453000Y411209D01*
Y413843D01*
Y413862D01*
Y413921D01*
X453019Y413999D01*
X453059Y414096D01*
X453117Y414194D01*
X453215Y414272D01*
X453332Y414330D01*
X453507Y414350D01*
X463066D01*
X463163Y414330D01*
D02*
G37*
G36*
X460003Y340676D02*
X460101Y340636D01*
X460179Y340558D01*
X460276Y340480D01*
X460335Y340344D01*
X460354Y340168D01*
Y340149D01*
Y340090D01*
X460335Y339993D01*
X460296Y339895D01*
X460218Y339817D01*
X460140Y339720D01*
X460003Y339661D01*
X459827Y339642D01*
X453429D01*
X453351Y339661D01*
X453254Y339700D01*
X453156Y339778D01*
X453078Y339856D01*
X453019Y339993D01*
X453000Y340168D01*
Y340188D01*
Y340246D01*
X453019Y340344D01*
X453059Y340422D01*
X453117Y340519D01*
X453215Y340617D01*
X453332Y340676D01*
X453507Y340695D01*
X459906D01*
X460003Y340676D01*
D02*
G37*
G36*
Y345923D02*
X460101Y345884D01*
X460179Y345806D01*
X460276Y345728D01*
X460335Y345591D01*
X460354Y345416D01*
Y345396D01*
Y345338D01*
X460335Y345240D01*
X460296Y345143D01*
X460218Y345065D01*
X460140Y344967D01*
X460003Y344908D01*
X459827Y344889D01*
X457214D01*
Y343836D01*
Y343816D01*
Y343797D01*
Y343680D01*
X457174Y343523D01*
X457136Y343328D01*
X457057Y343094D01*
X456960Y342841D01*
X456804Y342587D01*
X456589Y342353D01*
X456570Y342334D01*
X456472Y342256D01*
X456355Y342158D01*
X456180Y342041D01*
X455965Y341924D01*
X455712Y341826D01*
X455419Y341748D01*
X455107Y341729D01*
X454951D01*
X454795Y341768D01*
X454580Y341807D01*
X454346Y341885D01*
X454092Y341982D01*
X453839Y342138D01*
X453605Y342353D01*
X453585Y342373D01*
X453507Y342470D01*
X453410Y342587D01*
X453312Y342763D01*
X453195Y342977D01*
X453097Y343231D01*
X453019Y343523D01*
X453000Y343836D01*
Y345416D01*
Y345435D01*
Y345494D01*
X453019Y345591D01*
X453059Y345669D01*
X453117Y345767D01*
X453215Y345864D01*
X453332Y345923D01*
X453507Y345942D01*
X459906D01*
X460003Y345923D01*
D02*
G37*
G36*
Y405923D02*
X460101Y405884D01*
X460179Y405806D01*
X460276Y405728D01*
X460335Y405591D01*
X460354Y405416D01*
Y405396D01*
Y405338D01*
X460335Y405240D01*
X460296Y405143D01*
X460218Y405065D01*
X460140Y404967D01*
X460003Y404908D01*
X459827Y404889D01*
X456901D01*
X460198Y401592D01*
X460218Y401573D01*
X460276Y401495D01*
X460335Y401378D01*
X460354Y401222D01*
Y401202D01*
Y401144D01*
X460335Y401046D01*
X460296Y400949D01*
X460218Y400871D01*
X460140Y400773D01*
X460003Y400714D01*
X459827Y400695D01*
X459789D01*
X459711Y400714D01*
X459574Y400754D01*
X459457Y400851D01*
X457136Y403153D01*
X453819Y400793D01*
X453800Y400773D01*
X453722Y400734D01*
X453624Y400714D01*
X453507Y400695D01*
X453429D01*
X453351Y400714D01*
X453254Y400754D01*
X453156Y400831D01*
X453078Y400910D01*
X453019Y401046D01*
X453000Y401222D01*
Y401241D01*
Y401261D01*
X453019Y401378D01*
X453097Y401514D01*
X453137Y401592D01*
X453215Y401651D01*
X456375Y403914D01*
X455399Y404889D01*
X453429D01*
X453351Y404908D01*
X453254Y404948D01*
X453156Y405026D01*
X453078Y405104D01*
X453019Y405240D01*
X453000Y405416D01*
Y405435D01*
Y405494D01*
X453019Y405591D01*
X453059Y405669D01*
X453117Y405767D01*
X453215Y405864D01*
X453332Y405923D01*
X453507Y405942D01*
X459906D01*
X460003Y405923D01*
D02*
G37*
%LPC*%
G36*
X96901Y292871D02*
X87997D01*
X87529Y292793D01*
X86904Y292636D01*
X86201Y292402D01*
X85498Y292090D01*
X84717Y291699D01*
X84014Y291074D01*
X83936Y290996D01*
X83702Y290762D01*
X83467Y290371D01*
X83155Y289825D01*
X82764Y289200D01*
X82530Y288419D01*
X82296Y287560D01*
X82218Y286622D01*
Y286544D01*
Y286154D01*
X82296Y285685D01*
X82452Y285060D01*
X82686Y284435D01*
X82999Y283654D01*
X83389Y282873D01*
X84014Y282170D01*
X84092Y282092D01*
X84326Y281858D01*
X84717Y281545D01*
X85264Y281233D01*
X85889Y280921D01*
X86670Y280608D01*
X87529Y280374D01*
X88466Y280296D01*
X97370D01*
X97839Y280374D01*
X98463Y280530D01*
X99088Y280764D01*
X99869Y281077D01*
X100650Y281545D01*
X101353Y282170D01*
X101432Y282248D01*
X101666Y282483D01*
X101978Y282873D01*
X102291Y283420D01*
X102603Y284045D01*
X102915Y284826D01*
X103150Y285685D01*
X103228Y286622D01*
Y286700D01*
Y287013D01*
X103150Y287560D01*
X102994Y288106D01*
X102759Y288809D01*
X102447Y289590D01*
X101978Y290371D01*
X101353Y291074D01*
X101275Y291152D01*
X101041Y291387D01*
X100650Y291621D01*
X100104Y291933D01*
X99479Y292324D01*
X98698Y292558D01*
X97839Y292793D01*
X96901Y292871D01*
D02*
G37*
G36*
Y149860D02*
X87997D01*
X87529Y149782D01*
X86904Y149626D01*
X86201Y149392D01*
X85498Y149079D01*
X84717Y148689D01*
X84014Y148064D01*
X83936Y147986D01*
X83702Y147752D01*
X83467Y147361D01*
X83155Y146814D01*
X82764Y146189D01*
X82530Y145408D01*
X82296Y144549D01*
X82218Y143612D01*
Y143534D01*
Y143143D01*
X82296Y142675D01*
X82452Y142050D01*
X82686Y141425D01*
X82999Y140644D01*
X83389Y139863D01*
X84014Y139160D01*
X84092Y139082D01*
X84326Y138848D01*
X84717Y138535D01*
X85264Y138223D01*
X85889Y137910D01*
X86670Y137598D01*
X87529Y137364D01*
X88466Y137285D01*
X97370D01*
X97839Y137364D01*
X98463Y137520D01*
X99088Y137754D01*
X99869Y138067D01*
X100650Y138535D01*
X101353Y139160D01*
X101432Y139238D01*
X101666Y139472D01*
X101978Y139863D01*
X102291Y140410D01*
X102603Y141034D01*
X102915Y141816D01*
X103150Y142675D01*
X103228Y143612D01*
Y143690D01*
Y144003D01*
X103150Y144549D01*
X102994Y145096D01*
X102759Y145799D01*
X102447Y146580D01*
X101978Y147361D01*
X101353Y148064D01*
X101275Y148142D01*
X101041Y148376D01*
X100650Y148611D01*
X100104Y148923D01*
X99479Y149314D01*
X98698Y149548D01*
X97839Y149782D01*
X96901Y149860D01*
D02*
G37*
G36*
Y208752D02*
X87997D01*
X87529Y208673D01*
X86904Y208517D01*
X86201Y208283D01*
X85498Y207971D01*
X84717Y207580D01*
X84014Y206955D01*
X83936Y206877D01*
X83702Y206643D01*
X83467Y206252D01*
X83155Y205706D01*
X82764Y205081D01*
X82530Y204300D01*
X82296Y203440D01*
X82218Y202503D01*
Y202425D01*
Y202034D01*
X82296Y201566D01*
X82452Y200941D01*
X82686Y200316D01*
X82999Y199535D01*
X83389Y198754D01*
X84014Y198051D01*
X84092Y197973D01*
X84326Y197739D01*
X84717Y197426D01*
X85264Y197114D01*
X85889Y196801D01*
X86670Y196489D01*
X87529Y196255D01*
X88466Y196177D01*
X97370D01*
X97839Y196255D01*
X98463Y196411D01*
X99088Y196645D01*
X99869Y196958D01*
X100650Y197426D01*
X101353Y198051D01*
X101432Y198129D01*
X101666Y198364D01*
X101978Y198754D01*
X102291Y199301D01*
X102603Y199926D01*
X102915Y200707D01*
X103150Y201566D01*
X103228Y202503D01*
Y202581D01*
Y202894D01*
X103150Y203440D01*
X102994Y203987D01*
X102759Y204690D01*
X102447Y205471D01*
X101978Y206252D01*
X101353Y206955D01*
X101275Y207033D01*
X101041Y207268D01*
X100650Y207502D01*
X100104Y207814D01*
X99479Y208205D01*
X98698Y208439D01*
X97839Y208673D01*
X96901Y208752D01*
D02*
G37*
G36*
X462461Y353297D02*
X459301D01*
Y351209D01*
Y351190D01*
Y351092D01*
X459320Y350975D01*
X459359Y350819D01*
X459418Y350663D01*
X459496Y350468D01*
X459593Y350273D01*
X459749Y350097D01*
X459769Y350078D01*
X459827Y350019D01*
X459925Y349941D01*
X460062Y349863D01*
X460237Y349785D01*
X460432Y349707D01*
X460647Y349649D01*
X460881Y349629D01*
X460998D01*
X461115Y349649D01*
X461271Y349688D01*
X461427Y349746D01*
X461622Y349824D01*
X461817Y349941D01*
X461993Y350097D01*
X462012Y350117D01*
X462071Y350176D01*
X462149Y350273D01*
X462227Y350410D01*
X462305Y350566D01*
X462383Y350761D01*
X462441Y350975D01*
X462461Y351209D01*
Y353297D01*
D02*
G37*
G36*
X458247D02*
X454053D01*
Y351209D01*
Y351190D01*
Y351170D01*
X454073Y351053D01*
X454092Y350897D01*
X454131Y350702D01*
X454210Y350468D01*
X454307Y350215D01*
X454463Y349961D01*
X454658Y349727D01*
X454678Y349707D01*
X454775Y349629D01*
X454892Y349532D01*
X455068Y349415D01*
X455282Y349298D01*
X455536Y349200D01*
X455829Y349122D01*
X456141Y349103D01*
X456297D01*
X456453Y349142D01*
X456648Y349181D01*
X456882Y349259D01*
X457136Y349356D01*
X457389Y349512D01*
X457623Y349727D01*
X457643Y349746D01*
X457721Y349844D01*
X457818Y349961D01*
X457935Y350136D01*
X458052Y350351D01*
X458150Y350605D01*
X458228Y350897D01*
X458247Y351209D01*
Y353297D01*
D02*
G37*
G36*
X462461Y413297D02*
X459301D01*
Y411209D01*
Y411190D01*
Y411092D01*
X459320Y410975D01*
X459359Y410819D01*
X459418Y410663D01*
X459496Y410468D01*
X459593Y410273D01*
X459749Y410098D01*
X459769Y410078D01*
X459827Y410019D01*
X459925Y409941D01*
X460062Y409863D01*
X460237Y409785D01*
X460432Y409707D01*
X460647Y409649D01*
X460881Y409629D01*
X460998D01*
X461115Y409649D01*
X461271Y409688D01*
X461427Y409746D01*
X461622Y409824D01*
X461817Y409941D01*
X461993Y410098D01*
X462012Y410117D01*
X462071Y410176D01*
X462149Y410273D01*
X462227Y410410D01*
X462305Y410566D01*
X462383Y410761D01*
X462441Y410975D01*
X462461Y411209D01*
Y413297D01*
D02*
G37*
G36*
X458247D02*
X454053D01*
Y411209D01*
Y411190D01*
Y411170D01*
X454073Y411053D01*
X454092Y410897D01*
X454131Y410702D01*
X454210Y410468D01*
X454307Y410215D01*
X454463Y409961D01*
X454658Y409727D01*
X454678Y409707D01*
X454775Y409629D01*
X454892Y409532D01*
X455068Y409415D01*
X455282Y409298D01*
X455536Y409200D01*
X455829Y409122D01*
X456141Y409103D01*
X456297D01*
X456453Y409142D01*
X456648Y409181D01*
X456882Y409259D01*
X457136Y409356D01*
X457389Y409512D01*
X457623Y409727D01*
X457643Y409746D01*
X457721Y409844D01*
X457818Y409961D01*
X457935Y410136D01*
X458052Y410351D01*
X458150Y410605D01*
X458228Y410897D01*
X458247Y411209D01*
Y413297D01*
D02*
G37*
G36*
X456160Y344889D02*
X454053D01*
Y343836D01*
Y343816D01*
Y343758D01*
X454073Y343680D01*
X454092Y343582D01*
X454131Y343465D01*
X454170Y343348D01*
X454249Y343211D01*
X454346Y343094D01*
X454366Y343075D01*
X454404Y343036D01*
X454463Y342997D01*
X454561Y342938D01*
X454678Y342880D01*
X454795Y342821D01*
X454951Y342802D01*
X455107Y342782D01*
X455185D01*
X455263Y342802D01*
X455360Y342821D01*
X455477Y342860D01*
X455594Y342919D01*
X455731Y342997D01*
X455848Y343094D01*
X455868Y343114D01*
X455907Y343153D01*
X455946Y343211D01*
X456004Y343309D01*
X456063Y343406D01*
X456121Y343543D01*
X456141Y343680D01*
X456160Y343836D01*
Y344889D01*
D02*
G37*
%LPD*%
D19*
X279210Y239000D02*
Y242000D01*
X222060Y239000D02*
X279210D01*
X222060D02*
Y247460D01*
Y252540D02*
Y261000D01*
X279210D01*
Y258000D02*
Y261000D01*
X250000Y239000D02*
Y261000D01*
Y250000D02*
X255080Y246190D01*
X250000Y250000D02*
X255080Y253810D01*
X247460Y250000D02*
X250000D01*
X255080D02*
X257620D01*
X255080Y246190D02*
Y253810D01*
X220790Y261000D02*
X222060D01*
X220790Y252540D02*
Y261000D01*
Y252540D02*
X222060D01*
X220790Y239000D02*
X222060D01*
X220790D02*
Y247460D01*
X222060D01*
X250700Y231080D02*
Y233000D01*
X225300D02*
X250700D01*
X225300Y231080D02*
Y233000D01*
Y219000D02*
Y220920D01*
Y219000D02*
X250700D01*
Y220920D01*
X238000Y219000D02*
Y233000D01*
D20*
X416000Y302000D02*
X444000D01*
X416000Y197700D02*
X444000D01*
Y302000D01*
X416000Y197700D02*
Y302000D01*
M02*
