G04 Layer_Physical_Order=1*
G04 Layer_Color=255*
%FSLAX44Y44*%
%MOMM*%
G71*
G01*
G75*
%ADD10R,0.8500X0.9500*%
%ADD11R,1.5000X1.6000*%
%ADD12R,1.2500X0.9000*%
%ADD13R,0.9000X0.8000*%
%ADD14C,0.6000*%
%ADD15P,1.9483X8X292.5*%
%ADD16C,1.8000*%
%ADD17C,4.0000*%
%ADD18C,5.5000*%
%ADD19C,2.0000*%
G36*
X475109Y495686D02*
X480022Y494196D01*
X484550Y491775D01*
X488518Y488518D01*
X491776Y484550D01*
X494196Y480022D01*
X495686Y475109D01*
X496165Y470248D01*
X496115Y470000D01*
X496115Y30000D01*
X496165Y29752D01*
X495686Y24891D01*
X494196Y19978D01*
X491776Y15450D01*
X488518Y11481D01*
X484550Y8224D01*
X480022Y5804D01*
X475109Y4314D01*
X471250Y3934D01*
X470000Y3885D01*
X470000Y3885D01*
X468730Y3885D01*
X31269Y3885D01*
X30000Y3885D01*
X28750Y3934D01*
X24891Y4314D01*
X19978Y5804D01*
X15450Y8224D01*
X11481Y11481D01*
X8225Y15450D01*
X5804Y19978D01*
X4314Y24891D01*
X3934Y28750D01*
X3885Y30000D01*
X3885Y30000D01*
X3885Y31252D01*
X3885Y470000D01*
X3835Y470248D01*
X4314Y475109D01*
X5804Y480022D01*
X8225Y484550D01*
X11481Y488518D01*
X15450Y491775D01*
X19978Y494196D01*
X24891Y495686D01*
X29752Y496165D01*
X30000Y496115D01*
X470000Y496115D01*
X470248Y496165D01*
X475109Y495686D01*
D02*
G37*
%LPC*%
G36*
X450505Y241733D02*
X449495D01*
X447739Y241384D01*
X446805Y240997D01*
X445317Y240003D01*
X445317Y240003D01*
X444602Y239288D01*
X444602Y239288D01*
X443608Y237800D01*
X443221Y236866D01*
X442872Y235110D01*
Y234855D01*
X442822Y234605D01*
X442872Y234355D01*
Y234100D01*
X443221Y232344D01*
X443608Y231411D01*
X444602Y229922D01*
X444602Y229922D01*
X445317Y229208D01*
X445317Y229208D01*
X446805Y228213D01*
X447739Y227826D01*
X449495Y227477D01*
X450505D01*
X452261Y227826D01*
X453195Y228213D01*
X454683Y229208D01*
X454683Y229208D01*
X455398Y229922D01*
X455398Y229922D01*
X456392Y231411D01*
X456779Y232344D01*
X457128Y234100D01*
Y234355D01*
X457178Y234605D01*
X457128Y234855D01*
Y235110D01*
X456779Y236866D01*
X456392Y237800D01*
X455398Y239288D01*
X455398Y239288D01*
X454683Y240003D01*
X454683Y240003D01*
X453195Y240997D01*
X452261Y241384D01*
X450505Y241733D01*
D02*
G37*
G36*
X103000Y248940D02*
X99987Y248543D01*
X97180Y247380D01*
X94770Y245530D01*
X92920Y243120D01*
X91757Y240313D01*
X91360Y237300D01*
X91757Y234287D01*
X92920Y231480D01*
X94770Y229070D01*
X97180Y227220D01*
X99987Y226057D01*
X103000Y225660D01*
X106012Y226057D01*
X108820Y227220D01*
X111230Y229070D01*
X113080Y231480D01*
X114243Y234287D01*
X114640Y237300D01*
X114243Y240313D01*
X113080Y243120D01*
X111230Y245530D01*
X108820Y247380D01*
X106012Y248543D01*
X103000Y248940D01*
D02*
G37*
G36*
X455000Y75133D02*
X450286Y74762D01*
X445689Y73658D01*
X441320Y71849D01*
X437288Y69378D01*
X433693Y66307D01*
X430622Y62712D01*
X428151Y58680D01*
X426342Y54311D01*
X425238Y49714D01*
X424867Y45000D01*
X425238Y40286D01*
X426342Y35688D01*
X428151Y31320D01*
X430622Y27288D01*
X433693Y23693D01*
X437288Y20622D01*
X441320Y18151D01*
X445689Y16342D01*
X450286Y15238D01*
X455000Y14867D01*
X459714Y15238D01*
X464312Y16342D01*
X468680Y18151D01*
X472712Y20622D01*
X476307Y23693D01*
X479378Y27288D01*
X481849Y31320D01*
X483658Y35688D01*
X484762Y40286D01*
X485133Y45000D01*
X484762Y49714D01*
X483658Y54311D01*
X481849Y58680D01*
X479378Y62712D01*
X476307Y66307D01*
X472712Y69378D01*
X468680Y71849D01*
X464312Y73658D01*
X459714Y74762D01*
X455000Y75133D01*
D02*
G37*
G36*
X140000Y92649D02*
X135581Y92214D01*
X131333Y90925D01*
X127417Y88832D01*
X123985Y86015D01*
X121168Y82583D01*
X119075Y78667D01*
X117786Y74419D01*
X117351Y70000D01*
X117786Y65581D01*
X119075Y61333D01*
X121168Y57417D01*
X123985Y53985D01*
X127417Y51168D01*
X131333Y49075D01*
X135581Y47786D01*
X140000Y47351D01*
X144419Y47786D01*
X148667Y49075D01*
X152583Y51168D01*
X156015Y53985D01*
X158832Y57417D01*
X160925Y61333D01*
X162214Y65581D01*
X162649Y70000D01*
X162214Y74419D01*
X160925Y78667D01*
X158832Y82583D01*
X156015Y86015D01*
X152583Y88832D01*
X148667Y90925D01*
X144419Y92214D01*
X140000Y92649D01*
D02*
G37*
G36*
X103000Y223540D02*
X99987Y223143D01*
X97180Y221980D01*
X94770Y220130D01*
X92920Y217720D01*
X91757Y214912D01*
X91360Y211900D01*
X91757Y208888D01*
X92920Y206080D01*
X94770Y203670D01*
X97180Y201820D01*
X99987Y200657D01*
X103000Y200261D01*
X106012Y200657D01*
X108820Y201820D01*
X111230Y203670D01*
X113080Y206080D01*
X114243Y208888D01*
X114640Y211900D01*
X114243Y214912D01*
X113080Y217720D01*
X111230Y220130D01*
X108820Y221980D01*
X106012Y223143D01*
X103000Y223540D01*
D02*
G37*
G36*
X360000Y92649D02*
X355581Y92214D01*
X351333Y90925D01*
X347417Y88832D01*
X343985Y86015D01*
X341168Y82583D01*
X339075Y78667D01*
X337786Y74419D01*
X337351Y70000D01*
X337786Y65581D01*
X339075Y61333D01*
X341168Y57417D01*
X343985Y53985D01*
X347417Y51168D01*
X351333Y49075D01*
X355581Y47786D01*
X360000Y47351D01*
X364419Y47786D01*
X368667Y49075D01*
X372583Y51168D01*
X376015Y53985D01*
X378832Y57417D01*
X380925Y61333D01*
X382214Y65581D01*
X382649Y70000D01*
X382214Y74419D01*
X380925Y78667D01*
X378832Y82583D01*
X376015Y86015D01*
X372583Y88832D01*
X368667Y90925D01*
X364419Y92214D01*
X360000Y92649D01*
D02*
G37*
G36*
X464500Y217695D02*
X455500D01*
X454509Y217498D01*
X453669Y216936D01*
X453107Y216096D01*
X452910Y215105D01*
Y207105D01*
X453107Y206114D01*
X453669Y205274D01*
X454509Y204713D01*
X455500Y204515D01*
X464500D01*
X465491Y204713D01*
X466331Y205274D01*
X466893Y206114D01*
X467090Y207105D01*
Y215105D01*
X466893Y216096D01*
X466331Y216936D01*
X465491Y217498D01*
X464500Y217695D01*
D02*
G37*
G36*
X434500Y230695D02*
X422000D01*
X421009Y230498D01*
X420169Y229936D01*
X419607Y229096D01*
X419410Y228105D01*
Y219105D01*
X419607Y218114D01*
X420169Y217274D01*
X421009Y216713D01*
X422000Y216516D01*
X431976D01*
X432938Y215245D01*
X432910Y215105D01*
Y207105D01*
X433107Y206114D01*
X433669Y205274D01*
X434509Y204713D01*
X435500Y204515D01*
X444500D01*
X445491Y204713D01*
X446331Y205274D01*
X446893Y206114D01*
X447090Y207105D01*
Y215105D01*
X446893Y216096D01*
X446331Y216936D01*
X445491Y217498D01*
X444500Y217695D01*
X438024D01*
X437062Y218965D01*
X437090Y219105D01*
Y228105D01*
X436893Y229096D01*
X436331Y229936D01*
X435491Y230498D01*
X434500Y230695D01*
D02*
G37*
G36*
X450505Y271733D02*
X449495D01*
X447739Y271384D01*
X446805Y270997D01*
X445317Y270003D01*
X445317Y270003D01*
X444602Y269288D01*
X444602Y269288D01*
X443608Y267800D01*
X443221Y266866D01*
X442872Y265110D01*
Y264855D01*
X442822Y264605D01*
X442872Y264355D01*
Y264100D01*
X443221Y262344D01*
X443608Y261411D01*
X444602Y259922D01*
X444602Y259922D01*
X445317Y259208D01*
X445317Y259208D01*
X446805Y258213D01*
X447739Y257826D01*
X449495Y257477D01*
X450505D01*
X452261Y257826D01*
X453195Y258213D01*
X454683Y259208D01*
X454683Y259208D01*
X455398Y259922D01*
X455398Y259922D01*
X456392Y261411D01*
X456779Y262344D01*
X457128Y264100D01*
Y264355D01*
X457178Y264605D01*
X457128Y264855D01*
Y265110D01*
X456779Y266866D01*
X456392Y267800D01*
X455398Y269288D01*
X455398Y269288D01*
X454683Y270003D01*
X454683Y270003D01*
X453195Y270997D01*
X452261Y271384D01*
X450505Y271733D01*
D02*
G37*
G36*
X455000Y485133D02*
X450286Y484762D01*
X445689Y483658D01*
X441320Y481849D01*
X437288Y479378D01*
X433693Y476307D01*
X430622Y472712D01*
X428151Y468680D01*
X426342Y464312D01*
X425238Y459714D01*
X424867Y455000D01*
X425238Y450286D01*
X426342Y445688D01*
X428151Y441320D01*
X430622Y437288D01*
X433693Y433693D01*
X437288Y430622D01*
X441320Y428151D01*
X445689Y426342D01*
X450286Y425238D01*
X455000Y424867D01*
X459714Y425238D01*
X464312Y426342D01*
X468680Y428151D01*
X472712Y430622D01*
X476307Y433693D01*
X479378Y437288D01*
X481849Y441320D01*
X483658Y445688D01*
X484762Y450286D01*
X485133Y455000D01*
X484762Y459714D01*
X483658Y464312D01*
X481849Y468680D01*
X479378Y472712D01*
X476307Y476307D01*
X472712Y479378D01*
X468680Y481849D01*
X464312Y483658D01*
X459714Y484762D01*
X455000Y485133D01*
D02*
G37*
G36*
X45000D02*
X40286Y484762D01*
X35688Y483658D01*
X31320Y481849D01*
X27288Y479378D01*
X23693Y476307D01*
X20622Y472712D01*
X18151Y468680D01*
X16342Y464312D01*
X15238Y459714D01*
X14867Y455000D01*
X15238Y450286D01*
X16342Y445688D01*
X18151Y441320D01*
X20622Y437288D01*
X23693Y433693D01*
X27288Y430622D01*
X31320Y428151D01*
X35688Y426342D01*
X40286Y425238D01*
X45000Y424867D01*
X49714Y425238D01*
X54312Y426342D01*
X58680Y428151D01*
X62712Y430622D01*
X66307Y433693D01*
X69378Y437288D01*
X71849Y441320D01*
X73658Y445688D01*
X74762Y450286D01*
X75133Y455000D01*
X74762Y459714D01*
X73658Y464312D01*
X71849Y468680D01*
X69378Y472712D01*
X66307Y476307D01*
X62712Y479378D01*
X58680Y481849D01*
X54312Y483658D01*
X49714Y484762D01*
X45000Y485133D01*
D02*
G37*
G36*
X283898Y485547D02*
X283898Y485547D01*
X216102D01*
X216102Y485547D01*
X213940Y485117D01*
X212108Y483893D01*
X212108Y483892D01*
X204006Y475791D01*
X202781Y473958D01*
X202351Y471797D01*
X202351Y471796D01*
Y444000D01*
X202351Y444000D01*
X202781Y441838D01*
X204006Y440006D01*
X214006Y430006D01*
X214006Y430006D01*
X215838Y428781D01*
X218000Y428351D01*
X218000Y428352D01*
X225735D01*
X226346Y426876D01*
X228356Y424256D01*
X230976Y422246D01*
X234026Y420983D01*
X237300Y420552D01*
X240574Y420983D01*
X243624Y422246D01*
X246244Y424256D01*
X248254Y426876D01*
X249313Y429433D01*
X250687D01*
X251746Y426876D01*
X253756Y424256D01*
X256376Y422246D01*
X257852Y421635D01*
Y364340D01*
X253506Y359994D01*
X252281Y358162D01*
X251851Y356000D01*
X251852Y356000D01*
Y280870D01*
X251419Y280581D01*
X250857Y279741D01*
X250839Y279648D01*
X190340D01*
X177894Y292094D01*
X176062Y293319D01*
X173900Y293749D01*
X173900Y293748D01*
X114287D01*
X113831Y294431D01*
X109331Y298931D01*
X108491Y299493D01*
X107500Y299690D01*
X98500D01*
X97509Y299493D01*
X96669Y298931D01*
X92169Y294431D01*
X91607Y293591D01*
X91410Y292600D01*
Y283600D01*
X91607Y282609D01*
X92169Y281769D01*
X96669Y277269D01*
X97509Y276707D01*
X98500Y276510D01*
X107500D01*
X108491Y276707D01*
X109331Y277269D01*
X113831Y281769D01*
X114287Y282451D01*
X171560D01*
X184006Y270006D01*
X184006Y270006D01*
X184586Y269618D01*
X184200Y268349D01*
X113151D01*
X113080Y268520D01*
X111230Y270930D01*
X108820Y272780D01*
X106012Y273943D01*
X103000Y274340D01*
X99987Y273943D01*
X97180Y272780D01*
X94770Y270930D01*
X92920Y268520D01*
X91757Y265713D01*
X91360Y262700D01*
X91757Y259687D01*
X92920Y256880D01*
X94770Y254470D01*
X97180Y252620D01*
X99987Y251457D01*
X103000Y251060D01*
X106012Y251457D01*
X108820Y252620D01*
X111230Y254470D01*
X113080Y256880D01*
X113151Y257052D01*
X195460D01*
X206352Y246160D01*
Y235605D01*
X206352Y235605D01*
X206782Y233444D01*
X208006Y231611D01*
X227611Y212006D01*
X227611Y212006D01*
X229444Y210781D01*
X231605Y210352D01*
X282000D01*
X282000Y210351D01*
X284162Y210781D01*
X285994Y212006D01*
X318599Y244611D01*
X318599Y244611D01*
X319824Y246444D01*
X320254Y248605D01*
X320254Y248605D01*
Y250957D01*
X419713D01*
X420169Y250274D01*
X421009Y249713D01*
X422000Y249515D01*
X434500D01*
X435491Y249713D01*
X436331Y250274D01*
X436893Y251114D01*
X437090Y252105D01*
Y261105D01*
X436893Y262096D01*
X436331Y262936D01*
X435583Y263436D01*
X435510Y264105D01*
X435583Y264774D01*
X436331Y265274D01*
X436893Y266114D01*
X437090Y267105D01*
Y276105D01*
X436893Y277096D01*
X436331Y277936D01*
X435491Y278498D01*
X434500Y278695D01*
X422000D01*
X421009Y278498D01*
X420169Y277936D01*
X419713Y277254D01*
X320734D01*
X307994Y289994D01*
X307994Y289994D01*
X297649Y300340D01*
Y471796D01*
X297649Y471797D01*
X297219Y473958D01*
X295994Y475791D01*
X295994Y475791D01*
X287892Y483893D01*
X286060Y485117D01*
X283898Y485547D01*
D02*
G37*
G36*
X45000Y75133D02*
X40286Y74762D01*
X35688Y73658D01*
X31320Y71849D01*
X27288Y69378D01*
X23693Y66307D01*
X20622Y62712D01*
X18151Y58680D01*
X16342Y54311D01*
X15238Y49714D01*
X14867Y45000D01*
X15238Y40286D01*
X16342Y35688D01*
X18151Y31320D01*
X20622Y27288D01*
X23693Y23693D01*
X27288Y20622D01*
X31320Y18151D01*
X35688Y16342D01*
X40286Y15238D01*
X45000Y14867D01*
X49714Y15238D01*
X54312Y16342D01*
X58680Y18151D01*
X62712Y20622D01*
X66307Y23693D01*
X69378Y27288D01*
X71849Y31320D01*
X73658Y35688D01*
X74762Y40286D01*
X75133Y45000D01*
X74762Y49714D01*
X73658Y54311D01*
X71849Y58680D01*
X69378Y62712D01*
X66307Y66307D01*
X62712Y69378D01*
X58680Y71849D01*
X54312Y73658D01*
X49714Y74762D01*
X45000Y75133D01*
D02*
G37*
G36*
X464500Y294695D02*
X455500D01*
X454509Y294498D01*
X453669Y293936D01*
X453107Y293096D01*
X452910Y292105D01*
Y284105D01*
X453107Y283114D01*
X453669Y282274D01*
X454509Y281713D01*
X455500Y281516D01*
X464500D01*
X465491Y281713D01*
X466331Y282274D01*
X466893Y283114D01*
X467090Y284105D01*
Y292105D01*
X466893Y293096D01*
X466331Y293936D01*
X465491Y294498D01*
X464500Y294695D01*
D02*
G37*
G36*
X444500D02*
X435500D01*
X434509Y294498D01*
X433669Y293936D01*
X433107Y293096D01*
X432910Y292105D01*
Y284105D01*
X433107Y283114D01*
X433669Y282274D01*
X434509Y281713D01*
X435500Y281516D01*
X444500D01*
X445491Y281713D01*
X446331Y282274D01*
X446893Y283114D01*
X447090Y284105D01*
Y292105D01*
X446893Y293096D01*
X446331Y293936D01*
X445491Y294498D01*
X444500Y294695D01*
D02*
G37*
G36*
X360000Y412649D02*
X355581Y412214D01*
X351333Y410925D01*
X347417Y408832D01*
X343985Y406015D01*
X341168Y402583D01*
X339075Y398667D01*
X337786Y394419D01*
X337351Y390000D01*
X337786Y385581D01*
X339075Y381333D01*
X341168Y377417D01*
X343985Y373985D01*
X347417Y371168D01*
X351333Y369075D01*
X355581Y367786D01*
X360000Y367351D01*
X364419Y367786D01*
X368667Y369075D01*
X372583Y371168D01*
X376015Y373985D01*
X378832Y377417D01*
X380925Y381333D01*
X382214Y385581D01*
X382649Y390000D01*
X382214Y394419D01*
X380925Y398667D01*
X378832Y402583D01*
X376015Y406015D01*
X372583Y408832D01*
X368667Y410925D01*
X364419Y412214D01*
X360000Y412649D01*
D02*
G37*
G36*
X140000D02*
X135581Y412214D01*
X131333Y410925D01*
X127417Y408832D01*
X123985Y406015D01*
X121168Y402583D01*
X119075Y398667D01*
X117786Y394419D01*
X117351Y390000D01*
X117786Y385581D01*
X119075Y381333D01*
X121168Y377417D01*
X123985Y373985D01*
X127417Y371168D01*
X131333Y369075D01*
X135581Y367786D01*
X140000Y367351D01*
X144419Y367786D01*
X148667Y369075D01*
X152583Y371168D01*
X156015Y373985D01*
X158832Y377417D01*
X160925Y381333D01*
X162214Y385581D01*
X162649Y390000D01*
X162214Y394419D01*
X160925Y398667D01*
X158832Y402583D01*
X156015Y406015D01*
X152583Y408832D01*
X148667Y410925D01*
X144419Y412214D01*
X140000Y412649D01*
D02*
G37*
%LPD*%
G36*
X286352Y469457D02*
Y466020D01*
X285090Y466000D01*
X284893Y466991D01*
X284331Y467831D01*
X283491Y468393D01*
X282500Y468590D01*
X217500D01*
X216509Y468393D01*
X215669Y467831D01*
X215107Y466991D01*
X214910Y466000D01*
X213648Y466020D01*
Y469457D01*
X218441Y474250D01*
X281559D01*
X286352Y469457D01*
D02*
G37*
G36*
X314401Y267611D02*
X314401Y267611D01*
X316233Y266387D01*
X318395Y265957D01*
X318395Y265957D01*
X418562D01*
X419460Y265059D01*
Y263524D01*
X418908Y262254D01*
X314605D01*
X312444Y261824D01*
X310611Y260599D01*
X309387Y258767D01*
X308957Y256605D01*
Y250945D01*
X279660Y221649D01*
X233945D01*
X217649Y237945D01*
Y248500D01*
X217649Y248500D01*
X217219Y250662D01*
X215994Y252494D01*
X215994Y252494D01*
X201794Y266694D01*
X201214Y267082D01*
X201600Y268351D01*
X250710D01*
Y266710D01*
X264851D01*
Y260540D01*
X257960D01*
Y251688D01*
X256787Y251202D01*
X253994Y253994D01*
X252162Y255219D01*
X250000Y255649D01*
X250000Y255648D01*
X242040D01*
Y260540D01*
X221960D01*
Y239460D01*
X242040D01*
Y244352D01*
X247660D01*
X248351Y243660D01*
Y236605D01*
X248351Y236605D01*
X248781Y234444D01*
X250006Y232611D01*
X254611Y228006D01*
X254611Y228006D01*
X256444Y226781D01*
X258605Y226351D01*
X258605Y226352D01*
X276000D01*
X276000Y226351D01*
X278162Y226781D01*
X279994Y228006D01*
X295994Y244006D01*
X295994Y244006D01*
X297219Y245838D01*
X297649Y248000D01*
X297649Y248000D01*
Y271660D01*
X304000Y278012D01*
X314401Y267611D01*
D02*
G37*
G36*
X286352Y445980D02*
Y298000D01*
X286351Y298000D01*
X286781Y295838D01*
X288006Y294006D01*
X296012Y286000D01*
X288006Y277994D01*
X286781Y276162D01*
X286351Y274000D01*
X286352Y274000D01*
Y250340D01*
X279263Y243251D01*
X278090Y243737D01*
Y258000D01*
X277893Y258991D01*
X277331Y259831D01*
X276491Y260393D01*
X276148Y260461D01*
Y267130D01*
X276581Y267419D01*
X277143Y268259D01*
X277340Y269250D01*
Y278750D01*
X277143Y279741D01*
X276581Y280581D01*
X275741Y281143D01*
X274750Y281340D01*
X266250D01*
X265259Y281143D01*
X264896Y280900D01*
X264335Y280764D01*
X263148Y281718D01*
Y353660D01*
X267494Y358006D01*
X267494Y358006D01*
X268719Y359838D01*
X269149Y362000D01*
X269149Y362000D01*
Y422342D01*
X271644Y424256D01*
X273654Y426876D01*
X274917Y429926D01*
X275348Y433200D01*
X274917Y436474D01*
X273654Y439524D01*
X271644Y442144D01*
X271560Y442208D01*
X271968Y443410D01*
X282500D01*
X283491Y443607D01*
X284331Y444169D01*
X284893Y445009D01*
X285090Y446000D01*
X286352Y445980D01*
D02*
G37*
D10*
X257500Y274000D02*
D03*
X270500D02*
D03*
D11*
X268000Y250000D02*
D03*
X232000D02*
D03*
D12*
X428250Y223605D02*
D03*
Y256605D02*
D03*
Y271605D02*
D03*
D13*
X460000Y288105D02*
D03*
X440000D02*
D03*
X460000Y211105D02*
D03*
X440000D02*
D03*
D14*
X314605Y248605D02*
Y256605D01*
X282000Y216000D02*
X314605Y248605D01*
X231605Y216000D02*
X282000D01*
X212000Y235605D02*
X231605Y216000D01*
X212000Y235605D02*
Y248500D01*
X197800Y262700D02*
X212000Y248500D01*
X103000Y262700D02*
X197800D01*
X304000Y286000D02*
X318395Y271605D01*
X292000Y298000D02*
X304000Y286000D01*
X292000Y274000D02*
X304000Y286000D01*
X292000Y248000D02*
Y274000D01*
X276000Y232000D02*
X292000Y248000D01*
X258605Y232000D02*
X276000D01*
X254000Y236605D02*
X258605Y232000D01*
X254000Y236605D02*
Y246000D01*
X250000Y250000D02*
X254000Y246000D01*
X232000Y250000D02*
X250000D01*
X103000Y262700D02*
Y263540D01*
X314605Y256605D02*
X428250D01*
X318395Y271605D02*
X428250D01*
X208000Y471797D02*
X216102Y479898D01*
X208000Y444000D02*
Y471797D01*
Y444000D02*
X218000Y434000D01*
X283898Y479898D02*
X292000Y471797D01*
Y298000D02*
Y471797D01*
X216102Y479898D02*
X283898D01*
X262700Y425750D02*
X263500Y424950D01*
Y362000D02*
Y424950D01*
X257500Y356000D02*
X263500Y362000D01*
X257500Y274000D02*
Y356000D01*
X268000Y250000D02*
X270500Y252500D01*
Y274000D01*
X188000D02*
X257500D01*
X173900Y288100D02*
X188000Y274000D01*
X103000Y288100D02*
X173900D01*
X218000Y434000D02*
X237300D01*
D15*
X103000Y288100D02*
D03*
D16*
Y262700D02*
D03*
Y237300D02*
D03*
Y211900D02*
D03*
D17*
X140000Y70000D02*
D03*
X360000D02*
D03*
Y390000D02*
D03*
X140000D02*
D03*
D18*
X45000Y455000D02*
D03*
X455000D02*
D03*
X45000Y45000D02*
D03*
X455000D02*
D03*
D19*
X237300Y433200D02*
D03*
X262700D02*
D03*
M02*
