G04 Layer_Color=65535*
%FSLAX44Y44*%
%MOMM*%
G71*
G01*
G75*
%ADD20C,0.2540*%
%ADD21C,0.1500*%
%ADD22C,0.2000*%
G36*
X484163Y241980D02*
X484261Y241942D01*
X484339Y241883D01*
X484436Y241785D01*
X484495Y241668D01*
X484514Y241493D01*
Y238859D01*
Y238840D01*
Y238801D01*
Y238742D01*
X484495Y238664D01*
X484475Y238469D01*
X484417Y238216D01*
X484339Y237903D01*
X484202Y237591D01*
X484007Y237279D01*
X483754Y236987D01*
X483715Y236948D01*
X483617Y236870D01*
X483461Y236753D01*
X483227Y236597D01*
X482954Y236460D01*
X482642Y236343D01*
X482291Y236265D01*
X481881Y236226D01*
X481764D01*
X481666Y236245D01*
X481432Y236284D01*
X481159Y236343D01*
X480827Y236460D01*
X480476Y236635D01*
X480320Y236753D01*
X480145Y236870D01*
X479989Y237026D01*
X479833Y237201D01*
X479813Y237182D01*
X479794Y237143D01*
X479735Y237065D01*
X479657Y236967D01*
X479579Y236850D01*
X479462Y236733D01*
X479325Y236597D01*
X479169Y236440D01*
X478974Y236304D01*
X478779Y236167D01*
X478565Y236050D01*
X478311Y235933D01*
X478058Y235836D01*
X477765Y235758D01*
X477472Y235719D01*
X477141Y235699D01*
X477024D01*
X476926Y235719D01*
X476809D01*
X476673Y235738D01*
X476380Y235816D01*
X476029Y235933D01*
X475658Y236089D01*
X475268Y236323D01*
X475092Y236479D01*
X474917Y236635D01*
Y236655D01*
X474878Y236674D01*
X474839Y236733D01*
X474780Y236792D01*
X474624Y236987D01*
X474468Y237260D01*
X474293Y237572D01*
X474137Y237962D01*
X474039Y238391D01*
X474020Y238625D01*
X474000Y238859D01*
Y241493D01*
Y241512D01*
Y241571D01*
X474020Y241649D01*
X474058Y241746D01*
X474117Y241844D01*
X474215Y241922D01*
X474332Y241980D01*
X474507Y242000D01*
X484066D01*
X484163Y241980D01*
D02*
G37*
G36*
X79400Y342640D02*
X79791Y342562D01*
X80259Y342406D01*
X80766Y342211D01*
X81274Y341898D01*
X81742Y341469D01*
X81782Y341430D01*
X81938Y341235D01*
X82133Y341000D01*
X82367Y340649D01*
X82601Y340219D01*
X82797Y339712D01*
X82953Y339126D01*
X82992Y338502D01*
Y338463D01*
Y338385D01*
Y338307D01*
X82953Y338150D01*
X82914Y337721D01*
X82797Y337252D01*
X82640Y336745D01*
X82367Y336198D01*
X82016Y335730D01*
X81547Y335340D01*
X81625Y335300D01*
X81782Y335144D01*
X82016Y334910D01*
X82289Y334598D01*
X82523Y334168D01*
X82758Y333622D01*
X82914Y332958D01*
X82992Y332177D01*
Y332099D01*
Y331904D01*
X82914Y331553D01*
X82836Y331162D01*
X82680Y330694D01*
X82484Y330186D01*
X82172Y329679D01*
X81742Y329210D01*
X81704Y329171D01*
X81508Y329015D01*
X81274Y328820D01*
X80923Y328625D01*
X80493Y328390D01*
X79986Y328195D01*
X79400Y328039D01*
X78776Y328000D01*
X77526D01*
X77292Y328039D01*
X77019Y328078D01*
X76628Y328117D01*
X76199Y328234D01*
X75730Y328351D01*
X75223Y328507D01*
X75145Y328547D01*
X74950Y328625D01*
X74676Y328781D01*
X74403Y328937D01*
X74091Y329171D01*
X73817Y329445D01*
X73622Y329718D01*
X73583Y329874D01*
X73544Y330030D01*
Y330108D01*
X73583Y330264D01*
X73661Y330499D01*
X73778Y330772D01*
X73817Y330850D01*
X73934Y330967D01*
X74091Y331084D01*
X74325Y331162D01*
X74364D01*
X74403Y331123D01*
X74520Y331084D01*
X74676Y331045D01*
X74872Y330928D01*
X75184Y330811D01*
X75613Y330616D01*
X75652Y330577D01*
X75809Y330538D01*
X76043Y330460D01*
X76355Y330381D01*
X76667Y330264D01*
X77019Y330186D01*
X77370Y330147D01*
X77721Y330108D01*
X78932D01*
X79088Y330147D01*
X79283Y330186D01*
X79517Y330264D01*
X79752Y330342D01*
X80025Y330499D01*
X80259Y330694D01*
X80298Y330733D01*
X80376Y330811D01*
X80454Y330928D01*
X80571Y331123D01*
X80688Y331318D01*
X80806Y331592D01*
X80845Y331865D01*
X80884Y332177D01*
Y332216D01*
Y332333D01*
X80845Y332529D01*
X80806Y332724D01*
X80728Y332997D01*
X80649Y333231D01*
X80493Y333505D01*
X80298Y333739D01*
X80259Y333778D01*
X80220Y333817D01*
X80103Y333895D01*
X79986Y333973D01*
X79556Y334168D01*
X79049Y334285D01*
X77643D01*
X77448Y334324D01*
X77175Y334442D01*
X76941Y334598D01*
X76902Y334637D01*
X76824Y334793D01*
X76706Y335027D01*
X76667Y335340D01*
Y335378D01*
Y335418D01*
X76706Y335613D01*
X76785Y335847D01*
X76941Y336081D01*
X77019Y336120D01*
X77175Y336237D01*
X77526Y336354D01*
X77721Y336394D01*
X78815D01*
X79010Y336433D01*
X79244Y336472D01*
X79517Y336550D01*
X79791Y336628D01*
X80064Y336784D01*
X80298Y336979D01*
X80337Y337018D01*
X80376Y337096D01*
X80493Y337213D01*
X80610Y337409D01*
X80688Y337643D01*
X80806Y337877D01*
X80845Y338189D01*
X80884Y338502D01*
Y338541D01*
Y338658D01*
X80845Y338814D01*
X80806Y339009D01*
X80728Y339244D01*
X80610Y339478D01*
X80454Y339751D01*
X80259Y339985D01*
X80220Y340024D01*
X80142Y340102D01*
X80025Y340180D01*
X79869Y340298D01*
X79634Y340415D01*
X79400Y340532D01*
X79088Y340571D01*
X78776Y340610D01*
X77565D01*
X77370Y340571D01*
X77136Y340532D01*
X76824Y340493D01*
X76472Y340376D01*
X76043Y340258D01*
X75574Y340063D01*
X75535Y340024D01*
X75379Y339985D01*
X75184Y339907D01*
X74950Y339790D01*
X74715Y339673D01*
X74520Y339595D01*
X74364Y339556D01*
X74325Y339517D01*
X74286D01*
X74130Y339556D01*
X73974Y339673D01*
X73778Y339907D01*
X73739Y339985D01*
X73661Y340141D01*
X73583Y340376D01*
X73544Y340649D01*
Y340688D01*
X73583Y340805D01*
X73622Y340961D01*
X73778Y341156D01*
X73974Y341391D01*
X74286Y341625D01*
X74715Y341898D01*
X74950Y342015D01*
X75262Y342132D01*
X75340Y342172D01*
X75496Y342211D01*
X75769Y342328D01*
X76082Y342445D01*
X76472Y342523D01*
X76902Y342640D01*
X77331Y342679D01*
X77721Y342718D01*
X79088D01*
X79400Y342640D01*
D02*
G37*
G36*
X474683Y286219D02*
X480925Y284151D01*
X480945D01*
X480984Y284112D01*
X481062Y284073D01*
X481140Y284034D01*
X481218Y283956D01*
X481296Y283858D01*
X481335Y283761D01*
X481354Y283624D01*
Y281517D01*
Y281498D01*
Y281439D01*
X481335Y281342D01*
X481296Y281244D01*
X481218Y281166D01*
X481140Y281069D01*
X481003Y281010D01*
X480827Y280991D01*
X474429D01*
X474351Y281010D01*
X474254Y281049D01*
X474156Y281127D01*
X474078Y281205D01*
X474020Y281342D01*
X474000Y281517D01*
Y281537D01*
Y281595D01*
X474020Y281693D01*
X474058Y281771D01*
X474117Y281869D01*
X474215Y281966D01*
X474332Y282025D01*
X474507Y282044D01*
X480301D01*
Y283254D01*
X474351Y285224D01*
X474332D01*
X474293Y285243D01*
X474176Y285321D01*
X474117Y285399D01*
X474058Y285477D01*
X474020Y285575D01*
X474000Y285711D01*
Y285731D01*
Y285790D01*
X474020Y285887D01*
X474058Y285965D01*
X474137Y286063D01*
X474215Y286160D01*
X474351Y286219D01*
X474527Y286238D01*
X474585D01*
X474683Y286219D01*
D02*
G37*
G36*
Y217811D02*
X480925Y215743D01*
X480945D01*
X480984Y215704D01*
X481062Y215665D01*
X481140Y215626D01*
X481218Y215548D01*
X481296Y215451D01*
X481335Y215353D01*
X481354Y215217D01*
Y213110D01*
Y213090D01*
Y213032D01*
X481335Y212934D01*
X481296Y212837D01*
X481218Y212759D01*
X481140Y212661D01*
X481003Y212603D01*
X480827Y212583D01*
X474429D01*
X474351Y212603D01*
X474254Y212642D01*
X474156Y212720D01*
X474078Y212798D01*
X474020Y212934D01*
X474000Y213110D01*
Y213129D01*
Y213188D01*
X474020Y213285D01*
X474058Y213363D01*
X474117Y213461D01*
X474215Y213559D01*
X474332Y213617D01*
X474507Y213636D01*
X480301D01*
Y214846D01*
X474351Y216816D01*
X474332D01*
X474293Y216836D01*
X474176Y216914D01*
X474117Y216992D01*
X474058Y217070D01*
X474020Y217167D01*
X474000Y217304D01*
Y217323D01*
Y217382D01*
X474020Y217479D01*
X474058Y217558D01*
X474137Y217655D01*
X474215Y217752D01*
X474351Y217811D01*
X474527Y217831D01*
X474585D01*
X474683Y217811D01*
D02*
G37*
G36*
X481003Y225165D02*
X481101Y225126D01*
X481179Y225048D01*
X481276Y224970D01*
X481335Y224834D01*
X481354Y224658D01*
Y224639D01*
Y224580D01*
X481335Y224482D01*
X481296Y224385D01*
X481218Y224307D01*
X481140Y224209D01*
X481003Y224151D01*
X480827Y224131D01*
X477901D01*
X481198Y220835D01*
X481218Y220815D01*
X481276Y220737D01*
X481335Y220620D01*
X481354Y220464D01*
Y220445D01*
Y220386D01*
X481335Y220289D01*
X481296Y220191D01*
X481218Y220113D01*
X481140Y220015D01*
X481003Y219957D01*
X480827Y219937D01*
X480788D01*
X480710Y219957D01*
X480574Y219996D01*
X480457Y220093D01*
X478135Y222395D01*
X474819Y220035D01*
X474800Y220015D01*
X474722Y219976D01*
X474624Y219957D01*
X474507Y219937D01*
X474429D01*
X474351Y219957D01*
X474254Y219996D01*
X474156Y220074D01*
X474078Y220152D01*
X474020Y220289D01*
X474000Y220464D01*
Y220484D01*
Y220503D01*
X474020Y220620D01*
X474098Y220757D01*
X474137Y220835D01*
X474215Y220893D01*
X477375Y223156D01*
X476399Y224131D01*
X474429D01*
X474351Y224151D01*
X474254Y224190D01*
X474156Y224268D01*
X474078Y224346D01*
X474020Y224482D01*
X474000Y224658D01*
Y224678D01*
Y224736D01*
X474020Y224834D01*
X474058Y224912D01*
X474117Y225009D01*
X474215Y225107D01*
X474332Y225165D01*
X474507Y225185D01*
X480905D01*
X481003Y225165D01*
D02*
G37*
G36*
Y228326D02*
X481101Y228286D01*
X481179Y228208D01*
X481276Y228130D01*
X481335Y227994D01*
X481354Y227818D01*
Y227799D01*
Y227740D01*
X481335Y227643D01*
X481296Y227545D01*
X481218Y227467D01*
X481140Y227370D01*
X481003Y227311D01*
X480827Y227292D01*
X474429D01*
X474351Y227311D01*
X474254Y227350D01*
X474156Y227428D01*
X474078Y227506D01*
X474020Y227643D01*
X474000Y227818D01*
Y227838D01*
Y227896D01*
X474020Y227994D01*
X474058Y228072D01*
X474117Y228169D01*
X474215Y228267D01*
X474332Y228326D01*
X474507Y228345D01*
X480905D01*
X481003Y228326D01*
D02*
G37*
G36*
Y233573D02*
X481101Y233534D01*
X481179Y233456D01*
X481276Y233378D01*
X481335Y233241D01*
X481354Y233066D01*
Y233046D01*
Y232988D01*
X481335Y232890D01*
X481296Y232793D01*
X481218Y232715D01*
X481140Y232617D01*
X481003Y232558D01*
X480827Y232539D01*
X478214D01*
Y231486D01*
Y231466D01*
Y231447D01*
Y231330D01*
X478175Y231173D01*
X478135Y230978D01*
X478058Y230744D01*
X477960Y230491D01*
X477804Y230237D01*
X477589Y230003D01*
X477570Y229984D01*
X477472Y229905D01*
X477355Y229808D01*
X477180Y229691D01*
X476965Y229574D01*
X476712Y229476D01*
X476419Y229398D01*
X476107Y229379D01*
X475951D01*
X475795Y229418D01*
X475580Y229457D01*
X475346Y229535D01*
X475092Y229632D01*
X474839Y229788D01*
X474605Y230003D01*
X474585Y230023D01*
X474507Y230120D01*
X474410Y230237D01*
X474312Y230413D01*
X474195Y230627D01*
X474098Y230881D01*
X474020Y231173D01*
X474000Y231486D01*
Y233066D01*
Y233085D01*
Y233144D01*
X474020Y233241D01*
X474058Y233319D01*
X474117Y233417D01*
X474215Y233514D01*
X474332Y233573D01*
X474507Y233592D01*
X480905D01*
X481003Y233573D01*
D02*
G37*
G36*
Y293573D02*
X481101Y293534D01*
X481179Y293456D01*
X481276Y293378D01*
X481335Y293241D01*
X481354Y293066D01*
Y293046D01*
Y292988D01*
X481335Y292890D01*
X481296Y292793D01*
X481218Y292715D01*
X481140Y292617D01*
X481003Y292558D01*
X480827Y292539D01*
X477901D01*
X481198Y289242D01*
X481218Y289223D01*
X481276Y289145D01*
X481335Y289028D01*
X481354Y288872D01*
Y288852D01*
Y288794D01*
X481335Y288696D01*
X481296Y288599D01*
X481218Y288521D01*
X481140Y288423D01*
X481003Y288365D01*
X480827Y288345D01*
X480788D01*
X480710Y288365D01*
X480574Y288403D01*
X480457Y288501D01*
X478135Y290803D01*
X474819Y288442D01*
X474800Y288423D01*
X474722Y288384D01*
X474624Y288365D01*
X474507Y288345D01*
X474429D01*
X474351Y288365D01*
X474254Y288403D01*
X474156Y288482D01*
X474078Y288559D01*
X474020Y288696D01*
X474000Y288872D01*
Y288891D01*
Y288911D01*
X474020Y289028D01*
X474098Y289164D01*
X474137Y289242D01*
X474215Y289301D01*
X477375Y291564D01*
X476399Y292539D01*
X474429D01*
X474351Y292558D01*
X474254Y292598D01*
X474156Y292676D01*
X474078Y292754D01*
X474020Y292890D01*
X474000Y293066D01*
Y293085D01*
Y293144D01*
X474020Y293241D01*
X474058Y293319D01*
X474117Y293417D01*
X474215Y293514D01*
X474332Y293573D01*
X474507Y293592D01*
X480905D01*
X481003Y293573D01*
D02*
G37*
G36*
X245346Y48021D02*
X245736Y47864D01*
X246049Y47552D01*
X246439Y47239D01*
X246674Y46693D01*
X246752Y45990D01*
Y45912D01*
Y45677D01*
X246674Y45287D01*
X246517Y44974D01*
X246205Y44584D01*
X245892Y44193D01*
X245346Y43959D01*
X244643Y43881D01*
X236207D01*
Y8031D01*
Y7953D01*
Y7718D01*
X236129Y7406D01*
X235973Y7015D01*
X235661Y6625D01*
X235348Y6312D01*
X234802Y6078D01*
X234099Y6000D01*
X233786D01*
X233396Y6078D01*
X233083Y6234D01*
X232693Y6469D01*
X232302Y6859D01*
X232068Y7328D01*
X231990Y8031D01*
Y43881D01*
X223242D01*
X222852Y43959D01*
X222539Y44115D01*
X222148Y44428D01*
X221758Y44740D01*
X221524Y45287D01*
X221446Y45990D01*
Y46068D01*
Y46302D01*
X221524Y46693D01*
X221680Y47083D01*
X221992Y47396D01*
X222305Y47786D01*
X222852Y48021D01*
X223554Y48099D01*
X244955D01*
X245346Y48021D01*
D02*
G37*
G36*
X211604D02*
X211995Y47864D01*
X212307Y47552D01*
X212698Y47239D01*
X212932Y46693D01*
X213010Y45990D01*
Y45912D01*
Y45677D01*
X212932Y45287D01*
X212776Y44974D01*
X212463Y44584D01*
X212151Y44193D01*
X211604Y43959D01*
X210901Y43881D01*
X196218D01*
Y8031D01*
Y7953D01*
Y7718D01*
X196140Y7406D01*
X195983Y7015D01*
X195671Y6625D01*
X195359Y6312D01*
X194812Y6078D01*
X194109Y6000D01*
X193796D01*
X193406Y6078D01*
X193093Y6234D01*
X192703Y6469D01*
X192312Y6859D01*
X192078Y7328D01*
X192000Y8031D01*
Y45990D01*
Y46068D01*
Y46302D01*
X192078Y46693D01*
X192234Y47083D01*
X192469Y47396D01*
X192859Y47786D01*
X193328Y48021D01*
X194031Y48099D01*
X211214D01*
X211604Y48021D01*
D02*
G37*
G36*
X308376D02*
X308767Y47864D01*
X309079Y47552D01*
X309470Y47239D01*
X309704Y46693D01*
X309782Y45990D01*
Y45912D01*
Y45677D01*
X309704Y45287D01*
X309548Y44974D01*
X309236Y44584D01*
X308923Y44193D01*
X308376Y43959D01*
X307673Y43881D01*
X299082D01*
X298613Y43803D01*
X297988Y43725D01*
X297207Y43490D01*
X296348Y43100D01*
X295489Y42553D01*
X294630Y41772D01*
X293849Y40757D01*
Y40679D01*
X293693Y40522D01*
X293615Y40210D01*
X293458Y39820D01*
X293302Y39351D01*
X293146Y38804D01*
X293068Y38179D01*
X292990Y37554D01*
Y16466D01*
Y16388D01*
Y16076D01*
X293068Y15529D01*
X293224Y14982D01*
X293458Y14279D01*
X293771Y13498D01*
X294161Y12717D01*
X294786Y12014D01*
X294864Y11936D01*
X295099Y11702D01*
X295489Y11467D01*
X296036Y11155D01*
X296661Y10764D01*
X297442Y10530D01*
X298301Y10296D01*
X299238Y10218D01*
X307986D01*
X308376Y10140D01*
X308767Y9983D01*
X309079Y9671D01*
X309470Y9359D01*
X309704Y8812D01*
X309782Y8109D01*
Y8031D01*
Y7796D01*
X309704Y7406D01*
X309548Y7093D01*
X309236Y6703D01*
X308923Y6312D01*
X308376Y6078D01*
X307673Y6000D01*
X298848D01*
X298535Y6078D01*
X297676Y6156D01*
X296661Y6391D01*
X295489Y6781D01*
X294239Y7250D01*
X292990Y8031D01*
X291818Y9046D01*
X291662Y9202D01*
X291350Y9593D01*
X290881Y10218D01*
X290334Y11155D01*
X289709Y12170D01*
X289241Y13498D01*
X288928Y14904D01*
X288772Y16466D01*
Y37554D01*
Y37633D01*
Y37789D01*
Y37945D01*
X288850Y38257D01*
X288928Y39116D01*
X289163Y40132D01*
X289553Y41303D01*
X290022Y42553D01*
X290803Y43803D01*
X291818Y44974D01*
X291974Y45131D01*
X292365Y45443D01*
X292990Y45990D01*
X293927Y46536D01*
X294942Y47083D01*
X296270Y47630D01*
X297676Y47942D01*
X299238Y48099D01*
X307986D01*
X308376Y48021D01*
D02*
G37*
G36*
X270574D02*
X271355Y47942D01*
X272370Y47708D01*
X273620Y47396D01*
X274869Y46849D01*
X276119Y46068D01*
X277291Y45052D01*
X277447Y44896D01*
X277759Y44506D01*
X278228Y43881D01*
X278853Y42944D01*
X279400Y41850D01*
X279868Y40601D01*
X280180Y39195D01*
X280337Y37554D01*
Y16466D01*
Y16388D01*
Y16310D01*
Y16076D01*
X280259Y15763D01*
X280180Y14904D01*
X279946Y13889D01*
X279556Y12717D01*
X279009Y11467D01*
X278228Y10218D01*
X277213Y9046D01*
X277056Y8890D01*
X276666Y8577D01*
X276041Y8109D01*
X275182Y7562D01*
X274088Y6937D01*
X272839Y6469D01*
X271355Y6156D01*
X269793Y6000D01*
X256827D01*
X256515Y6078D01*
X256124Y6234D01*
X255734Y6547D01*
X255421Y6859D01*
X255187Y7406D01*
X255109Y8109D01*
Y8187D01*
Y8421D01*
X255187Y8812D01*
X255343Y9202D01*
X255578Y9515D01*
X255968Y9905D01*
X256437Y10140D01*
X257140Y10218D01*
X270261D01*
X270730Y10296D01*
X271355Y10452D01*
X272058Y10686D01*
X272761Y10999D01*
X273542Y11389D01*
X274245Y12014D01*
X274323Y12092D01*
X274557Y12327D01*
X274869Y12717D01*
X275182Y13264D01*
X275494Y13889D01*
X275807Y14670D01*
X276041Y15529D01*
X276119Y16466D01*
Y27010D01*
X265263D01*
X264872Y27088D01*
X264559Y27245D01*
X264169Y27557D01*
X263778Y27869D01*
X263544Y28416D01*
X263466Y29119D01*
Y29197D01*
Y29432D01*
X263544Y29822D01*
X263700Y30213D01*
X264013Y30525D01*
X264325Y30916D01*
X264872Y31150D01*
X265575Y31228D01*
X276119D01*
Y37554D01*
Y37633D01*
Y38023D01*
X276041Y38492D01*
X275885Y39116D01*
X275651Y39741D01*
X275338Y40522D01*
X274869Y41303D01*
X274245Y42006D01*
X274167Y42084D01*
X273932Y42319D01*
X273542Y42631D01*
X272995Y42944D01*
X272370Y43256D01*
X271589Y43569D01*
X270730Y43803D01*
X269793Y43881D01*
X256827D01*
X256515Y43959D01*
X256124Y44115D01*
X255734Y44428D01*
X255421Y44740D01*
X255187Y45287D01*
X255109Y45990D01*
Y46068D01*
Y46302D01*
X255187Y46693D01*
X255343Y47083D01*
X255578Y47396D01*
X255968Y47786D01*
X256437Y48021D01*
X257140Y48099D01*
X270261D01*
X270574Y48021D01*
D02*
G37*
G36*
X484163Y301980D02*
X484261Y301942D01*
X484339Y301883D01*
X484436Y301785D01*
X484495Y301668D01*
X484514Y301493D01*
Y298859D01*
Y298840D01*
Y298801D01*
Y298742D01*
X484495Y298664D01*
X484475Y298469D01*
X484417Y298216D01*
X484339Y297903D01*
X484202Y297591D01*
X484007Y297279D01*
X483754Y296987D01*
X483715Y296948D01*
X483617Y296870D01*
X483461Y296753D01*
X483227Y296597D01*
X482954Y296460D01*
X482642Y296343D01*
X482291Y296265D01*
X481881Y296226D01*
X481764D01*
X481666Y296245D01*
X481432Y296284D01*
X481159Y296343D01*
X480827Y296460D01*
X480476Y296635D01*
X480320Y296753D01*
X480145Y296870D01*
X479989Y297026D01*
X479833Y297201D01*
X479813Y297182D01*
X479794Y297143D01*
X479735Y297065D01*
X479657Y296967D01*
X479579Y296850D01*
X479462Y296733D01*
X479325Y296597D01*
X479169Y296441D01*
X478974Y296304D01*
X478779Y296167D01*
X478565Y296050D01*
X478311Y295933D01*
X478058Y295836D01*
X477765Y295758D01*
X477472Y295719D01*
X477141Y295699D01*
X477024D01*
X476926Y295719D01*
X476809D01*
X476673Y295738D01*
X476380Y295816D01*
X476029Y295933D01*
X475658Y296089D01*
X475268Y296323D01*
X475092Y296479D01*
X474917Y296635D01*
Y296655D01*
X474878Y296674D01*
X474839Y296733D01*
X474780Y296792D01*
X474624Y296987D01*
X474468Y297260D01*
X474293Y297572D01*
X474137Y297962D01*
X474039Y298391D01*
X474020Y298625D01*
X474000Y298859D01*
Y301493D01*
Y301512D01*
Y301571D01*
X474020Y301649D01*
X474058Y301746D01*
X474117Y301844D01*
X474215Y301922D01*
X474332Y301980D01*
X474507Y302000D01*
X484066D01*
X484163Y301980D01*
D02*
G37*
G36*
X66517Y342679D02*
X66712Y342601D01*
X66868Y342445D01*
X67063Y342289D01*
X67181Y342015D01*
X67220Y341664D01*
Y331123D01*
Y331084D01*
Y330967D01*
X67259Y330772D01*
X67337Y330616D01*
X67493Y330420D01*
X67649Y330225D01*
X67922Y330108D01*
X68274Y330069D01*
X68430D01*
X68625Y330030D01*
X68820Y329952D01*
X68976Y329796D01*
X69172Y329640D01*
X69289Y329366D01*
X69328Y329015D01*
Y328976D01*
Y328859D01*
X69289Y328703D01*
X69211Y328507D01*
X69055Y328312D01*
X68898Y328156D01*
X68625Y328039D01*
X68274Y328000D01*
X68039D01*
X67766Y328078D01*
X67415Y328156D01*
X67024Y328273D01*
X66634Y328469D01*
X66244Y328742D01*
X65853Y329093D01*
X65814Y329054D01*
X65658Y328937D01*
X65385Y328742D01*
X65072Y328547D01*
X64643Y328351D01*
X64175Y328156D01*
X63628Y328039D01*
X63003Y328000D01*
X60817D01*
X60622Y328039D01*
X60271Y328078D01*
X59880Y328156D01*
X59412Y328312D01*
X58904Y328507D01*
X58397Y328820D01*
X57928Y329210D01*
X57889Y329249D01*
X57733Y329445D01*
X57538Y329679D01*
X57343Y330030D01*
X57108Y330460D01*
X56913Y330967D01*
X56757Y331553D01*
X56718Y332177D01*
Y338502D01*
Y338541D01*
Y338580D01*
X56757Y338814D01*
X56796Y339126D01*
X56874Y339517D01*
X57030Y339985D01*
X57225Y340493D01*
X57538Y341000D01*
X57928Y341469D01*
X57967Y341508D01*
X58162Y341664D01*
X58397Y341859D01*
X58748Y342093D01*
X59177Y342328D01*
X59685Y342523D01*
X60271Y342679D01*
X60895Y342718D01*
X66322D01*
X66517Y342679D01*
D02*
G37*
G36*
X51799Y349003D02*
X51994Y348925D01*
X52150Y348769D01*
X52345Y348613D01*
X52463Y348340D01*
X52502Y347988D01*
Y347949D01*
Y347832D01*
X52463Y347637D01*
X52385Y347481D01*
X52228Y347286D01*
X52072Y347090D01*
X51799Y346973D01*
X51448Y346934D01*
X44108D01*
Y329015D01*
Y328976D01*
Y328859D01*
X44069Y328703D01*
X43991Y328507D01*
X43835Y328312D01*
X43679Y328156D01*
X43405Y328039D01*
X43054Y328000D01*
X42898D01*
X42703Y328039D01*
X42547Y328117D01*
X42351Y328234D01*
X42156Y328429D01*
X42039Y328664D01*
X42000Y329015D01*
Y347988D01*
Y348027D01*
Y348144D01*
X42039Y348340D01*
X42117Y348535D01*
X42234Y348691D01*
X42429Y348886D01*
X42664Y349003D01*
X43015Y349043D01*
X51604D01*
X51799Y349003D01*
D02*
G37*
%LPC*%
G36*
X483461Y240947D02*
X480301D01*
Y238859D01*
Y238840D01*
Y238742D01*
X480320Y238625D01*
X480359Y238469D01*
X480418Y238313D01*
X480496Y238118D01*
X480593Y237923D01*
X480750Y237747D01*
X480769Y237728D01*
X480827Y237669D01*
X480925Y237591D01*
X481062Y237513D01*
X481237Y237435D01*
X481432Y237357D01*
X481647Y237299D01*
X481881Y237279D01*
X481998D01*
X482115Y237299D01*
X482271Y237338D01*
X482427Y237396D01*
X482622Y237474D01*
X482817Y237591D01*
X482993Y237747D01*
X483012Y237767D01*
X483071Y237826D01*
X483149Y237923D01*
X483227Y238060D01*
X483305Y238216D01*
X483383Y238411D01*
X483442Y238625D01*
X483461Y238859D01*
Y240947D01*
D02*
G37*
G36*
X479247D02*
X475053D01*
Y238859D01*
Y238840D01*
Y238820D01*
X475073Y238703D01*
X475092Y238547D01*
X475131Y238352D01*
X475209Y238118D01*
X475307Y237864D01*
X475463Y237611D01*
X475658Y237377D01*
X475678Y237357D01*
X475775Y237279D01*
X475892Y237182D01*
X476068Y237065D01*
X476282Y236948D01*
X476536Y236850D01*
X476828Y236772D01*
X477141Y236753D01*
X477297D01*
X477453Y236792D01*
X477648Y236831D01*
X477882Y236909D01*
X478135Y237006D01*
X478389Y237162D01*
X478623Y237377D01*
X478643Y237396D01*
X478721Y237494D01*
X478818Y237611D01*
X478935Y237786D01*
X479052Y238001D01*
X479150Y238255D01*
X479228Y238547D01*
X479247Y238859D01*
Y240947D01*
D02*
G37*
G36*
X477160Y232539D02*
X475053D01*
Y231486D01*
Y231466D01*
Y231408D01*
X475073Y231330D01*
X475092Y231232D01*
X475131Y231115D01*
X475170Y230998D01*
X475248Y230861D01*
X475346Y230744D01*
X475365Y230725D01*
X475405Y230686D01*
X475463Y230647D01*
X475561Y230588D01*
X475678Y230530D01*
X475795Y230471D01*
X475951Y230452D01*
X476107Y230432D01*
X476185D01*
X476263Y230452D01*
X476360Y230471D01*
X476477Y230510D01*
X476594Y230569D01*
X476731Y230647D01*
X476848Y230744D01*
X476868Y230764D01*
X476907Y230803D01*
X476946Y230861D01*
X477004Y230959D01*
X477063Y231056D01*
X477121Y231193D01*
X477141Y231330D01*
X477160Y231486D01*
Y232539D01*
D02*
G37*
G36*
X479247Y300947D02*
X475053D01*
Y298859D01*
Y298840D01*
Y298820D01*
X475073Y298703D01*
X475092Y298547D01*
X475131Y298352D01*
X475209Y298118D01*
X475307Y297864D01*
X475463Y297611D01*
X475658Y297377D01*
X475678Y297357D01*
X475775Y297279D01*
X475892Y297182D01*
X476068Y297065D01*
X476282Y296948D01*
X476536Y296850D01*
X476828Y296772D01*
X477141Y296753D01*
X477297D01*
X477453Y296792D01*
X477648Y296831D01*
X477882Y296909D01*
X478135Y297006D01*
X478389Y297162D01*
X478623Y297377D01*
X478643Y297396D01*
X478721Y297494D01*
X478818Y297611D01*
X478935Y297787D01*
X479052Y298001D01*
X479150Y298255D01*
X479228Y298547D01*
X479247Y298859D01*
Y300947D01*
D02*
G37*
G36*
X483461D02*
X480301D01*
Y298859D01*
Y298840D01*
Y298742D01*
X480320Y298625D01*
X480359Y298469D01*
X480418Y298313D01*
X480496Y298118D01*
X480593Y297923D01*
X480750Y297747D01*
X480769Y297728D01*
X480827Y297669D01*
X480925Y297591D01*
X481062Y297513D01*
X481237Y297435D01*
X481432Y297357D01*
X481647Y297299D01*
X481881Y297279D01*
X481998D01*
X482115Y297299D01*
X482271Y297338D01*
X482427Y297396D01*
X482622Y297474D01*
X482817Y297591D01*
X482993Y297747D01*
X483012Y297767D01*
X483071Y297826D01*
X483149Y297923D01*
X483227Y298060D01*
X483305Y298216D01*
X483383Y298411D01*
X483442Y298625D01*
X483461Y298859D01*
Y300947D01*
D02*
G37*
G36*
X65112Y340610D02*
X60739D01*
X60583Y340571D01*
X60388Y340532D01*
X60153Y340454D01*
X59919Y340337D01*
X59646Y340180D01*
X59412Y339985D01*
X59373Y339946D01*
X59334Y339868D01*
X59216Y339751D01*
X59138Y339556D01*
X59021Y339361D01*
X58904Y339087D01*
X58865Y338814D01*
X58826Y338502D01*
Y332177D01*
Y332138D01*
Y332021D01*
X58865Y331865D01*
X58904Y331670D01*
X58982Y331436D01*
X59060Y331201D01*
X59216Y330928D01*
X59412Y330694D01*
X59451Y330655D01*
X59529Y330616D01*
X59646Y330499D01*
X59841Y330420D01*
X60036Y330303D01*
X60310Y330186D01*
X60583Y330147D01*
X60895Y330108D01*
X63160D01*
X63316Y330147D01*
X63511Y330186D01*
X63745Y330264D01*
X63979Y330342D01*
X64253Y330499D01*
X64487Y330694D01*
X64526Y330733D01*
X64604Y330811D01*
X64682Y330928D01*
X64799Y331123D01*
X64916Y331318D01*
X65033Y331592D01*
X65072Y331865D01*
X65112Y332177D01*
Y340610D01*
D02*
G37*
%LPD*%
D20*
X42000Y318645D02*
X102000D01*
X87000Y313645D02*
X102000Y318645D01*
X87000Y323645D02*
X102000Y318645D01*
X230000Y270000D02*
Y279997D01*
X234998D01*
X236665Y278331D01*
Y274998D01*
X234998Y273332D01*
X230000D01*
X233332D02*
X236665Y270000D01*
X239997D02*
X243329D01*
X241663D01*
Y279997D01*
X239997Y278331D01*
X202000Y257997D02*
Y248000D01*
X206998D01*
X208664Y249666D01*
Y256331D01*
X206998Y257997D01*
X202000D01*
X211997Y248000D02*
X215329D01*
X213663D01*
Y257997D01*
X211997Y256331D01*
D21*
X264000Y267000D02*
Y281000D01*
X251300Y279080D02*
Y281000D01*
X276700D01*
Y279080D02*
Y281000D01*
Y267000D02*
Y268920D01*
X251300Y267000D02*
X276700D01*
X251300D02*
Y268920D01*
X277940Y252540D02*
X279210D01*
Y261000D01*
X277940D02*
X279210D01*
X277940Y247460D02*
X279210D01*
Y239000D02*
Y247460D01*
X277940Y239000D02*
X279210D01*
X244920Y246190D02*
Y253810D01*
X242380Y250000D02*
X244920D01*
X250000D02*
X252540D01*
X244920Y246190D02*
X250000Y250000D01*
X244920Y253810D02*
X250000Y250000D01*
Y239000D02*
Y261000D01*
X220790Y239000D02*
Y242000D01*
Y239000D02*
X277940D01*
Y247460D01*
Y252540D02*
Y261000D01*
X220790D02*
X277940D01*
X220790Y258000D02*
Y261000D01*
D22*
X89000Y198000D02*
X117000D01*
X89000Y302300D02*
X117000D01*
X89000Y198000D02*
Y302300D01*
X117000Y198000D02*
Y302300D01*
M02*
