G04*
G04 #@! TF.GenerationSoftware,Altium Limited,Altium Designer,18.1.7 (191)*
G04*
G04 Layer_Color=16711935*
%FSLAX42Y42*%
%MOMM*%
G71*
G01*
G75*
%ADD26C,0.25*%
D26*
X600Y1600D02*
G03*
X400Y1800I-200J-0D01*
G01*
X-400D02*
G03*
X-600Y1600I0J-200D01*
G01*
Y400D02*
G03*
X-400Y200I200J0D01*
G01*
X400Y200D02*
G03*
X600Y400I0J200D01*
G01*
X230Y0D02*
G03*
X301Y50I4J70D01*
G01*
X-301D02*
G03*
X-230Y0I67J20D01*
G01*
X400Y200D02*
G03*
X300Y100I0J-100D01*
G01*
X-300D02*
G03*
X-400Y200I-100J0D01*
G01*
X-900Y5001D02*
G03*
X-1000Y4901I0J-100D01*
G01*
Y3901D02*
G03*
X-900Y3801I100J0D01*
G01*
X-700Y3801D02*
G03*
X-600Y3901I-0J100D01*
G01*
X600Y3900D02*
G03*
X700Y3800I100J-0D01*
G01*
X900Y3800D02*
G03*
X1000Y3900I0J100D01*
G01*
Y4900D02*
G03*
X900Y5000I-100J-0D01*
G01*
X399Y4400D02*
X400Y1800D01*
X-400D02*
X-396Y3952D01*
X-600Y400D02*
Y1600D01*
X600D02*
X600Y400D01*
X300Y100D02*
X301Y50D01*
X-230Y0D02*
X230D01*
X-301Y50D02*
X-300Y100D01*
X-399Y4400D02*
X-396Y3952D01*
X-900Y5001D02*
X900Y5000D01*
X-1000Y3901D02*
Y4901D01*
X-900Y3801D02*
X-700Y3801D01*
X-600Y3901D02*
X-600Y4051D01*
X600Y4050D02*
X600Y3900D01*
X700Y3800D02*
X900Y3800D01*
X1000Y3900D02*
Y4900D01*
X399Y4400D02*
X600D01*
X600Y4050D02*
X600Y4400D01*
X-600D02*
X-399D01*
X-600Y4051D02*
X-600Y4400D01*
M02*
