G04*
G04 #@! TF.GenerationSoftware,Altium Limited,Altium Designer,18.1.7 (191)*
G04*
G04 Layer_Color=32896*
%FSLAX42Y42*%
%MOMM*%
G71*
G01*
G75*
%ADD10C,0.20*%
%ADD26C,0.25*%
%ADD27C,0.03*%
D10*
X-170Y4517D02*
X170D01*
X-170Y4683D02*
X170D01*
X-170Y4517D02*
Y4683D01*
X170Y4517D02*
Y4683D01*
D26*
X674Y4197D02*
G03*
X674Y4197I-19J0D01*
G01*
X-614Y4195D02*
G03*
X-614Y4195I-16J0D01*
G01*
D27*
X-23Y561D02*
X38D01*
X-38Y564D02*
X53D01*
X-48Y566D02*
X66D01*
X-58Y569D02*
X74D01*
X-66Y571D02*
X81D01*
X-71Y574D02*
X89D01*
X-79Y576D02*
X97D01*
X-84Y579D02*
X102D01*
X-89Y582D02*
X107D01*
X-94Y584D02*
X112D01*
X-99Y587D02*
X117D01*
X-104Y589D02*
X122D01*
X-109Y592D02*
X127D01*
X-112Y594D02*
X130D01*
X-117Y597D02*
X135D01*
X-119Y599D02*
X137D01*
X-124Y602D02*
X142D01*
X-127Y604D02*
X145D01*
X-130Y607D02*
X147D01*
X-135Y609D02*
X152D01*
X-137Y612D02*
X155D01*
X-140Y615D02*
X155D01*
X-142Y617D02*
X157D01*
X-145Y620D02*
X160D01*
X-147Y622D02*
X-10D01*
X28D02*
X160D01*
X-150Y625D02*
X-25D01*
X43D02*
X124D01*
X137D02*
X160D01*
X-152Y627D02*
X-36D01*
X53D02*
X122D01*
X140D02*
X163D01*
X-155Y630D02*
X-43D01*
X61D02*
X119D01*
X142D02*
X163D01*
X-157Y632D02*
X-51D01*
X69D02*
X119D01*
X142D02*
X163D01*
X-160Y635D02*
X-56D01*
X74D02*
X119D01*
X142D02*
X163D01*
X-163Y637D02*
X-63D01*
X79D02*
X119D01*
X142D02*
X163D01*
X-165Y640D02*
X-69D01*
X84D02*
X122D01*
X142D02*
X163D01*
X-168Y643D02*
X-71D01*
X-13D02*
X28D01*
X89D02*
X122D01*
X140D02*
X160D01*
X-168Y645D02*
X-76D01*
X-25D02*
X43D01*
X94D02*
X127D01*
X137D02*
X160D01*
X-170Y648D02*
X-81D01*
X-36D02*
X51D01*
X97D02*
X160D01*
X-173Y650D02*
X-84D01*
X-43D02*
X58D01*
X102D02*
X157D01*
X-175Y653D02*
X-89D01*
X-48D02*
X66D01*
X104D02*
X155D01*
X-175Y655D02*
X-91D01*
X-53D02*
X71D01*
X109D02*
X155D01*
X-178Y658D02*
X-94D01*
X-58D02*
X76D01*
X112D02*
X150D01*
X-180Y660D02*
X-97D01*
X-63D02*
X81D01*
X114D02*
X147D01*
X-180Y663D02*
X-102D01*
X-69D02*
X84D01*
X122D02*
X142D01*
X-183Y665D02*
X-104D01*
X-71D02*
X89D01*
X-185Y668D02*
X-107D01*
X-76D02*
X91D01*
X-185Y670D02*
X-109D01*
X-79D02*
X97D01*
X-188Y673D02*
X-112D01*
X-81D02*
X99D01*
X-188Y676D02*
X-114D01*
X-86D02*
X102D01*
X-190Y678D02*
X-114D01*
X-86D02*
X104D01*
X-193Y681D02*
X-117D01*
X-89D02*
X107D01*
X-193Y683D02*
X-119D01*
X-91D02*
X109D01*
X-196Y686D02*
X-122D01*
X-91D02*
X112D01*
X-196Y688D02*
X-124D01*
X-91D02*
X114D01*
X-198Y691D02*
X-124D01*
X-94D02*
X117D01*
X-198Y693D02*
X-127D01*
X-94D02*
X119D01*
X-198Y696D02*
X-130D01*
X-94D02*
X122D01*
X-201Y698D02*
X-130D01*
X-94D02*
X124D01*
X-201Y701D02*
X-132D01*
X-94D02*
X124D01*
X-203Y703D02*
X-135D01*
X-94D02*
X0D01*
X18D02*
X127D01*
X-203Y706D02*
X-135D01*
X-91D02*
X-13D01*
X30D02*
X130D01*
X-203Y709D02*
X-137D01*
X-91D02*
X-20D01*
X38D02*
X130D01*
X-206Y711D02*
X-137D01*
X-91D02*
X-28D01*
X43D02*
X132D01*
X-206Y714D02*
X-140D01*
X-89D02*
X-33D01*
X48D02*
X135D01*
X-206Y716D02*
X-140D01*
X-86D02*
X-36D01*
X53D02*
X135D01*
X-208Y719D02*
X-142D01*
X-86D02*
X-41D01*
X56D02*
X137D01*
X-208Y721D02*
X-142D01*
X-84D02*
X-43D01*
X58D02*
X137D01*
X-208Y724D02*
X-142D01*
X-79D02*
X-46D01*
X63D02*
X140D01*
X-211Y726D02*
X-145D01*
X-74D02*
X-53D01*
X66D02*
X140D01*
X-211Y729D02*
X-145D01*
X69D02*
X142D01*
X-211Y731D02*
X-147D01*
X71D02*
X142D01*
X-211Y734D02*
X-147D01*
X71D02*
X142D01*
X-213Y736D02*
X-147D01*
X74D02*
X145D01*
X-213Y739D02*
X-150D01*
X76D02*
X145D01*
X-213Y742D02*
X-150D01*
X79D02*
X145D01*
X-213Y744D02*
X-150D01*
X79D02*
X147D01*
X-213Y747D02*
X-150D01*
X81D02*
X147D01*
X-216Y749D02*
X-152D01*
X81D02*
X147D01*
X-216Y752D02*
X-152D01*
X84D02*
X150D01*
X-216Y754D02*
X13D01*
X84D02*
X150D01*
X-216Y757D02*
X23D01*
X86D02*
X150D01*
X-216Y759D02*
X28D01*
X86D02*
X150D01*
X-216Y762D02*
X30D01*
X86D02*
X150D01*
X-216Y764D02*
X33D01*
X89D02*
X150D01*
X-216Y767D02*
X36D01*
X89D02*
X152D01*
X-216Y770D02*
X3D01*
X13D02*
X36D01*
X89D02*
X152D01*
X-216Y772D02*
X0D01*
X18D02*
X38D01*
X89D02*
X152D01*
X-218Y775D02*
X-5D01*
X20D02*
X38D01*
X89D02*
X152D01*
X-218Y777D02*
X-5D01*
X23D02*
X38D01*
X89D02*
X152D01*
X-218Y780D02*
X-8D01*
X25D02*
X41D01*
X91D02*
X152D01*
X-218Y782D02*
X-8D01*
X25D02*
X41D01*
X91D02*
X152D01*
X-218Y785D02*
X-8D01*
X25D02*
X41D01*
X91D02*
X152D01*
X-218Y787D02*
X-8D01*
X25D02*
X41D01*
X91D02*
X152D01*
X-218Y790D02*
X-8D01*
X25D02*
X41D01*
X91D02*
X152D01*
X-218Y792D02*
X-5D01*
X23D02*
X41D01*
X91D02*
X152D01*
X-218Y795D02*
X-5D01*
X23D02*
X38D01*
X89D02*
X152D01*
X-218Y797D02*
X-3D01*
X20D02*
X38D01*
X89D02*
X152D01*
X-216Y800D02*
X0D01*
X15D02*
X36D01*
X89D02*
X152D01*
X-216Y803D02*
X36D01*
X89D02*
X152D01*
X-216Y805D02*
X33D01*
X89D02*
X152D01*
X-216Y808D02*
X30D01*
X86D02*
X150D01*
X-216Y810D02*
X28D01*
X86D02*
X150D01*
X-216Y813D02*
X23D01*
X86D02*
X150D01*
X-216Y815D02*
X15D01*
X84D02*
X150D01*
X-216Y818D02*
X-152D01*
X84D02*
X150D01*
X-216Y820D02*
X-152D01*
X84D02*
X147D01*
X-213Y823D02*
X-152D01*
X81D02*
X147D01*
X-213Y825D02*
X-150D01*
X79D02*
X147D01*
X-213Y828D02*
X-150D01*
X79D02*
X147D01*
X-213Y830D02*
X-150D01*
X76D02*
X145D01*
X-213Y833D02*
X-147D01*
X76D02*
X145D01*
X-211Y836D02*
X-147D01*
X74D02*
X145D01*
X-211Y838D02*
X-147D01*
X71D02*
X142D01*
X-211Y841D02*
X-145D01*
X69D02*
X142D01*
X-211Y843D02*
X-145D01*
X-71D02*
X-56D01*
X66D02*
X140D01*
X-208Y846D02*
X-145D01*
X-76D02*
X-48D01*
X63D02*
X140D01*
X-208Y848D02*
X-142D01*
X-81D02*
X-46D01*
X61D02*
X137D01*
X-208Y851D02*
X-142D01*
X-84D02*
X-41D01*
X58D02*
X137D01*
X-208Y853D02*
X-140D01*
X-86D02*
X-38D01*
X53D02*
X135D01*
X-206Y856D02*
X-140D01*
X-89D02*
X-33D01*
X51D02*
X135D01*
X-206Y858D02*
X-137D01*
X-91D02*
X-28D01*
X46D02*
X132D01*
X-206Y861D02*
X-137D01*
X-91D02*
X-23D01*
X41D02*
X132D01*
X-203Y864D02*
X-135D01*
X-91D02*
X-18D01*
X33D02*
X130D01*
X-203Y866D02*
X-135D01*
X-94D02*
X-8D01*
X23D02*
X127D01*
X-201Y869D02*
X-132D01*
X-94D02*
X127D01*
X-201Y871D02*
X-132D01*
X-94D02*
X124D01*
X-201Y874D02*
X-130D01*
X-94D02*
X122D01*
X-198Y876D02*
X-127D01*
X-94D02*
X119D01*
X-198Y879D02*
X-127D01*
X-94D02*
X119D01*
X-196Y881D02*
X-124D01*
X-94D02*
X117D01*
X-196Y884D02*
X-122D01*
X-91D02*
X114D01*
X-193Y886D02*
X-119D01*
X-91D02*
X112D01*
X-193Y889D02*
X-119D01*
X-89D02*
X109D01*
X-190Y891D02*
X-117D01*
X-89D02*
X107D01*
X-190Y894D02*
X-114D01*
X-86D02*
X104D01*
X-188Y897D02*
X-112D01*
X-84D02*
X99D01*
X-188Y899D02*
X-109D01*
X-81D02*
X97D01*
X-185Y902D02*
X-107D01*
X-76D02*
X94D01*
X-183Y904D02*
X-104D01*
X-74D02*
X91D01*
X-183Y907D02*
X-102D01*
X-71D02*
X86D01*
X124D02*
X137D01*
X-180Y909D02*
X-99D01*
X-66D02*
X81D01*
X117D02*
X145D01*
X-178Y912D02*
X-97D01*
X-61D02*
X79D01*
X114D02*
X150D01*
X-178Y914D02*
X-91D01*
X-56D02*
X74D01*
X109D02*
X152D01*
X-175Y917D02*
X-89D01*
X-51D02*
X69D01*
X107D02*
X155D01*
X-173Y919D02*
X-86D01*
X-46D02*
X61D01*
X104D02*
X157D01*
X-173Y922D02*
X-81D01*
X-38D02*
X56D01*
X99D02*
X157D01*
X-170Y924D02*
X-79D01*
X-30D02*
X46D01*
X97D02*
X160D01*
X-168Y927D02*
X-74D01*
X-18D02*
X36D01*
X91D02*
X124D01*
X137D02*
X160D01*
X-165Y930D02*
X-69D01*
X86D02*
X122D01*
X140D02*
X163D01*
X-163Y932D02*
X-63D01*
X81D02*
X119D01*
X142D02*
X163D01*
X-160Y935D02*
X-58D01*
X76D02*
X119D01*
X142D02*
X163D01*
X-160Y937D02*
X-53D01*
X71D02*
X119D01*
X142D02*
X163D01*
X-157Y940D02*
X-48D01*
X63D02*
X119D01*
X142D02*
X163D01*
X-155Y942D02*
X-41D01*
X56D02*
X122D01*
X142D02*
X163D01*
X-152Y945D02*
X-30D01*
X48D02*
X122D01*
X140D02*
X163D01*
X-150Y947D02*
X-18D01*
X36D02*
X127D01*
X137D02*
X160D01*
X-147Y950D02*
X160D01*
X-145Y952D02*
X157D01*
X-142Y955D02*
X157D01*
X-137Y957D02*
X155D01*
X-135Y960D02*
X152D01*
X-132Y963D02*
X150D01*
X-130Y965D02*
X145D01*
X-124Y968D02*
X142D01*
X-122Y970D02*
X140D01*
X-119Y973D02*
X135D01*
X-114Y975D02*
X132D01*
X-109Y978D02*
X127D01*
X-107Y980D02*
X124D01*
X-102Y983D02*
X119D01*
X-97Y985D02*
X114D01*
X-91Y988D02*
X109D01*
X-86Y990D02*
X104D01*
X-81Y993D02*
X99D01*
X-74Y996D02*
X91D01*
X-69Y998D02*
X86D01*
X-61Y1001D02*
X79D01*
X-53Y1003D02*
X69D01*
X-43Y1006D02*
X58D01*
X-28Y1008D02*
X46D01*
X-8Y1011D02*
X25D01*
X-8D02*
X25D01*
X-28Y1008D02*
X46D01*
X-43Y1006D02*
X58D01*
X-53Y1003D02*
X69D01*
X-61Y1001D02*
X79D01*
X-69Y998D02*
X86D01*
X-74Y996D02*
X91D01*
X-81Y993D02*
X99D01*
X-86Y990D02*
X104D01*
X-91Y988D02*
X109D01*
X-97Y985D02*
X114D01*
X-102Y983D02*
X119D01*
X-107Y980D02*
X124D01*
X-109Y978D02*
X127D01*
X-114Y975D02*
X132D01*
X-119Y973D02*
X135D01*
X-122Y970D02*
X140D01*
X-124Y968D02*
X142D01*
X-130Y965D02*
X145D01*
X-132Y963D02*
X150D01*
X-135Y960D02*
X152D01*
X-137Y957D02*
X155D01*
X-142Y955D02*
X157D01*
X-145Y952D02*
X157D01*
X-147Y950D02*
X160D01*
X137Y947D02*
X160D01*
X36D02*
X127D01*
X-150D02*
X-18D01*
X140Y945D02*
X163D01*
X48D02*
X122D01*
X-152D02*
X-30D01*
X142Y942D02*
X163D01*
X56D02*
X122D01*
X-155D02*
X-41D01*
X142Y940D02*
X163D01*
X63D02*
X119D01*
X-157D02*
X-48D01*
X142Y937D02*
X163D01*
X71D02*
X119D01*
X-160D02*
X-53D01*
X142Y935D02*
X163D01*
X76D02*
X119D01*
X-160D02*
X-58D01*
X142Y932D02*
X163D01*
X81D02*
X119D01*
X-163D02*
X-63D01*
X140Y930D02*
X163D01*
X86D02*
X122D01*
X-165D02*
X-69D01*
X137Y927D02*
X160D01*
X91D02*
X124D01*
X-18D02*
X36D01*
X-168D02*
X-74D01*
X97Y924D02*
X160D01*
X-30D02*
X46D01*
X-170D02*
X-79D01*
X99Y922D02*
X157D01*
X-38D02*
X56D01*
X-173D02*
X-81D01*
X104Y919D02*
X157D01*
X-46D02*
X61D01*
X-173D02*
X-86D01*
X107Y917D02*
X155D01*
X-51D02*
X69D01*
X-175D02*
X-89D01*
X109Y914D02*
X152D01*
X-56D02*
X74D01*
X-178D02*
X-91D01*
X114Y912D02*
X150D01*
X-61D02*
X79D01*
X-178D02*
X-97D01*
X117Y909D02*
X145D01*
X-66D02*
X81D01*
X-180D02*
X-99D01*
X124Y907D02*
X137D01*
X-71D02*
X86D01*
X-183D02*
X-102D01*
X-74Y1004D02*
X91D01*
X-183Y904D02*
X-104D01*
X-76Y902D02*
X94D01*
X-185D02*
X-107D01*
X-81Y899D02*
X97D01*
X-188D02*
X-109D01*
X-84Y897D02*
X99D01*
X-188D02*
X-112D01*
X-86Y894D02*
X104D01*
X-190D02*
X-114D01*
X-89Y891D02*
X107D01*
X-190D02*
X-117D01*
X-89Y889D02*
X109D01*
X-193D02*
X-119D01*
X-91Y886D02*
X112D01*
X-193D02*
X-119D01*
X-91Y884D02*
X114D01*
X-196D02*
X-122D01*
X-94Y881D02*
X117D01*
X-196D02*
X-124D01*
X-94Y879D02*
X119D01*
X-198D02*
X-127D01*
X-94Y876D02*
X119D01*
X-198D02*
X-127D01*
X-94Y874D02*
X122D01*
X-201D02*
X-130D01*
X-94Y871D02*
X124D01*
X-201D02*
X-132D01*
X-94Y869D02*
X127D01*
X-201D02*
X-132D01*
X23Y866D02*
X127D01*
X-94D02*
X-8D01*
X-203D02*
X-135D01*
X33Y864D02*
X130D01*
X-91D02*
X-18D01*
X-203D02*
X-135D01*
X41Y861D02*
X132D01*
X-91D02*
X-23D01*
X-206D02*
X-137D01*
X46Y858D02*
X132D01*
X-91D02*
X-28D01*
X-206D02*
X-137D01*
X51Y856D02*
X135D01*
X-89D02*
X-33D01*
X-206D02*
X-140D01*
X53Y853D02*
X135D01*
X-86D02*
X-38D01*
X-208D02*
X-140D01*
X58Y851D02*
X137D01*
X-84D02*
X-41D01*
X-208D02*
X-142D01*
X61Y848D02*
X137D01*
X-81D02*
X-46D01*
X-208D02*
X-142D01*
X63Y846D02*
X140D01*
X-76D02*
X-48D01*
X-208D02*
X-145D01*
X66Y843D02*
X140D01*
X-71D02*
X-56D01*
X-211D02*
X-145D01*
X69Y841D02*
X142D01*
X-211D02*
X-145D01*
X71Y838D02*
X142D01*
X-211D02*
X-147D01*
X74Y836D02*
X145D01*
X-211D02*
X-147D01*
X76Y833D02*
X145D01*
X-213D02*
X-147D01*
X76Y830D02*
X145D01*
X-213D02*
X-150D01*
X79Y828D02*
X147D01*
X-213D02*
X-150D01*
X79Y825D02*
X147D01*
X-213D02*
X-150D01*
X81Y823D02*
X147D01*
X-213D02*
X-152D01*
X84Y820D02*
X147D01*
X-216D02*
X-152D01*
X84Y818D02*
X150D01*
X-216D02*
X-152D01*
X84Y815D02*
X150D01*
X-216D02*
X15D01*
X86Y813D02*
X150D01*
X-216D02*
X23D01*
X86Y810D02*
X150D01*
X-216D02*
X28D01*
X86Y808D02*
X150D01*
X-216D02*
X30D01*
X89Y805D02*
X152D01*
X-216D02*
X33D01*
X89Y803D02*
X152D01*
X-216D02*
X36D01*
X89Y800D02*
X152D01*
X15D02*
X36D01*
X-216D02*
X0D01*
X89Y797D02*
X152D01*
X20D02*
X38D01*
X-218D02*
X-3D01*
X89Y795D02*
X152D01*
X23D02*
X38D01*
X-218D02*
X-5D01*
X91Y792D02*
X152D01*
X23D02*
X41D01*
X-218D02*
X-5D01*
X91Y790D02*
X152D01*
X25D02*
X41D01*
X-218D02*
X-8D01*
X91Y787D02*
X152D01*
X25D02*
X41D01*
X-218D02*
X-8D01*
X91Y785D02*
X152D01*
X25D02*
X41D01*
X-218D02*
X-8D01*
X91Y782D02*
X152D01*
X25D02*
X41D01*
X-218D02*
X-8D01*
X91Y780D02*
X152D01*
X25D02*
X41D01*
X-218D02*
X-8D01*
X89Y777D02*
X152D01*
X23D02*
X38D01*
X-218D02*
X-5D01*
X89Y775D02*
X152D01*
X20D02*
X38D01*
X-218D02*
X-5D01*
X89Y772D02*
X152D01*
X18D02*
X38D01*
X-216D02*
X0D01*
X89Y770D02*
X152D01*
X13D02*
X36D01*
X-216D02*
X3D01*
X89Y767D02*
X152D01*
X-216D02*
X36D01*
X89Y764D02*
X150D01*
X-216D02*
X33D01*
X86Y762D02*
X150D01*
X-216D02*
X30D01*
X86Y759D02*
X150D01*
X-216D02*
X28D01*
X86Y757D02*
X150D01*
X-216D02*
X23D01*
X84Y754D02*
X150D01*
X-216D02*
X13D01*
X84Y752D02*
X150D01*
X-216D02*
X-152D01*
X81Y749D02*
X147D01*
X-216D02*
X-152D01*
X81Y747D02*
X147D01*
X-213D02*
X-150D01*
X79Y744D02*
X147D01*
X-213D02*
X-150D01*
X79Y742D02*
X145D01*
X-213D02*
X-150D01*
X76Y739D02*
X145D01*
X-213D02*
X-150D01*
X74Y736D02*
X145D01*
X-213D02*
X-147D01*
X71Y734D02*
X142D01*
X-211D02*
X-147D01*
X71Y731D02*
X142D01*
X-211D02*
X-147D01*
X69Y729D02*
X142D01*
X-211D02*
X-145D01*
X66Y726D02*
X140D01*
X-74D02*
X-53D01*
X-211D02*
X-145D01*
X63Y724D02*
X140D01*
X-79D02*
X-46D01*
X-208D02*
X-142D01*
X58Y721D02*
X137D01*
X-84D02*
X-43D01*
X-208D02*
X-142D01*
X56Y719D02*
X137D01*
X-86D02*
X-41D01*
X-208D02*
X-142D01*
X53Y716D02*
X135D01*
X-86D02*
X-36D01*
X-206D02*
X-140D01*
X48Y714D02*
X135D01*
X-89D02*
X-33D01*
X-206D02*
X-140D01*
X43Y711D02*
X132D01*
X-91D02*
X-28D01*
X-206D02*
X-137D01*
X38Y709D02*
X130D01*
X-91D02*
X-20D01*
X-203D02*
X-137D01*
X30Y706D02*
X130D01*
X-91D02*
X-13D01*
X-203D02*
X-135D01*
X18Y703D02*
X127D01*
X-94D02*
X0D01*
X-203D02*
X-135D01*
X-94Y701D02*
X124D01*
X-201D02*
X-132D01*
X-94Y698D02*
X124D01*
X-201D02*
X-130D01*
X-94Y696D02*
X122D01*
X-198D02*
X-130D01*
X-94Y693D02*
X119D01*
X-198D02*
X-127D01*
X-94Y691D02*
X117D01*
X-198D02*
X-124D01*
X-91Y688D02*
X114D01*
X-196D02*
X-124D01*
X-91Y686D02*
X112D01*
X-196D02*
X-122D01*
X-91Y683D02*
X109D01*
X-193D02*
X-119D01*
X-89Y681D02*
X107D01*
X-193D02*
X-117D01*
X-86Y678D02*
X104D01*
X-190D02*
X-114D01*
X-86Y676D02*
X102D01*
X-188D02*
X-114D01*
X-81Y673D02*
X99D01*
X-188D02*
X-112D01*
X-79Y670D02*
X97D01*
X-185D02*
X-109D01*
X-76Y668D02*
X91D01*
X-185D02*
X-107D01*
X-71Y665D02*
X89D01*
X-183D02*
X-104D01*
X122Y663D02*
X142D01*
X-69D02*
X84D01*
X-180D02*
X-102D01*
X114Y660D02*
X147D01*
X-63D02*
X81D01*
X-180D02*
X-97D01*
X112Y658D02*
X150D01*
X-58D02*
X76D01*
X-178D02*
X-94D01*
X109Y655D02*
X155D01*
X-53D02*
X71D01*
X-175D02*
X-91D01*
X104Y653D02*
X155D01*
X-48D02*
X66D01*
X-175D02*
X-89D01*
X102Y650D02*
X157D01*
X-43D02*
X58D01*
X-173D02*
X-84D01*
X97Y648D02*
X160D01*
X-36D02*
X51D01*
X-170D02*
X-81D01*
X137Y645D02*
X160D01*
X94D02*
X127D01*
X-25D02*
X43D01*
X-168D02*
X-76D01*
X140Y643D02*
X160D01*
X89D02*
X122D01*
X-13D02*
X28D01*
X-168D02*
X-71D01*
X142Y640D02*
X163D01*
X84D02*
X122D01*
X-165D02*
X-69D01*
X142Y637D02*
X163D01*
X79D02*
X119D01*
X-163D02*
X-63D01*
X142Y635D02*
X163D01*
X74D02*
X119D01*
X-160D02*
X-56D01*
X142Y632D02*
X163D01*
X69D02*
X119D01*
X-157D02*
X-51D01*
X142Y630D02*
X163D01*
X61D02*
X119D01*
X-155D02*
X-43D01*
X140Y627D02*
X163D01*
X53D02*
X122D01*
X-152D02*
X-36D01*
X137Y625D02*
X160D01*
X43D02*
X124D01*
X-150D02*
X-25D01*
X28Y622D02*
X160D01*
X-147D02*
X-10D01*
X-145Y620D02*
X160D01*
X-142Y617D02*
X157D01*
X-140Y615D02*
X155D01*
X-137Y612D02*
X155D01*
X-135Y609D02*
X152D01*
X-130Y607D02*
X147D01*
X-127Y604D02*
X145D01*
X-124Y602D02*
X142D01*
X-119Y599D02*
X137D01*
X-117Y597D02*
X135D01*
X-112Y594D02*
X130D01*
X-109Y592D02*
X127D01*
X-104Y589D02*
X122D01*
X-99Y587D02*
X117D01*
X-94Y584D02*
X112D01*
X-89Y582D02*
X107D01*
X-84Y579D02*
X102D01*
X-79Y576D02*
X97D01*
X-71Y574D02*
X89D01*
X-66Y571D02*
X81D01*
X-58Y569D02*
X74D01*
X-48Y566D02*
X66D01*
X-38Y564D02*
X53D01*
X-23Y561D02*
X38D01*
M02*
