G04*
G04 #@! TF.GenerationSoftware,Altium Limited,Altium Designer,18.1.7 (191)*
G04*
G04 Layer_Color=65535*
%FSLAX42Y42*%
%MOMM*%
G71*
G01*
G75*
%ADD10C,0.20*%
D10*
X362Y4808D02*
X488D01*
X362Y4542D02*
X488D01*
Y4808D01*
X362Y4542D02*
Y4808D01*
X-673Y4527D02*
Y4781D01*
X-927Y4527D02*
X-673D01*
X-927Y4781D02*
X-673D01*
X-736Y4527D02*
X-673Y4463D01*
Y4337D02*
Y4463D01*
X-736Y4273D02*
X-673Y4337D01*
X-864Y4273D02*
X-736D01*
X-927Y4337D02*
X-864Y4273D01*
X-927Y4337D02*
Y4463D01*
X-864Y4527D01*
X-927D02*
Y4781D01*
Y4210D02*
X-864Y4273D01*
X-927Y4083D02*
Y4210D01*
Y4083D02*
X-864Y4019D01*
X-736D01*
X-673Y4083D01*
Y4210D01*
X-736Y4273D02*
X-673Y4210D01*
X927Y4527D02*
Y4781D01*
X673Y4527D02*
X927D01*
X673Y4781D02*
X927D01*
X864Y4527D02*
X927Y4463D01*
Y4337D02*
Y4463D01*
X864Y4273D02*
X927Y4337D01*
X736Y4273D02*
X864D01*
X673Y4337D02*
X736Y4273D01*
X673Y4337D02*
Y4463D01*
X736Y4527D01*
X673D02*
Y4781D01*
Y4210D02*
X736Y4273D01*
X673Y4083D02*
Y4210D01*
Y4083D02*
X736Y4019D01*
X864D01*
X927Y4083D01*
Y4210D01*
X864Y4273D02*
X927Y4210D01*
X-170Y4683D02*
X170D01*
X-170Y4517D02*
X170D01*
X-170D02*
Y4683D01*
X170Y4517D02*
Y4683D01*
M02*
