G04 Layer_Color=32896*
%FSLAX44Y44*%
%MOMM*%
G71*
G01*
G75*
%ADD23C,0.2000*%
%ADD34C,0.0254*%
D23*
X24500Y299750D02*
X51000D01*
X24500Y287250D02*
X51000D01*
Y299750D01*
X24500Y287250D02*
Y299750D01*
X23750Y257500D02*
Y284000D01*
X36250Y257500D02*
Y284000D01*
X23750D02*
X36250D01*
X23750Y257500D02*
X36250D01*
X49000Y303000D02*
Y329500D01*
X36500Y303000D02*
Y329500D01*
Y303000D02*
X49000D01*
X36500Y329500D02*
X49000D01*
D34*
X102500Y585106D02*
X105802D01*
X100468Y584852D02*
X107834D01*
X98944Y584598D02*
X109104D01*
X97928Y584344D02*
X110120D01*
X97166Y584090D02*
X111136D01*
X96404Y583836D02*
X111898D01*
X95896Y583582D02*
X112406D01*
X95134Y583328D02*
X113168D01*
X94626Y583074D02*
X113676D01*
X94118Y582820D02*
X114184D01*
X93610Y582566D02*
X114692D01*
X93102Y582312D02*
X115200D01*
X92594Y582058D02*
X115708D01*
X92340Y581804D02*
X115962D01*
X91832Y581550D02*
X116470D01*
X91324Y581296D02*
X116724D01*
X91070Y581042D02*
X117232D01*
X90816Y580788D02*
X117486D01*
X90308Y580534D02*
X117740D01*
X90054Y580280D02*
X118248D01*
X89800Y580026D02*
X118502D01*
X89546Y579772D02*
X118756D01*
X89038Y579518D02*
X119010D01*
X88784Y579264D02*
X119010D01*
X88530Y579010D02*
X119264D01*
X116978Y578756D02*
X119264D01*
X106818D02*
X115962D01*
X88276D02*
X101484D01*
X117232Y578502D02*
X119518D01*
X108088D02*
X115454D01*
X88022D02*
X100214D01*
X117486Y578248D02*
X119518D01*
X108850D02*
X115454D01*
X87768D02*
X99198D01*
X117486Y577994D02*
X119518D01*
X109612D02*
X115200D01*
X87514D02*
X98436D01*
X117486Y577740D02*
X119518D01*
X110374D02*
X115200D01*
X87260D02*
X97928D01*
X117486Y577486D02*
X119518D01*
X110882D02*
X115200D01*
X87260D02*
X97420D01*
X117486Y577232D02*
X119518D01*
X111390D02*
X115200D01*
X87006D02*
X96912D01*
X117232Y576978D02*
X119518D01*
X111898D02*
X115454D01*
X86752D02*
X96404D01*
X116978Y576724D02*
X119264D01*
X112406D02*
X115708D01*
X101484D02*
X106818D01*
X86498D02*
X95896D01*
X112914Y576470D02*
X119264D01*
X100214D02*
X107834D01*
X86244D02*
X95388D01*
X113168Y576216D02*
X119010D01*
X99452D02*
X108850D01*
X85990D02*
X95134D01*
X113676Y575962D02*
X119010D01*
X98690D02*
X109358D01*
X85990D02*
X94626D01*
X113930Y575708D02*
X118756D01*
X98182D02*
X110120D01*
X85736D02*
X94372D01*
X114184Y575454D02*
X118502D01*
X97674D02*
X110628D01*
X85482D02*
X94118D01*
X114692Y575200D02*
X118248D01*
X97166D02*
X111136D01*
X85482D02*
X93610D01*
X114946Y574946D02*
X117740D01*
X96658D02*
X111390D01*
X85228D02*
X93356D01*
X115708Y574692D02*
X116978D01*
X96150D02*
X111898D01*
X84974D02*
X93102D01*
X95896Y574438D02*
X112406D01*
X84974D02*
X92848D01*
X95642Y574184D02*
X112660D01*
X84720D02*
X92594D01*
X95134Y573930D02*
X112914D01*
X84466D02*
X92340D01*
X94880Y573676D02*
X113168D01*
X84466D02*
X92086D01*
X94626Y573422D02*
X113676D01*
X84212D02*
X91832D01*
X94372Y573168D02*
X113930D01*
X84212D02*
X91578D01*
X94372Y572914D02*
X114184D01*
X83958D02*
X91324D01*
X94118Y572660D02*
X114438D01*
X83958D02*
X91324D01*
X94118Y572406D02*
X114692D01*
X83704D02*
X91070D01*
X93864Y572152D02*
X114946D01*
X83704D02*
X90816D01*
X93864Y571898D02*
X115200D01*
X83450D02*
X90562D01*
X93864Y571644D02*
X115200D01*
X83450D02*
X90562D01*
X93864Y571390D02*
X115454D01*
X83196D02*
X90308D01*
X93864Y571136D02*
X115708D01*
X83196D02*
X90054D01*
X93864Y570882D02*
X115962D01*
X83196D02*
X90054D01*
X105548Y570628D02*
X115962D01*
X93864D02*
X102500D01*
X82942D02*
X89800D01*
X106564Y570374D02*
X116216D01*
X94118D02*
X101484D01*
X82942D02*
X89800D01*
X107326Y570120D02*
X116470D01*
X94118D02*
X100976D01*
X82688D02*
X89546D01*
X107834Y569866D02*
X116470D01*
X94118D02*
X100468D01*
X82688D02*
X89546D01*
X108342Y569612D02*
X116724D01*
X94372D02*
X99960D01*
X82688D02*
X89292D01*
X108596Y569358D02*
X116724D01*
X94626D02*
X99452D01*
X82434D02*
X89292D01*
X109104Y569104D02*
X116978D01*
X94880D02*
X99198D01*
X82434D02*
X89038D01*
X109358Y568850D02*
X116978D01*
X95134D02*
X98690D01*
X82434D02*
X89038D01*
X109612Y568596D02*
X117232D01*
X95642D02*
X98436D01*
X82434D02*
X88784D01*
X109866Y568342D02*
X117232D01*
X96150D02*
X97674D01*
X82180D02*
X88784D01*
X110120Y568088D02*
X117486D01*
X82180D02*
X88784D01*
X110374Y567834D02*
X117486D01*
X82180D02*
X88530D01*
X110628Y567580D02*
X117740D01*
X82180D02*
X88530D01*
X110882Y567326D02*
X117740D01*
X81926D02*
X88530D01*
X110882Y567072D02*
X117740D01*
X81926D02*
X88276D01*
X111136Y566818D02*
X117994D01*
X81926D02*
X88276D01*
X111136Y566564D02*
X117994D01*
X81926D02*
X88276D01*
X111390Y566310D02*
X117994D01*
X81926D02*
X88022D01*
X111644Y566056D02*
X117994D01*
X81672D02*
X88022D01*
X111644Y565802D02*
X118248D01*
X81672D02*
X88022D01*
X111644Y565548D02*
X118248D01*
X81672D02*
X104786D01*
X111898Y565294D02*
X118248D01*
X81672D02*
X105548D01*
X111898Y565040D02*
X118248D01*
X81672D02*
X106056D01*
X111898Y564786D02*
X118248D01*
X81672D02*
X106310D01*
X112152Y564532D02*
X118502D01*
X81672D02*
X106564D01*
X112152Y564278D02*
X118502D01*
X81672D02*
X106818D01*
X112152Y564024D02*
X118502D01*
X104786D02*
X106818D01*
X81672D02*
X103262D01*
X112152Y563770D02*
X118502D01*
X105294D02*
X107072D01*
X81418D02*
X103008D01*
X112152Y563516D02*
X118502D01*
X105548D02*
X107072D01*
X81418D02*
X102754D01*
X112406Y563262D02*
X118502D01*
X105548D02*
X107326D01*
X81418D02*
X102754D01*
X112406Y563008D02*
X118502D01*
X105802D02*
X107326D01*
X81418D02*
X102500D01*
X112406Y562754D02*
X118502D01*
X105802D02*
X107326D01*
X81418D02*
X102500D01*
X112406Y562500D02*
X118502D01*
X105802D02*
X107326D01*
X81418D02*
X102500D01*
X112406Y562246D02*
X118502D01*
X105802D02*
X107326D01*
X81418D02*
X102500D01*
X112406Y561992D02*
X118502D01*
X105802D02*
X107326D01*
X81418D02*
X102500D01*
X112152Y561738D02*
X118502D01*
X105548D02*
X107072D01*
X81418D02*
X102754D01*
X112152Y561484D02*
X118502D01*
X105294D02*
X107072D01*
X81418D02*
X102754D01*
X112152Y561230D02*
X118502D01*
X105040D02*
X107072D01*
X81672D02*
X103262D01*
X112152Y560976D02*
X118502D01*
X104532D02*
X106818D01*
X81672D02*
X103516D01*
X112152Y560722D02*
X118502D01*
X81672D02*
X106818D01*
X112152Y560468D02*
X118248D01*
X81672D02*
X106564D01*
X111898Y560214D02*
X118248D01*
X81672D02*
X106310D01*
X111898Y559960D02*
X118248D01*
X81672D02*
X106056D01*
X111898Y559706D02*
X118248D01*
X81672D02*
X105548D01*
X111644Y559452D02*
X118248D01*
X81672D02*
X104532D01*
X111644Y559198D02*
X118248D01*
X81672D02*
X88022D01*
X111390Y558944D02*
X117994D01*
X81672D02*
X88022D01*
X111390Y558690D02*
X117994D01*
X81926D02*
X88276D01*
X111136Y558436D02*
X117994D01*
X81926D02*
X88276D01*
X111136Y558182D02*
X117740D01*
X81926D02*
X88276D01*
X110882Y557928D02*
X117740D01*
X81926D02*
X88276D01*
X110628Y557674D02*
X117740D01*
X81926D02*
X88530D01*
X110374Y557420D02*
X117486D01*
X82180D02*
X88530D01*
X110374Y557166D02*
X117486D01*
X82180D02*
X88530D01*
X110120Y556912D02*
X117486D01*
X82180D02*
X88784D01*
X109866Y556658D02*
X117232D01*
X95896D02*
X97928D01*
X82180D02*
X88784D01*
X109612Y556404D02*
X117232D01*
X95388D02*
X98690D01*
X82434D02*
X89038D01*
X109104Y556150D02*
X116978D01*
X94880D02*
X98944D01*
X82434D02*
X89038D01*
X108850Y555896D02*
X116978D01*
X94626D02*
X99198D01*
X82434D02*
X89038D01*
X108596Y555642D02*
X116724D01*
X94626D02*
X99706D01*
X82688D02*
X89292D01*
X108088Y555388D02*
X116724D01*
X94372D02*
X99960D01*
X82688D02*
X89292D01*
X107580Y555134D02*
X116470D01*
X94118D02*
X100468D01*
X82688D02*
X89546D01*
X107072Y554880D02*
X116216D01*
X94118D02*
X101230D01*
X82942D02*
X89546D01*
X106310Y554626D02*
X116216D01*
X94118D02*
X101992D01*
X82942D02*
X89800D01*
X105040Y554372D02*
X115962D01*
X93864D02*
X103262D01*
X82942D02*
X89800D01*
X93864Y554118D02*
X115708D01*
X83196D02*
X90054D01*
X93864Y553864D02*
X115708D01*
X83196D02*
X90308D01*
X93864Y553610D02*
X115454D01*
X83450D02*
X90308D01*
X93864Y553356D02*
X115200D01*
X83450D02*
X90562D01*
X93864Y553102D02*
X114946D01*
X83450D02*
X90816D01*
X94118Y552848D02*
X114692D01*
X83704D02*
X90816D01*
X94118Y552594D02*
X114438D01*
X83704D02*
X91070D01*
X94118Y552340D02*
X114184D01*
X83958D02*
X91324D01*
X94372Y552086D02*
X113930D01*
X83958D02*
X91578D01*
X94626Y551832D02*
X113676D01*
X84212D02*
X91832D01*
X94626Y551578D02*
X113422D01*
X84466D02*
X91832D01*
X95134Y551324D02*
X113168D01*
X84466D02*
X92086D01*
X95388Y551070D02*
X112914D01*
X84720D02*
X92340D01*
X95642Y550816D02*
X112406D01*
X84720D02*
X92594D01*
X96150Y550562D02*
X112152D01*
X84974D02*
X92848D01*
X115454Y550308D02*
X117486D01*
X96404D02*
X111644D01*
X85228D02*
X93102D01*
X114692Y550054D02*
X117994D01*
X96912D02*
X111390D01*
X85228D02*
X93610D01*
X114438Y549800D02*
X118248D01*
X97420D02*
X110882D01*
X85482D02*
X93864D01*
X114184Y549546D02*
X118756D01*
X97928D02*
X110374D01*
X85736D02*
X94118D01*
X113676Y549292D02*
X118756D01*
X98436D02*
X109866D01*
X85736D02*
X94372D01*
X113422Y549038D02*
X119010D01*
X98944D02*
X109104D01*
X85990D02*
X94880D01*
X112914Y548784D02*
X119264D01*
X99706D02*
X108342D01*
X86244D02*
X95134D01*
X116978Y548530D02*
X119264D01*
X112660D02*
X115962D01*
X100722D02*
X107580D01*
X86498D02*
X95642D01*
X117232Y548276D02*
X119264D01*
X112152D02*
X115454D01*
X101992D02*
X106056D01*
X86498D02*
X96150D01*
X117486Y548022D02*
X119518D01*
X111644D02*
X115454D01*
X86752D02*
X96404D01*
X117486Y547768D02*
X119518D01*
X111136D02*
X115200D01*
X87006D02*
X96912D01*
X117486Y547514D02*
X119518D01*
X110628D02*
X115200D01*
X87260D02*
X97674D01*
X117486Y547260D02*
X119518D01*
X110120D02*
X115200D01*
X87514D02*
X98182D01*
X117486Y547006D02*
X119518D01*
X109358D02*
X115200D01*
X87768D02*
X98944D01*
X117232Y546752D02*
X119518D01*
X108596D02*
X115454D01*
X88022D02*
X99706D01*
X116978Y546498D02*
X119264D01*
X107580D02*
X115708D01*
X88276D02*
X100722D01*
X106056Y546244D02*
X119264D01*
X88530D02*
X102246D01*
X88784Y545990D02*
X119264D01*
X89038Y545736D02*
X119010D01*
X89292Y545482D02*
X118756D01*
X89546Y545228D02*
X118756D01*
X89800Y544974D02*
X118502D01*
X90308Y544720D02*
X117994D01*
X90562Y544466D02*
X117740D01*
X90816Y544212D02*
X117486D01*
X91324Y543958D02*
X116978D01*
X91578Y543704D02*
X116724D01*
X92086Y543450D02*
X116216D01*
X92340Y543196D02*
X115962D01*
X92848Y542942D02*
X115454D01*
X93356Y542688D02*
X114946D01*
X93864Y542434D02*
X114438D01*
X94372Y542180D02*
X113930D01*
X94880Y541926D02*
X113422D01*
X95388Y541672D02*
X112914D01*
X96150Y541418D02*
X112152D01*
X96658Y541164D02*
X111390D01*
X97420Y540910D02*
X110628D01*
X98436Y540656D02*
X109866D01*
X99452Y540402D02*
X108596D01*
X100976Y540148D02*
X107072D01*
M02*
