G04 Layer_Color=65535*
%FSLAX44Y44*%
%MOMM*%
G71*
G01*
G75*
%ADD21C,0.2000*%
%ADD22C,0.2540*%
G36*
X497003Y274073D02*
X497101Y274034D01*
X497179Y273956D01*
X497276Y273878D01*
X497335Y273741D01*
X497354Y273566D01*
Y273546D01*
Y273488D01*
X497335Y273390D01*
X497296Y273293D01*
X497218Y273215D01*
X497140Y273117D01*
X497003Y273058D01*
X496828Y273039D01*
X494214D01*
Y271986D01*
Y271966D01*
Y271947D01*
Y271830D01*
X494175Y271674D01*
X494136Y271479D01*
X494058Y271244D01*
X493960Y270991D01*
X493804Y270737D01*
X493589Y270503D01*
X493570Y270484D01*
X493472Y270406D01*
X493355Y270308D01*
X493180Y270191D01*
X492965Y270074D01*
X492711Y269976D01*
X492419Y269898D01*
X492107Y269879D01*
X491951D01*
X491795Y269918D01*
X491580Y269957D01*
X491346Y270035D01*
X491092Y270133D01*
X490839Y270289D01*
X490605Y270503D01*
X490585Y270523D01*
X490507Y270620D01*
X490410Y270737D01*
X490312Y270913D01*
X490195Y271127D01*
X490098Y271381D01*
X490019Y271674D01*
X490000Y271986D01*
Y273566D01*
Y273585D01*
Y273644D01*
X490019Y273741D01*
X490059Y273819D01*
X490117Y273917D01*
X490215Y274014D01*
X490332Y274073D01*
X490507Y274092D01*
X496906D01*
X497003Y274073D01*
D02*
G37*
G36*
Y268825D02*
X497101Y268787D01*
X497179Y268708D01*
X497276Y268630D01*
X497335Y268494D01*
X497354Y268318D01*
Y268299D01*
Y268240D01*
X497335Y268143D01*
X497296Y268045D01*
X497218Y267967D01*
X497140Y267870D01*
X497003Y267811D01*
X496828Y267792D01*
X490429D01*
X490351Y267811D01*
X490254Y267850D01*
X490156Y267928D01*
X490078Y268006D01*
X490019Y268143D01*
X490000Y268318D01*
Y268338D01*
Y268396D01*
X490019Y268494D01*
X490059Y268572D01*
X490117Y268669D01*
X490215Y268767D01*
X490332Y268825D01*
X490507Y268845D01*
X496906D01*
X497003Y268825D01*
D02*
G37*
G36*
Y265665D02*
X497101Y265626D01*
X497179Y265548D01*
X497276Y265470D01*
X497335Y265334D01*
X497354Y265158D01*
Y265139D01*
Y265080D01*
X497335Y264983D01*
X497296Y264885D01*
X497218Y264807D01*
X497140Y264709D01*
X497003Y264651D01*
X496828Y264631D01*
X493901D01*
X497198Y261335D01*
X497218Y261315D01*
X497276Y261237D01*
X497335Y261120D01*
X497354Y260964D01*
Y260945D01*
Y260886D01*
X497335Y260788D01*
X497296Y260691D01*
X497218Y260613D01*
X497140Y260515D01*
X497003Y260457D01*
X496828Y260437D01*
X496788D01*
X496711Y260457D01*
X496574Y260496D01*
X496457Y260593D01*
X494136Y262895D01*
X490819Y260535D01*
X490800Y260515D01*
X490722Y260476D01*
X490624Y260457D01*
X490507Y260437D01*
X490429D01*
X490351Y260457D01*
X490254Y260496D01*
X490156Y260574D01*
X490078Y260652D01*
X490019Y260788D01*
X490000Y260964D01*
Y260984D01*
Y261003D01*
X490019Y261120D01*
X490098Y261257D01*
X490137Y261335D01*
X490215Y261393D01*
X493375Y263656D01*
X492399Y264631D01*
X490429D01*
X490351Y264651D01*
X490254Y264690D01*
X490156Y264768D01*
X490078Y264846D01*
X490019Y264983D01*
X490000Y265158D01*
Y265178D01*
Y265236D01*
X490019Y265334D01*
X490059Y265412D01*
X490117Y265509D01*
X490215Y265607D01*
X490332Y265665D01*
X490507Y265685D01*
X496906D01*
X497003Y265665D01*
D02*
G37*
G36*
X460056Y427530D02*
X460251Y427491D01*
X460524Y427413D01*
X460798Y427218D01*
X460993Y426984D01*
X461149Y426671D01*
X461227Y426203D01*
Y415896D01*
Y415857D01*
Y415779D01*
X461266Y415662D01*
X461344Y415545D01*
X461461Y415389D01*
X461657Y415272D01*
X461891Y415194D01*
X462242Y415155D01*
X462398D01*
X462594Y415077D01*
X462789Y414999D01*
X462945Y414842D01*
X463140Y414608D01*
X463257Y414257D01*
X463296Y413827D01*
Y413788D01*
X463257Y413632D01*
X463218Y413398D01*
X463140Y413164D01*
X462945Y412929D01*
X462711Y412695D01*
X462359Y412539D01*
X461891Y412500D01*
X461618D01*
X461344Y412578D01*
X460993Y412656D01*
X460642Y412773D01*
X460212Y412968D01*
X459861Y413242D01*
X459510Y413593D01*
X459470Y413554D01*
X459314Y413437D01*
X459119Y413242D01*
X458807Y413046D01*
X458416Y412851D01*
X457948Y412656D01*
X457362Y412539D01*
X456738Y412500D01*
X454590D01*
X454356Y412539D01*
X454005Y412578D01*
X453575Y412656D01*
X453068Y412812D01*
X452560Y413046D01*
X452014Y413320D01*
X451506Y413749D01*
X451467Y413827D01*
X451311Y413983D01*
X451116Y414257D01*
X450882Y414647D01*
X450647Y415077D01*
X450452Y415623D01*
X450296Y416248D01*
X450257Y416912D01*
Y423119D01*
Y423158D01*
Y423197D01*
X450296Y423431D01*
X450335Y423783D01*
X450413Y424212D01*
X450569Y424719D01*
X450804Y425227D01*
X451077Y425774D01*
X451506Y426281D01*
X451584Y426320D01*
X451740Y426476D01*
X452014Y426671D01*
X452404Y426945D01*
X452834Y427179D01*
X453380Y427374D01*
X454005Y427530D01*
X454669Y427569D01*
X459900D01*
X460056Y427530D01*
D02*
G37*
G36*
X445299Y433738D02*
X445494Y433699D01*
X445768Y433620D01*
X446041Y433425D01*
X446236Y433191D01*
X446392Y432879D01*
X446470Y432410D01*
Y432371D01*
X446431Y432215D01*
X446392Y431981D01*
X446314Y431747D01*
X446119Y431512D01*
X445885Y431278D01*
X445533Y431122D01*
X445065Y431083D01*
X438233D01*
Y413827D01*
Y413788D01*
X438194Y413632D01*
X438155Y413398D01*
X438077Y413164D01*
X437881Y412929D01*
X437647Y412695D01*
X437296Y412539D01*
X436827Y412500D01*
X436788D01*
X436632Y412539D01*
X436398Y412578D01*
X436164Y412656D01*
X435929Y412812D01*
X435695Y413046D01*
X435539Y413398D01*
X435500Y413827D01*
Y432410D01*
Y432488D01*
X435539Y432645D01*
X435578Y432840D01*
X435656Y433113D01*
X435812Y433347D01*
X436046Y433582D01*
X436398Y433738D01*
X436827Y433777D01*
X445143D01*
X445299Y433738D01*
D02*
G37*
G36*
X500163Y282481D02*
X500261Y282442D01*
X500339Y282383D01*
X500436Y282285D01*
X500495Y282168D01*
X500514Y281993D01*
Y279359D01*
Y279340D01*
Y279301D01*
Y279242D01*
X500495Y279164D01*
X500475Y278969D01*
X500417Y278716D01*
X500339Y278403D01*
X500202Y278091D01*
X500007Y277779D01*
X499754Y277487D01*
X499715Y277448D01*
X499617Y277370D01*
X499461Y277253D01*
X499227Y277097D01*
X498954Y276960D01*
X498642Y276843D01*
X498291Y276765D01*
X497881Y276726D01*
X497764D01*
X497666Y276745D01*
X497432Y276784D01*
X497159Y276843D01*
X496828Y276960D01*
X496476Y277136D01*
X496320Y277253D01*
X496145Y277370D01*
X495989Y277526D01*
X495833Y277701D01*
X495813Y277682D01*
X495794Y277643D01*
X495735Y277565D01*
X495657Y277467D01*
X495579Y277350D01*
X495462Y277233D01*
X495326Y277097D01*
X495169Y276940D01*
X494974Y276804D01*
X494779Y276667D01*
X494565Y276550D01*
X494311Y276433D01*
X494058Y276336D01*
X493765Y276258D01*
X493472Y276219D01*
X493141Y276199D01*
X493024D01*
X492926Y276219D01*
X492809D01*
X492673Y276238D01*
X492380Y276316D01*
X492029Y276433D01*
X491658Y276589D01*
X491268Y276823D01*
X491092Y276980D01*
X490917Y277136D01*
Y277155D01*
X490878Y277175D01*
X490839Y277233D01*
X490780Y277292D01*
X490624Y277487D01*
X490468Y277760D01*
X490293Y278072D01*
X490137Y278462D01*
X490039Y278891D01*
X490019Y279125D01*
X490000Y279359D01*
Y281993D01*
Y282012D01*
Y282071D01*
X490019Y282149D01*
X490059Y282246D01*
X490117Y282344D01*
X490215Y282422D01*
X490332Y282481D01*
X490507Y282500D01*
X500066D01*
X500163Y282481D01*
D02*
G37*
G36*
X490683Y258311D02*
X496925Y256243D01*
X496945D01*
X496984Y256204D01*
X497062Y256165D01*
X497140Y256126D01*
X497218Y256048D01*
X497296Y255951D01*
X497335Y255853D01*
X497354Y255717D01*
Y253610D01*
Y253590D01*
Y253532D01*
X497335Y253434D01*
X497296Y253337D01*
X497218Y253259D01*
X497140Y253161D01*
X497003Y253103D01*
X496828Y253083D01*
X490429D01*
X490351Y253103D01*
X490254Y253142D01*
X490156Y253220D01*
X490078Y253298D01*
X490019Y253434D01*
X490000Y253610D01*
Y253629D01*
Y253688D01*
X490019Y253785D01*
X490059Y253863D01*
X490117Y253961D01*
X490215Y254058D01*
X490332Y254117D01*
X490507Y254137D01*
X496301D01*
Y255346D01*
X490351Y257316D01*
X490332D01*
X490293Y257336D01*
X490176Y257414D01*
X490117Y257492D01*
X490059Y257570D01*
X490019Y257667D01*
X490000Y257804D01*
Y257823D01*
Y257882D01*
X490019Y257980D01*
X490059Y258057D01*
X490137Y258155D01*
X490215Y258253D01*
X490351Y258311D01*
X490527Y258331D01*
X490585D01*
X490683Y258311D01*
D02*
G37*
G36*
X100751Y220991D02*
X101181Y220913D01*
X101688Y220757D01*
X102196Y220523D01*
X102743Y220171D01*
X103250Y219742D01*
X103289Y219703D01*
X103445Y219508D01*
X103680Y219235D01*
X103914Y218883D01*
X104148Y218415D01*
X104382Y217868D01*
X104538Y217283D01*
X104577Y216619D01*
Y216580D01*
Y216502D01*
Y216385D01*
X104538Y216228D01*
X104499Y215838D01*
X104382Y215331D01*
X104226Y214823D01*
X103953Y214315D01*
X103601Y213847D01*
X103133Y213496D01*
X103211Y213457D01*
X103367Y213340D01*
X103601Y213144D01*
X103875Y212832D01*
X104109Y212402D01*
X104343Y211895D01*
X104499Y211231D01*
X104577Y210411D01*
Y210373D01*
Y210333D01*
Y210099D01*
X104499Y209748D01*
X104421Y209318D01*
X104265Y208850D01*
X104031Y208303D01*
X103680Y207796D01*
X103250Y207288D01*
X103211Y207249D01*
X103016Y207093D01*
X102743Y206898D01*
X102391Y206664D01*
X101923Y206390D01*
X101376Y206195D01*
X100751Y206039D01*
X100088Y206000D01*
X98839D01*
X98604Y206039D01*
X98292Y206078D01*
X97863Y206156D01*
X97433Y206234D01*
X96887Y206390D01*
X96340Y206586D01*
X96262Y206625D01*
X96067Y206703D01*
X95793Y206859D01*
X95481Y207054D01*
X95169Y207288D01*
X94895Y207601D01*
X94700Y207913D01*
X94661Y208108D01*
X94622Y208303D01*
Y208342D01*
Y208381D01*
X94661Y208577D01*
X94739Y208850D01*
X94895Y209201D01*
Y209240D01*
X94935Y209279D01*
X95130Y209475D01*
X95364Y209631D01*
X95520Y209670D01*
X95715Y209709D01*
X95754D01*
X95833Y209670D01*
X95911Y209631D01*
X96106Y209592D01*
X96340Y209514D01*
X96652Y209357D01*
X97043Y209201D01*
X97082Y209162D01*
X97238Y209123D01*
X97472Y209045D01*
X97745Y208967D01*
X98409Y208772D01*
X98721Y208733D01*
X99034Y208694D01*
X100205D01*
X100322Y208733D01*
X100517Y208772D01*
X100908Y208928D01*
X101103Y209045D01*
X101298Y209201D01*
X101337Y209240D01*
X101376Y209279D01*
X101454Y209396D01*
X101571Y209553D01*
X101767Y209943D01*
X101806Y210177D01*
X101845Y210411D01*
Y210450D01*
Y210568D01*
X101806Y210685D01*
Y210880D01*
X101649Y211309D01*
X101532Y211505D01*
X101376Y211700D01*
X101298Y211778D01*
X101103Y211895D01*
X100751Y212051D01*
X100322Y212168D01*
X98917D01*
X98682Y212246D01*
X98370Y212363D01*
X98097Y212559D01*
X98019Y212637D01*
X97902Y212832D01*
X97785Y213105D01*
X97706Y213496D01*
Y213535D01*
Y213574D01*
X97745Y213808D01*
X97863Y214120D01*
X98097Y214433D01*
X98136Y214472D01*
X98175Y214511D01*
X98253Y214589D01*
X98409Y214667D01*
X98565Y214745D01*
X98799Y214784D01*
X99034Y214862D01*
X100127D01*
X100283Y214901D01*
X100517Y214940D01*
X100947Y215057D01*
X101181Y215174D01*
X101376Y215331D01*
X101415Y215369D01*
X101454Y215409D01*
X101532Y215526D01*
X101610Y215682D01*
X101767Y216072D01*
X101845Y216346D01*
Y216619D01*
Y216658D01*
Y216736D01*
X101806Y216853D01*
X101767Y217048D01*
X101649Y217439D01*
X101493Y217634D01*
X101337Y217829D01*
X101298Y217868D01*
X101259Y217907D01*
X101142Y217985D01*
X100986Y218102D01*
X100595Y218298D01*
X100361Y218337D01*
X100088Y218376D01*
X98721D01*
X98487Y218337D01*
X98214D01*
X97902Y218298D01*
X97511Y218220D01*
X97121Y218141D01*
X97082D01*
X96965Y218102D01*
X96769Y218063D01*
X96535Y218024D01*
X96067Y217829D01*
X95871Y217751D01*
X95715Y217634D01*
X95676D01*
X95637Y217595D01*
X95442Y217556D01*
X95286Y217517D01*
X95169Y217556D01*
X95013Y217634D01*
X94895Y217790D01*
Y217829D01*
X94857Y217868D01*
X94778Y218102D01*
X94661Y218415D01*
X94622Y218727D01*
Y218766D01*
X94661Y218883D01*
X94739Y219078D01*
X94857Y219313D01*
X95091Y219586D01*
X95403Y219898D01*
X95871Y220210D01*
X96184Y220328D01*
X96496Y220484D01*
X96574Y220523D01*
X96730Y220562D01*
X97004Y220679D01*
X97355Y220796D01*
X97745Y220874D01*
X98175Y220991D01*
X98604Y221030D01*
X99034Y221069D01*
X100400D01*
X100751Y220991D01*
D02*
G37*
G36*
X87556Y221030D02*
X87751Y220991D01*
X88025Y220913D01*
X88298Y220718D01*
X88493Y220484D01*
X88649Y220171D01*
X88727Y219703D01*
Y209396D01*
Y209357D01*
Y209279D01*
X88766Y209162D01*
X88844Y209045D01*
X88961Y208889D01*
X89157Y208772D01*
X89391Y208694D01*
X89742Y208655D01*
X89898D01*
X90094Y208577D01*
X90289Y208498D01*
X90445Y208342D01*
X90640Y208108D01*
X90757Y207757D01*
X90796Y207327D01*
Y207288D01*
X90757Y207132D01*
X90718Y206898D01*
X90640Y206664D01*
X90445Y206429D01*
X90211Y206195D01*
X89859Y206039D01*
X89391Y206000D01*
X89118D01*
X88844Y206078D01*
X88493Y206156D01*
X88142Y206273D01*
X87712Y206469D01*
X87361Y206742D01*
X87009Y207093D01*
X86970Y207054D01*
X86814Y206937D01*
X86619Y206742D01*
X86307Y206547D01*
X85916Y206351D01*
X85448Y206156D01*
X84862Y206039D01*
X84238Y206000D01*
X82091D01*
X81856Y206039D01*
X81505Y206078D01*
X81075Y206156D01*
X80568Y206312D01*
X80060Y206547D01*
X79514Y206820D01*
X79006Y207249D01*
X78967Y207327D01*
X78811Y207484D01*
X78616Y207757D01*
X78382Y208147D01*
X78147Y208577D01*
X77952Y209123D01*
X77796Y209748D01*
X77757Y210411D01*
Y216619D01*
Y216658D01*
Y216697D01*
X77796Y216931D01*
X77835Y217283D01*
X77913Y217712D01*
X78069Y218220D01*
X78304Y218727D01*
X78577Y219273D01*
X79006Y219781D01*
X79084Y219820D01*
X79241Y219976D01*
X79514Y220171D01*
X79904Y220445D01*
X80334Y220679D01*
X80880Y220874D01*
X81505Y221030D01*
X82169Y221069D01*
X87400D01*
X87556Y221030D01*
D02*
G37*
G36*
X72799Y227238D02*
X72994Y227199D01*
X73267Y227120D01*
X73541Y226925D01*
X73736Y226691D01*
X73892Y226379D01*
X73970Y225910D01*
Y225871D01*
X73931Y225715D01*
X73892Y225481D01*
X73814Y225247D01*
X73619Y225012D01*
X73385Y224778D01*
X73033Y224622D01*
X72565Y224583D01*
X65733D01*
Y207327D01*
Y207288D01*
X65694Y207132D01*
X65655Y206898D01*
X65577Y206664D01*
X65381Y206429D01*
X65147Y206195D01*
X64796Y206039D01*
X64327Y206000D01*
X64288D01*
X64132Y206039D01*
X63898Y206078D01*
X63664Y206156D01*
X63429Y206312D01*
X63195Y206547D01*
X63039Y206898D01*
X63000Y207327D01*
Y225910D01*
Y225988D01*
X63039Y226145D01*
X63078Y226340D01*
X63156Y226613D01*
X63312Y226847D01*
X63547Y227082D01*
X63898Y227238D01*
X64327Y227277D01*
X72643D01*
X72799Y227238D01*
D02*
G37*
G36*
X500163Y342481D02*
X500261Y342441D01*
X500339Y342383D01*
X500436Y342285D01*
X500495Y342168D01*
X500514Y341993D01*
Y339359D01*
Y339340D01*
Y339301D01*
Y339242D01*
X500495Y339164D01*
X500475Y338969D01*
X500417Y338716D01*
X500339Y338404D01*
X500202Y338091D01*
X500007Y337779D01*
X499754Y337487D01*
X499715Y337448D01*
X499617Y337370D01*
X499461Y337253D01*
X499227Y337096D01*
X498954Y336960D01*
X498642Y336843D01*
X498291Y336765D01*
X497881Y336726D01*
X497764D01*
X497666Y336745D01*
X497432Y336784D01*
X497159Y336843D01*
X496828Y336960D01*
X496476Y337136D01*
X496320Y337253D01*
X496145Y337370D01*
X495989Y337526D01*
X495833Y337701D01*
X495813Y337682D01*
X495794Y337643D01*
X495735Y337565D01*
X495657Y337467D01*
X495579Y337350D01*
X495462Y337233D01*
X495326Y337096D01*
X495169Y336940D01*
X494974Y336804D01*
X494779Y336667D01*
X494565Y336550D01*
X494311Y336433D01*
X494058Y336336D01*
X493765Y336258D01*
X493472Y336219D01*
X493141Y336199D01*
X493024D01*
X492926Y336219D01*
X492809D01*
X492673Y336238D01*
X492380Y336316D01*
X492029Y336433D01*
X491658Y336589D01*
X491268Y336823D01*
X491092Y336979D01*
X490917Y337136D01*
Y337155D01*
X490878Y337175D01*
X490839Y337233D01*
X490780Y337292D01*
X490624Y337487D01*
X490468Y337760D01*
X490293Y338072D01*
X490137Y338462D01*
X490039Y338891D01*
X490019Y339125D01*
X490000Y339359D01*
Y341993D01*
Y342012D01*
Y342071D01*
X490019Y342149D01*
X490059Y342246D01*
X490117Y342344D01*
X490215Y342422D01*
X490332Y342481D01*
X490507Y342500D01*
X500066D01*
X500163Y342481D01*
D02*
G37*
G36*
X497003Y334073D02*
X497101Y334034D01*
X497179Y333956D01*
X497276Y333878D01*
X497335Y333741D01*
X497354Y333566D01*
Y333546D01*
Y333488D01*
X497335Y333390D01*
X497296Y333293D01*
X497218Y333215D01*
X497140Y333117D01*
X497003Y333059D01*
X496828Y333039D01*
X493901D01*
X497198Y329742D01*
X497218Y329723D01*
X497276Y329645D01*
X497335Y329528D01*
X497354Y329372D01*
Y329352D01*
Y329294D01*
X497335Y329196D01*
X497296Y329099D01*
X497218Y329021D01*
X497140Y328923D01*
X497003Y328865D01*
X496828Y328845D01*
X496788D01*
X496711Y328865D01*
X496574Y328904D01*
X496457Y329001D01*
X494136Y331303D01*
X490819Y328942D01*
X490800Y328923D01*
X490722Y328884D01*
X490624Y328865D01*
X490507Y328845D01*
X490429D01*
X490351Y328865D01*
X490254Y328904D01*
X490156Y328982D01*
X490078Y329060D01*
X490019Y329196D01*
X490000Y329372D01*
Y329391D01*
Y329411D01*
X490019Y329528D01*
X490098Y329664D01*
X490137Y329742D01*
X490215Y329801D01*
X493375Y332064D01*
X492399Y333039D01*
X490429D01*
X490351Y333059D01*
X490254Y333098D01*
X490156Y333176D01*
X490078Y333254D01*
X490019Y333390D01*
X490000Y333566D01*
Y333585D01*
Y333644D01*
X490019Y333741D01*
X490059Y333819D01*
X490117Y333917D01*
X490215Y334014D01*
X490332Y334073D01*
X490507Y334092D01*
X496906D01*
X497003Y334073D01*
D02*
G37*
G36*
X490683Y326719D02*
X496925Y324651D01*
X496945D01*
X496984Y324612D01*
X497062Y324573D01*
X497140Y324534D01*
X497218Y324456D01*
X497296Y324358D01*
X497335Y324261D01*
X497354Y324124D01*
Y322018D01*
Y321998D01*
Y321939D01*
X497335Y321842D01*
X497296Y321744D01*
X497218Y321666D01*
X497140Y321569D01*
X497003Y321510D01*
X496828Y321491D01*
X490429D01*
X490351Y321510D01*
X490254Y321549D01*
X490156Y321627D01*
X490078Y321705D01*
X490019Y321842D01*
X490000Y322018D01*
Y322037D01*
Y322095D01*
X490019Y322193D01*
X490059Y322271D01*
X490117Y322369D01*
X490215Y322466D01*
X490332Y322525D01*
X490507Y322544D01*
X496301D01*
Y323754D01*
X490351Y325724D01*
X490332D01*
X490293Y325743D01*
X490176Y325821D01*
X490117Y325899D01*
X490059Y325977D01*
X490019Y326075D01*
X490000Y326212D01*
Y326231D01*
Y326289D01*
X490019Y326387D01*
X490059Y326465D01*
X490137Y326563D01*
X490215Y326660D01*
X490351Y326719D01*
X490527Y326738D01*
X490585D01*
X490683Y326719D01*
D02*
G37*
G36*
X473251Y427491D02*
X473681Y427413D01*
X474188Y427257D01*
X474696Y427023D01*
X475243Y426671D01*
X475750Y426242D01*
X475789Y426203D01*
X475945Y426008D01*
X476180Y425734D01*
X476414Y425383D01*
X476648Y424915D01*
X476882Y424368D01*
X477038Y423783D01*
X477077Y423119D01*
Y423080D01*
Y423002D01*
Y422885D01*
X477038Y422728D01*
X476999Y422338D01*
X476882Y421830D01*
X476726Y421323D01*
X476453Y420816D01*
X476101Y420347D01*
X475633Y419996D01*
X475711Y419957D01*
X475867Y419840D01*
X476101Y419644D01*
X476375Y419332D01*
X476609Y418903D01*
X476843Y418395D01*
X476999Y417731D01*
X477077Y416912D01*
Y416872D01*
Y416833D01*
Y416599D01*
X476999Y416248D01*
X476921Y415818D01*
X476765Y415350D01*
X476531Y414803D01*
X476180Y414296D01*
X475750Y413788D01*
X475711Y413749D01*
X475516Y413593D01*
X475243Y413398D01*
X474891Y413164D01*
X474423Y412890D01*
X473876Y412695D01*
X473251Y412539D01*
X472588Y412500D01*
X471339D01*
X471104Y412539D01*
X470792Y412578D01*
X470363Y412656D01*
X469933Y412734D01*
X469386Y412890D01*
X468840Y413086D01*
X468762Y413125D01*
X468567Y413203D01*
X468293Y413359D01*
X467981Y413554D01*
X467669Y413788D01*
X467396Y414101D01*
X467200Y414413D01*
X467161Y414608D01*
X467122Y414803D01*
Y414842D01*
Y414881D01*
X467161Y415077D01*
X467239Y415350D01*
X467396Y415701D01*
Y415740D01*
X467435Y415779D01*
X467630Y415975D01*
X467864Y416131D01*
X468020Y416170D01*
X468215Y416209D01*
X468254D01*
X468332Y416170D01*
X468410Y416131D01*
X468606Y416092D01*
X468840Y416014D01*
X469152Y415857D01*
X469543Y415701D01*
X469582Y415662D01*
X469738Y415623D01*
X469972Y415545D01*
X470245Y415467D01*
X470909Y415272D01*
X471221Y415233D01*
X471534Y415194D01*
X472705D01*
X472822Y415233D01*
X473017Y415272D01*
X473408Y415428D01*
X473603Y415545D01*
X473798Y415701D01*
X473837Y415740D01*
X473876Y415779D01*
X473954Y415896D01*
X474071Y416053D01*
X474267Y416443D01*
X474306Y416677D01*
X474345Y416912D01*
Y416950D01*
Y417068D01*
X474306Y417185D01*
Y417380D01*
X474149Y417809D01*
X474032Y418005D01*
X473876Y418200D01*
X473798Y418278D01*
X473603Y418395D01*
X473251Y418551D01*
X472822Y418668D01*
X471417D01*
X471182Y418746D01*
X470870Y418863D01*
X470597Y419059D01*
X470519Y419137D01*
X470402Y419332D01*
X470285Y419605D01*
X470206Y419996D01*
Y420035D01*
Y420074D01*
X470245Y420308D01*
X470363Y420620D01*
X470597Y420933D01*
X470636Y420972D01*
X470675Y421011D01*
X470753Y421089D01*
X470909Y421167D01*
X471065Y421245D01*
X471300Y421284D01*
X471534Y421362D01*
X472627D01*
X472783Y421401D01*
X473017Y421440D01*
X473447Y421557D01*
X473681Y421674D01*
X473876Y421830D01*
X473915Y421870D01*
X473954Y421909D01*
X474032Y422026D01*
X474110Y422182D01*
X474267Y422572D01*
X474345Y422845D01*
Y423119D01*
Y423158D01*
Y423236D01*
X474306Y423353D01*
X474267Y423548D01*
X474149Y423939D01*
X473993Y424134D01*
X473837Y424329D01*
X473798Y424368D01*
X473759Y424407D01*
X473642Y424485D01*
X473486Y424602D01*
X473095Y424798D01*
X472861Y424837D01*
X472588Y424876D01*
X471221D01*
X470987Y424837D01*
X470714D01*
X470402Y424798D01*
X470011Y424719D01*
X469621Y424641D01*
X469582D01*
X469465Y424602D01*
X469269Y424563D01*
X469035Y424524D01*
X468567Y424329D01*
X468372Y424251D01*
X468215Y424134D01*
X468176D01*
X468137Y424095D01*
X467942Y424056D01*
X467786Y424017D01*
X467669Y424056D01*
X467513Y424134D01*
X467396Y424290D01*
Y424329D01*
X467356Y424368D01*
X467278Y424602D01*
X467161Y424915D01*
X467122Y425227D01*
Y425266D01*
X467161Y425383D01*
X467239Y425578D01*
X467356Y425813D01*
X467591Y426086D01*
X467903Y426398D01*
X468372Y426711D01*
X468684Y426828D01*
X468996Y426984D01*
X469074Y427023D01*
X469230Y427062D01*
X469504Y427179D01*
X469855Y427296D01*
X470245Y427374D01*
X470675Y427491D01*
X471104Y427530D01*
X471534Y427569D01*
X472900D01*
X473251Y427491D01*
D02*
G37*
G36*
X371262Y566741D02*
X371848Y566623D01*
X372668Y566389D01*
X373489Y565803D01*
X374074Y565100D01*
X374543Y564163D01*
X374777Y562757D01*
Y562640D01*
X374660Y562171D01*
X374543Y561468D01*
X374309Y560765D01*
X373723Y560062D01*
X373020Y559359D01*
X371965Y558890D01*
X370559Y558773D01*
X350055D01*
Y506984D01*
Y506867D01*
X349937Y506398D01*
X349820Y505695D01*
X349586Y504992D01*
X349000Y504289D01*
X348297Y503586D01*
X347242Y503117D01*
X345836Y503000D01*
X345719D01*
X345251Y503117D01*
X344548Y503234D01*
X343844Y503469D01*
X343142Y503937D01*
X342438Y504640D01*
X341970Y505695D01*
X341853Y506984D01*
Y562757D01*
Y562991D01*
X341970Y563460D01*
X342087Y564046D01*
X342321Y564866D01*
X342790Y565569D01*
X343493Y566272D01*
X344548Y566741D01*
X345836Y566858D01*
X370794D01*
X371262Y566741D01*
D02*
G37*
G36*
X458767Y216199D02*
X459196Y216120D01*
X459703Y215964D01*
X460211Y215730D01*
X460757Y215379D01*
X461265Y214949D01*
X461304Y214910D01*
X461460Y214715D01*
X461694Y214442D01*
X461929Y214090D01*
X462163Y213622D01*
X462397Y213075D01*
X462553Y212490D01*
X462592Y211826D01*
Y199412D01*
Y199372D01*
Y199333D01*
Y199099D01*
X462514Y198748D01*
X462436Y198318D01*
X462280Y197850D01*
X462046Y197303D01*
X461694Y196796D01*
X461265Y196288D01*
X461226Y196249D01*
X461031Y196093D01*
X460757Y195898D01*
X460406Y195664D01*
X459938Y195390D01*
X459391Y195195D01*
X458767Y195039D01*
X458103Y195000D01*
X455956D01*
X455721Y195039D01*
X455370Y195078D01*
X454941Y195156D01*
X454433Y195312D01*
X453926Y195546D01*
X453379Y195859D01*
X452872Y196288D01*
X452832Y196366D01*
X452676Y196523D01*
X452481Y196796D01*
X452247Y197147D01*
X452013Y197616D01*
X451817Y198162D01*
X451661Y198748D01*
X451622Y199412D01*
Y205619D01*
Y205658D01*
Y205697D01*
X451661Y205931D01*
X451700Y206283D01*
X451778Y206712D01*
X451935Y207219D01*
X452169Y207727D01*
X452481Y208274D01*
X452910Y208781D01*
X452989Y208820D01*
X453145Y208976D01*
X453418Y209171D01*
X453769Y209445D01*
X454238Y209679D01*
X454785Y209874D01*
X455370Y210030D01*
X456034Y210069D01*
X459860D01*
Y211826D01*
Y211865D01*
Y211943D01*
X459821Y212099D01*
X459782Y212256D01*
X459664Y212685D01*
X459508Y212880D01*
X459352Y213075D01*
X459313Y213114D01*
X459274Y213153D01*
X459157Y213232D01*
X459001Y213349D01*
X458610Y213505D01*
X458376Y213544D01*
X458103Y213583D01*
X454980D01*
X454823Y213622D01*
X454589Y213661D01*
X454355Y213739D01*
X454121Y213895D01*
X453886Y214130D01*
X453730Y214481D01*
X453691Y214910D01*
Y214988D01*
X453730Y215145D01*
X453769Y215340D01*
X453848Y215613D01*
X454004Y215847D01*
X454238Y216082D01*
X454589Y216238D01*
X455019Y216277D01*
X458415D01*
X458767Y216199D01*
D02*
G37*
G36*
X326855Y566741D02*
X327441Y566623D01*
X328261Y566389D01*
X329081Y565803D01*
X329667Y565100D01*
X330136Y564163D01*
X330370Y562757D01*
Y506984D01*
Y506867D01*
X330253Y506398D01*
X330136Y505695D01*
X329901Y504992D01*
X329315Y504289D01*
X328612Y503586D01*
X327558Y503117D01*
X326152Y503000D01*
X326035D01*
X325566Y503117D01*
X324863Y503234D01*
X324160Y503469D01*
X323457Y503937D01*
X322754Y504640D01*
X322285Y505695D01*
X322168Y506984D01*
Y558773D01*
X299437D01*
Y506984D01*
Y506867D01*
X299320Y506398D01*
X299203Y505695D01*
X298968Y504992D01*
X298382Y504289D01*
X297679Y503586D01*
X296625Y503117D01*
X295219Y503000D01*
X295102D01*
X294633Y503117D01*
X293930Y503234D01*
X293227Y503469D01*
X292524Y503937D01*
X291821Y504640D01*
X291352Y505695D01*
X291235Y506984D01*
Y562757D01*
Y562991D01*
X291352Y563460D01*
X291469Y564046D01*
X291704Y564866D01*
X292172Y565569D01*
X292875Y566272D01*
X293930Y566741D01*
X295219Y566858D01*
X326386D01*
X326855Y566741D01*
D02*
G37*
G36*
X476178Y210030D02*
X476373Y209991D01*
X476647Y209913D01*
X476920Y209718D01*
X477115Y209484D01*
X477271Y209171D01*
X477350Y208703D01*
Y198396D01*
Y198357D01*
Y198279D01*
X477388Y198162D01*
X477467Y198045D01*
X477584Y197889D01*
X477779Y197772D01*
X478013Y197694D01*
X478364Y197655D01*
X478521D01*
X478716Y197577D01*
X478911Y197498D01*
X479067Y197342D01*
X479262Y197108D01*
X479380Y196757D01*
X479419Y196327D01*
Y196288D01*
X479380Y196132D01*
X479341Y195898D01*
X479262Y195664D01*
X479067Y195429D01*
X478833Y195195D01*
X478482Y195039D01*
X478013Y195000D01*
X477740D01*
X477467Y195078D01*
X477115Y195156D01*
X476764Y195273D01*
X476334Y195469D01*
X475983Y195742D01*
X475632Y196093D01*
X475593Y196054D01*
X475437Y195937D01*
X475241Y195742D01*
X474929Y195546D01*
X474539Y195351D01*
X474070Y195156D01*
X473484Y195039D01*
X472860Y195000D01*
X470713D01*
X470479Y195039D01*
X470127Y195078D01*
X469698Y195156D01*
X469190Y195312D01*
X468683Y195546D01*
X468136Y195820D01*
X467629Y196249D01*
X467589Y196327D01*
X467433Y196483D01*
X467238Y196757D01*
X467004Y197147D01*
X466770Y197577D01*
X466575Y198123D01*
X466418Y198748D01*
X466379Y199412D01*
Y205619D01*
Y205658D01*
Y205697D01*
X466418Y205931D01*
X466457Y206283D01*
X466535Y206712D01*
X466692Y207219D01*
X466926Y207727D01*
X467199Y208274D01*
X467629Y208781D01*
X467707Y208820D01*
X467863Y208976D01*
X468136Y209171D01*
X468526Y209445D01*
X468956Y209679D01*
X469502Y209874D01*
X470127Y210030D01*
X470791Y210069D01*
X476022D01*
X476178Y210030D01*
D02*
G37*
G36*
X426871Y216238D02*
X427300Y216199D01*
X427847Y216082D01*
X428472Y215886D01*
X429135Y215613D01*
X429799Y215223D01*
X430424Y214676D01*
X430502Y214598D01*
X430658Y214403D01*
X430931Y214051D01*
X431244Y213583D01*
X431517Y213036D01*
X431790Y212373D01*
X431946Y211592D01*
X432024Y210772D01*
Y210733D01*
Y210655D01*
Y210538D01*
X431985Y210343D01*
X431907Y209874D01*
X431790Y209289D01*
X431556Y208664D01*
X431204Y208000D01*
X430970Y207649D01*
X430736Y207337D01*
X430424Y207063D01*
X430072Y206790D01*
X430111D01*
X430189Y206712D01*
X430345Y206634D01*
X430541Y206478D01*
X430775Y206283D01*
X431009Y206087D01*
X431283Y205814D01*
X431556Y205502D01*
X431829Y205150D01*
X432102Y204760D01*
X432337Y204331D01*
X432571Y203862D01*
X432766Y203316D01*
X432922Y202769D01*
X433000Y202144D01*
X433039Y201481D01*
Y201442D01*
Y201364D01*
Y201207D01*
X433000Y201012D01*
Y200817D01*
X432922Y200544D01*
X432805Y199880D01*
X432571Y199177D01*
X432220Y198396D01*
X432024Y198006D01*
X431751Y197616D01*
X431478Y197225D01*
X431126Y196874D01*
X431087Y196835D01*
X431048Y196796D01*
X430931Y196718D01*
X430775Y196601D01*
X430385Y196288D01*
X429838Y195937D01*
X429135Y195586D01*
X428354Y195312D01*
X427457Y195078D01*
X426988Y195039D01*
X426481Y195000D01*
X421288D01*
X421132Y195039D01*
X420898Y195078D01*
X420664Y195156D01*
X420429Y195312D01*
X420195Y195546D01*
X420039Y195898D01*
X420000Y196327D01*
Y214910D01*
Y214988D01*
X420039Y215145D01*
X420078Y215340D01*
X420156Y215613D01*
X420312Y215847D01*
X420547Y216082D01*
X420898Y216238D01*
X421327Y216277D01*
X426715D01*
X426871Y216238D01*
D02*
G37*
G36*
X276237Y566741D02*
X276823Y566623D01*
X277643Y566389D01*
X278463Y565803D01*
X279049Y565100D01*
X279518Y564163D01*
X279752Y562757D01*
Y562640D01*
Y562523D01*
X279518Y561819D01*
X279284Y561351D01*
X278932Y560882D01*
X278463Y560296D01*
X277878Y559710D01*
X261122Y540963D01*
X279167Y508976D01*
X279284Y508858D01*
X279518Y508390D01*
X279635Y507687D01*
X279752Y506984D01*
Y506867D01*
Y506749D01*
X279635Y506046D01*
X279167Y505109D01*
X278932Y504640D01*
X278463Y504172D01*
X278229Y503937D01*
X277643Y503586D01*
X276706Y503234D01*
X275534Y503000D01*
X275183D01*
X274714Y503117D01*
X274128Y503352D01*
X273542Y503586D01*
X272957Y504054D01*
X272371Y504758D01*
X271902Y505578D01*
X255615Y535339D01*
X248819Y527137D01*
Y506984D01*
Y506867D01*
X248702Y506398D01*
X248585Y505695D01*
X248351Y504992D01*
X247765Y504289D01*
X247062Y503586D01*
X246007Y503117D01*
X244601Y503000D01*
X244484D01*
X244016Y503117D01*
X243312Y503234D01*
X242609Y503469D01*
X241906Y503937D01*
X241203Y504640D01*
X240735Y505695D01*
X240618Y506984D01*
Y562757D01*
Y562991D01*
X240735Y563460D01*
X240852Y564046D01*
X241086Y564866D01*
X241555Y565569D01*
X242258Y566272D01*
X243312Y566741D01*
X244601Y566858D01*
X244836D01*
X245304Y566741D01*
X245890Y566623D01*
X246710Y566389D01*
X247531Y565803D01*
X248116Y565100D01*
X248585Y564163D01*
X248819Y562757D01*
Y537565D01*
X272722Y565686D01*
X272957Y565920D01*
X273425Y566272D01*
X274363Y566623D01*
X275534Y566858D01*
X275769D01*
X276237Y566741D01*
D02*
G37*
G36*
X442721Y210030D02*
X443151Y209991D01*
X443697Y209874D01*
X444283Y209679D01*
X444946Y209406D01*
X445610Y209015D01*
X446235Y208469D01*
X446313Y208391D01*
X446469Y208195D01*
X446742Y207844D01*
X447055Y207376D01*
X447328Y206829D01*
X447601Y206165D01*
X447757Y205385D01*
X447835Y204565D01*
Y200466D01*
Y200427D01*
Y200348D01*
Y200231D01*
X447796Y200075D01*
X447757Y199685D01*
X447640Y199138D01*
X447445Y198514D01*
X447133Y197889D01*
X446742Y197225D01*
X446196Y196601D01*
X446118Y196523D01*
X445922Y196366D01*
X445571Y196093D01*
X445103Y195820D01*
X444556Y195508D01*
X443892Y195234D01*
X443151Y195078D01*
X442331Y195000D01*
X442096D01*
X441940Y195039D01*
X441511Y195078D01*
X440964Y195195D01*
X440379Y195390D01*
X439715Y195664D01*
X439051Y196054D01*
X438427Y196562D01*
X438349Y196640D01*
X438192Y196835D01*
X437919Y197186D01*
X437646Y197655D01*
X437373Y198201D01*
X437099Y198904D01*
X436943Y199646D01*
X436865Y200466D01*
Y204565D01*
Y204604D01*
Y204682D01*
Y204799D01*
X436904Y204955D01*
X436943Y205385D01*
X437060Y205931D01*
X437256Y206517D01*
X437529Y207180D01*
X437919Y207844D01*
X438427Y208469D01*
X438505Y208547D01*
X438700Y208703D01*
X439051Y208976D01*
X439520Y209289D01*
X440066Y209562D01*
X440769Y209835D01*
X441511Y209991D01*
X442331Y210069D01*
X442565D01*
X442721Y210030D01*
D02*
G37*
G36*
X225620Y566741D02*
X226206Y566623D01*
X227026Y566389D01*
X227846Y565803D01*
X228432Y565100D01*
X228901Y564163D01*
X229135Y562757D01*
Y516240D01*
Y516123D01*
Y516006D01*
Y515303D01*
X228901Y514248D01*
X228666Y512960D01*
X228197Y511553D01*
X227495Y509913D01*
X226440Y508390D01*
X225151Y506867D01*
X225034Y506749D01*
X224448Y506281D01*
X223628Y505695D01*
X222573Y504992D01*
X221167Y504172D01*
X219527Y503586D01*
X217652Y503117D01*
X215660Y503000D01*
X200077D01*
X199608Y503117D01*
X198905Y503234D01*
X198202Y503469D01*
X197382Y503937D01*
X196796Y504640D01*
X196327Y505695D01*
X196093Y506984D01*
Y507218D01*
X196210Y507687D01*
X196327Y508273D01*
X196562Y509093D01*
X197147Y509796D01*
X197850Y510499D01*
X198788Y510968D01*
X200194Y511085D01*
X216012D01*
X216363Y511202D01*
X216949Y511319D01*
X218121Y511788D01*
X218707Y512139D01*
X219293Y512608D01*
X219410Y512725D01*
X219527Y512842D01*
X219761Y513194D01*
X220113Y513662D01*
X220699Y514834D01*
X220816Y515537D01*
X220933Y516240D01*
Y527723D01*
X206052D01*
X205466Y527840D01*
X204881D01*
X204060Y527957D01*
X203240Y528192D01*
X201131Y528778D01*
X199960Y529246D01*
X198788Y529832D01*
X197616Y530418D01*
X196444Y531238D01*
X195273Y532293D01*
X194101Y533347D01*
X193046Y534636D01*
X192109Y536159D01*
X191992Y536276D01*
X191758Y536745D01*
X191406Y537448D01*
X191054Y538385D01*
X190703Y539557D01*
X190352Y540963D01*
X190117Y542486D01*
X190000Y544127D01*
Y562757D01*
Y562991D01*
X190117Y563460D01*
X190234Y564046D01*
X190469Y564866D01*
X190937Y565569D01*
X191640Y566272D01*
X192695Y566741D01*
X193984Y566858D01*
X194218D01*
X194687Y566741D01*
X195273Y566623D01*
X196093Y566389D01*
X196913Y565803D01*
X197499Y565100D01*
X197968Y564163D01*
X198202Y562757D01*
Y544127D01*
Y544010D01*
Y543541D01*
X198319Y542838D01*
X198553Y542018D01*
X198788Y541080D01*
X199139Y540143D01*
X199725Y539088D01*
X200545Y538151D01*
X200662Y538034D01*
X201014Y537800D01*
X201483Y537448D01*
X202186Y536979D01*
X203006Y536511D01*
X204060Y536159D01*
X205232Y535925D01*
X206404Y535808D01*
X220933D01*
Y562757D01*
Y562991D01*
X221050Y563460D01*
X221167Y564046D01*
X221402Y564866D01*
X221870Y565569D01*
X222573Y566272D01*
X223628Y566741D01*
X224917Y566858D01*
X225151D01*
X225620Y566741D01*
D02*
G37*
%LPC*%
G36*
X493160Y273039D02*
X491053D01*
Y271986D01*
Y271966D01*
Y271908D01*
X491073Y271830D01*
X491092Y271732D01*
X491131Y271615D01*
X491170Y271498D01*
X491249Y271361D01*
X491346Y271244D01*
X491366Y271225D01*
X491404Y271186D01*
X491463Y271147D01*
X491561Y271088D01*
X491678Y271030D01*
X491795Y270971D01*
X491951Y270952D01*
X492107Y270932D01*
X492185D01*
X492263Y270952D01*
X492360Y270971D01*
X492477Y271010D01*
X492594Y271069D01*
X492731Y271147D01*
X492848Y271244D01*
X492868Y271264D01*
X492907Y271303D01*
X492946Y271361D01*
X493004Y271459D01*
X493063Y271556D01*
X493121Y271693D01*
X493141Y271830D01*
X493160Y271986D01*
Y273039D01*
D02*
G37*
G36*
X458494Y424876D02*
X454551D01*
X454434Y424837D01*
X454239Y424798D01*
X453849Y424680D01*
X453653Y424524D01*
X453458Y424368D01*
Y424329D01*
X453380Y424290D01*
X453302Y424173D01*
X453224Y424017D01*
X453068Y423626D01*
X453029Y423392D01*
X452990Y423119D01*
Y416912D01*
Y416872D01*
Y416794D01*
X453029Y416677D01*
X453068Y416482D01*
X453224Y416092D01*
X453341Y415896D01*
X453497Y415701D01*
X453536Y415662D01*
X453575Y415623D01*
X453693Y415545D01*
X453849Y415467D01*
X454200Y415272D01*
X454434Y415233D01*
X454669Y415194D01*
X456855D01*
X456972Y415233D01*
X457167Y415272D01*
X457557Y415428D01*
X457753Y415545D01*
X457948Y415701D01*
X457987Y415740D01*
X458026Y415779D01*
X458104Y415896D01*
X458221Y416053D01*
X458416Y416443D01*
X458455Y416677D01*
X458494Y416912D01*
Y424876D01*
D02*
G37*
G36*
X495247Y281447D02*
X491053D01*
Y279359D01*
Y279340D01*
Y279320D01*
X491073Y279203D01*
X491092Y279047D01*
X491131Y278852D01*
X491209Y278618D01*
X491307Y278365D01*
X491463Y278111D01*
X491658Y277877D01*
X491678Y277857D01*
X491775Y277779D01*
X491892Y277682D01*
X492068Y277565D01*
X492282Y277448D01*
X492536Y277350D01*
X492829Y277272D01*
X493141Y277253D01*
X493297D01*
X493453Y277292D01*
X493648Y277331D01*
X493882Y277409D01*
X494136Y277506D01*
X494389Y277662D01*
X494623Y277877D01*
X494643Y277896D01*
X494721Y277994D01*
X494818Y278111D01*
X494935Y278286D01*
X495052Y278501D01*
X495150Y278755D01*
X495228Y279047D01*
X495247Y279359D01*
Y281447D01*
D02*
G37*
G36*
X499461D02*
X496301D01*
Y279359D01*
Y279340D01*
Y279242D01*
X496320Y279125D01*
X496359Y278969D01*
X496418Y278813D01*
X496496Y278618D01*
X496593Y278423D01*
X496749Y278247D01*
X496769Y278228D01*
X496828Y278169D01*
X496925Y278091D01*
X497062Y278013D01*
X497237Y277935D01*
X497432Y277857D01*
X497647Y277799D01*
X497881Y277779D01*
X497998D01*
X498115Y277799D01*
X498271Y277838D01*
X498427Y277896D01*
X498622Y277974D01*
X498817Y278091D01*
X498993Y278247D01*
X499012Y278267D01*
X499071Y278326D01*
X499149Y278423D01*
X499227Y278560D01*
X499305Y278716D01*
X499383Y278911D01*
X499441Y279125D01*
X499461Y279359D01*
Y281447D01*
D02*
G37*
G36*
X85994Y218376D02*
X82051D01*
X81934Y218337D01*
X81739Y218298D01*
X81349Y218180D01*
X81153Y218024D01*
X80958Y217868D01*
Y217829D01*
X80880Y217790D01*
X80802Y217673D01*
X80724Y217517D01*
X80568Y217126D01*
X80529Y216892D01*
X80490Y216619D01*
Y210411D01*
Y210373D01*
Y210294D01*
X80529Y210177D01*
X80568Y209982D01*
X80724Y209592D01*
X80841Y209396D01*
X80997Y209201D01*
X81036Y209162D01*
X81075Y209123D01*
X81193Y209045D01*
X81349Y208967D01*
X81700Y208772D01*
X81934Y208733D01*
X82169Y208694D01*
X84355D01*
X84472Y208733D01*
X84667Y208772D01*
X85057Y208928D01*
X85253Y209045D01*
X85448Y209201D01*
X85487Y209240D01*
X85526Y209279D01*
X85604Y209396D01*
X85721Y209553D01*
X85916Y209943D01*
X85955Y210177D01*
X85994Y210411D01*
Y218376D01*
D02*
G37*
G36*
X495247Y341447D02*
X491053D01*
Y339359D01*
Y339340D01*
Y339320D01*
X491073Y339203D01*
X491092Y339047D01*
X491131Y338852D01*
X491209Y338618D01*
X491307Y338364D01*
X491463Y338111D01*
X491658Y337877D01*
X491678Y337857D01*
X491775Y337779D01*
X491892Y337682D01*
X492068Y337565D01*
X492282Y337448D01*
X492536Y337350D01*
X492829Y337272D01*
X493141Y337253D01*
X493297D01*
X493453Y337292D01*
X493648Y337331D01*
X493882Y337409D01*
X494136Y337506D01*
X494389Y337662D01*
X494623Y337877D01*
X494643Y337896D01*
X494721Y337994D01*
X494818Y338111D01*
X494935Y338287D01*
X495052Y338501D01*
X495150Y338755D01*
X495228Y339047D01*
X495247Y339359D01*
Y341447D01*
D02*
G37*
G36*
X499461D02*
X496301D01*
Y339359D01*
Y339340D01*
Y339242D01*
X496320Y339125D01*
X496359Y338969D01*
X496418Y338813D01*
X496496Y338618D01*
X496593Y338423D01*
X496749Y338247D01*
X496769Y338228D01*
X496828Y338169D01*
X496925Y338091D01*
X497062Y338013D01*
X497237Y337935D01*
X497432Y337857D01*
X497647Y337799D01*
X497881Y337779D01*
X497998D01*
X498115Y337799D01*
X498271Y337838D01*
X498427Y337896D01*
X498622Y337974D01*
X498817Y338091D01*
X498993Y338247D01*
X499012Y338267D01*
X499071Y338326D01*
X499149Y338423D01*
X499227Y338560D01*
X499305Y338716D01*
X499383Y338911D01*
X499441Y339125D01*
X499461Y339359D01*
Y341447D01*
D02*
G37*
G36*
X459860Y207376D02*
X455917D01*
X455799Y207337D01*
X455604Y207297D01*
X455214Y207180D01*
X455019Y207024D01*
X454823Y206868D01*
X454785Y206829D01*
X454745Y206790D01*
X454667Y206673D01*
X454589Y206517D01*
X454394Y206126D01*
X454355Y205892D01*
X454316Y205619D01*
Y199412D01*
Y199372D01*
Y199294D01*
X454355Y199177D01*
X454394Y198982D01*
X454550Y198592D01*
X454667Y198396D01*
X454823Y198201D01*
X454863Y198162D01*
X454902Y198123D01*
X455019Y198045D01*
X455175Y197967D01*
X455565Y197772D01*
X455799Y197733D01*
X456034Y197694D01*
X458220D01*
X458337Y197733D01*
X458532Y197772D01*
X458923Y197928D01*
X459118Y198045D01*
X459313Y198201D01*
X459352Y198240D01*
X459391Y198279D01*
X459469Y198396D01*
X459586Y198553D01*
X459782Y198943D01*
X459821Y199177D01*
X459860Y199412D01*
Y207376D01*
D02*
G37*
G36*
X474617D02*
X470674D01*
X470556Y207337D01*
X470361Y207297D01*
X469971Y207180D01*
X469776Y207024D01*
X469580Y206868D01*
Y206829D01*
X469502Y206790D01*
X469424Y206673D01*
X469346Y206517D01*
X469190Y206126D01*
X469151Y205892D01*
X469112Y205619D01*
Y199412D01*
Y199372D01*
Y199294D01*
X469151Y199177D01*
X469190Y198982D01*
X469346Y198592D01*
X469463Y198396D01*
X469620Y198201D01*
X469659Y198162D01*
X469698Y198123D01*
X469815Y198045D01*
X469971Y197967D01*
X470322Y197772D01*
X470556Y197733D01*
X470791Y197694D01*
X472977D01*
X473094Y197733D01*
X473289Y197772D01*
X473680Y197928D01*
X473875Y198045D01*
X474070Y198201D01*
X474109Y198240D01*
X474148Y198279D01*
X474226Y198396D01*
X474343Y198553D01*
X474539Y198943D01*
X474578Y199177D01*
X474617Y199412D01*
Y207376D01*
D02*
G37*
G36*
X426481Y213583D02*
X422733D01*
Y208000D01*
X426676D01*
X426910Y208039D01*
X427183Y208117D01*
X427496Y208195D01*
X427808Y208313D01*
X428159Y208508D01*
X428472Y208781D01*
X428511Y208820D01*
X428589Y208937D01*
X428745Y209093D01*
X428901Y209328D01*
X429018Y209640D01*
X429174Y209952D01*
X429252Y210343D01*
X429291Y210772D01*
Y210811D01*
Y210967D01*
X429252Y211162D01*
X429174Y211436D01*
X429096Y211748D01*
X428940Y212060D01*
X428745Y212412D01*
X428472Y212724D01*
X428433Y212763D01*
X428316Y212841D01*
X428159Y212997D01*
X427925Y213153D01*
X427613Y213310D01*
X427300Y213466D01*
X426910Y213544D01*
X426481Y213583D01*
D02*
G37*
G36*
Y205306D02*
X422733D01*
Y197694D01*
X426754D01*
X427027Y197772D01*
X427418Y197850D01*
X427847Y197967D01*
X428276Y198162D01*
X428745Y198435D01*
X429174Y198787D01*
X429213Y198826D01*
X429370Y198982D01*
X429526Y199216D01*
X429760Y199529D01*
X429955Y199919D01*
X430150Y200387D01*
X430267Y200895D01*
X430307Y201481D01*
Y201559D01*
Y201754D01*
X430267Y202027D01*
X430150Y202418D01*
X430033Y202847D01*
X429838Y203276D01*
X429565Y203745D01*
X429174Y204174D01*
X429135Y204213D01*
X428979Y204370D01*
X428745Y204526D01*
X428433Y204760D01*
X428042Y204955D01*
X427574Y205150D01*
X427066Y205268D01*
X426481Y205306D01*
D02*
G37*
G36*
X442331Y207376D02*
X442136D01*
X441940Y207337D01*
X441667Y207258D01*
X441355Y207180D01*
X441043Y207024D01*
X440691Y206829D01*
X440379Y206556D01*
X440340Y206517D01*
X440262Y206400D01*
X440145Y206243D01*
X439988Y206009D01*
X439832Y205697D01*
X439715Y205385D01*
X439637Y204994D01*
X439598Y204565D01*
Y200466D01*
Y200427D01*
Y200270D01*
X439637Y200036D01*
X439715Y199763D01*
X439793Y199450D01*
X439910Y199099D01*
X440106Y198787D01*
X440379Y198475D01*
X440418Y198435D01*
X440535Y198357D01*
X440691Y198240D01*
X440925Y198084D01*
X441199Y197928D01*
X441550Y197811D01*
X441901Y197733D01*
X442331Y197694D01*
X442526D01*
X442721Y197733D01*
X442994Y197811D01*
X443307Y197889D01*
X443619Y198006D01*
X443970Y198201D01*
X444283Y198475D01*
X444322Y198514D01*
X444400Y198631D01*
X444556Y198787D01*
X444712Y199021D01*
X444829Y199333D01*
X444986Y199646D01*
X445064Y200036D01*
X445103Y200466D01*
Y204565D01*
Y204604D01*
Y204760D01*
X445064Y204994D01*
X444986Y205268D01*
X444907Y205580D01*
X444751Y205892D01*
X444556Y206243D01*
X444283Y206556D01*
X444244Y206595D01*
X444127Y206673D01*
X443970Y206829D01*
X443736Y206985D01*
X443463Y207102D01*
X443112Y207258D01*
X442760Y207337D01*
X442331Y207376D01*
D02*
G37*
%LPD*%
D21*
X278750Y167750D02*
Y194250D01*
X291250Y167750D02*
Y194250D01*
X278750Y167750D02*
X291250D01*
X278750Y194250D02*
X291250D01*
X294250Y279000D02*
Y313000D01*
X277750Y279000D02*
Y313000D01*
X294250D01*
X277750Y279000D02*
X294250D01*
X222700Y94000D02*
X327000D01*
X222700Y66000D02*
X327000D01*
X222700D02*
Y94000D01*
X327000Y66000D02*
Y94000D01*
X93000Y248000D02*
X121000D01*
X93000Y352300D02*
X121000D01*
X93000Y248000D02*
Y352300D01*
X121000Y248000D02*
Y352300D01*
D22*
X420500Y174750D02*
X480500D01*
X465500Y169750D02*
X480500Y174750D01*
X465500Y179750D02*
X480500Y174750D01*
X428000Y392500D02*
X488000D01*
X473000Y387500D02*
X488000Y392500D01*
X473000Y397500D02*
X488000Y392500D01*
X102500Y192500D02*
X117500Y187500D01*
X102500Y182500D02*
X117500Y187500D01*
X57500D02*
X117500D01*
M02*
