M48
;Layer_Color=9474304
;FILE_FORMAT=4:4
METRIC,LZ
;TYPE=PLATED
T1F00S00C0.5000
T2F00S00C0.7620
T3F00S00C1.1000
T5F00S00C3.0000
T6F00S00C4.8000
;TYPE=NON_PLATED
T7F00S00C0.9000
%
T01
X00302Y0004775
X003085
X0031525
X0032175
X00328
X00789Y000475
X0079525
X0080175
X008085
X00815
X01329
X0133525
X0134175
X013485
X01355
X0159225Y002845
Y00291
Y0029775
Y0030425
Y003105
X0108775Y00309
Y003155
Y0030225
Y0029575
Y002895
X010725Y00289
Y0029525
Y0030175
Y003085
Y00315
X005675Y00311
Y0030475
Y0029825
Y002915
Y00285
X0055225Y002845
Y00291
Y0029775
Y0030425
Y003105
X000475Y00311
Y0030475
Y0029825
Y002915
Y00285
X0004775Y008195
Y0082575
Y0083225
Y00839
Y008455
X002845Y0056775
X00291
X0029775
X0030425
X003105
X00311Y005525
X0030475
X0029825
X002915
X00285
X007995Y0055225
X0080575
X0081225
X00819
X008255
X00825Y005675
X008185
X0081175
X0080525
X00799
X0056775Y008095
Y0081575
Y0082225
Y00829
Y008355
X005525Y00835
Y008285
Y0082175
Y0081525
Y00809
X010725Y00829
Y0083525
Y0084175
Y008485
Y00855
X0108775Y008555
Y00849
Y0084225
Y0083575
Y008295
X013345Y0056775
X01341
X0134775
X0135425
X013605
X01361Y005525
X0135475
X0134825
X013415
X01335
X015925Y00799
Y0080525
Y0081175
Y008185
Y00825
X0159225Y012345
Y01241
Y0124775
Y0125425
Y012605
X013405Y0108775
X0133425
X0132775
X01321
X013145
X01315Y010725
X013215
X0132825
X0133475
X01341
X00911
X0090475
X0089825
X008915
X00891Y0108775
X0089775
X0090425
X009105
X009625Y01199
Y0120525
Y0121175
Y012185
Y01225
X0097775Y012255
Y01219
Y0121225
Y0120575
Y011995
X0081775Y012095
Y0121575
Y0122225
Y01229
Y012355
X008025Y01235
Y012285
Y0122175
Y0121525
Y01209
X0065775Y011755
Y01169
Y0116225
Y0115575
Y011495
X006425Y01149
Y0115525
Y0116175
Y011685
Y01175
X007145Y0108775
X00721
X0072775
X0073425
X007405
X00741Y010725
X0073475
X0072825
X007215
X00715
X00885
X008845Y0108775
X00531Y012325
X0052475
X0051825
X005115
X00505
X005045Y0124775
X00511
X0051775
X0052425
X005305
X00485Y010875
X004785
X0047175
X0046525
X00459
X004595Y0107225
X0046575
X0047225
X00479
X004855
X003775Y01145
Y011515
Y0115825
Y0116475
Y01171
X0036225Y011705
Y0116425
Y0115775
Y01151
Y011445
X00245Y010875
X002385
X0023175
X0022525
X00219
X002195Y0107225
X0022575
X0023225
X00239
X002455
X000975Y01145
Y011515
Y0115825
Y0116475
Y01171
X002575Y01305
Y013115
Y0131825
Y0132475
X0025825Y01331
X0016675Y013575
X0016025
X001535
X00147
X0014075
X0021125Y0159225
X002175
X00224
X0023075
X0023725
X00374Y015335
Y0152725
Y0152075
Y01514
Y015075
X003885Y01508
Y015145
Y0152125
Y0152775
Y01534
X00415Y013925
X004215
X0042825
X0043475
X00441
X00535Y01486
X00541Y0149
X00547Y01494
X00553Y01499
X0056Y01504
X00566Y0151
X00572Y0151525
X0057925Y01522
X00586Y01528
X006785Y01521
Y0151475
Y0150825
Y015015
Y01495
X006155Y0171225
X00609
X0060225
X0059575
X005895
X00875Y017125
X008815
X0088825
X0089475
X00901
X01335Y017125
X013415
X0134825
X0135475
X01361
X0159225Y015705
Y0156425
Y0155775
Y01551
Y015445
T02
X000175Y000175
X01625Y01745
T03
X0152Y0026041
Y0028581
Y0031121
Y0033661
X012581Y005095
X012327
X012073
X011819
X01Y0033661
Y0031121
Y0028581
Y0026041
X011819Y00152
X012073
X01232
X012581
X007381
X00712
X006873
X006619
X0066144Y005095
X0068684
X0071224
X0073764
X003127Y004832
X002873
X00153Y003381
Y003127
Y002873
Y002619
X0118144Y006716
X0120684
X0123154
X0125764
X0151926Y0077955
Y0080495
Y0083035
Y0085575
X0155Y012157
Y012411
Y012665
Y012919
X013531Y012
X013277
X013023
X012769
X01258Y0103
X012326
X012072
X011818
X01082Y0121545
Y0124085
Y0126625
Y0129165
X009276Y0131
X009022
X009019Y0113225
X009273
X008765
X008511
X007673
X007419
X007165
X006911
X0059775Y011211
Y011465
Y011719
Y011973
X006Y012806
Y01306
Y013314
X006914Y0131
X007168
X007422
X007676
X008514
X008768
X008581Y01
X008327
X008073
X007819
X003381Y01
X003127
X002873
X002619
X0031775Y011211
Y011465
Y011719
Y011973
X0042Y011976
Y011722
Y011468
Y011214
X00362Y012806
Y01306
Y013314
X0014Y011976
Y011722
Y011468
Y011214
X0013942Y0140087
X0016482
X0019022
X0011402
X0026881Y0148082
Y0150622
Y0153162
Y0155702
X00429988Y015454
Y0152
Y014946
Y014692
X00362Y013568
X006
X00719988Y014692
Y014946
Y0152
Y015454
X00638088Y0167
X00612688
X00587288
X00561888
X00851888Y0167
X00877288
X00902688
X00928088
X01082Y016126
Y015872
Y015618
Y015364
X01082Y0145085
Y0142545
Y0140005
Y0137465
X0155
Y0140005
Y0142545
Y0145085
Y0153625
Y0156165
Y0158705
Y0161245
T05
X0019Y0012
X0041
X0131Y00115
X0148
Y00485
X0131
X0096Y0041
Y0019
X0074
Y0041
X0041Y0044
X0019
X00115Y0071
Y0093
X00485
Y0071
X00635Y00735
Y00905
X01005
Y00735
X0131Y00635
X0148
Y01005
X0131
X01495Y01335
X01125
X00192962Y0144785
X00112962
Y0156045
X00230962
X01125Y01505
X01495
T06
X00095Y00095
X00505
X00615
X01025
X01135
X01545
Y00505
X01135
X01025
X00615
X00505
X00095
X00095Y00615
X00505
X00615
X01025
X01135Y00615
X01545
Y01025
X0155Y0113
X01135Y01025
X01025Y01025
X0102Y0113
X00615Y01025
X00505
X00095
X0102Y0167
X01545
T07
X00898605Y001
X00928605
X01534Y00172605
Y00202605
X005Y00284605
Y00314605
X01534Y0069
Y0072
X00715395Y01
X00685395
X00195395Y01
X00165395
X0133401Y016625
X0136401
M30
