G04 Layer_Color=32896*
%FSLAX44Y44*%
%MOMM*%
G71*
G01*
G75*
%ADD35C,0.0508*%
D35*
X279212Y233460D02*
Y245652D01*
X278704Y230412D02*
Y248700D01*
X278196Y227872D02*
Y250732D01*
X277688Y226348D02*
Y252764D01*
X277180Y224824D02*
Y254288D01*
X276672Y223300D02*
Y255304D01*
X276164Y221776D02*
Y256828D01*
X275656Y220760D02*
Y257844D01*
X275148Y219744D02*
Y258860D01*
X274640Y218728D02*
Y259876D01*
X274132Y217712D02*
Y260892D01*
X273624Y216696D02*
Y261908D01*
X273116Y215680D02*
Y262924D01*
X272608Y215172D02*
Y263432D01*
X272100Y214156D02*
Y264448D01*
X271592Y213648D02*
Y264956D01*
X271084Y212632D02*
Y265972D01*
X270576Y212124D02*
Y266480D01*
X270068Y211616D02*
Y266988D01*
X269560Y210600D02*
Y268004D01*
X269052Y210092D02*
Y268512D01*
X268544Y210092D02*
Y269020D01*
X268036Y209584D02*
Y269528D01*
X267528Y209076D02*
Y270036D01*
X267020Y243112D02*
Y270544D01*
Y209076D02*
Y235492D01*
X266512Y246160D02*
Y271052D01*
Y216188D02*
Y232444D01*
Y209076D02*
Y213648D01*
X266004Y248192D02*
Y271560D01*
Y216696D02*
Y230412D01*
Y208568D02*
Y213140D01*
X265496Y249716D02*
Y272068D01*
Y217204D02*
Y228888D01*
Y208568D02*
Y212632D01*
X264988Y251240D02*
Y272576D01*
Y217204D02*
Y227364D01*
Y208568D02*
Y212632D01*
X264480Y252256D02*
Y273084D01*
Y217204D02*
Y226348D01*
Y208568D02*
Y212632D01*
X263972Y253780D02*
Y273592D01*
Y217204D02*
Y225332D01*
Y208568D02*
Y212632D01*
X263464Y254796D02*
Y274100D01*
Y216696D02*
Y224316D01*
Y208568D02*
Y212632D01*
X262956Y255304D02*
Y274608D01*
Y235492D02*
Y243620D01*
Y216696D02*
Y223300D01*
Y209076D02*
Y213140D01*
X262448Y256320D02*
Y274608D01*
Y232444D02*
Y246160D01*
Y215680D02*
Y222284D01*
Y209076D02*
Y213648D01*
X261940Y257336D02*
Y275116D01*
Y230920D02*
Y248192D01*
Y209076D02*
Y221776D01*
X261432Y257844D02*
Y275624D01*
Y229396D02*
Y249716D01*
Y209584D02*
Y220760D01*
X260924Y258860D02*
Y276132D01*
Y227872D02*
Y250732D01*
Y210092D02*
Y220252D01*
X260416Y259368D02*
Y276132D01*
Y226856D02*
Y251748D01*
Y210092D02*
Y219236D01*
X259908Y259876D02*
Y276640D01*
Y225840D02*
Y252764D01*
Y211108D02*
Y218728D01*
X259400Y260384D02*
Y277148D01*
Y224824D02*
Y253780D01*
Y211616D02*
Y218220D01*
X258892Y261400D02*
Y277148D01*
Y224316D02*
Y254796D01*
Y212632D02*
Y216696D01*
X258384Y261908D02*
Y277656D01*
Y223300D02*
Y255304D01*
X257876Y262416D02*
Y278164D01*
Y222792D02*
Y256320D01*
X257368Y262924D02*
Y278164D01*
Y221776D02*
Y256828D01*
X256860Y263432D02*
Y278672D01*
Y221268D02*
Y257336D01*
X256352Y263940D02*
Y278672D01*
Y220760D02*
Y258352D01*
X255844Y263940D02*
Y279180D01*
Y220252D02*
Y258352D01*
X255336Y264448D02*
Y279688D01*
Y219744D02*
Y258860D01*
X254828Y264956D02*
Y279688D01*
Y219236D02*
Y259368D01*
X254320Y265464D02*
Y280196D01*
Y218728D02*
Y259368D01*
X253812Y265972D02*
Y280196D01*
Y218220D02*
Y259368D01*
X253304Y265972D02*
Y280704D01*
Y217712D02*
Y259876D01*
X252796Y266480D02*
Y280704D01*
Y217204D02*
Y259876D01*
X252288Y266988D02*
Y280704D01*
Y216696D02*
Y259876D01*
X251780Y266988D02*
Y281212D01*
Y216188D02*
Y259876D01*
X251272Y267496D02*
Y281212D01*
Y216188D02*
Y259876D01*
X250764Y268004D02*
Y281720D01*
Y241080D02*
Y259876D01*
Y215680D02*
Y237524D01*
X250256Y268004D02*
Y281720D01*
Y243620D02*
Y259368D01*
Y215172D02*
Y234984D01*
X249748Y268512D02*
Y281720D01*
Y245144D02*
Y259368D01*
Y215172D02*
Y233460D01*
X249240Y268512D02*
Y282228D01*
Y246668D02*
Y259368D01*
Y214664D02*
Y232444D01*
X248732Y269020D02*
Y282228D01*
Y247684D02*
Y258860D01*
Y214156D02*
Y231428D01*
X248224Y269020D02*
Y282228D01*
Y248192D02*
Y258352D01*
Y214156D02*
Y230412D01*
X247716Y269528D02*
Y282736D01*
Y249208D02*
Y258352D01*
Y213648D02*
Y229904D01*
X247208Y269528D02*
Y282736D01*
Y249716D02*
Y257844D01*
Y213648D02*
Y229396D01*
X246700Y269528D02*
Y282736D01*
Y250224D02*
Y256828D01*
Y213140D02*
Y228380D01*
X246192Y270036D02*
Y283244D01*
Y251748D02*
Y255812D01*
Y213140D02*
Y227872D01*
X245684Y270036D02*
Y283244D01*
Y212632D02*
Y227364D01*
X245176Y270544D02*
Y283244D01*
Y212632D02*
Y226856D01*
X244668Y270544D02*
Y283244D01*
Y212632D02*
Y226856D01*
X244160Y270544D02*
Y283752D01*
Y212124D02*
Y226348D01*
X243652Y271052D02*
Y283752D01*
Y212124D02*
Y225840D01*
X243144Y271052D02*
Y283752D01*
Y212124D02*
Y225332D01*
X242636Y271052D02*
Y283752D01*
Y211616D02*
Y225332D01*
X242128Y271052D02*
Y283752D01*
Y211616D02*
Y224824D01*
X241620Y271560D02*
Y284260D01*
Y211616D02*
Y224824D01*
X241112Y271560D02*
Y284260D01*
Y211108D02*
Y224316D01*
X240604Y238540D02*
Y284260D01*
Y211108D02*
Y224316D01*
X240096Y236508D02*
Y284260D01*
Y211108D02*
Y223808D01*
X239588Y235492D02*
Y284260D01*
Y211108D02*
Y223808D01*
X239080Y234984D02*
Y284260D01*
Y211108D02*
Y223808D01*
X238572Y234476D02*
Y284260D01*
Y211108D02*
Y223300D01*
X238064Y233968D02*
Y284260D01*
Y210600D02*
Y223300D01*
X237556Y240572D02*
Y284260D01*
Y233968D02*
Y238540D01*
Y210600D02*
Y223300D01*
X237048Y241080D02*
Y284260D01*
Y233460D02*
Y237524D01*
Y210600D02*
Y223300D01*
X236540Y242096D02*
Y284768D01*
Y233460D02*
Y237016D01*
Y210600D02*
Y223300D01*
X236032Y242096D02*
Y284768D01*
Y233460D02*
Y236508D01*
Y210600D02*
Y223300D01*
X235524Y242604D02*
Y284768D01*
Y232952D02*
Y236000D01*
Y210600D02*
Y222792D01*
X235016Y242604D02*
Y284768D01*
Y232952D02*
Y236000D01*
Y210600D02*
Y222792D01*
X234508Y242604D02*
Y284768D01*
Y232952D02*
Y236000D01*
Y210600D02*
Y222792D01*
X234000Y242604D02*
Y284768D01*
Y232952D02*
Y236000D01*
Y210600D02*
Y222792D01*
X233492Y242604D02*
Y284768D01*
Y232952D02*
Y236000D01*
Y210600D02*
Y222792D01*
X232984Y242096D02*
Y284768D01*
Y232952D02*
Y236508D01*
Y210600D02*
Y222792D01*
X232476Y242096D02*
Y284768D01*
Y233460D02*
Y236508D01*
Y210600D02*
Y223300D01*
X231968Y241588D02*
Y284768D01*
Y233460D02*
Y237016D01*
Y210600D02*
Y223300D01*
X231460Y241080D02*
Y284260D01*
Y233968D02*
Y238032D01*
Y210600D02*
Y223300D01*
X230952Y233968D02*
Y284260D01*
Y210600D02*
Y223300D01*
X230444Y234476D02*
Y284260D01*
Y210600D02*
Y223300D01*
X229936Y234984D02*
Y284260D01*
Y211108D02*
Y223808D01*
X229428Y235492D02*
Y284260D01*
Y211108D02*
Y223808D01*
X228920Y236508D02*
Y284260D01*
Y211108D02*
Y223808D01*
X228412Y238032D02*
Y284260D01*
Y211108D02*
Y224316D01*
X227904Y271560D02*
Y284260D01*
Y211108D02*
Y224316D01*
X227396Y271560D02*
Y284260D01*
Y211616D02*
Y224316D01*
X226888Y271560D02*
Y283752D01*
Y211616D02*
Y224824D01*
X226380Y271052D02*
Y283752D01*
Y211616D02*
Y225332D01*
X225872Y271052D02*
Y283752D01*
Y211616D02*
Y225332D01*
X225364Y271052D02*
Y283752D01*
Y212124D02*
Y225840D01*
X224856Y270544D02*
Y283752D01*
Y212124D02*
Y225840D01*
X224348Y270544D02*
Y283244D01*
Y212124D02*
Y226348D01*
X223840Y270544D02*
Y283244D01*
Y212632D02*
Y226856D01*
X223332Y270036D02*
Y283244D01*
Y212632D02*
Y227364D01*
X222824Y270036D02*
Y283244D01*
Y252256D02*
Y255304D01*
Y213140D02*
Y227872D01*
X222316Y270036D02*
Y282736D01*
Y250732D02*
Y256320D01*
Y213140D02*
Y228380D01*
X221808Y269528D02*
Y282736D01*
Y250224D02*
Y257336D01*
Y213648D02*
Y228888D01*
X221300Y269528D02*
Y282736D01*
Y249208D02*
Y257844D01*
Y213648D02*
Y229396D01*
X220792Y269020D02*
Y282736D01*
Y248700D02*
Y258352D01*
Y214156D02*
Y230412D01*
X220284Y269020D02*
Y282228D01*
Y247684D02*
Y258860D01*
Y214156D02*
Y230920D01*
X219776Y268512D02*
Y282228D01*
Y246668D02*
Y259368D01*
Y214664D02*
Y231936D01*
X219268Y268512D02*
Y282228D01*
Y245652D02*
Y259368D01*
Y214664D02*
Y232952D01*
X218760Y268004D02*
Y281720D01*
Y244636D02*
Y259368D01*
Y215172D02*
Y234476D01*
X218252Y268004D02*
Y281720D01*
Y242604D02*
Y259876D01*
Y215680D02*
Y236508D01*
X217744Y267496D02*
Y281212D01*
Y215680D02*
Y259876D01*
X217236Y267496D02*
Y281212D01*
Y216188D02*
Y259876D01*
X216728Y266988D02*
Y281212D01*
Y216696D02*
Y259876D01*
X216220Y266480D02*
Y280704D01*
Y217204D02*
Y259876D01*
X215712Y266480D02*
Y280704D01*
Y217204D02*
Y259876D01*
X215204Y265972D02*
Y280196D01*
Y217712D02*
Y259876D01*
X214696Y265464D02*
Y280196D01*
Y218220D02*
Y259368D01*
X214188Y264956D02*
Y279688D01*
Y218728D02*
Y259368D01*
X213680Y264956D02*
Y279688D01*
Y219236D02*
Y258860D01*
X213172Y264448D02*
Y279180D01*
Y219744D02*
Y258860D01*
X212664Y263940D02*
Y279180D01*
Y220252D02*
Y258352D01*
X212156Y263432D02*
Y278672D01*
Y221268D02*
Y257844D01*
X211648Y262924D02*
Y278672D01*
Y221776D02*
Y257336D01*
X211140Y262416D02*
Y278164D01*
Y222284D02*
Y256320D01*
X210632Y261908D02*
Y277656D01*
Y222792D02*
Y255812D01*
X210124Y261400D02*
Y277656D01*
Y223808D02*
Y255304D01*
Y213648D02*
Y216188D01*
X209616Y260892D02*
Y277148D01*
Y224824D02*
Y254288D01*
Y212124D02*
Y217712D01*
X209108Y260384D02*
Y276640D01*
Y225332D02*
Y253272D01*
Y211108D02*
Y218220D01*
X208600Y259368D02*
Y276640D01*
Y226348D02*
Y252256D01*
Y210600D02*
Y219236D01*
X208092Y258860D02*
Y276132D01*
Y227364D02*
Y251240D01*
Y210092D02*
Y219744D01*
X207584Y258352D02*
Y275624D01*
Y228888D02*
Y250224D01*
Y209584D02*
Y220252D01*
X207076Y257336D02*
Y275624D01*
Y229904D02*
Y248700D01*
Y209584D02*
Y221268D01*
X206568Y256828D02*
Y275116D01*
Y231936D02*
Y247176D01*
Y209076D02*
Y221776D01*
X206060Y255812D02*
Y274608D01*
Y233968D02*
Y244636D01*
Y216188D02*
Y222792D01*
Y209076D02*
Y213648D01*
X205552Y254796D02*
Y274100D01*
Y216696D02*
Y223808D01*
Y208568D02*
Y213140D01*
X205044Y253780D02*
Y273592D01*
Y217204D02*
Y224824D01*
Y208568D02*
Y212632D01*
X204536Y252764D02*
Y273084D01*
Y217204D02*
Y225840D01*
Y208568D02*
Y212632D01*
X204028Y251748D02*
Y273084D01*
Y217204D02*
Y226856D01*
Y208568D02*
Y212632D01*
X203520Y250732D02*
Y272576D01*
Y217204D02*
Y228380D01*
Y208568D02*
Y212632D01*
X203012Y249208D02*
Y272068D01*
Y216696D02*
Y229904D01*
Y208568D02*
Y212632D01*
X202504Y247176D02*
Y271560D01*
Y216696D02*
Y231428D01*
Y208568D02*
Y213140D01*
X201996Y244636D02*
Y271052D01*
Y215680D02*
Y233968D01*
Y209076D02*
Y213648D01*
X201488Y209076D02*
Y270544D01*
X200980Y209584D02*
Y270036D01*
X200472Y209584D02*
Y269528D01*
X199964Y210092D02*
Y268512D01*
X199456Y210600D02*
Y268004D01*
X198948Y211108D02*
Y267496D01*
X198440Y212124D02*
Y266988D01*
X197932Y212632D02*
Y265972D01*
X197424Y213140D02*
Y265464D01*
X196916Y214156D02*
Y264956D01*
X196408Y214664D02*
Y263940D01*
X195900Y215680D02*
Y262924D01*
X195392Y216188D02*
Y262416D01*
X194884Y217204D02*
Y261400D01*
X194376Y218220D02*
Y260384D01*
X193868Y219236D02*
Y259368D01*
X193360Y220252D02*
Y258352D01*
X192852Y221268D02*
Y257336D01*
X192344Y222792D02*
Y255812D01*
X191836Y223808D02*
Y254796D01*
X191328Y225332D02*
Y253272D01*
X190820Y227364D02*
Y251748D01*
X190312Y229396D02*
Y249716D01*
X189804Y231936D02*
Y246668D01*
X189296Y236000D02*
Y242604D01*
M02*
