G04 Layer_Physical_Order=2*
G04 Layer_Color=16711680*
%FSLAX44Y44*%
%MOMM*%
G71*
G01*
G75*
%ADD14C,0.6000*%
%ADD15P,1.9483X8X112.5*%
%ADD16C,1.8000*%
%ADD17P,1.9483X8X22.5*%
%ADD18C,4.0000*%
%ADD19C,5.5000*%
G36*
X475109Y495686D02*
X480022Y494196D01*
X484550Y491776D01*
X488518Y488519D01*
X491776Y484550D01*
X494196Y480022D01*
X495686Y475109D01*
X496165Y470248D01*
X496115Y470000D01*
X496115Y30000D01*
X496165Y29752D01*
X495686Y24891D01*
X494196Y19978D01*
X491776Y15450D01*
X488518Y11482D01*
X484550Y8225D01*
X480022Y5804D01*
X475109Y4314D01*
X471250Y3934D01*
X470000Y3885D01*
X470000Y3885D01*
X468730Y3885D01*
X31269Y3885D01*
X30000Y3885D01*
X28750Y3934D01*
X24891Y4314D01*
X19978Y5804D01*
X15450Y8225D01*
X11481Y11482D01*
X8225Y15450D01*
X5804Y19978D01*
X4314Y24891D01*
X3934Y28751D01*
X3885Y30000D01*
X3885Y30000D01*
X3885Y31252D01*
X3885Y470000D01*
X3835Y470248D01*
X4314Y475109D01*
X5804Y480022D01*
X8225Y484550D01*
X11481Y488519D01*
X15450Y491776D01*
X19978Y494196D01*
X24891Y495686D01*
X29752Y496165D01*
X30000Y496115D01*
X470000Y496115D01*
X470248Y496165D01*
X475109Y495686D01*
D02*
G37*
%LPC*%
G36*
X142700Y471139D02*
X139688Y470743D01*
X136880Y469580D01*
X134470Y467730D01*
X132620Y465320D01*
X131457Y462513D01*
X131060Y459500D01*
X131457Y456488D01*
X132620Y453680D01*
X134470Y451270D01*
X136351Y449826D01*
Y112151D01*
X136180Y112080D01*
X133770Y110230D01*
X131920Y107820D01*
X130757Y105013D01*
X130360Y102000D01*
X130757Y98988D01*
X131920Y96180D01*
X133770Y93770D01*
X136180Y91920D01*
X138988Y90757D01*
X142000Y90360D01*
X145013Y90757D01*
X147820Y91920D01*
X150230Y93770D01*
X152080Y96180D01*
X153243Y98988D01*
X153639Y102000D01*
X153243Y105013D01*
X152080Y107820D01*
X150230Y110230D01*
X147820Y112080D01*
X147648Y112151D01*
Y449059D01*
X148520Y449420D01*
X150930Y451270D01*
X152780Y453680D01*
X153943Y456488D01*
X154340Y459500D01*
X153943Y462513D01*
X152780Y465320D01*
X150930Y467730D01*
X148520Y469580D01*
X145712Y470743D01*
X142700Y471139D01*
D02*
G37*
G36*
X117300D02*
X114288Y470743D01*
X111480Y469580D01*
X109070Y467730D01*
X107220Y465320D01*
X106057Y462513D01*
X105660Y459500D01*
X106057Y456488D01*
X107220Y453680D01*
X109070Y451270D01*
X111480Y449420D01*
X111651Y449349D01*
Y112151D01*
X111480Y112080D01*
X109070Y110230D01*
X107220Y107820D01*
X106057Y105013D01*
X105660Y102000D01*
X106057Y98988D01*
X107220Y96180D01*
X109070Y93770D01*
X111480Y91920D01*
X114288Y90757D01*
X117300Y90360D01*
X120312Y90757D01*
X123120Y91920D01*
X125530Y93770D01*
X127380Y96180D01*
X128543Y98988D01*
X128940Y102000D01*
X128543Y105013D01*
X127380Y107820D01*
X125530Y110230D01*
X123120Y112080D01*
X122949Y112151D01*
Y449349D01*
X123120Y449420D01*
X125530Y451270D01*
X127380Y453680D01*
X128543Y456488D01*
X128940Y459500D01*
X128543Y462513D01*
X127380Y465320D01*
X125530Y467730D01*
X123120Y469580D01*
X120312Y470743D01*
X117300Y471139D01*
D02*
G37*
G36*
X96400Y113590D02*
X87400D01*
X86409Y113393D01*
X85569Y112831D01*
X81069Y108331D01*
X80507Y107491D01*
X80310Y106500D01*
Y97500D01*
X80507Y96509D01*
X81069Y95669D01*
X85569Y91169D01*
X86409Y90607D01*
X87400Y90410D01*
X96400D01*
X97391Y90607D01*
X98231Y91169D01*
X102731Y95669D01*
X103293Y96509D01*
X103490Y97500D01*
Y106500D01*
X103293Y107491D01*
X102731Y108331D01*
X98231Y112831D01*
X97391Y113393D01*
X96400Y113590D01*
D02*
G37*
G36*
X168100Y471139D02*
X165088Y470743D01*
X162280Y469580D01*
X159870Y467730D01*
X158020Y465320D01*
X156857Y462513D01*
X156460Y459500D01*
X156857Y456488D01*
X158020Y453680D01*
X159870Y451270D01*
X162280Y449420D01*
X162451Y449349D01*
Y112151D01*
X162280Y112080D01*
X159870Y110230D01*
X158020Y107820D01*
X156857Y105013D01*
X156460Y102000D01*
X156857Y98988D01*
X158020Y96180D01*
X159870Y93770D01*
X162280Y91920D01*
X165088Y90757D01*
X168100Y90360D01*
X171112Y90757D01*
X173920Y91920D01*
X176330Y93770D01*
X178180Y96180D01*
X179343Y98988D01*
X179739Y102000D01*
X179343Y105013D01*
X178180Y107820D01*
X176330Y110230D01*
X173920Y112080D01*
X173748Y112151D01*
Y449349D01*
X173920Y449420D01*
X176330Y451270D01*
X178180Y453680D01*
X179343Y456488D01*
X179739Y459500D01*
X179343Y462513D01*
X178180Y465320D01*
X176330Y467730D01*
X173920Y469580D01*
X171112Y470743D01*
X168100Y471139D01*
D02*
G37*
G36*
X455000Y75133D02*
X450286Y74762D01*
X445688Y73658D01*
X441320Y71849D01*
X437288Y69378D01*
X433693Y66307D01*
X430622Y62712D01*
X428151Y58680D01*
X426342Y54312D01*
X425238Y49714D01*
X424867Y45000D01*
X425238Y40286D01*
X426342Y35689D01*
X428151Y31320D01*
X430622Y27288D01*
X433693Y23693D01*
X437288Y20622D01*
X441320Y18152D01*
X445688Y16342D01*
X450286Y15238D01*
X455000Y14867D01*
X459714Y15238D01*
X464312Y16342D01*
X468680Y18152D01*
X472712Y20622D01*
X476307Y23693D01*
X479378Y27288D01*
X481849Y31320D01*
X483658Y35689D01*
X484762Y40286D01*
X485133Y45000D01*
X484762Y49714D01*
X483658Y54312D01*
X481849Y58680D01*
X479378Y62712D01*
X476307Y66307D01*
X472712Y69378D01*
X468680Y71849D01*
X464312Y73658D01*
X459714Y74762D01*
X455000Y75133D01*
D02*
G37*
G36*
X45000D02*
X40286Y74762D01*
X35688Y73658D01*
X31320Y71849D01*
X27288Y69378D01*
X23693Y66307D01*
X20622Y62712D01*
X18151Y58680D01*
X16342Y54312D01*
X15238Y49714D01*
X14867Y45000D01*
X15238Y40286D01*
X16342Y35689D01*
X18151Y31320D01*
X20622Y27288D01*
X23693Y23693D01*
X27288Y20622D01*
X31320Y18152D01*
X35688Y16342D01*
X40286Y15238D01*
X45000Y14867D01*
X49714Y15238D01*
X54311Y16342D01*
X58680Y18152D01*
X62712Y20622D01*
X66307Y23693D01*
X69378Y27288D01*
X71849Y31320D01*
X73658Y35689D01*
X74762Y40286D01*
X75133Y45000D01*
X74762Y49714D01*
X73658Y54312D01*
X71849Y58680D01*
X69378Y62712D01*
X66307Y66307D01*
X62712Y69378D01*
X58680Y71849D01*
X54311Y73658D01*
X49714Y74762D01*
X45000Y75133D01*
D02*
G37*
G36*
X390000Y87649D02*
X385581Y87214D01*
X381333Y85925D01*
X377417Y83832D01*
X373985Y81015D01*
X371168Y77583D01*
X369075Y73667D01*
X367786Y69419D01*
X367351Y65000D01*
X367786Y60581D01*
X369075Y56333D01*
X371168Y52417D01*
X373985Y48985D01*
X377417Y46168D01*
X381333Y44075D01*
X385581Y42786D01*
X390000Y42351D01*
X394419Y42786D01*
X398667Y44075D01*
X402583Y46168D01*
X406015Y48985D01*
X408832Y52417D01*
X410925Y56333D01*
X412214Y60581D01*
X412649Y65000D01*
X412214Y69419D01*
X410925Y73667D01*
X408832Y77583D01*
X406015Y81015D01*
X402583Y83832D01*
X398667Y85925D01*
X394419Y87214D01*
X390000Y87649D01*
D02*
G37*
G36*
X220000D02*
X215581Y87214D01*
X211333Y85925D01*
X207417Y83832D01*
X203985Y81015D01*
X201168Y77583D01*
X199075Y73667D01*
X197786Y69419D01*
X197351Y65000D01*
X197786Y60581D01*
X199075Y56333D01*
X201168Y52417D01*
X203985Y48985D01*
X207417Y46168D01*
X211333Y44075D01*
X215581Y42786D01*
X220000Y42351D01*
X224419Y42786D01*
X228667Y44075D01*
X232583Y46168D01*
X236015Y48985D01*
X238832Y52417D01*
X240925Y56333D01*
X242214Y60581D01*
X242649Y65000D01*
X242214Y69419D01*
X240925Y73667D01*
X238832Y77583D01*
X236015Y81015D01*
X232583Y83832D01*
X228667Y85925D01*
X224419Y87214D01*
X220000Y87649D01*
D02*
G37*
G36*
X45000Y485133D02*
X40286Y484762D01*
X35688Y483658D01*
X31320Y481849D01*
X27288Y479378D01*
X23693Y476307D01*
X20622Y472712D01*
X18151Y468680D01*
X16342Y464312D01*
X15238Y459714D01*
X14867Y455000D01*
X15238Y450286D01*
X16342Y445689D01*
X18151Y441320D01*
X20622Y437288D01*
X23693Y433693D01*
X27288Y430622D01*
X31320Y428152D01*
X35688Y426342D01*
X40286Y425238D01*
X45000Y424867D01*
X49714Y425238D01*
X54311Y426342D01*
X58680Y428152D01*
X62712Y430622D01*
X66307Y433693D01*
X69378Y437288D01*
X71849Y441320D01*
X73658Y445689D01*
X74762Y450286D01*
X75133Y455000D01*
X74762Y459714D01*
X73658Y464312D01*
X71849Y468680D01*
X69378Y472712D01*
X66307Y476307D01*
X62712Y479378D01*
X58680Y481849D01*
X54311Y483658D01*
X49714Y484762D01*
X45000Y485133D01*
D02*
G37*
G36*
X390000Y457649D02*
X385581Y457214D01*
X381333Y455925D01*
X377417Y453832D01*
X373985Y451015D01*
X371168Y447583D01*
X369075Y443667D01*
X367786Y439419D01*
X367351Y435000D01*
X367786Y430582D01*
X369075Y426333D01*
X371168Y422417D01*
X373985Y418985D01*
X377417Y416168D01*
X381333Y414075D01*
X385581Y412786D01*
X390000Y412351D01*
X394419Y412786D01*
X398667Y414075D01*
X402583Y416168D01*
X406015Y418985D01*
X408832Y422417D01*
X410925Y426333D01*
X412214Y430582D01*
X412649Y435000D01*
X412214Y439419D01*
X410925Y443667D01*
X408832Y447583D01*
X406015Y451015D01*
X402583Y453832D01*
X398667Y455925D01*
X394419Y457214D01*
X390000Y457649D01*
D02*
G37*
G36*
X91900Y471139D02*
X88888Y470743D01*
X86080Y469580D01*
X83670Y467730D01*
X81820Y465320D01*
X80657Y462513D01*
X80260Y459500D01*
X80657Y456488D01*
X81820Y453680D01*
X83670Y451270D01*
X86080Y449420D01*
X88888Y448257D01*
X91900Y447860D01*
X94913Y448257D01*
X97720Y449420D01*
X100130Y451270D01*
X101980Y453680D01*
X103143Y456488D01*
X103539Y459500D01*
X103143Y462513D01*
X101980Y465320D01*
X100130Y467730D01*
X97720Y469580D01*
X94913Y470743D01*
X91900Y471139D01*
D02*
G37*
G36*
X455000Y485133D02*
X450286Y484762D01*
X445688Y483658D01*
X441320Y481849D01*
X437288Y479378D01*
X433693Y476307D01*
X430622Y472712D01*
X428151Y468680D01*
X426342Y464312D01*
X425238Y459714D01*
X424867Y455000D01*
X425238Y450286D01*
X426342Y445689D01*
X428151Y441320D01*
X430622Y437288D01*
X433693Y433693D01*
X437288Y430622D01*
X441320Y428152D01*
X445688Y426342D01*
X450286Y425238D01*
X455000Y424867D01*
X459714Y425238D01*
X464312Y426342D01*
X468680Y428152D01*
X472712Y430622D01*
X476307Y433693D01*
X479378Y437288D01*
X481849Y441320D01*
X483658Y445689D01*
X484762Y450286D01*
X485133Y455000D01*
X484762Y459714D01*
X483658Y464312D01*
X481849Y468680D01*
X479378Y472712D01*
X476307Y476307D01*
X472712Y479378D01*
X468680Y481849D01*
X464312Y483658D01*
X459714Y484762D01*
X455000Y485133D01*
D02*
G37*
G36*
X444505Y159733D02*
X443495D01*
X441739Y159384D01*
X440805Y158997D01*
X439317Y158003D01*
X439317Y158003D01*
X438602Y157288D01*
X438602Y157288D01*
X437608Y155800D01*
X437221Y154866D01*
X436872Y153110D01*
Y152855D01*
X436822Y152605D01*
X436872Y152355D01*
Y152100D01*
X437221Y150344D01*
X437608Y149411D01*
X438602Y147922D01*
X438602Y147922D01*
X439317Y147208D01*
X439317Y147208D01*
X440805Y146213D01*
X441739Y145826D01*
X443495Y145477D01*
X444505D01*
X446261Y145826D01*
X447195Y146213D01*
X448683Y147208D01*
X448683Y147208D01*
X449398Y147922D01*
X449398Y147922D01*
X450392Y149411D01*
X450779Y150344D01*
X451128Y152100D01*
Y152355D01*
X451178Y152605D01*
X451128Y152855D01*
Y153110D01*
X450779Y154866D01*
X450392Y155800D01*
X449398Y157288D01*
X449398Y157288D01*
X448683Y158003D01*
X448683Y158003D01*
X447195Y158997D01*
X446261Y159384D01*
X444505Y159733D01*
D02*
G37*
G36*
Y129733D02*
X443495D01*
X441739Y129384D01*
X440805Y128997D01*
X439317Y128003D01*
X439317Y128003D01*
X438602Y127288D01*
X438602Y127288D01*
X437608Y125800D01*
X437221Y124866D01*
X436872Y123110D01*
Y122855D01*
X436822Y122605D01*
X436872Y122355D01*
Y122100D01*
X437221Y120344D01*
X437608Y119411D01*
X438602Y117922D01*
X438602Y117922D01*
X439317Y117208D01*
X439317Y117208D01*
X440805Y116213D01*
X441739Y115826D01*
X443495Y115477D01*
X444505D01*
X446261Y115826D01*
X447195Y116213D01*
X448683Y117208D01*
X448683Y117208D01*
X449398Y117922D01*
X449398Y117922D01*
X450392Y119411D01*
X450779Y120344D01*
X451128Y122100D01*
Y122355D01*
X451178Y122605D01*
X451128Y122855D01*
Y123110D01*
X450779Y124866D01*
X450392Y125800D01*
X449398Y127288D01*
X449398Y127288D01*
X448683Y128003D01*
X448683Y128003D01*
X447195Y128997D01*
X446261Y129384D01*
X444505Y129733D01*
D02*
G37*
G36*
X220000Y457649D02*
X215581Y457214D01*
X211333Y455925D01*
X207417Y453832D01*
X203985Y451015D01*
X201168Y447583D01*
X199075Y443667D01*
X197786Y439419D01*
X197351Y435000D01*
X197786Y430582D01*
X199075Y426333D01*
X201168Y422417D01*
X203985Y418985D01*
X207417Y416168D01*
X211333Y414075D01*
X215581Y412786D01*
X220000Y412351D01*
X224419Y412786D01*
X228667Y414075D01*
X232583Y416168D01*
X236015Y418985D01*
X238832Y422417D01*
X240925Y426333D01*
X242214Y430582D01*
X242649Y435000D01*
X242214Y439419D01*
X240925Y443667D01*
X238832Y447583D01*
X236015Y451015D01*
X232583Y453832D01*
X228667Y455925D01*
X224419Y457214D01*
X220000Y457649D01*
D02*
G37*
G36*
X430000Y298250D02*
X426987Y297853D01*
X424180Y296690D01*
X421770Y294841D01*
X419920Y292430D01*
X418757Y289623D01*
X418360Y286610D01*
X418757Y283598D01*
X419920Y280790D01*
X421770Y278380D01*
X424180Y276530D01*
X426987Y275367D01*
X430000Y274971D01*
X433013Y275367D01*
X435820Y276530D01*
X438230Y278380D01*
X438940Y279305D01*
X440210Y278874D01*
Y268947D01*
X438940Y268515D01*
X438230Y269441D01*
X435820Y271290D01*
X433013Y272453D01*
X430000Y272850D01*
X426987Y272453D01*
X424180Y271290D01*
X421770Y269441D01*
X419920Y267030D01*
X418757Y264223D01*
X418360Y261210D01*
X418757Y258198D01*
X419920Y255390D01*
X421770Y252980D01*
X424180Y251130D01*
X426987Y249967D01*
X430000Y249571D01*
X433013Y249967D01*
X435820Y251130D01*
X438230Y252980D01*
X438940Y253905D01*
X440210Y253474D01*
Y243547D01*
X438940Y243116D01*
X438230Y244041D01*
X435820Y245890D01*
X433013Y247053D01*
X430000Y247450D01*
X426987Y247053D01*
X424180Y245890D01*
X421770Y244041D01*
X419920Y241630D01*
X418757Y238823D01*
X418360Y235810D01*
X418757Y232798D01*
X419920Y229990D01*
X421770Y227580D01*
X424180Y225730D01*
X426987Y224567D01*
X430000Y224171D01*
X433013Y224567D01*
X435820Y225730D01*
X438230Y227580D01*
X438940Y228505D01*
X440210Y228074D01*
Y219022D01*
X439037Y218536D01*
X436331Y221241D01*
X435491Y221803D01*
X434500Y222000D01*
X425500D01*
X424509Y221803D01*
X423669Y221241D01*
X419169Y216741D01*
X418607Y215901D01*
X418410Y214910D01*
Y205910D01*
X418607Y204919D01*
X419169Y204079D01*
X423669Y199579D01*
X424509Y199018D01*
X425500Y198820D01*
X434500D01*
X435491Y199018D01*
X436331Y199579D01*
X440831Y204079D01*
X441393Y204919D01*
X441590Y205910D01*
Y212366D01*
X442800Y213420D01*
X462800D01*
X463791Y213617D01*
X464631Y214179D01*
X465193Y215019D01*
X465390Y216010D01*
Y281010D01*
X465193Y282001D01*
X464631Y282841D01*
X463791Y283403D01*
X462800Y283600D01*
X442800D01*
X442517Y283544D01*
X441364Y284517D01*
X441640Y286610D01*
X441243Y289623D01*
X440080Y292430D01*
X438230Y294841D01*
X435820Y296690D01*
X433013Y297853D01*
X430000Y298250D01*
D02*
G37*
%LPD*%
D14*
X117300Y102000D02*
Y459500D01*
X142000Y458800D02*
X142700Y459500D01*
X142000Y102000D02*
Y458800D01*
X168100Y102000D02*
Y459500D01*
D15*
X430000Y210410D02*
D03*
D16*
Y235810D02*
D03*
Y261210D02*
D03*
Y286610D02*
D03*
X117300Y102000D02*
D03*
X142000D02*
D03*
X168100D02*
D03*
X91900Y459500D02*
D03*
X168100D02*
D03*
X142700D02*
D03*
X117300D02*
D03*
D17*
X91900Y102000D02*
D03*
D18*
X220000Y65000D02*
D03*
X390000D02*
D03*
Y435000D02*
D03*
X220000D02*
D03*
D19*
X45000Y455000D02*
D03*
X455000D02*
D03*
X45000Y45000D02*
D03*
X455000D02*
D03*
M02*
