G04 Layer_Color=8388736*
%FSLAX44Y44*%
%MOMM*%
G71*
G01*
G75*
%ADD24R,1.4532X1.1032*%
%ADD25R,1.1032X1.0032*%
%ADD26R,1.1532X1.0532*%
%ADD27R,1.8032X1.7032*%
%ADD28C,0.2032*%
G04:AMPARAMS|DCode=29|XSize=0.2032mm|YSize=0.2032mm|CornerRadius=0mm|HoleSize=0mm|Usage=FLASHONLY|Rotation=90.000|XOffset=0mm|YOffset=0mm|HoleType=Round|Shape=RoundedRectangle|*
%AMROUNDEDRECTD29*
21,1,0.2032,0.2032,0,0,90.0*
21,1,0.2032,0.2032,0,0,90.0*
1,1,0.0000,0.1016,0.1016*
1,1,0.0000,0.1016,-0.1016*
1,1,0.0000,-0.1016,-0.1016*
1,1,0.0000,-0.1016,0.1016*
%
%ADD29ROUNDEDRECTD29*%
%ADD30P,2.1683X8X112.5*%
%ADD31C,2.0032*%
%ADD32P,2.1683X8X22.5*%
%ADD33C,4.2032*%
%ADD34C,5.7032*%
D24*
X422250Y111605D02*
D03*
Y144605D02*
D03*
Y159605D02*
D03*
D25*
X454000Y176105D02*
D03*
X434000D02*
D03*
X454000Y99105D02*
D03*
X434000D02*
D03*
D26*
X330000Y271000D02*
D03*
Y258000D02*
D03*
D27*
X305000Y232000D02*
D03*
Y268000D02*
D03*
D28*
X444000Y152605D02*
D03*
Y122605D02*
D03*
D29*
X452800Y248510D02*
D03*
D30*
X430000Y210410D02*
D03*
D31*
Y235810D02*
D03*
Y261210D02*
D03*
Y286610D02*
D03*
X117300Y102000D02*
D03*
X142000D02*
D03*
X168100D02*
D03*
X91900Y459500D02*
D03*
X168100D02*
D03*
X142700D02*
D03*
X117300D02*
D03*
D32*
X91900Y102000D02*
D03*
D33*
X220000Y65000D02*
D03*
X390000D02*
D03*
Y435000D02*
D03*
X220000D02*
D03*
D34*
X45000Y455000D02*
D03*
X455000D02*
D03*
X45000Y45000D02*
D03*
X455000D02*
D03*
M02*
