G04 Layer_Physical_Order=2*
G04 Layer_Color=16711680*
%FSLAX44Y44*%
%MOMM*%
G71*
G01*
G75*
%ADD14C,0.6000*%
%ADD16P,1.9483X8X292.5*%
%ADD17C,1.8000*%
%ADD18P,1.9483X8X22.5*%
%ADD19C,4.0000*%
%ADD20C,6.0000*%
%ADD21R,0.5000X0.4000*%
%ADD22C,0.3000*%
G36*
X602381Y625749D02*
X604400Y624400D01*
X605749Y622381D01*
X606189Y620167D01*
X606156Y620000D01*
Y20000D01*
X606189Y19833D01*
X605749Y17619D01*
X604400Y15600D01*
X602381Y14251D01*
X601209Y14018D01*
X600000Y13844D01*
X600000Y13844D01*
X598756Y13844D01*
X10000D01*
X9833Y13811D01*
X7619Y14251D01*
X5600Y15600D01*
X4251Y17619D01*
X4016Y18801D01*
X3844Y20000D01*
X3844D01*
Y620000D01*
X3811Y620167D01*
X4251Y622381D01*
X5600Y624400D01*
X7619Y625749D01*
X9833Y626189D01*
X10000Y626156D01*
X600000D01*
X600167Y626189D01*
X602381Y625749D01*
D02*
G37*
%LPC*%
G36*
X102000Y306249D02*
X98998Y305854D01*
X96200Y304695D01*
X93798Y302852D01*
X91955Y300450D01*
X90796Y297652D01*
X90401Y294650D01*
X90796Y291648D01*
X91955Y288850D01*
X93798Y286448D01*
X96200Y284605D01*
X98998Y283446D01*
X102000Y283051D01*
X105002Y283446D01*
X107800Y284605D01*
X110202Y286448D01*
X112045Y288850D01*
X113204Y291648D01*
X113599Y294650D01*
X113204Y297652D01*
X112045Y300450D01*
X110202Y302852D01*
X107800Y304695D01*
X105002Y305854D01*
X102000Y306249D01*
D02*
G37*
G36*
X515000Y277609D02*
X510589Y277174D01*
X506348Y275888D01*
X502439Y273799D01*
X499013Y270987D01*
X496201Y267561D01*
X494112Y263652D01*
X492826Y259411D01*
X492391Y255000D01*
X492826Y250589D01*
X494112Y246348D01*
X496201Y242439D01*
X499013Y239013D01*
X502439Y236201D01*
X506348Y234112D01*
X510589Y232826D01*
X515000Y232391D01*
X519411Y232826D01*
X523652Y234112D01*
X527561Y236201D01*
X530987Y239013D01*
X533799Y242439D01*
X535888Y246348D01*
X537174Y250589D01*
X537609Y255000D01*
X537174Y259411D01*
X535888Y263652D01*
X533799Y267561D01*
X530987Y270987D01*
X527561Y273799D01*
X523652Y275888D01*
X519411Y277174D01*
X515000Y277609D01*
D02*
G37*
G36*
X145000D02*
X140589Y277174D01*
X136348Y275888D01*
X132439Y273799D01*
X129013Y270987D01*
X126201Y267561D01*
X124112Y263652D01*
X122826Y259411D01*
X122391Y255000D01*
X122826Y250589D01*
X124112Y246348D01*
X126201Y242439D01*
X129013Y239013D01*
X132439Y236201D01*
X136348Y234112D01*
X140589Y232826D01*
X145000Y232391D01*
X149411Y232826D01*
X153652Y234112D01*
X157561Y236201D01*
X160987Y239013D01*
X163799Y242439D01*
X165888Y246348D01*
X167174Y250589D01*
X167609Y255000D01*
X167174Y259411D01*
X165888Y263652D01*
X163799Y267561D01*
X160987Y270987D01*
X157561Y273799D01*
X153652Y275888D01*
X149411Y277174D01*
X145000Y277609D01*
D02*
G37*
G36*
X570000Y544049D02*
X566998Y543654D01*
X564200Y542495D01*
X561798Y540652D01*
X559955Y538250D01*
X558796Y535452D01*
X558401Y532450D01*
X558796Y529448D01*
X559955Y526650D01*
X561798Y524248D01*
X564200Y522405D01*
X566998Y521246D01*
X570000Y520851D01*
X573002Y521246D01*
X575800Y522405D01*
X578202Y524248D01*
X580045Y526650D01*
X580125Y526842D01*
X587392D01*
Y377211D01*
X586122Y376215D01*
X584900Y376458D01*
X580125D01*
X580045Y376650D01*
X578202Y379052D01*
X575800Y380895D01*
X573002Y382054D01*
X570000Y382449D01*
X566998Y382054D01*
X564200Y380895D01*
X561798Y379052D01*
X559955Y376650D01*
X558796Y373852D01*
X558401Y370850D01*
X558796Y367848D01*
X559955Y365050D01*
X561798Y362648D01*
X564200Y360805D01*
X566998Y359646D01*
X570000Y359251D01*
X573002Y359646D01*
X575800Y360805D01*
X578202Y362648D01*
X580045Y365050D01*
X580125Y365242D01*
X582577D01*
X587392Y360427D01*
Y237223D01*
X573194Y223025D01*
X573002Y223104D01*
X570000Y223499D01*
X566998Y223104D01*
X564200Y221945D01*
X561798Y220102D01*
X559955Y217700D01*
X558796Y214902D01*
X558401Y211900D01*
X558796Y208898D01*
X559955Y206100D01*
X561798Y203698D01*
X564200Y201855D01*
X566998Y200696D01*
X570000Y200301D01*
X573002Y200696D01*
X575800Y201855D01*
X578202Y203698D01*
X580045Y206100D01*
X581204Y208898D01*
X581599Y211900D01*
X581204Y214902D01*
X581124Y215094D01*
X596965Y230935D01*
X598181Y232754D01*
X598608Y234900D01*
Y362750D01*
Y531250D01*
X598181Y533396D01*
X596965Y535215D01*
X595765Y536415D01*
X593946Y537631D01*
X591800Y538058D01*
X580125D01*
X580045Y538250D01*
X578202Y540652D01*
X575800Y542495D01*
X573002Y543654D01*
X570000Y544049D01*
D02*
G37*
G36*
Y357049D02*
X566998Y356654D01*
X564200Y355495D01*
X561798Y353652D01*
X559955Y351250D01*
X559875Y351058D01*
X112125D01*
X112045Y351250D01*
X110202Y353652D01*
X107800Y355495D01*
X105002Y356654D01*
X102000Y357049D01*
X98998Y356654D01*
X96200Y355495D01*
X93798Y353652D01*
X91955Y351250D01*
X90796Y348452D01*
X90401Y345450D01*
X90796Y342448D01*
X91955Y339650D01*
X93798Y337248D01*
X96200Y335405D01*
X98998Y334246D01*
X102000Y333851D01*
X105002Y334246D01*
X107800Y335405D01*
X110202Y337248D01*
X112045Y339650D01*
X112125Y339842D01*
X559875D01*
X559955Y339650D01*
X561798Y337248D01*
X564200Y335405D01*
X564392Y335325D01*
Y330175D01*
X564200Y330095D01*
X561798Y328252D01*
X559955Y325850D01*
X558796Y323052D01*
X558401Y320050D01*
X558796Y317048D01*
X559955Y314250D01*
X561798Y311848D01*
X564200Y310005D01*
X564392Y309925D01*
Y304775D01*
X564200Y304695D01*
X561798Y302852D01*
X559955Y300450D01*
X558796Y297652D01*
X558401Y294650D01*
X558796Y291648D01*
X559955Y288850D01*
X561798Y286448D01*
X564200Y284605D01*
X566998Y283446D01*
X570000Y283051D01*
X573002Y283446D01*
X575800Y284605D01*
X578202Y286448D01*
X580045Y288850D01*
X581204Y291648D01*
X581599Y294650D01*
X581204Y297652D01*
X580045Y300450D01*
X578202Y302852D01*
X575800Y304695D01*
X575608Y304775D01*
Y309925D01*
X575800Y310005D01*
X578202Y311848D01*
X580045Y314250D01*
X581204Y317048D01*
X581599Y320050D01*
X581204Y323052D01*
X580045Y325850D01*
X578202Y328252D01*
X575800Y330095D01*
X575608Y330175D01*
Y335325D01*
X575800Y335405D01*
X578202Y337248D01*
X580045Y339650D01*
X581204Y342448D01*
X581599Y345450D01*
X581204Y348452D01*
X580045Y351250D01*
X578202Y353652D01*
X575800Y355495D01*
X573002Y356654D01*
X570000Y357049D01*
D02*
G37*
G36*
X102000Y331649D02*
X98998Y331254D01*
X96200Y330095D01*
X93798Y328252D01*
X91955Y325850D01*
X90796Y323052D01*
X90401Y320050D01*
X90796Y317048D01*
X91955Y314250D01*
X93798Y311848D01*
X96200Y310005D01*
X98998Y308846D01*
X102000Y308451D01*
X105002Y308846D01*
X107800Y310005D01*
X110202Y311848D01*
X112045Y314250D01*
X113204Y317048D01*
X113599Y320050D01*
X113204Y323052D01*
X112045Y325850D01*
X110202Y328252D01*
X107800Y330095D01*
X105002Y331254D01*
X102000Y331649D01*
D02*
G37*
G36*
X570000Y198099D02*
X566998Y197704D01*
X564200Y196545D01*
X561798Y194702D01*
X559955Y192300D01*
X559772Y191858D01*
X112125D01*
X112045Y192050D01*
X110202Y194452D01*
X107800Y196295D01*
X105002Y197454D01*
X102000Y197849D01*
X98998Y197454D01*
X96200Y196295D01*
X93798Y194452D01*
X91955Y192050D01*
X90796Y189252D01*
X90401Y186250D01*
X90796Y183248D01*
X91955Y180450D01*
X93798Y178048D01*
X96200Y176205D01*
X98998Y175046D01*
X102000Y174651D01*
X105002Y175046D01*
X107800Y176205D01*
X110202Y178048D01*
X112045Y180450D01*
X112125Y180642D01*
X559999D01*
X561798Y178298D01*
X564200Y176455D01*
X566998Y175296D01*
X570000Y174901D01*
X573002Y175296D01*
X575800Y176455D01*
X578202Y178298D01*
X580045Y180700D01*
X581204Y183498D01*
X581599Y186500D01*
X581204Y189502D01*
X580045Y192300D01*
X578202Y194702D01*
X575800Y196545D01*
X573002Y197704D01*
X570000Y198099D01*
D02*
G37*
G36*
X102000Y147049D02*
X98998Y146654D01*
X96200Y145495D01*
X93798Y143652D01*
X91955Y141250D01*
X90796Y138452D01*
X90401Y135450D01*
X90796Y132448D01*
X91955Y129650D01*
X93798Y127248D01*
X96200Y125405D01*
X98998Y124246D01*
X102000Y123851D01*
X105002Y124246D01*
X107800Y125405D01*
X110202Y127248D01*
X112045Y129650D01*
X113204Y132448D01*
X113599Y135450D01*
X113204Y138452D01*
X112045Y141250D01*
X110202Y143652D01*
X107800Y145495D01*
X105002Y146654D01*
X102000Y147049D01*
D02*
G37*
G36*
X570000Y82600D02*
X564900Y82199D01*
X559926Y81005D01*
X555200Y79047D01*
X550838Y76374D01*
X546948Y73052D01*
X543626Y69162D01*
X540953Y64800D01*
X538995Y60074D01*
X537801Y55100D01*
X537399Y50000D01*
X537801Y44900D01*
X538995Y39926D01*
X540953Y35200D01*
X543626Y30838D01*
X546948Y26948D01*
X550838Y23626D01*
X555200Y20953D01*
X559926Y18995D01*
X564900Y17801D01*
X570000Y17399D01*
X575100Y17801D01*
X580074Y18995D01*
X584800Y20953D01*
X589162Y23626D01*
X593052Y26948D01*
X596374Y30838D01*
X599047Y35200D01*
X601005Y39926D01*
X602199Y44900D01*
X602601Y50000D01*
X602199Y55100D01*
X601005Y60074D01*
X599047Y64800D01*
X596374Y69162D01*
X593052Y73052D01*
X589162Y76374D01*
X584800Y79047D01*
X580074Y81005D01*
X575100Y82199D01*
X570000Y82600D01*
D02*
G37*
G36*
X40000D02*
X34900Y82199D01*
X29926Y81005D01*
X25200Y79047D01*
X20838Y76374D01*
X16948Y73052D01*
X13626Y69162D01*
X10953Y64800D01*
X8995Y60074D01*
X7801Y55100D01*
X7400Y50000D01*
X7801Y44900D01*
X8995Y39926D01*
X10953Y35200D01*
X13626Y30838D01*
X16948Y26948D01*
X20838Y23626D01*
X25200Y20953D01*
X29926Y18995D01*
X34900Y17801D01*
X40000Y17399D01*
X45100Y17801D01*
X50074Y18995D01*
X54800Y20953D01*
X59162Y23626D01*
X63052Y26948D01*
X66374Y30838D01*
X69047Y35200D01*
X71005Y39926D01*
X72199Y44900D01*
X72600Y50000D01*
X72199Y55100D01*
X71005Y60074D01*
X69047Y64800D01*
X66374Y69162D01*
X63052Y73052D01*
X59162Y76374D01*
X54800Y79047D01*
X50074Y81005D01*
X45100Y82199D01*
X40000Y82600D01*
D02*
G37*
G36*
X570000Y172699D02*
X566998Y172304D01*
X564200Y171145D01*
X561798Y169302D01*
X559955Y166900D01*
X558796Y164102D01*
X558401Y161100D01*
X558796Y158098D01*
X559955Y155300D01*
X561798Y152898D01*
X564200Y151055D01*
X566998Y149896D01*
X570000Y149501D01*
X573002Y149896D01*
X575800Y151055D01*
X578202Y152898D01*
X580045Y155300D01*
X581204Y158098D01*
X581599Y161100D01*
X581204Y164102D01*
X580045Y166900D01*
X578202Y169302D01*
X575800Y171145D01*
X573002Y172304D01*
X570000Y172699D01*
D02*
G37*
G36*
X102000Y172449D02*
X98998Y172054D01*
X96200Y170895D01*
X93798Y169052D01*
X91955Y166650D01*
X90796Y163852D01*
X90401Y160850D01*
X90796Y157848D01*
X91955Y155050D01*
X93798Y152648D01*
X96200Y150805D01*
X98998Y149646D01*
X102000Y149251D01*
X105002Y149646D01*
X107800Y150805D01*
X110202Y152648D01*
X112045Y155050D01*
X113204Y157848D01*
X113599Y160850D01*
X113204Y163852D01*
X112045Y166650D01*
X110202Y169052D01*
X107800Y170895D01*
X105002Y172054D01*
X102000Y172449D01*
D02*
G37*
G36*
X570000Y147299D02*
X566998Y146904D01*
X564200Y145745D01*
X561798Y143902D01*
X559955Y141500D01*
X558796Y138702D01*
X558401Y135700D01*
X558796Y132698D01*
X559955Y129900D01*
X561798Y127498D01*
X564200Y125655D01*
X566998Y124496D01*
X570000Y124101D01*
X573002Y124496D01*
X575800Y125655D01*
X578202Y127498D01*
X580045Y129900D01*
X581204Y132698D01*
X581599Y135700D01*
X581204Y138702D01*
X580045Y141500D01*
X578202Y143902D01*
X575800Y145745D01*
X573002Y146904D01*
X570000Y147299D01*
D02*
G37*
G36*
X40000Y622601D02*
X34900Y622199D01*
X29926Y621005D01*
X25200Y619047D01*
X20838Y616374D01*
X16948Y613052D01*
X13626Y609162D01*
X10953Y604800D01*
X8995Y600074D01*
X7801Y595100D01*
X7400Y590000D01*
X7801Y584900D01*
X8995Y579926D01*
X10953Y575200D01*
X13626Y570838D01*
X16948Y566948D01*
X20838Y563626D01*
X25200Y560953D01*
X29926Y558995D01*
X34900Y557801D01*
X40000Y557399D01*
X45100Y557801D01*
X50074Y558995D01*
X54800Y560953D01*
X59162Y563626D01*
X63052Y566948D01*
X66374Y570838D01*
X69047Y575200D01*
X71005Y579926D01*
X72199Y584900D01*
X72600Y590000D01*
X72199Y595100D01*
X71005Y600074D01*
X69047Y604800D01*
X66374Y609162D01*
X63052Y613052D01*
X59162Y616374D01*
X54800Y619047D01*
X50074Y621005D01*
X45100Y622199D01*
X40000Y622601D01*
D02*
G37*
G36*
X106500Y544149D02*
X97500D01*
X96525Y543955D01*
X95698Y543402D01*
X91198Y538902D01*
X90733Y538208D01*
X69350D01*
X67204Y537781D01*
X65385Y536565D01*
X59285Y530465D01*
X58069Y528646D01*
X57642Y526500D01*
Y371750D01*
Y236000D01*
Y119500D01*
X58069Y117354D01*
X59285Y115535D01*
X82535Y92285D01*
X84354Y91069D01*
X86500Y90642D01*
X208150D01*
X210296Y91069D01*
X212115Y92285D01*
X234223Y114392D01*
X285634D01*
X286098Y113698D01*
X290598Y109198D01*
X291425Y108645D01*
X292400Y108451D01*
X298918D01*
X299951Y107200D01*
Y87200D01*
X300145Y86225D01*
X300698Y85398D01*
X301525Y84845D01*
X302500Y84651D01*
X367500D01*
X368475Y84845D01*
X369302Y85398D01*
X369855Y86225D01*
X370049Y87200D01*
Y107200D01*
X369983Y107530D01*
X370904Y108662D01*
X370950Y108684D01*
X373100Y108401D01*
X376102Y108796D01*
X378900Y109955D01*
X381302Y111798D01*
X383145Y114200D01*
X384304Y116998D01*
X384699Y120000D01*
X384304Y123002D01*
X383145Y125800D01*
X381302Y128202D01*
X378900Y130045D01*
X376102Y131204D01*
X373100Y131599D01*
X370098Y131204D01*
X367300Y130045D01*
X364898Y128202D01*
X363055Y125800D01*
X361896Y123002D01*
X361501Y120000D01*
X361896Y116998D01*
X363055Y114200D01*
X364898Y111798D01*
X365914Y111019D01*
X365482Y109749D01*
X355318D01*
X354887Y111019D01*
X355902Y111798D01*
X357745Y114200D01*
X358904Y116998D01*
X359299Y120000D01*
X358904Y123002D01*
X357745Y125800D01*
X355902Y128202D01*
X353500Y130045D01*
X350702Y131204D01*
X347700Y131599D01*
X344698Y131204D01*
X341900Y130045D01*
X339498Y128202D01*
X337655Y125800D01*
X336496Y123002D01*
X336101Y120000D01*
X336496Y116998D01*
X337655Y114200D01*
X339498Y111798D01*
X340513Y111019D01*
X340082Y109749D01*
X329918D01*
X329487Y111019D01*
X330502Y111798D01*
X332345Y114200D01*
X333504Y116998D01*
X333899Y120000D01*
X333504Y123002D01*
X332345Y125800D01*
X330502Y128202D01*
X328100Y130045D01*
X325302Y131204D01*
X322300Y131599D01*
X319298Y131204D01*
X316500Y130045D01*
X314098Y128202D01*
X312255Y125800D01*
X311096Y123002D01*
X310701Y120000D01*
X311096Y116998D01*
X312255Y114200D01*
X314098Y111798D01*
X315114Y111019D01*
X314682Y109749D01*
X305413D01*
X304927Y110922D01*
X307702Y113698D01*
X308255Y114525D01*
X308449Y115500D01*
Y124500D01*
X308255Y125476D01*
X307702Y126302D01*
X303202Y130802D01*
X302375Y131355D01*
X301400Y131549D01*
X292400D01*
X291425Y131355D01*
X290598Y130802D01*
X286098Y126302D01*
X285634Y125608D01*
X231900D01*
X229754Y125181D01*
X227935Y123965D01*
X205827Y101858D01*
X88823D01*
X68858Y121823D01*
Y220802D01*
X70031Y221288D01*
X83635Y207685D01*
X85454Y206469D01*
X87600Y206042D01*
X90733D01*
X91198Y205348D01*
X95698Y200848D01*
X96524Y200295D01*
X97500Y200101D01*
X106500D01*
X107476Y200295D01*
X108302Y200848D01*
X112802Y205348D01*
X113355Y206175D01*
X113549Y207150D01*
Y216150D01*
X113355Y217125D01*
X112802Y217952D01*
X108302Y222452D01*
X107476Y223005D01*
X106500Y223199D01*
X97500D01*
X96524Y223005D01*
X95698Y222452D01*
X91198Y217952D01*
X91017Y217682D01*
X89601Y217579D01*
X68858Y238323D01*
Y365242D01*
X90733D01*
X91198Y364548D01*
X95698Y360048D01*
X96524Y359495D01*
X97500Y359301D01*
X106500D01*
X107476Y359495D01*
X108302Y360048D01*
X112802Y364548D01*
X113355Y365375D01*
X113549Y366350D01*
Y375350D01*
X113355Y376325D01*
X112802Y377152D01*
X108302Y381652D01*
X107476Y382205D01*
X106500Y382399D01*
X97500D01*
X96524Y382205D01*
X95698Y381652D01*
X91198Y377152D01*
X90733Y376458D01*
X68858D01*
Y524177D01*
X71673Y526992D01*
X90733D01*
X91198Y526298D01*
X95698Y521798D01*
X96525Y521245D01*
X97500Y521051D01*
X106500D01*
X107476Y521245D01*
X108302Y521798D01*
X112802Y526298D01*
X113355Y527124D01*
X113549Y528100D01*
Y537100D01*
X113355Y538075D01*
X112802Y538902D01*
X108302Y543402D01*
X107476Y543955D01*
X107314Y543987D01*
X106500Y544149D01*
D02*
G37*
G36*
X488000Y507799D02*
X483000D01*
X482025Y507605D01*
X481611Y507328D01*
X155250D01*
X153689Y507018D01*
X152366Y506134D01*
X152366Y506134D01*
X132111Y485878D01*
X112758D01*
X112045Y487600D01*
X110202Y490002D01*
X107800Y491845D01*
X105002Y493004D01*
X102000Y493399D01*
X98998Y493004D01*
X96200Y491845D01*
X93798Y490002D01*
X91955Y487600D01*
X90796Y484802D01*
X90401Y481800D01*
X90796Y478798D01*
X91955Y476000D01*
X93798Y473598D01*
X96200Y471755D01*
X98998Y470596D01*
X102000Y470201D01*
X105002Y470596D01*
X107800Y471755D01*
X110202Y473598D01*
X112045Y476000D01*
X112758Y477722D01*
X133800D01*
X133800Y477722D01*
X135361Y478032D01*
X136684Y478916D01*
X156939Y499172D01*
X481611D01*
X482025Y498895D01*
X483000Y498701D01*
X488000D01*
X488975Y498895D01*
X489802Y499448D01*
X490355Y500275D01*
X490549Y501250D01*
Y505250D01*
X490355Y506225D01*
X489802Y507052D01*
X488975Y507605D01*
X488000Y507799D01*
D02*
G37*
G36*
X384010Y589637D02*
X383764Y589588D01*
X383513D01*
X381757Y589239D01*
X380838Y588858D01*
X379350Y587864D01*
X378646Y587160D01*
X377652Y585672D01*
X377271Y584753D01*
X376922Y582997D01*
Y582003D01*
X377271Y580247D01*
X377652Y579328D01*
X378646Y577840D01*
X379350Y577136D01*
X380838Y576142D01*
X381757Y575761D01*
X383513Y575412D01*
X383764D01*
X384010Y575363D01*
X384256Y575412D01*
X384507D01*
X386263Y575761D01*
X387182Y576142D01*
X388670Y577136D01*
X389374Y577840D01*
X390368Y579328D01*
X390749Y580247D01*
X391098Y582003D01*
Y582997D01*
X390749Y584753D01*
X390368Y585672D01*
X389374Y587160D01*
X388671Y587864D01*
X387182Y588858D01*
X386263Y589239D01*
X384507Y589588D01*
X384256D01*
X384010Y589637D01*
D02*
G37*
G36*
X354010D02*
X353764Y589588D01*
X353513D01*
X351757Y589239D01*
X350838Y588858D01*
X349350Y587864D01*
X348646Y587160D01*
X347652Y585672D01*
X347271Y584753D01*
X346922Y582997D01*
Y582003D01*
X347271Y580247D01*
X347652Y579328D01*
X348646Y577840D01*
X349350Y577136D01*
X350838Y576142D01*
X351757Y575761D01*
X353513Y575412D01*
X353764D01*
X354010Y575363D01*
X354256Y575412D01*
X354507D01*
X356263Y575761D01*
X357182Y576142D01*
X358671Y577136D01*
X359374Y577840D01*
X360368Y579328D01*
X360749Y580247D01*
X361098Y582003D01*
Y582997D01*
X360749Y584753D01*
X360368Y585672D01*
X359374Y587160D01*
X358671Y587864D01*
X357182Y588858D01*
X356263Y589239D01*
X354507Y589588D01*
X354256D01*
X354010Y589637D01*
D02*
G37*
G36*
X565000Y622601D02*
X559900Y622199D01*
X554926Y621005D01*
X550200Y619047D01*
X545838Y616374D01*
X541948Y613052D01*
X538626Y609162D01*
X535953Y604800D01*
X533995Y600074D01*
X532801Y595100D01*
X532399Y590000D01*
X532801Y584900D01*
X533995Y579926D01*
X535953Y575200D01*
X538626Y570838D01*
X541948Y566948D01*
X545838Y563626D01*
X550200Y560953D01*
X554926Y558995D01*
X559900Y557801D01*
X565000Y557399D01*
X570100Y557801D01*
X575074Y558995D01*
X579800Y560953D01*
X584162Y563626D01*
X588052Y566948D01*
X591374Y570838D01*
X594047Y575200D01*
X596005Y579926D01*
X597199Y584900D01*
X597601Y590000D01*
X597199Y595100D01*
X596005Y600074D01*
X594047Y604800D01*
X591374Y609162D01*
X588052Y613052D01*
X584162Y616374D01*
X579800Y619047D01*
X575074Y621005D01*
X570100Y622199D01*
X565000Y622601D01*
D02*
G37*
G36*
X102000Y518799D02*
X98998Y518404D01*
X96200Y517245D01*
X93798Y515402D01*
X91955Y513000D01*
X90796Y510202D01*
X90401Y507200D01*
X90796Y504198D01*
X91955Y501400D01*
X93798Y498998D01*
X96200Y497155D01*
X98998Y495996D01*
X102000Y495601D01*
X105002Y495996D01*
X107800Y497155D01*
X110202Y498998D01*
X112045Y501400D01*
X113204Y504198D01*
X113599Y507200D01*
X113204Y510202D01*
X112045Y513000D01*
X110202Y515402D01*
X107800Y517245D01*
X105002Y518404D01*
X102000Y518799D01*
D02*
G37*
G36*
X570000Y493249D02*
X566998Y492854D01*
X564200Y491695D01*
X561798Y489852D01*
X559955Y487450D01*
X558796Y484652D01*
X558401Y481650D01*
X558796Y478648D01*
X559955Y475850D01*
X561798Y473448D01*
X564200Y471605D01*
X566998Y470446D01*
X570000Y470051D01*
X573002Y470446D01*
X575800Y471605D01*
X578202Y473448D01*
X580045Y475850D01*
X581204Y478648D01*
X581599Y481650D01*
X581204Y484652D01*
X580045Y487450D01*
X578202Y489852D01*
X575800Y491695D01*
X573002Y492854D01*
X570000Y493249D01*
D02*
G37*
G36*
X515000Y447609D02*
X510589Y447174D01*
X506348Y445888D01*
X502439Y443799D01*
X499013Y440987D01*
X496201Y437561D01*
X494112Y433652D01*
X492826Y429411D01*
X492391Y425000D01*
X492826Y420589D01*
X494112Y416348D01*
X496201Y412439D01*
X499013Y409013D01*
X502439Y406201D01*
X506348Y404112D01*
X510589Y402826D01*
X515000Y402391D01*
X519411Y402826D01*
X523652Y404112D01*
X527561Y406201D01*
X530987Y409013D01*
X533799Y412439D01*
X535888Y416348D01*
X537174Y420589D01*
X537609Y425000D01*
X537174Y429411D01*
X535888Y433652D01*
X533799Y437561D01*
X530987Y440987D01*
X527561Y443799D01*
X523652Y445888D01*
X519411Y447174D01*
X515000Y447609D01*
D02*
G37*
G36*
X145000D02*
X140589Y447174D01*
X136348Y445888D01*
X132439Y443799D01*
X129013Y440987D01*
X126201Y437561D01*
X124112Y433652D01*
X122826Y429411D01*
X122391Y425000D01*
X122826Y420589D01*
X124112Y416348D01*
X126201Y412439D01*
X129013Y409013D01*
X132439Y406201D01*
X136348Y404112D01*
X140589Y402826D01*
X145000Y402391D01*
X149411Y402826D01*
X153652Y404112D01*
X157561Y406201D01*
X160987Y409013D01*
X163799Y412439D01*
X165888Y416348D01*
X167174Y420589D01*
X167609Y425000D01*
X167174Y429411D01*
X165888Y433652D01*
X163799Y437561D01*
X160987Y440987D01*
X157561Y443799D01*
X153652Y445888D01*
X149411Y447174D01*
X145000Y447609D01*
D02*
G37*
G36*
X570000Y518649D02*
X566998Y518254D01*
X564200Y517095D01*
X561798Y515252D01*
X559955Y512850D01*
X558796Y510052D01*
X558401Y507050D01*
X558796Y504048D01*
X559955Y501250D01*
X561798Y498848D01*
X564200Y497005D01*
X566998Y495846D01*
X570000Y495451D01*
X573002Y495846D01*
X575800Y497005D01*
X578202Y498848D01*
X580045Y501250D01*
X581204Y504048D01*
X581599Y507050D01*
X581204Y510052D01*
X580045Y512850D01*
X578202Y515252D01*
X575800Y517095D01*
X573002Y518254D01*
X570000Y518649D01*
D02*
G37*
G36*
X501000Y507799D02*
X496000D01*
X495025Y507605D01*
X494198Y507052D01*
X493645Y506225D01*
X493451Y505250D01*
Y501250D01*
X493645Y500275D01*
X494198Y499448D01*
X495025Y498895D01*
X496000Y498701D01*
X497281D01*
X522172Y473811D01*
Y471328D01*
X473139D01*
X472725Y471605D01*
X471750Y471799D01*
X466750D01*
X465775Y471605D01*
X464948Y471052D01*
X464395Y470225D01*
X464201Y469250D01*
Y465250D01*
X464395Y464275D01*
X464948Y463448D01*
X465775Y462895D01*
X466750Y462701D01*
X471750D01*
X472725Y462895D01*
X473139Y463172D01*
X528311D01*
X538116Y453366D01*
X539439Y452482D01*
X541000Y452172D01*
X541000Y452172D01*
X559242D01*
X559955Y450450D01*
X561798Y448048D01*
X564200Y446205D01*
X566998Y445046D01*
X570000Y444651D01*
X573002Y445046D01*
X575800Y446205D01*
X578202Y448048D01*
X580045Y450450D01*
X581204Y453248D01*
X581599Y456250D01*
X581204Y459252D01*
X580045Y462050D01*
X578202Y464452D01*
X575800Y466295D01*
X573002Y467454D01*
X570000Y467849D01*
X566998Y467454D01*
X564200Y466295D01*
X561798Y464452D01*
X559955Y462050D01*
X559242Y460328D01*
X542689D01*
X532884Y470134D01*
X531561Y471018D01*
X530328Y471263D01*
Y475500D01*
X530328Y475500D01*
X530018Y477061D01*
X529134Y478384D01*
X529134Y478384D01*
X503549Y503969D01*
Y505250D01*
X503355Y506225D01*
X502802Y507052D01*
X501975Y507605D01*
X501000Y507799D01*
D02*
G37*
G36*
X458750Y471799D02*
X453750D01*
X452775Y471605D01*
X452361Y471328D01*
X427000D01*
X427000Y471328D01*
X425439Y471018D01*
X424116Y470134D01*
X424116Y470134D01*
X414461Y460478D01*
X112758D01*
X112045Y462200D01*
X110202Y464602D01*
X107800Y466445D01*
X105002Y467604D01*
X102000Y467999D01*
X98998Y467604D01*
X96200Y466445D01*
X93798Y464602D01*
X91955Y462200D01*
X90796Y459402D01*
X90401Y456400D01*
X90796Y453398D01*
X91955Y450600D01*
X93798Y448198D01*
X96200Y446355D01*
X98998Y445196D01*
X102000Y444801D01*
X105002Y445196D01*
X107800Y446355D01*
X110202Y448198D01*
X112045Y450600D01*
X112758Y452322D01*
X416150D01*
X416150Y452322D01*
X417711Y452632D01*
X419034Y453516D01*
X428689Y463172D01*
X452361D01*
X452775Y462895D01*
X453750Y462701D01*
X458750D01*
X459725Y462895D01*
X460552Y463448D01*
X461105Y464275D01*
X461299Y465250D01*
Y469250D01*
X461105Y470225D01*
X460552Y471052D01*
X459725Y471605D01*
X458750Y471799D01*
D02*
G37*
%LPD*%
D14*
X102000Y186250D02*
X570000D01*
X87600Y211650D02*
X102000D01*
X63250Y236000D02*
X87600Y211650D01*
X63250Y526500D02*
X69350Y532600D01*
X102000D01*
X64150Y370850D02*
X102000D01*
X63250Y371750D02*
X64150Y370850D01*
X63250Y236000D02*
Y371750D01*
Y526500D01*
Y119500D02*
Y236000D01*
Y119500D02*
X86500Y96250D01*
X208150D01*
X231900Y120000D01*
X570000Y294650D02*
Y320050D01*
Y345450D01*
Y211900D02*
X593000Y234900D01*
Y362750D01*
X584900Y370850D02*
X593000Y362750D01*
X570000Y370850D02*
X584900D01*
X593000Y362750D02*
Y531250D01*
X591800Y532450D02*
X593000Y531250D01*
X570000Y532450D02*
X591800D01*
X102000Y345450D02*
X570000D01*
X231900Y120000D02*
X296900D01*
D16*
X102000Y370850D02*
D03*
X102000Y532600D02*
D03*
X102000Y211650D02*
D03*
D17*
Y345450D02*
D03*
Y320050D02*
D03*
Y294650D02*
D03*
X570000Y345450D02*
D03*
Y320050D02*
D03*
Y294650D02*
D03*
Y370850D02*
D03*
X102000Y507200D02*
D03*
Y481800D02*
D03*
Y456400D02*
D03*
X322300Y120000D02*
D03*
X347700D02*
D03*
X373100D02*
D03*
X570000Y507050D02*
D03*
Y481650D02*
D03*
Y456250D02*
D03*
Y532450D02*
D03*
X102000Y186250D02*
D03*
Y160850D02*
D03*
Y135450D02*
D03*
X570000Y211900D02*
D03*
Y135700D02*
D03*
Y161100D02*
D03*
Y186500D02*
D03*
D18*
X296900Y120000D02*
D03*
D19*
X515000Y255000D02*
D03*
Y425000D02*
D03*
X145000D02*
D03*
Y255000D02*
D03*
D20*
X570000Y50000D02*
D03*
X40000D02*
D03*
Y590000D02*
D03*
X565000D02*
D03*
D21*
X485500Y503250D02*
D03*
X498500D02*
D03*
X456250Y467250D02*
D03*
X469250D02*
D03*
D22*
X102000Y481800D02*
X133800D01*
X155250Y503250D01*
X485500D01*
X526250Y467250D02*
X530000D01*
X469250D02*
X526250D01*
Y475500D01*
X498500Y503250D02*
X526250Y475500D01*
X541000Y456250D02*
X570000D01*
X530000Y467250D02*
X541000Y456250D01*
X427000Y467250D02*
X456250D01*
X416150Y456400D02*
X427000Y467250D01*
X102000Y456400D02*
X416150D01*
M02*
