M48
;Layer_Color=9474304
;FILE_FORMAT=4:4
METRIC,LZ
;TYPE=PLATED
T1F00S00C0.3000
T2F00S00C1.1000
T4F00S00C3.0000
T5F00S00C4.8000
;TYPE=NON_PLATED
T6F00S00C0.9000
%
T01
X0040675Y0032025
X0039525Y004435
T02
X002369Y0008
X002623
X002877
X003131
X00503Y001612
Y001866
Y00212
Y002374
X0050225Y0036385
Y0038925
Y0041465
Y0044005
X00107Y0043985
Y0041445
Y0038905
Y0036365
X001075Y0023715
Y0021175
Y0018635
Y0016095
T04
X0036Y00215
Y00385
X0019
Y00215
T05
X00045Y0005
X00505
Y0055
X00045
T06
X0044375Y004065
Y004365
M30
