G04 Layer_Physical_Order=1*
G04 Layer_Color=255*
%FSLAX44Y44*%
%MOMM*%
G71*
G01*
G75*
%ADD10R,0.9000X1.2500*%
%ADD11R,0.8000X0.9000*%
%ADD12R,0.8500X0.9500*%
%ADD13R,0.8000X0.8000*%
%ADD14R,1.2000X1.7500*%
%ADD15R,1.0500X0.6000*%
%ADD16R,2.1000X0.7500*%
%ADD17R,1.5000X1.6000*%
%ADD18C,0.6000*%
%ADD19R,0.8500X0.8500*%
%ADD20R,1.6000X1.0000*%
%ADD21R,1.2500X1.0000*%
%ADD22R,1.2500X0.9000*%
%ADD23R,0.9000X0.8000*%
%ADD24C,0.3000*%
%ADD25C,0.4000*%
%ADD26C,1.5240*%
%ADD27C,1.8000*%
%ADD28C,1.0000*%
%ADD29P,1.9483X8X292.5*%
%ADD30C,5.5000*%
%ADD31C,1.2700*%
%ADD32C,4.0000*%
%ADD33P,1.9483X8X22.5*%
%ADD34C,6.0000*%
%ADD35C,0.7000*%
G36*
X1702186Y1225278D02*
X1704040Y1224040D01*
X1705278Y1222186D01*
X1705680Y1220167D01*
X1705646Y1220000D01*
Y660000D01*
X1705680Y659833D01*
X1705278Y657814D01*
X1704040Y655960D01*
X1702186Y654722D01*
X1701199Y654526D01*
X1700000Y654354D01*
Y654354D01*
X1180000D01*
X1179833Y654320D01*
X1177814Y654722D01*
X1175960Y655960D01*
X1174722Y657814D01*
X1174526Y658801D01*
X1174354Y660000D01*
X1174354D01*
Y1220000D01*
X1174320Y1220167D01*
X1174722Y1222186D01*
X1175960Y1224040D01*
X1177814Y1225278D01*
X1179833Y1225680D01*
X1180000Y1225646D01*
X1700000D01*
X1700167Y1225680D01*
X1702186Y1225278D01*
D02*
G37*
G36*
X1142186Y1225278D02*
X1144040Y1224040D01*
X1145278Y1222186D01*
X1145680Y1220167D01*
X1145646Y1220000D01*
Y660000D01*
X1145680Y659833D01*
X1145278Y657814D01*
X1144040Y655960D01*
X1142186Y654722D01*
X1141199Y654526D01*
X1140000Y654354D01*
Y654354D01*
X620000D01*
X619833Y654320D01*
X617814Y654722D01*
X615960Y655960D01*
X614722Y657814D01*
X614526Y658801D01*
X614354Y660000D01*
X614354D01*
Y1220000D01*
X614320Y1220167D01*
X614722Y1222186D01*
X615960Y1224040D01*
X617814Y1225278D01*
X619833Y1225680D01*
X620000Y1225646D01*
X1140000D01*
X1140167Y1225680D01*
X1142186Y1225278D01*
D02*
G37*
G36*
X582186D02*
X584039Y1224040D01*
X585278Y1222186D01*
X585680Y1220167D01*
X585646Y1220000D01*
Y660000D01*
X585680Y659833D01*
X585278Y657814D01*
X584040Y655960D01*
X582186Y654722D01*
X581199Y654526D01*
X580000Y654354D01*
Y654354D01*
X60000D01*
X59833Y654320D01*
X57814Y654722D01*
X55960Y655960D01*
X54722Y657814D01*
X54526Y658801D01*
X54354Y660000D01*
X54354D01*
Y1220000D01*
X54320Y1220167D01*
X54722Y1222186D01*
X55960Y1224040D01*
X57814Y1225278D01*
X59833Y1225680D01*
X60000Y1225646D01*
X580000D01*
X580167Y1225680D01*
X582186Y1225278D01*
D02*
G37*
G36*
X1622381Y625749D02*
X1624400Y624400D01*
X1625749Y622381D01*
X1626189Y620167D01*
X1626156Y620000D01*
Y60000D01*
X1626189Y59833D01*
X1625749Y57619D01*
X1624400Y55600D01*
X1622381Y54251D01*
X1621199Y54016D01*
X1620000Y53844D01*
Y53844D01*
X1100000D01*
X1099833Y53811D01*
X1097619Y54251D01*
X1095600Y55600D01*
X1094251Y57619D01*
X1094016Y58801D01*
X1093844Y60000D01*
X1093844D01*
Y620000D01*
X1093811Y620167D01*
X1094251Y622381D01*
X1095600Y624400D01*
X1097619Y625749D01*
X1099833Y626189D01*
X1100000Y626156D01*
X1620000D01*
X1620167Y626189D01*
X1622381Y625749D01*
D02*
G37*
G36*
X1045109Y625686D02*
X1050022Y624196D01*
X1054550Y621775D01*
X1058519Y618518D01*
X1061776Y614550D01*
X1064196Y610022D01*
X1065686Y605109D01*
X1066165Y600248D01*
X1066115Y600000D01*
X1066115Y160000D01*
X1066165Y159752D01*
X1065686Y154891D01*
X1064196Y149978D01*
X1061776Y145450D01*
X1058519Y141482D01*
X1054550Y138224D01*
X1050022Y135804D01*
X1045109Y134314D01*
X1040248Y133835D01*
X1040000Y133885D01*
X600000Y133885D01*
X599752Y133835D01*
X594891Y134314D01*
X589978Y135804D01*
X585450Y138224D01*
X581482Y141482D01*
X578225Y145450D01*
X575804Y149978D01*
X574314Y154891D01*
X573934Y158750D01*
X573885Y160000D01*
X573885Y160000D01*
X573885Y161252D01*
X573885Y600000D01*
X573835Y600248D01*
X574314Y605109D01*
X575804Y610022D01*
X578225Y614550D01*
X581482Y618518D01*
X585450Y621775D01*
X589978Y624196D01*
X594891Y625686D01*
X599752Y626165D01*
X600000Y626115D01*
X1040000Y626115D01*
X1040248Y626165D01*
X1045109Y625686D01*
D02*
G37*
G36*
X525109D02*
X530022Y624196D01*
X534550Y621775D01*
X538518Y618518D01*
X541775Y614550D01*
X544196Y610022D01*
X545686Y605109D01*
X546165Y600248D01*
X546115Y600000D01*
X546115Y160000D01*
X546165Y159752D01*
X545686Y154891D01*
X544196Y149978D01*
X541775Y145450D01*
X538518Y141482D01*
X534550Y138224D01*
X530022Y135804D01*
X525109Y134314D01*
X520248Y133835D01*
X520000Y133885D01*
X80000Y133885D01*
X79752Y133835D01*
X74891Y134314D01*
X69978Y135804D01*
X65450Y138224D01*
X61481Y141482D01*
X58225Y145450D01*
X55804Y149978D01*
X54314Y154891D01*
X53934Y158750D01*
X53885Y160000D01*
X53885Y160000D01*
X53885Y161252D01*
X53885Y600000D01*
X53835Y600248D01*
X54314Y605109D01*
X55804Y610022D01*
X58225Y614550D01*
X61481Y618518D01*
X65450Y621775D01*
X69978Y624196D01*
X74891Y625686D01*
X79752Y626165D01*
X80000Y626115D01*
X520000Y626115D01*
X520248Y626165D01*
X525109Y625686D01*
D02*
G37*
%LPC*%
G36*
X1670000Y1223102D02*
X1664822Y1222694D01*
X1659771Y1221482D01*
X1654972Y1219494D01*
X1650543Y1216780D01*
X1646593Y1213407D01*
X1643220Y1209457D01*
X1640506Y1205028D01*
X1638518Y1200229D01*
X1637305Y1195178D01*
X1636898Y1190000D01*
X1637305Y1184822D01*
X1638518Y1179771D01*
X1640506Y1174972D01*
X1643220Y1170543D01*
X1646593Y1166593D01*
X1650543Y1163220D01*
X1654972Y1160506D01*
X1659771Y1158518D01*
X1664822Y1157306D01*
X1670000Y1156898D01*
X1675178Y1157306D01*
X1680229Y1158518D01*
X1685028Y1160506D01*
X1689457Y1163220D01*
X1693407Y1166593D01*
X1696780Y1170543D01*
X1699494Y1174972D01*
X1701482Y1179771D01*
X1702695Y1184822D01*
X1703102Y1190000D01*
X1702695Y1195178D01*
X1701482Y1200229D01*
X1699494Y1205028D01*
X1696780Y1209457D01*
X1693407Y1213407D01*
X1689457Y1216780D01*
X1685028Y1219494D01*
X1680229Y1221482D01*
X1675178Y1222694D01*
X1670000Y1223102D01*
D02*
G37*
G36*
X1210000D02*
X1204822Y1222694D01*
X1199771Y1221482D01*
X1194972Y1219494D01*
X1190543Y1216780D01*
X1186593Y1213407D01*
X1183220Y1209457D01*
X1180506Y1205028D01*
X1178518Y1200229D01*
X1177306Y1195178D01*
X1176898Y1190000D01*
X1177306Y1184822D01*
X1178518Y1179771D01*
X1180506Y1174972D01*
X1183220Y1170543D01*
X1186593Y1166593D01*
X1190543Y1163220D01*
X1194972Y1160506D01*
X1199771Y1158518D01*
X1204822Y1157306D01*
X1210000Y1156898D01*
X1215178Y1157306D01*
X1220229Y1158518D01*
X1225028Y1160506D01*
X1229457Y1163220D01*
X1233407Y1166593D01*
X1236780Y1170543D01*
X1239494Y1174972D01*
X1241482Y1179771D01*
X1242694Y1184822D01*
X1243102Y1190000D01*
X1242694Y1195178D01*
X1241482Y1200229D01*
X1239494Y1205028D01*
X1236780Y1209457D01*
X1233407Y1213407D01*
X1229457Y1216780D01*
X1225028Y1219494D01*
X1220229Y1221482D01*
X1215178Y1222694D01*
X1210000Y1223102D01*
D02*
G37*
G36*
X1219500Y1130319D02*
X1210500D01*
X1209330Y1130086D01*
X1208337Y1129423D01*
X1207674Y1128430D01*
X1207441Y1127260D01*
Y1119260D01*
X1207674Y1118090D01*
X1208337Y1117097D01*
X1209330Y1116434D01*
X1210500Y1116201D01*
X1219500D01*
X1220670Y1116434D01*
X1221663Y1117097D01*
X1222326Y1118090D01*
X1222559Y1119260D01*
Y1127260D01*
X1222326Y1128430D01*
X1221663Y1129423D01*
X1220670Y1130086D01*
X1219500Y1130319D01*
D02*
G37*
G36*
X1239500D02*
X1230500D01*
X1229330Y1130086D01*
X1228337Y1129423D01*
X1227674Y1128430D01*
X1227441Y1127260D01*
Y1119260D01*
X1227674Y1118090D01*
X1228337Y1117097D01*
X1229330Y1116434D01*
X1230500Y1116201D01*
X1236669D01*
X1237441Y1115260D01*
Y1106260D01*
X1237674Y1105089D01*
X1238337Y1104097D01*
X1239330Y1103434D01*
X1240500Y1103201D01*
X1253000D01*
X1254171Y1103434D01*
X1255163Y1104097D01*
X1255826Y1105089D01*
X1256059Y1106260D01*
Y1115260D01*
X1255826Y1116431D01*
X1255163Y1117423D01*
X1254171Y1118086D01*
X1253000Y1118319D01*
X1243331D01*
X1242559Y1119260D01*
Y1127260D01*
X1242326Y1128430D01*
X1241663Y1129423D01*
X1240670Y1130086D01*
X1239500Y1130319D01*
D02*
G37*
G36*
X1225597Y1107348D02*
X1224403D01*
X1222647Y1106999D01*
X1221545Y1106542D01*
X1220056Y1105548D01*
X1219212Y1104704D01*
X1218218Y1103215D01*
X1217761Y1102113D01*
X1217412Y1100357D01*
Y1100055D01*
X1217353Y1099760D01*
X1217412Y1099464D01*
Y1099163D01*
X1217761Y1097408D01*
X1218218Y1096305D01*
X1219212Y1094816D01*
X1220056Y1093972D01*
X1221545Y1092978D01*
X1222647Y1092521D01*
X1224403Y1092172D01*
X1225597D01*
X1227353Y1092521D01*
X1228455Y1092978D01*
X1229944Y1093972D01*
X1230788Y1094816D01*
X1231782Y1096305D01*
X1232239Y1097408D01*
X1232588Y1099163D01*
Y1099464D01*
X1232647Y1099760D01*
X1232588Y1100055D01*
Y1100357D01*
X1232239Y1102113D01*
X1231782Y1103215D01*
X1230788Y1104704D01*
X1229944Y1105548D01*
X1228455Y1106542D01*
X1227353Y1106999D01*
X1225597Y1107348D01*
D02*
G37*
G36*
X1550000Y1123111D02*
X1545491Y1122667D01*
X1541156Y1121352D01*
X1537160Y1119216D01*
X1533658Y1116342D01*
X1530784Y1112840D01*
X1528648Y1108844D01*
X1527333Y1104509D01*
X1526889Y1100000D01*
X1527333Y1095491D01*
X1528648Y1091156D01*
X1530784Y1087160D01*
X1533658Y1083658D01*
X1537160Y1080784D01*
X1541156Y1078648D01*
X1545491Y1077333D01*
X1550000Y1076889D01*
X1554509Y1077333D01*
X1558844Y1078648D01*
X1562840Y1080784D01*
X1566342Y1083658D01*
X1569216Y1087160D01*
X1571352Y1091156D01*
X1572667Y1095491D01*
X1573111Y1100000D01*
X1572667Y1104509D01*
X1571352Y1108844D01*
X1569216Y1112840D01*
X1566342Y1116342D01*
X1562840Y1119216D01*
X1558844Y1121352D01*
X1554509Y1122667D01*
X1550000Y1123111D01*
D02*
G37*
G36*
X1330000D02*
X1325491Y1122667D01*
X1321156Y1121352D01*
X1317160Y1119216D01*
X1313658Y1116342D01*
X1310784Y1112840D01*
X1308648Y1108844D01*
X1307333Y1104509D01*
X1306889Y1100000D01*
X1307333Y1095491D01*
X1308648Y1091156D01*
X1310784Y1087160D01*
X1313658Y1083658D01*
X1317160Y1080784D01*
X1321156Y1078648D01*
X1325491Y1077333D01*
X1330000Y1076889D01*
X1334509Y1077333D01*
X1338844Y1078648D01*
X1342840Y1080784D01*
X1346342Y1083658D01*
X1349216Y1087160D01*
X1351352Y1091156D01*
X1352667Y1095491D01*
X1353111Y1100000D01*
X1352667Y1104509D01*
X1351352Y1108844D01*
X1349216Y1112840D01*
X1346342Y1116342D01*
X1342840Y1119216D01*
X1338844Y1121352D01*
X1334509Y1122667D01*
X1330000Y1123111D01*
D02*
G37*
G36*
X1225597Y1077348D02*
X1224403D01*
X1222647Y1076999D01*
X1221545Y1076542D01*
X1220056Y1075548D01*
X1219212Y1074704D01*
X1218218Y1073215D01*
X1217761Y1072113D01*
X1217412Y1070357D01*
Y1070055D01*
X1217353Y1069760D01*
X1217412Y1069464D01*
Y1069163D01*
X1217761Y1067408D01*
X1218218Y1066305D01*
X1219212Y1064816D01*
X1220056Y1063972D01*
X1221545Y1062978D01*
X1222647Y1062521D01*
X1224403Y1062172D01*
X1225597D01*
X1227353Y1062521D01*
X1228455Y1062978D01*
X1229944Y1063972D01*
X1230788Y1064816D01*
X1231782Y1066305D01*
X1232239Y1067408D01*
X1232588Y1069163D01*
Y1069464D01*
X1232647Y1069760D01*
X1232588Y1070055D01*
Y1070357D01*
X1232239Y1072113D01*
X1231782Y1073215D01*
X1230788Y1074704D01*
X1229944Y1075548D01*
X1228455Y1076542D01*
X1227353Y1076999D01*
X1225597Y1077348D01*
D02*
G37*
G36*
X1219500Y1053319D02*
X1210500D01*
X1209330Y1053086D01*
X1208337Y1052423D01*
X1207674Y1051431D01*
X1207441Y1050260D01*
Y1042260D01*
X1207674Y1041089D01*
X1208337Y1040097D01*
X1209330Y1039434D01*
X1210500Y1039201D01*
X1219500D01*
X1220670Y1039434D01*
X1221663Y1040097D01*
X1222326Y1041089D01*
X1222559Y1042260D01*
Y1050260D01*
X1222326Y1051431D01*
X1221663Y1052423D01*
X1220670Y1053086D01*
X1219500Y1053319D01*
D02*
G37*
G36*
X1461300Y952419D02*
X1448800D01*
X1447630Y952186D01*
X1446637Y951523D01*
X1445974Y950531D01*
X1445741Y949360D01*
Y939360D01*
X1445974Y938189D01*
X1446637Y937197D01*
X1447630Y936534D01*
X1448800Y936301D01*
X1461300D01*
X1462471Y936534D01*
X1463463Y937197D01*
X1464126Y938189D01*
X1464339Y939262D01*
X1475208D01*
X1475712Y938758D01*
Y900568D01*
X1463300D01*
X1463236Y900891D01*
X1462573Y901883D01*
X1461581Y902546D01*
X1460410Y902779D01*
X1451910D01*
X1450739Y902546D01*
X1449747Y901883D01*
X1449084Y900891D01*
X1448851Y899720D01*
Y891220D01*
X1449084Y890050D01*
X1449584Y889301D01*
X1449680Y888470D01*
X1449584Y887639D01*
X1449084Y886891D01*
X1448851Y885720D01*
Y877220D01*
X1449084Y876049D01*
X1449747Y875057D01*
X1450739Y874394D01*
X1451062Y874330D01*
Y859522D01*
X1449095Y857555D01*
X1447990Y855901D01*
X1447602Y853950D01*
Y730877D01*
X1446648Y730482D01*
X1444142Y728559D01*
X1442218Y726052D01*
X1441009Y723133D01*
X1440716Y720905D01*
X1440641Y720334D01*
X1439360D01*
X1439284Y720905D01*
X1438991Y723133D01*
X1437782Y726052D01*
X1435858Y728559D01*
X1433352Y730482D01*
X1432398Y730877D01*
Y894498D01*
X1454201Y916301D01*
X1461300D01*
X1462471Y916534D01*
X1463463Y917197D01*
X1464126Y918189D01*
X1464359Y919360D01*
Y929360D01*
X1464126Y930530D01*
X1463463Y931523D01*
X1462471Y932186D01*
X1461300Y932419D01*
X1448800D01*
X1447630Y932186D01*
X1446637Y931523D01*
X1445974Y930530D01*
X1445741Y929360D01*
Y922261D01*
X1423695Y900215D01*
X1422590Y898561D01*
X1422202Y896610D01*
Y730877D01*
X1421248Y730482D01*
X1418741Y728559D01*
X1416818Y726052D01*
X1415609Y723133D01*
X1415362Y721255D01*
X1414656Y720910D01*
X1414029Y720862D01*
X1413959Y720944D01*
Y724500D01*
X1413959Y724500D01*
X1413726Y725670D01*
X1413063Y726663D01*
X1408563Y731163D01*
X1407570Y731826D01*
X1406400Y732059D01*
X1397400D01*
X1397400Y732059D01*
X1396230Y731826D01*
X1395237Y731163D01*
X1390737Y726663D01*
X1390074Y725670D01*
X1389841Y724500D01*
Y715500D01*
X1389841Y715500D01*
X1390074Y714330D01*
X1390737Y713337D01*
X1395237Y708837D01*
X1396230Y708174D01*
X1397400Y707941D01*
X1403833D01*
X1404441Y707200D01*
Y687200D01*
X1404674Y686030D01*
X1405337Y685037D01*
X1406329Y684374D01*
X1407500Y684141D01*
X1472500D01*
X1473671Y684374D01*
X1474663Y685037D01*
X1475326Y686030D01*
X1475559Y687200D01*
Y706950D01*
X1476351Y708046D01*
X1476418Y708118D01*
X1478100Y707896D01*
X1481233Y708309D01*
X1484152Y709518D01*
X1486658Y711441D01*
X1488582Y713948D01*
X1489791Y716867D01*
X1490204Y720000D01*
X1489791Y723133D01*
X1488582Y726052D01*
X1486658Y728559D01*
X1484152Y730482D01*
X1481233Y731691D01*
X1478100Y732104D01*
X1474967Y731691D01*
X1472048Y730482D01*
X1469541Y728559D01*
X1467618Y726052D01*
X1466409Y723133D01*
X1466116Y720905D01*
X1466040Y720334D01*
X1464760D01*
X1464684Y720905D01*
X1464391Y723133D01*
X1463182Y726052D01*
X1461259Y728559D01*
X1458752Y730482D01*
X1457798Y730877D01*
Y851838D01*
X1459765Y853805D01*
X1460870Y855459D01*
X1461258Y857410D01*
Y874330D01*
X1461581Y874394D01*
X1462573Y875057D01*
X1463236Y876049D01*
X1463469Y877220D01*
Y885720D01*
X1463236Y886891D01*
X1462736Y887639D01*
X1462640Y888470D01*
X1462736Y889301D01*
X1463236Y890050D01*
X1463300Y890372D01*
X1480810D01*
X1482761Y890760D01*
X1484415Y891865D01*
X1485520Y893519D01*
X1485908Y895470D01*
Y940870D01*
X1485520Y942821D01*
X1484415Y944475D01*
X1480925Y947965D01*
X1479271Y949070D01*
X1477320Y949458D01*
X1464339D01*
X1464126Y950531D01*
X1463463Y951523D01*
X1462471Y952186D01*
X1461300Y952419D01*
D02*
G37*
G36*
X1253000Y1085319D02*
X1240500D01*
X1239330Y1085086D01*
X1238337Y1084423D01*
X1237674Y1083430D01*
X1237441Y1082260D01*
Y1073260D01*
X1237674Y1072089D01*
X1238337Y1071097D01*
X1238447Y1071024D01*
Y1069496D01*
X1238337Y1069423D01*
X1237674Y1068430D01*
X1237441Y1067260D01*
Y1058260D01*
X1237674Y1057089D01*
X1238337Y1056097D01*
X1239330Y1055434D01*
X1240342Y1055233D01*
X1240472Y1054395D01*
X1240463Y1054157D01*
X1239500Y1053319D01*
X1230500D01*
X1229330Y1053086D01*
X1228337Y1052423D01*
X1227674Y1051431D01*
X1227441Y1050260D01*
Y1042260D01*
X1227674Y1041089D01*
X1228337Y1040097D01*
X1229330Y1039434D01*
X1230500Y1039201D01*
X1239500D01*
X1239651Y1039231D01*
X1240632Y1038426D01*
Y973200D01*
X1241098Y970859D01*
X1242424Y968874D01*
X1260298Y951000D01*
X1259896Y947950D01*
X1260309Y944817D01*
X1261518Y941898D01*
X1263441Y939391D01*
X1265948Y937468D01*
X1268867Y936259D01*
X1271095Y935966D01*
X1271666Y935891D01*
Y934610D01*
X1271096Y934535D01*
X1268867Y934241D01*
X1265948Y933032D01*
X1263441Y931108D01*
X1261518Y928602D01*
X1260309Y925683D01*
X1259896Y922550D01*
X1260309Y919417D01*
X1261518Y916498D01*
X1263441Y913991D01*
X1265948Y912068D01*
X1268867Y910859D01*
X1271095Y910566D01*
X1271666Y910490D01*
Y909210D01*
X1271096Y909135D01*
X1268867Y908841D01*
X1265948Y907632D01*
X1263441Y905708D01*
X1261518Y903202D01*
X1260309Y900283D01*
X1259896Y897150D01*
X1260309Y894017D01*
X1261518Y891098D01*
X1263441Y888592D01*
X1265948Y886668D01*
X1268867Y885459D01*
X1272000Y885046D01*
X1275133Y885459D01*
X1278052Y886668D01*
X1280558Y888592D01*
X1282482Y891098D01*
X1283691Y894017D01*
X1284104Y897150D01*
X1283691Y900283D01*
X1282482Y903202D01*
X1280558Y905708D01*
X1278052Y907632D01*
X1275133Y908841D01*
X1272905Y909135D01*
X1272334Y909210D01*
Y910490D01*
X1272905Y910566D01*
X1275133Y910859D01*
X1278052Y912068D01*
X1280558Y913991D01*
X1282482Y916498D01*
X1283691Y919417D01*
X1284104Y922550D01*
X1283691Y925683D01*
X1282482Y928602D01*
X1280558Y931108D01*
X1278052Y933032D01*
X1275133Y934241D01*
X1272905Y934535D01*
X1272334Y934610D01*
Y935891D01*
X1272905Y935966D01*
X1275133Y936259D01*
X1278052Y937468D01*
X1280558Y939391D01*
X1282482Y941898D01*
X1283691Y944817D01*
X1284104Y947950D01*
X1283691Y951083D01*
X1282482Y954002D01*
X1280558Y956508D01*
X1278052Y958432D01*
X1275133Y959641D01*
X1273255Y959888D01*
X1272910Y960594D01*
X1272862Y961221D01*
X1272944Y961291D01*
X1276500D01*
X1276500Y961291D01*
X1277671Y961524D01*
X1278663Y962187D01*
X1283163Y966687D01*
X1283826Y967680D01*
X1284059Y968850D01*
Y977850D01*
X1284059Y977850D01*
X1283826Y979020D01*
X1283163Y980013D01*
X1278663Y984513D01*
X1277671Y985176D01*
X1276500Y985409D01*
X1267500D01*
X1267500Y985409D01*
X1266329Y985176D01*
X1265337Y984513D01*
X1260837Y980013D01*
X1260174Y979020D01*
X1259941Y977850D01*
Y970456D01*
X1258671Y969930D01*
X1252868Y975734D01*
Y1055201D01*
X1253000D01*
X1254171Y1055434D01*
X1255163Y1056097D01*
X1255826Y1057089D01*
X1256059Y1058260D01*
Y1067260D01*
X1255826Y1068430D01*
X1255163Y1069423D01*
X1255151Y1070673D01*
X1256067Y1071643D01*
X1279706D01*
X1365674Y985674D01*
X1367659Y984348D01*
X1370000Y983883D01*
X1592466D01*
X1630674Y945674D01*
X1632659Y944348D01*
X1635000Y943883D01*
X1659568D01*
X1661441Y941441D01*
X1663948Y939518D01*
X1666867Y938309D01*
X1669095Y938016D01*
X1669666Y937940D01*
Y936660D01*
X1669095Y936584D01*
X1666867Y936291D01*
X1663948Y935082D01*
X1661441Y933158D01*
X1659518Y930652D01*
X1658309Y927733D01*
X1657897Y924600D01*
X1658309Y921467D01*
X1659518Y918548D01*
X1661441Y916041D01*
X1663948Y914118D01*
X1666867Y912909D01*
X1669095Y912616D01*
X1669666Y912540D01*
Y911260D01*
X1669095Y911184D01*
X1666867Y910891D01*
X1663948Y909682D01*
X1661441Y907758D01*
X1659518Y905252D01*
X1658309Y902333D01*
X1657897Y899200D01*
X1658309Y896067D01*
X1659518Y893148D01*
X1661441Y890641D01*
X1663948Y888718D01*
X1666867Y887509D01*
X1670000Y887096D01*
X1673133Y887509D01*
X1676052Y888718D01*
X1678559Y890641D01*
X1680482Y893148D01*
X1681691Y896067D01*
X1682103Y899200D01*
X1681691Y902333D01*
X1680482Y905252D01*
X1678559Y907758D01*
X1676052Y909682D01*
X1673133Y910891D01*
X1670905Y911184D01*
X1670334Y911260D01*
Y912540D01*
X1670905Y912616D01*
X1673133Y912909D01*
X1676052Y914118D01*
X1678559Y916041D01*
X1680482Y918548D01*
X1681691Y921467D01*
X1682103Y924600D01*
X1681691Y927733D01*
X1680482Y930652D01*
X1678559Y933158D01*
X1676052Y935082D01*
X1673133Y936291D01*
X1670905Y936584D01*
X1670334Y936660D01*
Y937940D01*
X1670905Y938016D01*
X1673133Y938309D01*
X1676052Y939518D01*
X1678559Y941441D01*
X1680482Y943948D01*
X1681691Y946867D01*
X1682103Y950000D01*
X1681691Y953133D01*
X1680482Y956052D01*
X1678559Y958559D01*
X1676052Y960482D01*
X1673133Y961691D01*
X1670905Y961984D01*
X1670334Y962060D01*
Y963340D01*
X1670905Y963416D01*
X1673133Y963709D01*
X1676052Y964918D01*
X1678559Y966842D01*
X1680482Y969348D01*
X1681691Y972267D01*
X1682103Y975400D01*
X1681691Y978533D01*
X1680482Y981452D01*
X1678559Y983959D01*
X1676052Y985882D01*
X1673133Y987091D01*
X1670000Y987504D01*
X1666867Y987091D01*
X1663948Y985882D01*
X1661441Y983959D01*
X1659518Y981452D01*
X1658309Y978533D01*
X1657897Y975400D01*
X1658309Y972267D01*
X1659518Y969348D01*
X1661441Y966842D01*
X1663948Y964918D01*
X1666867Y963709D01*
X1669095Y963416D01*
X1669666Y963340D01*
Y962060D01*
X1669095Y961984D01*
X1666867Y961691D01*
X1663948Y960482D01*
X1661441Y958559D01*
X1659568Y956117D01*
X1637534D01*
X1599326Y994326D01*
X1597341Y995652D01*
X1595000Y996118D01*
X1372534D01*
X1286566Y1082086D01*
X1284581Y1083412D01*
X1282240Y1083877D01*
X1255527D01*
X1255163Y1084423D01*
X1254171Y1085086D01*
X1253000Y1085319D01*
D02*
G37*
G36*
X1550000Y803111D02*
X1545491Y802667D01*
X1541156Y801352D01*
X1537160Y799216D01*
X1533658Y796342D01*
X1530784Y792840D01*
X1528648Y788844D01*
X1527333Y784509D01*
X1526889Y780000D01*
X1527333Y775491D01*
X1528648Y771156D01*
X1530784Y767160D01*
X1533658Y763658D01*
X1537160Y760784D01*
X1541156Y758648D01*
X1545491Y757333D01*
X1550000Y756889D01*
X1554509Y757333D01*
X1558844Y758648D01*
X1562840Y760784D01*
X1566342Y763658D01*
X1569216Y767160D01*
X1571352Y771156D01*
X1572667Y775491D01*
X1573111Y780000D01*
X1572667Y784509D01*
X1571352Y788844D01*
X1569216Y792840D01*
X1566342Y796342D01*
X1562840Y799216D01*
X1558844Y801352D01*
X1554509Y802667D01*
X1550000Y803111D01*
D02*
G37*
G36*
X1330000D02*
X1325491Y802667D01*
X1321156Y801352D01*
X1317160Y799216D01*
X1313658Y796342D01*
X1310784Y792840D01*
X1308648Y788844D01*
X1307333Y784509D01*
X1306889Y780000D01*
X1307333Y775491D01*
X1308648Y771156D01*
X1310784Y767160D01*
X1313658Y763658D01*
X1317160Y760784D01*
X1321156Y758648D01*
X1325491Y757333D01*
X1330000Y756889D01*
X1334509Y757333D01*
X1338844Y758648D01*
X1342840Y760784D01*
X1346342Y763658D01*
X1349216Y767160D01*
X1351352Y771156D01*
X1352667Y775491D01*
X1353111Y780000D01*
X1352667Y784509D01*
X1351352Y788844D01*
X1349216Y792840D01*
X1346342Y796342D01*
X1342840Y799216D01*
X1338844Y801352D01*
X1334509Y802667D01*
X1330000Y803111D01*
D02*
G37*
G36*
X1670000Y723102D02*
X1664822Y722694D01*
X1659771Y721482D01*
X1654972Y719494D01*
X1650543Y716780D01*
X1646593Y713407D01*
X1643220Y709457D01*
X1640506Y705028D01*
X1638518Y700229D01*
X1637305Y695178D01*
X1636898Y690000D01*
X1637305Y684822D01*
X1638518Y679771D01*
X1640506Y674972D01*
X1643220Y670543D01*
X1646593Y666593D01*
X1650543Y663220D01*
X1654972Y660506D01*
X1659771Y658518D01*
X1664822Y657306D01*
X1670000Y656898D01*
X1675178Y657306D01*
X1680229Y658518D01*
X1685028Y660506D01*
X1689457Y663220D01*
X1693407Y666593D01*
X1696780Y670543D01*
X1699494Y674972D01*
X1701482Y679771D01*
X1702695Y684822D01*
X1703102Y690000D01*
X1702695Y695178D01*
X1701482Y700229D01*
X1699494Y705028D01*
X1696780Y709457D01*
X1693407Y713407D01*
X1689457Y716780D01*
X1685028Y719494D01*
X1680229Y721482D01*
X1675178Y722694D01*
X1670000Y723102D01*
D02*
G37*
G36*
X1210000D02*
X1204822Y722694D01*
X1199771Y721482D01*
X1194972Y719494D01*
X1190543Y716780D01*
X1186593Y713407D01*
X1183220Y709457D01*
X1180506Y705028D01*
X1178518Y700229D01*
X1177306Y695178D01*
X1176898Y690000D01*
X1177306Y684822D01*
X1178518Y679771D01*
X1180506Y674972D01*
X1183220Y670543D01*
X1186593Y666593D01*
X1190543Y663220D01*
X1194972Y660506D01*
X1199771Y658518D01*
X1204822Y657306D01*
X1210000Y656898D01*
X1215178Y657306D01*
X1220229Y658518D01*
X1225028Y660506D01*
X1229457Y663220D01*
X1233407Y666593D01*
X1236780Y670543D01*
X1239494Y674972D01*
X1241482Y679771D01*
X1242694Y684822D01*
X1243102Y690000D01*
X1242694Y695178D01*
X1241482Y700229D01*
X1239494Y705028D01*
X1236780Y709457D01*
X1233407Y713407D01*
X1229457Y716780D01*
X1225028Y719494D01*
X1220229Y721482D01*
X1215178Y722694D01*
X1210000Y723102D01*
D02*
G37*
G36*
X1110000Y1223102D02*
X1104822Y1222694D01*
X1099771Y1221482D01*
X1094972Y1219494D01*
X1090543Y1216780D01*
X1086593Y1213407D01*
X1083220Y1209457D01*
X1080506Y1205028D01*
X1078518Y1200229D01*
X1077306Y1195178D01*
X1076898Y1190000D01*
X1077306Y1184822D01*
X1078518Y1179771D01*
X1080506Y1174972D01*
X1083220Y1170543D01*
X1086593Y1166593D01*
X1090543Y1163220D01*
X1094972Y1160506D01*
X1099771Y1158518D01*
X1104822Y1157306D01*
X1110000Y1156898D01*
X1115178Y1157306D01*
X1120229Y1158518D01*
X1125028Y1160506D01*
X1129457Y1163220D01*
X1133407Y1166593D01*
X1136780Y1170543D01*
X1139494Y1174972D01*
X1141482Y1179771D01*
X1142694Y1184822D01*
X1143102Y1190000D01*
X1142694Y1195178D01*
X1141482Y1200229D01*
X1139494Y1205028D01*
X1136780Y1209457D01*
X1133407Y1213407D01*
X1129457Y1216780D01*
X1125028Y1219494D01*
X1120229Y1221482D01*
X1115178Y1222694D01*
X1110000Y1223102D01*
D02*
G37*
G36*
X650000D02*
X644822Y1222694D01*
X639771Y1221482D01*
X634972Y1219494D01*
X630543Y1216780D01*
X626593Y1213407D01*
X623220Y1209457D01*
X620506Y1205028D01*
X618518Y1200229D01*
X617305Y1195178D01*
X616898Y1190000D01*
X617305Y1184822D01*
X618518Y1179771D01*
X620506Y1174972D01*
X623220Y1170543D01*
X626593Y1166593D01*
X630543Y1163220D01*
X634972Y1160506D01*
X639771Y1158518D01*
X644822Y1157306D01*
X650000Y1156898D01*
X655178Y1157306D01*
X660229Y1158518D01*
X665028Y1160506D01*
X669457Y1163220D01*
X673407Y1166593D01*
X676780Y1170543D01*
X679494Y1174972D01*
X681482Y1179771D01*
X682694Y1184822D01*
X683102Y1190000D01*
X682694Y1195178D01*
X681482Y1200229D01*
X679494Y1205028D01*
X676780Y1209457D01*
X673407Y1213407D01*
X669457Y1216780D01*
X665028Y1219494D01*
X660229Y1221482D01*
X655178Y1222694D01*
X650000Y1223102D01*
D02*
G37*
G36*
X659500Y1130319D02*
X650500D01*
X649330Y1130086D01*
X648337Y1129423D01*
X647674Y1128430D01*
X647441Y1127260D01*
Y1119260D01*
X647674Y1118090D01*
X648337Y1117097D01*
X649330Y1116434D01*
X650500Y1116201D01*
X659500D01*
X660670Y1116434D01*
X661663Y1117097D01*
X662326Y1118090D01*
X662559Y1119260D01*
Y1127260D01*
X662326Y1128430D01*
X661663Y1129423D01*
X660670Y1130086D01*
X659500Y1130319D01*
D02*
G37*
G36*
X679500D02*
X670500D01*
X669330Y1130086D01*
X668337Y1129423D01*
X667674Y1128430D01*
X667441Y1127260D01*
Y1119260D01*
X667674Y1118090D01*
X668337Y1117097D01*
X669330Y1116434D01*
X670500Y1116201D01*
X676669D01*
X677441Y1115260D01*
Y1106260D01*
X677674Y1105089D01*
X678337Y1104097D01*
X679330Y1103434D01*
X680500Y1103201D01*
X693000D01*
X694171Y1103434D01*
X695163Y1104097D01*
X695826Y1105089D01*
X696059Y1106260D01*
Y1115260D01*
X695826Y1116431D01*
X695163Y1117423D01*
X694171Y1118086D01*
X693000Y1118319D01*
X683331D01*
X682559Y1119260D01*
Y1127260D01*
X682326Y1128430D01*
X681663Y1129423D01*
X680670Y1130086D01*
X679500Y1130319D01*
D02*
G37*
G36*
X665597Y1107348D02*
X664403D01*
X662647Y1106999D01*
X661545Y1106542D01*
X660056Y1105548D01*
X659212Y1104704D01*
X658218Y1103215D01*
X657761Y1102113D01*
X657412Y1100357D01*
Y1100055D01*
X657353Y1099760D01*
X657412Y1099464D01*
Y1099163D01*
X657761Y1097408D01*
X658218Y1096305D01*
X659212Y1094816D01*
X660056Y1093972D01*
X661545Y1092978D01*
X662647Y1092521D01*
X664403Y1092172D01*
X665597D01*
X667353Y1092521D01*
X668455Y1092978D01*
X669944Y1093972D01*
X670788Y1094816D01*
X671782Y1096305D01*
X672239Y1097407D01*
X672588Y1099163D01*
Y1099464D01*
X672647Y1099760D01*
X672588Y1100055D01*
Y1100357D01*
X672239Y1102113D01*
X671782Y1103215D01*
X670788Y1104704D01*
X669944Y1105548D01*
X668455Y1106542D01*
X667353Y1106999D01*
X665597Y1107348D01*
D02*
G37*
G36*
X1055000Y1113111D02*
X1050491Y1112667D01*
X1046156Y1111352D01*
X1042160Y1109216D01*
X1038658Y1106342D01*
X1035784Y1102840D01*
X1033648Y1098844D01*
X1032333Y1094509D01*
X1031889Y1090000D01*
X1032333Y1085491D01*
X1033648Y1081156D01*
X1035784Y1077160D01*
X1038658Y1073658D01*
X1042160Y1070784D01*
X1046156Y1068648D01*
X1050491Y1067333D01*
X1055000Y1066889D01*
X1059509Y1067333D01*
X1063844Y1068648D01*
X1067840Y1070784D01*
X1071342Y1073658D01*
X1074216Y1077160D01*
X1076352Y1081156D01*
X1077667Y1085491D01*
X1078111Y1090000D01*
X1077667Y1094509D01*
X1076352Y1098844D01*
X1074216Y1102840D01*
X1071342Y1106342D01*
X1067840Y1109216D01*
X1063844Y1111352D01*
X1059509Y1112667D01*
X1055000Y1113111D01*
D02*
G37*
G36*
X755000D02*
X750491Y1112667D01*
X746156Y1111352D01*
X742160Y1109216D01*
X738658Y1106342D01*
X735784Y1102840D01*
X733648Y1098844D01*
X732333Y1094509D01*
X731889Y1090000D01*
X732333Y1085491D01*
X733648Y1081156D01*
X735784Y1077160D01*
X738658Y1073658D01*
X742160Y1070784D01*
X746156Y1068648D01*
X750491Y1067333D01*
X755000Y1066889D01*
X759509Y1067333D01*
X763844Y1068648D01*
X767840Y1070784D01*
X771342Y1073658D01*
X774216Y1077160D01*
X776352Y1081156D01*
X777667Y1085491D01*
X778111Y1090000D01*
X777667Y1094509D01*
X776352Y1098844D01*
X774216Y1102840D01*
X771342Y1106342D01*
X767840Y1109216D01*
X763844Y1111352D01*
X759509Y1112667D01*
X755000Y1113111D01*
D02*
G37*
G36*
X665597Y1077348D02*
X664403D01*
X662647Y1076999D01*
X661545Y1076542D01*
X660056Y1075548D01*
X659212Y1074704D01*
X658218Y1073215D01*
X657761Y1072113D01*
X657412Y1070357D01*
Y1070055D01*
X657353Y1069760D01*
X657412Y1069464D01*
Y1069163D01*
X657761Y1067408D01*
X658218Y1066305D01*
X659212Y1064816D01*
X660056Y1063972D01*
X661545Y1062978D01*
X662647Y1062521D01*
X664403Y1062172D01*
X665597D01*
X667353Y1062521D01*
X668455Y1062978D01*
X669944Y1063972D01*
X670788Y1064816D01*
X671782Y1066305D01*
X672239Y1067407D01*
X672588Y1069163D01*
Y1069464D01*
X672647Y1069760D01*
X672588Y1070055D01*
Y1070357D01*
X672239Y1072113D01*
X671782Y1073215D01*
X670788Y1074704D01*
X669944Y1075548D01*
X668455Y1076542D01*
X667353Y1076999D01*
X665597Y1077348D01*
D02*
G37*
G36*
X659500Y1053319D02*
X650500D01*
X649330Y1053086D01*
X648337Y1052423D01*
X647674Y1051431D01*
X647441Y1050260D01*
Y1042260D01*
X647674Y1041089D01*
X648337Y1040097D01*
X649330Y1039434D01*
X650500Y1039201D01*
X659500D01*
X660670Y1039434D01*
X661663Y1040097D01*
X662326Y1041089D01*
X662559Y1042260D01*
Y1050260D01*
X662326Y1051431D01*
X661663Y1052423D01*
X660670Y1053086D01*
X659500Y1053319D01*
D02*
G37*
G36*
X901300Y952419D02*
X888800D01*
X887629Y952186D01*
X886637Y951523D01*
X885974Y950530D01*
X885741Y949360D01*
Y939360D01*
X885974Y938189D01*
X886637Y937197D01*
X887629Y936534D01*
X888800Y936301D01*
X901300D01*
X902470Y936534D01*
X903463Y937197D01*
X904126Y938189D01*
X904339Y939262D01*
X915208D01*
X915712Y938758D01*
Y900568D01*
X903300D01*
X903236Y900891D01*
X902573Y901883D01*
X901581Y902546D01*
X900410Y902779D01*
X891910D01*
X890739Y902546D01*
X889747Y901883D01*
X889084Y900891D01*
X888851Y899720D01*
Y891220D01*
X889084Y890050D01*
X889584Y889301D01*
X889680Y888470D01*
X889584Y887639D01*
X889084Y886890D01*
X888851Y885720D01*
Y877220D01*
X889084Y876049D01*
X889747Y875057D01*
X890739Y874394D01*
X891062Y874330D01*
Y859522D01*
X889095Y857555D01*
X887990Y855901D01*
X887602Y853950D01*
Y730877D01*
X886648Y730482D01*
X884141Y728559D01*
X882218Y726052D01*
X881009Y723133D01*
X880716Y720905D01*
X880640Y720334D01*
X879360D01*
X879284Y720905D01*
X878991Y723133D01*
X877782Y726052D01*
X875859Y728559D01*
X873352Y730482D01*
X872398Y730877D01*
Y894498D01*
X894201Y916301D01*
X901300D01*
X902470Y916534D01*
X903463Y917197D01*
X904126Y918189D01*
X904359Y919360D01*
Y929360D01*
X904126Y930530D01*
X903463Y931523D01*
X902470Y932186D01*
X901300Y932419D01*
X888800D01*
X887629Y932186D01*
X886637Y931523D01*
X885974Y930530D01*
X885741Y929360D01*
Y922261D01*
X863695Y900215D01*
X862590Y898561D01*
X862202Y896610D01*
Y730877D01*
X861248Y730482D01*
X858742Y728559D01*
X856818Y726052D01*
X855609Y723133D01*
X855362Y721255D01*
X854656Y720910D01*
X854029Y720862D01*
X853959Y720944D01*
Y724500D01*
X853959Y724500D01*
X853726Y725670D01*
X853063Y726663D01*
X848563Y731163D01*
X847570Y731826D01*
X846400Y732059D01*
X837400D01*
X837400Y732059D01*
X836229Y731826D01*
X835237Y731163D01*
X830737Y726663D01*
X830074Y725670D01*
X829841Y724500D01*
Y715500D01*
X829841Y715500D01*
X830074Y714330D01*
X830737Y713337D01*
X835237Y708837D01*
X836229Y708174D01*
X837400Y707941D01*
X843833D01*
X844441Y707200D01*
Y687200D01*
X844674Y686029D01*
X845337Y685037D01*
X846329Y684374D01*
X847500Y684141D01*
X912500D01*
X913671Y684374D01*
X914663Y685037D01*
X915326Y686029D01*
X915559Y687200D01*
Y706950D01*
X916351Y708046D01*
X916418Y708118D01*
X918100Y707896D01*
X921233Y708309D01*
X924152Y709518D01*
X926658Y711441D01*
X928582Y713948D01*
X929791Y716867D01*
X930203Y720000D01*
X929791Y723133D01*
X928582Y726052D01*
X926658Y728559D01*
X924152Y730482D01*
X921233Y731691D01*
X918100Y732104D01*
X914967Y731691D01*
X912048Y730482D01*
X909541Y728559D01*
X907618Y726052D01*
X906409Y723133D01*
X906116Y720905D01*
X906040Y720334D01*
X904760D01*
X904684Y720905D01*
X904391Y723133D01*
X903182Y726052D01*
X901258Y728559D01*
X898752Y730482D01*
X897798Y730877D01*
Y851838D01*
X899765Y853805D01*
X900870Y855459D01*
X901258Y857410D01*
Y874330D01*
X901581Y874394D01*
X902573Y875057D01*
X903236Y876049D01*
X903469Y877220D01*
Y885720D01*
X903236Y886890D01*
X902736Y887639D01*
X902640Y888470D01*
X902736Y889301D01*
X903236Y890050D01*
X903300Y890372D01*
X920810D01*
X922761Y890760D01*
X924415Y891865D01*
X925520Y893519D01*
X925908Y895470D01*
Y940870D01*
X925520Y942821D01*
X924415Y944475D01*
X920925Y947965D01*
X919271Y949070D01*
X917320Y949458D01*
X904339D01*
X904126Y950530D01*
X903463Y951523D01*
X902470Y952186D01*
X901300Y952419D01*
D02*
G37*
G36*
X693000Y1085319D02*
X680500D01*
X679330Y1085086D01*
X678337Y1084423D01*
X677674Y1083430D01*
X677441Y1082260D01*
Y1073260D01*
X677674Y1072089D01*
X678337Y1071097D01*
X678447Y1071024D01*
Y1069496D01*
X678337Y1069423D01*
X677674Y1068430D01*
X677441Y1067260D01*
Y1058260D01*
X677674Y1057089D01*
X678337Y1056097D01*
X679330Y1055434D01*
X680342Y1055233D01*
X680471Y1054395D01*
X680463Y1054157D01*
X679500Y1053319D01*
X670500D01*
X669330Y1053086D01*
X668337Y1052423D01*
X667674Y1051431D01*
X667441Y1050260D01*
Y1042260D01*
X667674Y1041089D01*
X668337Y1040097D01*
X669330Y1039434D01*
X670500Y1039201D01*
X679500D01*
X679651Y1039231D01*
X680632Y1038426D01*
Y1034284D01*
X678524Y1032176D01*
X677198Y1030191D01*
X676732Y1027850D01*
Y897150D01*
X677198Y894809D01*
X678524Y892824D01*
X680509Y891498D01*
X682850Y891032D01*
X701569D01*
X703441Y888592D01*
X705948Y886668D01*
X708867Y885459D01*
X712000Y885046D01*
X715133Y885459D01*
X718052Y886668D01*
X720558Y888592D01*
X722482Y891098D01*
X723691Y894017D01*
X724103Y897150D01*
X723691Y900283D01*
X722482Y903202D01*
X720558Y905708D01*
X718052Y907632D01*
X715133Y908841D01*
X712905Y909134D01*
X712334Y909210D01*
Y910490D01*
X712905Y910566D01*
X715133Y910859D01*
X718052Y912068D01*
X720558Y913991D01*
X722482Y916498D01*
X723691Y919417D01*
X724103Y922550D01*
X723691Y925683D01*
X722482Y928602D01*
X720558Y931108D01*
X718052Y933032D01*
X715133Y934241D01*
X712905Y934534D01*
X712334Y934610D01*
Y935890D01*
X712905Y935966D01*
X715133Y936259D01*
X718052Y937468D01*
X720558Y939391D01*
X722482Y941898D01*
X723691Y944817D01*
X724103Y947950D01*
X723691Y951083D01*
X722482Y954002D01*
X720558Y956508D01*
X718052Y958432D01*
X715133Y959641D01*
X712962Y959927D01*
X712245Y960021D01*
X712328Y961291D01*
X716500D01*
X716500Y961291D01*
X717671Y961524D01*
X718663Y962187D01*
X723163Y966687D01*
X723826Y967680D01*
X724059Y968850D01*
Y977850D01*
X724059Y977850D01*
X723826Y979020D01*
X723163Y980013D01*
X718663Y984513D01*
X717671Y985176D01*
X716500Y985409D01*
X707500D01*
X707500Y985409D01*
X706329Y985176D01*
X705337Y984513D01*
X700837Y980013D01*
X700174Y979020D01*
X699941Y977850D01*
Y968850D01*
X699941Y968850D01*
X700174Y967680D01*
X700837Y966687D01*
X705337Y962187D01*
X706329Y961524D01*
X707500Y961291D01*
X711672D01*
X711755Y960021D01*
X711038Y959927D01*
X708867Y959641D01*
X705948Y958432D01*
X703441Y956508D01*
X701518Y954002D01*
X700309Y951083D01*
X699896Y947950D01*
X700309Y944817D01*
X701518Y941898D01*
X703441Y939391D01*
X705948Y937468D01*
X708867Y936259D01*
X711095Y935966D01*
X711666Y935890D01*
Y934610D01*
X711095Y934534D01*
X708867Y934241D01*
X705948Y933032D01*
X703441Y931108D01*
X701518Y928602D01*
X700309Y925683D01*
X699896Y922550D01*
X700309Y919417D01*
X701518Y916498D01*
X703441Y913991D01*
X705948Y912068D01*
X708867Y910859D01*
X711095Y910566D01*
X711666Y910490D01*
Y909210D01*
X711095Y909134D01*
X708867Y908841D01*
X705948Y907632D01*
X703441Y905708D01*
X701569Y903268D01*
X688968D01*
Y1025316D01*
X691076Y1027424D01*
X692402Y1029409D01*
X692868Y1031750D01*
Y1055201D01*
X693000D01*
X694171Y1055434D01*
X695163Y1056097D01*
X695826Y1057089D01*
X696059Y1058260D01*
Y1067260D01*
X695826Y1068430D01*
X695163Y1069423D01*
X695151Y1070673D01*
X696067Y1071642D01*
X704706D01*
X790674Y985674D01*
X792659Y984348D01*
X795000Y983883D01*
X982466D01*
X1071474Y894874D01*
X1073459Y893548D01*
X1075800Y893082D01*
X1099568D01*
X1101441Y890641D01*
X1103948Y888718D01*
X1106867Y887509D01*
X1110000Y887096D01*
X1113133Y887509D01*
X1116052Y888718D01*
X1118559Y890641D01*
X1120482Y893148D01*
X1121691Y896067D01*
X1122104Y899200D01*
X1121691Y902333D01*
X1120482Y905252D01*
X1118559Y907758D01*
X1116052Y909682D01*
X1113133Y910891D01*
X1110905Y911184D01*
X1110334Y911260D01*
Y912540D01*
X1110905Y912616D01*
X1113133Y912909D01*
X1116052Y914118D01*
X1118559Y916041D01*
X1120482Y918548D01*
X1121691Y921467D01*
X1122104Y924600D01*
X1121691Y927733D01*
X1120482Y930652D01*
X1118559Y933158D01*
X1116052Y935082D01*
X1113133Y936291D01*
X1110905Y936584D01*
X1110334Y936659D01*
Y937940D01*
X1110905Y938016D01*
X1113133Y938309D01*
X1116052Y939518D01*
X1118559Y941441D01*
X1120482Y943948D01*
X1121691Y946867D01*
X1122104Y950000D01*
X1121691Y953133D01*
X1120482Y956052D01*
X1118559Y958559D01*
X1116052Y960482D01*
X1113133Y961691D01*
X1110905Y961984D01*
X1110334Y962059D01*
Y963340D01*
X1110905Y963416D01*
X1113133Y963709D01*
X1116052Y964918D01*
X1118559Y966842D01*
X1120482Y969348D01*
X1121691Y972267D01*
X1122104Y975400D01*
X1121691Y978533D01*
X1120482Y981452D01*
X1118559Y983959D01*
X1116052Y985882D01*
X1113133Y987091D01*
X1110000Y987504D01*
X1106867Y987091D01*
X1103948Y985882D01*
X1101441Y983959D01*
X1099518Y981452D01*
X1098309Y978533D01*
X1097896Y975400D01*
X1098309Y972267D01*
X1099518Y969348D01*
X1101441Y966842D01*
X1103948Y964918D01*
X1106867Y963709D01*
X1109095Y963416D01*
X1109666Y963340D01*
Y962059D01*
X1109095Y961984D01*
X1106867Y961691D01*
X1103948Y960482D01*
X1101441Y958559D01*
X1099518Y956052D01*
X1098309Y953133D01*
X1097896Y950000D01*
X1098309Y946867D01*
X1099518Y943948D01*
X1101441Y941441D01*
X1103948Y939518D01*
X1106867Y938309D01*
X1109095Y938016D01*
X1109666Y937940D01*
Y936659D01*
X1109095Y936584D01*
X1106867Y936291D01*
X1103948Y935082D01*
X1101441Y933158D01*
X1099518Y930652D01*
X1098309Y927733D01*
X1097896Y924600D01*
X1098309Y921467D01*
X1099518Y918548D01*
X1101441Y916041D01*
X1103948Y914118D01*
X1106867Y912909D01*
X1109095Y912616D01*
X1109666Y912540D01*
Y911260D01*
X1109095Y911184D01*
X1106867Y910891D01*
X1103948Y909682D01*
X1101441Y907758D01*
X1099568Y905318D01*
X1078334D01*
X989326Y994326D01*
X987341Y995652D01*
X985000Y996117D01*
X797534D01*
X711566Y1082086D01*
X709581Y1083412D01*
X707240Y1083877D01*
X695527D01*
X695163Y1084423D01*
X694171Y1085086D01*
X693000Y1085319D01*
D02*
G37*
G36*
X1055000Y813111D02*
X1050491Y812667D01*
X1046156Y811352D01*
X1042160Y809216D01*
X1038658Y806342D01*
X1035784Y802840D01*
X1033648Y798844D01*
X1032333Y794509D01*
X1031889Y790000D01*
X1032333Y785491D01*
X1033648Y781156D01*
X1035784Y777160D01*
X1038658Y773658D01*
X1042160Y770784D01*
X1046156Y768648D01*
X1050491Y767333D01*
X1055000Y766889D01*
X1059509Y767333D01*
X1063844Y768648D01*
X1067840Y770784D01*
X1071342Y773658D01*
X1074216Y777160D01*
X1076352Y781156D01*
X1077667Y785491D01*
X1078111Y790000D01*
X1077667Y794509D01*
X1076352Y798844D01*
X1074216Y802840D01*
X1071342Y806342D01*
X1067840Y809216D01*
X1063844Y811352D01*
X1059509Y812667D01*
X1055000Y813111D01*
D02*
G37*
G36*
X755000D02*
X750491Y812667D01*
X746156Y811352D01*
X742160Y809216D01*
X738658Y806342D01*
X735784Y802840D01*
X733648Y798844D01*
X732333Y794509D01*
X731889Y790000D01*
X732333Y785491D01*
X733648Y781156D01*
X735784Y777160D01*
X738658Y773658D01*
X742160Y770784D01*
X746156Y768648D01*
X750491Y767333D01*
X755000Y766889D01*
X759509Y767333D01*
X763844Y768648D01*
X767840Y770784D01*
X771342Y773658D01*
X774216Y777160D01*
X776352Y781156D01*
X777667Y785491D01*
X778111Y790000D01*
X777667Y794509D01*
X776352Y798844D01*
X774216Y802840D01*
X771342Y806342D01*
X767840Y809216D01*
X763844Y811352D01*
X759509Y812667D01*
X755000Y813111D01*
D02*
G37*
G36*
X1110000Y723102D02*
X1104822Y722694D01*
X1099771Y721482D01*
X1094972Y719494D01*
X1090543Y716780D01*
X1086593Y713407D01*
X1083220Y709457D01*
X1080506Y705028D01*
X1078518Y700229D01*
X1077306Y695178D01*
X1076898Y690000D01*
X1077306Y684822D01*
X1078518Y679771D01*
X1080506Y674972D01*
X1083220Y670543D01*
X1086593Y666593D01*
X1090543Y663220D01*
X1094972Y660506D01*
X1099771Y658518D01*
X1104822Y657306D01*
X1110000Y656898D01*
X1115178Y657306D01*
X1120229Y658518D01*
X1125028Y660506D01*
X1129457Y663220D01*
X1133407Y666593D01*
X1136780Y670543D01*
X1139494Y674972D01*
X1141482Y679771D01*
X1142694Y684822D01*
X1143102Y690000D01*
X1142694Y695178D01*
X1141482Y700229D01*
X1139494Y705028D01*
X1136780Y709457D01*
X1133407Y713407D01*
X1129457Y716780D01*
X1125028Y719494D01*
X1120229Y721482D01*
X1115178Y722694D01*
X1110000Y723102D01*
D02*
G37*
G36*
X650000D02*
X644822Y722694D01*
X639771Y721482D01*
X634972Y719494D01*
X630543Y716780D01*
X626593Y713407D01*
X623220Y709457D01*
X620506Y705028D01*
X618518Y700229D01*
X617305Y695178D01*
X616898Y690000D01*
X617305Y684822D01*
X618518Y679771D01*
X620506Y674972D01*
X623220Y670543D01*
X626593Y666593D01*
X630543Y663220D01*
X634972Y660506D01*
X639771Y658518D01*
X644822Y657306D01*
X650000Y656898D01*
X655178Y657306D01*
X660229Y658518D01*
X665028Y660506D01*
X669457Y663220D01*
X673407Y666593D01*
X676780Y670543D01*
X679494Y674972D01*
X681482Y679771D01*
X682694Y684822D01*
X683102Y690000D01*
X682694Y695178D01*
X681482Y700229D01*
X679494Y705028D01*
X676780Y709457D01*
X673407Y713407D01*
X669457Y716780D01*
X665028Y719494D01*
X660229Y721482D01*
X655178Y722694D01*
X650000Y723102D01*
D02*
G37*
G36*
X550000Y1223102D02*
X544822Y1222694D01*
X539771Y1221482D01*
X534972Y1219494D01*
X530543Y1216780D01*
X526593Y1213407D01*
X523220Y1209457D01*
X520506Y1205028D01*
X518518Y1200229D01*
X517305Y1195178D01*
X516898Y1190000D01*
X517305Y1184822D01*
X518518Y1179771D01*
X520506Y1174972D01*
X523220Y1170543D01*
X526593Y1166593D01*
X530543Y1163220D01*
X534972Y1160506D01*
X539771Y1158518D01*
X544822Y1157306D01*
X550000Y1156898D01*
X555178Y1157306D01*
X560229Y1158518D01*
X565028Y1160506D01*
X569457Y1163220D01*
X573407Y1166593D01*
X576780Y1170543D01*
X579494Y1174972D01*
X581482Y1179771D01*
X582695Y1184822D01*
X583102Y1190000D01*
X582695Y1195178D01*
X581482Y1200229D01*
X579494Y1205028D01*
X576780Y1209457D01*
X573407Y1213407D01*
X569457Y1216780D01*
X565028Y1219494D01*
X560229Y1221482D01*
X555178Y1222694D01*
X550000Y1223102D01*
D02*
G37*
G36*
X90000D02*
X84822Y1222694D01*
X79771Y1221482D01*
X74972Y1219494D01*
X70543Y1216780D01*
X66593Y1213407D01*
X63220Y1209457D01*
X60506Y1205028D01*
X58518Y1200229D01*
X57305Y1195178D01*
X56898Y1190000D01*
X57305Y1184822D01*
X58518Y1179771D01*
X60506Y1174972D01*
X63220Y1170543D01*
X66593Y1166593D01*
X70543Y1163220D01*
X74972Y1160506D01*
X79771Y1158518D01*
X84822Y1157306D01*
X90000Y1156898D01*
X95178Y1157306D01*
X100229Y1158518D01*
X105028Y1160506D01*
X109457Y1163220D01*
X113407Y1166593D01*
X116780Y1170543D01*
X119494Y1174972D01*
X121482Y1179771D01*
X122695Y1184822D01*
X123102Y1190000D01*
X122695Y1195178D01*
X121482Y1200229D01*
X119494Y1205028D01*
X116780Y1209457D01*
X113407Y1213407D01*
X109457Y1216780D01*
X105028Y1219494D01*
X100229Y1221482D01*
X95178Y1222694D01*
X90000Y1223102D01*
D02*
G37*
G36*
X99500Y1130319D02*
X90500D01*
X89330Y1130086D01*
X88337Y1129423D01*
X87674Y1128430D01*
X87441Y1127260D01*
Y1119260D01*
X87674Y1118090D01*
X88337Y1117097D01*
X89330Y1116434D01*
X90500Y1116201D01*
X99500D01*
X100670Y1116434D01*
X101663Y1117097D01*
X102326Y1118090D01*
X102559Y1119260D01*
Y1127260D01*
X102326Y1128430D01*
X101663Y1129423D01*
X100670Y1130086D01*
X99500Y1130319D01*
D02*
G37*
G36*
X119500D02*
X110500D01*
X109330Y1130086D01*
X108337Y1129423D01*
X107674Y1128430D01*
X107441Y1127260D01*
Y1119260D01*
X107674Y1118090D01*
X108337Y1117097D01*
X109330Y1116434D01*
X110500Y1116201D01*
X116669D01*
X117441Y1115260D01*
Y1106260D01*
X117674Y1105089D01*
X118337Y1104097D01*
X119330Y1103434D01*
X120500Y1103201D01*
X133000D01*
X134171Y1103434D01*
X135163Y1104097D01*
X135826Y1105089D01*
X136059Y1106260D01*
Y1115260D01*
X135826Y1116431D01*
X135163Y1117423D01*
X134171Y1118086D01*
X133000Y1118319D01*
X123331D01*
X122559Y1119260D01*
Y1127260D01*
X122326Y1128430D01*
X121663Y1129423D01*
X120670Y1130086D01*
X119500Y1130319D01*
D02*
G37*
G36*
X105597Y1107348D02*
X104403D01*
X102647Y1106999D01*
X101545Y1106542D01*
X100056Y1105548D01*
X99212Y1104704D01*
X98218Y1103215D01*
X97761Y1102113D01*
X97412Y1100357D01*
Y1100055D01*
X97353Y1099760D01*
X97412Y1099464D01*
Y1099163D01*
X97761Y1097408D01*
X98218Y1096305D01*
X99212Y1094816D01*
X100056Y1093972D01*
X101545Y1092978D01*
X102647Y1092521D01*
X104403Y1092172D01*
X105597D01*
X107353Y1092521D01*
X108455Y1092978D01*
X109944Y1093972D01*
X110788Y1094816D01*
X111782Y1096305D01*
X112239Y1097407D01*
X112588Y1099163D01*
Y1099464D01*
X112647Y1099760D01*
X112588Y1100055D01*
Y1100357D01*
X112239Y1102113D01*
X111782Y1103215D01*
X110788Y1104704D01*
X109944Y1105548D01*
X108455Y1106542D01*
X107353Y1106999D01*
X105597Y1107348D01*
D02*
G37*
G36*
X495000Y1113111D02*
X490491Y1112667D01*
X486156Y1111352D01*
X482160Y1109216D01*
X478658Y1106342D01*
X475784Y1102840D01*
X473648Y1098844D01*
X472333Y1094509D01*
X471889Y1090000D01*
X472333Y1085491D01*
X473648Y1081156D01*
X475784Y1077160D01*
X478658Y1073658D01*
X482160Y1070784D01*
X486156Y1068648D01*
X490491Y1067333D01*
X495000Y1066889D01*
X499509Y1067333D01*
X503844Y1068648D01*
X507840Y1070784D01*
X511342Y1073658D01*
X514216Y1077160D01*
X516352Y1081156D01*
X517667Y1085491D01*
X518111Y1090000D01*
X517667Y1094509D01*
X516352Y1098844D01*
X514216Y1102840D01*
X511342Y1106342D01*
X507840Y1109216D01*
X503844Y1111352D01*
X499509Y1112667D01*
X495000Y1113111D01*
D02*
G37*
G36*
X195000D02*
X190491Y1112667D01*
X186156Y1111352D01*
X182160Y1109216D01*
X178658Y1106342D01*
X175784Y1102840D01*
X173648Y1098844D01*
X172333Y1094509D01*
X171889Y1090000D01*
X172333Y1085491D01*
X173648Y1081156D01*
X175784Y1077160D01*
X178658Y1073658D01*
X182160Y1070784D01*
X186156Y1068648D01*
X190491Y1067333D01*
X195000Y1066889D01*
X199509Y1067333D01*
X203844Y1068648D01*
X207840Y1070784D01*
X211342Y1073658D01*
X214216Y1077160D01*
X216352Y1081156D01*
X217667Y1085491D01*
X218111Y1090000D01*
X217667Y1094509D01*
X216352Y1098844D01*
X214216Y1102840D01*
X211342Y1106342D01*
X207840Y1109216D01*
X203844Y1111352D01*
X199509Y1112667D01*
X195000Y1113111D01*
D02*
G37*
G36*
X105597Y1077348D02*
X104403D01*
X102647Y1076999D01*
X101545Y1076542D01*
X100056Y1075548D01*
X99212Y1074704D01*
X98218Y1073215D01*
X97761Y1072113D01*
X97412Y1070357D01*
Y1070055D01*
X97353Y1069760D01*
X97412Y1069464D01*
Y1069163D01*
X97761Y1067408D01*
X98218Y1066305D01*
X99212Y1064816D01*
X100056Y1063972D01*
X101545Y1062978D01*
X102647Y1062521D01*
X104403Y1062172D01*
X105597D01*
X107353Y1062521D01*
X108455Y1062978D01*
X109944Y1063972D01*
X110788Y1064816D01*
X111782Y1066305D01*
X112239Y1067407D01*
X112588Y1069163D01*
Y1069464D01*
X112647Y1069760D01*
X112588Y1070055D01*
Y1070357D01*
X112239Y1072113D01*
X111782Y1073215D01*
X110788Y1074704D01*
X109944Y1075548D01*
X108455Y1076542D01*
X107353Y1076999D01*
X105597Y1077348D01*
D02*
G37*
G36*
X99500Y1053319D02*
X90500D01*
X89330Y1053086D01*
X88337Y1052423D01*
X87674Y1051431D01*
X87441Y1050260D01*
Y1042260D01*
X87674Y1041089D01*
X88337Y1040097D01*
X89330Y1039434D01*
X90500Y1039201D01*
X99500D01*
X100670Y1039434D01*
X101663Y1040097D01*
X102326Y1041089D01*
X102559Y1042260D01*
Y1050260D01*
X102326Y1051431D01*
X101663Y1052423D01*
X100670Y1053086D01*
X99500Y1053319D01*
D02*
G37*
G36*
X341300Y952419D02*
X328800D01*
X327630Y952186D01*
X326637Y951523D01*
X325974Y950530D01*
X325741Y949360D01*
Y939360D01*
X325974Y938189D01*
X326637Y937197D01*
X327630Y936534D01*
X328800Y936301D01*
X341300D01*
X342471Y936534D01*
X343463Y937197D01*
X344126Y938189D01*
X344339Y939262D01*
X355208D01*
X355712Y938758D01*
Y900568D01*
X343300D01*
X343236Y900891D01*
X342573Y901883D01*
X341581Y902546D01*
X340410Y902779D01*
X331910D01*
X330739Y902546D01*
X329747Y901883D01*
X329084Y900891D01*
X328851Y899720D01*
Y891220D01*
X329084Y890050D01*
X329584Y889301D01*
X329680Y888470D01*
X329584Y887639D01*
X329084Y886890D01*
X328851Y885720D01*
Y877220D01*
X329084Y876049D01*
X329747Y875057D01*
X330739Y874394D01*
X331062Y874330D01*
Y859522D01*
X329095Y857555D01*
X327990Y855901D01*
X327602Y853950D01*
Y730877D01*
X326648Y730482D01*
X324142Y728559D01*
X322218Y726052D01*
X321009Y723133D01*
X320716Y720905D01*
X320640Y720334D01*
X319360D01*
X319284Y720905D01*
X318991Y723133D01*
X317782Y726052D01*
X315858Y728559D01*
X313352Y730482D01*
X312398Y730877D01*
Y894498D01*
X334201Y916301D01*
X341300D01*
X342471Y916534D01*
X343463Y917197D01*
X344126Y918189D01*
X344359Y919360D01*
Y929360D01*
X344126Y930530D01*
X343463Y931523D01*
X342471Y932186D01*
X341300Y932419D01*
X328800D01*
X327630Y932186D01*
X326637Y931523D01*
X325974Y930530D01*
X325741Y929360D01*
Y922261D01*
X303695Y900215D01*
X302590Y898561D01*
X302202Y896610D01*
Y730877D01*
X301248Y730482D01*
X298741Y728559D01*
X296818Y726052D01*
X295609Y723133D01*
X295362Y721255D01*
X294656Y720910D01*
X294029Y720862D01*
X293959Y720944D01*
Y724500D01*
X293959Y724500D01*
X293726Y725670D01*
X293063Y726663D01*
X288563Y731163D01*
X287570Y731826D01*
X286400Y732059D01*
X277400D01*
X277400Y732059D01*
X276229Y731826D01*
X275237Y731163D01*
X270737Y726663D01*
X270074Y725670D01*
X269841Y724500D01*
Y715500D01*
X269841Y715500D01*
X270074Y714330D01*
X270737Y713337D01*
X275237Y708837D01*
X276229Y708174D01*
X277400Y707941D01*
X283833D01*
X284441Y707200D01*
Y687200D01*
X284674Y686029D01*
X285337Y685037D01*
X286329Y684374D01*
X287500Y684141D01*
X352500D01*
X353671Y684374D01*
X354663Y685037D01*
X355326Y686029D01*
X355559Y687200D01*
Y706950D01*
X356352Y708046D01*
X356418Y708118D01*
X358100Y707896D01*
X361233Y708309D01*
X364152Y709518D01*
X366659Y711441D01*
X368582Y713948D01*
X369791Y716867D01*
X370204Y720000D01*
X369791Y723133D01*
X368582Y726052D01*
X366659Y728559D01*
X364152Y730482D01*
X361233Y731691D01*
X358100Y732104D01*
X354967Y731691D01*
X352048Y730482D01*
X349542Y728559D01*
X347618Y726052D01*
X346409Y723133D01*
X346116Y720905D01*
X346040Y720334D01*
X344760D01*
X344684Y720905D01*
X344391Y723133D01*
X343182Y726052D01*
X341259Y728559D01*
X338752Y730482D01*
X337798Y730877D01*
Y851838D01*
X339765Y853805D01*
X340870Y855459D01*
X341258Y857410D01*
Y874330D01*
X341581Y874394D01*
X342573Y875057D01*
X343236Y876049D01*
X343469Y877220D01*
Y885720D01*
X343236Y886890D01*
X342736Y887639D01*
X342640Y888470D01*
X342736Y889301D01*
X343236Y890050D01*
X343300Y890372D01*
X360810D01*
X362761Y890760D01*
X364415Y891865D01*
X365520Y893519D01*
X365908Y895470D01*
Y940870D01*
X365520Y942821D01*
X364415Y944475D01*
X360925Y947965D01*
X359271Y949070D01*
X357320Y949458D01*
X344339D01*
X344126Y950530D01*
X343463Y951523D01*
X342471Y952186D01*
X341300Y952419D01*
D02*
G37*
G36*
X133000Y1085319D02*
X120500D01*
X119330Y1085086D01*
X118337Y1084423D01*
X117674Y1083430D01*
X117441Y1082260D01*
Y1073260D01*
X117674Y1072089D01*
X118337Y1071097D01*
X118447Y1071024D01*
Y1069496D01*
X118337Y1069423D01*
X117674Y1068430D01*
X117441Y1067260D01*
Y1058260D01*
X117674Y1057089D01*
X118337Y1056097D01*
X119330Y1055434D01*
X120342Y1055233D01*
X120471Y1054395D01*
X120463Y1054157D01*
X119500Y1053319D01*
X110500D01*
X109330Y1053086D01*
X108337Y1052423D01*
X107674Y1051431D01*
X107441Y1050260D01*
Y1042260D01*
X107674Y1041089D01*
X108337Y1040097D01*
X109330Y1039434D01*
X110500Y1039201D01*
X119500D01*
X119651Y1039231D01*
X120632Y1038426D01*
Y1034284D01*
X118524Y1032176D01*
X117198Y1030191D01*
X116733Y1027850D01*
Y897150D01*
X117198Y894809D01*
X118524Y892824D01*
X120509Y891498D01*
X122850Y891032D01*
X141568D01*
X143441Y888592D01*
X145948Y886668D01*
X148867Y885459D01*
X152000Y885046D01*
X155133Y885459D01*
X158052Y886668D01*
X160558Y888592D01*
X162482Y891098D01*
X163691Y894017D01*
X164104Y897150D01*
X163691Y900283D01*
X162482Y903202D01*
X160558Y905708D01*
X158052Y907632D01*
X155133Y908841D01*
X152905Y909134D01*
X152334Y909210D01*
Y910490D01*
X152905Y910566D01*
X155133Y910859D01*
X158052Y912068D01*
X160558Y913991D01*
X162482Y916498D01*
X163691Y919417D01*
X164104Y922550D01*
X163691Y925683D01*
X162482Y928602D01*
X160558Y931108D01*
X158052Y933032D01*
X155133Y934241D01*
X152905Y934534D01*
X152334Y934610D01*
Y935890D01*
X152905Y935966D01*
X155133Y936259D01*
X158052Y937468D01*
X160558Y939391D01*
X162482Y941898D01*
X163691Y944817D01*
X164104Y947950D01*
X163691Y951083D01*
X162482Y954002D01*
X160558Y956508D01*
X158052Y958432D01*
X155133Y959641D01*
X152962Y959927D01*
X152245Y960021D01*
X152329Y961291D01*
X156500D01*
X156500Y961291D01*
X157670Y961524D01*
X158663Y962187D01*
X163163Y966687D01*
X163826Y967680D01*
X164059Y968850D01*
Y977850D01*
X164059Y977850D01*
X163826Y979020D01*
X163163Y980013D01*
X158663Y984513D01*
X157670Y985176D01*
X156500Y985409D01*
X147500D01*
X147500Y985409D01*
X146329Y985176D01*
X145337Y984513D01*
X140837Y980013D01*
X140174Y979020D01*
X139941Y977850D01*
Y968850D01*
X139941Y968850D01*
X140174Y967680D01*
X140837Y966687D01*
X145337Y962187D01*
X146329Y961524D01*
X147500Y961291D01*
X151671D01*
X151755Y960021D01*
X151038Y959927D01*
X148867Y959641D01*
X145948Y958432D01*
X143441Y956508D01*
X141518Y954002D01*
X140309Y951083D01*
X139896Y947950D01*
X140309Y944817D01*
X141518Y941898D01*
X143441Y939391D01*
X145948Y937468D01*
X148867Y936259D01*
X151095Y935966D01*
X151666Y935890D01*
Y934610D01*
X151095Y934534D01*
X148867Y934241D01*
X145948Y933032D01*
X143441Y931108D01*
X141518Y928602D01*
X140309Y925683D01*
X139896Y922550D01*
X140309Y919417D01*
X141518Y916498D01*
X143441Y913991D01*
X145948Y912068D01*
X148867Y910859D01*
X151095Y910566D01*
X151666Y910490D01*
Y909210D01*
X151095Y909134D01*
X148867Y908841D01*
X145948Y907632D01*
X143441Y905708D01*
X141568Y903268D01*
X128968D01*
Y1025316D01*
X131076Y1027424D01*
X132402Y1029409D01*
X132867Y1031750D01*
Y1055201D01*
X133000D01*
X134171Y1055434D01*
X135163Y1056097D01*
X135826Y1057089D01*
X136059Y1058260D01*
Y1067260D01*
X135826Y1068430D01*
X135163Y1069423D01*
X135151Y1070673D01*
X136067Y1071642D01*
X144706D01*
X230674Y985674D01*
X232659Y984348D01*
X235000Y983883D01*
X422466D01*
X511474Y894874D01*
X513459Y893548D01*
X515800Y893082D01*
X539568D01*
X541441Y890641D01*
X543948Y888718D01*
X546867Y887509D01*
X550000Y887096D01*
X553133Y887509D01*
X556052Y888718D01*
X558559Y890641D01*
X560482Y893148D01*
X561691Y896067D01*
X562104Y899200D01*
X561691Y902333D01*
X560482Y905252D01*
X558559Y907758D01*
X556052Y909682D01*
X553133Y910891D01*
X550905Y911184D01*
X550334Y911260D01*
Y912540D01*
X550905Y912616D01*
X553133Y912909D01*
X556052Y914118D01*
X558559Y916041D01*
X560482Y918548D01*
X561691Y921467D01*
X562104Y924600D01*
X561691Y927733D01*
X560482Y930652D01*
X558559Y933158D01*
X556052Y935082D01*
X553133Y936291D01*
X550905Y936584D01*
X550334Y936659D01*
Y937940D01*
X550905Y938016D01*
X553133Y938309D01*
X556052Y939518D01*
X558559Y941441D01*
X560482Y943948D01*
X561691Y946867D01*
X562104Y950000D01*
X561691Y953133D01*
X560482Y956052D01*
X558559Y958559D01*
X556052Y960482D01*
X553133Y961691D01*
X550905Y961984D01*
X550334Y962059D01*
Y963340D01*
X550905Y963416D01*
X553133Y963709D01*
X556052Y964918D01*
X558559Y966842D01*
X560482Y969348D01*
X561691Y972267D01*
X562104Y975400D01*
X561691Y978533D01*
X560482Y981452D01*
X558559Y983959D01*
X556052Y985882D01*
X553133Y987091D01*
X550000Y987504D01*
X546867Y987091D01*
X543948Y985882D01*
X541441Y983959D01*
X539518Y981452D01*
X538309Y978533D01*
X537896Y975400D01*
X538309Y972267D01*
X539518Y969348D01*
X541441Y966842D01*
X543948Y964918D01*
X546867Y963709D01*
X549095Y963416D01*
X549666Y963340D01*
Y962059D01*
X549095Y961984D01*
X546867Y961691D01*
X543948Y960482D01*
X541441Y958559D01*
X539518Y956052D01*
X538309Y953133D01*
X537896Y950000D01*
X538309Y946867D01*
X539518Y943948D01*
X541441Y941441D01*
X543948Y939518D01*
X546867Y938309D01*
X549095Y938016D01*
X549666Y937940D01*
Y936659D01*
X549095Y936584D01*
X546867Y936291D01*
X543948Y935082D01*
X541441Y933158D01*
X539518Y930652D01*
X538309Y927733D01*
X537896Y924600D01*
X538309Y921467D01*
X539518Y918548D01*
X541441Y916041D01*
X543948Y914118D01*
X546867Y912909D01*
X549095Y912616D01*
X549666Y912540D01*
Y911260D01*
X549095Y911184D01*
X546867Y910891D01*
X543948Y909682D01*
X541441Y907758D01*
X539568Y905318D01*
X518334D01*
X429326Y994326D01*
X427341Y995652D01*
X425000Y996117D01*
X237534D01*
X151566Y1082086D01*
X149581Y1083412D01*
X147240Y1083877D01*
X135527D01*
X135163Y1084423D01*
X134171Y1085086D01*
X133000Y1085319D01*
D02*
G37*
G36*
X495000Y813111D02*
X490491Y812667D01*
X486156Y811352D01*
X482160Y809216D01*
X478658Y806342D01*
X475784Y802840D01*
X473648Y798844D01*
X472333Y794509D01*
X471889Y790000D01*
X472333Y785491D01*
X473648Y781156D01*
X475784Y777160D01*
X478658Y773658D01*
X482160Y770784D01*
X486156Y768648D01*
X490491Y767333D01*
X495000Y766889D01*
X499509Y767333D01*
X503844Y768648D01*
X507840Y770784D01*
X511342Y773658D01*
X514216Y777160D01*
X516352Y781156D01*
X517667Y785491D01*
X518111Y790000D01*
X517667Y794509D01*
X516352Y798844D01*
X514216Y802840D01*
X511342Y806342D01*
X507840Y809216D01*
X503844Y811352D01*
X499509Y812667D01*
X495000Y813111D01*
D02*
G37*
G36*
X195000D02*
X190491Y812667D01*
X186156Y811352D01*
X182160Y809216D01*
X178658Y806342D01*
X175784Y802840D01*
X173648Y798844D01*
X172333Y794509D01*
X171889Y790000D01*
X172333Y785491D01*
X173648Y781156D01*
X175784Y777160D01*
X178658Y773658D01*
X182160Y770784D01*
X186156Y768648D01*
X190491Y767333D01*
X195000Y766889D01*
X199509Y767333D01*
X203844Y768648D01*
X207840Y770784D01*
X211342Y773658D01*
X214216Y777160D01*
X216352Y781156D01*
X217667Y785491D01*
X218111Y790000D01*
X217667Y794509D01*
X216352Y798844D01*
X214216Y802840D01*
X211342Y806342D01*
X207840Y809216D01*
X203844Y811352D01*
X199509Y812667D01*
X195000Y813111D01*
D02*
G37*
G36*
X550000Y723102D02*
X544822Y722694D01*
X539771Y721482D01*
X534972Y719494D01*
X530543Y716780D01*
X526593Y713407D01*
X523220Y709457D01*
X520506Y705028D01*
X518518Y700229D01*
X517305Y695178D01*
X516898Y690000D01*
X517305Y684822D01*
X518518Y679771D01*
X520506Y674972D01*
X523220Y670543D01*
X526593Y666593D01*
X530543Y663220D01*
X534972Y660506D01*
X539771Y658518D01*
X544822Y657306D01*
X550000Y656898D01*
X555178Y657306D01*
X560229Y658518D01*
X565028Y660506D01*
X569457Y663220D01*
X573407Y666593D01*
X576780Y670543D01*
X579494Y674972D01*
X581482Y679771D01*
X582695Y684822D01*
X583102Y690000D01*
X582695Y695178D01*
X581482Y700229D01*
X579494Y705028D01*
X576780Y709457D01*
X573407Y713407D01*
X569457Y716780D01*
X565028Y719494D01*
X560229Y721482D01*
X555178Y722694D01*
X550000Y723102D01*
D02*
G37*
G36*
X90000D02*
X84822Y722694D01*
X79771Y721482D01*
X74972Y719494D01*
X70543Y716780D01*
X66593Y713407D01*
X63220Y709457D01*
X60506Y705028D01*
X58518Y700229D01*
X57305Y695178D01*
X56898Y690000D01*
X57305Y684822D01*
X58518Y679771D01*
X60506Y674972D01*
X63220Y670543D01*
X66593Y666593D01*
X70543Y663220D01*
X74972Y660506D01*
X79771Y658518D01*
X84822Y657306D01*
X90000Y656898D01*
X95178Y657306D01*
X100229Y658518D01*
X105028Y660506D01*
X109457Y663220D01*
X113407Y666593D01*
X116780Y670543D01*
X119494Y674972D01*
X121482Y679771D01*
X122695Y684822D01*
X123102Y690000D01*
X122695Y695178D01*
X121482Y700229D01*
X119494Y705028D01*
X116780Y709457D01*
X113407Y713407D01*
X109457Y716780D01*
X105028Y719494D01*
X100229Y721482D01*
X95178Y722694D01*
X90000Y723102D01*
D02*
G37*
G36*
X1590000Y622601D02*
X1584900Y622199D01*
X1579926Y621005D01*
X1575200Y619047D01*
X1570838Y616374D01*
X1566948Y613052D01*
X1563626Y609162D01*
X1560953Y604800D01*
X1558995Y600074D01*
X1557801Y595100D01*
X1557399Y590000D01*
X1557801Y584900D01*
X1558995Y579926D01*
X1560953Y575200D01*
X1563626Y570838D01*
X1566948Y566948D01*
X1570838Y563626D01*
X1575200Y560953D01*
X1579926Y558995D01*
X1584900Y557801D01*
X1590000Y557399D01*
X1595100Y557801D01*
X1600074Y558995D01*
X1604800Y560953D01*
X1609162Y563626D01*
X1613052Y566948D01*
X1616374Y570838D01*
X1619047Y575200D01*
X1621005Y579926D01*
X1622199Y584900D01*
X1622601Y590000D01*
X1622199Y595100D01*
X1621005Y600074D01*
X1619047Y604800D01*
X1616374Y609162D01*
X1613052Y613052D01*
X1609162Y616374D01*
X1604800Y619047D01*
X1600074Y621005D01*
X1595100Y622199D01*
X1590000Y622601D01*
D02*
G37*
G36*
X1130000D02*
X1124900Y622199D01*
X1119926Y621005D01*
X1115200Y619047D01*
X1110838Y616374D01*
X1106948Y613052D01*
X1103626Y609162D01*
X1100953Y604800D01*
X1098995Y600074D01*
X1097801Y595100D01*
X1097400Y590000D01*
X1097801Y584900D01*
X1098995Y579926D01*
X1100953Y575200D01*
X1103626Y570838D01*
X1106948Y566948D01*
X1110838Y563626D01*
X1115200Y560953D01*
X1119926Y558995D01*
X1124900Y557801D01*
X1130000Y557399D01*
X1135100Y557801D01*
X1140074Y558995D01*
X1144800Y560953D01*
X1149162Y563626D01*
X1153052Y566948D01*
X1156374Y570838D01*
X1159047Y575200D01*
X1161005Y579926D01*
X1162199Y584900D01*
X1162600Y590000D01*
X1162199Y595100D01*
X1161005Y600074D01*
X1159047Y604800D01*
X1156374Y609162D01*
X1153052Y613052D01*
X1149162Y616374D01*
X1144800Y619047D01*
X1140074Y621005D01*
X1135100Y622199D01*
X1130000Y622601D01*
D02*
G37*
G36*
X1196000Y546599D02*
X1187000D01*
X1186025Y546405D01*
X1185198Y545852D01*
X1180698Y541352D01*
X1180145Y540525D01*
X1179951Y539550D01*
Y530550D01*
X1180145Y529575D01*
X1180698Y528748D01*
X1185198Y524248D01*
X1186025Y523695D01*
X1187000Y523501D01*
X1196000D01*
X1196975Y523695D01*
X1197802Y524248D01*
X1202302Y528748D01*
X1202855Y529575D01*
X1203049Y530550D01*
Y539550D01*
X1202855Y540525D01*
X1202302Y541352D01*
X1197802Y545852D01*
X1196975Y546405D01*
X1196814Y546437D01*
X1196000Y546599D01*
D02*
G37*
G36*
X1420000Y557609D02*
X1415589Y557174D01*
X1411348Y555888D01*
X1407439Y553798D01*
X1404013Y550987D01*
X1401201Y547561D01*
X1399112Y543652D01*
X1397826Y539411D01*
X1397391Y535000D01*
X1397826Y530589D01*
X1399112Y526348D01*
X1401201Y522439D01*
X1404013Y519013D01*
X1407439Y516201D01*
X1411348Y514112D01*
X1415589Y512826D01*
X1420000Y512391D01*
X1424411Y512826D01*
X1428652Y514112D01*
X1432561Y516201D01*
X1435987Y519013D01*
X1438799Y522439D01*
X1440888Y526348D01*
X1442174Y530589D01*
X1442609Y535000D01*
X1442174Y539411D01*
X1440888Y543652D01*
X1438799Y547561D01*
X1435987Y550987D01*
X1432561Y553798D01*
X1428652Y555888D01*
X1424411Y557174D01*
X1420000Y557609D01*
D02*
G37*
G36*
X1300000D02*
X1295589Y557174D01*
X1291348Y555888D01*
X1287439Y553798D01*
X1284013Y550987D01*
X1281201Y547561D01*
X1279112Y543652D01*
X1277826Y539411D01*
X1277391Y535000D01*
X1277826Y530589D01*
X1279112Y526348D01*
X1281201Y522439D01*
X1284013Y519013D01*
X1287439Y516201D01*
X1291348Y514112D01*
X1295589Y512826D01*
X1300000Y512391D01*
X1304411Y512826D01*
X1308652Y514112D01*
X1312561Y516201D01*
X1315987Y519013D01*
X1318799Y522439D01*
X1320888Y526348D01*
X1322174Y530589D01*
X1322609Y535000D01*
X1322174Y539411D01*
X1320888Y543652D01*
X1318799Y547561D01*
X1315987Y550987D01*
X1312561Y553798D01*
X1308652Y555888D01*
X1304411Y557174D01*
X1300000Y557609D01*
D02*
G37*
G36*
X1584500Y512549D02*
X1575500D01*
X1574525Y512355D01*
X1573698Y511802D01*
X1573145Y510975D01*
X1572951Y510000D01*
Y502000D01*
X1573145Y501025D01*
X1573698Y500198D01*
X1574525Y499645D01*
X1575500Y499451D01*
X1584500D01*
X1585475Y499645D01*
X1586302Y500198D01*
X1586855Y501025D01*
X1587049Y502000D01*
Y510000D01*
X1586855Y510975D01*
X1586302Y511802D01*
X1585475Y512355D01*
X1584500Y512549D01*
D02*
G37*
G36*
X1564500D02*
X1555500D01*
X1554525Y512355D01*
X1553698Y511802D01*
X1553145Y510975D01*
X1552951Y510000D01*
Y502000D01*
X1553145Y501025D01*
X1553698Y500198D01*
X1554525Y499645D01*
X1555500Y499451D01*
X1564500D01*
X1565475Y499645D01*
X1566302Y500198D01*
X1566855Y501025D01*
X1567049Y502000D01*
Y510000D01*
X1566855Y510975D01*
X1566302Y511802D01*
X1565475Y512355D01*
X1564500Y512549D01*
D02*
G37*
G36*
X1191500Y521249D02*
X1188498Y520854D01*
X1185700Y519695D01*
X1183298Y517852D01*
X1181455Y515450D01*
X1180296Y512652D01*
X1179901Y509650D01*
X1180296Y506648D01*
X1181455Y503850D01*
X1183298Y501448D01*
X1185700Y499605D01*
X1188498Y498446D01*
X1191500Y498051D01*
X1194502Y498446D01*
X1197300Y499605D01*
X1199702Y501448D01*
X1201545Y503850D01*
X1202704Y506648D01*
X1203099Y509650D01*
X1202704Y512652D01*
X1201545Y515450D01*
X1199702Y517852D01*
X1197300Y519695D01*
X1194502Y520854D01*
X1191500Y521249D01*
D02*
G37*
G36*
X1570497Y489588D02*
X1569503D01*
X1567747Y489239D01*
X1566828Y488858D01*
X1565340Y487864D01*
X1564636Y487160D01*
X1563642Y485672D01*
X1563261Y484753D01*
X1562912Y482997D01*
Y482746D01*
X1562863Y482500D01*
X1562912Y482254D01*
Y482003D01*
X1563261Y480247D01*
X1563642Y479328D01*
X1564636Y477840D01*
X1565340Y477136D01*
X1566828Y476142D01*
X1567747Y475761D01*
X1569503Y475412D01*
X1570497D01*
X1572253Y475761D01*
X1573172Y476142D01*
X1574660Y477136D01*
X1575364Y477840D01*
X1576358Y479328D01*
X1576739Y480247D01*
X1577088Y482003D01*
Y482254D01*
X1577137Y482500D01*
X1577088Y482746D01*
Y482997D01*
X1576739Y484753D01*
X1576358Y485672D01*
X1575364Y487160D01*
X1574660Y487864D01*
X1573172Y488858D01*
X1572253Y489239D01*
X1570497Y489588D01*
D02*
G37*
G36*
X1191500Y495849D02*
X1188498Y495454D01*
X1185700Y494295D01*
X1183298Y492452D01*
X1181455Y490050D01*
X1180296Y487252D01*
X1179901Y484250D01*
X1180296Y481248D01*
X1181455Y478450D01*
X1183298Y476048D01*
X1185700Y474205D01*
X1188498Y473046D01*
X1191500Y472651D01*
X1194502Y473046D01*
X1197300Y474205D01*
X1199702Y476048D01*
X1201545Y478450D01*
X1202704Y481248D01*
X1203099Y484250D01*
X1202704Y487252D01*
X1201545Y490050D01*
X1199702Y492452D01*
X1197300Y494295D01*
X1194502Y495454D01*
X1191500Y495849D01*
D02*
G37*
G36*
X1554500Y496549D02*
X1542000D01*
X1541025Y496355D01*
X1540198Y495802D01*
X1539733Y495108D01*
X1480500D01*
X1478354Y494681D01*
X1476535Y493465D01*
X1464035Y480965D01*
X1462819Y479146D01*
X1462392Y477000D01*
Y402608D01*
X1284500D01*
X1282354Y402181D01*
X1280535Y400965D01*
X1247487Y367917D01*
X1247409Y367902D01*
X1247343Y367858D01*
X1237928D01*
X1237855Y368225D01*
X1237302Y369052D01*
X1236476Y369605D01*
X1235500Y369799D01*
X1223000D01*
X1222025Y369605D01*
X1221198Y369052D01*
X1220645Y368225D01*
X1220451Y367250D01*
Y357250D01*
X1220645Y356275D01*
X1221198Y355448D01*
X1222025Y354895D01*
X1223000Y354701D01*
X1235500D01*
X1236476Y354895D01*
X1237302Y355448D01*
X1237855Y356275D01*
X1237928Y356642D01*
X1247343D01*
X1247409Y356598D01*
X1249750Y356133D01*
X1252091Y356598D01*
X1254076Y357924D01*
X1255402Y359909D01*
X1255417Y359987D01*
X1286823Y391392D01*
X1468000D01*
X1470146Y391819D01*
X1471965Y393035D01*
X1473181Y394854D01*
X1473608Y397000D01*
Y474677D01*
X1482823Y483892D01*
X1539733D01*
X1540198Y483198D01*
X1541019Y482649D01*
X1541025Y482621D01*
Y481380D01*
X1541019Y481351D01*
X1540198Y480802D01*
X1539733Y480108D01*
X1529500D01*
X1527354Y479681D01*
X1525535Y478465D01*
X1524319Y476646D01*
X1523892Y474500D01*
Y335500D01*
X1524319Y333354D01*
X1525535Y331535D01*
X1525735Y331335D01*
X1527554Y330119D01*
X1529700Y329692D01*
X1579375D01*
X1579455Y329500D01*
X1581298Y327098D01*
X1583700Y325255D01*
X1586498Y324096D01*
X1589500Y323701D01*
X1592502Y324096D01*
X1595300Y325255D01*
X1597702Y327098D01*
X1599545Y329500D01*
X1600704Y332298D01*
X1601099Y335300D01*
X1600704Y338302D01*
X1599545Y341100D01*
X1597702Y343502D01*
X1595300Y345345D01*
X1592502Y346504D01*
X1589500Y346899D01*
X1586498Y346504D01*
X1583700Y345345D01*
X1581298Y343502D01*
X1579455Y341100D01*
X1579375Y340908D01*
X1535108D01*
Y468892D01*
X1539733D01*
X1540198Y468198D01*
X1541025Y467645D01*
X1542000Y467451D01*
X1554500D01*
X1555475Y467645D01*
X1556302Y468198D01*
X1556855Y469025D01*
X1557049Y470000D01*
Y479000D01*
X1556855Y479975D01*
X1556302Y480802D01*
X1555481Y481351D01*
X1555475Y481380D01*
Y482621D01*
X1555481Y482649D01*
X1556302Y483198D01*
X1556855Y484025D01*
X1557049Y485000D01*
Y494000D01*
X1556855Y494975D01*
X1556302Y495802D01*
X1555475Y496355D01*
X1554500Y496549D01*
D02*
G37*
G36*
X1191500Y470449D02*
X1188498Y470054D01*
X1185700Y468895D01*
X1183298Y467052D01*
X1181455Y464650D01*
X1180296Y461852D01*
X1179901Y458850D01*
X1180296Y455848D01*
X1181455Y453050D01*
X1183298Y450648D01*
X1185700Y448805D01*
X1188498Y447646D01*
X1191500Y447251D01*
X1194502Y447646D01*
X1197300Y448805D01*
X1199702Y450648D01*
X1201545Y453050D01*
X1202704Y455848D01*
X1203099Y458850D01*
X1202704Y461852D01*
X1201545Y464650D01*
X1199702Y467052D01*
X1197300Y468895D01*
X1194502Y470054D01*
X1191500Y470449D01*
D02*
G37*
G36*
X1570497Y459588D02*
X1569503D01*
X1567747Y459239D01*
X1566828Y458858D01*
X1565340Y457864D01*
X1564636Y457160D01*
X1563642Y455672D01*
X1563261Y454753D01*
X1562912Y452997D01*
Y452746D01*
X1562863Y452500D01*
X1562912Y452254D01*
Y452003D01*
X1563261Y450247D01*
X1563642Y449328D01*
X1564636Y447840D01*
X1565340Y447136D01*
X1566828Y446142D01*
X1567747Y445761D01*
X1569503Y445412D01*
X1570497D01*
X1572253Y445761D01*
X1573172Y446142D01*
X1574660Y447136D01*
X1575364Y447840D01*
X1576358Y449328D01*
X1576739Y450247D01*
X1577088Y452003D01*
Y452254D01*
X1577137Y452500D01*
X1577088Y452746D01*
Y452997D01*
X1576739Y454753D01*
X1576358Y455672D01*
X1575364Y457160D01*
X1574660Y457864D01*
X1573172Y458858D01*
X1572253Y459239D01*
X1570497Y459588D01*
D02*
G37*
G36*
X1584500Y435549D02*
X1575500D01*
X1574525Y435355D01*
X1573698Y434802D01*
X1573145Y433975D01*
X1572951Y433000D01*
Y425000D01*
X1573145Y424025D01*
X1573698Y423198D01*
X1574525Y422645D01*
X1575500Y422451D01*
X1584500D01*
X1585475Y422645D01*
X1586302Y423198D01*
X1586855Y424025D01*
X1587049Y425000D01*
Y433000D01*
X1586855Y433975D01*
X1586302Y434802D01*
X1585475Y435355D01*
X1584500Y435549D01*
D02*
G37*
G36*
X1554500Y448549D02*
X1542000D01*
X1541025Y448355D01*
X1540198Y447802D01*
X1539645Y446975D01*
X1539451Y446000D01*
Y437000D01*
X1539645Y436025D01*
X1540198Y435198D01*
X1541025Y434645D01*
X1542000Y434451D01*
X1552052D01*
X1552987Y433181D01*
X1552951Y433000D01*
Y425000D01*
X1553145Y424025D01*
X1553698Y423198D01*
X1554525Y422645D01*
X1555500Y422451D01*
X1564500D01*
X1565475Y422645D01*
X1566302Y423198D01*
X1566855Y424025D01*
X1567049Y425000D01*
Y433000D01*
X1566855Y433975D01*
X1566302Y434802D01*
X1565475Y435355D01*
X1564500Y435549D01*
X1557948D01*
X1557013Y436819D01*
X1557049Y437000D01*
Y446000D01*
X1556855Y446975D01*
X1556302Y447802D01*
X1555475Y448355D01*
X1554500Y448549D01*
D02*
G37*
G36*
X1589500Y397699D02*
X1586498Y397304D01*
X1583700Y396145D01*
X1581298Y394302D01*
X1579455Y391900D01*
X1578296Y389102D01*
X1577901Y386100D01*
X1578296Y383098D01*
X1579455Y380300D01*
X1581298Y377898D01*
X1583700Y376055D01*
X1586498Y374896D01*
X1589500Y374501D01*
X1592502Y374896D01*
X1595300Y376055D01*
X1597702Y377898D01*
X1599545Y380300D01*
X1600704Y383098D01*
X1601099Y386100D01*
X1600704Y389102D01*
X1599545Y391900D01*
X1597702Y394302D01*
X1595300Y396145D01*
X1592502Y397304D01*
X1589500Y397699D01*
D02*
G37*
G36*
X1195750Y389899D02*
X1186750D01*
X1185775Y389705D01*
X1184948Y389152D01*
X1180448Y384652D01*
X1179895Y383825D01*
X1179701Y382850D01*
Y373850D01*
X1179895Y372874D01*
X1180448Y372048D01*
X1184948Y367548D01*
X1185775Y366995D01*
X1186750Y366801D01*
X1195750D01*
X1196725Y366995D01*
X1197552Y367548D01*
X1202052Y372048D01*
X1202605Y372874D01*
X1202799Y373850D01*
Y382850D01*
X1202605Y383825D01*
X1202052Y384652D01*
X1197552Y389152D01*
X1196725Y389705D01*
X1196564Y389737D01*
X1195750Y389899D01*
D02*
G37*
G36*
X1589500Y372299D02*
X1586498Y371904D01*
X1583700Y370745D01*
X1581298Y368902D01*
X1579455Y366500D01*
X1578296Y363702D01*
X1577901Y360700D01*
X1578296Y357698D01*
X1579455Y354900D01*
X1581298Y352498D01*
X1583700Y350655D01*
X1586498Y349496D01*
X1589500Y349101D01*
X1592502Y349496D01*
X1595300Y350655D01*
X1597702Y352498D01*
X1599545Y354900D01*
X1600704Y357698D01*
X1601099Y360700D01*
X1600704Y363702D01*
X1599545Y366500D01*
X1597702Y368902D01*
X1595300Y370745D01*
X1592502Y371904D01*
X1589500Y372299D01*
D02*
G37*
G36*
X1191250Y364549D02*
X1188248Y364154D01*
X1185450Y362995D01*
X1183048Y361152D01*
X1181205Y358750D01*
X1180046Y355952D01*
X1179651Y352950D01*
X1180046Y349948D01*
X1181205Y347150D01*
X1183048Y344748D01*
X1185450Y342905D01*
X1188248Y341746D01*
X1191250Y341351D01*
X1194252Y341746D01*
X1197050Y342905D01*
X1199452Y344748D01*
X1201295Y347150D01*
X1202454Y349948D01*
X1202849Y352950D01*
X1202454Y355952D01*
X1201295Y358750D01*
X1199452Y361152D01*
X1197050Y362995D01*
X1194252Y364154D01*
X1191250Y364549D01*
D02*
G37*
G36*
Y339149D02*
X1188248Y338754D01*
X1185450Y337595D01*
X1183048Y335752D01*
X1181205Y333350D01*
X1180046Y330552D01*
X1179651Y327550D01*
X1180046Y324548D01*
X1181205Y321750D01*
X1183048Y319348D01*
X1185450Y317505D01*
X1188248Y316346D01*
X1191250Y315951D01*
X1194252Y316346D01*
X1197050Y317505D01*
X1199452Y319348D01*
X1201295Y321750D01*
X1202454Y324548D01*
X1202849Y327550D01*
X1202454Y330552D01*
X1201295Y333350D01*
X1199452Y335752D01*
X1197050Y337595D01*
X1194252Y338754D01*
X1191250Y339149D01*
D02*
G37*
G36*
X1589500Y321499D02*
X1586498Y321104D01*
X1583700Y319945D01*
X1581298Y318102D01*
X1579455Y315700D01*
X1578296Y312902D01*
X1577901Y309900D01*
X1578296Y306898D01*
X1579455Y304100D01*
X1581298Y301698D01*
X1583700Y299855D01*
X1586498Y298696D01*
X1589500Y298301D01*
X1592502Y298696D01*
X1595300Y299855D01*
X1597702Y301698D01*
X1599545Y304100D01*
X1600704Y306898D01*
X1601099Y309900D01*
X1600704Y312902D01*
X1599545Y315700D01*
X1597702Y318102D01*
X1595300Y319945D01*
X1592502Y321104D01*
X1589500Y321499D01*
D02*
G37*
G36*
X1191250Y313749D02*
X1188248Y313354D01*
X1185450Y312195D01*
X1183048Y310352D01*
X1181205Y307950D01*
X1180046Y305152D01*
X1179651Y302150D01*
X1180046Y299148D01*
X1181205Y296350D01*
X1183048Y293948D01*
X1185450Y292105D01*
X1188248Y290946D01*
X1191250Y290551D01*
X1194252Y290946D01*
X1197050Y292105D01*
X1199452Y293948D01*
X1201295Y296350D01*
X1202454Y299148D01*
X1202849Y302150D01*
X1202454Y305152D01*
X1201295Y307950D01*
X1199452Y310352D01*
X1197050Y312195D01*
X1194252Y313354D01*
X1191250Y313749D01*
D02*
G37*
G36*
X1360500Y341358D02*
X1360204Y341299D01*
X1353250D01*
X1352275Y341105D01*
X1351448Y340552D01*
X1350895Y339725D01*
X1350701Y338750D01*
Y328750D01*
X1350895Y327775D01*
X1351448Y326948D01*
X1352275Y326395D01*
X1353250Y326201D01*
X1362118D01*
X1369392Y318927D01*
Y222407D01*
X1369348Y222341D01*
X1368882Y220000D01*
X1369348Y217659D01*
X1370674Y215674D01*
X1372659Y214348D01*
X1375000Y213882D01*
X1377341Y214348D01*
X1379326Y215674D01*
X1380652Y217659D01*
X1381118Y220000D01*
X1380652Y222341D01*
X1380608Y222407D01*
Y321250D01*
X1380181Y323396D01*
X1378965Y325215D01*
X1371799Y332382D01*
Y338750D01*
X1371605Y339725D01*
X1371052Y340552D01*
X1370226Y341105D01*
X1369250Y341299D01*
X1360795D01*
X1360500Y341358D01*
D02*
G37*
G36*
X1369250Y371299D02*
X1353250D01*
X1352275Y371105D01*
X1351448Y370552D01*
X1350895Y369725D01*
X1350701Y368750D01*
Y364358D01*
X1329500D01*
X1327354Y363931D01*
X1325535Y362715D01*
X1325035Y362215D01*
X1323819Y360396D01*
X1323392Y358250D01*
Y221407D01*
X1323348Y221341D01*
X1322883Y219000D01*
X1323348Y216659D01*
X1324674Y214674D01*
X1326659Y213348D01*
X1329000Y212882D01*
X1331341Y213348D01*
X1333326Y214674D01*
X1334652Y216659D01*
X1335118Y219000D01*
X1334652Y221341D01*
X1334608Y221407D01*
Y353142D01*
X1361250D01*
X1363396Y353569D01*
X1365215Y354785D01*
X1366162Y356201D01*
X1369250D01*
X1370226Y356395D01*
X1371052Y356948D01*
X1371605Y357775D01*
X1371799Y358750D01*
Y368750D01*
X1371605Y369725D01*
X1371052Y370552D01*
X1370226Y371105D01*
X1369250Y371299D01*
D02*
G37*
G36*
X1235500Y349799D02*
X1223000D01*
X1222025Y349605D01*
X1221198Y349052D01*
X1220645Y348225D01*
X1220451Y347250D01*
Y337250D01*
X1220645Y336275D01*
X1221198Y335448D01*
X1222025Y334895D01*
X1223000Y334701D01*
X1225172D01*
Y309799D01*
X1225000D01*
X1224025Y309605D01*
X1223198Y309052D01*
X1222645Y308225D01*
X1222451Y307250D01*
Y298750D01*
X1222645Y297775D01*
X1223198Y296948D01*
X1223556Y296708D01*
Y295292D01*
X1223198Y295052D01*
X1222645Y294225D01*
X1222451Y293250D01*
Y284881D01*
X1187535Y249965D01*
X1186319Y248146D01*
X1185892Y246000D01*
Y232516D01*
X1185198Y232052D01*
X1180698Y227552D01*
X1180145Y226725D01*
X1179951Y225750D01*
Y216750D01*
X1180145Y215774D01*
X1180698Y214948D01*
X1185198Y210448D01*
X1186025Y209895D01*
X1187000Y209701D01*
X1195118D01*
X1197726Y207093D01*
X1197007Y206016D01*
X1194502Y207054D01*
X1191500Y207449D01*
X1188498Y207054D01*
X1185700Y205895D01*
X1183298Y204052D01*
X1181455Y201650D01*
X1180296Y198852D01*
X1179901Y195850D01*
X1180296Y192848D01*
X1181455Y190050D01*
X1183298Y187648D01*
X1185700Y185805D01*
X1188498Y184646D01*
X1191500Y184251D01*
X1194502Y184646D01*
X1197300Y185805D01*
X1199702Y187648D01*
X1201545Y190050D01*
X1202704Y192848D01*
X1203099Y195850D01*
X1202704Y198852D01*
X1201666Y201357D01*
X1202743Y202076D01*
X1288785Y116035D01*
X1290604Y114819D01*
X1292750Y114392D01*
X1310634D01*
X1311098Y113698D01*
X1315598Y109198D01*
X1316425Y108645D01*
X1317400Y108451D01*
X1323918D01*
X1324951Y107200D01*
Y87200D01*
X1325145Y86224D01*
X1325698Y85398D01*
X1326525Y84845D01*
X1327500Y84651D01*
X1392500D01*
X1393475Y84845D01*
X1394302Y85398D01*
X1394855Y86224D01*
X1395049Y87200D01*
Y107200D01*
X1394983Y107530D01*
X1395904Y108662D01*
X1395950Y108684D01*
X1398100Y108401D01*
X1401102Y108796D01*
X1403900Y109955D01*
X1406302Y111798D01*
X1408145Y114200D01*
X1409304Y116998D01*
X1409699Y120000D01*
X1409304Y123002D01*
X1408145Y125800D01*
X1406302Y128202D01*
X1403900Y130045D01*
X1401102Y131204D01*
X1398100Y131599D01*
X1395098Y131204D01*
X1392300Y130045D01*
X1389898Y128202D01*
X1388055Y125800D01*
X1386896Y123002D01*
X1386501Y120000D01*
X1386896Y116998D01*
X1388055Y114200D01*
X1389898Y111798D01*
X1390914Y111019D01*
X1390482Y109749D01*
X1380318D01*
X1379886Y111019D01*
X1380902Y111798D01*
X1382745Y114200D01*
X1383904Y116998D01*
X1384299Y120000D01*
X1383904Y123002D01*
X1382745Y125800D01*
X1380902Y128202D01*
X1378500Y130045D01*
X1375702Y131204D01*
X1372700Y131599D01*
X1369698Y131204D01*
X1366900Y130045D01*
X1364498Y128202D01*
X1362655Y125800D01*
X1361496Y123002D01*
X1361101Y120000D01*
X1361496Y116998D01*
X1362655Y114200D01*
X1364498Y111798D01*
X1365513Y111019D01*
X1365082Y109749D01*
X1354918D01*
X1354487Y111019D01*
X1355502Y111798D01*
X1357345Y114200D01*
X1358504Y116998D01*
X1358899Y120000D01*
X1358504Y123002D01*
X1357345Y125800D01*
X1355502Y128202D01*
X1353100Y130045D01*
X1350302Y131204D01*
X1347300Y131599D01*
X1344298Y131204D01*
X1341500Y130045D01*
X1339098Y128202D01*
X1337255Y125800D01*
X1336096Y123002D01*
X1335701Y120000D01*
X1336096Y116998D01*
X1337255Y114200D01*
X1339098Y111798D01*
X1340114Y111019D01*
X1339682Y109749D01*
X1330413D01*
X1329927Y110922D01*
X1332702Y113698D01*
X1333255Y114524D01*
X1333449Y115500D01*
Y124500D01*
X1333255Y125475D01*
X1332702Y126302D01*
X1328202Y130802D01*
X1327375Y131355D01*
X1326400Y131549D01*
X1317400D01*
X1316425Y131355D01*
X1315598Y130802D01*
X1311098Y126302D01*
X1310634Y125608D01*
X1295073D01*
X1203049Y217632D01*
Y225750D01*
X1202855Y226725D01*
X1202302Y227552D01*
X1197802Y232052D01*
X1197108Y232516D01*
Y243677D01*
X1233215Y279785D01*
X1234431Y281604D01*
X1234605Y282482D01*
X1235302Y282948D01*
X1235855Y283775D01*
X1236049Y284750D01*
Y293250D01*
X1235855Y294225D01*
X1235302Y295052D01*
X1234944Y295292D01*
Y296708D01*
X1235302Y296948D01*
X1235855Y297775D01*
X1236049Y298750D01*
Y307250D01*
X1235855Y308225D01*
X1235302Y309052D01*
X1234475Y309605D01*
X1233500Y309799D01*
X1233328D01*
Y334701D01*
X1235500D01*
X1236476Y334895D01*
X1237302Y335448D01*
X1237855Y336275D01*
X1238049Y337250D01*
Y347250D01*
X1237855Y348225D01*
X1237302Y349052D01*
X1236476Y349605D01*
X1235500Y349799D01*
D02*
G37*
G36*
X1191500Y182049D02*
X1188498Y181654D01*
X1185700Y180495D01*
X1183298Y178652D01*
X1181455Y176250D01*
X1180296Y173452D01*
X1179901Y170450D01*
X1180296Y167448D01*
X1181455Y164650D01*
X1183298Y162248D01*
X1185700Y160405D01*
X1188498Y159246D01*
X1191500Y158851D01*
X1194502Y159246D01*
X1197300Y160405D01*
X1199702Y162248D01*
X1201545Y164650D01*
X1202704Y167448D01*
X1203099Y170450D01*
X1202704Y173452D01*
X1201545Y176250D01*
X1199702Y178652D01*
X1197300Y180495D01*
X1194502Y181654D01*
X1191500Y182049D01*
D02*
G37*
G36*
X1420000Y187609D02*
X1415589Y187174D01*
X1411348Y185888D01*
X1407439Y183799D01*
X1404013Y180987D01*
X1401201Y177561D01*
X1399112Y173652D01*
X1397826Y169411D01*
X1397391Y165000D01*
X1397826Y160589D01*
X1399112Y156348D01*
X1401201Y152439D01*
X1404013Y149013D01*
X1407439Y146201D01*
X1411348Y144112D01*
X1415589Y142825D01*
X1420000Y142391D01*
X1424411Y142825D01*
X1428652Y144112D01*
X1432561Y146201D01*
X1435987Y149013D01*
X1438799Y152439D01*
X1440888Y156348D01*
X1442174Y160589D01*
X1442609Y165000D01*
X1442174Y169411D01*
X1440888Y173652D01*
X1438799Y177561D01*
X1435987Y180987D01*
X1432561Y183799D01*
X1428652Y185888D01*
X1424411Y187174D01*
X1420000Y187609D01*
D02*
G37*
G36*
X1300000D02*
X1295589Y187174D01*
X1291348Y185888D01*
X1287439Y183799D01*
X1284013Y180987D01*
X1281201Y177561D01*
X1279112Y173652D01*
X1277826Y169411D01*
X1277391Y165000D01*
X1277826Y160589D01*
X1279112Y156348D01*
X1281201Y152439D01*
X1284013Y149013D01*
X1287439Y146201D01*
X1291348Y144112D01*
X1295589Y142825D01*
X1300000Y142391D01*
X1304411Y142825D01*
X1308652Y144112D01*
X1312561Y146201D01*
X1315987Y149013D01*
X1318799Y152439D01*
X1320888Y156348D01*
X1322174Y160589D01*
X1322609Y165000D01*
X1322174Y169411D01*
X1320888Y173652D01*
X1318799Y177561D01*
X1315987Y180987D01*
X1312561Y183799D01*
X1308652Y185888D01*
X1304411Y187174D01*
X1300000Y187609D01*
D02*
G37*
G36*
X1191500Y156649D02*
X1188498Y156254D01*
X1185700Y155095D01*
X1183298Y153252D01*
X1181455Y150850D01*
X1180296Y148052D01*
X1179901Y145050D01*
X1180296Y142048D01*
X1181455Y139250D01*
X1183298Y136848D01*
X1185700Y135005D01*
X1188498Y133846D01*
X1191500Y133451D01*
X1194502Y133846D01*
X1197300Y135005D01*
X1199702Y136848D01*
X1201545Y139250D01*
X1202704Y142048D01*
X1203099Y145050D01*
X1202704Y148052D01*
X1201545Y150850D01*
X1199702Y153252D01*
X1197300Y155095D01*
X1194502Y156254D01*
X1191500Y156649D01*
D02*
G37*
G36*
X1590000Y122600D02*
X1584900Y122199D01*
X1579926Y121005D01*
X1575200Y119047D01*
X1570838Y116374D01*
X1566948Y113052D01*
X1563626Y109162D01*
X1560953Y104800D01*
X1558995Y100074D01*
X1557801Y95100D01*
X1557399Y90000D01*
X1557801Y84900D01*
X1558995Y79926D01*
X1560953Y75200D01*
X1563626Y70838D01*
X1566948Y66948D01*
X1570838Y63626D01*
X1575200Y60953D01*
X1579926Y58995D01*
X1584900Y57801D01*
X1590000Y57400D01*
X1595100Y57801D01*
X1600074Y58995D01*
X1604800Y60953D01*
X1609162Y63626D01*
X1613052Y66948D01*
X1616374Y70838D01*
X1619047Y75200D01*
X1621005Y79926D01*
X1622199Y84900D01*
X1622601Y90000D01*
X1622199Y95100D01*
X1621005Y100074D01*
X1619047Y104800D01*
X1616374Y109162D01*
X1613052Y113052D01*
X1609162Y116374D01*
X1604800Y119047D01*
X1600074Y121005D01*
X1595100Y122199D01*
X1590000Y122600D01*
D02*
G37*
G36*
X1130000D02*
X1124900Y122199D01*
X1119926Y121005D01*
X1115200Y119047D01*
X1110838Y116374D01*
X1106948Y113052D01*
X1103626Y109162D01*
X1100953Y104800D01*
X1098995Y100074D01*
X1097801Y95100D01*
X1097400Y90000D01*
X1097801Y84900D01*
X1098995Y79926D01*
X1100953Y75200D01*
X1103626Y70838D01*
X1106948Y66948D01*
X1110838Y63626D01*
X1115200Y60953D01*
X1119926Y58995D01*
X1124900Y57801D01*
X1130000Y57400D01*
X1135100Y57801D01*
X1140074Y58995D01*
X1144800Y60953D01*
X1149162Y63626D01*
X1153052Y66948D01*
X1156374Y70838D01*
X1159047Y75200D01*
X1161005Y79926D01*
X1162199Y84900D01*
X1162600Y90000D01*
X1162199Y95100D01*
X1161005Y100074D01*
X1159047Y104800D01*
X1156374Y109162D01*
X1153052Y113052D01*
X1149162Y116374D01*
X1144800Y119047D01*
X1140074Y121005D01*
X1135100Y122199D01*
X1130000Y122600D01*
D02*
G37*
G36*
X864760Y574590D02*
X856760D01*
X855769Y574393D01*
X854929Y573831D01*
X854367Y572991D01*
X854170Y572000D01*
Y563000D01*
X854367Y562009D01*
X854929Y561169D01*
X855769Y560607D01*
X856760Y560410D01*
X864760D01*
X865751Y560607D01*
X866591Y561169D01*
X867153Y562009D01*
X867350Y563000D01*
Y572000D01*
X867153Y572991D01*
X866591Y573831D01*
X865751Y574393D01*
X864760Y574590D01*
D02*
G37*
G36*
X787760D02*
X779760D01*
X778769Y574393D01*
X777929Y573831D01*
X777367Y572991D01*
X777170Y572000D01*
Y563000D01*
X777367Y562009D01*
X777929Y561169D01*
X778769Y560607D01*
X779760Y560410D01*
X787760D01*
X788751Y560607D01*
X789591Y561169D01*
X790153Y562009D01*
X790350Y563000D01*
Y572000D01*
X790153Y572991D01*
X789591Y573831D01*
X788751Y574393D01*
X787760Y574590D01*
D02*
G37*
G36*
X1025000Y615133D02*
X1020286Y614762D01*
X1015688Y613658D01*
X1011320Y611849D01*
X1007288Y609378D01*
X1003693Y606307D01*
X1000622Y602712D01*
X998151Y598680D01*
X996342Y594312D01*
X995238Y589714D01*
X994867Y585000D01*
X995238Y580286D01*
X996342Y575688D01*
X998151Y571320D01*
X1000622Y567288D01*
X1003693Y563693D01*
X1007288Y560622D01*
X1011320Y558151D01*
X1015688Y556342D01*
X1020286Y555238D01*
X1025000Y554867D01*
X1029714Y555238D01*
X1034312Y556342D01*
X1038680Y558151D01*
X1042712Y560622D01*
X1046307Y563693D01*
X1049378Y567288D01*
X1051849Y571320D01*
X1053658Y575688D01*
X1054762Y580286D01*
X1055133Y585000D01*
X1054762Y589714D01*
X1053658Y594312D01*
X1051849Y598680D01*
X1049378Y602712D01*
X1046307Y606307D01*
X1042712Y609378D01*
X1038680Y611849D01*
X1034312Y613658D01*
X1029714Y614762D01*
X1025000Y615133D01*
D02*
G37*
G36*
X615000D02*
X610286Y614762D01*
X605689Y613658D01*
X601320Y611849D01*
X597288Y609378D01*
X593693Y606307D01*
X590622Y602712D01*
X588151Y598680D01*
X586342Y594312D01*
X585238Y589714D01*
X584867Y585000D01*
X585238Y580286D01*
X586342Y575688D01*
X588151Y571320D01*
X590622Y567288D01*
X593693Y563693D01*
X597288Y560622D01*
X601320Y558151D01*
X605689Y556342D01*
X610286Y555238D01*
X615000Y554867D01*
X619714Y555238D01*
X624312Y556342D01*
X628680Y558151D01*
X632712Y560622D01*
X636307Y563693D01*
X639378Y567288D01*
X641849Y571320D01*
X643658Y575688D01*
X644762Y580286D01*
X645133Y585000D01*
X644762Y589714D01*
X643658Y594312D01*
X641849Y598680D01*
X639378Y602712D01*
X636307Y606307D01*
X632712Y609378D01*
X628680Y611849D01*
X624312Y613658D01*
X619714Y614762D01*
X615000Y615133D01*
D02*
G37*
G36*
X837260Y564678D02*
X837010Y564628D01*
X836755D01*
X834999Y564279D01*
X834065Y563892D01*
X832577Y562898D01*
X832577Y562898D01*
X831862Y562183D01*
X831862Y562183D01*
X830868Y560695D01*
X830481Y559761D01*
X830132Y558005D01*
Y556995D01*
X830481Y555239D01*
X830868Y554305D01*
X831862Y552817D01*
X831862Y552817D01*
X832577Y552102D01*
X832577Y552102D01*
X834065Y551108D01*
X834999Y550721D01*
X836755Y550372D01*
X837010D01*
X837260Y550322D01*
X837510Y550372D01*
X837765D01*
X839521Y550721D01*
X840455Y551108D01*
X841943Y552102D01*
X841943Y552102D01*
X842658Y552817D01*
X842658Y552817D01*
X843652Y554305D01*
X844039Y555239D01*
X844388Y556995D01*
Y558005D01*
X844039Y559761D01*
X843652Y560695D01*
X842658Y562183D01*
X842658Y562183D01*
X841943Y562898D01*
X841943Y562898D01*
X840455Y563892D01*
X839521Y564279D01*
X837765Y564628D01*
X837510D01*
X837260Y564678D01*
D02*
G37*
G36*
X807260D02*
X807010Y564628D01*
X806755D01*
X804999Y564279D01*
X804065Y563892D01*
X802577Y562898D01*
X802577Y562898D01*
X801862Y562183D01*
X801862Y562183D01*
X800868Y560695D01*
X800481Y559761D01*
X800132Y558005D01*
Y556995D01*
X800481Y555239D01*
X800868Y554305D01*
X801862Y552817D01*
X801862Y552817D01*
X802577Y552102D01*
X802577Y552102D01*
X804065Y551108D01*
X804999Y550721D01*
X806755Y550372D01*
X807010D01*
X807260Y550322D01*
X807510Y550372D01*
X807765D01*
X809521Y550721D01*
X810455Y551108D01*
X811943Y552102D01*
X811943Y552102D01*
X812658Y552817D01*
X812658Y552817D01*
X813652Y554305D01*
X814039Y555239D01*
X814388Y556995D01*
Y558005D01*
X814039Y559761D01*
X813652Y560695D01*
X812658Y562183D01*
X812658Y562183D01*
X811943Y562898D01*
X811943Y562898D01*
X810455Y563892D01*
X809521Y564279D01*
X807765Y564628D01*
X807510D01*
X807260Y564678D01*
D02*
G37*
G36*
X864760Y554590D02*
X856760D01*
X855769Y554393D01*
X854929Y553831D01*
X854367Y552991D01*
X854170Y552000D01*
Y545524D01*
X852900Y544562D01*
X852760Y544590D01*
X843760D01*
X842769Y544393D01*
X841929Y543831D01*
X841367Y542991D01*
X841170Y542000D01*
Y529500D01*
X841367Y528509D01*
X841929Y527669D01*
X842769Y527107D01*
X843760Y526910D01*
X852760D01*
X853751Y527107D01*
X854591Y527669D01*
X855153Y528509D01*
X855350Y529500D01*
Y539476D01*
X856620Y540438D01*
X856760Y540410D01*
X864760D01*
X865751Y540607D01*
X866591Y541169D01*
X867153Y542009D01*
X867350Y543000D01*
Y552000D01*
X867153Y552991D01*
X866591Y553831D01*
X865751Y554393D01*
X864760Y554590D01*
D02*
G37*
G36*
X819760Y544590D02*
X810760D01*
X809769Y544393D01*
X808929Y543831D01*
X808429Y543083D01*
X807760Y543010D01*
X807091Y543083D01*
X806591Y543831D01*
X805751Y544393D01*
X804760Y544590D01*
X795760D01*
X794769Y544393D01*
X793929Y543831D01*
X793367Y542991D01*
X793170Y542000D01*
Y529500D01*
X793367Y528509D01*
X793929Y527669D01*
X794612Y527213D01*
Y430100D01*
X775710Y411199D01*
X681901D01*
X681830Y411370D01*
X679980Y413780D01*
X677570Y415630D01*
X674763Y416793D01*
X671750Y417189D01*
X668737Y416793D01*
X665930Y415630D01*
X663520Y413780D01*
X661670Y411370D01*
X660507Y408563D01*
X660110Y405550D01*
X660507Y402537D01*
X661670Y399730D01*
X663520Y397320D01*
X665930Y395470D01*
X668737Y394307D01*
X671750Y393910D01*
X674763Y394307D01*
X677570Y395470D01*
X679980Y397320D01*
X681830Y399730D01*
X681901Y399902D01*
X778050D01*
X778050Y399901D01*
X780212Y400331D01*
X782044Y401556D01*
X804254Y423766D01*
X804254Y423766D01*
X805479Y425598D01*
X805909Y427760D01*
Y527213D01*
X806591Y527669D01*
X807091Y528416D01*
X807760Y528490D01*
X808429Y528416D01*
X808929Y527669D01*
X809612Y527213D01*
Y482240D01*
X809612Y482240D01*
X810042Y480078D01*
X811266Y478246D01*
X854352Y435160D01*
Y400870D01*
X853919Y400581D01*
X853357Y399741D01*
X853160Y398750D01*
Y390250D01*
X853357Y389259D01*
X853919Y388419D01*
X854204Y388228D01*
Y386772D01*
X853919Y386581D01*
X853357Y385741D01*
X853160Y384750D01*
Y378148D01*
X842961D01*
X842893Y378491D01*
X842331Y379331D01*
X841491Y379893D01*
X840500Y380090D01*
X824500D01*
X823509Y379893D01*
X822669Y379331D01*
X822107Y378491D01*
X821910Y377500D01*
Y367500D01*
X822107Y366509D01*
X822669Y365669D01*
X823509Y365107D01*
X824500Y364910D01*
X840500D01*
X841491Y365107D01*
X842331Y365669D01*
X842893Y366509D01*
X842961Y366852D01*
X860000D01*
X862162Y367281D01*
X863994Y368506D01*
X865219Y370338D01*
X865649Y372500D01*
Y374130D01*
X866081Y374419D01*
X866643Y375259D01*
X866840Y376250D01*
Y384750D01*
X866643Y385741D01*
X866081Y386581D01*
X865797Y386772D01*
Y388228D01*
X866081Y388419D01*
X866643Y389259D01*
X866840Y390250D01*
Y398750D01*
X866643Y399741D01*
X866081Y400581D01*
X865649Y400870D01*
Y437500D01*
X865649Y437500D01*
X865219Y439662D01*
X863994Y441494D01*
X863994Y441494D01*
X820909Y484580D01*
Y527213D01*
X821591Y527669D01*
X822153Y528509D01*
X822350Y529500D01*
Y542000D01*
X822153Y542991D01*
X821591Y543831D01*
X820751Y544393D01*
X819760Y544590D01*
D02*
G37*
G36*
X787760Y554590D02*
X779760D01*
X778769Y554393D01*
X777929Y553831D01*
X777367Y552991D01*
X777170Y552000D01*
Y543000D01*
X777367Y542009D01*
X777929Y541169D01*
X778769Y540607D01*
X779760Y540410D01*
X787760D01*
X788751Y540607D01*
X789591Y541169D01*
X790153Y542009D01*
X790350Y543000D01*
Y552000D01*
X790153Y552991D01*
X789591Y553831D01*
X788751Y554393D01*
X787760Y554590D01*
D02*
G37*
G36*
X920000Y502649D02*
X915581Y502214D01*
X911333Y500925D01*
X907417Y498832D01*
X903985Y496015D01*
X901168Y492583D01*
X899075Y488667D01*
X897786Y484419D01*
X897351Y480000D01*
X897786Y475581D01*
X899075Y471333D01*
X901168Y467417D01*
X903985Y463985D01*
X907417Y461168D01*
X911333Y459075D01*
X915581Y457786D01*
X920000Y457351D01*
X924419Y457786D01*
X928667Y459075D01*
X932583Y461168D01*
X936015Y463985D01*
X938832Y467417D01*
X940925Y471333D01*
X942214Y475581D01*
X942649Y480000D01*
X942214Y484419D01*
X940925Y488667D01*
X938832Y492583D01*
X936015Y496015D01*
X932583Y498832D01*
X928667Y500925D01*
X924419Y502214D01*
X920000Y502649D01*
D02*
G37*
G36*
X735000D02*
X730581Y502214D01*
X726333Y500925D01*
X722417Y498832D01*
X718985Y496015D01*
X716168Y492583D01*
X714075Y488667D01*
X712786Y484419D01*
X712351Y480000D01*
X712786Y475581D01*
X714075Y471333D01*
X716168Y467417D01*
X718985Y463985D01*
X722417Y461168D01*
X726333Y459075D01*
X730581Y457786D01*
X735000Y457351D01*
X739419Y457786D01*
X743667Y459075D01*
X747583Y461168D01*
X751015Y463985D01*
X753832Y467417D01*
X755925Y471333D01*
X757214Y475581D01*
X757649Y480000D01*
X757214Y484419D01*
X755925Y488667D01*
X753832Y492583D01*
X751015Y496015D01*
X747583Y498832D01*
X743667Y500925D01*
X739419Y502214D01*
X735000Y502649D01*
D02*
G37*
G36*
X676250Y442540D02*
X667250D01*
X666259Y442343D01*
X665419Y441781D01*
X660919Y437281D01*
X660463Y436599D01*
X655950D01*
X653788Y436169D01*
X651956Y434944D01*
X651956Y434944D01*
X643506Y426494D01*
X642281Y424662D01*
X641852Y422500D01*
X641852Y422500D01*
Y342500D01*
X641852Y342500D01*
X642281Y340338D01*
X643506Y338506D01*
X661006Y321006D01*
X661006Y321006D01*
X662838Y319781D01*
X665000Y319351D01*
X665000Y319352D01*
X722500D01*
X722500Y319351D01*
X724662Y319781D01*
X726494Y321006D01*
X802340Y396852D01*
X822039D01*
X822107Y396509D01*
X822669Y395669D01*
X823509Y395107D01*
X824500Y394910D01*
X840500D01*
X841491Y395107D01*
X842331Y395669D01*
X842893Y396509D01*
X843090Y397500D01*
Y407500D01*
X842893Y408491D01*
X842331Y409331D01*
X841491Y409893D01*
X840500Y410090D01*
X824500D01*
X823509Y409893D01*
X822669Y409331D01*
X822107Y408491D01*
X822039Y408148D01*
X800000D01*
X800000Y408148D01*
X797838Y407719D01*
X796006Y406494D01*
X796006Y406494D01*
X720160Y330648D01*
X667340D01*
X653149Y344840D01*
Y420160D01*
X658290Y425302D01*
X660463D01*
X660919Y424619D01*
X665419Y420119D01*
X666259Y419557D01*
X667250Y419360D01*
X676250D01*
X677241Y419557D01*
X678081Y420119D01*
X682581Y424619D01*
X683143Y425459D01*
X683340Y426450D01*
Y435450D01*
X683143Y436441D01*
X682581Y437281D01*
X678081Y441781D01*
X677241Y442343D01*
X676250Y442540D01*
D02*
G37*
G36*
X671750Y391790D02*
X668737Y391393D01*
X665930Y390230D01*
X663520Y388380D01*
X661670Y385970D01*
X660507Y383162D01*
X660110Y380150D01*
X660507Y377137D01*
X661670Y374330D01*
X663520Y371920D01*
X665930Y370070D01*
X668737Y368907D01*
X671750Y368510D01*
X674763Y368907D01*
X677570Y370070D01*
X679980Y371920D01*
X681830Y374330D01*
X682993Y377137D01*
X683390Y380150D01*
X682993Y383162D01*
X681830Y385970D01*
X679980Y388380D01*
X677570Y390230D01*
X674763Y391393D01*
X671750Y391790D01*
D02*
G37*
G36*
Y366390D02*
X668737Y365993D01*
X665930Y364830D01*
X663520Y362980D01*
X661670Y360570D01*
X660507Y357762D01*
X660110Y354750D01*
X660507Y351737D01*
X661670Y348930D01*
X663520Y346520D01*
X665930Y344670D01*
X668737Y343507D01*
X671750Y343110D01*
X674763Y343507D01*
X677570Y344670D01*
X679980Y346520D01*
X681830Y348930D01*
X682993Y351737D01*
X683390Y354750D01*
X682993Y357762D01*
X681830Y360570D01*
X679980Y362980D01*
X677570Y364830D01*
X674763Y365993D01*
X671750Y366390D01*
D02*
G37*
G36*
X920000Y317649D02*
X915581Y317214D01*
X911333Y315925D01*
X907417Y313832D01*
X903985Y311015D01*
X901168Y307583D01*
X899075Y303667D01*
X897786Y299419D01*
X897351Y295000D01*
X897786Y290581D01*
X899075Y286333D01*
X901168Y282417D01*
X903985Y278985D01*
X907417Y276168D01*
X911333Y274075D01*
X915581Y272786D01*
X920000Y272351D01*
X924419Y272786D01*
X928667Y274075D01*
X932583Y276168D01*
X936015Y278985D01*
X938832Y282417D01*
X940925Y286333D01*
X942214Y290581D01*
X942649Y295000D01*
X942214Y299419D01*
X940925Y303667D01*
X938832Y307583D01*
X936015Y311015D01*
X932583Y313832D01*
X928667Y315925D01*
X924419Y317214D01*
X920000Y317649D01*
D02*
G37*
G36*
X735000D02*
X730581Y317214D01*
X726333Y315925D01*
X722417Y313832D01*
X718985Y311015D01*
X716168Y307583D01*
X714075Y303667D01*
X712786Y299419D01*
X712351Y295000D01*
X712786Y290581D01*
X714075Y286333D01*
X716168Y282417D01*
X718985Y278985D01*
X722417Y276168D01*
X726333Y274075D01*
X730581Y272786D01*
X735000Y272351D01*
X739419Y272786D01*
X743667Y274075D01*
X747583Y276168D01*
X751015Y278985D01*
X753832Y282417D01*
X755925Y286333D01*
X757214Y290581D01*
X757649Y295000D01*
X757214Y299419D01*
X755925Y303667D01*
X753832Y307583D01*
X751015Y311015D01*
X747583Y313832D01*
X743667Y315925D01*
X739419Y317214D01*
X735000Y317649D01*
D02*
G37*
G36*
X1025000Y205133D02*
X1020286Y204762D01*
X1015688Y203658D01*
X1011320Y201849D01*
X1007288Y199378D01*
X1003693Y196307D01*
X1000622Y192712D01*
X998151Y188680D01*
X996342Y184312D01*
X995238Y179714D01*
X994867Y175000D01*
X995238Y170286D01*
X996342Y165688D01*
X998151Y161320D01*
X1000622Y157288D01*
X1003693Y153693D01*
X1007288Y150622D01*
X1011320Y148151D01*
X1015688Y146342D01*
X1020286Y145238D01*
X1025000Y144867D01*
X1029714Y145238D01*
X1034312Y146342D01*
X1038680Y148151D01*
X1042712Y150622D01*
X1046307Y153693D01*
X1049378Y157288D01*
X1051849Y161320D01*
X1053658Y165688D01*
X1054762Y170286D01*
X1055133Y175000D01*
X1054762Y179714D01*
X1053658Y184312D01*
X1051849Y188680D01*
X1049378Y192712D01*
X1046307Y196307D01*
X1042712Y199378D01*
X1038680Y201849D01*
X1034312Y203658D01*
X1029714Y204762D01*
X1025000Y205133D01*
D02*
G37*
G36*
X615000D02*
X610286Y204762D01*
X605689Y203658D01*
X601320Y201849D01*
X597288Y199378D01*
X593693Y196307D01*
X590622Y192712D01*
X588151Y188680D01*
X586342Y184312D01*
X585238Y179714D01*
X584867Y175000D01*
X585238Y170286D01*
X586342Y165688D01*
X588151Y161320D01*
X590622Y157288D01*
X593693Y153693D01*
X597288Y150622D01*
X601320Y148151D01*
X605689Y146342D01*
X610286Y145238D01*
X615000Y144867D01*
X619714Y145238D01*
X624312Y146342D01*
X628680Y148151D01*
X632712Y150622D01*
X636307Y153693D01*
X639378Y157288D01*
X641849Y161320D01*
X643658Y165688D01*
X644762Y170286D01*
X645133Y175000D01*
X644762Y179714D01*
X643658Y184312D01*
X641849Y188680D01*
X639378Y192712D01*
X636307Y196307D01*
X632712Y199378D01*
X628680Y201849D01*
X624312Y203658D01*
X619714Y204762D01*
X615000Y205133D01*
D02*
G37*
G36*
X250000Y613605D02*
X248032Y613346D01*
X246197Y612586D01*
X244622Y611378D01*
X243414Y609803D01*
X242654Y607968D01*
X242395Y606000D01*
X242654Y604032D01*
X243414Y602197D01*
X244622Y600622D01*
X246197Y599414D01*
X248032Y598654D01*
X250000Y598395D01*
X251968Y598654D01*
X253803Y599414D01*
X255378Y600622D01*
X256586Y602197D01*
X257346Y604032D01*
X257605Y606000D01*
X257346Y607968D01*
X256586Y609803D01*
X255378Y611378D01*
X253803Y612586D01*
X251968Y613346D01*
X250000Y613605D01*
D02*
G37*
G36*
X330000D02*
X328032Y613346D01*
X326197Y612586D01*
X324622Y611378D01*
X323414Y609803D01*
X322654Y607968D01*
X322395Y606000D01*
X322654Y604032D01*
X323414Y602197D01*
X324622Y600622D01*
X326197Y599414D01*
X328032Y598654D01*
X329255Y598493D01*
X329517Y598458D01*
X329434Y597188D01*
X306460D01*
X306460Y597188D01*
X304298Y596758D01*
X302466Y595534D01*
X302466Y595534D01*
X298006Y591074D01*
X296781Y589241D01*
X296351Y587080D01*
X296352Y587080D01*
Y566000D01*
X296351Y566000D01*
X296781Y563838D01*
X298006Y562006D01*
X303540Y556471D01*
X303503Y556282D01*
X302125Y555864D01*
X301994Y555994D01*
X300162Y557219D01*
X298000Y557649D01*
X298000Y557649D01*
X292340D01*
X285648Y564340D01*
Y565960D01*
X288540D01*
Y588540D01*
X271460D01*
Y565960D01*
X274352D01*
Y562000D01*
X274351Y562000D01*
X274781Y559838D01*
X276006Y558006D01*
X286006Y548006D01*
X286006Y548006D01*
X287838Y546781D01*
X290000Y546351D01*
X290000Y546352D01*
X294352D01*
Y544040D01*
X293460D01*
Y530960D01*
X304351D01*
Y529040D01*
X293460D01*
Y528148D01*
X236540D01*
Y529040D01*
X223460D01*
Y515960D01*
X236540D01*
Y516851D01*
X293460D01*
Y515960D01*
X306540D01*
Y516859D01*
X308661Y517281D01*
X310494Y518506D01*
X313081Y521093D01*
X314352Y520567D01*
Y514340D01*
X303660Y503648D01*
X266000D01*
X266000Y503648D01*
X263838Y503219D01*
X262006Y501994D01*
X232099Y472087D01*
X231068Y472852D01*
X231283Y473255D01*
X232286Y476562D01*
X232625Y480000D01*
X232286Y483438D01*
X231283Y486745D01*
X229655Y489792D01*
X227463Y492463D01*
X224792Y494655D01*
X221745Y496283D01*
X218438Y497286D01*
X215000Y497625D01*
X211562Y497286D01*
X208255Y496283D01*
X205208Y494655D01*
X202537Y492463D01*
X200345Y489792D01*
X198717Y486745D01*
X197714Y483438D01*
X197375Y480000D01*
X197714Y476562D01*
X198717Y473255D01*
X200345Y470208D01*
X202537Y467537D01*
X205208Y465345D01*
X208255Y463717D01*
X211562Y462714D01*
X215000Y462375D01*
X218438Y462714D01*
X221745Y463717D01*
X224792Y465345D01*
X224911Y465443D01*
X226068Y464750D01*
X225811Y463460D01*
X225812Y463460D01*
Y348440D01*
X225811Y348440D01*
X226241Y346278D01*
X227466Y344446D01*
X241460Y330452D01*
Y323807D01*
X240190Y323554D01*
X240080Y323820D01*
X238230Y326230D01*
X235820Y328080D01*
X233013Y329243D01*
X230000Y329640D01*
X226987Y329243D01*
X224180Y328080D01*
X221770Y326230D01*
X219920Y323820D01*
X218757Y321012D01*
X218360Y318000D01*
X218757Y314988D01*
X219454Y313305D01*
X218510Y312264D01*
X218438Y312286D01*
X215000Y312625D01*
X211562Y312286D01*
X208255Y311283D01*
X205208Y309655D01*
X202537Y307463D01*
X200345Y304792D01*
X198717Y301745D01*
X197714Y298438D01*
X197375Y295000D01*
X197714Y291562D01*
X198717Y288255D01*
X200345Y285208D01*
X202537Y282537D01*
X205208Y280345D01*
X208255Y278717D01*
X211562Y277714D01*
X215000Y277375D01*
X218438Y277714D01*
X221745Y278717D01*
X224792Y280345D01*
X227463Y282537D01*
X229655Y285208D01*
X231283Y288255D01*
X232286Y291562D01*
X232625Y295000D01*
X232286Y298438D01*
X231283Y301745D01*
X229655Y304792D01*
X229266Y305266D01*
X229883Y306376D01*
X230000Y306360D01*
X233013Y306757D01*
X235820Y307920D01*
X238230Y309770D01*
X240080Y312180D01*
X241243Y314988D01*
X241639Y318000D01*
X241619Y318155D01*
X242456Y319110D01*
X252802D01*
X277906Y294006D01*
X277906Y294006D01*
X279738Y292781D01*
X281900Y292351D01*
X281900Y292351D01*
X289786D01*
Y236968D01*
X288516Y236327D01*
X287233Y236859D01*
X285395Y237101D01*
X283557Y236859D01*
X281844Y236149D01*
X280374Y235021D01*
X279245Y233550D01*
X278536Y231838D01*
X278294Y230000D01*
X278536Y228162D01*
X279245Y226450D01*
X280374Y224979D01*
X281844Y223851D01*
X283557Y223141D01*
X285395Y222899D01*
X286476Y223042D01*
X287746Y222083D01*
Y217938D01*
X286848Y217040D01*
X285435D01*
X285085Y217040D01*
X271355D01*
Y213899D01*
X268435D01*
Y227040D01*
X255355D01*
Y213899D01*
X233800D01*
X187649Y260050D01*
Y350000D01*
X187649Y350000D01*
X187218Y352162D01*
X185994Y353994D01*
X185994Y353994D01*
X168694Y371294D01*
X166861Y372519D01*
X164700Y372949D01*
X164700Y372949D01*
X130151D01*
X130080Y373120D01*
X128230Y375530D01*
X125820Y377380D01*
X123013Y378543D01*
X120000Y378940D01*
X116987Y378543D01*
X114180Y377380D01*
X111770Y375530D01*
X111010Y374540D01*
X109740Y374972D01*
Y385028D01*
X111010Y385460D01*
X111770Y384470D01*
X114180Y382620D01*
X116987Y381457D01*
X120000Y381060D01*
X123013Y381457D01*
X125820Y382620D01*
X128230Y384470D01*
X130080Y386880D01*
X131243Y389687D01*
X131639Y392700D01*
X131243Y395713D01*
X130080Y398520D01*
X128230Y400930D01*
X125820Y402780D01*
X123013Y403943D01*
X120000Y404339D01*
X116987Y403943D01*
X114180Y402780D01*
X111770Y400930D01*
X111010Y399940D01*
X109740Y400372D01*
Y409391D01*
X110913Y409877D01*
X114230Y406560D01*
X125770D01*
X131540Y412330D01*
Y423870D01*
X125770Y429640D01*
X114230D01*
X108460Y423870D01*
Y415040D01*
X84660D01*
Y344960D01*
X107482D01*
X108596Y343690D01*
X108360Y341900D01*
X108757Y338887D01*
X109920Y336080D01*
X111770Y333670D01*
X114180Y331820D01*
X116987Y330657D01*
X120000Y330261D01*
X123013Y330657D01*
X125820Y331820D01*
X128230Y333670D01*
X130080Y336080D01*
X131243Y338887D01*
X131639Y341900D01*
X131243Y344912D01*
X130080Y347720D01*
X128230Y350130D01*
X125820Y351980D01*
X123013Y353143D01*
X120000Y353540D01*
X116987Y353143D01*
X114180Y351980D01*
X111770Y350130D01*
X111010Y349141D01*
X109740Y349572D01*
Y359628D01*
X111010Y360060D01*
X111770Y359070D01*
X114180Y357220D01*
X116987Y356057D01*
X120000Y355661D01*
X123013Y356057D01*
X125820Y357220D01*
X128230Y359070D01*
X130080Y361480D01*
X130151Y361651D01*
X162360D01*
X176351Y347660D01*
Y257710D01*
X176351Y257710D01*
X176781Y255548D01*
X178006Y253716D01*
X227466Y204256D01*
X227466Y204256D01*
X229298Y203031D01*
X231460Y202602D01*
X271355D01*
Y199460D01*
X285085D01*
X285435Y199460D01*
X286355D01*
X286705Y199460D01*
X300435D01*
Y217040D01*
X299043D01*
Y221462D01*
X299429Y221847D01*
X300653Y223680D01*
X301083Y225841D01*
X301083Y225841D01*
Y292351D01*
X368000D01*
X368000Y292351D01*
X370162Y292781D01*
X371994Y294006D01*
X439640Y361651D01*
X499349D01*
X499420Y361480D01*
X501270Y359070D01*
X503680Y357220D01*
X506487Y356057D01*
X509500Y355661D01*
X512513Y356057D01*
X515320Y357220D01*
X517730Y359070D01*
X519580Y361480D01*
X520743Y364287D01*
X521139Y367300D01*
X520743Y370313D01*
X519580Y373120D01*
X517730Y375530D01*
X515320Y377380D01*
X512513Y378543D01*
X509500Y378940D01*
X506487Y378543D01*
X503680Y377380D01*
X501270Y375530D01*
X499420Y373120D01*
X499349Y372949D01*
X437300D01*
X437300Y372949D01*
X435138Y372519D01*
X433306Y371294D01*
X433306Y371294D01*
X365660Y303648D01*
X294000D01*
X294000Y303648D01*
X294000Y303648D01*
X284240D01*
X269344Y318544D01*
X269349Y318650D01*
X269844Y319840D01*
X271562Y320181D01*
X273394Y321406D01*
X285994Y334006D01*
X285994Y334006D01*
X287219Y335838D01*
X287649Y338000D01*
Y367460D01*
X292040D01*
X292040Y387628D01*
X292040Y387676D01*
X293310Y388202D01*
X294352Y387160D01*
Y349500D01*
X294351Y349500D01*
X294781Y347338D01*
X296006Y345506D01*
X320106Y321406D01*
X320106Y321406D01*
X321938Y320181D01*
X324100Y319751D01*
X324100Y319751D01*
X332460D01*
Y319110D01*
X358540D01*
Y331690D01*
X332460D01*
Y331049D01*
X326440D01*
X305648Y351840D01*
Y389500D01*
X305648Y389500D01*
X305219Y391662D01*
X303994Y393494D01*
X303994Y393494D01*
X293494Y403994D01*
X291662Y405219D01*
X289500Y405648D01*
X289500Y405648D01*
X285290D01*
Y407290D01*
X264438D01*
X263951Y408463D01*
X266198Y410710D01*
X285290D01*
Y412351D01*
X289660D01*
X312202Y389810D01*
X311990Y388540D01*
X307960D01*
Y367460D01*
X326351D01*
Y364100D01*
X326351Y364100D01*
X326781Y361938D01*
X328006Y360106D01*
X332460Y355652D01*
Y344310D01*
X358540D01*
Y356890D01*
X347198D01*
X337649Y366440D01*
Y374960D01*
X342552D01*
X357506Y360006D01*
X357506Y360006D01*
X358233Y359520D01*
X358235Y359517D01*
X359660Y357660D01*
X361517Y356235D01*
X363679Y355339D01*
X366000Y355033D01*
X368321Y355339D01*
X370483Y356235D01*
X372340Y357660D01*
X373765Y359517D01*
X374661Y361679D01*
X374967Y364000D01*
X374661Y366321D01*
X373765Y368483D01*
X372340Y370340D01*
X370483Y371765D01*
X368321Y372661D01*
X366000Y372967D01*
X363679Y372661D01*
X361662Y371826D01*
X352988Y380500D01*
X358037Y385548D01*
X359210Y385062D01*
Y384460D01*
X366454D01*
X367000Y384352D01*
X432500D01*
X432500Y384351D01*
X434662Y384781D01*
X436494Y386006D01*
X462940Y412452D01*
X499349D01*
X499420Y412280D01*
X501270Y409870D01*
X503680Y408020D01*
X506487Y406857D01*
X509500Y406460D01*
X512513Y406857D01*
X515320Y408020D01*
X517730Y409870D01*
X519580Y412280D01*
X520743Y415088D01*
X521139Y418100D01*
X520743Y421113D01*
X519580Y423920D01*
X517730Y426330D01*
X515320Y428180D01*
X512513Y429343D01*
X509500Y429740D01*
X506487Y429343D01*
X503680Y428180D01*
X501270Y426330D01*
X499420Y423920D01*
X499349Y423749D01*
X460600D01*
X458438Y423319D01*
X456606Y422094D01*
X456606Y422094D01*
X430160Y395648D01*
X367000D01*
X366454Y395540D01*
X361648D01*
Y410000D01*
X361648Y410000D01*
X361218Y412162D01*
X359994Y413994D01*
X359994Y413994D01*
X341290Y432698D01*
Y445290D01*
X314710D01*
Y443648D01*
X296388D01*
X294226Y443218D01*
X292394Y441994D01*
X292394Y441994D01*
X292148Y441749D01*
X284790D01*
Y443390D01*
X270648D01*
Y446710D01*
X285290D01*
Y448352D01*
X314710D01*
Y446710D01*
X341290D01*
Y461290D01*
X340149D01*
Y466160D01*
X371994Y498006D01*
X371994Y498006D01*
X373218Y499838D01*
X373648Y502000D01*
Y515960D01*
X376540D01*
Y516859D01*
X378661Y517281D01*
X380494Y518506D01*
X385994Y524006D01*
X385994Y524006D01*
X387219Y525838D01*
X387649Y528000D01*
X387649Y528000D01*
Y550000D01*
X387219Y552162D01*
X385994Y553994D01*
X385994Y553994D01*
X367994Y571994D01*
X366161Y573218D01*
X364000Y573648D01*
X364000Y573648D01*
X360340D01*
X357649Y576340D01*
Y590000D01*
X357219Y592162D01*
X355994Y593994D01*
X355994Y593994D01*
X354454Y595534D01*
X352622Y596758D01*
X350460Y597188D01*
X350460Y597188D01*
X330566D01*
X330483Y598458D01*
X330744Y598493D01*
X331968Y598654D01*
X333802Y599414D01*
X335378Y600622D01*
X336586Y602197D01*
X337346Y604032D01*
X337605Y606000D01*
X337346Y607968D01*
X336586Y609803D01*
X335378Y611378D01*
X333802Y612586D01*
X331968Y613346D01*
X330000Y613605D01*
D02*
G37*
G36*
X268540Y588540D02*
X251460D01*
Y565960D01*
X254352D01*
Y564340D01*
X249660Y559649D01*
X238000D01*
X238000Y559649D01*
X235838Y559218D01*
X234006Y557994D01*
X234006Y557994D01*
X226006Y549994D01*
X224781Y548162D01*
X224351Y546000D01*
X224351Y546000D01*
Y544040D01*
X223460D01*
Y530960D01*
X236540D01*
Y544040D01*
X236540Y544040D01*
X236540D01*
X237076Y545088D01*
X240340Y548352D01*
X252000D01*
X252000Y548351D01*
X254161Y548781D01*
X255994Y550006D01*
X263994Y558006D01*
X263994Y558006D01*
X265219Y559838D01*
X265648Y562000D01*
X265648Y562000D01*
Y565960D01*
X268540D01*
Y588540D01*
D02*
G37*
G36*
X505000Y615133D02*
X500286Y614762D01*
X495688Y613658D01*
X491320Y611849D01*
X487288Y609378D01*
X483693Y606307D01*
X480622Y602712D01*
X478151Y598680D01*
X476342Y594312D01*
X475238Y589714D01*
X474867Y585000D01*
X475238Y580286D01*
X476342Y575688D01*
X478151Y571320D01*
X480622Y567288D01*
X483693Y563693D01*
X487288Y560622D01*
X491320Y558151D01*
X495688Y556342D01*
X500286Y555238D01*
X505000Y554867D01*
X509714Y555238D01*
X514312Y556342D01*
X518680Y558151D01*
X522712Y560622D01*
X526307Y563693D01*
X529378Y567288D01*
X531849Y571320D01*
X533658Y575688D01*
X534762Y580286D01*
X535133Y585000D01*
X534762Y589714D01*
X533658Y594312D01*
X531849Y598680D01*
X529378Y602712D01*
X526307Y606307D01*
X522712Y609378D01*
X518680Y611849D01*
X514312Y613658D01*
X509714Y614762D01*
X505000Y615133D01*
D02*
G37*
G36*
X95000D02*
X90286Y614762D01*
X85688Y613658D01*
X81320Y611849D01*
X77288Y609378D01*
X73693Y606307D01*
X70622Y602712D01*
X68151Y598680D01*
X66342Y594312D01*
X65238Y589714D01*
X64867Y585000D01*
X65238Y580286D01*
X66342Y575688D01*
X68151Y571320D01*
X70622Y567288D01*
X73693Y563693D01*
X77288Y560622D01*
X81320Y558151D01*
X85688Y556342D01*
X90286Y555238D01*
X95000Y554867D01*
X99714Y555238D01*
X104312Y556342D01*
X108680Y558151D01*
X112712Y560622D01*
X116307Y563693D01*
X119378Y567288D01*
X121849Y571320D01*
X123658Y575688D01*
X124762Y580286D01*
X125133Y585000D01*
X124762Y589714D01*
X123658Y594312D01*
X121849Y598680D01*
X119378Y602712D01*
X116307Y606307D01*
X112712Y609378D01*
X108680Y611849D01*
X104312Y613658D01*
X99714Y614762D01*
X95000Y615133D01*
D02*
G37*
G36*
X400000Y497625D02*
X396562Y497286D01*
X393255Y496283D01*
X390208Y494655D01*
X387537Y492463D01*
X385345Y489792D01*
X383717Y486745D01*
X382714Y483438D01*
X382375Y480000D01*
X382405Y479697D01*
X381195Y479025D01*
X379820Y480080D01*
X377012Y481243D01*
X374000Y481640D01*
X370987Y481243D01*
X368180Y480080D01*
X365770Y478230D01*
X363920Y475820D01*
X362757Y473013D01*
X362360Y470000D01*
X362757Y466987D01*
X363920Y464180D01*
X365770Y461770D01*
X368180Y459920D01*
X370987Y458757D01*
X374000Y458360D01*
X377012Y458757D01*
X379820Y459920D01*
X382230Y461770D01*
X384080Y464180D01*
X385243Y466987D01*
X385414Y468288D01*
X386635Y468637D01*
X387537Y467537D01*
X390208Y465345D01*
X393255Y463717D01*
X396562Y462714D01*
X400000Y462375D01*
X403438Y462714D01*
X406745Y463717D01*
X409792Y465345D01*
X412463Y467537D01*
X414655Y470208D01*
X416283Y473255D01*
X417286Y476562D01*
X417625Y480000D01*
X417286Y483438D01*
X416283Y486745D01*
X414655Y489792D01*
X412463Y492463D01*
X409792Y494655D01*
X406745Y496283D01*
X403438Y497286D01*
X400000Y497625D01*
D02*
G37*
G36*
X509500Y404339D02*
X506487Y403943D01*
X503680Y402780D01*
X501270Y400930D01*
X499420Y398520D01*
X498257Y395713D01*
X497860Y392700D01*
X498257Y389687D01*
X499420Y386880D01*
X501270Y384470D01*
X503680Y382620D01*
X506487Y381457D01*
X509500Y381060D01*
X512513Y381457D01*
X515320Y382620D01*
X517730Y384470D01*
X519580Y386880D01*
X520743Y389687D01*
X521139Y392700D01*
X520743Y395713D01*
X519580Y398520D01*
X517730Y400930D01*
X515320Y402780D01*
X512513Y403943D01*
X509500Y404339D01*
D02*
G37*
G36*
Y353540D02*
X506487Y353143D01*
X503680Y351980D01*
X501270Y350130D01*
X499420Y347720D01*
X498257Y344912D01*
X497860Y341900D01*
X498257Y338887D01*
X499420Y336080D01*
X501270Y333670D01*
X503680Y331820D01*
X506487Y330657D01*
X509500Y330261D01*
X512513Y330657D01*
X515320Y331820D01*
X517730Y333670D01*
X519580Y336080D01*
X520743Y338887D01*
X521139Y341900D01*
X520743Y344912D01*
X519580Y347720D01*
X517730Y350130D01*
X515320Y351980D01*
X512513Y353143D01*
X509500Y353540D01*
D02*
G37*
G36*
X400000Y312625D02*
X396562Y312286D01*
X393255Y311283D01*
X390208Y309655D01*
X387537Y307463D01*
X385345Y304792D01*
X383717Y301745D01*
X382714Y298438D01*
X382375Y295000D01*
X382714Y291562D01*
X383717Y288255D01*
X385345Y285208D01*
X387537Y282537D01*
X390208Y280345D01*
X393255Y278717D01*
X396562Y277714D01*
X400000Y277375D01*
X403438Y277714D01*
X406745Y278717D01*
X409792Y280345D01*
X412463Y282537D01*
X414655Y285208D01*
X416283Y288255D01*
X417286Y291562D01*
X417625Y295000D01*
X417286Y298438D01*
X416283Y301745D01*
X414655Y304792D01*
X412463Y307463D01*
X409792Y309655D01*
X406745Y311283D01*
X403438Y312286D01*
X400000Y312625D01*
D02*
G37*
G36*
X345435Y247040D02*
X332355D01*
Y232960D01*
X345435D01*
Y247040D01*
D02*
G37*
G36*
X268435D02*
X255355D01*
Y232960D01*
X268435D01*
Y247040D01*
D02*
G37*
G36*
X315395Y237101D02*
X313557Y236859D01*
X311844Y236149D01*
X310374Y235021D01*
X309245Y233550D01*
X308536Y231838D01*
X308294Y230000D01*
X308536Y228162D01*
X309245Y226450D01*
X310374Y224979D01*
X311844Y223851D01*
X313557Y223141D01*
X315395Y222899D01*
X317233Y223141D01*
X318945Y223851D01*
X320416Y224979D01*
X321544Y226450D01*
X322254Y228162D01*
X322495Y230000D01*
X322254Y231838D01*
X321544Y233550D01*
X320416Y235021D01*
X318945Y236149D01*
X317233Y236859D01*
X315395Y237101D01*
D02*
G37*
G36*
X345435Y227040D02*
X332355D01*
Y217040D01*
X319355D01*
Y199460D01*
X333435D01*
Y212960D01*
X345435D01*
Y227040D01*
D02*
G37*
G36*
X505000Y205133D02*
X500286Y204762D01*
X495688Y203658D01*
X491320Y201849D01*
X487288Y199378D01*
X483693Y196307D01*
X480622Y192712D01*
X478151Y188680D01*
X476342Y184312D01*
X475238Y179714D01*
X474867Y175000D01*
X475238Y170286D01*
X476342Y165688D01*
X478151Y161320D01*
X480622Y157288D01*
X483693Y153693D01*
X487288Y150622D01*
X491320Y148151D01*
X495688Y146342D01*
X500286Y145238D01*
X505000Y144867D01*
X509714Y145238D01*
X514312Y146342D01*
X518680Y148151D01*
X522712Y150622D01*
X526307Y153693D01*
X529378Y157288D01*
X531849Y161320D01*
X533658Y165688D01*
X534762Y170286D01*
X535133Y175000D01*
X534762Y179714D01*
X533658Y184312D01*
X531849Y188680D01*
X529378Y192712D01*
X526307Y196307D01*
X522712Y199378D01*
X518680Y201849D01*
X514312Y203658D01*
X509714Y204762D01*
X505000Y205133D01*
D02*
G37*
G36*
X95000D02*
X90286Y204762D01*
X85688Y203658D01*
X81320Y201849D01*
X77288Y199378D01*
X73693Y196307D01*
X70622Y192712D01*
X68151Y188680D01*
X66342Y184312D01*
X65238Y179714D01*
X64867Y175000D01*
X65238Y170286D01*
X66342Y165688D01*
X68151Y161320D01*
X70622Y157288D01*
X73693Y153693D01*
X77288Y150622D01*
X81320Y148151D01*
X85688Y146342D01*
X90286Y145238D01*
X95000Y144867D01*
X99714Y145238D01*
X104312Y146342D01*
X108680Y148151D01*
X112712Y150622D01*
X116307Y153693D01*
X119378Y157288D01*
X121849Y161320D01*
X123658Y165688D01*
X124762Y170286D01*
X125133Y175000D01*
X124762Y179714D01*
X123658Y184312D01*
X121849Y188680D01*
X119378Y192712D01*
X116307Y196307D01*
X112712Y199378D01*
X108680Y201849D01*
X104312Y203658D01*
X99714Y204762D01*
X95000Y205133D01*
D02*
G37*
%LPD*%
G36*
X331460Y565960D02*
X334352D01*
Y556000D01*
X334351Y556000D01*
X334781Y553838D01*
X336006Y552006D01*
X338006Y550006D01*
X338006Y550006D01*
X339838Y548781D01*
X342000Y548351D01*
X342000Y548352D01*
X360260D01*
X363348Y545264D01*
X363460Y544040D01*
X363460D01*
Y530960D01*
X374642D01*
X375208Y529703D01*
X374692Y529040D01*
X363460D01*
Y523677D01*
X362781Y522662D01*
X362351Y520500D01*
X362351Y520500D01*
Y504340D01*
X330506Y472494D01*
X329281Y470662D01*
X328851Y468500D01*
X328851Y468500D01*
Y461290D01*
X314710D01*
Y459649D01*
X285290D01*
Y461290D01*
X284149D01*
Y463053D01*
X286321Y463339D01*
X288483Y464235D01*
X290340Y465660D01*
X291765Y467517D01*
X292661Y469679D01*
X292967Y472000D01*
X292661Y474321D01*
X291765Y476483D01*
X290340Y478340D01*
X288483Y479765D01*
X286321Y480661D01*
X284000Y480967D01*
X281679Y480661D01*
X279517Y479765D01*
X277659Y478340D01*
X276235Y476483D01*
X275339Y474321D01*
X275033Y472000D01*
X275147Y471135D01*
X274506Y470494D01*
X273281Y468662D01*
X272851Y466500D01*
X272851Y466500D01*
Y461290D01*
X258710D01*
Y459649D01*
X250000D01*
X250000Y459649D01*
X247838Y459218D01*
X246006Y457994D01*
X246006Y457994D01*
X238282Y450270D01*
X237108Y450756D01*
Y461120D01*
X268340Y492351D01*
X306000D01*
X306000Y492351D01*
X308162Y492781D01*
X309994Y494006D01*
X323994Y508006D01*
X323994Y508006D01*
X325219Y509838D01*
X325648Y512000D01*
X325648Y512000D01*
Y565960D01*
X328540D01*
Y585891D01*
X331460D01*
Y565960D01*
D02*
G37*
G36*
X258710Y446710D02*
X259351D01*
Y443390D01*
X258210D01*
Y428810D01*
X284790D01*
Y430452D01*
X294488D01*
X294488Y430451D01*
X296649Y430881D01*
X298482Y432106D01*
X298728Y432351D01*
X311282D01*
Y431070D01*
X311281Y431070D01*
X311711Y428908D01*
X312936Y427076D01*
X317890Y422121D01*
X317297Y420918D01*
X316930Y420967D01*
X314609Y420661D01*
X312447Y419765D01*
X310590Y418340D01*
X309165Y416483D01*
X308269Y414321D01*
X307963Y412000D01*
X308005Y411684D01*
X306866Y411122D01*
X295994Y421994D01*
X294161Y423219D01*
X292000Y423649D01*
X292000Y423648D01*
X285290D01*
Y425290D01*
X258710D01*
Y419198D01*
X248006Y408494D01*
X246919Y406867D01*
X246000Y406949D01*
X245648Y407078D01*
Y441660D01*
X252340Y448352D01*
X258710D01*
Y446710D01*
D02*
G37*
G36*
X264006Y374006D02*
X265838Y372781D01*
X268000Y372351D01*
X268000Y372351D01*
X271960D01*
Y367460D01*
X276352D01*
Y340340D01*
X268450Y332438D01*
X267540Y331690D01*
Y331690D01*
X267540Y331690D01*
X256198D01*
X244752Y343137D01*
X245238Y344310D01*
X267540D01*
Y356890D01*
X256198D01*
X245648Y367440D01*
Y372067D01*
X246919Y372693D01*
X247517Y372235D01*
X249679Y371339D01*
X252000Y371033D01*
X254321Y371339D01*
X256483Y372235D01*
X258340Y373660D01*
X259765Y375517D01*
X260100Y376324D01*
X261506Y376506D01*
X264006Y374006D01*
D02*
G37*
D10*
X326395Y208250D02*
D03*
X293395D02*
D03*
X278395D02*
D03*
X848260Y535750D02*
D03*
X815260D02*
D03*
X800260D02*
D03*
D11*
X261895Y240000D02*
D03*
Y220000D02*
D03*
X338895Y240000D02*
D03*
Y220000D02*
D03*
X783760Y567500D02*
D03*
Y547500D02*
D03*
X860760Y567500D02*
D03*
Y547500D02*
D03*
D12*
X334500Y454000D02*
D03*
X321500D02*
D03*
X321500Y438000D02*
D03*
X334500D02*
D03*
X278000Y436100D02*
D03*
X265000D02*
D03*
X278500Y454000D02*
D03*
X265500D02*
D03*
X278500Y418000D02*
D03*
X265500D02*
D03*
X265500Y400000D02*
D03*
X278500D02*
D03*
D13*
X230000Y537500D02*
D03*
Y522500D02*
D03*
X370000Y537500D02*
D03*
Y522500D02*
D03*
X300000Y537500D02*
D03*
Y522500D02*
D03*
D14*
X260000Y577250D02*
D03*
X280000Y577250D02*
D03*
X320000Y577250D02*
D03*
X340000D02*
D03*
D15*
X345000Y399500D02*
D03*
Y380500D02*
D03*
X367000Y390000D02*
D03*
D16*
X345500Y325400D02*
D03*
Y350600D02*
D03*
X254500D02*
D03*
Y325400D02*
D03*
D17*
X318000Y378000D02*
D03*
X282000D02*
D03*
D18*
X231460Y208250D02*
X278395D01*
X182000Y257710D02*
X231460Y208250D01*
X182000Y257710D02*
Y350000D01*
X164700Y367300D02*
X182000Y350000D01*
X120000Y367300D02*
X164700D01*
X231460Y348440D02*
Y463460D01*
X266000Y498000D01*
X294000Y298000D02*
X368000D01*
X281900D02*
X294000D01*
X295435Y296565D01*
Y225841D02*
Y296565D01*
X293395Y223801D02*
X295435Y225841D01*
X293395Y208250D02*
Y223801D01*
X240000Y365100D02*
X254500Y350600D01*
X240000Y365100D02*
Y444000D01*
X252000Y380000D02*
Y404500D01*
X345000Y380500D02*
X361500Y364000D01*
X366000D01*
X278500Y466500D02*
X284000Y472000D01*
X278500Y454000D02*
Y466500D01*
X334500Y431500D02*
Y438000D01*
Y431500D02*
X356000Y410000D01*
Y391500D02*
Y410000D01*
X345000Y380500D02*
X356000Y391500D01*
X252000Y404500D02*
X265500Y418000D01*
X332000Y364100D02*
X345500Y350600D01*
X332000Y364100D02*
Y396930D01*
X316930Y412000D02*
X332000Y396930D01*
X345000Y399500D02*
Y403000D01*
X316930Y431070D02*
X345000Y403000D01*
X316930Y431070D02*
Y433430D01*
X265000Y453500D02*
X265500Y454000D01*
X265000Y436100D02*
Y453500D01*
X316930Y433430D02*
X321500Y438000D01*
X294488Y436100D02*
X296388Y438000D01*
X321500D01*
X278500Y454000D02*
X321500D01*
X334500Y438000D02*
Y438500D01*
X278000Y436100D02*
X294488D01*
X334500Y468500D02*
X368000Y502000D01*
X334500Y454000D02*
Y468500D01*
X250000Y454000D02*
X265500D01*
X240000Y444000D02*
X250000Y454000D01*
X460600Y418100D02*
X509500D01*
X432500Y390000D02*
X460600Y418100D01*
X367000Y390000D02*
X432500D01*
X368000Y520500D02*
X370000Y522500D01*
X368000Y502000D02*
Y520500D01*
X300000Y522500D02*
X306500D01*
X310000Y526000D01*
Y558000D01*
X302000Y566000D02*
X310000Y558000D01*
X302000Y566000D02*
Y587080D01*
X306460Y591540D01*
X350460D01*
X352000Y590000D01*
Y574000D02*
Y590000D01*
Y574000D02*
X358000Y568000D01*
X364000D01*
X382000Y550000D01*
Y528000D02*
Y550000D01*
X376500Y522500D02*
X382000Y528000D01*
X370000Y522500D02*
X376500D01*
X254500Y325400D02*
X281900Y298000D01*
X368000D02*
X437300Y367300D01*
X509500D01*
X266000Y498000D02*
X306000D01*
X320000Y512000D01*
Y577250D01*
X318000Y378000D02*
Y392000D01*
X292000Y418000D02*
X318000Y392000D01*
X278500Y418000D02*
X292000D01*
X324100Y325400D02*
X345500D01*
X300000Y349500D02*
X324100Y325400D01*
X300000Y349500D02*
Y389500D01*
X289500Y400000D02*
X300000Y389500D01*
X278500Y400000D02*
X289500D01*
X231460Y348440D02*
X254500Y325400D01*
X268000Y378000D02*
X282000D01*
X265500Y380500D02*
X268000Y378000D01*
X265500Y380500D02*
Y400000D01*
X282000Y338000D02*
Y378000D01*
X269400Y325400D02*
X282000Y338000D01*
X254500Y325400D02*
X269400D01*
X265000Y436100D02*
X265500Y436600D01*
X230000Y522500D02*
X300000D01*
X340000Y556000D02*
Y577250D01*
Y556000D02*
X342000Y554000D01*
X362600D01*
X370000Y546600D01*
Y537500D02*
Y546600D01*
X300000Y537500D02*
Y550000D01*
X298000Y552000D02*
X300000Y550000D01*
X290000Y552000D02*
X298000D01*
X280000Y562000D02*
X290000Y552000D01*
X280000Y562000D02*
Y577250D01*
X260000Y562000D02*
Y577250D01*
X252000Y554000D02*
X260000Y562000D01*
X238000Y554000D02*
X252000D01*
X230000Y546000D02*
X238000Y554000D01*
X230000Y537500D02*
Y546000D01*
X671750Y405550D02*
X778050D01*
X800260Y427760D01*
Y535750D01*
X860000Y372500D02*
Y380500D01*
X832500Y372500D02*
X860000D01*
Y394500D02*
Y437500D01*
X815260Y482240D02*
Y535750D01*
Y482240D02*
X860000Y437500D01*
X655950Y430950D02*
X671750D01*
X647500Y422500D02*
X655950Y430950D01*
X647500Y342500D02*
Y422500D01*
Y342500D02*
X665000Y325000D01*
X722500D01*
X800000Y402500D01*
X832500D01*
X1329500Y358750D02*
X1361250D01*
X1329000Y219000D02*
Y358250D01*
X1329500Y358750D01*
X1360500Y335750D02*
X1375000Y321250D01*
Y220000D02*
Y321250D01*
X1284500Y397000D02*
X1468000D01*
X1249750Y362250D02*
X1284500Y397000D01*
X1229250Y362250D02*
X1249750D01*
X1480500Y489500D02*
X1548250D01*
X1468000Y477000D02*
X1480500Y489500D01*
X1468000Y397000D02*
Y477000D01*
X1529500Y474500D02*
X1548250D01*
X1529500Y335500D02*
Y474500D01*
Y335500D02*
X1529700Y335300D01*
X1191500Y221250D02*
X1292750Y120000D01*
X1321900D01*
X1229250Y283750D02*
Y289000D01*
X1191500Y246000D02*
X1229250Y283750D01*
X1191500Y221250D02*
Y246000D01*
X1529700Y335300D02*
X1589500D01*
X515800Y899200D02*
X550000D01*
X425000Y990000D02*
X515800Y899200D01*
X235000Y990000D02*
X425000D01*
X147240Y1077760D02*
X235000Y990000D01*
X126750Y1077760D02*
X147240D01*
X126750Y1031750D02*
Y1062760D01*
X122850Y1027850D02*
X126750Y1031750D01*
X122850Y897150D02*
Y1027850D01*
Y897150D02*
X152000D01*
X682850D02*
X712000D01*
X682850D02*
Y1027850D01*
X686750Y1031750D01*
Y1062760D01*
Y1077760D02*
X707240D01*
X795000Y990000D01*
X985000D01*
X1075800Y899200D01*
X1110000D01*
X1246750Y1077760D02*
X1282240D01*
X1370000Y990000D01*
X1595000D01*
X1635000Y950000D01*
X1670000D01*
X1246750Y973200D02*
X1272000Y947950D01*
X1246750Y973200D02*
Y1062760D01*
D19*
X860000Y394500D02*
D03*
Y380500D02*
D03*
X1229250Y303000D02*
D03*
Y289000D02*
D03*
X336160Y881470D02*
D03*
Y895470D02*
D03*
X896160D02*
D03*
Y881470D02*
D03*
X1456160Y881470D02*
D03*
Y895470D02*
D03*
D20*
X832500Y402500D02*
D03*
Y372500D02*
D03*
X1361250Y333750D02*
D03*
Y363750D02*
D03*
D21*
X1229250Y342250D02*
D03*
Y362250D02*
D03*
X335050Y924360D02*
D03*
Y944360D02*
D03*
X895050D02*
D03*
Y924360D02*
D03*
X1455050Y924360D02*
D03*
Y944360D02*
D03*
D22*
X1548250Y441500D02*
D03*
Y474500D02*
D03*
Y489500D02*
D03*
X126750Y1110760D02*
D03*
Y1077760D02*
D03*
Y1062760D02*
D03*
X686750D02*
D03*
Y1077760D02*
D03*
Y1110760D02*
D03*
X1246750Y1110760D02*
D03*
Y1077760D02*
D03*
Y1062760D02*
D03*
D23*
X1580000Y506000D02*
D03*
X1560000D02*
D03*
X1580000Y429000D02*
D03*
X1560000D02*
D03*
X95000Y1046260D02*
D03*
X115000D02*
D03*
X95000Y1123260D02*
D03*
X115000D02*
D03*
X675000D02*
D03*
X655000D02*
D03*
X675000Y1046260D02*
D03*
X655000D02*
D03*
X1215000Y1046260D02*
D03*
X1235000D02*
D03*
X1215000Y1123260D02*
D03*
X1235000D02*
D03*
D24*
X1229250Y303000D02*
Y342250D01*
D25*
X307300Y720000D02*
Y896610D01*
X335050Y924360D01*
Y944360D02*
X357320D01*
X360810Y940870D01*
Y895470D02*
Y940870D01*
X336160Y895470D02*
X360810D01*
X336160Y857410D02*
Y881470D01*
X332700Y853950D02*
X336160Y857410D01*
X332700Y720000D02*
Y853950D01*
X892700Y720000D02*
Y853950D01*
X896160Y857410D01*
Y881470D01*
Y895470D02*
X920810D01*
Y940870D01*
X917320Y944360D02*
X920810Y940870D01*
X895050Y944360D02*
X917320D01*
X867300Y896610D02*
X895050Y924360D01*
X867300Y720000D02*
Y896610D01*
X1427300Y720000D02*
Y896610D01*
X1455050Y924360D01*
Y944360D02*
X1477320D01*
X1480810Y940870D01*
Y895470D02*
Y940870D01*
X1456160Y895470D02*
X1480810D01*
X1456160Y857410D02*
Y881470D01*
X1452700Y853950D02*
X1456160Y857410D01*
X1452700Y720000D02*
Y853950D01*
D26*
X20000Y97500D02*
D03*
X1745000Y1262500D02*
D03*
X400000Y295000D02*
D03*
X215000Y480000D02*
D03*
X400000D02*
D03*
X215000Y295000D02*
D03*
D27*
X230000Y318000D02*
D03*
X374000Y470000D02*
D03*
X509500Y418100D02*
D03*
Y341900D02*
D03*
Y367300D02*
D03*
Y392700D02*
D03*
X120000D02*
D03*
Y367300D02*
D03*
Y341900D02*
D03*
X671750Y405550D02*
D03*
Y380150D02*
D03*
Y354750D02*
D03*
X1398100Y120000D02*
D03*
X1372700D02*
D03*
X1347300D02*
D03*
X1191500Y458850D02*
D03*
Y484250D02*
D03*
Y509650D02*
D03*
Y145050D02*
D03*
Y170450D02*
D03*
Y195850D02*
D03*
X1191250Y302150D02*
D03*
Y327550D02*
D03*
Y352950D02*
D03*
X1589500Y386100D02*
D03*
Y309900D02*
D03*
Y335300D02*
D03*
Y360700D02*
D03*
X550000Y975400D02*
D03*
Y899200D02*
D03*
Y924600D02*
D03*
Y950000D02*
D03*
X152000Y947950D02*
D03*
Y922550D02*
D03*
Y897150D02*
D03*
X358100Y720000D02*
D03*
X332700D02*
D03*
X307300D02*
D03*
X867300D02*
D03*
X892700D02*
D03*
X918100D02*
D03*
X712000Y897150D02*
D03*
Y922550D02*
D03*
Y947950D02*
D03*
X1110000Y950000D02*
D03*
Y924600D02*
D03*
Y899200D02*
D03*
Y975400D02*
D03*
X1670000Y975400D02*
D03*
Y899200D02*
D03*
Y924600D02*
D03*
Y950000D02*
D03*
X1272000Y947950D02*
D03*
Y922550D02*
D03*
Y897150D02*
D03*
X1478100Y720000D02*
D03*
X1452700D02*
D03*
X1427300D02*
D03*
D28*
X250000Y606000D02*
D03*
X330000D02*
D03*
D29*
X120000Y418100D02*
D03*
X671750Y430950D02*
D03*
X1191500Y535050D02*
D03*
Y221250D02*
D03*
X1191250Y378350D02*
D03*
X152000Y973350D02*
D03*
X712000D02*
D03*
X1272000Y973350D02*
D03*
D30*
X95000Y585000D02*
D03*
X505000D02*
D03*
X95000Y175000D02*
D03*
X505000D02*
D03*
X1025000D02*
D03*
X615000D02*
D03*
X1025000Y585000D02*
D03*
X615000D02*
D03*
D31*
X252000Y380000D02*
D03*
X366000Y364000D02*
D03*
X316930Y412000D02*
D03*
X284000Y472000D02*
D03*
D32*
X735000Y295000D02*
D03*
X920000Y480000D02*
D03*
X735000D02*
D03*
X920000Y295000D02*
D03*
X1420000Y165000D02*
D03*
X1300000D02*
D03*
X1420000Y535000D02*
D03*
X1300000D02*
D03*
X195000Y1090000D02*
D03*
Y790000D02*
D03*
X495000D02*
D03*
Y1090000D02*
D03*
X1055000D02*
D03*
Y790000D02*
D03*
X755000D02*
D03*
Y1090000D02*
D03*
X1330000Y1100000D02*
D03*
Y780000D02*
D03*
X1550000D02*
D03*
Y1100000D02*
D03*
D33*
X1321900Y120000D02*
D03*
X281900Y720000D02*
D03*
X841900D02*
D03*
X1401900Y720000D02*
D03*
D34*
X1590000Y590000D02*
D03*
X1130000D02*
D03*
Y90000D02*
D03*
X1590000D02*
D03*
X550000Y1190000D02*
D03*
X90000D02*
D03*
Y690000D02*
D03*
X550000D02*
D03*
X1110000D02*
D03*
X650000D02*
D03*
Y1190000D02*
D03*
X1110000D02*
D03*
X1670000Y1190000D02*
D03*
X1210000D02*
D03*
Y690000D02*
D03*
X1670000D02*
D03*
D35*
X1329000Y219000D02*
D03*
X1375000Y220000D02*
D03*
X1249750Y362250D02*
D03*
M02*
