G04 Layer_Color=32896*
%FSLAX44Y44*%
%MOMM*%
G71*
G01*
G75*
%ADD38C,0.2540*%
%ADD41C,0.2000*%
%ADD70C,0.0508*%
D38*
X1233500Y448750D02*
G03*
X1233500Y448750I-1250J0D01*
G01*
X1232750Y330750D02*
G03*
X1232750Y330750I-1250J0D01*
G01*
X1235000Y206750D02*
G03*
X1235000Y206750I-1250J0D01*
G01*
D41*
X308132Y366918D02*
X313081Y371868D01*
X291868Y393082D02*
X313081Y371868D01*
X286919Y388132D02*
X291868Y393082D01*
X286919Y388132D02*
X308132Y366918D01*
X296995Y356135D02*
X305480Y364620D01*
X1215250Y222000D02*
X1237250D01*
Y212000D02*
Y222000D01*
X1215250Y212000D02*
X1237250D01*
X1215250D02*
Y222000D01*
X1227750Y212000D02*
Y221000D01*
X1215250Y462500D02*
X1237250D01*
Y452500D02*
Y462500D01*
X1215250Y452500D02*
X1237250D01*
X1215250D02*
Y462500D01*
X1227750Y452500D02*
Y461500D01*
X1215250Y342000D02*
X1237250D01*
Y332000D02*
Y342000D01*
X1215250Y332000D02*
X1237250D01*
X1215250D02*
Y342000D01*
X1227750Y332000D02*
Y341000D01*
X1366500Y204500D02*
X1379000D01*
X1366500Y178000D02*
X1379000D01*
X1366500D02*
Y204500D01*
X1379000Y178000D02*
Y204500D01*
D70*
X255804Y525396D02*
Y532000D01*
X256312Y521332D02*
Y536064D01*
X256820Y518792D02*
Y539112D01*
X257328Y516760D02*
Y541144D01*
X257836Y514728D02*
Y542668D01*
X258344Y513204D02*
Y544192D01*
X258852Y512188D02*
Y545208D01*
X259360Y510664D02*
Y546732D01*
X259868Y509648D02*
Y547748D01*
X260376Y508632D02*
Y548764D01*
X260884Y507616D02*
Y549780D01*
X261392Y506600D02*
Y550796D01*
X261900Y505584D02*
Y551812D01*
X262408Y505076D02*
Y552320D01*
X262916Y504060D02*
Y553336D01*
X263424Y503552D02*
Y554352D01*
X263932Y502536D02*
Y554860D01*
X264440Y502028D02*
Y555368D01*
X264948Y501520D02*
Y556384D01*
X265456Y500504D02*
Y556892D01*
X265964Y499996D02*
Y557400D01*
X266472Y499488D02*
Y557908D01*
X266980Y498980D02*
Y558924D01*
X267488Y498980D02*
Y559432D01*
X267996Y498472D02*
Y559940D01*
X268504Y498472D02*
Y503044D01*
Y505076D02*
Y523364D01*
Y534032D02*
Y560448D01*
X269012Y497964D02*
Y502536D01*
Y506092D02*
Y520824D01*
Y536572D02*
Y560956D01*
X269520Y497964D02*
Y502028D01*
Y506092D02*
Y519300D01*
Y538604D02*
Y561464D01*
X270028Y497964D02*
Y502028D01*
Y506600D02*
Y517776D01*
Y540128D02*
Y561972D01*
X270536Y497964D02*
Y502028D01*
Y506600D02*
Y516252D01*
Y541144D02*
Y562480D01*
X271044Y497964D02*
Y502028D01*
Y506600D02*
Y515236D01*
Y542160D02*
Y562480D01*
X271552Y497964D02*
Y502028D01*
Y506600D02*
Y514220D01*
Y543176D02*
Y562988D01*
X272060Y497964D02*
Y502536D01*
Y506092D02*
Y513204D01*
Y544192D02*
Y563496D01*
X272568Y498472D02*
Y503044D01*
Y505584D02*
Y512188D01*
Y523364D02*
Y534032D01*
Y545208D02*
Y564004D01*
X273076Y498472D02*
Y511172D01*
Y521332D02*
Y536572D01*
Y546224D02*
Y564512D01*
X273584Y498980D02*
Y510664D01*
Y519300D02*
Y538096D01*
Y546732D02*
Y565020D01*
X274092Y498980D02*
Y509648D01*
Y518284D02*
Y539620D01*
Y547748D02*
Y565020D01*
X274600Y499488D02*
Y509140D01*
Y516760D02*
Y540636D01*
Y548256D02*
Y565528D01*
X275108Y499996D02*
Y508632D01*
Y515744D02*
Y541652D01*
Y548764D02*
Y566036D01*
X275616Y500504D02*
Y507616D01*
Y514728D02*
Y542668D01*
Y549780D02*
Y566036D01*
X276124Y501520D02*
Y507108D01*
Y514220D02*
Y543684D01*
Y550288D02*
Y566544D01*
X276632Y503044D02*
Y505584D01*
Y513204D02*
Y544700D01*
Y550796D02*
Y567052D01*
X277140Y512188D02*
Y545208D01*
Y551304D02*
Y567052D01*
X277648Y511680D02*
Y545716D01*
Y551812D02*
Y567560D01*
X278156Y511172D02*
Y546732D01*
Y552320D02*
Y568068D01*
X278664Y510664D02*
Y547240D01*
Y552828D02*
Y568068D01*
X279172Y509648D02*
Y547748D01*
Y553336D02*
Y568576D01*
X279680Y509140D02*
Y548256D01*
Y553844D02*
Y568576D01*
X280188Y508632D02*
Y548256D01*
Y554352D02*
Y569084D01*
X280696Y508124D02*
Y548764D01*
Y554352D02*
Y569084D01*
X281204Y507616D02*
Y548764D01*
Y554860D02*
Y569592D01*
X281712Y507108D02*
Y549272D01*
Y555368D02*
Y569592D01*
X282220Y506600D02*
Y549272D01*
Y555876D02*
Y570100D01*
X282728Y506600D02*
Y549272D01*
Y555876D02*
Y570100D01*
X283236Y506092D02*
Y549272D01*
Y556384D02*
Y570608D01*
X283744Y505584D02*
Y549272D01*
Y556892D02*
Y570608D01*
X284252Y505076D02*
Y549272D01*
Y556892D02*
Y570608D01*
X284760Y505076D02*
Y525904D01*
Y532000D02*
Y549272D01*
Y557400D02*
Y571116D01*
X285268Y504568D02*
Y523872D01*
Y534032D02*
Y548764D01*
Y557400D02*
Y571116D01*
X285776Y504060D02*
Y522348D01*
Y535048D02*
Y548764D01*
Y557908D02*
Y571624D01*
X286284Y504060D02*
Y521332D01*
Y536064D02*
Y548764D01*
Y557908D02*
Y571624D01*
X286792Y503552D02*
Y520316D01*
Y537080D02*
Y548256D01*
Y558416D02*
Y571624D01*
X287300Y503552D02*
Y519808D01*
Y538096D02*
Y547748D01*
Y558416D02*
Y572132D01*
X287808Y503044D02*
Y518792D01*
Y538604D02*
Y547240D01*
Y558924D02*
Y572132D01*
X288316Y503044D02*
Y518284D01*
Y539620D02*
Y546732D01*
Y558924D02*
Y572132D01*
X288824Y502536D02*
Y517776D01*
Y540128D02*
Y545716D01*
Y559432D02*
Y572132D01*
X289332Y502536D02*
Y517268D01*
Y541652D02*
Y544700D01*
Y559432D02*
Y572640D01*
X289840Y502028D02*
Y516760D01*
Y559432D02*
Y572640D01*
X290348Y502028D02*
Y516252D01*
Y559940D02*
Y572640D01*
X290856Y501520D02*
Y515744D01*
Y559940D02*
Y572640D01*
X291364Y501520D02*
Y515236D01*
Y559940D02*
Y573148D01*
X291872Y501520D02*
Y515236D01*
Y560448D02*
Y573148D01*
X292380Y501012D02*
Y514728D01*
Y560448D02*
Y573148D01*
X292888Y501012D02*
Y514728D01*
Y560448D02*
Y573148D01*
X293396Y501012D02*
Y514220D01*
Y560956D02*
Y573148D01*
X293904Y501012D02*
Y513712D01*
Y560956D02*
Y573656D01*
X294412Y500504D02*
Y513712D01*
Y560956D02*
Y573656D01*
X294920Y500504D02*
Y513712D01*
Y527428D02*
Y573656D01*
X295428Y500504D02*
Y513204D01*
Y525904D02*
Y573656D01*
X295936Y500504D02*
Y513204D01*
Y524888D02*
Y573656D01*
X296444Y500504D02*
Y513204D01*
Y524380D02*
Y573656D01*
X296952Y499996D02*
Y512696D01*
Y523872D02*
Y573656D01*
X297460Y499996D02*
Y512696D01*
Y523364D02*
Y573656D01*
X297968Y499996D02*
Y512696D01*
Y523364D02*
Y527428D01*
Y530476D02*
Y573656D01*
X298476Y499996D02*
Y512696D01*
Y522856D02*
Y526412D01*
Y530984D02*
Y574164D01*
X298984Y499996D02*
Y512696D01*
Y522856D02*
Y525904D01*
Y531492D02*
Y574164D01*
X299492Y499996D02*
Y512188D01*
Y522348D02*
Y525904D01*
Y531492D02*
Y574164D01*
X300000Y499996D02*
Y512188D01*
Y522348D02*
Y525396D01*
Y532000D02*
Y574164D01*
X300508Y499996D02*
Y512188D01*
Y522348D02*
Y525396D01*
Y532000D02*
Y574164D01*
X301016Y499996D02*
Y512188D01*
Y522348D02*
Y525396D01*
Y532000D02*
Y574164D01*
X301524Y499996D02*
Y512188D01*
Y522348D02*
Y525396D01*
Y532000D02*
Y574164D01*
X302032Y499996D02*
Y512188D01*
Y522348D02*
Y525396D01*
Y532000D02*
Y574164D01*
X302540Y499996D02*
Y512696D01*
Y522856D02*
Y525904D01*
Y531492D02*
Y574164D01*
X303048Y499996D02*
Y512696D01*
Y522856D02*
Y526412D01*
Y531492D02*
Y574164D01*
X303556Y499996D02*
Y512696D01*
Y522856D02*
Y526920D01*
Y530476D02*
Y573656D01*
X304064Y499996D02*
Y512696D01*
Y523364D02*
Y527936D01*
Y529968D02*
Y573656D01*
X304572Y499996D02*
Y512696D01*
Y523364D02*
Y573656D01*
X305080Y500504D02*
Y512696D01*
Y523872D02*
Y573656D01*
X305588Y500504D02*
Y513204D01*
Y524380D02*
Y573656D01*
X306096Y500504D02*
Y513204D01*
Y524888D02*
Y573656D01*
X306604Y500504D02*
Y513204D01*
Y525904D02*
Y573656D01*
X307112Y500504D02*
Y513712D01*
Y527936D02*
Y573656D01*
X307620Y500504D02*
Y513712D01*
Y560956D02*
Y573656D01*
X308128Y501012D02*
Y514220D01*
Y560956D02*
Y573656D01*
X308636Y501012D02*
Y514220D01*
Y560448D02*
Y573148D01*
X309144Y501012D02*
Y514728D01*
Y560448D02*
Y573148D01*
X309652Y501520D02*
Y514728D01*
Y560448D02*
Y573148D01*
X310160Y501520D02*
Y515236D01*
Y560448D02*
Y573148D01*
X310668Y501520D02*
Y515744D01*
Y559940D02*
Y573148D01*
X311176Y502028D02*
Y516252D01*
Y559940D02*
Y572640D01*
X311684Y502028D02*
Y516252D01*
Y559940D02*
Y572640D01*
X312192Y502028D02*
Y516760D01*
Y559432D02*
Y572640D01*
X312700Y502536D02*
Y517268D01*
Y541144D02*
Y545208D01*
Y559432D02*
Y572640D01*
X313208Y502536D02*
Y517776D01*
Y539620D02*
Y546224D01*
Y558924D02*
Y572132D01*
X313716Y503044D02*
Y518792D01*
Y539112D02*
Y547240D01*
Y558924D02*
Y572132D01*
X314224Y503044D02*
Y519300D01*
Y538604D02*
Y547748D01*
Y558924D02*
Y572132D01*
X314732Y503552D02*
Y519808D01*
Y537588D02*
Y547748D01*
Y558416D02*
Y571624D01*
X315240Y503552D02*
Y520824D01*
Y537080D02*
Y548256D01*
Y558416D02*
Y571624D01*
X315748Y504060D02*
Y521840D01*
Y536064D02*
Y548764D01*
Y557908D02*
Y571624D01*
X316256Y504568D02*
Y522856D01*
Y534540D02*
Y548764D01*
Y557908D02*
Y571116D01*
X316764Y504568D02*
Y524380D01*
Y533016D02*
Y548764D01*
Y557400D02*
Y571116D01*
X317272Y505076D02*
Y526920D01*
Y530476D02*
Y549272D01*
Y557400D02*
Y571116D01*
X317780Y505584D02*
Y549272D01*
Y556892D02*
Y570608D01*
X318288Y505584D02*
Y549272D01*
Y556384D02*
Y570608D01*
X318796Y506092D02*
Y549272D01*
Y556384D02*
Y570100D01*
X319304Y506600D02*
Y549272D01*
Y555876D02*
Y570100D01*
X319812Y507108D02*
Y549272D01*
Y555368D02*
Y570100D01*
X320320Y507616D02*
Y548764D01*
Y555368D02*
Y569592D01*
X320828Y508124D02*
Y548764D01*
Y554860D02*
Y569592D01*
X321336Y508632D02*
Y548764D01*
Y554352D02*
Y569084D01*
X321844Y509140D02*
Y548256D01*
Y553844D02*
Y569084D01*
X322352Y509648D02*
Y547748D01*
Y553336D02*
Y568576D01*
X322860Y510156D02*
Y547748D01*
Y553336D02*
Y568068D01*
X323368Y510664D02*
Y546732D01*
Y552828D02*
Y568068D01*
X323876Y511172D02*
Y546224D01*
Y552320D02*
Y567560D01*
X324384Y512188D02*
Y545716D01*
Y551812D02*
Y567560D01*
X324892Y512696D02*
Y544700D01*
Y551304D02*
Y567052D01*
X325400Y502028D02*
Y506092D01*
Y513712D02*
Y544192D01*
Y550796D02*
Y566544D01*
X325908Y501012D02*
Y507616D01*
Y514220D02*
Y543176D01*
Y549780D02*
Y566544D01*
X326416Y500504D02*
Y508124D01*
Y515236D02*
Y542160D01*
Y549272D02*
Y566036D01*
X326924Y499488D02*
Y508632D01*
Y516252D02*
Y541144D01*
Y548764D02*
Y565528D01*
X327432Y499488D02*
Y509648D01*
Y517268D02*
Y540128D01*
Y548256D02*
Y565528D01*
X327940Y498980D02*
Y510156D01*
Y518792D02*
Y539112D01*
Y547240D02*
Y565020D01*
X328448Y498472D02*
Y511172D01*
Y520316D02*
Y537588D01*
Y546732D02*
Y564512D01*
X328956Y498472D02*
Y503044D01*
Y505076D02*
Y511680D01*
Y521840D02*
Y535556D01*
Y545716D02*
Y564004D01*
X329464Y498472D02*
Y502536D01*
Y506092D02*
Y512696D01*
Y524888D02*
Y533016D01*
Y544700D02*
Y564004D01*
X329972Y497964D02*
Y502028D01*
Y506092D02*
Y513712D01*
Y544192D02*
Y563496D01*
X330480Y497964D02*
Y502028D01*
Y506600D02*
Y514728D01*
Y543176D02*
Y562988D01*
X330988Y497964D02*
Y502028D01*
Y506600D02*
Y515744D01*
Y541652D02*
Y562480D01*
X331496Y497964D02*
Y502028D01*
Y506600D02*
Y516760D01*
Y540636D02*
Y561972D01*
X332004Y497964D02*
Y502028D01*
Y506600D02*
Y518284D01*
Y539112D02*
Y561464D01*
X332512Y497964D02*
Y502536D01*
Y506092D02*
Y519808D01*
Y537588D02*
Y560956D01*
X333020Y498472D02*
Y503044D01*
Y505584D02*
Y521840D01*
Y535556D02*
Y560448D01*
X333528Y498472D02*
Y524888D01*
Y532508D02*
Y559940D01*
X334036Y498472D02*
Y559432D01*
X334544Y498980D02*
Y558924D01*
X335052Y499488D02*
Y558416D01*
X335560Y499488D02*
Y557908D01*
X336068Y499996D02*
Y557400D01*
X336576Y501012D02*
Y556384D01*
X337084Y501520D02*
Y555876D01*
X337592Y502028D02*
Y555368D01*
X338100Y503044D02*
Y554352D01*
X338608Y503552D02*
Y553844D01*
X339116Y504568D02*
Y552828D01*
X339624Y505076D02*
Y552320D01*
X340132Y506092D02*
Y551304D01*
X340640Y507108D02*
Y550288D01*
X341148Y508124D02*
Y549272D01*
X341656Y509140D02*
Y548256D01*
X342164Y510156D02*
Y547240D01*
X342672Y511172D02*
Y546224D01*
X343180Y512696D02*
Y544700D01*
X343688Y514220D02*
Y543684D01*
X344196Y515744D02*
Y542160D01*
X344704Y517268D02*
Y540128D01*
X345212Y519808D02*
Y538096D01*
X345720Y522856D02*
Y535048D01*
X828396Y431900D02*
X840588D01*
X825348Y431392D02*
X843636D01*
X823316Y430884D02*
X846176D01*
X821284Y430376D02*
X847700D01*
X819760Y429868D02*
X849224D01*
X818744Y429360D02*
X850748D01*
X817220Y428852D02*
X852272D01*
X816204Y428344D02*
X853288D01*
X815188Y427836D02*
X854304D01*
X814172Y427328D02*
X855320D01*
X813156Y426820D02*
X856336D01*
X812140Y426312D02*
X857352D01*
X811124Y425804D02*
X858368D01*
X810616Y425296D02*
X858876D01*
X809600Y424788D02*
X859892D01*
X809092Y424280D02*
X860400D01*
X808076Y423772D02*
X861416D01*
X807568Y423264D02*
X861924D01*
X807060Y422756D02*
X862432D01*
X806044Y422248D02*
X863448D01*
X805536Y421740D02*
X863956D01*
X805028Y421232D02*
X863956D01*
X804520Y420724D02*
X864464D01*
X804012Y420216D02*
X864972D01*
X803504Y419708D02*
X830936D01*
X838556D02*
X864972D01*
X802996Y419200D02*
X827888D01*
X841604D02*
X857860D01*
X860400D02*
X864972D01*
X802488Y418692D02*
X825856D01*
X843636D02*
X857352D01*
X860908D02*
X865480D01*
X801980Y418184D02*
X824332D01*
X845160D02*
X856844D01*
X861416D02*
X865480D01*
X801472Y417676D02*
X822808D01*
X846684D02*
X856844D01*
X861416D02*
X865480D01*
X800964Y417168D02*
X821792D01*
X847700D02*
X856844D01*
X861416D02*
X865480D01*
X800456Y416660D02*
X820268D01*
X848716D02*
X856844D01*
X861416D02*
X865480D01*
X799948Y416152D02*
X819252D01*
X849732D02*
X857352D01*
X861416D02*
X865480D01*
X799440Y415644D02*
X818744D01*
X830428D02*
X838556D01*
X850748D02*
X857352D01*
X860908D02*
X864972D01*
X799440Y415136D02*
X817728D01*
X827888D02*
X841604D01*
X851764D02*
X858368D01*
X860400D02*
X864972D01*
X798932Y414628D02*
X816712D01*
X825856D02*
X843128D01*
X852272D02*
X864972D01*
X798424Y414120D02*
X816204D01*
X824332D02*
X844652D01*
X853288D02*
X864464D01*
X797916Y413612D02*
X815188D01*
X823316D02*
X846176D01*
X853796D02*
X863956D01*
X797916Y413104D02*
X814680D01*
X822300D02*
X847192D01*
X854812D02*
X863956D01*
X797408Y412596D02*
X814172D01*
X821284D02*
X848208D01*
X855320D02*
X862940D01*
X796900Y412088D02*
X813664D01*
X820268D02*
X849224D01*
X855828D02*
X862432D01*
X796900Y411580D02*
X812648D01*
X819252D02*
X849732D01*
X857352D02*
X861416D01*
X796392Y411072D02*
X812140D01*
X818744D02*
X850748D01*
X795884Y410564D02*
X811632D01*
X817728D02*
X851256D01*
X795884Y410056D02*
X811124D01*
X817220D02*
X852272D01*
X795376Y409548D02*
X810616D01*
X816712D02*
X852780D01*
X795376Y409040D02*
X810108D01*
X815696D02*
X853288D01*
X794868Y408532D02*
X810108D01*
X815696D02*
X853796D01*
X794360Y408024D02*
X809600D01*
X815188D02*
X854304D01*
X794360Y407516D02*
X809092D01*
X814680D02*
X854812D01*
X793852Y407008D02*
X808584D01*
X814680D02*
X855320D01*
X793852Y406500D02*
X808076D01*
X814680D02*
X855828D01*
X793344Y405992D02*
X808076D01*
X814172D02*
X856336D01*
X793344Y405484D02*
X807568D01*
X814172D02*
X856844D01*
X793344Y404976D02*
X807060D01*
X814172D02*
X857352D01*
X792836Y404468D02*
X807060D01*
X814172D02*
X857860D01*
X792836Y403960D02*
X806552D01*
X814172D02*
X857860D01*
X792328Y403452D02*
X806044D01*
X814172D02*
X832968D01*
X836524D02*
X858368D01*
X792328Y402944D02*
X806044D01*
X814680D02*
X830428D01*
X839064D02*
X858876D01*
X792328Y402436D02*
X805536D01*
X814680D02*
X828904D01*
X840588D02*
X858876D01*
X791820Y401928D02*
X805536D01*
X814680D02*
X827380D01*
X841604D02*
X859384D01*
X791820Y401420D02*
X805028D01*
X815188D02*
X826364D01*
X842620D02*
X859892D01*
X791820Y400912D02*
X805028D01*
X815696D02*
X825856D01*
X843636D02*
X859892D01*
X791312Y400404D02*
X804520D01*
X815696D02*
X824840D01*
X844144D02*
X860400D01*
X791312Y399896D02*
X804520D01*
X816204D02*
X824332D01*
X844652D02*
X860400D01*
X791312Y399388D02*
X804520D01*
X817220D02*
X823824D01*
X845668D02*
X860908D01*
X790804Y398880D02*
X804012D01*
X818236D02*
X822300D01*
X846176D02*
X860908D01*
X790804Y398372D02*
X804012D01*
X846684D02*
X861416D01*
X790804Y397864D02*
X803504D01*
X847192D02*
X861416D01*
X790804Y397356D02*
X803504D01*
X847192D02*
X861416D01*
X790296Y396848D02*
X803504D01*
X847700D02*
X861924D01*
X790296Y396340D02*
X802996D01*
X848208D02*
X861924D01*
X790296Y395832D02*
X802996D01*
X848716D02*
X861924D01*
X790296Y395324D02*
X802996D01*
X848716D02*
X862432D01*
X790296Y394816D02*
X802996D01*
X849224D02*
X862432D01*
X789788Y394308D02*
X802488D01*
X849224D02*
X862432D01*
X789788Y393800D02*
X802488D01*
X849732D02*
X862940D01*
X789788Y393292D02*
X835508D01*
X849732D02*
X862940D01*
X789788Y392784D02*
X837540D01*
X850240D02*
X862940D01*
X789788Y392276D02*
X838556D01*
X850240D02*
X862940D01*
X789788Y391768D02*
X839064D01*
X850240D02*
X862940D01*
X789788Y391260D02*
X839572D01*
X850748D02*
X862940D01*
X789788Y390752D02*
X840080D01*
X850748D02*
X863448D01*
X789788Y390244D02*
X833476D01*
X835508D02*
X840080D01*
X850748D02*
X863448D01*
X789788Y389736D02*
X832968D01*
X836524D02*
X840588D01*
X850748D02*
X863448D01*
X789280Y389228D02*
X831952D01*
X837032D02*
X840588D01*
X850748D02*
X863448D01*
X789280Y388720D02*
X831952D01*
X837540D02*
X840588D01*
X850748D02*
X863448D01*
X789280Y388212D02*
X831444D01*
X838048D02*
X841096D01*
X851256D02*
X863448D01*
X789280Y387704D02*
X831444D01*
X838048D02*
X841096D01*
X851256D02*
X863448D01*
X789280Y387196D02*
X831444D01*
X838048D02*
X841096D01*
X851256D02*
X863448D01*
X789280Y386688D02*
X831444D01*
X838048D02*
X841096D01*
X851256D02*
X863448D01*
X789280Y386180D02*
X831444D01*
X838048D02*
X841096D01*
X851256D02*
X863448D01*
X789280Y385672D02*
X831952D01*
X837540D02*
X841096D01*
X851256D02*
X863448D01*
X789280Y385164D02*
X831952D01*
X837540D02*
X840588D01*
X850748D02*
X863448D01*
X789280Y384656D02*
X832460D01*
X837032D02*
X840588D01*
X850748D02*
X863448D01*
X789788Y384148D02*
X832968D01*
X836016D02*
X840080D01*
X850748D02*
X863448D01*
X789788Y383640D02*
X840080D01*
X850748D02*
X863448D01*
X789788Y383132D02*
X839572D01*
X850748D02*
X863448D01*
X789788Y382624D02*
X839064D01*
X850240D02*
X862940D01*
X789788Y382116D02*
X838556D01*
X850240D02*
X862940D01*
X789788Y381608D02*
X837540D01*
X850240D02*
X862940D01*
X789788Y381100D02*
X836016D01*
X849732D02*
X862940D01*
X789788Y380592D02*
X802488D01*
X849732D02*
X862940D01*
X789788Y380084D02*
X802488D01*
X849732D02*
X862432D01*
X790296Y379576D02*
X802488D01*
X849224D02*
X862432D01*
X790296Y379068D02*
X802996D01*
X848716D02*
X862432D01*
X790296Y378560D02*
X802996D01*
X848716D02*
X862432D01*
X790296Y378052D02*
X802996D01*
X848208D02*
X861924D01*
X790296Y377544D02*
X803504D01*
X848208D02*
X861924D01*
X790804Y377036D02*
X803504D01*
X847700D02*
X861924D01*
X790804Y376528D02*
X803504D01*
X847192D02*
X861416D01*
X790804Y376020D02*
X804012D01*
X846684D02*
X861416D01*
X790804Y375512D02*
X804012D01*
X818744D02*
X821792D01*
X846176D02*
X860908D01*
X791312Y375004D02*
X804012D01*
X817728D02*
X823316D01*
X845668D02*
X860908D01*
X791312Y374496D02*
X804520D01*
X816712D02*
X823824D01*
X845160D02*
X860400D01*
X791312Y373988D02*
X804520D01*
X816204D02*
X824840D01*
X844652D02*
X860400D01*
X791312Y373480D02*
X805028D01*
X815696D02*
X825348D01*
X843636D02*
X859892D01*
X791820Y372972D02*
X805028D01*
X815188D02*
X826364D01*
X843128D02*
X859892D01*
X791820Y372464D02*
X805536D01*
X814680D02*
X827380D01*
X842112D02*
X859384D01*
X791820Y371956D02*
X805536D01*
X814680D02*
X828396D01*
X841096D02*
X859384D01*
X792328Y371448D02*
X806044D01*
X814680D02*
X829412D01*
X839572D02*
X858876D01*
X792328Y370940D02*
X806044D01*
X814172D02*
X831444D01*
X837540D02*
X858368D01*
X792836Y370432D02*
X806552D01*
X814172D02*
X858368D01*
X792836Y369924D02*
X806552D01*
X814172D02*
X857860D01*
X792836Y369416D02*
X807060D01*
X814172D02*
X857352D01*
X793344Y368908D02*
X807568D01*
X814172D02*
X856844D01*
X793344Y368400D02*
X807568D01*
X814172D02*
X856844D01*
X793852Y367892D02*
X808076D01*
X814172D02*
X856336D01*
X793852Y367384D02*
X808584D01*
X814680D02*
X855828D01*
X794360Y366876D02*
X809092D01*
X814680D02*
X855320D01*
X794360Y366368D02*
X809092D01*
X815188D02*
X854812D01*
X794868Y365860D02*
X809600D01*
X815188D02*
X854304D01*
X794868Y365352D02*
X810108D01*
X815696D02*
X853796D01*
X795376Y364844D02*
X810616D01*
X816204D02*
X852780D01*
X795376Y364336D02*
X811124D01*
X816712D02*
X852272D01*
X795884Y363828D02*
X811632D01*
X817728D02*
X851764D01*
X796392Y363320D02*
X812140D01*
X818236D02*
X851256D01*
X796392Y362812D02*
X812648D01*
X818744D02*
X850240D01*
X857860D02*
X860400D01*
X796900Y362304D02*
X813156D01*
X819760D02*
X849224D01*
X856336D02*
X861924D01*
X797408Y361796D02*
X813664D01*
X820776D02*
X848716D01*
X855828D02*
X862940D01*
X797408Y361288D02*
X814680D01*
X821792D02*
X847700D01*
X854812D02*
X863448D01*
X797916Y360780D02*
X815188D01*
X822808D02*
X846684D01*
X854304D02*
X863956D01*
X798424Y360272D02*
X815696D01*
X823824D02*
X845160D01*
X853796D02*
X864464D01*
X798424Y359764D02*
X816712D01*
X825348D02*
X844144D01*
X852780D02*
X864464D01*
X798932Y359256D02*
X817220D01*
X826872D02*
X842112D01*
X852272D02*
X864972D01*
X799440Y358748D02*
X818236D01*
X829412D02*
X840080D01*
X851256D02*
X857860D01*
X860400D02*
X864972D01*
X799948Y358240D02*
X819252D01*
X850240D02*
X857352D01*
X860908D02*
X865480D01*
X800456Y357732D02*
X820268D01*
X849224D02*
X856844D01*
X861416D02*
X865480D01*
X800964Y357224D02*
X821284D01*
X848208D02*
X856844D01*
X861416D02*
X865480D01*
X800964Y356716D02*
X822300D01*
X847192D02*
X856844D01*
X861416D02*
X865480D01*
X801472Y356208D02*
X823316D01*
X845668D02*
X856844D01*
X861416D02*
X865480D01*
X801980Y355700D02*
X824840D01*
X844144D02*
X857352D01*
X861416D02*
X865480D01*
X802488Y355192D02*
X826872D01*
X842620D02*
X857352D01*
X860908D02*
X865480D01*
X802996Y354684D02*
X829412D01*
X840080D02*
X858368D01*
X860400D02*
X864972D01*
X803504Y354176D02*
X864972D01*
X804012Y353668D02*
X864464D01*
X804520Y353160D02*
X864464D01*
X805536Y352652D02*
X863956D01*
X806044Y352144D02*
X863448D01*
X806552Y351636D02*
X862940D01*
X807060Y351128D02*
X861924D01*
X808076Y350620D02*
X861416D01*
X808584Y350112D02*
X860908D01*
X809092Y349604D02*
X859892D01*
X810108Y349096D02*
X859384D01*
X811124Y348588D02*
X858368D01*
X811632Y348080D02*
X857860D01*
X812648Y347572D02*
X856844D01*
X813664Y347064D02*
X855828D01*
X814680Y346556D02*
X854812D01*
X815696Y346048D02*
X853796D01*
X816712Y345540D02*
X852780D01*
X818236Y345032D02*
X851256D01*
X819252Y344524D02*
X850240D01*
X820776Y344016D02*
X848716D01*
X822300Y343508D02*
X846684D01*
X824332Y343000D02*
X844652D01*
X827380Y342492D02*
X842112D01*
X831444Y341984D02*
X838048D01*
X1404400Y329412D02*
Y341604D01*
X1403892Y326364D02*
Y344652D01*
X1403384Y323824D02*
Y346684D01*
X1402876Y322300D02*
Y348716D01*
X1402368Y320776D02*
Y350240D01*
X1401860Y319252D02*
Y351256D01*
X1401352Y317728D02*
Y352780D01*
X1400844Y316712D02*
Y353796D01*
X1400336Y315696D02*
Y354812D01*
X1399828Y314680D02*
Y355828D01*
X1399320Y313664D02*
Y356844D01*
X1398812Y312648D02*
Y357860D01*
X1398304Y311632D02*
Y358876D01*
X1397796Y311124D02*
Y359384D01*
X1397288Y310108D02*
Y360400D01*
X1396780Y309600D02*
Y360908D01*
X1396272Y308584D02*
Y361924D01*
X1395764Y308076D02*
Y362432D01*
X1395256Y307568D02*
Y362940D01*
X1394748Y306552D02*
Y363956D01*
X1394240Y306044D02*
Y364464D01*
X1393732Y306044D02*
Y364972D01*
X1393224Y305536D02*
Y365480D01*
X1392716Y305028D02*
Y365988D01*
X1392208Y339064D02*
Y366496D01*
Y305028D02*
Y331444D01*
X1391700Y342112D02*
Y367004D01*
Y312140D02*
Y328396D01*
Y305028D02*
Y309600D01*
X1391192Y344144D02*
Y367512D01*
Y312648D02*
Y326364D01*
Y304520D02*
Y309092D01*
X1390684Y345668D02*
Y368020D01*
Y313156D02*
Y324840D01*
Y304520D02*
Y308584D01*
X1390176Y347192D02*
Y368528D01*
Y313156D02*
Y323316D01*
Y304520D02*
Y308584D01*
X1389668Y348208D02*
Y369036D01*
Y313156D02*
Y322300D01*
Y304520D02*
Y308584D01*
X1389160Y349732D02*
Y369544D01*
Y313156D02*
Y321284D01*
Y304520D02*
Y308584D01*
X1388652Y350748D02*
Y370052D01*
Y312648D02*
Y320268D01*
Y304520D02*
Y308584D01*
X1388144Y351256D02*
Y370560D01*
Y331444D02*
Y339572D01*
Y312648D02*
Y319252D01*
Y305028D02*
Y309092D01*
X1387636Y352272D02*
Y370560D01*
Y328396D02*
Y342112D01*
Y311632D02*
Y318236D01*
Y305028D02*
Y309600D01*
X1387128Y353288D02*
Y371068D01*
Y326872D02*
Y344144D01*
Y305028D02*
Y317728D01*
X1386620Y353796D02*
Y371576D01*
Y325348D02*
Y345668D01*
Y305536D02*
Y316712D01*
X1386112Y354812D02*
Y372084D01*
Y323824D02*
Y346684D01*
Y306044D02*
Y316204D01*
X1385604Y355320D02*
Y372084D01*
Y322808D02*
Y347700D01*
Y306044D02*
Y315188D01*
X1385096Y355828D02*
Y372592D01*
Y321792D02*
Y348716D01*
Y307060D02*
Y314680D01*
X1384588Y356336D02*
Y373100D01*
Y320776D02*
Y349732D01*
Y307568D02*
Y314172D01*
X1384080Y357352D02*
Y373100D01*
Y320268D02*
Y350748D01*
Y308584D02*
Y312648D01*
X1383572Y357860D02*
Y373608D01*
Y319252D02*
Y351256D01*
X1383064Y358368D02*
Y374116D01*
Y318744D02*
Y352272D01*
X1382556Y358876D02*
Y374116D01*
Y317728D02*
Y352780D01*
X1382048Y359384D02*
Y374624D01*
Y317220D02*
Y353288D01*
X1381540Y359892D02*
Y374624D01*
Y316712D02*
Y354304D01*
X1381032Y359892D02*
Y375132D01*
Y316204D02*
Y354304D01*
X1380524Y360400D02*
Y375640D01*
Y315696D02*
Y354812D01*
X1380016Y360908D02*
Y375640D01*
Y315188D02*
Y355320D01*
X1379508Y361416D02*
Y376148D01*
Y314680D02*
Y355320D01*
X1379000Y361924D02*
Y376148D01*
Y314172D02*
Y355320D01*
X1378492Y361924D02*
Y376656D01*
Y313664D02*
Y355828D01*
X1377984Y362432D02*
Y376656D01*
Y313156D02*
Y355828D01*
X1377476Y362940D02*
Y376656D01*
Y312648D02*
Y355828D01*
X1376968Y362940D02*
Y377164D01*
Y312140D02*
Y355828D01*
X1376460Y363448D02*
Y377164D01*
Y312140D02*
Y355828D01*
X1375952Y363956D02*
Y377672D01*
Y337032D02*
Y355828D01*
Y311632D02*
Y333476D01*
X1375444Y363956D02*
Y377672D01*
Y339572D02*
Y355320D01*
Y311124D02*
Y330936D01*
X1374936Y364464D02*
Y377672D01*
Y341096D02*
Y355320D01*
Y311124D02*
Y329412D01*
X1374428Y364464D02*
Y378180D01*
Y342620D02*
Y355320D01*
Y310616D02*
Y328396D01*
X1373920Y364972D02*
Y378180D01*
Y343636D02*
Y354812D01*
Y310108D02*
Y327380D01*
X1373412Y364972D02*
Y378180D01*
Y344144D02*
Y354304D01*
Y310108D02*
Y326364D01*
X1372904Y365480D02*
Y378688D01*
Y345160D02*
Y354304D01*
Y309600D02*
Y325856D01*
X1372396Y365480D02*
Y378688D01*
Y345668D02*
Y353796D01*
Y309600D02*
Y325348D01*
X1371888Y365480D02*
Y378688D01*
Y346176D02*
Y352780D01*
Y309092D02*
Y324332D01*
X1371380Y365988D02*
Y379196D01*
Y347700D02*
Y351764D01*
Y309092D02*
Y323824D01*
X1370872Y365988D02*
Y379196D01*
Y308584D02*
Y323316D01*
X1370364Y366496D02*
Y379196D01*
Y308584D02*
Y322808D01*
X1369856Y366496D02*
Y379196D01*
Y308584D02*
Y322808D01*
X1369348Y366496D02*
Y379704D01*
Y308076D02*
Y322300D01*
X1368840Y367004D02*
Y379704D01*
Y308076D02*
Y321792D01*
X1368332Y367004D02*
Y379704D01*
Y308076D02*
Y321284D01*
X1367824Y367004D02*
Y379704D01*
Y307568D02*
Y321284D01*
X1367316Y367004D02*
Y379704D01*
Y307568D02*
Y320776D01*
X1366808Y367512D02*
Y380212D01*
Y307568D02*
Y320776D01*
X1366300Y367512D02*
Y380212D01*
Y307060D02*
Y320268D01*
X1365792Y334492D02*
Y380212D01*
Y307060D02*
Y320268D01*
X1365284Y332460D02*
Y380212D01*
Y307060D02*
Y319760D01*
X1364776Y331444D02*
Y380212D01*
Y307060D02*
Y319760D01*
X1364268Y330936D02*
Y380212D01*
Y307060D02*
Y319760D01*
X1363760Y330428D02*
Y380212D01*
Y307060D02*
Y319252D01*
X1363252Y329920D02*
Y380212D01*
Y306552D02*
Y319252D01*
X1362744Y336524D02*
Y380212D01*
Y329920D02*
Y334492D01*
Y306552D02*
Y319252D01*
X1362236Y337032D02*
Y380212D01*
Y329412D02*
Y333476D01*
Y306552D02*
Y319252D01*
X1361728Y338048D02*
Y380720D01*
Y329412D02*
Y332968D01*
Y306552D02*
Y319252D01*
X1361220Y338048D02*
Y380720D01*
Y329412D02*
Y332460D01*
Y306552D02*
Y319252D01*
X1360712Y338556D02*
Y380720D01*
Y328904D02*
Y331952D01*
Y306552D02*
Y318744D01*
X1360204Y338556D02*
Y380720D01*
Y328904D02*
Y331952D01*
Y306552D02*
Y318744D01*
X1359696Y338556D02*
Y380720D01*
Y328904D02*
Y331952D01*
Y306552D02*
Y318744D01*
X1359188Y338556D02*
Y380720D01*
Y328904D02*
Y331952D01*
Y306552D02*
Y318744D01*
X1358680Y338556D02*
Y380720D01*
Y328904D02*
Y331952D01*
Y306552D02*
Y318744D01*
X1358172Y338048D02*
Y380720D01*
Y328904D02*
Y332460D01*
Y306552D02*
Y318744D01*
X1357664Y338048D02*
Y380720D01*
Y329412D02*
Y332460D01*
Y306552D02*
Y319252D01*
X1357156Y337540D02*
Y380720D01*
Y329412D02*
Y332968D01*
Y306552D02*
Y319252D01*
X1356648Y337032D02*
Y380212D01*
Y329920D02*
Y333984D01*
Y306552D02*
Y319252D01*
X1356140Y329920D02*
Y380212D01*
Y306552D02*
Y319252D01*
X1355632Y330428D02*
Y380212D01*
Y306552D02*
Y319252D01*
X1355124Y330936D02*
Y380212D01*
Y307060D02*
Y319760D01*
X1354616Y331444D02*
Y380212D01*
Y307060D02*
Y319760D01*
X1354108Y332460D02*
Y380212D01*
Y307060D02*
Y319760D01*
X1353600Y333984D02*
Y380212D01*
Y307060D02*
Y320268D01*
X1353092Y367512D02*
Y380212D01*
Y307060D02*
Y320268D01*
X1352584Y367512D02*
Y380212D01*
Y307568D02*
Y320268D01*
X1352076Y367512D02*
Y379704D01*
Y307568D02*
Y320776D01*
X1351568Y367004D02*
Y379704D01*
Y307568D02*
Y321284D01*
X1351060Y367004D02*
Y379704D01*
Y307568D02*
Y321284D01*
X1350552Y367004D02*
Y379704D01*
Y308076D02*
Y321792D01*
X1350044Y366496D02*
Y379704D01*
Y308076D02*
Y321792D01*
X1349536Y366496D02*
Y379196D01*
Y308076D02*
Y322300D01*
X1349028Y366496D02*
Y379196D01*
Y308584D02*
Y322808D01*
X1348520Y365988D02*
Y379196D01*
Y308584D02*
Y323316D01*
X1348012Y365988D02*
Y379196D01*
Y348208D02*
Y351256D01*
Y309092D02*
Y323824D01*
X1347504Y365988D02*
Y378688D01*
Y346684D02*
Y352272D01*
Y309092D02*
Y324332D01*
X1346996Y365480D02*
Y378688D01*
Y346176D02*
Y353288D01*
Y309600D02*
Y324840D01*
X1346488Y365480D02*
Y378688D01*
Y345160D02*
Y353796D01*
Y309600D02*
Y325348D01*
X1345980Y364972D02*
Y378688D01*
Y344652D02*
Y354304D01*
Y310108D02*
Y326364D01*
X1345472Y364972D02*
Y378180D01*
Y343636D02*
Y354812D01*
Y310108D02*
Y326872D01*
X1344964Y364464D02*
Y378180D01*
Y342620D02*
Y355320D01*
Y310616D02*
Y327888D01*
X1344456Y364464D02*
Y378180D01*
Y341604D02*
Y355320D01*
Y310616D02*
Y328904D01*
X1343948Y363956D02*
Y377672D01*
Y340588D02*
Y355320D01*
Y311124D02*
Y330428D01*
X1343440Y363956D02*
Y377672D01*
Y338556D02*
Y355828D01*
Y311632D02*
Y332460D01*
X1342932Y363448D02*
Y377164D01*
Y311632D02*
Y355828D01*
X1342424Y363448D02*
Y377164D01*
Y312140D02*
Y355828D01*
X1341916Y362940D02*
Y377164D01*
Y312648D02*
Y355828D01*
X1341408Y362432D02*
Y376656D01*
Y313156D02*
Y355828D01*
X1340900Y362432D02*
Y376656D01*
Y313156D02*
Y355828D01*
X1340392Y361924D02*
Y376148D01*
Y313664D02*
Y355828D01*
X1339884Y361416D02*
Y376148D01*
Y314172D02*
Y355320D01*
X1339376Y360908D02*
Y375640D01*
Y314680D02*
Y355320D01*
X1338868Y360908D02*
Y375640D01*
Y315188D02*
Y354812D01*
X1338360Y360400D02*
Y375132D01*
Y315696D02*
Y354812D01*
X1337852Y359892D02*
Y375132D01*
Y316204D02*
Y354304D01*
X1337344Y359384D02*
Y374624D01*
Y317220D02*
Y353796D01*
X1336836Y358876D02*
Y374624D01*
Y317728D02*
Y353288D01*
X1336328Y358368D02*
Y374116D01*
Y318236D02*
Y352272D01*
X1335820Y357860D02*
Y373608D01*
Y318744D02*
Y351764D01*
X1335312Y357352D02*
Y373608D01*
Y319760D02*
Y351256D01*
Y309600D02*
Y312140D01*
X1334804Y356844D02*
Y373100D01*
Y320776D02*
Y350240D01*
Y308076D02*
Y313664D01*
X1334296Y356336D02*
Y372592D01*
Y321284D02*
Y349224D01*
Y307060D02*
Y314172D01*
X1333788Y355320D02*
Y372592D01*
Y322300D02*
Y348208D01*
Y306552D02*
Y315188D01*
X1333280Y354812D02*
Y372084D01*
Y323316D02*
Y347192D01*
Y306044D02*
Y315696D01*
X1332772Y354304D02*
Y371576D01*
Y324840D02*
Y346176D01*
Y305536D02*
Y316204D01*
X1332264Y353288D02*
Y371576D01*
Y325856D02*
Y344652D01*
Y305536D02*
Y317220D01*
X1331756Y352780D02*
Y371068D01*
Y327888D02*
Y343128D01*
Y305028D02*
Y317728D01*
X1331248Y351764D02*
Y370560D01*
Y329920D02*
Y340588D01*
Y312140D02*
Y318744D01*
Y305028D02*
Y309600D01*
X1330740Y350748D02*
Y370052D01*
Y312648D02*
Y319760D01*
Y304520D02*
Y309092D01*
X1330232Y349732D02*
Y369544D01*
Y313156D02*
Y320776D01*
Y304520D02*
Y308584D01*
X1329724Y348716D02*
Y369036D01*
Y313156D02*
Y321792D01*
Y304520D02*
Y308584D01*
X1329216Y347700D02*
Y369036D01*
Y313156D02*
Y322808D01*
Y304520D02*
Y308584D01*
X1328708Y346684D02*
Y368528D01*
Y313156D02*
Y324332D01*
Y304520D02*
Y308584D01*
X1328200Y345160D02*
Y368020D01*
Y312648D02*
Y325856D01*
Y304520D02*
Y308584D01*
X1327692Y343128D02*
Y367512D01*
Y312648D02*
Y327380D01*
Y304520D02*
Y309092D01*
X1327184Y340588D02*
Y367004D01*
Y311632D02*
Y329920D01*
Y305028D02*
Y309600D01*
X1326676Y305028D02*
Y366496D01*
X1326168Y305536D02*
Y365988D01*
X1325660Y305536D02*
Y365480D01*
X1325152Y306044D02*
Y364464D01*
X1324644Y306552D02*
Y363956D01*
X1324136Y307060D02*
Y363448D01*
X1323628Y308076D02*
Y362940D01*
X1323120Y308584D02*
Y361924D01*
X1322612Y309092D02*
Y361416D01*
X1322104Y310108D02*
Y360908D01*
X1321596Y310616D02*
Y359892D01*
X1321088Y311632D02*
Y358876D01*
X1320580Y312140D02*
Y358368D01*
X1320072Y313156D02*
Y357352D01*
X1319564Y314172D02*
Y356336D01*
X1319056Y315188D02*
Y355320D01*
X1318548Y316204D02*
Y354304D01*
X1318040Y317220D02*
Y353288D01*
X1317532Y318744D02*
Y351764D01*
X1317024Y319760D02*
Y350748D01*
X1316516Y321284D02*
Y349224D01*
X1316008Y323316D02*
Y347700D01*
X1315500Y325348D02*
Y345668D01*
X1314992Y327888D02*
Y342620D01*
X1314484Y331952D02*
Y338556D01*
X331444Y889484D02*
X338048D01*
X327380Y889992D02*
X342112D01*
X324332Y890500D02*
X344652D01*
X322300Y891008D02*
X346684D01*
X320776Y891516D02*
X348716D01*
X319252Y892024D02*
X350240D01*
X318236Y892532D02*
X351256D01*
X316712Y893040D02*
X352780D01*
X315696Y893548D02*
X353796D01*
X314680Y894056D02*
X354812D01*
X313664Y894564D02*
X355828D01*
X312648Y895072D02*
X356844D01*
X311632Y895580D02*
X357860D01*
X311124Y896088D02*
X358368D01*
X310108Y896596D02*
X359384D01*
X309092Y897104D02*
X359892D01*
X308584Y897612D02*
X360908D01*
X308076Y898120D02*
X361416D01*
X307060Y898628D02*
X361924D01*
X306552Y899136D02*
X362940D01*
X306044Y899644D02*
X363448D01*
X305536Y900152D02*
X363956D01*
X304520Y900660D02*
X364464D01*
X304012Y901168D02*
X364464D01*
X303504Y901676D02*
X364972D01*
X360400Y902184D02*
X364972D01*
X340080D02*
X358368D01*
X302996D02*
X329412D01*
X360908Y902692D02*
X365480D01*
X342620D02*
X357352D01*
X302488D02*
X326872D01*
X361416Y903200D02*
X365480D01*
X344144D02*
X357352D01*
X301980D02*
X324840D01*
X361416Y903708D02*
X365480D01*
X345668D02*
X356844D01*
X301472D02*
X323316D01*
X361416Y904216D02*
X365480D01*
X347192D02*
X356844D01*
X300964D02*
X322300D01*
X361416Y904724D02*
X365480D01*
X348208D02*
X356844D01*
X300964D02*
X321284D01*
X361416Y905232D02*
X365480D01*
X349224D02*
X356844D01*
X300456D02*
X320268D01*
X360908Y905740D02*
X365480D01*
X350240D02*
X357352D01*
X299948D02*
X319252D01*
X360400Y906248D02*
X364972D01*
X351256D02*
X357860D01*
X329412D02*
X340080D01*
X299440D02*
X318236D01*
X352272Y906756D02*
X364972D01*
X326872D02*
X342112D01*
X298932D02*
X317220D01*
X352780Y907264D02*
X364464D01*
X325348D02*
X344144D01*
X298424D02*
X316712D01*
X353796Y907772D02*
X364464D01*
X323824D02*
X345160D01*
X298424D02*
X315696D01*
X354304Y908280D02*
X363956D01*
X322808D02*
X346684D01*
X297916D02*
X315188D01*
X354812Y908788D02*
X363448D01*
X321792D02*
X347700D01*
X297408D02*
X314680D01*
X355828Y909296D02*
X362940D01*
X320776D02*
X348716D01*
X297408D02*
X313664D01*
X356336Y909804D02*
X361924D01*
X319760D02*
X349224D01*
X296900D02*
X313156D01*
X357860Y910312D02*
X360400D01*
X318744D02*
X350240D01*
X296392D02*
X312648D01*
X318236Y910820D02*
X351256D01*
X296392D02*
X312140D01*
X317728Y911328D02*
X351764D01*
X295884D02*
X311632D01*
X316712Y911836D02*
X352272D01*
X295376D02*
X311124D01*
X316204Y912344D02*
X352780D01*
X295376D02*
X310616D01*
X315696Y912852D02*
X353796D01*
X294868D02*
X310108D01*
X315188Y913360D02*
X354304D01*
X294868D02*
X309600D01*
X315188Y913868D02*
X354812D01*
X294360D02*
X309092D01*
X314680Y914376D02*
X355320D01*
X294360D02*
X309092D01*
X314680Y914884D02*
X355828D01*
X293852D02*
X308584D01*
X314172Y915392D02*
X356336D01*
X293852D02*
X308076D01*
X314172Y915900D02*
X356844D01*
X293344D02*
X307568D01*
X314172Y916408D02*
X356844D01*
X293344D02*
X307568D01*
X314172Y916916D02*
X357352D01*
X292836D02*
X307060D01*
X314172Y917424D02*
X357860D01*
X292836D02*
X306552D01*
X314172Y917932D02*
X358368D01*
X292836D02*
X306552D01*
X337540Y918440D02*
X358368D01*
X314172D02*
X331444D01*
X292328D02*
X306044D01*
X339572Y918948D02*
X358876D01*
X314680D02*
X329412D01*
X292328D02*
X306044D01*
X341096Y919456D02*
X359384D01*
X314680D02*
X328396D01*
X291820D02*
X305536D01*
X342112Y919964D02*
X359384D01*
X314680D02*
X327380D01*
X291820D02*
X305536D01*
X343128Y920472D02*
X359892D01*
X315188D02*
X326364D01*
X291820D02*
X305028D01*
X343636Y920980D02*
X359892D01*
X315696D02*
X325348D01*
X291312D02*
X305028D01*
X344652Y921488D02*
X360400D01*
X316204D02*
X324840D01*
X291312D02*
X304520D01*
X345160Y921996D02*
X360400D01*
X316712D02*
X323824D01*
X291312D02*
X304520D01*
X345668Y922504D02*
X360908D01*
X317728D02*
X323316D01*
X291312D02*
X304012D01*
X346176Y923012D02*
X360908D01*
X318744D02*
X321792D01*
X290804D02*
X304012D01*
X346684Y923520D02*
X361416D01*
X290804D02*
X304012D01*
X347192Y924028D02*
X361416D01*
X290804D02*
X303504D01*
X347700Y924536D02*
X361924D01*
X290804D02*
X303504D01*
X348208Y925044D02*
X361924D01*
X290296D02*
X303504D01*
X348208Y925552D02*
X361924D01*
X290296D02*
X302996D01*
X348716Y926060D02*
X362432D01*
X290296D02*
X302996D01*
X348716Y926568D02*
X362432D01*
X290296D02*
X302996D01*
X349224Y927076D02*
X362432D01*
X290296D02*
X302488D01*
X349732Y927584D02*
X362432D01*
X289788D02*
X302488D01*
X349732Y928092D02*
X362940D01*
X289788D02*
X302488D01*
X349732Y928600D02*
X362940D01*
X289788D02*
X336016D01*
X350240Y929108D02*
X362940D01*
X289788D02*
X337540D01*
X350240Y929616D02*
X362940D01*
X289788D02*
X338556D01*
X350240Y930124D02*
X362940D01*
X289788D02*
X339064D01*
X350748Y930632D02*
X363448D01*
X289788D02*
X339572D01*
X350748Y931140D02*
X363448D01*
X289788D02*
X340080D01*
X350748Y931648D02*
X363448D01*
X336016D02*
X340080D01*
X289788D02*
X332968D01*
X350748Y932156D02*
X363448D01*
X337032D02*
X340588D01*
X289280D02*
X332460D01*
X350748Y932664D02*
X363448D01*
X337540D02*
X340588D01*
X289280D02*
X331952D01*
X351256Y933172D02*
X363448D01*
X337540D02*
X341096D01*
X289280D02*
X331952D01*
X351256Y933680D02*
X363448D01*
X338048D02*
X341096D01*
X289280D02*
X331444D01*
X351256Y934188D02*
X363448D01*
X338048D02*
X341096D01*
X289280D02*
X331444D01*
X351256Y934696D02*
X363448D01*
X338048D02*
X341096D01*
X289280D02*
X331444D01*
X351256Y935204D02*
X363448D01*
X338048D02*
X341096D01*
X289280D02*
X331444D01*
X351256Y935712D02*
X363448D01*
X338048D02*
X341096D01*
X289280D02*
X331444D01*
X350748Y936220D02*
X363448D01*
X337540D02*
X340588D01*
X289280D02*
X331952D01*
X350748Y936728D02*
X363448D01*
X337032D02*
X340588D01*
X289280D02*
X331952D01*
X350748Y937236D02*
X363448D01*
X336524D02*
X340588D01*
X289788D02*
X332968D01*
X350748Y937744D02*
X363448D01*
X335508D02*
X340080D01*
X289788D02*
X333476D01*
X350748Y938252D02*
X363448D01*
X289788D02*
X340080D01*
X350748Y938760D02*
X362940D01*
X289788D02*
X339572D01*
X350240Y939268D02*
X362940D01*
X289788D02*
X339064D01*
X350240Y939776D02*
X362940D01*
X289788D02*
X338556D01*
X350240Y940284D02*
X362940D01*
X289788D02*
X337540D01*
X349732Y940792D02*
X362940D01*
X289788D02*
X335508D01*
X349732Y941300D02*
X362940D01*
X289788D02*
X302488D01*
X349224Y941808D02*
X362432D01*
X289788D02*
X302488D01*
X349224Y942316D02*
X362432D01*
X290296D02*
X302996D01*
X348716Y942824D02*
X362432D01*
X290296D02*
X302996D01*
X348716Y943332D02*
X361924D01*
X290296D02*
X302996D01*
X348208Y943840D02*
X361924D01*
X290296D02*
X302996D01*
X347700Y944348D02*
X361924D01*
X290296D02*
X303504D01*
X347192Y944856D02*
X361416D01*
X290804D02*
X303504D01*
X347192Y945364D02*
X361416D01*
X290804D02*
X303504D01*
X346684Y945872D02*
X361416D01*
X290804D02*
X304012D01*
X346176Y946380D02*
X360908D01*
X318236D02*
X322300D01*
X290804D02*
X304012D01*
X345668Y946888D02*
X360908D01*
X317220D02*
X323824D01*
X291312D02*
X304520D01*
X344652Y947396D02*
X360400D01*
X316204D02*
X324332D01*
X291312D02*
X304520D01*
X344144Y947904D02*
X360400D01*
X315696D02*
X324840D01*
X291312D02*
X304520D01*
X343636Y948412D02*
X359892D01*
X315696D02*
X325856D01*
X291820D02*
X305028D01*
X342620Y948920D02*
X359892D01*
X315188D02*
X326364D01*
X291820D02*
X305028D01*
X341604Y949428D02*
X359384D01*
X314680D02*
X327380D01*
X291820D02*
X305536D01*
X340588Y949936D02*
X358876D01*
X314680D02*
X328904D01*
X292328D02*
X305536D01*
X339064Y950444D02*
X358876D01*
X314680D02*
X330428D01*
X292328D02*
X306044D01*
X336524Y950952D02*
X358368D01*
X314172D02*
X332968D01*
X292328D02*
X306044D01*
X314172Y951460D02*
X357860D01*
X292836D02*
X306552D01*
X314172Y951968D02*
X357860D01*
X292836D02*
X307060D01*
X314172Y952476D02*
X357352D01*
X293344D02*
X307060D01*
X314172Y952984D02*
X356844D01*
X293344D02*
X307568D01*
X314172Y953492D02*
X356336D01*
X293344D02*
X308076D01*
X314680Y954000D02*
X355828D01*
X293852D02*
X308076D01*
X314680Y954508D02*
X355320D01*
X293852D02*
X308584D01*
X314680Y955016D02*
X354812D01*
X294360D02*
X309092D01*
X315188Y955524D02*
X354304D01*
X294360D02*
X309600D01*
X315696Y956032D02*
X353796D01*
X294868D02*
X310108D01*
X315696Y956540D02*
X353288D01*
X295376D02*
X310108D01*
X316712Y957048D02*
X352780D01*
X295376D02*
X310616D01*
X317220Y957556D02*
X352272D01*
X295884D02*
X311124D01*
X317728Y958064D02*
X351256D01*
X295884D02*
X311632D01*
X318744Y958572D02*
X350748D01*
X296392D02*
X312140D01*
X357352Y959080D02*
X361416D01*
X319252D02*
X349732D01*
X296900D02*
X312648D01*
X355828Y959588D02*
X362432D01*
X320268D02*
X349224D01*
X296900D02*
X313664D01*
X355320Y960096D02*
X362940D01*
X321284D02*
X348208D01*
X297408D02*
X314172D01*
X354812Y960604D02*
X363956D01*
X322300D02*
X347192D01*
X297916D02*
X314680D01*
X353796Y961112D02*
X363956D01*
X323316D02*
X346176D01*
X297916D02*
X315188D01*
X353288Y961620D02*
X364464D01*
X324332D02*
X344652D01*
X298424D02*
X316204D01*
X352272Y962128D02*
X364972D01*
X325856D02*
X343128D01*
X298932D02*
X316712D01*
X360400Y962636D02*
X364972D01*
X351764D02*
X358368D01*
X327888D02*
X341604D01*
X299440D02*
X317728D01*
X360908Y963144D02*
X364972D01*
X350748D02*
X357352D01*
X330428D02*
X338556D01*
X299440D02*
X318744D01*
X361416Y963652D02*
X365480D01*
X349732D02*
X357352D01*
X299948D02*
X319252D01*
X361416Y964160D02*
X365480D01*
X348716D02*
X356844D01*
X300456D02*
X320268D01*
X361416Y964668D02*
X365480D01*
X347700D02*
X356844D01*
X300964D02*
X321792D01*
X361416Y965176D02*
X365480D01*
X346684D02*
X356844D01*
X301472D02*
X322808D01*
X361416Y965684D02*
X365480D01*
X345160D02*
X356844D01*
X301980D02*
X324332D01*
X360908Y966192D02*
X365480D01*
X343636D02*
X357352D01*
X302488D02*
X325856D01*
X360400Y966700D02*
X364972D01*
X341604D02*
X357860D01*
X302996D02*
X327888D01*
X338556Y967208D02*
X364972D01*
X303504D02*
X330936D01*
X304012Y967716D02*
X364972D01*
X304520Y968224D02*
X364464D01*
X305028Y968732D02*
X363956D01*
X305536Y969240D02*
X363956D01*
X306044Y969748D02*
X363448D01*
X307060Y970256D02*
X362432D01*
X307568Y970764D02*
X361924D01*
X308076Y971272D02*
X361416D01*
X309092Y971780D02*
X360400D01*
X309600Y972288D02*
X359892D01*
X310616Y972796D02*
X358876D01*
X311124Y973304D02*
X358368D01*
X312140Y973812D02*
X357352D01*
X313156Y974320D02*
X356336D01*
X314172Y974828D02*
X355320D01*
X315188Y975336D02*
X354304D01*
X316204Y975844D02*
X353288D01*
X317220Y976352D02*
X352272D01*
X318744Y976860D02*
X350748D01*
X319760Y977368D02*
X349224D01*
X321284Y977876D02*
X347700D01*
X323316Y978384D02*
X346176D01*
X325348Y978892D02*
X343636D01*
X328396Y979400D02*
X340588D01*
X888396D02*
X900588D01*
X885348Y978892D02*
X903636D01*
X883316Y978384D02*
X906176D01*
X881284Y977876D02*
X907700D01*
X879760Y977368D02*
X909224D01*
X878744Y976860D02*
X910748D01*
X877220Y976352D02*
X912272D01*
X876204Y975844D02*
X913288D01*
X875188Y975336D02*
X914304D01*
X874172Y974828D02*
X915320D01*
X873156Y974320D02*
X916336D01*
X872140Y973812D02*
X917352D01*
X871124Y973304D02*
X918368D01*
X870616Y972796D02*
X918876D01*
X869600Y972288D02*
X919892D01*
X869092Y971780D02*
X920400D01*
X868076Y971272D02*
X921416D01*
X867568Y970764D02*
X921924D01*
X867060Y970256D02*
X922432D01*
X866044Y969748D02*
X923448D01*
X865536Y969240D02*
X923956D01*
X865028Y968732D02*
X923956D01*
X864520Y968224D02*
X924464D01*
X864012Y967716D02*
X924972D01*
X863504Y967208D02*
X890936D01*
X898556D02*
X924972D01*
X862996Y966700D02*
X887888D01*
X901604D02*
X917860D01*
X920400D02*
X924972D01*
X862488Y966192D02*
X885856D01*
X903636D02*
X917352D01*
X920908D02*
X925480D01*
X861980Y965684D02*
X884332D01*
X905160D02*
X916844D01*
X921416D02*
X925480D01*
X861472Y965176D02*
X882808D01*
X906684D02*
X916844D01*
X921416D02*
X925480D01*
X860964Y964668D02*
X881792D01*
X907700D02*
X916844D01*
X921416D02*
X925480D01*
X860456Y964160D02*
X880268D01*
X908716D02*
X916844D01*
X921416D02*
X925480D01*
X859948Y963652D02*
X879252D01*
X909732D02*
X917352D01*
X921416D02*
X925480D01*
X859440Y963144D02*
X878744D01*
X890428D02*
X898556D01*
X910748D02*
X917352D01*
X920908D02*
X924972D01*
X859440Y962636D02*
X877728D01*
X887888D02*
X901604D01*
X911764D02*
X918368D01*
X920400D02*
X924972D01*
X858932Y962128D02*
X876712D01*
X885856D02*
X903128D01*
X912272D02*
X924972D01*
X858424Y961620D02*
X876204D01*
X884332D02*
X904652D01*
X913288D02*
X924464D01*
X857916Y961112D02*
X875188D01*
X883316D02*
X906176D01*
X913796D02*
X923956D01*
X857916Y960604D02*
X874680D01*
X882300D02*
X907192D01*
X914812D02*
X923956D01*
X857408Y960096D02*
X874172D01*
X881284D02*
X908208D01*
X915320D02*
X922940D01*
X856900Y959588D02*
X873664D01*
X880268D02*
X909224D01*
X915828D02*
X922432D01*
X856900Y959080D02*
X872648D01*
X879252D02*
X909732D01*
X917352D02*
X921416D01*
X856392Y958572D02*
X872140D01*
X878744D02*
X910748D01*
X855884Y958064D02*
X871632D01*
X877728D02*
X911256D01*
X855884Y957556D02*
X871124D01*
X877220D02*
X912272D01*
X855376Y957048D02*
X870616D01*
X876712D02*
X912780D01*
X855376Y956540D02*
X870108D01*
X875696D02*
X913288D01*
X854868Y956032D02*
X870108D01*
X875696D02*
X913796D01*
X854360Y955524D02*
X869600D01*
X875188D02*
X914304D01*
X854360Y955016D02*
X869092D01*
X874680D02*
X914812D01*
X853852Y954508D02*
X868584D01*
X874680D02*
X915320D01*
X853852Y954000D02*
X868076D01*
X874680D02*
X915828D01*
X853344Y953492D02*
X868076D01*
X874172D02*
X916336D01*
X853344Y952984D02*
X867568D01*
X874172D02*
X916844D01*
X853344Y952476D02*
X867060D01*
X874172D02*
X917352D01*
X852836Y951968D02*
X867060D01*
X874172D02*
X917860D01*
X852836Y951460D02*
X866552D01*
X874172D02*
X917860D01*
X852328Y950952D02*
X866044D01*
X874172D02*
X892968D01*
X896524D02*
X918368D01*
X852328Y950444D02*
X866044D01*
X874680D02*
X890428D01*
X899064D02*
X918876D01*
X852328Y949936D02*
X865536D01*
X874680D02*
X888904D01*
X900588D02*
X918876D01*
X851820Y949428D02*
X865536D01*
X874680D02*
X887380D01*
X901604D02*
X919384D01*
X851820Y948920D02*
X865028D01*
X875188D02*
X886364D01*
X902620D02*
X919892D01*
X851820Y948412D02*
X865028D01*
X875696D02*
X885856D01*
X903636D02*
X919892D01*
X851312Y947904D02*
X864520D01*
X875696D02*
X884840D01*
X904144D02*
X920400D01*
X851312Y947396D02*
X864520D01*
X876204D02*
X884332D01*
X904652D02*
X920400D01*
X851312Y946888D02*
X864520D01*
X877220D02*
X883824D01*
X905668D02*
X920908D01*
X850804Y946380D02*
X864012D01*
X878236D02*
X882300D01*
X906176D02*
X920908D01*
X850804Y945872D02*
X864012D01*
X906684D02*
X921416D01*
X850804Y945364D02*
X863504D01*
X907192D02*
X921416D01*
X850804Y944856D02*
X863504D01*
X907192D02*
X921416D01*
X850296Y944348D02*
X863504D01*
X907700D02*
X921924D01*
X850296Y943840D02*
X862996D01*
X908208D02*
X921924D01*
X850296Y943332D02*
X862996D01*
X908716D02*
X921924D01*
X850296Y942824D02*
X862996D01*
X908716D02*
X922432D01*
X850296Y942316D02*
X862996D01*
X909224D02*
X922432D01*
X849788Y941808D02*
X862488D01*
X909224D02*
X922432D01*
X849788Y941300D02*
X862488D01*
X909732D02*
X922940D01*
X849788Y940792D02*
X895508D01*
X909732D02*
X922940D01*
X849788Y940284D02*
X897540D01*
X910240D02*
X922940D01*
X849788Y939776D02*
X898556D01*
X910240D02*
X922940D01*
X849788Y939268D02*
X899064D01*
X910240D02*
X922940D01*
X849788Y938760D02*
X899572D01*
X910748D02*
X922940D01*
X849788Y938252D02*
X900080D01*
X910748D02*
X923448D01*
X849788Y937744D02*
X893476D01*
X895508D02*
X900080D01*
X910748D02*
X923448D01*
X849788Y937236D02*
X892968D01*
X896524D02*
X900588D01*
X910748D02*
X923448D01*
X849280Y936728D02*
X891952D01*
X897032D02*
X900588D01*
X910748D02*
X923448D01*
X849280Y936220D02*
X891952D01*
X897540D02*
X900588D01*
X910748D02*
X923448D01*
X849280Y935712D02*
X891444D01*
X898048D02*
X901096D01*
X911256D02*
X923448D01*
X849280Y935204D02*
X891444D01*
X898048D02*
X901096D01*
X911256D02*
X923448D01*
X849280Y934696D02*
X891444D01*
X898048D02*
X901096D01*
X911256D02*
X923448D01*
X849280Y934188D02*
X891444D01*
X898048D02*
X901096D01*
X911256D02*
X923448D01*
X849280Y933680D02*
X891444D01*
X898048D02*
X901096D01*
X911256D02*
X923448D01*
X849280Y933172D02*
X891952D01*
X897540D02*
X901096D01*
X911256D02*
X923448D01*
X849280Y932664D02*
X891952D01*
X897540D02*
X900588D01*
X910748D02*
X923448D01*
X849280Y932156D02*
X892460D01*
X897032D02*
X900588D01*
X910748D02*
X923448D01*
X849788Y931648D02*
X892968D01*
X896016D02*
X900080D01*
X910748D02*
X923448D01*
X849788Y931140D02*
X900080D01*
X910748D02*
X923448D01*
X849788Y930632D02*
X899572D01*
X910748D02*
X923448D01*
X849788Y930124D02*
X899064D01*
X910240D02*
X922940D01*
X849788Y929616D02*
X898556D01*
X910240D02*
X922940D01*
X849788Y929108D02*
X897540D01*
X910240D02*
X922940D01*
X849788Y928600D02*
X896016D01*
X909732D02*
X922940D01*
X849788Y928092D02*
X862488D01*
X909732D02*
X922940D01*
X849788Y927584D02*
X862488D01*
X909732D02*
X922432D01*
X850296Y927076D02*
X862488D01*
X909224D02*
X922432D01*
X850296Y926568D02*
X862996D01*
X908716D02*
X922432D01*
X850296Y926060D02*
X862996D01*
X908716D02*
X922432D01*
X850296Y925552D02*
X862996D01*
X908208D02*
X921924D01*
X850296Y925044D02*
X863504D01*
X908208D02*
X921924D01*
X850804Y924536D02*
X863504D01*
X907700D02*
X921924D01*
X850804Y924028D02*
X863504D01*
X907192D02*
X921416D01*
X850804Y923520D02*
X864012D01*
X906684D02*
X921416D01*
X850804Y923012D02*
X864012D01*
X878744D02*
X881792D01*
X906176D02*
X920908D01*
X851312Y922504D02*
X864012D01*
X877728D02*
X883316D01*
X905668D02*
X920908D01*
X851312Y921996D02*
X864520D01*
X876712D02*
X883824D01*
X905160D02*
X920400D01*
X851312Y921488D02*
X864520D01*
X876204D02*
X884840D01*
X904652D02*
X920400D01*
X851312Y920980D02*
X865028D01*
X875696D02*
X885348D01*
X903636D02*
X919892D01*
X851820Y920472D02*
X865028D01*
X875188D02*
X886364D01*
X903128D02*
X919892D01*
X851820Y919964D02*
X865536D01*
X874680D02*
X887380D01*
X902112D02*
X919384D01*
X851820Y919456D02*
X865536D01*
X874680D02*
X888396D01*
X901096D02*
X919384D01*
X852328Y918948D02*
X866044D01*
X874680D02*
X889412D01*
X899572D02*
X918876D01*
X852328Y918440D02*
X866044D01*
X874172D02*
X891444D01*
X897540D02*
X918368D01*
X852836Y917932D02*
X866552D01*
X874172D02*
X918368D01*
X852836Y917424D02*
X866552D01*
X874172D02*
X917860D01*
X852836Y916916D02*
X867060D01*
X874172D02*
X917352D01*
X853344Y916408D02*
X867568D01*
X874172D02*
X916844D01*
X853344Y915900D02*
X867568D01*
X874172D02*
X916844D01*
X853852Y915392D02*
X868076D01*
X874172D02*
X916336D01*
X853852Y914884D02*
X868584D01*
X874680D02*
X915828D01*
X854360Y914376D02*
X869092D01*
X874680D02*
X915320D01*
X854360Y913868D02*
X869092D01*
X875188D02*
X914812D01*
X854868Y913360D02*
X869600D01*
X875188D02*
X914304D01*
X854868Y912852D02*
X870108D01*
X875696D02*
X913796D01*
X855376Y912344D02*
X870616D01*
X876204D02*
X912780D01*
X855376Y911836D02*
X871124D01*
X876712D02*
X912272D01*
X855884Y911328D02*
X871632D01*
X877728D02*
X911764D01*
X856392Y910820D02*
X872140D01*
X878236D02*
X911256D01*
X856392Y910312D02*
X872648D01*
X878744D02*
X910240D01*
X917860D02*
X920400D01*
X856900Y909804D02*
X873156D01*
X879760D02*
X909224D01*
X916336D02*
X921924D01*
X857408Y909296D02*
X873664D01*
X880776D02*
X908716D01*
X915828D02*
X922940D01*
X857408Y908788D02*
X874680D01*
X881792D02*
X907700D01*
X914812D02*
X923448D01*
X857916Y908280D02*
X875188D01*
X882808D02*
X906684D01*
X914304D02*
X923956D01*
X858424Y907772D02*
X875696D01*
X883824D02*
X905160D01*
X913796D02*
X924464D01*
X858424Y907264D02*
X876712D01*
X885348D02*
X904144D01*
X912780D02*
X924464D01*
X858932Y906756D02*
X877220D01*
X886872D02*
X902112D01*
X912272D02*
X924972D01*
X859440Y906248D02*
X878236D01*
X889412D02*
X900080D01*
X911256D02*
X917860D01*
X920400D02*
X924972D01*
X859948Y905740D02*
X879252D01*
X910240D02*
X917352D01*
X920908D02*
X925480D01*
X860456Y905232D02*
X880268D01*
X909224D02*
X916844D01*
X921416D02*
X925480D01*
X860964Y904724D02*
X881284D01*
X908208D02*
X916844D01*
X921416D02*
X925480D01*
X860964Y904216D02*
X882300D01*
X907192D02*
X916844D01*
X921416D02*
X925480D01*
X861472Y903708D02*
X883316D01*
X905668D02*
X916844D01*
X921416D02*
X925480D01*
X861980Y903200D02*
X884840D01*
X904144D02*
X917352D01*
X921416D02*
X925480D01*
X862488Y902692D02*
X886872D01*
X902620D02*
X917352D01*
X920908D02*
X925480D01*
X862996Y902184D02*
X889412D01*
X900080D02*
X918368D01*
X920400D02*
X924972D01*
X863504Y901676D02*
X924972D01*
X864012Y901168D02*
X924464D01*
X864520Y900660D02*
X924464D01*
X865536Y900152D02*
X923956D01*
X866044Y899644D02*
X923448D01*
X866552Y899136D02*
X922940D01*
X867060Y898628D02*
X921924D01*
X868076Y898120D02*
X921416D01*
X868584Y897612D02*
X920908D01*
X869092Y897104D02*
X919892D01*
X870108Y896596D02*
X919384D01*
X871124Y896088D02*
X918368D01*
X871632Y895580D02*
X917860D01*
X872648Y895072D02*
X916844D01*
X873664Y894564D02*
X915828D01*
X874680Y894056D02*
X914812D01*
X875696Y893548D02*
X913796D01*
X876712Y893040D02*
X912780D01*
X878236Y892532D02*
X911256D01*
X879252Y892024D02*
X910240D01*
X880776Y891516D02*
X908716D01*
X882300Y891008D02*
X906684D01*
X884332Y890500D02*
X904652D01*
X887380Y889992D02*
X902112D01*
X891444Y889484D02*
X898048D01*
X1451444Y889484D02*
X1458048D01*
X1447380Y889992D02*
X1462112D01*
X1444332Y890500D02*
X1464652D01*
X1442300Y891008D02*
X1466684D01*
X1440776Y891516D02*
X1468716D01*
X1439252Y892024D02*
X1470240D01*
X1438236Y892532D02*
X1471256D01*
X1436712Y893040D02*
X1472780D01*
X1435696Y893548D02*
X1473796D01*
X1434680Y894056D02*
X1474812D01*
X1433664Y894564D02*
X1475828D01*
X1432648Y895072D02*
X1476844D01*
X1431632Y895580D02*
X1477860D01*
X1431124Y896088D02*
X1478368D01*
X1430108Y896596D02*
X1479384D01*
X1429092Y897104D02*
X1479892D01*
X1428584Y897612D02*
X1480908D01*
X1428076Y898120D02*
X1481416D01*
X1427060Y898628D02*
X1481924D01*
X1426552Y899136D02*
X1482940D01*
X1426044Y899644D02*
X1483448D01*
X1425536Y900152D02*
X1483956D01*
X1424520Y900660D02*
X1484464D01*
X1424012Y901168D02*
X1484464D01*
X1423504Y901676D02*
X1484972D01*
X1480400Y902184D02*
X1484972D01*
X1460080D02*
X1478368D01*
X1422996D02*
X1449412D01*
X1480908Y902692D02*
X1485480D01*
X1462620D02*
X1477352D01*
X1422488D02*
X1446872D01*
X1481416Y903200D02*
X1485480D01*
X1464144D02*
X1477352D01*
X1421980D02*
X1444840D01*
X1481416Y903708D02*
X1485480D01*
X1465668D02*
X1476844D01*
X1421472D02*
X1443316D01*
X1481416Y904216D02*
X1485480D01*
X1467192D02*
X1476844D01*
X1420964D02*
X1442300D01*
X1481416Y904724D02*
X1485480D01*
X1468208D02*
X1476844D01*
X1420964D02*
X1441284D01*
X1481416Y905232D02*
X1485480D01*
X1469224D02*
X1476844D01*
X1420456D02*
X1440268D01*
X1480908Y905740D02*
X1485480D01*
X1470240D02*
X1477352D01*
X1419948D02*
X1439252D01*
X1480400Y906248D02*
X1484972D01*
X1471256D02*
X1477860D01*
X1449412D02*
X1460080D01*
X1419440D02*
X1438236D01*
X1472272Y906756D02*
X1484972D01*
X1446872D02*
X1462112D01*
X1418932D02*
X1437220D01*
X1472780Y907264D02*
X1484464D01*
X1445348D02*
X1464144D01*
X1418424D02*
X1436712D01*
X1473796Y907772D02*
X1484464D01*
X1443824D02*
X1465160D01*
X1418424D02*
X1435696D01*
X1474304Y908280D02*
X1483956D01*
X1442808D02*
X1466684D01*
X1417916D02*
X1435188D01*
X1474812Y908788D02*
X1483448D01*
X1441792D02*
X1467700D01*
X1417408D02*
X1434680D01*
X1475828Y909296D02*
X1482940D01*
X1440776D02*
X1468716D01*
X1417408D02*
X1433664D01*
X1476336Y909804D02*
X1481924D01*
X1439760D02*
X1469224D01*
X1416900D02*
X1433156D01*
X1477860Y910312D02*
X1480400D01*
X1438744D02*
X1470240D01*
X1416392D02*
X1432648D01*
X1438236Y910820D02*
X1471256D01*
X1416392D02*
X1432140D01*
X1437728Y911328D02*
X1471764D01*
X1415884D02*
X1431632D01*
X1436712Y911836D02*
X1472272D01*
X1415376D02*
X1431124D01*
X1436204Y912344D02*
X1472780D01*
X1415376D02*
X1430616D01*
X1435696Y912852D02*
X1473796D01*
X1414868D02*
X1430108D01*
X1435188Y913360D02*
X1474304D01*
X1414868D02*
X1429600D01*
X1435188Y913868D02*
X1474812D01*
X1414360D02*
X1429092D01*
X1434680Y914376D02*
X1475320D01*
X1414360D02*
X1429092D01*
X1434680Y914884D02*
X1475828D01*
X1413852D02*
X1428584D01*
X1434172Y915392D02*
X1476336D01*
X1413852D02*
X1428076D01*
X1434172Y915900D02*
X1476844D01*
X1413344D02*
X1427568D01*
X1434172Y916408D02*
X1476844D01*
X1413344D02*
X1427568D01*
X1434172Y916916D02*
X1477352D01*
X1412836D02*
X1427060D01*
X1434172Y917424D02*
X1477860D01*
X1412836D02*
X1426552D01*
X1434172Y917932D02*
X1478368D01*
X1412836D02*
X1426552D01*
X1457540Y918440D02*
X1478368D01*
X1434172D02*
X1451444D01*
X1412328D02*
X1426044D01*
X1459572Y918948D02*
X1478876D01*
X1434680D02*
X1449412D01*
X1412328D02*
X1426044D01*
X1461096Y919456D02*
X1479384D01*
X1434680D02*
X1448396D01*
X1411820D02*
X1425536D01*
X1462112Y919964D02*
X1479384D01*
X1434680D02*
X1447380D01*
X1411820D02*
X1425536D01*
X1463128Y920472D02*
X1479892D01*
X1435188D02*
X1446364D01*
X1411820D02*
X1425028D01*
X1463636Y920980D02*
X1479892D01*
X1435696D02*
X1445348D01*
X1411312D02*
X1425028D01*
X1464652Y921488D02*
X1480400D01*
X1436204D02*
X1444840D01*
X1411312D02*
X1424520D01*
X1465160Y921996D02*
X1480400D01*
X1436712D02*
X1443824D01*
X1411312D02*
X1424520D01*
X1465668Y922504D02*
X1480908D01*
X1437728D02*
X1443316D01*
X1411312D02*
X1424012D01*
X1466176Y923012D02*
X1480908D01*
X1438744D02*
X1441792D01*
X1410804D02*
X1424012D01*
X1466684Y923520D02*
X1481416D01*
X1410804D02*
X1424012D01*
X1467192Y924028D02*
X1481416D01*
X1410804D02*
X1423504D01*
X1467700Y924536D02*
X1481924D01*
X1410804D02*
X1423504D01*
X1468208Y925044D02*
X1481924D01*
X1410296D02*
X1423504D01*
X1468208Y925552D02*
X1481924D01*
X1410296D02*
X1422996D01*
X1468716Y926060D02*
X1482432D01*
X1410296D02*
X1422996D01*
X1468716Y926568D02*
X1482432D01*
X1410296D02*
X1422996D01*
X1469224Y927076D02*
X1482432D01*
X1410296D02*
X1422488D01*
X1469732Y927584D02*
X1482432D01*
X1409788D02*
X1422488D01*
X1469732Y928092D02*
X1482940D01*
X1409788D02*
X1422488D01*
X1469732Y928600D02*
X1482940D01*
X1409788D02*
X1456016D01*
X1470240Y929108D02*
X1482940D01*
X1409788D02*
X1457540D01*
X1470240Y929616D02*
X1482940D01*
X1409788D02*
X1458556D01*
X1470240Y930124D02*
X1482940D01*
X1409788D02*
X1459064D01*
X1470748Y930632D02*
X1483448D01*
X1409788D02*
X1459572D01*
X1470748Y931140D02*
X1483448D01*
X1409788D02*
X1460080D01*
X1470748Y931648D02*
X1483448D01*
X1456016D02*
X1460080D01*
X1409788D02*
X1452968D01*
X1470748Y932156D02*
X1483448D01*
X1457032D02*
X1460588D01*
X1409280D02*
X1452460D01*
X1470748Y932664D02*
X1483448D01*
X1457540D02*
X1460588D01*
X1409280D02*
X1451952D01*
X1471256Y933172D02*
X1483448D01*
X1457540D02*
X1461096D01*
X1409280D02*
X1451952D01*
X1471256Y933680D02*
X1483448D01*
X1458048D02*
X1461096D01*
X1409280D02*
X1451444D01*
X1471256Y934188D02*
X1483448D01*
X1458048D02*
X1461096D01*
X1409280D02*
X1451444D01*
X1471256Y934696D02*
X1483448D01*
X1458048D02*
X1461096D01*
X1409280D02*
X1451444D01*
X1471256Y935204D02*
X1483448D01*
X1458048D02*
X1461096D01*
X1409280D02*
X1451444D01*
X1471256Y935712D02*
X1483448D01*
X1458048D02*
X1461096D01*
X1409280D02*
X1451444D01*
X1470748Y936220D02*
X1483448D01*
X1457540D02*
X1460588D01*
X1409280D02*
X1451952D01*
X1470748Y936728D02*
X1483448D01*
X1457032D02*
X1460588D01*
X1409280D02*
X1451952D01*
X1470748Y937236D02*
X1483448D01*
X1456524D02*
X1460588D01*
X1409788D02*
X1452968D01*
X1470748Y937744D02*
X1483448D01*
X1455508D02*
X1460080D01*
X1409788D02*
X1453476D01*
X1470748Y938252D02*
X1483448D01*
X1409788D02*
X1460080D01*
X1470748Y938760D02*
X1482940D01*
X1409788D02*
X1459572D01*
X1470240Y939268D02*
X1482940D01*
X1409788D02*
X1459064D01*
X1470240Y939776D02*
X1482940D01*
X1409788D02*
X1458556D01*
X1470240Y940284D02*
X1482940D01*
X1409788D02*
X1457540D01*
X1469732Y940792D02*
X1482940D01*
X1409788D02*
X1455508D01*
X1469732Y941300D02*
X1482940D01*
X1409788D02*
X1422488D01*
X1469224Y941808D02*
X1482432D01*
X1409788D02*
X1422488D01*
X1469224Y942316D02*
X1482432D01*
X1410296D02*
X1422996D01*
X1468716Y942824D02*
X1482432D01*
X1410296D02*
X1422996D01*
X1468716Y943332D02*
X1481924D01*
X1410296D02*
X1422996D01*
X1468208Y943840D02*
X1481924D01*
X1410296D02*
X1422996D01*
X1467700Y944348D02*
X1481924D01*
X1410296D02*
X1423504D01*
X1467192Y944856D02*
X1481416D01*
X1410804D02*
X1423504D01*
X1467192Y945364D02*
X1481416D01*
X1410804D02*
X1423504D01*
X1466684Y945872D02*
X1481416D01*
X1410804D02*
X1424012D01*
X1466176Y946380D02*
X1480908D01*
X1438236D02*
X1442300D01*
X1410804D02*
X1424012D01*
X1465668Y946888D02*
X1480908D01*
X1437220D02*
X1443824D01*
X1411312D02*
X1424520D01*
X1464652Y947396D02*
X1480400D01*
X1436204D02*
X1444332D01*
X1411312D02*
X1424520D01*
X1464144Y947904D02*
X1480400D01*
X1435696D02*
X1444840D01*
X1411312D02*
X1424520D01*
X1463636Y948412D02*
X1479892D01*
X1435696D02*
X1445856D01*
X1411820D02*
X1425028D01*
X1462620Y948920D02*
X1479892D01*
X1435188D02*
X1446364D01*
X1411820D02*
X1425028D01*
X1461604Y949428D02*
X1479384D01*
X1434680D02*
X1447380D01*
X1411820D02*
X1425536D01*
X1460588Y949936D02*
X1478876D01*
X1434680D02*
X1448904D01*
X1412328D02*
X1425536D01*
X1459064Y950444D02*
X1478876D01*
X1434680D02*
X1450428D01*
X1412328D02*
X1426044D01*
X1456524Y950952D02*
X1478368D01*
X1434172D02*
X1452968D01*
X1412328D02*
X1426044D01*
X1434172Y951460D02*
X1477860D01*
X1412836D02*
X1426552D01*
X1434172Y951968D02*
X1477860D01*
X1412836D02*
X1427060D01*
X1434172Y952476D02*
X1477352D01*
X1413344D02*
X1427060D01*
X1434172Y952984D02*
X1476844D01*
X1413344D02*
X1427568D01*
X1434172Y953492D02*
X1476336D01*
X1413344D02*
X1428076D01*
X1434680Y954000D02*
X1475828D01*
X1413852D02*
X1428076D01*
X1434680Y954508D02*
X1475320D01*
X1413852D02*
X1428584D01*
X1434680Y955016D02*
X1474812D01*
X1414360D02*
X1429092D01*
X1435188Y955524D02*
X1474304D01*
X1414360D02*
X1429600D01*
X1435696Y956032D02*
X1473796D01*
X1414868D02*
X1430108D01*
X1435696Y956540D02*
X1473288D01*
X1415376D02*
X1430108D01*
X1436712Y957048D02*
X1472780D01*
X1415376D02*
X1430616D01*
X1437220Y957556D02*
X1472272D01*
X1415884D02*
X1431124D01*
X1437728Y958064D02*
X1471256D01*
X1415884D02*
X1431632D01*
X1438744Y958572D02*
X1470748D01*
X1416392D02*
X1432140D01*
X1477352Y959080D02*
X1481416D01*
X1439252D02*
X1469732D01*
X1416900D02*
X1432648D01*
X1475828Y959588D02*
X1482432D01*
X1440268D02*
X1469224D01*
X1416900D02*
X1433664D01*
X1475320Y960096D02*
X1482940D01*
X1441284D02*
X1468208D01*
X1417408D02*
X1434172D01*
X1474812Y960604D02*
X1483956D01*
X1442300D02*
X1467192D01*
X1417916D02*
X1434680D01*
X1473796Y961112D02*
X1483956D01*
X1443316D02*
X1466176D01*
X1417916D02*
X1435188D01*
X1473288Y961620D02*
X1484464D01*
X1444332D02*
X1464652D01*
X1418424D02*
X1436204D01*
X1472272Y962128D02*
X1484972D01*
X1445856D02*
X1463128D01*
X1418932D02*
X1436712D01*
X1480400Y962636D02*
X1484972D01*
X1471764D02*
X1478368D01*
X1447888D02*
X1461604D01*
X1419440D02*
X1437728D01*
X1480908Y963144D02*
X1484972D01*
X1470748D02*
X1477352D01*
X1450428D02*
X1458556D01*
X1419440D02*
X1438744D01*
X1481416Y963652D02*
X1485480D01*
X1469732D02*
X1477352D01*
X1419948D02*
X1439252D01*
X1481416Y964160D02*
X1485480D01*
X1468716D02*
X1476844D01*
X1420456D02*
X1440268D01*
X1481416Y964668D02*
X1485480D01*
X1467700D02*
X1476844D01*
X1420964D02*
X1441792D01*
X1481416Y965176D02*
X1485480D01*
X1466684D02*
X1476844D01*
X1421472D02*
X1442808D01*
X1481416Y965684D02*
X1485480D01*
X1465160D02*
X1476844D01*
X1421980D02*
X1444332D01*
X1480908Y966192D02*
X1485480D01*
X1463636D02*
X1477352D01*
X1422488D02*
X1445856D01*
X1480400Y966700D02*
X1484972D01*
X1461604D02*
X1477860D01*
X1422996D02*
X1447888D01*
X1458556Y967208D02*
X1484972D01*
X1423504D02*
X1450936D01*
X1424012Y967716D02*
X1484972D01*
X1424520Y968224D02*
X1484464D01*
X1425028Y968732D02*
X1483956D01*
X1425536Y969240D02*
X1483956D01*
X1426044Y969748D02*
X1483448D01*
X1427060Y970256D02*
X1482432D01*
X1427568Y970764D02*
X1481924D01*
X1428076Y971272D02*
X1481416D01*
X1429092Y971780D02*
X1480400D01*
X1429600Y972288D02*
X1479892D01*
X1430616Y972796D02*
X1478876D01*
X1431124Y973304D02*
X1478368D01*
X1432140Y973812D02*
X1477352D01*
X1433156Y974320D02*
X1476336D01*
X1434172Y974828D02*
X1475320D01*
X1435188Y975336D02*
X1474304D01*
X1436204Y975844D02*
X1473288D01*
X1437220Y976352D02*
X1472272D01*
X1438744Y976860D02*
X1470748D01*
X1439760Y977368D02*
X1469224D01*
X1441284Y977876D02*
X1467700D01*
X1443316Y978384D02*
X1466176D01*
X1445348Y978892D02*
X1463636D01*
X1448396Y979400D02*
X1460588D01*
M02*
