G04 Layer_Color=16711935*
%FSLAX44Y44*%
%MOMM*%
G71*
G01*
G75*
%ADD38C,0.2540*%
%ADD41C,0.2000*%
D38*
X520000Y130000D02*
G03*
X550000Y160000I0J30000D01*
G01*
Y600000D02*
G03*
X520000Y630000I-30000J0D01*
G01*
X50000Y160000D02*
G03*
X80000Y130000I30000J0D01*
G01*
Y630000D02*
G03*
X50000Y600000I0J-30000D01*
G01*
X1040000Y130000D02*
G03*
X1070000Y160000I0J30000D01*
G01*
Y600000D02*
G03*
X1040000Y630000I-30000J0D01*
G01*
X570000Y160000D02*
G03*
X600000Y130000I30000J0D01*
G01*
Y630000D02*
G03*
X570000Y600000I0J-30000D01*
G01*
X1620000Y50000D02*
G03*
X1630000Y60000I0J10000D01*
G01*
X1090000D02*
G03*
X1100000Y50000I10000J0D01*
G01*
X1630000Y620000D02*
G03*
X1620000Y630000I-10000J0D01*
G01*
X1100000D02*
G03*
X1090000Y620000I0J-10000D01*
G01*
X1700000Y650000D02*
G03*
X1710000Y660000I0J10000D01*
G01*
X1170000D02*
G03*
X1180000Y650000I10000J0D01*
G01*
X1710000Y1220000D02*
G03*
X1700000Y1230000I-10000J0D01*
G01*
X1180000D02*
G03*
X1170000Y1220000I0J-10000D01*
G01*
X1140000Y650000D02*
G03*
X1150000Y660000I0J10000D01*
G01*
X610000D02*
G03*
X620000Y650000I10000J0D01*
G01*
X1150000Y1220000D02*
G03*
X1140000Y1230000I-10000J0D01*
G01*
X620000D02*
G03*
X610000Y1220000I0J-10000D01*
G01*
X580000Y650000D02*
G03*
X590000Y660000I0J10000D01*
G01*
X50000D02*
G03*
X60000Y650000I10000J0D01*
G01*
X590000Y1220000D02*
G03*
X580000Y1230000I-10000J0D01*
G01*
X60000D02*
G03*
X50000Y1220000I0J-10000D01*
G01*
X1070000Y30000D02*
Y110000D01*
X1650000Y630000D02*
X1730000D01*
X0Y80000D02*
X1030000D01*
X1040000D01*
Y0D02*
Y80000D01*
Y0D02*
X1680000D01*
Y600000D01*
X1760000D01*
Y1280000D01*
X0D02*
X1760000D01*
X0Y80000D02*
Y1280000D01*
X80000Y630000D02*
X295000D01*
X50000Y395000D02*
Y600000D01*
Y160000D02*
Y350000D01*
X80000Y130000D02*
X285000D01*
X330000D02*
X520000D01*
X550000Y160000D02*
Y350000D01*
Y395000D02*
Y600000D01*
X340000Y630000D02*
X520000D01*
X340000Y650000D02*
X580000D01*
X60000D02*
X295000D01*
X570000Y395000D02*
Y600000D01*
Y160000D02*
Y350000D01*
X1070000Y385000D02*
Y600000D01*
Y160000D02*
Y340000D01*
X1090000Y60000D02*
Y340000D01*
X1100000Y50000D02*
X1355000D01*
X1400000D02*
X1620000D01*
X1400000Y30000D02*
X1650000Y30000D01*
X1650000Y285000D01*
X1630000Y60000D02*
Y285000D01*
Y330000D02*
Y620000D01*
X1445000Y630000D02*
X1620000D01*
X1445000Y650000D02*
X1700000Y650000D01*
X1730000Y630000D02*
Y970000D01*
X1710000D02*
X1710000Y660000D01*
X1710000Y1015000D02*
Y1220000D01*
X1730000Y1015000D02*
Y1250000D01*
X1475000D02*
X1730000D01*
X1475000Y1230000D02*
X1700000D01*
X1180000D02*
X1430000D01*
X915000Y1250000D02*
X1430000D01*
X915000Y1230000D02*
X1140000D01*
X1150000Y1220000D02*
X1150000Y955000D01*
X1170000D02*
Y1220000D01*
Y660000D02*
Y910000D01*
X1150000Y660000D02*
Y910000D01*
X880000Y650000D02*
X1140000D01*
X880000Y630000D02*
X1040000D01*
X620000Y650000D02*
X835000D01*
X600000Y630000D02*
X835000D01*
X610000Y660000D02*
X610000Y895000D01*
X610000Y1220000D02*
X610000Y940000D01*
X620000Y1230000D02*
X870000D01*
X345000Y1250000D02*
X870000D01*
X345000Y1230000D02*
X580000D01*
X590000Y1220000D02*
X590000Y940000D01*
Y660000D02*
Y895000D01*
X60000Y1230000D02*
X300000D01*
X30000Y1250000D02*
X300000D01*
X30000Y940000D02*
Y1250000D01*
X50000Y1220000D02*
X50000Y940000D01*
X50000Y660000D02*
X50000Y895000D01*
X30000Y395000D02*
X30000Y895000D01*
X30000Y350000D02*
X30000Y110000D01*
X285000Y110000D01*
X330000D02*
X755000D01*
X600000Y130000D02*
X755000D01*
X800000D02*
X1040000D01*
X800000Y110000D02*
X1070000D01*
Y30000D02*
X1355000Y30000D01*
X1090000Y385000D02*
Y620000D01*
X1100000Y630000D02*
X1400000D01*
X1180000Y650000D02*
X1400000Y650000D01*
X1650000Y630000D02*
X1650000Y330000D01*
X80000Y630000D02*
G03*
X50000Y600000I0J-30000D01*
G01*
Y160000D02*
G03*
X80000Y130000I30000J0D01*
G01*
X550000Y600000D02*
G03*
X520000Y630000I-30000J0D01*
G01*
Y130000D02*
G03*
X550000Y160000I0J30000D01*
G01*
X80000Y130000D02*
X520000Y130000D01*
X550000Y600000D02*
X550000Y160000D01*
X50000D02*
X50000Y600000D01*
X80000Y630000D02*
X520000Y630000D01*
X1040000Y130000D02*
G03*
X1070000Y160000I0J30000D01*
G01*
Y600000D02*
G03*
X1040000Y630000I-30000J0D01*
G01*
X570000Y160000D02*
G03*
X600000Y130000I30000J0D01*
G01*
Y630000D02*
G03*
X570000Y600000I0J-30000D01*
G01*
X600000Y630000D02*
X1040000Y630000D01*
X570000Y160000D02*
X570000Y600000D01*
X1070000D02*
X1070000Y160000D01*
X600000Y130000D02*
X1040000Y130000D01*
X1620000Y50000D02*
G03*
X1630000Y60000I0J10000D01*
G01*
X1090000D02*
G03*
X1100000Y50000I10000J0D01*
G01*
X1630000Y620000D02*
G03*
X1620000Y630000I-10000J0D01*
G01*
X1100000D02*
G03*
X1090000Y620000I0J-10000D01*
G01*
X1100000Y50000D02*
X1620000D01*
X1630000Y60000D02*
Y620000D01*
X1090000Y60000D02*
Y620000D01*
X1100000Y630000D02*
X1620000D01*
X580000Y650000D02*
G03*
X590000Y660000I0J10000D01*
G01*
X50000D02*
G03*
X60000Y650000I10000J0D01*
G01*
X590000Y1220000D02*
G03*
X580000Y1230000I-10000J0D01*
G01*
X60000D02*
G03*
X50000Y1220000I0J-10000D01*
G01*
X60000Y650000D02*
X580000D01*
X590000Y660000D02*
Y1220000D01*
X50000Y660000D02*
Y1220000D01*
X60000Y1230000D02*
X580000D01*
X620000D02*
G03*
X610000Y1220000I0J-10000D01*
G01*
X1150000D02*
G03*
X1140000Y1230000I-10000J0D01*
G01*
X610000Y660000D02*
G03*
X620000Y650000I10000J0D01*
G01*
X1140000D02*
G03*
X1150000Y660000I0J10000D01*
G01*
X620000Y1230000D02*
X1140000D01*
X610000Y660000D02*
Y1220000D01*
X1150000Y660000D02*
Y1220000D01*
X620000Y650000D02*
X1140000D01*
X1700000Y650000D02*
G03*
X1710000Y660000I0J10000D01*
G01*
X1170000D02*
G03*
X1180000Y650000I10000J0D01*
G01*
X1710000Y1220000D02*
G03*
X1700000Y1230000I-10000J0D01*
G01*
X1180000D02*
G03*
X1170000Y1220000I0J-10000D01*
G01*
X1180000Y650000D02*
X1700000D01*
X1710000Y660000D02*
Y1220000D01*
X1170000Y660000D02*
Y1220000D01*
X1180000Y1230000D02*
X1700000D01*
D41*
X295000Y630000D02*
G03*
X295000Y650000I0J10000D01*
G01*
X340000D02*
G03*
X340000Y630000I0J-10000D01*
G01*
X285000Y110000D02*
G03*
X285000Y130000I0J10000D01*
G01*
X330000D02*
G03*
X330000Y110000I0J-10000D01*
G01*
X755000D02*
G03*
X755000Y130000I0J10000D01*
G01*
X800000D02*
G03*
X800000Y110000I0J-10000D01*
G01*
X1355000Y30000D02*
G03*
X1355000Y50000I0J10000D01*
G01*
X1400000D02*
G03*
X1400000Y30000I0J-10000D01*
G01*
X1650000Y285000D02*
G03*
X1630000Y285000I-10000J0D01*
G01*
Y330000D02*
G03*
X1650000Y330000I10000J0D01*
G01*
X1445000Y650000D02*
G03*
X1445000Y630000I0J-10000D01*
G01*
X1400000D02*
G03*
X1400000Y650000I0J10000D01*
G01*
X1070000Y385000D02*
G03*
X1090000Y385000I10000J0D01*
G01*
Y340000D02*
G03*
X1070000Y340000I-10000J0D01*
G01*
X835000Y630000D02*
G03*
X835000Y650000I0J10000D01*
G01*
X880000D02*
G03*
X880000Y630000I0J-10000D01*
G01*
X610000Y895000D02*
G03*
X590000Y895000I-10000J0D01*
G01*
Y940000D02*
G03*
X610000Y940000I10000J0D01*
G01*
X50000Y895000D02*
G03*
X30000Y895000I-10000J0D01*
G01*
Y940000D02*
G03*
X50000Y940000I10000J0D01*
G01*
X345000Y1250000D02*
G03*
X345000Y1230000I0J-10000D01*
G01*
X300000D02*
G03*
X300000Y1250000I0J10000D01*
G01*
X915000D02*
G03*
X915000Y1230000I0J-10000D01*
G01*
X870000D02*
G03*
X870000Y1250000I0J10000D01*
G01*
X1475000D02*
G03*
X1475000Y1230000I0J-10000D01*
G01*
X1430000D02*
G03*
X1430000Y1250000I0J10000D01*
G01*
X1710000Y1015000D02*
G03*
X1730000Y1015000I10000J0D01*
G01*
Y970000D02*
G03*
X1710000Y970000I-10000J0D01*
G01*
X550000Y395000D02*
G03*
X570000Y395000I10000J0D01*
G01*
Y350000D02*
G03*
X550000Y350000I-10000J0D01*
G01*
X30000Y395000D02*
G03*
X50000Y395000I10000J0D01*
G01*
Y350000D02*
G03*
X30000Y350000I-10000J0D01*
G01*
X1150000Y955000D02*
G03*
X1170000Y955000I10000J0D01*
G01*
Y910000D02*
G03*
X1150000Y910000I-10000J0D01*
G01*
M02*
