G04 Layer_Physical_Order=2*
G04 Layer_Color=16711680*
%FSLAX44Y44*%
%MOMM*%
G71*
G01*
G75*
%ADD13C,2.0000*%
%ADD14C,4.0000*%
%ADD15C,6.0000*%
G36*
X292381Y295749D02*
X294400Y294400D01*
X295749Y292381D01*
X296189Y290167D01*
X296156Y290000D01*
Y10000D01*
X296189Y9833D01*
X295749Y7619D01*
X294400Y5600D01*
X292381Y4251D01*
X290167Y3811D01*
X290000Y3844D01*
X10000D01*
X9833Y3811D01*
X7619Y4251D01*
X5600Y5600D01*
X4251Y7619D01*
X3811Y9833D01*
X3844Y10000D01*
Y290000D01*
X3811Y290167D01*
X4251Y292381D01*
X5600Y294400D01*
X7619Y295749D01*
X9833Y296189D01*
X10000Y296156D01*
X290000D01*
X290167Y296189D01*
X292381Y295749D01*
D02*
G37*
%LPC*%
G36*
X90000Y122609D02*
X85589Y122174D01*
X81348Y120888D01*
X77439Y118799D01*
X74013Y115987D01*
X71201Y112561D01*
X69112Y108652D01*
X67825Y104411D01*
X67391Y100000D01*
X67825Y95589D01*
X69112Y91348D01*
X71201Y87439D01*
X74013Y84013D01*
X77439Y81201D01*
X81348Y79112D01*
X85589Y77826D01*
X90000Y77391D01*
X94411Y77826D01*
X98652Y79112D01*
X102561Y81201D01*
X105987Y84013D01*
X108799Y87439D01*
X110888Y91348D01*
X112174Y95589D01*
X112609Y100000D01*
X112174Y104411D01*
X110888Y108652D01*
X108799Y112561D01*
X105987Y115987D01*
X102561Y118799D01*
X98652Y120888D01*
X94411Y122174D01*
X90000Y122609D01*
D02*
G37*
G36*
X210000D02*
X205589Y122174D01*
X201348Y120888D01*
X197439Y118799D01*
X194013Y115987D01*
X191201Y112561D01*
X189112Y108652D01*
X187826Y104411D01*
X187391Y100000D01*
X187826Y95589D01*
X189112Y91348D01*
X191201Y87439D01*
X194013Y84013D01*
X197439Y81201D01*
X201348Y79112D01*
X205589Y77826D01*
X210000Y77391D01*
X214411Y77826D01*
X218652Y79112D01*
X222561Y81201D01*
X225987Y84013D01*
X228799Y87439D01*
X230888Y91348D01*
X232174Y95589D01*
X232609Y100000D01*
X232174Y104411D01*
X230888Y108652D01*
X228799Y112561D01*
X225987Y115987D01*
X222561Y118799D01*
X218652Y120888D01*
X214411Y122174D01*
X210000Y122609D01*
D02*
G37*
G36*
X40000Y72600D02*
X34900Y72199D01*
X29926Y71005D01*
X25200Y69047D01*
X20838Y66374D01*
X16948Y63052D01*
X13626Y59162D01*
X10953Y54800D01*
X8995Y50074D01*
X7801Y45100D01*
X7400Y40000D01*
X7801Y34900D01*
X8995Y29926D01*
X10953Y25200D01*
X13626Y20838D01*
X16948Y16948D01*
X20838Y13626D01*
X25200Y10953D01*
X29926Y8995D01*
X34900Y7801D01*
X40000Y7400D01*
X45100Y7801D01*
X50074Y8995D01*
X54800Y10953D01*
X59162Y13626D01*
X63052Y16948D01*
X66374Y20838D01*
X69047Y25200D01*
X71005Y29926D01*
X72199Y34900D01*
X72600Y40000D01*
X72199Y45100D01*
X71005Y50074D01*
X69047Y54800D01*
X66374Y59162D01*
X63052Y63052D01*
X59162Y66374D01*
X54800Y69047D01*
X50074Y71005D01*
X45100Y72199D01*
X40000Y72600D01*
D02*
G37*
G36*
X260000D02*
X254900Y72199D01*
X249926Y71005D01*
X245200Y69047D01*
X240838Y66374D01*
X236948Y63052D01*
X233626Y59162D01*
X230953Y54800D01*
X228995Y50074D01*
X227801Y45100D01*
X227400Y40000D01*
X227801Y34900D01*
X228995Y29926D01*
X230953Y25200D01*
X233626Y20838D01*
X236948Y16948D01*
X240838Y13626D01*
X245200Y10953D01*
X249926Y8995D01*
X254900Y7801D01*
X260000Y7400D01*
X265100Y7801D01*
X270074Y8995D01*
X274800Y10953D01*
X279162Y13626D01*
X283052Y16948D01*
X286374Y20838D01*
X289047Y25200D01*
X291005Y29926D01*
X292199Y34900D01*
X292600Y40000D01*
X292199Y45100D01*
X291005Y50074D01*
X289047Y54800D01*
X286374Y59162D01*
X283052Y63052D01*
X279162Y66374D01*
X274800Y69047D01*
X270074Y71005D01*
X265100Y72199D01*
X260000Y72600D01*
D02*
G37*
G36*
X90000Y222609D02*
X85589Y222174D01*
X81348Y220888D01*
X77439Y218799D01*
X74013Y215987D01*
X71201Y212561D01*
X69112Y208652D01*
X67825Y204411D01*
X67391Y200000D01*
X67825Y195589D01*
X69112Y191348D01*
X71201Y187439D01*
X74013Y184013D01*
X77439Y181201D01*
X81348Y179112D01*
X85589Y177826D01*
X90000Y177391D01*
X94411Y177826D01*
X98652Y179112D01*
X102561Y181201D01*
X105987Y184013D01*
X108799Y187439D01*
X110888Y191348D01*
X112174Y195589D01*
X112609Y200000D01*
X112174Y204411D01*
X110888Y208652D01*
X108799Y212561D01*
X105987Y215987D01*
X102561Y218799D01*
X98652Y220888D01*
X94411Y222174D01*
X90000Y222609D01*
D02*
G37*
G36*
X40000Y292600D02*
X34900Y292199D01*
X29926Y291005D01*
X25200Y289047D01*
X20838Y286374D01*
X16948Y283052D01*
X13626Y279162D01*
X10953Y274800D01*
X8995Y270074D01*
X7801Y265100D01*
X7400Y260000D01*
X7801Y254900D01*
X8995Y249926D01*
X10953Y245200D01*
X13626Y240838D01*
X16948Y236948D01*
X20838Y233626D01*
X25200Y230953D01*
X29926Y228995D01*
X34900Y227801D01*
X40000Y227400D01*
X45100Y227801D01*
X50074Y228995D01*
X54800Y230953D01*
X59162Y233626D01*
X63052Y236948D01*
X66374Y240838D01*
X69047Y245200D01*
X71005Y249926D01*
X72199Y254900D01*
X72600Y260000D01*
X72199Y265100D01*
X71005Y270074D01*
X69047Y274800D01*
X66374Y279162D01*
X63052Y283052D01*
X59162Y286374D01*
X54800Y289047D01*
X50074Y291005D01*
X45100Y292199D01*
X40000Y292600D01*
D02*
G37*
G36*
X260000D02*
X254900Y292199D01*
X249926Y291005D01*
X245200Y289047D01*
X240838Y286374D01*
X236948Y283052D01*
X233626Y279162D01*
X230953Y274800D01*
X228995Y270074D01*
X227801Y265100D01*
X227400Y260000D01*
X227801Y254900D01*
X228995Y249926D01*
X230953Y245200D01*
X233626Y240838D01*
X236948Y236948D01*
X240838Y233626D01*
X245200Y230953D01*
X249926Y228995D01*
X254900Y227801D01*
X260000Y227400D01*
X265100Y227801D01*
X270074Y228995D01*
X274800Y230953D01*
X279162Y233626D01*
X283052Y236948D01*
X286374Y240838D01*
X289047Y245200D01*
X291005Y249926D01*
X292199Y254900D01*
X292600Y260000D01*
X292199Y265100D01*
X291005Y270074D01*
X289047Y274800D01*
X286374Y279162D01*
X283052Y283052D01*
X279162Y286374D01*
X274800Y289047D01*
X270074Y291005D01*
X265100Y292199D01*
X260000Y292600D01*
D02*
G37*
G36*
X210000Y222609D02*
X205589Y222174D01*
X201348Y220888D01*
X197439Y218799D01*
X194013Y215987D01*
X191201Y212561D01*
X189112Y208652D01*
X187826Y204411D01*
X187391Y200000D01*
X187826Y195589D01*
X189112Y191348D01*
X191201Y187439D01*
X194013Y184013D01*
X197439Y181201D01*
X201348Y179112D01*
X205589Y177826D01*
X210000Y177391D01*
X214411Y177826D01*
X218652Y179112D01*
X222561Y181201D01*
X225987Y184013D01*
X228799Y187439D01*
X230888Y191348D01*
X232174Y195589D01*
X232609Y200000D01*
X232174Y204411D01*
X230888Y208652D01*
X228799Y212561D01*
X225987Y215987D01*
X222561Y218799D01*
X218652Y220888D01*
X214411Y222174D01*
X210000Y222609D01*
D02*
G37*
G36*
X162700Y190408D02*
X159437Y189978D01*
X156396Y188719D01*
X153785Y186715D01*
X151781Y184104D01*
X150652Y181377D01*
X150650Y181377D01*
X149350D01*
X149348Y181377D01*
X148219Y184104D01*
X146215Y186715D01*
X143604Y188719D01*
X140563Y189978D01*
X137300Y190408D01*
X134037Y189978D01*
X130996Y188719D01*
X128385Y186715D01*
X126381Y184104D01*
X125122Y181063D01*
X124692Y177800D01*
X125122Y174537D01*
X126381Y171496D01*
X128385Y168885D01*
X128559Y168752D01*
X128150Y167549D01*
X117500D01*
X116525Y167355D01*
X115698Y166802D01*
X115145Y165975D01*
X114951Y165000D01*
Y145000D01*
X115145Y144025D01*
X115698Y143198D01*
X116525Y142645D01*
X117500Y142451D01*
X182500D01*
X183475Y142645D01*
X184302Y143198D01*
X184855Y144025D01*
X185049Y145000D01*
Y165000D01*
X184855Y165975D01*
X184302Y166802D01*
X183475Y167355D01*
X182500Y167549D01*
X171850D01*
X171441Y168752D01*
X171615Y168885D01*
X173619Y171496D01*
X174878Y174537D01*
X175308Y177800D01*
X174878Y181063D01*
X173619Y184104D01*
X171615Y186715D01*
X169004Y188719D01*
X165963Y189978D01*
X162700Y190408D01*
D02*
G37*
%LPD*%
D13*
X137300Y177800D02*
D03*
X162700D02*
D03*
D14*
X210000Y200000D02*
D03*
X90000D02*
D03*
Y100000D02*
D03*
X210000D02*
D03*
D15*
X40000Y260000D02*
D03*
X260000D02*
D03*
Y40000D02*
D03*
X40000D02*
D03*
M02*
