M48
;Layer_Color=9474304
;FILE_FORMAT=4:4
METRIC,LZ
;TYPE=PLATED
T1F00S00C0.3000
T2F00S00C0.5000
T3F00S00C0.7112
T4F00S00C0.7620
T5F00S00C0.9000
T6F00S00C1.0000
T7F00S00C1.1000
T9F00S00C3.0000
T10F00S00C4.8000
;TYPE=NON_PLATED
T11F00S00C0.9000
%
T01
X00849Y00219
X00895Y0022
X0076975Y0036225
X0045175Y0036025
X0044025Y004835
X0126Y0111249
X0075Y00968
X0065549Y01265
X0065824Y01534
T02
X003045Y0004775
X00311
X0031775
X0032425
X003305
X008945
X00901
X0090775
X0091425
X009205
X014045
X01411
X0141775
X0142425
X014305
X0167225Y002845
Y00291
Y0029775
Y0030425
Y003105
X011675Y00315
Y003215
Y0032825
Y0033475
Y00341
X0115225Y003405
Y0033425
Y0032775
Y00321
Y003145
X006075Y00315
Y003215
Y0032825
Y0033475
Y00341
X0059225Y003405
Y0033425
Y0032775
Y00321
Y003145
X000475Y00325
Y003315
Y0033825
Y0034475
Y00351
X00305Y006325
X003115
X0031825
X0032475
X00331
X003305Y0064775
X0032425
X0031775
X00311
X003045
X00551Y0090925
Y009155
X0060775Y009095
X008645Y0064775
X00871
X0087775
X0088425
X008905
X00891Y006325
X0088475
X0087825
X008715
X00865
X011525Y00819
Y0082525
Y0083175
Y008385
Y00845
X0116775Y008455
Y00839
Y0083225
Y0082575
Y008195
X014045Y0056775
X01411
X0141775
X0142425
X014305
X01431Y005525
X0142475
X0141825
X014115
X01405
X0167225Y007745
Y00781
Y0078775
Y0079425
Y008005
X014705Y0107225
X01464
X0145725
X0145075
X014445
X01444Y010875
X0145025
X0145675
X014635
X0147
X0138775Y011445
Y0115075
Y0115725
Y01164
Y011705
X013725Y0117
Y011635
Y0115675
Y0115025
Y01144
X015325Y01194
Y0120025
Y0120675
Y012135
Y0122
X0154775Y012205
Y01214
Y0120725
Y0120075
Y011945
X016225Y01244
Y0125025
Y0125675
Y012635
Y0127
X01285Y010875
X012785
X0127175
X0126525
X01259
X012595Y0107225
X0126575
X0127225
X01279
X012855
X0116775Y011345
Y0114075
Y0114725
Y01154
Y011605
X011525Y0116
Y011535
Y0114675
Y0114025
Y01134
X006855Y0123225
X00679
X0067225
X0066575
X006595
X00659Y012475
X0066525
X0067175
X006785
X00685
X0060775Y009355
Y00929
Y0092225
Y0091575
X00551Y00922
Y0092875
Y0093525
X003305Y0115225
X0032425
X0031775
X00311
X003045
Y0116775
X00311
X0031775
X0032425
X003305
X0004775Y009755
Y00969
Y0096225
Y0095575
Y009495
Y014695
Y0147575
Y0148225
Y01489
Y014955
X003045Y0167225
X00311
X0031775
X0032425
X003305
X006595Y0155225
X0066575
X0067225
X00679
X006855
X00995Y014625
X010015
X0100825
X0101475
X01021
X01444Y013675
X0145025
X0145675
X014635
X0147
X014705Y0135225
X01464
X0145725
X0145075
X014445
X015325Y01474
Y0148025
Y0148675
Y014935
Y015
X0154775Y015005
Y01494
Y0148725
Y0148075
Y014745
X016225Y01524
Y0153025
Y0153675
Y015435
Y0155
X014705Y0163225
X01464
X0145725
X0145075
X014445
T03
X00252Y009
X00366Y00884
X0031693Y00932
X00284Y00992
T04
X0002Y000175
X017Y017025
T05
X0025Y01126
X0033
T06
X0023Y00838
X004841Y008873
Y009127
X010841Y0079647
Y0077107
X015725Y012975
X015979
X010841Y0110892
Y0108352
Y0095272
Y0092732
X007374Y0092255
Y0094795
X00374Y0099
X015725Y013229
X015979
Y015875
X015725
Y016129
X015979
T07
X002819Y0012
X003073
X003327
X003581
X008419
X008673
X008927
X009181
X016Y002619
Y002873
Y003127
Y003381
X011095Y003353
Y003099
Y003607
Y003861
X0071125Y0037835
Y0035295
Y0032755
Y0030215
X007115Y0022125
Y0019585
Y0017045
Y0014505
X00548Y002012
Y002266
Y00252
Y002774
X0054725Y0040385
Y0042925
Y0045465
Y0048005
X007115Y0048425
Y0045885
Y0050965
X00152Y0047985
Y0045445
Y0042905
Y0040365
X001525Y0027715
Y0025175
Y0022635
Y0020095
X0012Y008619
Y008873
Y009127
X005095
Y008873
Y008619
X00712Y0089715
X008419Y0072
X008673
X008927
X009181
X007115Y0053505
X011095Y0074567
Y0077107
Y0079647
Y0082187
Y0090192
X013819Y0102
X014073
X014327
X014581
X014465Y0113225
X014211
X014719
X014973
X015723Y011402
X015977
Y011148
X015723
X0135Y0112459
Y0114999
Y0117539
X014214Y0131
X014468
X014722
X014976
X0119Y0117539
Y0114999
Y0112459
X011095Y0113432
Y0110892
Y0108352
Y0105812
Y0097812
Y0095272
Y0092732
X00712Y0092255
Y0094795
Y0097335
X005095Y009381
X0012
X002619Y01567
X002873
X003127
X003381
X004832Y014327
Y014073
X0063499Y014
Y013746
X0067499
Y014
Y014254
X0063499
X0096699Y014127
Y013873
Y013619
Y014381
X012319Y0144699
X012573
X012827
X013081
X014211Y0141225
X014465
X014719
X014973
X015723Y014048
Y014302
X015977
Y014048
X014976Y0159
X014722
X014468
X014214
T09
X01335Y00115
X01505
Y00485
X01335
X0094Y00165
X0082
X00405Y00255
Y00425
X00235
Y00255
X00215Y00815
X004
X0082Y00765
X0094
X0094Y00535
X0082
X0082Y01135
X0094
X004Y01
X00215
X0044Y0131
X0012
Y0153
X0044
T10
X0009Y0009
X0055
X0065
X0111
X01215Y00095
X01625
Y00505
X01215
X0009Y0059
X00095Y00695
X00505
X0055Y0059
X0065
X0065Y0069
X0111
X0111Y0059
X01215Y00615
X01625
Y01025
X01215
X0111Y0119
X0065
X00505Y01215
X00505Y01105
X00095
X00095Y01215
Y01625
X00505
T11
X016Y00404605
Y00434605
X0109Y004525
Y004825
X0048875Y004765
Y004465
X00315395Y0075
X00285395
X0067748Y0106585
Y0109585
X00314605Y0122
X00284605
M30
