G04 Layer_Physical_Order=2*
G04 Layer_Color=16711680*
%FSLAX44Y44*%
%MOMM*%
G71*
G01*
G75*
%ADD11C,0.6000*%
%ADD16R,0.5000X0.4000*%
%ADD17C,0.8000*%
%ADD18C,0.3000*%
%ADD20C,1.5240*%
%ADD21C,1.8000*%
%ADD22C,2.0000*%
%ADD23R,2.0000X2.0000*%
%ADD24C,0.7000*%
%ADD25P,1.9483X8X22.5*%
%ADD26P,1.9483X8X292.5*%
%ADD27C,6.0000*%
%ADD28C,4.0000*%
%ADD29R,1.0000X1.2500*%
G36*
X1601942Y1746106D02*
X1603179Y1746091D01*
X1603934Y1745985D01*
X1604427Y1745913D01*
X1604388Y1745921D01*
X1603934Y1745985D01*
X1603243Y1746085D01*
X1604388Y1745921D01*
X1604578Y1745883D01*
X1605603Y1745198D01*
X1606207Y1744295D01*
X1606141Y1741231D01*
X1606071Y1739990D01*
Y1739990D01*
X1606071Y1739990D01*
X1606545Y1736385D01*
X1607937Y1733026D01*
X1610150Y1730141D01*
X1613035Y1727927D01*
X1616395Y1726536D01*
X1618778Y1726222D01*
X1620000Y1726061D01*
X1621248Y1726008D01*
X1623149Y1725821D01*
X1626177Y1724902D01*
X1628967Y1723411D01*
X1631413Y1721404D01*
X1633420Y1718958D01*
X1634912Y1716167D01*
X1635830Y1713139D01*
X1636132Y1710076D01*
X1636115Y1709990D01*
Y1589990D01*
X1636132Y1589905D01*
X1635830Y1586841D01*
X1634912Y1583814D01*
X1633420Y1581023D01*
X1631413Y1578577D01*
X1628967Y1576570D01*
X1626177Y1575078D01*
X1623149Y1574160D01*
X1621230Y1573971D01*
X1620000Y1573875D01*
X1619261Y1573728D01*
X1618517Y1573581D01*
X1618515Y1573580D01*
X1618513Y1573579D01*
X1617886Y1573160D01*
X1617256Y1572740D01*
X1617254Y1572738D01*
X1617253Y1572737D01*
X1616834Y1572110D01*
X1616412Y1571480D01*
X1616412Y1571479D01*
X1616411Y1571477D01*
X1616263Y1570736D01*
X1616115Y1569994D01*
X1615900Y1344994D01*
X1615856Y1344991D01*
X1616330Y1341385D01*
X1617722Y1338026D01*
X1619935Y1335141D01*
X1622820Y1332927D01*
X1626180Y1331536D01*
X1629785Y1331061D01*
X1629794Y1331106D01*
X1678695Y1331214D01*
X1679961Y1331191D01*
X1680098Y1331173D01*
X1681176Y1331315D01*
X1683678Y1331644D01*
X1687013Y1333026D01*
X1689878Y1335224D01*
X1692076Y1338088D01*
X1693457Y1341424D01*
X1693911Y1344866D01*
X1693911D01*
X1693885Y1346121D01*
X1693885Y1358635D01*
X1693885Y1359905D01*
X1694057Y1361104D01*
X1694289Y1362271D01*
X1695629Y1364276D01*
X1697634Y1365616D01*
X1698801Y1365848D01*
X1700000Y1366020D01*
Y1366021D01*
X1720000Y1366020D01*
X1720167Y1366054D01*
X1722366Y1365616D01*
X1724371Y1364276D01*
X1725711Y1362271D01*
X1726149Y1360072D01*
X1726115Y1359905D01*
Y1259905D01*
X1726149Y1259738D01*
X1725711Y1257539D01*
X1724371Y1255534D01*
X1722366Y1254194D01*
X1720381Y1253799D01*
X1720000Y1253875D01*
X1580000Y1253875D01*
X1440000Y1253875D01*
X1439833Y1253842D01*
X1437634Y1254279D01*
X1435629Y1255619D01*
X1434288Y1257625D01*
X1433851Y1259823D01*
X1433884Y1259990D01*
Y1359990D01*
X1433851Y1360157D01*
X1434288Y1362356D01*
X1435629Y1364362D01*
X1437634Y1365702D01*
X1439833Y1366139D01*
X1440000Y1366106D01*
X1460000Y1366106D01*
X1460000Y1366106D01*
X1460000Y1366106D01*
X1461198Y1365934D01*
X1462365Y1365702D01*
X1464371Y1364362D01*
X1465711Y1362356D01*
X1466148Y1360157D01*
X1466115Y1359990D01*
X1466115Y1346206D01*
X1466089Y1344951D01*
Y1344951D01*
X1466089Y1344951D01*
X1466542Y1341509D01*
X1467924Y1338174D01*
X1470122Y1335309D01*
X1472986Y1333111D01*
X1476322Y1331729D01*
X1478814Y1331401D01*
X1479902Y1331258D01*
X1480039Y1331276D01*
X1481304Y1331299D01*
X1529781Y1331192D01*
X1530215Y1331106D01*
Y1331061D01*
X1533820Y1331536D01*
X1537179Y1332927D01*
X1540064Y1335141D01*
X1542278Y1338026D01*
X1543669Y1341385D01*
X1544144Y1344991D01*
X1544099Y1344994D01*
X1543884Y1569994D01*
X1543736Y1570736D01*
X1543589Y1571477D01*
X1543588Y1571479D01*
X1543587Y1571480D01*
X1543165Y1572110D01*
X1542747Y1572737D01*
X1542745Y1572738D01*
X1542744Y1572740D01*
X1542114Y1573160D01*
X1541486Y1573579D01*
X1541485Y1573580D01*
X1541483Y1573581D01*
X1540738Y1573728D01*
X1540000Y1573875D01*
X1538769Y1573971D01*
X1536851Y1574160D01*
X1533823Y1575078D01*
X1531032Y1576570D01*
X1528586Y1578577D01*
X1526579Y1581023D01*
X1525088Y1583814D01*
X1524169Y1586841D01*
X1523867Y1589905D01*
X1523884Y1589990D01*
X1523884Y1709990D01*
X1523867Y1710076D01*
X1524169Y1713139D01*
X1525088Y1716167D01*
X1526579Y1718958D01*
X1528586Y1721404D01*
X1531032Y1723411D01*
X1533823Y1724902D01*
X1536851Y1725821D01*
X1538752Y1726008D01*
X1540000Y1726061D01*
Y1726061D01*
X1543605Y1726536D01*
X1546964Y1727927D01*
X1549849Y1730141D01*
X1552063Y1733026D01*
X1553454Y1736385D01*
X1553929Y1739990D01*
X1553929D01*
X1553859Y1741231D01*
X1553793Y1744295D01*
X1554396Y1745198D01*
X1555422Y1745883D01*
X1555611Y1745921D01*
X1556756Y1746085D01*
X1556065Y1745985D01*
X1555611Y1745921D01*
X1555573Y1745913D01*
X1556065Y1745985D01*
X1556820Y1746091D01*
X1558058Y1746106D01*
X1558236Y1746106D01*
X1601763D01*
X1601942Y1746106D01*
D02*
G37*
G36*
X1141942D02*
X1143179Y1746091D01*
X1143934Y1745985D01*
X1144427Y1745913D01*
X1144388Y1745921D01*
X1143934Y1745985D01*
X1143243Y1746085D01*
X1144388Y1745921D01*
X1144578Y1745883D01*
X1145603Y1745198D01*
X1146207Y1744295D01*
X1146141Y1741231D01*
X1146071Y1739990D01*
Y1739990D01*
X1146071Y1739990D01*
X1146545Y1736385D01*
X1147937Y1733026D01*
X1150150Y1730141D01*
X1153035Y1727927D01*
X1156395Y1726536D01*
X1158778Y1726222D01*
X1160000Y1726061D01*
X1161248Y1726008D01*
X1163149Y1725821D01*
X1166177Y1724902D01*
X1168967Y1723411D01*
X1171413Y1721404D01*
X1173420Y1718958D01*
X1174912Y1716167D01*
X1175830Y1713139D01*
X1176132Y1710076D01*
X1176115Y1709990D01*
Y1589990D01*
X1176132Y1589905D01*
X1175830Y1586841D01*
X1174912Y1583814D01*
X1173420Y1581023D01*
X1171413Y1578577D01*
X1168967Y1576570D01*
X1166177Y1575078D01*
X1163149Y1574160D01*
X1161230Y1573971D01*
X1160000Y1573875D01*
X1159261Y1573728D01*
X1158517Y1573581D01*
X1158515Y1573580D01*
X1158513Y1573579D01*
X1157886Y1573160D01*
X1157255Y1572740D01*
X1157254Y1572738D01*
X1157253Y1572737D01*
X1156834Y1572110D01*
X1156412Y1571480D01*
X1156412Y1571479D01*
X1156411Y1571477D01*
X1156263Y1570736D01*
X1156115Y1569994D01*
X1155900Y1344994D01*
X1155856Y1344991D01*
X1156330Y1341385D01*
X1157722Y1338026D01*
X1159936Y1335141D01*
X1162820Y1332927D01*
X1166180Y1331536D01*
X1169785Y1331061D01*
X1169793Y1331106D01*
X1218695Y1331214D01*
X1219961Y1331191D01*
X1220098Y1331173D01*
X1221176Y1331315D01*
X1223678Y1331644D01*
X1227013Y1333026D01*
X1229878Y1335224D01*
X1232076Y1338088D01*
X1233457Y1341424D01*
X1233911Y1344866D01*
X1233911D01*
X1233885Y1346121D01*
X1233885Y1358635D01*
X1233885Y1359905D01*
X1234057Y1361104D01*
X1234289Y1362271D01*
X1235629Y1364276D01*
X1237634Y1365616D01*
X1238801Y1365848D01*
X1240000Y1366020D01*
Y1366021D01*
X1260000Y1366020D01*
X1260167Y1366054D01*
X1262366Y1365616D01*
X1264371Y1364276D01*
X1265711Y1362271D01*
X1266149Y1360072D01*
X1266115Y1359905D01*
Y1259905D01*
X1266149Y1259738D01*
X1265711Y1257539D01*
X1264371Y1255534D01*
X1262366Y1254194D01*
X1260381Y1253799D01*
X1260000Y1253875D01*
X1120000Y1253875D01*
X980000Y1253875D01*
X979833Y1253842D01*
X977634Y1254279D01*
X975629Y1255619D01*
X974289Y1257625D01*
X973851Y1259823D01*
X973884Y1259990D01*
Y1359990D01*
X973851Y1360157D01*
X974289Y1362356D01*
X975629Y1364362D01*
X977634Y1365702D01*
X979833Y1366139D01*
X980000Y1366106D01*
X1000000Y1366106D01*
X1000000Y1366106D01*
X1000000Y1366106D01*
X1001199Y1365934D01*
X1002365Y1365702D01*
X1004371Y1364362D01*
X1005711Y1362356D01*
X1006148Y1360157D01*
X1006115Y1359990D01*
X1006115Y1346206D01*
X1006089Y1344951D01*
Y1344951D01*
X1006089Y1344951D01*
X1006542Y1341509D01*
X1007924Y1338174D01*
X1010122Y1335309D01*
X1012986Y1333111D01*
X1016322Y1331729D01*
X1018814Y1331401D01*
X1019902Y1331258D01*
X1020039Y1331276D01*
X1021304Y1331299D01*
X1069781Y1331192D01*
X1070215Y1331106D01*
Y1331061D01*
X1073820Y1331536D01*
X1077179Y1332927D01*
X1080064Y1335141D01*
X1082278Y1338026D01*
X1083669Y1341385D01*
X1084144Y1344991D01*
X1084099Y1344994D01*
X1083884Y1569994D01*
X1083736Y1570736D01*
X1083589Y1571477D01*
X1083588Y1571479D01*
X1083587Y1571480D01*
X1083166Y1572110D01*
X1082747Y1572737D01*
X1082745Y1572738D01*
X1082744Y1572740D01*
X1082114Y1573160D01*
X1081486Y1573579D01*
X1081485Y1573580D01*
X1081483Y1573581D01*
X1080738Y1573728D01*
X1080000Y1573875D01*
X1078769Y1573971D01*
X1076851Y1574160D01*
X1073823Y1575078D01*
X1071032Y1576570D01*
X1068587Y1578577D01*
X1066579Y1581023D01*
X1065088Y1583814D01*
X1064169Y1586841D01*
X1063867Y1589905D01*
X1063884Y1589990D01*
X1063884Y1709990D01*
X1063867Y1710076D01*
X1064169Y1713139D01*
X1065088Y1716167D01*
X1066579Y1718958D01*
X1068587Y1721404D01*
X1071032Y1723411D01*
X1073823Y1724902D01*
X1076851Y1725821D01*
X1078752Y1726008D01*
X1080000Y1726061D01*
Y1726061D01*
X1083605Y1726536D01*
X1086964Y1727927D01*
X1089849Y1730141D01*
X1092063Y1733026D01*
X1093454Y1736385D01*
X1093929Y1739990D01*
X1093929D01*
X1093859Y1741231D01*
X1093793Y1744295D01*
X1094396Y1745198D01*
X1095422Y1745883D01*
X1095611Y1745921D01*
X1096756Y1746085D01*
X1096065Y1745985D01*
X1095611Y1745921D01*
X1095573Y1745913D01*
X1096065Y1745985D01*
X1096820Y1746091D01*
X1098058Y1746106D01*
X1098236Y1746106D01*
X1141763D01*
X1141942Y1746106D01*
D02*
G37*
G36*
X681942D02*
X683179Y1746091D01*
X683934Y1745985D01*
X684427Y1745913D01*
X684388Y1745921D01*
X683934Y1745985D01*
X683243Y1746085D01*
X684388Y1745921D01*
X684578Y1745883D01*
X685603Y1745198D01*
X686207Y1744295D01*
X686141Y1741231D01*
X686071Y1739990D01*
Y1739990D01*
X686071Y1739990D01*
X686545Y1736385D01*
X687937Y1733026D01*
X690150Y1730141D01*
X693035Y1727927D01*
X696395Y1726536D01*
X698778Y1726222D01*
X700000Y1726061D01*
X701248Y1726008D01*
X703149Y1725821D01*
X706177Y1724902D01*
X708967Y1723411D01*
X711413Y1721404D01*
X713420Y1718958D01*
X714912Y1716167D01*
X715830Y1713139D01*
X716132Y1710076D01*
X716115Y1709990D01*
Y1589990D01*
X716132Y1589905D01*
X715830Y1586841D01*
X714912Y1583814D01*
X713420Y1581023D01*
X711413Y1578577D01*
X708967Y1576570D01*
X706177Y1575078D01*
X703149Y1574160D01*
X701230Y1573971D01*
X700000Y1573875D01*
X699261Y1573728D01*
X698517Y1573581D01*
X698515Y1573580D01*
X698513Y1573579D01*
X697886Y1573160D01*
X697255Y1572740D01*
X697254Y1572738D01*
X697253Y1572737D01*
X696834Y1572110D01*
X696412Y1571480D01*
X696412Y1571479D01*
X696411Y1571477D01*
X696263Y1570736D01*
X696115Y1569994D01*
X695900Y1344994D01*
X695856Y1344991D01*
X696330Y1341385D01*
X697722Y1338026D01*
X699936Y1335141D01*
X702820Y1332927D01*
X706180Y1331536D01*
X709785Y1331061D01*
X709793Y1331106D01*
X758695Y1331214D01*
X759961Y1331191D01*
X760098Y1331173D01*
X761176Y1331315D01*
X763678Y1331644D01*
X767013Y1333026D01*
X769878Y1335224D01*
X772076Y1338088D01*
X773457Y1341424D01*
X773911Y1344866D01*
X773911D01*
X773885Y1346121D01*
X773885Y1358635D01*
X773885Y1359905D01*
X774057Y1361104D01*
X774289Y1362271D01*
X775629Y1364276D01*
X777634Y1365616D01*
X778801Y1365848D01*
X780000Y1366020D01*
Y1366021D01*
X800000Y1366020D01*
X800167Y1366054D01*
X802366Y1365616D01*
X804371Y1364276D01*
X805711Y1362271D01*
X806149Y1360072D01*
X806115Y1359905D01*
Y1259905D01*
X806149Y1259738D01*
X805711Y1257539D01*
X804371Y1255534D01*
X802366Y1254194D01*
X800381Y1253799D01*
X800000Y1253875D01*
X660000Y1253875D01*
X520000Y1253875D01*
X519833Y1253842D01*
X517634Y1254279D01*
X515629Y1255619D01*
X514289Y1257625D01*
X513851Y1259823D01*
X513884Y1259990D01*
Y1359990D01*
X513851Y1360157D01*
X514289Y1362356D01*
X515629Y1364362D01*
X517634Y1365702D01*
X519833Y1366139D01*
X520000Y1366106D01*
X540000Y1366106D01*
X540000Y1366106D01*
X540000Y1366106D01*
X541199Y1365934D01*
X542365Y1365702D01*
X544371Y1364362D01*
X545711Y1362356D01*
X546148Y1360157D01*
X546115Y1359990D01*
X546115Y1346206D01*
X546089Y1344951D01*
Y1344951D01*
X546089Y1344951D01*
X546542Y1341509D01*
X547924Y1338174D01*
X550122Y1335309D01*
X552986Y1333111D01*
X556322Y1331729D01*
X558814Y1331401D01*
X559902Y1331258D01*
X560039Y1331276D01*
X561305Y1331299D01*
X609781Y1331192D01*
X610215Y1331106D01*
Y1331061D01*
X613820Y1331536D01*
X617179Y1332927D01*
X620064Y1335141D01*
X622278Y1338026D01*
X623669Y1341385D01*
X624144Y1344991D01*
X624099Y1344994D01*
X623884Y1569994D01*
X623736Y1570736D01*
X623589Y1571477D01*
X623588Y1571479D01*
X623587Y1571480D01*
X623166Y1572110D01*
X622747Y1572737D01*
X622745Y1572738D01*
X622744Y1572740D01*
X622114Y1573160D01*
X621486Y1573579D01*
X621484Y1573580D01*
X621483Y1573581D01*
X620738Y1573728D01*
X620000Y1573875D01*
X618769Y1573971D01*
X616851Y1574160D01*
X613823Y1575078D01*
X611032Y1576570D01*
X608587Y1578577D01*
X606579Y1581023D01*
X605088Y1583814D01*
X604169Y1586841D01*
X603867Y1589905D01*
X603884Y1589990D01*
X603884Y1709990D01*
X603867Y1710076D01*
X604169Y1713139D01*
X605088Y1716167D01*
X606579Y1718958D01*
X608587Y1721404D01*
X611032Y1723411D01*
X613823Y1724902D01*
X616851Y1725821D01*
X618752Y1726008D01*
X620000Y1726061D01*
Y1726061D01*
X623605Y1726536D01*
X626964Y1727927D01*
X629849Y1730141D01*
X632063Y1733026D01*
X633454Y1736385D01*
X633929Y1739990D01*
X633929D01*
X633859Y1741231D01*
X633793Y1744295D01*
X634396Y1745198D01*
X635422Y1745883D01*
X635611Y1745921D01*
X636756Y1746085D01*
X636065Y1745985D01*
X635611Y1745921D01*
X635573Y1745913D01*
X636065Y1745985D01*
X636820Y1746091D01*
X638058Y1746106D01*
X638236Y1746106D01*
X681763D01*
X681942Y1746106D01*
D02*
G37*
G36*
X221942D02*
X223179Y1746091D01*
X223934Y1745985D01*
X224427Y1745913D01*
X224388Y1745921D01*
X223934Y1745985D01*
X223243Y1746085D01*
X224388Y1745921D01*
X224578Y1745883D01*
X225604Y1745198D01*
X226207Y1744295D01*
X226141Y1741231D01*
X226071Y1739990D01*
Y1739990D01*
X226071Y1739990D01*
X226545Y1736385D01*
X227937Y1733026D01*
X230150Y1730141D01*
X233035Y1727927D01*
X236395Y1726536D01*
X238778Y1726222D01*
X240000Y1726061D01*
X241248Y1726008D01*
X243149Y1725821D01*
X246177Y1724902D01*
X248967Y1723411D01*
X251413Y1721404D01*
X253420Y1718958D01*
X254912Y1716167D01*
X255830Y1713139D01*
X256132Y1710076D01*
X256115Y1709990D01*
Y1589990D01*
X256132Y1589905D01*
X255830Y1586841D01*
X254912Y1583814D01*
X253420Y1581023D01*
X251413Y1578577D01*
X248967Y1576570D01*
X246177Y1575078D01*
X243149Y1574160D01*
X241230Y1573971D01*
X240000Y1573875D01*
X239261Y1573728D01*
X238517Y1573581D01*
X238515Y1573580D01*
X238513Y1573579D01*
X237886Y1573160D01*
X237255Y1572740D01*
X237255Y1572738D01*
X237253Y1572737D01*
X236834Y1572110D01*
X236412Y1571480D01*
X236412Y1571479D01*
X236411Y1571477D01*
X236263Y1570736D01*
X236115Y1569994D01*
X235900Y1344994D01*
X235856Y1344991D01*
X236330Y1341385D01*
X237722Y1338026D01*
X239935Y1335141D01*
X242820Y1332927D01*
X246180Y1331536D01*
X249785Y1331061D01*
X249793Y1331106D01*
X298695Y1331214D01*
X299961Y1331191D01*
X300098Y1331173D01*
X301176Y1331315D01*
X303678Y1331644D01*
X307013Y1333026D01*
X309878Y1335224D01*
X312076Y1338088D01*
X313458Y1341424D01*
X313911Y1344866D01*
X313911D01*
X313885Y1346121D01*
X313885Y1358635D01*
X313885Y1359905D01*
X314057Y1361104D01*
X314289Y1362271D01*
X315629Y1364276D01*
X317634Y1365616D01*
X318801Y1365848D01*
X320000Y1366020D01*
Y1366021D01*
X340000Y1366020D01*
X340167Y1366054D01*
X342366Y1365616D01*
X344371Y1364276D01*
X345711Y1362271D01*
X346148Y1360072D01*
X346115Y1359905D01*
Y1259905D01*
X346148Y1259738D01*
X345711Y1257539D01*
X344371Y1255534D01*
X342366Y1254194D01*
X340381Y1253799D01*
X340000Y1253875D01*
X200000Y1253875D01*
X60000Y1253875D01*
X59833Y1253842D01*
X57634Y1254279D01*
X55629Y1255619D01*
X54289Y1257625D01*
X53851Y1259823D01*
X53884Y1259990D01*
Y1359990D01*
X53851Y1360157D01*
X54289Y1362356D01*
X55629Y1364362D01*
X57634Y1365702D01*
X59833Y1366139D01*
X60000Y1366106D01*
X80000Y1366106D01*
X80000Y1366106D01*
X80000Y1366106D01*
X81199Y1365934D01*
X82365Y1365702D01*
X84371Y1364362D01*
X85711Y1362356D01*
X86148Y1360157D01*
X86115Y1359990D01*
X86115Y1346206D01*
X86089Y1344951D01*
Y1344951D01*
X86089Y1344951D01*
X86542Y1341509D01*
X87924Y1338174D01*
X90122Y1335309D01*
X92986Y1333111D01*
X96322Y1331729D01*
X98814Y1331401D01*
X99902Y1331258D01*
X100039Y1331276D01*
X101305Y1331299D01*
X149781Y1331192D01*
X150215Y1331106D01*
Y1331061D01*
X153820Y1331536D01*
X157179Y1332927D01*
X160064Y1335141D01*
X162278Y1338026D01*
X163669Y1341385D01*
X164144Y1344991D01*
X164099Y1344994D01*
X163884Y1569994D01*
X163736Y1570736D01*
X163589Y1571477D01*
X163588Y1571479D01*
X163587Y1571480D01*
X163165Y1572110D01*
X162747Y1572737D01*
X162745Y1572738D01*
X162744Y1572740D01*
X162114Y1573160D01*
X161486Y1573579D01*
X161485Y1573580D01*
X161483Y1573581D01*
X160738Y1573728D01*
X160000Y1573875D01*
X158770Y1573971D01*
X156851Y1574160D01*
X153823Y1575078D01*
X151032Y1576570D01*
X148587Y1578577D01*
X146579Y1581023D01*
X145088Y1583814D01*
X144169Y1586841D01*
X143867Y1589905D01*
X143884Y1589990D01*
X143884Y1709990D01*
X143867Y1710076D01*
X144169Y1713139D01*
X145088Y1716167D01*
X146579Y1718958D01*
X148587Y1721404D01*
X151032Y1723411D01*
X153823Y1724902D01*
X156851Y1725821D01*
X158752Y1726008D01*
X160000Y1726061D01*
Y1726061D01*
X163605Y1726536D01*
X166964Y1727927D01*
X169849Y1730141D01*
X172063Y1733026D01*
X173454Y1736385D01*
X173929Y1739990D01*
X173929D01*
X173859Y1741231D01*
X173793Y1744295D01*
X174396Y1745198D01*
X175422Y1745883D01*
X175611Y1745921D01*
X176756Y1746085D01*
X176065Y1745985D01*
X175611Y1745921D01*
X175573Y1745913D01*
X176065Y1745985D01*
X176820Y1746091D01*
X178058Y1746106D01*
X178236Y1746106D01*
X221763D01*
X221942Y1746106D01*
D02*
G37*
G36*
X1210000Y1746125D02*
X1350000Y1746125D01*
X1490000Y1746125D01*
X1490167Y1746158D01*
X1492366Y1745721D01*
X1494371Y1744381D01*
X1495711Y1742375D01*
X1496149Y1740177D01*
X1496115Y1740010D01*
Y1640010D01*
X1496149Y1639843D01*
X1495711Y1637644D01*
X1494371Y1635638D01*
X1492366Y1634299D01*
X1490167Y1633861D01*
X1490000Y1633894D01*
X1470000Y1633894D01*
X1470000Y1633894D01*
X1470000Y1633894D01*
X1468801Y1634066D01*
X1467634Y1634298D01*
X1465629Y1635638D01*
X1464289Y1637644D01*
X1463851Y1639843D01*
X1463885Y1640010D01*
X1463885Y1653794D01*
X1463911Y1655049D01*
Y1655049D01*
X1463911Y1655049D01*
X1463458Y1658491D01*
X1462076Y1661826D01*
X1459878Y1664691D01*
X1457014Y1666889D01*
X1453678Y1668271D01*
X1451186Y1668599D01*
X1450098Y1668742D01*
X1449961Y1668724D01*
X1448695Y1668701D01*
X1400219Y1668808D01*
X1399785Y1668894D01*
Y1668939D01*
X1396180Y1668464D01*
X1392821Y1667073D01*
X1389936Y1664859D01*
X1387722Y1661974D01*
X1386331Y1658615D01*
X1385856Y1655010D01*
X1385901Y1655006D01*
X1386115Y1430006D01*
X1386264Y1429264D01*
X1386411Y1428523D01*
X1386412Y1428522D01*
X1386413Y1428520D01*
X1386834Y1427890D01*
X1387253Y1427263D01*
X1387255Y1427262D01*
X1387256Y1427260D01*
X1387886Y1426840D01*
X1388513Y1426421D01*
X1388515Y1426420D01*
X1388517Y1426419D01*
X1389262Y1426272D01*
X1390000Y1426125D01*
X1391230Y1426029D01*
X1393149Y1425840D01*
X1396177Y1424922D01*
X1398967Y1423430D01*
X1401413Y1421423D01*
X1403421Y1418977D01*
X1404912Y1416186D01*
X1405831Y1413159D01*
X1406132Y1410095D01*
X1406115Y1410010D01*
X1406116Y1290010D01*
X1406132Y1289924D01*
X1405831Y1286861D01*
X1404912Y1283833D01*
X1403421Y1281042D01*
X1401413Y1278596D01*
X1398967Y1276589D01*
X1396177Y1275098D01*
X1393149Y1274179D01*
X1391248Y1273992D01*
X1390000Y1273939D01*
Y1273939D01*
X1386395Y1273464D01*
X1383035Y1272073D01*
X1380151Y1269859D01*
X1377937Y1266974D01*
X1376546Y1263615D01*
X1376071Y1260010D01*
X1376071D01*
X1376141Y1258769D01*
X1376207Y1255705D01*
X1375604Y1254802D01*
X1374578Y1254117D01*
X1374389Y1254079D01*
X1373244Y1253915D01*
X1373934Y1254015D01*
X1374388Y1254079D01*
X1374427Y1254087D01*
X1373934Y1254015D01*
X1373179Y1253909D01*
X1371942Y1253894D01*
X1371764Y1253894D01*
X1328237D01*
X1328058Y1253894D01*
X1326821Y1253909D01*
X1326066Y1254015D01*
X1325573Y1254087D01*
X1325612Y1254079D01*
X1326066Y1254015D01*
X1326756Y1253915D01*
X1325612Y1254079D01*
X1325422Y1254117D01*
X1324396Y1254802D01*
X1323793Y1255705D01*
X1323859Y1258769D01*
X1323929Y1260010D01*
Y1260010D01*
X1323929Y1260010D01*
X1323455Y1263615D01*
X1322063Y1266974D01*
X1319850Y1269859D01*
X1316965Y1272073D01*
X1313605Y1273464D01*
X1311222Y1273778D01*
X1310000Y1273939D01*
X1308752Y1273992D01*
X1306851Y1274179D01*
X1303823Y1275098D01*
X1301033Y1276589D01*
X1298587Y1278596D01*
X1296579Y1281042D01*
X1295088Y1283833D01*
X1294169Y1286861D01*
X1293868Y1289924D01*
X1293885Y1290010D01*
Y1410010D01*
X1293868Y1410095D01*
X1294169Y1413159D01*
X1295088Y1416186D01*
X1296580Y1418977D01*
X1298587Y1421423D01*
X1301033Y1423430D01*
X1303823Y1424922D01*
X1306851Y1425840D01*
X1308770Y1426029D01*
X1310000Y1426125D01*
X1310739Y1426272D01*
X1311483Y1426419D01*
X1311485Y1426420D01*
X1311487Y1426421D01*
X1312114Y1426840D01*
X1312744Y1427260D01*
X1312745Y1427262D01*
X1312747Y1427263D01*
X1313166Y1427890D01*
X1313588Y1428520D01*
X1313588Y1428522D01*
X1313589Y1428523D01*
X1313736Y1429264D01*
X1313885Y1430006D01*
X1314100Y1655006D01*
X1314144Y1655010D01*
X1313669Y1658615D01*
X1312278Y1661974D01*
X1310064Y1664859D01*
X1307180Y1667073D01*
X1303820Y1668464D01*
X1300215Y1668939D01*
X1300206Y1668894D01*
X1251305Y1668786D01*
X1250039Y1668809D01*
X1249902Y1668827D01*
X1248824Y1668685D01*
X1246322Y1668356D01*
X1242987Y1666974D01*
X1240122Y1664776D01*
X1237924Y1661912D01*
X1236542Y1658576D01*
X1236089Y1655134D01*
X1236089D01*
X1236115Y1653879D01*
X1236115Y1641365D01*
X1236115Y1640095D01*
X1235943Y1638896D01*
X1235711Y1637729D01*
X1234371Y1635724D01*
X1232365Y1634384D01*
X1231199Y1634152D01*
X1230000Y1633980D01*
Y1633980D01*
X1210000Y1633980D01*
X1209833Y1633946D01*
X1207634Y1634384D01*
X1205629Y1635724D01*
X1204289Y1637729D01*
X1203851Y1639928D01*
X1203885Y1640095D01*
Y1740095D01*
X1203851Y1740262D01*
X1204289Y1742461D01*
X1205629Y1744466D01*
X1207634Y1745806D01*
X1209618Y1746201D01*
X1210000Y1746125D01*
D02*
G37*
G36*
X750000D02*
X890000Y1746125D01*
X1030000Y1746125D01*
X1030167Y1746158D01*
X1032366Y1745721D01*
X1034371Y1744381D01*
X1035711Y1742375D01*
X1036149Y1740177D01*
X1036115Y1740010D01*
Y1640010D01*
X1036149Y1639843D01*
X1035711Y1637644D01*
X1034371Y1635638D01*
X1032366Y1634299D01*
X1030167Y1633861D01*
X1030000Y1633894D01*
X1010000Y1633894D01*
X1010000Y1633894D01*
X1010000Y1633894D01*
X1008801Y1634066D01*
X1007634Y1634298D01*
X1005629Y1635638D01*
X1004289Y1637644D01*
X1003851Y1639843D01*
X1003885Y1640010D01*
X1003885Y1653794D01*
X1003911Y1655049D01*
Y1655049D01*
X1003911Y1655049D01*
X1003458Y1658491D01*
X1002076Y1661826D01*
X999878Y1664691D01*
X997013Y1666889D01*
X993678Y1668271D01*
X991186Y1668599D01*
X990098Y1668742D01*
X989961Y1668724D01*
X988695Y1668701D01*
X940219Y1668808D01*
X939785Y1668894D01*
Y1668939D01*
X936180Y1668464D01*
X932821Y1667073D01*
X929936Y1664859D01*
X927722Y1661974D01*
X926331Y1658615D01*
X925856Y1655010D01*
X925900Y1655006D01*
X926115Y1430006D01*
X926264Y1429264D01*
X926411Y1428523D01*
X926412Y1428522D01*
X926413Y1428520D01*
X926834Y1427890D01*
X927253Y1427263D01*
X927255Y1427262D01*
X927256Y1427260D01*
X927886Y1426840D01*
X928513Y1426421D01*
X928515Y1426420D01*
X928517Y1426419D01*
X929262Y1426272D01*
X930000Y1426125D01*
X931230Y1426029D01*
X933149Y1425840D01*
X936177Y1424922D01*
X938967Y1423430D01*
X941413Y1421423D01*
X943421Y1418977D01*
X944912Y1416186D01*
X945831Y1413159D01*
X946132Y1410095D01*
X946115Y1410010D01*
X946115Y1290010D01*
X946132Y1289924D01*
X945831Y1286861D01*
X944912Y1283833D01*
X943421Y1281042D01*
X941413Y1278596D01*
X938967Y1276589D01*
X936177Y1275098D01*
X933149Y1274179D01*
X931248Y1273992D01*
X930000Y1273939D01*
Y1273939D01*
X926395Y1273464D01*
X923036Y1272073D01*
X920151Y1269859D01*
X917937Y1266974D01*
X916545Y1263615D01*
X916071Y1260010D01*
X916071D01*
X916141Y1258769D01*
X916207Y1255705D01*
X915604Y1254802D01*
X914578Y1254117D01*
X914389Y1254079D01*
X913244Y1253915D01*
X913934Y1254015D01*
X914389Y1254079D01*
X914427Y1254087D01*
X913934Y1254015D01*
X913179Y1253909D01*
X911942Y1253894D01*
X911764Y1253894D01*
X868237D01*
X868058Y1253894D01*
X866821Y1253909D01*
X866066Y1254015D01*
X865573Y1254087D01*
X865612Y1254079D01*
X866066Y1254015D01*
X866757Y1253915D01*
X865612Y1254079D01*
X865422Y1254117D01*
X864396Y1254802D01*
X863793Y1255705D01*
X863859Y1258769D01*
X863929Y1260010D01*
Y1260010D01*
X863929Y1260010D01*
X863455Y1263615D01*
X862063Y1266974D01*
X859849Y1269859D01*
X856965Y1272073D01*
X853605Y1273464D01*
X851222Y1273778D01*
X850000Y1273939D01*
X848752Y1273992D01*
X846851Y1274179D01*
X843823Y1275098D01*
X841033Y1276589D01*
X838587Y1278596D01*
X836580Y1281042D01*
X835088Y1283833D01*
X834169Y1286861D01*
X833868Y1289924D01*
X833885Y1290010D01*
Y1410010D01*
X833868Y1410095D01*
X834169Y1413159D01*
X835088Y1416186D01*
X836580Y1418977D01*
X838587Y1421423D01*
X841033Y1423430D01*
X843823Y1424922D01*
X846851Y1425840D01*
X848770Y1426029D01*
X850000Y1426125D01*
X850739Y1426272D01*
X851483Y1426419D01*
X851485Y1426420D01*
X851487Y1426421D01*
X852114Y1426840D01*
X852744Y1427260D01*
X852745Y1427262D01*
X852747Y1427263D01*
X853166Y1427890D01*
X853588Y1428520D01*
X853588Y1428522D01*
X853589Y1428523D01*
X853736Y1429264D01*
X853885Y1430006D01*
X854100Y1655006D01*
X854144Y1655010D01*
X853670Y1658615D01*
X852278Y1661974D01*
X850064Y1664859D01*
X847179Y1667073D01*
X843820Y1668464D01*
X840215Y1668939D01*
X840206Y1668894D01*
X791305Y1668786D01*
X790039Y1668809D01*
X789902Y1668827D01*
X788824Y1668685D01*
X786322Y1668356D01*
X782987Y1666974D01*
X780122Y1664776D01*
X777924Y1661912D01*
X776542Y1658576D01*
X776089Y1655134D01*
X776089D01*
X776115Y1653879D01*
X776115Y1641365D01*
X776115Y1640095D01*
X775943Y1638896D01*
X775711Y1637729D01*
X774371Y1635724D01*
X772365Y1634384D01*
X771199Y1634152D01*
X770000Y1633980D01*
Y1633980D01*
X750000Y1633980D01*
X749833Y1633946D01*
X747634Y1634384D01*
X745629Y1635724D01*
X744289Y1637729D01*
X743851Y1639928D01*
X743885Y1640095D01*
Y1740095D01*
X743851Y1740262D01*
X744289Y1742461D01*
X745629Y1744466D01*
X747634Y1745806D01*
X749618Y1746201D01*
X750000Y1746125D01*
D02*
G37*
G36*
X290000D02*
X430000Y1746125D01*
X570000Y1746125D01*
X570167Y1746158D01*
X572366Y1745721D01*
X574371Y1744381D01*
X575711Y1742375D01*
X576149Y1740177D01*
X576115Y1740010D01*
Y1640010D01*
X576149Y1639843D01*
X575711Y1637644D01*
X574371Y1635638D01*
X572366Y1634299D01*
X570167Y1633861D01*
X570000Y1633894D01*
X550000Y1633894D01*
X550000Y1633894D01*
X550000Y1633894D01*
X548801Y1634066D01*
X547634Y1634298D01*
X545629Y1635638D01*
X544289Y1637644D01*
X543852Y1639843D01*
X543885Y1640010D01*
X543885Y1653794D01*
X543911Y1655049D01*
Y1655049D01*
X543911Y1655049D01*
X543458Y1658491D01*
X542076Y1661826D01*
X539878Y1664691D01*
X537014Y1666889D01*
X533678Y1668271D01*
X531186Y1668599D01*
X530098Y1668742D01*
X529961Y1668724D01*
X528695Y1668701D01*
X480219Y1668808D01*
X479785Y1668894D01*
Y1668939D01*
X476180Y1668464D01*
X472821Y1667073D01*
X469936Y1664859D01*
X467722Y1661974D01*
X466331Y1658615D01*
X465856Y1655010D01*
X465900Y1655006D01*
X466115Y1430006D01*
X466264Y1429264D01*
X466411Y1428523D01*
X466412Y1428522D01*
X466413Y1428520D01*
X466834Y1427890D01*
X467253Y1427263D01*
X467255Y1427262D01*
X467256Y1427260D01*
X467886Y1426840D01*
X468513Y1426421D01*
X468515Y1426420D01*
X468517Y1426419D01*
X469262Y1426272D01*
X470000Y1426125D01*
X471230Y1426029D01*
X473149Y1425840D01*
X476177Y1424922D01*
X478967Y1423430D01*
X481413Y1421423D01*
X483421Y1418977D01*
X484912Y1416186D01*
X485831Y1413159D01*
X486132Y1410095D01*
X486115Y1410010D01*
X486115Y1290010D01*
X486132Y1289924D01*
X485831Y1286861D01*
X484912Y1283833D01*
X483421Y1281042D01*
X481413Y1278596D01*
X478967Y1276589D01*
X476177Y1275098D01*
X473149Y1274179D01*
X471248Y1273992D01*
X470000Y1273939D01*
Y1273939D01*
X466395Y1273464D01*
X463036Y1272073D01*
X460151Y1269859D01*
X457937Y1266974D01*
X456545Y1263615D01*
X456071Y1260010D01*
X456071D01*
X456141Y1258769D01*
X456207Y1255705D01*
X455604Y1254802D01*
X454578Y1254117D01*
X454389Y1254079D01*
X453244Y1253915D01*
X453934Y1254015D01*
X454389Y1254079D01*
X454427Y1254087D01*
X453934Y1254015D01*
X453180Y1253909D01*
X451942Y1253894D01*
X451764Y1253894D01*
X408237D01*
X408058Y1253894D01*
X406821Y1253909D01*
X406066Y1254015D01*
X405573Y1254087D01*
X405612Y1254079D01*
X406066Y1254015D01*
X406757Y1253915D01*
X405612Y1254079D01*
X405422Y1254117D01*
X404396Y1254802D01*
X403793Y1255705D01*
X403859Y1258769D01*
X403929Y1260010D01*
Y1260010D01*
X403929Y1260010D01*
X403455Y1263615D01*
X402063Y1266974D01*
X399850Y1269859D01*
X396965Y1272073D01*
X393605Y1273464D01*
X391222Y1273778D01*
X390000Y1273939D01*
X388752Y1273992D01*
X386851Y1274179D01*
X383823Y1275098D01*
X381033Y1276589D01*
X378587Y1278596D01*
X376580Y1281042D01*
X375088Y1283833D01*
X374170Y1286861D01*
X373868Y1289924D01*
X373885Y1290010D01*
Y1410010D01*
X373868Y1410095D01*
X374170Y1413159D01*
X375088Y1416186D01*
X376580Y1418977D01*
X378587Y1421423D01*
X381033Y1423430D01*
X383823Y1424922D01*
X386851Y1425840D01*
X388770Y1426029D01*
X390000Y1426125D01*
X390738Y1426272D01*
X391483Y1426419D01*
X391485Y1426420D01*
X391487Y1426421D01*
X392114Y1426840D01*
X392744Y1427260D01*
X392745Y1427262D01*
X392747Y1427263D01*
X393166Y1427890D01*
X393588Y1428520D01*
X393588Y1428522D01*
X393589Y1428523D01*
X393736Y1429264D01*
X393885Y1430006D01*
X394100Y1655006D01*
X394144Y1655010D01*
X393670Y1658615D01*
X392278Y1661974D01*
X390064Y1664859D01*
X387179Y1667073D01*
X383820Y1668464D01*
X380215Y1668939D01*
X380206Y1668894D01*
X331305Y1668786D01*
X330039Y1668809D01*
X329902Y1668827D01*
X328824Y1668685D01*
X326322Y1668356D01*
X322986Y1666974D01*
X320122Y1664776D01*
X317924Y1661912D01*
X316542Y1658576D01*
X316089Y1655134D01*
X316089D01*
X316115Y1653879D01*
X316115Y1641365D01*
X316115Y1640095D01*
X315943Y1638896D01*
X315711Y1637729D01*
X314371Y1635724D01*
X312365Y1634384D01*
X311199Y1634152D01*
X310000Y1633980D01*
Y1633980D01*
X290000Y1633980D01*
X289833Y1633946D01*
X287634Y1634384D01*
X285629Y1635724D01*
X284289Y1637729D01*
X283851Y1639928D01*
X283885Y1640095D01*
Y1740095D01*
X283851Y1740262D01*
X284289Y1742461D01*
X285629Y1744466D01*
X287634Y1745806D01*
X289618Y1746201D01*
X290000Y1746125D01*
D02*
G37*
G36*
X1142366Y1225711D02*
X1144371Y1224371D01*
X1145711Y1222366D01*
X1146149Y1220167D01*
X1146115Y1220000D01*
Y660000D01*
X1146149Y659833D01*
X1145711Y657634D01*
X1144371Y655629D01*
X1142366Y654289D01*
X1141199Y654057D01*
X1140000Y653885D01*
Y653885D01*
X620000D01*
X619833Y653851D01*
X617634Y654289D01*
X615629Y655629D01*
X614289Y657634D01*
X614057Y658801D01*
X613885Y660000D01*
X613885D01*
Y1220000D01*
X613851Y1220167D01*
X614289Y1222366D01*
X615629Y1224371D01*
X617634Y1225711D01*
X619833Y1226149D01*
X620000Y1226115D01*
X1140000D01*
X1140167Y1226149D01*
X1142366Y1225711D01*
D02*
G37*
G36*
X1702186Y1225278D02*
X1704039Y1224040D01*
X1705278Y1222186D01*
X1705680Y1220167D01*
X1705646Y1220000D01*
Y660000D01*
X1705680Y659833D01*
X1705278Y657814D01*
X1704040Y655960D01*
X1702186Y654722D01*
X1701199Y654526D01*
X1700000Y654354D01*
Y654354D01*
X1180000D01*
X1179833Y654320D01*
X1177814Y654722D01*
X1175960Y655960D01*
X1174722Y657814D01*
X1174526Y658801D01*
X1174354Y660000D01*
X1174354D01*
Y1220000D01*
X1174320Y1220167D01*
X1174722Y1222186D01*
X1175960Y1224040D01*
X1177814Y1225278D01*
X1179833Y1225680D01*
X1180000Y1225646D01*
X1700000D01*
X1700167Y1225680D01*
X1702186Y1225278D01*
D02*
G37*
G36*
X582186D02*
X584039Y1224040D01*
X585278Y1222186D01*
X585680Y1220167D01*
X585646Y1220000D01*
Y660000D01*
X585680Y659833D01*
X585278Y657814D01*
X584040Y655960D01*
X582186Y654722D01*
X581199Y654526D01*
X580000Y654354D01*
Y654354D01*
X60000D01*
X59833Y654320D01*
X57814Y654722D01*
X55960Y655960D01*
X54722Y657814D01*
X54526Y658801D01*
X54354Y660000D01*
X54354D01*
Y1220000D01*
X54320Y1220167D01*
X54722Y1222186D01*
X55960Y1224040D01*
X57814Y1225278D01*
X59833Y1225680D01*
X60000Y1225646D01*
X580000D01*
X580167Y1225680D01*
X582186Y1225278D01*
D02*
G37*
G36*
X1702366Y625711D02*
X1704371Y624371D01*
X1705711Y622366D01*
X1706149Y620167D01*
X1706115Y620000D01*
Y60000D01*
X1706149Y59833D01*
X1705711Y57634D01*
X1704371Y55629D01*
X1702366Y54289D01*
X1701199Y54057D01*
X1700000Y53885D01*
Y53885D01*
X1180000D01*
X1179833Y53851D01*
X1177634Y54289D01*
X1175629Y55629D01*
X1174289Y57634D01*
X1174057Y58801D01*
X1173885Y60000D01*
X1173885D01*
Y620000D01*
X1173851Y620167D01*
X1174289Y622366D01*
X1175629Y624371D01*
X1177634Y625711D01*
X1179833Y626149D01*
X1180000Y626115D01*
X1700000D01*
X1700167Y626149D01*
X1702366Y625711D01*
D02*
G37*
G36*
X1142366D02*
X1144371Y624371D01*
X1145711Y622366D01*
X1146149Y620167D01*
X1146115Y620000D01*
Y60000D01*
X1146149Y59833D01*
X1145711Y57634D01*
X1144371Y55629D01*
X1142366Y54289D01*
X1141199Y54057D01*
X1140000Y53885D01*
Y53885D01*
X620000D01*
X619833Y53851D01*
X617634Y54289D01*
X615629Y55629D01*
X614289Y57634D01*
X614057Y58801D01*
X613885Y60000D01*
X613885D01*
Y620000D01*
X613851Y620167D01*
X614289Y622366D01*
X615629Y624371D01*
X617634Y625711D01*
X619833Y626149D01*
X620000Y626115D01*
X1140000D01*
X1140167Y626149D01*
X1142366Y625711D01*
D02*
G37*
G36*
X582366D02*
X584371Y624371D01*
X585711Y622366D01*
X586149Y620167D01*
X586115Y620000D01*
Y60000D01*
X586149Y59833D01*
X585711Y57634D01*
X584371Y55629D01*
X582366Y54289D01*
X581199Y54057D01*
X580000Y53885D01*
Y53885D01*
X60000D01*
X59833Y53851D01*
X57634Y54289D01*
X55629Y55629D01*
X54289Y57634D01*
X54057Y58801D01*
X53885Y60000D01*
X53885D01*
Y620000D01*
X53851Y620167D01*
X54289Y622366D01*
X55629Y624371D01*
X57634Y625711D01*
X59833Y626149D01*
X60000Y626115D01*
X580000D01*
X580167Y626149D01*
X582366Y625711D01*
D02*
G37*
%LPC*%
G36*
X1618100Y1618630D02*
X1615087Y1618233D01*
X1612280Y1617071D01*
X1609869Y1615221D01*
X1608020Y1612810D01*
X1606857Y1610003D01*
X1606460Y1606990D01*
X1606857Y1603978D01*
X1608020Y1601171D01*
X1609869Y1598760D01*
X1612280Y1596910D01*
X1615087Y1595748D01*
X1618100Y1595351D01*
X1621112Y1595748D01*
X1623920Y1596910D01*
X1626330Y1598760D01*
X1628180Y1601171D01*
X1629343Y1603978D01*
X1629739Y1606990D01*
X1629343Y1610003D01*
X1628180Y1612810D01*
X1626330Y1615221D01*
X1623920Y1617071D01*
X1621112Y1618233D01*
X1618100Y1618630D01*
D02*
G37*
G36*
X1592700D02*
X1589687Y1618233D01*
X1586880Y1617071D01*
X1584469Y1615221D01*
X1582620Y1612810D01*
X1581457Y1610003D01*
X1581060Y1606990D01*
X1581457Y1603978D01*
X1582620Y1601171D01*
X1584469Y1598760D01*
X1586880Y1596910D01*
X1589687Y1595748D01*
X1592700Y1595351D01*
X1595712Y1595748D01*
X1598519Y1596910D01*
X1600930Y1598760D01*
X1602780Y1601171D01*
X1603943Y1603978D01*
X1604339Y1606990D01*
X1603943Y1610003D01*
X1602780Y1612810D01*
X1600930Y1615221D01*
X1598519Y1617071D01*
X1595712Y1618233D01*
X1592700Y1618630D01*
D02*
G37*
G36*
X1567300D02*
X1564287Y1618233D01*
X1561480Y1617071D01*
X1559069Y1615221D01*
X1557220Y1612810D01*
X1556057Y1610003D01*
X1555660Y1606990D01*
X1556057Y1603978D01*
X1557220Y1601171D01*
X1559069Y1598760D01*
X1561480Y1596910D01*
X1564287Y1595748D01*
X1567300Y1595351D01*
X1570312Y1595748D01*
X1573120Y1596910D01*
X1575530Y1598760D01*
X1577380Y1601171D01*
X1578543Y1603978D01*
X1578939Y1606990D01*
X1578543Y1610003D01*
X1577380Y1612810D01*
X1575530Y1615221D01*
X1573120Y1617071D01*
X1570312Y1618233D01*
X1567300Y1618630D01*
D02*
G37*
G36*
X1541900D02*
X1538887Y1618233D01*
X1536080Y1617071D01*
X1533669Y1615221D01*
X1531820Y1612810D01*
X1530657Y1610003D01*
X1530260Y1606990D01*
X1530657Y1603978D01*
X1531820Y1601171D01*
X1533669Y1598760D01*
X1536080Y1596910D01*
X1538887Y1595748D01*
X1541900Y1595351D01*
X1544912Y1595748D01*
X1547720Y1596910D01*
X1550130Y1598760D01*
X1551980Y1601171D01*
X1553143Y1603978D01*
X1553539Y1606990D01*
X1553143Y1610003D01*
X1551980Y1612810D01*
X1550130Y1615221D01*
X1547720Y1617071D01*
X1544912Y1618233D01*
X1541900Y1618630D01*
D02*
G37*
G36*
X1603250Y1347639D02*
X1603250Y1347639D01*
X1556500D01*
X1556500Y1347639D01*
X1554338Y1347209D01*
X1552506Y1345984D01*
X1550606Y1344085D01*
X1550606Y1344084D01*
X1549381Y1342252D01*
X1548951Y1340090D01*
Y1327580D01*
X1544600D01*
X1543609Y1327383D01*
X1542769Y1326822D01*
X1542207Y1325981D01*
X1542010Y1324990D01*
Y1304990D01*
X1542207Y1303999D01*
X1542769Y1303159D01*
X1543609Y1302598D01*
X1544600Y1302401D01*
X1548951D01*
Y1287580D01*
X1544600D01*
X1543609Y1287383D01*
X1542769Y1286822D01*
X1542207Y1285981D01*
X1542010Y1284990D01*
Y1280639D01*
X1472840D01*
X1470648Y1282830D01*
Y1306280D01*
X1470991Y1306348D01*
X1471831Y1306909D01*
X1472392Y1307749D01*
X1472590Y1308740D01*
Y1321240D01*
X1472392Y1322231D01*
X1471831Y1323072D01*
X1470991Y1323633D01*
X1470000Y1323830D01*
X1460000D01*
X1459009Y1323633D01*
X1458168Y1323072D01*
X1457607Y1322231D01*
X1457410Y1321240D01*
Y1308740D01*
X1457607Y1307749D01*
X1458168Y1306909D01*
X1459009Y1306348D01*
X1459351Y1306280D01*
Y1280491D01*
X1459351Y1280490D01*
X1459781Y1278329D01*
X1461006Y1276496D01*
X1461006Y1276496D01*
X1466506Y1270996D01*
X1468338Y1269772D01*
X1470500Y1269342D01*
X1470500Y1269342D01*
X1542010D01*
Y1264990D01*
X1542207Y1263999D01*
X1542769Y1263159D01*
X1543609Y1262598D01*
X1544600Y1262401D01*
X1564600D01*
X1565591Y1262598D01*
X1566431Y1263159D01*
X1566992Y1263999D01*
X1567189Y1264990D01*
Y1269830D01*
X1568459Y1270082D01*
X1569046Y1268666D01*
X1571056Y1266047D01*
X1573676Y1264037D01*
X1576726Y1262773D01*
X1580000Y1262342D01*
X1583273Y1262773D01*
X1586324Y1264037D01*
X1588943Y1266047D01*
X1590953Y1268666D01*
X1592012Y1271223D01*
X1593387D01*
X1594446Y1268666D01*
X1596456Y1266047D01*
X1599076Y1264037D01*
X1602126Y1262773D01*
X1605400Y1262342D01*
X1608673Y1262773D01*
X1611724Y1264037D01*
X1614343Y1266047D01*
X1616353Y1268666D01*
X1616633Y1269342D01*
X1689500D01*
X1689500Y1269342D01*
X1691661Y1269772D01*
X1693494Y1270996D01*
X1693494Y1270996D01*
X1698994Y1276496D01*
X1700218Y1278329D01*
X1700648Y1280490D01*
X1700648Y1280491D01*
Y1306280D01*
X1700991Y1306348D01*
X1701831Y1306909D01*
X1702392Y1307749D01*
X1702590Y1308740D01*
Y1321240D01*
X1702392Y1322231D01*
X1701831Y1323072D01*
X1700991Y1323633D01*
X1700000Y1323830D01*
X1690000D01*
X1689009Y1323633D01*
X1688168Y1323072D01*
X1687607Y1322231D01*
X1687410Y1321240D01*
Y1308740D01*
X1687607Y1307749D01*
X1688168Y1306909D01*
X1689009Y1306348D01*
X1689351Y1306280D01*
Y1282830D01*
X1687160Y1280639D01*
X1616633D01*
X1616353Y1281315D01*
X1614343Y1283934D01*
X1611724Y1285944D01*
X1611048Y1286224D01*
Y1303757D01*
X1611724Y1304037D01*
X1614343Y1306047D01*
X1616353Y1308666D01*
X1617617Y1311717D01*
X1618048Y1314990D01*
X1617617Y1318264D01*
X1616353Y1321315D01*
X1614343Y1323934D01*
X1611724Y1325944D01*
X1611048Y1326224D01*
Y1339840D01*
X1611048Y1339840D01*
X1610618Y1342002D01*
X1609394Y1343835D01*
X1607244Y1345984D01*
X1607244Y1345984D01*
X1605411Y1347209D01*
X1603250Y1347639D01*
D02*
G37*
G36*
X1450000Y1323830D02*
X1440000D01*
X1439009Y1323633D01*
X1438168Y1323072D01*
X1437607Y1322231D01*
X1437410Y1321240D01*
Y1308740D01*
X1437607Y1307749D01*
X1438168Y1306909D01*
X1439009Y1306348D01*
X1440000Y1306151D01*
X1440351D01*
Y1300659D01*
X1440310Y1300597D01*
X1439841Y1298240D01*
X1440310Y1295884D01*
X1441645Y1293886D01*
X1443643Y1292551D01*
X1446000Y1292082D01*
X1448356Y1292551D01*
X1450354Y1293886D01*
X1451689Y1295884D01*
X1452158Y1298240D01*
X1451689Y1300597D01*
X1451648Y1300659D01*
Y1306787D01*
X1451831Y1306909D01*
X1452392Y1307749D01*
X1452590Y1308740D01*
Y1321240D01*
X1452392Y1322231D01*
X1451831Y1323072D01*
X1450991Y1323633D01*
X1450000Y1323830D01*
D02*
G37*
G36*
X1720000D02*
X1710000D01*
X1709009Y1323633D01*
X1708168Y1323072D01*
X1707607Y1322231D01*
X1707410Y1321240D01*
Y1308740D01*
X1707607Y1307749D01*
X1708168Y1306909D01*
X1709009Y1306348D01*
X1709351Y1306280D01*
Y1297908D01*
X1709310Y1297847D01*
X1708841Y1295490D01*
X1709310Y1293134D01*
X1710645Y1291136D01*
X1712643Y1289801D01*
X1715000Y1289332D01*
X1717357Y1289801D01*
X1719354Y1291136D01*
X1720689Y1293134D01*
X1721158Y1295490D01*
X1720689Y1297847D01*
X1720648Y1297908D01*
Y1306280D01*
X1720991Y1306348D01*
X1721831Y1306909D01*
X1722392Y1307749D01*
X1722590Y1308740D01*
Y1321240D01*
X1722392Y1322231D01*
X1721831Y1323072D01*
X1720991Y1323633D01*
X1720000Y1323830D01*
D02*
G37*
%LPD*%
G36*
X1599751Y1326224D02*
X1599076Y1325944D01*
X1596456Y1323934D01*
X1594446Y1321315D01*
X1593387Y1318758D01*
X1592012D01*
X1590953Y1321315D01*
X1588943Y1323934D01*
X1586324Y1325944D01*
X1583273Y1327208D01*
X1580000Y1327639D01*
X1576726Y1327208D01*
X1573676Y1325944D01*
X1571056Y1323934D01*
X1569046Y1321315D01*
X1568459Y1319898D01*
X1567189Y1320151D01*
Y1324990D01*
X1566992Y1325981D01*
X1566431Y1326822D01*
X1565591Y1327383D01*
X1564600Y1327580D01*
X1560248D01*
Y1336342D01*
X1599751D01*
Y1326224D01*
D02*
G37*
G36*
X1594446Y1308666D02*
X1596456Y1306047D01*
X1599076Y1304037D01*
X1599751Y1303757D01*
Y1286224D01*
X1599076Y1285944D01*
X1596456Y1283934D01*
X1594446Y1281315D01*
X1593387Y1278758D01*
X1592012D01*
X1590953Y1281315D01*
X1588943Y1283934D01*
X1586324Y1285944D01*
X1583273Y1287208D01*
X1580000Y1287639D01*
X1576726Y1287208D01*
X1573676Y1285944D01*
X1571056Y1283934D01*
X1569046Y1281315D01*
X1568459Y1279898D01*
X1567189Y1280151D01*
Y1284990D01*
X1566992Y1285981D01*
X1566431Y1286822D01*
X1565591Y1287383D01*
X1564600Y1287580D01*
X1560248D01*
Y1302401D01*
X1564600D01*
X1565591Y1302598D01*
X1566431Y1303159D01*
X1566992Y1303999D01*
X1567189Y1304990D01*
Y1309830D01*
X1568459Y1310082D01*
X1569046Y1308666D01*
X1571056Y1306047D01*
X1573676Y1304037D01*
X1576726Y1302773D01*
X1580000Y1302342D01*
X1583273Y1302773D01*
X1586324Y1304037D01*
X1588943Y1306047D01*
X1590953Y1308666D01*
X1592012Y1311223D01*
X1593387D01*
X1594446Y1308666D01*
D02*
G37*
%LPC*%
G36*
X1158100Y1618630D02*
X1155087Y1618233D01*
X1152280Y1617071D01*
X1149869Y1615221D01*
X1148020Y1612810D01*
X1146857Y1610003D01*
X1146460Y1606990D01*
X1146857Y1603978D01*
X1148020Y1601171D01*
X1149869Y1598760D01*
X1152280Y1596910D01*
X1155087Y1595748D01*
X1158100Y1595351D01*
X1161112Y1595748D01*
X1163920Y1596910D01*
X1166330Y1598760D01*
X1168180Y1601171D01*
X1169343Y1603978D01*
X1169739Y1606990D01*
X1169343Y1610003D01*
X1168180Y1612810D01*
X1166330Y1615221D01*
X1163920Y1617071D01*
X1161112Y1618233D01*
X1158100Y1618630D01*
D02*
G37*
G36*
X1132700D02*
X1129687Y1618233D01*
X1126880Y1617071D01*
X1124469Y1615221D01*
X1122620Y1612810D01*
X1121457Y1610003D01*
X1121060Y1606990D01*
X1121457Y1603978D01*
X1122620Y1601171D01*
X1124469Y1598760D01*
X1126880Y1596910D01*
X1129687Y1595748D01*
X1132700Y1595351D01*
X1135712Y1595748D01*
X1138520Y1596910D01*
X1140930Y1598760D01*
X1142780Y1601171D01*
X1143943Y1603978D01*
X1144339Y1606990D01*
X1143943Y1610003D01*
X1142780Y1612810D01*
X1140930Y1615221D01*
X1138520Y1617071D01*
X1135712Y1618233D01*
X1132700Y1618630D01*
D02*
G37*
G36*
X1107300D02*
X1104287Y1618233D01*
X1101480Y1617071D01*
X1099069Y1615221D01*
X1097220Y1612810D01*
X1096057Y1610003D01*
X1095660Y1606990D01*
X1096057Y1603978D01*
X1097220Y1601171D01*
X1099069Y1598760D01*
X1101480Y1596910D01*
X1104287Y1595748D01*
X1107300Y1595351D01*
X1110312Y1595748D01*
X1113120Y1596910D01*
X1115530Y1598760D01*
X1117380Y1601171D01*
X1118543Y1603978D01*
X1118939Y1606990D01*
X1118543Y1610003D01*
X1117380Y1612810D01*
X1115530Y1615221D01*
X1113120Y1617071D01*
X1110312Y1618233D01*
X1107300Y1618630D01*
D02*
G37*
G36*
X1081900D02*
X1078887Y1618233D01*
X1076080Y1617071D01*
X1073669Y1615221D01*
X1071820Y1612810D01*
X1070657Y1610003D01*
X1070260Y1606990D01*
X1070657Y1603978D01*
X1071820Y1601171D01*
X1073669Y1598760D01*
X1076080Y1596910D01*
X1078887Y1595748D01*
X1081900Y1595351D01*
X1084912Y1595748D01*
X1087719Y1596910D01*
X1090130Y1598760D01*
X1091980Y1601171D01*
X1093143Y1603978D01*
X1093539Y1606990D01*
X1093143Y1610003D01*
X1091980Y1612810D01*
X1090130Y1615221D01*
X1087719Y1617071D01*
X1084912Y1618233D01*
X1081900Y1618630D01*
D02*
G37*
G36*
X1143250Y1347639D02*
X1143250Y1347639D01*
X1096500D01*
X1096500Y1347639D01*
X1094338Y1347209D01*
X1092506Y1345984D01*
X1090606Y1344085D01*
X1090606Y1344084D01*
X1089381Y1342252D01*
X1088951Y1340090D01*
Y1327580D01*
X1084600D01*
X1083609Y1327383D01*
X1082768Y1326822D01*
X1082207Y1325981D01*
X1082010Y1324990D01*
Y1304990D01*
X1082207Y1303999D01*
X1082768Y1303159D01*
X1083609Y1302598D01*
X1084600Y1302401D01*
X1088951D01*
Y1287580D01*
X1084600D01*
X1083609Y1287383D01*
X1082768Y1286822D01*
X1082207Y1285981D01*
X1082010Y1284990D01*
Y1280639D01*
X1012840D01*
X1010648Y1282830D01*
Y1306280D01*
X1010991Y1306348D01*
X1011831Y1306909D01*
X1012392Y1307749D01*
X1012589Y1308740D01*
Y1321240D01*
X1012392Y1322231D01*
X1011831Y1323072D01*
X1010991Y1323633D01*
X1010000Y1323830D01*
X1000000D01*
X999009Y1323633D01*
X998168Y1323072D01*
X997607Y1322231D01*
X997410Y1321240D01*
Y1308740D01*
X997607Y1307749D01*
X998168Y1306909D01*
X999009Y1306348D01*
X999351Y1306280D01*
Y1280491D01*
X999351Y1280490D01*
X999781Y1278329D01*
X1001006Y1276496D01*
X1001006Y1276496D01*
X1006506Y1270996D01*
X1008338Y1269772D01*
X1010500Y1269342D01*
X1010500Y1269342D01*
X1082010D01*
Y1264990D01*
X1082207Y1263999D01*
X1082768Y1263159D01*
X1083609Y1262598D01*
X1084600Y1262401D01*
X1104600D01*
X1105591Y1262598D01*
X1106431Y1263159D01*
X1106992Y1263999D01*
X1107189Y1264990D01*
Y1269830D01*
X1108459Y1270082D01*
X1109046Y1268666D01*
X1111056Y1266047D01*
X1113676Y1264037D01*
X1116726Y1262773D01*
X1120000Y1262342D01*
X1123273Y1262773D01*
X1126324Y1264037D01*
X1128943Y1266047D01*
X1130953Y1268666D01*
X1132012Y1271223D01*
X1133387D01*
X1134446Y1268666D01*
X1136456Y1266047D01*
X1139076Y1264037D01*
X1142126Y1262773D01*
X1145400Y1262342D01*
X1148673Y1262773D01*
X1151724Y1264037D01*
X1154343Y1266047D01*
X1156353Y1268666D01*
X1156633Y1269342D01*
X1229500D01*
X1229500Y1269342D01*
X1231661Y1269772D01*
X1233494Y1270996D01*
X1233494Y1270996D01*
X1238994Y1276496D01*
X1240218Y1278329D01*
X1240648Y1280490D01*
X1240648Y1280491D01*
Y1306280D01*
X1240991Y1306348D01*
X1241831Y1306909D01*
X1242392Y1307749D01*
X1242589Y1308740D01*
Y1321240D01*
X1242392Y1322231D01*
X1241831Y1323072D01*
X1240991Y1323633D01*
X1240000Y1323830D01*
X1230000D01*
X1229009Y1323633D01*
X1228168Y1323072D01*
X1227607Y1322231D01*
X1227410Y1321240D01*
Y1308740D01*
X1227607Y1307749D01*
X1228168Y1306909D01*
X1229009Y1306348D01*
X1229351Y1306280D01*
Y1282830D01*
X1227160Y1280639D01*
X1156633D01*
X1156353Y1281315D01*
X1154343Y1283934D01*
X1151724Y1285944D01*
X1151048Y1286224D01*
Y1303757D01*
X1151724Y1304037D01*
X1154343Y1306047D01*
X1156353Y1308666D01*
X1157617Y1311717D01*
X1158048Y1314990D01*
X1157617Y1318264D01*
X1156353Y1321315D01*
X1154343Y1323934D01*
X1151724Y1325944D01*
X1151048Y1326224D01*
Y1339840D01*
X1151048Y1339840D01*
X1150618Y1342002D01*
X1149394Y1343835D01*
X1147244Y1345984D01*
X1147244Y1345984D01*
X1145411Y1347209D01*
X1143250Y1347639D01*
D02*
G37*
G36*
X990000Y1323830D02*
X980000D01*
X979009Y1323633D01*
X978168Y1323072D01*
X977607Y1322231D01*
X977410Y1321240D01*
Y1308740D01*
X977607Y1307749D01*
X978168Y1306909D01*
X979009Y1306348D01*
X980000Y1306151D01*
X980351D01*
Y1300659D01*
X980310Y1300597D01*
X979841Y1298240D01*
X980310Y1295884D01*
X981645Y1293886D01*
X983643Y1292551D01*
X986000Y1292082D01*
X988356Y1292551D01*
X990354Y1293886D01*
X991689Y1295884D01*
X992158Y1298240D01*
X991689Y1300597D01*
X991648Y1300659D01*
Y1306787D01*
X991831Y1306909D01*
X992392Y1307749D01*
X992589Y1308740D01*
Y1321240D01*
X992392Y1322231D01*
X991831Y1323072D01*
X990991Y1323633D01*
X990000Y1323830D01*
D02*
G37*
G36*
X1260000D02*
X1250000D01*
X1249009Y1323633D01*
X1248168Y1323072D01*
X1247607Y1322231D01*
X1247410Y1321240D01*
Y1308740D01*
X1247607Y1307749D01*
X1248168Y1306909D01*
X1249009Y1306348D01*
X1249351Y1306280D01*
Y1297908D01*
X1249310Y1297847D01*
X1248841Y1295490D01*
X1249310Y1293134D01*
X1250645Y1291136D01*
X1252643Y1289801D01*
X1255000Y1289332D01*
X1257356Y1289801D01*
X1259354Y1291136D01*
X1260689Y1293134D01*
X1261158Y1295490D01*
X1260689Y1297847D01*
X1260648Y1297908D01*
Y1306280D01*
X1260991Y1306348D01*
X1261831Y1306909D01*
X1262392Y1307749D01*
X1262589Y1308740D01*
Y1321240D01*
X1262392Y1322231D01*
X1261831Y1323072D01*
X1260991Y1323633D01*
X1260000Y1323830D01*
D02*
G37*
%LPD*%
G36*
X1139751Y1326224D02*
X1139076Y1325944D01*
X1136456Y1323934D01*
X1134446Y1321315D01*
X1133387Y1318758D01*
X1132012D01*
X1130953Y1321315D01*
X1128943Y1323934D01*
X1126324Y1325944D01*
X1123273Y1327208D01*
X1120000Y1327639D01*
X1116726Y1327208D01*
X1113676Y1325944D01*
X1111056Y1323934D01*
X1109046Y1321315D01*
X1108459Y1319898D01*
X1107189Y1320151D01*
Y1324990D01*
X1106992Y1325981D01*
X1106431Y1326822D01*
X1105591Y1327383D01*
X1104600Y1327580D01*
X1100248D01*
Y1336342D01*
X1139751D01*
Y1326224D01*
D02*
G37*
G36*
X1134446Y1308666D02*
X1136456Y1306047D01*
X1139076Y1304037D01*
X1139751Y1303757D01*
Y1286224D01*
X1139076Y1285944D01*
X1136456Y1283934D01*
X1134446Y1281315D01*
X1133387Y1278758D01*
X1132012D01*
X1130953Y1281315D01*
X1128943Y1283934D01*
X1126324Y1285944D01*
X1123273Y1287208D01*
X1120000Y1287639D01*
X1116726Y1287208D01*
X1113676Y1285944D01*
X1111056Y1283934D01*
X1109046Y1281315D01*
X1108459Y1279898D01*
X1107189Y1280151D01*
Y1284990D01*
X1106992Y1285981D01*
X1106431Y1286822D01*
X1105591Y1287383D01*
X1104600Y1287580D01*
X1100248D01*
Y1302401D01*
X1104600D01*
X1105591Y1302598D01*
X1106431Y1303159D01*
X1106992Y1303999D01*
X1107189Y1304990D01*
Y1309830D01*
X1108459Y1310082D01*
X1109046Y1308666D01*
X1111056Y1306047D01*
X1113676Y1304037D01*
X1116726Y1302773D01*
X1120000Y1302342D01*
X1123273Y1302773D01*
X1126324Y1304037D01*
X1128943Y1306047D01*
X1130953Y1308666D01*
X1132012Y1311223D01*
X1133387D01*
X1134446Y1308666D01*
D02*
G37*
%LPC*%
G36*
X698100Y1618630D02*
X695087Y1618233D01*
X692280Y1617071D01*
X689869Y1615221D01*
X688020Y1612810D01*
X686857Y1610003D01*
X686460Y1606990D01*
X686857Y1603978D01*
X688020Y1601171D01*
X689869Y1598760D01*
X692280Y1596910D01*
X695087Y1595748D01*
X698100Y1595351D01*
X701112Y1595748D01*
X703920Y1596910D01*
X706330Y1598760D01*
X708180Y1601171D01*
X709343Y1603978D01*
X709739Y1606990D01*
X709343Y1610003D01*
X708180Y1612810D01*
X706330Y1615221D01*
X703920Y1617071D01*
X701112Y1618233D01*
X698100Y1618630D01*
D02*
G37*
G36*
X672700D02*
X669687Y1618233D01*
X666880Y1617071D01*
X664469Y1615221D01*
X662620Y1612810D01*
X661457Y1610003D01*
X661060Y1606990D01*
X661457Y1603978D01*
X662620Y1601171D01*
X664469Y1598760D01*
X666880Y1596910D01*
X669687Y1595748D01*
X672700Y1595351D01*
X675712Y1595748D01*
X678520Y1596910D01*
X680930Y1598760D01*
X682780Y1601171D01*
X683943Y1603978D01*
X684339Y1606990D01*
X683943Y1610003D01*
X682780Y1612810D01*
X680930Y1615221D01*
X678520Y1617071D01*
X675712Y1618233D01*
X672700Y1618630D01*
D02*
G37*
G36*
X647300D02*
X644287Y1618233D01*
X641480Y1617071D01*
X639069Y1615221D01*
X637220Y1612810D01*
X636057Y1610003D01*
X635660Y1606990D01*
X636057Y1603978D01*
X637220Y1601171D01*
X639069Y1598760D01*
X641480Y1596910D01*
X644287Y1595748D01*
X647300Y1595351D01*
X650312Y1595748D01*
X653120Y1596910D01*
X655530Y1598760D01*
X657380Y1601171D01*
X658543Y1603978D01*
X658939Y1606990D01*
X658543Y1610003D01*
X657380Y1612810D01*
X655530Y1615221D01*
X653120Y1617071D01*
X650312Y1618233D01*
X647300Y1618630D01*
D02*
G37*
G36*
X621900D02*
X618887Y1618233D01*
X616080Y1617071D01*
X613669Y1615221D01*
X611820Y1612810D01*
X610657Y1610003D01*
X610260Y1606990D01*
X610657Y1603978D01*
X611820Y1601171D01*
X613669Y1598760D01*
X616080Y1596910D01*
X618887Y1595748D01*
X621900Y1595351D01*
X624912Y1595748D01*
X627719Y1596910D01*
X630130Y1598760D01*
X631980Y1601171D01*
X633143Y1603978D01*
X633539Y1606990D01*
X633143Y1610003D01*
X631980Y1612810D01*
X630130Y1615221D01*
X627719Y1617071D01*
X624912Y1618233D01*
X621900Y1618630D01*
D02*
G37*
G36*
X683250Y1347639D02*
X683250Y1347639D01*
X636500D01*
X636500Y1347639D01*
X634338Y1347209D01*
X632506Y1345984D01*
X630606Y1344085D01*
X630606Y1344084D01*
X629381Y1342252D01*
X628951Y1340090D01*
Y1327580D01*
X624600D01*
X623609Y1327383D01*
X622769Y1326822D01*
X622207Y1325981D01*
X622010Y1324990D01*
Y1304990D01*
X622207Y1303999D01*
X622769Y1303159D01*
X623609Y1302598D01*
X624600Y1302401D01*
X628951D01*
Y1287580D01*
X624600D01*
X623609Y1287383D01*
X622769Y1286822D01*
X622207Y1285981D01*
X622010Y1284990D01*
Y1280639D01*
X552840D01*
X550648Y1282830D01*
Y1306280D01*
X550991Y1306348D01*
X551831Y1306909D01*
X552392Y1307749D01*
X552589Y1308740D01*
Y1321240D01*
X552392Y1322231D01*
X551831Y1323072D01*
X550991Y1323633D01*
X550000Y1323830D01*
X540000D01*
X539009Y1323633D01*
X538168Y1323072D01*
X537607Y1322231D01*
X537410Y1321240D01*
Y1308740D01*
X537607Y1307749D01*
X538168Y1306909D01*
X539009Y1306348D01*
X539351Y1306280D01*
Y1280491D01*
X539351Y1280490D01*
X539781Y1278329D01*
X541006Y1276496D01*
X541006Y1276496D01*
X546506Y1270996D01*
X548338Y1269772D01*
X550500Y1269342D01*
X550500Y1269342D01*
X622010D01*
Y1264990D01*
X622207Y1263999D01*
X622769Y1263159D01*
X623609Y1262598D01*
X624600Y1262401D01*
X644600D01*
X645591Y1262598D01*
X646431Y1263159D01*
X646992Y1263999D01*
X647189Y1264990D01*
Y1269830D01*
X648459Y1270082D01*
X649046Y1268666D01*
X651056Y1266047D01*
X653676Y1264037D01*
X656726Y1262773D01*
X660000Y1262342D01*
X663273Y1262773D01*
X666324Y1264037D01*
X668943Y1266047D01*
X670953Y1268666D01*
X672012Y1271223D01*
X673387D01*
X674446Y1268666D01*
X676456Y1266047D01*
X679076Y1264037D01*
X682126Y1262773D01*
X685400Y1262342D01*
X688673Y1262773D01*
X691724Y1264037D01*
X694343Y1266047D01*
X696353Y1268666D01*
X696633Y1269342D01*
X769500D01*
X769500Y1269342D01*
X771661Y1269772D01*
X773494Y1270996D01*
X773494Y1270996D01*
X778994Y1276496D01*
X780218Y1278329D01*
X780648Y1280490D01*
X780648Y1280491D01*
Y1306280D01*
X780991Y1306348D01*
X781831Y1306909D01*
X782392Y1307749D01*
X782589Y1308740D01*
Y1321240D01*
X782392Y1322231D01*
X781831Y1323072D01*
X780991Y1323633D01*
X780000Y1323830D01*
X770000D01*
X769009Y1323633D01*
X768168Y1323072D01*
X767607Y1322231D01*
X767410Y1321240D01*
Y1308740D01*
X767607Y1307749D01*
X768168Y1306909D01*
X769009Y1306348D01*
X769351Y1306280D01*
Y1282830D01*
X767160Y1280639D01*
X696633D01*
X696353Y1281315D01*
X694343Y1283934D01*
X691724Y1285944D01*
X691048Y1286224D01*
Y1303757D01*
X691724Y1304037D01*
X694343Y1306047D01*
X696353Y1308666D01*
X697617Y1311717D01*
X698048Y1314990D01*
X697617Y1318264D01*
X696353Y1321315D01*
X694343Y1323934D01*
X691724Y1325944D01*
X691048Y1326224D01*
Y1339840D01*
X691048Y1339840D01*
X690618Y1342002D01*
X689394Y1343835D01*
X687244Y1345984D01*
X687244Y1345984D01*
X685411Y1347209D01*
X683250Y1347639D01*
D02*
G37*
G36*
X530000Y1323830D02*
X520000D01*
X519009Y1323633D01*
X518168Y1323072D01*
X517607Y1322231D01*
X517410Y1321240D01*
Y1308740D01*
X517607Y1307749D01*
X518168Y1306909D01*
X519009Y1306348D01*
X520000Y1306151D01*
X520351D01*
Y1300659D01*
X520310Y1300597D01*
X519841Y1298240D01*
X520310Y1295884D01*
X521645Y1293886D01*
X523643Y1292551D01*
X526000Y1292082D01*
X528357Y1292551D01*
X530354Y1293886D01*
X531689Y1295884D01*
X532158Y1298240D01*
X531689Y1300597D01*
X531648Y1300659D01*
Y1306787D01*
X531831Y1306909D01*
X532392Y1307749D01*
X532589Y1308740D01*
Y1321240D01*
X532392Y1322231D01*
X531831Y1323072D01*
X530991Y1323633D01*
X530000Y1323830D01*
D02*
G37*
G36*
X800000D02*
X790000D01*
X789009Y1323633D01*
X788169Y1323072D01*
X787607Y1322231D01*
X787410Y1321240D01*
Y1308740D01*
X787607Y1307749D01*
X788169Y1306909D01*
X789009Y1306348D01*
X789351Y1306280D01*
Y1297908D01*
X789310Y1297847D01*
X788841Y1295490D01*
X789310Y1293134D01*
X790645Y1291136D01*
X792643Y1289801D01*
X795000Y1289332D01*
X797356Y1289801D01*
X799354Y1291136D01*
X800689Y1293134D01*
X801158Y1295490D01*
X800689Y1297847D01*
X800648Y1297908D01*
Y1306280D01*
X800991Y1306348D01*
X801831Y1306909D01*
X802392Y1307749D01*
X802589Y1308740D01*
Y1321240D01*
X802392Y1322231D01*
X801831Y1323072D01*
X800991Y1323633D01*
X800000Y1323830D01*
D02*
G37*
%LPD*%
G36*
X679751Y1326224D02*
X679076Y1325944D01*
X676456Y1323934D01*
X674446Y1321315D01*
X673387Y1318758D01*
X672012D01*
X670953Y1321315D01*
X668943Y1323934D01*
X666324Y1325944D01*
X663273Y1327208D01*
X660000Y1327639D01*
X656726Y1327208D01*
X653676Y1325944D01*
X651056Y1323934D01*
X649046Y1321315D01*
X648459Y1319898D01*
X647189Y1320151D01*
Y1324990D01*
X646992Y1325981D01*
X646431Y1326822D01*
X645591Y1327383D01*
X644600Y1327580D01*
X640248D01*
Y1336342D01*
X679751D01*
Y1326224D01*
D02*
G37*
G36*
X674446Y1308666D02*
X676456Y1306047D01*
X679076Y1304037D01*
X679751Y1303757D01*
Y1286224D01*
X679076Y1285944D01*
X676456Y1283934D01*
X674446Y1281315D01*
X673387Y1278758D01*
X672012D01*
X670953Y1281315D01*
X668943Y1283934D01*
X666324Y1285944D01*
X663273Y1287208D01*
X660000Y1287639D01*
X656726Y1287208D01*
X653676Y1285944D01*
X651056Y1283934D01*
X649046Y1281315D01*
X648459Y1279898D01*
X647189Y1280151D01*
Y1284990D01*
X646992Y1285981D01*
X646431Y1286822D01*
X645591Y1287383D01*
X644600Y1287580D01*
X640248D01*
Y1302401D01*
X644600D01*
X645591Y1302598D01*
X646431Y1303159D01*
X646992Y1303999D01*
X647189Y1304990D01*
Y1309830D01*
X648459Y1310082D01*
X649046Y1308666D01*
X651056Y1306047D01*
X653676Y1304037D01*
X656726Y1302773D01*
X660000Y1302342D01*
X663273Y1302773D01*
X666324Y1304037D01*
X668943Y1306047D01*
X670953Y1308666D01*
X672012Y1311223D01*
X673387D01*
X674446Y1308666D01*
D02*
G37*
%LPC*%
G36*
X238100Y1618630D02*
X235087Y1618233D01*
X232280Y1617071D01*
X229869Y1615221D01*
X228020Y1612810D01*
X226857Y1610003D01*
X226460Y1606990D01*
X226857Y1603978D01*
X228020Y1601171D01*
X229869Y1598760D01*
X232280Y1596910D01*
X235087Y1595748D01*
X238100Y1595351D01*
X241112Y1595748D01*
X243920Y1596910D01*
X246330Y1598760D01*
X248180Y1601171D01*
X249343Y1603978D01*
X249739Y1606990D01*
X249343Y1610003D01*
X248180Y1612810D01*
X246330Y1615221D01*
X243920Y1617071D01*
X241112Y1618233D01*
X238100Y1618630D01*
D02*
G37*
G36*
X212700D02*
X209687Y1618233D01*
X206880Y1617071D01*
X204469Y1615221D01*
X202620Y1612810D01*
X201457Y1610003D01*
X201060Y1606990D01*
X201457Y1603978D01*
X202620Y1601171D01*
X204469Y1598760D01*
X206880Y1596910D01*
X209687Y1595748D01*
X212700Y1595351D01*
X215712Y1595748D01*
X218520Y1596910D01*
X220930Y1598760D01*
X222780Y1601171D01*
X223943Y1603978D01*
X224339Y1606990D01*
X223943Y1610003D01*
X222780Y1612810D01*
X220930Y1615221D01*
X218520Y1617071D01*
X215712Y1618233D01*
X212700Y1618630D01*
D02*
G37*
G36*
X187300D02*
X184287Y1618233D01*
X181480Y1617071D01*
X179069Y1615221D01*
X177220Y1612810D01*
X176057Y1610003D01*
X175660Y1606990D01*
X176057Y1603978D01*
X177220Y1601171D01*
X179069Y1598760D01*
X181480Y1596910D01*
X184287Y1595748D01*
X187300Y1595351D01*
X190312Y1595748D01*
X193120Y1596910D01*
X195530Y1598760D01*
X197380Y1601171D01*
X198543Y1603978D01*
X198939Y1606990D01*
X198543Y1610003D01*
X197380Y1612810D01*
X195530Y1615221D01*
X193120Y1617071D01*
X190312Y1618233D01*
X187300Y1618630D01*
D02*
G37*
G36*
X161900D02*
X158887Y1618233D01*
X156080Y1617071D01*
X153669Y1615221D01*
X151820Y1612810D01*
X150657Y1610003D01*
X150260Y1606990D01*
X150657Y1603978D01*
X151820Y1601171D01*
X153669Y1598760D01*
X156080Y1596910D01*
X158887Y1595748D01*
X161900Y1595351D01*
X164912Y1595748D01*
X167720Y1596910D01*
X170130Y1598760D01*
X171980Y1601171D01*
X173143Y1603978D01*
X173539Y1606990D01*
X173143Y1610003D01*
X171980Y1612810D01*
X170130Y1615221D01*
X167720Y1617071D01*
X164912Y1618233D01*
X161900Y1618630D01*
D02*
G37*
G36*
X223250Y1347639D02*
X223250Y1347639D01*
X176500D01*
X176500Y1347639D01*
X174338Y1347209D01*
X172506Y1345984D01*
X170606Y1344085D01*
X170606Y1344084D01*
X169381Y1342252D01*
X168951Y1340090D01*
Y1327580D01*
X164600D01*
X163609Y1327383D01*
X162768Y1326822D01*
X162207Y1325981D01*
X162010Y1324990D01*
Y1304990D01*
X162207Y1303999D01*
X162768Y1303159D01*
X163609Y1302598D01*
X164600Y1302401D01*
X168951D01*
Y1287580D01*
X164600D01*
X163609Y1287383D01*
X162768Y1286822D01*
X162207Y1285981D01*
X162010Y1284990D01*
Y1280639D01*
X92839D01*
X90648Y1282830D01*
Y1306280D01*
X90991Y1306348D01*
X91831Y1306909D01*
X92392Y1307749D01*
X92590Y1308740D01*
Y1321240D01*
X92392Y1322231D01*
X91831Y1323072D01*
X90991Y1323633D01*
X90000Y1323830D01*
X80000D01*
X79009Y1323633D01*
X78169Y1323072D01*
X77607Y1322231D01*
X77410Y1321240D01*
Y1308740D01*
X77607Y1307749D01*
X78169Y1306909D01*
X79009Y1306348D01*
X79351Y1306280D01*
Y1280491D01*
X79351Y1280490D01*
X79781Y1278329D01*
X81006Y1276496D01*
X81006Y1276496D01*
X86506Y1270996D01*
X88338Y1269772D01*
X90500Y1269342D01*
X90500Y1269342D01*
X162010D01*
Y1264990D01*
X162207Y1263999D01*
X162768Y1263159D01*
X163609Y1262598D01*
X164600Y1262401D01*
X184600D01*
X185591Y1262598D01*
X186431Y1263159D01*
X186992Y1263999D01*
X187190Y1264990D01*
Y1269830D01*
X188459Y1270082D01*
X189046Y1268666D01*
X191056Y1266047D01*
X193676Y1264037D01*
X196726Y1262773D01*
X200000Y1262342D01*
X203273Y1262773D01*
X206324Y1264037D01*
X208943Y1266047D01*
X210954Y1268666D01*
X212013Y1271223D01*
X213387D01*
X214446Y1268666D01*
X216456Y1266047D01*
X219076Y1264037D01*
X222126Y1262773D01*
X225400Y1262342D01*
X228673Y1262773D01*
X231724Y1264037D01*
X234343Y1266047D01*
X236353Y1268666D01*
X236633Y1269342D01*
X309500D01*
X309500Y1269342D01*
X311661Y1269772D01*
X313494Y1270996D01*
X313494Y1270996D01*
X318994Y1276496D01*
X320218Y1278329D01*
X320648Y1280490D01*
X320648Y1280491D01*
Y1306280D01*
X320991Y1306348D01*
X321831Y1306909D01*
X322392Y1307749D01*
X322589Y1308740D01*
Y1321240D01*
X322392Y1322231D01*
X321831Y1323072D01*
X320991Y1323633D01*
X320000Y1323830D01*
X310000D01*
X309009Y1323633D01*
X308169Y1323072D01*
X307607Y1322231D01*
X307410Y1321240D01*
Y1308740D01*
X307607Y1307749D01*
X308169Y1306909D01*
X309009Y1306348D01*
X309351Y1306280D01*
Y1282830D01*
X307160Y1280639D01*
X236633D01*
X236353Y1281315D01*
X234343Y1283934D01*
X231724Y1285944D01*
X231048Y1286224D01*
Y1303757D01*
X231724Y1304037D01*
X234343Y1306047D01*
X236353Y1308666D01*
X237617Y1311717D01*
X238048Y1314990D01*
X237617Y1318264D01*
X236353Y1321315D01*
X234343Y1323934D01*
X231724Y1325944D01*
X231048Y1326224D01*
Y1339840D01*
X231048Y1339840D01*
X230618Y1342002D01*
X229394Y1343835D01*
X227244Y1345984D01*
X227244Y1345984D01*
X225411Y1347209D01*
X223250Y1347639D01*
D02*
G37*
G36*
X70000Y1323830D02*
X60000D01*
X59009Y1323633D01*
X58169Y1323072D01*
X57607Y1322231D01*
X57410Y1321240D01*
Y1308740D01*
X57607Y1307749D01*
X58169Y1306909D01*
X59009Y1306348D01*
X60000Y1306151D01*
X60351D01*
Y1300659D01*
X60310Y1300597D01*
X59841Y1298240D01*
X60310Y1295884D01*
X61645Y1293886D01*
X63643Y1292551D01*
X66000Y1292082D01*
X68356Y1292551D01*
X70354Y1293886D01*
X71689Y1295884D01*
X72158Y1298240D01*
X71689Y1300597D01*
X71648Y1300659D01*
Y1306787D01*
X71831Y1306909D01*
X72392Y1307749D01*
X72590Y1308740D01*
Y1321240D01*
X72392Y1322231D01*
X71831Y1323072D01*
X70991Y1323633D01*
X70000Y1323830D01*
D02*
G37*
G36*
X340000D02*
X330000D01*
X329009Y1323633D01*
X328169Y1323072D01*
X327607Y1322231D01*
X327410Y1321240D01*
Y1308740D01*
X327607Y1307749D01*
X328169Y1306909D01*
X329009Y1306348D01*
X329351Y1306280D01*
Y1297908D01*
X329310Y1297847D01*
X328842Y1295490D01*
X329310Y1293134D01*
X330645Y1291136D01*
X332643Y1289801D01*
X335000Y1289332D01*
X337356Y1289801D01*
X339354Y1291136D01*
X340689Y1293134D01*
X341158Y1295490D01*
X340689Y1297847D01*
X340648Y1297908D01*
Y1306280D01*
X340991Y1306348D01*
X341831Y1306909D01*
X342392Y1307749D01*
X342589Y1308740D01*
Y1321240D01*
X342392Y1322231D01*
X341831Y1323072D01*
X340991Y1323633D01*
X340000Y1323830D01*
D02*
G37*
%LPD*%
G36*
X219751Y1326224D02*
X219076Y1325944D01*
X216456Y1323934D01*
X214446Y1321315D01*
X213387Y1318758D01*
X212013D01*
X210954Y1321315D01*
X208943Y1323934D01*
X206324Y1325944D01*
X203273Y1327208D01*
X200000Y1327639D01*
X196726Y1327208D01*
X193676Y1325944D01*
X191056Y1323934D01*
X189046Y1321315D01*
X188459Y1319898D01*
X187190Y1320151D01*
Y1324990D01*
X186992Y1325981D01*
X186431Y1326822D01*
X185591Y1327383D01*
X184600Y1327580D01*
X180248D01*
Y1336342D01*
X219751D01*
Y1326224D01*
D02*
G37*
G36*
X214446Y1308666D02*
X216456Y1306047D01*
X219076Y1304037D01*
X219751Y1303757D01*
Y1286224D01*
X219076Y1285944D01*
X216456Y1283934D01*
X214446Y1281315D01*
X213387Y1278758D01*
X212013D01*
X210954Y1281315D01*
X208943Y1283934D01*
X206324Y1285944D01*
X203273Y1287208D01*
X200000Y1287639D01*
X196726Y1287208D01*
X193676Y1285944D01*
X191056Y1283934D01*
X189046Y1281315D01*
X188459Y1279898D01*
X187190Y1280151D01*
Y1284990D01*
X186992Y1285981D01*
X186431Y1286822D01*
X185591Y1287383D01*
X184600Y1287580D01*
X180248D01*
Y1302401D01*
X184600D01*
X185591Y1302598D01*
X186431Y1303159D01*
X186992Y1303999D01*
X187190Y1304990D01*
Y1309830D01*
X188459Y1310082D01*
X189046Y1308666D01*
X191056Y1306047D01*
X193676Y1304037D01*
X196726Y1302773D01*
X200000Y1302342D01*
X203273Y1302773D01*
X206324Y1304037D01*
X208943Y1306047D01*
X210954Y1308666D01*
X212013Y1311223D01*
X213387D01*
X214446Y1308666D01*
D02*
G37*
%LPC*%
G36*
X1350000Y1737658D02*
X1346727Y1737227D01*
X1343676Y1735963D01*
X1341056Y1733953D01*
X1339046Y1731334D01*
X1337987Y1728777D01*
X1336613D01*
X1335554Y1731334D01*
X1333544Y1733953D01*
X1330924Y1735963D01*
X1327874Y1737227D01*
X1324600Y1737658D01*
X1321326Y1737227D01*
X1318276Y1735963D01*
X1315656Y1733953D01*
X1313646Y1731334D01*
X1313367Y1730658D01*
X1240500D01*
X1240500Y1730658D01*
X1238338Y1730228D01*
X1236506Y1729004D01*
X1236506Y1729004D01*
X1231006Y1723504D01*
X1229781Y1721671D01*
X1229352Y1719510D01*
X1229352Y1719509D01*
Y1693720D01*
X1229009Y1693652D01*
X1228169Y1693091D01*
X1227607Y1692251D01*
X1227410Y1691260D01*
Y1678760D01*
X1227607Y1677769D01*
X1228169Y1676928D01*
X1229009Y1676367D01*
X1230000Y1676170D01*
X1240000D01*
X1240991Y1676367D01*
X1241831Y1676928D01*
X1242393Y1677769D01*
X1242590Y1678760D01*
Y1691260D01*
X1242393Y1692251D01*
X1241831Y1693091D01*
X1240991Y1693652D01*
X1240649Y1693720D01*
Y1717170D01*
X1242840Y1719361D01*
X1313367D01*
X1313646Y1718685D01*
X1315656Y1716066D01*
X1318276Y1714056D01*
X1318952Y1713776D01*
Y1696243D01*
X1318276Y1695963D01*
X1315656Y1693953D01*
X1313646Y1691334D01*
X1312383Y1688283D01*
X1311952Y1685010D01*
X1312383Y1681736D01*
X1313646Y1678685D01*
X1315656Y1676066D01*
X1318276Y1674056D01*
X1318952Y1673776D01*
Y1660160D01*
X1318952Y1660160D01*
X1319382Y1657998D01*
X1320606Y1656165D01*
X1322756Y1654016D01*
X1322756Y1654016D01*
X1324588Y1652791D01*
X1326750Y1652361D01*
X1326750Y1652361D01*
X1373500D01*
X1373500Y1652361D01*
X1375662Y1652791D01*
X1377494Y1654016D01*
X1379394Y1655916D01*
X1379394Y1655916D01*
X1380619Y1657748D01*
X1381049Y1659910D01*
Y1672420D01*
X1385400D01*
X1386391Y1672617D01*
X1387231Y1673178D01*
X1387793Y1674019D01*
X1387990Y1675010D01*
Y1695010D01*
X1387793Y1696001D01*
X1387231Y1696841D01*
X1386391Y1697402D01*
X1385400Y1697599D01*
X1381049D01*
Y1712420D01*
X1385400D01*
X1386391Y1712617D01*
X1387231Y1713178D01*
X1387793Y1714019D01*
X1387990Y1715010D01*
Y1719361D01*
X1457160D01*
X1459352Y1717170D01*
Y1693720D01*
X1459009Y1693652D01*
X1458169Y1693091D01*
X1457607Y1692251D01*
X1457410Y1691260D01*
Y1678760D01*
X1457607Y1677769D01*
X1458169Y1676928D01*
X1459009Y1676367D01*
X1460000Y1676170D01*
X1470000D01*
X1470991Y1676367D01*
X1471831Y1676928D01*
X1472393Y1677769D01*
X1472590Y1678760D01*
Y1691260D01*
X1472393Y1692251D01*
X1471831Y1693091D01*
X1470991Y1693652D01*
X1470649Y1693720D01*
Y1719509D01*
X1470649Y1719510D01*
X1470219Y1721671D01*
X1468994Y1723504D01*
X1468994Y1723504D01*
X1463494Y1729004D01*
X1461662Y1730228D01*
X1459500Y1730658D01*
X1459500Y1730658D01*
X1387990D01*
Y1735010D01*
X1387793Y1736001D01*
X1387231Y1736841D01*
X1386391Y1737402D01*
X1385400Y1737599D01*
X1365400D01*
X1364409Y1737402D01*
X1363569Y1736841D01*
X1363007Y1736001D01*
X1362810Y1735010D01*
Y1730170D01*
X1361540Y1729918D01*
X1360954Y1731334D01*
X1358944Y1733953D01*
X1356324Y1735963D01*
X1353274Y1737227D01*
X1350000Y1737658D01*
D02*
G37*
G36*
X1484000Y1707918D02*
X1481643Y1707449D01*
X1479646Y1706114D01*
X1478311Y1704116D01*
X1477842Y1701760D01*
X1478311Y1699403D01*
X1478351Y1699342D01*
Y1693213D01*
X1478169Y1693091D01*
X1477608Y1692251D01*
X1477410Y1691260D01*
Y1678760D01*
X1477608Y1677769D01*
X1478169Y1676928D01*
X1479009Y1676367D01*
X1480000Y1676170D01*
X1490000D01*
X1490991Y1676367D01*
X1491831Y1676928D01*
X1492393Y1677769D01*
X1492590Y1678760D01*
Y1691260D01*
X1492393Y1692251D01*
X1491831Y1693091D01*
X1490991Y1693652D01*
X1490000Y1693849D01*
X1489649D01*
Y1699342D01*
X1489690Y1699403D01*
X1490158Y1701760D01*
X1489690Y1704116D01*
X1488355Y1706114D01*
X1486357Y1707449D01*
X1484000Y1707918D01*
D02*
G37*
G36*
X1215000Y1710668D02*
X1212643Y1710199D01*
X1210646Y1708864D01*
X1209311Y1706866D01*
X1208842Y1704510D01*
X1209311Y1702153D01*
X1209352Y1702092D01*
Y1693720D01*
X1209009Y1693652D01*
X1208169Y1693091D01*
X1207607Y1692251D01*
X1207410Y1691260D01*
Y1678760D01*
X1207607Y1677769D01*
X1208169Y1676928D01*
X1209009Y1676367D01*
X1210000Y1676170D01*
X1220000D01*
X1220991Y1676367D01*
X1221831Y1676928D01*
X1222393Y1677769D01*
X1222590Y1678760D01*
Y1691260D01*
X1222393Y1692251D01*
X1221831Y1693091D01*
X1220991Y1693652D01*
X1220649Y1693720D01*
Y1702092D01*
X1220690Y1702153D01*
X1221158Y1704510D01*
X1220690Y1706866D01*
X1219355Y1708864D01*
X1217357Y1710199D01*
X1215000Y1710668D01*
D02*
G37*
G36*
X1388100Y1404649D02*
X1385087Y1404253D01*
X1382280Y1403090D01*
X1379870Y1401240D01*
X1378020Y1398829D01*
X1376857Y1396022D01*
X1376461Y1393010D01*
X1376857Y1389997D01*
X1378020Y1387190D01*
X1379870Y1384779D01*
X1382280Y1382930D01*
X1385087Y1381767D01*
X1388100Y1381370D01*
X1391113Y1381767D01*
X1393920Y1382930D01*
X1396331Y1384779D01*
X1398180Y1387190D01*
X1399343Y1389997D01*
X1399740Y1393010D01*
X1399343Y1396022D01*
X1398180Y1398829D01*
X1396331Y1401240D01*
X1393920Y1403090D01*
X1391113Y1404253D01*
X1388100Y1404649D01*
D02*
G37*
G36*
X1362700D02*
X1359688Y1404253D01*
X1356880Y1403090D01*
X1354470Y1401240D01*
X1352620Y1398829D01*
X1351457Y1396022D01*
X1351060Y1393010D01*
X1351457Y1389997D01*
X1352620Y1387190D01*
X1354470Y1384779D01*
X1356880Y1382930D01*
X1359688Y1381767D01*
X1362700Y1381370D01*
X1365713Y1381767D01*
X1368520Y1382930D01*
X1370930Y1384779D01*
X1372780Y1387190D01*
X1373943Y1389997D01*
X1374340Y1393010D01*
X1373943Y1396022D01*
X1372780Y1398829D01*
X1370930Y1401240D01*
X1368520Y1403090D01*
X1365713Y1404253D01*
X1362700Y1404649D01*
D02*
G37*
G36*
X1337300D02*
X1334288Y1404253D01*
X1331480Y1403090D01*
X1329070Y1401240D01*
X1327220Y1398829D01*
X1326057Y1396022D01*
X1325661Y1393010D01*
X1326057Y1389997D01*
X1327220Y1387190D01*
X1329070Y1384779D01*
X1331480Y1382930D01*
X1334288Y1381767D01*
X1337300Y1381370D01*
X1340313Y1381767D01*
X1343120Y1382930D01*
X1345531Y1384779D01*
X1347380Y1387190D01*
X1348543Y1389997D01*
X1348940Y1393010D01*
X1348543Y1396022D01*
X1347380Y1398829D01*
X1345531Y1401240D01*
X1343120Y1403090D01*
X1340313Y1404253D01*
X1337300Y1404649D01*
D02*
G37*
G36*
X1311900D02*
X1308887Y1404253D01*
X1306080Y1403090D01*
X1303670Y1401240D01*
X1301820Y1398829D01*
X1300657Y1396022D01*
X1300260Y1393010D01*
X1300657Y1389997D01*
X1301820Y1387190D01*
X1303670Y1384779D01*
X1306080Y1382930D01*
X1308887Y1381767D01*
X1311900Y1381370D01*
X1314913Y1381767D01*
X1317720Y1382930D01*
X1320130Y1384779D01*
X1321980Y1387190D01*
X1323143Y1389997D01*
X1323540Y1393010D01*
X1323143Y1396022D01*
X1321980Y1398829D01*
X1320130Y1401240D01*
X1317720Y1403090D01*
X1314913Y1404253D01*
X1311900Y1404649D01*
D02*
G37*
%LPD*%
G36*
X1339046Y1718685D02*
X1341056Y1716066D01*
X1343676Y1714056D01*
X1346727Y1712792D01*
X1350000Y1712361D01*
X1353274Y1712792D01*
X1356324Y1714056D01*
X1358944Y1716066D01*
X1360954Y1718685D01*
X1361540Y1720102D01*
X1362810Y1719849D01*
Y1715010D01*
X1363007Y1714019D01*
X1363569Y1713178D01*
X1364409Y1712617D01*
X1365400Y1712420D01*
X1369751D01*
Y1697599D01*
X1365400D01*
X1364409Y1697402D01*
X1363569Y1696841D01*
X1363007Y1696001D01*
X1362810Y1695010D01*
Y1690170D01*
X1361540Y1689918D01*
X1360954Y1691334D01*
X1358944Y1693953D01*
X1356324Y1695963D01*
X1353274Y1697227D01*
X1350000Y1697658D01*
X1346727Y1697227D01*
X1343676Y1695963D01*
X1341056Y1693953D01*
X1339046Y1691334D01*
X1337987Y1688777D01*
X1336613D01*
X1335554Y1691334D01*
X1333544Y1693953D01*
X1330924Y1695963D01*
X1330249Y1696243D01*
Y1713776D01*
X1330924Y1714056D01*
X1333544Y1716066D01*
X1335554Y1718685D01*
X1336613Y1721242D01*
X1337987D01*
X1339046Y1718685D01*
D02*
G37*
G36*
Y1678685D02*
X1341056Y1676066D01*
X1343676Y1674056D01*
X1346727Y1672792D01*
X1350000Y1672361D01*
X1353274Y1672792D01*
X1356324Y1674056D01*
X1358944Y1676066D01*
X1360954Y1678685D01*
X1361540Y1680102D01*
X1362810Y1679849D01*
Y1675010D01*
X1363007Y1674019D01*
X1363569Y1673178D01*
X1364409Y1672617D01*
X1365400Y1672420D01*
X1369751D01*
Y1663658D01*
X1330249D01*
Y1673776D01*
X1330924Y1674056D01*
X1333544Y1676066D01*
X1335554Y1678685D01*
X1336613Y1681242D01*
X1337987D01*
X1339046Y1678685D01*
D02*
G37*
%LPC*%
G36*
X890000Y1737658D02*
X886727Y1737227D01*
X883676Y1735963D01*
X881056Y1733953D01*
X879046Y1731334D01*
X877987Y1728777D01*
X876613D01*
X875554Y1731334D01*
X873544Y1733953D01*
X870924Y1735963D01*
X867874Y1737227D01*
X864600Y1737658D01*
X861327Y1737227D01*
X858276Y1735963D01*
X855656Y1733953D01*
X853646Y1731334D01*
X853367Y1730658D01*
X780500D01*
X780500Y1730658D01*
X778338Y1730228D01*
X776506Y1729004D01*
X776506Y1729004D01*
X771006Y1723504D01*
X769781Y1721671D01*
X769352Y1719510D01*
X769352Y1719509D01*
Y1693720D01*
X769009Y1693652D01*
X768169Y1693091D01*
X767607Y1692251D01*
X767410Y1691260D01*
Y1678760D01*
X767607Y1677769D01*
X768169Y1676928D01*
X769009Y1676367D01*
X770000Y1676170D01*
X780000D01*
X780991Y1676367D01*
X781831Y1676928D01*
X782393Y1677769D01*
X782590Y1678760D01*
Y1691260D01*
X782393Y1692251D01*
X781831Y1693091D01*
X780991Y1693652D01*
X780649Y1693720D01*
Y1717170D01*
X782840Y1719361D01*
X853367D01*
X853646Y1718685D01*
X855656Y1716066D01*
X858276Y1714056D01*
X858951Y1713776D01*
Y1696243D01*
X858276Y1695963D01*
X855656Y1693953D01*
X853646Y1691334D01*
X852383Y1688283D01*
X851952Y1685010D01*
X852383Y1681736D01*
X853646Y1678685D01*
X855656Y1676066D01*
X858276Y1674056D01*
X858951Y1673776D01*
Y1660160D01*
X858951Y1660160D01*
X859381Y1657998D01*
X860606Y1656165D01*
X862756Y1654016D01*
X862756Y1654016D01*
X864588Y1652791D01*
X866750Y1652361D01*
X866750Y1652361D01*
X913500D01*
X913500Y1652361D01*
X915662Y1652791D01*
X917494Y1654016D01*
X919394Y1655916D01*
X919394Y1655916D01*
X920619Y1657748D01*
X921049Y1659910D01*
Y1672420D01*
X925400D01*
X926391Y1672617D01*
X927231Y1673178D01*
X927793Y1674019D01*
X927990Y1675010D01*
Y1695010D01*
X927793Y1696001D01*
X927231Y1696841D01*
X926391Y1697402D01*
X925400Y1697599D01*
X921049D01*
Y1712420D01*
X925400D01*
X926391Y1712617D01*
X927231Y1713178D01*
X927793Y1714019D01*
X927990Y1715010D01*
Y1719361D01*
X997160D01*
X999352Y1717170D01*
Y1693720D01*
X999009Y1693652D01*
X998169Y1693091D01*
X997607Y1692251D01*
X997410Y1691260D01*
Y1678760D01*
X997607Y1677769D01*
X998169Y1676928D01*
X999009Y1676367D01*
X1000000Y1676170D01*
X1010000D01*
X1010991Y1676367D01*
X1011831Y1676928D01*
X1012393Y1677769D01*
X1012590Y1678760D01*
Y1691260D01*
X1012393Y1692251D01*
X1011831Y1693091D01*
X1010991Y1693652D01*
X1010649Y1693720D01*
Y1719509D01*
X1010649Y1719510D01*
X1010219Y1721671D01*
X1008994Y1723504D01*
X1008994Y1723504D01*
X1003494Y1729004D01*
X1001662Y1730228D01*
X999500Y1730658D01*
X999500Y1730658D01*
X927990D01*
Y1735010D01*
X927793Y1736001D01*
X927231Y1736841D01*
X926391Y1737402D01*
X925400Y1737599D01*
X905400D01*
X904409Y1737402D01*
X903569Y1736841D01*
X903007Y1736001D01*
X902810Y1735010D01*
Y1730170D01*
X901540Y1729918D01*
X900954Y1731334D01*
X898944Y1733953D01*
X896324Y1735963D01*
X893274Y1737227D01*
X890000Y1737658D01*
D02*
G37*
G36*
X1024000Y1707918D02*
X1021643Y1707449D01*
X1019645Y1706114D01*
X1018310Y1704116D01*
X1017842Y1701760D01*
X1018310Y1699403D01*
X1018352Y1699342D01*
Y1693213D01*
X1018169Y1693091D01*
X1017607Y1692251D01*
X1017410Y1691260D01*
Y1678760D01*
X1017607Y1677769D01*
X1018169Y1676928D01*
X1019009Y1676367D01*
X1020000Y1676170D01*
X1030000D01*
X1030991Y1676367D01*
X1031831Y1676928D01*
X1032393Y1677769D01*
X1032590Y1678760D01*
Y1691260D01*
X1032393Y1692251D01*
X1031831Y1693091D01*
X1030991Y1693652D01*
X1030000Y1693849D01*
X1029649D01*
Y1699342D01*
X1029690Y1699403D01*
X1030158Y1701760D01*
X1029690Y1704116D01*
X1028355Y1706114D01*
X1026357Y1707449D01*
X1024000Y1707918D01*
D02*
G37*
G36*
X755000Y1710668D02*
X752643Y1710199D01*
X750646Y1708864D01*
X749311Y1706866D01*
X748842Y1704510D01*
X749311Y1702153D01*
X749352Y1702092D01*
Y1693720D01*
X749009Y1693652D01*
X748169Y1693091D01*
X747607Y1692251D01*
X747410Y1691260D01*
Y1678760D01*
X747607Y1677769D01*
X748169Y1676928D01*
X749009Y1676367D01*
X750000Y1676170D01*
X760000D01*
X760991Y1676367D01*
X761831Y1676928D01*
X762393Y1677769D01*
X762590Y1678760D01*
Y1691260D01*
X762393Y1692251D01*
X761831Y1693091D01*
X760991Y1693652D01*
X760649Y1693720D01*
Y1702092D01*
X760690Y1702153D01*
X761158Y1704510D01*
X760690Y1706866D01*
X759355Y1708864D01*
X757357Y1710199D01*
X755000Y1710668D01*
D02*
G37*
G36*
X928100Y1404649D02*
X925088Y1404253D01*
X922280Y1403090D01*
X919870Y1401240D01*
X918020Y1398829D01*
X916857Y1396022D01*
X916460Y1393010D01*
X916857Y1389997D01*
X918020Y1387190D01*
X919870Y1384779D01*
X922280Y1382930D01*
X925088Y1381767D01*
X928100Y1381370D01*
X931113Y1381767D01*
X933920Y1382930D01*
X936330Y1384779D01*
X938180Y1387190D01*
X939343Y1389997D01*
X939740Y1393010D01*
X939343Y1396022D01*
X938180Y1398829D01*
X936330Y1401240D01*
X933920Y1403090D01*
X931113Y1404253D01*
X928100Y1404649D01*
D02*
G37*
G36*
X902700D02*
X899688Y1404253D01*
X896880Y1403090D01*
X894470Y1401240D01*
X892620Y1398829D01*
X891457Y1396022D01*
X891060Y1393010D01*
X891457Y1389997D01*
X892620Y1387190D01*
X894470Y1384779D01*
X896880Y1382930D01*
X899688Y1381767D01*
X902700Y1381370D01*
X905713Y1381767D01*
X908520Y1382930D01*
X910930Y1384779D01*
X912780Y1387190D01*
X913943Y1389997D01*
X914340Y1393010D01*
X913943Y1396022D01*
X912780Y1398829D01*
X910930Y1401240D01*
X908520Y1403090D01*
X905713Y1404253D01*
X902700Y1404649D01*
D02*
G37*
G36*
X877300D02*
X874287Y1404253D01*
X871480Y1403090D01*
X869070Y1401240D01*
X867220Y1398829D01*
X866057Y1396022D01*
X865660Y1393010D01*
X866057Y1389997D01*
X867220Y1387190D01*
X869070Y1384779D01*
X871480Y1382930D01*
X874287Y1381767D01*
X877300Y1381370D01*
X880313Y1381767D01*
X883120Y1382930D01*
X885530Y1384779D01*
X887380Y1387190D01*
X888543Y1389997D01*
X888940Y1393010D01*
X888543Y1396022D01*
X887380Y1398829D01*
X885530Y1401240D01*
X883120Y1403090D01*
X880313Y1404253D01*
X877300Y1404649D01*
D02*
G37*
G36*
X851900D02*
X848887Y1404253D01*
X846080Y1403090D01*
X843670Y1401240D01*
X841820Y1398829D01*
X840657Y1396022D01*
X840260Y1393010D01*
X840657Y1389997D01*
X841820Y1387190D01*
X843670Y1384779D01*
X846080Y1382930D01*
X848887Y1381767D01*
X851900Y1381370D01*
X854913Y1381767D01*
X857720Y1382930D01*
X860130Y1384779D01*
X861980Y1387190D01*
X863143Y1389997D01*
X863540Y1393010D01*
X863143Y1396022D01*
X861980Y1398829D01*
X860130Y1401240D01*
X857720Y1403090D01*
X854913Y1404253D01*
X851900Y1404649D01*
D02*
G37*
%LPD*%
G36*
X879046Y1718685D02*
X881056Y1716066D01*
X883676Y1714056D01*
X886727Y1712792D01*
X890000Y1712361D01*
X893274Y1712792D01*
X896324Y1714056D01*
X898944Y1716066D01*
X900954Y1718685D01*
X901540Y1720102D01*
X902810Y1719849D01*
Y1715010D01*
X903007Y1714019D01*
X903569Y1713178D01*
X904409Y1712617D01*
X905400Y1712420D01*
X909752D01*
Y1697599D01*
X905400D01*
X904409Y1697402D01*
X903569Y1696841D01*
X903007Y1696001D01*
X902810Y1695010D01*
Y1690170D01*
X901540Y1689918D01*
X900954Y1691334D01*
X898944Y1693953D01*
X896324Y1695963D01*
X893274Y1697227D01*
X890000Y1697658D01*
X886727Y1697227D01*
X883676Y1695963D01*
X881056Y1693953D01*
X879046Y1691334D01*
X877987Y1688777D01*
X876613D01*
X875554Y1691334D01*
X873544Y1693953D01*
X870924Y1695963D01*
X870249Y1696243D01*
Y1713776D01*
X870924Y1714056D01*
X873544Y1716066D01*
X875554Y1718685D01*
X876613Y1721242D01*
X877987D01*
X879046Y1718685D01*
D02*
G37*
G36*
Y1678685D02*
X881056Y1676066D01*
X883676Y1674056D01*
X886727Y1672792D01*
X890000Y1672361D01*
X893274Y1672792D01*
X896324Y1674056D01*
X898944Y1676066D01*
X900954Y1678685D01*
X901540Y1680102D01*
X902810Y1679849D01*
Y1675010D01*
X903007Y1674019D01*
X903569Y1673178D01*
X904409Y1672617D01*
X905400Y1672420D01*
X909752D01*
Y1663658D01*
X870249D01*
Y1673776D01*
X870924Y1674056D01*
X873544Y1676066D01*
X875554Y1678685D01*
X876613Y1681242D01*
X877987D01*
X879046Y1678685D01*
D02*
G37*
%LPC*%
G36*
X430000Y1737658D02*
X426726Y1737227D01*
X423676Y1735963D01*
X421056Y1733953D01*
X419046Y1731334D01*
X417987Y1728777D01*
X416613D01*
X415554Y1731334D01*
X413544Y1733953D01*
X410924Y1735963D01*
X407874Y1737227D01*
X404600Y1737658D01*
X401326Y1737227D01*
X398276Y1735963D01*
X395656Y1733953D01*
X393646Y1731334D01*
X393367Y1730658D01*
X320500D01*
X320500Y1730658D01*
X318339Y1730228D01*
X316506Y1729004D01*
X316506Y1729004D01*
X311006Y1723504D01*
X309781Y1721671D01*
X309352Y1719510D01*
X309352Y1719509D01*
Y1693720D01*
X309009Y1693652D01*
X308169Y1693091D01*
X307607Y1692251D01*
X307410Y1691260D01*
Y1678760D01*
X307607Y1677769D01*
X308169Y1676928D01*
X309009Y1676367D01*
X310000Y1676170D01*
X320000D01*
X320991Y1676367D01*
X321831Y1676928D01*
X322393Y1677769D01*
X322590Y1678760D01*
Y1691260D01*
X322393Y1692251D01*
X321831Y1693091D01*
X320991Y1693652D01*
X320649Y1693720D01*
Y1717170D01*
X322840Y1719361D01*
X393367D01*
X393646Y1718685D01*
X395656Y1716066D01*
X398276Y1714056D01*
X398952Y1713776D01*
Y1696243D01*
X398276Y1695963D01*
X395656Y1693953D01*
X393646Y1691334D01*
X392383Y1688283D01*
X391952Y1685010D01*
X392383Y1681736D01*
X393646Y1678685D01*
X395656Y1676066D01*
X398276Y1674056D01*
X398952Y1673776D01*
Y1660160D01*
X398951Y1660160D01*
X399381Y1657998D01*
X400606Y1656165D01*
X402756Y1654016D01*
X402756Y1654016D01*
X404589Y1652791D01*
X406750Y1652361D01*
X406750Y1652361D01*
X453500D01*
X453500Y1652361D01*
X455662Y1652791D01*
X457494Y1654016D01*
X459394Y1655916D01*
X459394Y1655916D01*
X460619Y1657748D01*
X461049Y1659910D01*
Y1672420D01*
X465400D01*
X466391Y1672617D01*
X467231Y1673178D01*
X467793Y1674019D01*
X467990Y1675010D01*
Y1695010D01*
X467793Y1696001D01*
X467231Y1696841D01*
X466391Y1697402D01*
X465400Y1697599D01*
X461049D01*
Y1712420D01*
X465400D01*
X466391Y1712617D01*
X467231Y1713178D01*
X467793Y1714019D01*
X467990Y1715010D01*
Y1719361D01*
X537160D01*
X539352Y1717170D01*
Y1693720D01*
X539009Y1693652D01*
X538169Y1693091D01*
X537607Y1692251D01*
X537410Y1691260D01*
Y1678760D01*
X537607Y1677769D01*
X538169Y1676928D01*
X539009Y1676367D01*
X540000Y1676170D01*
X550000D01*
X550991Y1676367D01*
X551831Y1676928D01*
X552393Y1677769D01*
X552590Y1678760D01*
Y1691260D01*
X552393Y1692251D01*
X551831Y1693091D01*
X550991Y1693652D01*
X550649Y1693720D01*
Y1719509D01*
X550649Y1719510D01*
X550219Y1721671D01*
X548994Y1723504D01*
X548994Y1723504D01*
X543494Y1729004D01*
X541662Y1730228D01*
X539500Y1730658D01*
X539500Y1730658D01*
X467990D01*
Y1735010D01*
X467793Y1736001D01*
X467231Y1736841D01*
X466391Y1737402D01*
X465400Y1737599D01*
X445400D01*
X444409Y1737402D01*
X443569Y1736841D01*
X443007Y1736001D01*
X442810Y1735010D01*
Y1730170D01*
X441540Y1729918D01*
X440954Y1731334D01*
X438944Y1733953D01*
X436324Y1735963D01*
X433274Y1737227D01*
X430000Y1737658D01*
D02*
G37*
G36*
X564000Y1707918D02*
X561643Y1707449D01*
X559646Y1706114D01*
X558311Y1704116D01*
X557842Y1701760D01*
X558311Y1699403D01*
X558352Y1699342D01*
Y1693213D01*
X558169Y1693091D01*
X557607Y1692251D01*
X557410Y1691260D01*
Y1678760D01*
X557607Y1677769D01*
X558169Y1676928D01*
X559009Y1676367D01*
X560000Y1676170D01*
X570000D01*
X570991Y1676367D01*
X571831Y1676928D01*
X572393Y1677769D01*
X572590Y1678760D01*
Y1691260D01*
X572393Y1692251D01*
X571831Y1693091D01*
X570991Y1693652D01*
X570000Y1693849D01*
X569649D01*
Y1699342D01*
X569690Y1699403D01*
X570158Y1701760D01*
X569690Y1704116D01*
X568355Y1706114D01*
X566357Y1707449D01*
X564000Y1707918D01*
D02*
G37*
G36*
X295000Y1710668D02*
X292643Y1710199D01*
X290646Y1708864D01*
X289310Y1706866D01*
X288842Y1704510D01*
X289310Y1702153D01*
X289352Y1702092D01*
Y1693720D01*
X289009Y1693652D01*
X288169Y1693091D01*
X287607Y1692251D01*
X287410Y1691260D01*
Y1678760D01*
X287607Y1677769D01*
X288169Y1676928D01*
X289009Y1676367D01*
X290000Y1676170D01*
X300000D01*
X300991Y1676367D01*
X301831Y1676928D01*
X302393Y1677769D01*
X302590Y1678760D01*
Y1691260D01*
X302393Y1692251D01*
X301831Y1693091D01*
X300991Y1693652D01*
X300649Y1693720D01*
Y1702092D01*
X300690Y1702153D01*
X301158Y1704510D01*
X300690Y1706866D01*
X299355Y1708864D01*
X297357Y1710199D01*
X295000Y1710668D01*
D02*
G37*
G36*
X468100Y1404649D02*
X465088Y1404253D01*
X462280Y1403090D01*
X459870Y1401240D01*
X458020Y1398829D01*
X456857Y1396022D01*
X456460Y1393010D01*
X456857Y1389997D01*
X458020Y1387190D01*
X459870Y1384779D01*
X462280Y1382930D01*
X465088Y1381767D01*
X468100Y1381370D01*
X471113Y1381767D01*
X473920Y1382930D01*
X476330Y1384779D01*
X478180Y1387190D01*
X479343Y1389997D01*
X479740Y1393010D01*
X479343Y1396022D01*
X478180Y1398829D01*
X476330Y1401240D01*
X473920Y1403090D01*
X471113Y1404253D01*
X468100Y1404649D01*
D02*
G37*
G36*
X442700D02*
X439688Y1404253D01*
X436880Y1403090D01*
X434470Y1401240D01*
X432620Y1398829D01*
X431457Y1396022D01*
X431060Y1393010D01*
X431457Y1389997D01*
X432620Y1387190D01*
X434470Y1384779D01*
X436880Y1382930D01*
X439688Y1381767D01*
X442700Y1381370D01*
X445713Y1381767D01*
X448520Y1382930D01*
X450930Y1384779D01*
X452780Y1387190D01*
X453943Y1389997D01*
X454340Y1393010D01*
X453943Y1396022D01*
X452780Y1398829D01*
X450930Y1401240D01*
X448520Y1403090D01*
X445713Y1404253D01*
X442700Y1404649D01*
D02*
G37*
G36*
X417300D02*
X414287Y1404253D01*
X411480Y1403090D01*
X409070Y1401240D01*
X407220Y1398829D01*
X406057Y1396022D01*
X405661Y1393010D01*
X406057Y1389997D01*
X407220Y1387190D01*
X409070Y1384779D01*
X411480Y1382930D01*
X414287Y1381767D01*
X417300Y1381370D01*
X420313Y1381767D01*
X423120Y1382930D01*
X425531Y1384779D01*
X427380Y1387190D01*
X428543Y1389997D01*
X428940Y1393010D01*
X428543Y1396022D01*
X427380Y1398829D01*
X425531Y1401240D01*
X423120Y1403090D01*
X420313Y1404253D01*
X417300Y1404649D01*
D02*
G37*
G36*
X391900D02*
X388887Y1404253D01*
X386080Y1403090D01*
X383670Y1401240D01*
X381820Y1398829D01*
X380657Y1396022D01*
X380261Y1393010D01*
X380657Y1389997D01*
X381820Y1387190D01*
X383670Y1384779D01*
X386080Y1382930D01*
X388887Y1381767D01*
X391900Y1381370D01*
X394913Y1381767D01*
X397720Y1382930D01*
X400131Y1384779D01*
X401980Y1387190D01*
X403143Y1389997D01*
X403540Y1393010D01*
X403143Y1396022D01*
X401980Y1398829D01*
X400131Y1401240D01*
X397720Y1403090D01*
X394913Y1404253D01*
X391900Y1404649D01*
D02*
G37*
%LPD*%
G36*
X419046Y1718685D02*
X421056Y1716066D01*
X423676Y1714056D01*
X426726Y1712792D01*
X430000Y1712361D01*
X433274Y1712792D01*
X436324Y1714056D01*
X438944Y1716066D01*
X440954Y1718685D01*
X441540Y1720102D01*
X442810Y1719849D01*
Y1715010D01*
X443007Y1714019D01*
X443569Y1713178D01*
X444409Y1712617D01*
X445400Y1712420D01*
X449752D01*
Y1697599D01*
X445400D01*
X444409Y1697402D01*
X443569Y1696841D01*
X443007Y1696001D01*
X442810Y1695010D01*
Y1690170D01*
X441540Y1689918D01*
X440954Y1691334D01*
X438944Y1693953D01*
X436324Y1695963D01*
X433274Y1697227D01*
X430000Y1697658D01*
X426726Y1697227D01*
X423676Y1695963D01*
X421056Y1693953D01*
X419046Y1691334D01*
X417987Y1688777D01*
X416613D01*
X415554Y1691334D01*
X413544Y1693953D01*
X410924Y1695963D01*
X410249Y1696243D01*
Y1713776D01*
X410924Y1714056D01*
X413544Y1716066D01*
X415554Y1718685D01*
X416613Y1721242D01*
X417987D01*
X419046Y1718685D01*
D02*
G37*
G36*
Y1678685D02*
X421056Y1676066D01*
X423676Y1674056D01*
X426726Y1672792D01*
X430000Y1672361D01*
X433274Y1672792D01*
X436324Y1674056D01*
X438944Y1676066D01*
X440954Y1678685D01*
X441540Y1680102D01*
X442810Y1679849D01*
Y1675010D01*
X443007Y1674019D01*
X443569Y1673178D01*
X444409Y1672617D01*
X445400Y1672420D01*
X449752D01*
Y1663658D01*
X410249D01*
Y1673776D01*
X410924Y1674056D01*
X413544Y1676066D01*
X415554Y1678685D01*
X416613Y1681242D01*
X417987D01*
X419046Y1678685D01*
D02*
G37*
%LPC*%
G36*
X1110000Y1222641D02*
X1104894Y1222239D01*
X1099913Y1221043D01*
X1095182Y1219083D01*
X1090814Y1216407D01*
X1086920Y1213080D01*
X1083593Y1209186D01*
X1080917Y1204818D01*
X1078957Y1200087D01*
X1077761Y1195106D01*
X1077359Y1190000D01*
X1077761Y1184894D01*
X1078957Y1179913D01*
X1080917Y1175182D01*
X1083593Y1170814D01*
X1086920Y1166920D01*
X1090814Y1163593D01*
X1095182Y1160917D01*
X1099913Y1158957D01*
X1104894Y1157761D01*
X1110000Y1157359D01*
X1115106Y1157761D01*
X1120087Y1158957D01*
X1124818Y1160917D01*
X1129186Y1163593D01*
X1133080Y1166920D01*
X1136407Y1170814D01*
X1139083Y1175182D01*
X1141043Y1179913D01*
X1142239Y1184894D01*
X1142641Y1190000D01*
X1142239Y1195106D01*
X1141043Y1200087D01*
X1139083Y1204818D01*
X1136407Y1209186D01*
X1133080Y1213080D01*
X1129186Y1216407D01*
X1124818Y1219083D01*
X1120087Y1221043D01*
X1115106Y1222239D01*
X1110000Y1222641D01*
D02*
G37*
G36*
X650000D02*
X644894Y1222239D01*
X639913Y1221043D01*
X635182Y1219083D01*
X630814Y1216407D01*
X626920Y1213080D01*
X623593Y1209186D01*
X620917Y1204818D01*
X618957Y1200087D01*
X617761Y1195106D01*
X617359Y1190000D01*
X617761Y1184894D01*
X618957Y1179913D01*
X620917Y1175182D01*
X623593Y1170814D01*
X626920Y1166920D01*
X630814Y1163593D01*
X635182Y1160917D01*
X639913Y1158957D01*
X644894Y1157761D01*
X650000Y1157359D01*
X655106Y1157761D01*
X660087Y1158957D01*
X664818Y1160917D01*
X669186Y1163593D01*
X673080Y1166920D01*
X676407Y1170814D01*
X679083Y1175182D01*
X681043Y1179913D01*
X682239Y1184894D01*
X682641Y1190000D01*
X682239Y1195106D01*
X681043Y1200087D01*
X679083Y1204818D01*
X676407Y1209186D01*
X673080Y1213080D01*
X669186Y1216407D01*
X664818Y1219083D01*
X660087Y1221043D01*
X655106Y1222239D01*
X650000Y1222641D01*
D02*
G37*
G36*
X990000Y1122649D02*
X985581Y1122214D01*
X981333Y1120925D01*
X977417Y1118832D01*
X973985Y1116015D01*
X971168Y1112583D01*
X969075Y1108667D01*
X967786Y1104419D01*
X967351Y1100000D01*
X967786Y1095581D01*
X969075Y1091333D01*
X971168Y1087417D01*
X973985Y1083985D01*
X977417Y1081168D01*
X981333Y1079075D01*
X985581Y1077786D01*
X990000Y1077351D01*
X994419Y1077786D01*
X998667Y1079075D01*
X1002583Y1081168D01*
X1006015Y1083985D01*
X1008832Y1087417D01*
X1010925Y1091333D01*
X1012214Y1095581D01*
X1012649Y1100000D01*
X1012214Y1104419D01*
X1010925Y1108667D01*
X1008832Y1112583D01*
X1006015Y1116015D01*
X1002583Y1118832D01*
X998667Y1120925D01*
X994419Y1122214D01*
X990000Y1122649D01*
D02*
G37*
G36*
X770000D02*
X765581Y1122214D01*
X761333Y1120925D01*
X757417Y1118832D01*
X753985Y1116015D01*
X751168Y1112583D01*
X749075Y1108667D01*
X747786Y1104419D01*
X747351Y1100000D01*
X747786Y1095581D01*
X749075Y1091333D01*
X751168Y1087417D01*
X753985Y1083985D01*
X757417Y1081168D01*
X761333Y1079075D01*
X765581Y1077786D01*
X770000Y1077351D01*
X774419Y1077786D01*
X778667Y1079075D01*
X782583Y1081168D01*
X786015Y1083985D01*
X788832Y1087417D01*
X790925Y1091333D01*
X792214Y1095581D01*
X792649Y1100000D01*
X792214Y1104419D01*
X790925Y1108667D01*
X788832Y1112583D01*
X786015Y1116015D01*
X782583Y1118832D01*
X778667Y1120925D01*
X774419Y1122214D01*
X770000Y1122649D01*
D02*
G37*
G36*
X1110000Y1094740D02*
X1106987Y1094343D01*
X1104180Y1093180D01*
X1101770Y1091330D01*
X1100516Y1089696D01*
X1079100D01*
X1077393Y1089472D01*
X1075802Y1088813D01*
X1074436Y1087764D01*
X1064336Y1077664D01*
X1063287Y1076298D01*
X1062628Y1074707D01*
X1062404Y1073000D01*
Y1003000D01*
X1062628Y1001293D01*
X1063287Y999702D01*
X1064336Y998336D01*
X1102904Y959768D01*
Y881634D01*
X1101270Y880380D01*
X1100016Y878746D01*
X1077150D01*
X1075443Y878522D01*
X1073852Y877863D01*
X1072486Y876814D01*
X1069336Y873664D01*
X1068287Y872298D01*
X1067628Y870707D01*
X1067404Y869000D01*
Y761732D01*
X1031268Y725596D01*
X928273D01*
X928180Y725820D01*
X926330Y728230D01*
X923920Y730080D01*
X921113Y731243D01*
X918100Y731640D01*
X915088Y731243D01*
X912280Y730080D01*
X909870Y728230D01*
X908020Y725820D01*
X906857Y723012D01*
X906460Y720000D01*
X906857Y716988D01*
X908020Y714180D01*
X909870Y711770D01*
X910795Y711060D01*
X910363Y709790D01*
X900436D01*
X900005Y711060D01*
X900930Y711770D01*
X902780Y714180D01*
X903943Y716988D01*
X904340Y720000D01*
X903943Y723012D01*
X902780Y725820D01*
X900930Y728230D01*
X898520Y730080D01*
X895713Y731243D01*
X892700Y731640D01*
X889688Y731243D01*
X886880Y730080D01*
X884470Y728230D01*
X882620Y725820D01*
X881457Y723012D01*
X881060Y720000D01*
X881457Y716988D01*
X882620Y714180D01*
X884470Y711770D01*
X885395Y711060D01*
X884964Y709790D01*
X875036D01*
X874605Y711060D01*
X875530Y711770D01*
X877380Y714180D01*
X878543Y716988D01*
X878940Y720000D01*
X878543Y723012D01*
X877380Y725820D01*
X875530Y728230D01*
X873120Y730080D01*
X870312Y731243D01*
X867300Y731640D01*
X864287Y731243D01*
X861480Y730080D01*
X859070Y728230D01*
X857220Y725820D01*
X856057Y723012D01*
X855660Y720000D01*
X856057Y716988D01*
X857220Y714180D01*
X859070Y711770D01*
X859995Y711060D01*
X859564Y709790D01*
X850512D01*
X850025Y710963D01*
X852731Y713669D01*
X853293Y714509D01*
X853490Y715500D01*
Y724500D01*
X853293Y725491D01*
X852731Y726331D01*
X848231Y730831D01*
X847391Y731393D01*
X846400Y731590D01*
X837400D01*
X836409Y731393D01*
X835569Y730831D01*
X833334Y728596D01*
X739732D01*
X687696Y780632D01*
Y971504D01*
X701434D01*
X705669Y967269D01*
X706509Y966707D01*
X707500Y966510D01*
X716500D01*
X717491Y966707D01*
X718331Y967269D01*
X722831Y971769D01*
X723393Y972609D01*
X723590Y973600D01*
Y982600D01*
X723393Y983591D01*
X722831Y984431D01*
X718331Y988931D01*
X717491Y989493D01*
X716500Y989690D01*
X707500D01*
X706509Y989493D01*
X705669Y988931D01*
X701434Y984696D01*
X681100D01*
X679393Y984472D01*
X677802Y983813D01*
X676436Y982764D01*
X675387Y981398D01*
X674728Y979807D01*
X674504Y978100D01*
Y777900D01*
X674728Y776193D01*
X675387Y774602D01*
X676436Y773236D01*
X732336Y717336D01*
X733702Y716287D01*
X735293Y715628D01*
X737000Y715404D01*
X830329D01*
X830507Y714509D01*
X831069Y713669D01*
X835569Y709169D01*
X836409Y708607D01*
X837400Y708410D01*
X843856D01*
X844910Y707200D01*
Y687200D01*
X845107Y686209D01*
X845669Y685369D01*
X846509Y684807D01*
X847500Y684610D01*
X912500D01*
X913491Y684807D01*
X914331Y685369D01*
X914893Y686209D01*
X915090Y687200D01*
Y707200D01*
X915033Y707483D01*
X916006Y708636D01*
X918100Y708361D01*
X921113Y708757D01*
X923920Y709920D01*
X926330Y711770D01*
X926817Y712404D01*
X1034000D01*
X1035707Y712628D01*
X1037298Y713287D01*
X1038664Y714336D01*
X1078664Y754336D01*
X1079713Y755702D01*
X1080372Y757293D01*
X1080596Y759000D01*
Y865554D01*
X1100016D01*
X1101270Y863920D01*
X1103680Y862070D01*
X1106487Y860907D01*
X1109500Y860510D01*
X1112513Y860907D01*
X1115320Y862070D01*
X1117730Y863920D01*
X1119580Y866330D01*
X1120743Y869137D01*
X1121140Y872150D01*
X1120743Y875163D01*
X1119580Y877970D01*
X1117730Y880380D01*
X1116096Y881634D01*
Y962500D01*
X1115872Y964207D01*
X1115213Y965798D01*
X1114164Y967164D01*
X1075596Y1005732D01*
Y1070268D01*
X1081832Y1076504D01*
X1100516D01*
X1101770Y1074870D01*
X1104180Y1073020D01*
X1106987Y1071857D01*
X1110000Y1071460D01*
X1113012Y1071857D01*
X1115820Y1073020D01*
X1118230Y1074870D01*
X1120080Y1077280D01*
X1121243Y1080088D01*
X1121639Y1083100D01*
X1121243Y1086113D01*
X1120080Y1088920D01*
X1118230Y1091330D01*
X1115820Y1093180D01*
X1113012Y1094343D01*
X1110000Y1094740D01*
D02*
G37*
G36*
Y1069340D02*
X1106987Y1068943D01*
X1104180Y1067780D01*
X1101770Y1065930D01*
X1099920Y1063520D01*
X1098757Y1060713D01*
X1098360Y1057700D01*
X1098757Y1054688D01*
X1099920Y1051880D01*
X1101770Y1049470D01*
X1103404Y1048216D01*
Y1041784D01*
X1101770Y1040530D01*
X1099920Y1038120D01*
X1098757Y1035312D01*
X1098360Y1032300D01*
X1098757Y1029287D01*
X1099920Y1026480D01*
X1101770Y1024070D01*
X1103404Y1022816D01*
Y1016384D01*
X1101770Y1015130D01*
X1099920Y1012720D01*
X1098757Y1009912D01*
X1098360Y1006900D01*
X1098757Y1003887D01*
X1099920Y1001080D01*
X1101770Y998670D01*
X1104180Y996820D01*
X1106987Y995657D01*
X1110000Y995260D01*
X1113012Y995657D01*
X1115820Y996820D01*
X1118230Y998670D01*
X1120080Y1001080D01*
X1121243Y1003887D01*
X1121639Y1006900D01*
X1121243Y1009912D01*
X1120080Y1012720D01*
X1118230Y1015130D01*
X1116596Y1016384D01*
Y1022816D01*
X1118230Y1024070D01*
X1120080Y1026480D01*
X1121243Y1029287D01*
X1121639Y1032300D01*
X1121243Y1035312D01*
X1120080Y1038120D01*
X1118230Y1040530D01*
X1116596Y1041784D01*
Y1048216D01*
X1118230Y1049470D01*
X1120080Y1051880D01*
X1121243Y1054688D01*
X1121639Y1057700D01*
X1121243Y1060713D01*
X1120080Y1063520D01*
X1118230Y1065930D01*
X1115820Y1067780D01*
X1113012Y1068943D01*
X1110000Y1069340D01*
D02*
G37*
G36*
X1070505Y962368D02*
X1069495D01*
X1067739Y962019D01*
X1066805Y961632D01*
X1065317Y960638D01*
X1065317Y960638D01*
X1064602Y959923D01*
X1064602Y959923D01*
X1063608Y958435D01*
X1063221Y957501D01*
X1062872Y955745D01*
Y955490D01*
X1062822Y955240D01*
X1062872Y954990D01*
Y954735D01*
X1063221Y952979D01*
X1063608Y952045D01*
X1064602Y950557D01*
X1064602Y950557D01*
X1065317Y949842D01*
X1065317Y949842D01*
X1066805Y948848D01*
X1067739Y948461D01*
X1069495Y948112D01*
X1070505D01*
X1072261Y948461D01*
X1073195Y948848D01*
X1074683Y949842D01*
X1074683Y949842D01*
X1075398Y950557D01*
X1075398Y950557D01*
X1076392Y952045D01*
X1076779Y952979D01*
X1077128Y954735D01*
Y954990D01*
X1077178Y955240D01*
X1077128Y955490D01*
Y955745D01*
X1076779Y957501D01*
X1076392Y958435D01*
X1075398Y959923D01*
X1075398Y959923D01*
X1074683Y960638D01*
X1074683Y960638D01*
X1073195Y961632D01*
X1072261Y962019D01*
X1070505Y962368D01*
D02*
G37*
G36*
X712000Y964340D02*
X708988Y963943D01*
X706180Y962780D01*
X703770Y960930D01*
X701920Y958520D01*
X700757Y955713D01*
X700360Y952700D01*
X700757Y949688D01*
X701920Y946880D01*
X703770Y944470D01*
X706180Y942620D01*
X708988Y941457D01*
X712000Y941060D01*
X715013Y941457D01*
X717820Y942620D01*
X720230Y944470D01*
X722080Y946880D01*
X723243Y949688D01*
X723640Y952700D01*
X723243Y955713D01*
X722080Y958520D01*
X720230Y960930D01*
X717820Y962780D01*
X715013Y963943D01*
X712000Y964340D01*
D02*
G37*
G36*
X1070505Y932368D02*
X1069495D01*
X1067739Y932019D01*
X1066805Y931632D01*
X1065317Y930638D01*
X1065317Y930638D01*
X1064602Y929923D01*
X1064602Y929923D01*
X1063608Y928435D01*
X1063221Y927501D01*
X1062872Y925745D01*
Y925490D01*
X1062822Y925240D01*
X1062872Y924990D01*
Y924735D01*
X1063221Y922979D01*
X1063608Y922045D01*
X1064602Y920557D01*
X1064602Y920557D01*
X1065317Y919842D01*
X1065317Y919842D01*
X1066805Y918848D01*
X1067739Y918461D01*
X1069495Y918112D01*
X1070505D01*
X1072261Y918461D01*
X1073195Y918848D01*
X1074683Y919842D01*
X1074683Y919842D01*
X1075398Y920557D01*
X1075398Y920557D01*
X1076392Y922045D01*
X1076779Y922979D01*
X1077128Y924735D01*
Y924990D01*
X1077178Y925240D01*
X1077128Y925490D01*
Y925745D01*
X1076779Y927501D01*
X1076392Y928435D01*
X1075398Y929923D01*
X1075398Y929923D01*
X1074683Y930638D01*
X1074683Y930638D01*
X1073195Y931632D01*
X1072261Y932019D01*
X1070505Y932368D01*
D02*
G37*
G36*
X712000Y938940D02*
X708988Y938543D01*
X706180Y937380D01*
X703770Y935530D01*
X701920Y933120D01*
X700757Y930312D01*
X700360Y927300D01*
X700757Y924287D01*
X701920Y921480D01*
X703770Y919070D01*
X706180Y917220D01*
X708988Y916057D01*
X712000Y915660D01*
X715013Y916057D01*
X717820Y917220D01*
X720230Y919070D01*
X722080Y921480D01*
X723243Y924287D01*
X723640Y927300D01*
X723243Y930312D01*
X722080Y933120D01*
X720230Y935530D01*
X717820Y937380D01*
X715013Y938543D01*
X712000Y938940D01*
D02*
G37*
G36*
Y913540D02*
X708988Y913143D01*
X706180Y911980D01*
X703770Y910130D01*
X701920Y907720D01*
X700757Y904912D01*
X700360Y901900D01*
X700757Y898887D01*
X701920Y896080D01*
X703770Y893670D01*
X706180Y891820D01*
X708988Y890657D01*
X712000Y890260D01*
X715013Y890657D01*
X717820Y891820D01*
X720230Y893670D01*
X722080Y896080D01*
X723243Y898887D01*
X723640Y901900D01*
X723243Y904912D01*
X722080Y907720D01*
X720230Y910130D01*
X717820Y911980D01*
X715013Y913143D01*
X712000Y913540D01*
D02*
G37*
G36*
X1109500Y858390D02*
X1106487Y857993D01*
X1103680Y856830D01*
X1101270Y854980D01*
X1099420Y852570D01*
X1098257Y849762D01*
X1097860Y846750D01*
X1098257Y843737D01*
X1099420Y840930D01*
X1101270Y838520D01*
X1103680Y836670D01*
X1106487Y835507D01*
X1109500Y835110D01*
X1112513Y835507D01*
X1115320Y836670D01*
X1117730Y838520D01*
X1119580Y840930D01*
X1120743Y843737D01*
X1121140Y846750D01*
X1120743Y849762D01*
X1119580Y852570D01*
X1117730Y854980D01*
X1115320Y856830D01*
X1112513Y857993D01*
X1109500Y858390D01*
D02*
G37*
G36*
Y832990D02*
X1106487Y832593D01*
X1103680Y831430D01*
X1101270Y829580D01*
X1099420Y827170D01*
X1098257Y824362D01*
X1097860Y821350D01*
X1098257Y818337D01*
X1099420Y815530D01*
X1101270Y813120D01*
X1103680Y811270D01*
X1106487Y810107D01*
X1109500Y809710D01*
X1112513Y810107D01*
X1115320Y811270D01*
X1117730Y813120D01*
X1119580Y815530D01*
X1120743Y818337D01*
X1121140Y821350D01*
X1120743Y824362D01*
X1119580Y827170D01*
X1117730Y829580D01*
X1115320Y831430D01*
X1112513Y832593D01*
X1109500Y832990D01*
D02*
G37*
G36*
Y807589D02*
X1106487Y807193D01*
X1103680Y806030D01*
X1101270Y804180D01*
X1099420Y801770D01*
X1098257Y798962D01*
X1097860Y795950D01*
X1098257Y792937D01*
X1099420Y790130D01*
X1101270Y787720D01*
X1103680Y785870D01*
X1106487Y784707D01*
X1109500Y784310D01*
X1112513Y784707D01*
X1115320Y785870D01*
X1117730Y787720D01*
X1119580Y790130D01*
X1120743Y792937D01*
X1121140Y795950D01*
X1120743Y798962D01*
X1119580Y801770D01*
X1117730Y804180D01*
X1115320Y806030D01*
X1112513Y807193D01*
X1109500Y807589D01*
D02*
G37*
G36*
X990000Y802649D02*
X985581Y802214D01*
X981333Y800925D01*
X977417Y798832D01*
X973985Y796015D01*
X971168Y792583D01*
X969075Y788667D01*
X967786Y784419D01*
X967351Y780000D01*
X967786Y775581D01*
X969075Y771333D01*
X971168Y767417D01*
X973985Y763985D01*
X977417Y761168D01*
X981333Y759075D01*
X985581Y757786D01*
X990000Y757351D01*
X994419Y757786D01*
X998667Y759075D01*
X1002583Y761168D01*
X1006015Y763985D01*
X1008832Y767417D01*
X1010925Y771333D01*
X1012214Y775581D01*
X1012649Y780000D01*
X1012214Y784419D01*
X1010925Y788667D01*
X1008832Y792583D01*
X1006015Y796015D01*
X1002583Y798832D01*
X998667Y800925D01*
X994419Y802214D01*
X990000Y802649D01*
D02*
G37*
G36*
X770000D02*
X765581Y802214D01*
X761333Y800925D01*
X757417Y798832D01*
X753985Y796015D01*
X751168Y792583D01*
X749075Y788667D01*
X747786Y784419D01*
X747351Y780000D01*
X747786Y775581D01*
X749075Y771333D01*
X751168Y767417D01*
X753985Y763985D01*
X757417Y761168D01*
X761333Y759075D01*
X765581Y757786D01*
X770000Y757351D01*
X774419Y757786D01*
X778667Y759075D01*
X782583Y761168D01*
X786015Y763985D01*
X788832Y767417D01*
X790925Y771333D01*
X792214Y775581D01*
X792649Y780000D01*
X792214Y784419D01*
X790925Y788667D01*
X788832Y792583D01*
X786015Y796015D01*
X782583Y798832D01*
X778667Y800925D01*
X774419Y802214D01*
X770000Y802649D01*
D02*
G37*
G36*
X1110000Y722641D02*
X1104894Y722239D01*
X1099913Y721043D01*
X1095182Y719083D01*
X1090814Y716407D01*
X1086920Y713080D01*
X1083593Y709186D01*
X1080917Y704818D01*
X1078957Y700087D01*
X1077761Y695106D01*
X1077359Y690000D01*
X1077761Y684894D01*
X1078957Y679913D01*
X1080917Y675182D01*
X1083593Y670814D01*
X1086920Y666920D01*
X1090814Y663593D01*
X1095182Y660917D01*
X1099913Y658957D01*
X1104894Y657761D01*
X1110000Y657359D01*
X1115106Y657761D01*
X1120087Y658957D01*
X1124818Y660917D01*
X1129186Y663593D01*
X1133080Y666920D01*
X1136407Y670814D01*
X1139083Y675182D01*
X1141043Y679913D01*
X1142239Y684894D01*
X1142641Y690000D01*
X1142239Y695106D01*
X1141043Y700087D01*
X1139083Y704818D01*
X1136407Y709186D01*
X1133080Y713080D01*
X1129186Y716407D01*
X1124818Y719083D01*
X1120087Y721043D01*
X1115106Y722239D01*
X1110000Y722641D01*
D02*
G37*
G36*
X650000D02*
X644894Y722239D01*
X639913Y721043D01*
X635182Y719083D01*
X630814Y716407D01*
X626920Y713080D01*
X623593Y709186D01*
X620917Y704818D01*
X618957Y700087D01*
X617761Y695106D01*
X617359Y690000D01*
X617761Y684894D01*
X618957Y679913D01*
X620917Y675182D01*
X623593Y670814D01*
X626920Y666920D01*
X630814Y663593D01*
X635182Y660917D01*
X639913Y658957D01*
X644894Y657761D01*
X650000Y657359D01*
X655106Y657761D01*
X660087Y658957D01*
X664818Y660917D01*
X669186Y663593D01*
X673080Y666920D01*
X676407Y670814D01*
X679083Y675182D01*
X681043Y679913D01*
X682239Y684894D01*
X682641Y690000D01*
X682239Y695106D01*
X681043Y700087D01*
X679083Y704818D01*
X676407Y709186D01*
X673080Y713080D01*
X669186Y716407D01*
X664818Y719083D01*
X660087Y721043D01*
X655106Y722239D01*
X650000Y722641D01*
D02*
G37*
G36*
X1670000Y1223102D02*
X1664822Y1222694D01*
X1659771Y1221482D01*
X1654972Y1219494D01*
X1650543Y1216780D01*
X1646593Y1213407D01*
X1643220Y1209457D01*
X1640506Y1205028D01*
X1638518Y1200229D01*
X1637305Y1195178D01*
X1636898Y1190000D01*
X1637305Y1184822D01*
X1638518Y1179771D01*
X1640506Y1174972D01*
X1643220Y1170543D01*
X1646593Y1166593D01*
X1650543Y1163220D01*
X1654972Y1160506D01*
X1659771Y1158518D01*
X1664822Y1157306D01*
X1670000Y1156898D01*
X1675178Y1157306D01*
X1680229Y1158518D01*
X1685028Y1160506D01*
X1689457Y1163220D01*
X1693407Y1166593D01*
X1696780Y1170543D01*
X1699494Y1174972D01*
X1701482Y1179771D01*
X1702695Y1184822D01*
X1703102Y1190000D01*
X1702695Y1195178D01*
X1701482Y1200229D01*
X1699494Y1205028D01*
X1696780Y1209457D01*
X1693407Y1213407D01*
X1689457Y1216780D01*
X1685028Y1219494D01*
X1680229Y1221482D01*
X1675178Y1222694D01*
X1670000Y1223102D01*
D02*
G37*
G36*
X1210000D02*
X1204822Y1222694D01*
X1199771Y1221482D01*
X1194972Y1219494D01*
X1190543Y1216780D01*
X1186593Y1213407D01*
X1183220Y1209457D01*
X1180506Y1205028D01*
X1178518Y1200229D01*
X1177306Y1195178D01*
X1176898Y1190000D01*
X1177306Y1184822D01*
X1178518Y1179771D01*
X1180506Y1174972D01*
X1183220Y1170543D01*
X1186593Y1166593D01*
X1190543Y1163220D01*
X1194972Y1160506D01*
X1199771Y1158518D01*
X1204822Y1157306D01*
X1210000Y1156898D01*
X1215178Y1157306D01*
X1220229Y1158518D01*
X1225028Y1160506D01*
X1229457Y1163220D01*
X1233407Y1166593D01*
X1236780Y1170543D01*
X1239494Y1174972D01*
X1241482Y1179771D01*
X1242694Y1184822D01*
X1243102Y1190000D01*
X1242694Y1195178D01*
X1241482Y1200229D01*
X1239494Y1205028D01*
X1236780Y1209457D01*
X1233407Y1213407D01*
X1229457Y1216780D01*
X1225028Y1219494D01*
X1220229Y1221482D01*
X1215178Y1222694D01*
X1210000Y1223102D01*
D02*
G37*
G36*
X1225597Y1107348D02*
X1224403D01*
X1222647Y1106999D01*
X1221545Y1106542D01*
X1220056Y1105548D01*
X1219212Y1104704D01*
X1218218Y1103215D01*
X1217761Y1102113D01*
X1217412Y1100357D01*
Y1100055D01*
X1217353Y1099760D01*
X1217412Y1099464D01*
Y1099163D01*
X1217761Y1097408D01*
X1218218Y1096305D01*
X1219212Y1094816D01*
X1220056Y1093972D01*
X1221545Y1092978D01*
X1222647Y1092521D01*
X1224403Y1092172D01*
X1225597D01*
X1227353Y1092521D01*
X1228455Y1092978D01*
X1229944Y1093972D01*
X1230788Y1094816D01*
X1231782Y1096305D01*
X1232239Y1097407D01*
X1232588Y1099163D01*
Y1099464D01*
X1232647Y1099760D01*
X1232588Y1100055D01*
Y1100357D01*
X1232239Y1102113D01*
X1231782Y1103215D01*
X1230788Y1104704D01*
X1229944Y1105548D01*
X1228455Y1106542D01*
X1227353Y1106999D01*
X1225597Y1107348D01*
D02*
G37*
G36*
X1615000Y1113111D02*
X1610491Y1112667D01*
X1606156Y1111352D01*
X1602160Y1109216D01*
X1598658Y1106342D01*
X1595784Y1102840D01*
X1593648Y1098844D01*
X1592333Y1094509D01*
X1591889Y1090000D01*
X1592333Y1085491D01*
X1593648Y1081156D01*
X1595784Y1077160D01*
X1598658Y1073658D01*
X1602160Y1070784D01*
X1606156Y1068648D01*
X1610491Y1067333D01*
X1615000Y1066889D01*
X1619509Y1067333D01*
X1623844Y1068648D01*
X1627840Y1070784D01*
X1631342Y1073658D01*
X1634216Y1077160D01*
X1636352Y1081156D01*
X1637667Y1085491D01*
X1638111Y1090000D01*
X1637667Y1094509D01*
X1636352Y1098844D01*
X1634216Y1102840D01*
X1631342Y1106342D01*
X1627840Y1109216D01*
X1623844Y1111352D01*
X1619509Y1112667D01*
X1615000Y1113111D01*
D02*
G37*
G36*
X1315000D02*
X1310491Y1112667D01*
X1306156Y1111352D01*
X1302160Y1109216D01*
X1298658Y1106342D01*
X1295784Y1102840D01*
X1293648Y1098844D01*
X1292333Y1094509D01*
X1291889Y1090000D01*
X1292333Y1085491D01*
X1293648Y1081156D01*
X1295784Y1077160D01*
X1298658Y1073658D01*
X1302160Y1070784D01*
X1306156Y1068648D01*
X1310491Y1067333D01*
X1315000Y1066889D01*
X1319509Y1067333D01*
X1323844Y1068648D01*
X1327840Y1070784D01*
X1331342Y1073658D01*
X1334216Y1077160D01*
X1336352Y1081156D01*
X1337667Y1085491D01*
X1338111Y1090000D01*
X1337667Y1094509D01*
X1336352Y1098844D01*
X1334216Y1102840D01*
X1331342Y1106342D01*
X1327840Y1109216D01*
X1323844Y1111352D01*
X1319509Y1112667D01*
X1315000Y1113111D01*
D02*
G37*
G36*
X1225597Y1077348D02*
X1224403D01*
X1222647Y1076999D01*
X1221545Y1076542D01*
X1220056Y1075548D01*
X1219212Y1074704D01*
X1218218Y1073215D01*
X1217761Y1072113D01*
X1217412Y1070357D01*
Y1070055D01*
X1217353Y1069760D01*
X1217412Y1069464D01*
Y1069163D01*
X1217761Y1067408D01*
X1218218Y1066305D01*
X1219212Y1064816D01*
X1220056Y1063972D01*
X1221545Y1062978D01*
X1222647Y1062521D01*
X1224403Y1062172D01*
X1225597D01*
X1227353Y1062521D01*
X1228455Y1062978D01*
X1229944Y1063972D01*
X1230788Y1064816D01*
X1231782Y1066305D01*
X1232239Y1067407D01*
X1232588Y1069163D01*
Y1069464D01*
X1232647Y1069760D01*
X1232588Y1070055D01*
Y1070357D01*
X1232239Y1072113D01*
X1231782Y1073215D01*
X1230788Y1074704D01*
X1229944Y1075548D01*
X1228455Y1076542D01*
X1227353Y1076999D01*
X1225597Y1077348D01*
D02*
G37*
G36*
X1615000Y813111D02*
X1610491Y812667D01*
X1606156Y811352D01*
X1602160Y809216D01*
X1598658Y806342D01*
X1595784Y802840D01*
X1593648Y798844D01*
X1592333Y794509D01*
X1591889Y790000D01*
X1592333Y785491D01*
X1593648Y781156D01*
X1595784Y777160D01*
X1598658Y773658D01*
X1602160Y770784D01*
X1606156Y768648D01*
X1610491Y767333D01*
X1615000Y766889D01*
X1619509Y767333D01*
X1623844Y768648D01*
X1627840Y770784D01*
X1631342Y773658D01*
X1634216Y777160D01*
X1636352Y781156D01*
X1637667Y785491D01*
X1638111Y790000D01*
X1637667Y794509D01*
X1636352Y798844D01*
X1634216Y802840D01*
X1631342Y806342D01*
X1627840Y809216D01*
X1623844Y811352D01*
X1619509Y812667D01*
X1615000Y813111D01*
D02*
G37*
G36*
X1315000D02*
X1310491Y812667D01*
X1306156Y811352D01*
X1302160Y809216D01*
X1298658Y806342D01*
X1295784Y802840D01*
X1293648Y798844D01*
X1292333Y794509D01*
X1291889Y790000D01*
X1292333Y785491D01*
X1293648Y781156D01*
X1295784Y777160D01*
X1298658Y773658D01*
X1302160Y770784D01*
X1306156Y768648D01*
X1310491Y767333D01*
X1315000Y766889D01*
X1319509Y767333D01*
X1323844Y768648D01*
X1327840Y770784D01*
X1331342Y773658D01*
X1334216Y777160D01*
X1336352Y781156D01*
X1337667Y785491D01*
X1338111Y790000D01*
X1337667Y794509D01*
X1336352Y798844D01*
X1334216Y802840D01*
X1331342Y806342D01*
X1327840Y809216D01*
X1323844Y811352D01*
X1319509Y812667D01*
X1315000Y813111D01*
D02*
G37*
G36*
X1670000Y987504D02*
X1666867Y987091D01*
X1663948Y985882D01*
X1661441Y983959D01*
X1659568Y981517D01*
X1595400D01*
X1593059Y981052D01*
X1591074Y979726D01*
X1473774Y862426D01*
X1472448Y860441D01*
X1471983Y858100D01*
Y730432D01*
X1469541Y728559D01*
X1467618Y726052D01*
X1466409Y723133D01*
X1466116Y720905D01*
X1466040Y720334D01*
X1464760D01*
X1464684Y720905D01*
X1464391Y723133D01*
X1463182Y726052D01*
X1461259Y728559D01*
X1458752Y730482D01*
X1455833Y731691D01*
X1452700Y732104D01*
X1449567Y731691D01*
X1446648Y730482D01*
X1444142Y728559D01*
X1442218Y726052D01*
X1441009Y723133D01*
X1440716Y720905D01*
X1440640Y720334D01*
X1439360D01*
X1439284Y720905D01*
X1438991Y723133D01*
X1437782Y726052D01*
X1435858Y728559D01*
X1433352Y730482D01*
X1430433Y731691D01*
X1427300Y732104D01*
X1424167Y731691D01*
X1421248Y730482D01*
X1418741Y728559D01*
X1416818Y726052D01*
X1415609Y723133D01*
X1415362Y721255D01*
X1414656Y720910D01*
X1414029Y720862D01*
X1413959Y720944D01*
Y724500D01*
X1413959Y724500D01*
X1413726Y725670D01*
X1413063Y726663D01*
X1408563Y731163D01*
X1408017Y731527D01*
Y918100D01*
X1407552Y920441D01*
X1406226Y922426D01*
X1350976Y977676D01*
X1348991Y979002D01*
X1346650Y979467D01*
X1283527D01*
X1283163Y980013D01*
X1278663Y984513D01*
X1277671Y985176D01*
X1276500Y985409D01*
X1267500D01*
X1267500Y985409D01*
X1266329Y985176D01*
X1265337Y984513D01*
X1260837Y980013D01*
X1260174Y979020D01*
X1259941Y977850D01*
Y968850D01*
X1259941Y968850D01*
X1260174Y967680D01*
X1260837Y966687D01*
X1265337Y962187D01*
X1266329Y961524D01*
X1267500Y961291D01*
X1271672D01*
X1271755Y960021D01*
X1271038Y959927D01*
X1268867Y959641D01*
X1265948Y958432D01*
X1263441Y956508D01*
X1261518Y954002D01*
X1260309Y951083D01*
X1259896Y947950D01*
X1260309Y944817D01*
X1261518Y941898D01*
X1263441Y939391D01*
X1265948Y937468D01*
X1268867Y936259D01*
X1271095Y935966D01*
X1271666Y935890D01*
Y934610D01*
X1271095Y934534D01*
X1268867Y934241D01*
X1265948Y933032D01*
X1263441Y931108D01*
X1261518Y928602D01*
X1260309Y925683D01*
X1259896Y922550D01*
X1260309Y919417D01*
X1261518Y916498D01*
X1263441Y913991D01*
X1265948Y912068D01*
X1268867Y910859D01*
X1271095Y910566D01*
X1271666Y910490D01*
Y909210D01*
X1271095Y909134D01*
X1268867Y908841D01*
X1265948Y907632D01*
X1263441Y905708D01*
X1261518Y903202D01*
X1260309Y900283D01*
X1259896Y897150D01*
X1260309Y894017D01*
X1261518Y891098D01*
X1263441Y888592D01*
X1265948Y886668D01*
X1268867Y885459D01*
X1272000Y885046D01*
X1275133Y885459D01*
X1278052Y886668D01*
X1280558Y888592D01*
X1282482Y891098D01*
X1283691Y894017D01*
X1284104Y897150D01*
X1283691Y900283D01*
X1282482Y903202D01*
X1280558Y905708D01*
X1278052Y907632D01*
X1275133Y908841D01*
X1272905Y909134D01*
X1272334Y909210D01*
Y910490D01*
X1272905Y910566D01*
X1275133Y910859D01*
X1278052Y912068D01*
X1280558Y913991D01*
X1282482Y916498D01*
X1283691Y919417D01*
X1284104Y922550D01*
X1283691Y925683D01*
X1282482Y928602D01*
X1280558Y931108D01*
X1278052Y933032D01*
X1275133Y934241D01*
X1272905Y934534D01*
X1272334Y934610D01*
Y935890D01*
X1272905Y935966D01*
X1275133Y936259D01*
X1278052Y937468D01*
X1280558Y939391D01*
X1282482Y941898D01*
X1283691Y944817D01*
X1284104Y947950D01*
X1283691Y951083D01*
X1282482Y954002D01*
X1280558Y956508D01*
X1278052Y958432D01*
X1275133Y959641D01*
X1272962Y959927D01*
X1272245Y960021D01*
X1272328Y961291D01*
X1276500D01*
X1276500Y961291D01*
X1277671Y961524D01*
X1278663Y962187D01*
X1283163Y966687D01*
X1283527Y967233D01*
X1344116D01*
X1395782Y915566D01*
Y731527D01*
X1395237Y731163D01*
X1390737Y726663D01*
X1390074Y725670D01*
X1389841Y724500D01*
Y715500D01*
X1389841Y715500D01*
X1390074Y714330D01*
X1390737Y713337D01*
X1395237Y708837D01*
X1396230Y708174D01*
X1397400Y707941D01*
X1403833D01*
X1404441Y707200D01*
Y687200D01*
X1404674Y686029D01*
X1405337Y685037D01*
X1406329Y684374D01*
X1407500Y684141D01*
X1472500D01*
X1473671Y684374D01*
X1474663Y685037D01*
X1475326Y686029D01*
X1475559Y687200D01*
Y706950D01*
X1476351Y708046D01*
X1476418Y708118D01*
X1478100Y707896D01*
X1481233Y708309D01*
X1484152Y709518D01*
X1486658Y711441D01*
X1488582Y713948D01*
X1489791Y716867D01*
X1490204Y720000D01*
X1489791Y723133D01*
X1488582Y726052D01*
X1486658Y728559D01*
X1484218Y730432D01*
Y855566D01*
X1597934Y969282D01*
X1659568D01*
X1661441Y966842D01*
X1663948Y964918D01*
X1666867Y963709D01*
X1669095Y963416D01*
X1669666Y963340D01*
Y962059D01*
X1669095Y961984D01*
X1666867Y961691D01*
X1663948Y960482D01*
X1661441Y958559D01*
X1659518Y956052D01*
X1658309Y953133D01*
X1657897Y950000D01*
X1658309Y946867D01*
X1659518Y943948D01*
X1661441Y941441D01*
X1663882Y939568D01*
Y935032D01*
X1661441Y933158D01*
X1659518Y930652D01*
X1658309Y927733D01*
X1657897Y924600D01*
X1658309Y921467D01*
X1659518Y918548D01*
X1661441Y916041D01*
X1663882Y914168D01*
Y909632D01*
X1661441Y907758D01*
X1659518Y905252D01*
X1658309Y902333D01*
X1657897Y899200D01*
X1658309Y896067D01*
X1659518Y893148D01*
X1661441Y890641D01*
X1663948Y888718D01*
X1666867Y887509D01*
X1670000Y887096D01*
X1673133Y887509D01*
X1676052Y888718D01*
X1678559Y890641D01*
X1680482Y893148D01*
X1681691Y896067D01*
X1682103Y899200D01*
X1681691Y902333D01*
X1680482Y905252D01*
X1678559Y907758D01*
X1676118Y909632D01*
Y914168D01*
X1678559Y916041D01*
X1680482Y918548D01*
X1681691Y921467D01*
X1682103Y924600D01*
X1681691Y927733D01*
X1680482Y930652D01*
X1678559Y933158D01*
X1676118Y935032D01*
Y939568D01*
X1678559Y941441D01*
X1680482Y943948D01*
X1681691Y946867D01*
X1682103Y950000D01*
X1681691Y953133D01*
X1680482Y956052D01*
X1678559Y958559D01*
X1676052Y960482D01*
X1673133Y961691D01*
X1670905Y961984D01*
X1670334Y962059D01*
Y963340D01*
X1670905Y963416D01*
X1673133Y963709D01*
X1676052Y964918D01*
X1678559Y966842D01*
X1680482Y969348D01*
X1681691Y972267D01*
X1682103Y975400D01*
X1681691Y978533D01*
X1680482Y981452D01*
X1678559Y983959D01*
X1676052Y985882D01*
X1673133Y987091D01*
X1670000Y987504D01*
D02*
G37*
G36*
Y723102D02*
X1664822Y722694D01*
X1659771Y721482D01*
X1654972Y719494D01*
X1650543Y716780D01*
X1646593Y713407D01*
X1643220Y709457D01*
X1640506Y705028D01*
X1638518Y700229D01*
X1637305Y695178D01*
X1636898Y690000D01*
X1637305Y684822D01*
X1638518Y679771D01*
X1640506Y674972D01*
X1643220Y670543D01*
X1646593Y666593D01*
X1650543Y663220D01*
X1654972Y660506D01*
X1659771Y658518D01*
X1664822Y657306D01*
X1670000Y656898D01*
X1675178Y657306D01*
X1680229Y658518D01*
X1685028Y660506D01*
X1689457Y663220D01*
X1693407Y666593D01*
X1696780Y670543D01*
X1699494Y674972D01*
X1701482Y679771D01*
X1702695Y684822D01*
X1703102Y690000D01*
X1702695Y695178D01*
X1701482Y700229D01*
X1699494Y705028D01*
X1696780Y709457D01*
X1693407Y713407D01*
X1689457Y716780D01*
X1685028Y719494D01*
X1680229Y721482D01*
X1675178Y722694D01*
X1670000Y723102D01*
D02*
G37*
G36*
X1210000D02*
X1204822Y722694D01*
X1199771Y721482D01*
X1194972Y719494D01*
X1190543Y716780D01*
X1186593Y713407D01*
X1183220Y709457D01*
X1180506Y705028D01*
X1178518Y700229D01*
X1177306Y695178D01*
X1176898Y690000D01*
X1177306Y684822D01*
X1178518Y679771D01*
X1180506Y674972D01*
X1183220Y670543D01*
X1186593Y666593D01*
X1190543Y663220D01*
X1194972Y660506D01*
X1199771Y658518D01*
X1204822Y657306D01*
X1210000Y656898D01*
X1215178Y657306D01*
X1220229Y658518D01*
X1225028Y660506D01*
X1229457Y663220D01*
X1233407Y666593D01*
X1236780Y670543D01*
X1239494Y674972D01*
X1241482Y679771D01*
X1242694Y684822D01*
X1243102Y690000D01*
X1242694Y695178D01*
X1241482Y700229D01*
X1239494Y705028D01*
X1236780Y709457D01*
X1233407Y713407D01*
X1229457Y716780D01*
X1225028Y719494D01*
X1220229Y721482D01*
X1215178Y722694D01*
X1210000Y723102D01*
D02*
G37*
G36*
X550000Y1223102D02*
X544822Y1222694D01*
X539771Y1221482D01*
X534972Y1219494D01*
X530543Y1216780D01*
X526593Y1213407D01*
X523220Y1209457D01*
X520506Y1205028D01*
X518518Y1200229D01*
X517305Y1195178D01*
X516898Y1190000D01*
X517305Y1184822D01*
X518518Y1179771D01*
X520506Y1174972D01*
X523220Y1170543D01*
X526593Y1166593D01*
X530543Y1163220D01*
X534972Y1160506D01*
X539771Y1158518D01*
X544822Y1157306D01*
X550000Y1156898D01*
X555178Y1157306D01*
X560229Y1158518D01*
X565028Y1160506D01*
X569457Y1163220D01*
X573407Y1166593D01*
X576780Y1170543D01*
X579494Y1174972D01*
X581482Y1179771D01*
X582695Y1184822D01*
X583102Y1190000D01*
X582695Y1195178D01*
X581482Y1200229D01*
X579494Y1205028D01*
X576780Y1209457D01*
X573407Y1213407D01*
X569457Y1216780D01*
X565028Y1219494D01*
X560229Y1221482D01*
X555178Y1222694D01*
X550000Y1223102D01*
D02*
G37*
G36*
X90000D02*
X84822Y1222694D01*
X79771Y1221482D01*
X74972Y1219494D01*
X70543Y1216780D01*
X66593Y1213407D01*
X63220Y1209457D01*
X60506Y1205028D01*
X58518Y1200229D01*
X57305Y1195178D01*
X56898Y1190000D01*
X57305Y1184822D01*
X58518Y1179771D01*
X60506Y1174972D01*
X63220Y1170543D01*
X66593Y1166593D01*
X70543Y1163220D01*
X74972Y1160506D01*
X79771Y1158518D01*
X84822Y1157306D01*
X90000Y1156898D01*
X95178Y1157306D01*
X100229Y1158518D01*
X105028Y1160506D01*
X109457Y1163220D01*
X113407Y1166593D01*
X116780Y1170543D01*
X119494Y1174972D01*
X121482Y1179771D01*
X122695Y1184822D01*
X123102Y1190000D01*
X122695Y1195178D01*
X121482Y1200229D01*
X119494Y1205028D01*
X116780Y1209457D01*
X113407Y1213407D01*
X109457Y1216780D01*
X105028Y1219494D01*
X100229Y1221482D01*
X95178Y1222694D01*
X90000Y1223102D01*
D02*
G37*
G36*
X118077Y1103438D02*
X116883D01*
X115127Y1103089D01*
X114025Y1102632D01*
X112536Y1101638D01*
X111692Y1100794D01*
X110698Y1099305D01*
X110241Y1098203D01*
X109892Y1096447D01*
Y1096145D01*
X109833Y1095850D01*
X109892Y1095555D01*
Y1095253D01*
X110241Y1093497D01*
X110698Y1092395D01*
X111692Y1090906D01*
X112536Y1090062D01*
X114025Y1089068D01*
X115127Y1088611D01*
X116883Y1088262D01*
X118077D01*
X119832Y1088611D01*
X120935Y1089068D01*
X122424Y1090062D01*
X123268Y1090906D01*
X124262Y1092395D01*
X124719Y1093497D01*
X125068Y1095253D01*
Y1095555D01*
X125127Y1095850D01*
X125068Y1096145D01*
Y1096447D01*
X124719Y1098203D01*
X124262Y1099305D01*
X123268Y1100794D01*
X122424Y1101638D01*
X120935Y1102632D01*
X119833Y1103089D01*
X118077Y1103438D01*
D02*
G37*
G36*
X430000Y1123111D02*
X425491Y1122667D01*
X421156Y1121352D01*
X417160Y1119216D01*
X413658Y1116342D01*
X410784Y1112840D01*
X408648Y1108844D01*
X407333Y1104509D01*
X406889Y1100000D01*
X407333Y1095491D01*
X408648Y1091156D01*
X410784Y1087160D01*
X413658Y1083658D01*
X417160Y1080784D01*
X421156Y1078648D01*
X425491Y1077333D01*
X430000Y1076889D01*
X434509Y1077333D01*
X438844Y1078648D01*
X442840Y1080784D01*
X446342Y1083658D01*
X449216Y1087160D01*
X451352Y1091156D01*
X452667Y1095491D01*
X453111Y1100000D01*
X452667Y1104509D01*
X451352Y1108844D01*
X449216Y1112840D01*
X446342Y1116342D01*
X442840Y1119216D01*
X438844Y1121352D01*
X434509Y1122667D01*
X430000Y1123111D01*
D02*
G37*
G36*
X210000D02*
X205491Y1122667D01*
X201156Y1121352D01*
X197160Y1119216D01*
X193658Y1116342D01*
X190784Y1112840D01*
X188648Y1108844D01*
X187333Y1104509D01*
X186889Y1100000D01*
X187333Y1095491D01*
X188648Y1091156D01*
X190784Y1087160D01*
X193658Y1083658D01*
X197160Y1080784D01*
X201156Y1078648D01*
X205491Y1077333D01*
X210000Y1076889D01*
X214509Y1077333D01*
X218844Y1078648D01*
X222840Y1080784D01*
X226342Y1083658D01*
X229216Y1087160D01*
X231352Y1091156D01*
X232667Y1095491D01*
X233111Y1100000D01*
X232667Y1104509D01*
X231352Y1108844D01*
X229216Y1112840D01*
X226342Y1116342D01*
X222840Y1119216D01*
X218844Y1121352D01*
X214509Y1122667D01*
X210000Y1123111D01*
D02*
G37*
G36*
X118077Y1073438D02*
X116883D01*
X115127Y1073089D01*
X114025Y1072632D01*
X112536Y1071638D01*
X111692Y1070794D01*
X110698Y1069305D01*
X110241Y1068203D01*
X109892Y1066447D01*
Y1066145D01*
X109833Y1065850D01*
X109892Y1065555D01*
Y1065253D01*
X110241Y1063497D01*
X110698Y1062395D01*
X111692Y1060906D01*
X112536Y1060062D01*
X114025Y1059068D01*
X115127Y1058611D01*
X116883Y1058262D01*
X118077D01*
X119832Y1058611D01*
X120935Y1059068D01*
X122424Y1060062D01*
X123268Y1060906D01*
X124262Y1062395D01*
X124719Y1063497D01*
X125068Y1065253D01*
Y1065555D01*
X125127Y1065850D01*
X125068Y1066145D01*
Y1066447D01*
X124719Y1068203D01*
X124262Y1069305D01*
X123268Y1070794D01*
X122424Y1071638D01*
X120935Y1072632D01*
X119833Y1073089D01*
X118077Y1073438D01*
D02*
G37*
G36*
X549500Y1146423D02*
X546367Y1146011D01*
X543448Y1144802D01*
X540942Y1142878D01*
X539018Y1140372D01*
X537809Y1137453D01*
X537397Y1134320D01*
X537798Y1131270D01*
X507544Y1101016D01*
X506218Y1099031D01*
X505752Y1096690D01*
Y978130D01*
Y824404D01*
X452755Y771407D01*
X451632Y772080D01*
X452667Y775491D01*
X453111Y780000D01*
X452667Y784509D01*
X451352Y788844D01*
X449216Y792840D01*
X446342Y796342D01*
X442840Y799216D01*
X438844Y801352D01*
X434509Y802667D01*
X430000Y803111D01*
X425491Y802667D01*
X421156Y801352D01*
X417160Y799216D01*
X413658Y796342D01*
X410784Y792840D01*
X408648Y788844D01*
X407333Y784509D01*
X406889Y780000D01*
X407333Y775491D01*
X408648Y771156D01*
X410784Y767160D01*
X413658Y763658D01*
X417160Y760784D01*
X421156Y758648D01*
X425491Y757333D01*
X430000Y756889D01*
X434509Y757333D01*
X437920Y758368D01*
X438593Y757245D01*
X407466Y726117D01*
X368531D01*
X366659Y728559D01*
X364152Y730482D01*
X361233Y731691D01*
X358100Y732104D01*
X354967Y731691D01*
X352048Y730482D01*
X349542Y728559D01*
X347618Y726052D01*
X346409Y723133D01*
X346116Y720905D01*
X346040Y720334D01*
X344760D01*
X344684Y720905D01*
X344391Y723133D01*
X343182Y726052D01*
X341259Y728559D01*
X338752Y730482D01*
X335833Y731691D01*
X332700Y732104D01*
X329567Y731691D01*
X326648Y730482D01*
X324142Y728559D01*
X322218Y726052D01*
X321009Y723133D01*
X320716Y720905D01*
X320640Y720334D01*
X319360D01*
X319284Y720905D01*
X318991Y723133D01*
X317782Y726052D01*
X315858Y728559D01*
X313352Y730482D01*
X310433Y731691D01*
X307300Y732104D01*
X304167Y731691D01*
X301248Y730482D01*
X298741Y728559D01*
X296818Y726052D01*
X295609Y723133D01*
X295362Y721255D01*
X294656Y720910D01*
X294029Y720862D01*
X293959Y720944D01*
Y724500D01*
X293959Y724500D01*
X293726Y725670D01*
X293063Y726663D01*
X288563Y731163D01*
X287570Y731826D01*
X286400Y732059D01*
X277400D01*
X277400Y732059D01*
X276229Y731826D01*
X275237Y731163D01*
X270737Y726663D01*
X270373Y726117D01*
X232534D01*
X201407Y757245D01*
X202080Y758368D01*
X205491Y757333D01*
X210000Y756889D01*
X214509Y757333D01*
X218844Y758648D01*
X222840Y760784D01*
X226342Y763658D01*
X229216Y767160D01*
X231352Y771156D01*
X232667Y775491D01*
X233111Y780000D01*
X232667Y784509D01*
X231352Y788844D01*
X229216Y792840D01*
X226342Y796342D01*
X222840Y799216D01*
X218844Y801352D01*
X214509Y802667D01*
X210000Y803111D01*
X205491Y802667D01*
X201156Y801352D01*
X197160Y799216D01*
X193658Y796342D01*
X190784Y792840D01*
X188648Y788844D01*
X187333Y784509D01*
X186889Y780000D01*
X187333Y775491D01*
X188368Y772080D01*
X187245Y771407D01*
X116117Y842534D01*
Y928816D01*
X139323Y952022D01*
X140400Y951302D01*
X140309Y951083D01*
X139896Y947950D01*
X140309Y944817D01*
X141518Y941898D01*
X143441Y939391D01*
X145948Y937468D01*
X148867Y936259D01*
X151095Y935966D01*
X151666Y935890D01*
Y934610D01*
X151095Y934534D01*
X148867Y934241D01*
X145948Y933032D01*
X143441Y931108D01*
X141518Y928602D01*
X140309Y925683D01*
X139896Y922550D01*
X140309Y919417D01*
X141518Y916498D01*
X143441Y913991D01*
X145948Y912068D01*
X148867Y910859D01*
X151095Y910566D01*
X151666Y910490D01*
Y909210D01*
X151095Y909134D01*
X148867Y908841D01*
X145948Y907632D01*
X143441Y905708D01*
X141518Y903202D01*
X140309Y900283D01*
X139896Y897150D01*
X140309Y894017D01*
X141518Y891098D01*
X143441Y888592D01*
X145948Y886668D01*
X148867Y885459D01*
X152000Y885046D01*
X155133Y885459D01*
X158052Y886668D01*
X160558Y888592D01*
X162482Y891098D01*
X163691Y894017D01*
X164104Y897150D01*
X163691Y900283D01*
X162482Y903202D01*
X160558Y905708D01*
X158052Y907632D01*
X155133Y908841D01*
X152905Y909134D01*
X152334Y909210D01*
Y910490D01*
X152905Y910566D01*
X155133Y910859D01*
X158052Y912068D01*
X160558Y913991D01*
X162482Y916498D01*
X163691Y919417D01*
X164104Y922550D01*
X163691Y925683D01*
X162482Y928602D01*
X160558Y931108D01*
X158052Y933032D01*
X155133Y934241D01*
X152905Y934534D01*
X152334Y934610D01*
Y935890D01*
X152905Y935966D01*
X155133Y936259D01*
X158052Y937468D01*
X160558Y939391D01*
X162482Y941898D01*
X163691Y944817D01*
X164104Y947950D01*
X163691Y951083D01*
X162482Y954002D01*
X160558Y956508D01*
X158052Y958432D01*
X155133Y959641D01*
X153255Y959888D01*
X152910Y960594D01*
X152862Y961221D01*
X152944Y961291D01*
X156500D01*
X156500Y961291D01*
X157670Y961524D01*
X158663Y962187D01*
X163163Y966687D01*
X163826Y967680D01*
X164059Y968850D01*
Y977850D01*
X164059Y977850D01*
X163826Y979020D01*
X163163Y980013D01*
X158663Y984513D01*
X157670Y985176D01*
X156500Y985409D01*
X147500D01*
X147500Y985409D01*
X146329Y985176D01*
X145337Y984513D01*
X140837Y980013D01*
X140174Y979020D01*
X139941Y977850D01*
Y969943D01*
X105674Y935676D01*
X104348Y933691D01*
X103882Y931350D01*
Y840000D01*
X104348Y837659D01*
X105674Y835674D01*
X225674Y715674D01*
X227659Y714348D01*
X230000Y713882D01*
X270373D01*
X270737Y713337D01*
X275237Y708837D01*
X276229Y708174D01*
X277400Y707941D01*
X283833D01*
X284441Y707200D01*
Y687200D01*
X284674Y686029D01*
X285337Y685037D01*
X286329Y684374D01*
X287500Y684141D01*
X352500D01*
X353671Y684374D01*
X354663Y685037D01*
X355326Y686029D01*
X355559Y687200D01*
Y706950D01*
X356352Y708046D01*
X356418Y708118D01*
X358100Y707896D01*
X361233Y708309D01*
X364152Y709518D01*
X366659Y711441D01*
X368531Y713882D01*
X410000D01*
X412341Y714348D01*
X414326Y715674D01*
X514404Y815752D01*
X539068D01*
X540942Y813311D01*
X543448Y811388D01*
X546367Y810179D01*
X548595Y809886D01*
X549166Y809810D01*
Y808530D01*
X548595Y808454D01*
X546367Y808161D01*
X543448Y806952D01*
X540942Y805029D01*
X539018Y802522D01*
X537809Y799603D01*
X537397Y796470D01*
X537809Y793337D01*
X539018Y790418D01*
X540942Y787912D01*
X543448Y785988D01*
X546367Y784779D01*
X548595Y784486D01*
X549166Y784410D01*
Y783130D01*
X548595Y783054D01*
X546367Y782761D01*
X543448Y781552D01*
X540942Y779629D01*
X539018Y777122D01*
X537809Y774203D01*
X537397Y771070D01*
X537809Y767937D01*
X539018Y765018D01*
X540942Y762512D01*
X543448Y760588D01*
X546367Y759379D01*
X548595Y759086D01*
X549166Y759010D01*
Y757730D01*
X548595Y757654D01*
X546367Y757361D01*
X543448Y756152D01*
X540942Y754229D01*
X539018Y751722D01*
X537809Y748803D01*
X537397Y745670D01*
X537809Y742537D01*
X539018Y739618D01*
X540942Y737112D01*
X543448Y735188D01*
X546367Y733979D01*
X549500Y733567D01*
X552633Y733979D01*
X555552Y735188D01*
X558059Y737112D01*
X559982Y739618D01*
X561191Y742537D01*
X561604Y745670D01*
X561191Y748803D01*
X559982Y751722D01*
X558059Y754229D01*
X555552Y756152D01*
X552633Y757361D01*
X550405Y757654D01*
X549834Y757730D01*
Y759010D01*
X550405Y759086D01*
X552633Y759379D01*
X555552Y760588D01*
X558059Y762512D01*
X559982Y765018D01*
X561191Y767937D01*
X561604Y771070D01*
X561191Y774203D01*
X559982Y777122D01*
X558059Y779629D01*
X555552Y781552D01*
X552633Y782761D01*
X550405Y783054D01*
X549834Y783130D01*
Y784410D01*
X550405Y784486D01*
X552633Y784779D01*
X555552Y785988D01*
X558059Y787912D01*
X559982Y790418D01*
X561191Y793337D01*
X561604Y796470D01*
X561191Y799603D01*
X559982Y802522D01*
X558059Y805029D01*
X555552Y806952D01*
X552633Y808161D01*
X550405Y808454D01*
X549834Y808530D01*
Y809810D01*
X550405Y809886D01*
X552633Y810179D01*
X555552Y811388D01*
X558059Y813311D01*
X559982Y815818D01*
X561191Y818737D01*
X561604Y821870D01*
X561191Y825003D01*
X559982Y827922D01*
X558059Y830428D01*
X555552Y832352D01*
X552633Y833561D01*
X549500Y833973D01*
X546367Y833561D01*
X543448Y832352D01*
X540942Y830428D01*
X539068Y827988D01*
X517988D01*
Y972012D01*
X539061D01*
X540942Y969561D01*
X543448Y967638D01*
X546367Y966429D01*
X548595Y966136D01*
X549166Y966060D01*
Y964780D01*
X548595Y964704D01*
X546367Y964411D01*
X543448Y963202D01*
X540942Y961279D01*
X539018Y958772D01*
X537809Y955853D01*
X537397Y952720D01*
X537809Y949587D01*
X539018Y946668D01*
X540942Y944162D01*
X543448Y942238D01*
X546367Y941029D01*
X548595Y940736D01*
X549166Y940660D01*
Y939380D01*
X548595Y939304D01*
X546367Y939011D01*
X543448Y937802D01*
X540942Y935879D01*
X539018Y933372D01*
X537809Y930453D01*
X537397Y927320D01*
X537809Y924187D01*
X539018Y921268D01*
X540942Y918762D01*
X543448Y916838D01*
X546367Y915629D01*
X548595Y915336D01*
X549166Y915260D01*
Y913980D01*
X548595Y913904D01*
X546367Y913611D01*
X543448Y912402D01*
X540942Y910479D01*
X539018Y907972D01*
X537809Y905053D01*
X537397Y901920D01*
X537809Y898787D01*
X539018Y895868D01*
X540942Y893362D01*
X543448Y891438D01*
X546367Y890229D01*
X549500Y889817D01*
X552633Y890229D01*
X555552Y891438D01*
X558059Y893362D01*
X559982Y895868D01*
X561191Y898787D01*
X561604Y901920D01*
X561191Y905053D01*
X559982Y907972D01*
X558059Y910479D01*
X555552Y912402D01*
X552633Y913611D01*
X550405Y913904D01*
X549834Y913980D01*
Y915260D01*
X550405Y915336D01*
X552633Y915629D01*
X555552Y916838D01*
X558059Y918762D01*
X559982Y921268D01*
X561191Y924187D01*
X561604Y927320D01*
X561191Y930453D01*
X559982Y933372D01*
X558059Y935879D01*
X555552Y937802D01*
X552633Y939011D01*
X550405Y939304D01*
X549834Y939380D01*
Y940660D01*
X550405Y940736D01*
X552633Y941029D01*
X555552Y942238D01*
X558059Y944162D01*
X559982Y946668D01*
X561191Y949587D01*
X561604Y952720D01*
X561191Y955853D01*
X559982Y958772D01*
X558059Y961279D01*
X555552Y963202D01*
X552633Y964411D01*
X550405Y964704D01*
X549834Y964780D01*
Y966060D01*
X550405Y966136D01*
X552633Y966429D01*
X555552Y967638D01*
X558059Y969561D01*
X559982Y972068D01*
X561191Y974987D01*
X561604Y978120D01*
X561191Y981253D01*
X559982Y984172D01*
X558059Y986678D01*
X555552Y988602D01*
X552633Y989811D01*
X549500Y990223D01*
X546367Y989811D01*
X543448Y988602D01*
X540942Y986678D01*
X539076Y984248D01*
X517988D01*
Y1094156D01*
X536823Y1112992D01*
X537900Y1112272D01*
X537809Y1112053D01*
X537397Y1108920D01*
X537809Y1105787D01*
X539018Y1102868D01*
X540942Y1100361D01*
X543448Y1098438D01*
X546367Y1097229D01*
X548595Y1096936D01*
X549166Y1096860D01*
Y1095580D01*
X548595Y1095504D01*
X546367Y1095211D01*
X543448Y1094002D01*
X540942Y1092078D01*
X539018Y1089572D01*
X537809Y1086653D01*
X537397Y1083520D01*
X537809Y1080387D01*
X539018Y1077468D01*
X540942Y1074961D01*
X543448Y1073038D01*
X546367Y1071829D01*
X548595Y1071536D01*
X549166Y1071460D01*
Y1070180D01*
X548595Y1070104D01*
X546367Y1069811D01*
X543448Y1068602D01*
X540942Y1066678D01*
X539018Y1064172D01*
X537809Y1061253D01*
X537397Y1058120D01*
X537809Y1054987D01*
X539018Y1052068D01*
X540942Y1049561D01*
X543448Y1047638D01*
X546367Y1046429D01*
X549500Y1046016D01*
X552633Y1046429D01*
X555552Y1047638D01*
X558059Y1049561D01*
X559982Y1052068D01*
X561191Y1054987D01*
X561604Y1058120D01*
X561191Y1061253D01*
X559982Y1064172D01*
X558059Y1066678D01*
X555552Y1068602D01*
X552633Y1069811D01*
X550405Y1070104D01*
X549834Y1070180D01*
Y1071460D01*
X550405Y1071536D01*
X552633Y1071829D01*
X555552Y1073038D01*
X558059Y1074961D01*
X559982Y1077468D01*
X561191Y1080387D01*
X561604Y1083520D01*
X561191Y1086653D01*
X559982Y1089572D01*
X558059Y1092078D01*
X555552Y1094002D01*
X552633Y1095211D01*
X550405Y1095504D01*
X549834Y1095580D01*
Y1096860D01*
X550405Y1096936D01*
X552633Y1097229D01*
X555552Y1098438D01*
X558059Y1100361D01*
X559982Y1102868D01*
X561191Y1105787D01*
X561604Y1108920D01*
X561191Y1112053D01*
X559982Y1114972D01*
X558059Y1117478D01*
X555552Y1119402D01*
X552633Y1120611D01*
X550405Y1120904D01*
X549834Y1120980D01*
Y1122260D01*
X550405Y1122336D01*
X552633Y1122629D01*
X555552Y1123838D01*
X558059Y1125761D01*
X559982Y1128268D01*
X561191Y1131187D01*
X561604Y1134320D01*
X561191Y1137453D01*
X559982Y1140372D01*
X558059Y1142878D01*
X555552Y1144802D01*
X552633Y1146011D01*
X549500Y1146423D01*
D02*
G37*
G36*
X550000Y723102D02*
X544822Y722694D01*
X539771Y721482D01*
X534972Y719494D01*
X530543Y716780D01*
X526593Y713407D01*
X523220Y709457D01*
X520506Y705028D01*
X518518Y700229D01*
X517305Y695178D01*
X516898Y690000D01*
X517305Y684822D01*
X518518Y679771D01*
X520506Y674972D01*
X523220Y670543D01*
X526593Y666593D01*
X530543Y663220D01*
X534972Y660506D01*
X539771Y658518D01*
X544822Y657306D01*
X550000Y656898D01*
X555178Y657306D01*
X560229Y658518D01*
X565028Y660506D01*
X569457Y663220D01*
X573407Y666593D01*
X576780Y670543D01*
X579494Y674972D01*
X581482Y679771D01*
X582695Y684822D01*
X583102Y690000D01*
X582695Y695178D01*
X581482Y700229D01*
X579494Y705028D01*
X576780Y709457D01*
X573407Y713407D01*
X569457Y716780D01*
X565028Y719494D01*
X560229Y721482D01*
X555178Y722694D01*
X550000Y723102D01*
D02*
G37*
G36*
X90000D02*
X84822Y722694D01*
X79771Y721482D01*
X74972Y719494D01*
X70543Y716780D01*
X66593Y713407D01*
X63220Y709457D01*
X60506Y705028D01*
X58518Y700229D01*
X57305Y695178D01*
X56898Y690000D01*
X57305Y684822D01*
X58518Y679771D01*
X60506Y674972D01*
X63220Y670543D01*
X66593Y666593D01*
X70543Y663220D01*
X74972Y660506D01*
X79771Y658518D01*
X84822Y657306D01*
X90000Y656898D01*
X95178Y657306D01*
X100229Y658518D01*
X105028Y660506D01*
X109457Y663220D01*
X113407Y666593D01*
X116780Y670543D01*
X119494Y674972D01*
X121482Y679771D01*
X122695Y684822D01*
X123102Y690000D01*
X122695Y695178D01*
X121482Y700229D01*
X119494Y705028D01*
X116780Y709457D01*
X113407Y713407D01*
X109457Y716780D01*
X105028Y719494D01*
X100229Y721482D01*
X95178Y722694D01*
X90000Y723102D01*
D02*
G37*
G36*
X1670000Y622641D02*
X1664894Y622239D01*
X1659913Y621043D01*
X1655181Y619083D01*
X1650814Y616407D01*
X1646920Y613080D01*
X1643593Y609186D01*
X1640917Y604818D01*
X1638957Y600087D01*
X1637761Y595106D01*
X1637359Y590000D01*
X1637761Y584894D01*
X1638957Y579913D01*
X1640917Y575182D01*
X1643593Y570814D01*
X1646920Y566920D01*
X1650814Y563593D01*
X1655181Y560917D01*
X1659913Y558957D01*
X1664894Y557761D01*
X1670000Y557359D01*
X1675106Y557761D01*
X1680087Y558957D01*
X1684819Y560917D01*
X1689186Y563593D01*
X1693080Y566920D01*
X1696407Y570814D01*
X1699083Y575182D01*
X1701043Y579913D01*
X1702239Y584894D01*
X1702641Y590000D01*
X1702239Y595106D01*
X1701043Y600087D01*
X1699083Y604818D01*
X1696407Y609186D01*
X1693080Y613080D01*
X1689186Y616407D01*
X1684819Y619083D01*
X1680087Y621043D01*
X1675106Y622239D01*
X1670000Y622641D01*
D02*
G37*
G36*
X1210000D02*
X1204894Y622239D01*
X1199913Y621043D01*
X1195182Y619083D01*
X1190814Y616407D01*
X1186920Y613080D01*
X1183593Y609186D01*
X1180917Y604818D01*
X1178957Y600087D01*
X1177761Y595106D01*
X1177359Y590000D01*
X1177761Y584894D01*
X1178957Y579913D01*
X1180917Y575182D01*
X1183593Y570814D01*
X1186920Y566920D01*
X1190814Y563593D01*
X1195182Y560917D01*
X1199913Y558957D01*
X1204894Y557761D01*
X1210000Y557359D01*
X1215106Y557761D01*
X1220087Y558957D01*
X1224818Y560917D01*
X1229186Y563593D01*
X1233080Y566920D01*
X1236407Y570814D01*
X1239083Y575182D01*
X1241043Y579913D01*
X1242239Y584894D01*
X1242641Y590000D01*
X1242239Y595106D01*
X1241043Y600087D01*
X1239083Y604818D01*
X1236407Y609186D01*
X1233080Y613080D01*
X1229186Y616407D01*
X1224818Y619083D01*
X1220087Y621043D01*
X1215106Y622239D01*
X1210000Y622641D01*
D02*
G37*
G36*
X1525000Y547649D02*
X1520581Y547214D01*
X1516333Y545925D01*
X1512417Y543832D01*
X1508985Y541015D01*
X1506168Y537583D01*
X1504075Y533667D01*
X1502786Y529419D01*
X1502351Y525000D01*
X1502786Y520581D01*
X1504075Y516333D01*
X1506168Y512417D01*
X1508985Y508985D01*
X1512417Y506168D01*
X1516333Y504075D01*
X1520581Y502786D01*
X1525000Y502351D01*
X1529419Y502786D01*
X1533667Y504075D01*
X1537583Y506168D01*
X1541015Y508985D01*
X1543832Y512417D01*
X1545925Y516333D01*
X1547214Y520581D01*
X1547649Y525000D01*
X1547214Y529419D01*
X1545925Y533667D01*
X1543832Y537583D01*
X1541015Y541015D01*
X1537583Y543832D01*
X1533667Y545925D01*
X1529419Y547214D01*
X1525000Y547649D01*
D02*
G37*
G36*
X1355000D02*
X1350581Y547214D01*
X1346333Y545925D01*
X1342417Y543832D01*
X1338985Y541015D01*
X1336168Y537583D01*
X1334075Y533667D01*
X1332786Y529419D01*
X1332351Y525000D01*
X1332786Y520581D01*
X1334075Y516333D01*
X1336168Y512417D01*
X1338985Y508985D01*
X1342417Y506168D01*
X1346333Y504075D01*
X1350581Y502786D01*
X1355000Y502351D01*
X1359419Y502786D01*
X1363667Y504075D01*
X1367583Y506168D01*
X1371015Y508985D01*
X1373832Y512417D01*
X1375925Y516333D01*
X1377214Y520581D01*
X1377649Y525000D01*
X1377214Y529419D01*
X1375925Y533667D01*
X1373832Y537583D01*
X1371015Y541015D01*
X1367583Y543832D01*
X1363667Y545925D01*
X1359419Y547214D01*
X1355000Y547649D01*
D02*
G37*
G36*
X1670000Y494739D02*
X1666987Y494343D01*
X1664180Y493180D01*
X1661770Y491330D01*
X1659920Y488920D01*
X1658757Y486113D01*
X1658360Y483100D01*
X1658757Y480088D01*
X1659920Y477280D01*
X1661770Y474870D01*
X1664180Y473020D01*
X1666987Y471857D01*
X1670000Y471460D01*
X1673013Y471857D01*
X1675820Y473020D01*
X1678230Y474870D01*
X1680080Y477280D01*
X1681243Y480088D01*
X1681640Y483100D01*
X1681243Y486113D01*
X1680080Y488920D01*
X1678230Y491330D01*
X1675820Y493180D01*
X1673013Y494343D01*
X1670000Y494739D01*
D02*
G37*
G36*
Y469339D02*
X1666987Y468943D01*
X1664180Y467780D01*
X1661770Y465930D01*
X1659920Y463520D01*
X1658757Y460713D01*
X1658360Y457700D01*
X1658757Y454688D01*
X1659920Y451880D01*
X1661770Y449470D01*
X1664180Y447620D01*
X1666987Y446457D01*
X1670000Y446060D01*
X1673013Y446457D01*
X1675820Y447620D01*
X1678230Y449470D01*
X1680080Y451880D01*
X1681243Y454688D01*
X1681640Y457700D01*
X1681243Y460713D01*
X1680080Y463520D01*
X1678230Y465930D01*
X1675820Y467780D01*
X1673013Y468943D01*
X1670000Y469339D01*
D02*
G37*
G36*
Y443940D02*
X1666987Y443543D01*
X1664180Y442380D01*
X1661770Y440530D01*
X1659920Y438120D01*
X1658757Y435312D01*
X1658360Y432300D01*
X1658757Y429287D01*
X1659920Y426480D01*
X1661770Y424070D01*
X1664180Y422220D01*
X1666987Y421057D01*
X1670000Y420660D01*
X1673013Y421057D01*
X1675820Y422220D01*
X1678230Y424070D01*
X1680080Y426480D01*
X1681243Y429287D01*
X1681640Y432300D01*
X1681243Y435312D01*
X1680080Y438120D01*
X1678230Y440530D01*
X1675820Y442380D01*
X1673013Y443543D01*
X1670000Y443940D01*
D02*
G37*
G36*
Y418540D02*
X1666987Y418143D01*
X1664180Y416980D01*
X1661770Y415130D01*
X1659920Y412720D01*
X1658757Y409912D01*
X1658360Y406900D01*
X1658757Y403887D01*
X1659920Y401080D01*
X1661770Y398670D01*
X1664180Y396820D01*
X1666987Y395657D01*
X1670000Y395260D01*
X1673013Y395657D01*
X1675820Y396820D01*
X1678230Y398670D01*
X1680080Y401080D01*
X1681243Y403887D01*
X1681640Y406900D01*
X1681243Y409912D01*
X1680080Y412720D01*
X1678230Y415130D01*
X1675820Y416980D01*
X1673013Y418143D01*
X1670000Y418540D01*
D02*
G37*
G36*
X1276500Y389690D02*
X1267500D01*
X1266509Y389493D01*
X1265669Y388931D01*
X1261169Y384431D01*
X1260607Y383591D01*
X1260410Y382600D01*
Y373600D01*
X1260607Y372609D01*
X1261169Y371769D01*
X1265669Y367269D01*
X1266509Y366707D01*
X1267500Y366510D01*
X1276500D01*
X1277491Y366707D01*
X1278331Y367269D01*
X1282831Y371769D01*
X1283393Y372609D01*
X1283590Y373600D01*
Y382600D01*
X1283393Y383591D01*
X1282831Y384431D01*
X1278331Y388931D01*
X1277491Y389493D01*
X1276500Y389690D01*
D02*
G37*
G36*
X1572500Y368658D02*
X1570143Y368190D01*
X1570082Y368148D01*
X1567500D01*
X1565338Y367719D01*
X1563506Y366494D01*
X1563506Y366494D01*
X1528306Y331294D01*
X1527081Y329462D01*
X1526695Y327521D01*
X1504294Y305119D01*
X1321119D01*
Y315396D01*
X1321806Y316424D01*
X1322119Y318000D01*
Y323027D01*
X1322331Y323169D01*
X1322893Y324009D01*
X1323090Y325000D01*
Y329000D01*
X1322893Y329991D01*
X1322331Y330831D01*
X1321491Y331393D01*
X1320500Y331590D01*
X1315500D01*
X1314509Y331393D01*
X1313669Y330831D01*
X1313107Y329991D01*
X1312910Y329000D01*
Y325000D01*
X1313107Y324009D01*
X1313669Y323169D01*
X1313881Y323027D01*
Y319604D01*
X1313194Y318576D01*
X1312881Y317000D01*
Y304973D01*
X1312669Y304831D01*
X1312107Y303991D01*
X1311910Y303000D01*
Y299000D01*
X1312107Y298009D01*
X1312669Y297169D01*
X1313509Y296607D01*
X1314500Y296410D01*
X1319500D01*
X1320491Y296607D01*
X1320900Y296881D01*
X1506000D01*
X1507576Y297194D01*
X1508913Y298087D01*
X1532521Y321695D01*
X1534462Y322081D01*
X1536294Y323306D01*
X1569840Y356852D01*
X1570082D01*
X1570143Y356810D01*
X1572500Y356342D01*
X1574857Y356810D01*
X1576855Y358145D01*
X1578190Y360143D01*
X1578658Y362500D01*
X1578190Y364857D01*
X1576855Y366855D01*
X1574857Y368190D01*
X1572500Y368658D01*
D02*
G37*
G36*
X1630505Y362368D02*
X1629495D01*
X1627739Y362019D01*
X1626805Y361632D01*
X1625317Y360638D01*
X1625317Y360638D01*
X1624602Y359923D01*
X1624602Y359923D01*
X1623608Y358435D01*
X1623221Y357501D01*
X1622872Y355745D01*
Y355490D01*
X1622822Y355240D01*
X1622872Y354990D01*
Y354735D01*
X1623221Y352979D01*
X1623608Y352045D01*
X1624602Y350557D01*
X1624602Y350557D01*
X1625317Y349842D01*
X1625317Y349842D01*
X1626805Y348848D01*
X1627739Y348461D01*
X1629495Y348112D01*
X1630505D01*
X1632261Y348461D01*
X1633195Y348848D01*
X1634683Y349842D01*
X1634683Y349842D01*
X1635398Y350557D01*
X1635398Y350557D01*
X1636392Y352045D01*
X1636779Y352979D01*
X1637128Y354735D01*
Y354990D01*
X1637178Y355240D01*
X1637128Y355490D01*
Y355745D01*
X1636779Y357501D01*
X1636392Y358435D01*
X1635398Y359923D01*
X1635398Y359923D01*
X1634683Y360638D01*
X1634683Y360638D01*
X1633195Y361632D01*
X1632261Y362019D01*
X1630505Y362368D01*
D02*
G37*
G36*
X1272000Y364340D02*
X1268988Y363943D01*
X1266180Y362780D01*
X1263770Y360930D01*
X1261920Y358520D01*
X1260757Y355713D01*
X1260360Y352700D01*
X1260757Y349688D01*
X1261920Y346880D01*
X1263770Y344470D01*
X1266180Y342620D01*
X1268988Y341457D01*
X1272000Y341060D01*
X1275013Y341457D01*
X1277820Y342620D01*
X1280230Y344470D01*
X1282080Y346880D01*
X1283243Y349688D01*
X1283640Y352700D01*
X1283243Y355713D01*
X1282080Y358520D01*
X1280230Y360930D01*
X1277820Y362780D01*
X1275013Y363943D01*
X1272000Y364340D01*
D02*
G37*
G36*
Y338940D02*
X1268988Y338543D01*
X1266180Y337380D01*
X1263770Y335530D01*
X1261920Y333120D01*
X1260757Y330312D01*
X1260360Y327300D01*
X1260757Y324287D01*
X1261920Y321480D01*
X1263770Y319070D01*
X1266180Y317220D01*
X1268988Y316057D01*
X1272000Y315660D01*
X1275013Y316057D01*
X1277820Y317220D01*
X1280230Y319070D01*
X1282080Y321480D01*
X1282660Y322881D01*
X1301100D01*
X1301509Y322607D01*
X1302500Y322410D01*
X1307500D01*
X1308491Y322607D01*
X1309331Y323169D01*
X1309893Y324009D01*
X1310090Y325000D01*
Y329000D01*
X1309893Y329991D01*
X1309331Y330831D01*
X1308491Y331393D01*
X1307500Y331590D01*
X1302500D01*
X1301509Y331393D01*
X1301100Y331119D01*
X1282909D01*
X1282080Y333120D01*
X1280230Y335530D01*
X1277820Y337380D01*
X1275013Y338543D01*
X1272000Y338940D01*
D02*
G37*
G36*
X1630505Y332368D02*
X1629495D01*
X1627739Y332019D01*
X1626805Y331632D01*
X1625317Y330638D01*
X1625317Y330638D01*
X1624602Y329923D01*
X1624602Y329923D01*
X1623608Y328435D01*
X1623221Y327501D01*
X1622872Y325745D01*
Y325490D01*
X1622822Y325240D01*
X1622872Y324990D01*
Y324735D01*
X1623221Y322979D01*
X1623608Y322045D01*
X1624602Y320557D01*
X1624602Y320557D01*
X1625317Y319842D01*
X1625317Y319842D01*
X1626805Y318848D01*
X1627739Y318461D01*
X1629495Y318112D01*
X1630505D01*
X1632261Y318461D01*
X1633195Y318848D01*
X1634683Y319842D01*
X1634683Y319842D01*
X1635398Y320557D01*
X1635398Y320557D01*
X1636392Y322045D01*
X1636779Y322979D01*
X1637128Y324735D01*
Y324990D01*
X1637178Y325240D01*
X1637128Y325490D01*
Y325745D01*
X1636779Y327501D01*
X1636392Y328435D01*
X1635398Y329923D01*
X1635398Y329923D01*
X1634683Y330638D01*
X1634683Y330638D01*
X1633195Y331632D01*
X1632261Y332019D01*
X1630505Y332368D01*
D02*
G37*
G36*
X1272000Y313540D02*
X1268988Y313143D01*
X1266180Y311980D01*
X1263770Y310130D01*
X1261920Y307720D01*
X1260757Y304912D01*
X1260360Y301900D01*
X1260757Y298888D01*
X1261920Y296080D01*
X1263770Y293670D01*
X1266180Y291820D01*
X1268988Y290657D01*
X1272000Y290261D01*
X1275013Y290657D01*
X1277820Y291820D01*
X1280230Y293670D01*
X1282080Y296080D01*
X1282412Y296881D01*
X1300100D01*
X1300509Y296607D01*
X1301500Y296410D01*
X1306500D01*
X1307491Y296607D01*
X1308331Y297169D01*
X1308893Y298009D01*
X1309090Y299000D01*
Y303000D01*
X1308893Y303991D01*
X1308331Y304831D01*
X1307491Y305393D01*
X1306500Y305590D01*
X1301500D01*
X1300509Y305393D01*
X1300100Y305119D01*
X1283157D01*
X1282080Y307720D01*
X1280230Y310130D01*
X1277820Y311980D01*
X1275013Y313143D01*
X1272000Y313540D01*
D02*
G37*
G36*
X1652500Y346158D02*
X1650143Y345690D01*
X1648145Y344355D01*
X1646810Y342357D01*
X1646342Y340000D01*
X1646810Y337643D01*
X1646852Y337582D01*
Y248750D01*
X1646851Y248750D01*
X1647281Y246588D01*
X1648506Y244756D01*
X1650506Y242756D01*
X1650506Y242756D01*
X1652338Y241531D01*
X1654500Y241101D01*
X1654500Y241101D01*
X1659349D01*
X1659420Y240930D01*
X1661270Y238520D01*
X1663680Y236670D01*
X1666487Y235507D01*
X1669500Y235110D01*
X1672513Y235507D01*
X1675320Y236670D01*
X1677730Y238520D01*
X1679580Y240930D01*
X1680743Y243738D01*
X1681140Y246750D01*
X1680743Y249762D01*
X1679580Y252570D01*
X1677730Y254980D01*
X1675320Y256830D01*
X1672513Y257993D01*
X1669500Y258390D01*
X1666487Y257993D01*
X1663680Y256830D01*
X1661270Y254980D01*
X1659420Y252570D01*
X1659349Y252398D01*
X1658148D01*
Y266081D01*
X1659418Y266333D01*
X1659420Y266330D01*
X1661270Y263920D01*
X1663680Y262070D01*
X1666487Y260907D01*
X1669500Y260511D01*
X1672513Y260907D01*
X1675320Y262070D01*
X1677730Y263920D01*
X1679580Y266330D01*
X1680743Y269137D01*
X1681140Y272150D01*
X1680743Y275163D01*
X1679580Y277970D01*
X1677730Y280380D01*
X1675320Y282230D01*
X1672513Y283393D01*
X1669500Y283790D01*
X1666487Y283393D01*
X1663680Y282230D01*
X1661270Y280380D01*
X1659420Y277970D01*
X1659418Y277967D01*
X1658148Y278219D01*
Y337582D01*
X1658190Y337643D01*
X1658658Y340000D01*
X1658190Y342357D01*
X1656855Y344355D01*
X1654857Y345690D01*
X1652500Y346158D01*
D02*
G37*
G36*
X1669500Y232990D02*
X1666487Y232593D01*
X1663680Y231430D01*
X1661270Y229580D01*
X1659420Y227170D01*
X1658257Y224363D01*
X1657860Y221350D01*
X1658257Y218337D01*
X1659420Y215530D01*
X1661270Y213120D01*
X1663680Y211270D01*
X1666487Y210107D01*
X1669500Y209711D01*
X1672513Y210107D01*
X1675320Y211270D01*
X1677730Y213120D01*
X1679580Y215530D01*
X1680743Y218337D01*
X1681140Y221350D01*
X1680743Y224363D01*
X1679580Y227170D01*
X1677730Y229580D01*
X1675320Y231430D01*
X1672513Y232593D01*
X1669500Y232990D01*
D02*
G37*
G36*
Y207590D02*
X1666487Y207193D01*
X1663680Y206030D01*
X1661270Y204180D01*
X1659420Y201770D01*
X1658257Y198962D01*
X1657860Y195950D01*
X1658257Y192938D01*
X1659420Y190130D01*
X1661270Y187720D01*
X1663680Y185870D01*
X1666487Y184707D01*
X1669500Y184310D01*
X1672513Y184707D01*
X1675320Y185870D01*
X1677730Y187720D01*
X1679580Y190130D01*
X1680743Y192938D01*
X1681140Y195950D01*
X1680743Y198962D01*
X1679580Y201770D01*
X1677730Y204180D01*
X1675320Y206030D01*
X1672513Y207193D01*
X1669500Y207590D01*
D02*
G37*
G36*
X1525000Y177649D02*
X1520581Y177214D01*
X1516333Y175925D01*
X1512417Y173832D01*
X1508985Y171015D01*
X1506168Y167583D01*
X1504075Y163667D01*
X1502786Y159419D01*
X1502351Y155000D01*
X1502786Y150581D01*
X1504075Y146333D01*
X1506168Y142417D01*
X1508985Y138985D01*
X1512417Y136168D01*
X1516333Y134075D01*
X1520581Y132786D01*
X1525000Y132351D01*
X1529419Y132786D01*
X1533667Y134075D01*
X1537583Y136168D01*
X1541015Y138985D01*
X1543832Y142417D01*
X1545925Y146333D01*
X1547214Y150581D01*
X1547649Y155000D01*
X1547214Y159419D01*
X1545925Y163667D01*
X1543832Y167583D01*
X1541015Y171015D01*
X1537583Y173832D01*
X1533667Y175925D01*
X1529419Y177214D01*
X1525000Y177649D01*
D02*
G37*
G36*
X1355000D02*
X1350581Y177214D01*
X1346333Y175925D01*
X1342417Y173832D01*
X1338985Y171015D01*
X1336168Y167583D01*
X1334075Y163667D01*
X1332786Y159419D01*
X1332351Y155000D01*
X1332786Y150581D01*
X1334075Y146333D01*
X1336168Y142417D01*
X1338985Y138985D01*
X1342417Y136168D01*
X1346333Y134075D01*
X1350581Y132786D01*
X1355000Y132351D01*
X1359419Y132786D01*
X1363667Y134075D01*
X1367583Y136168D01*
X1371015Y138985D01*
X1373832Y142417D01*
X1375925Y146333D01*
X1377214Y150581D01*
X1377649Y155000D01*
X1377214Y159419D01*
X1375925Y163667D01*
X1373832Y167583D01*
X1371015Y171015D01*
X1367583Y173832D01*
X1363667Y175925D01*
X1359419Y177214D01*
X1355000Y177649D01*
D02*
G37*
G36*
X1478100Y131640D02*
X1475087Y131243D01*
X1472280Y130080D01*
X1469870Y128230D01*
X1468020Y125820D01*
X1466857Y123013D01*
X1466460Y120000D01*
X1466857Y116987D01*
X1468020Y114180D01*
X1469870Y111770D01*
X1470795Y111060D01*
X1470363Y109790D01*
X1460436D01*
X1460005Y111060D01*
X1460930Y111770D01*
X1462780Y114180D01*
X1463943Y116987D01*
X1464339Y120000D01*
X1463943Y123013D01*
X1462780Y125820D01*
X1460930Y128230D01*
X1458520Y130080D01*
X1455712Y131243D01*
X1452700Y131640D01*
X1449687Y131243D01*
X1446880Y130080D01*
X1444470Y128230D01*
X1442620Y125820D01*
X1441457Y123013D01*
X1441060Y120000D01*
X1441457Y116987D01*
X1442620Y114180D01*
X1444470Y111770D01*
X1445395Y111060D01*
X1444964Y109790D01*
X1435036D01*
X1434605Y111060D01*
X1435530Y111770D01*
X1437380Y114180D01*
X1438543Y116987D01*
X1438940Y120000D01*
X1438543Y123013D01*
X1437380Y125820D01*
X1435530Y128230D01*
X1433120Y130080D01*
X1430312Y131243D01*
X1427300Y131640D01*
X1424287Y131243D01*
X1421480Y130080D01*
X1419070Y128230D01*
X1417220Y125820D01*
X1416057Y123013D01*
X1415660Y120000D01*
X1416057Y116987D01*
X1417220Y114180D01*
X1419070Y111770D01*
X1419995Y111060D01*
X1419563Y109790D01*
X1410512D01*
X1410025Y110963D01*
X1412731Y113669D01*
X1413293Y114509D01*
X1413490Y115500D01*
Y124500D01*
X1413293Y125491D01*
X1412731Y126331D01*
X1408231Y130831D01*
X1407391Y131393D01*
X1406400Y131590D01*
X1397400D01*
X1396409Y131393D01*
X1395569Y130831D01*
X1391069Y126331D01*
X1390507Y125491D01*
X1390310Y124500D01*
Y115500D01*
X1390507Y114509D01*
X1391069Y113669D01*
X1395569Y109169D01*
X1396409Y108607D01*
X1397400Y108410D01*
X1403856D01*
X1404910Y107200D01*
Y87200D01*
X1405107Y86209D01*
X1405669Y85369D01*
X1406509Y84807D01*
X1407500Y84610D01*
X1472500D01*
X1473491Y84807D01*
X1474331Y85369D01*
X1474893Y86209D01*
X1475090Y87200D01*
Y107200D01*
X1475033Y107483D01*
X1476006Y108636D01*
X1478100Y108361D01*
X1481113Y108757D01*
X1483920Y109920D01*
X1486330Y111770D01*
X1488180Y114180D01*
X1489343Y116987D01*
X1489740Y120000D01*
X1489343Y123013D01*
X1488180Y125820D01*
X1486330Y128230D01*
X1483920Y130080D01*
X1481113Y131243D01*
X1478100Y131640D01*
D02*
G37*
G36*
X1670000Y122641D02*
X1664894Y122239D01*
X1659913Y121043D01*
X1655181Y119083D01*
X1650814Y116407D01*
X1646920Y113080D01*
X1643593Y109186D01*
X1640917Y104818D01*
X1638957Y100086D01*
X1637761Y95106D01*
X1637359Y90000D01*
X1637761Y84894D01*
X1638957Y79914D01*
X1640917Y75181D01*
X1643593Y70814D01*
X1646920Y66920D01*
X1650814Y63593D01*
X1655181Y60917D01*
X1659913Y58957D01*
X1664894Y57761D01*
X1670000Y57359D01*
X1675106Y57761D01*
X1680087Y58957D01*
X1684819Y60917D01*
X1689186Y63593D01*
X1693080Y66920D01*
X1696407Y70814D01*
X1699083Y75181D01*
X1701043Y79914D01*
X1702239Y84894D01*
X1702641Y90000D01*
X1702239Y95106D01*
X1701043Y100086D01*
X1699083Y104818D01*
X1696407Y109186D01*
X1693080Y113080D01*
X1689186Y116407D01*
X1684819Y119083D01*
X1680087Y121043D01*
X1675106Y122239D01*
X1670000Y122641D01*
D02*
G37*
G36*
X1210000D02*
X1204894Y122239D01*
X1199913Y121043D01*
X1195182Y119083D01*
X1190814Y116407D01*
X1186920Y113080D01*
X1183593Y109186D01*
X1180917Y104818D01*
X1178957Y100086D01*
X1177761Y95106D01*
X1177359Y90000D01*
X1177761Y84894D01*
X1178957Y79914D01*
X1180917Y75181D01*
X1183593Y70814D01*
X1186920Y66920D01*
X1190814Y63593D01*
X1195182Y60917D01*
X1199913Y58957D01*
X1204894Y57761D01*
X1210000Y57359D01*
X1215106Y57761D01*
X1220087Y58957D01*
X1224818Y60917D01*
X1229186Y63593D01*
X1233080Y66920D01*
X1236407Y70814D01*
X1239083Y75181D01*
X1241043Y79914D01*
X1242239Y84894D01*
X1242641Y90000D01*
X1242239Y95106D01*
X1241043Y100086D01*
X1239083Y104818D01*
X1236407Y109186D01*
X1233080Y113080D01*
X1229186Y116407D01*
X1224818Y119083D01*
X1220087Y121043D01*
X1215106Y122239D01*
X1210000Y122641D01*
D02*
G37*
G36*
X1110000Y622641D02*
X1104894Y622239D01*
X1099913Y621043D01*
X1095182Y619083D01*
X1090814Y616407D01*
X1086920Y613080D01*
X1083593Y609186D01*
X1080917Y604818D01*
X1078957Y600087D01*
X1077761Y595106D01*
X1077359Y590000D01*
X1077761Y584894D01*
X1078957Y579913D01*
X1080917Y575182D01*
X1083593Y570814D01*
X1086920Y566920D01*
X1090814Y563593D01*
X1095182Y560917D01*
X1099913Y558957D01*
X1104894Y557761D01*
X1110000Y557359D01*
X1115106Y557761D01*
X1120087Y558957D01*
X1124818Y560917D01*
X1129186Y563593D01*
X1133080Y566920D01*
X1136407Y570814D01*
X1139083Y575182D01*
X1141043Y579913D01*
X1142239Y584894D01*
X1142641Y590000D01*
X1142239Y595106D01*
X1141043Y600087D01*
X1139083Y604818D01*
X1136407Y609186D01*
X1133080Y613080D01*
X1129186Y616407D01*
X1124818Y619083D01*
X1120087Y621043D01*
X1115106Y622239D01*
X1110000Y622641D01*
D02*
G37*
G36*
X650000D02*
X644894Y622239D01*
X639913Y621043D01*
X635182Y619083D01*
X630814Y616407D01*
X626920Y613080D01*
X623593Y609186D01*
X620917Y604818D01*
X618957Y600087D01*
X617761Y595106D01*
X617359Y590000D01*
X617761Y584894D01*
X618957Y579913D01*
X620917Y575182D01*
X623593Y570814D01*
X626920Y566920D01*
X630814Y563593D01*
X635182Y560917D01*
X639913Y558957D01*
X644894Y557761D01*
X650000Y557359D01*
X655106Y557761D01*
X660087Y558957D01*
X664818Y560917D01*
X669186Y563593D01*
X673080Y566920D01*
X676407Y570814D01*
X679083Y575182D01*
X681043Y579913D01*
X682239Y584894D01*
X682641Y590000D01*
X682239Y595106D01*
X681043Y600087D01*
X679083Y604818D01*
X676407Y609186D01*
X673080Y613080D01*
X669186Y616407D01*
X664818Y619083D01*
X660087Y621043D01*
X655106Y622239D01*
X650000Y622641D01*
D02*
G37*
G36*
X1110000Y494739D02*
X1106987Y494343D01*
X1104180Y493180D01*
X1101770Y491330D01*
X1100516Y489696D01*
X1079100D01*
X1077393Y489472D01*
X1075802Y488813D01*
X1074436Y487764D01*
X1064336Y477664D01*
X1063287Y476298D01*
X1062628Y474707D01*
X1062404Y473000D01*
Y403000D01*
X1062628Y401293D01*
X1063287Y399702D01*
X1064336Y398336D01*
X1102904Y359768D01*
Y281634D01*
X1101270Y280380D01*
X1100016Y278746D01*
X1077150D01*
X1075443Y278522D01*
X1073852Y277863D01*
X1072486Y276814D01*
X1069336Y273664D01*
X1068287Y272298D01*
X1067628Y270707D01*
X1067404Y269000D01*
Y161732D01*
X1031268Y125596D01*
X928273D01*
X928180Y125820D01*
X926330Y128230D01*
X923920Y130080D01*
X921113Y131243D01*
X918100Y131640D01*
X915088Y131243D01*
X912280Y130080D01*
X909870Y128230D01*
X908020Y125820D01*
X906857Y123013D01*
X906460Y120000D01*
X906857Y116987D01*
X908020Y114180D01*
X909870Y111770D01*
X910795Y111060D01*
X910363Y109790D01*
X900436D01*
X900005Y111060D01*
X900930Y111770D01*
X902780Y114180D01*
X903943Y116987D01*
X904340Y120000D01*
X903943Y123013D01*
X902780Y125820D01*
X900930Y128230D01*
X898520Y130080D01*
X895713Y131243D01*
X892700Y131640D01*
X889688Y131243D01*
X886880Y130080D01*
X884470Y128230D01*
X882620Y125820D01*
X881457Y123013D01*
X881060Y120000D01*
X881457Y116987D01*
X882620Y114180D01*
X884470Y111770D01*
X885395Y111060D01*
X884964Y109790D01*
X875036D01*
X874605Y111060D01*
X875530Y111770D01*
X877380Y114180D01*
X878543Y116987D01*
X878940Y120000D01*
X878543Y123013D01*
X877380Y125820D01*
X875530Y128230D01*
X873120Y130080D01*
X870312Y131243D01*
X867300Y131640D01*
X864287Y131243D01*
X861480Y130080D01*
X859070Y128230D01*
X857220Y125820D01*
X856057Y123013D01*
X855660Y120000D01*
X856057Y116987D01*
X857220Y114180D01*
X859070Y111770D01*
X859995Y111060D01*
X859564Y109790D01*
X850512D01*
X850025Y110963D01*
X852731Y113669D01*
X853293Y114509D01*
X853490Y115500D01*
Y124500D01*
X853293Y125491D01*
X852731Y126331D01*
X848231Y130831D01*
X847391Y131393D01*
X846400Y131590D01*
X837400D01*
X836409Y131393D01*
X835569Y130831D01*
X833334Y128596D01*
X739732D01*
X687696Y180632D01*
Y371504D01*
X701434D01*
X705669Y367269D01*
X706509Y366707D01*
X707500Y366510D01*
X716500D01*
X717491Y366707D01*
X718331Y367269D01*
X722831Y371769D01*
X723393Y372609D01*
X723590Y373600D01*
Y382600D01*
X723393Y383591D01*
X722831Y384431D01*
X718331Y388931D01*
X717491Y389493D01*
X716500Y389690D01*
X707500D01*
X706509Y389493D01*
X705669Y388931D01*
X701434Y384696D01*
X681100D01*
X679393Y384472D01*
X677802Y383813D01*
X676436Y382764D01*
X675387Y381398D01*
X674728Y379807D01*
X674504Y378100D01*
Y177900D01*
X674728Y176193D01*
X675387Y174602D01*
X676436Y173236D01*
X732336Y117336D01*
X733702Y116287D01*
X735293Y115628D01*
X737000Y115404D01*
X830329D01*
X830507Y114509D01*
X831069Y113669D01*
X835569Y109169D01*
X836409Y108607D01*
X837400Y108410D01*
X843856D01*
X844910Y107200D01*
Y87200D01*
X845107Y86209D01*
X845669Y85369D01*
X846509Y84807D01*
X847500Y84610D01*
X912500D01*
X913491Y84807D01*
X914331Y85369D01*
X914893Y86209D01*
X915090Y87200D01*
Y107200D01*
X915033Y107483D01*
X916006Y108636D01*
X918100Y108361D01*
X921113Y108757D01*
X923920Y109920D01*
X926330Y111770D01*
X926817Y112404D01*
X1034000D01*
X1035707Y112628D01*
X1037298Y113287D01*
X1038664Y114336D01*
X1078664Y154336D01*
X1079713Y155702D01*
X1080372Y157293D01*
X1080596Y159000D01*
Y265554D01*
X1100016D01*
X1101270Y263920D01*
X1103680Y262070D01*
X1106487Y260907D01*
X1109500Y260511D01*
X1112513Y260907D01*
X1115320Y262070D01*
X1117730Y263920D01*
X1119580Y266330D01*
X1120743Y269137D01*
X1121140Y272150D01*
X1120743Y275163D01*
X1119580Y277970D01*
X1117730Y280380D01*
X1116096Y281634D01*
Y362500D01*
X1115872Y364207D01*
X1115213Y365798D01*
X1114164Y367164D01*
X1075596Y405732D01*
Y470268D01*
X1081832Y476504D01*
X1100516D01*
X1101770Y474870D01*
X1104180Y473020D01*
X1106987Y471857D01*
X1110000Y471460D01*
X1113012Y471857D01*
X1115820Y473020D01*
X1118230Y474870D01*
X1120080Y477280D01*
X1121243Y480088D01*
X1121639Y483100D01*
X1121243Y486113D01*
X1120080Y488920D01*
X1118230Y491330D01*
X1115820Y493180D01*
X1113012Y494343D01*
X1110000Y494739D01*
D02*
G37*
G36*
Y469339D02*
X1106987Y468943D01*
X1104180Y467780D01*
X1101770Y465930D01*
X1099920Y463520D01*
X1098757Y460713D01*
X1098360Y457700D01*
X1098757Y454688D01*
X1099920Y451880D01*
X1101770Y449470D01*
X1104180Y447620D01*
X1106987Y446457D01*
X1110000Y446060D01*
X1113012Y446457D01*
X1115820Y447620D01*
X1118230Y449470D01*
X1120080Y451880D01*
X1121243Y454688D01*
X1121639Y457700D01*
X1121243Y460713D01*
X1120080Y463520D01*
X1118230Y465930D01*
X1115820Y467780D01*
X1113012Y468943D01*
X1110000Y469339D01*
D02*
G37*
G36*
Y443940D02*
X1106987Y443543D01*
X1104180Y442380D01*
X1101770Y440530D01*
X1099920Y438120D01*
X1098757Y435312D01*
X1098360Y432300D01*
X1098757Y429287D01*
X1099920Y426480D01*
X1101770Y424070D01*
X1104180Y422220D01*
X1106987Y421057D01*
X1110000Y420660D01*
X1113012Y421057D01*
X1115820Y422220D01*
X1118230Y424070D01*
X1120080Y426480D01*
X1121243Y429287D01*
X1121639Y432300D01*
X1121243Y435312D01*
X1120080Y438120D01*
X1118230Y440530D01*
X1115820Y442380D01*
X1113012Y443543D01*
X1110000Y443940D01*
D02*
G37*
G36*
X965000Y447649D02*
X960581Y447214D01*
X956333Y445925D01*
X952417Y443832D01*
X948985Y441015D01*
X946168Y437583D01*
X944075Y433667D01*
X942786Y429419D01*
X942351Y425000D01*
X942786Y420581D01*
X944075Y416333D01*
X946168Y412417D01*
X948985Y408985D01*
X952417Y406168D01*
X956333Y404075D01*
X960581Y402786D01*
X965000Y402351D01*
X969419Y402786D01*
X973667Y404075D01*
X977583Y406168D01*
X981015Y408985D01*
X983832Y412417D01*
X985925Y416333D01*
X987214Y420581D01*
X987649Y425000D01*
X987214Y429419D01*
X985925Y433667D01*
X983832Y437583D01*
X981015Y441015D01*
X977583Y443832D01*
X973667Y445925D01*
X969419Y447214D01*
X965000Y447649D01*
D02*
G37*
G36*
X795000D02*
X790581Y447214D01*
X786333Y445925D01*
X782417Y443832D01*
X778985Y441015D01*
X776168Y437583D01*
X774075Y433667D01*
X772786Y429419D01*
X772351Y425000D01*
X772786Y420581D01*
X774075Y416333D01*
X776168Y412417D01*
X778985Y408985D01*
X782417Y406168D01*
X786333Y404075D01*
X790581Y402786D01*
X795000Y402351D01*
X799419Y402786D01*
X803667Y404075D01*
X807583Y406168D01*
X811015Y408985D01*
X813832Y412417D01*
X815925Y416333D01*
X817214Y420581D01*
X817649Y425000D01*
X817214Y429419D01*
X815925Y433667D01*
X813832Y437583D01*
X811015Y441015D01*
X807583Y443832D01*
X803667Y445925D01*
X799419Y447214D01*
X795000Y447649D01*
D02*
G37*
G36*
X1110000Y418540D02*
X1106987Y418143D01*
X1104180Y416980D01*
X1101770Y415130D01*
X1099920Y412720D01*
X1098757Y409912D01*
X1098360Y406900D01*
X1098757Y403887D01*
X1099920Y401080D01*
X1101770Y398670D01*
X1104180Y396820D01*
X1106987Y395657D01*
X1110000Y395260D01*
X1113012Y395657D01*
X1115820Y396820D01*
X1118230Y398670D01*
X1120080Y401080D01*
X1121243Y403887D01*
X1121639Y406900D01*
X1121243Y409912D01*
X1120080Y412720D01*
X1118230Y415130D01*
X1115820Y416980D01*
X1113012Y418143D01*
X1110000Y418540D01*
D02*
G37*
G36*
X1070505Y362368D02*
X1069495D01*
X1067739Y362019D01*
X1066805Y361632D01*
X1065317Y360638D01*
X1065317Y360638D01*
X1064602Y359923D01*
X1064602Y359923D01*
X1063608Y358435D01*
X1063221Y357501D01*
X1062872Y355745D01*
Y355490D01*
X1062822Y355240D01*
X1062872Y354990D01*
Y354735D01*
X1063221Y352979D01*
X1063608Y352045D01*
X1064602Y350557D01*
X1064602Y350557D01*
X1065317Y349842D01*
X1065317Y349842D01*
X1066805Y348848D01*
X1067739Y348461D01*
X1069495Y348112D01*
X1070505D01*
X1072261Y348461D01*
X1073195Y348848D01*
X1074683Y349842D01*
X1074683Y349842D01*
X1075398Y350557D01*
X1075398Y350557D01*
X1076392Y352045D01*
X1076779Y352979D01*
X1077128Y354735D01*
Y354990D01*
X1077178Y355240D01*
X1077128Y355490D01*
Y355745D01*
X1076779Y357501D01*
X1076392Y358435D01*
X1075398Y359923D01*
X1075398Y359923D01*
X1074683Y360638D01*
X1074683Y360638D01*
X1073195Y361632D01*
X1072261Y362019D01*
X1070505Y362368D01*
D02*
G37*
G36*
X712000Y364340D02*
X708988Y363943D01*
X706180Y362780D01*
X703770Y360930D01*
X701920Y358520D01*
X700757Y355713D01*
X700360Y352700D01*
X700757Y349688D01*
X701920Y346880D01*
X703770Y344470D01*
X706180Y342620D01*
X708988Y341457D01*
X712000Y341060D01*
X715013Y341457D01*
X717820Y342620D01*
X720230Y344470D01*
X722080Y346880D01*
X723243Y349688D01*
X723640Y352700D01*
X723243Y355713D01*
X722080Y358520D01*
X720230Y360930D01*
X717820Y362780D01*
X715013Y363943D01*
X712000Y364340D01*
D02*
G37*
G36*
X1070505Y332368D02*
X1069495D01*
X1067739Y332019D01*
X1066805Y331632D01*
X1065317Y330638D01*
X1065317Y330638D01*
X1064602Y329923D01*
X1064602Y329923D01*
X1063608Y328435D01*
X1063221Y327501D01*
X1062872Y325745D01*
Y325490D01*
X1062822Y325240D01*
X1062872Y324990D01*
Y324735D01*
X1063221Y322979D01*
X1063608Y322045D01*
X1064602Y320557D01*
X1064602Y320557D01*
X1065317Y319842D01*
X1065317Y319842D01*
X1066805Y318848D01*
X1067739Y318461D01*
X1069495Y318112D01*
X1070505D01*
X1072261Y318461D01*
X1073195Y318848D01*
X1074683Y319842D01*
X1074683Y319842D01*
X1075398Y320557D01*
X1075398Y320557D01*
X1076392Y322045D01*
X1076779Y322979D01*
X1077128Y324735D01*
Y324990D01*
X1077178Y325240D01*
X1077128Y325490D01*
Y325745D01*
X1076779Y327501D01*
X1076392Y328435D01*
X1075398Y329923D01*
X1075398Y329923D01*
X1074683Y330638D01*
X1074683Y330638D01*
X1073195Y331632D01*
X1072261Y332019D01*
X1070505Y332368D01*
D02*
G37*
G36*
X712000Y338940D02*
X708988Y338543D01*
X706180Y337380D01*
X703770Y335530D01*
X701920Y333120D01*
X700757Y330312D01*
X700360Y327300D01*
X700757Y324287D01*
X701920Y321480D01*
X703770Y319070D01*
X706180Y317220D01*
X708988Y316057D01*
X712000Y315660D01*
X715013Y316057D01*
X717820Y317220D01*
X720230Y319070D01*
X722080Y321480D01*
X723243Y324287D01*
X723640Y327300D01*
X723243Y330312D01*
X722080Y333120D01*
X720230Y335530D01*
X717820Y337380D01*
X715013Y338543D01*
X712000Y338940D01*
D02*
G37*
G36*
Y313540D02*
X708988Y313143D01*
X706180Y311980D01*
X703770Y310130D01*
X701920Y307720D01*
X700757Y304912D01*
X700360Y301900D01*
X700757Y298888D01*
X701920Y296080D01*
X703770Y293670D01*
X706180Y291820D01*
X708988Y290657D01*
X712000Y290261D01*
X715013Y290657D01*
X717820Y291820D01*
X720230Y293670D01*
X722080Y296080D01*
X723243Y298888D01*
X723640Y301900D01*
X723243Y304912D01*
X722080Y307720D01*
X720230Y310130D01*
X717820Y311980D01*
X715013Y313143D01*
X712000Y313540D01*
D02*
G37*
G36*
X1109500Y258390D02*
X1106487Y257993D01*
X1103680Y256830D01*
X1101270Y254980D01*
X1099420Y252570D01*
X1098257Y249762D01*
X1097860Y246750D01*
X1098257Y243738D01*
X1099420Y240930D01*
X1101270Y238520D01*
X1103680Y236670D01*
X1106487Y235507D01*
X1109500Y235110D01*
X1112513Y235507D01*
X1115320Y236670D01*
X1117730Y238520D01*
X1119580Y240930D01*
X1120743Y243738D01*
X1121140Y246750D01*
X1120743Y249762D01*
X1119580Y252570D01*
X1117730Y254980D01*
X1115320Y256830D01*
X1112513Y257993D01*
X1109500Y258390D01*
D02*
G37*
G36*
X965000Y277649D02*
X960581Y277214D01*
X956333Y275925D01*
X952417Y273832D01*
X948985Y271015D01*
X946168Y267583D01*
X944075Y263667D01*
X942786Y259419D01*
X942351Y255000D01*
X942786Y250581D01*
X944075Y246333D01*
X946168Y242417D01*
X948985Y238985D01*
X952417Y236168D01*
X956333Y234075D01*
X960581Y232786D01*
X965000Y232351D01*
X969419Y232786D01*
X973667Y234075D01*
X977583Y236168D01*
X981015Y238985D01*
X983832Y242417D01*
X985925Y246333D01*
X987214Y250581D01*
X987649Y255000D01*
X987214Y259419D01*
X985925Y263667D01*
X983832Y267583D01*
X981015Y271015D01*
X977583Y273832D01*
X973667Y275925D01*
X969419Y277214D01*
X965000Y277649D01*
D02*
G37*
G36*
X795000D02*
X790581Y277214D01*
X786333Y275925D01*
X782417Y273832D01*
X778985Y271015D01*
X776168Y267583D01*
X774075Y263667D01*
X772786Y259419D01*
X772351Y255000D01*
X772786Y250581D01*
X774075Y246333D01*
X776168Y242417D01*
X778985Y238985D01*
X782417Y236168D01*
X786333Y234075D01*
X790581Y232786D01*
X795000Y232351D01*
X799419Y232786D01*
X803667Y234075D01*
X807583Y236168D01*
X811015Y238985D01*
X813832Y242417D01*
X815925Y246333D01*
X817214Y250581D01*
X817649Y255000D01*
X817214Y259419D01*
X815925Y263667D01*
X813832Y267583D01*
X811015Y271015D01*
X807583Y273832D01*
X803667Y275925D01*
X799419Y277214D01*
X795000Y277649D01*
D02*
G37*
G36*
X1109500Y232990D02*
X1106487Y232593D01*
X1103680Y231430D01*
X1101270Y229580D01*
X1099420Y227170D01*
X1098257Y224363D01*
X1097860Y221350D01*
X1098257Y218337D01*
X1099420Y215530D01*
X1101270Y213120D01*
X1103680Y211270D01*
X1106487Y210107D01*
X1109500Y209711D01*
X1112513Y210107D01*
X1115320Y211270D01*
X1117730Y213120D01*
X1119580Y215530D01*
X1120743Y218337D01*
X1121140Y221350D01*
X1120743Y224363D01*
X1119580Y227170D01*
X1117730Y229580D01*
X1115320Y231430D01*
X1112513Y232593D01*
X1109500Y232990D01*
D02*
G37*
G36*
Y207590D02*
X1106487Y207193D01*
X1103680Y206030D01*
X1101270Y204180D01*
X1099420Y201770D01*
X1098257Y198962D01*
X1097860Y195950D01*
X1098257Y192938D01*
X1099420Y190130D01*
X1101270Y187720D01*
X1103680Y185870D01*
X1106487Y184707D01*
X1109500Y184310D01*
X1112513Y184707D01*
X1115320Y185870D01*
X1117730Y187720D01*
X1119580Y190130D01*
X1120743Y192938D01*
X1121140Y195950D01*
X1120743Y198962D01*
X1119580Y201770D01*
X1117730Y204180D01*
X1115320Y206030D01*
X1112513Y207193D01*
X1109500Y207590D01*
D02*
G37*
G36*
X1110000Y122641D02*
X1104894Y122239D01*
X1099913Y121043D01*
X1095182Y119083D01*
X1090814Y116407D01*
X1086920Y113080D01*
X1083593Y109186D01*
X1080917Y104818D01*
X1078957Y100086D01*
X1077761Y95106D01*
X1077359Y90000D01*
X1077761Y84894D01*
X1078957Y79914D01*
X1080917Y75181D01*
X1083593Y70814D01*
X1086920Y66920D01*
X1090814Y63593D01*
X1095182Y60917D01*
X1099913Y58957D01*
X1104894Y57761D01*
X1110000Y57359D01*
X1115106Y57761D01*
X1120087Y58957D01*
X1124818Y60917D01*
X1129186Y63593D01*
X1133080Y66920D01*
X1136407Y70814D01*
X1139083Y75181D01*
X1141043Y79914D01*
X1142239Y84894D01*
X1142641Y90000D01*
X1142239Y95106D01*
X1141043Y100086D01*
X1139083Y104818D01*
X1136407Y109186D01*
X1133080Y113080D01*
X1129186Y116407D01*
X1124818Y119083D01*
X1120087Y121043D01*
X1115106Y122239D01*
X1110000Y122641D01*
D02*
G37*
G36*
X650000D02*
X644894Y122239D01*
X639913Y121043D01*
X635182Y119083D01*
X630814Y116407D01*
X626920Y113080D01*
X623593Y109186D01*
X620917Y104818D01*
X618957Y100086D01*
X617761Y95106D01*
X617359Y90000D01*
X617761Y84894D01*
X618957Y79914D01*
X620917Y75181D01*
X623593Y70814D01*
X626920Y66920D01*
X630814Y63593D01*
X635182Y60917D01*
X639913Y58957D01*
X644894Y57761D01*
X650000Y57359D01*
X655106Y57761D01*
X660087Y58957D01*
X664818Y60917D01*
X669186Y63593D01*
X673080Y66920D01*
X676407Y70814D01*
X679083Y75181D01*
X681043Y79914D01*
X682239Y84894D01*
X682641Y90000D01*
X682239Y95106D01*
X681043Y100086D01*
X679083Y104818D01*
X676407Y109186D01*
X673080Y113080D01*
X669186Y116407D01*
X664818Y119083D01*
X660087Y121043D01*
X655106Y122239D01*
X650000Y122641D01*
D02*
G37*
G36*
X550000Y622641D02*
X544894Y622239D01*
X539913Y621043D01*
X535182Y619083D01*
X530814Y616407D01*
X526920Y613080D01*
X523593Y609186D01*
X520917Y604818D01*
X518957Y600087D01*
X517761Y595106D01*
X517359Y590000D01*
X517761Y584894D01*
X518957Y579913D01*
X520917Y575182D01*
X523593Y570814D01*
X526920Y566920D01*
X530814Y563593D01*
X535182Y560917D01*
X539913Y558957D01*
X544894Y557761D01*
X550000Y557359D01*
X555106Y557761D01*
X560087Y558957D01*
X564818Y560917D01*
X569186Y563593D01*
X573080Y566920D01*
X576407Y570814D01*
X579083Y575182D01*
X581043Y579913D01*
X582239Y584894D01*
X582641Y590000D01*
X582239Y595106D01*
X581043Y600087D01*
X579083Y604818D01*
X576407Y609186D01*
X573080Y613080D01*
X569186Y616407D01*
X564818Y619083D01*
X560087Y621043D01*
X555106Y622239D01*
X550000Y622641D01*
D02*
G37*
G36*
X90000D02*
X84894Y622239D01*
X79914Y621043D01*
X75181Y619083D01*
X70814Y616407D01*
X66920Y613080D01*
X63593Y609186D01*
X60917Y604818D01*
X58957Y600087D01*
X57761Y595106D01*
X57359Y590000D01*
X57761Y584894D01*
X58957Y579913D01*
X60917Y575182D01*
X63593Y570814D01*
X66920Y566920D01*
X70814Y563593D01*
X75181Y560917D01*
X79914Y558957D01*
X84894Y557761D01*
X90000Y557359D01*
X95106Y557761D01*
X100086Y558957D01*
X104818Y560917D01*
X109186Y563593D01*
X113080Y566920D01*
X116407Y570814D01*
X119083Y575182D01*
X121043Y579913D01*
X122239Y584894D01*
X122641Y590000D01*
X122239Y595106D01*
X121043Y600087D01*
X119083Y604818D01*
X116407Y609186D01*
X113080Y613080D01*
X109186Y616407D01*
X104818Y619083D01*
X100086Y621043D01*
X95106Y622239D01*
X90000Y622641D01*
D02*
G37*
G36*
X549500Y545960D02*
X546488Y545563D01*
X543680Y544400D01*
X541270Y542550D01*
X539420Y540140D01*
X538257Y537333D01*
X537860Y534320D01*
X538257Y531307D01*
X538328Y531136D01*
X507876Y500684D01*
X506651Y498852D01*
X506222Y496690D01*
X506222Y496690D01*
Y378130D01*
Y224210D01*
X407660Y125648D01*
X368251D01*
X368180Y125820D01*
X366330Y128230D01*
X363920Y130080D01*
X361113Y131243D01*
X358100Y131639D01*
X355088Y131243D01*
X352280Y130080D01*
X349870Y128230D01*
X348020Y125820D01*
X346857Y123013D01*
X346460Y120000D01*
X346857Y116987D01*
X348020Y114180D01*
X349870Y111770D01*
X350795Y111060D01*
X350364Y109790D01*
X340437D01*
X340005Y111060D01*
X340930Y111770D01*
X342780Y114180D01*
X343943Y116987D01*
X344339Y120000D01*
X343943Y123013D01*
X342780Y125820D01*
X340930Y128230D01*
X338520Y130080D01*
X335713Y131243D01*
X332700Y131639D01*
X329688Y131243D01*
X326880Y130080D01*
X324470Y128230D01*
X322620Y125820D01*
X321457Y123013D01*
X321060Y120000D01*
X321457Y116987D01*
X322620Y114180D01*
X324470Y111770D01*
X325395Y111060D01*
X324963Y109790D01*
X315037D01*
X314605Y111060D01*
X315530Y111770D01*
X317380Y114180D01*
X318543Y116987D01*
X318939Y120000D01*
X318543Y123013D01*
X317380Y125820D01*
X315530Y128230D01*
X313120Y130080D01*
X310312Y131243D01*
X307300Y131639D01*
X304287Y131243D01*
X301480Y130080D01*
X299070Y128230D01*
X297220Y125820D01*
X296057Y123013D01*
X295660Y120000D01*
X296057Y116987D01*
X297220Y114180D01*
X299070Y111770D01*
X299995Y111060D01*
X299564Y109790D01*
X290512D01*
X290026Y110963D01*
X292731Y113669D01*
X293293Y114509D01*
X293490Y115500D01*
Y124500D01*
X293293Y125491D01*
X292731Y126331D01*
X288231Y130831D01*
X287391Y131393D01*
X286400Y131590D01*
X277400D01*
X276409Y131393D01*
X275569Y130831D01*
X271069Y126331D01*
X270613Y125648D01*
X232340D01*
X115648Y242340D01*
Y329010D01*
X140642Y354004D01*
X141719Y353285D01*
X140757Y350962D01*
X140360Y347950D01*
X140757Y344938D01*
X141920Y342130D01*
X143770Y339720D01*
X146180Y337870D01*
X148988Y336707D01*
X152000Y336311D01*
X155013Y336707D01*
X157820Y337870D01*
X160230Y339720D01*
X162080Y342130D01*
X163243Y344938D01*
X163640Y347950D01*
X163243Y350962D01*
X162080Y353770D01*
X160230Y356180D01*
X157820Y358030D01*
X155013Y359193D01*
X152000Y359590D01*
X148988Y359193D01*
X146665Y358231D01*
X145946Y359308D01*
X148399Y361760D01*
X156500D01*
X157491Y361957D01*
X158331Y362519D01*
X162831Y367019D01*
X163393Y367859D01*
X163590Y368850D01*
Y377850D01*
X163393Y378841D01*
X162831Y379681D01*
X158331Y384181D01*
X157491Y384743D01*
X156500Y384940D01*
X147500D01*
X146509Y384743D01*
X145669Y384181D01*
X141169Y379681D01*
X140607Y378841D01*
X140410Y377850D01*
Y369748D01*
X106006Y335344D01*
X104781Y333512D01*
X104351Y331350D01*
X104352Y331350D01*
Y240000D01*
X104351Y240000D01*
X104781Y237838D01*
X106006Y236006D01*
X226006Y116006D01*
X226006Y116006D01*
X227838Y114781D01*
X230000Y114351D01*
X230000Y114352D01*
X270613D01*
X271069Y113669D01*
X275569Y109169D01*
X276409Y108607D01*
X277400Y108410D01*
X283856D01*
X284910Y107200D01*
Y87200D01*
X285107Y86209D01*
X285669Y85369D01*
X286509Y84807D01*
X287500Y84610D01*
X352500D01*
X353491Y84807D01*
X354331Y85369D01*
X354893Y86209D01*
X355090Y87200D01*
Y107200D01*
X355033Y107483D01*
X356006Y108636D01*
X358100Y108360D01*
X361113Y108757D01*
X363920Y109920D01*
X366330Y111770D01*
X368180Y114180D01*
X368251Y114352D01*
X410000D01*
X410000Y114351D01*
X412162Y114781D01*
X413994Y116006D01*
X514210Y216222D01*
X539349D01*
X539420Y216050D01*
X541270Y213640D01*
X543680Y211790D01*
X546488Y210627D01*
X549500Y210231D01*
X552513Y210627D01*
X555320Y211790D01*
X557730Y213640D01*
X559580Y216050D01*
X560743Y218857D01*
X561139Y221870D01*
X560743Y224883D01*
X559580Y227690D01*
X557730Y230100D01*
X555320Y231950D01*
X552513Y233113D01*
X549500Y233510D01*
X546488Y233113D01*
X543680Y231950D01*
X541270Y230100D01*
X539420Y227690D01*
X539349Y227519D01*
X517519D01*
Y372481D01*
X539345D01*
X539420Y372300D01*
X541270Y369890D01*
X543680Y368040D01*
X546488Y366877D01*
X549500Y366480D01*
X552513Y366877D01*
X555320Y368040D01*
X557730Y369890D01*
X559580Y372300D01*
X560743Y375107D01*
X561139Y378120D01*
X560743Y381133D01*
X559580Y383940D01*
X557730Y386350D01*
X555320Y388200D01*
X552513Y389363D01*
X549500Y389760D01*
X546488Y389363D01*
X543680Y388200D01*
X541270Y386350D01*
X539420Y383940D01*
X539353Y383778D01*
X517519D01*
Y494350D01*
X538142Y514974D01*
X539219Y514255D01*
X538257Y511933D01*
X537860Y508920D01*
X538257Y505908D01*
X539420Y503100D01*
X541270Y500690D01*
X543680Y498840D01*
X546488Y497677D01*
X549500Y497281D01*
X552513Y497677D01*
X555320Y498840D01*
X557730Y500690D01*
X559580Y503100D01*
X560743Y505908D01*
X561139Y508920D01*
X560743Y511933D01*
X559580Y514740D01*
X557730Y517150D01*
X555320Y519000D01*
X552513Y520163D01*
X549500Y520560D01*
X546488Y520163D01*
X544165Y519201D01*
X543446Y520278D01*
X546316Y523148D01*
X546488Y523077D01*
X549500Y522681D01*
X552513Y523077D01*
X555320Y524240D01*
X557730Y526090D01*
X559580Y528500D01*
X560743Y531307D01*
X561139Y534320D01*
X560743Y537333D01*
X559580Y540140D01*
X557730Y542550D01*
X555320Y544400D01*
X552513Y545563D01*
X549500Y545960D01*
D02*
G37*
G36*
X380000Y557649D02*
X375581Y557214D01*
X371333Y555925D01*
X367417Y553832D01*
X363985Y551015D01*
X361168Y547583D01*
X359075Y543667D01*
X357786Y539419D01*
X357351Y535000D01*
X357786Y530581D01*
X359075Y526333D01*
X361168Y522417D01*
X363985Y518985D01*
X367417Y516168D01*
X371333Y514075D01*
X375581Y512786D01*
X380000Y512351D01*
X384419Y512786D01*
X388667Y514075D01*
X392583Y516168D01*
X396015Y518985D01*
X398832Y522417D01*
X400925Y526333D01*
X402214Y530581D01*
X402649Y535000D01*
X402214Y539419D01*
X400925Y543667D01*
X398832Y547583D01*
X396015Y551015D01*
X392583Y553832D01*
X388667Y555925D01*
X384419Y557214D01*
X380000Y557649D01*
D02*
G37*
G36*
X260000D02*
X255581Y557214D01*
X251333Y555925D01*
X247417Y553832D01*
X243985Y551015D01*
X241168Y547583D01*
X239075Y543667D01*
X237786Y539419D01*
X237351Y535000D01*
X237786Y530581D01*
X239075Y526333D01*
X241168Y522417D01*
X243985Y518985D01*
X247417Y516168D01*
X251333Y514075D01*
X255581Y512786D01*
X260000Y512351D01*
X264419Y512786D01*
X268667Y514075D01*
X272583Y516168D01*
X276015Y518985D01*
X278832Y522417D01*
X280925Y526333D01*
X282214Y530581D01*
X282649Y535000D01*
X282214Y539419D01*
X280925Y543667D01*
X278832Y547583D01*
X276015Y551015D01*
X272583Y553832D01*
X268667Y555925D01*
X264419Y557214D01*
X260000Y557649D01*
D02*
G37*
G36*
X117985Y502978D02*
X116975D01*
X115219Y502629D01*
X114285Y502242D01*
X112797Y501248D01*
X112797Y501248D01*
X112082Y500533D01*
X112082Y500533D01*
X111088Y499045D01*
X110701Y498111D01*
X110352Y496355D01*
Y496100D01*
X110302Y495850D01*
X110352Y495600D01*
Y495345D01*
X110701Y493589D01*
X111088Y492655D01*
X112082Y491167D01*
X112082Y491167D01*
X112797Y490452D01*
X112797Y490452D01*
X114285Y489458D01*
X115219Y489071D01*
X116975Y488722D01*
X117985D01*
X119741Y489071D01*
X120675Y489458D01*
X122163Y490452D01*
X122163Y490452D01*
X122878Y491167D01*
X122878Y491167D01*
X123872Y492655D01*
X124259Y493589D01*
X124608Y495345D01*
Y495600D01*
X124658Y495850D01*
X124608Y496100D01*
Y496355D01*
X124259Y498111D01*
X123872Y499045D01*
X122878Y500533D01*
X122878Y500533D01*
X122163Y501248D01*
X122163Y501248D01*
X120675Y502242D01*
X119741Y502629D01*
X117985Y502978D01*
D02*
G37*
G36*
X549500Y495160D02*
X546488Y494763D01*
X543680Y493600D01*
X541270Y491750D01*
X539420Y489340D01*
X538257Y486533D01*
X537860Y483520D01*
X538257Y480508D01*
X539420Y477700D01*
X541270Y475290D01*
X543680Y473440D01*
X546488Y472277D01*
X549500Y471880D01*
X552513Y472277D01*
X555320Y473440D01*
X557730Y475290D01*
X559580Y477700D01*
X560743Y480508D01*
X561139Y483520D01*
X560743Y486533D01*
X559580Y489340D01*
X557730Y491750D01*
X555320Y493600D01*
X552513Y494763D01*
X549500Y495160D01*
D02*
G37*
G36*
X117985Y472978D02*
X116975D01*
X115219Y472629D01*
X114285Y472242D01*
X112797Y471248D01*
X112797Y471248D01*
X112082Y470533D01*
X112082Y470533D01*
X111088Y469045D01*
X110701Y468111D01*
X110352Y466355D01*
Y466100D01*
X110302Y465850D01*
X110352Y465600D01*
Y465345D01*
X110701Y463589D01*
X111088Y462655D01*
X112082Y461167D01*
X112082Y461167D01*
X112797Y460452D01*
X112797Y460452D01*
X114285Y459458D01*
X115219Y459071D01*
X116975Y458722D01*
X117985D01*
X119741Y459071D01*
X120675Y459458D01*
X122163Y460452D01*
X122163Y460452D01*
X122878Y461167D01*
X122878Y461167D01*
X123872Y462655D01*
X124259Y463589D01*
X124608Y465345D01*
Y465600D01*
X124658Y465850D01*
X124608Y466100D01*
Y466355D01*
X124259Y468111D01*
X123872Y469045D01*
X122878Y470533D01*
X122878Y470533D01*
X122163Y471248D01*
X122163Y471248D01*
X120675Y472242D01*
X119741Y472629D01*
X117985Y472978D01*
D02*
G37*
G36*
X549500Y469760D02*
X546488Y469363D01*
X543680Y468200D01*
X541270Y466350D01*
X539420Y463940D01*
X538257Y461133D01*
X537860Y458120D01*
X538257Y455107D01*
X539420Y452300D01*
X541270Y449890D01*
X543680Y448040D01*
X546488Y446877D01*
X549500Y446480D01*
X552513Y446877D01*
X555320Y448040D01*
X557730Y449890D01*
X559580Y452300D01*
X560743Y455107D01*
X561139Y458120D01*
X560743Y461133D01*
X559580Y463940D01*
X557730Y466350D01*
X555320Y468200D01*
X552513Y469363D01*
X549500Y469760D01*
D02*
G37*
G36*
Y364360D02*
X546488Y363963D01*
X543680Y362800D01*
X541270Y360950D01*
X539420Y358540D01*
X538257Y355733D01*
X537860Y352720D01*
X538257Y349707D01*
X539420Y346900D01*
X541270Y344490D01*
X543680Y342640D01*
X546488Y341477D01*
X549500Y341081D01*
X552513Y341477D01*
X555320Y342640D01*
X557730Y344490D01*
X559580Y346900D01*
X560743Y349707D01*
X561139Y352720D01*
X560743Y355733D01*
X559580Y358540D01*
X557730Y360950D01*
X555320Y362800D01*
X552513Y363963D01*
X549500Y364360D01*
D02*
G37*
G36*
X152000Y334190D02*
X148988Y333793D01*
X146180Y332630D01*
X143770Y330780D01*
X141920Y328370D01*
X140757Y325563D01*
X140360Y322550D01*
X140757Y319538D01*
X141920Y316730D01*
X143770Y314320D01*
X146180Y312470D01*
X148988Y311307D01*
X152000Y310910D01*
X155013Y311307D01*
X157820Y312470D01*
X160230Y314320D01*
X162080Y316730D01*
X162660Y318131D01*
X183350D01*
X183759Y317857D01*
X184750Y317660D01*
X189750D01*
X190741Y317857D01*
X191581Y318419D01*
X192143Y319259D01*
X192340Y320250D01*
Y324250D01*
X192143Y325241D01*
X191581Y326081D01*
X190741Y326643D01*
X189750Y326840D01*
X184750D01*
X183759Y326643D01*
X183350Y326369D01*
X162909D01*
X162080Y328370D01*
X160230Y330780D01*
X157820Y332630D01*
X155013Y333793D01*
X152000Y334190D01*
D02*
G37*
G36*
X549500Y338960D02*
X546488Y338563D01*
X543680Y337400D01*
X541270Y335550D01*
X539420Y333140D01*
X538257Y330333D01*
X537860Y327320D01*
X538257Y324308D01*
X539420Y321500D01*
X541270Y319090D01*
X543680Y317240D01*
X546488Y316077D01*
X549500Y315681D01*
X552513Y316077D01*
X555320Y317240D01*
X557730Y319090D01*
X559580Y321500D01*
X560743Y324308D01*
X561139Y327320D01*
X560743Y330333D01*
X559580Y333140D01*
X557730Y335550D01*
X555320Y337400D01*
X552513Y338563D01*
X549500Y338960D01*
D02*
G37*
G36*
X190000Y374158D02*
X187643Y373689D01*
X185645Y372355D01*
X184310Y370357D01*
X183842Y368000D01*
X184310Y365643D01*
X185645Y363645D01*
X187643Y362310D01*
X190000Y361842D01*
X190278Y361897D01*
X196131Y356044D01*
Y326223D01*
X195919Y326081D01*
X195357Y325241D01*
X195160Y324250D01*
Y320250D01*
X195357Y319259D01*
X195881Y318475D01*
Y300973D01*
X195669Y300831D01*
X195107Y299991D01*
X194910Y299000D01*
Y295000D01*
X195107Y294009D01*
X195669Y293169D01*
X196509Y292607D01*
X197500Y292410D01*
X202500D01*
X203491Y292607D01*
X204331Y293169D01*
X204893Y294009D01*
X205090Y295000D01*
Y299000D01*
X204893Y299991D01*
X204331Y300831D01*
X204119Y300973D01*
Y318110D01*
X204581Y318419D01*
X205143Y319259D01*
X205340Y320250D01*
Y324250D01*
X205143Y325241D01*
X204581Y326081D01*
X204369Y326223D01*
Y357750D01*
X204056Y359326D01*
X203163Y360663D01*
X196103Y367722D01*
X196158Y368000D01*
X195690Y370357D01*
X194355Y372355D01*
X192357Y373689D01*
X190000Y374158D01*
D02*
G37*
G36*
X152000Y308790D02*
X148988Y308393D01*
X146180Y307230D01*
X143770Y305380D01*
X141920Y302970D01*
X140757Y300163D01*
X140360Y297150D01*
X140757Y294137D01*
X141920Y291330D01*
X143770Y288920D01*
X146180Y287070D01*
X148988Y285907D01*
X152000Y285511D01*
X155013Y285907D01*
X157820Y287070D01*
X160230Y288920D01*
X162080Y291330D01*
X162722Y292881D01*
X183100D01*
X183509Y292607D01*
X184500Y292410D01*
X189500D01*
X190491Y292607D01*
X191331Y293169D01*
X191893Y294009D01*
X192090Y295000D01*
Y299000D01*
X191893Y299991D01*
X191331Y300831D01*
X190491Y301393D01*
X189500Y301590D01*
X184500D01*
X183509Y301393D01*
X183100Y301119D01*
X162847D01*
X162080Y302970D01*
X160230Y305380D01*
X157820Y307230D01*
X155013Y308393D01*
X152000Y308790D01*
D02*
G37*
G36*
X549500Y313560D02*
X546488Y313163D01*
X543680Y312000D01*
X541270Y310150D01*
X539420Y307740D01*
X538257Y304933D01*
X537860Y301920D01*
X538257Y298908D01*
X539420Y296100D01*
X541270Y293690D01*
X543680Y291840D01*
X546488Y290677D01*
X549500Y290280D01*
X552513Y290677D01*
X555320Y291840D01*
X557730Y293690D01*
X559580Y296100D01*
X560743Y298908D01*
X561139Y301920D01*
X560743Y304933D01*
X559580Y307740D01*
X557730Y310150D01*
X555320Y312000D01*
X552513Y313163D01*
X549500Y313560D01*
D02*
G37*
G36*
Y208110D02*
X546488Y207713D01*
X543680Y206550D01*
X541270Y204700D01*
X539420Y202290D01*
X538257Y199483D01*
X537860Y196470D01*
X538257Y193458D01*
X539420Y190650D01*
X541270Y188240D01*
X543680Y186390D01*
X546488Y185227D01*
X549500Y184830D01*
X552513Y185227D01*
X555320Y186390D01*
X557730Y188240D01*
X559580Y190650D01*
X560743Y193458D01*
X561139Y196470D01*
X560743Y199483D01*
X559580Y202290D01*
X557730Y204700D01*
X555320Y206550D01*
X552513Y207713D01*
X549500Y208110D01*
D02*
G37*
G36*
Y182710D02*
X546488Y182313D01*
X543680Y181150D01*
X541270Y179300D01*
X539420Y176890D01*
X538257Y174083D01*
X537860Y171070D01*
X538257Y168057D01*
X539420Y165250D01*
X541270Y162840D01*
X543680Y160990D01*
X546488Y159827D01*
X549500Y159431D01*
X552513Y159827D01*
X555320Y160990D01*
X557730Y162840D01*
X559580Y165250D01*
X560743Y168057D01*
X561139Y171070D01*
X560743Y174083D01*
X559580Y176890D01*
X557730Y179300D01*
X555320Y181150D01*
X552513Y182313D01*
X549500Y182710D01*
D02*
G37*
G36*
X380000Y187649D02*
X375581Y187214D01*
X371333Y185925D01*
X367417Y183832D01*
X363985Y181015D01*
X361168Y177583D01*
X359075Y173667D01*
X357786Y169419D01*
X357351Y165000D01*
X357786Y160581D01*
X359075Y156333D01*
X361168Y152417D01*
X363985Y148985D01*
X367417Y146168D01*
X371333Y144075D01*
X375581Y142786D01*
X380000Y142351D01*
X384419Y142786D01*
X388667Y144075D01*
X392583Y146168D01*
X396015Y148985D01*
X398832Y152417D01*
X400925Y156333D01*
X402214Y160581D01*
X402649Y165000D01*
X402214Y169419D01*
X400925Y173667D01*
X398832Y177583D01*
X396015Y181015D01*
X392583Y183832D01*
X388667Y185925D01*
X384419Y187214D01*
X380000Y187649D01*
D02*
G37*
G36*
X260000D02*
X255581Y187214D01*
X251333Y185925D01*
X247417Y183832D01*
X243985Y181015D01*
X241168Y177583D01*
X239075Y173667D01*
X237786Y169419D01*
X237351Y165000D01*
X237786Y160581D01*
X239075Y156333D01*
X241168Y152417D01*
X243985Y148985D01*
X247417Y146168D01*
X251333Y144075D01*
X255581Y142786D01*
X260000Y142351D01*
X264419Y142786D01*
X268667Y144075D01*
X272583Y146168D01*
X276015Y148985D01*
X278832Y152417D01*
X280925Y156333D01*
X282214Y160581D01*
X282649Y165000D01*
X282214Y169419D01*
X280925Y173667D01*
X278832Y177583D01*
X276015Y181015D01*
X272583Y183832D01*
X268667Y185925D01*
X264419Y187214D01*
X260000Y187649D01*
D02*
G37*
G36*
X549500Y157310D02*
X546488Y156913D01*
X543680Y155750D01*
X541270Y153900D01*
X539420Y151490D01*
X538257Y148683D01*
X537860Y145670D01*
X538257Y142657D01*
X539420Y139850D01*
X541270Y137440D01*
X543680Y135590D01*
X546488Y134427D01*
X549500Y134031D01*
X552513Y134427D01*
X555320Y135590D01*
X557730Y137440D01*
X559580Y139850D01*
X560743Y142657D01*
X561139Y145670D01*
X560743Y148683D01*
X559580Y151490D01*
X557730Y153900D01*
X555320Y155750D01*
X552513Y156913D01*
X549500Y157310D01*
D02*
G37*
G36*
X550000Y122641D02*
X544894Y122239D01*
X539913Y121043D01*
X535182Y119083D01*
X530814Y116407D01*
X526920Y113080D01*
X523593Y109186D01*
X520917Y104818D01*
X518957Y100086D01*
X517761Y95106D01*
X517359Y90000D01*
X517761Y84894D01*
X518957Y79914D01*
X520917Y75181D01*
X523593Y70814D01*
X526920Y66920D01*
X530814Y63593D01*
X535182Y60917D01*
X539913Y58957D01*
X544894Y57761D01*
X550000Y57359D01*
X555106Y57761D01*
X560087Y58957D01*
X564818Y60917D01*
X569186Y63593D01*
X573080Y66920D01*
X576407Y70814D01*
X579083Y75181D01*
X581043Y79914D01*
X582239Y84894D01*
X582641Y90000D01*
X582239Y95106D01*
X581043Y100086D01*
X579083Y104818D01*
X576407Y109186D01*
X573080Y113080D01*
X569186Y116407D01*
X564818Y119083D01*
X560087Y121043D01*
X555106Y122239D01*
X550000Y122641D01*
D02*
G37*
G36*
X90000D02*
X84894Y122239D01*
X79914Y121043D01*
X75181Y119083D01*
X70814Y116407D01*
X66920Y113080D01*
X63593Y109186D01*
X60917Y104818D01*
X58957Y100086D01*
X57761Y95106D01*
X57359Y90000D01*
X57761Y84894D01*
X58957Y79914D01*
X60917Y75181D01*
X63593Y70814D01*
X66920Y66920D01*
X70814Y63593D01*
X75181Y60917D01*
X79914Y58957D01*
X84894Y57761D01*
X90000Y57359D01*
X95106Y57761D01*
X100086Y58957D01*
X104818Y60917D01*
X109186Y63593D01*
X113080Y66920D01*
X116407Y70814D01*
X119083Y75181D01*
X121043Y79914D01*
X122239Y84894D01*
X122641Y90000D01*
X122239Y95106D01*
X121043Y100086D01*
X119083Y104818D01*
X116407Y109186D01*
X113080Y113080D01*
X109186Y116407D01*
X104818Y119083D01*
X100086Y121043D01*
X95106Y122239D01*
X90000Y122641D01*
D02*
G37*
%LPD*%
D11*
X66000Y1313990D02*
X65000Y1314990D01*
X66000Y1313990D02*
Y1298240D01*
X335000Y1314990D02*
Y1295490D01*
X315000Y1314990D02*
Y1280490D01*
X309500Y1274990D01*
X225400D01*
X176500Y1341990D02*
X174600Y1340090D01*
X223250Y1341990D02*
X176500D01*
X225400Y1339840D02*
X223250Y1341990D01*
X174600Y1274990D02*
X90500D01*
X85000Y1280490D01*
Y1314990D02*
Y1280490D01*
X174600Y1340090D02*
Y1314990D01*
X225400Y1339840D02*
Y1314990D01*
X174600D02*
Y1274990D01*
X225400Y1314990D02*
Y1274990D01*
X564000Y1686010D02*
X565000Y1685010D01*
X564000Y1686010D02*
Y1701760D01*
X295000Y1685010D02*
Y1704510D01*
X315000Y1685010D02*
Y1719510D01*
X320500Y1725010D01*
X404600D01*
X453500Y1658010D02*
X455400Y1659910D01*
X406750Y1658010D02*
X453500D01*
X404600Y1660160D02*
X406750Y1658010D01*
X455400Y1725010D02*
X539500D01*
X545000Y1719510D01*
Y1685010D02*
Y1719510D01*
X455400Y1659910D02*
Y1685010D01*
X404600Y1660160D02*
Y1685010D01*
X455400D02*
Y1725010D01*
X404600Y1685010D02*
Y1725010D01*
X1652500Y248750D02*
X1654500Y246750D01*
X1652500Y248750D02*
Y340000D01*
X1654500Y246750D02*
X1669500D01*
X1567500Y362500D02*
X1572500D01*
X1532300Y327300D02*
X1567500Y362500D01*
X358100Y120000D02*
X410000D01*
X511870Y221870D01*
X549500D01*
X511870D02*
Y378130D01*
X549490D01*
X549500Y378120D01*
X511870Y496690D02*
X549500Y534320D01*
X511870Y378130D02*
Y496690D01*
X230000Y120000D02*
X281900D01*
X110000Y240000D02*
X230000Y120000D01*
X110000Y240000D02*
Y331350D01*
X152000Y373350D01*
X110000Y931350D02*
X152000Y973350D01*
X110000Y840000D02*
Y931350D01*
X230000Y720000D02*
X281900D01*
X511870Y978130D02*
Y1096690D01*
X549500Y1134320D01*
X549490Y978130D02*
X549500Y978120D01*
X511870Y978130D02*
X549490D01*
X511870Y821870D02*
Y978130D01*
Y821870D02*
X549500D01*
X358100Y720000D02*
X410000D01*
X110000Y840000D02*
X230000Y720000D01*
X410000D02*
X511870Y821870D01*
X1595400Y975400D02*
X1670000D01*
X1478100Y858100D02*
X1595400Y975400D01*
X1478100Y720000D02*
Y858100D01*
X1272000Y973350D02*
X1346650D01*
X1401900Y918100D01*
Y720000D02*
Y918100D01*
X1670000Y899200D02*
Y924600D01*
Y950000D01*
X1024000Y1686010D02*
X1025000Y1685010D01*
X1024000Y1686010D02*
Y1701760D01*
X755000Y1685010D02*
Y1704510D01*
X775000Y1685010D02*
Y1719510D01*
X780500Y1725010D01*
X864600D01*
X913500Y1658010D02*
X915400Y1659910D01*
X866750Y1658010D02*
X913500D01*
X864600Y1660160D02*
X866750Y1658010D01*
X915400Y1725010D02*
X999500D01*
X1005000Y1719510D01*
Y1685010D02*
Y1719510D01*
X915400Y1659910D02*
Y1685010D01*
X864600Y1660160D02*
Y1685010D01*
X915400D02*
Y1725010D01*
X864600Y1685010D02*
Y1725010D01*
X526000Y1313990D02*
X525000Y1314990D01*
X526000Y1313990D02*
Y1298240D01*
X795000Y1314990D02*
Y1295490D01*
X775000Y1314990D02*
Y1280490D01*
X769500Y1274990D01*
X685400D01*
X636500Y1341990D02*
X634600Y1340090D01*
X683250Y1341990D02*
X636500D01*
X685400Y1339840D02*
X683250Y1341990D01*
X634600Y1274990D02*
X550500D01*
X545000Y1280490D01*
Y1314990D02*
Y1280490D01*
X634600Y1340090D02*
Y1314990D01*
X685400Y1339840D02*
Y1314990D01*
X634600D02*
Y1274990D01*
X685400Y1314990D02*
Y1274990D01*
X1484000Y1686010D02*
X1485000Y1685010D01*
X1484000Y1686010D02*
Y1701760D01*
X1215000Y1685010D02*
Y1704510D01*
X1235000Y1685010D02*
Y1719510D01*
X1240500Y1725010D01*
X1324600D01*
X1373500Y1658010D02*
X1375400Y1659910D01*
X1326750Y1658010D02*
X1373500D01*
X1324600Y1660160D02*
X1326750Y1658010D01*
X1375400Y1725010D02*
X1459500D01*
X1465000Y1719510D01*
Y1685010D02*
Y1719510D01*
X1375400Y1659910D02*
Y1685010D01*
X1324600Y1660160D02*
Y1685010D01*
X1375400D02*
Y1725010D01*
X1324600Y1685010D02*
Y1725010D01*
X986000Y1313990D02*
X985000Y1314990D01*
X986000Y1313990D02*
Y1298240D01*
X1255000Y1314990D02*
Y1295490D01*
X1235000Y1314990D02*
Y1280490D01*
X1229500Y1274990D01*
X1145400D01*
X1096500Y1341990D02*
X1094600Y1340090D01*
X1143250Y1341990D02*
X1096500D01*
X1145400Y1339840D02*
X1143250Y1341990D01*
X1094600Y1274990D02*
X1010500D01*
X1005000Y1280490D01*
Y1314990D02*
Y1280490D01*
X1094600Y1340090D02*
Y1314990D01*
X1145400Y1339840D02*
Y1314990D01*
X1094600D02*
Y1274990D01*
X1145400Y1314990D02*
Y1274990D01*
X1446000Y1313990D02*
X1445000Y1314990D01*
X1446000Y1313990D02*
Y1298240D01*
X1715000Y1314990D02*
Y1295490D01*
X1695000Y1314990D02*
Y1280490D01*
X1689500Y1274990D01*
X1605400D01*
X1556500Y1341990D02*
X1554600Y1340090D01*
X1603250Y1341990D02*
X1556500D01*
X1605400Y1339840D02*
X1603250Y1341990D01*
X1554600Y1274990D02*
X1470500D01*
X1465000Y1280490D01*
Y1314990D02*
Y1280490D01*
X1554600Y1340090D02*
Y1314990D01*
X1605400Y1339840D02*
Y1314990D01*
X1554600D02*
Y1274990D01*
X1605400Y1314990D02*
Y1274990D01*
D16*
X1318000Y327000D02*
D03*
X1305000D02*
D03*
X1317000Y301000D02*
D03*
X1304000D02*
D03*
X200000Y297000D02*
D03*
X187000D02*
D03*
X200250Y322250D02*
D03*
X187250D02*
D03*
D17*
X681100Y378100D02*
X712000D01*
X681100Y177900D02*
Y378100D01*
X1034000Y119000D02*
X1074000Y159000D01*
Y269000D01*
X1077150Y272150D01*
X1109500D01*
Y362500D01*
X1069000Y403000D02*
X1109500Y362500D01*
X1069000Y403000D02*
Y473000D01*
X1079100Y483100D01*
X1110000D01*
X681100Y177900D02*
X737000Y122000D01*
X839900D01*
X841900Y120000D01*
X918100Y119000D02*
X1034000D01*
X839900Y722000D02*
X841900Y720000D01*
X737000Y722000D02*
X839900D01*
X681100Y777900D02*
X737000Y722000D01*
X1079100Y1083100D02*
X1110000D01*
X1069000Y1073000D02*
X1079100Y1083100D01*
X1069000Y1003000D02*
Y1073000D01*
Y1003000D02*
X1109500Y962500D01*
Y872150D02*
Y962500D01*
X1077150Y872150D02*
X1109500D01*
X1074000Y869000D02*
X1077150Y872150D01*
X1074000Y759000D02*
Y869000D01*
X1034000Y719000D02*
X1074000Y759000D01*
X681100Y777900D02*
Y978100D01*
X712000D01*
X918100Y719000D02*
X1034000D01*
X1110000Y1006900D02*
Y1032300D01*
Y1057700D01*
D18*
X1272300Y327000D02*
X1305000D01*
X1272000Y327300D02*
X1272300Y327000D01*
X1272900Y301000D02*
X1304000D01*
X1272000Y301900D02*
X1272900Y301000D01*
X1317000D02*
X1506000D01*
X1532300Y327300D01*
X1317000Y301000D02*
Y317000D01*
X1318000Y318000D01*
Y327000D01*
X152150Y297000D02*
X187000D01*
X152000Y297150D02*
X152150Y297000D01*
X152300Y322250D02*
X187250D01*
X152000Y322550D02*
X152300Y322250D01*
X200000Y297000D02*
Y322000D01*
X200250Y322250D01*
Y357750D01*
X190000Y368000D02*
X200250Y357750D01*
D20*
X17500Y17500D02*
D03*
X1765000Y1785000D02*
D03*
D21*
X187300Y1606990D02*
D03*
X212700D02*
D03*
X238100D02*
D03*
X161900D02*
D03*
X442700Y1393010D02*
D03*
X417300D02*
D03*
X391900D02*
D03*
X468100D02*
D03*
X1427300Y120000D02*
D03*
X1452700D02*
D03*
X1478100D02*
D03*
X1272000Y301900D02*
D03*
Y327300D02*
D03*
Y352700D02*
D03*
X1669500Y246750D02*
D03*
Y221350D02*
D03*
Y195950D02*
D03*
Y272150D02*
D03*
X1670000Y457700D02*
D03*
Y432300D02*
D03*
Y406900D02*
D03*
Y483100D02*
D03*
X1110000Y457700D02*
D03*
Y432300D02*
D03*
Y406900D02*
D03*
Y483100D02*
D03*
X1109500Y246750D02*
D03*
Y221350D02*
D03*
Y195950D02*
D03*
Y272150D02*
D03*
X867300Y120000D02*
D03*
X892700D02*
D03*
X918100D02*
D03*
X712000Y301900D02*
D03*
Y327300D02*
D03*
Y352700D02*
D03*
X307300Y120000D02*
D03*
X332700D02*
D03*
X358100D02*
D03*
X549500Y196470D02*
D03*
Y171070D02*
D03*
Y145670D02*
D03*
Y221870D02*
D03*
Y352720D02*
D03*
Y327320D02*
D03*
Y301920D02*
D03*
Y378120D02*
D03*
X152000Y297150D02*
D03*
Y322550D02*
D03*
Y347950D02*
D03*
X549500Y508920D02*
D03*
Y483520D02*
D03*
Y458120D02*
D03*
Y534320D02*
D03*
Y1134320D02*
D03*
Y1058120D02*
D03*
Y1083520D02*
D03*
Y1108920D02*
D03*
X152000Y947950D02*
D03*
Y922550D02*
D03*
Y897150D02*
D03*
X549500Y978120D02*
D03*
Y901920D02*
D03*
Y927320D02*
D03*
Y952720D02*
D03*
Y821870D02*
D03*
Y745670D02*
D03*
Y771070D02*
D03*
Y796470D02*
D03*
X358100Y720000D02*
D03*
X332700D02*
D03*
X307300D02*
D03*
X918100Y720000D02*
D03*
X892700D02*
D03*
X867300D02*
D03*
X712000Y952700D02*
D03*
Y927300D02*
D03*
Y901900D02*
D03*
X1109500Y872150D02*
D03*
Y795950D02*
D03*
Y821350D02*
D03*
Y846750D02*
D03*
X1110000Y1083100D02*
D03*
Y1006900D02*
D03*
Y1032300D02*
D03*
Y1057700D02*
D03*
X1670000Y975400D02*
D03*
Y899200D02*
D03*
Y924600D02*
D03*
Y950000D02*
D03*
X1272000Y947950D02*
D03*
Y922550D02*
D03*
Y897150D02*
D03*
X1478100Y720000D02*
D03*
X1452700D02*
D03*
X1427300D02*
D03*
X902700Y1393010D02*
D03*
X877300D02*
D03*
X851900D02*
D03*
X928100D02*
D03*
X647300Y1606990D02*
D03*
X672700D02*
D03*
X698100D02*
D03*
X621900D02*
D03*
X1362700Y1393010D02*
D03*
X1337300D02*
D03*
X1311900D02*
D03*
X1388100D02*
D03*
X1107300Y1606990D02*
D03*
X1132700D02*
D03*
X1158100D02*
D03*
X1081900D02*
D03*
X1567300D02*
D03*
X1592700D02*
D03*
X1618100D02*
D03*
X1541900D02*
D03*
D22*
X225400Y1274990D02*
D03*
X200000D02*
D03*
X225400Y1314990D02*
D03*
X200000D02*
D03*
X404600Y1725010D02*
D03*
X430000D02*
D03*
X404600Y1685010D02*
D03*
X430000D02*
D03*
X864600Y1725010D02*
D03*
X890000D02*
D03*
X864600Y1685010D02*
D03*
X890000D02*
D03*
X685400Y1274990D02*
D03*
X660000D02*
D03*
X685400Y1314990D02*
D03*
X660000D02*
D03*
X1324600Y1725010D02*
D03*
X1350000D02*
D03*
X1324600Y1685010D02*
D03*
X1350000D02*
D03*
X1145400Y1274990D02*
D03*
X1120000D02*
D03*
X1145400Y1314990D02*
D03*
X1120000D02*
D03*
X1605400Y1274990D02*
D03*
X1580000D02*
D03*
X1605400Y1314990D02*
D03*
X1580000D02*
D03*
D23*
X174600Y1274990D02*
D03*
Y1314990D02*
D03*
X455400Y1725010D02*
D03*
Y1685010D02*
D03*
X915400Y1725010D02*
D03*
Y1685010D02*
D03*
X634600Y1274990D02*
D03*
Y1314990D02*
D03*
X1375400Y1725010D02*
D03*
Y1685010D02*
D03*
X1094600Y1274990D02*
D03*
Y1314990D02*
D03*
X1554600Y1274990D02*
D03*
Y1314990D02*
D03*
D24*
X66000Y1298240D02*
D03*
X335000Y1295490D02*
D03*
X564000Y1701760D02*
D03*
X295000Y1704510D02*
D03*
X1652500Y340000D02*
D03*
X1572500Y362500D02*
D03*
X190000Y368000D02*
D03*
X1024000Y1701760D02*
D03*
X755000Y1704510D02*
D03*
X526000Y1298240D02*
D03*
X795000Y1295490D02*
D03*
X1484000Y1701760D02*
D03*
X1215000Y1704510D02*
D03*
X986000Y1298240D02*
D03*
X1255000Y1295490D02*
D03*
X1446000Y1298240D02*
D03*
X1715000Y1295490D02*
D03*
D25*
X1401900Y120000D02*
D03*
X841900D02*
D03*
X281900Y120000D02*
D03*
Y720000D02*
D03*
X841900Y720000D02*
D03*
X1401900Y720000D02*
D03*
D26*
X1272000Y378100D02*
D03*
X712000D02*
D03*
X152000Y373350D02*
D03*
Y973350D02*
D03*
X712000Y978100D02*
D03*
X1272000Y973350D02*
D03*
D27*
X1670000Y590000D02*
D03*
X1210000D02*
D03*
Y90000D02*
D03*
X1670000D02*
D03*
X1110000Y590000D02*
D03*
X650000D02*
D03*
Y90000D02*
D03*
X1110000D02*
D03*
X550000D02*
D03*
X90000D02*
D03*
Y590000D02*
D03*
X550000D02*
D03*
Y1190000D02*
D03*
X90000D02*
D03*
Y690000D02*
D03*
X550000D02*
D03*
X1110000D02*
D03*
X650000D02*
D03*
Y1190000D02*
D03*
X1110000D02*
D03*
X1670000D02*
D03*
X1210000D02*
D03*
Y690000D02*
D03*
X1670000D02*
D03*
D28*
X1525000Y525000D02*
D03*
X1355000D02*
D03*
Y155000D02*
D03*
X1525000D02*
D03*
X965000Y425000D02*
D03*
X795000D02*
D03*
Y255000D02*
D03*
X965000D02*
D03*
X380000Y165000D02*
D03*
X260000D02*
D03*
X380000Y535000D02*
D03*
X260000D02*
D03*
X210000Y1100000D02*
D03*
Y780000D02*
D03*
X430000D02*
D03*
Y1100000D02*
D03*
X990000D02*
D03*
Y780000D02*
D03*
X770000D02*
D03*
Y1100000D02*
D03*
X1315000Y1090000D02*
D03*
Y790000D02*
D03*
X1615000D02*
D03*
Y1090000D02*
D03*
D29*
X85000Y1314990D02*
D03*
X65000D02*
D03*
X315000D02*
D03*
X335000D02*
D03*
X545000Y1685010D02*
D03*
X565000D02*
D03*
X315000D02*
D03*
X295000D02*
D03*
X1005000D02*
D03*
X1025000D02*
D03*
X775000D02*
D03*
X755000D02*
D03*
X545000Y1314990D02*
D03*
X525000D02*
D03*
X775000D02*
D03*
X795000D02*
D03*
X1465000Y1685010D02*
D03*
X1485000D02*
D03*
X1235000D02*
D03*
X1215000D02*
D03*
X1005000Y1314990D02*
D03*
X985000D02*
D03*
X1235000D02*
D03*
X1255000D02*
D03*
X1465000D02*
D03*
X1445000D02*
D03*
X1695000D02*
D03*
X1715000D02*
D03*
M02*
