G04 Layer_Color=16711935*
%FSLAX44Y44*%
%MOMM*%
G71*
G01*
G75*
%ADD37R,0.7032X0.6032*%
%ADD38C,0.2032*%
%ADD39C,1.7272*%
%ADD40C,2.0032*%
%ADD41C,2.2032*%
%ADD42R,2.2032X2.2032*%
%ADD43C,0.9032*%
G04:AMPARAMS|DCode=44|XSize=0.2032mm|YSize=0.2032mm|CornerRadius=0mm|HoleSize=0mm|Usage=FLASHONLY|Rotation=0.000|XOffset=0mm|YOffset=0mm|HoleType=Round|Shape=RoundedRectangle|*
%AMROUNDEDRECTD44*
21,1,0.2032,0.2032,0,0,0.0*
21,1,0.2032,0.2032,0,0,0.0*
1,1,0.0000,0.1016,-0.1016*
1,1,0.0000,-0.1016,-0.1016*
1,1,0.0000,-0.1016,0.1016*
1,1,0.0000,0.1016,0.1016*
%
%ADD44ROUNDEDRECTD44*%
%ADD45P,2.1683X8X22.5*%
%ADD46P,2.1683X8X292.5*%
%ADD47C,6.2032*%
%ADD48C,4.2032*%
%ADD49R,1.2032X1.4532*%
D37*
X1318000Y327000D02*
D03*
X1305000D02*
D03*
X1317000Y301000D02*
D03*
X1304000D02*
D03*
X200000Y297000D02*
D03*
X187000D02*
D03*
X200250Y322250D02*
D03*
X187250D02*
D03*
D38*
X305000Y632500D02*
D03*
X311500D02*
D03*
X324750D02*
D03*
X318250D02*
D03*
X331000D02*
D03*
X330500Y647750D02*
D03*
X317750D02*
D03*
X324250D02*
D03*
X311000D02*
D03*
X304500D02*
D03*
X330500Y47750D02*
D03*
X317750D02*
D03*
X324250D02*
D03*
X311000D02*
D03*
X304500D02*
D03*
X920500D02*
D03*
X907750D02*
D03*
X914250D02*
D03*
X901000D02*
D03*
X894500D02*
D03*
X1450500D02*
D03*
X1437750D02*
D03*
X1444250D02*
D03*
X1431000D02*
D03*
X1424500D02*
D03*
X1425000Y632500D02*
D03*
X1431500D02*
D03*
X1444750D02*
D03*
X1438250D02*
D03*
X1451000D02*
D03*
X1450500Y647750D02*
D03*
X1437750D02*
D03*
X1444250D02*
D03*
X1431000D02*
D03*
X1424500D02*
D03*
X865000Y632500D02*
D03*
X871500D02*
D03*
X884750D02*
D03*
X878250D02*
D03*
X891000D02*
D03*
X890500Y647750D02*
D03*
X877750D02*
D03*
X884250D02*
D03*
X871000D02*
D03*
X864500D02*
D03*
X185000Y1232500D02*
D03*
X191500D02*
D03*
X204750D02*
D03*
X198250D02*
D03*
X211000D02*
D03*
X210500Y1247750D02*
D03*
X197750D02*
D03*
X204250D02*
D03*
X191000D02*
D03*
X184500D02*
D03*
X705000Y1232500D02*
D03*
X711500D02*
D03*
X724750D02*
D03*
X718250D02*
D03*
X731000D02*
D03*
X730500Y1247750D02*
D03*
X717750D02*
D03*
X724250D02*
D03*
X711000D02*
D03*
X704500D02*
D03*
X1065000Y1232500D02*
D03*
X1071500D02*
D03*
X1084750D02*
D03*
X1078250D02*
D03*
X1091000D02*
D03*
X1090500Y1247750D02*
D03*
X1077750D02*
D03*
X1084250D02*
D03*
X1071000D02*
D03*
X1064500D02*
D03*
X1585000Y1232500D02*
D03*
X1591500D02*
D03*
X1604750D02*
D03*
X1598250D02*
D03*
X1611000D02*
D03*
X1610500Y1247750D02*
D03*
X1597750D02*
D03*
X1604250D02*
D03*
X1591000D02*
D03*
X1584500D02*
D03*
X47500Y325000D02*
D03*
Y331500D02*
D03*
Y344750D02*
D03*
Y338250D02*
D03*
Y351000D02*
D03*
X607500Y315000D02*
D03*
Y321500D02*
D03*
Y334750D02*
D03*
Y328250D02*
D03*
Y341000D02*
D03*
X592250Y340500D02*
D03*
Y327750D02*
D03*
Y334250D02*
D03*
Y321000D02*
D03*
Y314500D02*
D03*
X1167500Y315000D02*
D03*
Y321500D02*
D03*
Y334750D02*
D03*
Y328250D02*
D03*
Y341000D02*
D03*
X1152250Y340500D02*
D03*
Y327750D02*
D03*
Y334250D02*
D03*
Y321000D02*
D03*
Y314500D02*
D03*
X1712250Y370500D02*
D03*
Y357750D02*
D03*
Y364250D02*
D03*
Y351000D02*
D03*
Y344500D02*
D03*
Y970500D02*
D03*
Y957750D02*
D03*
Y964250D02*
D03*
Y951000D02*
D03*
Y944500D02*
D03*
X1747500Y1295000D02*
D03*
Y1301500D02*
D03*
Y1314750D02*
D03*
Y1308250D02*
D03*
Y1321000D02*
D03*
X1732250Y1320500D02*
D03*
Y1307750D02*
D03*
Y1314250D02*
D03*
Y1301000D02*
D03*
Y1294500D02*
D03*
X1427500Y1315000D02*
D03*
Y1321500D02*
D03*
Y1334750D02*
D03*
Y1328250D02*
D03*
Y1341000D02*
D03*
X1412250Y1340500D02*
D03*
Y1327750D02*
D03*
Y1334250D02*
D03*
Y1321000D02*
D03*
Y1314500D02*
D03*
X1287500Y1315000D02*
D03*
Y1321500D02*
D03*
Y1334750D02*
D03*
Y1328250D02*
D03*
Y1341000D02*
D03*
X1272250Y1340500D02*
D03*
Y1327750D02*
D03*
Y1334250D02*
D03*
Y1321000D02*
D03*
Y1314500D02*
D03*
X967500Y1305000D02*
D03*
Y1311500D02*
D03*
Y1324750D02*
D03*
Y1318250D02*
D03*
Y1331000D02*
D03*
X952250Y1330500D02*
D03*
Y1317750D02*
D03*
Y1324250D02*
D03*
Y1311000D02*
D03*
Y1304500D02*
D03*
X827500Y1305000D02*
D03*
Y1311500D02*
D03*
Y1324750D02*
D03*
Y1318250D02*
D03*
Y1331000D02*
D03*
X812250Y1330500D02*
D03*
Y1317750D02*
D03*
Y1324250D02*
D03*
Y1311000D02*
D03*
Y1304500D02*
D03*
X507500Y1305000D02*
D03*
Y1311500D02*
D03*
Y1324750D02*
D03*
Y1318250D02*
D03*
Y1331000D02*
D03*
X492250Y1330500D02*
D03*
Y1317750D02*
D03*
Y1324250D02*
D03*
Y1311000D02*
D03*
Y1304500D02*
D03*
X367500Y1305000D02*
D03*
Y1311500D02*
D03*
Y1324750D02*
D03*
Y1318250D02*
D03*
Y1331000D02*
D03*
X352250Y1330500D02*
D03*
Y1317750D02*
D03*
Y1324250D02*
D03*
Y1311000D02*
D03*
Y1304500D02*
D03*
X47500Y1295000D02*
D03*
Y1301500D02*
D03*
Y1314750D02*
D03*
Y1308250D02*
D03*
Y1321000D02*
D03*
X419500Y1752250D02*
D03*
X432250D02*
D03*
X425750D02*
D03*
X439000D02*
D03*
X445500D02*
D03*
X879500D02*
D03*
X892250D02*
D03*
X885750D02*
D03*
X899000D02*
D03*
X905500D02*
D03*
X1339500D02*
D03*
X1352250D02*
D03*
X1345750D02*
D03*
X1359000D02*
D03*
X1365500D02*
D03*
X47750Y949500D02*
D03*
Y962250D02*
D03*
Y955750D02*
D03*
Y969000D02*
D03*
Y975500D02*
D03*
X592500Y935000D02*
D03*
Y928500D02*
D03*
Y915250D02*
D03*
Y921750D02*
D03*
Y909000D02*
D03*
X607750Y909500D02*
D03*
Y922250D02*
D03*
Y915750D02*
D03*
Y929000D02*
D03*
Y935500D02*
D03*
X1152500Y915000D02*
D03*
Y908500D02*
D03*
Y895250D02*
D03*
Y901750D02*
D03*
Y889000D02*
D03*
X1167750Y889500D02*
D03*
Y902250D02*
D03*
Y895750D02*
D03*
Y909000D02*
D03*
Y915500D02*
D03*
X1566500Y1752000D02*
D03*
X1572500D02*
D03*
X1587250D02*
D03*
X1579750D02*
D03*
X1594250Y1752500D02*
D03*
X1134250D02*
D03*
X1119750Y1752000D02*
D03*
X1127250D02*
D03*
X1112500D02*
D03*
X1106500D02*
D03*
X674250Y1752500D02*
D03*
X659750Y1752000D02*
D03*
X667250D02*
D03*
X652500D02*
D03*
X646500D02*
D03*
X214250Y1752500D02*
D03*
X199750Y1752000D02*
D03*
X207250D02*
D03*
X192500D02*
D03*
X186500D02*
D03*
X1630000Y325240D02*
D03*
Y355240D02*
D03*
X1070000Y325240D02*
D03*
Y355240D02*
D03*
X117480Y495850D02*
D03*
Y465850D02*
D03*
Y1065850D02*
D03*
Y1095850D02*
D03*
X1070000Y955240D02*
D03*
Y925240D02*
D03*
X1225000Y1069760D02*
D03*
Y1099760D02*
D03*
D39*
X17500Y17500D02*
D03*
X1765000Y1785000D02*
D03*
D40*
X187300Y1606990D02*
D03*
X212700D02*
D03*
X238100D02*
D03*
X161900D02*
D03*
X442700Y1393010D02*
D03*
X417300D02*
D03*
X391900D02*
D03*
X468100D02*
D03*
X1427300Y120000D02*
D03*
X1452700D02*
D03*
X1478100D02*
D03*
X1272000Y301900D02*
D03*
Y327300D02*
D03*
Y352700D02*
D03*
X1669500Y246750D02*
D03*
Y221350D02*
D03*
Y195950D02*
D03*
Y272150D02*
D03*
X1670000Y457700D02*
D03*
Y432300D02*
D03*
Y406900D02*
D03*
Y483100D02*
D03*
X1110000Y457700D02*
D03*
Y432300D02*
D03*
Y406900D02*
D03*
Y483100D02*
D03*
X1109500Y246750D02*
D03*
Y221350D02*
D03*
Y195950D02*
D03*
Y272150D02*
D03*
X867300Y120000D02*
D03*
X892700D02*
D03*
X918100D02*
D03*
X712000Y301900D02*
D03*
Y327300D02*
D03*
Y352700D02*
D03*
X307300Y120000D02*
D03*
X332700D02*
D03*
X358100D02*
D03*
X549500Y196470D02*
D03*
Y171070D02*
D03*
Y145670D02*
D03*
Y221870D02*
D03*
Y352720D02*
D03*
Y327320D02*
D03*
Y301920D02*
D03*
Y378120D02*
D03*
X152000Y297150D02*
D03*
Y322550D02*
D03*
Y347950D02*
D03*
X549500Y508920D02*
D03*
Y483520D02*
D03*
Y458120D02*
D03*
Y534320D02*
D03*
Y1134320D02*
D03*
Y1058120D02*
D03*
Y1083520D02*
D03*
Y1108920D02*
D03*
X152000Y947950D02*
D03*
Y922550D02*
D03*
Y897150D02*
D03*
X549500Y978120D02*
D03*
Y901920D02*
D03*
Y927320D02*
D03*
Y952720D02*
D03*
Y821870D02*
D03*
Y745670D02*
D03*
Y771070D02*
D03*
Y796470D02*
D03*
X358100Y720000D02*
D03*
X332700D02*
D03*
X307300D02*
D03*
X918100Y720000D02*
D03*
X892700D02*
D03*
X867300D02*
D03*
X712000Y952700D02*
D03*
Y927300D02*
D03*
Y901900D02*
D03*
X1109500Y872150D02*
D03*
Y795950D02*
D03*
Y821350D02*
D03*
Y846750D02*
D03*
X1110000Y1083100D02*
D03*
Y1006900D02*
D03*
Y1032300D02*
D03*
Y1057700D02*
D03*
X1670000Y975400D02*
D03*
Y899200D02*
D03*
Y924600D02*
D03*
Y950000D02*
D03*
X1272000Y947950D02*
D03*
Y922550D02*
D03*
Y897150D02*
D03*
X1478100Y720000D02*
D03*
X1452700D02*
D03*
X1427300D02*
D03*
X902700Y1393010D02*
D03*
X877300D02*
D03*
X851900D02*
D03*
X928100D02*
D03*
X647300Y1606990D02*
D03*
X672700D02*
D03*
X698100D02*
D03*
X621900D02*
D03*
X1362700Y1393010D02*
D03*
X1337300D02*
D03*
X1311900D02*
D03*
X1388100D02*
D03*
X1107300Y1606990D02*
D03*
X1132700D02*
D03*
X1158100D02*
D03*
X1081900D02*
D03*
X1567300D02*
D03*
X1592700D02*
D03*
X1618100D02*
D03*
X1541900D02*
D03*
D41*
X225400Y1274990D02*
D03*
X200000D02*
D03*
X225400Y1314990D02*
D03*
X200000D02*
D03*
X404600Y1725010D02*
D03*
X430000D02*
D03*
X404600Y1685010D02*
D03*
X430000D02*
D03*
X864600Y1725010D02*
D03*
X890000D02*
D03*
X864600Y1685010D02*
D03*
X890000D02*
D03*
X685400Y1274990D02*
D03*
X660000D02*
D03*
X685400Y1314990D02*
D03*
X660000D02*
D03*
X1324600Y1725010D02*
D03*
X1350000D02*
D03*
X1324600Y1685010D02*
D03*
X1350000D02*
D03*
X1145400Y1274990D02*
D03*
X1120000D02*
D03*
X1145400Y1314990D02*
D03*
X1120000D02*
D03*
X1605400Y1274990D02*
D03*
X1580000D02*
D03*
X1605400Y1314990D02*
D03*
X1580000D02*
D03*
D42*
X174600Y1274990D02*
D03*
Y1314990D02*
D03*
X455400Y1725010D02*
D03*
Y1685010D02*
D03*
X915400Y1725010D02*
D03*
Y1685010D02*
D03*
X634600Y1274990D02*
D03*
Y1314990D02*
D03*
X1375400Y1725010D02*
D03*
Y1685010D02*
D03*
X1094600Y1274990D02*
D03*
Y1314990D02*
D03*
X1554600Y1274990D02*
D03*
Y1314990D02*
D03*
D43*
X66000Y1298240D02*
D03*
X335000Y1295490D02*
D03*
X564000Y1701760D02*
D03*
X295000Y1704510D02*
D03*
X1652500Y340000D02*
D03*
X1572500Y362500D02*
D03*
X190000Y368000D02*
D03*
X1024000Y1701760D02*
D03*
X755000Y1704510D02*
D03*
X526000Y1298240D02*
D03*
X795000Y1295490D02*
D03*
X1484000Y1701760D02*
D03*
X1215000Y1704510D02*
D03*
X986000Y1298240D02*
D03*
X1255000Y1295490D02*
D03*
X1446000Y1298240D02*
D03*
X1715000Y1295490D02*
D03*
D44*
X1440000Y97200D02*
D03*
X880000D02*
D03*
X320000Y97200D02*
D03*
Y697200D02*
D03*
X880000Y697200D02*
D03*
X1440000Y697200D02*
D03*
D45*
X1401900Y120000D02*
D03*
X841900D02*
D03*
X281900Y120000D02*
D03*
Y720000D02*
D03*
X841900Y720000D02*
D03*
X1401900Y720000D02*
D03*
D46*
X1272000Y378100D02*
D03*
X712000D02*
D03*
X152000Y373350D02*
D03*
Y973350D02*
D03*
X712000Y978100D02*
D03*
X1272000Y973350D02*
D03*
D47*
X1670000Y590000D02*
D03*
X1210000D02*
D03*
Y90000D02*
D03*
X1670000D02*
D03*
X1110000Y590000D02*
D03*
X650000D02*
D03*
Y90000D02*
D03*
X1110000D02*
D03*
X550000D02*
D03*
X90000D02*
D03*
Y590000D02*
D03*
X550000D02*
D03*
Y1190000D02*
D03*
X90000D02*
D03*
Y690000D02*
D03*
X550000D02*
D03*
X1110000D02*
D03*
X650000D02*
D03*
Y1190000D02*
D03*
X1110000D02*
D03*
X1670000D02*
D03*
X1210000D02*
D03*
Y690000D02*
D03*
X1670000D02*
D03*
D48*
X1525000Y525000D02*
D03*
X1355000D02*
D03*
Y155000D02*
D03*
X1525000D02*
D03*
X965000Y425000D02*
D03*
X795000D02*
D03*
Y255000D02*
D03*
X965000D02*
D03*
X380000Y165000D02*
D03*
X260000D02*
D03*
X380000Y535000D02*
D03*
X260000D02*
D03*
X210000Y1100000D02*
D03*
Y780000D02*
D03*
X430000D02*
D03*
Y1100000D02*
D03*
X990000D02*
D03*
Y780000D02*
D03*
X770000D02*
D03*
Y1100000D02*
D03*
X1315000Y1090000D02*
D03*
Y790000D02*
D03*
X1615000D02*
D03*
Y1090000D02*
D03*
D49*
X85000Y1314990D02*
D03*
X65000D02*
D03*
X315000D02*
D03*
X335000D02*
D03*
X545000Y1685010D02*
D03*
X565000D02*
D03*
X315000D02*
D03*
X295000D02*
D03*
X1005000D02*
D03*
X1025000D02*
D03*
X775000D02*
D03*
X755000D02*
D03*
X545000Y1314990D02*
D03*
X525000D02*
D03*
X775000D02*
D03*
X795000D02*
D03*
X1465000Y1685010D02*
D03*
X1485000D02*
D03*
X1235000D02*
D03*
X1215000D02*
D03*
X1005000Y1314990D02*
D03*
X985000D02*
D03*
X1235000D02*
D03*
X1255000D02*
D03*
X1465000D02*
D03*
X1445000D02*
D03*
X1695000D02*
D03*
X1715000D02*
D03*
M02*
