G04 Layer_Color=32896*
%FSLAX44Y44*%
%MOMM*%
G71*
G01*
G75*
%ADD30C,0.2000*%
%ADD31C,0.2540*%
%ADD50C,0.0254*%
%ADD51C,0.0508*%
D30*
X92000Y1323240D02*
X58000D01*
X92000Y1306740D02*
X58000D01*
X92000Y1323240D02*
Y1306740D01*
X58000Y1323240D02*
Y1306740D01*
X342000D02*
X308000D01*
X342000Y1323240D02*
X308000D01*
Y1306740D01*
X342000Y1323240D02*
Y1306740D01*
X538000Y1676760D02*
X572000D01*
X538000Y1693260D02*
X572000D01*
X538000Y1676760D02*
Y1693260D01*
X572000Y1676760D02*
Y1693260D01*
X288000D02*
X322000D01*
X288000Y1676760D02*
X322000D01*
Y1693260D01*
X288000Y1676760D02*
Y1693260D01*
X1300500Y332000D02*
X1322500D01*
Y322000D02*
Y332000D01*
X1300500Y322000D02*
X1322500D01*
X1300500D02*
Y332000D01*
X1313000Y322000D02*
Y331000D01*
X1299500Y306000D02*
X1321500D01*
Y296000D02*
Y306000D01*
X1299500Y296000D02*
X1321500D01*
X1299500D02*
Y306000D01*
X1312000Y296000D02*
Y305000D01*
X182500Y302000D02*
X204500D01*
Y292000D02*
Y302000D01*
X182500Y292000D02*
X204500D01*
X182500D02*
Y302000D01*
X195000Y292000D02*
Y301000D01*
X182750Y327250D02*
X204750D01*
Y317250D02*
Y327250D01*
X182750Y317250D02*
X204750D01*
X182750D02*
Y327250D01*
X195250Y317250D02*
Y326250D01*
X998000Y1676760D02*
X1032000D01*
X998000Y1693260D02*
X1032000D01*
X998000Y1676760D02*
Y1693260D01*
X1032000Y1676760D02*
Y1693260D01*
X748000D02*
X782000D01*
X748000Y1676760D02*
X782000D01*
Y1693260D01*
X748000Y1676760D02*
Y1693260D01*
X552000Y1323240D02*
X518000D01*
X552000Y1306740D02*
X518000D01*
X552000Y1323240D02*
Y1306740D01*
X518000Y1323240D02*
Y1306740D01*
X802000D02*
X768000D01*
X802000Y1323240D02*
X768000D01*
Y1306740D01*
X802000Y1323240D02*
Y1306740D01*
X1458000Y1676760D02*
X1492000D01*
X1458000Y1693260D02*
X1492000D01*
X1458000Y1676760D02*
Y1693260D01*
X1492000Y1676760D02*
Y1693260D01*
X1208000D02*
X1242000D01*
X1208000Y1676760D02*
X1242000D01*
Y1693260D01*
X1208000Y1676760D02*
Y1693260D01*
X1012000Y1323240D02*
X978000D01*
X1012000Y1306740D02*
X978000D01*
X1012000Y1323240D02*
Y1306740D01*
X978000Y1323240D02*
Y1306740D01*
X1262000D02*
X1228000D01*
X1262000Y1323240D02*
X1228000D01*
Y1306740D01*
X1262000Y1323240D02*
Y1306740D01*
X1472000Y1323240D02*
X1438000D01*
X1472000Y1306740D02*
X1438000D01*
X1472000Y1323240D02*
Y1306740D01*
X1438000Y1323240D02*
Y1306740D01*
X1722000D02*
X1688000D01*
X1722000Y1323240D02*
X1688000D01*
Y1306740D01*
X1722000Y1323240D02*
Y1306740D01*
D31*
X82596Y1330240D02*
G03*
X82596Y1330240I1904J0D01*
G01*
X311399Y1330490D02*
G03*
X311399Y1330490I1601J0D01*
G01*
X547404Y1669760D02*
G03*
X547404Y1669760I-1904J0D01*
G01*
X318601Y1669510D02*
G03*
X318601Y1669510I-1601J0D01*
G01*
X1007404Y1669760D02*
G03*
X1007404Y1669760I-1904J0D01*
G01*
X778601Y1669510D02*
G03*
X778601Y1669510I-1601J0D01*
G01*
X542596Y1330240D02*
G03*
X542596Y1330240I1904J0D01*
G01*
X771399Y1330490D02*
G03*
X771399Y1330490I1601J0D01*
G01*
X1467404Y1669760D02*
G03*
X1467404Y1669760I-1904J0D01*
G01*
X1238601Y1669510D02*
G03*
X1238601Y1669510I-1601J0D01*
G01*
X1002596Y1330240D02*
G03*
X1002596Y1330240I1904J0D01*
G01*
X1231399Y1330490D02*
G03*
X1231399Y1330490I1601J0D01*
G01*
X1462596Y1330240D02*
G03*
X1462596Y1330240I1904J0D01*
G01*
X1691399Y1330490D02*
G03*
X1691399Y1330490I1601J0D01*
G01*
D50*
X200762Y1648908D02*
X197460D01*
X202794Y1649162D02*
X195428D01*
X204318Y1649416D02*
X194158D01*
X205334Y1649670D02*
X193142D01*
X206096Y1649924D02*
X192126D01*
X206858Y1650178D02*
X191364D01*
X207366Y1650432D02*
X190856D01*
X208128Y1650686D02*
X190094D01*
X208636Y1650940D02*
X189586D01*
X209144Y1651194D02*
X189078D01*
X209652Y1651448D02*
X188570D01*
X210160Y1651702D02*
X188062D01*
X210668Y1651956D02*
X187554D01*
X210922Y1652210D02*
X187300D01*
X211430Y1652464D02*
X186792D01*
X211938Y1652718D02*
X186538D01*
X212192Y1652972D02*
X186030D01*
X212446Y1653226D02*
X185776D01*
X212954Y1653480D02*
X185522D01*
X213208Y1653734D02*
X185014D01*
X213462Y1653988D02*
X184760D01*
X213716Y1654242D02*
X184506D01*
X214224Y1654496D02*
X184252D01*
X214478Y1654750D02*
X184252D01*
X214732Y1655004D02*
X183998D01*
X186284Y1655258D02*
X183998D01*
X196444D02*
X187300D01*
X214986D02*
X201778D01*
X186030Y1655512D02*
X183744D01*
X195174D02*
X187808D01*
X215240D02*
X203048D01*
X185776Y1655766D02*
X183744D01*
X194412D02*
X187808D01*
X215494D02*
X204064D01*
X185776Y1656020D02*
X183744D01*
X193650D02*
X188062D01*
X215748D02*
X204826D01*
X185776Y1656274D02*
X183744D01*
X192888D02*
X188062D01*
X216002D02*
X205334D01*
X185776Y1656528D02*
X183744D01*
X192380D02*
X188062D01*
X216002D02*
X205842D01*
X185776Y1656782D02*
X183744D01*
X191872D02*
X188062D01*
X216256D02*
X206350D01*
X186030Y1657036D02*
X183744D01*
X191364D02*
X187808D01*
X216510D02*
X206858D01*
X186284Y1657290D02*
X183998D01*
X190856D02*
X187554D01*
X201778D02*
X196444D01*
X216764D02*
X207366D01*
X190348Y1657544D02*
X183998D01*
X203048D02*
X195428D01*
X217018D02*
X207874D01*
X190094Y1657798D02*
X184252D01*
X203810D02*
X194412D01*
X217272D02*
X208128D01*
X189586Y1658052D02*
X184252D01*
X204572D02*
X193904D01*
X217272D02*
X208636D01*
X189332Y1658306D02*
X184506D01*
X205080D02*
X193142D01*
X217526D02*
X208890D01*
X189078Y1658560D02*
X184760D01*
X205588D02*
X192634D01*
X217780D02*
X209144D01*
X188570Y1658814D02*
X185014D01*
X206096D02*
X192126D01*
X217780D02*
X209652D01*
X188316Y1659068D02*
X185522D01*
X206604D02*
X191872D01*
X218034D02*
X209906D01*
X187554Y1659322D02*
X186284D01*
X207112D02*
X191364D01*
X218288D02*
X210160D01*
X207366Y1659576D02*
X190856D01*
X218288D02*
X210414D01*
X207620Y1659830D02*
X190602D01*
X218542D02*
X210668D01*
X208128Y1660084D02*
X190348D01*
X218796D02*
X210922D01*
X208382Y1660338D02*
X190094D01*
X218796D02*
X211176D01*
X208636Y1660592D02*
X189586D01*
X219050D02*
X211430D01*
X208890Y1660846D02*
X189332D01*
X219050D02*
X211684D01*
X208890Y1661100D02*
X189078D01*
X219304D02*
X211938D01*
X209144Y1661354D02*
X188824D01*
X219304D02*
X211938D01*
X209144Y1661608D02*
X188570D01*
X219558D02*
X212192D01*
X209398Y1661862D02*
X188316D01*
X219558D02*
X212446D01*
X209398Y1662116D02*
X188062D01*
X219812D02*
X212700D01*
X209398Y1662370D02*
X188062D01*
X219812D02*
X212700D01*
X209398Y1662624D02*
X187808D01*
X220066D02*
X212954D01*
X209398Y1662878D02*
X187554D01*
X220066D02*
X213208D01*
X209398Y1663132D02*
X187300D01*
X220066D02*
X213208D01*
X197714Y1663386D02*
X187300D01*
X209398D02*
X200762D01*
X220320D02*
X213462D01*
X196698Y1663640D02*
X187046D01*
X209144D02*
X201778D01*
X220320D02*
X213462D01*
X195936Y1663894D02*
X186792D01*
X209144D02*
X202286D01*
X220574D02*
X213716D01*
X195428Y1664148D02*
X186792D01*
X209144D02*
X202794D01*
X220574D02*
X213716D01*
X194920Y1664402D02*
X186538D01*
X208890D02*
X203302D01*
X220574D02*
X213970D01*
X194666Y1664656D02*
X186538D01*
X208636D02*
X203810D01*
X220828D02*
X213970D01*
X194158Y1664910D02*
X186284D01*
X208382D02*
X204064D01*
X220828D02*
X214224D01*
X193904Y1665164D02*
X186284D01*
X208128D02*
X204572D01*
X220828D02*
X214224D01*
X193650Y1665418D02*
X186030D01*
X207620D02*
X204826D01*
X220828D02*
X214478D01*
X193396Y1665672D02*
X186030D01*
X207112D02*
X205588D01*
X221082D02*
X214478D01*
X193142Y1665926D02*
X185776D01*
X221082D02*
X214478D01*
X192888Y1666180D02*
X185776D01*
X221082D02*
X214732D01*
X192634Y1666434D02*
X185522D01*
X221082D02*
X214732D01*
X192380Y1666688D02*
X185522D01*
X221336D02*
X214732D01*
X192380Y1666942D02*
X185522D01*
X221336D02*
X214986D01*
X192126Y1667196D02*
X185268D01*
X221336D02*
X214986D01*
X192126Y1667450D02*
X185268D01*
X221336D02*
X214986D01*
X191872Y1667704D02*
X185268D01*
X221336D02*
X215240D01*
X191618Y1667958D02*
X185268D01*
X221590D02*
X215240D01*
X191618Y1668212D02*
X185014D01*
X221590D02*
X215240D01*
X191618Y1668466D02*
X185014D01*
X221590D02*
X198476D01*
X191364Y1668720D02*
X185014D01*
X221590D02*
X197714D01*
X191364Y1668974D02*
X185014D01*
X221590D02*
X197206D01*
X191364Y1669228D02*
X185014D01*
X221590D02*
X196952D01*
X191110Y1669482D02*
X184760D01*
X221590D02*
X196698D01*
X191110Y1669736D02*
X184760D01*
X221590D02*
X196444D01*
X191110Y1669990D02*
X184760D01*
X198476D02*
X196444D01*
X221590D02*
X200000D01*
X191110Y1670244D02*
X184760D01*
X197968D02*
X196190D01*
X221844D02*
X200254D01*
X191110Y1670498D02*
X184760D01*
X197714D02*
X196190D01*
X221844D02*
X200508D01*
X190856Y1670752D02*
X184760D01*
X197714D02*
X195936D01*
X221844D02*
X200508D01*
X190856Y1671006D02*
X184760D01*
X197460D02*
X195936D01*
X221844D02*
X200762D01*
X190856Y1671260D02*
X184760D01*
X197460D02*
X195936D01*
X221844D02*
X200762D01*
X190856Y1671514D02*
X184760D01*
X197460D02*
X195936D01*
X221844D02*
X200762D01*
X190856Y1671768D02*
X184760D01*
X197460D02*
X195936D01*
X221844D02*
X200762D01*
X190856Y1672022D02*
X184760D01*
X197460D02*
X195936D01*
X221844D02*
X200762D01*
X191110Y1672276D02*
X184760D01*
X197714D02*
X196190D01*
X221844D02*
X200508D01*
X191110Y1672530D02*
X184760D01*
X197968D02*
X196190D01*
X221844D02*
X200508D01*
X191110Y1672784D02*
X184760D01*
X198222D02*
X196190D01*
X221590D02*
X200000D01*
X191110Y1673038D02*
X184760D01*
X198730D02*
X196444D01*
X221590D02*
X199746D01*
X191110Y1673292D02*
X184760D01*
X221590D02*
X196444D01*
X191110Y1673546D02*
X185014D01*
X221590D02*
X196698D01*
X191364Y1673800D02*
X185014D01*
X221590D02*
X196952D01*
X191364Y1674054D02*
X185014D01*
X221590D02*
X197206D01*
X191364Y1674308D02*
X185014D01*
X221590D02*
X197714D01*
X191618Y1674562D02*
X185014D01*
X221590D02*
X198730D01*
X191618Y1674816D02*
X185014D01*
X221590D02*
X215240D01*
X191872Y1675070D02*
X185268D01*
X221590D02*
X215240D01*
X191872Y1675324D02*
X185268D01*
X221336D02*
X214986D01*
X192126Y1675578D02*
X185268D01*
X221336D02*
X214986D01*
X192126Y1675832D02*
X185522D01*
X221336D02*
X214986D01*
X192380Y1676086D02*
X185522D01*
X221336D02*
X214986D01*
X192634Y1676340D02*
X185522D01*
X221336D02*
X214732D01*
X192888Y1676594D02*
X185776D01*
X221082D02*
X214732D01*
X192888Y1676848D02*
X185776D01*
X221082D02*
X214732D01*
X193142Y1677102D02*
X185776D01*
X221082D02*
X214478D01*
X193396Y1677356D02*
X186030D01*
X207366D02*
X205334D01*
X221082D02*
X214478D01*
X193650Y1677610D02*
X186030D01*
X207874D02*
X204572D01*
X220828D02*
X214224D01*
X194158Y1677864D02*
X186284D01*
X208382D02*
X204318D01*
X220828D02*
X214224D01*
X194412Y1678118D02*
X186284D01*
X208636D02*
X204064D01*
X220828D02*
X214224D01*
X194666Y1678372D02*
X186538D01*
X208636D02*
X203556D01*
X220574D02*
X213970D01*
X195174Y1678626D02*
X186538D01*
X208890D02*
X203302D01*
X220574D02*
X213970D01*
X195682Y1678880D02*
X186792D01*
X209144D02*
X202794D01*
X220574D02*
X213716D01*
X196190Y1679134D02*
X187046D01*
X209144D02*
X202032D01*
X220320D02*
X213716D01*
X196952Y1679388D02*
X187046D01*
X209144D02*
X201270D01*
X220320D02*
X213462D01*
X198222Y1679642D02*
X187300D01*
X209398D02*
X200000D01*
X220320D02*
X213462D01*
X209398Y1679896D02*
X187554D01*
X220066D02*
X213208D01*
X209398Y1680150D02*
X187554D01*
X220066D02*
X212954D01*
X209398Y1680404D02*
X187808D01*
X219812D02*
X212954D01*
X209398Y1680658D02*
X188062D01*
X219812D02*
X212700D01*
X209398Y1680912D02*
X188316D01*
X219812D02*
X212446D01*
X209144Y1681166D02*
X188570D01*
X219558D02*
X212446D01*
X209144Y1681420D02*
X188824D01*
X219558D02*
X212192D01*
X209144Y1681674D02*
X189078D01*
X219304D02*
X211938D01*
X208890Y1681928D02*
X189332D01*
X219304D02*
X211684D01*
X208636Y1682182D02*
X189586D01*
X219050D02*
X211430D01*
X208636Y1682436D02*
X189840D01*
X218796D02*
X211430D01*
X208128Y1682690D02*
X190094D01*
X218796D02*
X211176D01*
X207874Y1682944D02*
X190348D01*
X218542D02*
X210922D01*
X207620Y1683198D02*
X190856D01*
X218542D02*
X210668D01*
X207112Y1683452D02*
X191110D01*
X218288D02*
X210414D01*
X187808Y1683706D02*
X185776D01*
X206858D02*
X191618D01*
X218034D02*
X210160D01*
X188570Y1683960D02*
X185268D01*
X206350D02*
X191872D01*
X218034D02*
X209652D01*
X188824Y1684214D02*
X185014D01*
X205842D02*
X192380D01*
X217780D02*
X209398D01*
X189078Y1684468D02*
X184506D01*
X205334D02*
X192888D01*
X217526D02*
X209144D01*
X189586Y1684722D02*
X184506D01*
X204826D02*
X193396D01*
X217526D02*
X208890D01*
X189840Y1684976D02*
X184252D01*
X204318D02*
X194158D01*
X217272D02*
X208382D01*
X190348Y1685230D02*
X183998D01*
X203556D02*
X194920D01*
X217018D02*
X208128D01*
X186284Y1685484D02*
X183998D01*
X190602D02*
X187300D01*
X202540D02*
X195682D01*
X216764D02*
X207620D01*
X186030Y1685738D02*
X183998D01*
X191110D02*
X187808D01*
X201270D02*
X197206D01*
X216764D02*
X207112D01*
X185776Y1685992D02*
X183744D01*
X191618D02*
X187808D01*
X216510D02*
X206858D01*
X185776Y1686246D02*
X183744D01*
X192126D02*
X188062D01*
X216256D02*
X206350D01*
X185776Y1686500D02*
X183744D01*
X192634D02*
X188062D01*
X216002D02*
X205588D01*
X185776Y1686754D02*
X183744D01*
X193142D02*
X188062D01*
X215748D02*
X205080D01*
X185776Y1687008D02*
X183744D01*
X193904D02*
X188062D01*
X215494D02*
X204318D01*
X186030Y1687262D02*
X183744D01*
X194666D02*
X187808D01*
X215240D02*
X203556D01*
X186284Y1687516D02*
X183998D01*
X195682D02*
X187554D01*
X214986D02*
X202540D01*
X197206Y1687770D02*
X183998D01*
X214732D02*
X201016D01*
X214478Y1688024D02*
X183998D01*
X214224Y1688278D02*
X184252D01*
X213970Y1688532D02*
X184506D01*
X213716Y1688786D02*
X184506D01*
X213462Y1689040D02*
X184760D01*
X212954Y1689294D02*
X185268D01*
X212700Y1689548D02*
X185522D01*
X212446Y1689802D02*
X185776D01*
X211938Y1690056D02*
X186284D01*
X211684Y1690310D02*
X186538D01*
X211176Y1690564D02*
X187046D01*
X210922Y1690818D02*
X187300D01*
X210414Y1691072D02*
X187808D01*
X209906Y1691326D02*
X188316D01*
X209398Y1691580D02*
X188824D01*
X208890Y1691834D02*
X189332D01*
X208382Y1692088D02*
X189840D01*
X207874Y1692342D02*
X190348D01*
X207112Y1692596D02*
X191110D01*
X206604Y1692850D02*
X191872D01*
X205842Y1693104D02*
X192634D01*
X204826Y1693358D02*
X193396D01*
X203810Y1693612D02*
X194666D01*
X202286Y1693866D02*
X196190D01*
X429238Y1351092D02*
X432540D01*
X427206Y1350838D02*
X434572D01*
X425682Y1350584D02*
X435842D01*
X424666Y1350330D02*
X436858D01*
X423904Y1350076D02*
X437874D01*
X423142Y1349822D02*
X438636D01*
X422634Y1349568D02*
X439144D01*
X421872Y1349314D02*
X439906D01*
X421364Y1349060D02*
X440414D01*
X420856Y1348806D02*
X440922D01*
X420348Y1348552D02*
X441430D01*
X419840Y1348298D02*
X441938D01*
X419332Y1348044D02*
X442446D01*
X419078Y1347790D02*
X442700D01*
X418570Y1347536D02*
X443208D01*
X418062Y1347282D02*
X443462D01*
X417808Y1347028D02*
X443970D01*
X417554Y1346774D02*
X444224D01*
X417046Y1346520D02*
X444478D01*
X416792Y1346266D02*
X444986D01*
X416538Y1346012D02*
X445240D01*
X416284Y1345758D02*
X445494D01*
X415776Y1345504D02*
X445748D01*
X415522Y1345250D02*
X445748D01*
X415268Y1344996D02*
X446002D01*
X443716Y1344742D02*
X446002D01*
X433556D02*
X442700D01*
X415014D02*
X428222D01*
X443970Y1344488D02*
X446256D01*
X434826D02*
X442192D01*
X414760D02*
X426952D01*
X444224Y1344234D02*
X446256D01*
X435588D02*
X442192D01*
X414506D02*
X425936D01*
X444224Y1343980D02*
X446256D01*
X436350D02*
X441938D01*
X414252D02*
X425174D01*
X444224Y1343726D02*
X446256D01*
X437112D02*
X441938D01*
X413998D02*
X424666D01*
X444224Y1343472D02*
X446256D01*
X437620D02*
X441938D01*
X413998D02*
X424158D01*
X444224Y1343218D02*
X446256D01*
X438128D02*
X441938D01*
X413744D02*
X423650D01*
X443970Y1342964D02*
X446256D01*
X438636D02*
X442192D01*
X413490D02*
X423142D01*
X443716Y1342710D02*
X446002D01*
X439144D02*
X442446D01*
X428222D02*
X433556D01*
X413236D02*
X422634D01*
X439652Y1342456D02*
X446002D01*
X426952D02*
X434572D01*
X412982D02*
X422126D01*
X439906Y1342202D02*
X445748D01*
X426190D02*
X435588D01*
X412728D02*
X421872D01*
X440414Y1341948D02*
X445748D01*
X425428D02*
X436096D01*
X412728D02*
X421364D01*
X440668Y1341694D02*
X445494D01*
X424920D02*
X436858D01*
X412474D02*
X421110D01*
X440922Y1341440D02*
X445240D01*
X424412D02*
X437366D01*
X412220D02*
X420856D01*
X441430Y1341186D02*
X444986D01*
X423904D02*
X437874D01*
X412220D02*
X420348D01*
X441684Y1340932D02*
X444478D01*
X423396D02*
X438128D01*
X411966D02*
X420094D01*
X442446Y1340678D02*
X443716D01*
X422888D02*
X438636D01*
X411712D02*
X419840D01*
X422634Y1340424D02*
X439144D01*
X411712D02*
X419586D01*
X422380Y1340170D02*
X439398D01*
X411458D02*
X419332D01*
X421872Y1339916D02*
X439652D01*
X411204D02*
X419078D01*
X421618Y1339662D02*
X439906D01*
X411204D02*
X418824D01*
X421364Y1339408D02*
X440414D01*
X410950D02*
X418570D01*
X421110Y1339154D02*
X440668D01*
X410950D02*
X418316D01*
X421110Y1338900D02*
X440922D01*
X410696D02*
X418062D01*
X420856Y1338646D02*
X441176D01*
X410696D02*
X418062D01*
X420856Y1338392D02*
X441430D01*
X410442D02*
X417808D01*
X420602Y1338138D02*
X441684D01*
X410442D02*
X417554D01*
X420602Y1337884D02*
X441938D01*
X410188D02*
X417300D01*
X420602Y1337630D02*
X441938D01*
X410188D02*
X417300D01*
X420602Y1337376D02*
X442192D01*
X409934D02*
X417046D01*
X420602Y1337122D02*
X442446D01*
X409934D02*
X416792D01*
X420602Y1336868D02*
X442700D01*
X409934D02*
X416792D01*
X432286Y1336614D02*
X442700D01*
X420602D02*
X429238D01*
X409680D02*
X416538D01*
X433302Y1336360D02*
X442954D01*
X420856D02*
X428222D01*
X409680D02*
X416538D01*
X434064Y1336106D02*
X443208D01*
X420856D02*
X427714D01*
X409426D02*
X416284D01*
X434572Y1335852D02*
X443208D01*
X420856D02*
X427206D01*
X409426D02*
X416284D01*
X435080Y1335598D02*
X443462D01*
X421110D02*
X426698D01*
X409426D02*
X416030D01*
X435334Y1335344D02*
X443462D01*
X421364D02*
X426190D01*
X409172D02*
X416030D01*
X435842Y1335090D02*
X443716D01*
X421618D02*
X425936D01*
X409172D02*
X415776D01*
X436096Y1334836D02*
X443716D01*
X421872D02*
X425428D01*
X409172D02*
X415776D01*
X436350Y1334582D02*
X443970D01*
X422380D02*
X425174D01*
X409172D02*
X415522D01*
X436604Y1334328D02*
X443970D01*
X422888D02*
X424412D01*
X408918D02*
X415522D01*
X436858Y1334074D02*
X444224D01*
X408918D02*
X415522D01*
X437112Y1333820D02*
X444224D01*
X408918D02*
X415268D01*
X437366Y1333566D02*
X444478D01*
X408918D02*
X415268D01*
X437620Y1333312D02*
X444478D01*
X408664D02*
X415268D01*
X437620Y1333058D02*
X444478D01*
X408664D02*
X415014D01*
X437874Y1332804D02*
X444732D01*
X408664D02*
X415014D01*
X437874Y1332550D02*
X444732D01*
X408664D02*
X415014D01*
X438128Y1332296D02*
X444732D01*
X408664D02*
X414760D01*
X438382Y1332042D02*
X444732D01*
X408410D02*
X414760D01*
X438382Y1331788D02*
X444986D01*
X408410D02*
X414760D01*
X438382Y1331534D02*
X444986D01*
X408410D02*
X431524D01*
X438636Y1331280D02*
X444986D01*
X408410D02*
X432286D01*
X438636Y1331026D02*
X444986D01*
X408410D02*
X432794D01*
X438636Y1330772D02*
X444986D01*
X408410D02*
X433048D01*
X438890Y1330518D02*
X445240D01*
X408410D02*
X433302D01*
X438890Y1330264D02*
X445240D01*
X408410D02*
X433556D01*
X438890Y1330010D02*
X445240D01*
X431524D02*
X433556D01*
X408410D02*
X430000D01*
X438890Y1329756D02*
X445240D01*
X432032D02*
X433810D01*
X408156D02*
X429746D01*
X438890Y1329502D02*
X445240D01*
X432286D02*
X433810D01*
X408156D02*
X429492D01*
X439144Y1329248D02*
X445240D01*
X432286D02*
X434064D01*
X408156D02*
X429492D01*
X439144Y1328994D02*
X445240D01*
X432540D02*
X434064D01*
X408156D02*
X429238D01*
X439144Y1328740D02*
X445240D01*
X432540D02*
X434064D01*
X408156D02*
X429238D01*
X439144Y1328486D02*
X445240D01*
X432540D02*
X434064D01*
X408156D02*
X429238D01*
X439144Y1328232D02*
X445240D01*
X432540D02*
X434064D01*
X408156D02*
X429238D01*
X439144Y1327978D02*
X445240D01*
X432540D02*
X434064D01*
X408156D02*
X429238D01*
X438890Y1327724D02*
X445240D01*
X432286D02*
X433810D01*
X408156D02*
X429492D01*
X438890Y1327470D02*
X445240D01*
X432032D02*
X433810D01*
X408156D02*
X429492D01*
X438890Y1327216D02*
X445240D01*
X431778D02*
X433810D01*
X408410D02*
X430000D01*
X438890Y1326962D02*
X445240D01*
X431270D02*
X433556D01*
X408410D02*
X430254D01*
X438890Y1326708D02*
X445240D01*
X408410D02*
X433556D01*
X438890Y1326454D02*
X444986D01*
X408410D02*
X433302D01*
X438636Y1326200D02*
X444986D01*
X408410D02*
X433048D01*
X438636Y1325946D02*
X444986D01*
X408410D02*
X432794D01*
X438636Y1325692D02*
X444986D01*
X408410D02*
X432286D01*
X438382Y1325438D02*
X444986D01*
X408410D02*
X431270D01*
X438382Y1325184D02*
X444986D01*
X408410D02*
X414760D01*
X438128Y1324930D02*
X444732D01*
X408410D02*
X414760D01*
X438128Y1324676D02*
X444732D01*
X408664D02*
X415014D01*
X437874Y1324422D02*
X444732D01*
X408664D02*
X415014D01*
X437874Y1324168D02*
X444478D01*
X408664D02*
X415014D01*
X437620Y1323914D02*
X444478D01*
X408664D02*
X415014D01*
X437366Y1323660D02*
X444478D01*
X408664D02*
X415268D01*
X437112Y1323406D02*
X444224D01*
X408918D02*
X415268D01*
X437112Y1323152D02*
X444224D01*
X408918D02*
X415268D01*
X436858Y1322898D02*
X444224D01*
X408918D02*
X415522D01*
X436604Y1322644D02*
X443970D01*
X422634D02*
X424666D01*
X408918D02*
X415522D01*
X436350Y1322390D02*
X443970D01*
X422126D02*
X425428D01*
X409172D02*
X415776D01*
X435842Y1322136D02*
X443716D01*
X421618D02*
X425682D01*
X409172D02*
X415776D01*
X435588Y1321882D02*
X443716D01*
X421364D02*
X425936D01*
X409172D02*
X415776D01*
X435334Y1321628D02*
X443462D01*
X421364D02*
X426444D01*
X409426D02*
X416030D01*
X434826Y1321374D02*
X443462D01*
X421110D02*
X426698D01*
X409426D02*
X416030D01*
X434318Y1321120D02*
X443208D01*
X420856D02*
X427206D01*
X409426D02*
X416284D01*
X433810Y1320866D02*
X442954D01*
X420856D02*
X427968D01*
X409680D02*
X416284D01*
X433048Y1320612D02*
X442954D01*
X420856D02*
X428730D01*
X409680D02*
X416538D01*
X431778Y1320358D02*
X442700D01*
X420602D02*
X430000D01*
X409680D02*
X416538D01*
X420602Y1320104D02*
X442446D01*
X409934D02*
X416792D01*
X420602Y1319850D02*
X442446D01*
X409934D02*
X417046D01*
X420602Y1319596D02*
X442192D01*
X410188D02*
X417046D01*
X420602Y1319342D02*
X441938D01*
X410188D02*
X417300D01*
X420602Y1319088D02*
X441684D01*
X410188D02*
X417554D01*
X420856Y1318834D02*
X441430D01*
X410442D02*
X417554D01*
X420856Y1318580D02*
X441176D01*
X410442D02*
X417808D01*
X420856Y1318326D02*
X440922D01*
X410696D02*
X418062D01*
X421110Y1318072D02*
X440668D01*
X410696D02*
X418316D01*
X421364Y1317818D02*
X440414D01*
X410950D02*
X418570D01*
X421364Y1317564D02*
X440160D01*
X411204D02*
X418570D01*
X421872Y1317310D02*
X439906D01*
X411204D02*
X418824D01*
X422126Y1317056D02*
X439652D01*
X411458D02*
X419078D01*
X422380Y1316802D02*
X439144D01*
X411458D02*
X419332D01*
X422888Y1316548D02*
X438890D01*
X411712D02*
X419586D01*
X442192Y1316294D02*
X444224D01*
X423142D02*
X438382D01*
X411966D02*
X419840D01*
X441430Y1316040D02*
X444732D01*
X423650D02*
X438128D01*
X411966D02*
X420348D01*
X441176Y1315786D02*
X444986D01*
X424158D02*
X437620D01*
X412220D02*
X420602D01*
X440922Y1315532D02*
X445494D01*
X424666D02*
X437112D01*
X412474D02*
X420856D01*
X440414Y1315278D02*
X445494D01*
X425174D02*
X436604D01*
X412474D02*
X421110D01*
X440160Y1315024D02*
X445748D01*
X425682D02*
X435842D01*
X412728D02*
X421618D01*
X439652Y1314770D02*
X446002D01*
X426444D02*
X435080D01*
X412982D02*
X421872D01*
X443716Y1314516D02*
X446002D01*
X439398D02*
X442700D01*
X427460D02*
X434318D01*
X413236D02*
X422380D01*
X443970Y1314262D02*
X446002D01*
X438890D02*
X442192D01*
X428730D02*
X432794D01*
X413236D02*
X422888D01*
X444224Y1314008D02*
X446256D01*
X438382D02*
X442192D01*
X413490D02*
X423142D01*
X444224Y1313754D02*
X446256D01*
X437874D02*
X441938D01*
X413744D02*
X423650D01*
X444224Y1313500D02*
X446256D01*
X437366D02*
X441938D01*
X413998D02*
X424412D01*
X444224Y1313246D02*
X446256D01*
X436858D02*
X441938D01*
X414252D02*
X424920D01*
X444224Y1312992D02*
X446256D01*
X436096D02*
X441938D01*
X414506D02*
X425682D01*
X443970Y1312738D02*
X446256D01*
X435334D02*
X442192D01*
X414760D02*
X426444D01*
X443716Y1312484D02*
X446002D01*
X434318D02*
X442446D01*
X415014D02*
X427460D01*
X432794Y1312230D02*
X446002D01*
X415268D02*
X428984D01*
X415522Y1311976D02*
X446002D01*
X415776Y1311722D02*
X445748D01*
X416030Y1311468D02*
X445494D01*
X416284Y1311214D02*
X445494D01*
X416538Y1310960D02*
X445240D01*
X417046Y1310706D02*
X444732D01*
X417300Y1310452D02*
X444478D01*
X417554Y1310198D02*
X444224D01*
X418062Y1309944D02*
X443716D01*
X418316Y1309690D02*
X443462D01*
X418824Y1309436D02*
X442954D01*
X419078Y1309182D02*
X442700D01*
X419586Y1308928D02*
X442192D01*
X420094Y1308674D02*
X441684D01*
X420602Y1308420D02*
X441176D01*
X421110Y1308166D02*
X440668D01*
X421618Y1307912D02*
X440160D01*
X422126Y1307658D02*
X439652D01*
X422888Y1307404D02*
X438890D01*
X423396Y1307150D02*
X438128D01*
X424158Y1306896D02*
X437366D01*
X425174Y1306642D02*
X436604D01*
X426190Y1306388D02*
X435334D01*
X427714Y1306134D02*
X433810D01*
X889238Y1351092D02*
X892540D01*
X887206Y1350838D02*
X894572D01*
X885682Y1350584D02*
X895842D01*
X884666Y1350330D02*
X896858D01*
X883904Y1350076D02*
X897874D01*
X883142Y1349822D02*
X898636D01*
X882634Y1349568D02*
X899144D01*
X881872Y1349314D02*
X899906D01*
X881364Y1349060D02*
X900414D01*
X880856Y1348806D02*
X900922D01*
X880348Y1348552D02*
X901430D01*
X879840Y1348298D02*
X901938D01*
X879332Y1348044D02*
X902446D01*
X879078Y1347790D02*
X902700D01*
X878570Y1347536D02*
X903208D01*
X878062Y1347282D02*
X903462D01*
X877808Y1347028D02*
X903970D01*
X877554Y1346774D02*
X904224D01*
X877046Y1346520D02*
X904478D01*
X876792Y1346266D02*
X904986D01*
X876538Y1346012D02*
X905240D01*
X876284Y1345758D02*
X905494D01*
X875776Y1345504D02*
X905748D01*
X875522Y1345250D02*
X905748D01*
X875268Y1344996D02*
X906002D01*
X903716Y1344742D02*
X906002D01*
X893556D02*
X902700D01*
X875014D02*
X888222D01*
X903970Y1344488D02*
X906256D01*
X894826D02*
X902192D01*
X874760D02*
X886952D01*
X904224Y1344234D02*
X906256D01*
X895588D02*
X902192D01*
X874506D02*
X885936D01*
X904224Y1343980D02*
X906256D01*
X896350D02*
X901938D01*
X874252D02*
X885174D01*
X904224Y1343726D02*
X906256D01*
X897112D02*
X901938D01*
X873998D02*
X884666D01*
X904224Y1343472D02*
X906256D01*
X897620D02*
X901938D01*
X873998D02*
X884158D01*
X904224Y1343218D02*
X906256D01*
X898128D02*
X901938D01*
X873744D02*
X883650D01*
X903970Y1342964D02*
X906256D01*
X898636D02*
X902192D01*
X873490D02*
X883142D01*
X903716Y1342710D02*
X906002D01*
X899144D02*
X902446D01*
X888222D02*
X893556D01*
X873236D02*
X882634D01*
X899652Y1342456D02*
X906002D01*
X886952D02*
X894572D01*
X872982D02*
X882126D01*
X899906Y1342202D02*
X905748D01*
X886190D02*
X895588D01*
X872728D02*
X881872D01*
X900414Y1341948D02*
X905748D01*
X885428D02*
X896096D01*
X872728D02*
X881364D01*
X900668Y1341694D02*
X905494D01*
X884920D02*
X896858D01*
X872474D02*
X881110D01*
X900922Y1341440D02*
X905240D01*
X884412D02*
X897366D01*
X872220D02*
X880856D01*
X901430Y1341186D02*
X904986D01*
X883904D02*
X897874D01*
X872220D02*
X880348D01*
X901684Y1340932D02*
X904478D01*
X883396D02*
X898128D01*
X871966D02*
X880094D01*
X902446Y1340678D02*
X903716D01*
X882888D02*
X898636D01*
X871712D02*
X879840D01*
X882634Y1340424D02*
X899144D01*
X871712D02*
X879586D01*
X882380Y1340170D02*
X899398D01*
X871458D02*
X879332D01*
X881872Y1339916D02*
X899652D01*
X871204D02*
X879078D01*
X881618Y1339662D02*
X899906D01*
X871204D02*
X878824D01*
X881364Y1339408D02*
X900414D01*
X870950D02*
X878570D01*
X881110Y1339154D02*
X900668D01*
X870950D02*
X878316D01*
X881110Y1338900D02*
X900922D01*
X870696D02*
X878062D01*
X880856Y1338646D02*
X901176D01*
X870696D02*
X878062D01*
X880856Y1338392D02*
X901430D01*
X870442D02*
X877808D01*
X880602Y1338138D02*
X901684D01*
X870442D02*
X877554D01*
X880602Y1337884D02*
X901938D01*
X870188D02*
X877300D01*
X880602Y1337630D02*
X901938D01*
X870188D02*
X877300D01*
X880602Y1337376D02*
X902192D01*
X869934D02*
X877046D01*
X880602Y1337122D02*
X902446D01*
X869934D02*
X876792D01*
X880602Y1336868D02*
X902700D01*
X869934D02*
X876792D01*
X892286Y1336614D02*
X902700D01*
X880602D02*
X889238D01*
X869680D02*
X876538D01*
X893302Y1336360D02*
X902954D01*
X880856D02*
X888222D01*
X869680D02*
X876538D01*
X894064Y1336106D02*
X903208D01*
X880856D02*
X887714D01*
X869426D02*
X876284D01*
X894572Y1335852D02*
X903208D01*
X880856D02*
X887206D01*
X869426D02*
X876284D01*
X895080Y1335598D02*
X903462D01*
X881110D02*
X886698D01*
X869426D02*
X876030D01*
X895334Y1335344D02*
X903462D01*
X881364D02*
X886190D01*
X869172D02*
X876030D01*
X895842Y1335090D02*
X903716D01*
X881618D02*
X885936D01*
X869172D02*
X875776D01*
X896096Y1334836D02*
X903716D01*
X881872D02*
X885428D01*
X869172D02*
X875776D01*
X896350Y1334582D02*
X903970D01*
X882380D02*
X885174D01*
X869172D02*
X875522D01*
X896604Y1334328D02*
X903970D01*
X882888D02*
X884412D01*
X868918D02*
X875522D01*
X896858Y1334074D02*
X904224D01*
X868918D02*
X875522D01*
X897112Y1333820D02*
X904224D01*
X868918D02*
X875268D01*
X897366Y1333566D02*
X904478D01*
X868918D02*
X875268D01*
X897620Y1333312D02*
X904478D01*
X868664D02*
X875268D01*
X897620Y1333058D02*
X904478D01*
X868664D02*
X875014D01*
X897874Y1332804D02*
X904732D01*
X868664D02*
X875014D01*
X897874Y1332550D02*
X904732D01*
X868664D02*
X875014D01*
X898128Y1332296D02*
X904732D01*
X868664D02*
X874760D01*
X898382Y1332042D02*
X904732D01*
X868410D02*
X874760D01*
X898382Y1331788D02*
X904986D01*
X868410D02*
X874760D01*
X898382Y1331534D02*
X904986D01*
X868410D02*
X891524D01*
X898636Y1331280D02*
X904986D01*
X868410D02*
X892286D01*
X898636Y1331026D02*
X904986D01*
X868410D02*
X892794D01*
X898636Y1330772D02*
X904986D01*
X868410D02*
X893048D01*
X898890Y1330518D02*
X905240D01*
X868410D02*
X893302D01*
X898890Y1330264D02*
X905240D01*
X868410D02*
X893556D01*
X898890Y1330010D02*
X905240D01*
X891524D02*
X893556D01*
X868410D02*
X890000D01*
X898890Y1329756D02*
X905240D01*
X892032D02*
X893810D01*
X868156D02*
X889746D01*
X898890Y1329502D02*
X905240D01*
X892286D02*
X893810D01*
X868156D02*
X889492D01*
X899144Y1329248D02*
X905240D01*
X892286D02*
X894064D01*
X868156D02*
X889492D01*
X899144Y1328994D02*
X905240D01*
X892540D02*
X894064D01*
X868156D02*
X889238D01*
X899144Y1328740D02*
X905240D01*
X892540D02*
X894064D01*
X868156D02*
X889238D01*
X899144Y1328486D02*
X905240D01*
X892540D02*
X894064D01*
X868156D02*
X889238D01*
X899144Y1328232D02*
X905240D01*
X892540D02*
X894064D01*
X868156D02*
X889238D01*
X899144Y1327978D02*
X905240D01*
X892540D02*
X894064D01*
X868156D02*
X889238D01*
X898890Y1327724D02*
X905240D01*
X892286D02*
X893810D01*
X868156D02*
X889492D01*
X898890Y1327470D02*
X905240D01*
X892032D02*
X893810D01*
X868156D02*
X889492D01*
X898890Y1327216D02*
X905240D01*
X891778D02*
X893810D01*
X868410D02*
X890000D01*
X898890Y1326962D02*
X905240D01*
X891270D02*
X893556D01*
X868410D02*
X890254D01*
X898890Y1326708D02*
X905240D01*
X868410D02*
X893556D01*
X898890Y1326454D02*
X904986D01*
X868410D02*
X893302D01*
X898636Y1326200D02*
X904986D01*
X868410D02*
X893048D01*
X898636Y1325946D02*
X904986D01*
X868410D02*
X892794D01*
X898636Y1325692D02*
X904986D01*
X868410D02*
X892286D01*
X898382Y1325438D02*
X904986D01*
X868410D02*
X891270D01*
X898382Y1325184D02*
X904986D01*
X868410D02*
X874760D01*
X898128Y1324930D02*
X904732D01*
X868410D02*
X874760D01*
X898128Y1324676D02*
X904732D01*
X868664D02*
X875014D01*
X897874Y1324422D02*
X904732D01*
X868664D02*
X875014D01*
X897874Y1324168D02*
X904478D01*
X868664D02*
X875014D01*
X897620Y1323914D02*
X904478D01*
X868664D02*
X875014D01*
X897366Y1323660D02*
X904478D01*
X868664D02*
X875268D01*
X897112Y1323406D02*
X904224D01*
X868918D02*
X875268D01*
X897112Y1323152D02*
X904224D01*
X868918D02*
X875268D01*
X896858Y1322898D02*
X904224D01*
X868918D02*
X875522D01*
X896604Y1322644D02*
X903970D01*
X882634D02*
X884666D01*
X868918D02*
X875522D01*
X896350Y1322390D02*
X903970D01*
X882126D02*
X885428D01*
X869172D02*
X875776D01*
X895842Y1322136D02*
X903716D01*
X881618D02*
X885682D01*
X869172D02*
X875776D01*
X895588Y1321882D02*
X903716D01*
X881364D02*
X885936D01*
X869172D02*
X875776D01*
X895334Y1321628D02*
X903462D01*
X881364D02*
X886444D01*
X869426D02*
X876030D01*
X894826Y1321374D02*
X903462D01*
X881110D02*
X886698D01*
X869426D02*
X876030D01*
X894318Y1321120D02*
X903208D01*
X880856D02*
X887206D01*
X869426D02*
X876284D01*
X893810Y1320866D02*
X902954D01*
X880856D02*
X887968D01*
X869680D02*
X876284D01*
X893048Y1320612D02*
X902954D01*
X880856D02*
X888730D01*
X869680D02*
X876538D01*
X891778Y1320358D02*
X902700D01*
X880602D02*
X890000D01*
X869680D02*
X876538D01*
X880602Y1320104D02*
X902446D01*
X869934D02*
X876792D01*
X880602Y1319850D02*
X902446D01*
X869934D02*
X877046D01*
X880602Y1319596D02*
X902192D01*
X870188D02*
X877046D01*
X880602Y1319342D02*
X901938D01*
X870188D02*
X877300D01*
X880602Y1319088D02*
X901684D01*
X870188D02*
X877554D01*
X880856Y1318834D02*
X901430D01*
X870442D02*
X877554D01*
X880856Y1318580D02*
X901176D01*
X870442D02*
X877808D01*
X880856Y1318326D02*
X900922D01*
X870696D02*
X878062D01*
X881110Y1318072D02*
X900668D01*
X870696D02*
X878316D01*
X881364Y1317818D02*
X900414D01*
X870950D02*
X878570D01*
X881364Y1317564D02*
X900160D01*
X871204D02*
X878570D01*
X881872Y1317310D02*
X899906D01*
X871204D02*
X878824D01*
X882126Y1317056D02*
X899652D01*
X871458D02*
X879078D01*
X882380Y1316802D02*
X899144D01*
X871458D02*
X879332D01*
X882888Y1316548D02*
X898890D01*
X871712D02*
X879586D01*
X902192Y1316294D02*
X904224D01*
X883142D02*
X898382D01*
X871966D02*
X879840D01*
X901430Y1316040D02*
X904732D01*
X883650D02*
X898128D01*
X871966D02*
X880348D01*
X901176Y1315786D02*
X904986D01*
X884158D02*
X897620D01*
X872220D02*
X880602D01*
X900922Y1315532D02*
X905494D01*
X884666D02*
X897112D01*
X872474D02*
X880856D01*
X900414Y1315278D02*
X905494D01*
X885174D02*
X896604D01*
X872474D02*
X881110D01*
X900160Y1315024D02*
X905748D01*
X885682D02*
X895842D01*
X872728D02*
X881618D01*
X899652Y1314770D02*
X906002D01*
X886444D02*
X895080D01*
X872982D02*
X881872D01*
X903716Y1314516D02*
X906002D01*
X899398D02*
X902700D01*
X887460D02*
X894318D01*
X873236D02*
X882380D01*
X903970Y1314262D02*
X906002D01*
X898890D02*
X902192D01*
X888730D02*
X892794D01*
X873236D02*
X882888D01*
X904224Y1314008D02*
X906256D01*
X898382D02*
X902192D01*
X873490D02*
X883142D01*
X904224Y1313754D02*
X906256D01*
X897874D02*
X901938D01*
X873744D02*
X883650D01*
X904224Y1313500D02*
X906256D01*
X897366D02*
X901938D01*
X873998D02*
X884412D01*
X904224Y1313246D02*
X906256D01*
X896858D02*
X901938D01*
X874252D02*
X884920D01*
X904224Y1312992D02*
X906256D01*
X896096D02*
X901938D01*
X874506D02*
X885682D01*
X903970Y1312738D02*
X906256D01*
X895334D02*
X902192D01*
X874760D02*
X886444D01*
X903716Y1312484D02*
X906002D01*
X894318D02*
X902446D01*
X875014D02*
X887460D01*
X892794Y1312230D02*
X906002D01*
X875268D02*
X888984D01*
X875522Y1311976D02*
X906002D01*
X875776Y1311722D02*
X905748D01*
X876030Y1311468D02*
X905494D01*
X876284Y1311214D02*
X905494D01*
X876538Y1310960D02*
X905240D01*
X877046Y1310706D02*
X904732D01*
X877300Y1310452D02*
X904478D01*
X877554Y1310198D02*
X904224D01*
X878062Y1309944D02*
X903716D01*
X878316Y1309690D02*
X903462D01*
X878824Y1309436D02*
X902954D01*
X879078Y1309182D02*
X902700D01*
X879586Y1308928D02*
X902192D01*
X880094Y1308674D02*
X901684D01*
X880602Y1308420D02*
X901176D01*
X881110Y1308166D02*
X900668D01*
X881618Y1307912D02*
X900160D01*
X882126Y1307658D02*
X899652D01*
X882888Y1307404D02*
X898890D01*
X883396Y1307150D02*
X898128D01*
X884158Y1306896D02*
X897366D01*
X885174Y1306642D02*
X896604D01*
X886190Y1306388D02*
X895334D01*
X887714Y1306134D02*
X893810D01*
X660762Y1648908D02*
X657460D01*
X662794Y1649162D02*
X655428D01*
X664318Y1649416D02*
X654158D01*
X665334Y1649670D02*
X653142D01*
X666096Y1649924D02*
X652126D01*
X666858Y1650178D02*
X651364D01*
X667366Y1650432D02*
X650856D01*
X668128Y1650686D02*
X650094D01*
X668636Y1650940D02*
X649586D01*
X669144Y1651194D02*
X649078D01*
X669652Y1651448D02*
X648570D01*
X670160Y1651702D02*
X648062D01*
X670668Y1651956D02*
X647554D01*
X670922Y1652210D02*
X647300D01*
X671430Y1652464D02*
X646792D01*
X671938Y1652718D02*
X646538D01*
X672192Y1652972D02*
X646030D01*
X672446Y1653226D02*
X645776D01*
X672954Y1653480D02*
X645522D01*
X673208Y1653734D02*
X645014D01*
X673462Y1653988D02*
X644760D01*
X673716Y1654242D02*
X644506D01*
X674224Y1654496D02*
X644252D01*
X674478Y1654750D02*
X644252D01*
X674732Y1655004D02*
X643998D01*
X646284Y1655258D02*
X643998D01*
X656444D02*
X647300D01*
X674986D02*
X661778D01*
X646030Y1655512D02*
X643744D01*
X655174D02*
X647808D01*
X675240D02*
X663048D01*
X645776Y1655766D02*
X643744D01*
X654412D02*
X647808D01*
X675494D02*
X664064D01*
X645776Y1656020D02*
X643744D01*
X653650D02*
X648062D01*
X675748D02*
X664826D01*
X645776Y1656274D02*
X643744D01*
X652888D02*
X648062D01*
X676002D02*
X665334D01*
X645776Y1656528D02*
X643744D01*
X652380D02*
X648062D01*
X676002D02*
X665842D01*
X645776Y1656782D02*
X643744D01*
X651872D02*
X648062D01*
X676256D02*
X666350D01*
X646030Y1657036D02*
X643744D01*
X651364D02*
X647808D01*
X676510D02*
X666858D01*
X646284Y1657290D02*
X643998D01*
X650856D02*
X647554D01*
X661778D02*
X656444D01*
X676764D02*
X667366D01*
X650348Y1657544D02*
X643998D01*
X663048D02*
X655428D01*
X677018D02*
X667874D01*
X650094Y1657798D02*
X644252D01*
X663810D02*
X654412D01*
X677272D02*
X668128D01*
X649586Y1658052D02*
X644252D01*
X664572D02*
X653904D01*
X677272D02*
X668636D01*
X649332Y1658306D02*
X644506D01*
X665080D02*
X653142D01*
X677526D02*
X668890D01*
X649078Y1658560D02*
X644760D01*
X665588D02*
X652634D01*
X677780D02*
X669144D01*
X648570Y1658814D02*
X645014D01*
X666096D02*
X652126D01*
X677780D02*
X669652D01*
X648316Y1659068D02*
X645522D01*
X666604D02*
X651872D01*
X678034D02*
X669906D01*
X647554Y1659322D02*
X646284D01*
X667112D02*
X651364D01*
X678288D02*
X670160D01*
X667366Y1659576D02*
X650856D01*
X678288D02*
X670414D01*
X667620Y1659830D02*
X650602D01*
X678542D02*
X670668D01*
X668128Y1660084D02*
X650348D01*
X678796D02*
X670922D01*
X668382Y1660338D02*
X650094D01*
X678796D02*
X671176D01*
X668636Y1660592D02*
X649586D01*
X679050D02*
X671430D01*
X668890Y1660846D02*
X649332D01*
X679050D02*
X671684D01*
X668890Y1661100D02*
X649078D01*
X679304D02*
X671938D01*
X669144Y1661354D02*
X648824D01*
X679304D02*
X671938D01*
X669144Y1661608D02*
X648570D01*
X679558D02*
X672192D01*
X669398Y1661862D02*
X648316D01*
X679558D02*
X672446D01*
X669398Y1662116D02*
X648062D01*
X679812D02*
X672700D01*
X669398Y1662370D02*
X648062D01*
X679812D02*
X672700D01*
X669398Y1662624D02*
X647808D01*
X680066D02*
X672954D01*
X669398Y1662878D02*
X647554D01*
X680066D02*
X673208D01*
X669398Y1663132D02*
X647300D01*
X680066D02*
X673208D01*
X657714Y1663386D02*
X647300D01*
X669398D02*
X660762D01*
X680320D02*
X673462D01*
X656698Y1663640D02*
X647046D01*
X669144D02*
X661778D01*
X680320D02*
X673462D01*
X655936Y1663894D02*
X646792D01*
X669144D02*
X662286D01*
X680574D02*
X673716D01*
X655428Y1664148D02*
X646792D01*
X669144D02*
X662794D01*
X680574D02*
X673716D01*
X654920Y1664402D02*
X646538D01*
X668890D02*
X663302D01*
X680574D02*
X673970D01*
X654666Y1664656D02*
X646538D01*
X668636D02*
X663810D01*
X680828D02*
X673970D01*
X654158Y1664910D02*
X646284D01*
X668382D02*
X664064D01*
X680828D02*
X674224D01*
X653904Y1665164D02*
X646284D01*
X668128D02*
X664572D01*
X680828D02*
X674224D01*
X653650Y1665418D02*
X646030D01*
X667620D02*
X664826D01*
X680828D02*
X674478D01*
X653396Y1665672D02*
X646030D01*
X667112D02*
X665588D01*
X681082D02*
X674478D01*
X653142Y1665926D02*
X645776D01*
X681082D02*
X674478D01*
X652888Y1666180D02*
X645776D01*
X681082D02*
X674732D01*
X652634Y1666434D02*
X645522D01*
X681082D02*
X674732D01*
X652380Y1666688D02*
X645522D01*
X681336D02*
X674732D01*
X652380Y1666942D02*
X645522D01*
X681336D02*
X674986D01*
X652126Y1667196D02*
X645268D01*
X681336D02*
X674986D01*
X652126Y1667450D02*
X645268D01*
X681336D02*
X674986D01*
X651872Y1667704D02*
X645268D01*
X681336D02*
X675240D01*
X651618Y1667958D02*
X645268D01*
X681590D02*
X675240D01*
X651618Y1668212D02*
X645014D01*
X681590D02*
X675240D01*
X651618Y1668466D02*
X645014D01*
X681590D02*
X658476D01*
X651364Y1668720D02*
X645014D01*
X681590D02*
X657714D01*
X651364Y1668974D02*
X645014D01*
X681590D02*
X657206D01*
X651364Y1669228D02*
X645014D01*
X681590D02*
X656952D01*
X651110Y1669482D02*
X644760D01*
X681590D02*
X656698D01*
X651110Y1669736D02*
X644760D01*
X681590D02*
X656444D01*
X651110Y1669990D02*
X644760D01*
X658476D02*
X656444D01*
X681590D02*
X660000D01*
X651110Y1670244D02*
X644760D01*
X657968D02*
X656190D01*
X681844D02*
X660254D01*
X651110Y1670498D02*
X644760D01*
X657714D02*
X656190D01*
X681844D02*
X660508D01*
X650856Y1670752D02*
X644760D01*
X657714D02*
X655936D01*
X681844D02*
X660508D01*
X650856Y1671006D02*
X644760D01*
X657460D02*
X655936D01*
X681844D02*
X660762D01*
X650856Y1671260D02*
X644760D01*
X657460D02*
X655936D01*
X681844D02*
X660762D01*
X650856Y1671514D02*
X644760D01*
X657460D02*
X655936D01*
X681844D02*
X660762D01*
X650856Y1671768D02*
X644760D01*
X657460D02*
X655936D01*
X681844D02*
X660762D01*
X650856Y1672022D02*
X644760D01*
X657460D02*
X655936D01*
X681844D02*
X660762D01*
X651110Y1672276D02*
X644760D01*
X657714D02*
X656190D01*
X681844D02*
X660508D01*
X651110Y1672530D02*
X644760D01*
X657968D02*
X656190D01*
X681844D02*
X660508D01*
X651110Y1672784D02*
X644760D01*
X658222D02*
X656190D01*
X681590D02*
X660000D01*
X651110Y1673038D02*
X644760D01*
X658730D02*
X656444D01*
X681590D02*
X659746D01*
X651110Y1673292D02*
X644760D01*
X681590D02*
X656444D01*
X651110Y1673546D02*
X645014D01*
X681590D02*
X656698D01*
X651364Y1673800D02*
X645014D01*
X681590D02*
X656952D01*
X651364Y1674054D02*
X645014D01*
X681590D02*
X657206D01*
X651364Y1674308D02*
X645014D01*
X681590D02*
X657714D01*
X651618Y1674562D02*
X645014D01*
X681590D02*
X658730D01*
X651618Y1674816D02*
X645014D01*
X681590D02*
X675240D01*
X651872Y1675070D02*
X645268D01*
X681590D02*
X675240D01*
X651872Y1675324D02*
X645268D01*
X681336D02*
X674986D01*
X652126Y1675578D02*
X645268D01*
X681336D02*
X674986D01*
X652126Y1675832D02*
X645522D01*
X681336D02*
X674986D01*
X652380Y1676086D02*
X645522D01*
X681336D02*
X674986D01*
X652634Y1676340D02*
X645522D01*
X681336D02*
X674732D01*
X652888Y1676594D02*
X645776D01*
X681082D02*
X674732D01*
X652888Y1676848D02*
X645776D01*
X681082D02*
X674732D01*
X653142Y1677102D02*
X645776D01*
X681082D02*
X674478D01*
X653396Y1677356D02*
X646030D01*
X667366D02*
X665334D01*
X681082D02*
X674478D01*
X653650Y1677610D02*
X646030D01*
X667874D02*
X664572D01*
X680828D02*
X674224D01*
X654158Y1677864D02*
X646284D01*
X668382D02*
X664318D01*
X680828D02*
X674224D01*
X654412Y1678118D02*
X646284D01*
X668636D02*
X664064D01*
X680828D02*
X674224D01*
X654666Y1678372D02*
X646538D01*
X668636D02*
X663556D01*
X680574D02*
X673970D01*
X655174Y1678626D02*
X646538D01*
X668890D02*
X663302D01*
X680574D02*
X673970D01*
X655682Y1678880D02*
X646792D01*
X669144D02*
X662794D01*
X680574D02*
X673716D01*
X656190Y1679134D02*
X647046D01*
X669144D02*
X662032D01*
X680320D02*
X673716D01*
X656952Y1679388D02*
X647046D01*
X669144D02*
X661270D01*
X680320D02*
X673462D01*
X658222Y1679642D02*
X647300D01*
X669398D02*
X660000D01*
X680320D02*
X673462D01*
X669398Y1679896D02*
X647554D01*
X680066D02*
X673208D01*
X669398Y1680150D02*
X647554D01*
X680066D02*
X672954D01*
X669398Y1680404D02*
X647808D01*
X679812D02*
X672954D01*
X669398Y1680658D02*
X648062D01*
X679812D02*
X672700D01*
X669398Y1680912D02*
X648316D01*
X679812D02*
X672446D01*
X669144Y1681166D02*
X648570D01*
X679558D02*
X672446D01*
X669144Y1681420D02*
X648824D01*
X679558D02*
X672192D01*
X669144Y1681674D02*
X649078D01*
X679304D02*
X671938D01*
X668890Y1681928D02*
X649332D01*
X679304D02*
X671684D01*
X668636Y1682182D02*
X649586D01*
X679050D02*
X671430D01*
X668636Y1682436D02*
X649840D01*
X678796D02*
X671430D01*
X668128Y1682690D02*
X650094D01*
X678796D02*
X671176D01*
X667874Y1682944D02*
X650348D01*
X678542D02*
X670922D01*
X667620Y1683198D02*
X650856D01*
X678542D02*
X670668D01*
X667112Y1683452D02*
X651110D01*
X678288D02*
X670414D01*
X647808Y1683706D02*
X645776D01*
X666858D02*
X651618D01*
X678034D02*
X670160D01*
X648570Y1683960D02*
X645268D01*
X666350D02*
X651872D01*
X678034D02*
X669652D01*
X648824Y1684214D02*
X645014D01*
X665842D02*
X652380D01*
X677780D02*
X669398D01*
X649078Y1684468D02*
X644506D01*
X665334D02*
X652888D01*
X677526D02*
X669144D01*
X649586Y1684722D02*
X644506D01*
X664826D02*
X653396D01*
X677526D02*
X668890D01*
X649840Y1684976D02*
X644252D01*
X664318D02*
X654158D01*
X677272D02*
X668382D01*
X650348Y1685230D02*
X643998D01*
X663556D02*
X654920D01*
X677018D02*
X668128D01*
X646284Y1685484D02*
X643998D01*
X650602D02*
X647300D01*
X662540D02*
X655682D01*
X676764D02*
X667620D01*
X646030Y1685738D02*
X643998D01*
X651110D02*
X647808D01*
X661270D02*
X657206D01*
X676764D02*
X667112D01*
X645776Y1685992D02*
X643744D01*
X651618D02*
X647808D01*
X676510D02*
X666858D01*
X645776Y1686246D02*
X643744D01*
X652126D02*
X648062D01*
X676256D02*
X666350D01*
X645776Y1686500D02*
X643744D01*
X652634D02*
X648062D01*
X676002D02*
X665588D01*
X645776Y1686754D02*
X643744D01*
X653142D02*
X648062D01*
X675748D02*
X665080D01*
X645776Y1687008D02*
X643744D01*
X653904D02*
X648062D01*
X675494D02*
X664318D01*
X646030Y1687262D02*
X643744D01*
X654666D02*
X647808D01*
X675240D02*
X663556D01*
X646284Y1687516D02*
X643998D01*
X655682D02*
X647554D01*
X674986D02*
X662540D01*
X657206Y1687770D02*
X643998D01*
X674732D02*
X661016D01*
X674478Y1688024D02*
X643998D01*
X674224Y1688278D02*
X644252D01*
X673970Y1688532D02*
X644506D01*
X673716Y1688786D02*
X644506D01*
X673462Y1689040D02*
X644760D01*
X672954Y1689294D02*
X645268D01*
X672700Y1689548D02*
X645522D01*
X672446Y1689802D02*
X645776D01*
X671938Y1690056D02*
X646284D01*
X671684Y1690310D02*
X646538D01*
X671176Y1690564D02*
X647046D01*
X670922Y1690818D02*
X647300D01*
X670414Y1691072D02*
X647808D01*
X669906Y1691326D02*
X648316D01*
X669398Y1691580D02*
X648824D01*
X668890Y1691834D02*
X649332D01*
X668382Y1692088D02*
X649840D01*
X667874Y1692342D02*
X650348D01*
X667112Y1692596D02*
X651110D01*
X666604Y1692850D02*
X651872D01*
X665842Y1693104D02*
X652634D01*
X664826Y1693358D02*
X653396D01*
X663810Y1693612D02*
X654666D01*
X662286Y1693866D02*
X656190D01*
X1349238Y1351092D02*
X1352540D01*
X1347206Y1350838D02*
X1354572D01*
X1345682Y1350584D02*
X1355842D01*
X1344666Y1350330D02*
X1356858D01*
X1343904Y1350076D02*
X1357874D01*
X1343142Y1349822D02*
X1358636D01*
X1342634Y1349568D02*
X1359144D01*
X1341872Y1349314D02*
X1359906D01*
X1341364Y1349060D02*
X1360414D01*
X1340856Y1348806D02*
X1360922D01*
X1340348Y1348552D02*
X1361430D01*
X1339840Y1348298D02*
X1361938D01*
X1339332Y1348044D02*
X1362446D01*
X1339078Y1347790D02*
X1362700D01*
X1338570Y1347536D02*
X1363208D01*
X1338062Y1347282D02*
X1363462D01*
X1337808Y1347028D02*
X1363970D01*
X1337554Y1346774D02*
X1364224D01*
X1337046Y1346520D02*
X1364478D01*
X1336792Y1346266D02*
X1364986D01*
X1336538Y1346012D02*
X1365240D01*
X1336284Y1345758D02*
X1365494D01*
X1335776Y1345504D02*
X1365748D01*
X1335522Y1345250D02*
X1365748D01*
X1335268Y1344996D02*
X1366002D01*
X1363716Y1344742D02*
X1366002D01*
X1353556D02*
X1362700D01*
X1335014D02*
X1348222D01*
X1363970Y1344488D02*
X1366256D01*
X1354826D02*
X1362192D01*
X1334760D02*
X1346952D01*
X1364224Y1344234D02*
X1366256D01*
X1355588D02*
X1362192D01*
X1334506D02*
X1345936D01*
X1364224Y1343980D02*
X1366256D01*
X1356350D02*
X1361938D01*
X1334252D02*
X1345174D01*
X1364224Y1343726D02*
X1366256D01*
X1357112D02*
X1361938D01*
X1333998D02*
X1344666D01*
X1364224Y1343472D02*
X1366256D01*
X1357620D02*
X1361938D01*
X1333998D02*
X1344158D01*
X1364224Y1343218D02*
X1366256D01*
X1358128D02*
X1361938D01*
X1333744D02*
X1343650D01*
X1363970Y1342964D02*
X1366256D01*
X1358636D02*
X1362192D01*
X1333490D02*
X1343142D01*
X1363716Y1342710D02*
X1366002D01*
X1359144D02*
X1362446D01*
X1348222D02*
X1353556D01*
X1333236D02*
X1342634D01*
X1359652Y1342456D02*
X1366002D01*
X1346952D02*
X1354572D01*
X1332982D02*
X1342126D01*
X1359906Y1342202D02*
X1365748D01*
X1346190D02*
X1355588D01*
X1332728D02*
X1341872D01*
X1360414Y1341948D02*
X1365748D01*
X1345428D02*
X1356096D01*
X1332728D02*
X1341364D01*
X1360668Y1341694D02*
X1365494D01*
X1344920D02*
X1356858D01*
X1332474D02*
X1341110D01*
X1360922Y1341440D02*
X1365240D01*
X1344412D02*
X1357366D01*
X1332220D02*
X1340856D01*
X1361430Y1341186D02*
X1364986D01*
X1343904D02*
X1357874D01*
X1332220D02*
X1340348D01*
X1361684Y1340932D02*
X1364478D01*
X1343396D02*
X1358128D01*
X1331966D02*
X1340094D01*
X1362446Y1340678D02*
X1363716D01*
X1342888D02*
X1358636D01*
X1331712D02*
X1339840D01*
X1342634Y1340424D02*
X1359144D01*
X1331712D02*
X1339586D01*
X1342380Y1340170D02*
X1359398D01*
X1331458D02*
X1339332D01*
X1341872Y1339916D02*
X1359652D01*
X1331204D02*
X1339078D01*
X1341618Y1339662D02*
X1359906D01*
X1331204D02*
X1338824D01*
X1341364Y1339408D02*
X1360414D01*
X1330950D02*
X1338570D01*
X1341110Y1339154D02*
X1360668D01*
X1330950D02*
X1338316D01*
X1341110Y1338900D02*
X1360922D01*
X1330696D02*
X1338062D01*
X1340856Y1338646D02*
X1361176D01*
X1330696D02*
X1338062D01*
X1340856Y1338392D02*
X1361430D01*
X1330442D02*
X1337808D01*
X1340602Y1338138D02*
X1361684D01*
X1330442D02*
X1337554D01*
X1340602Y1337884D02*
X1361938D01*
X1330188D02*
X1337300D01*
X1340602Y1337630D02*
X1361938D01*
X1330188D02*
X1337300D01*
X1340602Y1337376D02*
X1362192D01*
X1329934D02*
X1337046D01*
X1340602Y1337122D02*
X1362446D01*
X1329934D02*
X1336792D01*
X1340602Y1336868D02*
X1362700D01*
X1329934D02*
X1336792D01*
X1352286Y1336614D02*
X1362700D01*
X1340602D02*
X1349238D01*
X1329680D02*
X1336538D01*
X1353302Y1336360D02*
X1362954D01*
X1340856D02*
X1348222D01*
X1329680D02*
X1336538D01*
X1354064Y1336106D02*
X1363208D01*
X1340856D02*
X1347714D01*
X1329426D02*
X1336284D01*
X1354572Y1335852D02*
X1363208D01*
X1340856D02*
X1347206D01*
X1329426D02*
X1336284D01*
X1355080Y1335598D02*
X1363462D01*
X1341110D02*
X1346698D01*
X1329426D02*
X1336030D01*
X1355334Y1335344D02*
X1363462D01*
X1341364D02*
X1346190D01*
X1329172D02*
X1336030D01*
X1355842Y1335090D02*
X1363716D01*
X1341618D02*
X1345936D01*
X1329172D02*
X1335776D01*
X1356096Y1334836D02*
X1363716D01*
X1341872D02*
X1345428D01*
X1329172D02*
X1335776D01*
X1356350Y1334582D02*
X1363970D01*
X1342380D02*
X1345174D01*
X1329172D02*
X1335522D01*
X1356604Y1334328D02*
X1363970D01*
X1342888D02*
X1344412D01*
X1328918D02*
X1335522D01*
X1356858Y1334074D02*
X1364224D01*
X1328918D02*
X1335522D01*
X1357112Y1333820D02*
X1364224D01*
X1328918D02*
X1335268D01*
X1357366Y1333566D02*
X1364478D01*
X1328918D02*
X1335268D01*
X1357620Y1333312D02*
X1364478D01*
X1328664D02*
X1335268D01*
X1357620Y1333058D02*
X1364478D01*
X1328664D02*
X1335014D01*
X1357874Y1332804D02*
X1364732D01*
X1328664D02*
X1335014D01*
X1357874Y1332550D02*
X1364732D01*
X1328664D02*
X1335014D01*
X1358128Y1332296D02*
X1364732D01*
X1328664D02*
X1334760D01*
X1358382Y1332042D02*
X1364732D01*
X1328410D02*
X1334760D01*
X1358382Y1331788D02*
X1364986D01*
X1328410D02*
X1334760D01*
X1358382Y1331534D02*
X1364986D01*
X1328410D02*
X1351524D01*
X1358636Y1331280D02*
X1364986D01*
X1328410D02*
X1352286D01*
X1358636Y1331026D02*
X1364986D01*
X1328410D02*
X1352794D01*
X1358636Y1330772D02*
X1364986D01*
X1328410D02*
X1353048D01*
X1358890Y1330518D02*
X1365240D01*
X1328410D02*
X1353302D01*
X1358890Y1330264D02*
X1365240D01*
X1328410D02*
X1353556D01*
X1358890Y1330010D02*
X1365240D01*
X1351524D02*
X1353556D01*
X1328410D02*
X1350000D01*
X1358890Y1329756D02*
X1365240D01*
X1352032D02*
X1353810D01*
X1328156D02*
X1349746D01*
X1358890Y1329502D02*
X1365240D01*
X1352286D02*
X1353810D01*
X1328156D02*
X1349492D01*
X1359144Y1329248D02*
X1365240D01*
X1352286D02*
X1354064D01*
X1328156D02*
X1349492D01*
X1359144Y1328994D02*
X1365240D01*
X1352540D02*
X1354064D01*
X1328156D02*
X1349238D01*
X1359144Y1328740D02*
X1365240D01*
X1352540D02*
X1354064D01*
X1328156D02*
X1349238D01*
X1359144Y1328486D02*
X1365240D01*
X1352540D02*
X1354064D01*
X1328156D02*
X1349238D01*
X1359144Y1328232D02*
X1365240D01*
X1352540D02*
X1354064D01*
X1328156D02*
X1349238D01*
X1359144Y1327978D02*
X1365240D01*
X1352540D02*
X1354064D01*
X1328156D02*
X1349238D01*
X1358890Y1327724D02*
X1365240D01*
X1352286D02*
X1353810D01*
X1328156D02*
X1349492D01*
X1358890Y1327470D02*
X1365240D01*
X1352032D02*
X1353810D01*
X1328156D02*
X1349492D01*
X1358890Y1327216D02*
X1365240D01*
X1351778D02*
X1353810D01*
X1328410D02*
X1350000D01*
X1358890Y1326962D02*
X1365240D01*
X1351270D02*
X1353556D01*
X1328410D02*
X1350254D01*
X1358890Y1326708D02*
X1365240D01*
X1328410D02*
X1353556D01*
X1358890Y1326454D02*
X1364986D01*
X1328410D02*
X1353302D01*
X1358636Y1326200D02*
X1364986D01*
X1328410D02*
X1353048D01*
X1358636Y1325946D02*
X1364986D01*
X1328410D02*
X1352794D01*
X1358636Y1325692D02*
X1364986D01*
X1328410D02*
X1352286D01*
X1358382Y1325438D02*
X1364986D01*
X1328410D02*
X1351270D01*
X1358382Y1325184D02*
X1364986D01*
X1328410D02*
X1334760D01*
X1358128Y1324930D02*
X1364732D01*
X1328410D02*
X1334760D01*
X1358128Y1324676D02*
X1364732D01*
X1328664D02*
X1335014D01*
X1357874Y1324422D02*
X1364732D01*
X1328664D02*
X1335014D01*
X1357874Y1324168D02*
X1364478D01*
X1328664D02*
X1335014D01*
X1357620Y1323914D02*
X1364478D01*
X1328664D02*
X1335014D01*
X1357366Y1323660D02*
X1364478D01*
X1328664D02*
X1335268D01*
X1357112Y1323406D02*
X1364224D01*
X1328918D02*
X1335268D01*
X1357112Y1323152D02*
X1364224D01*
X1328918D02*
X1335268D01*
X1356858Y1322898D02*
X1364224D01*
X1328918D02*
X1335522D01*
X1356604Y1322644D02*
X1363970D01*
X1342634D02*
X1344666D01*
X1328918D02*
X1335522D01*
X1356350Y1322390D02*
X1363970D01*
X1342126D02*
X1345428D01*
X1329172D02*
X1335776D01*
X1355842Y1322136D02*
X1363716D01*
X1341618D02*
X1345682D01*
X1329172D02*
X1335776D01*
X1355588Y1321882D02*
X1363716D01*
X1341364D02*
X1345936D01*
X1329172D02*
X1335776D01*
X1355334Y1321628D02*
X1363462D01*
X1341364D02*
X1346444D01*
X1329426D02*
X1336030D01*
X1354826Y1321374D02*
X1363462D01*
X1341110D02*
X1346698D01*
X1329426D02*
X1336030D01*
X1354318Y1321120D02*
X1363208D01*
X1340856D02*
X1347206D01*
X1329426D02*
X1336284D01*
X1353810Y1320866D02*
X1362954D01*
X1340856D02*
X1347968D01*
X1329680D02*
X1336284D01*
X1353048Y1320612D02*
X1362954D01*
X1340856D02*
X1348730D01*
X1329680D02*
X1336538D01*
X1351778Y1320358D02*
X1362700D01*
X1340602D02*
X1350000D01*
X1329680D02*
X1336538D01*
X1340602Y1320104D02*
X1362446D01*
X1329934D02*
X1336792D01*
X1340602Y1319850D02*
X1362446D01*
X1329934D02*
X1337046D01*
X1340602Y1319596D02*
X1362192D01*
X1330188D02*
X1337046D01*
X1340602Y1319342D02*
X1361938D01*
X1330188D02*
X1337300D01*
X1340602Y1319088D02*
X1361684D01*
X1330188D02*
X1337554D01*
X1340856Y1318834D02*
X1361430D01*
X1330442D02*
X1337554D01*
X1340856Y1318580D02*
X1361176D01*
X1330442D02*
X1337808D01*
X1340856Y1318326D02*
X1360922D01*
X1330696D02*
X1338062D01*
X1341110Y1318072D02*
X1360668D01*
X1330696D02*
X1338316D01*
X1341364Y1317818D02*
X1360414D01*
X1330950D02*
X1338570D01*
X1341364Y1317564D02*
X1360160D01*
X1331204D02*
X1338570D01*
X1341872Y1317310D02*
X1359906D01*
X1331204D02*
X1338824D01*
X1342126Y1317056D02*
X1359652D01*
X1331458D02*
X1339078D01*
X1342380Y1316802D02*
X1359144D01*
X1331458D02*
X1339332D01*
X1342888Y1316548D02*
X1358890D01*
X1331712D02*
X1339586D01*
X1362192Y1316294D02*
X1364224D01*
X1343142D02*
X1358382D01*
X1331966D02*
X1339840D01*
X1361430Y1316040D02*
X1364732D01*
X1343650D02*
X1358128D01*
X1331966D02*
X1340348D01*
X1361176Y1315786D02*
X1364986D01*
X1344158D02*
X1357620D01*
X1332220D02*
X1340602D01*
X1360922Y1315532D02*
X1365494D01*
X1344666D02*
X1357112D01*
X1332474D02*
X1340856D01*
X1360414Y1315278D02*
X1365494D01*
X1345174D02*
X1356604D01*
X1332474D02*
X1341110D01*
X1360160Y1315024D02*
X1365748D01*
X1345682D02*
X1355842D01*
X1332728D02*
X1341618D01*
X1359652Y1314770D02*
X1366002D01*
X1346444D02*
X1355080D01*
X1332982D02*
X1341872D01*
X1363716Y1314516D02*
X1366002D01*
X1359398D02*
X1362700D01*
X1347460D02*
X1354318D01*
X1333236D02*
X1342380D01*
X1363970Y1314262D02*
X1366002D01*
X1358890D02*
X1362192D01*
X1348730D02*
X1352794D01*
X1333236D02*
X1342888D01*
X1364224Y1314008D02*
X1366256D01*
X1358382D02*
X1362192D01*
X1333490D02*
X1343142D01*
X1364224Y1313754D02*
X1366256D01*
X1357874D02*
X1361938D01*
X1333744D02*
X1343650D01*
X1364224Y1313500D02*
X1366256D01*
X1357366D02*
X1361938D01*
X1333998D02*
X1344412D01*
X1364224Y1313246D02*
X1366256D01*
X1356858D02*
X1361938D01*
X1334252D02*
X1344920D01*
X1364224Y1312992D02*
X1366256D01*
X1356096D02*
X1361938D01*
X1334506D02*
X1345682D01*
X1363970Y1312738D02*
X1366256D01*
X1355334D02*
X1362192D01*
X1334760D02*
X1346444D01*
X1363716Y1312484D02*
X1366002D01*
X1354318D02*
X1362446D01*
X1335014D02*
X1347460D01*
X1352794Y1312230D02*
X1366002D01*
X1335268D02*
X1348984D01*
X1335522Y1311976D02*
X1366002D01*
X1335776Y1311722D02*
X1365748D01*
X1336030Y1311468D02*
X1365494D01*
X1336284Y1311214D02*
X1365494D01*
X1336538Y1310960D02*
X1365240D01*
X1337046Y1310706D02*
X1364732D01*
X1337300Y1310452D02*
X1364478D01*
X1337554Y1310198D02*
X1364224D01*
X1338062Y1309944D02*
X1363716D01*
X1338316Y1309690D02*
X1363462D01*
X1338824Y1309436D02*
X1362954D01*
X1339078Y1309182D02*
X1362700D01*
X1339586Y1308928D02*
X1362192D01*
X1340094Y1308674D02*
X1361684D01*
X1340602Y1308420D02*
X1361176D01*
X1341110Y1308166D02*
X1360668D01*
X1341618Y1307912D02*
X1360160D01*
X1342126Y1307658D02*
X1359652D01*
X1342888Y1307404D02*
X1358890D01*
X1343396Y1307150D02*
X1358128D01*
X1344158Y1306896D02*
X1357366D01*
X1345174Y1306642D02*
X1356604D01*
X1346190Y1306388D02*
X1355334D01*
X1347714Y1306134D02*
X1353810D01*
X1120762Y1648908D02*
X1117460D01*
X1122794Y1649162D02*
X1115428D01*
X1124318Y1649416D02*
X1114158D01*
X1125334Y1649670D02*
X1113142D01*
X1126096Y1649924D02*
X1112126D01*
X1126858Y1650178D02*
X1111364D01*
X1127366Y1650432D02*
X1110856D01*
X1128128Y1650686D02*
X1110094D01*
X1128636Y1650940D02*
X1109586D01*
X1129144Y1651194D02*
X1109078D01*
X1129652Y1651448D02*
X1108570D01*
X1130160Y1651702D02*
X1108062D01*
X1130668Y1651956D02*
X1107554D01*
X1130922Y1652210D02*
X1107300D01*
X1131430Y1652464D02*
X1106792D01*
X1131938Y1652718D02*
X1106538D01*
X1132192Y1652972D02*
X1106030D01*
X1132446Y1653226D02*
X1105776D01*
X1132954Y1653480D02*
X1105522D01*
X1133208Y1653734D02*
X1105014D01*
X1133462Y1653988D02*
X1104760D01*
X1133716Y1654242D02*
X1104506D01*
X1134224Y1654496D02*
X1104252D01*
X1134478Y1654750D02*
X1104252D01*
X1134732Y1655004D02*
X1103998D01*
X1106284Y1655258D02*
X1103998D01*
X1116444D02*
X1107300D01*
X1134986D02*
X1121778D01*
X1106030Y1655512D02*
X1103744D01*
X1115174D02*
X1107808D01*
X1135240D02*
X1123048D01*
X1105776Y1655766D02*
X1103744D01*
X1114412D02*
X1107808D01*
X1135494D02*
X1124064D01*
X1105776Y1656020D02*
X1103744D01*
X1113650D02*
X1108062D01*
X1135748D02*
X1124826D01*
X1105776Y1656274D02*
X1103744D01*
X1112888D02*
X1108062D01*
X1136002D02*
X1125334D01*
X1105776Y1656528D02*
X1103744D01*
X1112380D02*
X1108062D01*
X1136002D02*
X1125842D01*
X1105776Y1656782D02*
X1103744D01*
X1111872D02*
X1108062D01*
X1136256D02*
X1126350D01*
X1106030Y1657036D02*
X1103744D01*
X1111364D02*
X1107808D01*
X1136510D02*
X1126858D01*
X1106284Y1657290D02*
X1103998D01*
X1110856D02*
X1107554D01*
X1121778D02*
X1116444D01*
X1136764D02*
X1127366D01*
X1110348Y1657544D02*
X1103998D01*
X1123048D02*
X1115428D01*
X1137018D02*
X1127874D01*
X1110094Y1657798D02*
X1104252D01*
X1123810D02*
X1114412D01*
X1137272D02*
X1128128D01*
X1109586Y1658052D02*
X1104252D01*
X1124572D02*
X1113904D01*
X1137272D02*
X1128636D01*
X1109332Y1658306D02*
X1104506D01*
X1125080D02*
X1113142D01*
X1137526D02*
X1128890D01*
X1109078Y1658560D02*
X1104760D01*
X1125588D02*
X1112634D01*
X1137780D02*
X1129144D01*
X1108570Y1658814D02*
X1105014D01*
X1126096D02*
X1112126D01*
X1137780D02*
X1129652D01*
X1108316Y1659068D02*
X1105522D01*
X1126604D02*
X1111872D01*
X1138034D02*
X1129906D01*
X1107554Y1659322D02*
X1106284D01*
X1127112D02*
X1111364D01*
X1138288D02*
X1130160D01*
X1127366Y1659576D02*
X1110856D01*
X1138288D02*
X1130414D01*
X1127620Y1659830D02*
X1110602D01*
X1138542D02*
X1130668D01*
X1128128Y1660084D02*
X1110348D01*
X1138796D02*
X1130922D01*
X1128382Y1660338D02*
X1110094D01*
X1138796D02*
X1131176D01*
X1128636Y1660592D02*
X1109586D01*
X1139050D02*
X1131430D01*
X1128890Y1660846D02*
X1109332D01*
X1139050D02*
X1131684D01*
X1128890Y1661100D02*
X1109078D01*
X1139304D02*
X1131938D01*
X1129144Y1661354D02*
X1108824D01*
X1139304D02*
X1131938D01*
X1129144Y1661608D02*
X1108570D01*
X1139558D02*
X1132192D01*
X1129398Y1661862D02*
X1108316D01*
X1139558D02*
X1132446D01*
X1129398Y1662116D02*
X1108062D01*
X1139812D02*
X1132700D01*
X1129398Y1662370D02*
X1108062D01*
X1139812D02*
X1132700D01*
X1129398Y1662624D02*
X1107808D01*
X1140066D02*
X1132954D01*
X1129398Y1662878D02*
X1107554D01*
X1140066D02*
X1133208D01*
X1129398Y1663132D02*
X1107300D01*
X1140066D02*
X1133208D01*
X1117714Y1663386D02*
X1107300D01*
X1129398D02*
X1120762D01*
X1140320D02*
X1133462D01*
X1116698Y1663640D02*
X1107046D01*
X1129144D02*
X1121778D01*
X1140320D02*
X1133462D01*
X1115936Y1663894D02*
X1106792D01*
X1129144D02*
X1122286D01*
X1140574D02*
X1133716D01*
X1115428Y1664148D02*
X1106792D01*
X1129144D02*
X1122794D01*
X1140574D02*
X1133716D01*
X1114920Y1664402D02*
X1106538D01*
X1128890D02*
X1123302D01*
X1140574D02*
X1133970D01*
X1114666Y1664656D02*
X1106538D01*
X1128636D02*
X1123810D01*
X1140828D02*
X1133970D01*
X1114158Y1664910D02*
X1106284D01*
X1128382D02*
X1124064D01*
X1140828D02*
X1134224D01*
X1113904Y1665164D02*
X1106284D01*
X1128128D02*
X1124572D01*
X1140828D02*
X1134224D01*
X1113650Y1665418D02*
X1106030D01*
X1127620D02*
X1124826D01*
X1140828D02*
X1134478D01*
X1113396Y1665672D02*
X1106030D01*
X1127112D02*
X1125588D01*
X1141082D02*
X1134478D01*
X1113142Y1665926D02*
X1105776D01*
X1141082D02*
X1134478D01*
X1112888Y1666180D02*
X1105776D01*
X1141082D02*
X1134732D01*
X1112634Y1666434D02*
X1105522D01*
X1141082D02*
X1134732D01*
X1112380Y1666688D02*
X1105522D01*
X1141336D02*
X1134732D01*
X1112380Y1666942D02*
X1105522D01*
X1141336D02*
X1134986D01*
X1112126Y1667196D02*
X1105268D01*
X1141336D02*
X1134986D01*
X1112126Y1667450D02*
X1105268D01*
X1141336D02*
X1134986D01*
X1111872Y1667704D02*
X1105268D01*
X1141336D02*
X1135240D01*
X1111618Y1667958D02*
X1105268D01*
X1141590D02*
X1135240D01*
X1111618Y1668212D02*
X1105014D01*
X1141590D02*
X1135240D01*
X1111618Y1668466D02*
X1105014D01*
X1141590D02*
X1118476D01*
X1111364Y1668720D02*
X1105014D01*
X1141590D02*
X1117714D01*
X1111364Y1668974D02*
X1105014D01*
X1141590D02*
X1117206D01*
X1111364Y1669228D02*
X1105014D01*
X1141590D02*
X1116952D01*
X1111110Y1669482D02*
X1104760D01*
X1141590D02*
X1116698D01*
X1111110Y1669736D02*
X1104760D01*
X1141590D02*
X1116444D01*
X1111110Y1669990D02*
X1104760D01*
X1118476D02*
X1116444D01*
X1141590D02*
X1120000D01*
X1111110Y1670244D02*
X1104760D01*
X1117968D02*
X1116190D01*
X1141844D02*
X1120254D01*
X1111110Y1670498D02*
X1104760D01*
X1117714D02*
X1116190D01*
X1141844D02*
X1120508D01*
X1110856Y1670752D02*
X1104760D01*
X1117714D02*
X1115936D01*
X1141844D02*
X1120508D01*
X1110856Y1671006D02*
X1104760D01*
X1117460D02*
X1115936D01*
X1141844D02*
X1120762D01*
X1110856Y1671260D02*
X1104760D01*
X1117460D02*
X1115936D01*
X1141844D02*
X1120762D01*
X1110856Y1671514D02*
X1104760D01*
X1117460D02*
X1115936D01*
X1141844D02*
X1120762D01*
X1110856Y1671768D02*
X1104760D01*
X1117460D02*
X1115936D01*
X1141844D02*
X1120762D01*
X1110856Y1672022D02*
X1104760D01*
X1117460D02*
X1115936D01*
X1141844D02*
X1120762D01*
X1111110Y1672276D02*
X1104760D01*
X1117714D02*
X1116190D01*
X1141844D02*
X1120508D01*
X1111110Y1672530D02*
X1104760D01*
X1117968D02*
X1116190D01*
X1141844D02*
X1120508D01*
X1111110Y1672784D02*
X1104760D01*
X1118222D02*
X1116190D01*
X1141590D02*
X1120000D01*
X1111110Y1673038D02*
X1104760D01*
X1118730D02*
X1116444D01*
X1141590D02*
X1119746D01*
X1111110Y1673292D02*
X1104760D01*
X1141590D02*
X1116444D01*
X1111110Y1673546D02*
X1105014D01*
X1141590D02*
X1116698D01*
X1111364Y1673800D02*
X1105014D01*
X1141590D02*
X1116952D01*
X1111364Y1674054D02*
X1105014D01*
X1141590D02*
X1117206D01*
X1111364Y1674308D02*
X1105014D01*
X1141590D02*
X1117714D01*
X1111618Y1674562D02*
X1105014D01*
X1141590D02*
X1118730D01*
X1111618Y1674816D02*
X1105014D01*
X1141590D02*
X1135240D01*
X1111872Y1675070D02*
X1105268D01*
X1141590D02*
X1135240D01*
X1111872Y1675324D02*
X1105268D01*
X1141336D02*
X1134986D01*
X1112126Y1675578D02*
X1105268D01*
X1141336D02*
X1134986D01*
X1112126Y1675832D02*
X1105522D01*
X1141336D02*
X1134986D01*
X1112380Y1676086D02*
X1105522D01*
X1141336D02*
X1134986D01*
X1112634Y1676340D02*
X1105522D01*
X1141336D02*
X1134732D01*
X1112888Y1676594D02*
X1105776D01*
X1141082D02*
X1134732D01*
X1112888Y1676848D02*
X1105776D01*
X1141082D02*
X1134732D01*
X1113142Y1677102D02*
X1105776D01*
X1141082D02*
X1134478D01*
X1113396Y1677356D02*
X1106030D01*
X1127366D02*
X1125334D01*
X1141082D02*
X1134478D01*
X1113650Y1677610D02*
X1106030D01*
X1127874D02*
X1124572D01*
X1140828D02*
X1134224D01*
X1114158Y1677864D02*
X1106284D01*
X1128382D02*
X1124318D01*
X1140828D02*
X1134224D01*
X1114412Y1678118D02*
X1106284D01*
X1128636D02*
X1124064D01*
X1140828D02*
X1134224D01*
X1114666Y1678372D02*
X1106538D01*
X1128636D02*
X1123556D01*
X1140574D02*
X1133970D01*
X1115174Y1678626D02*
X1106538D01*
X1128890D02*
X1123302D01*
X1140574D02*
X1133970D01*
X1115682Y1678880D02*
X1106792D01*
X1129144D02*
X1122794D01*
X1140574D02*
X1133716D01*
X1116190Y1679134D02*
X1107046D01*
X1129144D02*
X1122032D01*
X1140320D02*
X1133716D01*
X1116952Y1679388D02*
X1107046D01*
X1129144D02*
X1121270D01*
X1140320D02*
X1133462D01*
X1118222Y1679642D02*
X1107300D01*
X1129398D02*
X1120000D01*
X1140320D02*
X1133462D01*
X1129398Y1679896D02*
X1107554D01*
X1140066D02*
X1133208D01*
X1129398Y1680150D02*
X1107554D01*
X1140066D02*
X1132954D01*
X1129398Y1680404D02*
X1107808D01*
X1139812D02*
X1132954D01*
X1129398Y1680658D02*
X1108062D01*
X1139812D02*
X1132700D01*
X1129398Y1680912D02*
X1108316D01*
X1139812D02*
X1132446D01*
X1129144Y1681166D02*
X1108570D01*
X1139558D02*
X1132446D01*
X1129144Y1681420D02*
X1108824D01*
X1139558D02*
X1132192D01*
X1129144Y1681674D02*
X1109078D01*
X1139304D02*
X1131938D01*
X1128890Y1681928D02*
X1109332D01*
X1139304D02*
X1131684D01*
X1128636Y1682182D02*
X1109586D01*
X1139050D02*
X1131430D01*
X1128636Y1682436D02*
X1109840D01*
X1138796D02*
X1131430D01*
X1128128Y1682690D02*
X1110094D01*
X1138796D02*
X1131176D01*
X1127874Y1682944D02*
X1110348D01*
X1138542D02*
X1130922D01*
X1127620Y1683198D02*
X1110856D01*
X1138542D02*
X1130668D01*
X1127112Y1683452D02*
X1111110D01*
X1138288D02*
X1130414D01*
X1107808Y1683706D02*
X1105776D01*
X1126858D02*
X1111618D01*
X1138034D02*
X1130160D01*
X1108570Y1683960D02*
X1105268D01*
X1126350D02*
X1111872D01*
X1138034D02*
X1129652D01*
X1108824Y1684214D02*
X1105014D01*
X1125842D02*
X1112380D01*
X1137780D02*
X1129398D01*
X1109078Y1684468D02*
X1104506D01*
X1125334D02*
X1112888D01*
X1137526D02*
X1129144D01*
X1109586Y1684722D02*
X1104506D01*
X1124826D02*
X1113396D01*
X1137526D02*
X1128890D01*
X1109840Y1684976D02*
X1104252D01*
X1124318D02*
X1114158D01*
X1137272D02*
X1128382D01*
X1110348Y1685230D02*
X1103998D01*
X1123556D02*
X1114920D01*
X1137018D02*
X1128128D01*
X1106284Y1685484D02*
X1103998D01*
X1110602D02*
X1107300D01*
X1122540D02*
X1115682D01*
X1136764D02*
X1127620D01*
X1106030Y1685738D02*
X1103998D01*
X1111110D02*
X1107808D01*
X1121270D02*
X1117206D01*
X1136764D02*
X1127112D01*
X1105776Y1685992D02*
X1103744D01*
X1111618D02*
X1107808D01*
X1136510D02*
X1126858D01*
X1105776Y1686246D02*
X1103744D01*
X1112126D02*
X1108062D01*
X1136256D02*
X1126350D01*
X1105776Y1686500D02*
X1103744D01*
X1112634D02*
X1108062D01*
X1136002D02*
X1125588D01*
X1105776Y1686754D02*
X1103744D01*
X1113142D02*
X1108062D01*
X1135748D02*
X1125080D01*
X1105776Y1687008D02*
X1103744D01*
X1113904D02*
X1108062D01*
X1135494D02*
X1124318D01*
X1106030Y1687262D02*
X1103744D01*
X1114666D02*
X1107808D01*
X1135240D02*
X1123556D01*
X1106284Y1687516D02*
X1103998D01*
X1115682D02*
X1107554D01*
X1134986D02*
X1122540D01*
X1117206Y1687770D02*
X1103998D01*
X1134732D02*
X1121016D01*
X1134478Y1688024D02*
X1103998D01*
X1134224Y1688278D02*
X1104252D01*
X1133970Y1688532D02*
X1104506D01*
X1133716Y1688786D02*
X1104506D01*
X1133462Y1689040D02*
X1104760D01*
X1132954Y1689294D02*
X1105268D01*
X1132700Y1689548D02*
X1105522D01*
X1132446Y1689802D02*
X1105776D01*
X1131938Y1690056D02*
X1106284D01*
X1131684Y1690310D02*
X1106538D01*
X1131176Y1690564D02*
X1107046D01*
X1130922Y1690818D02*
X1107300D01*
X1130414Y1691072D02*
X1107808D01*
X1129906Y1691326D02*
X1108316D01*
X1129398Y1691580D02*
X1108824D01*
X1128890Y1691834D02*
X1109332D01*
X1128382Y1692088D02*
X1109840D01*
X1127874Y1692342D02*
X1110348D01*
X1127112Y1692596D02*
X1111110D01*
X1126604Y1692850D02*
X1111872D01*
X1125842Y1693104D02*
X1112634D01*
X1124826Y1693358D02*
X1113396D01*
X1123810Y1693612D02*
X1114666D01*
X1122286Y1693866D02*
X1116190D01*
X1580762Y1648908D02*
X1577460D01*
X1582794Y1649162D02*
X1575428D01*
X1584318Y1649416D02*
X1574158D01*
X1585334Y1649670D02*
X1573142D01*
X1586096Y1649924D02*
X1572126D01*
X1586858Y1650178D02*
X1571364D01*
X1587366Y1650432D02*
X1570856D01*
X1588128Y1650686D02*
X1570094D01*
X1588636Y1650940D02*
X1569586D01*
X1589144Y1651194D02*
X1569078D01*
X1589652Y1651448D02*
X1568570D01*
X1590160Y1651702D02*
X1568062D01*
X1590668Y1651956D02*
X1567554D01*
X1590922Y1652210D02*
X1567300D01*
X1591430Y1652464D02*
X1566792D01*
X1591938Y1652718D02*
X1566538D01*
X1592192Y1652972D02*
X1566030D01*
X1592446Y1653226D02*
X1565776D01*
X1592954Y1653480D02*
X1565522D01*
X1593208Y1653734D02*
X1565014D01*
X1593462Y1653988D02*
X1564760D01*
X1593716Y1654242D02*
X1564506D01*
X1594224Y1654496D02*
X1564252D01*
X1594478Y1654750D02*
X1564252D01*
X1594732Y1655004D02*
X1563998D01*
X1566284Y1655258D02*
X1563998D01*
X1576444D02*
X1567300D01*
X1594986D02*
X1581778D01*
X1566030Y1655512D02*
X1563744D01*
X1575174D02*
X1567808D01*
X1595240D02*
X1583048D01*
X1565776Y1655766D02*
X1563744D01*
X1574412D02*
X1567808D01*
X1595494D02*
X1584064D01*
X1565776Y1656020D02*
X1563744D01*
X1573650D02*
X1568062D01*
X1595748D02*
X1584826D01*
X1565776Y1656274D02*
X1563744D01*
X1572888D02*
X1568062D01*
X1596002D02*
X1585334D01*
X1565776Y1656528D02*
X1563744D01*
X1572380D02*
X1568062D01*
X1596002D02*
X1585842D01*
X1565776Y1656782D02*
X1563744D01*
X1571872D02*
X1568062D01*
X1596256D02*
X1586350D01*
X1566030Y1657036D02*
X1563744D01*
X1571364D02*
X1567808D01*
X1596510D02*
X1586858D01*
X1566284Y1657290D02*
X1563998D01*
X1570856D02*
X1567554D01*
X1581778D02*
X1576444D01*
X1596764D02*
X1587366D01*
X1570348Y1657544D02*
X1563998D01*
X1583048D02*
X1575428D01*
X1597018D02*
X1587874D01*
X1570094Y1657798D02*
X1564252D01*
X1583810D02*
X1574412D01*
X1597272D02*
X1588128D01*
X1569586Y1658052D02*
X1564252D01*
X1584572D02*
X1573904D01*
X1597272D02*
X1588636D01*
X1569332Y1658306D02*
X1564506D01*
X1585080D02*
X1573142D01*
X1597526D02*
X1588890D01*
X1569078Y1658560D02*
X1564760D01*
X1585588D02*
X1572634D01*
X1597780D02*
X1589144D01*
X1568570Y1658814D02*
X1565014D01*
X1586096D02*
X1572126D01*
X1597780D02*
X1589652D01*
X1568316Y1659068D02*
X1565522D01*
X1586604D02*
X1571872D01*
X1598034D02*
X1589906D01*
X1567554Y1659322D02*
X1566284D01*
X1587112D02*
X1571364D01*
X1598288D02*
X1590160D01*
X1587366Y1659576D02*
X1570856D01*
X1598288D02*
X1590414D01*
X1587620Y1659830D02*
X1570602D01*
X1598542D02*
X1590668D01*
X1588128Y1660084D02*
X1570348D01*
X1598796D02*
X1590922D01*
X1588382Y1660338D02*
X1570094D01*
X1598796D02*
X1591176D01*
X1588636Y1660592D02*
X1569586D01*
X1599050D02*
X1591430D01*
X1588890Y1660846D02*
X1569332D01*
X1599050D02*
X1591684D01*
X1588890Y1661100D02*
X1569078D01*
X1599304D02*
X1591938D01*
X1589144Y1661354D02*
X1568824D01*
X1599304D02*
X1591938D01*
X1589144Y1661608D02*
X1568570D01*
X1599558D02*
X1592192D01*
X1589398Y1661862D02*
X1568316D01*
X1599558D02*
X1592446D01*
X1589398Y1662116D02*
X1568062D01*
X1599812D02*
X1592700D01*
X1589398Y1662370D02*
X1568062D01*
X1599812D02*
X1592700D01*
X1589398Y1662624D02*
X1567808D01*
X1600066D02*
X1592954D01*
X1589398Y1662878D02*
X1567554D01*
X1600066D02*
X1593208D01*
X1589398Y1663132D02*
X1567300D01*
X1600066D02*
X1593208D01*
X1577714Y1663386D02*
X1567300D01*
X1589398D02*
X1580762D01*
X1600320D02*
X1593462D01*
X1576698Y1663640D02*
X1567046D01*
X1589144D02*
X1581778D01*
X1600320D02*
X1593462D01*
X1575936Y1663894D02*
X1566792D01*
X1589144D02*
X1582286D01*
X1600574D02*
X1593716D01*
X1575428Y1664148D02*
X1566792D01*
X1589144D02*
X1582794D01*
X1600574D02*
X1593716D01*
X1574920Y1664402D02*
X1566538D01*
X1588890D02*
X1583302D01*
X1600574D02*
X1593970D01*
X1574666Y1664656D02*
X1566538D01*
X1588636D02*
X1583810D01*
X1600828D02*
X1593970D01*
X1574158Y1664910D02*
X1566284D01*
X1588382D02*
X1584064D01*
X1600828D02*
X1594224D01*
X1573904Y1665164D02*
X1566284D01*
X1588128D02*
X1584572D01*
X1600828D02*
X1594224D01*
X1573650Y1665418D02*
X1566030D01*
X1587620D02*
X1584826D01*
X1600828D02*
X1594478D01*
X1573396Y1665672D02*
X1566030D01*
X1587112D02*
X1585588D01*
X1601082D02*
X1594478D01*
X1573142Y1665926D02*
X1565776D01*
X1601082D02*
X1594478D01*
X1572888Y1666180D02*
X1565776D01*
X1601082D02*
X1594732D01*
X1572634Y1666434D02*
X1565522D01*
X1601082D02*
X1594732D01*
X1572380Y1666688D02*
X1565522D01*
X1601336D02*
X1594732D01*
X1572380Y1666942D02*
X1565522D01*
X1601336D02*
X1594986D01*
X1572126Y1667196D02*
X1565268D01*
X1601336D02*
X1594986D01*
X1572126Y1667450D02*
X1565268D01*
X1601336D02*
X1594986D01*
X1571872Y1667704D02*
X1565268D01*
X1601336D02*
X1595240D01*
X1571618Y1667958D02*
X1565268D01*
X1601590D02*
X1595240D01*
X1571618Y1668212D02*
X1565014D01*
X1601590D02*
X1595240D01*
X1571618Y1668466D02*
X1565014D01*
X1601590D02*
X1578476D01*
X1571364Y1668720D02*
X1565014D01*
X1601590D02*
X1577714D01*
X1571364Y1668974D02*
X1565014D01*
X1601590D02*
X1577206D01*
X1571364Y1669228D02*
X1565014D01*
X1601590D02*
X1576952D01*
X1571110Y1669482D02*
X1564760D01*
X1601590D02*
X1576698D01*
X1571110Y1669736D02*
X1564760D01*
X1601590D02*
X1576444D01*
X1571110Y1669990D02*
X1564760D01*
X1578476D02*
X1576444D01*
X1601590D02*
X1580000D01*
X1571110Y1670244D02*
X1564760D01*
X1577968D02*
X1576190D01*
X1601844D02*
X1580254D01*
X1571110Y1670498D02*
X1564760D01*
X1577714D02*
X1576190D01*
X1601844D02*
X1580508D01*
X1570856Y1670752D02*
X1564760D01*
X1577714D02*
X1575936D01*
X1601844D02*
X1580508D01*
X1570856Y1671006D02*
X1564760D01*
X1577460D02*
X1575936D01*
X1601844D02*
X1580762D01*
X1570856Y1671260D02*
X1564760D01*
X1577460D02*
X1575936D01*
X1601844D02*
X1580762D01*
X1570856Y1671514D02*
X1564760D01*
X1577460D02*
X1575936D01*
X1601844D02*
X1580762D01*
X1570856Y1671768D02*
X1564760D01*
X1577460D02*
X1575936D01*
X1601844D02*
X1580762D01*
X1570856Y1672022D02*
X1564760D01*
X1577460D02*
X1575936D01*
X1601844D02*
X1580762D01*
X1571110Y1672276D02*
X1564760D01*
X1577714D02*
X1576190D01*
X1601844D02*
X1580508D01*
X1571110Y1672530D02*
X1564760D01*
X1577968D02*
X1576190D01*
X1601844D02*
X1580508D01*
X1571110Y1672784D02*
X1564760D01*
X1578222D02*
X1576190D01*
X1601590D02*
X1580000D01*
X1571110Y1673038D02*
X1564760D01*
X1578730D02*
X1576444D01*
X1601590D02*
X1579746D01*
X1571110Y1673292D02*
X1564760D01*
X1601590D02*
X1576444D01*
X1571110Y1673546D02*
X1565014D01*
X1601590D02*
X1576698D01*
X1571364Y1673800D02*
X1565014D01*
X1601590D02*
X1576952D01*
X1571364Y1674054D02*
X1565014D01*
X1601590D02*
X1577206D01*
X1571364Y1674308D02*
X1565014D01*
X1601590D02*
X1577714D01*
X1571618Y1674562D02*
X1565014D01*
X1601590D02*
X1578730D01*
X1571618Y1674816D02*
X1565014D01*
X1601590D02*
X1595240D01*
X1571872Y1675070D02*
X1565268D01*
X1601590D02*
X1595240D01*
X1571872Y1675324D02*
X1565268D01*
X1601336D02*
X1594986D01*
X1572126Y1675578D02*
X1565268D01*
X1601336D02*
X1594986D01*
X1572126Y1675832D02*
X1565522D01*
X1601336D02*
X1594986D01*
X1572380Y1676086D02*
X1565522D01*
X1601336D02*
X1594986D01*
X1572634Y1676340D02*
X1565522D01*
X1601336D02*
X1594732D01*
X1572888Y1676594D02*
X1565776D01*
X1601082D02*
X1594732D01*
X1572888Y1676848D02*
X1565776D01*
X1601082D02*
X1594732D01*
X1573142Y1677102D02*
X1565776D01*
X1601082D02*
X1594478D01*
X1573396Y1677356D02*
X1566030D01*
X1587366D02*
X1585334D01*
X1601082D02*
X1594478D01*
X1573650Y1677610D02*
X1566030D01*
X1587874D02*
X1584572D01*
X1600828D02*
X1594224D01*
X1574158Y1677864D02*
X1566284D01*
X1588382D02*
X1584318D01*
X1600828D02*
X1594224D01*
X1574412Y1678118D02*
X1566284D01*
X1588636D02*
X1584064D01*
X1600828D02*
X1594224D01*
X1574666Y1678372D02*
X1566538D01*
X1588636D02*
X1583556D01*
X1600574D02*
X1593970D01*
X1575174Y1678626D02*
X1566538D01*
X1588890D02*
X1583302D01*
X1600574D02*
X1593970D01*
X1575682Y1678880D02*
X1566792D01*
X1589144D02*
X1582794D01*
X1600574D02*
X1593716D01*
X1576190Y1679134D02*
X1567046D01*
X1589144D02*
X1582032D01*
X1600320D02*
X1593716D01*
X1576952Y1679388D02*
X1567046D01*
X1589144D02*
X1581270D01*
X1600320D02*
X1593462D01*
X1578222Y1679642D02*
X1567300D01*
X1589398D02*
X1580000D01*
X1600320D02*
X1593462D01*
X1589398Y1679896D02*
X1567554D01*
X1600066D02*
X1593208D01*
X1589398Y1680150D02*
X1567554D01*
X1600066D02*
X1592954D01*
X1589398Y1680404D02*
X1567808D01*
X1599812D02*
X1592954D01*
X1589398Y1680658D02*
X1568062D01*
X1599812D02*
X1592700D01*
X1589398Y1680912D02*
X1568316D01*
X1599812D02*
X1592446D01*
X1589144Y1681166D02*
X1568570D01*
X1599558D02*
X1592446D01*
X1589144Y1681420D02*
X1568824D01*
X1599558D02*
X1592192D01*
X1589144Y1681674D02*
X1569078D01*
X1599304D02*
X1591938D01*
X1588890Y1681928D02*
X1569332D01*
X1599304D02*
X1591684D01*
X1588636Y1682182D02*
X1569586D01*
X1599050D02*
X1591430D01*
X1588636Y1682436D02*
X1569840D01*
X1598796D02*
X1591430D01*
X1588128Y1682690D02*
X1570094D01*
X1598796D02*
X1591176D01*
X1587874Y1682944D02*
X1570348D01*
X1598542D02*
X1590922D01*
X1587620Y1683198D02*
X1570856D01*
X1598542D02*
X1590668D01*
X1587112Y1683452D02*
X1571110D01*
X1598288D02*
X1590414D01*
X1567808Y1683706D02*
X1565776D01*
X1586858D02*
X1571618D01*
X1598034D02*
X1590160D01*
X1568570Y1683960D02*
X1565268D01*
X1586350D02*
X1571872D01*
X1598034D02*
X1589652D01*
X1568824Y1684214D02*
X1565014D01*
X1585842D02*
X1572380D01*
X1597780D02*
X1589398D01*
X1569078Y1684468D02*
X1564506D01*
X1585334D02*
X1572888D01*
X1597526D02*
X1589144D01*
X1569586Y1684722D02*
X1564506D01*
X1584826D02*
X1573396D01*
X1597526D02*
X1588890D01*
X1569840Y1684976D02*
X1564252D01*
X1584318D02*
X1574158D01*
X1597272D02*
X1588382D01*
X1570348Y1685230D02*
X1563998D01*
X1583556D02*
X1574920D01*
X1597018D02*
X1588128D01*
X1566284Y1685484D02*
X1563998D01*
X1570602D02*
X1567300D01*
X1582540D02*
X1575682D01*
X1596764D02*
X1587620D01*
X1566030Y1685738D02*
X1563998D01*
X1571110D02*
X1567808D01*
X1581270D02*
X1577206D01*
X1596764D02*
X1587112D01*
X1565776Y1685992D02*
X1563744D01*
X1571618D02*
X1567808D01*
X1596510D02*
X1586858D01*
X1565776Y1686246D02*
X1563744D01*
X1572126D02*
X1568062D01*
X1596256D02*
X1586350D01*
X1565776Y1686500D02*
X1563744D01*
X1572634D02*
X1568062D01*
X1596002D02*
X1585588D01*
X1565776Y1686754D02*
X1563744D01*
X1573142D02*
X1568062D01*
X1595748D02*
X1585080D01*
X1565776Y1687008D02*
X1563744D01*
X1573904D02*
X1568062D01*
X1595494D02*
X1584318D01*
X1566030Y1687262D02*
X1563744D01*
X1574666D02*
X1567808D01*
X1595240D02*
X1583556D01*
X1566284Y1687516D02*
X1563998D01*
X1575682D02*
X1567554D01*
X1594986D02*
X1582540D01*
X1577206Y1687770D02*
X1563998D01*
X1594732D02*
X1581016D01*
X1594478Y1688024D02*
X1563998D01*
X1594224Y1688278D02*
X1564252D01*
X1593970Y1688532D02*
X1564506D01*
X1593716Y1688786D02*
X1564506D01*
X1593462Y1689040D02*
X1564760D01*
X1592954Y1689294D02*
X1565268D01*
X1592700Y1689548D02*
X1565522D01*
X1592446Y1689802D02*
X1565776D01*
X1591938Y1690056D02*
X1566284D01*
X1591684Y1690310D02*
X1566538D01*
X1591176Y1690564D02*
X1567046D01*
X1590922Y1690818D02*
X1567300D01*
X1590414Y1691072D02*
X1567808D01*
X1589906Y1691326D02*
X1568316D01*
X1589398Y1691580D02*
X1568824D01*
X1588890Y1691834D02*
X1569332D01*
X1588382Y1692088D02*
X1569840D01*
X1587874Y1692342D02*
X1570348D01*
X1587112Y1692596D02*
X1571110D01*
X1586604Y1692850D02*
X1571872D01*
X1585842Y1693104D02*
X1572634D01*
X1584826Y1693358D02*
X1573396D01*
X1583810Y1693612D02*
X1574666D01*
X1582286Y1693866D02*
X1576190D01*
D51*
X1448396Y379400D02*
X1460588D01*
X1445348Y378892D02*
X1463636D01*
X1443316Y378384D02*
X1466176D01*
X1441284Y377876D02*
X1467700D01*
X1439760Y377368D02*
X1469224D01*
X1438744Y376860D02*
X1470748D01*
X1437220Y376352D02*
X1472272D01*
X1436204Y375844D02*
X1473288D01*
X1435188Y375336D02*
X1474304D01*
X1434172Y374828D02*
X1475320D01*
X1433156Y374320D02*
X1476336D01*
X1432140Y373812D02*
X1477352D01*
X1431124Y373304D02*
X1478368D01*
X1430616Y372796D02*
X1478876D01*
X1429600Y372288D02*
X1479892D01*
X1429092Y371780D02*
X1480400D01*
X1428076Y371272D02*
X1481416D01*
X1427568Y370764D02*
X1481924D01*
X1427060Y370256D02*
X1482432D01*
X1426044Y369748D02*
X1483448D01*
X1425536Y369240D02*
X1483956D01*
X1425028Y368732D02*
X1483956D01*
X1424520Y368224D02*
X1484464D01*
X1424012Y367716D02*
X1484972D01*
X1423504Y367208D02*
X1450936D01*
X1458556D02*
X1484972D01*
X1422996Y366700D02*
X1447888D01*
X1461604D02*
X1477860D01*
X1480400D02*
X1484972D01*
X1422488Y366192D02*
X1445856D01*
X1463636D02*
X1477352D01*
X1480908D02*
X1485480D01*
X1421980Y365684D02*
X1444332D01*
X1465160D02*
X1476844D01*
X1481416D02*
X1485480D01*
X1421472Y365176D02*
X1442808D01*
X1466684D02*
X1476844D01*
X1481416D02*
X1485480D01*
X1420964Y364668D02*
X1441792D01*
X1467700D02*
X1476844D01*
X1481416D02*
X1485480D01*
X1420456Y364160D02*
X1440268D01*
X1468716D02*
X1476844D01*
X1481416D02*
X1485480D01*
X1419948Y363652D02*
X1439252D01*
X1469732D02*
X1477352D01*
X1481416D02*
X1485480D01*
X1419440Y363144D02*
X1438744D01*
X1450428D02*
X1458556D01*
X1470748D02*
X1477352D01*
X1480908D02*
X1484972D01*
X1419440Y362636D02*
X1437728D01*
X1447888D02*
X1461604D01*
X1471764D02*
X1478368D01*
X1480400D02*
X1484972D01*
X1418932Y362128D02*
X1436712D01*
X1445856D02*
X1463128D01*
X1472272D02*
X1484972D01*
X1418424Y361620D02*
X1436204D01*
X1444332D02*
X1464652D01*
X1473288D02*
X1484464D01*
X1417916Y361112D02*
X1435188D01*
X1443316D02*
X1466176D01*
X1473796D02*
X1483956D01*
X1417916Y360604D02*
X1434680D01*
X1442300D02*
X1467192D01*
X1474812D02*
X1483956D01*
X1417408Y360096D02*
X1434172D01*
X1441284D02*
X1468208D01*
X1475320D02*
X1482940D01*
X1416900Y359588D02*
X1433664D01*
X1440268D02*
X1469224D01*
X1475828D02*
X1482432D01*
X1416900Y359080D02*
X1432648D01*
X1439252D02*
X1469732D01*
X1477352D02*
X1481416D01*
X1416392Y358572D02*
X1432140D01*
X1438744D02*
X1470748D01*
X1415884Y358064D02*
X1431632D01*
X1437728D02*
X1471256D01*
X1415884Y357556D02*
X1431124D01*
X1437220D02*
X1472272D01*
X1415376Y357048D02*
X1430616D01*
X1436712D02*
X1472780D01*
X1415376Y356540D02*
X1430108D01*
X1435696D02*
X1473288D01*
X1414868Y356032D02*
X1430108D01*
X1435696D02*
X1473796D01*
X1414360Y355524D02*
X1429600D01*
X1435188D02*
X1474304D01*
X1414360Y355016D02*
X1429092D01*
X1434680D02*
X1474812D01*
X1413852Y354508D02*
X1428584D01*
X1434680D02*
X1475320D01*
X1413852Y354000D02*
X1428076D01*
X1434680D02*
X1475828D01*
X1413344Y353492D02*
X1428076D01*
X1434172D02*
X1476336D01*
X1413344Y352984D02*
X1427568D01*
X1434172D02*
X1476844D01*
X1413344Y352476D02*
X1427060D01*
X1434172D02*
X1477352D01*
X1412836Y351968D02*
X1427060D01*
X1434172D02*
X1477860D01*
X1412836Y351460D02*
X1426552D01*
X1434172D02*
X1477860D01*
X1412328Y350952D02*
X1426044D01*
X1434172D02*
X1452968D01*
X1456524D02*
X1478368D01*
X1412328Y350444D02*
X1426044D01*
X1434680D02*
X1450428D01*
X1459064D02*
X1478876D01*
X1412328Y349936D02*
X1425536D01*
X1434680D02*
X1448904D01*
X1460588D02*
X1478876D01*
X1411820Y349428D02*
X1425536D01*
X1434680D02*
X1447380D01*
X1461604D02*
X1479384D01*
X1411820Y348920D02*
X1425028D01*
X1435188D02*
X1446364D01*
X1462620D02*
X1479892D01*
X1411820Y348412D02*
X1425028D01*
X1435696D02*
X1445856D01*
X1463636D02*
X1479892D01*
X1411312Y347904D02*
X1424520D01*
X1435696D02*
X1444840D01*
X1464144D02*
X1480400D01*
X1411312Y347396D02*
X1424520D01*
X1436204D02*
X1444332D01*
X1464652D02*
X1480400D01*
X1411312Y346888D02*
X1424520D01*
X1437220D02*
X1443824D01*
X1465668D02*
X1480908D01*
X1410804Y346380D02*
X1424012D01*
X1438236D02*
X1442300D01*
X1466176D02*
X1480908D01*
X1410804Y345872D02*
X1424012D01*
X1466684D02*
X1481416D01*
X1410804Y345364D02*
X1423504D01*
X1467192D02*
X1481416D01*
X1410804Y344856D02*
X1423504D01*
X1467192D02*
X1481416D01*
X1410296Y344348D02*
X1423504D01*
X1467700D02*
X1481924D01*
X1410296Y343840D02*
X1422996D01*
X1468208D02*
X1481924D01*
X1410296Y343332D02*
X1422996D01*
X1468716D02*
X1481924D01*
X1410296Y342824D02*
X1422996D01*
X1468716D02*
X1482432D01*
X1410296Y342316D02*
X1422996D01*
X1469224D02*
X1482432D01*
X1409788Y341808D02*
X1422488D01*
X1469224D02*
X1482432D01*
X1409788Y341300D02*
X1422488D01*
X1469732D02*
X1482940D01*
X1409788Y340792D02*
X1455508D01*
X1469732D02*
X1482940D01*
X1409788Y340284D02*
X1457540D01*
X1470240D02*
X1482940D01*
X1409788Y339776D02*
X1458556D01*
X1470240D02*
X1482940D01*
X1409788Y339268D02*
X1459064D01*
X1470240D02*
X1482940D01*
X1409788Y338760D02*
X1459572D01*
X1470748D02*
X1482940D01*
X1409788Y338252D02*
X1460080D01*
X1470748D02*
X1483448D01*
X1409788Y337744D02*
X1453476D01*
X1455508D02*
X1460080D01*
X1470748D02*
X1483448D01*
X1409788Y337236D02*
X1452968D01*
X1456524D02*
X1460588D01*
X1470748D02*
X1483448D01*
X1409280Y336728D02*
X1451952D01*
X1457032D02*
X1460588D01*
X1470748D02*
X1483448D01*
X1409280Y336220D02*
X1451952D01*
X1457540D02*
X1460588D01*
X1470748D02*
X1483448D01*
X1409280Y335712D02*
X1451444D01*
X1458048D02*
X1461096D01*
X1471256D02*
X1483448D01*
X1409280Y335204D02*
X1451444D01*
X1458048D02*
X1461096D01*
X1471256D02*
X1483448D01*
X1409280Y334696D02*
X1451444D01*
X1458048D02*
X1461096D01*
X1471256D02*
X1483448D01*
X1409280Y334188D02*
X1451444D01*
X1458048D02*
X1461096D01*
X1471256D02*
X1483448D01*
X1409280Y333680D02*
X1451444D01*
X1458048D02*
X1461096D01*
X1471256D02*
X1483448D01*
X1409280Y333172D02*
X1451952D01*
X1457540D02*
X1461096D01*
X1471256D02*
X1483448D01*
X1409280Y332664D02*
X1451952D01*
X1457540D02*
X1460588D01*
X1470748D02*
X1483448D01*
X1409280Y332156D02*
X1452460D01*
X1457032D02*
X1460588D01*
X1470748D02*
X1483448D01*
X1409788Y331648D02*
X1452968D01*
X1456016D02*
X1460080D01*
X1470748D02*
X1483448D01*
X1409788Y331140D02*
X1460080D01*
X1470748D02*
X1483448D01*
X1409788Y330632D02*
X1459572D01*
X1470748D02*
X1483448D01*
X1409788Y330124D02*
X1459064D01*
X1470240D02*
X1482940D01*
X1409788Y329616D02*
X1458556D01*
X1470240D02*
X1482940D01*
X1409788Y329108D02*
X1457540D01*
X1470240D02*
X1482940D01*
X1409788Y328600D02*
X1456016D01*
X1469732D02*
X1482940D01*
X1409788Y328092D02*
X1422488D01*
X1469732D02*
X1482940D01*
X1409788Y327584D02*
X1422488D01*
X1469732D02*
X1482432D01*
X1410296Y327076D02*
X1422488D01*
X1469224D02*
X1482432D01*
X1410296Y326568D02*
X1422996D01*
X1468716D02*
X1482432D01*
X1410296Y326060D02*
X1422996D01*
X1468716D02*
X1482432D01*
X1410296Y325552D02*
X1422996D01*
X1468208D02*
X1481924D01*
X1410296Y325044D02*
X1423504D01*
X1468208D02*
X1481924D01*
X1410804Y324536D02*
X1423504D01*
X1467700D02*
X1481924D01*
X1410804Y324028D02*
X1423504D01*
X1467192D02*
X1481416D01*
X1410804Y323520D02*
X1424012D01*
X1466684D02*
X1481416D01*
X1410804Y323012D02*
X1424012D01*
X1438744D02*
X1441792D01*
X1466176D02*
X1480908D01*
X1411312Y322504D02*
X1424012D01*
X1437728D02*
X1443316D01*
X1465668D02*
X1480908D01*
X1411312Y321996D02*
X1424520D01*
X1436712D02*
X1443824D01*
X1465160D02*
X1480400D01*
X1411312Y321488D02*
X1424520D01*
X1436204D02*
X1444840D01*
X1464652D02*
X1480400D01*
X1411312Y320980D02*
X1425028D01*
X1435696D02*
X1445348D01*
X1463636D02*
X1479892D01*
X1411820Y320472D02*
X1425028D01*
X1435188D02*
X1446364D01*
X1463128D02*
X1479892D01*
X1411820Y319964D02*
X1425536D01*
X1434680D02*
X1447380D01*
X1462112D02*
X1479384D01*
X1411820Y319456D02*
X1425536D01*
X1434680D02*
X1448396D01*
X1461096D02*
X1479384D01*
X1412328Y318948D02*
X1426044D01*
X1434680D02*
X1449412D01*
X1459572D02*
X1478876D01*
X1412328Y318440D02*
X1426044D01*
X1434172D02*
X1451444D01*
X1457540D02*
X1478368D01*
X1412836Y317932D02*
X1426552D01*
X1434172D02*
X1478368D01*
X1412836Y317424D02*
X1426552D01*
X1434172D02*
X1477860D01*
X1412836Y316916D02*
X1427060D01*
X1434172D02*
X1477352D01*
X1413344Y316408D02*
X1427568D01*
X1434172D02*
X1476844D01*
X1413344Y315900D02*
X1427568D01*
X1434172D02*
X1476844D01*
X1413852Y315392D02*
X1428076D01*
X1434172D02*
X1476336D01*
X1413852Y314884D02*
X1428584D01*
X1434680D02*
X1475828D01*
X1414360Y314376D02*
X1429092D01*
X1434680D02*
X1475320D01*
X1414360Y313868D02*
X1429092D01*
X1435188D02*
X1474812D01*
X1414868Y313360D02*
X1429600D01*
X1435188D02*
X1474304D01*
X1414868Y312852D02*
X1430108D01*
X1435696D02*
X1473796D01*
X1415376Y312344D02*
X1430616D01*
X1436204D02*
X1472780D01*
X1415376Y311836D02*
X1431124D01*
X1436712D02*
X1472272D01*
X1415884Y311328D02*
X1431632D01*
X1437728D02*
X1471764D01*
X1416392Y310820D02*
X1432140D01*
X1438236D02*
X1471256D01*
X1416392Y310312D02*
X1432648D01*
X1438744D02*
X1470240D01*
X1477860D02*
X1480400D01*
X1416900Y309804D02*
X1433156D01*
X1439760D02*
X1469224D01*
X1476336D02*
X1481924D01*
X1417408Y309296D02*
X1433664D01*
X1440776D02*
X1468716D01*
X1475828D02*
X1482940D01*
X1417408Y308788D02*
X1434680D01*
X1441792D02*
X1467700D01*
X1474812D02*
X1483448D01*
X1417916Y308280D02*
X1435188D01*
X1442808D02*
X1466684D01*
X1474304D02*
X1483956D01*
X1418424Y307772D02*
X1435696D01*
X1443824D02*
X1465160D01*
X1473796D02*
X1484464D01*
X1418424Y307264D02*
X1436712D01*
X1445348D02*
X1464144D01*
X1472780D02*
X1484464D01*
X1418932Y306756D02*
X1437220D01*
X1446872D02*
X1462112D01*
X1472272D02*
X1484972D01*
X1419440Y306248D02*
X1438236D01*
X1449412D02*
X1460080D01*
X1471256D02*
X1477860D01*
X1480400D02*
X1484972D01*
X1419948Y305740D02*
X1439252D01*
X1470240D02*
X1477352D01*
X1480908D02*
X1485480D01*
X1420456Y305232D02*
X1440268D01*
X1469224D02*
X1476844D01*
X1481416D02*
X1485480D01*
X1420964Y304724D02*
X1441284D01*
X1468208D02*
X1476844D01*
X1481416D02*
X1485480D01*
X1420964Y304216D02*
X1442300D01*
X1467192D02*
X1476844D01*
X1481416D02*
X1485480D01*
X1421472Y303708D02*
X1443316D01*
X1465668D02*
X1476844D01*
X1481416D02*
X1485480D01*
X1421980Y303200D02*
X1444840D01*
X1464144D02*
X1477352D01*
X1481416D02*
X1485480D01*
X1422488Y302692D02*
X1446872D01*
X1462620D02*
X1477352D01*
X1480908D02*
X1485480D01*
X1422996Y302184D02*
X1449412D01*
X1460080D02*
X1478368D01*
X1480400D02*
X1484972D01*
X1423504Y301676D02*
X1484972D01*
X1424012Y301168D02*
X1484464D01*
X1424520Y300660D02*
X1484464D01*
X1425536Y300152D02*
X1483956D01*
X1426044Y299644D02*
X1483448D01*
X1426552Y299136D02*
X1482940D01*
X1427060Y298628D02*
X1481924D01*
X1428076Y298120D02*
X1481416D01*
X1428584Y297612D02*
X1480908D01*
X1429092Y297104D02*
X1479892D01*
X1430108Y296596D02*
X1479384D01*
X1431124Y296088D02*
X1478368D01*
X1431632Y295580D02*
X1477860D01*
X1432648Y295072D02*
X1476844D01*
X1433664Y294564D02*
X1475828D01*
X1434680Y294056D02*
X1474812D01*
X1435696Y293548D02*
X1473796D01*
X1436712Y293040D02*
X1472780D01*
X1438236Y292532D02*
X1471256D01*
X1439252Y292024D02*
X1470240D01*
X1440776Y291516D02*
X1468716D01*
X1442300Y291008D02*
X1466684D01*
X1444332Y290500D02*
X1464652D01*
X1447380Y289992D02*
X1462112D01*
X1451444Y289484D02*
X1458048D01*
X891444D02*
X898048D01*
X887380Y289992D02*
X902112D01*
X884332Y290500D02*
X904652D01*
X882300Y291008D02*
X906684D01*
X880776Y291516D02*
X908716D01*
X879252Y292024D02*
X910240D01*
X878236Y292532D02*
X911256D01*
X876712Y293040D02*
X912780D01*
X875696Y293548D02*
X913796D01*
X874680Y294056D02*
X914812D01*
X873664Y294564D02*
X915828D01*
X872648Y295072D02*
X916844D01*
X871632Y295580D02*
X917860D01*
X871124Y296088D02*
X918368D01*
X870108Y296596D02*
X919384D01*
X869092Y297104D02*
X919892D01*
X868584Y297612D02*
X920908D01*
X868076Y298120D02*
X921416D01*
X867060Y298628D02*
X921924D01*
X866552Y299136D02*
X922940D01*
X866044Y299644D02*
X923448D01*
X865536Y300152D02*
X923956D01*
X864520Y300660D02*
X924464D01*
X864012Y301168D02*
X924464D01*
X863504Y301676D02*
X924972D01*
X920400Y302184D02*
X924972D01*
X900080D02*
X918368D01*
X862996D02*
X889412D01*
X920908Y302692D02*
X925480D01*
X902620D02*
X917352D01*
X862488D02*
X886872D01*
X921416Y303200D02*
X925480D01*
X904144D02*
X917352D01*
X861980D02*
X884840D01*
X921416Y303708D02*
X925480D01*
X905668D02*
X916844D01*
X861472D02*
X883316D01*
X921416Y304216D02*
X925480D01*
X907192D02*
X916844D01*
X860964D02*
X882300D01*
X921416Y304724D02*
X925480D01*
X908208D02*
X916844D01*
X860964D02*
X881284D01*
X921416Y305232D02*
X925480D01*
X909224D02*
X916844D01*
X860456D02*
X880268D01*
X920908Y305740D02*
X925480D01*
X910240D02*
X917352D01*
X859948D02*
X879252D01*
X920400Y306248D02*
X924972D01*
X911256D02*
X917860D01*
X889412D02*
X900080D01*
X859440D02*
X878236D01*
X912272Y306756D02*
X924972D01*
X886872D02*
X902112D01*
X858932D02*
X877220D01*
X912780Y307264D02*
X924464D01*
X885348D02*
X904144D01*
X858424D02*
X876712D01*
X913796Y307772D02*
X924464D01*
X883824D02*
X905160D01*
X858424D02*
X875696D01*
X914304Y308280D02*
X923956D01*
X882808D02*
X906684D01*
X857916D02*
X875188D01*
X914812Y308788D02*
X923448D01*
X881792D02*
X907700D01*
X857408D02*
X874680D01*
X915828Y309296D02*
X922940D01*
X880776D02*
X908716D01*
X857408D02*
X873664D01*
X916336Y309804D02*
X921924D01*
X879760D02*
X909224D01*
X856900D02*
X873156D01*
X917860Y310312D02*
X920400D01*
X878744D02*
X910240D01*
X856392D02*
X872648D01*
X878236Y310820D02*
X911256D01*
X856392D02*
X872140D01*
X877728Y311328D02*
X911764D01*
X855884D02*
X871632D01*
X876712Y311836D02*
X912272D01*
X855376D02*
X871124D01*
X876204Y312344D02*
X912780D01*
X855376D02*
X870616D01*
X875696Y312852D02*
X913796D01*
X854868D02*
X870108D01*
X875188Y313360D02*
X914304D01*
X854868D02*
X869600D01*
X875188Y313868D02*
X914812D01*
X854360D02*
X869092D01*
X874680Y314376D02*
X915320D01*
X854360D02*
X869092D01*
X874680Y314884D02*
X915828D01*
X853852D02*
X868584D01*
X874172Y315392D02*
X916336D01*
X853852D02*
X868076D01*
X874172Y315900D02*
X916844D01*
X853344D02*
X867568D01*
X874172Y316408D02*
X916844D01*
X853344D02*
X867568D01*
X874172Y316916D02*
X917352D01*
X852836D02*
X867060D01*
X874172Y317424D02*
X917860D01*
X852836D02*
X866552D01*
X874172Y317932D02*
X918368D01*
X852836D02*
X866552D01*
X897540Y318440D02*
X918368D01*
X874172D02*
X891444D01*
X852328D02*
X866044D01*
X899572Y318948D02*
X918876D01*
X874680D02*
X889412D01*
X852328D02*
X866044D01*
X901096Y319456D02*
X919384D01*
X874680D02*
X888396D01*
X851820D02*
X865536D01*
X902112Y319964D02*
X919384D01*
X874680D02*
X887380D01*
X851820D02*
X865536D01*
X903128Y320472D02*
X919892D01*
X875188D02*
X886364D01*
X851820D02*
X865028D01*
X903636Y320980D02*
X919892D01*
X875696D02*
X885348D01*
X851312D02*
X865028D01*
X904652Y321488D02*
X920400D01*
X876204D02*
X884840D01*
X851312D02*
X864520D01*
X905160Y321996D02*
X920400D01*
X876712D02*
X883824D01*
X851312D02*
X864520D01*
X905668Y322504D02*
X920908D01*
X877728D02*
X883316D01*
X851312D02*
X864012D01*
X906176Y323012D02*
X920908D01*
X878744D02*
X881792D01*
X850804D02*
X864012D01*
X906684Y323520D02*
X921416D01*
X850804D02*
X864012D01*
X907192Y324028D02*
X921416D01*
X850804D02*
X863504D01*
X907700Y324536D02*
X921924D01*
X850804D02*
X863504D01*
X908208Y325044D02*
X921924D01*
X850296D02*
X863504D01*
X908208Y325552D02*
X921924D01*
X850296D02*
X862996D01*
X908716Y326060D02*
X922432D01*
X850296D02*
X862996D01*
X908716Y326568D02*
X922432D01*
X850296D02*
X862996D01*
X909224Y327076D02*
X922432D01*
X850296D02*
X862488D01*
X909732Y327584D02*
X922432D01*
X849788D02*
X862488D01*
X909732Y328092D02*
X922940D01*
X849788D02*
X862488D01*
X909732Y328600D02*
X922940D01*
X849788D02*
X896016D01*
X910240Y329108D02*
X922940D01*
X849788D02*
X897540D01*
X910240Y329616D02*
X922940D01*
X849788D02*
X898556D01*
X910240Y330124D02*
X922940D01*
X849788D02*
X899064D01*
X910748Y330632D02*
X923448D01*
X849788D02*
X899572D01*
X910748Y331140D02*
X923448D01*
X849788D02*
X900080D01*
X910748Y331648D02*
X923448D01*
X896016D02*
X900080D01*
X849788D02*
X892968D01*
X910748Y332156D02*
X923448D01*
X897032D02*
X900588D01*
X849280D02*
X892460D01*
X910748Y332664D02*
X923448D01*
X897540D02*
X900588D01*
X849280D02*
X891952D01*
X911256Y333172D02*
X923448D01*
X897540D02*
X901096D01*
X849280D02*
X891952D01*
X911256Y333680D02*
X923448D01*
X898048D02*
X901096D01*
X849280D02*
X891444D01*
X911256Y334188D02*
X923448D01*
X898048D02*
X901096D01*
X849280D02*
X891444D01*
X911256Y334696D02*
X923448D01*
X898048D02*
X901096D01*
X849280D02*
X891444D01*
X911256Y335204D02*
X923448D01*
X898048D02*
X901096D01*
X849280D02*
X891444D01*
X911256Y335712D02*
X923448D01*
X898048D02*
X901096D01*
X849280D02*
X891444D01*
X910748Y336220D02*
X923448D01*
X897540D02*
X900588D01*
X849280D02*
X891952D01*
X910748Y336728D02*
X923448D01*
X897032D02*
X900588D01*
X849280D02*
X891952D01*
X910748Y337236D02*
X923448D01*
X896524D02*
X900588D01*
X849788D02*
X892968D01*
X910748Y337744D02*
X923448D01*
X895508D02*
X900080D01*
X849788D02*
X893476D01*
X910748Y338252D02*
X923448D01*
X849788D02*
X900080D01*
X910748Y338760D02*
X922940D01*
X849788D02*
X899572D01*
X910240Y339268D02*
X922940D01*
X849788D02*
X899064D01*
X910240Y339776D02*
X922940D01*
X849788D02*
X898556D01*
X910240Y340284D02*
X922940D01*
X849788D02*
X897540D01*
X909732Y340792D02*
X922940D01*
X849788D02*
X895508D01*
X909732Y341300D02*
X922940D01*
X849788D02*
X862488D01*
X909224Y341808D02*
X922432D01*
X849788D02*
X862488D01*
X909224Y342316D02*
X922432D01*
X850296D02*
X862996D01*
X908716Y342824D02*
X922432D01*
X850296D02*
X862996D01*
X908716Y343332D02*
X921924D01*
X850296D02*
X862996D01*
X908208Y343840D02*
X921924D01*
X850296D02*
X862996D01*
X907700Y344348D02*
X921924D01*
X850296D02*
X863504D01*
X907192Y344856D02*
X921416D01*
X850804D02*
X863504D01*
X907192Y345364D02*
X921416D01*
X850804D02*
X863504D01*
X906684Y345872D02*
X921416D01*
X850804D02*
X864012D01*
X906176Y346380D02*
X920908D01*
X878236D02*
X882300D01*
X850804D02*
X864012D01*
X905668Y346888D02*
X920908D01*
X877220D02*
X883824D01*
X851312D02*
X864520D01*
X904652Y347396D02*
X920400D01*
X876204D02*
X884332D01*
X851312D02*
X864520D01*
X904144Y347904D02*
X920400D01*
X875696D02*
X884840D01*
X851312D02*
X864520D01*
X903636Y348412D02*
X919892D01*
X875696D02*
X885856D01*
X851820D02*
X865028D01*
X902620Y348920D02*
X919892D01*
X875188D02*
X886364D01*
X851820D02*
X865028D01*
X901604Y349428D02*
X919384D01*
X874680D02*
X887380D01*
X851820D02*
X865536D01*
X900588Y349936D02*
X918876D01*
X874680D02*
X888904D01*
X852328D02*
X865536D01*
X899064Y350444D02*
X918876D01*
X874680D02*
X890428D01*
X852328D02*
X866044D01*
X896524Y350952D02*
X918368D01*
X874172D02*
X892968D01*
X852328D02*
X866044D01*
X874172Y351460D02*
X917860D01*
X852836D02*
X866552D01*
X874172Y351968D02*
X917860D01*
X852836D02*
X867060D01*
X874172Y352476D02*
X917352D01*
X853344D02*
X867060D01*
X874172Y352984D02*
X916844D01*
X853344D02*
X867568D01*
X874172Y353492D02*
X916336D01*
X853344D02*
X868076D01*
X874680Y354000D02*
X915828D01*
X853852D02*
X868076D01*
X874680Y354508D02*
X915320D01*
X853852D02*
X868584D01*
X874680Y355016D02*
X914812D01*
X854360D02*
X869092D01*
X875188Y355524D02*
X914304D01*
X854360D02*
X869600D01*
X875696Y356032D02*
X913796D01*
X854868D02*
X870108D01*
X875696Y356540D02*
X913288D01*
X855376D02*
X870108D01*
X876712Y357048D02*
X912780D01*
X855376D02*
X870616D01*
X877220Y357556D02*
X912272D01*
X855884D02*
X871124D01*
X877728Y358064D02*
X911256D01*
X855884D02*
X871632D01*
X878744Y358572D02*
X910748D01*
X856392D02*
X872140D01*
X917352Y359080D02*
X921416D01*
X879252D02*
X909732D01*
X856900D02*
X872648D01*
X915828Y359588D02*
X922432D01*
X880268D02*
X909224D01*
X856900D02*
X873664D01*
X915320Y360096D02*
X922940D01*
X881284D02*
X908208D01*
X857408D02*
X874172D01*
X914812Y360604D02*
X923956D01*
X882300D02*
X907192D01*
X857916D02*
X874680D01*
X913796Y361112D02*
X923956D01*
X883316D02*
X906176D01*
X857916D02*
X875188D01*
X913288Y361620D02*
X924464D01*
X884332D02*
X904652D01*
X858424D02*
X876204D01*
X912272Y362128D02*
X924972D01*
X885856D02*
X903128D01*
X858932D02*
X876712D01*
X920400Y362636D02*
X924972D01*
X911764D02*
X918368D01*
X887888D02*
X901604D01*
X859440D02*
X877728D01*
X920908Y363144D02*
X924972D01*
X910748D02*
X917352D01*
X890428D02*
X898556D01*
X859440D02*
X878744D01*
X921416Y363652D02*
X925480D01*
X909732D02*
X917352D01*
X859948D02*
X879252D01*
X921416Y364160D02*
X925480D01*
X908716D02*
X916844D01*
X860456D02*
X880268D01*
X921416Y364668D02*
X925480D01*
X907700D02*
X916844D01*
X860964D02*
X881792D01*
X921416Y365176D02*
X925480D01*
X906684D02*
X916844D01*
X861472D02*
X882808D01*
X921416Y365684D02*
X925480D01*
X905160D02*
X916844D01*
X861980D02*
X884332D01*
X920908Y366192D02*
X925480D01*
X903636D02*
X917352D01*
X862488D02*
X885856D01*
X920400Y366700D02*
X924972D01*
X901604D02*
X917860D01*
X862996D02*
X887888D01*
X898556Y367208D02*
X924972D01*
X863504D02*
X890936D01*
X864012Y367716D02*
X924972D01*
X864520Y368224D02*
X924464D01*
X865028Y368732D02*
X923956D01*
X865536Y369240D02*
X923956D01*
X866044Y369748D02*
X923448D01*
X867060Y370256D02*
X922432D01*
X867568Y370764D02*
X921924D01*
X868076Y371272D02*
X921416D01*
X869092Y371780D02*
X920400D01*
X869600Y372288D02*
X919892D01*
X870616Y372796D02*
X918876D01*
X871124Y373304D02*
X918368D01*
X872140Y373812D02*
X917352D01*
X873156Y374320D02*
X916336D01*
X874172Y374828D02*
X915320D01*
X875188Y375336D02*
X914304D01*
X876204Y375844D02*
X913288D01*
X877220Y376352D02*
X912272D01*
X878744Y376860D02*
X910748D01*
X879760Y377368D02*
X909224D01*
X881284Y377876D02*
X907700D01*
X883316Y378384D02*
X906176D01*
X885348Y378892D02*
X903636D01*
X888396Y379400D02*
X900588D01*
X328396D02*
X340588D01*
X325348Y378892D02*
X343636D01*
X323316Y378384D02*
X346176D01*
X321284Y377876D02*
X347700D01*
X319760Y377368D02*
X349224D01*
X318744Y376860D02*
X350748D01*
X317220Y376352D02*
X352272D01*
X316204Y375844D02*
X353288D01*
X315188Y375336D02*
X354304D01*
X314172Y374828D02*
X355320D01*
X313156Y374320D02*
X356336D01*
X312140Y373812D02*
X357352D01*
X311124Y373304D02*
X358368D01*
X310616Y372796D02*
X358876D01*
X309600Y372288D02*
X359892D01*
X309092Y371780D02*
X360400D01*
X308076Y371272D02*
X361416D01*
X307568Y370764D02*
X361924D01*
X307060Y370256D02*
X362432D01*
X306044Y369748D02*
X363448D01*
X305536Y369240D02*
X363956D01*
X305028Y368732D02*
X363956D01*
X304520Y368224D02*
X364464D01*
X304012Y367716D02*
X364972D01*
X303504Y367208D02*
X330936D01*
X338556D02*
X364972D01*
X302996Y366700D02*
X327888D01*
X341604D02*
X357860D01*
X360400D02*
X364972D01*
X302488Y366192D02*
X325856D01*
X343636D02*
X357352D01*
X360908D02*
X365480D01*
X301980Y365684D02*
X324332D01*
X345160D02*
X356844D01*
X361416D02*
X365480D01*
X301472Y365176D02*
X322808D01*
X346684D02*
X356844D01*
X361416D02*
X365480D01*
X300964Y364668D02*
X321792D01*
X347700D02*
X356844D01*
X361416D02*
X365480D01*
X300456Y364160D02*
X320268D01*
X348716D02*
X356844D01*
X361416D02*
X365480D01*
X299948Y363652D02*
X319252D01*
X349732D02*
X357352D01*
X361416D02*
X365480D01*
X299440Y363144D02*
X318744D01*
X330428D02*
X338556D01*
X350748D02*
X357352D01*
X360908D02*
X364972D01*
X299440Y362636D02*
X317728D01*
X327888D02*
X341604D01*
X351764D02*
X358368D01*
X360400D02*
X364972D01*
X298932Y362128D02*
X316712D01*
X325856D02*
X343128D01*
X352272D02*
X364972D01*
X298424Y361620D02*
X316204D01*
X324332D02*
X344652D01*
X353288D02*
X364464D01*
X297916Y361112D02*
X315188D01*
X323316D02*
X346176D01*
X353796D02*
X363956D01*
X297916Y360604D02*
X314680D01*
X322300D02*
X347192D01*
X354812D02*
X363956D01*
X297408Y360096D02*
X314172D01*
X321284D02*
X348208D01*
X355320D02*
X362940D01*
X296900Y359588D02*
X313664D01*
X320268D02*
X349224D01*
X355828D02*
X362432D01*
X296900Y359080D02*
X312648D01*
X319252D02*
X349732D01*
X357352D02*
X361416D01*
X296392Y358572D02*
X312140D01*
X318744D02*
X350748D01*
X295884Y358064D02*
X311632D01*
X317728D02*
X351256D01*
X295884Y357556D02*
X311124D01*
X317220D02*
X352272D01*
X295376Y357048D02*
X310616D01*
X316712D02*
X352780D01*
X295376Y356540D02*
X310108D01*
X315696D02*
X353288D01*
X294868Y356032D02*
X310108D01*
X315696D02*
X353796D01*
X294360Y355524D02*
X309600D01*
X315188D02*
X354304D01*
X294360Y355016D02*
X309092D01*
X314680D02*
X354812D01*
X293852Y354508D02*
X308584D01*
X314680D02*
X355320D01*
X293852Y354000D02*
X308076D01*
X314680D02*
X355828D01*
X293344Y353492D02*
X308076D01*
X314172D02*
X356336D01*
X293344Y352984D02*
X307568D01*
X314172D02*
X356844D01*
X293344Y352476D02*
X307060D01*
X314172D02*
X357352D01*
X292836Y351968D02*
X307060D01*
X314172D02*
X357860D01*
X292836Y351460D02*
X306552D01*
X314172D02*
X357860D01*
X292328Y350952D02*
X306044D01*
X314172D02*
X332968D01*
X336524D02*
X358368D01*
X292328Y350444D02*
X306044D01*
X314680D02*
X330428D01*
X339064D02*
X358876D01*
X292328Y349936D02*
X305536D01*
X314680D02*
X328904D01*
X340588D02*
X358876D01*
X291820Y349428D02*
X305536D01*
X314680D02*
X327380D01*
X341604D02*
X359384D01*
X291820Y348920D02*
X305028D01*
X315188D02*
X326364D01*
X342620D02*
X359892D01*
X291820Y348412D02*
X305028D01*
X315696D02*
X325856D01*
X343636D02*
X359892D01*
X291312Y347904D02*
X304520D01*
X315696D02*
X324840D01*
X344144D02*
X360400D01*
X291312Y347396D02*
X304520D01*
X316204D02*
X324332D01*
X344652D02*
X360400D01*
X291312Y346888D02*
X304520D01*
X317220D02*
X323824D01*
X345668D02*
X360908D01*
X290804Y346380D02*
X304012D01*
X318236D02*
X322300D01*
X346176D02*
X360908D01*
X290804Y345872D02*
X304012D01*
X346684D02*
X361416D01*
X290804Y345364D02*
X303504D01*
X347192D02*
X361416D01*
X290804Y344856D02*
X303504D01*
X347192D02*
X361416D01*
X290296Y344348D02*
X303504D01*
X347700D02*
X361924D01*
X290296Y343840D02*
X302996D01*
X348208D02*
X361924D01*
X290296Y343332D02*
X302996D01*
X348716D02*
X361924D01*
X290296Y342824D02*
X302996D01*
X348716D02*
X362432D01*
X290296Y342316D02*
X302996D01*
X349224D02*
X362432D01*
X289788Y341808D02*
X302488D01*
X349224D02*
X362432D01*
X289788Y341300D02*
X302488D01*
X349732D02*
X362940D01*
X289788Y340792D02*
X335508D01*
X349732D02*
X362940D01*
X289788Y340284D02*
X337540D01*
X350240D02*
X362940D01*
X289788Y339776D02*
X338556D01*
X350240D02*
X362940D01*
X289788Y339268D02*
X339064D01*
X350240D02*
X362940D01*
X289788Y338760D02*
X339572D01*
X350748D02*
X362940D01*
X289788Y338252D02*
X340080D01*
X350748D02*
X363448D01*
X289788Y337744D02*
X333476D01*
X335508D02*
X340080D01*
X350748D02*
X363448D01*
X289788Y337236D02*
X332968D01*
X336524D02*
X340588D01*
X350748D02*
X363448D01*
X289280Y336728D02*
X331952D01*
X337032D02*
X340588D01*
X350748D02*
X363448D01*
X289280Y336220D02*
X331952D01*
X337540D02*
X340588D01*
X350748D02*
X363448D01*
X289280Y335712D02*
X331444D01*
X338048D02*
X341096D01*
X351256D02*
X363448D01*
X289280Y335204D02*
X331444D01*
X338048D02*
X341096D01*
X351256D02*
X363448D01*
X289280Y334696D02*
X331444D01*
X338048D02*
X341096D01*
X351256D02*
X363448D01*
X289280Y334188D02*
X331444D01*
X338048D02*
X341096D01*
X351256D02*
X363448D01*
X289280Y333680D02*
X331444D01*
X338048D02*
X341096D01*
X351256D02*
X363448D01*
X289280Y333172D02*
X331952D01*
X337540D02*
X341096D01*
X351256D02*
X363448D01*
X289280Y332664D02*
X331952D01*
X337540D02*
X340588D01*
X350748D02*
X363448D01*
X289280Y332156D02*
X332460D01*
X337032D02*
X340588D01*
X350748D02*
X363448D01*
X289788Y331648D02*
X332968D01*
X336016D02*
X340080D01*
X350748D02*
X363448D01*
X289788Y331140D02*
X340080D01*
X350748D02*
X363448D01*
X289788Y330632D02*
X339572D01*
X350748D02*
X363448D01*
X289788Y330124D02*
X339064D01*
X350240D02*
X362940D01*
X289788Y329616D02*
X338556D01*
X350240D02*
X362940D01*
X289788Y329108D02*
X337540D01*
X350240D02*
X362940D01*
X289788Y328600D02*
X336016D01*
X349732D02*
X362940D01*
X289788Y328092D02*
X302488D01*
X349732D02*
X362940D01*
X289788Y327584D02*
X302488D01*
X349732D02*
X362432D01*
X290296Y327076D02*
X302488D01*
X349224D02*
X362432D01*
X290296Y326568D02*
X302996D01*
X348716D02*
X362432D01*
X290296Y326060D02*
X302996D01*
X348716D02*
X362432D01*
X290296Y325552D02*
X302996D01*
X348208D02*
X361924D01*
X290296Y325044D02*
X303504D01*
X348208D02*
X361924D01*
X290804Y324536D02*
X303504D01*
X347700D02*
X361924D01*
X290804Y324028D02*
X303504D01*
X347192D02*
X361416D01*
X290804Y323520D02*
X304012D01*
X346684D02*
X361416D01*
X290804Y323012D02*
X304012D01*
X318744D02*
X321792D01*
X346176D02*
X360908D01*
X291312Y322504D02*
X304012D01*
X317728D02*
X323316D01*
X345668D02*
X360908D01*
X291312Y321996D02*
X304520D01*
X316712D02*
X323824D01*
X345160D02*
X360400D01*
X291312Y321488D02*
X304520D01*
X316204D02*
X324840D01*
X344652D02*
X360400D01*
X291312Y320980D02*
X305028D01*
X315696D02*
X325348D01*
X343636D02*
X359892D01*
X291820Y320472D02*
X305028D01*
X315188D02*
X326364D01*
X343128D02*
X359892D01*
X291820Y319964D02*
X305536D01*
X314680D02*
X327380D01*
X342112D02*
X359384D01*
X291820Y319456D02*
X305536D01*
X314680D02*
X328396D01*
X341096D02*
X359384D01*
X292328Y318948D02*
X306044D01*
X314680D02*
X329412D01*
X339572D02*
X358876D01*
X292328Y318440D02*
X306044D01*
X314172D02*
X331444D01*
X337540D02*
X358368D01*
X292836Y317932D02*
X306552D01*
X314172D02*
X358368D01*
X292836Y317424D02*
X306552D01*
X314172D02*
X357860D01*
X292836Y316916D02*
X307060D01*
X314172D02*
X357352D01*
X293344Y316408D02*
X307568D01*
X314172D02*
X356844D01*
X293344Y315900D02*
X307568D01*
X314172D02*
X356844D01*
X293852Y315392D02*
X308076D01*
X314172D02*
X356336D01*
X293852Y314884D02*
X308584D01*
X314680D02*
X355828D01*
X294360Y314376D02*
X309092D01*
X314680D02*
X355320D01*
X294360Y313868D02*
X309092D01*
X315188D02*
X354812D01*
X294868Y313360D02*
X309600D01*
X315188D02*
X354304D01*
X294868Y312852D02*
X310108D01*
X315696D02*
X353796D01*
X295376Y312344D02*
X310616D01*
X316204D02*
X352780D01*
X295376Y311836D02*
X311124D01*
X316712D02*
X352272D01*
X295884Y311328D02*
X311632D01*
X317728D02*
X351764D01*
X296392Y310820D02*
X312140D01*
X318236D02*
X351256D01*
X296392Y310312D02*
X312648D01*
X318744D02*
X350240D01*
X357860D02*
X360400D01*
X296900Y309804D02*
X313156D01*
X319760D02*
X349224D01*
X356336D02*
X361924D01*
X297408Y309296D02*
X313664D01*
X320776D02*
X348716D01*
X355828D02*
X362940D01*
X297408Y308788D02*
X314680D01*
X321792D02*
X347700D01*
X354812D02*
X363448D01*
X297916Y308280D02*
X315188D01*
X322808D02*
X346684D01*
X354304D02*
X363956D01*
X298424Y307772D02*
X315696D01*
X323824D02*
X345160D01*
X353796D02*
X364464D01*
X298424Y307264D02*
X316712D01*
X325348D02*
X344144D01*
X352780D02*
X364464D01*
X298932Y306756D02*
X317220D01*
X326872D02*
X342112D01*
X352272D02*
X364972D01*
X299440Y306248D02*
X318236D01*
X329412D02*
X340080D01*
X351256D02*
X357860D01*
X360400D02*
X364972D01*
X299948Y305740D02*
X319252D01*
X350240D02*
X357352D01*
X360908D02*
X365480D01*
X300456Y305232D02*
X320268D01*
X349224D02*
X356844D01*
X361416D02*
X365480D01*
X300964Y304724D02*
X321284D01*
X348208D02*
X356844D01*
X361416D02*
X365480D01*
X300964Y304216D02*
X322300D01*
X347192D02*
X356844D01*
X361416D02*
X365480D01*
X301472Y303708D02*
X323316D01*
X345668D02*
X356844D01*
X361416D02*
X365480D01*
X301980Y303200D02*
X324840D01*
X344144D02*
X357352D01*
X361416D02*
X365480D01*
X302488Y302692D02*
X326872D01*
X342620D02*
X357352D01*
X360908D02*
X365480D01*
X302996Y302184D02*
X329412D01*
X340080D02*
X358368D01*
X360400D02*
X364972D01*
X303504Y301676D02*
X364972D01*
X304012Y301168D02*
X364464D01*
X304520Y300660D02*
X364464D01*
X305536Y300152D02*
X363956D01*
X306044Y299644D02*
X363448D01*
X306552Y299136D02*
X362940D01*
X307060Y298628D02*
X361924D01*
X308076Y298120D02*
X361416D01*
X308584Y297612D02*
X360908D01*
X309092Y297104D02*
X359892D01*
X310108Y296596D02*
X359384D01*
X311124Y296088D02*
X358368D01*
X311632Y295580D02*
X357860D01*
X312648Y295072D02*
X356844D01*
X313664Y294564D02*
X355828D01*
X314680Y294056D02*
X354812D01*
X315696Y293548D02*
X353796D01*
X316712Y293040D02*
X352780D01*
X318236Y292532D02*
X351256D01*
X319252Y292024D02*
X350240D01*
X320776Y291516D02*
X348716D01*
X322300Y291008D02*
X346684D01*
X324332Y290500D02*
X344652D01*
X327380Y289992D02*
X342112D01*
X331444Y289484D02*
X338048D01*
X331444Y889484D02*
X338048D01*
X327380Y889992D02*
X342112D01*
X324332Y890500D02*
X344652D01*
X322300Y891008D02*
X346684D01*
X320776Y891516D02*
X348716D01*
X319252Y892024D02*
X350240D01*
X318236Y892532D02*
X351256D01*
X316712Y893040D02*
X352780D01*
X315696Y893548D02*
X353796D01*
X314680Y894056D02*
X354812D01*
X313664Y894564D02*
X355828D01*
X312648Y895072D02*
X356844D01*
X311632Y895580D02*
X357860D01*
X311124Y896088D02*
X358368D01*
X310108Y896596D02*
X359384D01*
X309092Y897104D02*
X359892D01*
X308584Y897612D02*
X360908D01*
X308076Y898120D02*
X361416D01*
X307060Y898628D02*
X361924D01*
X306552Y899136D02*
X362940D01*
X306044Y899644D02*
X363448D01*
X305536Y900152D02*
X363956D01*
X304520Y900660D02*
X364464D01*
X304012Y901168D02*
X364464D01*
X303504Y901676D02*
X364972D01*
X360400Y902184D02*
X364972D01*
X340080D02*
X358368D01*
X302996D02*
X329412D01*
X360908Y902692D02*
X365480D01*
X342620D02*
X357352D01*
X302488D02*
X326872D01*
X361416Y903200D02*
X365480D01*
X344144D02*
X357352D01*
X301980D02*
X324840D01*
X361416Y903708D02*
X365480D01*
X345668D02*
X356844D01*
X301472D02*
X323316D01*
X361416Y904216D02*
X365480D01*
X347192D02*
X356844D01*
X300964D02*
X322300D01*
X361416Y904724D02*
X365480D01*
X348208D02*
X356844D01*
X300964D02*
X321284D01*
X361416Y905232D02*
X365480D01*
X349224D02*
X356844D01*
X300456D02*
X320268D01*
X360908Y905740D02*
X365480D01*
X350240D02*
X357352D01*
X299948D02*
X319252D01*
X360400Y906248D02*
X364972D01*
X351256D02*
X357860D01*
X329412D02*
X340080D01*
X299440D02*
X318236D01*
X352272Y906756D02*
X364972D01*
X326872D02*
X342112D01*
X298932D02*
X317220D01*
X352780Y907264D02*
X364464D01*
X325348D02*
X344144D01*
X298424D02*
X316712D01*
X353796Y907772D02*
X364464D01*
X323824D02*
X345160D01*
X298424D02*
X315696D01*
X354304Y908280D02*
X363956D01*
X322808D02*
X346684D01*
X297916D02*
X315188D01*
X354812Y908788D02*
X363448D01*
X321792D02*
X347700D01*
X297408D02*
X314680D01*
X355828Y909296D02*
X362940D01*
X320776D02*
X348716D01*
X297408D02*
X313664D01*
X356336Y909804D02*
X361924D01*
X319760D02*
X349224D01*
X296900D02*
X313156D01*
X357860Y910312D02*
X360400D01*
X318744D02*
X350240D01*
X296392D02*
X312648D01*
X318236Y910820D02*
X351256D01*
X296392D02*
X312140D01*
X317728Y911328D02*
X351764D01*
X295884D02*
X311632D01*
X316712Y911836D02*
X352272D01*
X295376D02*
X311124D01*
X316204Y912344D02*
X352780D01*
X295376D02*
X310616D01*
X315696Y912852D02*
X353796D01*
X294868D02*
X310108D01*
X315188Y913360D02*
X354304D01*
X294868D02*
X309600D01*
X315188Y913868D02*
X354812D01*
X294360D02*
X309092D01*
X314680Y914376D02*
X355320D01*
X294360D02*
X309092D01*
X314680Y914884D02*
X355828D01*
X293852D02*
X308584D01*
X314172Y915392D02*
X356336D01*
X293852D02*
X308076D01*
X314172Y915900D02*
X356844D01*
X293344D02*
X307568D01*
X314172Y916408D02*
X356844D01*
X293344D02*
X307568D01*
X314172Y916916D02*
X357352D01*
X292836D02*
X307060D01*
X314172Y917424D02*
X357860D01*
X292836D02*
X306552D01*
X314172Y917932D02*
X358368D01*
X292836D02*
X306552D01*
X337540Y918440D02*
X358368D01*
X314172D02*
X331444D01*
X292328D02*
X306044D01*
X339572Y918948D02*
X358876D01*
X314680D02*
X329412D01*
X292328D02*
X306044D01*
X341096Y919456D02*
X359384D01*
X314680D02*
X328396D01*
X291820D02*
X305536D01*
X342112Y919964D02*
X359384D01*
X314680D02*
X327380D01*
X291820D02*
X305536D01*
X343128Y920472D02*
X359892D01*
X315188D02*
X326364D01*
X291820D02*
X305028D01*
X343636Y920980D02*
X359892D01*
X315696D02*
X325348D01*
X291312D02*
X305028D01*
X344652Y921488D02*
X360400D01*
X316204D02*
X324840D01*
X291312D02*
X304520D01*
X345160Y921996D02*
X360400D01*
X316712D02*
X323824D01*
X291312D02*
X304520D01*
X345668Y922504D02*
X360908D01*
X317728D02*
X323316D01*
X291312D02*
X304012D01*
X346176Y923012D02*
X360908D01*
X318744D02*
X321792D01*
X290804D02*
X304012D01*
X346684Y923520D02*
X361416D01*
X290804D02*
X304012D01*
X347192Y924028D02*
X361416D01*
X290804D02*
X303504D01*
X347700Y924536D02*
X361924D01*
X290804D02*
X303504D01*
X348208Y925044D02*
X361924D01*
X290296D02*
X303504D01*
X348208Y925552D02*
X361924D01*
X290296D02*
X302996D01*
X348716Y926060D02*
X362432D01*
X290296D02*
X302996D01*
X348716Y926568D02*
X362432D01*
X290296D02*
X302996D01*
X349224Y927076D02*
X362432D01*
X290296D02*
X302488D01*
X349732Y927584D02*
X362432D01*
X289788D02*
X302488D01*
X349732Y928092D02*
X362940D01*
X289788D02*
X302488D01*
X349732Y928600D02*
X362940D01*
X289788D02*
X336016D01*
X350240Y929108D02*
X362940D01*
X289788D02*
X337540D01*
X350240Y929616D02*
X362940D01*
X289788D02*
X338556D01*
X350240Y930124D02*
X362940D01*
X289788D02*
X339064D01*
X350748Y930632D02*
X363448D01*
X289788D02*
X339572D01*
X350748Y931140D02*
X363448D01*
X289788D02*
X340080D01*
X350748Y931648D02*
X363448D01*
X336016D02*
X340080D01*
X289788D02*
X332968D01*
X350748Y932156D02*
X363448D01*
X337032D02*
X340588D01*
X289280D02*
X332460D01*
X350748Y932664D02*
X363448D01*
X337540D02*
X340588D01*
X289280D02*
X331952D01*
X351256Y933172D02*
X363448D01*
X337540D02*
X341096D01*
X289280D02*
X331952D01*
X351256Y933680D02*
X363448D01*
X338048D02*
X341096D01*
X289280D02*
X331444D01*
X351256Y934188D02*
X363448D01*
X338048D02*
X341096D01*
X289280D02*
X331444D01*
X351256Y934696D02*
X363448D01*
X338048D02*
X341096D01*
X289280D02*
X331444D01*
X351256Y935204D02*
X363448D01*
X338048D02*
X341096D01*
X289280D02*
X331444D01*
X351256Y935712D02*
X363448D01*
X338048D02*
X341096D01*
X289280D02*
X331444D01*
X350748Y936220D02*
X363448D01*
X337540D02*
X340588D01*
X289280D02*
X331952D01*
X350748Y936728D02*
X363448D01*
X337032D02*
X340588D01*
X289280D02*
X331952D01*
X350748Y937236D02*
X363448D01*
X336524D02*
X340588D01*
X289788D02*
X332968D01*
X350748Y937744D02*
X363448D01*
X335508D02*
X340080D01*
X289788D02*
X333476D01*
X350748Y938252D02*
X363448D01*
X289788D02*
X340080D01*
X350748Y938760D02*
X362940D01*
X289788D02*
X339572D01*
X350240Y939268D02*
X362940D01*
X289788D02*
X339064D01*
X350240Y939776D02*
X362940D01*
X289788D02*
X338556D01*
X350240Y940284D02*
X362940D01*
X289788D02*
X337540D01*
X349732Y940792D02*
X362940D01*
X289788D02*
X335508D01*
X349732Y941300D02*
X362940D01*
X289788D02*
X302488D01*
X349224Y941808D02*
X362432D01*
X289788D02*
X302488D01*
X349224Y942316D02*
X362432D01*
X290296D02*
X302996D01*
X348716Y942824D02*
X362432D01*
X290296D02*
X302996D01*
X348716Y943332D02*
X361924D01*
X290296D02*
X302996D01*
X348208Y943840D02*
X361924D01*
X290296D02*
X302996D01*
X347700Y944348D02*
X361924D01*
X290296D02*
X303504D01*
X347192Y944856D02*
X361416D01*
X290804D02*
X303504D01*
X347192Y945364D02*
X361416D01*
X290804D02*
X303504D01*
X346684Y945872D02*
X361416D01*
X290804D02*
X304012D01*
X346176Y946380D02*
X360908D01*
X318236D02*
X322300D01*
X290804D02*
X304012D01*
X345668Y946888D02*
X360908D01*
X317220D02*
X323824D01*
X291312D02*
X304520D01*
X344652Y947396D02*
X360400D01*
X316204D02*
X324332D01*
X291312D02*
X304520D01*
X344144Y947904D02*
X360400D01*
X315696D02*
X324840D01*
X291312D02*
X304520D01*
X343636Y948412D02*
X359892D01*
X315696D02*
X325856D01*
X291820D02*
X305028D01*
X342620Y948920D02*
X359892D01*
X315188D02*
X326364D01*
X291820D02*
X305028D01*
X341604Y949428D02*
X359384D01*
X314680D02*
X327380D01*
X291820D02*
X305536D01*
X340588Y949936D02*
X358876D01*
X314680D02*
X328904D01*
X292328D02*
X305536D01*
X339064Y950444D02*
X358876D01*
X314680D02*
X330428D01*
X292328D02*
X306044D01*
X336524Y950952D02*
X358368D01*
X314172D02*
X332968D01*
X292328D02*
X306044D01*
X314172Y951460D02*
X357860D01*
X292836D02*
X306552D01*
X314172Y951968D02*
X357860D01*
X292836D02*
X307060D01*
X314172Y952476D02*
X357352D01*
X293344D02*
X307060D01*
X314172Y952984D02*
X356844D01*
X293344D02*
X307568D01*
X314172Y953492D02*
X356336D01*
X293344D02*
X308076D01*
X314680Y954000D02*
X355828D01*
X293852D02*
X308076D01*
X314680Y954508D02*
X355320D01*
X293852D02*
X308584D01*
X314680Y955016D02*
X354812D01*
X294360D02*
X309092D01*
X315188Y955524D02*
X354304D01*
X294360D02*
X309600D01*
X315696Y956032D02*
X353796D01*
X294868D02*
X310108D01*
X315696Y956540D02*
X353288D01*
X295376D02*
X310108D01*
X316712Y957048D02*
X352780D01*
X295376D02*
X310616D01*
X317220Y957556D02*
X352272D01*
X295884D02*
X311124D01*
X317728Y958064D02*
X351256D01*
X295884D02*
X311632D01*
X318744Y958572D02*
X350748D01*
X296392D02*
X312140D01*
X357352Y959080D02*
X361416D01*
X319252D02*
X349732D01*
X296900D02*
X312648D01*
X355828Y959588D02*
X362432D01*
X320268D02*
X349224D01*
X296900D02*
X313664D01*
X355320Y960096D02*
X362940D01*
X321284D02*
X348208D01*
X297408D02*
X314172D01*
X354812Y960604D02*
X363956D01*
X322300D02*
X347192D01*
X297916D02*
X314680D01*
X353796Y961112D02*
X363956D01*
X323316D02*
X346176D01*
X297916D02*
X315188D01*
X353288Y961620D02*
X364464D01*
X324332D02*
X344652D01*
X298424D02*
X316204D01*
X352272Y962128D02*
X364972D01*
X325856D02*
X343128D01*
X298932D02*
X316712D01*
X360400Y962636D02*
X364972D01*
X351764D02*
X358368D01*
X327888D02*
X341604D01*
X299440D02*
X317728D01*
X360908Y963144D02*
X364972D01*
X350748D02*
X357352D01*
X330428D02*
X338556D01*
X299440D02*
X318744D01*
X361416Y963652D02*
X365480D01*
X349732D02*
X357352D01*
X299948D02*
X319252D01*
X361416Y964160D02*
X365480D01*
X348716D02*
X356844D01*
X300456D02*
X320268D01*
X361416Y964668D02*
X365480D01*
X347700D02*
X356844D01*
X300964D02*
X321792D01*
X361416Y965176D02*
X365480D01*
X346684D02*
X356844D01*
X301472D02*
X322808D01*
X361416Y965684D02*
X365480D01*
X345160D02*
X356844D01*
X301980D02*
X324332D01*
X360908Y966192D02*
X365480D01*
X343636D02*
X357352D01*
X302488D02*
X325856D01*
X360400Y966700D02*
X364972D01*
X341604D02*
X357860D01*
X302996D02*
X327888D01*
X338556Y967208D02*
X364972D01*
X303504D02*
X330936D01*
X304012Y967716D02*
X364972D01*
X304520Y968224D02*
X364464D01*
X305028Y968732D02*
X363956D01*
X305536Y969240D02*
X363956D01*
X306044Y969748D02*
X363448D01*
X307060Y970256D02*
X362432D01*
X307568Y970764D02*
X361924D01*
X308076Y971272D02*
X361416D01*
X309092Y971780D02*
X360400D01*
X309600Y972288D02*
X359892D01*
X310616Y972796D02*
X358876D01*
X311124Y973304D02*
X358368D01*
X312140Y973812D02*
X357352D01*
X313156Y974320D02*
X356336D01*
X314172Y974828D02*
X355320D01*
X315188Y975336D02*
X354304D01*
X316204Y975844D02*
X353288D01*
X317220Y976352D02*
X352272D01*
X318744Y976860D02*
X350748D01*
X319760Y977368D02*
X349224D01*
X321284Y977876D02*
X347700D01*
X323316Y978384D02*
X346176D01*
X325348Y978892D02*
X343636D01*
X328396Y979400D02*
X340588D01*
X888396D02*
X900588D01*
X885348Y978892D02*
X903636D01*
X883316Y978384D02*
X906176D01*
X881284Y977876D02*
X907700D01*
X879760Y977368D02*
X909224D01*
X878744Y976860D02*
X910748D01*
X877220Y976352D02*
X912272D01*
X876204Y975844D02*
X913288D01*
X875188Y975336D02*
X914304D01*
X874172Y974828D02*
X915320D01*
X873156Y974320D02*
X916336D01*
X872140Y973812D02*
X917352D01*
X871124Y973304D02*
X918368D01*
X870616Y972796D02*
X918876D01*
X869600Y972288D02*
X919892D01*
X869092Y971780D02*
X920400D01*
X868076Y971272D02*
X921416D01*
X867568Y970764D02*
X921924D01*
X867060Y970256D02*
X922432D01*
X866044Y969748D02*
X923448D01*
X865536Y969240D02*
X923956D01*
X865028Y968732D02*
X923956D01*
X864520Y968224D02*
X924464D01*
X864012Y967716D02*
X924972D01*
X863504Y967208D02*
X890936D01*
X898556D02*
X924972D01*
X862996Y966700D02*
X887888D01*
X901604D02*
X917860D01*
X920400D02*
X924972D01*
X862488Y966192D02*
X885856D01*
X903636D02*
X917352D01*
X920908D02*
X925480D01*
X861980Y965684D02*
X884332D01*
X905160D02*
X916844D01*
X921416D02*
X925480D01*
X861472Y965176D02*
X882808D01*
X906684D02*
X916844D01*
X921416D02*
X925480D01*
X860964Y964668D02*
X881792D01*
X907700D02*
X916844D01*
X921416D02*
X925480D01*
X860456Y964160D02*
X880268D01*
X908716D02*
X916844D01*
X921416D02*
X925480D01*
X859948Y963652D02*
X879252D01*
X909732D02*
X917352D01*
X921416D02*
X925480D01*
X859440Y963144D02*
X878744D01*
X890428D02*
X898556D01*
X910748D02*
X917352D01*
X920908D02*
X924972D01*
X859440Y962636D02*
X877728D01*
X887888D02*
X901604D01*
X911764D02*
X918368D01*
X920400D02*
X924972D01*
X858932Y962128D02*
X876712D01*
X885856D02*
X903128D01*
X912272D02*
X924972D01*
X858424Y961620D02*
X876204D01*
X884332D02*
X904652D01*
X913288D02*
X924464D01*
X857916Y961112D02*
X875188D01*
X883316D02*
X906176D01*
X913796D02*
X923956D01*
X857916Y960604D02*
X874680D01*
X882300D02*
X907192D01*
X914812D02*
X923956D01*
X857408Y960096D02*
X874172D01*
X881284D02*
X908208D01*
X915320D02*
X922940D01*
X856900Y959588D02*
X873664D01*
X880268D02*
X909224D01*
X915828D02*
X922432D01*
X856900Y959080D02*
X872648D01*
X879252D02*
X909732D01*
X917352D02*
X921416D01*
X856392Y958572D02*
X872140D01*
X878744D02*
X910748D01*
X855884Y958064D02*
X871632D01*
X877728D02*
X911256D01*
X855884Y957556D02*
X871124D01*
X877220D02*
X912272D01*
X855376Y957048D02*
X870616D01*
X876712D02*
X912780D01*
X855376Y956540D02*
X870108D01*
X875696D02*
X913288D01*
X854868Y956032D02*
X870108D01*
X875696D02*
X913796D01*
X854360Y955524D02*
X869600D01*
X875188D02*
X914304D01*
X854360Y955016D02*
X869092D01*
X874680D02*
X914812D01*
X853852Y954508D02*
X868584D01*
X874680D02*
X915320D01*
X853852Y954000D02*
X868076D01*
X874680D02*
X915828D01*
X853344Y953492D02*
X868076D01*
X874172D02*
X916336D01*
X853344Y952984D02*
X867568D01*
X874172D02*
X916844D01*
X853344Y952476D02*
X867060D01*
X874172D02*
X917352D01*
X852836Y951968D02*
X867060D01*
X874172D02*
X917860D01*
X852836Y951460D02*
X866552D01*
X874172D02*
X917860D01*
X852328Y950952D02*
X866044D01*
X874172D02*
X892968D01*
X896524D02*
X918368D01*
X852328Y950444D02*
X866044D01*
X874680D02*
X890428D01*
X899064D02*
X918876D01*
X852328Y949936D02*
X865536D01*
X874680D02*
X888904D01*
X900588D02*
X918876D01*
X851820Y949428D02*
X865536D01*
X874680D02*
X887380D01*
X901604D02*
X919384D01*
X851820Y948920D02*
X865028D01*
X875188D02*
X886364D01*
X902620D02*
X919892D01*
X851820Y948412D02*
X865028D01*
X875696D02*
X885856D01*
X903636D02*
X919892D01*
X851312Y947904D02*
X864520D01*
X875696D02*
X884840D01*
X904144D02*
X920400D01*
X851312Y947396D02*
X864520D01*
X876204D02*
X884332D01*
X904652D02*
X920400D01*
X851312Y946888D02*
X864520D01*
X877220D02*
X883824D01*
X905668D02*
X920908D01*
X850804Y946380D02*
X864012D01*
X878236D02*
X882300D01*
X906176D02*
X920908D01*
X850804Y945872D02*
X864012D01*
X906684D02*
X921416D01*
X850804Y945364D02*
X863504D01*
X907192D02*
X921416D01*
X850804Y944856D02*
X863504D01*
X907192D02*
X921416D01*
X850296Y944348D02*
X863504D01*
X907700D02*
X921924D01*
X850296Y943840D02*
X862996D01*
X908208D02*
X921924D01*
X850296Y943332D02*
X862996D01*
X908716D02*
X921924D01*
X850296Y942824D02*
X862996D01*
X908716D02*
X922432D01*
X850296Y942316D02*
X862996D01*
X909224D02*
X922432D01*
X849788Y941808D02*
X862488D01*
X909224D02*
X922432D01*
X849788Y941300D02*
X862488D01*
X909732D02*
X922940D01*
X849788Y940792D02*
X895508D01*
X909732D02*
X922940D01*
X849788Y940284D02*
X897540D01*
X910240D02*
X922940D01*
X849788Y939776D02*
X898556D01*
X910240D02*
X922940D01*
X849788Y939268D02*
X899064D01*
X910240D02*
X922940D01*
X849788Y938760D02*
X899572D01*
X910748D02*
X922940D01*
X849788Y938252D02*
X900080D01*
X910748D02*
X923448D01*
X849788Y937744D02*
X893476D01*
X895508D02*
X900080D01*
X910748D02*
X923448D01*
X849788Y937236D02*
X892968D01*
X896524D02*
X900588D01*
X910748D02*
X923448D01*
X849280Y936728D02*
X891952D01*
X897032D02*
X900588D01*
X910748D02*
X923448D01*
X849280Y936220D02*
X891952D01*
X897540D02*
X900588D01*
X910748D02*
X923448D01*
X849280Y935712D02*
X891444D01*
X898048D02*
X901096D01*
X911256D02*
X923448D01*
X849280Y935204D02*
X891444D01*
X898048D02*
X901096D01*
X911256D02*
X923448D01*
X849280Y934696D02*
X891444D01*
X898048D02*
X901096D01*
X911256D02*
X923448D01*
X849280Y934188D02*
X891444D01*
X898048D02*
X901096D01*
X911256D02*
X923448D01*
X849280Y933680D02*
X891444D01*
X898048D02*
X901096D01*
X911256D02*
X923448D01*
X849280Y933172D02*
X891952D01*
X897540D02*
X901096D01*
X911256D02*
X923448D01*
X849280Y932664D02*
X891952D01*
X897540D02*
X900588D01*
X910748D02*
X923448D01*
X849280Y932156D02*
X892460D01*
X897032D02*
X900588D01*
X910748D02*
X923448D01*
X849788Y931648D02*
X892968D01*
X896016D02*
X900080D01*
X910748D02*
X923448D01*
X849788Y931140D02*
X900080D01*
X910748D02*
X923448D01*
X849788Y930632D02*
X899572D01*
X910748D02*
X923448D01*
X849788Y930124D02*
X899064D01*
X910240D02*
X922940D01*
X849788Y929616D02*
X898556D01*
X910240D02*
X922940D01*
X849788Y929108D02*
X897540D01*
X910240D02*
X922940D01*
X849788Y928600D02*
X896016D01*
X909732D02*
X922940D01*
X849788Y928092D02*
X862488D01*
X909732D02*
X922940D01*
X849788Y927584D02*
X862488D01*
X909732D02*
X922432D01*
X850296Y927076D02*
X862488D01*
X909224D02*
X922432D01*
X850296Y926568D02*
X862996D01*
X908716D02*
X922432D01*
X850296Y926060D02*
X862996D01*
X908716D02*
X922432D01*
X850296Y925552D02*
X862996D01*
X908208D02*
X921924D01*
X850296Y925044D02*
X863504D01*
X908208D02*
X921924D01*
X850804Y924536D02*
X863504D01*
X907700D02*
X921924D01*
X850804Y924028D02*
X863504D01*
X907192D02*
X921416D01*
X850804Y923520D02*
X864012D01*
X906684D02*
X921416D01*
X850804Y923012D02*
X864012D01*
X878744D02*
X881792D01*
X906176D02*
X920908D01*
X851312Y922504D02*
X864012D01*
X877728D02*
X883316D01*
X905668D02*
X920908D01*
X851312Y921996D02*
X864520D01*
X876712D02*
X883824D01*
X905160D02*
X920400D01*
X851312Y921488D02*
X864520D01*
X876204D02*
X884840D01*
X904652D02*
X920400D01*
X851312Y920980D02*
X865028D01*
X875696D02*
X885348D01*
X903636D02*
X919892D01*
X851820Y920472D02*
X865028D01*
X875188D02*
X886364D01*
X903128D02*
X919892D01*
X851820Y919964D02*
X865536D01*
X874680D02*
X887380D01*
X902112D02*
X919384D01*
X851820Y919456D02*
X865536D01*
X874680D02*
X888396D01*
X901096D02*
X919384D01*
X852328Y918948D02*
X866044D01*
X874680D02*
X889412D01*
X899572D02*
X918876D01*
X852328Y918440D02*
X866044D01*
X874172D02*
X891444D01*
X897540D02*
X918368D01*
X852836Y917932D02*
X866552D01*
X874172D02*
X918368D01*
X852836Y917424D02*
X866552D01*
X874172D02*
X917860D01*
X852836Y916916D02*
X867060D01*
X874172D02*
X917352D01*
X853344Y916408D02*
X867568D01*
X874172D02*
X916844D01*
X853344Y915900D02*
X867568D01*
X874172D02*
X916844D01*
X853852Y915392D02*
X868076D01*
X874172D02*
X916336D01*
X853852Y914884D02*
X868584D01*
X874680D02*
X915828D01*
X854360Y914376D02*
X869092D01*
X874680D02*
X915320D01*
X854360Y913868D02*
X869092D01*
X875188D02*
X914812D01*
X854868Y913360D02*
X869600D01*
X875188D02*
X914304D01*
X854868Y912852D02*
X870108D01*
X875696D02*
X913796D01*
X855376Y912344D02*
X870616D01*
X876204D02*
X912780D01*
X855376Y911836D02*
X871124D01*
X876712D02*
X912272D01*
X855884Y911328D02*
X871632D01*
X877728D02*
X911764D01*
X856392Y910820D02*
X872140D01*
X878236D02*
X911256D01*
X856392Y910312D02*
X872648D01*
X878744D02*
X910240D01*
X917860D02*
X920400D01*
X856900Y909804D02*
X873156D01*
X879760D02*
X909224D01*
X916336D02*
X921924D01*
X857408Y909296D02*
X873664D01*
X880776D02*
X908716D01*
X915828D02*
X922940D01*
X857408Y908788D02*
X874680D01*
X881792D02*
X907700D01*
X914812D02*
X923448D01*
X857916Y908280D02*
X875188D01*
X882808D02*
X906684D01*
X914304D02*
X923956D01*
X858424Y907772D02*
X875696D01*
X883824D02*
X905160D01*
X913796D02*
X924464D01*
X858424Y907264D02*
X876712D01*
X885348D02*
X904144D01*
X912780D02*
X924464D01*
X858932Y906756D02*
X877220D01*
X886872D02*
X902112D01*
X912272D02*
X924972D01*
X859440Y906248D02*
X878236D01*
X889412D02*
X900080D01*
X911256D02*
X917860D01*
X920400D02*
X924972D01*
X859948Y905740D02*
X879252D01*
X910240D02*
X917352D01*
X920908D02*
X925480D01*
X860456Y905232D02*
X880268D01*
X909224D02*
X916844D01*
X921416D02*
X925480D01*
X860964Y904724D02*
X881284D01*
X908208D02*
X916844D01*
X921416D02*
X925480D01*
X860964Y904216D02*
X882300D01*
X907192D02*
X916844D01*
X921416D02*
X925480D01*
X861472Y903708D02*
X883316D01*
X905668D02*
X916844D01*
X921416D02*
X925480D01*
X861980Y903200D02*
X884840D01*
X904144D02*
X917352D01*
X921416D02*
X925480D01*
X862488Y902692D02*
X886872D01*
X902620D02*
X917352D01*
X920908D02*
X925480D01*
X862996Y902184D02*
X889412D01*
X900080D02*
X918368D01*
X920400D02*
X924972D01*
X863504Y901676D02*
X924972D01*
X864012Y901168D02*
X924464D01*
X864520Y900660D02*
X924464D01*
X865536Y900152D02*
X923956D01*
X866044Y899644D02*
X923448D01*
X866552Y899136D02*
X922940D01*
X867060Y898628D02*
X921924D01*
X868076Y898120D02*
X921416D01*
X868584Y897612D02*
X920908D01*
X869092Y897104D02*
X919892D01*
X870108Y896596D02*
X919384D01*
X871124Y896088D02*
X918368D01*
X871632Y895580D02*
X917860D01*
X872648Y895072D02*
X916844D01*
X873664Y894564D02*
X915828D01*
X874680Y894056D02*
X914812D01*
X875696Y893548D02*
X913796D01*
X876712Y893040D02*
X912780D01*
X878236Y892532D02*
X911256D01*
X879252Y892024D02*
X910240D01*
X880776Y891516D02*
X908716D01*
X882300Y891008D02*
X906684D01*
X884332Y890500D02*
X904652D01*
X887380Y889992D02*
X902112D01*
X891444Y889484D02*
X898048D01*
X1451444D02*
X1458048D01*
X1447380Y889992D02*
X1462112D01*
X1444332Y890500D02*
X1464652D01*
X1442300Y891008D02*
X1466684D01*
X1440776Y891516D02*
X1468716D01*
X1439252Y892024D02*
X1470240D01*
X1438236Y892532D02*
X1471256D01*
X1436712Y893040D02*
X1472780D01*
X1435696Y893548D02*
X1473796D01*
X1434680Y894056D02*
X1474812D01*
X1433664Y894564D02*
X1475828D01*
X1432648Y895072D02*
X1476844D01*
X1431632Y895580D02*
X1477860D01*
X1431124Y896088D02*
X1478368D01*
X1430108Y896596D02*
X1479384D01*
X1429092Y897104D02*
X1479892D01*
X1428584Y897612D02*
X1480908D01*
X1428076Y898120D02*
X1481416D01*
X1427060Y898628D02*
X1481924D01*
X1426552Y899136D02*
X1482940D01*
X1426044Y899644D02*
X1483448D01*
X1425536Y900152D02*
X1483956D01*
X1424520Y900660D02*
X1484464D01*
X1424012Y901168D02*
X1484464D01*
X1423504Y901676D02*
X1484972D01*
X1480400Y902184D02*
X1484972D01*
X1460080D02*
X1478368D01*
X1422996D02*
X1449412D01*
X1480908Y902692D02*
X1485480D01*
X1462620D02*
X1477352D01*
X1422488D02*
X1446872D01*
X1481416Y903200D02*
X1485480D01*
X1464144D02*
X1477352D01*
X1421980D02*
X1444840D01*
X1481416Y903708D02*
X1485480D01*
X1465668D02*
X1476844D01*
X1421472D02*
X1443316D01*
X1481416Y904216D02*
X1485480D01*
X1467192D02*
X1476844D01*
X1420964D02*
X1442300D01*
X1481416Y904724D02*
X1485480D01*
X1468208D02*
X1476844D01*
X1420964D02*
X1441284D01*
X1481416Y905232D02*
X1485480D01*
X1469224D02*
X1476844D01*
X1420456D02*
X1440268D01*
X1480908Y905740D02*
X1485480D01*
X1470240D02*
X1477352D01*
X1419948D02*
X1439252D01*
X1480400Y906248D02*
X1484972D01*
X1471256D02*
X1477860D01*
X1449412D02*
X1460080D01*
X1419440D02*
X1438236D01*
X1472272Y906756D02*
X1484972D01*
X1446872D02*
X1462112D01*
X1418932D02*
X1437220D01*
X1472780Y907264D02*
X1484464D01*
X1445348D02*
X1464144D01*
X1418424D02*
X1436712D01*
X1473796Y907772D02*
X1484464D01*
X1443824D02*
X1465160D01*
X1418424D02*
X1435696D01*
X1474304Y908280D02*
X1483956D01*
X1442808D02*
X1466684D01*
X1417916D02*
X1435188D01*
X1474812Y908788D02*
X1483448D01*
X1441792D02*
X1467700D01*
X1417408D02*
X1434680D01*
X1475828Y909296D02*
X1482940D01*
X1440776D02*
X1468716D01*
X1417408D02*
X1433664D01*
X1476336Y909804D02*
X1481924D01*
X1439760D02*
X1469224D01*
X1416900D02*
X1433156D01*
X1477860Y910312D02*
X1480400D01*
X1438744D02*
X1470240D01*
X1416392D02*
X1432648D01*
X1438236Y910820D02*
X1471256D01*
X1416392D02*
X1432140D01*
X1437728Y911328D02*
X1471764D01*
X1415884D02*
X1431632D01*
X1436712Y911836D02*
X1472272D01*
X1415376D02*
X1431124D01*
X1436204Y912344D02*
X1472780D01*
X1415376D02*
X1430616D01*
X1435696Y912852D02*
X1473796D01*
X1414868D02*
X1430108D01*
X1435188Y913360D02*
X1474304D01*
X1414868D02*
X1429600D01*
X1435188Y913868D02*
X1474812D01*
X1414360D02*
X1429092D01*
X1434680Y914376D02*
X1475320D01*
X1414360D02*
X1429092D01*
X1434680Y914884D02*
X1475828D01*
X1413852D02*
X1428584D01*
X1434172Y915392D02*
X1476336D01*
X1413852D02*
X1428076D01*
X1434172Y915900D02*
X1476844D01*
X1413344D02*
X1427568D01*
X1434172Y916408D02*
X1476844D01*
X1413344D02*
X1427568D01*
X1434172Y916916D02*
X1477352D01*
X1412836D02*
X1427060D01*
X1434172Y917424D02*
X1477860D01*
X1412836D02*
X1426552D01*
X1434172Y917932D02*
X1478368D01*
X1412836D02*
X1426552D01*
X1457540Y918440D02*
X1478368D01*
X1434172D02*
X1451444D01*
X1412328D02*
X1426044D01*
X1459572Y918948D02*
X1478876D01*
X1434680D02*
X1449412D01*
X1412328D02*
X1426044D01*
X1461096Y919456D02*
X1479384D01*
X1434680D02*
X1448396D01*
X1411820D02*
X1425536D01*
X1462112Y919964D02*
X1479384D01*
X1434680D02*
X1447380D01*
X1411820D02*
X1425536D01*
X1463128Y920472D02*
X1479892D01*
X1435188D02*
X1446364D01*
X1411820D02*
X1425028D01*
X1463636Y920980D02*
X1479892D01*
X1435696D02*
X1445348D01*
X1411312D02*
X1425028D01*
X1464652Y921488D02*
X1480400D01*
X1436204D02*
X1444840D01*
X1411312D02*
X1424520D01*
X1465160Y921996D02*
X1480400D01*
X1436712D02*
X1443824D01*
X1411312D02*
X1424520D01*
X1465668Y922504D02*
X1480908D01*
X1437728D02*
X1443316D01*
X1411312D02*
X1424012D01*
X1466176Y923012D02*
X1480908D01*
X1438744D02*
X1441792D01*
X1410804D02*
X1424012D01*
X1466684Y923520D02*
X1481416D01*
X1410804D02*
X1424012D01*
X1467192Y924028D02*
X1481416D01*
X1410804D02*
X1423504D01*
X1467700Y924536D02*
X1481924D01*
X1410804D02*
X1423504D01*
X1468208Y925044D02*
X1481924D01*
X1410296D02*
X1423504D01*
X1468208Y925552D02*
X1481924D01*
X1410296D02*
X1422996D01*
X1468716Y926060D02*
X1482432D01*
X1410296D02*
X1422996D01*
X1468716Y926568D02*
X1482432D01*
X1410296D02*
X1422996D01*
X1469224Y927076D02*
X1482432D01*
X1410296D02*
X1422488D01*
X1469732Y927584D02*
X1482432D01*
X1409788D02*
X1422488D01*
X1469732Y928092D02*
X1482940D01*
X1409788D02*
X1422488D01*
X1469732Y928600D02*
X1482940D01*
X1409788D02*
X1456016D01*
X1470240Y929108D02*
X1482940D01*
X1409788D02*
X1457540D01*
X1470240Y929616D02*
X1482940D01*
X1409788D02*
X1458556D01*
X1470240Y930124D02*
X1482940D01*
X1409788D02*
X1459064D01*
X1470748Y930632D02*
X1483448D01*
X1409788D02*
X1459572D01*
X1470748Y931140D02*
X1483448D01*
X1409788D02*
X1460080D01*
X1470748Y931648D02*
X1483448D01*
X1456016D02*
X1460080D01*
X1409788D02*
X1452968D01*
X1470748Y932156D02*
X1483448D01*
X1457032D02*
X1460588D01*
X1409280D02*
X1452460D01*
X1470748Y932664D02*
X1483448D01*
X1457540D02*
X1460588D01*
X1409280D02*
X1451952D01*
X1471256Y933172D02*
X1483448D01*
X1457540D02*
X1461096D01*
X1409280D02*
X1451952D01*
X1471256Y933680D02*
X1483448D01*
X1458048D02*
X1461096D01*
X1409280D02*
X1451444D01*
X1471256Y934188D02*
X1483448D01*
X1458048D02*
X1461096D01*
X1409280D02*
X1451444D01*
X1471256Y934696D02*
X1483448D01*
X1458048D02*
X1461096D01*
X1409280D02*
X1451444D01*
X1471256Y935204D02*
X1483448D01*
X1458048D02*
X1461096D01*
X1409280D02*
X1451444D01*
X1471256Y935712D02*
X1483448D01*
X1458048D02*
X1461096D01*
X1409280D02*
X1451444D01*
X1470748Y936220D02*
X1483448D01*
X1457540D02*
X1460588D01*
X1409280D02*
X1451952D01*
X1470748Y936728D02*
X1483448D01*
X1457032D02*
X1460588D01*
X1409280D02*
X1451952D01*
X1470748Y937236D02*
X1483448D01*
X1456524D02*
X1460588D01*
X1409788D02*
X1452968D01*
X1470748Y937744D02*
X1483448D01*
X1455508D02*
X1460080D01*
X1409788D02*
X1453476D01*
X1470748Y938252D02*
X1483448D01*
X1409788D02*
X1460080D01*
X1470748Y938760D02*
X1482940D01*
X1409788D02*
X1459572D01*
X1470240Y939268D02*
X1482940D01*
X1409788D02*
X1459064D01*
X1470240Y939776D02*
X1482940D01*
X1409788D02*
X1458556D01*
X1470240Y940284D02*
X1482940D01*
X1409788D02*
X1457540D01*
X1469732Y940792D02*
X1482940D01*
X1409788D02*
X1455508D01*
X1469732Y941300D02*
X1482940D01*
X1409788D02*
X1422488D01*
X1469224Y941808D02*
X1482432D01*
X1409788D02*
X1422488D01*
X1469224Y942316D02*
X1482432D01*
X1410296D02*
X1422996D01*
X1468716Y942824D02*
X1482432D01*
X1410296D02*
X1422996D01*
X1468716Y943332D02*
X1481924D01*
X1410296D02*
X1422996D01*
X1468208Y943840D02*
X1481924D01*
X1410296D02*
X1422996D01*
X1467700Y944348D02*
X1481924D01*
X1410296D02*
X1423504D01*
X1467192Y944856D02*
X1481416D01*
X1410804D02*
X1423504D01*
X1467192Y945364D02*
X1481416D01*
X1410804D02*
X1423504D01*
X1466684Y945872D02*
X1481416D01*
X1410804D02*
X1424012D01*
X1466176Y946380D02*
X1480908D01*
X1438236D02*
X1442300D01*
X1410804D02*
X1424012D01*
X1465668Y946888D02*
X1480908D01*
X1437220D02*
X1443824D01*
X1411312D02*
X1424520D01*
X1464652Y947396D02*
X1480400D01*
X1436204D02*
X1444332D01*
X1411312D02*
X1424520D01*
X1464144Y947904D02*
X1480400D01*
X1435696D02*
X1444840D01*
X1411312D02*
X1424520D01*
X1463636Y948412D02*
X1479892D01*
X1435696D02*
X1445856D01*
X1411820D02*
X1425028D01*
X1462620Y948920D02*
X1479892D01*
X1435188D02*
X1446364D01*
X1411820D02*
X1425028D01*
X1461604Y949428D02*
X1479384D01*
X1434680D02*
X1447380D01*
X1411820D02*
X1425536D01*
X1460588Y949936D02*
X1478876D01*
X1434680D02*
X1448904D01*
X1412328D02*
X1425536D01*
X1459064Y950444D02*
X1478876D01*
X1434680D02*
X1450428D01*
X1412328D02*
X1426044D01*
X1456524Y950952D02*
X1478368D01*
X1434172D02*
X1452968D01*
X1412328D02*
X1426044D01*
X1434172Y951460D02*
X1477860D01*
X1412836D02*
X1426552D01*
X1434172Y951968D02*
X1477860D01*
X1412836D02*
X1427060D01*
X1434172Y952476D02*
X1477352D01*
X1413344D02*
X1427060D01*
X1434172Y952984D02*
X1476844D01*
X1413344D02*
X1427568D01*
X1434172Y953492D02*
X1476336D01*
X1413344D02*
X1428076D01*
X1434680Y954000D02*
X1475828D01*
X1413852D02*
X1428076D01*
X1434680Y954508D02*
X1475320D01*
X1413852D02*
X1428584D01*
X1434680Y955016D02*
X1474812D01*
X1414360D02*
X1429092D01*
X1435188Y955524D02*
X1474304D01*
X1414360D02*
X1429600D01*
X1435696Y956032D02*
X1473796D01*
X1414868D02*
X1430108D01*
X1435696Y956540D02*
X1473288D01*
X1415376D02*
X1430108D01*
X1436712Y957048D02*
X1472780D01*
X1415376D02*
X1430616D01*
X1437220Y957556D02*
X1472272D01*
X1415884D02*
X1431124D01*
X1437728Y958064D02*
X1471256D01*
X1415884D02*
X1431632D01*
X1438744Y958572D02*
X1470748D01*
X1416392D02*
X1432140D01*
X1477352Y959080D02*
X1481416D01*
X1439252D02*
X1469732D01*
X1416900D02*
X1432648D01*
X1475828Y959588D02*
X1482432D01*
X1440268D02*
X1469224D01*
X1416900D02*
X1433664D01*
X1475320Y960096D02*
X1482940D01*
X1441284D02*
X1468208D01*
X1417408D02*
X1434172D01*
X1474812Y960604D02*
X1483956D01*
X1442300D02*
X1467192D01*
X1417916D02*
X1434680D01*
X1473796Y961112D02*
X1483956D01*
X1443316D02*
X1466176D01*
X1417916D02*
X1435188D01*
X1473288Y961620D02*
X1484464D01*
X1444332D02*
X1464652D01*
X1418424D02*
X1436204D01*
X1472272Y962128D02*
X1484972D01*
X1445856D02*
X1463128D01*
X1418932D02*
X1436712D01*
X1480400Y962636D02*
X1484972D01*
X1471764D02*
X1478368D01*
X1447888D02*
X1461604D01*
X1419440D02*
X1437728D01*
X1480908Y963144D02*
X1484972D01*
X1470748D02*
X1477352D01*
X1450428D02*
X1458556D01*
X1419440D02*
X1438744D01*
X1481416Y963652D02*
X1485480D01*
X1469732D02*
X1477352D01*
X1419948D02*
X1439252D01*
X1481416Y964160D02*
X1485480D01*
X1468716D02*
X1476844D01*
X1420456D02*
X1440268D01*
X1481416Y964668D02*
X1485480D01*
X1467700D02*
X1476844D01*
X1420964D02*
X1441792D01*
X1481416Y965176D02*
X1485480D01*
X1466684D02*
X1476844D01*
X1421472D02*
X1442808D01*
X1481416Y965684D02*
X1485480D01*
X1465160D02*
X1476844D01*
X1421980D02*
X1444332D01*
X1480908Y966192D02*
X1485480D01*
X1463636D02*
X1477352D01*
X1422488D02*
X1445856D01*
X1480400Y966700D02*
X1484972D01*
X1461604D02*
X1477860D01*
X1422996D02*
X1447888D01*
X1458556Y967208D02*
X1484972D01*
X1423504D02*
X1450936D01*
X1424012Y967716D02*
X1484972D01*
X1424520Y968224D02*
X1484464D01*
X1425028Y968732D02*
X1483956D01*
X1425536Y969240D02*
X1483956D01*
X1426044Y969748D02*
X1483448D01*
X1427060Y970256D02*
X1482432D01*
X1427568Y970764D02*
X1481924D01*
X1428076Y971272D02*
X1481416D01*
X1429092Y971780D02*
X1480400D01*
X1429600Y972288D02*
X1479892D01*
X1430616Y972796D02*
X1478876D01*
X1431124Y973304D02*
X1478368D01*
X1432140Y973812D02*
X1477352D01*
X1433156Y974320D02*
X1476336D01*
X1434172Y974828D02*
X1475320D01*
X1435188Y975336D02*
X1474304D01*
X1436204Y975844D02*
X1473288D01*
X1437220Y976352D02*
X1472272D01*
X1438744Y976860D02*
X1470748D01*
X1439760Y977368D02*
X1469224D01*
X1441284Y977876D02*
X1467700D01*
X1443316Y978384D02*
X1466176D01*
X1445348Y978892D02*
X1463636D01*
X1448396Y979400D02*
X1460588D01*
M02*
