M48
;Layer_Color=9474304
;FILE_FORMAT=4:4
METRIC,LZ
;TYPE=PLATED
T1F00S00C0.3000
T2F00S00C0.5000
T3F00S00C0.7112
T4F00S00C0.7620
T5F00S00C0.9000
T6F00S00C1.0000
T7F00S00C1.1000
T9F00S00C3.0000
T10F00S00C4.8000
;TYPE=NON_PLATED
T11F00S00C0.9000
%
T01
X01329Y00219
X01375Y0022
X0124975Y0036225
T02
X013645Y0004775
X01371
X0137775
X0138425
X013905
X0163225Y002945
Y00301
Y0030775
Y0031425
Y003205
X0108775Y003495
Y0035575
Y0036225
Y00369
Y003755
X010725Y00375
Y003685
Y0036175
Y0035525
Y00349
X007905Y0012775
X0078425
X0077775
X00771
X007645
X0056775Y003595
Y0036575
Y0037225
Y00379
Y003855
X005525Y00385
Y003785
Y0037175
Y0036525
Y00359
X003205Y0012775
X0031425
X0030775
X00301
X002945
X0004775Y003595
Y0036575
Y0037225
Y00379
Y003855
X00305Y006325
X003115
X0031825
X0032475
X00331
X003305Y0064775
X0032425
X0031775
X00311
X003045
X000475Y00905
Y009115
Y0091825
X0059225Y0091775
Y00911
Y009045
X006075Y00905
Y009115
Y0091825
X008445Y0064775
X00851
X0085775
X0086425
X008705
X00871Y006325
X0086475
X0085825
X008515
X00845
X014095Y0063225
X0141575
X0142225
X01429
X014355
X01435Y006475
X014285
X0142175
X0141525
X01409
X0116775Y009195
X011525Y00919
X017125Y00979
Y0098525
Y0099175
Y009985
Y01005
X014655Y0123225
X01459
X0145225
X0144575
X014395
X0116775Y009455
Y00939
Y0093225
Y0092575
X011525Y0092525
Y0093175
Y009385
Y00945
X009055Y0123225
X00899
X0089225
X0088575
X008795
X006075Y00931
Y0092475
X0059225Y0092425
Y009305
X000475Y00931
Y0092475
X003095Y0123225
X0031575
X0032225
X00329
X003355
T03
X00366Y00364
X0031693Y00412
X00284Y00472
X00252Y0038
T04
X0002Y000975
X01745Y012625
T05
X0025Y00606
X0033
T06
X00374Y0047
X0023Y00318
T07
X013219Y0012
X013473
X013727
X013981
X015895Y003099
Y003353
Y003607
Y003861
X0119125Y0037835
Y0035295
Y0032755
Y0030215
X011915Y0022125
Y0019585
Y0017045
Y0014505
Y0045885
Y0048425
Y0050965
X0067175Y0043095
Y0040555
Y0038015
Y0035475
X005095Y003673
Y003927
Y004181
Y003419
X0012
Y003673
Y003927
Y004181
X002819Y0072
X003073
X003327
X00152Y0089715
X003581Y0072
X0055Y008992
X00712Y0089715
X008419Y0072
X008673
X008927
X009181
X0111Y008992
X01272Y0089715
X014019Y0072
X014273
X014527
X014781
X011915Y0053505
X0167Y008992
Y009246
Y0095
Y009754
X01272Y0097335
Y0094795
Y0092255
X0111Y009246
Y0095
Y009754
X00712Y0097335
Y0094795
Y0092255
X0055Y009246
Y0095
Y009754
X00152Y0097335
Y0094795
Y0092255
T09
X013Y00165
X0142
X0092Y00295
Y0048
X00735
Y00295
X004
Y0048
X00215
Y00295
X00195Y0079
X00495
X00755
X01055
X0133Y0078
X013Y00535
X0142
X0155Y0078
Y011
X0133
X01055Y0109
X00755
X00495
X00195
T10
X0113Y0009
X0159
X01025Y00175
X00615
X00505
X00095
Y00585
X0009Y0069
X0055
X0065
X00615Y00585
X00505
X01025
X0113Y0059
X0111Y0069
X0121Y0069
X0167
X0159Y0059
X0167Y0119
X0121
X0111Y0119
X0065
X0055
X0009
T11
X0157Y004525
Y004825
X00315395Y0023
X00285395
X0080726Y005575
X0083726
X01225Y0106976
Y0109976
X00665Y0109976
Y0106976
X00105
Y0109976
M30
