G04 Layer_Physical_Order=1*
G04 Layer_Color=255*
%FSLAX44Y44*%
%MOMM*%
G71*
G01*
G75*
%ADD10R,0.8500X0.8500*%
G04:AMPARAMS|DCode=11|XSize=1.3mm|YSize=1mm|CornerRadius=0.25mm|HoleSize=0mm|Usage=FLASHONLY|Rotation=90.000|XOffset=0mm|YOffset=0mm|HoleType=Round|Shape=RoundedRectangle|*
%AMROUNDEDRECTD11*
21,1,1.3000,0.5000,0,0,90.0*
21,1,0.8000,1.0000,0,0,90.0*
1,1,0.5000,0.2500,0.4000*
1,1,0.5000,0.2500,-0.4000*
1,1,0.5000,-0.2500,-0.4000*
1,1,0.5000,-0.2500,0.4000*
%
%ADD11ROUNDEDRECTD11*%
%ADD12C,0.5000*%
%ADD13P,1.9483X8X112.5*%
%ADD14C,1.8000*%
G36*
X140033Y115237D02*
X141116Y113616D01*
X142111Y112952D01*
Y106678D01*
X86394Y50961D01*
X85713Y51243D01*
X82700Y51639D01*
X79688Y51243D01*
X76880Y50080D01*
X75003Y48640D01*
X74164Y49597D01*
X135134Y110566D01*
X136248Y112233D01*
X136352Y112760D01*
X137634Y113616D01*
X138717Y115237D01*
X139016Y115283D01*
X139734D01*
X140033Y115237D01*
D02*
G37*
G36*
X112471Y102438D02*
X60994Y50961D01*
X60313Y51243D01*
X57300Y51639D01*
X54288Y51243D01*
X54111Y51170D01*
X53391Y52246D01*
X104756Y103611D01*
X111985D01*
X112471Y102438D01*
D02*
G37*
G36*
X234500Y267583D02*
X267925D01*
X269133Y267553D01*
D01*
X270357Y267358D01*
X271841Y266743D01*
X273218Y265686D01*
X274275Y264309D01*
X274939Y262705D01*
X275086Y261595D01*
X275085Y260367D01*
X275085Y260367D01*
X275115Y259149D01*
X275115Y258768D01*
Y143545D01*
X275115Y142500D01*
X275126Y142296D01*
X275005Y141094D01*
X274753Y139824D01*
X273520Y137980D01*
X271676Y136747D01*
X269852Y136385D01*
X235000D01*
X234988Y136395D01*
X234987Y136404D01*
X228814Y135999D01*
X222593Y134762D01*
X217927Y133178D01*
X217788Y133150D01*
X217787Y133150D01*
X217686Y133130D01*
X217463Y132981D01*
X217305Y132899D01*
X216710Y132580D01*
X214014Y131139D01*
X201134Y123130D01*
X188806Y114296D01*
X177082Y104675D01*
X166013Y94307D01*
X155645Y83237D01*
X146024Y71514D01*
X139339Y62186D01*
X139366Y62167D01*
X138911Y61487D01*
X138884Y61350D01*
X138464Y60498D01*
X136596Y54996D01*
X135463Y49298D01*
X135083Y43500D01*
X135140Y42624D01*
X135115Y42500D01*
Y11045D01*
X135115Y10000D01*
X135126Y9796D01*
X135005Y8594D01*
X134753Y7324D01*
X133520Y5480D01*
X131676Y4247D01*
X129852Y3885D01*
X10000D01*
X9833Y3851D01*
X7634Y4289D01*
X5629Y5629D01*
X4289Y7634D01*
X3851Y9833D01*
X3885Y10000D01*
Y42337D01*
X3885Y43500D01*
X3883Y43596D01*
X3840Y44860D01*
X4263Y50239D01*
X5607Y55837D01*
X6608Y58255D01*
X7103Y59418D01*
X7103D01*
X7103Y59418D01*
X11522Y69388D01*
X20119Y86467D01*
X25491Y95951D01*
X26761Y95616D01*
Y50362D01*
X26080Y50080D01*
X23670Y48230D01*
X21820Y45820D01*
X20657Y43012D01*
X20261Y40000D01*
X20657Y36988D01*
X21820Y34180D01*
X23670Y31770D01*
X26080Y29920D01*
X28888Y28757D01*
X31900Y28360D01*
X34913Y28757D01*
X37720Y29920D01*
X40130Y31770D01*
X41980Y34180D01*
X43143Y36988D01*
X43540Y40000D01*
X43261Y42116D01*
X45054Y43909D01*
X46130Y43189D01*
X46057Y43012D01*
X45661Y40000D01*
X46057Y36988D01*
X47220Y34180D01*
X49070Y31770D01*
X51480Y29920D01*
X54288Y28757D01*
X57300Y28360D01*
X60313Y28757D01*
X63120Y29920D01*
X65530Y31770D01*
X67380Y34180D01*
X68543Y36988D01*
X68940Y40000D01*
X68543Y43012D01*
X68261Y43694D01*
X73103Y48536D01*
X74060Y47697D01*
X72620Y45820D01*
X71457Y43012D01*
X71061Y40000D01*
X71457Y36988D01*
X72620Y34180D01*
X74470Y31770D01*
X76880Y29920D01*
X79688Y28757D01*
X82700Y28360D01*
X85713Y28757D01*
X88520Y29920D01*
X90930Y31770D01*
X92780Y34180D01*
X93943Y36988D01*
X94340Y40000D01*
X93943Y43012D01*
X93661Y43694D01*
X98503Y48536D01*
X99460Y47697D01*
X98020Y45820D01*
X96857Y43012D01*
X96461Y40000D01*
X96857Y36988D01*
X98020Y34180D01*
X99870Y31770D01*
X102280Y29920D01*
X105087Y28757D01*
X108100Y28360D01*
X111113Y28757D01*
X113920Y29920D01*
X116330Y31770D01*
X118180Y34180D01*
X119343Y36988D01*
X119740Y40000D01*
X119343Y43012D01*
X118180Y45820D01*
X116330Y48230D01*
X113920Y50080D01*
X111113Y51243D01*
X108100Y51639D01*
X105087Y51243D01*
X102280Y50080D01*
X100403Y48640D01*
X99564Y49597D01*
X150884Y100916D01*
X151998Y102584D01*
X152389Y104550D01*
Y112952D01*
X153384Y113616D01*
X154498Y115283D01*
X154889Y117250D01*
Y125250D01*
X154498Y127217D01*
X153384Y128884D01*
X151716Y129998D01*
X149750Y130389D01*
X144750D01*
X142783Y129998D01*
X141116Y128884D01*
X140033Y127263D01*
X139734Y127217D01*
X139016D01*
X138717Y127263D01*
X137634Y128884D01*
X136639Y129548D01*
Y138000D01*
X136248Y139966D01*
X135134Y141634D01*
X125384Y151384D01*
X123716Y152498D01*
X121750Y152889D01*
X101139D01*
Y164622D01*
X106938Y170421D01*
X108111Y169935D01*
Y164250D01*
X108502Y162283D01*
X109616Y160616D01*
X111284Y159502D01*
X113250Y159111D01*
X118250D01*
X120217Y159502D01*
X121884Y160616D01*
X122967Y162237D01*
X123266Y162283D01*
X123984D01*
X124283Y162237D01*
X125366Y160616D01*
X127034Y159502D01*
X129000Y159111D01*
X134000D01*
X135967Y159502D01*
X137634Y160616D01*
X138717Y162237D01*
X139016Y162283D01*
X139734D01*
X140033Y162237D01*
X141116Y160616D01*
X142783Y159502D01*
X144750Y159111D01*
X149750D01*
X151716Y159502D01*
X153384Y160616D01*
X154498Y162283D01*
X154662Y163111D01*
X159337D01*
X159357Y163009D01*
X159919Y162169D01*
X160203Y161978D01*
Y160522D01*
X159919Y160331D01*
X159357Y159491D01*
X159160Y158500D01*
Y150000D01*
X159357Y149009D01*
X159919Y148169D01*
X160759Y147607D01*
X161750Y147410D01*
X170250D01*
X171241Y147607D01*
X172081Y148169D01*
X172643Y149009D01*
X172663Y149111D01*
X195500D01*
X197467Y149502D01*
X199134Y150616D01*
X207978Y159461D01*
X228537D01*
X228607Y159109D01*
X229169Y158269D01*
X233669Y153769D01*
X234509Y153207D01*
X235500Y153010D01*
X244500D01*
X245491Y153207D01*
X246331Y153769D01*
X250831Y158269D01*
X251393Y159109D01*
X251590Y160100D01*
Y169100D01*
X251393Y170091D01*
X250831Y170931D01*
X246331Y175431D01*
X245491Y175993D01*
X244500Y176190D01*
X235500D01*
X234509Y175993D01*
X233669Y175431D01*
X229169Y170931D01*
X228607Y170091D01*
X228537Y169739D01*
X205850D01*
X203883Y169348D01*
X202216Y168234D01*
X193372Y159389D01*
X172663D01*
X172643Y159491D01*
X172081Y160331D01*
X171796Y160522D01*
Y161978D01*
X172081Y162169D01*
X172643Y163009D01*
X172840Y164000D01*
Y172500D01*
X172643Y173491D01*
X172081Y174331D01*
X171241Y174893D01*
X170250Y175090D01*
X161750D01*
X160759Y174893D01*
X159919Y174331D01*
X159357Y173491D01*
X159337Y173389D01*
X154662D01*
X154498Y174216D01*
X153384Y175884D01*
X151716Y176998D01*
X149750Y177389D01*
X144750D01*
X142783Y176998D01*
X141116Y175884D01*
X140033Y174263D01*
X139734Y174216D01*
X139016D01*
X138717Y174263D01*
X137634Y175884D01*
X135967Y176998D01*
X134000Y177389D01*
X129000D01*
X127034Y176998D01*
X125366Y175884D01*
X124283Y174263D01*
X123984Y174216D01*
X123266D01*
X122967Y174263D01*
X121884Y175884D01*
X120217Y176998D01*
X118250Y177389D01*
X115565D01*
X115079Y178562D01*
X124610Y188093D01*
X217831D01*
X219798Y188484D01*
X221465Y189598D01*
X230403Y198536D01*
X231360Y197697D01*
X229920Y195820D01*
X228757Y193013D01*
X228361Y190000D01*
X228757Y186987D01*
X229920Y184180D01*
X231770Y181770D01*
X234180Y179920D01*
X236987Y178757D01*
X240000Y178361D01*
X243013Y178757D01*
X245820Y179920D01*
X248230Y181770D01*
X250080Y184180D01*
X251243Y186987D01*
X251640Y190000D01*
X251243Y193013D01*
X250080Y195820D01*
X248230Y198230D01*
X245820Y200080D01*
X243013Y201243D01*
X240000Y201640D01*
X236987Y201243D01*
X234180Y200080D01*
X232303Y198640D01*
X231464Y199597D01*
X236306Y204439D01*
X236987Y204157D01*
X240000Y203761D01*
X243013Y204157D01*
X245820Y205320D01*
X248230Y207170D01*
X250080Y209580D01*
X251243Y212388D01*
X251640Y215400D01*
X251243Y218412D01*
X250080Y221220D01*
X248230Y223630D01*
X245820Y225480D01*
X243013Y226643D01*
X240000Y227040D01*
X236987Y226643D01*
X234180Y225480D01*
X231770Y223630D01*
X229920Y221220D01*
X228757Y218412D01*
X228361Y215400D01*
X228757Y212388D01*
X229039Y211706D01*
X215703Y198370D01*
X189797D01*
X189311Y199543D01*
X225429Y235661D01*
X229638D01*
X229920Y234980D01*
X231770Y232570D01*
X234180Y230720D01*
X236987Y229557D01*
X240000Y229160D01*
X243013Y229557D01*
X245820Y230720D01*
X248230Y232570D01*
X250080Y234980D01*
X251243Y237787D01*
X251640Y240800D01*
X251243Y243813D01*
X250080Y246620D01*
X248230Y249030D01*
X245820Y250880D01*
X243013Y252043D01*
X240000Y252440D01*
X236987Y252043D01*
X234180Y250880D01*
X231770Y249030D01*
X229920Y246620D01*
X229638Y245939D01*
X223300D01*
X221334Y245548D01*
X219666Y244434D01*
X181143Y205910D01*
X121104D01*
X120667Y207180D01*
X131621Y215728D01*
X147254Y226738D01*
X163408Y236968D01*
X180044Y246392D01*
X197124Y254989D01*
X214604Y262738D01*
X220074Y264848D01*
X220078Y264846D01*
X220078Y264846D01*
X222047Y265662D01*
X228267Y267155D01*
X234276Y267628D01*
X234500Y267583D01*
D02*
G37*
G36*
X90861Y163348D02*
Y147750D01*
X91252Y145784D01*
X92366Y144116D01*
X94033Y143002D01*
X96000Y142611D01*
X119621D01*
X126361Y135871D01*
Y129548D01*
X125366Y128884D01*
X124283Y127263D01*
X123984Y127217D01*
X123266D01*
X122967Y127263D01*
X121884Y128884D01*
X120217Y129998D01*
X118250Y130389D01*
X113250D01*
X111284Y129998D01*
X109616Y128884D01*
X108502Y127217D01*
X108111Y125250D01*
Y117250D01*
X108502Y115283D01*
X108686Y115009D01*
X108087Y113889D01*
X102628D01*
X100661Y113498D01*
X98994Y112384D01*
X38212Y51602D01*
X37039Y52088D01*
Y94137D01*
X40461Y97559D01*
X41575Y99227D01*
X41967Y101193D01*
Y108016D01*
X42810Y109279D01*
X42883Y109645D01*
X57455Y124216D01*
X58569Y125884D01*
X58960Y127850D01*
Y132660D01*
X64029Y137728D01*
X64927Y139073D01*
X89688Y163834D01*
X90861Y163348D01*
D02*
G37*
D10*
X166000Y154250D02*
D03*
Y168250D02*
D03*
D11*
X115750Y121250D02*
D03*
X131500D02*
D03*
X147250D02*
D03*
Y168250D02*
D03*
X131500D02*
D03*
X115750D02*
D03*
D12*
X82700Y40000D02*
X147250Y104550D01*
Y121250D01*
X57300Y40000D02*
X131500Y114200D01*
Y121250D01*
X31900Y40000D02*
X33878D01*
X102628Y108750D01*
X114750D01*
X115750Y109750D01*
Y121250D01*
Y168250D02*
X131500D01*
X147250D01*
X166000D01*
X205850Y164600D02*
X240000D01*
X195500Y154250D02*
X205850Y164600D01*
X166000Y154250D02*
X195500D01*
X131500Y121250D02*
Y138000D01*
X121750Y147750D02*
X131500Y138000D01*
X96000Y147750D02*
X121750D01*
X96000D02*
Y166750D01*
X223300Y240800D02*
X240000D01*
X122481Y193231D02*
X217831D01*
X240000Y215400D01*
X183271Y200771D02*
X223300Y240800D01*
X119358Y200771D02*
X183271D01*
X60395Y141808D02*
X119358Y200771D01*
X96000Y166750D02*
X122481Y193231D01*
X31900Y40000D02*
Y96265D01*
X36828Y101193D01*
Y110010D01*
X38063Y111245D01*
X53821Y134788D02*
X60395Y141362D01*
Y141808D01*
X38063Y111245D02*
Y112092D01*
X53821Y127850D01*
Y134788D01*
D13*
X240000Y164600D02*
D03*
D14*
Y190000D02*
D03*
Y215400D02*
D03*
Y240800D02*
D03*
X108100Y40000D02*
D03*
X31900D02*
D03*
X57300D02*
D03*
X82700D02*
D03*
M02*
