G04 Layer_Physical_Order=2*
G04 Layer_Color=16711680*
%FSLAX44Y44*%
%MOMM*%
G71*
G01*
G75*
%ADD10R,0.8500X0.8500*%
G04:AMPARAMS|DCode=11|XSize=1.3mm|YSize=1mm|CornerRadius=0.25mm|HoleSize=0mm|Usage=FLASHONLY|Rotation=90.000|XOffset=0mm|YOffset=0mm|HoleType=Round|Shape=RoundedRectangle|*
%AMROUNDEDRECTD11*
21,1,1.3000,0.5000,0,0,90.0*
21,1,0.8000,1.0000,0,0,90.0*
1,1,0.5000,0.2500,0.4000*
1,1,0.5000,0.2500,-0.4000*
1,1,0.5000,-0.2500,-0.4000*
1,1,0.5000,-0.2500,0.4000*
%
%ADD11ROUNDEDRECTD11*%
%ADD12C,0.5000*%
%ADD13P,1.9483X8X112.5*%
%ADD14C,1.8000*%
G36*
X234500Y267583D02*
X267925D01*
X269133Y267553D01*
D01*
X270357Y267358D01*
X271841Y266743D01*
X273218Y265686D01*
X274275Y264309D01*
X274939Y262705D01*
X275086Y261595D01*
X275085Y260367D01*
X275085Y260367D01*
X275115Y259149D01*
X275115Y258768D01*
Y143545D01*
X275115Y142500D01*
X275126Y142296D01*
X275005Y141094D01*
X274753Y139824D01*
X273520Y137980D01*
X271676Y136747D01*
X269852Y136385D01*
X235000D01*
X234988Y136395D01*
X234987Y136404D01*
X228814Y135999D01*
X222593Y134762D01*
X217927Y133178D01*
X217788Y133150D01*
X217787Y133150D01*
X217686Y133130D01*
X217463Y132981D01*
X217305Y132899D01*
X216710Y132580D01*
X214014Y131139D01*
X201134Y123130D01*
X188806Y114296D01*
X177082Y104675D01*
X166013Y94307D01*
X155645Y83237D01*
X146024Y71514D01*
X139339Y62186D01*
X139366Y62167D01*
X138911Y61487D01*
X138884Y61350D01*
X138464Y60498D01*
X136596Y54996D01*
X135463Y49298D01*
X135083Y43500D01*
X135140Y42624D01*
X135115Y42500D01*
Y11045D01*
X135115Y10000D01*
X135126Y9796D01*
X135005Y8594D01*
X134753Y7324D01*
X133520Y5480D01*
X131676Y4247D01*
X129852Y3885D01*
X10000D01*
X9833Y3851D01*
X7634Y4289D01*
X5629Y5629D01*
X4289Y7634D01*
X3851Y9833D01*
X3885Y10000D01*
Y42337D01*
X3885Y43500D01*
X3883Y43596D01*
X3840Y44860D01*
X4263Y50239D01*
X5607Y55837D01*
X6608Y58255D01*
X7103Y59418D01*
X7103D01*
X7103Y59418D01*
X11522Y69388D01*
X20119Y86467D01*
X29543Y103104D01*
X39773Y119258D01*
X50783Y134891D01*
X62547Y149965D01*
X75036Y164443D01*
X88220Y178291D01*
X102069Y191476D01*
X116547Y203965D01*
X131621Y215728D01*
X147254Y226738D01*
X163408Y236968D01*
X180044Y246392D01*
X197124Y254989D01*
X214604Y262738D01*
X220074Y264848D01*
X220078Y264846D01*
X220078Y264846D01*
X222047Y265662D01*
X228267Y267155D01*
X234276Y267628D01*
X234500Y267583D01*
D02*
G37*
%LPC*%
G36*
X240000Y201640D02*
X236987Y201243D01*
X234180Y200080D01*
X231770Y198230D01*
X229920Y195820D01*
X228809Y193139D01*
X215128D01*
X213161Y192748D01*
X211494Y191634D01*
X174013Y154153D01*
X172840Y154639D01*
Y158750D01*
X172643Y159741D01*
X172081Y160581D01*
X171796Y160772D01*
Y162229D01*
X172081Y162419D01*
X172643Y163259D01*
X172840Y164250D01*
Y172750D01*
X172643Y173741D01*
X172081Y174581D01*
X171241Y175143D01*
X170250Y175340D01*
X161750D01*
X160759Y175143D01*
X159919Y174581D01*
X159357Y173741D01*
X159337Y173639D01*
X154862D01*
X154748Y174216D01*
X153634Y175884D01*
X151966Y176998D01*
X150000Y177389D01*
X145000D01*
X143034Y176998D01*
X141366Y175884D01*
X140283Y174263D01*
X139984Y174216D01*
X139266D01*
X138967Y174263D01*
X137884Y175884D01*
X136216Y176998D01*
X134250Y177389D01*
X129250D01*
X127283Y176998D01*
X125616Y175884D01*
X124533Y174263D01*
X124234Y174216D01*
X123516D01*
X123217Y174263D01*
X122134Y175884D01*
X120466Y176998D01*
X118500Y177389D01*
X113500D01*
X111533Y176998D01*
X109866Y175884D01*
X108752Y174216D01*
X108361Y172250D01*
Y164250D01*
X108752Y162283D01*
X109866Y160616D01*
X111533Y159502D01*
X113500Y159111D01*
X118500D01*
X120466Y159502D01*
X122134Y160616D01*
X123217Y162237D01*
X123516Y162283D01*
X124234D01*
X124533Y162237D01*
X125616Y160616D01*
X127283Y159502D01*
X129250Y159111D01*
X134250D01*
X136216Y159502D01*
X137884Y160616D01*
X138967Y162237D01*
X139266Y162283D01*
X139984D01*
X140283Y162237D01*
X141366Y160616D01*
X143034Y159502D01*
X145000Y159111D01*
X150000D01*
X151966Y159502D01*
X153634Y160616D01*
X154748Y162283D01*
X154962Y163361D01*
X159337D01*
X159357Y163259D01*
X159919Y162419D01*
X160203Y162229D01*
Y160772D01*
X159919Y160581D01*
X159357Y159741D01*
X159160Y158750D01*
Y150250D01*
X158659Y149639D01*
X114000D01*
X112034Y149248D01*
X110366Y148134D01*
X28266Y66034D01*
X27152Y64366D01*
X26761Y62400D01*
Y50362D01*
X26080Y50080D01*
X23670Y48230D01*
X21820Y45820D01*
X20657Y43012D01*
X20261Y40000D01*
X20657Y36988D01*
X21820Y34180D01*
X23670Y31770D01*
X26080Y29920D01*
X28888Y28757D01*
X31900Y28360D01*
X34913Y28757D01*
X37720Y29920D01*
X40130Y31770D01*
X41980Y34180D01*
X43143Y36988D01*
X43540Y40000D01*
X43143Y43012D01*
X41980Y45820D01*
X40130Y48230D01*
X37720Y50080D01*
X37039Y50362D01*
Y60272D01*
X116129Y139361D01*
X129435D01*
X129921Y138188D01*
X128116Y136384D01*
X127002Y134717D01*
X126611Y132750D01*
Y129548D01*
X125616Y128884D01*
X124533Y127263D01*
X124234Y127217D01*
X123516D01*
X123217Y127263D01*
X122134Y128884D01*
X120466Y129998D01*
X118500Y130389D01*
X113500D01*
X111533Y129998D01*
X109866Y128884D01*
X108752Y127217D01*
X108361Y125250D01*
Y117250D01*
X108752Y115283D01*
X109866Y113616D01*
X110861Y112952D01*
Y110128D01*
X53666Y52934D01*
X52552Y51266D01*
X52392Y50458D01*
X51480Y50080D01*
X49070Y48230D01*
X47220Y45820D01*
X46057Y43012D01*
X45661Y40000D01*
X46057Y36988D01*
X47220Y34180D01*
X49070Y31770D01*
X51480Y29920D01*
X54288Y28757D01*
X57300Y28360D01*
X60313Y28757D01*
X63120Y29920D01*
X65530Y31770D01*
X67380Y34180D01*
X68543Y36988D01*
X68940Y40000D01*
X68543Y43012D01*
X67380Y45820D01*
X65530Y48230D01*
X65144Y48527D01*
X65061Y49794D01*
X119634Y104366D01*
X120748Y106033D01*
X121139Y108000D01*
Y112952D01*
X122134Y113616D01*
X123217Y115237D01*
X123516Y115283D01*
X124234D01*
X124533Y115237D01*
X125616Y113616D01*
X126611Y112952D01*
Y107879D01*
X79066Y60334D01*
X77952Y58667D01*
X77561Y56700D01*
Y50362D01*
X76880Y50080D01*
X74470Y48230D01*
X72620Y45820D01*
X71457Y43012D01*
X71061Y40000D01*
X71457Y36988D01*
X72620Y34180D01*
X74470Y31770D01*
X76880Y29920D01*
X79688Y28757D01*
X82700Y28360D01*
X85713Y28757D01*
X88520Y29920D01*
X90930Y31770D01*
X92780Y34180D01*
X93943Y36988D01*
X94340Y40000D01*
X93943Y43012D01*
X92780Y45820D01*
X90930Y48230D01*
X88520Y50080D01*
X87839Y50362D01*
Y54571D01*
X135384Y102116D01*
X136498Y103784D01*
X136889Y105750D01*
Y112952D01*
X137884Y113616D01*
X138967Y115237D01*
X139266Y115283D01*
X139984D01*
X140283Y115237D01*
X141366Y113616D01*
X142361Y112952D01*
Y94129D01*
X104466Y56234D01*
X103352Y54566D01*
X102961Y52600D01*
Y50362D01*
X102280Y50080D01*
X99870Y48230D01*
X98020Y45820D01*
X96857Y43012D01*
X96461Y40000D01*
X96857Y36988D01*
X98020Y34180D01*
X99870Y31770D01*
X102280Y29920D01*
X105087Y28757D01*
X108100Y28360D01*
X111113Y28757D01*
X113920Y29920D01*
X116330Y31770D01*
X118180Y34180D01*
X119343Y36988D01*
X119740Y40000D01*
X119343Y43012D01*
X118180Y45820D01*
X116330Y48230D01*
X114329Y49766D01*
X114078Y51033D01*
X114134Y51366D01*
X151134Y88366D01*
X152248Y90034D01*
X152639Y92000D01*
Y112952D01*
X153634Y113616D01*
X154748Y115283D01*
X154912Y116111D01*
X171250D01*
X173216Y116502D01*
X174884Y117616D01*
X216728Y159461D01*
X228537D01*
X228607Y159109D01*
X229169Y158269D01*
X233669Y153769D01*
X234509Y153207D01*
X235500Y153010D01*
X244500D01*
X245491Y153207D01*
X246331Y153769D01*
X250831Y158269D01*
X251393Y159109D01*
X251590Y160100D01*
Y169100D01*
X251393Y170091D01*
X250831Y170931D01*
X246331Y175431D01*
X245491Y175993D01*
X244500Y176190D01*
X235500D01*
X234509Y175993D01*
X233669Y175431D01*
X229169Y170931D01*
X228607Y170091D01*
X228537Y169739D01*
X214600D01*
X212633Y169348D01*
X210966Y168234D01*
X169121Y126389D01*
X154912D01*
X154748Y127217D01*
X153634Y128884D01*
X151966Y129998D01*
X150000Y130389D01*
X145000D01*
X143034Y129998D01*
X141366Y128884D01*
X140283Y127263D01*
X139984Y127217D01*
X139266D01*
X138967Y127263D01*
X137884Y128884D01*
X137071Y129427D01*
X136992Y130724D01*
X138089Y131821D01*
X168413D01*
X170380Y132212D01*
X172047Y133326D01*
X177174Y138453D01*
X178288Y140120D01*
X178679Y142087D01*
Y144284D01*
X217256Y182861D01*
X230932D01*
X231770Y181770D01*
X234180Y179920D01*
X236987Y178757D01*
X240000Y178361D01*
X243013Y178757D01*
X245820Y179920D01*
X248230Y181770D01*
X250080Y184180D01*
X251243Y186987D01*
X251640Y190000D01*
X251243Y193013D01*
X250080Y195820D01*
X248230Y198230D01*
X245820Y200080D01*
X243013Y201243D01*
X240000Y201640D01*
D02*
G37*
G36*
Y227040D02*
X236987Y226643D01*
X234180Y225480D01*
X231770Y223630D01*
X229920Y221220D01*
X228757Y218412D01*
X228361Y215400D01*
X228757Y212388D01*
X229920Y209580D01*
X231770Y207170D01*
X234180Y205320D01*
X236987Y204157D01*
X240000Y203761D01*
X243013Y204157D01*
X245820Y205320D01*
X248230Y207170D01*
X250080Y209580D01*
X251243Y212388D01*
X251640Y215400D01*
X251243Y218412D01*
X250080Y221220D01*
X248230Y223630D01*
X245820Y225480D01*
X243013Y226643D01*
X240000Y227040D01*
D02*
G37*
G36*
Y252440D02*
X236987Y252043D01*
X234180Y250880D01*
X231770Y249030D01*
X229920Y246620D01*
X228757Y243813D01*
X228361Y240800D01*
X228757Y237787D01*
X229920Y234980D01*
X231770Y232570D01*
X234180Y230720D01*
X236987Y229557D01*
X240000Y229160D01*
X243013Y229557D01*
X245820Y230720D01*
X248230Y232570D01*
X250080Y234980D01*
X251243Y237787D01*
X251640Y240800D01*
X251243Y243813D01*
X250080Y246620D01*
X248230Y249030D01*
X245820Y250880D01*
X243013Y252043D01*
X240000Y252440D01*
D02*
G37*
%LPD*%
D10*
X166000Y154500D02*
D03*
Y168500D02*
D03*
D11*
X147500Y121250D02*
D03*
X131750D02*
D03*
X116000D02*
D03*
Y168250D02*
D03*
X131750D02*
D03*
X147500D02*
D03*
D12*
X108100Y40000D02*
Y52600D01*
X147500Y92000D01*
Y121250D01*
X131750Y105750D02*
Y121250D01*
X82700Y56700D02*
X131750Y105750D01*
X82700Y40000D02*
Y56700D01*
X116000Y108000D02*
Y121250D01*
X57300Y49300D02*
X116000Y108000D01*
X57300Y40000D02*
Y49300D01*
X116000Y168250D02*
X116250Y168500D01*
X31900Y40000D02*
Y62400D01*
X114000Y144500D01*
X165290D01*
X166000Y145210D02*
Y154500D01*
X165290Y144500D02*
X166000Y145210D01*
X147500Y121250D02*
X171250D01*
X214600Y164600D01*
X240000D01*
X131750Y121250D02*
Y132750D01*
X135960Y136960D01*
X168413D01*
X173540Y142087D01*
Y146412D01*
X215128Y188000D01*
X238000D01*
X240000Y190000D01*
X116250Y168500D02*
X166000D01*
D13*
X240000Y164600D02*
D03*
D14*
Y190000D02*
D03*
Y215400D02*
D03*
Y240800D02*
D03*
X108100Y40000D02*
D03*
X31900D02*
D03*
X57300D02*
D03*
X82700D02*
D03*
M02*
