G04 Layer_Color=32896*
%FSLAX44Y44*%
%MOMM*%
G71*
G01*
G75*
%ADD15C,0.2000*%
G36*
X134338Y106031D02*
X134572Y106012D01*
X135002Y105914D01*
X135392Y105758D01*
X135704Y105583D01*
X135977Y105407D01*
X136172Y105271D01*
X136230Y105192D01*
X136289Y105154D01*
X136308Y105134D01*
X136328Y105114D01*
X136484Y104939D01*
X136640Y104763D01*
X136874Y104373D01*
X137030Y104003D01*
X137147Y103651D01*
X137225Y103359D01*
X137245Y103222D01*
Y103105D01*
X137264Y103027D01*
Y102949D01*
Y102910D01*
Y102891D01*
Y100257D01*
X137245Y100082D01*
X137186Y99965D01*
X137089Y99867D01*
X137011Y99809D01*
X136913Y99769D01*
X136816Y99750D01*
X127257D01*
X127082Y99769D01*
X126965Y99828D01*
X126867Y99926D01*
X126809Y100023D01*
X126770Y100101D01*
X126750Y100199D01*
Y100257D01*
Y100277D01*
X126770Y100452D01*
X126828Y100589D01*
X126926Y100667D01*
X127023Y100745D01*
X127101Y100784D01*
X127199Y100803D01*
X130964D01*
Y102891D01*
Y102969D01*
Y103027D01*
X130944Y103066D01*
Y103086D01*
X127043Y105036D01*
X126945Y105095D01*
X126867Y105173D01*
X126828Y105251D01*
X126789Y105349D01*
X126750Y105466D01*
Y105505D01*
Y105524D01*
X126770Y105661D01*
X126828Y105778D01*
X126887Y105856D01*
X126906Y105875D01*
X127023Y105973D01*
X127140Y106031D01*
X127218Y106051D01*
X127355D01*
X127433Y106031D01*
X127491Y106012D01*
X127511Y105992D01*
X131178Y104159D01*
X131334Y104490D01*
X131510Y104783D01*
X131724Y105036D01*
X131958Y105251D01*
X132192Y105446D01*
X132427Y105583D01*
X132680Y105719D01*
X132914Y105817D01*
X133148Y105895D01*
X133383Y105953D01*
X133577Y105992D01*
X133753Y106031D01*
X133890D01*
X134007Y106051D01*
X134104D01*
X134338Y106031D01*
D02*
G37*
G36*
X154413D02*
X154550Y105973D01*
X154628Y105875D01*
X154706Y105797D01*
X154745Y105700D01*
X154764Y105602D01*
Y105544D01*
Y105524D01*
Y102364D01*
X154725Y101974D01*
X154647Y101623D01*
X154511Y101291D01*
X154374Y101038D01*
X154238Y100803D01*
X154101Y100647D01*
X154023Y100550D01*
X153984Y100511D01*
X153692Y100257D01*
X153379Y100062D01*
X153067Y99945D01*
X152775Y99847D01*
X152521Y99789D01*
X152306Y99769D01*
X152228Y99750D01*
X146864D01*
X146474Y99789D01*
X146123Y99867D01*
X145791Y99984D01*
X145538Y100140D01*
X145303Y100277D01*
X145147Y100394D01*
X145050Y100472D01*
X145011Y100511D01*
X144757Y100803D01*
X144562Y101116D01*
X144445Y101428D01*
X144347Y101720D01*
X144289Y101974D01*
X144270Y102188D01*
X144250Y102266D01*
Y102325D01*
Y102344D01*
Y102364D01*
Y105524D01*
X144270Y105700D01*
X144328Y105836D01*
X144406Y105914D01*
X144504Y105992D01*
X144601Y106031D01*
X144679Y106051D01*
X150024D01*
X150200Y106031D01*
X150336Y105973D01*
X150414Y105875D01*
X150492Y105797D01*
X150531Y105700D01*
X150551Y105602D01*
Y105544D01*
Y105524D01*
Y103944D01*
X150531Y103769D01*
X150473Y103632D01*
X150375Y103554D01*
X150297Y103476D01*
X150200Y103437D01*
X150102Y103417D01*
X150024D01*
X149849Y103437D01*
X149712Y103495D01*
X149634Y103593D01*
X149556Y103690D01*
X149517Y103769D01*
X149497Y103866D01*
Y103925D01*
Y103944D01*
Y104997D01*
X145303D01*
Y102364D01*
X145323Y102130D01*
X145381Y101915D01*
X145440Y101720D01*
X145538Y101564D01*
X145616Y101428D01*
X145674Y101330D01*
X145733Y101272D01*
X145752Y101252D01*
X145928Y101096D01*
X146123Y100998D01*
X146298Y100920D01*
X146474Y100862D01*
X146630Y100823D01*
X146747Y100803D01*
X152131D01*
X152365Y100823D01*
X152580Y100881D01*
X152775Y100940D01*
X152931Y101038D01*
X153067Y101116D01*
X153165Y101174D01*
X153223Y101233D01*
X153243Y101252D01*
X153399Y101428D01*
X153516Y101623D01*
X153594Y101798D01*
X153652Y101974D01*
X153692Y102130D01*
X153711Y102247D01*
Y102344D01*
Y102364D01*
Y105524D01*
X153730Y105700D01*
X153789Y105836D01*
X153887Y105914D01*
X153984Y105992D01*
X154062Y106031D01*
X154160Y106051D01*
X154238D01*
X154413Y106031D01*
D02*
G37*
G36*
X115222D02*
X115515Y105992D01*
X115808Y105914D01*
X116061Y105817D01*
X116315Y105700D01*
X116529Y105583D01*
X116724Y105446D01*
X116919Y105309D01*
X117076Y105154D01*
X117212Y105017D01*
X117329Y104900D01*
X117407Y104783D01*
X117485Y104685D01*
X117544Y104607D01*
X117563Y104568D01*
X117583Y104549D01*
X117739Y104724D01*
X117895Y104880D01*
X118070Y104997D01*
X118226Y105114D01*
X118577Y105290D01*
X118909Y105407D01*
X119182Y105466D01*
X119416Y105505D01*
X119514Y105524D01*
X119631D01*
X120041Y105485D01*
X120392Y105407D01*
X120704Y105290D01*
X120977Y105154D01*
X121211Y104997D01*
X121367Y104880D01*
X121465Y104802D01*
X121504Y104763D01*
X121757Y104471D01*
X121952Y104159D01*
X122089Y103847D01*
X122167Y103534D01*
X122225Y103281D01*
X122245Y103086D01*
X122264Y103008D01*
Y102949D01*
Y102910D01*
Y102891D01*
Y100257D01*
X122245Y100082D01*
X122186Y99965D01*
X122089Y99867D01*
X122011Y99809D01*
X121913Y99769D01*
X121816Y99750D01*
X112257D01*
X112082Y99769D01*
X111965Y99828D01*
X111867Y99906D01*
X111809Y100004D01*
X111770Y100101D01*
X111750Y100179D01*
Y100238D01*
Y100257D01*
Y102891D01*
X111770Y103125D01*
X111789Y103359D01*
X111887Y103788D01*
X112043Y104178D01*
X112218Y104490D01*
X112374Y104763D01*
X112530Y104958D01*
X112589Y105017D01*
X112628Y105076D01*
X112667Y105095D01*
Y105114D01*
X112842Y105271D01*
X113018Y105427D01*
X113408Y105661D01*
X113779Y105817D01*
X114130Y105934D01*
X114423Y106012D01*
X114559Y106031D01*
X114676D01*
X114774Y106051D01*
X114891D01*
X115222Y106031D01*
D02*
G37*
%LPC*%
G36*
X134260Y104997D02*
X134104D01*
X133792Y104978D01*
X133499Y104900D01*
X133246Y104802D01*
X133031Y104685D01*
X132856Y104568D01*
X132739Y104471D01*
X132641Y104393D01*
X132622Y104373D01*
X132427Y104139D01*
X132271Y103885D01*
X132173Y103632D01*
X132095Y103398D01*
X132056Y103203D01*
X132037Y103047D01*
X132017Y102930D01*
Y102910D01*
Y102891D01*
Y100803D01*
X136211D01*
Y102891D01*
X136192Y103203D01*
X136114Y103495D01*
X136016Y103749D01*
X135899Y103963D01*
X135782Y104139D01*
X135684Y104256D01*
X135606Y104354D01*
X135587Y104373D01*
X135353Y104588D01*
X135099Y104744D01*
X134846Y104841D01*
X134611Y104919D01*
X134416Y104958D01*
X134260Y104997D01*
D02*
G37*
G36*
X119748Y104471D02*
X119631D01*
X119397Y104451D01*
X119182Y104393D01*
X118987Y104315D01*
X118812Y104237D01*
X118675Y104159D01*
X118577Y104081D01*
X118519Y104022D01*
X118499Y104003D01*
X118343Y103827D01*
X118246Y103632D01*
X118168Y103437D01*
X118109Y103281D01*
X118070Y103125D01*
X118051Y103008D01*
Y102910D01*
Y102891D01*
Y100803D01*
X121211D01*
Y102891D01*
X121192Y103125D01*
X121133Y103339D01*
X121055Y103534D01*
X120977Y103690D01*
X120899Y103827D01*
X120821Y103925D01*
X120762Y103983D01*
X120743Y104003D01*
X120567Y104159D01*
X120372Y104276D01*
X120177Y104354D01*
X120021Y104412D01*
X119865Y104451D01*
X119748Y104471D01*
D02*
G37*
G36*
X115047Y104997D02*
X114891D01*
X114579Y104978D01*
X114286Y104900D01*
X114032Y104802D01*
X113818Y104685D01*
X113642Y104568D01*
X113525Y104471D01*
X113428Y104393D01*
X113408Y104373D01*
X113213Y104139D01*
X113057Y103885D01*
X112959Y103632D01*
X112881Y103398D01*
X112842Y103203D01*
X112823Y103047D01*
X112803Y102930D01*
Y102910D01*
Y102891D01*
Y100803D01*
X116997D01*
Y102891D01*
X116978Y103203D01*
X116900Y103495D01*
X116802Y103749D01*
X116685Y103963D01*
X116568Y104139D01*
X116471Y104256D01*
X116393Y104354D01*
X116373Y104373D01*
X116139Y104588D01*
X115885Y104744D01*
X115632Y104841D01*
X115398Y104919D01*
X115203Y104958D01*
X115047Y104997D01*
D02*
G37*
%LPD*%
D15*
X121750Y154750D02*
X141750D01*
X121750Y134750D02*
X141750D01*
X131750Y132250D02*
Y157250D01*
Y154750D02*
X141750Y134750D01*
X121750D02*
X131750Y154750D01*
X172250Y148250D02*
Y174750D01*
X159750Y148250D02*
Y174750D01*
Y148250D02*
X172250D01*
X159750Y174750D02*
X172250D01*
M02*
