G04 Layer_Physical_Order=2*
G04 Layer_Color=16711680*
%FSLAX44Y44*%
%MOMM*%
G71*
G01*
G75*
%ADD11C,0.6000*%
%ADD12C,1.8000*%
%ADD13C,2.0000*%
%ADD14R,2.0000X2.0000*%
%ADD15C,0.7000*%
%ADD16R,1.0000X1.2500*%
G36*
X-140000Y496115D02*
X0Y496115D01*
X140000Y496115D01*
X140167Y496148D01*
X142366Y495711D01*
X144371Y494371D01*
X145711Y492366D01*
X146149Y490167D01*
X146115Y490000D01*
Y390000D01*
X146149Y389833D01*
X145711Y387634D01*
X144371Y385629D01*
X142366Y384289D01*
X140167Y383852D01*
X140000Y383885D01*
X120000Y383885D01*
X120000Y383885D01*
X120000Y383885D01*
X118801Y384057D01*
X117634Y384289D01*
X115629Y385629D01*
X114289Y387634D01*
X113851Y389833D01*
X113885Y390000D01*
X113885Y403784D01*
X113911Y405039D01*
Y405039D01*
X113911Y405039D01*
X113457Y408481D01*
X112076Y411817D01*
X109878Y414681D01*
X107013Y416879D01*
X103678Y418261D01*
X101186Y418589D01*
X100098Y418732D01*
X99961Y418714D01*
X98695Y418691D01*
X50219Y418798D01*
X49785Y418885D01*
Y418929D01*
X46180Y418455D01*
X42821Y417063D01*
X39936Y414849D01*
X37722Y411964D01*
X36331Y408605D01*
X35856Y405000D01*
X35900Y404996D01*
X36115Y179996D01*
X36264Y179254D01*
X36411Y178513D01*
X36412Y178512D01*
X36412Y178510D01*
X36834Y177880D01*
X37253Y177253D01*
X37255Y177252D01*
X37256Y177250D01*
X37886Y176830D01*
X38513Y176411D01*
X38515Y176411D01*
X38517Y176410D01*
X39262Y176262D01*
X40000Y176115D01*
X41230Y176019D01*
X43149Y175831D01*
X46177Y174912D01*
X48967Y173421D01*
X51413Y171413D01*
X53421Y168967D01*
X54912Y166177D01*
X55831Y163149D01*
X56132Y160085D01*
X56115Y160000D01*
X56115Y40000D01*
X56132Y39915D01*
X55831Y36851D01*
X54912Y33823D01*
X53421Y31033D01*
X51413Y28587D01*
X48967Y26579D01*
X46177Y25088D01*
X43149Y24169D01*
X41248Y23982D01*
X40000Y23929D01*
Y23929D01*
X36395Y23455D01*
X33035Y22063D01*
X30151Y19849D01*
X27937Y16965D01*
X26545Y13605D01*
X26071Y10000D01*
X26071D01*
X26141Y8759D01*
X26207Y5695D01*
X25604Y4793D01*
X24578Y4107D01*
X24388Y4070D01*
X23244Y3905D01*
X23934Y4006D01*
X24388Y4070D01*
X24427Y4077D01*
X23934Y4006D01*
X23179Y3899D01*
X21942Y3885D01*
X21764Y3885D01*
X-21764D01*
X-21942Y3885D01*
X-23179Y3899D01*
X-23934Y4006D01*
X-24427Y4077D01*
X-24388Y4070D01*
X-23934Y4006D01*
X-23244Y3905D01*
X-24388Y4070D01*
X-24578Y4107D01*
X-25604Y4793D01*
X-26207Y5695D01*
X-26141Y8759D01*
X-26071Y10000D01*
Y10000D01*
X-26071Y10000D01*
X-26546Y13605D01*
X-27937Y16965D01*
X-30151Y19849D01*
X-33035Y22063D01*
X-36395Y23455D01*
X-38778Y23768D01*
X-40000Y23929D01*
X-41248Y23982D01*
X-43149Y24169D01*
X-46177Y25088D01*
X-48967Y26579D01*
X-51413Y28587D01*
X-53421Y31033D01*
X-54912Y33823D01*
X-55831Y36851D01*
X-56132Y39915D01*
X-56115Y40000D01*
Y160000D01*
X-56132Y160085D01*
X-55831Y163149D01*
X-54912Y166177D01*
X-53421Y168967D01*
X-51413Y171413D01*
X-48967Y173421D01*
X-46177Y174912D01*
X-43149Y175831D01*
X-41230Y176019D01*
X-40000Y176115D01*
X-39262Y176262D01*
X-38517Y176410D01*
X-38515Y176411D01*
X-38513Y176411D01*
X-37886Y176830D01*
X-37256Y177250D01*
X-37255Y177252D01*
X-37253Y177253D01*
X-36834Y177880D01*
X-36412Y178510D01*
X-36412Y178512D01*
X-36411Y178513D01*
X-36264Y179254D01*
X-36115Y179996D01*
X-35900Y404996D01*
X-35856Y405000D01*
X-36331Y408605D01*
X-37722Y411964D01*
X-39936Y414849D01*
X-42821Y417063D01*
X-46180Y418455D01*
X-49785Y418929D01*
X-49794Y418885D01*
X-98695Y418776D01*
X-99961Y418800D01*
X-100098Y418818D01*
X-101176Y418676D01*
X-103678Y418346D01*
X-107014Y416965D01*
X-109878Y414767D01*
X-112076Y411902D01*
X-113458Y408567D01*
X-113911Y405124D01*
X-113911D01*
X-113885Y403870D01*
X-113885Y391355D01*
X-113885Y390085D01*
X-114057Y388886D01*
X-114289Y387720D01*
X-115629Y385714D01*
X-117634Y384374D01*
X-118801Y384142D01*
X-120000Y383970D01*
Y383970D01*
X-140000Y383970D01*
X-140167Y383937D01*
X-142366Y384374D01*
X-144371Y385714D01*
X-145711Y387720D01*
X-146149Y389918D01*
X-146116Y390085D01*
Y490085D01*
X-146149Y490252D01*
X-145711Y492451D01*
X-144371Y494456D01*
X-142366Y495797D01*
X-140382Y496191D01*
X-140000Y496115D01*
D02*
G37*
%LPC*%
G36*
X-12700Y154640D02*
X-15712Y154243D01*
X-18520Y153080D01*
X-20930Y151230D01*
X-22780Y148820D01*
X-23943Y146012D01*
X-24340Y143000D01*
X-23943Y139987D01*
X-22780Y137180D01*
X-20930Y134770D01*
X-18520Y132920D01*
X-15712Y131757D01*
X-12700Y131360D01*
X-9688Y131757D01*
X-6880Y132920D01*
X-4470Y134770D01*
X-2620Y137180D01*
X-1457Y139987D01*
X-1060Y143000D01*
X-1457Y146012D01*
X-2620Y148820D01*
X-4470Y151230D01*
X-6880Y153080D01*
X-9688Y154243D01*
X-12700Y154640D01*
D02*
G37*
G36*
X12700D02*
X9688Y154243D01*
X6880Y153080D01*
X4470Y151230D01*
X2620Y148820D01*
X1457Y146012D01*
X1060Y143000D01*
X1457Y139987D01*
X2620Y137180D01*
X4470Y134770D01*
X6880Y132920D01*
X9688Y131757D01*
X12700Y131360D01*
X15712Y131757D01*
X18520Y132920D01*
X20930Y134770D01*
X22780Y137180D01*
X23943Y139987D01*
X24340Y143000D01*
X23943Y146012D01*
X22780Y148820D01*
X20930Y151230D01*
X18520Y153080D01*
X15712Y154243D01*
X12700Y154640D01*
D02*
G37*
G36*
X38100D02*
X35087Y154243D01*
X32280Y153080D01*
X29870Y151230D01*
X28020Y148820D01*
X26857Y146012D01*
X26460Y143000D01*
X26857Y139987D01*
X28020Y137180D01*
X29870Y134770D01*
X32280Y132920D01*
X35087Y131757D01*
X38100Y131360D01*
X41112Y131757D01*
X43920Y132920D01*
X46330Y134770D01*
X48180Y137180D01*
X49343Y139987D01*
X49740Y143000D01*
X49343Y146012D01*
X48180Y148820D01*
X46330Y151230D01*
X43920Y153080D01*
X41112Y154243D01*
X38100Y154640D01*
D02*
G37*
G36*
X-38100D02*
X-41112Y154243D01*
X-43920Y153080D01*
X-46330Y151230D01*
X-48180Y148820D01*
X-49343Y146012D01*
X-49740Y143000D01*
X-49343Y139987D01*
X-48180Y137180D01*
X-46330Y134770D01*
X-43920Y132920D01*
X-41112Y131757D01*
X-38100Y131360D01*
X-35087Y131757D01*
X-32280Y132920D01*
X-29870Y134770D01*
X-28020Y137180D01*
X-26857Y139987D01*
X-26460Y143000D01*
X-26857Y146012D01*
X-28020Y148820D01*
X-29870Y151230D01*
X-32280Y153080D01*
X-35087Y154243D01*
X-38100Y154640D01*
D02*
G37*
G36*
X0Y487648D02*
X-3274Y487217D01*
X-6324Y485954D01*
X-8944Y483944D01*
X-10954Y481324D01*
X-12013Y478767D01*
X-13387D01*
X-14446Y481324D01*
X-16456Y483944D01*
X-19076Y485954D01*
X-22126Y487217D01*
X-25400Y487648D01*
X-28674Y487217D01*
X-31724Y485954D01*
X-34344Y483944D01*
X-36354Y481324D01*
X-36634Y480648D01*
X-109500D01*
X-109500Y480648D01*
X-111662Y480219D01*
X-113494Y478994D01*
X-113494Y478994D01*
X-118994Y473494D01*
X-120219Y471662D01*
X-120649Y469500D01*
X-120648Y469500D01*
Y443711D01*
X-120991Y443643D01*
X-121831Y443081D01*
X-122393Y442241D01*
X-122590Y441250D01*
Y428750D01*
X-122393Y427759D01*
X-121831Y426919D01*
X-120991Y426357D01*
X-120000Y426160D01*
X-110000D01*
X-109009Y426357D01*
X-108169Y426919D01*
X-107607Y427759D01*
X-107410Y428750D01*
Y441250D01*
X-107607Y442241D01*
X-108169Y443081D01*
X-109009Y443643D01*
X-109352Y443711D01*
Y467160D01*
X-107160Y469352D01*
X-36634D01*
X-36354Y468676D01*
X-34344Y466056D01*
X-31724Y464046D01*
X-31049Y463767D01*
Y446233D01*
X-31724Y445954D01*
X-34344Y443944D01*
X-36354Y441324D01*
X-37617Y438274D01*
X-38048Y435000D01*
X-37617Y431726D01*
X-36354Y428676D01*
X-34344Y426056D01*
X-31724Y424046D01*
X-31049Y423767D01*
Y410150D01*
X-31049Y410150D01*
X-30619Y407988D01*
X-29394Y406156D01*
X-27244Y404006D01*
X-27244Y404006D01*
X-25412Y402781D01*
X-23250Y402351D01*
X-23250Y402351D01*
X23500D01*
X23500Y402351D01*
X25662Y402781D01*
X27494Y404006D01*
X29394Y405906D01*
X29394Y405906D01*
X30619Y407738D01*
X31049Y409900D01*
Y422410D01*
X35400D01*
X36391Y422607D01*
X37231Y423169D01*
X37793Y424009D01*
X37990Y425000D01*
Y445000D01*
X37793Y445991D01*
X37231Y446831D01*
X36391Y447393D01*
X35400Y447590D01*
X31049D01*
Y462410D01*
X35400D01*
X36391Y462607D01*
X37231Y463169D01*
X37793Y464009D01*
X37990Y465000D01*
Y469352D01*
X107160D01*
X109352Y467160D01*
Y443711D01*
X109009Y443643D01*
X108169Y443081D01*
X107607Y442241D01*
X107410Y441250D01*
Y428750D01*
X107607Y427759D01*
X108169Y426919D01*
X109009Y426357D01*
X110000Y426160D01*
X120000D01*
X120991Y426357D01*
X121831Y426919D01*
X122393Y427759D01*
X122590Y428750D01*
Y441250D01*
X122393Y442241D01*
X121831Y443081D01*
X120991Y443643D01*
X120648Y443711D01*
Y469500D01*
X120649Y469500D01*
X120219Y471662D01*
X118994Y473494D01*
X118994Y473494D01*
X113494Y478994D01*
X111662Y480219D01*
X109500Y480648D01*
X109500Y480648D01*
X37990D01*
Y485000D01*
X37793Y485991D01*
X37231Y486831D01*
X36391Y487393D01*
X35400Y487590D01*
X15400D01*
X14409Y487393D01*
X13569Y486831D01*
X13007Y485991D01*
X12810Y485000D01*
Y480161D01*
X11540Y479908D01*
X10954Y481324D01*
X8944Y483944D01*
X6324Y485954D01*
X3274Y487217D01*
X0Y487648D01*
D02*
G37*
G36*
X-135000Y460658D02*
X-137357Y460190D01*
X-139355Y458855D01*
X-140690Y456857D01*
X-141158Y454500D01*
X-140690Y452143D01*
X-140648Y452082D01*
Y443711D01*
X-140991Y443643D01*
X-141831Y443081D01*
X-142393Y442241D01*
X-142590Y441250D01*
Y428750D01*
X-142393Y427759D01*
X-141831Y426919D01*
X-140991Y426357D01*
X-140000Y426160D01*
X-130000D01*
X-129009Y426357D01*
X-128169Y426919D01*
X-127607Y427759D01*
X-127410Y428750D01*
Y441250D01*
X-127607Y442241D01*
X-128169Y443081D01*
X-129009Y443643D01*
X-129352Y443711D01*
Y452082D01*
X-129311Y452143D01*
X-128842Y454500D01*
X-129311Y456857D01*
X-130645Y458855D01*
X-132643Y460190D01*
X-135000Y460658D01*
D02*
G37*
G36*
X134000Y457908D02*
X131643Y457439D01*
X129645Y456105D01*
X128310Y454107D01*
X127842Y451750D01*
X128310Y449393D01*
X128351Y449332D01*
Y443203D01*
X128169Y443081D01*
X127607Y442241D01*
X127410Y441250D01*
Y428750D01*
X127607Y427759D01*
X128169Y426919D01*
X129009Y426357D01*
X130000Y426160D01*
X140000D01*
X140991Y426357D01*
X141831Y426919D01*
X142393Y427759D01*
X142590Y428750D01*
Y441250D01*
X142393Y442241D01*
X141831Y443081D01*
X140991Y443643D01*
X140000Y443840D01*
X139649D01*
Y449332D01*
X139690Y449393D01*
X140158Y451750D01*
X139690Y454107D01*
X138355Y456105D01*
X136357Y457439D01*
X134000Y457908D01*
D02*
G37*
%LPD*%
G36*
X-10954Y468676D02*
X-8944Y466056D01*
X-6324Y464046D01*
X-3274Y462783D01*
X0Y462352D01*
X3274Y462783D01*
X6324Y464046D01*
X8944Y466056D01*
X10954Y468676D01*
X11540Y470092D01*
X12810Y469839D01*
Y465000D01*
X13007Y464009D01*
X13569Y463169D01*
X14409Y462607D01*
X15400Y462410D01*
X19751D01*
Y447590D01*
X15400D01*
X14409Y447393D01*
X13569Y446831D01*
X13007Y445991D01*
X12810Y445000D01*
Y440161D01*
X11540Y439908D01*
X10954Y441324D01*
X8944Y443944D01*
X6324Y445954D01*
X3274Y447217D01*
X0Y447648D01*
X-3274Y447217D01*
X-6324Y445954D01*
X-8944Y443944D01*
X-10954Y441324D01*
X-12013Y438767D01*
X-13387D01*
X-14446Y441324D01*
X-16456Y443944D01*
X-19076Y445954D01*
X-19751Y446233D01*
Y463767D01*
X-19076Y464046D01*
X-16456Y466056D01*
X-14446Y468676D01*
X-13387Y471233D01*
X-12013D01*
X-10954Y468676D01*
D02*
G37*
G36*
Y428676D02*
X-8944Y426056D01*
X-6324Y424046D01*
X-3274Y422783D01*
X0Y422352D01*
X3274Y422783D01*
X6324Y424046D01*
X8944Y426056D01*
X10954Y428676D01*
X11540Y430092D01*
X12810Y429839D01*
Y425000D01*
X13007Y424009D01*
X13569Y423169D01*
X14409Y422607D01*
X15400Y422410D01*
X19751D01*
Y413648D01*
X-19751D01*
Y423767D01*
X-19076Y424046D01*
X-16456Y426056D01*
X-14446Y428676D01*
X-13387Y431233D01*
X-12013D01*
X-10954Y428676D01*
D02*
G37*
D11*
X134000Y436000D02*
X135000Y435000D01*
X134000Y436000D02*
Y451750D01*
X-135000Y435000D02*
Y454500D01*
X-115000Y435000D02*
Y469500D01*
X-109500Y475000D01*
X-25400D01*
X23500Y408000D02*
X25400Y409900D01*
X-23250Y408000D02*
X23500D01*
X-25400Y410150D02*
X-23250Y408000D01*
X25400Y475000D02*
X109500D01*
X115000Y469500D01*
Y435000D02*
Y469500D01*
X25400Y409900D02*
Y435000D01*
X-25400Y410150D02*
Y435000D01*
X25400D02*
Y475000D01*
X-25400Y435000D02*
Y475000D01*
D12*
X12700Y143000D02*
D03*
X-12700D02*
D03*
X-38100D02*
D03*
X38100D02*
D03*
D13*
X-25400Y475000D02*
D03*
X0D02*
D03*
X-25400Y435000D02*
D03*
X0D02*
D03*
D14*
X25400Y475000D02*
D03*
Y435000D02*
D03*
D15*
X134000Y451750D02*
D03*
X-135000Y454500D02*
D03*
D16*
X115000Y435000D02*
D03*
X135000D02*
D03*
X-115000D02*
D03*
X-135000D02*
D03*
M02*
