G04 Layer_Color=16711935*
%FSLAX44Y44*%
%MOMM*%
G71*
G01*
G75*
%ADD24C,0.2540*%
D24*
X-140000Y500085D02*
G03*
X-150000Y490085I0J-10000D01*
G01*
Y390085D02*
G03*
X-140000Y380085I10000J0D01*
G01*
X-120000Y380085D02*
G03*
X-110000Y390085I-0J10000D01*
G01*
X-100000Y414889D02*
G03*
X-110000Y405085I-99J-9902D01*
G01*
X110000Y405000D02*
G03*
X100000Y414804I-9902J-99D01*
G01*
X110000Y390000D02*
G03*
X120000Y380000I10000J-0D01*
G01*
X140000Y380000D02*
G03*
X150000Y390000I0J10000D01*
G01*
Y490000D02*
G03*
X140000Y500000I-10000J-0D01*
G01*
X-39785Y405000D02*
G03*
X-49785Y415000I-10000J0D01*
G01*
X49785D02*
G03*
X39785Y405000I0J-10000D01*
G01*
X-30000Y10000D02*
G03*
X-40000Y20000I-10000J0D01*
G01*
X40000D02*
G03*
X30000Y10000I0J-10000D01*
G01*
X-30108Y5000D02*
G03*
X-23000Y0I6740J2029D01*
G01*
X23000D02*
G03*
X30107Y5000I368J7029D01*
G01*
X40000Y20000D02*
G03*
X60000Y40000I0J20000D01*
G01*
X-60000D02*
G03*
X-40000Y20000I20000J0D01*
G01*
X-40000Y180000D02*
G03*
X-60000Y160000I0J-20000D01*
G01*
X60000D02*
G03*
X40000Y180000I-20000J-0D01*
G01*
X-100000Y414889D02*
X-49785Y415000D01*
X-150000Y390085D02*
Y490085D01*
X-140000Y380085D02*
X-120000Y380085D01*
X-110000Y390085D02*
X-110000Y405085D01*
X110000Y405000D02*
X110000Y390000D01*
X120000Y380000D02*
X140000Y380000D01*
X150000Y390000D02*
Y490000D01*
X0Y500000D02*
X140000Y500000D01*
X-140000D02*
X0Y500000D01*
X49785Y414915D02*
X100000Y414804D01*
X-30108Y5000D02*
X-30000Y10000D01*
X-23000Y0D02*
X23000D01*
X30000Y10000D02*
X30107Y5000D01*
X60000Y160000D02*
X60000Y40000D01*
X-60000D02*
Y160000D01*
X-40000Y180000D02*
X-39785Y405000D01*
X39785D02*
X40000Y180000D01*
M02*
