M48
;Layer_Color=9474304
;FILE_FORMAT=4:4
METRIC,LZ
;TYPE=PLATED
T1F00S00C1.1000
T3F00S00C3.0000
T4F00S00C4.8000
;TYPE=NON_PLATED
T5F00S00C0.9000
%
T01
X00102Y0013545
Y0016085
Y0018625
X002969Y0012
X003223
X003477
X003731
X0057Y001357
Y001611
Y001865
Y002119
Y0029465
Y0032005
Y0034545
Y0037085
Y0045625
Y0048165
Y0050705
Y0053245
X00102Y005326
Y005072
Y004818
Y004564
X00102Y0037085
Y0034545
Y0032005
Y0029465
Y0021165
T03
X00515Y00255
Y00425
X00145
Y00255
T04
X0004Y0005
X0057
X00565Y0059
X0004
T05
X0035401Y005825
X0038401
M30
