G04*
G04 #@! TF.GenerationSoftware,Altium Limited,Altium Designer,18.1.7 (191)*
G04*
G04 Layer_Physical_Order=2*
G04 Layer_Color=16711680*
%FSLAX44Y44*%
%MOMM*%
G71*
G01*
G75*
%ADD18C,0.3000*%
%ADD21C,2.0000*%
%ADD22R,2.0000X2.0000*%
%ADD23C,1.8000*%
G36*
X199399Y91409D02*
X198941Y91059D01*
X197018Y88552D01*
X196495Y87288D01*
X62371D01*
X61556Y89256D01*
X59955Y91342D01*
X60581Y92612D01*
X198990D01*
X199399Y91409D01*
D02*
G37*
G36*
X197018Y76448D02*
X198941Y73941D01*
X201448Y72018D01*
X204367Y70809D01*
X207166Y70441D01*
Y69159D01*
X204367Y68791D01*
X201448Y67582D01*
X198941Y65658D01*
X197018Y63152D01*
X196495Y61888D01*
X62371D01*
X61556Y63856D01*
X59472Y66572D01*
X56756Y68656D01*
X55170Y69313D01*
Y70687D01*
X56756Y71344D01*
X59472Y73428D01*
X61556Y76144D01*
X62371Y78112D01*
X196329D01*
X197018Y76448D01*
D02*
G37*
G36*
X221209Y79367D02*
X222418Y76448D01*
X224342Y73941D01*
X226848Y72018D01*
X229767Y70809D01*
X232566Y70441D01*
Y69159D01*
X229767Y68791D01*
X226848Y67582D01*
X224342Y65658D01*
X222418Y63152D01*
X221209Y60233D01*
X220840Y57434D01*
X219559D01*
X219191Y60233D01*
X217982Y63152D01*
X216059Y65658D01*
X213552Y67582D01*
X210633Y68791D01*
X207834Y69159D01*
Y70441D01*
X210633Y70809D01*
X213552Y72018D01*
X216059Y73941D01*
X217982Y76448D01*
X219191Y79367D01*
X219559Y82166D01*
X220840D01*
X221209Y79367D01*
D02*
G37*
G36*
X243059Y100377D02*
X246000Y99485D01*
X248711Y98036D01*
X251086Y96086D01*
X253036Y93710D01*
X254485Y91000D01*
X255377Y88059D01*
X255668Y85108D01*
X255646Y85000D01*
Y55000D01*
X255668Y54892D01*
X255377Y51941D01*
X254485Y49000D01*
X253036Y46290D01*
X251086Y43914D01*
X248711Y41964D01*
X246000Y40515D01*
X243059Y39623D01*
X241233Y39443D01*
X240000Y39354D01*
Y39354D01*
X20000D01*
X19892Y39332D01*
X16941Y39623D01*
X14000Y40515D01*
X11289Y41964D01*
X8914Y43914D01*
X6964Y46290D01*
X5515Y49000D01*
X4623Y51941D01*
X4332Y54892D01*
X4354Y55000D01*
Y85000D01*
X4332Y85108D01*
X4623Y88059D01*
X5515Y91000D01*
X6964Y93710D01*
X8914Y96086D01*
X11289Y98036D01*
X14000Y99485D01*
X16941Y100377D01*
X19892Y100668D01*
X20000Y100646D01*
X21362D01*
X21888Y99376D01*
X21556Y99044D01*
X20561Y97556D01*
X20212Y95800D01*
Y95759D01*
X14800D01*
X13629Y95526D01*
X12637Y94863D01*
X11974Y93871D01*
X11741Y92700D01*
Y72700D01*
X11974Y71529D01*
X12637Y70537D01*
X13629Y69874D01*
X14800Y69641D01*
X17442D01*
X17873Y68371D01*
X15528Y66572D01*
X13444Y63856D01*
X12135Y60694D01*
X11688Y57300D01*
X12135Y53906D01*
X13444Y50744D01*
X15528Y48028D01*
X18244Y45944D01*
X21406Y44635D01*
X24800Y44188D01*
X28194Y44635D01*
X31356Y45944D01*
X34072Y48028D01*
X36156Y50744D01*
X36813Y52331D01*
X38187D01*
X38844Y50744D01*
X40928Y48028D01*
X43644Y45944D01*
X46806Y44635D01*
X50200Y44188D01*
X53594Y44635D01*
X56756Y45944D01*
X59472Y48028D01*
X61556Y50744D01*
X62371Y52712D01*
X196329D01*
X197018Y51048D01*
X198941Y48541D01*
X201448Y46618D01*
X204367Y45409D01*
X207500Y44997D01*
X210633Y45409D01*
X213552Y46618D01*
X216059Y48541D01*
X217982Y51048D01*
X219191Y53967D01*
X219559Y56766D01*
X220840D01*
X221209Y53967D01*
X222418Y51048D01*
X224342Y48541D01*
X226848Y46618D01*
X229767Y45409D01*
X232900Y44997D01*
X236033Y45409D01*
X238952Y46618D01*
X241458Y48541D01*
X243382Y51048D01*
X244591Y53967D01*
X245004Y57100D01*
X244591Y60233D01*
X243382Y63152D01*
X241458Y65658D01*
X238952Y67582D01*
X236033Y68791D01*
X233234Y69159D01*
Y70441D01*
X236033Y70809D01*
X238952Y72018D01*
X241458Y73941D01*
X243382Y76448D01*
X244591Y79367D01*
X245004Y82500D01*
X244591Y85633D01*
X243382Y88552D01*
X241458Y91059D01*
X238952Y92982D01*
X236033Y94191D01*
X232900Y94604D01*
X229767Y94191D01*
X228304Y93585D01*
X222512Y99376D01*
X223038Y100646D01*
X240000D01*
X240108Y100668D01*
X243059Y100377D01*
D02*
G37*
D18*
X218200Y97200D02*
X232900Y82500D01*
X26200Y97200D02*
X218200D01*
X24800Y95800D02*
X26200Y97200D01*
X24800Y82700D02*
Y95800D01*
X207300Y57300D02*
X207500Y57100D01*
X50200Y57300D02*
X207300D01*
Y82700D02*
X207500Y82500D01*
X50200Y82700D02*
X207300D01*
D21*
X24800Y57300D02*
D03*
X50200D02*
D03*
Y82700D02*
D03*
D22*
X24800D02*
D03*
D23*
X232900Y57100D02*
D03*
X207500D02*
D03*
X232900Y82500D02*
D03*
X207500D02*
D03*
M02*
