G04 Layer_Color=65535*
%FSLAX44Y44*%
%MOMM*%
G71*
G01*
G75*
%ADD19C,0.1500*%
%ADD20C,0.2000*%
G36*
X92702Y296288D02*
X93346Y296229D01*
X94107Y296054D01*
X94986Y295761D01*
X95923Y295409D01*
X96860Y294823D01*
X97739Y294062D01*
X97856Y293945D01*
X98090Y293652D01*
X98500Y293183D01*
X98910Y292481D01*
X99320Y291719D01*
X99730Y290723D01*
X99965Y289669D01*
X100082Y288498D01*
Y288439D01*
Y288322D01*
Y288146D01*
X100023Y287912D01*
X99965Y287326D01*
X99789Y286565D01*
X99555Y285628D01*
X99145Y284690D01*
X98559Y283753D01*
X97797Y282875D01*
X97680Y282757D01*
X97388Y282523D01*
X96919Y282172D01*
X96216Y281703D01*
X95396Y281293D01*
X94459Y280942D01*
X93405Y280707D01*
X92175Y280590D01*
X85556D01*
X85322Y280649D01*
X84677Y280707D01*
X83916Y280883D01*
X83037Y281176D01*
X82100Y281586D01*
X81163Y282172D01*
X80284Y282933D01*
X80167Y283050D01*
X79933Y283343D01*
X79581Y283812D01*
X79171Y284456D01*
X78703Y285276D01*
X78351Y286213D01*
X78117Y287326D01*
X78000Y288498D01*
Y288556D01*
Y288615D01*
Y288790D01*
X78059Y289025D01*
X78117Y289669D01*
X78293Y290431D01*
X78586Y291309D01*
X78937Y292246D01*
X79523Y293183D01*
X80284Y294062D01*
X80401Y294179D01*
X80694Y294413D01*
X81163Y294765D01*
X81866Y295175D01*
X82627Y295644D01*
X83623Y295995D01*
X84677Y296229D01*
X85849Y296346D01*
X92467D01*
X92702Y296288D01*
D02*
G37*
G36*
X99028Y274206D02*
X99320Y274089D01*
X99555Y273913D01*
X99847Y273620D01*
X100023Y273269D01*
X100082Y272742D01*
Y264834D01*
Y264776D01*
Y264717D01*
Y264366D01*
X99965Y263897D01*
X99847Y263312D01*
X99613Y262609D01*
X99320Y261847D01*
X98852Y261086D01*
X98208Y260383D01*
X98149Y260324D01*
X97856Y260090D01*
X97505Y259797D01*
X96978Y259446D01*
X96333Y259094D01*
X95572Y258801D01*
X94693Y258567D01*
X93756Y258509D01*
X83857D01*
X83330Y258626D01*
X82744Y258743D01*
X82042Y258977D01*
X81280Y259270D01*
X80519Y259739D01*
X79816Y260383D01*
X79757Y260441D01*
X79523Y260734D01*
X79230Y261086D01*
X78937Y261613D01*
X78586Y262257D01*
X78293Y263019D01*
X78059Y263897D01*
X78000Y264834D01*
Y271102D01*
X69858D01*
X69566Y271160D01*
X69331Y271277D01*
X69038Y271512D01*
X68746Y271746D01*
X68570Y272156D01*
X68511Y272683D01*
Y272742D01*
Y272917D01*
X68570Y273210D01*
X68687Y273444D01*
X68921Y273737D01*
X69156Y274030D01*
X69566Y274206D01*
X70093Y274265D01*
X98735D01*
X99028Y274206D01*
D02*
G37*
G36*
Y252124D02*
X99320Y252007D01*
X99555Y251773D01*
X99847Y251538D01*
X100023Y251128D01*
X100082Y250601D01*
Y236368D01*
Y236310D01*
Y236251D01*
Y235900D01*
X99965Y235431D01*
X99847Y234845D01*
X99613Y234142D01*
X99320Y233381D01*
X98852Y232620D01*
X98208Y231917D01*
X98149Y231858D01*
X97856Y231624D01*
X97505Y231331D01*
X96978Y230979D01*
X96333Y230628D01*
X95572Y230335D01*
X94693Y230101D01*
X93756Y230042D01*
X79289D01*
X79054Y230101D01*
X78761Y230218D01*
X78469Y230452D01*
X78234Y230687D01*
X78059Y231097D01*
X78000Y231624D01*
Y231682D01*
Y231858D01*
X78059Y232151D01*
X78176Y232385D01*
X78351Y232678D01*
X78644Y232971D01*
X78996Y233147D01*
X79523Y233205D01*
X93990D01*
X94225Y233264D01*
X94517Y233322D01*
X94869Y233440D01*
X95279Y233615D01*
X95630Y233850D01*
X95982Y234142D01*
X96040Y234201D01*
X96157Y234318D01*
X96275Y234494D01*
X96450Y234787D01*
X96626Y235080D01*
X96802Y235490D01*
X96860Y235900D01*
X96919Y236368D01*
Y239531D01*
X79289D01*
X79054Y239590D01*
X78761Y239707D01*
X78469Y239941D01*
X78234Y240175D01*
X78059Y240585D01*
X78000Y241112D01*
Y241171D01*
Y241347D01*
X78059Y241640D01*
X78176Y241874D01*
X78351Y242167D01*
X78644Y242460D01*
X78996Y242635D01*
X79523Y242694D01*
X96919D01*
Y249020D01*
X79289D01*
X79054Y249078D01*
X78761Y249195D01*
X78469Y249430D01*
X78234Y249664D01*
X78059Y250074D01*
X78000Y250601D01*
Y250660D01*
Y250836D01*
X78059Y251128D01*
X78176Y251363D01*
X78351Y251656D01*
X78644Y251948D01*
X78996Y252124D01*
X79523Y252183D01*
X98735D01*
X99028Y252124D01*
D02*
G37*
G36*
Y318370D02*
X99320Y318252D01*
X99555Y318077D01*
X99847Y317784D01*
X100023Y317432D01*
X100082Y316905D01*
Y308998D01*
Y308939D01*
Y308881D01*
Y308529D01*
X99965Y308061D01*
X99847Y307475D01*
X99613Y306772D01*
X99320Y306011D01*
X98852Y305249D01*
X98208Y304547D01*
X98149Y304488D01*
X97856Y304254D01*
X97505Y303961D01*
X96978Y303609D01*
X96333Y303258D01*
X95572Y302965D01*
X94693Y302731D01*
X93756Y302672D01*
X79289D01*
X79054Y302731D01*
X78761Y302848D01*
X78469Y303082D01*
X78234Y303316D01*
X78059Y303726D01*
X78000Y304254D01*
Y304312D01*
Y304488D01*
X78059Y304781D01*
X78176Y305015D01*
X78351Y305308D01*
X78644Y305601D01*
X78996Y305777D01*
X79523Y305835D01*
X93990D01*
X94225Y305894D01*
X94517Y305952D01*
X94869Y306069D01*
X95279Y306245D01*
X95630Y306479D01*
X95982Y306772D01*
X96040Y306831D01*
X96157Y306948D01*
X96275Y307124D01*
X96450Y307358D01*
X96626Y307709D01*
X96802Y308061D01*
X96860Y308529D01*
X96919Y308998D01*
Y315265D01*
X79289D01*
X79054Y315324D01*
X78761Y315441D01*
X78469Y315675D01*
X78234Y315910D01*
X78059Y316320D01*
X78000Y316847D01*
Y316905D01*
Y317081D01*
X78059Y317374D01*
X78176Y317608D01*
X78351Y317901D01*
X78644Y318194D01*
X78996Y318370D01*
X79523Y318428D01*
X98735D01*
X99028Y318370D01*
D02*
G37*
G36*
X94225Y384615D02*
X94693Y384556D01*
X95279Y384439D01*
X95982Y384205D01*
X96743Y383912D01*
X97505Y383443D01*
X98208Y382858D01*
X98266Y382799D01*
X98500Y382506D01*
X98793Y382155D01*
X99145Y381628D01*
X99496Y380983D01*
X99789Y380222D01*
X100023Y379343D01*
X100082Y378406D01*
Y370499D01*
Y370440D01*
Y370265D01*
X100023Y369972D01*
X99906Y369679D01*
X99672Y369445D01*
X99438Y369152D01*
X99028Y368976D01*
X98500Y368918D01*
X82451D01*
X82159Y368859D01*
X81924Y368742D01*
X81631Y368507D01*
X81339Y368273D01*
X81163Y367863D01*
X81104Y367336D01*
Y367277D01*
Y367102D01*
X81046Y366809D01*
X80929Y366516D01*
X80694Y366282D01*
X80460Y365989D01*
X80050Y365813D01*
X79523Y365755D01*
X79289D01*
X79054Y365813D01*
X78761Y365930D01*
X78469Y366165D01*
X78234Y366399D01*
X78059Y366809D01*
X78000Y367336D01*
Y367453D01*
Y367687D01*
X78117Y368097D01*
X78234Y368625D01*
X78410Y369210D01*
X78703Y369796D01*
X79113Y370382D01*
X79640Y370968D01*
X79581Y371026D01*
X79406Y371260D01*
X79113Y371670D01*
X78820Y372139D01*
X78527Y372783D01*
X78234Y373486D01*
X78059Y374306D01*
X78000Y375243D01*
Y378406D01*
Y378523D01*
X78059Y378816D01*
X78117Y379343D01*
X78234Y379929D01*
X78469Y380632D01*
X78761Y381393D01*
X79230Y382155D01*
X79816Y382858D01*
X79874Y382916D01*
X80167Y383151D01*
X80519Y383443D01*
X81046Y383736D01*
X81690Y384088D01*
X82451Y384381D01*
X83330Y384615D01*
X84267Y384674D01*
X93873D01*
X94225Y384615D01*
D02*
G37*
G36*
X99028Y359370D02*
X99320Y359253D01*
X99555Y359019D01*
X99847Y358784D01*
X100023Y358374D01*
X100082Y357847D01*
Y357789D01*
Y357613D01*
X100023Y357320D01*
X99906Y357027D01*
X99672Y356793D01*
X99438Y356500D01*
X99028Y356325D01*
X98500Y356266D01*
X90652D01*
Y346836D01*
X98735D01*
X99028Y346777D01*
X99320Y346660D01*
X99555Y346426D01*
X99847Y346191D01*
X100023Y345781D01*
X100082Y345254D01*
Y345196D01*
Y345020D01*
X100023Y344727D01*
X99906Y344434D01*
X99672Y344200D01*
X99438Y343907D01*
X99028Y343731D01*
X98500Y343673D01*
X79289D01*
X79054Y343731D01*
X78761Y343848D01*
X78469Y344083D01*
X78234Y344317D01*
X78059Y344727D01*
X78000Y345254D01*
Y345313D01*
Y345489D01*
X78059Y345781D01*
X78176Y346016D01*
X78410Y346309D01*
X78644Y346601D01*
X79054Y346777D01*
X79581Y346836D01*
X87489D01*
Y356266D01*
X79347D01*
X79054Y356325D01*
X78820Y356442D01*
X78527Y356676D01*
X78234Y356910D01*
X78059Y357320D01*
X78000Y357847D01*
Y357906D01*
Y358082D01*
X78059Y358374D01*
X78176Y358609D01*
X78351Y358902D01*
X78644Y359194D01*
X78996Y359370D01*
X79523Y359429D01*
X98735D01*
X99028Y359370D01*
D02*
G37*
G36*
X94225Y337288D02*
X94693Y337230D01*
X95279Y337113D01*
X95982Y336878D01*
X96743Y336586D01*
X97505Y336117D01*
X98208Y335531D01*
X98266Y335473D01*
X98500Y335180D01*
X98793Y334828D01*
X99145Y334301D01*
X99496Y333657D01*
X99789Y332896D01*
X100023Y332017D01*
X100082Y331080D01*
Y326335D01*
Y326277D01*
Y326101D01*
X100023Y325808D01*
X99906Y325515D01*
X99672Y325281D01*
X99438Y324988D01*
X99028Y324813D01*
X98500Y324754D01*
X98266D01*
X97973Y324813D01*
X97739Y324930D01*
X97446Y325164D01*
X97153Y325398D01*
X96978Y325808D01*
X96919Y326335D01*
Y331080D01*
Y331138D01*
Y331314D01*
X96860Y331548D01*
X96802Y331841D01*
X96685Y332193D01*
X96509Y332544D01*
X96275Y332954D01*
X95982Y333306D01*
X95923Y333364D01*
X95806Y333423D01*
X95630Y333598D01*
X95337Y333716D01*
X95045Y333891D01*
X94635Y334067D01*
X94225Y334126D01*
X93756Y334184D01*
X84033D01*
X83799Y334126D01*
X83506Y334067D01*
X83154Y333950D01*
X82803Y333833D01*
X82393Y333598D01*
X82042Y333306D01*
X81983Y333247D01*
X81924Y333130D01*
X81749Y332954D01*
X81631Y332661D01*
X81456Y332368D01*
X81280Y331958D01*
X81222Y331548D01*
X81163Y331080D01*
Y326335D01*
Y326277D01*
Y326101D01*
X81104Y325808D01*
X80987Y325515D01*
X80753Y325281D01*
X80519Y324988D01*
X80109Y324813D01*
X79581Y324754D01*
X79347D01*
X79054Y324813D01*
X78820Y324930D01*
X78527Y325164D01*
X78234Y325398D01*
X78059Y325808D01*
X78000Y326335D01*
Y331080D01*
Y331197D01*
X78059Y331490D01*
X78117Y332017D01*
X78234Y332603D01*
X78469Y333306D01*
X78761Y334067D01*
X79230Y334828D01*
X79816Y335531D01*
X79874Y335590D01*
X80167Y335824D01*
X80519Y336117D01*
X81046Y336410D01*
X81690Y336761D01*
X82451Y337054D01*
X83330Y337288D01*
X84267Y337347D01*
X93873D01*
X94225Y337288D01*
D02*
G37*
G36*
X99028Y223717D02*
X99320Y223599D01*
X99555Y223365D01*
X99847Y223131D01*
X100023Y222721D01*
X100082Y222194D01*
Y222135D01*
Y221959D01*
X100023Y221667D01*
X99906Y221374D01*
X99672Y221139D01*
X99438Y220847D01*
X99028Y220671D01*
X98500Y220612D01*
X90652D01*
Y211182D01*
X98735D01*
X99028Y211124D01*
X99320Y211006D01*
X99555Y210772D01*
X99847Y210538D01*
X100023Y210128D01*
X100082Y209601D01*
Y209542D01*
Y209366D01*
X100023Y209073D01*
X99906Y208781D01*
X99672Y208546D01*
X99438Y208253D01*
X99028Y208078D01*
X98500Y208019D01*
X79289D01*
X79054Y208078D01*
X78761Y208195D01*
X78469Y208429D01*
X78234Y208663D01*
X78059Y209073D01*
X78000Y209601D01*
Y209659D01*
Y209835D01*
X78059Y210128D01*
X78176Y210362D01*
X78410Y210655D01*
X78644Y210948D01*
X79054Y211124D01*
X79581Y211182D01*
X87489D01*
Y220612D01*
X79347D01*
X79054Y220671D01*
X78820Y220788D01*
X78527Y221022D01*
X78234Y221257D01*
X78059Y221667D01*
X78000Y222194D01*
Y222252D01*
Y222428D01*
X78059Y222721D01*
X78176Y222955D01*
X78351Y223248D01*
X78644Y223541D01*
X78996Y223717D01*
X79523Y223775D01*
X98735D01*
X99028Y223717D01*
D02*
G37*
G36*
Y135389D02*
X99320Y135272D01*
X99555Y135038D01*
X99847Y134804D01*
X100023Y134394D01*
X100082Y133867D01*
Y133808D01*
Y133632D01*
X100023Y133339D01*
X99906Y133047D01*
X99672Y132812D01*
X99438Y132519D01*
X99028Y132344D01*
X98500Y132285D01*
X84033D01*
X83799Y132226D01*
X83506Y132168D01*
X83154Y132051D01*
X82803Y131934D01*
X82393Y131699D01*
X82042Y131406D01*
X81983Y131348D01*
X81924Y131231D01*
X81749Y131055D01*
X81631Y130762D01*
X81456Y130469D01*
X81280Y130059D01*
X81222Y129649D01*
X81163Y129181D01*
Y122855D01*
X98735D01*
X99028Y122796D01*
X99320Y122679D01*
X99555Y122445D01*
X99847Y122211D01*
X100023Y121801D01*
X100082Y121273D01*
Y121215D01*
Y121039D01*
X100023Y120746D01*
X99906Y120453D01*
X99672Y120219D01*
X99438Y119926D01*
X99028Y119750D01*
X98500Y119692D01*
X81163D01*
Y118111D01*
Y118052D01*
Y117876D01*
X81104Y117583D01*
X80987Y117290D01*
X80753Y117056D01*
X80519Y116763D01*
X80109Y116588D01*
X79581Y116529D01*
X74603D01*
X74310Y116588D01*
X74076Y116705D01*
X73783Y116939D01*
X73490Y117173D01*
X73314Y117583D01*
X73256Y118111D01*
Y118169D01*
Y118345D01*
X73314Y118638D01*
X73431Y118872D01*
X73666Y119165D01*
X73900Y119458D01*
X74310Y119633D01*
X74837Y119692D01*
X78000D01*
Y129181D01*
Y129298D01*
X78059Y129591D01*
X78117Y130118D01*
X78234Y130704D01*
X78469Y131406D01*
X78761Y132168D01*
X79230Y132929D01*
X79816Y133632D01*
X79874Y133691D01*
X80167Y133925D01*
X80519Y134218D01*
X81046Y134511D01*
X81690Y134862D01*
X82451Y135155D01*
X83330Y135389D01*
X84267Y135448D01*
X98735D01*
X99028Y135389D01*
D02*
G37*
G36*
X92702Y110145D02*
X93346Y110086D01*
X94107Y109910D01*
X94986Y109618D01*
X95923Y109266D01*
X96860Y108680D01*
X97739Y107919D01*
X97856Y107802D01*
X98090Y107509D01*
X98500Y107040D01*
X98910Y106337D01*
X99320Y105576D01*
X99730Y104580D01*
X99965Y103526D01*
X100082Y102354D01*
Y102296D01*
Y102179D01*
Y102003D01*
X100023Y101769D01*
X99965Y101183D01*
X99789Y100422D01*
X99555Y99485D01*
X99145Y98547D01*
X98559Y97610D01*
X97797Y96732D01*
X97680Y96614D01*
X97388Y96380D01*
X96919Y96029D01*
X96216Y95560D01*
X95396Y95150D01*
X94459Y94799D01*
X93405Y94564D01*
X92175Y94447D01*
X87489D01*
Y107040D01*
X84092D01*
X83857Y106982D01*
X83564Y106923D01*
X83154Y106806D01*
X82803Y106689D01*
X82393Y106455D01*
X82042Y106162D01*
X81983Y106103D01*
X81924Y105986D01*
X81749Y105810D01*
X81631Y105517D01*
X81456Y105225D01*
X81280Y104815D01*
X81222Y104405D01*
X81163Y103936D01*
Y96029D01*
Y95970D01*
Y95794D01*
X81104Y95502D01*
X80987Y95209D01*
X80753Y94974D01*
X80519Y94682D01*
X80109Y94506D01*
X79581Y94447D01*
X79347D01*
X79054Y94506D01*
X78820Y94623D01*
X78527Y94857D01*
X78234Y95092D01*
X78059Y95502D01*
X78000Y96029D01*
Y103936D01*
Y104053D01*
X78059Y104346D01*
X78117Y104873D01*
X78234Y105459D01*
X78469Y106162D01*
X78761Y106923D01*
X79230Y107685D01*
X79816Y108387D01*
X79874Y108446D01*
X80167Y108680D01*
X80519Y108973D01*
X81046Y109266D01*
X81690Y109618D01*
X82451Y109910D01*
X83330Y110145D01*
X84267Y110203D01*
X92467D01*
X92702Y110145D01*
D02*
G37*
G36*
X99028Y88063D02*
X99320Y87946D01*
X99555Y87770D01*
X99847Y87477D01*
X100023Y87126D01*
X100082Y86599D01*
Y86540D01*
Y86423D01*
X100023Y86071D01*
X99789Y85661D01*
X99613Y85427D01*
X99379Y85251D01*
X91882Y80273D01*
X99379Y75236D01*
X99438D01*
X99496Y75177D01*
X99730Y74943D01*
X99965Y74533D01*
X100082Y74240D01*
Y73947D01*
Y73888D01*
Y73713D01*
X100023Y73420D01*
X99906Y73127D01*
X99672Y72893D01*
X99438Y72600D01*
X99028Y72424D01*
X98500Y72365D01*
X98442D01*
X98208Y72424D01*
X97915Y72483D01*
X97622Y72658D01*
X89012Y78340D01*
X80460Y72658D01*
X80401Y72600D01*
X80167Y72483D01*
X79874Y72424D01*
X79523Y72365D01*
X79289D01*
X79054Y72424D01*
X78761Y72541D01*
X78469Y72776D01*
X78234Y73010D01*
X78059Y73420D01*
X78000Y73947D01*
Y74005D01*
Y74064D01*
X78059Y74415D01*
X78293Y74884D01*
X78410Y75060D01*
X78644Y75236D01*
X86142Y80273D01*
X78644Y85251D01*
X78527Y85310D01*
X78351Y85603D01*
X78117Y86013D01*
X78059Y86306D01*
X78000Y86599D01*
Y86716D01*
X78059Y86950D01*
X78176Y87360D01*
X78410Y87711D01*
X78469Y87770D01*
X78703Y87887D01*
X79054Y88063D01*
X79523Y88121D01*
X79640D01*
X79816Y88063D01*
X80109Y88004D01*
X80401Y87887D01*
X89012Y82147D01*
X97622Y87887D01*
X97680Y87946D01*
X97915Y88004D01*
X98149Y88063D01*
X98500Y88121D01*
X98735D01*
X99028Y88063D01*
D02*
G37*
G36*
Y176390D02*
X99320Y176273D01*
X99555Y176039D01*
X99847Y175804D01*
X100023Y175394D01*
X100082Y174867D01*
Y174809D01*
Y174633D01*
X100023Y174340D01*
X99906Y174047D01*
X99672Y173813D01*
X99438Y173520D01*
X99028Y173344D01*
X98500Y173286D01*
X84033D01*
X83799Y173227D01*
X83506Y173169D01*
X83154Y173051D01*
X82803Y172934D01*
X82393Y172700D01*
X82042Y172407D01*
X81983Y172349D01*
X81924Y172231D01*
X81749Y172056D01*
X81631Y171763D01*
X81456Y171470D01*
X81280Y171060D01*
X81222Y170650D01*
X81163Y170181D01*
Y163856D01*
X98735D01*
X99028Y163797D01*
X99320Y163680D01*
X99555Y163445D01*
X99847Y163211D01*
X100023Y162801D01*
X100082Y162274D01*
Y162215D01*
Y162040D01*
X100023Y161747D01*
X99906Y161454D01*
X99672Y161220D01*
X99438Y160927D01*
X99028Y160751D01*
X98500Y160693D01*
X79289D01*
X79054Y160751D01*
X78761Y160868D01*
X78469Y161103D01*
X78234Y161337D01*
X78059Y161747D01*
X78000Y162274D01*
Y170181D01*
Y170299D01*
X78059Y170591D01*
X78117Y171119D01*
X78234Y171704D01*
X78469Y172407D01*
X78761Y173169D01*
X79230Y173930D01*
X79816Y174633D01*
X79874Y174691D01*
X80167Y174926D01*
X80519Y175219D01*
X81046Y175511D01*
X81690Y175863D01*
X82451Y176156D01*
X83330Y176390D01*
X84267Y176449D01*
X98735D01*
X99028Y176390D01*
D02*
G37*
G36*
Y201635D02*
X99320Y201518D01*
X99555Y201283D01*
X99847Y201049D01*
X100023Y200639D01*
X100082Y200112D01*
Y200053D01*
Y199878D01*
X100023Y199585D01*
X99906Y199292D01*
X99672Y199058D01*
X99438Y198765D01*
X99028Y198589D01*
X98500Y198530D01*
X90652D01*
Y195368D01*
Y195309D01*
Y195250D01*
Y194899D01*
X90534Y194430D01*
X90417Y193845D01*
X90183Y193142D01*
X89890Y192380D01*
X89422Y191619D01*
X88777Y190916D01*
X88719Y190857D01*
X88426Y190623D01*
X88074Y190330D01*
X87547Y189979D01*
X86903Y189627D01*
X86142Y189335D01*
X85263Y189100D01*
X84326Y189042D01*
X83857D01*
X83389Y189159D01*
X82744Y189276D01*
X82042Y189510D01*
X81280Y189803D01*
X80519Y190272D01*
X79816Y190916D01*
X79757Y190975D01*
X79523Y191267D01*
X79230Y191619D01*
X78937Y192146D01*
X78586Y192790D01*
X78293Y193552D01*
X78059Y194430D01*
X78000Y195368D01*
Y200112D01*
Y200170D01*
Y200346D01*
X78059Y200639D01*
X78176Y200873D01*
X78351Y201166D01*
X78644Y201459D01*
X78996Y201635D01*
X79523Y201693D01*
X98735D01*
X99028Y201635D01*
D02*
G37*
G36*
Y185879D02*
X99320Y185762D01*
X99555Y185527D01*
X99847Y185293D01*
X100023Y184883D01*
X100082Y184356D01*
Y184297D01*
Y184122D01*
X100023Y183829D01*
X99906Y183536D01*
X99672Y183302D01*
X99438Y183009D01*
X99028Y182833D01*
X98500Y182774D01*
X79289D01*
X79054Y182833D01*
X78761Y182950D01*
X78469Y183184D01*
X78234Y183419D01*
X78059Y183829D01*
X78000Y184356D01*
Y184415D01*
Y184590D01*
X78059Y184883D01*
X78176Y185117D01*
X78351Y185410D01*
X78644Y185703D01*
X78996Y185879D01*
X79523Y185937D01*
X98735D01*
X99028Y185879D01*
D02*
G37*
G36*
X108516Y173286D02*
X108809Y173169D01*
X109043Y172934D01*
X109336Y172700D01*
X109512Y172290D01*
X109571Y171763D01*
Y165437D01*
Y165378D01*
Y165203D01*
X109512Y164910D01*
X109395Y164617D01*
X109160Y164383D01*
X108926Y164090D01*
X108516Y163914D01*
X107989Y163856D01*
X107755D01*
X107462Y163914D01*
X107228Y164031D01*
X106935Y164266D01*
X106642Y164500D01*
X106466Y164910D01*
X106408Y165437D01*
Y171763D01*
Y171821D01*
Y171997D01*
X106466Y172290D01*
X106583Y172524D01*
X106818Y172817D01*
X107052Y173110D01*
X107462Y173286D01*
X107989Y173344D01*
X108223D01*
X108516Y173286D01*
D02*
G37*
G36*
X99028Y406697D02*
X99320Y406580D01*
X99555Y406404D01*
X99847Y406111D01*
X100023Y405760D01*
X100082Y405232D01*
Y397325D01*
Y397267D01*
Y397208D01*
Y396857D01*
X99965Y396388D01*
X99847Y395802D01*
X99613Y395099D01*
X99320Y394338D01*
X98852Y393577D01*
X98208Y392874D01*
X98149Y392815D01*
X97856Y392581D01*
X97505Y392288D01*
X96978Y391936D01*
X96333Y391585D01*
X95572Y391292D01*
X94693Y391058D01*
X93756Y390999D01*
X83857D01*
X83330Y391116D01*
X82744Y391234D01*
X82042Y391468D01*
X81280Y391761D01*
X80519Y392229D01*
X79816Y392874D01*
X79757Y392932D01*
X79523Y393225D01*
X79230Y393577D01*
X78937Y394104D01*
X78586Y394748D01*
X78293Y395509D01*
X78059Y396388D01*
X78000Y397325D01*
Y403592D01*
X69858D01*
X69566Y403651D01*
X69331Y403768D01*
X69038Y404002D01*
X68746Y404237D01*
X68570Y404647D01*
X68511Y405174D01*
Y405232D01*
Y405408D01*
X68570Y405701D01*
X68687Y405935D01*
X68921Y406228D01*
X69156Y406521D01*
X69566Y406697D01*
X70093Y406755D01*
X98735D01*
X99028Y406697D01*
D02*
G37*
G36*
X464016Y349923D02*
X464113Y349884D01*
X464191Y349806D01*
X464289Y349728D01*
X464347Y349591D01*
X464367Y349416D01*
Y349396D01*
Y349338D01*
X464347Y349240D01*
X464308Y349143D01*
X464230Y349065D01*
X464152Y348967D01*
X464016Y348909D01*
X463840Y348889D01*
X461226D01*
Y347836D01*
Y347816D01*
Y347797D01*
Y347680D01*
X461187Y347523D01*
X461148Y347328D01*
X461070Y347094D01*
X460973Y346841D01*
X460817Y346587D01*
X460602Y346353D01*
X460583Y346334D01*
X460485Y346255D01*
X460368Y346158D01*
X460192Y346041D01*
X459978Y345924D01*
X459724Y345826D01*
X459432Y345748D01*
X459119Y345729D01*
X458963D01*
X458807Y345768D01*
X458593Y345807D01*
X458359Y345885D01*
X458105Y345982D01*
X457851Y346138D01*
X457617Y346353D01*
X457598Y346373D01*
X457520Y346470D01*
X457422Y346587D01*
X457325Y346763D01*
X457208Y346977D01*
X457110Y347231D01*
X457032Y347523D01*
X457013Y347836D01*
Y349416D01*
Y349435D01*
Y349494D01*
X457032Y349591D01*
X457071Y349669D01*
X457130Y349767D01*
X457227Y349864D01*
X457344Y349923D01*
X457520Y349942D01*
X463918D01*
X464016Y349923D01*
D02*
G37*
G36*
X467176Y418330D02*
X467273Y418292D01*
X467351Y418233D01*
X467449Y418135D01*
X467508Y418018D01*
X467527Y417843D01*
Y415209D01*
Y415190D01*
Y415151D01*
Y415092D01*
X467508Y415014D01*
X467488Y414819D01*
X467430Y414566D01*
X467351Y414254D01*
X467215Y413941D01*
X467020Y413629D01*
X466766Y413337D01*
X466727Y413298D01*
X466630Y413220D01*
X466474Y413103D01*
X466240Y412947D01*
X465966Y412810D01*
X465654Y412693D01*
X465303Y412615D01*
X464894Y412576D01*
X464777D01*
X464679Y412595D01*
X464445Y412634D01*
X464172Y412693D01*
X463840Y412810D01*
X463489Y412985D01*
X463333Y413103D01*
X463158Y413220D01*
X463001Y413376D01*
X462845Y413551D01*
X462826Y413532D01*
X462806Y413493D01*
X462748Y413415D01*
X462670Y413317D01*
X462592Y413200D01*
X462475Y413083D01*
X462338Y412947D01*
X462182Y412790D01*
X461987Y412654D01*
X461792Y412517D01*
X461577Y412400D01*
X461324Y412283D01*
X461070Y412186D01*
X460778Y412108D01*
X460485Y412069D01*
X460153Y412049D01*
X460036D01*
X459939Y412069D01*
X459822D01*
X459685Y412088D01*
X459393Y412166D01*
X459041Y412283D01*
X458671Y412439D01*
X458281Y412673D01*
X458105Y412830D01*
X457929Y412985D01*
Y413005D01*
X457891Y413024D01*
X457851Y413083D01*
X457793Y413142D01*
X457637Y413337D01*
X457481Y413610D01*
X457305Y413922D01*
X457149Y414312D01*
X457052Y414741D01*
X457032Y414975D01*
X457013Y415209D01*
Y417843D01*
Y417862D01*
Y417921D01*
X457032Y417999D01*
X457071Y418096D01*
X457130Y418194D01*
X457227Y418272D01*
X457344Y418330D01*
X457520Y418350D01*
X467078D01*
X467176Y418330D01*
D02*
G37*
G36*
X464016Y344675D02*
X464113Y344636D01*
X464191Y344558D01*
X464289Y344480D01*
X464347Y344344D01*
X464367Y344168D01*
Y344149D01*
Y344090D01*
X464347Y343993D01*
X464308Y343895D01*
X464230Y343817D01*
X464152Y343720D01*
X464016Y343661D01*
X463840Y343642D01*
X457442D01*
X457364Y343661D01*
X457266Y343700D01*
X457169Y343778D01*
X457091Y343856D01*
X457032Y343993D01*
X457013Y344168D01*
Y344188D01*
Y344246D01*
X457032Y344344D01*
X457071Y344422D01*
X457130Y344519D01*
X457227Y344617D01*
X457344Y344675D01*
X457520Y344695D01*
X463918D01*
X464016Y344675D01*
D02*
G37*
G36*
X457696Y402569D02*
X463938Y400501D01*
X463957D01*
X463996Y400462D01*
X464074Y400423D01*
X464152Y400384D01*
X464230Y400306D01*
X464308Y400208D01*
X464347Y400111D01*
X464367Y399974D01*
Y397868D01*
Y397848D01*
Y397789D01*
X464347Y397692D01*
X464308Y397594D01*
X464230Y397516D01*
X464152Y397419D01*
X464016Y397360D01*
X463840Y397341D01*
X457442D01*
X457364Y397360D01*
X457266Y397399D01*
X457169Y397477D01*
X457091Y397555D01*
X457032Y397692D01*
X457013Y397868D01*
Y397887D01*
Y397946D01*
X457032Y398043D01*
X457071Y398121D01*
X457130Y398219D01*
X457227Y398316D01*
X457344Y398375D01*
X457520Y398394D01*
X463313D01*
Y399604D01*
X457364Y401574D01*
X457344D01*
X457305Y401593D01*
X457188Y401671D01*
X457130Y401749D01*
X457071Y401827D01*
X457032Y401925D01*
X457013Y402062D01*
Y402081D01*
Y402140D01*
X457032Y402237D01*
X457071Y402315D01*
X457149Y402413D01*
X457227Y402510D01*
X457364Y402569D01*
X457539Y402588D01*
X457598D01*
X457696Y402569D01*
D02*
G37*
G36*
X467176Y358330D02*
X467273Y358292D01*
X467351Y358233D01*
X467449Y358135D01*
X467508Y358018D01*
X467527Y357843D01*
Y355209D01*
Y355190D01*
Y355151D01*
Y355092D01*
X467508Y355014D01*
X467488Y354819D01*
X467430Y354566D01*
X467351Y354254D01*
X467215Y353941D01*
X467020Y353629D01*
X466766Y353337D01*
X466727Y353298D01*
X466630Y353220D01*
X466474Y353103D01*
X466240Y352947D01*
X465966Y352810D01*
X465654Y352693D01*
X465303Y352615D01*
X464894Y352576D01*
X464777D01*
X464679Y352595D01*
X464445Y352634D01*
X464172Y352693D01*
X463840Y352810D01*
X463489Y352985D01*
X463333Y353103D01*
X463158Y353220D01*
X463001Y353376D01*
X462845Y353551D01*
X462826Y353532D01*
X462806Y353493D01*
X462748Y353415D01*
X462670Y353317D01*
X462592Y353200D01*
X462475Y353083D01*
X462338Y352947D01*
X462182Y352790D01*
X461987Y352654D01*
X461792Y352517D01*
X461577Y352400D01*
X461324Y352283D01*
X461070Y352186D01*
X460778Y352108D01*
X460485Y352069D01*
X460153Y352049D01*
X460036D01*
X459939Y352069D01*
X459822D01*
X459685Y352088D01*
X459393Y352166D01*
X459041Y352283D01*
X458671Y352439D01*
X458281Y352673D01*
X458105Y352830D01*
X457929Y352985D01*
Y353005D01*
X457891Y353024D01*
X457851Y353083D01*
X457793Y353142D01*
X457637Y353337D01*
X457481Y353610D01*
X457305Y353922D01*
X457149Y354312D01*
X457052Y354741D01*
X457032Y354975D01*
X457013Y355209D01*
Y357843D01*
Y357862D01*
Y357921D01*
X457032Y357999D01*
X457071Y358096D01*
X457130Y358194D01*
X457227Y358272D01*
X457344Y358330D01*
X457520Y358350D01*
X467078D01*
X467176Y358330D01*
D02*
G37*
G36*
X464016Y409923D02*
X464113Y409884D01*
X464191Y409806D01*
X464289Y409728D01*
X464347Y409591D01*
X464367Y409416D01*
Y409396D01*
Y409338D01*
X464347Y409240D01*
X464308Y409143D01*
X464230Y409065D01*
X464152Y408967D01*
X464016Y408909D01*
X463840Y408889D01*
X460914D01*
X464211Y405592D01*
X464230Y405573D01*
X464289Y405495D01*
X464347Y405378D01*
X464367Y405222D01*
Y405202D01*
Y405144D01*
X464347Y405046D01*
X464308Y404949D01*
X464230Y404870D01*
X464152Y404773D01*
X464016Y404715D01*
X463840Y404695D01*
X463801D01*
X463723Y404715D01*
X463587Y404753D01*
X463470Y404851D01*
X461148Y407153D01*
X457832Y404793D01*
X457812Y404773D01*
X457734Y404734D01*
X457637Y404715D01*
X457520Y404695D01*
X457442D01*
X457364Y404715D01*
X457266Y404753D01*
X457169Y404832D01*
X457091Y404910D01*
X457032Y405046D01*
X457013Y405222D01*
Y405241D01*
Y405261D01*
X457032Y405378D01*
X457110Y405514D01*
X457149Y405592D01*
X457227Y405651D01*
X460387Y407914D01*
X459412Y408889D01*
X457442D01*
X457364Y408909D01*
X457266Y408947D01*
X457169Y409026D01*
X457091Y409104D01*
X457032Y409240D01*
X457013Y409416D01*
Y409435D01*
Y409494D01*
X457032Y409591D01*
X457071Y409669D01*
X457130Y409767D01*
X457227Y409864D01*
X457344Y409923D01*
X457520Y409942D01*
X463918D01*
X464016Y409923D01*
D02*
G37*
G36*
X457696Y334161D02*
X463938Y332093D01*
X463957D01*
X463996Y332054D01*
X464074Y332015D01*
X464152Y331976D01*
X464230Y331898D01*
X464308Y331801D01*
X464347Y331703D01*
X464367Y331567D01*
Y329460D01*
Y329440D01*
Y329382D01*
X464347Y329284D01*
X464308Y329187D01*
X464230Y329109D01*
X464152Y329011D01*
X464016Y328953D01*
X463840Y328933D01*
X457442D01*
X457364Y328953D01*
X457266Y328992D01*
X457169Y329070D01*
X457091Y329148D01*
X457032Y329284D01*
X457013Y329460D01*
Y329479D01*
Y329538D01*
X457032Y329635D01*
X457071Y329713D01*
X457130Y329811D01*
X457227Y329908D01*
X457344Y329967D01*
X457520Y329986D01*
X463313D01*
Y331196D01*
X457364Y333166D01*
X457344D01*
X457305Y333186D01*
X457188Y333264D01*
X457130Y333342D01*
X457071Y333420D01*
X457032Y333517D01*
X457013Y333654D01*
Y333673D01*
Y333732D01*
X457032Y333829D01*
X457071Y333908D01*
X457149Y334005D01*
X457227Y334103D01*
X457364Y334161D01*
X457539Y334181D01*
X457598D01*
X457696Y334161D01*
D02*
G37*
G36*
X108516Y431941D02*
X108809Y431824D01*
X109043Y431590D01*
X109336Y431356D01*
X109512Y430946D01*
X109571Y430419D01*
Y414604D01*
Y414545D01*
Y414370D01*
X109512Y414077D01*
X109395Y413784D01*
X109160Y413550D01*
X108926Y413257D01*
X108516Y413081D01*
X107989Y413022D01*
X107755D01*
X107462Y413081D01*
X107228Y413198D01*
X106935Y413433D01*
X106642Y413667D01*
X106466Y414077D01*
X106408Y414604D01*
Y420930D01*
X79289D01*
X79054Y420988D01*
X78761Y421105D01*
X78469Y421340D01*
X78234Y421574D01*
X78059Y421984D01*
X78000Y422511D01*
Y422570D01*
Y422746D01*
X78059Y423038D01*
X78176Y423273D01*
X78351Y423566D01*
X78644Y423858D01*
X78996Y424034D01*
X79523Y424093D01*
X106408D01*
Y430419D01*
Y430477D01*
Y430653D01*
X106466Y430946D01*
X106583Y431180D01*
X106818Y431473D01*
X107052Y431766D01*
X107462Y431941D01*
X107989Y432000D01*
X108223D01*
X108516Y431941D01*
D02*
G37*
G36*
X464016Y341515D02*
X464113Y341476D01*
X464191Y341398D01*
X464289Y341320D01*
X464347Y341184D01*
X464367Y341008D01*
Y340989D01*
Y340930D01*
X464347Y340832D01*
X464308Y340735D01*
X464230Y340657D01*
X464152Y340559D01*
X464016Y340501D01*
X463840Y340481D01*
X460914D01*
X464211Y337185D01*
X464230Y337165D01*
X464289Y337087D01*
X464347Y336970D01*
X464367Y336814D01*
Y336795D01*
Y336736D01*
X464347Y336638D01*
X464308Y336541D01*
X464230Y336463D01*
X464152Y336365D01*
X464016Y336307D01*
X463840Y336287D01*
X463801D01*
X463723Y336307D01*
X463587Y336346D01*
X463470Y336443D01*
X461148Y338745D01*
X457832Y336385D01*
X457812Y336365D01*
X457734Y336326D01*
X457637Y336307D01*
X457520Y336287D01*
X457442D01*
X457364Y336307D01*
X457266Y336346D01*
X457169Y336424D01*
X457091Y336502D01*
X457032Y336638D01*
X457013Y336814D01*
Y336834D01*
Y336853D01*
X457032Y336970D01*
X457110Y337107D01*
X457149Y337185D01*
X457227Y337243D01*
X460387Y339506D01*
X459412Y340481D01*
X457442D01*
X457364Y340501D01*
X457266Y340540D01*
X457169Y340618D01*
X457091Y340696D01*
X457032Y340832D01*
X457013Y341008D01*
Y341028D01*
Y341086D01*
X457032Y341184D01*
X457071Y341262D01*
X457130Y341359D01*
X457227Y341457D01*
X457344Y341515D01*
X457520Y341535D01*
X463918D01*
X464016Y341515D01*
D02*
G37*
%LPC*%
G36*
X92175Y293183D02*
X85497D01*
X85146Y293125D01*
X84677Y293008D01*
X84150Y292832D01*
X83623Y292598D01*
X83037Y292305D01*
X82510Y291836D01*
X82451Y291778D01*
X82276Y291602D01*
X82100Y291309D01*
X81866Y290899D01*
X81573Y290431D01*
X81397Y289845D01*
X81222Y289200D01*
X81163Y288498D01*
Y288439D01*
Y288146D01*
X81222Y287795D01*
X81339Y287326D01*
X81514Y286858D01*
X81749Y286272D01*
X82042Y285686D01*
X82510Y285159D01*
X82569Y285100D01*
X82744Y284925D01*
X83037Y284690D01*
X83447Y284456D01*
X83916Y284222D01*
X84501Y283988D01*
X85146Y283812D01*
X85849Y283753D01*
X92526D01*
X92877Y283812D01*
X93346Y283929D01*
X93814Y284105D01*
X94400Y284339D01*
X94986Y284690D01*
X95513Y285159D01*
X95572Y285218D01*
X95747Y285393D01*
X95982Y285686D01*
X96216Y286096D01*
X96450Y286565D01*
X96685Y287150D01*
X96860Y287795D01*
X96919Y288498D01*
Y288556D01*
Y288790D01*
X96860Y289200D01*
X96743Y289611D01*
X96567Y290138D01*
X96333Y290723D01*
X95982Y291309D01*
X95513Y291836D01*
X95455Y291895D01*
X95279Y292071D01*
X94986Y292246D01*
X94576Y292481D01*
X94107Y292773D01*
X93522Y292949D01*
X92877Y293125D01*
X92175Y293183D01*
D02*
G37*
G36*
X96919Y271102D02*
X81163D01*
Y264834D01*
Y264776D01*
Y264600D01*
X81222Y264366D01*
X81280Y264073D01*
X81397Y263722D01*
X81514Y263370D01*
X81749Y262960D01*
X82042Y262609D01*
X82100Y262550D01*
X82217Y262433D01*
X82393Y262316D01*
X82686Y262140D01*
X82979Y261964D01*
X83389Y261789D01*
X83799Y261730D01*
X84267Y261672D01*
X93990D01*
X94225Y261730D01*
X94517Y261789D01*
X94869Y261906D01*
X95279Y262082D01*
X95630Y262316D01*
X95982Y262609D01*
X96040Y262667D01*
X96157Y262784D01*
X96275Y262960D01*
X96450Y263194D01*
X96626Y263546D01*
X96802Y263897D01*
X96860Y264366D01*
X96919Y264834D01*
Y271102D01*
D02*
G37*
G36*
X93756Y381511D02*
X84033D01*
X83799Y381452D01*
X83506Y381393D01*
X83154Y381276D01*
X82803Y381159D01*
X82393Y380925D01*
X82042Y380632D01*
X81983Y380573D01*
X81924Y380456D01*
X81749Y380281D01*
X81631Y379988D01*
X81456Y379695D01*
X81280Y379285D01*
X81222Y378875D01*
X81163Y378406D01*
Y375243D01*
Y375185D01*
Y375009D01*
X81222Y374775D01*
X81280Y374482D01*
X81397Y374131D01*
X81514Y373779D01*
X81749Y373369D01*
X82042Y373018D01*
X82100Y372959D01*
X82217Y372842D01*
X82393Y372725D01*
X82686Y372549D01*
X82979Y372373D01*
X83389Y372198D01*
X83799Y372139D01*
X84267Y372080D01*
X96919D01*
Y378406D01*
Y378465D01*
Y378641D01*
X96860Y378875D01*
X96802Y379168D01*
X96685Y379519D01*
X96509Y379871D01*
X96275Y380281D01*
X95982Y380632D01*
X95923Y380691D01*
X95806Y380749D01*
X95630Y380925D01*
X95337Y381042D01*
X95045Y381218D01*
X94635Y381393D01*
X94225Y381452D01*
X93756Y381511D01*
D02*
G37*
G36*
X92175Y107040D02*
X90652D01*
Y97610D01*
X92526D01*
X92877Y97669D01*
X93346Y97786D01*
X93814Y97962D01*
X94400Y98196D01*
X94986Y98547D01*
X95513Y99016D01*
X95572Y99074D01*
X95747Y99250D01*
X95982Y99543D01*
X96216Y99953D01*
X96450Y100422D01*
X96685Y101007D01*
X96860Y101652D01*
X96919Y102354D01*
Y102413D01*
Y102647D01*
X96860Y103057D01*
X96743Y103467D01*
X96567Y103995D01*
X96333Y104580D01*
X95982Y105166D01*
X95513Y105693D01*
X95455Y105752D01*
X95279Y105927D01*
X94986Y106103D01*
X94576Y106337D01*
X94107Y106630D01*
X93522Y106806D01*
X92877Y106982D01*
X92175Y107040D01*
D02*
G37*
G36*
X87489Y198530D02*
X81163D01*
Y195368D01*
Y195309D01*
Y195133D01*
X81222Y194899D01*
X81280Y194606D01*
X81397Y194255D01*
X81514Y193903D01*
X81749Y193493D01*
X82042Y193142D01*
X82100Y193083D01*
X82217Y192966D01*
X82393Y192849D01*
X82686Y192673D01*
X83037Y192498D01*
X83389Y192322D01*
X83857Y192263D01*
X84326Y192205D01*
X84560D01*
X84794Y192263D01*
X85087Y192322D01*
X85439Y192439D01*
X85790Y192615D01*
X86200Y192849D01*
X86552Y193142D01*
X86610Y193200D01*
X86727Y193318D01*
X86844Y193493D01*
X87020Y193786D01*
X87196Y194079D01*
X87372Y194489D01*
X87430Y194899D01*
X87489Y195368D01*
Y198530D01*
D02*
G37*
G36*
X96919Y403592D02*
X81163D01*
Y397325D01*
Y397267D01*
Y397091D01*
X81222Y396857D01*
X81280Y396564D01*
X81397Y396212D01*
X81514Y395861D01*
X81749Y395451D01*
X82042Y395099D01*
X82100Y395041D01*
X82217Y394924D01*
X82393Y394807D01*
X82686Y394631D01*
X82979Y394455D01*
X83389Y394279D01*
X83799Y394221D01*
X84267Y394162D01*
X93990D01*
X94225Y394221D01*
X94517Y394279D01*
X94869Y394397D01*
X95279Y394572D01*
X95630Y394807D01*
X95982Y395099D01*
X96040Y395158D01*
X96157Y395275D01*
X96275Y395451D01*
X96450Y395685D01*
X96626Y396036D01*
X96802Y396388D01*
X96860Y396857D01*
X96919Y397325D01*
Y403592D01*
D02*
G37*
G36*
X460173Y348889D02*
X458066D01*
Y347836D01*
Y347816D01*
Y347758D01*
X458086Y347680D01*
X458105Y347582D01*
X458144Y347465D01*
X458183Y347348D01*
X458261Y347211D01*
X458359Y347094D01*
X458378Y347075D01*
X458417Y347036D01*
X458476Y346997D01*
X458573Y346938D01*
X458690Y346880D01*
X458807Y346821D01*
X458963Y346802D01*
X459119Y346782D01*
X459198D01*
X459276Y346802D01*
X459373Y346821D01*
X459490Y346860D01*
X459607Y346919D01*
X459744Y346997D01*
X459861Y347094D01*
X459880Y347114D01*
X459919Y347153D01*
X459958Y347211D01*
X460017Y347309D01*
X460075Y347407D01*
X460134Y347543D01*
X460153Y347680D01*
X460173Y347836D01*
Y348889D01*
D02*
G37*
G36*
X466474Y417297D02*
X463313D01*
Y415209D01*
Y415190D01*
Y415092D01*
X463333Y414975D01*
X463372Y414819D01*
X463431Y414663D01*
X463509Y414468D01*
X463606Y414273D01*
X463762Y414097D01*
X463782Y414078D01*
X463840Y414019D01*
X463938Y413941D01*
X464074Y413863D01*
X464250Y413785D01*
X464445Y413707D01*
X464660Y413649D01*
X464894Y413629D01*
X465011D01*
X465128Y413649D01*
X465284Y413688D01*
X465440Y413746D01*
X465635Y413824D01*
X465830Y413941D01*
X466006Y414097D01*
X466025Y414117D01*
X466083Y414175D01*
X466162Y414273D01*
X466240Y414410D01*
X466318Y414566D01*
X466396Y414761D01*
X466454Y414975D01*
X466474Y415209D01*
Y417297D01*
D02*
G37*
G36*
X462260D02*
X458066D01*
Y415209D01*
Y415190D01*
Y415170D01*
X458086Y415053D01*
X458105Y414897D01*
X458144Y414702D01*
X458222Y414468D01*
X458320Y414215D01*
X458476Y413961D01*
X458671Y413727D01*
X458690Y413707D01*
X458788Y413629D01*
X458905Y413532D01*
X459081Y413415D01*
X459295Y413298D01*
X459549Y413200D01*
X459841Y413122D01*
X460153Y413103D01*
X460309D01*
X460466Y413142D01*
X460661Y413181D01*
X460895Y413259D01*
X461148Y413356D01*
X461402Y413512D01*
X461636Y413727D01*
X461655Y413746D01*
X461733Y413844D01*
X461831Y413961D01*
X461948Y414137D01*
X462065Y414351D01*
X462163Y414605D01*
X462241Y414897D01*
X462260Y415209D01*
Y417297D01*
D02*
G37*
G36*
X466474Y357297D02*
X463313D01*
Y355209D01*
Y355190D01*
Y355092D01*
X463333Y354975D01*
X463372Y354819D01*
X463431Y354663D01*
X463509Y354468D01*
X463606Y354273D01*
X463762Y354097D01*
X463782Y354078D01*
X463840Y354019D01*
X463938Y353941D01*
X464074Y353863D01*
X464250Y353785D01*
X464445Y353707D01*
X464660Y353649D01*
X464894Y353629D01*
X465011D01*
X465128Y353649D01*
X465284Y353688D01*
X465440Y353746D01*
X465635Y353824D01*
X465830Y353941D01*
X466006Y354097D01*
X466025Y354117D01*
X466083Y354175D01*
X466162Y354273D01*
X466240Y354410D01*
X466318Y354566D01*
X466396Y354761D01*
X466454Y354975D01*
X466474Y355209D01*
Y357297D01*
D02*
G37*
G36*
X462260D02*
X458066D01*
Y355209D01*
Y355190D01*
Y355170D01*
X458086Y355053D01*
X458105Y354897D01*
X458144Y354702D01*
X458222Y354468D01*
X458320Y354215D01*
X458476Y353961D01*
X458671Y353727D01*
X458690Y353707D01*
X458788Y353629D01*
X458905Y353532D01*
X459081Y353415D01*
X459295Y353298D01*
X459549Y353200D01*
X459841Y353122D01*
X460153Y353103D01*
X460309D01*
X460466Y353142D01*
X460661Y353181D01*
X460895Y353259D01*
X461148Y353356D01*
X461402Y353512D01*
X461636Y353727D01*
X461655Y353746D01*
X461733Y353844D01*
X461831Y353961D01*
X461948Y354137D01*
X462065Y354351D01*
X462163Y354605D01*
X462241Y354897D01*
X462260Y355209D01*
Y357297D01*
D02*
G37*
%LPD*%
D19*
X279210Y239000D02*
Y242000D01*
X222060Y239000D02*
X279210D01*
X222060D02*
Y247460D01*
Y252540D02*
Y261000D01*
X279210D01*
Y258000D02*
Y261000D01*
X250000Y239000D02*
Y261000D01*
Y250000D02*
X255080Y246190D01*
X250000Y250000D02*
X255080Y253810D01*
X247460Y250000D02*
X250000D01*
X255080D02*
X257620D01*
X255080Y246190D02*
Y253810D01*
X220790Y261000D02*
X222060D01*
X220790Y252540D02*
Y261000D01*
Y252540D02*
X222060D01*
X220790Y239000D02*
X222060D01*
X220790D02*
Y247460D01*
X222060D01*
X248700Y227080D02*
Y229000D01*
X223300D02*
X248700D01*
X223300Y227080D02*
Y229000D01*
Y215000D02*
Y216920D01*
Y215000D02*
X248700D01*
Y216920D01*
X236000Y215000D02*
Y229000D01*
D20*
X416000Y302000D02*
X444000D01*
X416000Y197700D02*
X444000D01*
Y302000D01*
X416000Y197700D02*
Y302000D01*
M02*
