G04 Layer_Physical_Order=1*
G04 Layer_Color=255*
%FSLAX44Y44*%
%MOMM*%
G71*
G01*
G75*
%ADD10R,1.2500X1.0000*%
%ADD11C,0.6000*%
%ADD12C,4.0000*%
%ADD13P,1.9483X8X292.5*%
%ADD14C,1.8000*%
%ADD15P,1.9483X8X22.5*%
%ADD16C,6.0000*%
%ADD17C,0.7000*%
G36*
X537186Y585278D02*
X539040Y584040D01*
X540278Y582186D01*
X540680Y580167D01*
X540646Y580000D01*
Y20000D01*
X540680Y19833D01*
X540278Y17814D01*
X539040Y15960D01*
X537186Y14722D01*
X536199Y14526D01*
X535000Y14354D01*
Y14354D01*
X15000D01*
X14833Y14320D01*
X12814Y14722D01*
X10961Y15960D01*
X9722Y17814D01*
X9526Y18801D01*
X9354Y20000D01*
X9354D01*
Y580000D01*
X9320Y580167D01*
X9722Y582186D01*
X10961Y584040D01*
X12814Y585278D01*
X14833Y585680D01*
X15000Y585646D01*
X535000D01*
X535167Y585680D01*
X537186Y585278D01*
D02*
G37*
%LPC*%
G36*
X200000Y238111D02*
X195491Y237667D01*
X191156Y236352D01*
X187160Y234216D01*
X183658Y231342D01*
X180784Y227840D01*
X178648Y223844D01*
X177333Y219509D01*
X176889Y215000D01*
X177333Y210491D01*
X178648Y206156D01*
X180784Y202160D01*
X183658Y198658D01*
X187160Y195784D01*
X191156Y193648D01*
X195491Y192333D01*
X200000Y191889D01*
X204509Y192333D01*
X208844Y193648D01*
X212840Y195784D01*
X216342Y198658D01*
X219216Y202160D01*
X221352Y206156D01*
X222667Y210491D01*
X223111Y215000D01*
X222667Y219509D01*
X221352Y223844D01*
X219216Y227840D01*
X216342Y231342D01*
X212840Y234216D01*
X208844Y236352D01*
X204509Y237667D01*
X200000Y238111D01*
D02*
G37*
G36*
X370000D02*
X365491Y237667D01*
X361156Y236352D01*
X357160Y234216D01*
X353658Y231342D01*
X350784Y227840D01*
X348648Y223844D01*
X347333Y219509D01*
X346889Y215000D01*
X347333Y210491D01*
X348648Y206156D01*
X350784Y202160D01*
X353658Y198658D01*
X357160Y195784D01*
X361156Y193648D01*
X365491Y192333D01*
X370000Y191889D01*
X374509Y192333D01*
X378844Y193648D01*
X382840Y195784D01*
X386342Y198658D01*
X389216Y202160D01*
X391352Y206156D01*
X392667Y210491D01*
X393111Y215000D01*
X392667Y219509D01*
X391352Y223844D01*
X389216Y227840D01*
X386342Y231342D01*
X382840Y234216D01*
X378844Y236352D01*
X374509Y237667D01*
X370000Y238111D01*
D02*
G37*
G36*
X296300Y292419D02*
X283800D01*
X282630Y292186D01*
X281637Y291523D01*
X280974Y290530D01*
X280741Y289360D01*
Y279360D01*
X280974Y278190D01*
X281637Y277197D01*
X282630Y276534D01*
X283800Y276301D01*
X283932D01*
Y173334D01*
X257974Y147376D01*
X256648Y145391D01*
X256182Y143050D01*
Y90431D01*
X253742Y88559D01*
X251818Y86052D01*
X250609Y83133D01*
X250362Y81255D01*
X249656Y80910D01*
X249029Y80862D01*
X248959Y80944D01*
Y84500D01*
X248959Y84500D01*
X248726Y85670D01*
X248063Y86663D01*
X243563Y91163D01*
X242571Y91826D01*
X241400Y92059D01*
X232400D01*
X232400Y92059D01*
X231229Y91826D01*
X230237Y91163D01*
X225737Y86663D01*
X225074Y85670D01*
X224841Y84500D01*
Y75500D01*
X224841Y75500D01*
X225074Y74330D01*
X225737Y73337D01*
X230237Y68837D01*
X231229Y68174D01*
X232400Y67941D01*
X238833D01*
X239441Y67200D01*
Y47200D01*
X239674Y46029D01*
X240337Y45037D01*
X241329Y44374D01*
X242500Y44141D01*
X307500D01*
X308671Y44374D01*
X309663Y45037D01*
X310326Y46029D01*
X310559Y47200D01*
Y66950D01*
X311352Y68046D01*
X311418Y68118D01*
X313100Y67896D01*
X316233Y68309D01*
X319152Y69518D01*
X321659Y71441D01*
X323582Y73948D01*
X324791Y76867D01*
X325204Y80000D01*
X324791Y83133D01*
X323582Y86052D01*
X321659Y88559D01*
X319152Y90482D01*
X316233Y91691D01*
X313100Y92104D01*
X309967Y91691D01*
X307048Y90482D01*
X304542Y88559D01*
X302618Y86052D01*
X301409Y83133D01*
X301116Y80905D01*
X301040Y80334D01*
X299760D01*
X299685Y80905D01*
X299391Y83133D01*
X298182Y86052D01*
X296259Y88559D01*
X293752Y90482D01*
X290833Y91691D01*
X287700Y92104D01*
X284567Y91691D01*
X281648Y90482D01*
X279142Y88559D01*
X277218Y86052D01*
X276009Y83133D01*
X275716Y80905D01*
X275641Y80334D01*
X274360D01*
X274284Y80905D01*
X273991Y83133D01*
X272782Y86052D01*
X270858Y88559D01*
X268418Y90431D01*
Y140516D01*
X294376Y166474D01*
X295702Y168459D01*
X296168Y170800D01*
Y276301D01*
X296300D01*
X297471Y276534D01*
X298463Y277197D01*
X299126Y278190D01*
X299359Y279360D01*
Y289360D01*
X299126Y290530D01*
X298463Y291523D01*
X297471Y292186D01*
X296300Y292419D01*
D02*
G37*
G36*
X45000Y83102D02*
X39822Y82695D01*
X34771Y81482D01*
X29972Y79494D01*
X25543Y76780D01*
X21593Y73407D01*
X18220Y69457D01*
X15506Y65028D01*
X13518Y60229D01*
X12306Y55178D01*
X11898Y50000D01*
X12306Y44822D01*
X13518Y39771D01*
X15506Y34972D01*
X18220Y30543D01*
X21593Y26593D01*
X25543Y23220D01*
X29972Y20506D01*
X34771Y18518D01*
X39822Y17306D01*
X45000Y16898D01*
X50178Y17306D01*
X55229Y18518D01*
X60028Y20506D01*
X64457Y23220D01*
X68407Y26593D01*
X71780Y30543D01*
X74494Y34972D01*
X76482Y39771D01*
X77695Y44822D01*
X78102Y50000D01*
X77695Y55178D01*
X76482Y60229D01*
X74494Y65028D01*
X71780Y69457D01*
X68407Y73407D01*
X64457Y76780D01*
X60028Y79494D01*
X55229Y81482D01*
X50178Y82695D01*
X45000Y83102D01*
D02*
G37*
G36*
X505000D02*
X499822Y82695D01*
X494771Y81482D01*
X489972Y79494D01*
X485543Y76780D01*
X481593Y73407D01*
X478220Y69457D01*
X475506Y65028D01*
X473518Y60229D01*
X472306Y55178D01*
X471898Y50000D01*
X472306Y44822D01*
X473518Y39771D01*
X475506Y34972D01*
X478220Y30543D01*
X481593Y26593D01*
X485543Y23220D01*
X489972Y20506D01*
X494771Y18518D01*
X499822Y17306D01*
X505000Y16898D01*
X510178Y17306D01*
X515229Y18518D01*
X520028Y20506D01*
X524457Y23220D01*
X528407Y26593D01*
X531780Y30543D01*
X534494Y34972D01*
X536482Y39771D01*
X537695Y44822D01*
X538102Y50000D01*
X537695Y55178D01*
X536482Y60229D01*
X534494Y65028D01*
X531780Y69457D01*
X528407Y73407D01*
X524457Y76780D01*
X520028Y79494D01*
X515229Y81482D01*
X510178Y82695D01*
X505000Y83102D01*
D02*
G37*
G36*
X296300Y312419D02*
X283800D01*
X282630Y312186D01*
X281637Y311523D01*
X280974Y310530D01*
X280964Y310478D01*
X264610D01*
X262269Y310012D01*
X260284Y308686D01*
X257174Y305576D01*
X255848Y303591D01*
X255382Y301250D01*
Y284716D01*
X255167Y284197D01*
X254944Y282500D01*
X255167Y280803D01*
X255822Y279222D01*
X256864Y277864D01*
X258222Y276822D01*
X259803Y276167D01*
X261500Y275944D01*
X263197Y276167D01*
X264778Y276822D01*
X266136Y277864D01*
X267178Y279222D01*
X267833Y280803D01*
X268056Y282500D01*
X267833Y284197D01*
X267617Y284716D01*
Y298242D01*
X280964D01*
X280974Y298190D01*
X281637Y297197D01*
X282630Y296534D01*
X283800Y296301D01*
X296300D01*
X297471Y296534D01*
X298463Y297197D01*
X299126Y298190D01*
X299359Y299360D01*
Y309360D01*
X299126Y310530D01*
X298463Y311523D01*
X297471Y312186D01*
X296300Y312419D01*
D02*
G37*
G36*
X45000Y583102D02*
X39822Y582695D01*
X34771Y581482D01*
X29972Y579494D01*
X25543Y576780D01*
X21593Y573407D01*
X18220Y569457D01*
X15506Y565028D01*
X13518Y560229D01*
X12306Y555178D01*
X11898Y550000D01*
X12306Y544822D01*
X13518Y539771D01*
X15506Y534972D01*
X18220Y530543D01*
X21593Y526593D01*
X25543Y523220D01*
X29972Y520506D01*
X34771Y518518D01*
X39822Y517305D01*
X45000Y516898D01*
X50178Y517305D01*
X55229Y518518D01*
X60028Y520506D01*
X64457Y523220D01*
X68407Y526593D01*
X71780Y530543D01*
X74494Y534972D01*
X76482Y539771D01*
X77695Y544822D01*
X78102Y550000D01*
X77695Y555178D01*
X76482Y560229D01*
X74494Y565028D01*
X71780Y569457D01*
X68407Y573407D01*
X64457Y576780D01*
X60028Y579494D01*
X55229Y581482D01*
X50178Y582695D01*
X45000Y583102D01*
D02*
G37*
G36*
X505000D02*
X499822Y582695D01*
X494771Y581482D01*
X489972Y579494D01*
X485543Y576780D01*
X481593Y573407D01*
X478220Y569457D01*
X475506Y565028D01*
X473518Y560229D01*
X472306Y555178D01*
X471898Y550000D01*
X472306Y544822D01*
X473518Y539771D01*
X475506Y534972D01*
X478220Y530543D01*
X481593Y526593D01*
X485543Y523220D01*
X489972Y520506D01*
X494771Y518518D01*
X499822Y517305D01*
X505000Y516898D01*
X510178Y517305D01*
X515229Y518518D01*
X520028Y520506D01*
X524457Y523220D01*
X528407Y526593D01*
X531780Y530543D01*
X534494Y534972D01*
X536482Y539771D01*
X537695Y544822D01*
X538102Y550000D01*
X537695Y555178D01*
X536482Y560229D01*
X534494Y565028D01*
X531780Y569457D01*
X528407Y573407D01*
X524457Y576780D01*
X520028Y579494D01*
X515229Y581482D01*
X510178Y582695D01*
X505000Y583102D01*
D02*
G37*
G36*
X370000Y408111D02*
X365491Y407667D01*
X361156Y406352D01*
X357160Y404216D01*
X353658Y401342D01*
X350784Y397840D01*
X348648Y393844D01*
X347333Y389509D01*
X346889Y385000D01*
X347333Y380491D01*
X348648Y376156D01*
X350784Y372160D01*
X353658Y368658D01*
X357160Y365784D01*
X361156Y363648D01*
X365491Y362333D01*
X370000Y361889D01*
X374509Y362333D01*
X378844Y363648D01*
X382840Y365784D01*
X386342Y368658D01*
X389216Y372160D01*
X391352Y376156D01*
X392667Y380491D01*
X393111Y385000D01*
X392667Y389509D01*
X391352Y393844D01*
X389216Y397840D01*
X386342Y401342D01*
X382840Y404216D01*
X378844Y406352D01*
X374509Y407667D01*
X370000Y408111D01*
D02*
G37*
G36*
X102500Y345409D02*
X101329Y345176D01*
X100337Y344513D01*
X95837Y340013D01*
X95174Y339021D01*
X94941Y337850D01*
Y328850D01*
X94941Y328850D01*
X95174Y327679D01*
X95837Y326687D01*
X100337Y322187D01*
X101329Y321524D01*
X102500Y321291D01*
X106671D01*
X106755Y320021D01*
X106038Y319927D01*
X103867Y319641D01*
X100948Y318432D01*
X98442Y316509D01*
X96518Y314002D01*
X95309Y311083D01*
X94896Y307950D01*
X95309Y304817D01*
X96518Y301898D01*
X98442Y299391D01*
X100948Y297468D01*
X103867Y296259D01*
X106095Y295966D01*
X106666Y295890D01*
Y294610D01*
X106096Y294534D01*
X103867Y294241D01*
X100948Y293032D01*
X98442Y291108D01*
X96518Y288602D01*
X95309Y285683D01*
X94896Y282550D01*
X95309Y279417D01*
X96518Y276498D01*
X98442Y273992D01*
X100948Y272068D01*
X103867Y270859D01*
X106095Y270566D01*
X106666Y270490D01*
Y269210D01*
X106096Y269134D01*
X103867Y268841D01*
X100948Y267632D01*
X98442Y265709D01*
X96518Y263202D01*
X95309Y260283D01*
X94896Y257150D01*
X95309Y254017D01*
X96518Y251098D01*
X98442Y248591D01*
X100948Y246668D01*
X103867Y245459D01*
X107000Y245047D01*
X110133Y245459D01*
X113052Y246668D01*
X115559Y248591D01*
X117482Y251098D01*
X118691Y254017D01*
X119104Y257150D01*
X118691Y260283D01*
X117482Y263202D01*
X115559Y265709D01*
X113052Y267632D01*
X110133Y268841D01*
X107905Y269134D01*
X107334Y269210D01*
Y270490D01*
X107905Y270566D01*
X110133Y270859D01*
X113052Y272068D01*
X115559Y273992D01*
X117482Y276498D01*
X118691Y279417D01*
X119104Y282550D01*
X118691Y285683D01*
X117482Y288602D01*
X115559Y291108D01*
X113052Y293032D01*
X110133Y294241D01*
X107905Y294534D01*
X107334Y294610D01*
Y295890D01*
X107905Y295966D01*
X110133Y296259D01*
X113052Y297468D01*
X115559Y299391D01*
X117482Y301898D01*
X118691Y304817D01*
X119104Y307950D01*
X118691Y311083D01*
X117482Y314002D01*
X115559Y316509D01*
X113052Y318432D01*
X110133Y319641D01*
X107962Y319927D01*
X107245Y320021D01*
X107329Y321291D01*
X111500D01*
X111500Y321291D01*
X112671Y321524D01*
X113663Y322187D01*
X118163Y326687D01*
X118826Y327679D01*
X119059Y328850D01*
Y337850D01*
X119059Y337850D01*
X118826Y339021D01*
X118163Y340013D01*
X113663Y344513D01*
X112671Y345176D01*
X111500Y345409D01*
X102500D01*
X102500Y345409D01*
D02*
G37*
G36*
X200000Y408111D02*
X195491Y407667D01*
X191156Y406352D01*
X187160Y404216D01*
X183658Y401342D01*
X180784Y397840D01*
X178648Y393844D01*
X177333Y389509D01*
X176889Y385000D01*
X177333Y380491D01*
X178648Y376156D01*
X180784Y372160D01*
X183658Y368658D01*
X187160Y365784D01*
X191156Y363648D01*
X195491Y362333D01*
X200000Y361889D01*
X204509Y362333D01*
X208844Y363648D01*
X212840Y365784D01*
X216342Y368658D01*
X219216Y372160D01*
X221352Y376156D01*
X222667Y380491D01*
X223111Y385000D01*
X222667Y389509D01*
X221352Y393844D01*
X219216Y397840D01*
X216342Y401342D01*
X212840Y404216D01*
X208844Y406352D01*
X204509Y407667D01*
X200000Y408111D01*
D02*
G37*
%LPD*%
D10*
X290050Y284360D02*
D03*
Y304360D02*
D03*
D11*
X262300Y80000D02*
Y143050D01*
X290050Y170800D01*
Y284360D01*
X264610Y304360D02*
X290050D01*
X261500Y301250D02*
X264610Y304360D01*
X261500Y282500D02*
Y301250D01*
D12*
X370000Y215000D02*
D03*
Y385000D02*
D03*
X200000D02*
D03*
Y215000D02*
D03*
D13*
X107000Y333350D02*
D03*
D14*
Y307950D02*
D03*
Y282550D02*
D03*
Y257150D02*
D03*
X313100Y80000D02*
D03*
X287700D02*
D03*
X262300D02*
D03*
D15*
X236900D02*
D03*
D16*
X505000Y550000D02*
D03*
X45000D02*
D03*
Y50000D02*
D03*
X505000D02*
D03*
D17*
X261500Y282500D02*
D03*
M02*
