G04 Layer_Physical_Order=2*
G04 Layer_Color=16711680*
%FSLAX44Y44*%
%MOMM*%
G71*
G01*
G75*
%ADD18C,0.6000*%
%ADD19C,1.8000*%
%ADD20C,1.0000*%
%ADD21P,1.9483X8X292.5*%
%ADD22C,1.5240*%
%ADD23C,5.5000*%
%ADD24C,1.2700*%
G04:AMPARAMS|DCode=25|XSize=1.2mm|YSize=0.55mm|CornerRadius=0mm|HoleSize=0mm|Usage=FLASHONLY|Rotation=45.000|XOffset=0mm|YOffset=0mm|HoleType=Round|Shape=Rectangle|*
%AMROTATEDRECTD25*
4,1,4,-0.2298,-0.6187,-0.6187,-0.2298,0.2298,0.6187,0.6187,0.2298,-0.2298,-0.6187,0.0*
%
%ADD25ROTATEDRECTD25*%

G36*
X475109Y495686D02*
X480022Y494196D01*
X484550Y491775D01*
X488518Y488518D01*
X491776Y484550D01*
X494196Y480022D01*
X495686Y475109D01*
X496165Y470248D01*
X496115Y470000D01*
X496115Y30000D01*
X496165Y29752D01*
X495686Y24891D01*
X494196Y19978D01*
X491776Y15450D01*
X488518Y11481D01*
X484550Y8224D01*
X480022Y5804D01*
X475109Y4314D01*
X470248Y3835D01*
X470000Y3885D01*
X30000Y3885D01*
X29752Y3835D01*
X24891Y4314D01*
X19978Y5804D01*
X15450Y8224D01*
X11481Y11481D01*
X8225Y15450D01*
X5804Y19978D01*
X4314Y24891D01*
X3934Y28750D01*
X3885Y30000D01*
X3885Y30000D01*
X3885Y31252D01*
X3885Y470000D01*
X3835Y470248D01*
X4314Y475109D01*
X5804Y480022D01*
X8225Y484550D01*
X11481Y488518D01*
X15450Y491775D01*
X19978Y494196D01*
X24891Y495686D01*
X29752Y496165D01*
X30000Y496115D01*
X470000Y496115D01*
X470248Y496165D01*
X475109Y495686D01*
D02*
G37*
%LPC*%
G36*
X350000Y182625D02*
X346562Y182286D01*
X343255Y181283D01*
X340208Y179655D01*
X337537Y177463D01*
X335345Y174792D01*
X333717Y171745D01*
X332714Y168438D01*
X332375Y165000D01*
X332714Y161562D01*
X333717Y158255D01*
X335345Y155208D01*
X337537Y152537D01*
X340208Y150345D01*
X343255Y148717D01*
X346562Y147714D01*
X350000Y147375D01*
X353438Y147714D01*
X356745Y148717D01*
X359792Y150345D01*
X362463Y152537D01*
X364655Y155208D01*
X366283Y158255D01*
X367286Y161562D01*
X367625Y165000D01*
X367286Y168438D01*
X366283Y171745D01*
X364655Y174792D01*
X362463Y177463D01*
X359792Y179655D01*
X356745Y181283D01*
X353438Y182286D01*
X350000Y182625D01*
D02*
G37*
G36*
X459500Y223540D02*
X456488Y223143D01*
X453680Y221980D01*
X451270Y220130D01*
X449420Y217720D01*
X448257Y214912D01*
X447860Y211900D01*
X448257Y208888D01*
X449420Y206080D01*
X451270Y203670D01*
X453680Y201820D01*
X456488Y200657D01*
X459500Y200261D01*
X462513Y200657D01*
X465320Y201820D01*
X467730Y203670D01*
X469580Y206080D01*
X470743Y208888D01*
X471139Y211900D01*
X470743Y214912D01*
X469580Y217720D01*
X467730Y220130D01*
X465320Y221980D01*
X462513Y223143D01*
X459500Y223540D01*
D02*
G37*
G36*
Y274340D02*
X456488Y273943D01*
X453680Y272780D01*
X451270Y270930D01*
X449420Y268520D01*
X448257Y265713D01*
X447860Y262700D01*
X448257Y259687D01*
X449420Y256880D01*
X451270Y254470D01*
X453680Y252620D01*
X456488Y251457D01*
X459500Y251060D01*
X462513Y251457D01*
X465320Y252620D01*
X467730Y254470D01*
X469580Y256880D01*
X470743Y259687D01*
X471139Y262700D01*
X470743Y265713D01*
X469580Y268520D01*
X467730Y270930D01*
X465320Y272780D01*
X462513Y273943D01*
X459500Y274340D01*
D02*
G37*
G36*
X265395Y107101D02*
X263557Y106859D01*
X261844Y106149D01*
X260374Y105021D01*
X259245Y103550D01*
X258536Y101838D01*
X258294Y100000D01*
X258536Y98162D01*
X259245Y96450D01*
X260374Y94979D01*
X261844Y93851D01*
X263557Y93141D01*
X265395Y92899D01*
X267233Y93141D01*
X268945Y93851D01*
X270416Y94979D01*
X271544Y96450D01*
X272254Y98162D01*
X272495Y100000D01*
X272254Y101838D01*
X271544Y103550D01*
X270416Y105021D01*
X268945Y106149D01*
X267233Y106859D01*
X265395Y107101D01*
D02*
G37*
G36*
X45000Y75133D02*
X40286Y74762D01*
X35688Y73658D01*
X31320Y71849D01*
X27288Y69378D01*
X23693Y66307D01*
X20622Y62712D01*
X18151Y58680D01*
X16342Y54311D01*
X15238Y49714D01*
X14867Y45000D01*
X15238Y40286D01*
X16342Y35688D01*
X18151Y31320D01*
X20622Y27288D01*
X23693Y23693D01*
X27288Y20622D01*
X31320Y18151D01*
X35688Y16342D01*
X40286Y15238D01*
X45000Y14867D01*
X49714Y15238D01*
X54312Y16342D01*
X58680Y18151D01*
X62712Y20622D01*
X66307Y23693D01*
X69378Y27288D01*
X71849Y31320D01*
X73658Y35688D01*
X74762Y40286D01*
X75133Y45000D01*
X74762Y49714D01*
X73658Y54311D01*
X71849Y58680D01*
X69378Y62712D01*
X66307Y66307D01*
X62712Y69378D01*
X58680Y71849D01*
X54312Y73658D01*
X49714Y74762D01*
X45000Y75133D01*
D02*
G37*
G36*
X455000D02*
X450286Y74762D01*
X445689Y73658D01*
X441320Y71849D01*
X437288Y69378D01*
X433693Y66307D01*
X430622Y62712D01*
X428151Y58680D01*
X426342Y54311D01*
X425238Y49714D01*
X424867Y45000D01*
X425238Y40286D01*
X426342Y35688D01*
X428151Y31320D01*
X430622Y27288D01*
X433693Y23693D01*
X437288Y20622D01*
X441320Y18151D01*
X445689Y16342D01*
X450286Y15238D01*
X455000Y14867D01*
X459714Y15238D01*
X464312Y16342D01*
X468680Y18151D01*
X472712Y20622D01*
X476307Y23693D01*
X479378Y27288D01*
X481849Y31320D01*
X483658Y35688D01*
X484762Y40286D01*
X485133Y45000D01*
X484762Y49714D01*
X483658Y54311D01*
X481849Y58680D01*
X479378Y62712D01*
X476307Y66307D01*
X472712Y69378D01*
X468680Y71849D01*
X464312Y73658D01*
X459714Y74762D01*
X455000Y75133D01*
D02*
G37*
G36*
X235395Y107101D02*
X233557Y106859D01*
X231844Y106149D01*
X230374Y105021D01*
X229245Y103550D01*
X228536Y101838D01*
X228294Y100000D01*
X228536Y98162D01*
X229245Y96450D01*
X230374Y94979D01*
X231844Y93851D01*
X233557Y93141D01*
X235395Y92899D01*
X237233Y93141D01*
X238945Y93851D01*
X240416Y94979D01*
X241544Y96450D01*
X242254Y98162D01*
X242496Y100000D01*
X242254Y101838D01*
X241544Y103550D01*
X240416Y105021D01*
X238945Y106149D01*
X237233Y106859D01*
X235395Y107101D01*
D02*
G37*
G36*
X455000Y485133D02*
X450286Y484762D01*
X445689Y483658D01*
X441320Y481849D01*
X437288Y479378D01*
X433693Y476307D01*
X430622Y472712D01*
X428151Y468680D01*
X426342Y464312D01*
X425238Y459714D01*
X424867Y455000D01*
X425238Y450286D01*
X426342Y445688D01*
X428151Y441320D01*
X430622Y437288D01*
X433693Y433693D01*
X437288Y430622D01*
X441320Y428151D01*
X445689Y426342D01*
X450286Y425238D01*
X455000Y424867D01*
X459714Y425238D01*
X464312Y426342D01*
X468680Y428151D01*
X472712Y430622D01*
X476307Y433693D01*
X479378Y437288D01*
X481849Y441320D01*
X483658Y445688D01*
X484762Y450286D01*
X485133Y455000D01*
X484762Y459714D01*
X483658Y464312D01*
X481849Y468680D01*
X479378Y472712D01*
X476307Y476307D01*
X472712Y479378D01*
X468680Y481849D01*
X464312Y483658D01*
X459714Y484762D01*
X455000Y485133D01*
D02*
G37*
G36*
X200000Y483605D02*
X198032Y483346D01*
X196197Y482586D01*
X194622Y481378D01*
X193414Y479803D01*
X192654Y477968D01*
X192395Y476000D01*
X192654Y474032D01*
X193414Y472197D01*
X194622Y470622D01*
X196197Y469414D01*
X198032Y468654D01*
X200000Y468395D01*
X201968Y468654D01*
X203803Y469414D01*
X205378Y470622D01*
X206586Y472197D01*
X207346Y474032D01*
X207605Y476000D01*
X207346Y477968D01*
X206586Y479803D01*
X205378Y481378D01*
X203803Y482586D01*
X201968Y483346D01*
X200000Y483605D01*
D02*
G37*
G36*
X280000D02*
X278032Y483346D01*
X276197Y482586D01*
X274622Y481378D01*
X273414Y479803D01*
X272654Y477968D01*
X272395Y476000D01*
X272654Y474032D01*
X273414Y472197D01*
X274622Y470622D01*
X276197Y469414D01*
X278032Y468654D01*
X280000Y468395D01*
X281968Y468654D01*
X283803Y469414D01*
X285378Y470622D01*
X286586Y472197D01*
X287346Y474032D01*
X287605Y476000D01*
X287346Y477968D01*
X286586Y479803D01*
X285378Y481378D01*
X283803Y482586D01*
X281968Y483346D01*
X280000Y483605D01*
D02*
G37*
G36*
X45000Y485133D02*
X40286Y484762D01*
X35688Y483658D01*
X31320Y481849D01*
X27288Y479378D01*
X23693Y476307D01*
X20622Y472712D01*
X18151Y468680D01*
X16342Y464312D01*
X15238Y459714D01*
X14867Y455000D01*
X15238Y450286D01*
X16342Y445688D01*
X18151Y441320D01*
X20622Y437288D01*
X23693Y433693D01*
X27288Y430622D01*
X31320Y428151D01*
X35688Y426342D01*
X40286Y425238D01*
X45000Y424867D01*
X49714Y425238D01*
X54312Y426342D01*
X58680Y428151D01*
X62712Y430622D01*
X66307Y433693D01*
X69378Y437288D01*
X71849Y441320D01*
X73658Y445688D01*
X74762Y450286D01*
X75133Y455000D01*
X74762Y459714D01*
X73658Y464312D01*
X71849Y468680D01*
X69378Y472712D01*
X66307Y476307D01*
X62712Y479378D01*
X58680Y481849D01*
X54312Y483658D01*
X49714Y484762D01*
X45000Y485133D01*
D02*
G37*
G36*
X459500Y299740D02*
X456488Y299343D01*
X453680Y298180D01*
X451270Y296330D01*
X449420Y293920D01*
X448257Y291112D01*
X447860Y288100D01*
X448257Y285088D01*
X449420Y282280D01*
X451270Y279870D01*
X453680Y278020D01*
X456488Y276857D01*
X459500Y276460D01*
X462513Y276857D01*
X465320Y278020D01*
X467730Y279870D01*
X469580Y282280D01*
X470743Y285088D01*
X471139Y288100D01*
X470743Y291112D01*
X469580Y293920D01*
X467730Y296330D01*
X465320Y298180D01*
X462513Y299343D01*
X459500Y299740D01*
D02*
G37*
G36*
X165000Y367625D02*
X161562Y367286D01*
X158255Y366283D01*
X155208Y364655D01*
X152537Y362463D01*
X150345Y359792D01*
X148717Y356745D01*
X147714Y353438D01*
X147375Y350000D01*
X147714Y346562D01*
X148717Y343255D01*
X150345Y340208D01*
X152537Y337537D01*
X155208Y335345D01*
X158255Y333717D01*
X161562Y332714D01*
X165000Y332375D01*
X168438Y332714D01*
X171745Y333717D01*
X174792Y335345D01*
X177463Y337537D01*
X179655Y340208D01*
X181283Y343255D01*
X182286Y346562D01*
X182625Y350000D01*
X182286Y353438D01*
X181283Y356745D01*
X179655Y359792D01*
X177463Y362463D01*
X174792Y364655D01*
X171745Y366283D01*
X168438Y367286D01*
X165000Y367625D01*
D02*
G37*
G36*
X350000D02*
X346562Y367286D01*
X343255Y366283D01*
X340208Y364655D01*
X337537Y362463D01*
X335345Y359792D01*
X333717Y356745D01*
X332714Y353438D01*
X332375Y350000D01*
X332405Y349697D01*
X331195Y349025D01*
X329820Y350080D01*
X327013Y351243D01*
X324000Y351640D01*
X320988Y351243D01*
X318180Y350080D01*
X315770Y348230D01*
X313920Y345820D01*
X312757Y343013D01*
X312360Y340000D01*
X312757Y336987D01*
X312828Y336816D01*
X298096Y322084D01*
X296871Y320252D01*
X296441Y318090D01*
X296442Y318090D01*
Y309865D01*
X274849Y288272D01*
X273270Y288340D01*
X271413Y289765D01*
X269251Y290661D01*
X266930Y290967D01*
X264609Y290661D01*
X262447Y289765D01*
X260590Y288340D01*
X259165Y286483D01*
X258269Y284321D01*
X257963Y282000D01*
X258267Y279691D01*
X230096Y251519D01*
X229075Y249991D01*
X224311Y245227D01*
X230775Y238763D01*
X229660Y237649D01*
X222340D01*
X210853Y249135D01*
X210967Y250000D01*
X210661Y252321D01*
X209765Y254483D01*
X208340Y256340D01*
X207649Y256871D01*
Y307660D01*
X233135Y333147D01*
X234000Y333033D01*
X236321Y333339D01*
X238483Y334235D01*
X240340Y335660D01*
X241765Y337517D01*
X242661Y339679D01*
X242967Y342000D01*
X242661Y344321D01*
X241765Y346483D01*
X240340Y348340D01*
X238483Y349765D01*
X236321Y350661D01*
X234000Y350967D01*
X231679Y350661D01*
X229517Y349765D01*
X227660Y348340D01*
X226235Y346483D01*
X225339Y344321D01*
X225033Y342000D01*
X225147Y341135D01*
X198006Y313994D01*
X196781Y312162D01*
X196351Y310000D01*
X196352Y310000D01*
Y256871D01*
X195660Y256340D01*
X194235Y254483D01*
X193339Y252321D01*
X193033Y250000D01*
X193339Y247679D01*
X194235Y245517D01*
X195660Y243660D01*
X197517Y242235D01*
X199679Y241339D01*
X202000Y241033D01*
X202865Y241147D01*
X214352Y229660D01*
Y222000D01*
X214351Y222000D01*
X214352Y222000D01*
Y214340D01*
X193660Y193648D01*
X190151D01*
X190080Y193820D01*
X188230Y196230D01*
X185820Y198080D01*
X185648Y198151D01*
Y211300D01*
X185648Y211300D01*
X185219Y213462D01*
X183994Y215294D01*
X183994Y215294D01*
X132594Y266694D01*
X130762Y267918D01*
X128600Y268349D01*
X128600Y268349D01*
X80151D01*
X80080Y268520D01*
X78230Y270930D01*
X75820Y272780D01*
X73013Y273943D01*
X70000Y274340D01*
X66988Y273943D01*
X64180Y272780D01*
X61770Y270930D01*
X61010Y269940D01*
X59740Y270372D01*
Y279391D01*
X60913Y279877D01*
X64230Y276560D01*
X75770D01*
X81540Y282330D01*
Y293870D01*
X75770Y299640D01*
X64230D01*
X58460Y293870D01*
Y285040D01*
X34660D01*
Y214960D01*
X57482D01*
X58596Y213690D01*
X58361Y211900D01*
X58757Y208888D01*
X59920Y206080D01*
X61770Y203670D01*
X64180Y201820D01*
X66988Y200657D01*
X70000Y200261D01*
X73013Y200657D01*
X75820Y201820D01*
X78230Y203670D01*
X80080Y206080D01*
X81243Y208888D01*
X81640Y211900D01*
X81243Y214912D01*
X80080Y217720D01*
X78230Y220130D01*
X75820Y221980D01*
X73013Y223143D01*
X70000Y223540D01*
X66988Y223143D01*
X64180Y221980D01*
X61770Y220130D01*
X61010Y219140D01*
X59740Y219572D01*
Y229628D01*
X61010Y230060D01*
X61770Y229070D01*
X64180Y227220D01*
X66988Y226057D01*
X70000Y225660D01*
X73013Y226057D01*
X75820Y227220D01*
X78230Y229070D01*
X80080Y231480D01*
X81243Y234287D01*
X81640Y237300D01*
X81243Y240313D01*
X80080Y243120D01*
X78230Y245530D01*
X75820Y247380D01*
X73013Y248543D01*
X70000Y248940D01*
X66988Y248543D01*
X64180Y247380D01*
X61770Y245530D01*
X61010Y244541D01*
X59740Y244972D01*
Y255028D01*
X61010Y255459D01*
X61770Y254470D01*
X64180Y252620D01*
X66988Y251457D01*
X70000Y251060D01*
X73013Y251457D01*
X75820Y252620D01*
X78230Y254470D01*
X80080Y256880D01*
X80151Y257052D01*
X126260D01*
X174352Y208960D01*
Y198151D01*
X174180Y198080D01*
X171770Y196230D01*
X169920Y193820D01*
X168757Y191012D01*
X168360Y188000D01*
X168757Y184988D01*
X169454Y183305D01*
X168510Y182264D01*
X168438Y182286D01*
X165000Y182625D01*
X161562Y182286D01*
X158255Y181283D01*
X155208Y179655D01*
X152537Y177463D01*
X150345Y174792D01*
X148717Y171745D01*
X147714Y168438D01*
X147375Y165000D01*
X147714Y161562D01*
X148717Y158255D01*
X150345Y155208D01*
X152537Y152537D01*
X155208Y150345D01*
X158255Y148717D01*
X161562Y147714D01*
X165000Y147375D01*
X168438Y147714D01*
X171745Y148717D01*
X174792Y150345D01*
X177463Y152537D01*
X179655Y155208D01*
X181283Y158255D01*
X182286Y161562D01*
X182625Y165000D01*
X182286Y168438D01*
X181283Y171745D01*
X179655Y174792D01*
X179266Y175266D01*
X179883Y176376D01*
X180000Y176360D01*
X183013Y176757D01*
X185820Y177920D01*
X188230Y179770D01*
X190080Y182180D01*
X190151Y182351D01*
X196000D01*
X196000Y182351D01*
X198162Y182781D01*
X199994Y184006D01*
X223994Y208006D01*
X223994Y208006D01*
X225219Y209838D01*
X225648Y212000D01*
X225648Y212000D01*
Y222000D01*
X225648Y222000D01*
Y226352D01*
X232000D01*
X232000Y226351D01*
X234162Y226781D01*
X235994Y228006D01*
X238763Y230775D01*
X245227Y224311D01*
X249358Y228442D01*
X267493D01*
X277819Y218116D01*
X277819Y218116D01*
X279651Y216891D01*
X281813Y216461D01*
X281813Y216462D01*
X320925D01*
X320925Y216461D01*
X323087Y216891D01*
X324919Y218116D01*
X338455Y231651D01*
X449349D01*
X449420Y231480D01*
X451270Y229070D01*
X453680Y227220D01*
X456488Y226057D01*
X459500Y225660D01*
X462513Y226057D01*
X465320Y227220D01*
X467730Y229070D01*
X469580Y231480D01*
X470743Y234287D01*
X471139Y237300D01*
X470743Y240313D01*
X469580Y243120D01*
X467730Y245530D01*
X465320Y247380D01*
X462513Y248543D01*
X459500Y248940D01*
X456488Y248543D01*
X453680Y247380D01*
X451270Y245530D01*
X449420Y243120D01*
X449349Y242949D01*
X336115D01*
X333953Y242519D01*
X332121Y241294D01*
X332121Y241294D01*
X325966Y235139D01*
X324763Y235547D01*
X324661Y236321D01*
X323765Y238483D01*
X322340Y240340D01*
X320483Y241765D01*
X318321Y242661D01*
X316000Y242967D01*
X313679Y242661D01*
X311517Y241765D01*
X309660Y240340D01*
X309129Y239648D01*
X284340D01*
X267649Y256340D01*
Y256385D01*
X267649Y256385D01*
X267219Y258546D01*
X266742Y259260D01*
X268972Y261490D01*
X262508Y267955D01*
X267686Y273133D01*
X269251Y273339D01*
X271413Y274235D01*
X273270Y275660D01*
X273801Y276352D01*
X276565D01*
X276565Y276351D01*
X278727Y276781D01*
X280559Y278006D01*
X306084Y303531D01*
X307309Y305364D01*
X307739Y307525D01*
X307739Y307525D01*
Y315750D01*
X320816Y328828D01*
X320988Y328757D01*
X324000Y328360D01*
X327013Y328757D01*
X329820Y329920D01*
X332230Y331770D01*
X334080Y334180D01*
X335243Y336987D01*
X335414Y338288D01*
X336635Y338637D01*
X337537Y337537D01*
X340208Y335345D01*
X343255Y333717D01*
X346562Y332714D01*
X350000Y332375D01*
X353438Y332714D01*
X356745Y333717D01*
X359792Y335345D01*
X362463Y337537D01*
X364655Y340208D01*
X366283Y343255D01*
X367286Y346562D01*
X367625Y350000D01*
X367286Y353438D01*
X366283Y356745D01*
X364655Y359792D01*
X362463Y362463D01*
X359792Y364655D01*
X356745Y366283D01*
X353438Y367286D01*
X350000Y367625D01*
D02*
G37*
%LPD*%
D18*
X336115Y237300D02*
X459500D01*
X320925Y222110D02*
X336115Y237300D01*
X281813Y222110D02*
X320925D01*
X269833Y234090D02*
X281813Y222110D01*
X247525Y234090D02*
X269833D01*
X266930Y280365D02*
Y282000D01*
X234090Y247525D02*
X266930Y280365D01*
X232000Y232000D02*
X259192Y259192D01*
X262000Y256385D01*
Y254000D02*
Y256385D01*
X220000Y222000D02*
Y232000D01*
X232000D01*
X220000D02*
X220000D01*
X202000Y250000D02*
X220000Y232000D01*
Y222000D02*
X220000Y222000D01*
X220000Y212000D02*
Y222000D01*
X196000Y188000D02*
X220000Y212000D01*
X202000Y250000D02*
Y310000D01*
X262000Y254000D02*
X282000Y234000D01*
X316000D01*
X202000Y310000D02*
X234000Y342000D01*
X276565Y282000D02*
X302090Y307525D01*
X266930Y282000D02*
X276565D01*
X180000Y188000D02*
X196000D01*
X302090Y318090D02*
X324000Y340000D01*
X302090Y307525D02*
Y318090D01*
X180000Y188000D02*
Y211300D01*
X128600Y262700D02*
X180000Y211300D01*
X70000Y262700D02*
X128600D01*
D19*
X180000Y188000D02*
D03*
X324000Y340000D02*
D03*
X459500Y288100D02*
D03*
Y211900D02*
D03*
Y237300D02*
D03*
Y262700D02*
D03*
X70000D02*
D03*
Y237300D02*
D03*
Y211900D02*
D03*
D20*
X200000Y476000D02*
D03*
X280000D02*
D03*
D21*
X70000Y288100D02*
D03*
D22*
X350000Y165000D02*
D03*
X165000Y350000D02*
D03*
X350000D02*
D03*
X165000Y165000D02*
D03*
D23*
X45000Y455000D02*
D03*
X455000D02*
D03*
X45000Y45000D02*
D03*
X455000D02*
D03*
D24*
X202000Y250000D02*
D03*
X316000Y234000D02*
D03*
X266930Y282000D02*
D03*
X234000Y342000D02*
D03*
D25*
X247525Y234090D02*
D03*
X234090Y247525D02*
D03*
X259192Y259192D02*
D03*
M02*
