G04 Layer_Color=8388736*
%FSLAX44Y44*%
%MOMM*%
G71*
G01*
G75*
%ADD26R,1.4532X1.2032*%
%ADD27R,1.0532X1.0532*%
%ADD28R,1.1032X1.0032*%
%ADD29R,1.4532X1.1032*%
G04:AMPARAMS|DCode=30|XSize=0.2032mm|YSize=0.2032mm|CornerRadius=0mm|HoleSize=0mm|Usage=FLASHONLY|Rotation=0.000|XOffset=0mm|YOffset=0mm|HoleType=Round|Shape=RoundedRectangle|*
%AMROUNDEDRECTD30*
21,1,0.2032,0.2032,0,0,0.0*
21,1,0.2032,0.2032,0,0,0.0*
1,1,0.0000,0.1016,-0.1016*
1,1,0.0000,-0.1016,-0.1016*
1,1,0.0000,-0.1016,0.1016*
1,1,0.0000,0.1016,0.1016*
%
%ADD30ROUNDEDRECTD30*%
%ADD31P,2.1683X8X22.5*%
%ADD32C,2.0032*%
%ADD33C,0.2032*%
%ADD34P,2.1683X8X292.5*%
%ADD35C,4.2032*%
%ADD36C,6.2032*%
%ADD37C,0.9032*%
D26*
X290050Y304360D02*
D03*
Y284360D02*
D03*
D27*
X291160Y255470D02*
D03*
Y241470D02*
D03*
D28*
X82480Y479350D02*
D03*
X62480D02*
D03*
X82480Y402350D02*
D03*
X62480D02*
D03*
D29*
X94230Y418850D02*
D03*
Y433850D02*
D03*
Y466850D02*
D03*
D30*
X275000Y57200D02*
D03*
D31*
X236900Y80000D02*
D03*
D32*
X262300D02*
D03*
X287700D02*
D03*
X313100D02*
D03*
X504500Y156470D02*
D03*
Y131070D02*
D03*
Y105670D02*
D03*
Y181870D02*
D03*
Y312720D02*
D03*
Y287320D02*
D03*
Y261920D02*
D03*
Y338120D02*
D03*
X107000Y257150D02*
D03*
Y282550D02*
D03*
Y307950D02*
D03*
X504500Y468920D02*
D03*
Y443520D02*
D03*
Y418120D02*
D03*
Y494320D02*
D03*
D33*
X72480Y455850D02*
D03*
Y425850D02*
D03*
D34*
X107000Y333350D02*
D03*
D35*
X335000Y125000D02*
D03*
X215000D02*
D03*
X335000Y495000D02*
D03*
X215000D02*
D03*
D36*
X505000Y50000D02*
D03*
X45000D02*
D03*
Y550000D02*
D03*
X505000D02*
D03*
D37*
X145000Y328000D02*
D03*
M02*
