G04 Layer_Color=16711935*
%FSLAX44Y44*%
%MOMM*%
G71*
G01*
G75*
%ADD17C,0.2540*%
D17*
X220000Y475000D02*
G03*
X222300Y480000I-1350J3650D01*
G01*
X107893Y480000D02*
G03*
X115000Y475000I6740J2029D01*
G01*
X97238Y505000D02*
G03*
X87238Y515000I-10000J0D01*
G01*
X23000Y-0D02*
G03*
X30107Y5000I368J7029D01*
G01*
X40000Y20000D02*
G03*
X30000Y10000I0J-10000D01*
G01*
X-30000Y11000D02*
G03*
X-40000Y21000I-10000J0D01*
G01*
X-30108Y5000D02*
G03*
X-23000Y-0I6740J2029D01*
G01*
X-88022Y515000D02*
G03*
X-98022Y505000I0J-10000D01*
G01*
X-39895Y505000D02*
G03*
X-49895Y515000I-10000J0D01*
G01*
X-115000Y475000D02*
G03*
X-107893Y480000I368J7029D01*
G01*
X-222300Y480000D02*
G03*
X-220000Y475000I3650J-1350D01*
G01*
X-155000Y600000D02*
G03*
X-160000Y595000I2500J-7500D01*
G01*
X160000D02*
G03*
X155000Y600000I-7500J-2500D01*
G01*
X49911Y515170D02*
G03*
X39911Y505170I0J-10000D01*
G01*
X-40109Y21000D02*
X-39895Y505000D01*
X39895Y505170D02*
X40110Y20000D01*
X115000Y475000D02*
X220000Y475000D01*
X97238Y505000D02*
X107893Y480000D01*
X49910Y515084D02*
X87238Y515002D01*
X-30108Y5000D02*
X-30043Y11000D01*
X-88022Y515000D02*
X-49895Y515084D01*
X-220000Y475000D02*
X-115000Y475000D01*
X-23000Y0D02*
X23000D01*
X-222300Y480000D02*
X-160000Y595000D01*
X160000D02*
X222300Y480000D01*
X-155000Y600000D02*
X155000D01*
X30000Y10000D02*
X30107Y5000D01*
X-107893Y480000D02*
X-98000Y505000D01*
M02*
