G04 Layer_Physical_Order=1*
G04 Layer_Color=255*
%FSLAX44Y44*%
%MOMM*%
G71*
G01*
G75*
%ADD10R,0.8500X0.8500*%
%ADD11R,1.0000X1.2500*%
%ADD12C,0.6000*%
%ADD13C,1.8000*%
%ADD14R,2.0000X2.0000*%
%ADD15C,2.0000*%
%ADD16C,0.7000*%
G36*
X41565Y516122D02*
X40090Y514991D01*
X37883Y512114D01*
X36495Y508764D01*
X36022Y505170D01*
X36049D01*
X36051Y505168D01*
X36264Y23357D01*
X33056Y22028D01*
X30179Y19821D01*
X27972Y16944D01*
X26584Y13595D01*
X26111Y10000D01*
X26111D01*
X26182Y8759D01*
X26248Y5685D01*
X25633Y4764D01*
X24594Y4070D01*
X24387Y4029D01*
X23240Y3864D01*
X23904Y3961D01*
X23179Y3859D01*
X21939Y3844D01*
X21765Y3844D01*
X-21765D01*
X-21939Y3844D01*
X-23179Y3859D01*
X-23904Y3961D01*
X-23240Y3864D01*
X-24387Y4029D01*
X-24594Y4070D01*
X-25633Y4764D01*
X-26256Y5697D01*
X-26201Y10773D01*
X-26156Y11000D01*
X-26111D01*
X-26584Y14595D01*
X-27972Y17944D01*
X-30179Y20821D01*
X-33056Y23028D01*
X-36264Y24357D01*
X-36051Y504998D01*
X-36006Y505000D01*
X-36479Y508595D01*
X-37867Y511944D01*
X-40074Y514821D01*
X-41770Y516122D01*
X-41339Y517392D01*
X-18308D01*
Y153125D01*
X-18500Y153045D01*
X-20902Y151202D01*
X-22745Y148800D01*
X-23904Y146002D01*
X-24299Y143000D01*
X-23904Y139998D01*
X-22745Y137200D01*
X-20902Y134798D01*
X-18500Y132955D01*
X-15702Y131796D01*
X-12700Y131401D01*
X-9698Y131796D01*
X-6900Y132955D01*
X-4498Y134798D01*
X-2655Y137200D01*
X-1496Y139998D01*
X-1101Y143000D01*
X-1496Y146002D01*
X-2655Y148800D01*
X-4498Y151202D01*
X-6900Y153045D01*
X-7092Y153125D01*
Y517392D01*
X41133D01*
X41565Y516122D01*
D02*
G37*
G36*
X155390Y595390D02*
X156276Y594064D01*
X156333Y593778D01*
X156333Y593778D01*
X156447Y593535D01*
X156449Y593529D01*
X156454Y593521D01*
X156620Y593169D01*
X217964Y479935D01*
X217314Y478844D01*
X116235Y478844D01*
X116060Y478844D01*
X114822Y478859D01*
X114096Y478961D01*
X114760Y478864D01*
X113613Y479029D01*
X113406Y479070D01*
X112367Y479764D01*
X111673Y480803D01*
X111610Y481119D01*
X111610Y481119D01*
X111429Y481507D01*
X100998Y505983D01*
X100654Y508595D01*
X99266Y511944D01*
X97059Y514821D01*
X95363Y516122D01*
X95794Y517392D01*
X152177D01*
X154392Y515177D01*
Y506207D01*
X153696Y505919D01*
X151085Y503915D01*
X149081Y501304D01*
X147952Y498577D01*
X147950Y498577D01*
X146650D01*
X146648Y498577D01*
X145519Y501304D01*
X143515Y503915D01*
X140904Y505919D01*
X137863Y507178D01*
X134600Y507608D01*
X131337Y507178D01*
X128296Y505919D01*
X125685Y503915D01*
X123681Y501304D01*
X122422Y498263D01*
X121992Y495000D01*
X122422Y491737D01*
X123681Y488696D01*
X125685Y486085D01*
X128296Y484081D01*
X131337Y482822D01*
X134600Y482392D01*
X137863Y482822D01*
X140904Y484081D01*
X143515Y486085D01*
X145519Y488696D01*
X146648Y491423D01*
X146650Y491423D01*
X147950D01*
X147952Y491423D01*
X149081Y488696D01*
X151085Y486085D01*
X153696Y484081D01*
X156737Y482822D01*
X160000Y482392D01*
X163263Y482822D01*
X166304Y484081D01*
X168915Y486085D01*
X170919Y488696D01*
X171581Y490295D01*
X172851Y490042D01*
Y485000D01*
X173045Y484025D01*
X173598Y483198D01*
X174425Y482645D01*
X175400Y482451D01*
X195400D01*
X196376Y482645D01*
X197202Y483198D01*
X197755Y484025D01*
X197949Y485000D01*
Y505000D01*
X197755Y505975D01*
X197202Y506802D01*
X196376Y507355D01*
X195400Y507549D01*
X175400D01*
X174425Y507355D01*
X173598Y506802D01*
X173045Y505975D01*
X172851Y505000D01*
Y499958D01*
X171581Y499705D01*
X170919Y501304D01*
X168915Y503915D01*
X166304Y505919D01*
X165608Y506207D01*
Y517500D01*
X165181Y519646D01*
X163965Y521465D01*
X158465Y526965D01*
X156646Y528181D01*
X154500Y528608D01*
X-153651D01*
X-153948Y529052D01*
X-154149Y529187D01*
X-154228Y530473D01*
X-153320Y531392D01*
X-78000D01*
X-75854Y531819D01*
X-74035Y533035D01*
X-57677Y549392D01*
X-52407D01*
X-52341Y549348D01*
X-50000Y548882D01*
X-47659Y549348D01*
X-47593Y549392D01*
X-17549D01*
Y548750D01*
X-17355Y547775D01*
X-16802Y546948D01*
X-15975Y546395D01*
X-15000Y546201D01*
X-5000D01*
X-4025Y546395D01*
X-3198Y546948D01*
X-2645Y547775D01*
X-2451Y548750D01*
Y561250D01*
X-2645Y562225D01*
X-3198Y563052D01*
X-4025Y563605D01*
X-5000Y563799D01*
X-15000D01*
X-15975Y563605D01*
X-16802Y563052D01*
X-17355Y562225D01*
X-17549Y561250D01*
Y560608D01*
X-47593D01*
X-47659Y560652D01*
X-50000Y561118D01*
X-52341Y560652D01*
X-52407Y560608D01*
X-60000D01*
X-62146Y560181D01*
X-63965Y558965D01*
X-80323Y542608D01*
X-153651D01*
X-153948Y543052D01*
X-154775Y543605D01*
X-155750Y543799D01*
X-164250D01*
X-165226Y543605D01*
X-166052Y543052D01*
X-166605Y542225D01*
X-166799Y541250D01*
Y532750D01*
X-166605Y531775D01*
X-166052Y530948D01*
X-165694Y530708D01*
Y529292D01*
X-166052Y529052D01*
X-166605Y528225D01*
X-166799Y527250D01*
Y518750D01*
X-166605Y517775D01*
X-166052Y516948D01*
X-165608Y516651D01*
Y506207D01*
X-166304Y505919D01*
X-168915Y503915D01*
X-170919Y501304D01*
X-172048Y498577D01*
X-172050Y498577D01*
X-173350D01*
X-173352Y498577D01*
X-174481Y501304D01*
X-176485Y503915D01*
X-179096Y505919D01*
X-182137Y507178D01*
X-185400Y507608D01*
X-188663Y507178D01*
X-191704Y505919D01*
X-194315Y503915D01*
X-196319Y501304D01*
X-197578Y498263D01*
X-198008Y495000D01*
X-197578Y491737D01*
X-196319Y488696D01*
X-194315Y486085D01*
X-191704Y484081D01*
X-188663Y482822D01*
X-185400Y482392D01*
X-182137Y482822D01*
X-179096Y484081D01*
X-176485Y486085D01*
X-174481Y488696D01*
X-173352Y491423D01*
X-173350Y491423D01*
X-172050D01*
X-172048Y491423D01*
X-170919Y488696D01*
X-168915Y486085D01*
X-166304Y484081D01*
X-163263Y482822D01*
X-160000Y482392D01*
X-156737Y482822D01*
X-153696Y484081D01*
X-151085Y486085D01*
X-149081Y488696D01*
X-148419Y490295D01*
X-147149Y490042D01*
Y485000D01*
X-146955Y484025D01*
X-146402Y483198D01*
X-145576Y482645D01*
X-144600Y482451D01*
X-124600D01*
X-123625Y482645D01*
X-122798Y483198D01*
X-122245Y484025D01*
X-122051Y485000D01*
Y505000D01*
X-122245Y505975D01*
X-122798Y506802D01*
X-123625Y507355D01*
X-124600Y507549D01*
X-144600D01*
X-145576Y507355D01*
X-146402Y506802D01*
X-146955Y505975D01*
X-147149Y505000D01*
Y499958D01*
X-148419Y499705D01*
X-149081Y501304D01*
X-151085Y503915D01*
X-153696Y505919D01*
X-154392Y506207D01*
Y516651D01*
X-153948Y516948D01*
X-153651Y517392D01*
X-96578D01*
X-96147Y516122D01*
X-97843Y514821D01*
X-100050Y511944D01*
X-101438Y508595D01*
X-101800Y505844D01*
X-111012Y482562D01*
X-111137Y482248D01*
X-111606Y481128D01*
X-111687Y480975D01*
X-111612Y481115D01*
X-112153Y480092D01*
X-111687Y480975D01*
X-112199Y480015D01*
X-112367Y479764D01*
X-113406Y479070D01*
X-113613Y479029D01*
X-114760Y478864D01*
X-114096Y478961D01*
X-113613Y479029D01*
X-113574Y479036D01*
X-114096Y478961D01*
X-114822Y478859D01*
X-116061Y478844D01*
X-116235Y478844D01*
X-217314Y478844D01*
X-217964Y479935D01*
X-156877Y592696D01*
X-156620Y593169D01*
X-156454Y593521D01*
X-156449Y593529D01*
X-156333Y593778D01*
X-155761Y594835D01*
X-155390Y595390D01*
X-154244Y596156D01*
X154244D01*
X155390Y595390D01*
D02*
G37*
%LPC*%
G36*
X-24426Y4036D02*
X-24387Y4029D01*
X-23904Y3961D01*
X-24426Y4036D01*
D02*
G37*
G36*
X24426D02*
X23904Y3961D01*
X24387Y4029D01*
X24426Y4036D01*
D02*
G37*
G36*
X12700Y154599D02*
X9698Y154204D01*
X6900Y153045D01*
X4498Y151202D01*
X2655Y148800D01*
X1496Y146002D01*
X1101Y143000D01*
X1496Y139998D01*
X2655Y137200D01*
X4498Y134798D01*
X6900Y132955D01*
X9698Y131796D01*
X12700Y131401D01*
X15702Y131796D01*
X18500Y132955D01*
X20902Y134798D01*
X22745Y137200D01*
X23904Y139998D01*
X24299Y143000D01*
X23904Y146002D01*
X22745Y148800D01*
X20902Y151202D01*
X18500Y153045D01*
X15702Y154204D01*
X12700Y154599D01*
D02*
G37*
G36*
X15000Y563799D02*
X5000D01*
X4025Y563605D01*
X3198Y563052D01*
X2645Y562225D01*
X2451Y561250D01*
Y548750D01*
X2645Y547775D01*
X3198Y546948D01*
X4025Y546395D01*
X5000Y546201D01*
X15000D01*
X15975Y546395D01*
X16802Y546948D01*
X17355Y547775D01*
X17549Y548750D01*
Y561250D01*
X17355Y562225D01*
X16802Y563052D01*
X15975Y563605D01*
X15000Y563799D01*
D02*
G37*
G36*
X113574Y479036D02*
X113613Y479029D01*
X114096Y478961D01*
X113574Y479036D01*
D02*
G37*
%LPD*%
D10*
X-160000Y537000D02*
D03*
Y523000D02*
D03*
D11*
X10000Y555000D02*
D03*
X-10000D02*
D03*
D12*
X-12500Y523000D02*
X154500D01*
X-160000D02*
X-12500D01*
X-12700Y522800D02*
X-12500Y523000D01*
X160000Y495000D02*
Y517500D01*
X154500Y523000D02*
X160000Y517500D01*
X-50000Y555000D02*
X-10000D01*
X-60000D02*
X-50000D01*
X-78000Y537000D02*
X-60000Y555000D01*
X-160000Y537000D02*
X-78000D01*
X-160000Y495000D02*
Y523000D01*
X-12700Y143000D02*
Y522800D01*
D13*
X12700Y143000D02*
D03*
X-12700D02*
D03*
D14*
X185400Y495000D02*
D03*
X-134600D02*
D03*
D15*
X160000D02*
D03*
X134600D02*
D03*
X-160000D02*
D03*
X-185400D02*
D03*
D16*
X-50000Y555000D02*
D03*
M02*
