M48
;Layer_Color=9474304
;FILE_FORMAT=4:4
METRIC,LZ
;TYPE=PLATED
T1F00S00C1.1000
T3F00S00C3.0000
T4F00S00C4.8000
;TYPE=NON_PLATED
T5F00S00C0.9000
%
T01
X002369Y0008
X002623
X002877
X003131
X005045Y0010567
Y0013107
X00107Y0025715
Y0028255
Y0030795
Y0033335
X005045Y0033812
Y0031272
Y0028732
Y0026192
Y0018187
Y0015647
Y0041812
Y0044352
Y0046892
Y0049432
T03
X00385Y0014
X00165
Y0046
X00385
T04
X00505Y0005
X00045
X00505Y0055
X00045
T05
X0007248Y0042585
Y0045585
M30
