G04*
G04 #@! TF.GenerationSoftware,Altium Limited,Altium Designer,18.1.7 (191)*
G04*
G04 Layer_Color=16711935*
%FSLAX44Y44*%
%MOMM*%
G71*
G01*
G75*
%ADD26C,0.2540*%
D26*
X60000Y160000D02*
G03*
X40000Y180000I-20000J-0D01*
G01*
X-40000D02*
G03*
X-60000Y160000I0J-20000D01*
G01*
Y40000D02*
G03*
X-40000Y20000I20000J0D01*
G01*
X40000Y20000D02*
G03*
X60000Y40000I0J20000D01*
G01*
X23000Y0D02*
G03*
X30107Y5000I368J7029D01*
G01*
X-30108D02*
G03*
X-23000Y0I6740J2029D01*
G01*
X40000Y20000D02*
G03*
X30000Y10000I0J-10000D01*
G01*
X-30000D02*
G03*
X-40000Y20000I-10000J0D01*
G01*
X-90000Y500085D02*
G03*
X-100000Y490085I0J-10000D01*
G01*
Y390085D02*
G03*
X-90000Y380085I10000J0D01*
G01*
X-70000Y380085D02*
G03*
X-60000Y390085I-0J10000D01*
G01*
X60000Y390000D02*
G03*
X70000Y380000I10000J-0D01*
G01*
X90000Y380000D02*
G03*
X100000Y390000I0J10000D01*
G01*
Y490000D02*
G03*
X90000Y500000I-10000J-0D01*
G01*
X39851Y440000D02*
X40000Y180000D01*
X-40000D02*
X-39642Y395162D01*
X-60000Y40000D02*
Y160000D01*
X60000D02*
X60000Y40000D01*
X30000Y10000D02*
X30107Y5000D01*
X-23000Y0D02*
X23000D01*
X-30108Y5000D02*
X-30000Y10000D01*
X-39917Y440000D02*
X-39642Y395162D01*
X-90000Y500085D02*
X90000Y500000D01*
X-100000Y390085D02*
Y490085D01*
X-90000Y380085D02*
X-70000Y380085D01*
X-60000Y390085D02*
X-60000Y405085D01*
X60000Y405000D02*
X60000Y390000D01*
X70000Y380000D02*
X90000Y380000D01*
X100000Y390000D02*
Y490000D01*
X39851Y440000D02*
X60000D01*
X60000Y405000D02*
X60000Y440000D01*
X-60000D02*
X-39917D01*
X-60000Y405085D02*
X-60000Y440000D01*
M02*
