G04 Layer_Color=16711935*
%FSLAX44Y44*%
%MOMM*%
G71*
G01*
G75*
%ADD50C,0.2540*%
%ADD51C,0.2000*%
D50*
X620000Y630000D02*
G03*
X610000Y620000I0J-10000D01*
G01*
X1150000D02*
G03*
X1140000Y630000I-10000J0D01*
G01*
X610000Y60000D02*
G03*
X620000Y50000I10000J0D01*
G01*
X1140000D02*
G03*
X1150000Y60000I0J10000D01*
G01*
X580000Y50000D02*
G03*
X590000Y60000I0J10000D01*
G01*
X50000D02*
G03*
X60000Y50000I10000J0D01*
G01*
X590000Y620000D02*
G03*
X580000Y630000I-10000J0D01*
G01*
X60000D02*
G03*
X50000Y620000I0J-10000D01*
G01*
X610000Y660000D02*
G03*
X620000Y650000I10000J0D01*
G01*
X1140000D02*
G03*
X1150000Y660000I0J10000D01*
G01*
Y1220000D02*
G03*
X1140000Y1230000I-10000J-0D01*
G01*
X620000D02*
G03*
X610000Y1220000I0J-10000D01*
G01*
X1530000Y1330000D02*
G03*
X1510000Y1350000I-20000J0D01*
G01*
X1410000D02*
G03*
X1390000Y1330000I0J-20000D01*
G01*
X1510000Y1090000D02*
G03*
X1530000Y1110000I0J20000D01*
G01*
X1390000D02*
G03*
X1410000Y1090000I20000J0D01*
G01*
X1390000Y1390000D02*
G03*
X1410000Y1370000I20000J0D01*
G01*
X1510000D02*
G03*
X1530000Y1390000I0J20000D01*
G01*
X1410000Y1630000D02*
G03*
X1390000Y1610000I0J-20000D01*
G01*
X1530000D02*
G03*
X1510000Y1630000I-20000J0D01*
G01*
X1170000Y1100000D02*
G03*
X1180000Y1090000I10000J0D01*
G01*
Y1210000D02*
G03*
X1170000Y1200000I0J-10000D01*
G01*
X1210000Y1200000D02*
G03*
X1200000Y1210000I-10000J0D01*
G01*
X1340000Y1209915D02*
G03*
X1330000Y1199915I0J-10000D01*
G01*
X1370000Y1199915D02*
G03*
X1360000Y1209915I-10000J-0D01*
G01*
Y1089915D02*
G03*
X1370000Y1099915I0J10000D01*
G01*
X1300000Y1580000D02*
G03*
X1310000Y1570000I10000J0D01*
G01*
X1230000D02*
G03*
X1240000Y1580000I0J10000D01*
G01*
X1300108Y1585000D02*
G03*
X1293000Y1590000I-6740J-2029D01*
G01*
X1247000D02*
G03*
X1239893Y1585000I-368J-7029D01*
G01*
X1230000Y1570000D02*
G03*
X1210000Y1550000I0J-20000D01*
G01*
X1330000D02*
G03*
X1310000Y1570000I-20000J-0D01*
G01*
X1310000Y1410000D02*
G03*
X1330000Y1430000I0J20000D01*
G01*
X1210000D02*
G03*
X1230000Y1410000I20000J0D01*
G01*
X1570000Y1640000D02*
G03*
X1550000Y1620000I0J-20000D01*
G01*
X1620000Y1620000D02*
G03*
X1600000Y1640000I-20000J0D01*
G01*
Y1380000D02*
G03*
X1620000Y1400000I-0J20000D01*
G01*
X1550000Y1400000D02*
G03*
X1570000Y1380000I20000J-0D01*
G01*
Y1350000D02*
G03*
X1550000Y1330000I0J-20000D01*
G01*
X1620000Y1330000D02*
G03*
X1600000Y1350000I-20000J0D01*
G01*
Y1090000D02*
G03*
X1620000Y1110000I-0J20000D01*
G01*
X1550000Y1110000D02*
G03*
X1570000Y1090000I20000J-0D01*
G01*
X609915Y1260000D02*
G03*
X619915Y1250000I10000J0D01*
G01*
X719915D02*
G03*
X729915Y1260000I-0J10000D01*
G01*
X729915Y1280000D02*
G03*
X719915Y1290000I-10000J-0D01*
G01*
X695111Y1300000D02*
G03*
X704915Y1290000I9902J-99D01*
G01*
X705000Y1510000D02*
G03*
X695197Y1500000I99J-9902D01*
G01*
X720000Y1510000D02*
G03*
X730000Y1520000I0J10000D01*
G01*
X730000Y1540000D02*
G03*
X720000Y1550000I-10000J0D01*
G01*
X620000D02*
G03*
X610000Y1540000I0J-10000D01*
G01*
X705000Y1360215D02*
G03*
X695000Y1350215I0J-10000D01*
G01*
Y1449785D02*
G03*
X705000Y1439785I10000J0D01*
G01*
X1100000Y1370000D02*
G03*
X1090000Y1360000I0J-10000D01*
G01*
Y1440000D02*
G03*
X1100000Y1430000I10000J0D01*
G01*
X1105000Y1369892D02*
G03*
X1110000Y1377000I-2029J6740D01*
G01*
Y1423000D02*
G03*
X1105000Y1430107I-7029J368D01*
G01*
X1090000Y1440000D02*
G03*
X1070000Y1460000I-20000J0D01*
G01*
Y1340000D02*
G03*
X1090000Y1360000I-0J20000D01*
G01*
X930000Y1360000D02*
G03*
X950000Y1340000I20000J0D01*
G01*
Y1460000D02*
G03*
X930000Y1440000I0J-20000D01*
G01*
X900000Y630000D02*
X1140000Y630000D01*
X1150000Y350000D02*
X1150000Y620000D01*
X1150000Y305000D02*
X1150000Y60000D01*
X930000Y50000D02*
X1140000D01*
X620000D02*
X885000D01*
X610000Y305000D02*
X610000Y60000D01*
X610000Y350000D02*
X610000Y620000D01*
X620000Y630000D02*
X855000Y630000D01*
X0Y0D02*
Y1720000D01*
Y0D02*
X1075000D01*
X0Y1720000D02*
X1720000D01*
X1075000Y0D02*
X1720000D01*
Y1720000D01*
X60000Y50000D02*
X295000D01*
X50000Y315000D02*
X50000Y60000D01*
X50000Y360000D02*
X50000Y620000D01*
X60000Y630000D02*
X295000Y630000D01*
X340000D02*
X580000D01*
X610000Y900000D02*
X610000Y660000D01*
X590000Y350000D02*
X590000Y620000D01*
X590000Y305000D02*
X590000Y60000D01*
X340000Y50000D02*
X580000D01*
X30000Y360000D02*
Y940000D01*
Y30000D02*
Y315000D01*
X1530000Y1180000D02*
X1530000Y1110000D01*
Y1230000D02*
Y1330000D01*
Y1510000D02*
Y1610000D01*
X1530000Y1460000D02*
X1530000Y1390000D01*
X1390000D02*
Y1510000D01*
Y1610000D01*
X1330000Y1150000D02*
X1330000Y1184915D01*
X1309917Y1150000D02*
X1330000D01*
X1210000D02*
X1210000Y1185000D01*
X1210000Y1150000D02*
X1230149D01*
X1180000Y1210000D02*
X1200000Y1210000D01*
X1210000Y1200000D02*
X1210000Y1185000D01*
X1330000Y1184915D02*
X1330000Y1199915D01*
X1340000Y1209915D02*
X1360000Y1209915D01*
X1309642Y1194838D02*
X1309917Y1150000D01*
X1300000Y1580000D02*
X1300108Y1585000D01*
X1247000Y1590000D02*
X1293000D01*
X1239893Y1585000D02*
X1240000Y1580000D01*
X1210000Y1550000D02*
X1210000Y1430000D01*
X1330000D02*
Y1550000D01*
X1309642Y1194838D02*
X1310000Y1410000D01*
X1230000D02*
X1230149Y1150000D01*
X1570000Y1640000D02*
X1600000D01*
X1570000Y1380000D02*
X1600000D01*
X1570000Y1350000D02*
X1600000D01*
X1570000Y1090000D02*
X1600000D01*
X695000Y1350215D02*
X695111Y1300000D01*
X729915Y1260000D02*
X729915Y1280000D01*
X704915Y1290000D02*
X719915Y1290000D01*
X705000Y1510000D02*
X720000Y1510000D01*
X730000Y1540000D02*
X730000Y1520000D01*
X610000Y1400000D02*
X610000Y1260000D01*
X695085Y1449785D02*
X695197Y1500000D01*
X1100000Y1370000D02*
X1105000Y1369892D01*
X1110000Y1377000D02*
Y1423000D01*
X1100000Y1430000D02*
X1105000Y1430107D01*
X950000Y1340000D02*
X1070000D01*
X705000Y1360215D02*
X930000Y1360000D01*
X705000Y1439785D02*
X930000Y1440000D01*
X610000Y1400000D02*
X610000Y1540000D01*
X1170000Y600000D02*
G03*
X1200000Y570000I30000J0D01*
G01*
X1640000D02*
G03*
X1670000Y600000I0J30000D01*
G01*
Y1040000D02*
G03*
X1640000Y1070000I-30000J0D01*
G01*
X1200000D02*
G03*
X1170000Y1040000I0J-30000D01*
G01*
X1200000Y570000D02*
X1640000Y570000D01*
X1170000Y600000D02*
X1170000Y1040000D01*
X1670000D02*
X1670000Y600000D01*
X1200000Y1070000D02*
X1640000Y1070000D01*
X1200000Y550000D02*
G03*
X1170000Y520000I0J-30000D01*
G01*
X1670000D02*
G03*
X1640000Y550000I-30000J0D01*
G01*
Y50000D02*
G03*
X1670000Y80000I0J30000D01*
G01*
X1170000D02*
G03*
X1200000Y50000I30000J0D01*
G01*
Y550000D02*
X1640000Y550000D01*
X1670000Y520000D02*
X1670000Y80000D01*
X1170000D02*
X1170000Y520000D01*
X1200000Y50000D02*
X1640000Y50000D01*
X1140000Y650000D02*
G03*
X1150000Y660000I0J10000D01*
G01*
X610000D02*
G03*
X620000Y650000I10000J0D01*
G01*
X1150000Y1220000D02*
G03*
X1140000Y1230000I-10000J0D01*
G01*
X620000D02*
G03*
X610000Y1220000I0J-10000D01*
G01*
X620000Y650000D02*
X1140000D01*
X1150000Y660000D02*
Y1220000D01*
X610000Y660000D02*
Y1220000D01*
X620000Y1230000D02*
X1140000D01*
X520000Y650000D02*
G03*
X550000Y680000I0J30000D01*
G01*
Y1120000D02*
G03*
X520000Y1150000I-30000J0D01*
G01*
X50000Y680000D02*
G03*
X80000Y650000I30000J0D01*
G01*
Y1150000D02*
G03*
X50000Y1120000I0J-30000D01*
G01*
X80000Y1150000D02*
X520000Y1150000D01*
X50000Y680000D02*
X50000Y1120000D01*
X550000D02*
X550000Y680000D01*
X80000Y650000D02*
X520000Y650000D01*
X1140000Y50000D02*
G03*
X1150000Y60000I0J10000D01*
G01*
X610000D02*
G03*
X620000Y50000I10000J0D01*
G01*
X1150000Y620000D02*
G03*
X1140000Y630000I-10000J0D01*
G01*
X620000D02*
G03*
X610000Y620000I0J-10000D01*
G01*
X620000Y50000D02*
X1140000D01*
X1150000Y60000D02*
Y620000D01*
X610000Y60000D02*
Y620000D01*
X620000Y630000D02*
X1140000D01*
X550000Y1640000D02*
G03*
X520000Y1670000I-30000J0D01*
G01*
Y1170000D02*
G03*
X550000Y1200000I0J30000D01*
G01*
X50000D02*
G03*
X80000Y1170000I30000J0D01*
G01*
Y1670000D02*
G03*
X50000Y1640000I0J-30000D01*
G01*
X520000Y1170000D02*
X80000Y1170000D01*
X50000Y1640000D02*
X50000Y1200000D01*
X80000Y1670000D02*
X520000Y1670000D01*
X550000Y1640000D02*
X550000Y1200000D01*
X580000Y50000D02*
G03*
X590000Y60000I0J10000D01*
G01*
X50000D02*
G03*
X60000Y50000I10000J0D01*
G01*
X590000Y620000D02*
G03*
X580000Y630000I-10000J0D01*
G01*
X60000D02*
G03*
X50000Y620000I0J-10000D01*
G01*
X60000Y50000D02*
X580000D01*
X590000Y60000D02*
Y620000D01*
X50000Y60000D02*
Y620000D01*
X60000Y630000D02*
X580000D01*
X609905Y1260000D02*
G03*
X619905Y1250000I10000J0D01*
G01*
X719905D02*
G03*
X729905Y1260000I-0J10000D01*
G01*
X729905Y1280000D02*
G03*
X719905Y1290000I-10000J-0D01*
G01*
X695102Y1300000D02*
G03*
X704905Y1290000I9902J-99D01*
G01*
X704990Y1510000D02*
G03*
X695187Y1500000I99J-9902D01*
G01*
X719990Y1510000D02*
G03*
X729990Y1520000I0J10000D01*
G01*
X729990Y1540000D02*
G03*
X719990Y1550000I-10000J0D01*
G01*
X619990D02*
G03*
X609990Y1540000I0J-10000D01*
G01*
X704990Y1360215D02*
G03*
X694990Y1350215I0J-10000D01*
G01*
Y1449785D02*
G03*
X704990Y1439785I10000J0D01*
G01*
X1099990Y1370000D02*
G03*
X1089990Y1360000I0J-10000D01*
G01*
Y1440000D02*
G03*
X1099990Y1430000I10000J0D01*
G01*
X1104990Y1369893D02*
G03*
X1109990Y1377000I-2029J6740D01*
G01*
Y1423000D02*
G03*
X1104990Y1430108I-7029J368D01*
G01*
X1089990Y1440000D02*
G03*
X1069990Y1460000I-20000J0D01*
G01*
Y1340000D02*
G03*
X1089990Y1360000I-0J20000D01*
G01*
X929990Y1360000D02*
G03*
X949990Y1340000I20000J0D01*
G01*
Y1460000D02*
G03*
X929990Y1440000I0J-20000D01*
G01*
X695102Y1300000D02*
X694990Y1350215D01*
X719905Y1250000D02*
X619905D01*
X729905Y1260000D02*
X729905Y1280000D01*
X719905Y1290000D02*
X704905Y1290000D01*
X704990Y1510000D02*
X719990Y1510000D01*
X729990Y1520000D02*
X729990Y1540000D01*
X719990Y1550000D02*
X619990D01*
X609990Y1400000D02*
X609990Y1540000D01*
Y1260000D02*
X609990Y1400000D01*
X695076Y1449785D02*
X695187Y1500000D01*
X1104990Y1369893D02*
X1099990Y1370000D01*
X1109990Y1377000D02*
Y1423000D01*
X1099990Y1430000D02*
X1104990Y1430108D01*
X949990Y1460000D02*
X1069990Y1460000D01*
Y1340000D02*
X949990D01*
X929990Y1360000D02*
X704990Y1360215D01*
Y1439785D02*
X929990Y1440000D01*
X1170000Y1099990D02*
G03*
X1180000Y1089990I10000J0D01*
G01*
Y1209990D02*
G03*
X1170000Y1199990I0J-10000D01*
G01*
X1210000D02*
G03*
X1200000Y1209990I-10000J0D01*
G01*
X1340000Y1209905D02*
G03*
X1330000Y1199905I0J-10000D01*
G01*
X1370000Y1199905D02*
G03*
X1360000Y1209905I-10000J-0D01*
G01*
Y1089905D02*
G03*
X1370000Y1099905I0J10000D01*
G01*
X1300000Y1579990D02*
G03*
X1310000Y1569990I10000J0D01*
G01*
X1230000D02*
G03*
X1240000Y1579990I0J10000D01*
G01*
X1300107Y1584990D02*
G03*
X1293000Y1589990I-6740J-2029D01*
G01*
X1247000D02*
G03*
X1239892Y1584990I-368J-7029D01*
G01*
X1230000Y1569990D02*
G03*
X1210000Y1549990I-0J-20000D01*
G01*
X1330000D02*
G03*
X1310000Y1569990I-20000J-0D01*
G01*
X1310000Y1409990D02*
G03*
X1330000Y1429990I0J20000D01*
G01*
X1210000D02*
G03*
X1230000Y1409990I20000J0D01*
G01*
X1330000Y1184905D02*
X1330000Y1149990D01*
X1309917D01*
X1210000Y1184990D02*
X1210000Y1149990D01*
X1230149D02*
X1210000D01*
X1170000Y1199990D02*
Y1099990D01*
X1200000Y1209990D02*
X1180000Y1209990D01*
X1210000Y1184990D02*
X1210000Y1199990D01*
X1330000Y1199905D02*
X1330000Y1184905D01*
X1360000Y1209905D02*
X1340000Y1209905D01*
X1370000Y1199905D02*
Y1099905D01*
X1360000Y1089905D02*
X1180000Y1089990D01*
X1309917Y1149990D02*
X1309642Y1194828D01*
X1300107Y1584990D02*
X1300000Y1579990D01*
X1293000Y1589990D02*
X1247000D01*
X1240000Y1579990D02*
X1239892Y1584990D01*
X1210000Y1429990D02*
X1210000Y1549990D01*
X1330000D02*
Y1429990D01*
X1310000Y1409990D02*
X1309642Y1194828D01*
X1230149Y1149990D02*
X1230000Y1409990D01*
X1530000Y1330000D02*
G03*
X1510000Y1350000I-20000J0D01*
G01*
X1410000D02*
G03*
X1390000Y1330000I0J-20000D01*
G01*
X1510000Y1090000D02*
G03*
X1530000Y1110000I0J20000D01*
G01*
X1390000D02*
G03*
X1410000Y1090000I20000J0D01*
G01*
X1530000Y1110000D02*
Y1330000D01*
X1510000Y1350000D02*
X1410000D01*
X1390000Y1110000D02*
Y1330000D01*
X1510000Y1090000D02*
X1410000D01*
X1530000Y1610000D02*
G03*
X1510000Y1630000I-20000J0D01*
G01*
X1410000D02*
G03*
X1390000Y1610000I0J-20000D01*
G01*
X1510000Y1370000D02*
G03*
X1530000Y1390000I0J20000D01*
G01*
X1390000D02*
G03*
X1410000Y1370000I20000J0D01*
G01*
X1530000Y1390000D02*
Y1610000D01*
X1510000Y1630000D02*
X1410000D01*
X1390000Y1390000D02*
Y1610000D01*
X1510000Y1370000D02*
X1410000D01*
X1570000Y1350000D02*
G03*
X1550000Y1330000I0J-20000D01*
G01*
X1620000Y1330000D02*
G03*
X1600000Y1350000I-20000J0D01*
G01*
Y1090000D02*
G03*
X1620000Y1110000I-0J20000D01*
G01*
X1550000Y1110000D02*
G03*
X1570000Y1090000I20000J-0D01*
G01*
X1600000Y1350000D02*
X1570000D01*
X1600000Y1090000D02*
X1570000D01*
X1550000Y1110000D02*
Y1330000D01*
X1620000Y1110000D02*
Y1330000D01*
X1570000Y1640000D02*
G03*
X1550000Y1620000I0J-20000D01*
G01*
X1620000Y1620000D02*
G03*
X1600000Y1640000I-20000J0D01*
G01*
Y1380000D02*
G03*
X1620000Y1400000I-0J20000D01*
G01*
X1550000Y1400000D02*
G03*
X1570000Y1380000I20000J-0D01*
G01*
X1600000Y1640000D02*
X1570000D01*
X1600000Y1380000D02*
X1570000D01*
X1550000Y1400000D02*
Y1620000D01*
X1620000Y1400000D02*
Y1620000D01*
D51*
X930000Y50000D02*
G03*
X930000Y30000I0J-10000D01*
G01*
X885000D02*
G03*
X885000Y50000I0J10000D01*
G01*
X295000Y630000D02*
G03*
X295000Y650000I0J10000D01*
G01*
X340000D02*
G03*
X340000Y630000I0J-10000D01*
G01*
X295000Y30000D02*
G03*
X295000Y50000I0J10000D01*
G01*
X340000D02*
G03*
X340000Y30000I0J-10000D01*
G01*
X610000Y305000D02*
G03*
X590000Y305000I-10000J0D01*
G01*
Y350000D02*
G03*
X610000Y350000I10000J0D01*
G01*
X50000Y315000D02*
G03*
X30000Y315000I-10000J0D01*
G01*
Y360000D02*
G03*
X50000Y360000I10000J0D01*
G01*
X610000Y900000D02*
G03*
X550000Y900000I-30000J-30000D01*
G01*
X340000Y1170000D02*
G03*
X340000Y1150000I0J-10000D01*
G01*
X295000D02*
G03*
X295000Y1170000I0J10000D01*
G01*
X340000Y1690000D02*
G03*
X340000Y1670000I0J-10000D01*
G01*
X295000D02*
G03*
X295000Y1690000I0J10000D01*
G01*
X900000Y650000D02*
G03*
X900000Y630000I0J-10000D01*
G01*
X855000D02*
G03*
X855000Y650000I0J10000D01*
G01*
X1150000Y855000D02*
G03*
X1170000Y855000I10000J0D01*
G01*
Y810000D02*
G03*
X1150000Y810000I-10000J0D01*
G01*
X1395000Y550000D02*
G03*
X1395000Y570000I0J10000D01*
G01*
X1440000D02*
G03*
X1440000Y550000I0J-10000D01*
G01*
X1295000Y1090000D02*
G03*
X1295000Y1070000I0J-10000D01*
G01*
X1250000D02*
G03*
X1250000Y1090000I0J10000D01*
G01*
X695000Y1250000D02*
G03*
X695000Y1230000I0J-10000D01*
G01*
X650000D02*
G03*
X650000Y1250000I0J10000D01*
G01*
X50000Y940000D02*
G03*
X30000Y940000I-10000J0D01*
G01*
Y985000D02*
G03*
X50000Y985000I10000J0D01*
G01*
Y1460000D02*
G03*
X30000Y1460000I-10000J0D01*
G01*
Y1505000D02*
G03*
X50000Y1505000I10000J0D01*
G01*
X550000Y940000D02*
G03*
X610000Y940000I30000J30000D01*
G01*
X1395000Y30000D02*
G03*
X1395000Y50000I0J10000D01*
G01*
X1440000D02*
G03*
X1440000Y30000I0J-10000D01*
G01*
X1670000Y810000D02*
G03*
X1690000Y810000I10000J0D01*
G01*
Y765000D02*
G03*
X1670000Y765000I-10000J0D01*
G01*
Y320000D02*
G03*
X1690000Y320000I10000J0D01*
G01*
Y275000D02*
G03*
X1670000Y275000I-10000J0D01*
G01*
X1435000Y1070000D02*
G03*
X1435000Y1090000I0J10000D01*
G01*
X1480000D02*
G03*
X1480000Y1070000I0J-10000D01*
G01*
X1550000Y1185000D02*
G03*
X1530000Y1185000I-10000J0D01*
G01*
Y1230000D02*
G03*
X1550000Y1230000I10000J0D01*
G01*
X1480000Y1370000D02*
G03*
X1480000Y1350000I0J-10000D01*
G01*
X1435000D02*
G03*
X1435000Y1370000I0J10000D01*
G01*
X1530000Y1510000D02*
G03*
X1550000Y1510000I10000J0D01*
G01*
Y1465000D02*
G03*
X1530000Y1465000I-10000J0D01*
G01*
X1390000Y1135000D02*
G03*
X1370000Y1135000I-10000J0D01*
G01*
Y1180000D02*
G03*
X1390000Y1180000I10000J0D01*
G01*
X1170000Y1125000D02*
G03*
X1150000Y1125000I-10000J0D01*
G01*
Y1170000D02*
G03*
X1170000Y1170000I10000J0D01*
G01*
X1640000Y1515000D02*
G03*
X1620000Y1515000I-10000J0D01*
G01*
Y1560000D02*
G03*
X1640000Y1560000I10000J0D01*
G01*
Y1235000D02*
G03*
X1620000Y1235000I-10000J0D01*
G01*
Y1280000D02*
G03*
X1640000Y1280000I10000J0D01*
G01*
X1435000Y1630000D02*
G03*
X1435000Y1650000I0J10000D01*
G01*
X1480000D02*
G03*
X1480000Y1630000I0J-10000D01*
G01*
X1150000Y350000D02*
G03*
X1170000Y350000I10000J0D01*
G01*
Y305000D02*
G03*
X1150000Y305000I-10000J0D01*
G01*
X650000Y1550000D02*
G03*
X650000Y1570000I0J10000D01*
G01*
X695000D02*
G03*
X695000Y1550000I0J-10000D01*
G01*
X1030000Y1480000D02*
G03*
X1030000Y1460000I0J-10000D01*
G01*
X985000D02*
G03*
X985000Y1480000I0J10000D01*
G01*
X340000Y30000D02*
X885000D01*
X30000D02*
X295000D01*
X340000Y650000D02*
X520000D01*
X550000Y680000D02*
Y900000D01*
X340000Y1150000D02*
X520000D01*
X340000Y1670000D02*
X520000D01*
X340000Y1170000D02*
X520000D01*
X620000Y650000D02*
X855000D01*
X900000D02*
X1140000D01*
X1170000Y600000D02*
Y810000D01*
X1200000Y570000D02*
X1395000D01*
X1200000Y550000D02*
X1395000D01*
X1170000Y350000D02*
Y520000D01*
Y80000D02*
Y305000D01*
X1440000Y550000D02*
X1640000D01*
X1440000Y570000D02*
X1640000D01*
X1150000Y810000D02*
X1150000Y660000D01*
X1170000Y855000D02*
Y1040000D01*
X1200000Y1070000D02*
X1250000D01*
X1295000D02*
X1435000D01*
X1480000D02*
X1640000D01*
X50000Y985000D02*
Y1120000D01*
X30000Y985000D02*
Y1460000D01*
X50000Y1505000D02*
Y1640000D01*
X550000Y940000D02*
Y1120000D01*
X610000Y940000D02*
Y1220000D01*
X30000Y1505000D02*
Y1690000D01*
X295000D01*
X1440000Y50000D02*
X1640000D01*
X1200000D02*
X1395000D01*
X930000Y30000D02*
X1395000D01*
X1440000D02*
X1680000D01*
X1690000D01*
X1670000Y80000D02*
Y275000D01*
X1690000Y30000D02*
Y275000D01*
Y320000D02*
Y765000D01*
X1670000Y600000D02*
Y765000D01*
Y320000D02*
Y520000D01*
Y810000D02*
Y1040000D01*
X1480000Y1090000D02*
X1510000D01*
X1410000D02*
X1435000D01*
X1530000Y1180000D02*
X1530000Y1185000D01*
X1530000Y1460000D02*
X1530000Y1465000D01*
X1410000Y1370000D02*
X1435000D01*
X1480000D02*
X1510000D01*
X1410000Y1350000D02*
X1435000D01*
X1480000D02*
X1510000D01*
X1295000Y1090000D02*
X1360000Y1089905D01*
X1180000Y1090000D02*
X1250000D01*
X1390000Y1110000D02*
X1390000Y1135000D01*
X1370000D02*
X1370000Y1099915D01*
X1370000Y1180000D02*
X1370000Y1199905D01*
X1390000Y1330000D02*
X1390000Y1180000D01*
X1170000Y1170000D02*
Y1200000D01*
X1150000Y1170000D02*
Y1220000D01*
X1150000Y855000D02*
X1150000Y1125000D01*
X1170000Y1100000D02*
X1170000Y1125000D01*
X1550000Y1510000D02*
X1550000Y1620000D01*
X1550000Y1465000D02*
X1550000Y1400000D01*
X1550000Y1230000D02*
X1550000Y1330000D01*
X1550000Y1185000D02*
X1550000Y1110000D01*
X1620000Y1235000D02*
X1620000Y1110000D01*
X1620000Y1280000D02*
X1620000Y1330000D01*
X1620000Y1515000D02*
X1620000Y1400000D01*
X1620000Y1560000D02*
X1620000Y1620000D01*
X1640000Y1560000D02*
X1690000D01*
X1640000Y1515000D02*
X1690000Y1515000D01*
X1640000Y1280000D02*
X1690000D01*
X1640000Y1235000D02*
X1690000Y1235000D01*
Y1280000D02*
Y1515000D01*
Y1560000D02*
Y1690000D01*
Y810000D02*
Y1235000D01*
X1480000Y1630000D02*
X1510000D01*
X1410000D02*
X1435000D01*
Y1650000D02*
X1435000Y1690000D01*
X1480000Y1650000D02*
Y1690000D01*
X1690000D01*
X620000Y1230000D02*
X650000D01*
X620000Y1250000D02*
X650000Y1250000D01*
X695000D02*
X719905D01*
X695000Y1230000D02*
X1140000D01*
X550000Y1200000D02*
Y1640000D01*
X620000Y1550000D02*
X650000D01*
Y1570000D02*
Y1690000D01*
X340000D02*
X650000D01*
X695000D02*
X695000Y1570000D01*
Y1550000D02*
X719990Y1550000D01*
X1030000Y1460000D02*
X1070000D01*
X950000D02*
X985000D01*
X1030000Y1480000D02*
Y1690000D01*
X985000Y1480000D02*
X985000Y1690000D01*
X695000D02*
X985000D01*
X1030000D02*
X1435000D01*
M02*
