G04 Layer_Color=16711935*
%FSLAX44Y44*%
%MOMM*%
G71*
G01*
G75*
%ADD61R,1.0532X1.0532*%
%ADD62R,1.4532X1.2032*%
%ADD71R,1.2032X1.4532*%
%ADD74C,0.2032*%
%ADD75C,1.7272*%
G04:AMPARAMS|DCode=76|XSize=0.2032mm|YSize=0.2032mm|CornerRadius=0mm|HoleSize=0mm|Usage=FLASHONLY|Rotation=180.000|XOffset=0mm|YOffset=0mm|HoleType=Round|Shape=RoundedRectangle|*
%AMROUNDEDRECTD76*
21,1,0.2032,0.2032,0,0,180.0*
21,1,0.2032,0.2032,0,0,180.0*
1,1,0.0000,-0.1016,0.1016*
1,1,0.0000,0.1016,0.1016*
1,1,0.0000,0.1016,-0.1016*
1,1,0.0000,-0.1016,-0.1016*
%
%ADD76ROUNDEDRECTD76*%
%ADD77P,2.1683X8X202.5*%
%ADD78C,2.0032*%
%ADD79C,5.7032*%
G04:AMPARAMS|DCode=80|XSize=0.2032mm|YSize=0.2032mm|CornerRadius=0mm|HoleSize=0mm|Usage=FLASHONLY|Rotation=90.000|XOffset=0mm|YOffset=0mm|HoleType=Round|Shape=RoundedRectangle|*
%AMROUNDEDRECTD80*
21,1,0.2032,0.2032,0,0,90.0*
21,1,0.2032,0.2032,0,0,90.0*
1,1,0.0000,0.1016,0.1016*
1,1,0.0000,0.1016,-0.1016*
1,1,0.0000,-0.1016,-0.1016*
1,1,0.0000,-0.1016,0.1016*
%
%ADD80ROUNDEDRECTD80*%
%ADD81P,2.1683X8X112.5*%
%ADD82C,4.2032*%
%ADD83C,6.2032*%
%ADD84C,0.9032*%
%ADD85C,1.2032*%
%ADD86C,1.4732*%
%ADD87C,2.2032*%
%ADD88R,2.2032X2.2032*%
%ADD89R,2.2032X2.2032*%
%ADD90R,0.7032X0.6032*%
G04:AMPARAMS|DCode=91|XSize=1.4032mm|YSize=0.7532mm|CornerRadius=0mm|HoleSize=0mm|Usage=FLASHONLY|Rotation=45.000|XOffset=0mm|YOffset=0mm|HoleType=Round|Shape=Rectangle|*
%AMROTATEDRECTD91*
4,1,4,-0.2298,-0.7624,-0.7624,-0.2298,0.2298,0.7624,0.7624,0.2298,-0.2298,-0.7624,0.0*
%
%ADD91ROTATEDRECTD91*%

%ADD92R,1.4532X1.2032*%
D61*
X892750Y198250D02*
D03*
Y184250D02*
D03*
D62*
X674990Y1515000D02*
D03*
Y1535000D02*
D03*
D71*
X1260000Y1129990D02*
D03*
X1280000D02*
D03*
D74*
X305000Y632500D02*
D03*
X311500D02*
D03*
X324750D02*
D03*
X318250D02*
D03*
X331000D02*
D03*
X330500Y647750D02*
D03*
X317750D02*
D03*
X324250D02*
D03*
X311000D02*
D03*
X304500D02*
D03*
X330500Y47750D02*
D03*
X317750D02*
D03*
X324250D02*
D03*
X311000D02*
D03*
X304500D02*
D03*
X47500Y325000D02*
D03*
Y331500D02*
D03*
Y344750D02*
D03*
Y338250D02*
D03*
Y351000D02*
D03*
X607500Y315000D02*
D03*
Y321500D02*
D03*
Y334750D02*
D03*
Y328250D02*
D03*
Y341000D02*
D03*
X592250Y340500D02*
D03*
Y327750D02*
D03*
Y334250D02*
D03*
Y321000D02*
D03*
Y314500D02*
D03*
X551000Y935250D02*
D03*
Y928750D02*
D03*
Y915500D02*
D03*
Y922000D02*
D03*
Y909250D02*
D03*
X607750Y909500D02*
D03*
Y922250D02*
D03*
Y915750D02*
D03*
Y929000D02*
D03*
Y935500D02*
D03*
X304500Y1152250D02*
D03*
X311000D02*
D03*
X324250D02*
D03*
X317750D02*
D03*
X330500D02*
D03*
X304500Y1672250D02*
D03*
X311000D02*
D03*
X324250D02*
D03*
X317750D02*
D03*
X330500D02*
D03*
X304500Y1167750D02*
D03*
X311000D02*
D03*
X324250D02*
D03*
X317750D02*
D03*
X330500D02*
D03*
X864500Y647750D02*
D03*
X871000D02*
D03*
X884250D02*
D03*
X877750D02*
D03*
X890500D02*
D03*
X891000Y632500D02*
D03*
X878250D02*
D03*
X884750D02*
D03*
X871500D02*
D03*
X865000D02*
D03*
X1152500Y845000D02*
D03*
Y838500D02*
D03*
Y825250D02*
D03*
Y831750D02*
D03*
Y819000D02*
D03*
X1167750Y819500D02*
D03*
Y832250D02*
D03*
Y825750D02*
D03*
Y839000D02*
D03*
Y845500D02*
D03*
X1405000Y552500D02*
D03*
X1411500D02*
D03*
X1424750D02*
D03*
X1418250D02*
D03*
X1431000D02*
D03*
X1430500Y567750D02*
D03*
X1417750D02*
D03*
X1424250D02*
D03*
X1411000D02*
D03*
X1404500D02*
D03*
X1285000Y1087500D02*
D03*
X1278500D02*
D03*
X1265250D02*
D03*
X1271750D02*
D03*
X1259000D02*
D03*
X1259500Y1072250D02*
D03*
X1272250D02*
D03*
X1265750D02*
D03*
X1279000D02*
D03*
X1285500D02*
D03*
X685000Y1247500D02*
D03*
X678500D02*
D03*
X665250D02*
D03*
X671750D02*
D03*
X659000D02*
D03*
X659500Y1232250D02*
D03*
X672250D02*
D03*
X665750D02*
D03*
X679000D02*
D03*
X685500D02*
D03*
X47750Y975500D02*
D03*
Y969000D02*
D03*
Y955750D02*
D03*
Y962250D02*
D03*
Y949500D02*
D03*
Y1495500D02*
D03*
Y1489000D02*
D03*
Y1475750D02*
D03*
Y1482250D02*
D03*
Y1469500D02*
D03*
X894500Y47750D02*
D03*
X901000D02*
D03*
X914250D02*
D03*
X907750D02*
D03*
X920500D02*
D03*
X1430500D02*
D03*
X1417750D02*
D03*
X1424250D02*
D03*
X1411000D02*
D03*
X1404500D02*
D03*
X1672250Y774500D02*
D03*
Y781000D02*
D03*
Y794250D02*
D03*
Y787750D02*
D03*
Y800500D02*
D03*
Y284500D02*
D03*
Y291000D02*
D03*
Y304250D02*
D03*
Y297750D02*
D03*
Y310500D02*
D03*
X1470500Y1072250D02*
D03*
X1464000D02*
D03*
X1450750D02*
D03*
X1457250D02*
D03*
X1444500D02*
D03*
X1444000Y1087500D02*
D03*
X1456750D02*
D03*
X1450250D02*
D03*
X1463500D02*
D03*
X1470000D02*
D03*
X1547750Y1220500D02*
D03*
Y1214000D02*
D03*
Y1200750D02*
D03*
Y1207250D02*
D03*
Y1194500D02*
D03*
X1532500Y1194000D02*
D03*
Y1206750D02*
D03*
Y1200250D02*
D03*
Y1213500D02*
D03*
Y1220000D02*
D03*
X1470000Y1367500D02*
D03*
X1463500D02*
D03*
X1450250D02*
D03*
X1456750D02*
D03*
X1444000D02*
D03*
X1444500Y1352250D02*
D03*
X1457250D02*
D03*
X1450750D02*
D03*
X1464000D02*
D03*
X1470500D02*
D03*
X1532500Y1500000D02*
D03*
Y1493500D02*
D03*
Y1480250D02*
D03*
Y1486750D02*
D03*
Y1474000D02*
D03*
X1547750Y1474500D02*
D03*
Y1487250D02*
D03*
Y1480750D02*
D03*
Y1494000D02*
D03*
Y1500500D02*
D03*
X1387750Y1170500D02*
D03*
Y1164000D02*
D03*
Y1150750D02*
D03*
Y1157250D02*
D03*
Y1144500D02*
D03*
X1372500Y1144000D02*
D03*
Y1156750D02*
D03*
Y1150250D02*
D03*
Y1163500D02*
D03*
Y1170000D02*
D03*
X1167750Y1160500D02*
D03*
Y1154000D02*
D03*
Y1140750D02*
D03*
Y1147250D02*
D03*
Y1134500D02*
D03*
X1152500Y1134000D02*
D03*
Y1146750D02*
D03*
Y1140250D02*
D03*
Y1153500D02*
D03*
Y1160000D02*
D03*
X1622500Y1524000D02*
D03*
Y1536750D02*
D03*
Y1530250D02*
D03*
Y1543500D02*
D03*
Y1550000D02*
D03*
Y1244000D02*
D03*
Y1256750D02*
D03*
Y1250250D02*
D03*
Y1263500D02*
D03*
Y1270000D02*
D03*
X1470500Y1632250D02*
D03*
X1464000D02*
D03*
X1450750D02*
D03*
X1457250D02*
D03*
X1444500D02*
D03*
X1152250Y314500D02*
D03*
Y321000D02*
D03*
Y334250D02*
D03*
Y327750D02*
D03*
Y340500D02*
D03*
X1167500Y341000D02*
D03*
Y328250D02*
D03*
Y334750D02*
D03*
Y321500D02*
D03*
Y315000D02*
D03*
X685500Y1552250D02*
D03*
X679000D02*
D03*
X665750D02*
D03*
X672250D02*
D03*
X659500D02*
D03*
X1021000Y1462500D02*
D03*
X1008250D02*
D03*
X1014750D02*
D03*
X1001500D02*
D03*
X995000D02*
D03*
X1600000Y434605D02*
D03*
Y404605D02*
D03*
X677480Y1065850D02*
D03*
Y1095850D02*
D03*
X315395Y750000D02*
D03*
X285395D02*
D03*
X1090000Y482500D02*
D03*
Y452500D02*
D03*
X284605Y1220000D02*
D03*
X314605D02*
D03*
X488750Y476500D02*
D03*
Y446500D02*
D03*
D75*
X20000Y17500D02*
D03*
X1700000Y1702500D02*
D03*
X215000Y815000D02*
D03*
X400000Y1000000D02*
D03*
X215000D02*
D03*
X400000Y815000D02*
D03*
D76*
X1420000Y1042800D02*
D03*
X880000Y697200D02*
D03*
X880000Y97200D02*
D03*
X320000D02*
D03*
D77*
X1458100Y1020000D02*
D03*
X841900Y720000D02*
D03*
X841900Y120000D02*
D03*
X338100Y1567000D02*
D03*
X281900Y120000D02*
D03*
X1421100Y1132250D02*
D03*
Y1412250D02*
D03*
D78*
X1432700Y1020000D02*
D03*
X1407300D02*
D03*
X1381900D02*
D03*
X1600000Y287300D02*
D03*
Y312700D02*
D03*
Y338100D02*
D03*
X1109500Y1134320D02*
D03*
Y1058120D02*
D03*
Y1083520D02*
D03*
Y1108920D02*
D03*
X712000Y947950D02*
D03*
Y922550D02*
D03*
Y897150D02*
D03*
X1109500Y978120D02*
D03*
Y901920D02*
D03*
Y927320D02*
D03*
Y952720D02*
D03*
Y821870D02*
D03*
Y745670D02*
D03*
Y771070D02*
D03*
Y796470D02*
D03*
X918100Y720000D02*
D03*
X892700D02*
D03*
X867300D02*
D03*
X1084100Y1083520D02*
D03*
Y1108920D02*
D03*
Y927320D02*
D03*
Y952720D02*
D03*
X737400Y922550D02*
D03*
Y947950D02*
D03*
X1084100Y796470D02*
D03*
Y771070D02*
D03*
X120000Y861900D02*
D03*
Y887300D02*
D03*
Y912700D02*
D03*
X509500D02*
D03*
Y887300D02*
D03*
Y861900D02*
D03*
Y938100D02*
D03*
X374000Y990000D02*
D03*
X230000Y838000D02*
D03*
X484100Y912700D02*
D03*
Y887300D02*
D03*
X918100Y120000D02*
D03*
X892700D02*
D03*
X867300D02*
D03*
X711500Y458850D02*
D03*
Y484250D02*
D03*
Y509650D02*
D03*
Y145050D02*
D03*
Y170450D02*
D03*
Y195850D02*
D03*
X711250Y302150D02*
D03*
Y327550D02*
D03*
Y352950D02*
D03*
X1109500Y386100D02*
D03*
Y309900D02*
D03*
Y335300D02*
D03*
Y360700D02*
D03*
X261900Y1567000D02*
D03*
X287300D02*
D03*
X312700D02*
D03*
X547250Y480050D02*
D03*
Y403850D02*
D03*
Y429250D02*
D03*
Y454650D02*
D03*
X358100Y120000D02*
D03*
X332700D02*
D03*
X307300D02*
D03*
X152000Y403650D02*
D03*
Y429050D02*
D03*
Y454450D02*
D03*
X548000Y277400D02*
D03*
Y201200D02*
D03*
Y226600D02*
D03*
Y252000D02*
D03*
X152500Y200950D02*
D03*
Y226350D02*
D03*
Y251750D02*
D03*
X966990Y1412700D02*
D03*
Y1387300D02*
D03*
Y1361900D02*
D03*
Y1438100D02*
D03*
X1231900Y1446990D02*
D03*
X1308100D02*
D03*
X1282700D02*
D03*
X1257300D02*
D03*
X1446500Y1132250D02*
D03*
X1471900D02*
D03*
X1497300D02*
D03*
X1421400Y1310000D02*
D03*
X1497600D02*
D03*
X1472200D02*
D03*
X1446800D02*
D03*
X1446500Y1412250D02*
D03*
X1471900D02*
D03*
X1497300D02*
D03*
X1421400Y1590000D02*
D03*
X1497600D02*
D03*
X1472200D02*
D03*
X1446800D02*
D03*
X1572500Y1297500D02*
D03*
Y1322900D02*
D03*
X1597900Y1297500D02*
D03*
Y1322900D02*
D03*
X1572500Y1587500D02*
D03*
Y1612900D02*
D03*
X1597900Y1587500D02*
D03*
Y1612900D02*
D03*
D79*
X1215000Y615000D02*
D03*
X1625000Y1025000D02*
D03*
X1215000D02*
D03*
X1625000Y615000D02*
D03*
X1625000Y95000D02*
D03*
X1215000D02*
D03*
X1625000Y505000D02*
D03*
X1215000D02*
D03*
X505000Y695000D02*
D03*
X95000D02*
D03*
X505000Y1105000D02*
D03*
X95000D02*
D03*
X95000Y1215000D02*
D03*
Y1625000D02*
D03*
X505000Y1215000D02*
D03*
Y1625000D02*
D03*
D80*
X1622800Y300000D02*
D03*
X97200Y900000D02*
D03*
X506000Y1420000D02*
D03*
D81*
X1600000Y261900D02*
D03*
X712000Y973350D02*
D03*
X120000Y938100D02*
D03*
X711500Y535050D02*
D03*
Y221250D02*
D03*
X711250Y378350D02*
D03*
X152000Y479850D02*
D03*
X152500Y277150D02*
D03*
D82*
X1335000Y485000D02*
D03*
X1505000D02*
D03*
X1335000Y115000D02*
D03*
X1505000D02*
D03*
X820000Y1135000D02*
D03*
X940000D02*
D03*
X820000Y765000D02*
D03*
X940000D02*
D03*
X940000Y165000D02*
D03*
X820000D02*
D03*
X940000Y535000D02*
D03*
X820000D02*
D03*
X440000Y1530000D02*
D03*
Y1310000D02*
D03*
X120000D02*
D03*
Y1530000D02*
D03*
X405000Y425000D02*
D03*
X235000D02*
D03*
Y255000D02*
D03*
X405000D02*
D03*
D83*
X1110000Y1190000D02*
D03*
X650000D02*
D03*
Y690000D02*
D03*
X1110000D02*
D03*
X1110000Y590000D02*
D03*
X650000D02*
D03*
Y90000D02*
D03*
X1110000D02*
D03*
X550000Y590000D02*
D03*
X90000D02*
D03*
Y90000D02*
D03*
X550000D02*
D03*
D84*
X750000Y968000D02*
D03*
X849000Y219000D02*
D03*
X895000Y220000D02*
D03*
X769750Y362250D02*
D03*
X451750Y360250D02*
D03*
X440250Y483500D02*
D03*
X658240Y1534000D02*
D03*
X655490Y1265000D02*
D03*
X1260000Y1112490D02*
D03*
D85*
X330000Y1126000D02*
D03*
X250000D02*
D03*
D86*
X284000Y992000D02*
D03*
X316930Y932000D02*
D03*
X366000Y884000D02*
D03*
X252000Y900000D02*
D03*
D87*
X483200Y1407300D02*
D03*
Y1432700D02*
D03*
X634990Y1374600D02*
D03*
Y1400000D02*
D03*
X674990Y1374600D02*
D03*
Y1400000D02*
D03*
X1190000Y1149990D02*
D03*
Y1175390D02*
D03*
X1350000Y1149990D02*
D03*
Y1175390D02*
D03*
X1572300Y1140200D02*
D03*
X1597700D02*
D03*
Y1114800D02*
D03*
X1572300Y1430200D02*
D03*
X1597700D02*
D03*
Y1404800D02*
D03*
D88*
X634990Y1425400D02*
D03*
X674990D02*
D03*
X1190000Y1124590D02*
D03*
X1350000D02*
D03*
D89*
X1572300Y1114800D02*
D03*
Y1404800D02*
D03*
D90*
X773250Y922250D02*
D03*
X760250D02*
D03*
X747000Y897000D02*
D03*
X760000D02*
D03*
X752750Y217000D02*
D03*
X739750D02*
D03*
X752750Y457500D02*
D03*
X739750D02*
D03*
X752750Y337000D02*
D03*
X739750D02*
D03*
D91*
X309192Y909192D02*
D03*
X284090Y897525D02*
D03*
X297525Y884090D02*
D03*
D92*
X674990Y1285000D02*
D03*
Y1265000D02*
D03*
M02*
