G04 Layer_Color=32896*
%FSLAX44Y44*%
%MOMM*%
G71*
G01*
G75*
%ADD50C,0.2540*%
%ADD51C,0.2000*%
%ADD93C,0.0508*%
%ADD94C,0.0254*%
D50*
X753500Y448750D02*
G03*
X753500Y448750I-1250J0D01*
G01*
X752750Y330750D02*
G03*
X752750Y330750I-1250J0D01*
G01*
X755000Y206750D02*
G03*
X755000Y206750I-1250J0D01*
G01*
X690240Y1517404D02*
G03*
X690240Y1517404I0J-1904D01*
G01*
X690490Y1288601D02*
G03*
X690490Y1288601I0J-1601D01*
G01*
X1331399Y1170490D02*
G03*
X1331399Y1170490I1601J0D01*
G01*
X1202596Y1170240D02*
G03*
X1202596Y1170240I1904J0D01*
G01*
D51*
X765250Y918250D02*
Y927250D01*
X777750Y917250D02*
Y927250D01*
X755750D02*
X777750D01*
X755750Y917250D02*
Y927250D01*
Y917250D02*
X777750D01*
X755000Y892000D02*
Y901000D01*
X742500Y892000D02*
Y902000D01*
Y892000D02*
X764500D01*
Y902000D01*
X742500D02*
X764500D01*
X296995Y876135D02*
X305480Y884620D01*
X286919Y908132D02*
X308132Y886918D01*
X286919Y908132D02*
X291868Y913082D01*
X313081Y891868D01*
X308132Y886918D02*
X313081Y891868D01*
X735250Y222000D02*
X757250D01*
Y212000D02*
Y222000D01*
X735250Y212000D02*
X757250D01*
X735250D02*
Y222000D01*
X747750Y212000D02*
Y221000D01*
X735250Y462500D02*
X757250D01*
Y452500D02*
Y462500D01*
X735250Y452500D02*
X757250D01*
X735250D02*
Y462500D01*
X747750Y452500D02*
Y461500D01*
X735250Y342000D02*
X757250D01*
Y332000D02*
Y342000D01*
X735250Y332000D02*
X757250D01*
X735250D02*
Y342000D01*
X747750Y332000D02*
Y341000D01*
X886500Y204500D02*
X899000D01*
X886500Y178000D02*
X899000D01*
X886500D02*
Y204500D01*
X899000Y178000D02*
Y204500D01*
X683240Y1508000D02*
Y1542000D01*
X666740Y1508000D02*
Y1542000D01*
X683240Y1508000D02*
X666740D01*
X683240Y1542000D02*
X666740D01*
Y1258000D02*
Y1292000D01*
X683240Y1258000D02*
Y1292000D01*
X666740D01*
X683240Y1258000D02*
X666740D01*
X1253000Y1138240D02*
Y1121740D01*
X1287000Y1138240D02*
Y1121740D01*
X1253000D01*
X1287000Y1138240D02*
X1253000D01*
D93*
X1466704Y811860D02*
Y824052D01*
X1466196Y808812D02*
Y827100D01*
X1465688Y806272D02*
Y829132D01*
X1465180Y804748D02*
Y831164D01*
X1464672Y803224D02*
Y832688D01*
X1464164Y801700D02*
Y833704D01*
X1463656Y800176D02*
Y835228D01*
X1463148Y799160D02*
Y836244D01*
X1462640Y798144D02*
Y837260D01*
X1462132Y797128D02*
Y838276D01*
X1461624Y796112D02*
Y839292D01*
X1461116Y795096D02*
Y840308D01*
X1460608Y794080D02*
Y841324D01*
X1460100Y793572D02*
Y841832D01*
X1459592Y792556D02*
Y842848D01*
X1459084Y792048D02*
Y843356D01*
X1458576Y791032D02*
Y844372D01*
X1458068Y790524D02*
Y844880D01*
X1457560Y790016D02*
Y845388D01*
X1457052Y789000D02*
Y846404D01*
X1456544Y788492D02*
Y846912D01*
X1456036Y788492D02*
Y847420D01*
X1455528Y787984D02*
Y847928D01*
X1455020Y787476D02*
Y848436D01*
X1454512Y821512D02*
Y848944D01*
Y787476D02*
Y813892D01*
X1454004Y824560D02*
Y849452D01*
Y794588D02*
Y810844D01*
Y787476D02*
Y792048D01*
X1453496Y826592D02*
Y849960D01*
Y795096D02*
Y808812D01*
Y786968D02*
Y791540D01*
X1452988Y828116D02*
Y850468D01*
Y795604D02*
Y807288D01*
Y786968D02*
Y791032D01*
X1452480Y829640D02*
Y850976D01*
Y795604D02*
Y805764D01*
Y786968D02*
Y791032D01*
X1451972Y830656D02*
Y851484D01*
Y795604D02*
Y804748D01*
Y786968D02*
Y791032D01*
X1451464Y832180D02*
Y851992D01*
Y795604D02*
Y803732D01*
Y786968D02*
Y791032D01*
X1450956Y833196D02*
Y852500D01*
Y795096D02*
Y802716D01*
Y786968D02*
Y791032D01*
X1450448Y833704D02*
Y853008D01*
Y813892D02*
Y822020D01*
Y795096D02*
Y801700D01*
Y787476D02*
Y791540D01*
X1449940Y834720D02*
Y853008D01*
Y810844D02*
Y824560D01*
Y794080D02*
Y800684D01*
Y787476D02*
Y792048D01*
X1449432Y835736D02*
Y853516D01*
Y809320D02*
Y826592D01*
Y787476D02*
Y800176D01*
X1448924Y836244D02*
Y854024D01*
Y807796D02*
Y828116D01*
Y787984D02*
Y799160D01*
X1448416Y837260D02*
Y854532D01*
Y806272D02*
Y829132D01*
Y788492D02*
Y798652D01*
X1447908Y837768D02*
Y854532D01*
Y805256D02*
Y830148D01*
Y788492D02*
Y797636D01*
X1447400Y838276D02*
Y855040D01*
Y804240D02*
Y831164D01*
Y789508D02*
Y797128D01*
X1446892Y838784D02*
Y855548D01*
Y803224D02*
Y832180D01*
Y790016D02*
Y796620D01*
X1446384Y839800D02*
Y855548D01*
Y802716D02*
Y833196D01*
Y791032D02*
Y795096D01*
X1445876Y840308D02*
Y856056D01*
Y801700D02*
Y833704D01*
X1445368Y840816D02*
Y856564D01*
Y801192D02*
Y834720D01*
X1444860Y841324D02*
Y856564D01*
Y800176D02*
Y835228D01*
X1444352Y841832D02*
Y857072D01*
Y799668D02*
Y835736D01*
X1443844Y842340D02*
Y857072D01*
Y799160D02*
Y836752D01*
X1443336Y842340D02*
Y857580D01*
Y798652D02*
Y836752D01*
X1442828Y842848D02*
Y858088D01*
Y798144D02*
Y837260D01*
X1442320Y843356D02*
Y858088D01*
Y797636D02*
Y837768D01*
X1441812Y843864D02*
Y858596D01*
Y797128D02*
Y837768D01*
X1441304Y844372D02*
Y858596D01*
Y796620D02*
Y837768D01*
X1440796Y844372D02*
Y859104D01*
Y796112D02*
Y838276D01*
X1440288Y844880D02*
Y859104D01*
Y795604D02*
Y838276D01*
X1439780Y845388D02*
Y859104D01*
Y795096D02*
Y838276D01*
X1439272Y845388D02*
Y859612D01*
Y794588D02*
Y838276D01*
X1438764Y845896D02*
Y859612D01*
Y794588D02*
Y838276D01*
X1438256Y846404D02*
Y860120D01*
Y819480D02*
Y838276D01*
Y794080D02*
Y815924D01*
X1437748Y846404D02*
Y860120D01*
Y822020D02*
Y837768D01*
Y793572D02*
Y813384D01*
X1437240Y846912D02*
Y860120D01*
Y823544D02*
Y837768D01*
Y793572D02*
Y811860D01*
X1436732Y846912D02*
Y860628D01*
Y825068D02*
Y837768D01*
Y793064D02*
Y810844D01*
X1436224Y847420D02*
Y860628D01*
Y826084D02*
Y837260D01*
Y792556D02*
Y809828D01*
X1435716Y847420D02*
Y860628D01*
Y826592D02*
Y836752D01*
Y792556D02*
Y808812D01*
X1435208Y847928D02*
Y861136D01*
Y827608D02*
Y836752D01*
Y792048D02*
Y808304D01*
X1434700Y847928D02*
Y861136D01*
Y828116D02*
Y836244D01*
Y792048D02*
Y807796D01*
X1434192Y847928D02*
Y861136D01*
Y828624D02*
Y835228D01*
Y791540D02*
Y806780D01*
X1433684Y848436D02*
Y861644D01*
Y830148D02*
Y834212D01*
Y791540D02*
Y806272D01*
X1433176Y848436D02*
Y861644D01*
Y791032D02*
Y805764D01*
X1432668Y848944D02*
Y861644D01*
Y791032D02*
Y805256D01*
X1432160Y848944D02*
Y861644D01*
Y791032D02*
Y805256D01*
X1431652Y848944D02*
Y862152D01*
Y790524D02*
Y804748D01*
X1431144Y849452D02*
Y862152D01*
Y790524D02*
Y804240D01*
X1430636Y849452D02*
Y862152D01*
Y790524D02*
Y803732D01*
X1430128Y849452D02*
Y862152D01*
Y790016D02*
Y803732D01*
X1429620Y849452D02*
Y862152D01*
Y790016D02*
Y803224D01*
X1429112Y849960D02*
Y862660D01*
Y790016D02*
Y803224D01*
X1428604Y849960D02*
Y862660D01*
Y789508D02*
Y802716D01*
X1428096Y816940D02*
Y862660D01*
Y789508D02*
Y802716D01*
X1427588Y814908D02*
Y862660D01*
Y789508D02*
Y802208D01*
X1427080Y813892D02*
Y862660D01*
Y789508D02*
Y802208D01*
X1426572Y813384D02*
Y862660D01*
Y789508D02*
Y802208D01*
X1426064Y812876D02*
Y862660D01*
Y789508D02*
Y801700D01*
X1425556Y812368D02*
Y862660D01*
Y789000D02*
Y801700D01*
X1425048Y818972D02*
Y862660D01*
Y812368D02*
Y816940D01*
Y789000D02*
Y801700D01*
X1424540Y819480D02*
Y862660D01*
Y811860D02*
Y815924D01*
Y789000D02*
Y801700D01*
X1424032Y820496D02*
Y863168D01*
Y811860D02*
Y815416D01*
Y789000D02*
Y801700D01*
X1423524Y820496D02*
Y863168D01*
Y811860D02*
Y814908D01*
Y789000D02*
Y801700D01*
X1423016Y821004D02*
Y863168D01*
Y811352D02*
Y814400D01*
Y789000D02*
Y801192D01*
X1422508Y821004D02*
Y863168D01*
Y811352D02*
Y814400D01*
Y789000D02*
Y801192D01*
X1422000Y821004D02*
Y863168D01*
Y811352D02*
Y814400D01*
Y789000D02*
Y801192D01*
X1421492Y821004D02*
Y863168D01*
Y811352D02*
Y814400D01*
Y789000D02*
Y801192D01*
X1420984Y821004D02*
Y863168D01*
Y811352D02*
Y814400D01*
Y789000D02*
Y801192D01*
X1420476Y820496D02*
Y863168D01*
Y811352D02*
Y814908D01*
Y789000D02*
Y801192D01*
X1419968Y820496D02*
Y863168D01*
Y811860D02*
Y814908D01*
Y789000D02*
Y801700D01*
X1419460Y819988D02*
Y863168D01*
Y811860D02*
Y815416D01*
Y789000D02*
Y801700D01*
X1418952Y819480D02*
Y862660D01*
Y812368D02*
Y816432D01*
Y789000D02*
Y801700D01*
X1418444Y812368D02*
Y862660D01*
Y789000D02*
Y801700D01*
X1417936Y812876D02*
Y862660D01*
Y789000D02*
Y801700D01*
X1417428Y813384D02*
Y862660D01*
Y789508D02*
Y802208D01*
X1416920Y813892D02*
Y862660D01*
Y789508D02*
Y802208D01*
X1416412Y814908D02*
Y862660D01*
Y789508D02*
Y802208D01*
X1415904Y816432D02*
Y862660D01*
Y789508D02*
Y802716D01*
X1415396Y849960D02*
Y862660D01*
Y789508D02*
Y802716D01*
X1414888Y849960D02*
Y862660D01*
Y790016D02*
Y802716D01*
X1414380Y849960D02*
Y862152D01*
Y790016D02*
Y803224D01*
X1413872Y849452D02*
Y862152D01*
Y790016D02*
Y803732D01*
X1413364Y849452D02*
Y862152D01*
Y790016D02*
Y803732D01*
X1412856Y849452D02*
Y862152D01*
Y790524D02*
Y804240D01*
X1412348Y848944D02*
Y862152D01*
Y790524D02*
Y804240D01*
X1411840Y848944D02*
Y861644D01*
Y790524D02*
Y804748D01*
X1411332Y848944D02*
Y861644D01*
Y791032D02*
Y805256D01*
X1410824Y848436D02*
Y861644D01*
Y791032D02*
Y805764D01*
X1410316Y848436D02*
Y861644D01*
Y830656D02*
Y833704D01*
Y791540D02*
Y806272D01*
X1409808Y848436D02*
Y861136D01*
Y829132D02*
Y834720D01*
Y791540D02*
Y806780D01*
X1409300Y847928D02*
Y861136D01*
Y828624D02*
Y835736D01*
Y792048D02*
Y807288D01*
X1408792Y847928D02*
Y861136D01*
Y827608D02*
Y836244D01*
Y792048D02*
Y807796D01*
X1408284Y847420D02*
Y861136D01*
Y827100D02*
Y836752D01*
Y792556D02*
Y808812D01*
X1407776Y847420D02*
Y860628D01*
Y826084D02*
Y837260D01*
Y792556D02*
Y809320D01*
X1407268Y846912D02*
Y860628D01*
Y825068D02*
Y837768D01*
Y793064D02*
Y810336D01*
X1406760Y846912D02*
Y860628D01*
Y824052D02*
Y837768D01*
Y793064D02*
Y811352D01*
X1406252Y846404D02*
Y860120D01*
Y823036D02*
Y837768D01*
Y793572D02*
Y812876D01*
X1405744Y846404D02*
Y860120D01*
Y821004D02*
Y838276D01*
Y794080D02*
Y814908D01*
X1405236Y845896D02*
Y859612D01*
Y794080D02*
Y838276D01*
X1404728Y845896D02*
Y859612D01*
Y794588D02*
Y838276D01*
X1404220Y845388D02*
Y859612D01*
Y795096D02*
Y838276D01*
X1403712Y844880D02*
Y859104D01*
Y795604D02*
Y838276D01*
X1403204Y844880D02*
Y859104D01*
Y795604D02*
Y838276D01*
X1402696Y844372D02*
Y858596D01*
Y796112D02*
Y838276D01*
X1402188Y843864D02*
Y858596D01*
Y796620D02*
Y837768D01*
X1401680Y843356D02*
Y858088D01*
Y797128D02*
Y837768D01*
X1401172Y843356D02*
Y858088D01*
Y797636D02*
Y837260D01*
X1400664Y842848D02*
Y857580D01*
Y798144D02*
Y837260D01*
X1400156Y842340D02*
Y857580D01*
Y798652D02*
Y836752D01*
X1399648Y841832D02*
Y857072D01*
Y799668D02*
Y836244D01*
X1399140Y841324D02*
Y857072D01*
Y800176D02*
Y835736D01*
X1398632Y840816D02*
Y856564D01*
Y800684D02*
Y834720D01*
X1398124Y840308D02*
Y856056D01*
Y801192D02*
Y834212D01*
X1397616Y839800D02*
Y856056D01*
Y802208D02*
Y833704D01*
Y792048D02*
Y794588D01*
X1397108Y839292D02*
Y855548D01*
Y803224D02*
Y832688D01*
Y790524D02*
Y796112D01*
X1396600Y838784D02*
Y855040D01*
Y803732D02*
Y831672D01*
Y789508D02*
Y796620D01*
X1396092Y837768D02*
Y855040D01*
Y804748D02*
Y830656D01*
Y789000D02*
Y797636D01*
X1395584Y837260D02*
Y854532D01*
Y805764D02*
Y829640D01*
Y788492D02*
Y798144D01*
X1395076Y836752D02*
Y854024D01*
Y807288D02*
Y828624D01*
Y787984D02*
Y798652D01*
X1394568Y835736D02*
Y854024D01*
Y808304D02*
Y827100D01*
Y787984D02*
Y799668D01*
X1394060Y835228D02*
Y853516D01*
Y810336D02*
Y825576D01*
Y787476D02*
Y800176D01*
X1393552Y834212D02*
Y853008D01*
Y812368D02*
Y823036D01*
Y794588D02*
Y801192D01*
Y787476D02*
Y792048D01*
X1393044Y833196D02*
Y852500D01*
Y795096D02*
Y802208D01*
Y786968D02*
Y791540D01*
X1392536Y832180D02*
Y851992D01*
Y795604D02*
Y803224D01*
Y786968D02*
Y791032D01*
X1392028Y831164D02*
Y851484D01*
Y795604D02*
Y804240D01*
Y786968D02*
Y791032D01*
X1391520Y830148D02*
Y851484D01*
Y795604D02*
Y805256D01*
Y786968D02*
Y791032D01*
X1391012Y829132D02*
Y850976D01*
Y795604D02*
Y806780D01*
Y786968D02*
Y791032D01*
X1390504Y827608D02*
Y850468D01*
Y795096D02*
Y808304D01*
Y786968D02*
Y791032D01*
X1389996Y825576D02*
Y849960D01*
Y795096D02*
Y809828D01*
Y786968D02*
Y791540D01*
X1389488Y823036D02*
Y849452D01*
Y794080D02*
Y812368D01*
Y787476D02*
Y792048D01*
X1388980Y787476D02*
Y848944D01*
X1388472Y787984D02*
Y848436D01*
X1387964Y787984D02*
Y847928D01*
X1387456Y788492D02*
Y846912D01*
X1386948Y789000D02*
Y846404D01*
X1386440Y789508D02*
Y845896D01*
X1385932Y790524D02*
Y845388D01*
X1385424Y791032D02*
Y844372D01*
X1384916Y791540D02*
Y843864D01*
X1384408Y792556D02*
Y843356D01*
X1383900Y793064D02*
Y842340D01*
X1383392Y794080D02*
Y841324D01*
X1382884Y794588D02*
Y840816D01*
X1382376Y795604D02*
Y839800D01*
X1381868Y796620D02*
Y838784D01*
X1381360Y797636D02*
Y837768D01*
X1380852Y798652D02*
Y836752D01*
X1380344Y799668D02*
Y835736D01*
X1379836Y801192D02*
Y834212D01*
X1379328Y802208D02*
Y833196D01*
X1378820Y803732D02*
Y831672D01*
X1378312Y805764D02*
Y830148D01*
X1377804Y807796D02*
Y828116D01*
X1377296Y810336D02*
Y825068D01*
X1376788Y814400D02*
Y821004D01*
X1459308Y283900D02*
Y296092D01*
X1458800Y280852D02*
Y299140D01*
X1458292Y278312D02*
Y301172D01*
X1457784Y276788D02*
Y303204D01*
X1457276Y275264D02*
Y304728D01*
X1456768Y273740D02*
Y305744D01*
X1456260Y272216D02*
Y307268D01*
X1455752Y271200D02*
Y308284D01*
X1455244Y270184D02*
Y309300D01*
X1454736Y269168D02*
Y310316D01*
X1454228Y268152D02*
Y311332D01*
X1453720Y267136D02*
Y312348D01*
X1453212Y266120D02*
Y313364D01*
X1452704Y265612D02*
Y313872D01*
X1452196Y264596D02*
Y314888D01*
X1451688Y264088D02*
Y315396D01*
X1451180Y263072D02*
Y316412D01*
X1450672Y262564D02*
Y316920D01*
X1450164Y262056D02*
Y317428D01*
X1449656Y261040D02*
Y318444D01*
X1449148Y260532D02*
Y318952D01*
X1448640Y260532D02*
Y319460D01*
X1448132Y260024D02*
Y319968D01*
X1447624Y259516D02*
Y320476D01*
X1447116Y293552D02*
Y320984D01*
Y259516D02*
Y285932D01*
X1446608Y296600D02*
Y321492D01*
Y266628D02*
Y282884D01*
Y259516D02*
Y264088D01*
X1446100Y298632D02*
Y322000D01*
Y267136D02*
Y280852D01*
Y259008D02*
Y263580D01*
X1445592Y300156D02*
Y322508D01*
Y267644D02*
Y279328D01*
Y259008D02*
Y263072D01*
X1445084Y301680D02*
Y323016D01*
Y267644D02*
Y277804D01*
Y259008D02*
Y263072D01*
X1444576Y302696D02*
Y323524D01*
Y267644D02*
Y276788D01*
Y259008D02*
Y263072D01*
X1444068Y304220D02*
Y324032D01*
Y267644D02*
Y275772D01*
Y259008D02*
Y263072D01*
X1443560Y305236D02*
Y324540D01*
Y267136D02*
Y274756D01*
Y259008D02*
Y263072D01*
X1443052Y305744D02*
Y325048D01*
Y285932D02*
Y294060D01*
Y267136D02*
Y273740D01*
Y259516D02*
Y263580D01*
X1442544Y306760D02*
Y325048D01*
Y282884D02*
Y296600D01*
Y266120D02*
Y272724D01*
Y259516D02*
Y264088D01*
X1442036Y307776D02*
Y325556D01*
Y281360D02*
Y298632D01*
Y259516D02*
Y272216D01*
X1441528Y308284D02*
Y326064D01*
Y279836D02*
Y300156D01*
Y260024D02*
Y271200D01*
X1441020Y309300D02*
Y326572D01*
Y278312D02*
Y301172D01*
Y260532D02*
Y270692D01*
X1440512Y309808D02*
Y326572D01*
Y277296D02*
Y302188D01*
Y260532D02*
Y269676D01*
X1440004Y310316D02*
Y327080D01*
Y276280D02*
Y303204D01*
Y261548D02*
Y269168D01*
X1439496Y310824D02*
Y327588D01*
Y275264D02*
Y304220D01*
Y262056D02*
Y268660D01*
X1438988Y311840D02*
Y327588D01*
Y274756D02*
Y305236D01*
Y263072D02*
Y267136D01*
X1438480Y312348D02*
Y328096D01*
Y273740D02*
Y305744D01*
X1437972Y312856D02*
Y328604D01*
Y273232D02*
Y306760D01*
X1437464Y313364D02*
Y328604D01*
Y272216D02*
Y307268D01*
X1436956Y313872D02*
Y329112D01*
Y271708D02*
Y307776D01*
X1436448Y314380D02*
Y329112D01*
Y271200D02*
Y308792D01*
X1435940Y314380D02*
Y329620D01*
Y270692D02*
Y308792D01*
X1435432Y314888D02*
Y330128D01*
Y270184D02*
Y309300D01*
X1434924Y315396D02*
Y330128D01*
Y269676D02*
Y309808D01*
X1434416Y315904D02*
Y330636D01*
Y269168D02*
Y309808D01*
X1433908Y316412D02*
Y330636D01*
Y268660D02*
Y309808D01*
X1433400Y316412D02*
Y331144D01*
Y268152D02*
Y310316D01*
X1432892Y316920D02*
Y331144D01*
Y267644D02*
Y310316D01*
X1432384Y317428D02*
Y331144D01*
Y267136D02*
Y310316D01*
X1431876Y317428D02*
Y331652D01*
Y266628D02*
Y310316D01*
X1431368Y317936D02*
Y331652D01*
Y266628D02*
Y310316D01*
X1430860Y318444D02*
Y332160D01*
Y291520D02*
Y310316D01*
Y266120D02*
Y287964D01*
X1430352Y318444D02*
Y332160D01*
Y294060D02*
Y309808D01*
Y265612D02*
Y285424D01*
X1429844Y318952D02*
Y332160D01*
Y295584D02*
Y309808D01*
Y265612D02*
Y283900D01*
X1429336Y318952D02*
Y332668D01*
Y297108D02*
Y309808D01*
Y265104D02*
Y282884D01*
X1428828Y319460D02*
Y332668D01*
Y298124D02*
Y309300D01*
Y264596D02*
Y281868D01*
X1428320Y319460D02*
Y332668D01*
Y298632D02*
Y308792D01*
Y264596D02*
Y280852D01*
X1427812Y319968D02*
Y333176D01*
Y299648D02*
Y308792D01*
Y264088D02*
Y280344D01*
X1427304Y319968D02*
Y333176D01*
Y300156D02*
Y308284D01*
Y264088D02*
Y279836D01*
X1426796Y319968D02*
Y333176D01*
Y300664D02*
Y307268D01*
Y263580D02*
Y278820D01*
X1426288Y320476D02*
Y333684D01*
Y302188D02*
Y306252D01*
Y263580D02*
Y278312D01*
X1425780Y320476D02*
Y333684D01*
Y263072D02*
Y277804D01*
X1425272Y320984D02*
Y333684D01*
Y263072D02*
Y277296D01*
X1424764Y320984D02*
Y333684D01*
Y263072D02*
Y277296D01*
X1424256Y320984D02*
Y334192D01*
Y262564D02*
Y276788D01*
X1423748Y321492D02*
Y334192D01*
Y262564D02*
Y276280D01*
X1423240Y321492D02*
Y334192D01*
Y262564D02*
Y275772D01*
X1422732Y321492D02*
Y334192D01*
Y262056D02*
Y275772D01*
X1422224Y321492D02*
Y334192D01*
Y262056D02*
Y275264D01*
X1421716Y322000D02*
Y334700D01*
Y262056D02*
Y275264D01*
X1421208Y322000D02*
Y334700D01*
Y261548D02*
Y274756D01*
X1420700Y288980D02*
Y334700D01*
Y261548D02*
Y274756D01*
X1420192Y286948D02*
Y334700D01*
Y261548D02*
Y274248D01*
X1419684Y285932D02*
Y334700D01*
Y261548D02*
Y274248D01*
X1419176Y285424D02*
Y334700D01*
Y261548D02*
Y274248D01*
X1418668Y284916D02*
Y334700D01*
Y261548D02*
Y273740D01*
X1418160Y284408D02*
Y334700D01*
Y261040D02*
Y273740D01*
X1417652Y291012D02*
Y334700D01*
Y284408D02*
Y288980D01*
Y261040D02*
Y273740D01*
X1417144Y291520D02*
Y334700D01*
Y283900D02*
Y287964D01*
Y261040D02*
Y273740D01*
X1416636Y292536D02*
Y335208D01*
Y283900D02*
Y287456D01*
Y261040D02*
Y273740D01*
X1416128Y292536D02*
Y335208D01*
Y283900D02*
Y286948D01*
Y261040D02*
Y273740D01*
X1415620Y293044D02*
Y335208D01*
Y283392D02*
Y286440D01*
Y261040D02*
Y273232D01*
X1415112Y293044D02*
Y335208D01*
Y283392D02*
Y286440D01*
Y261040D02*
Y273232D01*
X1414604Y293044D02*
Y335208D01*
Y283392D02*
Y286440D01*
Y261040D02*
Y273232D01*
X1414096Y293044D02*
Y335208D01*
Y283392D02*
Y286440D01*
Y261040D02*
Y273232D01*
X1413588Y293044D02*
Y335208D01*
Y283392D02*
Y286440D01*
Y261040D02*
Y273232D01*
X1413080Y292536D02*
Y335208D01*
Y283392D02*
Y286948D01*
Y261040D02*
Y273232D01*
X1412572Y292536D02*
Y335208D01*
Y283900D02*
Y286948D01*
Y261040D02*
Y273740D01*
X1412064Y292028D02*
Y335208D01*
Y283900D02*
Y287456D01*
Y261040D02*
Y273740D01*
X1411556Y291520D02*
Y334700D01*
Y284408D02*
Y288472D01*
Y261040D02*
Y273740D01*
X1411048Y284408D02*
Y334700D01*
Y261040D02*
Y273740D01*
X1410540Y284916D02*
Y334700D01*
Y261040D02*
Y273740D01*
X1410032Y285424D02*
Y334700D01*
Y261548D02*
Y274248D01*
X1409524Y285932D02*
Y334700D01*
Y261548D02*
Y274248D01*
X1409016Y286948D02*
Y334700D01*
Y261548D02*
Y274248D01*
X1408508Y288472D02*
Y334700D01*
Y261548D02*
Y274756D01*
X1408000Y322000D02*
Y334700D01*
Y261548D02*
Y274756D01*
X1407492Y322000D02*
Y334700D01*
Y262056D02*
Y274756D01*
X1406984Y322000D02*
Y334192D01*
Y262056D02*
Y275264D01*
X1406476Y321492D02*
Y334192D01*
Y262056D02*
Y275772D01*
X1405968Y321492D02*
Y334192D01*
Y262056D02*
Y275772D01*
X1405460Y321492D02*
Y334192D01*
Y262564D02*
Y276280D01*
X1404952Y320984D02*
Y334192D01*
Y262564D02*
Y276280D01*
X1404444Y320984D02*
Y333684D01*
Y262564D02*
Y276788D01*
X1403936Y320984D02*
Y333684D01*
Y263072D02*
Y277296D01*
X1403428Y320476D02*
Y333684D01*
Y263072D02*
Y277804D01*
X1402920Y320476D02*
Y333684D01*
Y302696D02*
Y305744D01*
Y263580D02*
Y278312D01*
X1402412Y320476D02*
Y333176D01*
Y301172D02*
Y306760D01*
Y263580D02*
Y278820D01*
X1401904Y319968D02*
Y333176D01*
Y300664D02*
Y307776D01*
Y264088D02*
Y279328D01*
X1401396Y319968D02*
Y333176D01*
Y299648D02*
Y308284D01*
Y264088D02*
Y279836D01*
X1400888Y319460D02*
Y333176D01*
Y299140D02*
Y308792D01*
Y264596D02*
Y280852D01*
X1400380Y319460D02*
Y332668D01*
Y298124D02*
Y309300D01*
Y264596D02*
Y281360D01*
X1399872Y318952D02*
Y332668D01*
Y297108D02*
Y309808D01*
Y265104D02*
Y282376D01*
X1399364Y318952D02*
Y332668D01*
Y296092D02*
Y309808D01*
Y265104D02*
Y283392D01*
X1398856Y318444D02*
Y332160D01*
Y295076D02*
Y309808D01*
Y265612D02*
Y284916D01*
X1398348Y318444D02*
Y332160D01*
Y293044D02*
Y310316D01*
Y266120D02*
Y286948D01*
X1397840Y317936D02*
Y331652D01*
Y266120D02*
Y310316D01*
X1397332Y317936D02*
Y331652D01*
Y266628D02*
Y310316D01*
X1396824Y317428D02*
Y331652D01*
Y267136D02*
Y310316D01*
X1396316Y316920D02*
Y331144D01*
Y267644D02*
Y310316D01*
X1395808Y316920D02*
Y331144D01*
Y267644D02*
Y310316D01*
X1395300Y316412D02*
Y330636D01*
Y268152D02*
Y310316D01*
X1394792Y315904D02*
Y330636D01*
Y268660D02*
Y309808D01*
X1394284Y315396D02*
Y330128D01*
Y269168D02*
Y309808D01*
X1393776Y315396D02*
Y330128D01*
Y269676D02*
Y309300D01*
X1393268Y314888D02*
Y329620D01*
Y270184D02*
Y309300D01*
X1392760Y314380D02*
Y329620D01*
Y270692D02*
Y308792D01*
X1392252Y313872D02*
Y329112D01*
Y271708D02*
Y308284D01*
X1391744Y313364D02*
Y329112D01*
Y272216D02*
Y307776D01*
X1391236Y312856D02*
Y328604D01*
Y272724D02*
Y306760D01*
X1390728Y312348D02*
Y328096D01*
Y273232D02*
Y306252D01*
X1390220Y311840D02*
Y328096D01*
Y274248D02*
Y305744D01*
Y264088D02*
Y266628D01*
X1389712Y311332D02*
Y327588D01*
Y275264D02*
Y304728D01*
Y262564D02*
Y268152D01*
X1389204Y310824D02*
Y327080D01*
Y275772D02*
Y303712D01*
Y261548D02*
Y268660D01*
X1388696Y309808D02*
Y327080D01*
Y276788D02*
Y302696D01*
Y261040D02*
Y269676D01*
X1388188Y309300D02*
Y326572D01*
Y277804D02*
Y301680D01*
Y260532D02*
Y270184D01*
X1387680Y308792D02*
Y326064D01*
Y279328D02*
Y300664D01*
Y260024D02*
Y270692D01*
X1387172Y307776D02*
Y326064D01*
Y280344D02*
Y299140D01*
Y260024D02*
Y271708D01*
X1386664Y307268D02*
Y325556D01*
Y282376D02*
Y297616D01*
Y259516D02*
Y272216D01*
X1386156Y306252D02*
Y325048D01*
Y284408D02*
Y295076D01*
Y266628D02*
Y273232D01*
Y259516D02*
Y264088D01*
X1385648Y305236D02*
Y324540D01*
Y267136D02*
Y274248D01*
Y259008D02*
Y263580D01*
X1385140Y304220D02*
Y324032D01*
Y267644D02*
Y275264D01*
Y259008D02*
Y263072D01*
X1384632Y303204D02*
Y323524D01*
Y267644D02*
Y276280D01*
Y259008D02*
Y263072D01*
X1384124Y302188D02*
Y323524D01*
Y267644D02*
Y277296D01*
Y259008D02*
Y263072D01*
X1383616Y301172D02*
Y323016D01*
Y267644D02*
Y278820D01*
Y259008D02*
Y263072D01*
X1383108Y299648D02*
Y322508D01*
Y267136D02*
Y280344D01*
Y259008D02*
Y263072D01*
X1382600Y297616D02*
Y322000D01*
Y267136D02*
Y281868D01*
Y259008D02*
Y263580D01*
X1382092Y295076D02*
Y321492D01*
Y266120D02*
Y284408D01*
Y259516D02*
Y264088D01*
X1381584Y259516D02*
Y320984D01*
X1381076Y260024D02*
Y320476D01*
X1380568Y260024D02*
Y319968D01*
X1380060Y260532D02*
Y318952D01*
X1379552Y261040D02*
Y318444D01*
X1379044Y261548D02*
Y317936D01*
X1378536Y262564D02*
Y317428D01*
X1378028Y263072D02*
Y316412D01*
X1377520Y263580D02*
Y315904D01*
X1377012Y264596D02*
Y315396D01*
X1376504Y265104D02*
Y314380D01*
X1375996Y266120D02*
Y313364D01*
X1375488Y266628D02*
Y312856D01*
X1374980Y267644D02*
Y311840D01*
X1374472Y268660D02*
Y310824D01*
X1373964Y269676D02*
Y309808D01*
X1373456Y270692D02*
Y308792D01*
X1372948Y271708D02*
Y307776D01*
X1372440Y273232D02*
Y306252D01*
X1371932Y274248D02*
Y305236D01*
X1371424Y275772D02*
Y303712D01*
X1370916Y277804D02*
Y302188D01*
X1370408Y279836D02*
Y300156D01*
X1369900Y282376D02*
Y297108D01*
X1369392Y286440D02*
Y293044D01*
X891444Y889484D02*
X898048D01*
X887380Y889992D02*
X902112D01*
X884332Y890500D02*
X904652D01*
X882300Y891008D02*
X906684D01*
X880776Y891516D02*
X908716D01*
X879252Y892024D02*
X910240D01*
X878236Y892532D02*
X911256D01*
X876712Y893040D02*
X912780D01*
X875696Y893548D02*
X913796D01*
X874680Y894056D02*
X914812D01*
X873664Y894564D02*
X915828D01*
X872648Y895072D02*
X916844D01*
X871632Y895580D02*
X917860D01*
X871124Y896088D02*
X918368D01*
X870108Y896596D02*
X919384D01*
X869092Y897104D02*
X919892D01*
X868584Y897612D02*
X920908D01*
X868076Y898120D02*
X921416D01*
X867060Y898628D02*
X921924D01*
X866552Y899136D02*
X922940D01*
X866044Y899644D02*
X923448D01*
X865536Y900152D02*
X923956D01*
X864520Y900660D02*
X924464D01*
X864012Y901168D02*
X924464D01*
X863504Y901676D02*
X924972D01*
X920400Y902184D02*
X924972D01*
X900080D02*
X918368D01*
X862996D02*
X889412D01*
X920908Y902692D02*
X925480D01*
X902620D02*
X917352D01*
X862488D02*
X886872D01*
X921416Y903200D02*
X925480D01*
X904144D02*
X917352D01*
X861980D02*
X884840D01*
X921416Y903708D02*
X925480D01*
X905668D02*
X916844D01*
X861472D02*
X883316D01*
X921416Y904216D02*
X925480D01*
X907192D02*
X916844D01*
X860964D02*
X882300D01*
X921416Y904724D02*
X925480D01*
X908208D02*
X916844D01*
X860964D02*
X881284D01*
X921416Y905232D02*
X925480D01*
X909224D02*
X916844D01*
X860456D02*
X880268D01*
X920908Y905740D02*
X925480D01*
X910240D02*
X917352D01*
X859948D02*
X879252D01*
X920400Y906248D02*
X924972D01*
X911256D02*
X917860D01*
X889412D02*
X900080D01*
X859440D02*
X878236D01*
X912272Y906756D02*
X924972D01*
X886872D02*
X902112D01*
X858932D02*
X877220D01*
X912780Y907264D02*
X924464D01*
X885348D02*
X904144D01*
X858424D02*
X876712D01*
X913796Y907772D02*
X924464D01*
X883824D02*
X905160D01*
X858424D02*
X875696D01*
X914304Y908280D02*
X923956D01*
X882808D02*
X906684D01*
X857916D02*
X875188D01*
X914812Y908788D02*
X923448D01*
X881792D02*
X907700D01*
X857408D02*
X874680D01*
X915828Y909296D02*
X922940D01*
X880776D02*
X908716D01*
X857408D02*
X873664D01*
X916336Y909804D02*
X921924D01*
X879760D02*
X909224D01*
X856900D02*
X873156D01*
X917860Y910312D02*
X920400D01*
X878744D02*
X910240D01*
X856392D02*
X872648D01*
X878236Y910820D02*
X911256D01*
X856392D02*
X872140D01*
X877728Y911328D02*
X911764D01*
X855884D02*
X871632D01*
X876712Y911836D02*
X912272D01*
X855376D02*
X871124D01*
X876204Y912344D02*
X912780D01*
X855376D02*
X870616D01*
X875696Y912852D02*
X913796D01*
X854868D02*
X870108D01*
X875188Y913360D02*
X914304D01*
X854868D02*
X869600D01*
X875188Y913868D02*
X914812D01*
X854360D02*
X869092D01*
X874680Y914376D02*
X915320D01*
X854360D02*
X869092D01*
X874680Y914884D02*
X915828D01*
X853852D02*
X868584D01*
X874172Y915392D02*
X916336D01*
X853852D02*
X868076D01*
X874172Y915900D02*
X916844D01*
X853344D02*
X867568D01*
X874172Y916408D02*
X916844D01*
X853344D02*
X867568D01*
X874172Y916916D02*
X917352D01*
X852836D02*
X867060D01*
X874172Y917424D02*
X917860D01*
X852836D02*
X866552D01*
X874172Y917932D02*
X918368D01*
X852836D02*
X866552D01*
X897540Y918440D02*
X918368D01*
X874172D02*
X891444D01*
X852328D02*
X866044D01*
X899572Y918948D02*
X918876D01*
X874680D02*
X889412D01*
X852328D02*
X866044D01*
X901096Y919456D02*
X919384D01*
X874680D02*
X888396D01*
X851820D02*
X865536D01*
X902112Y919964D02*
X919384D01*
X874680D02*
X887380D01*
X851820D02*
X865536D01*
X903128Y920472D02*
X919892D01*
X875188D02*
X886364D01*
X851820D02*
X865028D01*
X903636Y920980D02*
X919892D01*
X875696D02*
X885348D01*
X851312D02*
X865028D01*
X904652Y921488D02*
X920400D01*
X876204D02*
X884840D01*
X851312D02*
X864520D01*
X905160Y921996D02*
X920400D01*
X876712D02*
X883824D01*
X851312D02*
X864520D01*
X905668Y922504D02*
X920908D01*
X877728D02*
X883316D01*
X851312D02*
X864012D01*
X906176Y923012D02*
X920908D01*
X878744D02*
X881792D01*
X850804D02*
X864012D01*
X906684Y923520D02*
X921416D01*
X850804D02*
X864012D01*
X907192Y924028D02*
X921416D01*
X850804D02*
X863504D01*
X907700Y924536D02*
X921924D01*
X850804D02*
X863504D01*
X908208Y925044D02*
X921924D01*
X850296D02*
X863504D01*
X908208Y925552D02*
X921924D01*
X850296D02*
X862996D01*
X908716Y926060D02*
X922432D01*
X850296D02*
X862996D01*
X908716Y926568D02*
X922432D01*
X850296D02*
X862996D01*
X909224Y927076D02*
X922432D01*
X850296D02*
X862488D01*
X909732Y927584D02*
X922432D01*
X849788D02*
X862488D01*
X909732Y928092D02*
X922940D01*
X849788D02*
X862488D01*
X909732Y928600D02*
X922940D01*
X849788D02*
X896016D01*
X910240Y929108D02*
X922940D01*
X849788D02*
X897540D01*
X910240Y929616D02*
X922940D01*
X849788D02*
X898556D01*
X910240Y930124D02*
X922940D01*
X849788D02*
X899064D01*
X910748Y930632D02*
X923448D01*
X849788D02*
X899572D01*
X910748Y931140D02*
X923448D01*
X849788D02*
X900080D01*
X910748Y931648D02*
X923448D01*
X896016D02*
X900080D01*
X849788D02*
X892968D01*
X910748Y932156D02*
X923448D01*
X897032D02*
X900588D01*
X849280D02*
X892460D01*
X910748Y932664D02*
X923448D01*
X897540D02*
X900588D01*
X849280D02*
X891952D01*
X911256Y933172D02*
X923448D01*
X897540D02*
X901096D01*
X849280D02*
X891952D01*
X911256Y933680D02*
X923448D01*
X898048D02*
X901096D01*
X849280D02*
X891444D01*
X911256Y934188D02*
X923448D01*
X898048D02*
X901096D01*
X849280D02*
X891444D01*
X911256Y934696D02*
X923448D01*
X898048D02*
X901096D01*
X849280D02*
X891444D01*
X911256Y935204D02*
X923448D01*
X898048D02*
X901096D01*
X849280D02*
X891444D01*
X911256Y935712D02*
X923448D01*
X898048D02*
X901096D01*
X849280D02*
X891444D01*
X910748Y936220D02*
X923448D01*
X897540D02*
X900588D01*
X849280D02*
X891952D01*
X910748Y936728D02*
X923448D01*
X897032D02*
X900588D01*
X849280D02*
X891952D01*
X910748Y937236D02*
X923448D01*
X896524D02*
X900588D01*
X849788D02*
X892968D01*
X910748Y937744D02*
X923448D01*
X895508D02*
X900080D01*
X849788D02*
X893476D01*
X910748Y938252D02*
X923448D01*
X849788D02*
X900080D01*
X910748Y938760D02*
X922940D01*
X849788D02*
X899572D01*
X910240Y939268D02*
X922940D01*
X849788D02*
X899064D01*
X910240Y939776D02*
X922940D01*
X849788D02*
X898556D01*
X910240Y940284D02*
X922940D01*
X849788D02*
X897540D01*
X909732Y940792D02*
X922940D01*
X849788D02*
X895508D01*
X909732Y941300D02*
X922940D01*
X849788D02*
X862488D01*
X909224Y941808D02*
X922432D01*
X849788D02*
X862488D01*
X909224Y942316D02*
X922432D01*
X850296D02*
X862996D01*
X908716Y942824D02*
X922432D01*
X850296D02*
X862996D01*
X908716Y943332D02*
X921924D01*
X850296D02*
X862996D01*
X908208Y943840D02*
X921924D01*
X850296D02*
X862996D01*
X907700Y944348D02*
X921924D01*
X850296D02*
X863504D01*
X907192Y944856D02*
X921416D01*
X850804D02*
X863504D01*
X907192Y945364D02*
X921416D01*
X850804D02*
X863504D01*
X906684Y945872D02*
X921416D01*
X850804D02*
X864012D01*
X906176Y946380D02*
X920908D01*
X878236D02*
X882300D01*
X850804D02*
X864012D01*
X905668Y946888D02*
X920908D01*
X877220D02*
X883824D01*
X851312D02*
X864520D01*
X904652Y947396D02*
X920400D01*
X876204D02*
X884332D01*
X851312D02*
X864520D01*
X904144Y947904D02*
X920400D01*
X875696D02*
X884840D01*
X851312D02*
X864520D01*
X903636Y948412D02*
X919892D01*
X875696D02*
X885856D01*
X851820D02*
X865028D01*
X902620Y948920D02*
X919892D01*
X875188D02*
X886364D01*
X851820D02*
X865028D01*
X901604Y949428D02*
X919384D01*
X874680D02*
X887380D01*
X851820D02*
X865536D01*
X900588Y949936D02*
X918876D01*
X874680D02*
X888904D01*
X852328D02*
X865536D01*
X899064Y950444D02*
X918876D01*
X874680D02*
X890428D01*
X852328D02*
X866044D01*
X896524Y950952D02*
X918368D01*
X874172D02*
X892968D01*
X852328D02*
X866044D01*
X874172Y951460D02*
X917860D01*
X852836D02*
X866552D01*
X874172Y951968D02*
X917860D01*
X852836D02*
X867060D01*
X874172Y952476D02*
X917352D01*
X853344D02*
X867060D01*
X874172Y952984D02*
X916844D01*
X853344D02*
X867568D01*
X874172Y953492D02*
X916336D01*
X853344D02*
X868076D01*
X874680Y954000D02*
X915828D01*
X853852D02*
X868076D01*
X874680Y954508D02*
X915320D01*
X853852D02*
X868584D01*
X874680Y955016D02*
X914812D01*
X854360D02*
X869092D01*
X875188Y955524D02*
X914304D01*
X854360D02*
X869600D01*
X875696Y956032D02*
X913796D01*
X854868D02*
X870108D01*
X875696Y956540D02*
X913288D01*
X855376D02*
X870108D01*
X876712Y957048D02*
X912780D01*
X855376D02*
X870616D01*
X877220Y957556D02*
X912272D01*
X855884D02*
X871124D01*
X877728Y958064D02*
X911256D01*
X855884D02*
X871632D01*
X878744Y958572D02*
X910748D01*
X856392D02*
X872140D01*
X917352Y959080D02*
X921416D01*
X879252D02*
X909732D01*
X856900D02*
X872648D01*
X915828Y959588D02*
X922432D01*
X880268D02*
X909224D01*
X856900D02*
X873664D01*
X915320Y960096D02*
X922940D01*
X881284D02*
X908208D01*
X857408D02*
X874172D01*
X914812Y960604D02*
X923956D01*
X882300D02*
X907192D01*
X857916D02*
X874680D01*
X913796Y961112D02*
X923956D01*
X883316D02*
X906176D01*
X857916D02*
X875188D01*
X913288Y961620D02*
X924464D01*
X884332D02*
X904652D01*
X858424D02*
X876204D01*
X912272Y962128D02*
X924972D01*
X885856D02*
X903128D01*
X858932D02*
X876712D01*
X920400Y962636D02*
X924972D01*
X911764D02*
X918368D01*
X887888D02*
X901604D01*
X859440D02*
X877728D01*
X920908Y963144D02*
X924972D01*
X910748D02*
X917352D01*
X890428D02*
X898556D01*
X859440D02*
X878744D01*
X921416Y963652D02*
X925480D01*
X909732D02*
X917352D01*
X859948D02*
X879252D01*
X921416Y964160D02*
X925480D01*
X908716D02*
X916844D01*
X860456D02*
X880268D01*
X921416Y964668D02*
X925480D01*
X907700D02*
X916844D01*
X860964D02*
X881792D01*
X921416Y965176D02*
X925480D01*
X906684D02*
X916844D01*
X861472D02*
X882808D01*
X921416Y965684D02*
X925480D01*
X905160D02*
X916844D01*
X861980D02*
X884332D01*
X920908Y966192D02*
X925480D01*
X903636D02*
X917352D01*
X862488D02*
X885856D01*
X920400Y966700D02*
X924972D01*
X901604D02*
X917860D01*
X862996D02*
X887888D01*
X898556Y967208D02*
X924972D01*
X863504D02*
X890936D01*
X864012Y967716D02*
X924972D01*
X864520Y968224D02*
X924464D01*
X865028Y968732D02*
X923956D01*
X865536Y969240D02*
X923956D01*
X866044Y969748D02*
X923448D01*
X867060Y970256D02*
X922432D01*
X867568Y970764D02*
X921924D01*
X868076Y971272D02*
X921416D01*
X869092Y971780D02*
X920400D01*
X869600Y972288D02*
X919892D01*
X870616Y972796D02*
X918876D01*
X871124Y973304D02*
X918368D01*
X872140Y973812D02*
X917352D01*
X873156Y974320D02*
X916336D01*
X874172Y974828D02*
X915320D01*
X875188Y975336D02*
X914304D01*
X876204Y975844D02*
X913288D01*
X877220Y976352D02*
X912272D01*
X878744Y976860D02*
X910748D01*
X879760Y977368D02*
X909224D01*
X881284Y977876D02*
X907700D01*
X883316Y978384D02*
X906176D01*
X885348Y978892D02*
X903636D01*
X888396Y979400D02*
X900588D01*
X345720Y1042856D02*
Y1055048D01*
X345212Y1039808D02*
Y1058096D01*
X344704Y1037268D02*
Y1060128D01*
X344196Y1035744D02*
Y1062160D01*
X343688Y1034220D02*
Y1063684D01*
X343180Y1032696D02*
Y1064700D01*
X342672Y1031172D02*
Y1066224D01*
X342164Y1030156D02*
Y1067240D01*
X341656Y1029140D02*
Y1068256D01*
X341148Y1028124D02*
Y1069272D01*
X340640Y1027108D02*
Y1070288D01*
X340132Y1026092D02*
Y1071304D01*
X339624Y1025076D02*
Y1072320D01*
X339116Y1024568D02*
Y1072828D01*
X338608Y1023552D02*
Y1073844D01*
X338100Y1023044D02*
Y1074352D01*
X337592Y1022028D02*
Y1075368D01*
X337084Y1021520D02*
Y1075876D01*
X336576Y1021012D02*
Y1076384D01*
X336068Y1019996D02*
Y1077400D01*
X335560Y1019488D02*
Y1077908D01*
X335052Y1019488D02*
Y1078416D01*
X334544Y1018980D02*
Y1078924D01*
X334036Y1018472D02*
Y1079432D01*
X333528Y1052508D02*
Y1079940D01*
Y1018472D02*
Y1044888D01*
X333020Y1055556D02*
Y1080448D01*
Y1025584D02*
Y1041840D01*
Y1018472D02*
Y1023044D01*
X332512Y1057588D02*
Y1080956D01*
Y1026092D02*
Y1039808D01*
Y1017964D02*
Y1022536D01*
X332004Y1059112D02*
Y1081464D01*
Y1026600D02*
Y1038284D01*
Y1017964D02*
Y1022028D01*
X331496Y1060636D02*
Y1081972D01*
Y1026600D02*
Y1036760D01*
Y1017964D02*
Y1022028D01*
X330988Y1061652D02*
Y1082480D01*
Y1026600D02*
Y1035744D01*
Y1017964D02*
Y1022028D01*
X330480Y1063176D02*
Y1082988D01*
Y1026600D02*
Y1034728D01*
Y1017964D02*
Y1022028D01*
X329972Y1064192D02*
Y1083496D01*
Y1026092D02*
Y1033712D01*
Y1017964D02*
Y1022028D01*
X329464Y1064700D02*
Y1084004D01*
Y1044888D02*
Y1053016D01*
Y1026092D02*
Y1032696D01*
Y1018472D02*
Y1022536D01*
X328956Y1065716D02*
Y1084004D01*
Y1041840D02*
Y1055556D01*
Y1025076D02*
Y1031680D01*
Y1018472D02*
Y1023044D01*
X328448Y1066732D02*
Y1084512D01*
Y1040316D02*
Y1057588D01*
Y1018472D02*
Y1031172D01*
X327940Y1067240D02*
Y1085020D01*
Y1038792D02*
Y1059112D01*
Y1018980D02*
Y1030156D01*
X327432Y1068256D02*
Y1085528D01*
Y1037268D02*
Y1060128D01*
Y1019488D02*
Y1029648D01*
X326924Y1068764D02*
Y1085528D01*
Y1036252D02*
Y1061144D01*
Y1019488D02*
Y1028632D01*
X326416Y1069272D02*
Y1086036D01*
Y1035236D02*
Y1062160D01*
Y1020504D02*
Y1028124D01*
X325908Y1069780D02*
Y1086544D01*
Y1034220D02*
Y1063176D01*
Y1021012D02*
Y1027616D01*
X325400Y1070796D02*
Y1086544D01*
Y1033712D02*
Y1064192D01*
Y1022028D02*
Y1026092D01*
X324892Y1071304D02*
Y1087052D01*
Y1032696D02*
Y1064700D01*
X324384Y1071812D02*
Y1087560D01*
Y1032188D02*
Y1065716D01*
X323876Y1072320D02*
Y1087560D01*
Y1031172D02*
Y1066224D01*
X323368Y1072828D02*
Y1088068D01*
Y1030664D02*
Y1066732D01*
X322860Y1073336D02*
Y1088068D01*
Y1030156D02*
Y1067748D01*
X322352Y1073336D02*
Y1088576D01*
Y1029648D02*
Y1067748D01*
X321844Y1073844D02*
Y1089084D01*
Y1029140D02*
Y1068256D01*
X321336Y1074352D02*
Y1089084D01*
Y1028632D02*
Y1068764D01*
X320828Y1074860D02*
Y1089592D01*
Y1028124D02*
Y1068764D01*
X320320Y1075368D02*
Y1089592D01*
Y1027616D02*
Y1068764D01*
X319812Y1075368D02*
Y1090100D01*
Y1027108D02*
Y1069272D01*
X319304Y1075876D02*
Y1090100D01*
Y1026600D02*
Y1069272D01*
X318796Y1076384D02*
Y1090100D01*
Y1026092D02*
Y1069272D01*
X318288Y1076384D02*
Y1090608D01*
Y1025584D02*
Y1069272D01*
X317780Y1076892D02*
Y1090608D01*
Y1025584D02*
Y1069272D01*
X317272Y1077400D02*
Y1091116D01*
Y1050476D02*
Y1069272D01*
Y1025076D02*
Y1046920D01*
X316764Y1077400D02*
Y1091116D01*
Y1053016D02*
Y1068764D01*
Y1024568D02*
Y1044380D01*
X316256Y1077908D02*
Y1091116D01*
Y1054540D02*
Y1068764D01*
Y1024568D02*
Y1042856D01*
X315748Y1077908D02*
Y1091624D01*
Y1056064D02*
Y1068764D01*
Y1024060D02*
Y1041840D01*
X315240Y1078416D02*
Y1091624D01*
Y1057080D02*
Y1068256D01*
Y1023552D02*
Y1040824D01*
X314732Y1078416D02*
Y1091624D01*
Y1057588D02*
Y1067748D01*
Y1023552D02*
Y1039808D01*
X314224Y1078924D02*
Y1092132D01*
Y1058604D02*
Y1067748D01*
Y1023044D02*
Y1039300D01*
X313716Y1078924D02*
Y1092132D01*
Y1059112D02*
Y1067240D01*
Y1023044D02*
Y1038792D01*
X313208Y1078924D02*
Y1092132D01*
Y1059620D02*
Y1066224D01*
Y1022536D02*
Y1037776D01*
X312700Y1079432D02*
Y1092640D01*
Y1061144D02*
Y1065208D01*
Y1022536D02*
Y1037268D01*
X312192Y1079432D02*
Y1092640D01*
Y1022028D02*
Y1036760D01*
X311684Y1079940D02*
Y1092640D01*
Y1022028D02*
Y1036252D01*
X311176Y1079940D02*
Y1092640D01*
Y1022028D02*
Y1036252D01*
X310668Y1079940D02*
Y1093148D01*
Y1021520D02*
Y1035744D01*
X310160Y1080448D02*
Y1093148D01*
Y1021520D02*
Y1035236D01*
X309652Y1080448D02*
Y1093148D01*
Y1021520D02*
Y1034728D01*
X309144Y1080448D02*
Y1093148D01*
Y1021012D02*
Y1034728D01*
X308636Y1080448D02*
Y1093148D01*
Y1021012D02*
Y1034220D01*
X308128Y1080956D02*
Y1093656D01*
Y1021012D02*
Y1034220D01*
X307620Y1080956D02*
Y1093656D01*
Y1020504D02*
Y1033712D01*
X307112Y1047936D02*
Y1093656D01*
Y1020504D02*
Y1033712D01*
X306604Y1045904D02*
Y1093656D01*
Y1020504D02*
Y1033204D01*
X306096Y1044888D02*
Y1093656D01*
Y1020504D02*
Y1033204D01*
X305588Y1044380D02*
Y1093656D01*
Y1020504D02*
Y1033204D01*
X305080Y1043872D02*
Y1093656D01*
Y1020504D02*
Y1032696D01*
X304572Y1043364D02*
Y1093656D01*
Y1019996D02*
Y1032696D01*
X304064Y1049968D02*
Y1093656D01*
Y1043364D02*
Y1047936D01*
Y1019996D02*
Y1032696D01*
X303556Y1050476D02*
Y1093656D01*
Y1042856D02*
Y1046920D01*
Y1019996D02*
Y1032696D01*
X303048Y1051492D02*
Y1094164D01*
Y1042856D02*
Y1046412D01*
Y1019996D02*
Y1032696D01*
X302540Y1051492D02*
Y1094164D01*
Y1042856D02*
Y1045904D01*
Y1019996D02*
Y1032696D01*
X302032Y1052000D02*
Y1094164D01*
Y1042348D02*
Y1045396D01*
Y1019996D02*
Y1032188D01*
X301524Y1052000D02*
Y1094164D01*
Y1042348D02*
Y1045396D01*
Y1019996D02*
Y1032188D01*
X301016Y1052000D02*
Y1094164D01*
Y1042348D02*
Y1045396D01*
Y1019996D02*
Y1032188D01*
X300508Y1052000D02*
Y1094164D01*
Y1042348D02*
Y1045396D01*
Y1019996D02*
Y1032188D01*
X300000Y1052000D02*
Y1094164D01*
Y1042348D02*
Y1045396D01*
Y1019996D02*
Y1032188D01*
X299492Y1051492D02*
Y1094164D01*
Y1042348D02*
Y1045904D01*
Y1019996D02*
Y1032188D01*
X298984Y1051492D02*
Y1094164D01*
Y1042856D02*
Y1045904D01*
Y1019996D02*
Y1032696D01*
X298476Y1050984D02*
Y1094164D01*
Y1042856D02*
Y1046412D01*
Y1019996D02*
Y1032696D01*
X297968Y1050476D02*
Y1093656D01*
Y1043364D02*
Y1047428D01*
Y1019996D02*
Y1032696D01*
X297460Y1043364D02*
Y1093656D01*
Y1019996D02*
Y1032696D01*
X296952Y1043872D02*
Y1093656D01*
Y1019996D02*
Y1032696D01*
X296444Y1044380D02*
Y1093656D01*
Y1020504D02*
Y1033204D01*
X295936Y1044888D02*
Y1093656D01*
Y1020504D02*
Y1033204D01*
X295428Y1045904D02*
Y1093656D01*
Y1020504D02*
Y1033204D01*
X294920Y1047428D02*
Y1093656D01*
Y1020504D02*
Y1033712D01*
X294412Y1080956D02*
Y1093656D01*
Y1020504D02*
Y1033712D01*
X293904Y1080956D02*
Y1093656D01*
Y1021012D02*
Y1033712D01*
X293396Y1080956D02*
Y1093148D01*
Y1021012D02*
Y1034220D01*
X292888Y1080448D02*
Y1093148D01*
Y1021012D02*
Y1034728D01*
X292380Y1080448D02*
Y1093148D01*
Y1021012D02*
Y1034728D01*
X291872Y1080448D02*
Y1093148D01*
Y1021520D02*
Y1035236D01*
X291364Y1079940D02*
Y1093148D01*
Y1021520D02*
Y1035236D01*
X290856Y1079940D02*
Y1092640D01*
Y1021520D02*
Y1035744D01*
X290348Y1079940D02*
Y1092640D01*
Y1022028D02*
Y1036252D01*
X289840Y1079432D02*
Y1092640D01*
Y1022028D02*
Y1036760D01*
X289332Y1079432D02*
Y1092640D01*
Y1061652D02*
Y1064700D01*
Y1022536D02*
Y1037268D01*
X288824Y1079432D02*
Y1092132D01*
Y1060128D02*
Y1065716D01*
Y1022536D02*
Y1037776D01*
X288316Y1078924D02*
Y1092132D01*
Y1059620D02*
Y1066732D01*
Y1023044D02*
Y1038284D01*
X287808Y1078924D02*
Y1092132D01*
Y1058604D02*
Y1067240D01*
Y1023044D02*
Y1038792D01*
X287300Y1078416D02*
Y1092132D01*
Y1058096D02*
Y1067748D01*
Y1023552D02*
Y1039808D01*
X286792Y1078416D02*
Y1091624D01*
Y1057080D02*
Y1068256D01*
Y1023552D02*
Y1040316D01*
X286284Y1077908D02*
Y1091624D01*
Y1056064D02*
Y1068764D01*
Y1024060D02*
Y1041332D01*
X285776Y1077908D02*
Y1091624D01*
Y1055048D02*
Y1068764D01*
Y1024060D02*
Y1042348D01*
X285268Y1077400D02*
Y1091116D01*
Y1054032D02*
Y1068764D01*
Y1024568D02*
Y1043872D01*
X284760Y1077400D02*
Y1091116D01*
Y1052000D02*
Y1069272D01*
Y1025076D02*
Y1045904D01*
X284252Y1076892D02*
Y1090608D01*
Y1025076D02*
Y1069272D01*
X283744Y1076892D02*
Y1090608D01*
Y1025584D02*
Y1069272D01*
X283236Y1076384D02*
Y1090608D01*
Y1026092D02*
Y1069272D01*
X282728Y1075876D02*
Y1090100D01*
Y1026600D02*
Y1069272D01*
X282220Y1075876D02*
Y1090100D01*
Y1026600D02*
Y1069272D01*
X281712Y1075368D02*
Y1089592D01*
Y1027108D02*
Y1069272D01*
X281204Y1074860D02*
Y1089592D01*
Y1027616D02*
Y1068764D01*
X280696Y1074352D02*
Y1089084D01*
Y1028124D02*
Y1068764D01*
X280188Y1074352D02*
Y1089084D01*
Y1028632D02*
Y1068256D01*
X279680Y1073844D02*
Y1088576D01*
Y1029140D02*
Y1068256D01*
X279172Y1073336D02*
Y1088576D01*
Y1029648D02*
Y1067748D01*
X278664Y1072828D02*
Y1088068D01*
Y1030664D02*
Y1067240D01*
X278156Y1072320D02*
Y1088068D01*
Y1031172D02*
Y1066732D01*
X277648Y1071812D02*
Y1087560D01*
Y1031680D02*
Y1065716D01*
X277140Y1071304D02*
Y1087052D01*
Y1032188D02*
Y1065208D01*
X276632Y1070796D02*
Y1087052D01*
Y1033204D02*
Y1064700D01*
Y1023044D02*
Y1025584D01*
X276124Y1070288D02*
Y1086544D01*
Y1034220D02*
Y1063684D01*
Y1021520D02*
Y1027108D01*
X275616Y1069780D02*
Y1086036D01*
Y1034728D02*
Y1062668D01*
Y1020504D02*
Y1027616D01*
X275108Y1068764D02*
Y1086036D01*
Y1035744D02*
Y1061652D01*
Y1019996D02*
Y1028632D01*
X274600Y1068256D02*
Y1085528D01*
Y1036760D02*
Y1060636D01*
Y1019488D02*
Y1029140D01*
X274092Y1067748D02*
Y1085020D01*
Y1038284D02*
Y1059620D01*
Y1018980D02*
Y1029648D01*
X273584Y1066732D02*
Y1085020D01*
Y1039300D02*
Y1058096D01*
Y1018980D02*
Y1030664D01*
X273076Y1066224D02*
Y1084512D01*
Y1041332D02*
Y1056572D01*
Y1018472D02*
Y1031172D01*
X272568Y1065208D02*
Y1084004D01*
Y1043364D02*
Y1054032D01*
Y1025584D02*
Y1032188D01*
Y1018472D02*
Y1023044D01*
X272060Y1064192D02*
Y1083496D01*
Y1026092D02*
Y1033204D01*
Y1017964D02*
Y1022536D01*
X271552Y1063176D02*
Y1082988D01*
Y1026600D02*
Y1034220D01*
Y1017964D02*
Y1022028D01*
X271044Y1062160D02*
Y1082480D01*
Y1026600D02*
Y1035236D01*
Y1017964D02*
Y1022028D01*
X270536Y1061144D02*
Y1082480D01*
Y1026600D02*
Y1036252D01*
Y1017964D02*
Y1022028D01*
X270028Y1060128D02*
Y1081972D01*
Y1026600D02*
Y1037776D01*
Y1017964D02*
Y1022028D01*
X269520Y1058604D02*
Y1081464D01*
Y1026092D02*
Y1039300D01*
Y1017964D02*
Y1022028D01*
X269012Y1056572D02*
Y1080956D01*
Y1026092D02*
Y1040824D01*
Y1017964D02*
Y1022536D01*
X268504Y1054032D02*
Y1080448D01*
Y1025076D02*
Y1043364D01*
Y1018472D02*
Y1023044D01*
X267996Y1018472D02*
Y1079940D01*
X267488Y1018980D02*
Y1079432D01*
X266980Y1018980D02*
Y1078924D01*
X266472Y1019488D02*
Y1077908D01*
X265964Y1019996D02*
Y1077400D01*
X265456Y1020504D02*
Y1076892D01*
X264948Y1021520D02*
Y1076384D01*
X264440Y1022028D02*
Y1075368D01*
X263932Y1022536D02*
Y1074860D01*
X263424Y1023552D02*
Y1074352D01*
X262916Y1024060D02*
Y1073336D01*
X262408Y1025076D02*
Y1072320D01*
X261900Y1025584D02*
Y1071812D01*
X261392Y1026600D02*
Y1070796D01*
X260884Y1027616D02*
Y1069780D01*
X260376Y1028632D02*
Y1068764D01*
X259868Y1029648D02*
Y1067748D01*
X259360Y1030664D02*
Y1066732D01*
X258852Y1032188D02*
Y1065208D01*
X258344Y1033204D02*
Y1064192D01*
X257836Y1034728D02*
Y1062668D01*
X257328Y1036760D02*
Y1061144D01*
X256820Y1038792D02*
Y1059112D01*
X256312Y1041332D02*
Y1056064D01*
X255804Y1045396D02*
Y1052000D01*
X924400Y329412D02*
Y341604D01*
X923892Y326364D02*
Y344652D01*
X923384Y323824D02*
Y346684D01*
X922876Y322300D02*
Y348716D01*
X922368Y320776D02*
Y350240D01*
X921860Y319252D02*
Y351256D01*
X921352Y317728D02*
Y352780D01*
X920844Y316712D02*
Y353796D01*
X920336Y315696D02*
Y354812D01*
X919828Y314680D02*
Y355828D01*
X919320Y313664D02*
Y356844D01*
X918812Y312648D02*
Y357860D01*
X918304Y311632D02*
Y358876D01*
X917796Y311124D02*
Y359384D01*
X917288Y310108D02*
Y360400D01*
X916780Y309600D02*
Y360908D01*
X916272Y308584D02*
Y361924D01*
X915764Y308076D02*
Y362432D01*
X915256Y307568D02*
Y362940D01*
X914748Y306552D02*
Y363956D01*
X914240Y306044D02*
Y364464D01*
X913732Y306044D02*
Y364972D01*
X913224Y305536D02*
Y365480D01*
X912716Y305028D02*
Y365988D01*
X912208Y339064D02*
Y366496D01*
Y305028D02*
Y331444D01*
X911700Y342112D02*
Y367004D01*
Y312140D02*
Y328396D01*
Y305028D02*
Y309600D01*
X911192Y344144D02*
Y367512D01*
Y312648D02*
Y326364D01*
Y304520D02*
Y309092D01*
X910684Y345668D02*
Y368020D01*
Y313156D02*
Y324840D01*
Y304520D02*
Y308584D01*
X910176Y347192D02*
Y368528D01*
Y313156D02*
Y323316D01*
Y304520D02*
Y308584D01*
X909668Y348208D02*
Y369036D01*
Y313156D02*
Y322300D01*
Y304520D02*
Y308584D01*
X909160Y349732D02*
Y369544D01*
Y313156D02*
Y321284D01*
Y304520D02*
Y308584D01*
X908652Y350748D02*
Y370052D01*
Y312648D02*
Y320268D01*
Y304520D02*
Y308584D01*
X908144Y351256D02*
Y370560D01*
Y331444D02*
Y339572D01*
Y312648D02*
Y319252D01*
Y305028D02*
Y309092D01*
X907636Y352272D02*
Y370560D01*
Y328396D02*
Y342112D01*
Y311632D02*
Y318236D01*
Y305028D02*
Y309600D01*
X907128Y353288D02*
Y371068D01*
Y326872D02*
Y344144D01*
Y305028D02*
Y317728D01*
X906620Y353796D02*
Y371576D01*
Y325348D02*
Y345668D01*
Y305536D02*
Y316712D01*
X906112Y354812D02*
Y372084D01*
Y323824D02*
Y346684D01*
Y306044D02*
Y316204D01*
X905604Y355320D02*
Y372084D01*
Y322808D02*
Y347700D01*
Y306044D02*
Y315188D01*
X905096Y355828D02*
Y372592D01*
Y321792D02*
Y348716D01*
Y307060D02*
Y314680D01*
X904588Y356336D02*
Y373100D01*
Y320776D02*
Y349732D01*
Y307568D02*
Y314172D01*
X904080Y357352D02*
Y373100D01*
Y320268D02*
Y350748D01*
Y308584D02*
Y312648D01*
X903572Y357860D02*
Y373608D01*
Y319252D02*
Y351256D01*
X903064Y358368D02*
Y374116D01*
Y318744D02*
Y352272D01*
X902556Y358876D02*
Y374116D01*
Y317728D02*
Y352780D01*
X902048Y359384D02*
Y374624D01*
Y317220D02*
Y353288D01*
X901540Y359892D02*
Y374624D01*
Y316712D02*
Y354304D01*
X901032Y359892D02*
Y375132D01*
Y316204D02*
Y354304D01*
X900524Y360400D02*
Y375640D01*
Y315696D02*
Y354812D01*
X900016Y360908D02*
Y375640D01*
Y315188D02*
Y355320D01*
X899508Y361416D02*
Y376148D01*
Y314680D02*
Y355320D01*
X899000Y361924D02*
Y376148D01*
Y314172D02*
Y355320D01*
X898492Y361924D02*
Y376656D01*
Y313664D02*
Y355828D01*
X897984Y362432D02*
Y376656D01*
Y313156D02*
Y355828D01*
X897476Y362940D02*
Y376656D01*
Y312648D02*
Y355828D01*
X896968Y362940D02*
Y377164D01*
Y312140D02*
Y355828D01*
X896460Y363448D02*
Y377164D01*
Y312140D02*
Y355828D01*
X895952Y363956D02*
Y377672D01*
Y337032D02*
Y355828D01*
Y311632D02*
Y333476D01*
X895444Y363956D02*
Y377672D01*
Y339572D02*
Y355320D01*
Y311124D02*
Y330936D01*
X894936Y364464D02*
Y377672D01*
Y341096D02*
Y355320D01*
Y311124D02*
Y329412D01*
X894428Y364464D02*
Y378180D01*
Y342620D02*
Y355320D01*
Y310616D02*
Y328396D01*
X893920Y364972D02*
Y378180D01*
Y343636D02*
Y354812D01*
Y310108D02*
Y327380D01*
X893412Y364972D02*
Y378180D01*
Y344144D02*
Y354304D01*
Y310108D02*
Y326364D01*
X892904Y365480D02*
Y378688D01*
Y345160D02*
Y354304D01*
Y309600D02*
Y325856D01*
X892396Y365480D02*
Y378688D01*
Y345668D02*
Y353796D01*
Y309600D02*
Y325348D01*
X891888Y365480D02*
Y378688D01*
Y346176D02*
Y352780D01*
Y309092D02*
Y324332D01*
X891380Y365988D02*
Y379196D01*
Y347700D02*
Y351764D01*
Y309092D02*
Y323824D01*
X890872Y365988D02*
Y379196D01*
Y308584D02*
Y323316D01*
X890364Y366496D02*
Y379196D01*
Y308584D02*
Y322808D01*
X889856Y366496D02*
Y379196D01*
Y308584D02*
Y322808D01*
X889348Y366496D02*
Y379704D01*
Y308076D02*
Y322300D01*
X888840Y367004D02*
Y379704D01*
Y308076D02*
Y321792D01*
X888332Y367004D02*
Y379704D01*
Y308076D02*
Y321284D01*
X887824Y367004D02*
Y379704D01*
Y307568D02*
Y321284D01*
X887316Y367004D02*
Y379704D01*
Y307568D02*
Y320776D01*
X886808Y367512D02*
Y380212D01*
Y307568D02*
Y320776D01*
X886300Y367512D02*
Y380212D01*
Y307060D02*
Y320268D01*
X885792Y334492D02*
Y380212D01*
Y307060D02*
Y320268D01*
X885284Y332460D02*
Y380212D01*
Y307060D02*
Y319760D01*
X884776Y331444D02*
Y380212D01*
Y307060D02*
Y319760D01*
X884268Y330936D02*
Y380212D01*
Y307060D02*
Y319760D01*
X883760Y330428D02*
Y380212D01*
Y307060D02*
Y319252D01*
X883252Y329920D02*
Y380212D01*
Y306552D02*
Y319252D01*
X882744Y336524D02*
Y380212D01*
Y329920D02*
Y334492D01*
Y306552D02*
Y319252D01*
X882236Y337032D02*
Y380212D01*
Y329412D02*
Y333476D01*
Y306552D02*
Y319252D01*
X881728Y338048D02*
Y380720D01*
Y329412D02*
Y332968D01*
Y306552D02*
Y319252D01*
X881220Y338048D02*
Y380720D01*
Y329412D02*
Y332460D01*
Y306552D02*
Y319252D01*
X880712Y338556D02*
Y380720D01*
Y328904D02*
Y331952D01*
Y306552D02*
Y318744D01*
X880204Y338556D02*
Y380720D01*
Y328904D02*
Y331952D01*
Y306552D02*
Y318744D01*
X879696Y338556D02*
Y380720D01*
Y328904D02*
Y331952D01*
Y306552D02*
Y318744D01*
X879188Y338556D02*
Y380720D01*
Y328904D02*
Y331952D01*
Y306552D02*
Y318744D01*
X878680Y338556D02*
Y380720D01*
Y328904D02*
Y331952D01*
Y306552D02*
Y318744D01*
X878172Y338048D02*
Y380720D01*
Y328904D02*
Y332460D01*
Y306552D02*
Y318744D01*
X877664Y338048D02*
Y380720D01*
Y329412D02*
Y332460D01*
Y306552D02*
Y319252D01*
X877156Y337540D02*
Y380720D01*
Y329412D02*
Y332968D01*
Y306552D02*
Y319252D01*
X876648Y337032D02*
Y380212D01*
Y329920D02*
Y333984D01*
Y306552D02*
Y319252D01*
X876140Y329920D02*
Y380212D01*
Y306552D02*
Y319252D01*
X875632Y330428D02*
Y380212D01*
Y306552D02*
Y319252D01*
X875124Y330936D02*
Y380212D01*
Y307060D02*
Y319760D01*
X874616Y331444D02*
Y380212D01*
Y307060D02*
Y319760D01*
X874108Y332460D02*
Y380212D01*
Y307060D02*
Y319760D01*
X873600Y333984D02*
Y380212D01*
Y307060D02*
Y320268D01*
X873092Y367512D02*
Y380212D01*
Y307060D02*
Y320268D01*
X872584Y367512D02*
Y380212D01*
Y307568D02*
Y320268D01*
X872076Y367512D02*
Y379704D01*
Y307568D02*
Y320776D01*
X871568Y367004D02*
Y379704D01*
Y307568D02*
Y321284D01*
X871060Y367004D02*
Y379704D01*
Y307568D02*
Y321284D01*
X870552Y367004D02*
Y379704D01*
Y308076D02*
Y321792D01*
X870044Y366496D02*
Y379704D01*
Y308076D02*
Y321792D01*
X869536Y366496D02*
Y379196D01*
Y308076D02*
Y322300D01*
X869028Y366496D02*
Y379196D01*
Y308584D02*
Y322808D01*
X868520Y365988D02*
Y379196D01*
Y308584D02*
Y323316D01*
X868012Y365988D02*
Y379196D01*
Y348208D02*
Y351256D01*
Y309092D02*
Y323824D01*
X867504Y365988D02*
Y378688D01*
Y346684D02*
Y352272D01*
Y309092D02*
Y324332D01*
X866996Y365480D02*
Y378688D01*
Y346176D02*
Y353288D01*
Y309600D02*
Y324840D01*
X866488Y365480D02*
Y378688D01*
Y345160D02*
Y353796D01*
Y309600D02*
Y325348D01*
X865980Y364972D02*
Y378688D01*
Y344652D02*
Y354304D01*
Y310108D02*
Y326364D01*
X865472Y364972D02*
Y378180D01*
Y343636D02*
Y354812D01*
Y310108D02*
Y326872D01*
X864964Y364464D02*
Y378180D01*
Y342620D02*
Y355320D01*
Y310616D02*
Y327888D01*
X864456Y364464D02*
Y378180D01*
Y341604D02*
Y355320D01*
Y310616D02*
Y328904D01*
X863948Y363956D02*
Y377672D01*
Y340588D02*
Y355320D01*
Y311124D02*
Y330428D01*
X863440Y363956D02*
Y377672D01*
Y338556D02*
Y355828D01*
Y311632D02*
Y332460D01*
X862932Y363448D02*
Y377164D01*
Y311632D02*
Y355828D01*
X862424Y363448D02*
Y377164D01*
Y312140D02*
Y355828D01*
X861916Y362940D02*
Y377164D01*
Y312648D02*
Y355828D01*
X861408Y362432D02*
Y376656D01*
Y313156D02*
Y355828D01*
X860900Y362432D02*
Y376656D01*
Y313156D02*
Y355828D01*
X860392Y361924D02*
Y376148D01*
Y313664D02*
Y355828D01*
X859884Y361416D02*
Y376148D01*
Y314172D02*
Y355320D01*
X859376Y360908D02*
Y375640D01*
Y314680D02*
Y355320D01*
X858868Y360908D02*
Y375640D01*
Y315188D02*
Y354812D01*
X858360Y360400D02*
Y375132D01*
Y315696D02*
Y354812D01*
X857852Y359892D02*
Y375132D01*
Y316204D02*
Y354304D01*
X857344Y359384D02*
Y374624D01*
Y317220D02*
Y353796D01*
X856836Y358876D02*
Y374624D01*
Y317728D02*
Y353288D01*
X856328Y358368D02*
Y374116D01*
Y318236D02*
Y352272D01*
X855820Y357860D02*
Y373608D01*
Y318744D02*
Y351764D01*
X855312Y357352D02*
Y373608D01*
Y319760D02*
Y351256D01*
Y309600D02*
Y312140D01*
X854804Y356844D02*
Y373100D01*
Y320776D02*
Y350240D01*
Y308076D02*
Y313664D01*
X854296Y356336D02*
Y372592D01*
Y321284D02*
Y349224D01*
Y307060D02*
Y314172D01*
X853788Y355320D02*
Y372592D01*
Y322300D02*
Y348208D01*
Y306552D02*
Y315188D01*
X853280Y354812D02*
Y372084D01*
Y323316D02*
Y347192D01*
Y306044D02*
Y315696D01*
X852772Y354304D02*
Y371576D01*
Y324840D02*
Y346176D01*
Y305536D02*
Y316204D01*
X852264Y353288D02*
Y371576D01*
Y325856D02*
Y344652D01*
Y305536D02*
Y317220D01*
X851756Y352780D02*
Y371068D01*
Y327888D02*
Y343128D01*
Y305028D02*
Y317728D01*
X851248Y351764D02*
Y370560D01*
Y329920D02*
Y340588D01*
Y312140D02*
Y318744D01*
Y305028D02*
Y309600D01*
X850740Y350748D02*
Y370052D01*
Y312648D02*
Y319760D01*
Y304520D02*
Y309092D01*
X850232Y349732D02*
Y369544D01*
Y313156D02*
Y320776D01*
Y304520D02*
Y308584D01*
X849724Y348716D02*
Y369036D01*
Y313156D02*
Y321792D01*
Y304520D02*
Y308584D01*
X849216Y347700D02*
Y369036D01*
Y313156D02*
Y322808D01*
Y304520D02*
Y308584D01*
X848708Y346684D02*
Y368528D01*
Y313156D02*
Y324332D01*
Y304520D02*
Y308584D01*
X848200Y345160D02*
Y368020D01*
Y312648D02*
Y325856D01*
Y304520D02*
Y308584D01*
X847692Y343128D02*
Y367512D01*
Y312648D02*
Y327380D01*
Y304520D02*
Y309092D01*
X847184Y340588D02*
Y367004D01*
Y311632D02*
Y329920D01*
Y305028D02*
Y309600D01*
X846676Y305028D02*
Y366496D01*
X846168Y305536D02*
Y365988D01*
X845660Y305536D02*
Y365480D01*
X845152Y306044D02*
Y364464D01*
X844644Y306552D02*
Y363956D01*
X844136Y307060D02*
Y363448D01*
X843628Y308076D02*
Y362940D01*
X843120Y308584D02*
Y361924D01*
X842612Y309092D02*
Y361416D01*
X842104Y310108D02*
Y360908D01*
X841596Y310616D02*
Y359892D01*
X841088Y311632D02*
Y358876D01*
X840580Y312140D02*
Y358368D01*
X840072Y313156D02*
Y357352D01*
X839564Y314172D02*
Y356336D01*
X839056Y315188D02*
Y355320D01*
X838548Y316204D02*
Y354304D01*
X838040Y317220D02*
Y353288D01*
X837532Y318744D02*
Y351764D01*
X837024Y319760D02*
Y350748D01*
X836516Y321284D02*
Y349224D01*
X836008Y323316D02*
Y347700D01*
X835500Y325348D02*
Y345668D01*
X834992Y327888D02*
Y342620D01*
X834484Y331952D02*
Y338556D01*
X283900Y1380692D02*
X296092D01*
X280852Y1381200D02*
X299140D01*
X278312Y1381708D02*
X301172D01*
X276788Y1382216D02*
X303204D01*
X275264Y1382724D02*
X304728D01*
X273740Y1383232D02*
X305744D01*
X272216Y1383740D02*
X307268D01*
X271200Y1384248D02*
X308284D01*
X270184Y1384756D02*
X309300D01*
X269168Y1385264D02*
X310316D01*
X268152Y1385772D02*
X311332D01*
X267136Y1386280D02*
X312348D01*
X266120Y1386788D02*
X313364D01*
X265612Y1387296D02*
X313872D01*
X264596Y1387804D02*
X314888D01*
X264088Y1388312D02*
X315396D01*
X263072Y1388820D02*
X316412D01*
X262564Y1389328D02*
X316920D01*
X262056Y1389836D02*
X317428D01*
X261040Y1390344D02*
X318444D01*
X260532Y1390852D02*
X318952D01*
X260532Y1391360D02*
X319460D01*
X260024Y1391868D02*
X319968D01*
X259516Y1392376D02*
X320476D01*
X293552Y1392884D02*
X320984D01*
X259516D02*
X285932D01*
X296600Y1393392D02*
X321492D01*
X266628D02*
X282884D01*
X259516D02*
X264088D01*
X298632Y1393900D02*
X322000D01*
X267136D02*
X280852D01*
X259008D02*
X263580D01*
X300156Y1394408D02*
X322508D01*
X267644D02*
X279328D01*
X259008D02*
X263072D01*
X301680Y1394916D02*
X323016D01*
X267644D02*
X277804D01*
X259008D02*
X263072D01*
X302696Y1395424D02*
X323524D01*
X267644D02*
X276788D01*
X259008D02*
X263072D01*
X304220Y1395932D02*
X324032D01*
X267644D02*
X275772D01*
X259008D02*
X263072D01*
X305236Y1396440D02*
X324540D01*
X267136D02*
X274756D01*
X259008D02*
X263072D01*
X305744Y1396948D02*
X325048D01*
X285932D02*
X294060D01*
X267136D02*
X273740D01*
X259516D02*
X263580D01*
X306760Y1397456D02*
X325048D01*
X282884D02*
X296600D01*
X266120D02*
X272724D01*
X259516D02*
X264088D01*
X307776Y1397964D02*
X325556D01*
X281360D02*
X298632D01*
X259516D02*
X272216D01*
X308284Y1398472D02*
X326064D01*
X279836D02*
X300156D01*
X260024D02*
X271200D01*
X309300Y1398980D02*
X326572D01*
X278312D02*
X301172D01*
X260532D02*
X270692D01*
X309808Y1399488D02*
X326572D01*
X277296D02*
X302188D01*
X260532D02*
X269676D01*
X310316Y1399996D02*
X327080D01*
X276280D02*
X303204D01*
X261548D02*
X269168D01*
X310824Y1400504D02*
X327588D01*
X275264D02*
X304220D01*
X262056D02*
X268660D01*
X311840Y1401012D02*
X327588D01*
X274756D02*
X305236D01*
X263072D02*
X267136D01*
X312348Y1401520D02*
X328096D01*
X273740D02*
X305744D01*
X312856Y1402028D02*
X328604D01*
X273232D02*
X306760D01*
X313364Y1402536D02*
X328604D01*
X272216D02*
X307268D01*
X313872Y1403044D02*
X329112D01*
X271708D02*
X307776D01*
X314380Y1403552D02*
X329112D01*
X271200D02*
X308792D01*
X314380Y1404060D02*
X329620D01*
X270692D02*
X308792D01*
X314888Y1404568D02*
X330128D01*
X270184D02*
X309300D01*
X315396Y1405076D02*
X330128D01*
X269676D02*
X309808D01*
X315904Y1405584D02*
X330636D01*
X269168D02*
X309808D01*
X316412Y1406092D02*
X330636D01*
X268660D02*
X309808D01*
X316412Y1406600D02*
X331144D01*
X268152D02*
X310316D01*
X316920Y1407108D02*
X331144D01*
X267644D02*
X310316D01*
X317428Y1407616D02*
X331144D01*
X267136D02*
X310316D01*
X317428Y1408124D02*
X331652D01*
X266628D02*
X310316D01*
X317936Y1408632D02*
X331652D01*
X266628D02*
X310316D01*
X318444Y1409140D02*
X332160D01*
X291520D02*
X310316D01*
X266120D02*
X287964D01*
X318444Y1409648D02*
X332160D01*
X294060D02*
X309808D01*
X265612D02*
X285424D01*
X318952Y1410156D02*
X332160D01*
X295584D02*
X309808D01*
X265612D02*
X283900D01*
X318952Y1410664D02*
X332668D01*
X297108D02*
X309808D01*
X265104D02*
X282884D01*
X319460Y1411172D02*
X332668D01*
X298124D02*
X309300D01*
X264596D02*
X281868D01*
X319460Y1411680D02*
X332668D01*
X298632D02*
X308792D01*
X264596D02*
X280852D01*
X319968Y1412188D02*
X333176D01*
X299648D02*
X308792D01*
X264088D02*
X280344D01*
X319968Y1412696D02*
X333176D01*
X300156D02*
X308284D01*
X264088D02*
X279836D01*
X319968Y1413204D02*
X333176D01*
X300664D02*
X307268D01*
X263580D02*
X278820D01*
X320476Y1413712D02*
X333684D01*
X302188D02*
X306252D01*
X263580D02*
X278312D01*
X320476Y1414220D02*
X333684D01*
X263072D02*
X277804D01*
X320984Y1414728D02*
X333684D01*
X263072D02*
X277296D01*
X320984Y1415236D02*
X333684D01*
X263072D02*
X277296D01*
X320984Y1415744D02*
X334192D01*
X262564D02*
X276788D01*
X321492Y1416252D02*
X334192D01*
X262564D02*
X276280D01*
X321492Y1416760D02*
X334192D01*
X262564D02*
X275772D01*
X321492Y1417268D02*
X334192D01*
X262056D02*
X275772D01*
X321492Y1417776D02*
X334192D01*
X262056D02*
X275264D01*
X322000Y1418284D02*
X334700D01*
X262056D02*
X275264D01*
X322000Y1418792D02*
X334700D01*
X261548D02*
X274756D01*
X288980Y1419300D02*
X334700D01*
X261548D02*
X274756D01*
X286948Y1419808D02*
X334700D01*
X261548D02*
X274248D01*
X285932Y1420316D02*
X334700D01*
X261548D02*
X274248D01*
X285424Y1420824D02*
X334700D01*
X261548D02*
X274248D01*
X284916Y1421332D02*
X334700D01*
X261548D02*
X273740D01*
X284408Y1421840D02*
X334700D01*
X261040D02*
X273740D01*
X291012Y1422348D02*
X334700D01*
X284408D02*
X288980D01*
X261040D02*
X273740D01*
X291520Y1422856D02*
X334700D01*
X283900D02*
X287964D01*
X261040D02*
X273740D01*
X292536Y1423364D02*
X335208D01*
X283900D02*
X287456D01*
X261040D02*
X273740D01*
X292536Y1423872D02*
X335208D01*
X283900D02*
X286948D01*
X261040D02*
X273740D01*
X293044Y1424380D02*
X335208D01*
X283392D02*
X286440D01*
X261040D02*
X273232D01*
X293044Y1424888D02*
X335208D01*
X283392D02*
X286440D01*
X261040D02*
X273232D01*
X293044Y1425396D02*
X335208D01*
X283392D02*
X286440D01*
X261040D02*
X273232D01*
X293044Y1425904D02*
X335208D01*
X283392D02*
X286440D01*
X261040D02*
X273232D01*
X293044Y1426412D02*
X335208D01*
X283392D02*
X286440D01*
X261040D02*
X273232D01*
X292536Y1426920D02*
X335208D01*
X283392D02*
X286948D01*
X261040D02*
X273232D01*
X292536Y1427428D02*
X335208D01*
X283900D02*
X286948D01*
X261040D02*
X273740D01*
X292028Y1427936D02*
X335208D01*
X283900D02*
X287456D01*
X261040D02*
X273740D01*
X291520Y1428444D02*
X334700D01*
X284408D02*
X288472D01*
X261040D02*
X273740D01*
X284408Y1428952D02*
X334700D01*
X261040D02*
X273740D01*
X284916Y1429460D02*
X334700D01*
X261040D02*
X273740D01*
X285424Y1429968D02*
X334700D01*
X261548D02*
X274248D01*
X285932Y1430476D02*
X334700D01*
X261548D02*
X274248D01*
X286948Y1430984D02*
X334700D01*
X261548D02*
X274248D01*
X288472Y1431492D02*
X334700D01*
X261548D02*
X274756D01*
X322000Y1432000D02*
X334700D01*
X261548D02*
X274756D01*
X322000Y1432508D02*
X334700D01*
X262056D02*
X274756D01*
X322000Y1433016D02*
X334192D01*
X262056D02*
X275264D01*
X321492Y1433524D02*
X334192D01*
X262056D02*
X275772D01*
X321492Y1434032D02*
X334192D01*
X262056D02*
X275772D01*
X321492Y1434540D02*
X334192D01*
X262564D02*
X276280D01*
X320984Y1435048D02*
X334192D01*
X262564D02*
X276280D01*
X320984Y1435556D02*
X333684D01*
X262564D02*
X276788D01*
X320984Y1436064D02*
X333684D01*
X263072D02*
X277296D01*
X320476Y1436572D02*
X333684D01*
X263072D02*
X277804D01*
X320476Y1437080D02*
X333684D01*
X302696D02*
X305744D01*
X263580D02*
X278312D01*
X320476Y1437588D02*
X333176D01*
X301172D02*
X306760D01*
X263580D02*
X278820D01*
X319968Y1438096D02*
X333176D01*
X300664D02*
X307776D01*
X264088D02*
X279328D01*
X319968Y1438604D02*
X333176D01*
X299648D02*
X308284D01*
X264088D02*
X279836D01*
X319460Y1439112D02*
X333176D01*
X299140D02*
X308792D01*
X264596D02*
X280852D01*
X319460Y1439620D02*
X332668D01*
X298124D02*
X309300D01*
X264596D02*
X281360D01*
X318952Y1440128D02*
X332668D01*
X297108D02*
X309808D01*
X265104D02*
X282376D01*
X318952Y1440636D02*
X332668D01*
X296092D02*
X309808D01*
X265104D02*
X283392D01*
X318444Y1441144D02*
X332160D01*
X295076D02*
X309808D01*
X265612D02*
X284916D01*
X318444Y1441652D02*
X332160D01*
X293044D02*
X310316D01*
X266120D02*
X286948D01*
X317936Y1442160D02*
X331652D01*
X266120D02*
X310316D01*
X317936Y1442668D02*
X331652D01*
X266628D02*
X310316D01*
X317428Y1443176D02*
X331652D01*
X267136D02*
X310316D01*
X316920Y1443684D02*
X331144D01*
X267644D02*
X310316D01*
X316920Y1444192D02*
X331144D01*
X267644D02*
X310316D01*
X316412Y1444700D02*
X330636D01*
X268152D02*
X310316D01*
X315904Y1445208D02*
X330636D01*
X268660D02*
X309808D01*
X315396Y1445716D02*
X330128D01*
X269168D02*
X309808D01*
X315396Y1446224D02*
X330128D01*
X269676D02*
X309300D01*
X314888Y1446732D02*
X329620D01*
X270184D02*
X309300D01*
X314380Y1447240D02*
X329620D01*
X270692D02*
X308792D01*
X313872Y1447748D02*
X329112D01*
X271708D02*
X308284D01*
X313364Y1448256D02*
X329112D01*
X272216D02*
X307776D01*
X312856Y1448764D02*
X328604D01*
X272724D02*
X306760D01*
X312348Y1449272D02*
X328096D01*
X273232D02*
X306252D01*
X311840Y1449780D02*
X328096D01*
X274248D02*
X305744D01*
X264088D02*
X266628D01*
X311332Y1450288D02*
X327588D01*
X275264D02*
X304728D01*
X262564D02*
X268152D01*
X310824Y1450796D02*
X327080D01*
X275772D02*
X303712D01*
X261548D02*
X268660D01*
X309808Y1451304D02*
X327080D01*
X276788D02*
X302696D01*
X261040D02*
X269676D01*
X309300Y1451812D02*
X326572D01*
X277804D02*
X301680D01*
X260532D02*
X270184D01*
X308792Y1452320D02*
X326064D01*
X279328D02*
X300664D01*
X260024D02*
X270692D01*
X307776Y1452828D02*
X326064D01*
X280344D02*
X299140D01*
X260024D02*
X271708D01*
X307268Y1453336D02*
X325556D01*
X282376D02*
X297616D01*
X259516D02*
X272216D01*
X306252Y1453844D02*
X325048D01*
X284408D02*
X295076D01*
X266628D02*
X273232D01*
X259516D02*
X264088D01*
X305236Y1454352D02*
X324540D01*
X267136D02*
X274248D01*
X259008D02*
X263580D01*
X304220Y1454860D02*
X324032D01*
X267644D02*
X275264D01*
X259008D02*
X263072D01*
X303204Y1455368D02*
X323524D01*
X267644D02*
X276280D01*
X259008D02*
X263072D01*
X302188Y1455876D02*
X323524D01*
X267644D02*
X277296D01*
X259008D02*
X263072D01*
X301172Y1456384D02*
X323016D01*
X267644D02*
X278820D01*
X259008D02*
X263072D01*
X299648Y1456892D02*
X322508D01*
X267136D02*
X280344D01*
X259008D02*
X263072D01*
X297616Y1457400D02*
X322000D01*
X267136D02*
X281868D01*
X259008D02*
X263580D01*
X295076Y1457908D02*
X321492D01*
X266120D02*
X284408D01*
X259516D02*
X264088D01*
X259516Y1458416D02*
X320984D01*
X260024Y1458924D02*
X320476D01*
X260024Y1459432D02*
X319968D01*
X260532Y1459940D02*
X318952D01*
X261040Y1460448D02*
X318444D01*
X261548Y1460956D02*
X317936D01*
X262564Y1461464D02*
X317428D01*
X263072Y1461972D02*
X316412D01*
X263580Y1462480D02*
X315904D01*
X264596Y1462988D02*
X315396D01*
X265104Y1463496D02*
X314380D01*
X266120Y1464004D02*
X313364D01*
X266628Y1464512D02*
X312856D01*
X267644Y1465020D02*
X311840D01*
X268660Y1465528D02*
X310824D01*
X269676Y1466036D02*
X309808D01*
X270692Y1466544D02*
X308792D01*
X271708Y1467052D02*
X307776D01*
X273232Y1467560D02*
X306252D01*
X274248Y1468068D02*
X305236D01*
X275772Y1468576D02*
X303712D01*
X277804Y1469084D02*
X302188D01*
X279836Y1469592D02*
X300156D01*
X282376Y1470100D02*
X297108D01*
X286440Y1470608D02*
X293044D01*
X331444Y289484D02*
X338048D01*
X327380Y289992D02*
X342112D01*
X324332Y290500D02*
X344652D01*
X322300Y291008D02*
X346684D01*
X320776Y291516D02*
X348716D01*
X319252Y292024D02*
X350240D01*
X318236Y292532D02*
X351256D01*
X316712Y293040D02*
X352780D01*
X315696Y293548D02*
X353796D01*
X314680Y294056D02*
X354812D01*
X313664Y294564D02*
X355828D01*
X312648Y295072D02*
X356844D01*
X311632Y295580D02*
X357860D01*
X311124Y296088D02*
X358368D01*
X310108Y296596D02*
X359384D01*
X309092Y297104D02*
X359892D01*
X308584Y297612D02*
X360908D01*
X308076Y298120D02*
X361416D01*
X307060Y298628D02*
X361924D01*
X306552Y299136D02*
X362940D01*
X306044Y299644D02*
X363448D01*
X305536Y300152D02*
X363956D01*
X304520Y300660D02*
X364464D01*
X304012Y301168D02*
X364464D01*
X303504Y301676D02*
X364972D01*
X360400Y302184D02*
X364972D01*
X340080D02*
X358368D01*
X302996D02*
X329412D01*
X360908Y302692D02*
X365480D01*
X342620D02*
X357352D01*
X302488D02*
X326872D01*
X361416Y303200D02*
X365480D01*
X344144D02*
X357352D01*
X301980D02*
X324840D01*
X361416Y303708D02*
X365480D01*
X345668D02*
X356844D01*
X301472D02*
X323316D01*
X361416Y304216D02*
X365480D01*
X347192D02*
X356844D01*
X300964D02*
X322300D01*
X361416Y304724D02*
X365480D01*
X348208D02*
X356844D01*
X300964D02*
X321284D01*
X361416Y305232D02*
X365480D01*
X349224D02*
X356844D01*
X300456D02*
X320268D01*
X360908Y305740D02*
X365480D01*
X350240D02*
X357352D01*
X299948D02*
X319252D01*
X360400Y306248D02*
X364972D01*
X351256D02*
X357860D01*
X329412D02*
X340080D01*
X299440D02*
X318236D01*
X352272Y306756D02*
X364972D01*
X326872D02*
X342112D01*
X298932D02*
X317220D01*
X352780Y307264D02*
X364464D01*
X325348D02*
X344144D01*
X298424D02*
X316712D01*
X353796Y307772D02*
X364464D01*
X323824D02*
X345160D01*
X298424D02*
X315696D01*
X354304Y308280D02*
X363956D01*
X322808D02*
X346684D01*
X297916D02*
X315188D01*
X354812Y308788D02*
X363448D01*
X321792D02*
X347700D01*
X297408D02*
X314680D01*
X355828Y309296D02*
X362940D01*
X320776D02*
X348716D01*
X297408D02*
X313664D01*
X356336Y309804D02*
X361924D01*
X319760D02*
X349224D01*
X296900D02*
X313156D01*
X357860Y310312D02*
X360400D01*
X318744D02*
X350240D01*
X296392D02*
X312648D01*
X318236Y310820D02*
X351256D01*
X296392D02*
X312140D01*
X317728Y311328D02*
X351764D01*
X295884D02*
X311632D01*
X316712Y311836D02*
X352272D01*
X295376D02*
X311124D01*
X316204Y312344D02*
X352780D01*
X295376D02*
X310616D01*
X315696Y312852D02*
X353796D01*
X294868D02*
X310108D01*
X315188Y313360D02*
X354304D01*
X294868D02*
X309600D01*
X315188Y313868D02*
X354812D01*
X294360D02*
X309092D01*
X314680Y314376D02*
X355320D01*
X294360D02*
X309092D01*
X314680Y314884D02*
X355828D01*
X293852D02*
X308584D01*
X314172Y315392D02*
X356336D01*
X293852D02*
X308076D01*
X314172Y315900D02*
X356844D01*
X293344D02*
X307568D01*
X314172Y316408D02*
X356844D01*
X293344D02*
X307568D01*
X314172Y316916D02*
X357352D01*
X292836D02*
X307060D01*
X314172Y317424D02*
X357860D01*
X292836D02*
X306552D01*
X314172Y317932D02*
X358368D01*
X292836D02*
X306552D01*
X337540Y318440D02*
X358368D01*
X314172D02*
X331444D01*
X292328D02*
X306044D01*
X339572Y318948D02*
X358876D01*
X314680D02*
X329412D01*
X292328D02*
X306044D01*
X341096Y319456D02*
X359384D01*
X314680D02*
X328396D01*
X291820D02*
X305536D01*
X342112Y319964D02*
X359384D01*
X314680D02*
X327380D01*
X291820D02*
X305536D01*
X343128Y320472D02*
X359892D01*
X315188D02*
X326364D01*
X291820D02*
X305028D01*
X343636Y320980D02*
X359892D01*
X315696D02*
X325348D01*
X291312D02*
X305028D01*
X344652Y321488D02*
X360400D01*
X316204D02*
X324840D01*
X291312D02*
X304520D01*
X345160Y321996D02*
X360400D01*
X316712D02*
X323824D01*
X291312D02*
X304520D01*
X345668Y322504D02*
X360908D01*
X317728D02*
X323316D01*
X291312D02*
X304012D01*
X346176Y323012D02*
X360908D01*
X318744D02*
X321792D01*
X290804D02*
X304012D01*
X346684Y323520D02*
X361416D01*
X290804D02*
X304012D01*
X347192Y324028D02*
X361416D01*
X290804D02*
X303504D01*
X347700Y324536D02*
X361924D01*
X290804D02*
X303504D01*
X348208Y325044D02*
X361924D01*
X290296D02*
X303504D01*
X348208Y325552D02*
X361924D01*
X290296D02*
X302996D01*
X348716Y326060D02*
X362432D01*
X290296D02*
X302996D01*
X348716Y326568D02*
X362432D01*
X290296D02*
X302996D01*
X349224Y327076D02*
X362432D01*
X290296D02*
X302488D01*
X349732Y327584D02*
X362432D01*
X289788D02*
X302488D01*
X349732Y328092D02*
X362940D01*
X289788D02*
X302488D01*
X349732Y328600D02*
X362940D01*
X289788D02*
X336016D01*
X350240Y329108D02*
X362940D01*
X289788D02*
X337540D01*
X350240Y329616D02*
X362940D01*
X289788D02*
X338556D01*
X350240Y330124D02*
X362940D01*
X289788D02*
X339064D01*
X350748Y330632D02*
X363448D01*
X289788D02*
X339572D01*
X350748Y331140D02*
X363448D01*
X289788D02*
X340080D01*
X350748Y331648D02*
X363448D01*
X336016D02*
X340080D01*
X289788D02*
X332968D01*
X350748Y332156D02*
X363448D01*
X337032D02*
X340588D01*
X289280D02*
X332460D01*
X350748Y332664D02*
X363448D01*
X337540D02*
X340588D01*
X289280D02*
X331952D01*
X351256Y333172D02*
X363448D01*
X337540D02*
X341096D01*
X289280D02*
X331952D01*
X351256Y333680D02*
X363448D01*
X338048D02*
X341096D01*
X289280D02*
X331444D01*
X351256Y334188D02*
X363448D01*
X338048D02*
X341096D01*
X289280D02*
X331444D01*
X351256Y334696D02*
X363448D01*
X338048D02*
X341096D01*
X289280D02*
X331444D01*
X351256Y335204D02*
X363448D01*
X338048D02*
X341096D01*
X289280D02*
X331444D01*
X351256Y335712D02*
X363448D01*
X338048D02*
X341096D01*
X289280D02*
X331444D01*
X350748Y336220D02*
X363448D01*
X337540D02*
X340588D01*
X289280D02*
X331952D01*
X350748Y336728D02*
X363448D01*
X337032D02*
X340588D01*
X289280D02*
X331952D01*
X350748Y337236D02*
X363448D01*
X336524D02*
X340588D01*
X289788D02*
X332968D01*
X350748Y337744D02*
X363448D01*
X335508D02*
X340080D01*
X289788D02*
X333476D01*
X350748Y338252D02*
X363448D01*
X289788D02*
X340080D01*
X350748Y338760D02*
X362940D01*
X289788D02*
X339572D01*
X350240Y339268D02*
X362940D01*
X289788D02*
X339064D01*
X350240Y339776D02*
X362940D01*
X289788D02*
X338556D01*
X350240Y340284D02*
X362940D01*
X289788D02*
X337540D01*
X349732Y340792D02*
X362940D01*
X289788D02*
X335508D01*
X349732Y341300D02*
X362940D01*
X289788D02*
X302488D01*
X349224Y341808D02*
X362432D01*
X289788D02*
X302488D01*
X349224Y342316D02*
X362432D01*
X290296D02*
X302996D01*
X348716Y342824D02*
X362432D01*
X290296D02*
X302996D01*
X348716Y343332D02*
X361924D01*
X290296D02*
X302996D01*
X348208Y343840D02*
X361924D01*
X290296D02*
X302996D01*
X347700Y344348D02*
X361924D01*
X290296D02*
X303504D01*
X347192Y344856D02*
X361416D01*
X290804D02*
X303504D01*
X347192Y345364D02*
X361416D01*
X290804D02*
X303504D01*
X346684Y345872D02*
X361416D01*
X290804D02*
X304012D01*
X346176Y346380D02*
X360908D01*
X318236D02*
X322300D01*
X290804D02*
X304012D01*
X345668Y346888D02*
X360908D01*
X317220D02*
X323824D01*
X291312D02*
X304520D01*
X344652Y347396D02*
X360400D01*
X316204D02*
X324332D01*
X291312D02*
X304520D01*
X344144Y347904D02*
X360400D01*
X315696D02*
X324840D01*
X291312D02*
X304520D01*
X343636Y348412D02*
X359892D01*
X315696D02*
X325856D01*
X291820D02*
X305028D01*
X342620Y348920D02*
X359892D01*
X315188D02*
X326364D01*
X291820D02*
X305028D01*
X341604Y349428D02*
X359384D01*
X314680D02*
X327380D01*
X291820D02*
X305536D01*
X340588Y349936D02*
X358876D01*
X314680D02*
X328904D01*
X292328D02*
X305536D01*
X339064Y350444D02*
X358876D01*
X314680D02*
X330428D01*
X292328D02*
X306044D01*
X336524Y350952D02*
X358368D01*
X314172D02*
X332968D01*
X292328D02*
X306044D01*
X314172Y351460D02*
X357860D01*
X292836D02*
X306552D01*
X314172Y351968D02*
X357860D01*
X292836D02*
X307060D01*
X314172Y352476D02*
X357352D01*
X293344D02*
X307060D01*
X314172Y352984D02*
X356844D01*
X293344D02*
X307568D01*
X314172Y353492D02*
X356336D01*
X293344D02*
X308076D01*
X314680Y354000D02*
X355828D01*
X293852D02*
X308076D01*
X314680Y354508D02*
X355320D01*
X293852D02*
X308584D01*
X314680Y355016D02*
X354812D01*
X294360D02*
X309092D01*
X315188Y355524D02*
X354304D01*
X294360D02*
X309600D01*
X315696Y356032D02*
X353796D01*
X294868D02*
X310108D01*
X315696Y356540D02*
X353288D01*
X295376D02*
X310108D01*
X316712Y357048D02*
X352780D01*
X295376D02*
X310616D01*
X317220Y357556D02*
X352272D01*
X295884D02*
X311124D01*
X317728Y358064D02*
X351256D01*
X295884D02*
X311632D01*
X318744Y358572D02*
X350748D01*
X296392D02*
X312140D01*
X357352Y359080D02*
X361416D01*
X319252D02*
X349732D01*
X296900D02*
X312648D01*
X355828Y359588D02*
X362432D01*
X320268D02*
X349224D01*
X296900D02*
X313664D01*
X355320Y360096D02*
X362940D01*
X321284D02*
X348208D01*
X297408D02*
X314172D01*
X354812Y360604D02*
X363956D01*
X322300D02*
X347192D01*
X297916D02*
X314680D01*
X353796Y361112D02*
X363956D01*
X323316D02*
X346176D01*
X297916D02*
X315188D01*
X353288Y361620D02*
X364464D01*
X324332D02*
X344652D01*
X298424D02*
X316204D01*
X352272Y362128D02*
X364972D01*
X325856D02*
X343128D01*
X298932D02*
X316712D01*
X360400Y362636D02*
X364972D01*
X351764D02*
X358368D01*
X327888D02*
X341604D01*
X299440D02*
X317728D01*
X360908Y363144D02*
X364972D01*
X350748D02*
X357352D01*
X330428D02*
X338556D01*
X299440D02*
X318744D01*
X361416Y363652D02*
X365480D01*
X349732D02*
X357352D01*
X299948D02*
X319252D01*
X361416Y364160D02*
X365480D01*
X348716D02*
X356844D01*
X300456D02*
X320268D01*
X361416Y364668D02*
X365480D01*
X347700D02*
X356844D01*
X300964D02*
X321792D01*
X361416Y365176D02*
X365480D01*
X346684D02*
X356844D01*
X301472D02*
X322808D01*
X361416Y365684D02*
X365480D01*
X345160D02*
X356844D01*
X301980D02*
X324332D01*
X360908Y366192D02*
X365480D01*
X343636D02*
X357352D01*
X302488D02*
X325856D01*
X360400Y366700D02*
X364972D01*
X341604D02*
X357860D01*
X302996D02*
X327888D01*
X338556Y367208D02*
X364972D01*
X303504D02*
X330936D01*
X304012Y367716D02*
X364972D01*
X304520Y368224D02*
X364464D01*
X305028Y368732D02*
X363956D01*
X305536Y369240D02*
X363956D01*
X306044Y369748D02*
X363448D01*
X307060Y370256D02*
X362432D01*
X307568Y370764D02*
X361924D01*
X308076Y371272D02*
X361416D01*
X309092Y371780D02*
X360400D01*
X309600Y372288D02*
X359892D01*
X310616Y372796D02*
X358876D01*
X311124Y373304D02*
X358368D01*
X312140Y373812D02*
X357352D01*
X313156Y374320D02*
X356336D01*
X314172Y374828D02*
X355320D01*
X315188Y375336D02*
X354304D01*
X316204Y375844D02*
X353288D01*
X317220Y376352D02*
X352272D01*
X318744Y376860D02*
X350748D01*
X319760Y377368D02*
X349224D01*
X321284Y377876D02*
X347700D01*
X323316Y378384D02*
X346176D01*
X325348Y378892D02*
X343636D01*
X328396Y379400D02*
X340588D01*
D94*
X1008908Y1399238D02*
Y1402540D01*
X1009162Y1397206D02*
Y1404572D01*
X1009416Y1395682D02*
Y1405842D01*
X1009670Y1394666D02*
Y1406858D01*
X1009924Y1393904D02*
Y1407874D01*
X1010178Y1393142D02*
Y1408636D01*
X1010432Y1392634D02*
Y1409144D01*
X1010686Y1391872D02*
Y1409906D01*
X1010940Y1391364D02*
Y1410414D01*
X1011194Y1390856D02*
Y1410922D01*
X1011448Y1390348D02*
Y1411430D01*
X1011702Y1389840D02*
Y1411938D01*
X1011956Y1389332D02*
Y1412446D01*
X1012210Y1389078D02*
Y1412700D01*
X1012464Y1388570D02*
Y1413208D01*
X1012718Y1388062D02*
Y1413462D01*
X1012972Y1387808D02*
Y1413970D01*
X1013226Y1387554D02*
Y1414224D01*
X1013480Y1387046D02*
Y1414478D01*
X1013734Y1386792D02*
Y1414986D01*
X1013988Y1386538D02*
Y1415240D01*
X1014242Y1386284D02*
Y1415494D01*
X1014496Y1385776D02*
Y1415748D01*
X1014750Y1385522D02*
Y1415748D01*
X1015004Y1385268D02*
Y1416002D01*
X1015258Y1413716D02*
Y1416002D01*
Y1403556D02*
Y1412700D01*
Y1385014D02*
Y1398222D01*
X1015512Y1413970D02*
Y1416256D01*
Y1404826D02*
Y1412192D01*
Y1384760D02*
Y1396952D01*
X1015766Y1414224D02*
Y1416256D01*
Y1405588D02*
Y1412192D01*
Y1384506D02*
Y1395936D01*
X1016020Y1414224D02*
Y1416256D01*
Y1406350D02*
Y1411938D01*
Y1384252D02*
Y1395174D01*
X1016274Y1414224D02*
Y1416256D01*
Y1407112D02*
Y1411938D01*
Y1383998D02*
Y1394666D01*
X1016528Y1414224D02*
Y1416256D01*
Y1407620D02*
Y1411938D01*
Y1383998D02*
Y1394158D01*
X1016782Y1414224D02*
Y1416256D01*
Y1408128D02*
Y1411938D01*
Y1383744D02*
Y1393650D01*
X1017036Y1413970D02*
Y1416256D01*
Y1408636D02*
Y1412192D01*
Y1383490D02*
Y1393142D01*
X1017290Y1413716D02*
Y1416002D01*
Y1409144D02*
Y1412446D01*
Y1398222D02*
Y1403556D01*
Y1383236D02*
Y1392634D01*
X1017544Y1409652D02*
Y1416002D01*
Y1396952D02*
Y1404572D01*
Y1382982D02*
Y1392126D01*
X1017798Y1409906D02*
Y1415748D01*
Y1396190D02*
Y1405588D01*
Y1382728D02*
Y1391872D01*
X1018052Y1410414D02*
Y1415748D01*
Y1395428D02*
Y1406096D01*
Y1382728D02*
Y1391364D01*
X1018306Y1410668D02*
Y1415494D01*
Y1394920D02*
Y1406858D01*
Y1382474D02*
Y1391110D01*
X1018560Y1410922D02*
Y1415240D01*
Y1394412D02*
Y1407366D01*
Y1382220D02*
Y1390856D01*
X1018814Y1411430D02*
Y1414986D01*
Y1393904D02*
Y1407874D01*
Y1382220D02*
Y1390348D01*
X1019068Y1411684D02*
Y1414478D01*
Y1393396D02*
Y1408128D01*
Y1381966D02*
Y1390094D01*
X1019322Y1412446D02*
Y1413716D01*
Y1392888D02*
Y1408636D01*
Y1381712D02*
Y1389840D01*
X1019576Y1392634D02*
Y1409144D01*
Y1381712D02*
Y1389586D01*
X1019830Y1392380D02*
Y1409398D01*
Y1381458D02*
Y1389332D01*
X1020084Y1391872D02*
Y1409652D01*
Y1381204D02*
Y1389078D01*
X1020338Y1391618D02*
Y1409906D01*
Y1381204D02*
Y1388824D01*
X1020592Y1391364D02*
Y1410414D01*
Y1380950D02*
Y1388570D01*
X1020846Y1391110D02*
Y1410668D01*
Y1380950D02*
Y1388316D01*
X1021100Y1391110D02*
Y1410922D01*
Y1380696D02*
Y1388062D01*
X1021354Y1390856D02*
Y1411176D01*
Y1380696D02*
Y1388062D01*
X1021608Y1390856D02*
Y1411430D01*
Y1380442D02*
Y1387808D01*
X1021862Y1390602D02*
Y1411684D01*
Y1380442D02*
Y1387554D01*
X1022116Y1390602D02*
Y1411938D01*
Y1380188D02*
Y1387300D01*
X1022370Y1390602D02*
Y1411938D01*
Y1380188D02*
Y1387300D01*
X1022624Y1390602D02*
Y1412192D01*
Y1379934D02*
Y1387046D01*
X1022878Y1390602D02*
Y1412446D01*
Y1379934D02*
Y1386792D01*
X1023132Y1390602D02*
Y1412700D01*
Y1379934D02*
Y1386792D01*
X1023386Y1402286D02*
Y1412700D01*
Y1390602D02*
Y1399238D01*
Y1379680D02*
Y1386538D01*
X1023640Y1403302D02*
Y1412954D01*
Y1390856D02*
Y1398222D01*
Y1379680D02*
Y1386538D01*
X1023894Y1404064D02*
Y1413208D01*
Y1390856D02*
Y1397714D01*
Y1379426D02*
Y1386284D01*
X1024148Y1404572D02*
Y1413208D01*
Y1390856D02*
Y1397206D01*
Y1379426D02*
Y1386284D01*
X1024402Y1405080D02*
Y1413462D01*
Y1391110D02*
Y1396698D01*
Y1379426D02*
Y1386030D01*
X1024656Y1405334D02*
Y1413462D01*
Y1391364D02*
Y1396190D01*
Y1379172D02*
Y1386030D01*
X1024910Y1405842D02*
Y1413716D01*
Y1391618D02*
Y1395936D01*
Y1379172D02*
Y1385776D01*
X1025164Y1406096D02*
Y1413716D01*
Y1391872D02*
Y1395428D01*
Y1379172D02*
Y1385776D01*
X1025418Y1406350D02*
Y1413970D01*
Y1392380D02*
Y1395174D01*
Y1379172D02*
Y1385522D01*
X1025672Y1406604D02*
Y1413970D01*
Y1392888D02*
Y1394412D01*
Y1378918D02*
Y1385522D01*
X1025926Y1406858D02*
Y1414224D01*
Y1378918D02*
Y1385522D01*
X1026180Y1407112D02*
Y1414224D01*
Y1378918D02*
Y1385268D01*
X1026434Y1407366D02*
Y1414478D01*
Y1378918D02*
Y1385268D01*
X1026688Y1407620D02*
Y1414478D01*
Y1378664D02*
Y1385268D01*
X1026942Y1407620D02*
Y1414478D01*
Y1378664D02*
Y1385014D01*
X1027196Y1407874D02*
Y1414732D01*
Y1378664D02*
Y1385014D01*
X1027450Y1407874D02*
Y1414732D01*
Y1378664D02*
Y1385014D01*
X1027704Y1408128D02*
Y1414732D01*
Y1378664D02*
Y1384760D01*
X1027958Y1408382D02*
Y1414732D01*
Y1378410D02*
Y1384760D01*
X1028212Y1408382D02*
Y1414986D01*
Y1378410D02*
Y1384760D01*
X1028466Y1408382D02*
Y1414986D01*
Y1378410D02*
Y1401524D01*
X1028720Y1408636D02*
Y1414986D01*
Y1378410D02*
Y1402286D01*
X1028974Y1408636D02*
Y1414986D01*
Y1378410D02*
Y1402794D01*
X1029228Y1408636D02*
Y1414986D01*
Y1378410D02*
Y1403048D01*
X1029482Y1408890D02*
Y1415240D01*
Y1378410D02*
Y1403302D01*
X1029736Y1408890D02*
Y1415240D01*
Y1378410D02*
Y1403556D01*
X1029990Y1408890D02*
Y1415240D01*
Y1401524D02*
Y1403556D01*
Y1378410D02*
Y1400000D01*
X1030244Y1408890D02*
Y1415240D01*
Y1402032D02*
Y1403810D01*
Y1378156D02*
Y1399746D01*
X1030498Y1408890D02*
Y1415240D01*
Y1402286D02*
Y1403810D01*
Y1378156D02*
Y1399492D01*
X1030752Y1409144D02*
Y1415240D01*
Y1402286D02*
Y1404064D01*
Y1378156D02*
Y1399492D01*
X1031006Y1409144D02*
Y1415240D01*
Y1402540D02*
Y1404064D01*
Y1378156D02*
Y1399238D01*
X1031260Y1409144D02*
Y1415240D01*
Y1402540D02*
Y1404064D01*
Y1378156D02*
Y1399238D01*
X1031514Y1409144D02*
Y1415240D01*
Y1402540D02*
Y1404064D01*
Y1378156D02*
Y1399238D01*
X1031768Y1409144D02*
Y1415240D01*
Y1402540D02*
Y1404064D01*
Y1378156D02*
Y1399238D01*
X1032022Y1409144D02*
Y1415240D01*
Y1402540D02*
Y1404064D01*
Y1378156D02*
Y1399238D01*
X1032276Y1408890D02*
Y1415240D01*
Y1402286D02*
Y1403810D01*
Y1378156D02*
Y1399492D01*
X1032530Y1408890D02*
Y1415240D01*
Y1402032D02*
Y1403810D01*
Y1378156D02*
Y1399492D01*
X1032784Y1408890D02*
Y1415240D01*
Y1401778D02*
Y1403810D01*
Y1378410D02*
Y1400000D01*
X1033038Y1408890D02*
Y1415240D01*
Y1401270D02*
Y1403556D01*
Y1378410D02*
Y1400254D01*
X1033292Y1408890D02*
Y1415240D01*
Y1378410D02*
Y1403556D01*
X1033546Y1408890D02*
Y1414986D01*
Y1378410D02*
Y1403302D01*
X1033800Y1408636D02*
Y1414986D01*
Y1378410D02*
Y1403048D01*
X1034054Y1408636D02*
Y1414986D01*
Y1378410D02*
Y1402794D01*
X1034308Y1408636D02*
Y1414986D01*
Y1378410D02*
Y1402286D01*
X1034562Y1408382D02*
Y1414986D01*
Y1378410D02*
Y1401270D01*
X1034816Y1408382D02*
Y1414986D01*
Y1378410D02*
Y1384760D01*
X1035070Y1408128D02*
Y1414732D01*
Y1378410D02*
Y1384760D01*
X1035324Y1408128D02*
Y1414732D01*
Y1378664D02*
Y1385014D01*
X1035578Y1407874D02*
Y1414732D01*
Y1378664D02*
Y1385014D01*
X1035832Y1407874D02*
Y1414478D01*
Y1378664D02*
Y1385014D01*
X1036086Y1407620D02*
Y1414478D01*
Y1378664D02*
Y1385014D01*
X1036340Y1407366D02*
Y1414478D01*
Y1378664D02*
Y1385268D01*
X1036594Y1407112D02*
Y1414224D01*
Y1378918D02*
Y1385268D01*
X1036848Y1407112D02*
Y1414224D01*
Y1378918D02*
Y1385268D01*
X1037102Y1406858D02*
Y1414224D01*
Y1378918D02*
Y1385522D01*
X1037356Y1406604D02*
Y1413970D01*
Y1392634D02*
Y1394666D01*
Y1378918D02*
Y1385522D01*
X1037610Y1406350D02*
Y1413970D01*
Y1392126D02*
Y1395428D01*
Y1379172D02*
Y1385776D01*
X1037864Y1405842D02*
Y1413716D01*
Y1391618D02*
Y1395682D01*
Y1379172D02*
Y1385776D01*
X1038118Y1405588D02*
Y1413716D01*
Y1391364D02*
Y1395936D01*
Y1379172D02*
Y1385776D01*
X1038372Y1405334D02*
Y1413462D01*
Y1391364D02*
Y1396444D01*
Y1379426D02*
Y1386030D01*
X1038626Y1404826D02*
Y1413462D01*
Y1391110D02*
Y1396698D01*
Y1379426D02*
Y1386030D01*
X1038880Y1404318D02*
Y1413208D01*
Y1390856D02*
Y1397206D01*
Y1379426D02*
Y1386284D01*
X1039134Y1403810D02*
Y1412954D01*
Y1390856D02*
Y1397968D01*
Y1379680D02*
Y1386284D01*
X1039388Y1403048D02*
Y1412954D01*
Y1390856D02*
Y1398730D01*
Y1379680D02*
Y1386538D01*
X1039642Y1401778D02*
Y1412700D01*
Y1390602D02*
Y1400000D01*
Y1379680D02*
Y1386538D01*
X1039896Y1390602D02*
Y1412446D01*
Y1379934D02*
Y1386792D01*
X1040150Y1390602D02*
Y1412446D01*
Y1379934D02*
Y1387046D01*
X1040404Y1390602D02*
Y1412192D01*
Y1380188D02*
Y1387046D01*
X1040658Y1390602D02*
Y1411938D01*
Y1380188D02*
Y1387300D01*
X1040912Y1390602D02*
Y1411684D01*
Y1380188D02*
Y1387554D01*
X1041166Y1390856D02*
Y1411430D01*
Y1380442D02*
Y1387554D01*
X1041420Y1390856D02*
Y1411176D01*
Y1380442D02*
Y1387808D01*
X1041674Y1390856D02*
Y1410922D01*
Y1380696D02*
Y1388062D01*
X1041928Y1391110D02*
Y1410668D01*
Y1380696D02*
Y1388316D01*
X1042182Y1391364D02*
Y1410414D01*
Y1380950D02*
Y1388570D01*
X1042436Y1391364D02*
Y1410160D01*
Y1381204D02*
Y1388570D01*
X1042690Y1391872D02*
Y1409906D01*
Y1381204D02*
Y1388824D01*
X1042944Y1392126D02*
Y1409652D01*
Y1381458D02*
Y1389078D01*
X1043198Y1392380D02*
Y1409144D01*
Y1381458D02*
Y1389332D01*
X1043452Y1392888D02*
Y1408890D01*
Y1381712D02*
Y1389586D01*
X1043706Y1412192D02*
Y1414224D01*
Y1393142D02*
Y1408382D01*
Y1381966D02*
Y1389840D01*
X1043960Y1411430D02*
Y1414732D01*
Y1393650D02*
Y1408128D01*
Y1381966D02*
Y1390348D01*
X1044214Y1411176D02*
Y1414986D01*
Y1394158D02*
Y1407620D01*
Y1382220D02*
Y1390602D01*
X1044468Y1410922D02*
Y1415494D01*
Y1394666D02*
Y1407112D01*
Y1382474D02*
Y1390856D01*
X1044722Y1410414D02*
Y1415494D01*
Y1395174D02*
Y1406604D01*
Y1382474D02*
Y1391110D01*
X1044976Y1410160D02*
Y1415748D01*
Y1395682D02*
Y1405842D01*
Y1382728D02*
Y1391618D01*
X1045230Y1409652D02*
Y1416002D01*
Y1396444D02*
Y1405080D01*
Y1382982D02*
Y1391872D01*
X1045484Y1413716D02*
Y1416002D01*
Y1409398D02*
Y1412700D01*
Y1397460D02*
Y1404318D01*
Y1383236D02*
Y1392380D01*
X1045738Y1413970D02*
Y1416002D01*
Y1408890D02*
Y1412192D01*
Y1398730D02*
Y1402794D01*
Y1383236D02*
Y1392888D01*
X1045992Y1414224D02*
Y1416256D01*
Y1408382D02*
Y1412192D01*
Y1383490D02*
Y1393142D01*
X1046246Y1414224D02*
Y1416256D01*
Y1407874D02*
Y1411938D01*
Y1383744D02*
Y1393650D01*
X1046500Y1414224D02*
Y1416256D01*
Y1407366D02*
Y1411938D01*
Y1383998D02*
Y1394412D01*
X1046754Y1414224D02*
Y1416256D01*
Y1406858D02*
Y1411938D01*
Y1384252D02*
Y1394920D01*
X1047008Y1414224D02*
Y1416256D01*
Y1406096D02*
Y1411938D01*
Y1384506D02*
Y1395682D01*
X1047262Y1413970D02*
Y1416256D01*
Y1405334D02*
Y1412192D01*
Y1384760D02*
Y1396444D01*
X1047516Y1413716D02*
Y1416002D01*
Y1404318D02*
Y1412446D01*
Y1385014D02*
Y1397460D01*
X1047770Y1402794D02*
Y1416002D01*
Y1385268D02*
Y1398984D01*
X1048024Y1385522D02*
Y1416002D01*
X1048278Y1385776D02*
Y1415748D01*
X1048532Y1386030D02*
Y1415494D01*
X1048786Y1386284D02*
Y1415494D01*
X1049040Y1386538D02*
Y1415240D01*
X1049294Y1387046D02*
Y1414732D01*
X1049548Y1387300D02*
Y1414478D01*
X1049802Y1387554D02*
Y1414224D01*
X1050056Y1388062D02*
Y1413716D01*
X1050310Y1388316D02*
Y1413462D01*
X1050564Y1388824D02*
Y1412954D01*
X1050818Y1389078D02*
Y1412700D01*
X1051072Y1389586D02*
Y1412192D01*
X1051326Y1390094D02*
Y1411684D01*
X1051580Y1390602D02*
Y1411176D01*
X1051834Y1391110D02*
Y1410668D01*
X1052088Y1391618D02*
Y1410160D01*
X1052342Y1392126D02*
Y1409652D01*
X1052596Y1392888D02*
Y1408890D01*
X1052850Y1393396D02*
Y1408128D01*
X1053104Y1394158D02*
Y1407366D01*
X1053358Y1395174D02*
Y1406604D01*
X1053612Y1396190D02*
Y1405334D01*
X1053866Y1397714D02*
Y1403810D01*
X1272286Y1533866D02*
X1266190D01*
X1273810Y1533612D02*
X1264666D01*
X1274826Y1533358D02*
X1263396D01*
X1275842Y1533104D02*
X1262634D01*
X1276604Y1532850D02*
X1261872D01*
X1277112Y1532596D02*
X1261110D01*
X1277874Y1532342D02*
X1260348D01*
X1278382Y1532088D02*
X1259840D01*
X1278890Y1531834D02*
X1259332D01*
X1279398Y1531580D02*
X1258824D01*
X1279906Y1531326D02*
X1258316D01*
X1280414Y1531072D02*
X1257808D01*
X1280922Y1530818D02*
X1257300D01*
X1281176Y1530564D02*
X1257046D01*
X1281684Y1530310D02*
X1256538D01*
X1281938Y1530056D02*
X1256284D01*
X1282446Y1529802D02*
X1255776D01*
X1282700Y1529548D02*
X1255522D01*
X1282954Y1529294D02*
X1255268D01*
X1283462Y1529040D02*
X1254760D01*
X1283716Y1528786D02*
X1254506D01*
X1283970Y1528532D02*
X1254506D01*
X1284224Y1528278D02*
X1254252D01*
X1284478Y1528024D02*
X1253998D01*
X1284732Y1527770D02*
X1271016D01*
X1267206D02*
X1253998D01*
X1284986Y1527516D02*
X1272540D01*
X1265682D02*
X1257554D01*
X1256284D02*
X1253998D01*
X1285240Y1527262D02*
X1273556D01*
X1264666D02*
X1257808D01*
X1256030D02*
X1253744D01*
X1285494Y1527008D02*
X1274318D01*
X1263904D02*
X1258062D01*
X1255776D02*
X1253744D01*
X1285748Y1526754D02*
X1275080D01*
X1263142D02*
X1258062D01*
X1255776D02*
X1253744D01*
X1286002Y1526500D02*
X1275588D01*
X1262634D02*
X1258062D01*
X1255776D02*
X1253744D01*
X1286256Y1526246D02*
X1276350D01*
X1262126D02*
X1258062D01*
X1255776D02*
X1253744D01*
X1286510Y1525992D02*
X1276858D01*
X1261618D02*
X1257808D01*
X1255776D02*
X1253744D01*
X1286764Y1525738D02*
X1277112D01*
X1271270D02*
X1267206D01*
X1261110D02*
X1257808D01*
X1256030D02*
X1253998D01*
X1286764Y1525484D02*
X1277620D01*
X1272540D02*
X1265682D01*
X1260602D02*
X1257300D01*
X1256284D02*
X1253998D01*
X1287018Y1525230D02*
X1278128D01*
X1273556D02*
X1264920D01*
X1260348D02*
X1253998D01*
X1287272Y1524976D02*
X1278382D01*
X1274318D02*
X1264158D01*
X1259840D02*
X1254252D01*
X1287526Y1524722D02*
X1278890D01*
X1274826D02*
X1263396D01*
X1259586D02*
X1254506D01*
X1287526Y1524468D02*
X1279144D01*
X1275334D02*
X1262888D01*
X1259078D02*
X1254506D01*
X1287780Y1524214D02*
X1279398D01*
X1275842D02*
X1262380D01*
X1258824D02*
X1255014D01*
X1288034Y1523960D02*
X1279652D01*
X1276350D02*
X1261872D01*
X1258570D02*
X1255268D01*
X1288034Y1523706D02*
X1280160D01*
X1276858D02*
X1261618D01*
X1257808D02*
X1255776D01*
X1288288Y1523452D02*
X1280414D01*
X1277112D02*
X1261110D01*
X1288542Y1523198D02*
X1280668D01*
X1277620D02*
X1260856D01*
X1288542Y1522944D02*
X1280922D01*
X1277874D02*
X1260348D01*
X1288796Y1522690D02*
X1281176D01*
X1278128D02*
X1260094D01*
X1288796Y1522436D02*
X1281430D01*
X1278636D02*
X1259840D01*
X1289050Y1522182D02*
X1281430D01*
X1278636D02*
X1259586D01*
X1289304Y1521928D02*
X1281684D01*
X1278890D02*
X1259332D01*
X1289304Y1521674D02*
X1281938D01*
X1279144D02*
X1259078D01*
X1289558Y1521420D02*
X1282192D01*
X1279144D02*
X1258824D01*
X1289558Y1521166D02*
X1282446D01*
X1279144D02*
X1258570D01*
X1289812Y1520912D02*
X1282446D01*
X1279398D02*
X1258316D01*
X1289812Y1520658D02*
X1282700D01*
X1279398D02*
X1258062D01*
X1289812Y1520404D02*
X1282954D01*
X1279398D02*
X1257808D01*
X1290066Y1520150D02*
X1282954D01*
X1279398D02*
X1257554D01*
X1290066Y1519896D02*
X1283208D01*
X1279398D02*
X1257554D01*
X1290320Y1519642D02*
X1283462D01*
X1279398D02*
X1270000D01*
X1268222D02*
X1257300D01*
X1290320Y1519388D02*
X1283462D01*
X1279144D02*
X1271270D01*
X1266952D02*
X1257046D01*
X1290320Y1519134D02*
X1283716D01*
X1279144D02*
X1272032D01*
X1266190D02*
X1257046D01*
X1290574Y1518880D02*
X1283716D01*
X1279144D02*
X1272794D01*
X1265682D02*
X1256792D01*
X1290574Y1518626D02*
X1283970D01*
X1278890D02*
X1273302D01*
X1265174D02*
X1256538D01*
X1290574Y1518372D02*
X1283970D01*
X1278636D02*
X1273556D01*
X1264666D02*
X1256538D01*
X1290828Y1518118D02*
X1284224D01*
X1278636D02*
X1274064D01*
X1264412D02*
X1256284D01*
X1290828Y1517864D02*
X1284224D01*
X1278382D02*
X1274318D01*
X1264158D02*
X1256284D01*
X1290828Y1517610D02*
X1284224D01*
X1277874D02*
X1274572D01*
X1263650D02*
X1256030D01*
X1291082Y1517356D02*
X1284478D01*
X1277366D02*
X1275334D01*
X1263396D02*
X1256030D01*
X1291082Y1517102D02*
X1284478D01*
X1263142D02*
X1255776D01*
X1291082Y1516848D02*
X1284732D01*
X1262888D02*
X1255776D01*
X1291082Y1516594D02*
X1284732D01*
X1262888D02*
X1255776D01*
X1291336Y1516340D02*
X1284732D01*
X1262634D02*
X1255522D01*
X1291336Y1516086D02*
X1284986D01*
X1262380D02*
X1255522D01*
X1291336Y1515832D02*
X1284986D01*
X1262126D02*
X1255522D01*
X1291336Y1515578D02*
X1284986D01*
X1262126D02*
X1255268D01*
X1291336Y1515324D02*
X1284986D01*
X1261872D02*
X1255268D01*
X1291590Y1515070D02*
X1285240D01*
X1261872D02*
X1255268D01*
X1291590Y1514816D02*
X1285240D01*
X1261618D02*
X1255014D01*
X1291590Y1514562D02*
X1268730D01*
X1261618D02*
X1255014D01*
X1291590Y1514308D02*
X1267714D01*
X1261364D02*
X1255014D01*
X1291590Y1514054D02*
X1267206D01*
X1261364D02*
X1255014D01*
X1291590Y1513800D02*
X1266952D01*
X1261364D02*
X1255014D01*
X1291590Y1513546D02*
X1266698D01*
X1261110D02*
X1255014D01*
X1291590Y1513292D02*
X1266444D01*
X1261110D02*
X1254760D01*
X1291590Y1513038D02*
X1269746D01*
X1268730D02*
X1266444D01*
X1261110D02*
X1254760D01*
X1291590Y1512784D02*
X1270000D01*
X1268222D02*
X1266190D01*
X1261110D02*
X1254760D01*
X1291844Y1512530D02*
X1270508D01*
X1267968D02*
X1266190D01*
X1261110D02*
X1254760D01*
X1291844Y1512276D02*
X1270508D01*
X1267714D02*
X1266190D01*
X1261110D02*
X1254760D01*
X1291844Y1512022D02*
X1270762D01*
X1267460D02*
X1265936D01*
X1260856D02*
X1254760D01*
X1291844Y1511768D02*
X1270762D01*
X1267460D02*
X1265936D01*
X1260856D02*
X1254760D01*
X1291844Y1511514D02*
X1270762D01*
X1267460D02*
X1265936D01*
X1260856D02*
X1254760D01*
X1291844Y1511260D02*
X1270762D01*
X1267460D02*
X1265936D01*
X1260856D02*
X1254760D01*
X1291844Y1511006D02*
X1270762D01*
X1267460D02*
X1265936D01*
X1260856D02*
X1254760D01*
X1291844Y1510752D02*
X1270508D01*
X1267714D02*
X1265936D01*
X1260856D02*
X1254760D01*
X1291844Y1510498D02*
X1270508D01*
X1267714D02*
X1266190D01*
X1261110D02*
X1254760D01*
X1291844Y1510244D02*
X1270254D01*
X1267968D02*
X1266190D01*
X1261110D02*
X1254760D01*
X1291590Y1509990D02*
X1270000D01*
X1268476D02*
X1266444D01*
X1261110D02*
X1254760D01*
X1291590Y1509736D02*
X1266444D01*
X1261110D02*
X1254760D01*
X1291590Y1509482D02*
X1266698D01*
X1261110D02*
X1254760D01*
X1291590Y1509228D02*
X1266952D01*
X1261364D02*
X1255014D01*
X1291590Y1508974D02*
X1267206D01*
X1261364D02*
X1255014D01*
X1291590Y1508720D02*
X1267714D01*
X1261364D02*
X1255014D01*
X1291590Y1508466D02*
X1268476D01*
X1261618D02*
X1255014D01*
X1291590Y1508212D02*
X1285240D01*
X1261618D02*
X1255014D01*
X1291590Y1507958D02*
X1285240D01*
X1261618D02*
X1255268D01*
X1291336Y1507704D02*
X1285240D01*
X1261872D02*
X1255268D01*
X1291336Y1507450D02*
X1284986D01*
X1262126D02*
X1255268D01*
X1291336Y1507196D02*
X1284986D01*
X1262126D02*
X1255268D01*
X1291336Y1506942D02*
X1284986D01*
X1262380D02*
X1255522D01*
X1291336Y1506688D02*
X1284732D01*
X1262380D02*
X1255522D01*
X1291082Y1506434D02*
X1284732D01*
X1262634D02*
X1255522D01*
X1291082Y1506180D02*
X1284732D01*
X1262888D02*
X1255776D01*
X1291082Y1505926D02*
X1284478D01*
X1263142D02*
X1255776D01*
X1291082Y1505672D02*
X1284478D01*
X1277112D02*
X1275588D01*
X1263396D02*
X1256030D01*
X1290828Y1505418D02*
X1284478D01*
X1277620D02*
X1274826D01*
X1263650D02*
X1256030D01*
X1290828Y1505164D02*
X1284224D01*
X1278128D02*
X1274572D01*
X1263904D02*
X1256284D01*
X1290828Y1504910D02*
X1284224D01*
X1278382D02*
X1274064D01*
X1264158D02*
X1256284D01*
X1290828Y1504656D02*
X1283970D01*
X1278636D02*
X1273810D01*
X1264666D02*
X1256538D01*
X1290574Y1504402D02*
X1283970D01*
X1278890D02*
X1273302D01*
X1264920D02*
X1256538D01*
X1290574Y1504148D02*
X1283716D01*
X1279144D02*
X1272794D01*
X1265428D02*
X1256792D01*
X1290574Y1503894D02*
X1283716D01*
X1279144D02*
X1272286D01*
X1265936D02*
X1256792D01*
X1290320Y1503640D02*
X1283462D01*
X1279144D02*
X1271778D01*
X1266698D02*
X1257046D01*
X1290320Y1503386D02*
X1283462D01*
X1279398D02*
X1270762D01*
X1267714D02*
X1257300D01*
X1290066Y1503132D02*
X1283208D01*
X1279398D02*
X1257300D01*
X1290066Y1502878D02*
X1283208D01*
X1279398D02*
X1257554D01*
X1290066Y1502624D02*
X1282954D01*
X1279398D02*
X1257808D01*
X1289812Y1502370D02*
X1282700D01*
X1279398D02*
X1258062D01*
X1289812Y1502116D02*
X1282700D01*
X1279398D02*
X1258062D01*
X1289558Y1501862D02*
X1282446D01*
X1279398D02*
X1258316D01*
X1289558Y1501608D02*
X1282192D01*
X1279144D02*
X1258570D01*
X1289304Y1501354D02*
X1281938D01*
X1279144D02*
X1258824D01*
X1289304Y1501100D02*
X1281938D01*
X1278890D02*
X1259078D01*
X1289050Y1500846D02*
X1281684D01*
X1278890D02*
X1259332D01*
X1289050Y1500592D02*
X1281430D01*
X1278636D02*
X1259586D01*
X1288796Y1500338D02*
X1281176D01*
X1278382D02*
X1260094D01*
X1288796Y1500084D02*
X1280922D01*
X1278128D02*
X1260348D01*
X1288542Y1499830D02*
X1280668D01*
X1277620D02*
X1260602D01*
X1288288Y1499576D02*
X1280414D01*
X1277366Y1489576D02*
X1260856D01*
X1288288Y1499322D02*
X1280160D01*
X1277112D02*
X1261364D01*
X1257554D02*
X1256284D01*
X1288034Y1499068D02*
X1279906D01*
X1276604D02*
X1261872D01*
X1258316D02*
X1255522D01*
X1287780Y1498814D02*
X1279652D01*
X1276096D02*
X1262126D01*
X1258570D02*
X1255014D01*
X1287780Y1498560D02*
X1279144D01*
X1275588D02*
X1262634D01*
X1259078D02*
X1254760D01*
X1287526Y1498306D02*
X1278890D01*
X1275080D02*
X1263142D01*
X1259332D02*
X1254506D01*
X1287272Y1498052D02*
X1278636D01*
X1274572D02*
X1263904D01*
X1259586D02*
X1254252D01*
X1287272Y1497798D02*
X1278128D01*
X1273810D02*
X1264412D01*
X1260094D02*
X1254252D01*
X1287018Y1497544D02*
X1277874D01*
X1273048D02*
X1265428D01*
X1260348D02*
X1253998D01*
X1286764Y1497290D02*
X1277366D01*
X1271778D02*
X1266444D01*
X1260856D02*
X1257554D01*
X1256284D02*
X1253998D01*
X1286510Y1497036D02*
X1276858D01*
X1261364D02*
X1257808D01*
X1256030D02*
X1253744D01*
X1286256Y1496782D02*
X1276350D01*
X1261872D02*
X1258062D01*
X1255776D02*
X1253744D01*
X1286002Y1496528D02*
X1275842D01*
X1262380D02*
X1258062D01*
X1255776D02*
X1253744D01*
X1286002Y1496274D02*
X1275334D01*
X1262888D02*
X1258062D01*
X1255776D02*
X1253744D01*
X1285748Y1496020D02*
X1274826D01*
X1263650D02*
X1258062D01*
X1255776D02*
X1253744D01*
X1285494Y1495766D02*
X1274064D01*
X1264412D02*
X1257808D01*
X1255776D02*
X1253744D01*
X1285240Y1495512D02*
X1273048D01*
X1265174D02*
X1257808D01*
X1256030D02*
X1253744D01*
X1284986Y1495258D02*
X1271778D01*
X1266444D02*
X1257300D01*
X1256284D02*
X1253998D01*
X1284732Y1495004D02*
X1253998D01*
X1284478Y1494750D02*
X1254252D01*
X1284224Y1494496D02*
X1254252D01*
X1283716Y1494242D02*
X1254506D01*
X1283462Y1493988D02*
X1254760D01*
X1283208Y1493734D02*
X1255014D01*
X1282954Y1493480D02*
X1255522D01*
X1282446Y1493226D02*
X1255776D01*
X1282192Y1492972D02*
X1256030D01*
X1281938Y1492718D02*
X1256538D01*
X1281430Y1492464D02*
X1256792D01*
X1280922Y1492210D02*
X1257300D01*
X1280668Y1491956D02*
X1257554D01*
X1280160Y1491702D02*
X1258062D01*
X1279652Y1491448D02*
X1258570D01*
X1279144Y1491194D02*
X1259078D01*
X1278636Y1490940D02*
X1259586D01*
X1278128Y1490686D02*
X1260094D01*
X1277366Y1490432D02*
X1260856D01*
X1276858Y1490178D02*
X1261364D01*
X1276096Y1489924D02*
X1262126D01*
X1275334Y1489670D02*
X1263142D01*
X1274318Y1489416D02*
X1264158D01*
X1272794Y1489162D02*
X1265428D01*
X1270762Y1488908D02*
X1267460D01*
X1270762D02*
X1267460D01*
X1272794Y1489162D02*
X1265428D01*
X1274318Y1489416D02*
X1264158D01*
X1275334Y1489670D02*
X1263142D01*
X1276096Y1489924D02*
X1262126D01*
X1276858Y1490178D02*
X1261364D01*
X1277366Y1490432D02*
X1260856D01*
X1278128Y1490686D02*
X1260094D01*
X1278636Y1490940D02*
X1259586D01*
X1279144Y1491194D02*
X1259078D01*
X1279652Y1491448D02*
X1258570D01*
X1280160Y1491702D02*
X1258062D01*
X1280668Y1491956D02*
X1257554D01*
X1280922Y1492210D02*
X1257300D01*
X1281430Y1492464D02*
X1256792D01*
X1281938Y1492718D02*
X1256538D01*
X1282192Y1492972D02*
X1256030D01*
X1282446Y1493226D02*
X1255776D01*
X1282954Y1493480D02*
X1255522D01*
X1283208Y1493734D02*
X1255014D01*
X1283462Y1493988D02*
X1254760D01*
X1283716Y1494242D02*
X1254506D01*
X1284224Y1494496D02*
X1254252D01*
X1284478Y1494750D02*
X1254252D01*
X1284732Y1495004D02*
X1253998D01*
X1256284Y1495258D02*
X1253998D01*
X1266444D02*
X1257300D01*
X1284986D02*
X1271778D01*
X1256030Y1495512D02*
X1253744D01*
X1265174D02*
X1257808D01*
X1285240D02*
X1273048D01*
X1255776Y1495766D02*
X1253744D01*
X1264412D02*
X1257808D01*
X1285494D02*
X1274064D01*
X1255776Y1496020D02*
X1253744D01*
X1263650D02*
X1258062D01*
X1285748D02*
X1274826D01*
X1255776Y1496274D02*
X1253744D01*
X1262888D02*
X1258062D01*
X1286002D02*
X1275334D01*
X1255776Y1496528D02*
X1253744D01*
X1262380D02*
X1258062D01*
X1286002D02*
X1275842D01*
X1255776Y1496782D02*
X1253744D01*
X1261872D02*
X1258062D01*
X1286256D02*
X1276350D01*
X1256030Y1497036D02*
X1253744D01*
X1261364D02*
X1257808D01*
X1286510D02*
X1276858D01*
X1256284Y1497290D02*
X1253998D01*
X1260856D02*
X1257554D01*
X1271778D02*
X1266444D01*
X1286764D02*
X1277366D01*
X1260348Y1497544D02*
X1253998D01*
X1273048D02*
X1265428D01*
X1287018D02*
X1277874D01*
X1260094Y1497798D02*
X1254252D01*
X1273810D02*
X1264412D01*
X1287272D02*
X1278128D01*
X1259586Y1498052D02*
X1254252D01*
X1274572D02*
X1263904D01*
X1287272D02*
X1278636D01*
X1259332Y1498306D02*
X1254506D01*
X1275080D02*
X1263142D01*
X1287526D02*
X1278890D01*
X1259078Y1498560D02*
X1254760D01*
X1275588D02*
X1262634D01*
X1287780D02*
X1279144D01*
X1258570Y1498814D02*
X1255014D01*
X1276096D02*
X1262126D01*
X1287780D02*
X1279652D01*
X1258316Y1499068D02*
X1255522D01*
X1276604D02*
X1261872D01*
X1288034D02*
X1279906D01*
X1257554Y1499322D02*
X1256284D01*
X1277112D02*
X1261364D01*
X1288288D02*
X1280160D01*
X1277366Y1499576D02*
X1260856D01*
X1288288D02*
X1280414D01*
X1277620Y1499830D02*
X1260602D01*
X1288542D02*
X1280668D01*
X1278128Y1500084D02*
X1260348D01*
X1288796D02*
X1280922D01*
X1278382Y1500338D02*
X1260094D01*
X1288796D02*
X1281176D01*
X1278636Y1500592D02*
X1259586D01*
X1289050D02*
X1281430D01*
X1278890Y1500846D02*
X1259332D01*
X1289050D02*
X1281684D01*
X1278890Y1501100D02*
X1259078D01*
X1289304D02*
X1281938D01*
X1279144Y1501354D02*
X1258824D01*
X1289304D02*
X1281938D01*
X1279144Y1501608D02*
X1258570D01*
X1289558D02*
X1282192D01*
X1279398Y1501862D02*
X1258316D01*
X1289558D02*
X1282446D01*
X1279398Y1502116D02*
X1258062D01*
X1289812D02*
X1282700D01*
X1279398Y1502370D02*
X1258062D01*
X1289812D02*
X1282700D01*
X1279398Y1502624D02*
X1257808D01*
X1290066D02*
X1282954D01*
X1279398Y1502878D02*
X1257554D01*
X1290066D02*
X1283208D01*
X1279398Y1503132D02*
X1257300D01*
X1290066D02*
X1283208D01*
X1267714Y1503386D02*
X1257300D01*
X1279398D02*
X1270762D01*
X1290320D02*
X1283462D01*
X1266698Y1503640D02*
X1257046D01*
X1279144D02*
X1271778D01*
X1290320D02*
X1283462D01*
X1265936Y1503894D02*
X1256792D01*
X1279144D02*
X1272286D01*
X1290574D02*
X1283716D01*
X1265428Y1504148D02*
X1256792D01*
X1279144D02*
X1272794D01*
X1290574D02*
X1283716D01*
X1264920Y1504402D02*
X1256538D01*
X1278890D02*
X1273302D01*
X1290574D02*
X1283970D01*
X1264666Y1504656D02*
X1256538D01*
X1278636D02*
X1273810D01*
X1290828D02*
X1283970D01*
X1264158Y1504910D02*
X1256284D01*
X1278382D02*
X1274064D01*
X1290828D02*
X1284224D01*
X1263904Y1505164D02*
X1256284D01*
X1278128D02*
X1274572D01*
X1290828D02*
X1284224D01*
X1263650Y1505418D02*
X1256030D01*
X1277620D02*
X1274826D01*
X1290828D02*
X1284478D01*
X1263396Y1505672D02*
X1256030D01*
X1277112D02*
X1275588D01*
X1291082D02*
X1284478D01*
X1263142Y1505926D02*
X1255776D01*
X1291082D02*
X1284478D01*
X1262888Y1506180D02*
X1255776D01*
X1291082D02*
X1284732D01*
X1262634Y1506434D02*
X1255522D01*
X1291082D02*
X1284732D01*
X1262380Y1506688D02*
X1255522D01*
X1291336D02*
X1284732D01*
X1262380Y1506942D02*
X1255522D01*
X1291336D02*
X1284986D01*
X1262126Y1507196D02*
X1255268D01*
X1291336D02*
X1284986D01*
X1262126Y1507450D02*
X1255268D01*
X1291336D02*
X1284986D01*
X1261872Y1507704D02*
X1255268D01*
X1291336D02*
X1285240D01*
X1261618Y1507958D02*
X1255268D01*
X1291590D02*
X1285240D01*
X1261618Y1508212D02*
X1255014D01*
X1291590D02*
X1285240D01*
X1261618Y1508466D02*
X1255014D01*
X1291590D02*
X1268476D01*
X1261364Y1508720D02*
X1255014D01*
X1291590D02*
X1267714D01*
X1261364Y1508974D02*
X1255014D01*
X1291590D02*
X1267206D01*
X1261364Y1509228D02*
X1255014D01*
X1291590D02*
X1266952D01*
X1261110Y1509482D02*
X1254760D01*
X1291590D02*
X1266698D01*
X1261110Y1509736D02*
X1254760D01*
X1291590D02*
X1266444D01*
X1261110Y1509990D02*
X1254760D01*
X1268476D02*
X1266444D01*
X1291590D02*
X1270000D01*
X1261110Y1510244D02*
X1254760D01*
X1267968D02*
X1266190D01*
X1291844D02*
X1270254D01*
X1261110Y1510498D02*
X1254760D01*
X1267714D02*
X1266190D01*
X1291844D02*
X1270508D01*
X1260856Y1510752D02*
X1254760D01*
X1267714D02*
X1265936D01*
X1291844D02*
X1270508D01*
X1260856Y1511006D02*
X1254760D01*
X1267460D02*
X1265936D01*
X1291844D02*
X1270762D01*
X1260856Y1511260D02*
X1254760D01*
X1267460D02*
X1265936D01*
X1291844D02*
X1270762D01*
X1260856Y1511514D02*
X1254760D01*
X1267460D02*
X1265936D01*
X1291844D02*
X1270762D01*
X1260856Y1511768D02*
X1254760D01*
X1267460D02*
X1265936D01*
X1291844D02*
X1270762D01*
X1260856Y1512022D02*
X1254760D01*
X1267460D02*
X1265936D01*
X1291844D02*
X1270762D01*
X1261110Y1512276D02*
X1254760D01*
X1267714D02*
X1266190D01*
X1291844D02*
X1270508D01*
X1261110Y1512530D02*
X1254760D01*
X1267968D02*
X1266190D01*
X1291844D02*
X1270508D01*
X1261110Y1512784D02*
X1254760D01*
X1268222D02*
X1266190D01*
X1291590D02*
X1270000D01*
X1261110Y1513038D02*
X1254760D01*
X1268730D02*
X1266444D01*
X1291590D02*
X1269746D01*
X1261110Y1513292D02*
X1254760D01*
X1291590D02*
X1266444D01*
X1261110Y1513546D02*
X1255014D01*
X1291590D02*
X1266698D01*
X1261364Y1513800D02*
X1255014D01*
X1291590D02*
X1266952D01*
X1261364Y1514054D02*
X1255014D01*
X1291590D02*
X1267206D01*
X1261364Y1514308D02*
X1255014D01*
X1291590D02*
X1267714D01*
X1261618Y1514562D02*
X1255014D01*
X1291590D02*
X1268730D01*
X1261618Y1514816D02*
X1255014D01*
X1291590D02*
X1285240D01*
X1261872Y1515070D02*
X1255268D01*
X1291590D02*
X1285240D01*
X1261872Y1515324D02*
X1255268D01*
X1291336D02*
X1284986D01*
X1262126Y1515578D02*
X1255268D01*
X1291336D02*
X1284986D01*
X1262126Y1515832D02*
X1255522D01*
X1291336D02*
X1284986D01*
X1262380Y1516086D02*
X1255522D01*
X1291336D02*
X1284986D01*
X1262634Y1516340D02*
X1255522D01*
X1291336D02*
X1284732D01*
X1262888Y1516594D02*
X1255776D01*
X1291082D02*
X1284732D01*
X1262888Y1516848D02*
X1255776D01*
X1291082D02*
X1284732D01*
X1263142Y1517102D02*
X1255776D01*
X1291082D02*
X1284478D01*
X1263396Y1517356D02*
X1256030D01*
X1277366D02*
X1275334D01*
X1291082D02*
X1284478D01*
X1263650Y1517610D02*
X1256030D01*
X1277874D02*
X1274572D01*
X1290828D02*
X1284224D01*
X1264158Y1517864D02*
X1256284D01*
X1278382D02*
X1274318D01*
X1290828D02*
X1284224D01*
X1264412Y1518118D02*
X1256284D01*
X1278636D02*
X1274064D01*
X1290828D02*
X1284224D01*
X1264666Y1518372D02*
X1256538D01*
X1278636D02*
X1273556D01*
X1290574D02*
X1283970D01*
X1265174Y1518626D02*
X1256538D01*
X1278890D02*
X1273302D01*
X1290574D02*
X1283970D01*
X1265682Y1518880D02*
X1256792D01*
X1279144D02*
X1272794D01*
X1290574D02*
X1283716D01*
X1266190Y1519134D02*
X1257046D01*
X1279144D02*
X1272032D01*
X1290320D02*
X1283716D01*
X1266952Y1519388D02*
X1257046D01*
X1279144D02*
X1271270D01*
X1290320D02*
X1283462D01*
X1268222Y1519642D02*
X1257300D01*
X1279398D02*
X1270000D01*
X1290320D02*
X1283462D01*
X1279398Y1519896D02*
X1257554D01*
X1290066D02*
X1283208D01*
X1279398Y1520150D02*
X1257554D01*
X1290066D02*
X1282954D01*
X1279398Y1520404D02*
X1257808D01*
X1289812D02*
X1282954D01*
X1279398Y1520658D02*
X1258062D01*
X1289812D02*
X1282700D01*
X1279398Y1520912D02*
X1258316D01*
X1289812D02*
X1282446D01*
X1279144Y1521166D02*
X1258570D01*
X1289558D02*
X1282446D01*
X1279144Y1521420D02*
X1258824D01*
X1289558D02*
X1282192D01*
X1279144Y1521674D02*
X1259078D01*
X1289304D02*
X1281938D01*
X1278890Y1521928D02*
X1259332D01*
X1289304D02*
X1281684D01*
X1278636Y1522182D02*
X1259586D01*
X1289050D02*
X1281430D01*
X1278636Y1522436D02*
X1259840D01*
X1288796D02*
X1281430D01*
X1278128Y1522690D02*
X1260094D01*
X1288796D02*
X1281176D01*
X1277874Y1522944D02*
X1260348D01*
X1288542D02*
X1280922D01*
X1277620Y1523198D02*
X1260856D01*
X1288542D02*
X1280668D01*
X1277112Y1523452D02*
X1261110D01*
X1288288D02*
X1280414D01*
X1257808Y1523706D02*
X1255776D01*
X1276858D02*
X1261618D01*
X1288034D02*
X1280160D01*
X1258570Y1523960D02*
X1255268D01*
X1276350D02*
X1261872D01*
X1288034D02*
X1279652D01*
X1258824Y1524214D02*
X1255014D01*
X1275842D02*
X1262380D01*
X1287780D02*
X1279398D01*
X1259078Y1524468D02*
X1254506D01*
X1275334D02*
X1262888D01*
X1287526D02*
X1279144D01*
X1259586Y1524722D02*
X1254506D01*
X1274826D02*
X1263396D01*
X1287526D02*
X1278890D01*
X1259840Y1524976D02*
X1254252D01*
X1274318D02*
X1264158D01*
X1287272D02*
X1278382D01*
X1260348Y1525230D02*
X1253998D01*
X1273556D02*
X1264920D01*
X1287018D02*
X1278128D01*
X1256284Y1525484D02*
X1253998D01*
X1260602D02*
X1257300D01*
X1272540D02*
X1265682D01*
X1286764D02*
X1277620D01*
X1256030Y1525738D02*
X1253998D01*
X1261110D02*
X1257808D01*
X1271270D02*
X1267206D01*
X1286764D02*
X1277112D01*
X1255776Y1525992D02*
X1253744D01*
X1261618D02*
X1257808D01*
X1286510D02*
X1276858D01*
X1255776Y1526246D02*
X1253744D01*
X1262126D02*
X1258062D01*
X1286256D02*
X1276350D01*
X1255776Y1526500D02*
X1253744D01*
X1262634D02*
X1258062D01*
X1286002D02*
X1275588D01*
X1255776Y1526754D02*
X1253744D01*
X1263142D02*
X1258062D01*
X1285748D02*
X1275080D01*
X1255776Y1527008D02*
X1253744D01*
X1263904D02*
X1258062D01*
X1285494D02*
X1274318D01*
X1256030Y1527262D02*
X1253744D01*
X1264666D02*
X1257808D01*
X1285240D02*
X1273556D01*
X1256284Y1527516D02*
X1253998D01*
X1265682D02*
X1257554D01*
X1284986D02*
X1272540D01*
X1267206Y1527770D02*
X1253998D01*
X1284732D02*
X1271016D01*
X1284478Y1528024D02*
X1253998D01*
X1284224Y1528278D02*
X1254252D01*
X1283970Y1528532D02*
X1254506D01*
X1283716Y1528786D02*
X1254506D01*
X1283462Y1529040D02*
X1254760D01*
X1282954Y1529294D02*
X1255268D01*
X1282700Y1529548D02*
X1255522D01*
X1282446Y1529802D02*
X1255776D01*
X1281938Y1530056D02*
X1256284D01*
X1281684Y1530310D02*
X1256538D01*
X1281176Y1530564D02*
X1257046D01*
X1280922Y1530818D02*
X1257300D01*
X1280414Y1531072D02*
X1257808D01*
X1279906Y1531326D02*
X1258316D01*
X1279398Y1531580D02*
X1258824D01*
X1278890Y1531834D02*
X1259332D01*
X1278382Y1532088D02*
X1259840D01*
X1277874Y1532342D02*
X1260348D01*
X1277112Y1532596D02*
X1261110D01*
X1276604Y1532850D02*
X1261872D01*
X1275842Y1533104D02*
X1262634D01*
X1274826Y1533358D02*
X1263396D01*
X1273810Y1533612D02*
X1264666D01*
X1272286Y1533866D02*
X1266190D01*
M02*
