M48
;Layer_Color=9474304
;FILE_FORMAT=4:4
METRIC,LZ
;TYPE=PLATED
T1F00S00C1.1000
T3F00S00C3.0000
T4F00S00C4.8000
;TYPE=NON_PLATED
T5F00S00C0.9000
%
T01
X002369Y0008
X002623
X002877
X003131
X00107Y0025715
Y0028255
Y0030795
Y0033335
X00505Y003354
Y0031
Y002846
Y002592
T03
X00385Y0014
X00165
Y0046
X00385
T04
X00505Y0005
X00045
X00505Y0055
X00045
T05
X0006Y0042976
Y0045976
M30
