G04 Layer_Color=65535*
%FSLAX44Y44*%
%MOMM*%
G71*
G01*
G75*
%ADD14C,0.2000*%
D14*
X116900Y507700D02*
X142300D01*
Y482300D02*
Y507700D01*
X116900Y482300D02*
Y507700D01*
X142300Y501350D02*
X148650Y507700D01*
X161350D01*
X167700Y501350D01*
Y488650D02*
Y501350D01*
X161350Y482300D02*
X167700Y488650D01*
X148650Y482300D02*
X161350D01*
X142300Y488650D02*
X148650Y482300D01*
X116900D02*
X142300D01*
X167700Y488650D02*
X174050Y482300D01*
X186750D01*
X193100Y488650D01*
Y501350D01*
X186750Y507700D02*
X193100Y501350D01*
X174050Y507700D02*
X186750D01*
X167700Y501350D02*
X174050Y507700D01*
X-142300Y482300D02*
X-116900D01*
X-142300D02*
Y507700D01*
X-116900Y482300D02*
Y507700D01*
X-148650Y482300D02*
X-142300Y488650D01*
X-161350Y482300D02*
X-148650D01*
X-167700Y488650D02*
X-161350Y482300D01*
X-167700Y488650D02*
Y501350D01*
X-161350Y507700D01*
X-148650D01*
X-142300Y501350D01*
Y507700D02*
X-116900D01*
X-174050D02*
X-167700Y501350D01*
X-186750Y507700D02*
X-174050D01*
X-193100Y501350D02*
X-186750Y507700D01*
X-193100Y488650D02*
Y501350D01*
Y488650D02*
X-186750Y482300D01*
X-174050D01*
X-167700Y488650D01*
M02*
