G04 Layer_Color=16711935*
%FSLAX44Y44*%
%MOMM*%
G71*
G01*
G75*
%ADD18C,0.2540*%
D18*
X183067Y590000D02*
G03*
X170000Y600000I-11533J-1533D01*
G01*
X-170000D02*
G03*
X-183067Y590000I-1533J-11533D01*
G01*
X51667Y650000D02*
G03*
X40000Y660000I-10833J-833D01*
G01*
X-40000D02*
G03*
X-51667Y650000I-833J-10833D01*
G01*
X58333Y610000D02*
G03*
X70000Y600000I10833J833D01*
G01*
X-70000D02*
G03*
X-58333Y610000I833J10833D01*
G01*
X220000Y475000D02*
G03*
X222300Y480000I-1350J3650D01*
G01*
X107893D02*
G03*
X115000Y475000I6740J2029D01*
G01*
X97238Y505000D02*
G03*
X87238Y515000I-10000J0D01*
G01*
X23000Y0D02*
G03*
X30107Y5000I368J7029D01*
G01*
X40000Y20000D02*
G03*
X30000Y10000I0J-10000D01*
G01*
X-88022Y515000D02*
G03*
X-98022Y505000I0J-10000D01*
G01*
X-39895Y505000D02*
G03*
X-49895Y515000I-10000J0D01*
G01*
X-115000Y475000D02*
G03*
X-107893Y480000I368J7029D01*
G01*
X-222300D02*
G03*
X-220000Y475000I3650J-1350D01*
G01*
X49911Y515170D02*
G03*
X39911Y505170I0J-10000D01*
G01*
X-30000Y10000D02*
G03*
X-40000Y20000I-10000J0D01*
G01*
X-30108Y5000D02*
G03*
X-23000Y0I6740J2029D01*
G01*
X70000Y600000D02*
X170000Y600000D01*
X183067Y590000D02*
X222300Y480000D01*
X-222300D02*
X-183067Y590000D01*
X-170000Y600000D02*
X-70000Y600000D01*
X51667Y650000D02*
X58333Y610000D01*
X-58333D02*
X-51667Y650000D01*
X-40000Y660000D02*
X40000Y660000D01*
X115000Y475000D02*
X220000Y475000D01*
X97238Y505000D02*
X107893Y480000D01*
X49910Y515084D02*
X87238Y515002D01*
X39895Y505170D02*
X40110Y20000D01*
X-40110D02*
X-39895Y505000D01*
X-88022Y515000D02*
X-49895Y515084D01*
X-220000Y475000D02*
X-115000Y475000D01*
X-23000Y0D02*
X23000D01*
X30000Y10000D02*
X30107Y5000D01*
X-107893Y480000D02*
X-98000Y505000D01*
X-30108Y5000D02*
X-30005Y9785D01*
M02*
