M48
;Layer_Color=9474304
;FILE_FORMAT=4:4
METRIC,LZ
;TYPE=PLATED
T1F00S00C0.3000
T2F00S00C0.5000
T3F00S00C0.7620
T4F00S00C1.1000
T6F00S00C3.0000
T7F00S00C4.8000
;TYPE=NON_PLATED
T8F00S00C0.9000
%
T01
X015725Y003625
X016525Y0034
X0019Y00368
X01715Y0129549
X01446Y0129824
X01255Y0129549
X00986Y0129824
X00795Y0129549
X00526Y0129824
X00335Y0129549
X00066Y0129824
X00295Y0170451
X00564Y0170176
X00755Y0170451
X01024Y0170176
X01215Y0170451
X01484Y0170176
T02
X003045Y0004775
X00311
X0031775
X0032425
X003305
X008945
X00901
X0090775
X0091425
X009205
X014245
X01431
X0143775
X0144425
X014505
X0171225Y003445
Y00351
Y0035775
Y0036425
Y003705
X011675Y00341
Y0033475
Y0032825
Y003215
Y00315
X0115225Y003145
Y00321
Y0032775
Y0033425
Y003405
X006075Y00341
Y0033475
Y0032825
Y003215
Y00315
X0059225Y003145
Y00321
Y0032775
Y0033425
Y003405
X000475Y0033825
Y0034475
Y00351
Y003315
Y00325
X00305Y006325
X003115
X0031825
X0032475
X00331
X003305Y0064775
X0032425
X0031775
X00311
X003045
X005925Y00909
Y0091525
Y0092175
Y009285
Y00935
X0060775Y009355
Y00929
Y0092225
Y0091575
Y009095
X008645Y0064775
X00871
X0087775
X0088425
X008905
X0088475Y006325
X0087825
X008715
X00865
X00891
X011525Y00889
Y0089525
Y0090175
Y009085
Y00915
X0116775Y009155
Y00909
Y0090225
Y0089575
Y008895
X014245Y0064775
X01431
X0143775
X0144425
X014505
X01451Y006325
X0144475
X0143825
X014315
X01425
X0171225Y009445
Y00951
Y0095775
Y0096425
Y009705
X0173225Y012945
Y01301
Y0130775
Y0131425
Y013205
X017475Y01321
Y0131475
Y0130825
Y013015
Y01295
X016105Y0124775
X0160425
X0159775
X01591
X015845
X01585Y012325
X015915
X0159825
X0160475
X01611
X014275Y01315
Y013215
Y0132825
Y0133475
X0141225Y0133425
Y0132775
Y01321
Y013145
X012875Y01315
Y013215
Y0132825
Y0133475
X0127225Y0133425
Y0132775
Y01321
Y013145
X010905Y0124775
X0108425
X0107775
X01071
X010645
X01065Y012325
X010715
X0107825
X0108475
X01091
X009675Y01305
Y013115
Y0131825
Y0132475
Y01331
X0095225Y013305
Y0132425
Y0131775
Y01311
Y013045
X008275Y01305
Y013115
Y0131825
Y0132475
Y01331
X0081225Y013305
Y0132425
Y0131775
Y01311
Y013045
X007305Y0124775
X0072425
X0071775
X00711
X007045
X00705Y012325
X007115
X0071825
X0072475
X00731
X005075Y01305
Y013115
Y0131825
Y0132475
Y01331
X0049225Y013305
Y0132425
Y0131775
Y01311
Y013045
X003675Y01305
Y013115
Y0131825
Y0132475
Y01331
X0035225Y013305
Y0132425
Y0131775
Y01311
Y013045
X002105Y0124775
X0020425
X0019775
X00191
X001845
X00185Y012325
X001915
X0019825
X0020475
X00211
X000475Y01295
Y013015
Y0130825
Y0131475
Y01321
X0004775Y009755
Y00969
Y0096225
Y0095575
Y009495
X0127225Y013405
X012875Y01341
X0141225Y013405
X014275Y01341
X013655Y0175225
X01359
X0135225
X0134575
X013395
X015665Y01752
X015725
X0157975
X0158725
X0159425Y017525
X0113425
X0112725Y01752
X0111975
X011125
X011065
X009055Y0175225
X00899
X0089225
X0088575
X008795
X0067425Y017525
X0066725Y01752
X0065975
X006525
X006465
X004455Y0175225
X00439
X0043225
X0042575
X004195
X0021425Y017525
X0020725Y01752
X0019975
X001925
X001865
T03
X000175Y000175
X01765Y01785
T04
X002819Y0012
X003073
X003327
X003581
X005495Y0014567
X008419Y0012
X008673
X008927
X009181
X014019
X014273
X014527
X014781
X016695Y0019595
Y0022135
Y0024675
Y0027215
X0167Y004069
Y004323
Y004577
Y004831
X01272Y003781
Y003527
Y003273
Y003019
X011095Y0027215
Y0024675
Y0022135
Y0019595
X0111Y004069
Y004323
Y004577
Y004831
X00712Y003781
Y003527
Y003273
Y003019
X005495Y0030192
Y0032732
Y0035272
Y0037812
Y0045812
Y0048352
Y0050892
Y0053432
Y0022187
Y0019647
Y0017107
X00152Y0029715
Y0032255
Y0034795
Y0037335
X002819Y0072
X003073
X003327
X003581
X00152Y0089715
Y0092255
X005495Y0092732
Y0090192
Y0082187
Y0079647
Y0077107
Y0074567
X008419Y0072
X008673
X00712Y009019
Y009273
X008927Y0072
X009181
X011095Y0079595
Y0082135
Y0084675
Y0087215
X01272Y0089715
Y0092255
X014019Y0072
X014273
X014527
X014781
X0167Y008992
Y009246
Y0095
Y009754
X016054Y0127499
X0158
X015546
Y0131499
X0158
X016054
X011454
X0112
X010946
Y0127499
X0112
X011454
X0111Y010831
Y010577
Y010323
Y010069
X01272Y0097335
Y0094795
X00712Y009527
Y009781
X005495Y0097812
Y0095272
Y0105812
Y0108352
Y0110892
Y0113432
X006346Y0127499
X0066
X006854
Y0131499
X0066
X006346
X002254
X002
X001746
Y0127499
X002
X002254
X00152Y0097335
Y0094795
X001619Y0160699
X001873
X002127
X002381
X004046Y0168501
X0043
X004554
Y0172501
X0043
X004046
X004173Y0139301
X004427
X004681
X003919
X006219Y0160699
X006473
X006727
X006981
X008646Y0168501
X0089
Y0172501
X008646
X008773Y0139301
X008519
X009027
X009281
X009154Y0168501
Y0172501
X010819Y0160699
X011073
X011327
X011581
X013246Y0168501
X0135
X013754
Y0172501
X0135
X013246
X015419Y0160699
X015673
X015927
X016181
X013881Y0139301
X013627
X013373
X013119
T06
X01355Y00155
X01525
Y00525
X01355
X00965Y00425
Y00255
X00795
Y00425
X0038Y00535
X0026
Y00165
X0038
X0043Y0078
X0021
X0077
X0099
X01315Y0079
X01615
Y0109
X01315
X0099Y011
X0077
X0043
X0021
T07
X0009Y0009
X0055
X0065
X0111
X0121
X0167
X0009Y0059
Y0069
X0055
Y0059
X0065
Y0069
X0111
Y0059
X0121
Y0069
X0167
Y0059
Y0119
X0121
X0111
X0065
X0055
X0009
T08
X0163Y0032524
Y0035524
X0107
Y0032524
X0011748Y0046585
Y0049585
X0107Y0092524
Y0095524
X01225Y0106976
Y0109976
X0011748Y0109585
Y0106585
M30
