G04 Layer_Physical_Order=1*
G04 Layer_Color=255*
%FSLAX44Y44*%
%MOMM*%
G71*
G01*
G75*
%ADD10R,0.8500X0.9500*%
G04:AMPARAMS|DCode=11|XSize=1.3mm|YSize=1mm|CornerRadius=0.25mm|HoleSize=0mm|Usage=FLASHONLY|Rotation=0.000|XOffset=0mm|YOffset=0mm|HoleType=Round|Shape=RoundedRectangle|*
%AMROUNDEDRECTD11*
21,1,1.3000,0.5000,0,0,0.0*
21,1,0.8000,1.0000,0,0,0.0*
1,1,0.5000,0.4000,-0.2500*
1,1,0.5000,-0.4000,-0.2500*
1,1,0.5000,-0.4000,0.2500*
1,1,0.5000,0.4000,0.2500*
%
%ADD11ROUNDEDRECTD11*%
%ADD12C,0.5000*%
%ADD13C,0.2540*%
%ADD14C,1.8000*%
%ADD15P,1.9483X8X112.5*%
G36*
X363149Y135831D02*
X366177Y134912D01*
X368967Y133420D01*
X371413Y131413D01*
X373420Y128967D01*
X374912Y126177D01*
X375831Y123149D01*
X376132Y120085D01*
X376115Y120000D01*
Y20000D01*
X376132Y19915D01*
X375831Y16851D01*
X374912Y13823D01*
X373420Y11033D01*
X371413Y8587D01*
X368967Y6579D01*
X366177Y5088D01*
X363149Y4169D01*
X360085Y3868D01*
X360000Y3885D01*
X20000D01*
X19915Y3868D01*
X16851Y4169D01*
X13823Y5088D01*
X11033Y6579D01*
X8587Y8587D01*
X6579Y11033D01*
X5088Y13823D01*
X4169Y16851D01*
X3868Y19915D01*
X3885Y20000D01*
Y120000D01*
X3868Y120085D01*
X4169Y123149D01*
X5088Y126177D01*
X6579Y128967D01*
X8587Y131413D01*
X11033Y133420D01*
X13823Y134912D01*
X16851Y135831D01*
X19915Y136132D01*
X20000Y136115D01*
X360000D01*
X360085Y136132D01*
X363149Y135831D01*
D02*
G37*
%LPC*%
G36*
X278000Y70240D02*
X274988Y69843D01*
X272180Y68680D01*
X269770Y66830D01*
X267920Y64420D01*
X266757Y61613D01*
X266360Y58600D01*
X266757Y55588D01*
X267920Y52780D01*
X269770Y50370D01*
X272180Y48520D01*
X274988Y47357D01*
X278000Y46961D01*
X281012Y47357D01*
X283820Y48520D01*
X286230Y50370D01*
X288080Y52780D01*
X289243Y55588D01*
X289640Y58600D01*
X289243Y61613D01*
X288080Y64420D01*
X286230Y66830D01*
X283820Y68680D01*
X281012Y69843D01*
X278000Y70240D01*
D02*
G37*
G36*
X189500Y97389D02*
X181500D01*
X179534Y96998D01*
X177866Y95884D01*
X176752Y94216D01*
X176361Y92250D01*
Y87250D01*
X176752Y85283D01*
X177866Y83616D01*
X179487Y82533D01*
X179534Y82234D01*
Y81516D01*
X179487Y81217D01*
X177866Y80134D01*
X176752Y78467D01*
X176361Y76500D01*
Y71500D01*
X176752Y69534D01*
X177866Y67866D01*
X179487Y66783D01*
X179534Y66484D01*
Y65766D01*
X179487Y65467D01*
X177866Y64384D01*
X176752Y62716D01*
X176361Y60750D01*
Y55750D01*
X176752Y53783D01*
X177866Y52116D01*
X179534Y51002D01*
X180361Y50838D01*
Y48679D01*
X135935D01*
X135241Y49143D01*
X134250Y49340D01*
X125750D01*
X124759Y49143D01*
X124396Y48900D01*
X123500Y48683D01*
X122604Y48900D01*
X122241Y49143D01*
X121250Y49340D01*
X112750D01*
X111759Y49143D01*
X110919Y48581D01*
X110357Y47741D01*
X110160Y46750D01*
Y37250D01*
X110357Y36259D01*
X110919Y35419D01*
X111759Y34857D01*
X111861Y34837D01*
Y33000D01*
X112253Y31033D01*
X113366Y29366D01*
X116366Y26366D01*
X118034Y25252D01*
X120000Y24861D01*
X137477D01*
X139444Y25252D01*
X141111Y26366D01*
X145606Y30861D01*
X202000D01*
X203967Y31252D01*
X205634Y32366D01*
X220128Y46861D01*
X225212D01*
X225246Y46727D01*
X225348Y45591D01*
X222635Y43365D01*
X220284Y40501D01*
X218538Y37233D01*
X217462Y33687D01*
X217099Y30000D01*
X217462Y26313D01*
X218538Y22767D01*
X220284Y19499D01*
X222635Y16635D01*
X225499Y14284D01*
X228767Y12538D01*
X232313Y11462D01*
X236000Y11099D01*
X239687Y11462D01*
X243233Y12538D01*
X246501Y14284D01*
X249365Y16635D01*
X251716Y19499D01*
X253462Y22767D01*
X254538Y26313D01*
X254901Y30000D01*
X254538Y33687D01*
X253462Y37233D01*
X251716Y40501D01*
X249365Y43365D01*
X246652Y45591D01*
X246754Y46727D01*
X246788Y46861D01*
X248295D01*
X265590Y29566D01*
X266410Y29018D01*
Y28700D01*
X266607Y27709D01*
X267169Y26869D01*
X271669Y22369D01*
X272509Y21807D01*
X273500Y21610D01*
X282500D01*
X283491Y21807D01*
X284331Y22369D01*
X288831Y26869D01*
X289393Y27709D01*
X289590Y28700D01*
Y37700D01*
X289393Y38691D01*
X288831Y39531D01*
X284331Y44031D01*
X283491Y44593D01*
X282500Y44790D01*
X273500D01*
X272509Y44593D01*
X271669Y44031D01*
X268664Y41027D01*
X254057Y55634D01*
X252390Y56748D01*
X250424Y57139D01*
X218000D01*
X216033Y56748D01*
X214366Y55634D01*
X199872Y41139D01*
X189565D01*
X189270Y41852D01*
X189162Y42409D01*
X190248Y44033D01*
X190639Y46000D01*
Y50838D01*
X191467Y51002D01*
X193134Y52116D01*
X194248Y53783D01*
X194639Y55750D01*
Y60750D01*
X194248Y62716D01*
X193134Y64384D01*
X191513Y65467D01*
X191467Y65766D01*
Y66484D01*
X191513Y66783D01*
X193134Y67866D01*
X194248Y69534D01*
X194639Y71500D01*
Y76500D01*
X194248Y78467D01*
X193134Y80134D01*
X191513Y81217D01*
X191467Y81516D01*
Y82234D01*
X191513Y82533D01*
X193134Y83616D01*
X194248Y85283D01*
X194639Y87250D01*
Y92250D01*
X194248Y94216D01*
X193134Y95884D01*
X191467Y96998D01*
X189500Y97389D01*
D02*
G37*
G36*
X86000Y48901D02*
X82313Y48538D01*
X78767Y47462D01*
X75499Y45716D01*
X72635Y43365D01*
X70284Y40501D01*
X68538Y37233D01*
X67462Y33687D01*
X67099Y30000D01*
X67462Y26313D01*
X68538Y22767D01*
X70284Y19499D01*
X72635Y16635D01*
X75499Y14284D01*
X78767Y12538D01*
X82313Y11462D01*
X86000Y11099D01*
X89687Y11462D01*
X93233Y12538D01*
X96501Y14284D01*
X99365Y16635D01*
X101716Y19499D01*
X103462Y22767D01*
X104538Y26313D01*
X104901Y30000D01*
X104538Y33687D01*
X103462Y37233D01*
X101716Y40501D01*
X99365Y43365D01*
X96501Y45716D01*
X93233Y47462D01*
X89687Y48538D01*
X86000Y48901D01*
D02*
G37*
G36*
X40000Y44840D02*
X36988Y44443D01*
X34180Y43280D01*
X31770Y41430D01*
X29920Y39020D01*
X28757Y36213D01*
X28360Y33200D01*
X28757Y30187D01*
X29920Y27380D01*
X31770Y24970D01*
X34180Y23120D01*
X36988Y21957D01*
X40000Y21560D01*
X43012Y21957D01*
X45820Y23120D01*
X48230Y24970D01*
X50080Y27380D01*
X51243Y30187D01*
X51639Y33200D01*
X51243Y36213D01*
X50080Y39020D01*
X48230Y41430D01*
X45820Y43280D01*
X43012Y44443D01*
X40000Y44840D01*
D02*
G37*
G36*
X86000Y128901D02*
X82313Y128538D01*
X78767Y127462D01*
X75499Y125716D01*
X72635Y123365D01*
X70284Y120501D01*
X68538Y117233D01*
X67462Y113687D01*
X67099Y110000D01*
X67462Y106313D01*
X68538Y102767D01*
X70284Y99499D01*
X72635Y96635D01*
X75499Y94284D01*
X78767Y92538D01*
X79192Y92409D01*
X79004Y91139D01*
X66129D01*
X51137Y106131D01*
X51243Y106388D01*
X51639Y109400D01*
X51243Y112413D01*
X50080Y115220D01*
X48230Y117630D01*
X45820Y119480D01*
X43012Y120643D01*
X40000Y121040D01*
X36988Y120643D01*
X34180Y119480D01*
X31770Y117630D01*
X29920Y115220D01*
X28757Y112413D01*
X28360Y109400D01*
X28757Y106388D01*
X29920Y103580D01*
X31770Y101170D01*
X34180Y99320D01*
X36988Y98157D01*
X40000Y97760D01*
X43012Y98157D01*
X44118Y98615D01*
X60366Y82366D01*
X62034Y81252D01*
X64000Y80861D01*
X128868D01*
X129583Y79591D01*
X129308Y79139D01*
X52129D01*
X50961Y80306D01*
X51243Y80988D01*
X51639Y84000D01*
X51243Y87013D01*
X50080Y89820D01*
X48230Y92230D01*
X45820Y94080D01*
X43012Y95243D01*
X40000Y95640D01*
X36988Y95243D01*
X34180Y94080D01*
X31770Y92230D01*
X29920Y89820D01*
X28757Y87013D01*
X28360Y84000D01*
X28757Y80988D01*
X29920Y78180D01*
X31770Y75770D01*
X34180Y73920D01*
X36988Y72757D01*
X40000Y72361D01*
X43012Y72757D01*
X43694Y73039D01*
X46366Y70366D01*
X48033Y69252D01*
X50000Y68861D01*
X130202D01*
X130866Y67866D01*
X132487Y66783D01*
X132534Y66484D01*
Y65766D01*
X132487Y65467D01*
X130866Y64384D01*
X130435Y63739D01*
X50362D01*
X50080Y64420D01*
X48230Y66830D01*
X45820Y68680D01*
X43012Y69843D01*
X40000Y70240D01*
X36988Y69843D01*
X34180Y68680D01*
X31770Y66830D01*
X29920Y64420D01*
X28757Y61613D01*
X28360Y58600D01*
X28757Y55588D01*
X29920Y52780D01*
X31770Y50370D01*
X34180Y48520D01*
X36988Y47357D01*
X40000Y46961D01*
X43012Y47357D01*
X45820Y48520D01*
X48230Y50370D01*
X50080Y52780D01*
X50362Y53461D01*
X129968D01*
X130866Y52116D01*
X132534Y51002D01*
X134500Y50611D01*
X142500D01*
X144466Y51002D01*
X146134Y52116D01*
X147248Y53783D01*
X147639Y55750D01*
Y60750D01*
X147248Y62716D01*
X146134Y64384D01*
X144513Y65467D01*
X144466Y65766D01*
Y66484D01*
X144513Y66783D01*
X146134Y67866D01*
X147248Y69534D01*
X147639Y71500D01*
Y76500D01*
X147248Y78467D01*
X146134Y80134D01*
X144513Y81217D01*
X144466Y81516D01*
Y82234D01*
X144513Y82533D01*
X146134Y83616D01*
X147248Y85283D01*
X147639Y87250D01*
Y92250D01*
X147248Y94216D01*
X146134Y95884D01*
X144466Y96998D01*
X142500Y97389D01*
X134500D01*
X132534Y96998D01*
X130866Y95884D01*
X129752Y94216D01*
X129361Y92250D01*
Y91139D01*
X92996D01*
X92808Y92409D01*
X93233Y92538D01*
X96501Y94284D01*
X99365Y96635D01*
X101716Y99499D01*
X103462Y102767D01*
X104538Y106313D01*
X104901Y110000D01*
X104538Y113687D01*
X103462Y117233D01*
X101716Y120501D01*
X99365Y123365D01*
X96501Y125716D01*
X93233Y127462D01*
X89687Y128538D01*
X86000Y128901D01*
D02*
G37*
G36*
X278000Y121040D02*
X274988Y120643D01*
X272180Y119480D01*
X269770Y117630D01*
X267920Y115220D01*
X266757Y112413D01*
X266360Y109400D01*
X266757Y106388D01*
X267920Y103580D01*
X269770Y101170D01*
X272180Y99320D01*
X274988Y98157D01*
X278000Y97760D01*
X281012Y98157D01*
X283820Y99320D01*
X286230Y101170D01*
X288080Y103580D01*
X289243Y106388D01*
X289640Y109400D01*
X289243Y112413D01*
X288080Y115220D01*
X286230Y117630D01*
X283820Y119480D01*
X281012Y120643D01*
X278000Y121040D01*
D02*
G37*
G36*
Y95640D02*
X274988Y95243D01*
X272180Y94080D01*
X269770Y92230D01*
X267920Y89820D01*
X266757Y87013D01*
X266360Y84000D01*
X266757Y80988D01*
X267920Y78180D01*
X269770Y75770D01*
X272180Y73920D01*
X274988Y72757D01*
X278000Y72361D01*
X281012Y72757D01*
X283820Y73920D01*
X286230Y75770D01*
X288080Y78180D01*
X289243Y80988D01*
X289640Y84000D01*
X289243Y87013D01*
X288080Y89820D01*
X286230Y92230D01*
X283820Y94080D01*
X281012Y95243D01*
X278000Y95640D01*
D02*
G37*
G36*
X236000Y128901D02*
X232313Y128538D01*
X228767Y127462D01*
X225499Y125716D01*
X222635Y123365D01*
X220284Y120501D01*
X218538Y117233D01*
X217462Y113687D01*
X217099Y110000D01*
X217462Y106313D01*
X218538Y102767D01*
X220284Y99499D01*
X222635Y96635D01*
X225499Y94284D01*
X228767Y92538D01*
X232313Y91462D01*
X236000Y91099D01*
X239687Y91462D01*
X243233Y92538D01*
X246501Y94284D01*
X249365Y96635D01*
X251716Y99499D01*
X253462Y102767D01*
X254538Y106313D01*
X254901Y110000D01*
X254538Y113687D01*
X253462Y117233D01*
X251716Y120501D01*
X249365Y123365D01*
X246501Y125716D01*
X243233Y127462D01*
X239687Y128538D01*
X236000Y128901D01*
D02*
G37*
%LPD*%
D10*
X117000Y42000D02*
D03*
X130000D02*
D03*
D11*
X138500Y89750D02*
D03*
Y74000D02*
D03*
Y58250D02*
D03*
X185500D02*
D03*
Y74000D02*
D03*
Y89750D02*
D03*
D12*
X269223Y33200D02*
X278000D01*
X250424Y52000D02*
X269223Y33200D01*
X218000Y52000D02*
X250424D01*
X202000Y36000D02*
X218000Y52000D01*
X131540Y43540D02*
X183040D01*
X185500Y46000D01*
Y58250D01*
Y74000D01*
Y89750D01*
X130000Y42000D02*
X131540Y43540D01*
X143477Y36000D02*
X202000D01*
X137477Y30000D02*
X143477Y36000D01*
X120000Y30000D02*
X137477D01*
X117000Y33000D02*
X120000Y30000D01*
X117000Y33000D02*
Y42000D01*
X40000Y58600D02*
X138150D01*
X138500Y58250D01*
X50000Y74000D02*
X138500D01*
X40000Y84000D02*
X50000Y74000D01*
X40000Y109400D02*
X40600D01*
X64000Y86000D01*
X134750D01*
X138500Y89750D01*
D13*
X251000Y110000D02*
G03*
X251000Y110000I-15000J0D01*
G01*
Y30000D02*
G03*
X251000Y30000I-15000J0D01*
G01*
X101000D02*
G03*
X101000Y30000I-15000J0D01*
G01*
Y110000D02*
G03*
X101000Y110000I-15000J0D01*
G01*
D14*
X40000Y33200D02*
D03*
Y109400D02*
D03*
Y84000D02*
D03*
Y58600D02*
D03*
X278000D02*
D03*
Y84000D02*
D03*
Y109400D02*
D03*
D15*
Y33200D02*
D03*
M02*
