G04 Layer_Color=32896*
%FSLAX44Y44*%
%MOMM*%
G71*
G01*
G75*
%ADD28C,0.0508*%
D28*
X296704Y241860D02*
Y254052D01*
X296196Y238812D02*
Y257100D01*
X295688Y236272D02*
Y259132D01*
X295180Y234748D02*
Y261164D01*
X294672Y233224D02*
Y262688D01*
X294164Y231700D02*
Y263704D01*
X293656Y230176D02*
Y265228D01*
X293148Y229160D02*
Y266244D01*
X292640Y228144D02*
Y267260D01*
X292132Y227128D02*
Y268276D01*
X291624Y226112D02*
Y269292D01*
X291116Y225096D02*
Y270308D01*
X290608Y224080D02*
Y271324D01*
X290100Y223572D02*
Y271832D01*
X289592Y222556D02*
Y272848D01*
X289084Y222048D02*
Y273356D01*
X288576Y221032D02*
Y274372D01*
X288068Y220524D02*
Y274880D01*
X287560Y220016D02*
Y275388D01*
X287052Y219000D02*
Y276404D01*
X286544Y218492D02*
Y276912D01*
X286036Y218492D02*
Y277420D01*
X285528Y217984D02*
Y277928D01*
X285020Y217476D02*
Y278436D01*
X284512Y251512D02*
Y278944D01*
Y217476D02*
Y243892D01*
X284004Y254560D02*
Y279452D01*
Y224588D02*
Y240844D01*
Y217476D02*
Y222048D01*
X283496Y256592D02*
Y279960D01*
Y225096D02*
Y238812D01*
Y216968D02*
Y221540D01*
X282988Y258116D02*
Y280468D01*
Y225604D02*
Y237288D01*
Y216968D02*
Y221032D01*
X282480Y259640D02*
Y280976D01*
Y225604D02*
Y235764D01*
Y216968D02*
Y221032D01*
X281972Y260656D02*
Y281484D01*
Y225604D02*
Y234748D01*
Y216968D02*
Y221032D01*
X281464Y262180D02*
Y281992D01*
Y225604D02*
Y233732D01*
Y216968D02*
Y221032D01*
X280956Y263196D02*
Y282500D01*
Y225096D02*
Y232716D01*
Y216968D02*
Y221032D01*
X280448Y263704D02*
Y283008D01*
Y243892D02*
Y252020D01*
Y225096D02*
Y231700D01*
Y217476D02*
Y221540D01*
X279940Y264720D02*
Y283008D01*
Y240844D02*
Y254560D01*
Y224080D02*
Y230684D01*
Y217476D02*
Y222048D01*
X279432Y265736D02*
Y283516D01*
Y239320D02*
Y256592D01*
Y217476D02*
Y230176D01*
X278924Y266244D02*
Y284024D01*
Y237796D02*
Y258116D01*
Y217984D02*
Y229160D01*
X278416Y267260D02*
Y284532D01*
Y236272D02*
Y259132D01*
Y218492D02*
Y228652D01*
X277908Y267768D02*
Y284532D01*
Y235256D02*
Y260148D01*
Y218492D02*
Y227636D01*
X277400Y268276D02*
Y285040D01*
Y234240D02*
Y261164D01*
Y219508D02*
Y227128D01*
X276892Y268784D02*
Y285548D01*
Y233224D02*
Y262180D01*
Y220016D02*
Y226620D01*
X276384Y269800D02*
Y285548D01*
Y232716D02*
Y263196D01*
Y221032D02*
Y225096D01*
X275876Y270308D02*
Y286056D01*
Y231700D02*
Y263704D01*
X275368Y270816D02*
Y286564D01*
Y231192D02*
Y264720D01*
X274860Y271324D02*
Y286564D01*
Y230176D02*
Y265228D01*
X274352Y271832D02*
Y287072D01*
Y229668D02*
Y265736D01*
X273844Y272340D02*
Y287072D01*
Y229160D02*
Y266752D01*
X273336Y272340D02*
Y287580D01*
Y228652D02*
Y266752D01*
X272828Y272848D02*
Y288088D01*
Y228144D02*
Y267260D01*
X272320Y273356D02*
Y288088D01*
Y227636D02*
Y267768D01*
X271812Y273864D02*
Y288596D01*
Y227128D02*
Y267768D01*
X271304Y274372D02*
Y288596D01*
Y226620D02*
Y267768D01*
X270796Y274372D02*
Y289104D01*
Y226112D02*
Y268276D01*
X270288Y274880D02*
Y289104D01*
Y225604D02*
Y268276D01*
X269780Y275388D02*
Y289104D01*
Y225096D02*
Y268276D01*
X269272Y275388D02*
Y289612D01*
Y224588D02*
Y268276D01*
X268764Y275896D02*
Y289612D01*
Y224588D02*
Y268276D01*
X268256Y276404D02*
Y290120D01*
Y249480D02*
Y268276D01*
Y224080D02*
Y245924D01*
X267748Y276404D02*
Y290120D01*
Y252020D02*
Y267768D01*
Y223572D02*
Y243384D01*
X267240Y276912D02*
Y290120D01*
Y253544D02*
Y267768D01*
Y223572D02*
Y241860D01*
X266732Y276912D02*
Y290628D01*
Y255068D02*
Y267768D01*
Y223064D02*
Y240844D01*
X266224Y277420D02*
Y290628D01*
Y256084D02*
Y267260D01*
Y222556D02*
Y239828D01*
X265716Y277420D02*
Y290628D01*
Y256592D02*
Y266752D01*
Y222556D02*
Y238812D01*
X265208Y277928D02*
Y291136D01*
Y257608D02*
Y266752D01*
Y222048D02*
Y238304D01*
X264700Y277928D02*
Y291136D01*
Y258116D02*
Y266244D01*
Y222048D02*
Y237796D01*
X264192Y277928D02*
Y291136D01*
Y258624D02*
Y265228D01*
Y221540D02*
Y236780D01*
X263684Y278436D02*
Y291644D01*
Y260148D02*
Y264212D01*
Y221540D02*
Y236272D01*
X263176Y278436D02*
Y291644D01*
Y221032D02*
Y235764D01*
X262668Y278944D02*
Y291644D01*
Y221032D02*
Y235256D01*
X262160Y278944D02*
Y291644D01*
Y221032D02*
Y235256D01*
X261652Y278944D02*
Y292152D01*
Y220524D02*
Y234748D01*
X261144Y279452D02*
Y292152D01*
Y220524D02*
Y234240D01*
X260636Y279452D02*
Y292152D01*
Y220524D02*
Y233732D01*
X260128Y279452D02*
Y292152D01*
Y220016D02*
Y233732D01*
X259620Y279452D02*
Y292152D01*
Y220016D02*
Y233224D01*
X259112Y279960D02*
Y292660D01*
Y220016D02*
Y233224D01*
X258604Y279960D02*
Y292660D01*
Y219508D02*
Y232716D01*
X258096Y246940D02*
Y292660D01*
Y219508D02*
Y232716D01*
X257588Y244908D02*
Y292660D01*
Y219508D02*
Y232208D01*
X257080Y243892D02*
Y292660D01*
Y219508D02*
Y232208D01*
X256572Y243384D02*
Y292660D01*
Y219508D02*
Y232208D01*
X256064Y242876D02*
Y292660D01*
Y219508D02*
Y231700D01*
X255556Y242368D02*
Y292660D01*
Y219000D02*
Y231700D01*
X255048Y248972D02*
Y292660D01*
Y242368D02*
Y246940D01*
Y219000D02*
Y231700D01*
X254540Y249480D02*
Y292660D01*
Y241860D02*
Y245924D01*
Y219000D02*
Y231700D01*
X254032Y250496D02*
Y293168D01*
Y241860D02*
Y245416D01*
Y219000D02*
Y231700D01*
X253524Y250496D02*
Y293168D01*
Y241860D02*
Y244908D01*
Y219000D02*
Y231700D01*
X253016Y251004D02*
Y293168D01*
Y241352D02*
Y244400D01*
Y219000D02*
Y231192D01*
X252508Y251004D02*
Y293168D01*
Y241352D02*
Y244400D01*
Y219000D02*
Y231192D01*
X252000Y251004D02*
Y293168D01*
Y241352D02*
Y244400D01*
Y219000D02*
Y231192D01*
X251492Y251004D02*
Y293168D01*
Y241352D02*
Y244400D01*
Y219000D02*
Y231192D01*
X250984Y251004D02*
Y293168D01*
Y241352D02*
Y244400D01*
Y219000D02*
Y231192D01*
X250476Y250496D02*
Y293168D01*
Y241352D02*
Y244908D01*
Y219000D02*
Y231192D01*
X249968Y250496D02*
Y293168D01*
Y241860D02*
Y244908D01*
Y219000D02*
Y231700D01*
X249460Y249988D02*
Y293168D01*
Y241860D02*
Y245416D01*
Y219000D02*
Y231700D01*
X248952Y249480D02*
Y292660D01*
Y242368D02*
Y246432D01*
Y219000D02*
Y231700D01*
X248444Y242368D02*
Y292660D01*
Y219000D02*
Y231700D01*
X247936Y242876D02*
Y292660D01*
Y219000D02*
Y231700D01*
X247428Y243384D02*
Y292660D01*
Y219508D02*
Y232208D01*
X246920Y243892D02*
Y292660D01*
Y219508D02*
Y232208D01*
X246412Y244908D02*
Y292660D01*
Y219508D02*
Y232208D01*
X245904Y246432D02*
Y292660D01*
Y219508D02*
Y232716D01*
X245396Y279960D02*
Y292660D01*
Y219508D02*
Y232716D01*
X244888Y279960D02*
Y292660D01*
Y220016D02*
Y232716D01*
X244380Y279960D02*
Y292152D01*
Y220016D02*
Y233224D01*
X243872Y279452D02*
Y292152D01*
Y220016D02*
Y233732D01*
X243364Y279452D02*
Y292152D01*
Y220016D02*
Y233732D01*
X242856Y279452D02*
Y292152D01*
Y220524D02*
Y234240D01*
X242348Y278944D02*
Y292152D01*
Y220524D02*
Y234240D01*
X241840Y278944D02*
Y291644D01*
Y220524D02*
Y234748D01*
X241332Y278944D02*
Y291644D01*
Y221032D02*
Y235256D01*
X240824Y278436D02*
Y291644D01*
Y221032D02*
Y235764D01*
X240316Y278436D02*
Y291644D01*
Y260656D02*
Y263704D01*
Y221540D02*
Y236272D01*
X239808Y278436D02*
Y291136D01*
Y259132D02*
Y264720D01*
Y221540D02*
Y236780D01*
X239300Y277928D02*
Y291136D01*
Y258624D02*
Y265736D01*
Y222048D02*
Y237288D01*
X238792Y277928D02*
Y291136D01*
Y257608D02*
Y266244D01*
Y222048D02*
Y237796D01*
X238284Y277420D02*
Y291136D01*
Y257100D02*
Y266752D01*
Y222556D02*
Y238812D01*
X237776Y277420D02*
Y290628D01*
Y256084D02*
Y267260D01*
Y222556D02*
Y239320D01*
X237268Y276912D02*
Y290628D01*
Y255068D02*
Y267768D01*
Y223064D02*
Y240336D01*
X236760Y276912D02*
Y290628D01*
Y254052D02*
Y267768D01*
Y223064D02*
Y241352D01*
X236252Y276404D02*
Y290120D01*
Y253036D02*
Y267768D01*
Y223572D02*
Y242876D01*
X235744Y276404D02*
Y290120D01*
Y251004D02*
Y268276D01*
Y224080D02*
Y244908D01*
X235236Y275896D02*
Y289612D01*
Y224080D02*
Y268276D01*
X234728Y275896D02*
Y289612D01*
Y224588D02*
Y268276D01*
X234220Y275388D02*
Y289612D01*
Y225096D02*
Y268276D01*
X233712Y274880D02*
Y289104D01*
Y225604D02*
Y268276D01*
X233204Y274880D02*
Y289104D01*
Y225604D02*
Y268276D01*
X232696Y274372D02*
Y288596D01*
Y226112D02*
Y268276D01*
X232188Y273864D02*
Y288596D01*
Y226620D02*
Y267768D01*
X231680Y273356D02*
Y288088D01*
Y227128D02*
Y267768D01*
X231172Y273356D02*
Y288088D01*
Y227636D02*
Y267260D01*
X230664Y272848D02*
Y287580D01*
Y228144D02*
Y267260D01*
X230156Y272340D02*
Y287580D01*
Y228652D02*
Y266752D01*
X229648Y271832D02*
Y287072D01*
Y229668D02*
Y266244D01*
X229140Y271324D02*
Y287072D01*
Y230176D02*
Y265736D01*
X228632Y270816D02*
Y286564D01*
Y230684D02*
Y264720D01*
X228124Y270308D02*
Y286056D01*
Y231192D02*
Y264212D01*
X227616Y269800D02*
Y286056D01*
Y232208D02*
Y263704D01*
Y222048D02*
Y224588D01*
X227108Y269292D02*
Y285548D01*
Y233224D02*
Y262688D01*
Y220524D02*
Y226112D01*
X226600Y268784D02*
Y285040D01*
Y233732D02*
Y261672D01*
Y219508D02*
Y226620D01*
X226092Y267768D02*
Y285040D01*
Y234748D02*
Y260656D01*
Y219000D02*
Y227636D01*
X225584Y267260D02*
Y284532D01*
Y235764D02*
Y259640D01*
Y218492D02*
Y228144D01*
X225076Y266752D02*
Y284024D01*
Y237288D02*
Y258624D01*
Y217984D02*
Y228652D01*
X224568Y265736D02*
Y284024D01*
Y238304D02*
Y257100D01*
Y217984D02*
Y229668D01*
X224060Y265228D02*
Y283516D01*
Y240336D02*
Y255576D01*
Y217476D02*
Y230176D01*
X223552Y264212D02*
Y283008D01*
Y242368D02*
Y253036D01*
Y224588D02*
Y231192D01*
Y217476D02*
Y222048D01*
X223044Y263196D02*
Y282500D01*
Y225096D02*
Y232208D01*
Y216968D02*
Y221540D01*
X222536Y262180D02*
Y281992D01*
Y225604D02*
Y233224D01*
Y216968D02*
Y221032D01*
X222028Y261164D02*
Y281484D01*
Y225604D02*
Y234240D01*
Y216968D02*
Y221032D01*
X221520Y260148D02*
Y281484D01*
Y225604D02*
Y235256D01*
Y216968D02*
Y221032D01*
X221012Y259132D02*
Y280976D01*
Y225604D02*
Y236780D01*
Y216968D02*
Y221032D01*
X220504Y257608D02*
Y280468D01*
Y225096D02*
Y238304D01*
Y216968D02*
Y221032D01*
X219996Y255576D02*
Y279960D01*
Y225096D02*
Y239828D01*
Y216968D02*
Y221540D01*
X219488Y253036D02*
Y279452D01*
Y224080D02*
Y242368D01*
Y217476D02*
Y222048D01*
X218980Y217476D02*
Y278944D01*
X218472Y217984D02*
Y278436D01*
X217964Y217984D02*
Y277928D01*
X217456Y218492D02*
Y276912D01*
X216948Y219000D02*
Y276404D01*
X216440Y219508D02*
Y275896D01*
X215932Y220524D02*
Y275388D01*
X215424Y221032D02*
Y274372D01*
X214916Y221540D02*
Y273864D01*
X214408Y222556D02*
Y273356D01*
X213900Y223064D02*
Y272340D01*
X213392Y224080D02*
Y271324D01*
X212884Y224588D02*
Y270816D01*
X212376Y225604D02*
Y269800D01*
X211868Y226620D02*
Y268784D01*
X211360Y227636D02*
Y267768D01*
X210852Y228652D02*
Y266752D01*
X210344Y229668D02*
Y265736D01*
X209836Y231192D02*
Y264212D01*
X209328Y232208D02*
Y263196D01*
X208820Y233732D02*
Y261672D01*
X208312Y235764D02*
Y260148D01*
X207804Y237796D02*
Y258116D01*
X207296Y240336D02*
Y255068D01*
X206788Y244400D02*
Y251004D01*
M02*
