G04 Layer_Color=65535*
%FSLAX44Y44*%
%MOMM*%
G71*
G01*
G75*
%ADD17C,0.2540*%
%ADD18C,0.2000*%
%ADD19C,0.1000*%
%ADD20C,0.1500*%
G36*
X299533Y198000D02*
X273558D01*
Y254051D01*
X222975D01*
Y198000D01*
X197000D01*
Y326312D01*
X222975D01*
Y275730D01*
X273558D01*
Y326312D01*
X299533D01*
Y198000D01*
D02*
G37*
D17*
X410000Y250000D02*
G03*
X410000Y250000I-160000J0D01*
G01*
D18*
X198000Y436000D02*
Y464000D01*
X302300Y436000D02*
Y464000D01*
X198000D02*
X302300D01*
X198000Y436000D02*
X302300D01*
D19*
X45000Y351750D02*
X47500Y348250D01*
X45000D02*
X47500D01*
X45000Y351750D02*
X47250D01*
X42750D02*
X45000D01*
X42500Y348250D02*
X45000D01*
X42500D02*
X45000Y351750D01*
X45000Y251750D02*
X47500Y248250D01*
X45000D02*
X47500D01*
X45000Y251750D02*
X47250D01*
X42750D02*
X45000D01*
X42500Y248250D02*
X45000D01*
X42500D02*
X45000Y251750D01*
X45000Y151750D02*
X47500Y148250D01*
X45000D02*
X47500D01*
X45000Y151750D02*
X47250Y151750D01*
X42750D02*
X45000Y151750D01*
X42500Y148250D02*
X45000D01*
X42500D02*
X45000Y151750D01*
X148250Y452500D02*
X151750Y455000D01*
X148250Y452500D02*
Y455000D01*
X151750Y452750D02*
Y455000D01*
Y457250D01*
X148250Y455000D02*
Y457500D01*
X151750Y455000D01*
X348250Y452500D02*
X351750Y455000D01*
X348250Y452500D02*
Y455000D01*
X351750Y455000D02*
X351750Y452750D01*
X351750Y455000D02*
X351750Y457250D01*
X348250Y455000D02*
Y457500D01*
X351750Y455000D01*
X455000Y351750D02*
X457500Y348250D01*
X455000D02*
X457500D01*
X455000Y351750D02*
X457250Y351750D01*
X452750D02*
X455000Y351750D01*
X452500Y348250D02*
X455000D01*
X452500D02*
X455000Y351750D01*
Y251750D02*
X457500Y248250D01*
X455000D02*
X457500D01*
X455000Y251750D02*
X457250Y251750D01*
X452750D02*
X455000Y251750D01*
X452500Y248250D02*
X455000D01*
X452500D02*
X455000Y251750D01*
Y151750D02*
X457500Y148250D01*
X455000D02*
X457500D01*
X455000Y151750D02*
X457250Y151750D01*
X452750Y151750D02*
X455000Y151750D01*
X452500Y148250D02*
X455000Y148250D01*
X452500Y148250D02*
X455000Y151750D01*
X348250Y42500D02*
X351750Y45000D01*
X348250Y42500D02*
Y45000D01*
X351750Y42750D02*
Y45000D01*
Y47250D01*
X348250Y45000D02*
Y47500D01*
X351750Y45000D01*
X248250Y42500D02*
X251750Y45000D01*
X248250Y42500D02*
Y45000D01*
X251750Y42750D02*
Y45000D01*
Y47250D01*
X248250Y45000D02*
Y47500D01*
X251750Y45000D01*
X148250Y42500D02*
X151750Y45000D01*
X148250Y42500D02*
Y45000D01*
X151750Y42750D02*
Y45000D01*
Y47250D01*
X148250Y45000D02*
Y47500D01*
X151750Y45000D01*
D20*
X38000Y350000D02*
X41500D01*
X48500D02*
X52000D01*
X50080Y334760D02*
X52000D01*
Y365000D01*
X47540Y363970D02*
X52000Y363970D01*
X38000D02*
X42460Y363970D01*
X38000Y334760D02*
Y365000D01*
Y334760D02*
X39920D01*
X52000Y363970D02*
Y365240D01*
X47540Y365240D02*
X52000Y365240D01*
X47540Y363970D02*
Y365240D01*
X38000Y363970D02*
Y365240D01*
X42460Y365240D01*
Y363970D02*
Y365240D01*
X38000Y250000D02*
X41500D01*
X48500D02*
X52000D01*
X50080Y234760D02*
X52000D01*
X52000Y265000D01*
X47540Y263970D02*
X52000D01*
X38000D02*
X42460D01*
X38000Y265000D02*
X38000Y234760D01*
X39920Y234760D01*
X52000Y265240D02*
X52000Y263970D01*
X47540Y265240D02*
X52000Y265240D01*
X47540Y263970D02*
Y265240D01*
X38000Y263970D02*
X38000Y265240D01*
X42460Y265240D01*
X42460Y263970D01*
X38000Y150000D02*
X41500D01*
X48500D02*
X52000D01*
X50080Y134760D02*
X52000Y134760D01*
Y165000D01*
X47540Y163970D02*
X52000D01*
X38000D02*
X42460D01*
X38000Y134760D02*
Y165000D01*
Y134760D02*
X39920Y134760D01*
X52000Y163970D02*
Y165240D01*
X47540Y165240D02*
X52000Y165240D01*
X47540Y163970D02*
Y165240D01*
X38000Y163970D02*
Y165240D01*
X42460Y165240D01*
Y163970D02*
Y165240D01*
X150000Y458500D02*
Y462000D01*
Y448000D02*
Y451500D01*
X134760Y448000D02*
Y449920D01*
Y448000D02*
X165000D01*
X163970D02*
Y452460D01*
Y457540D02*
Y462000D01*
X134760D02*
X165000D01*
X134760Y460080D02*
Y462000D01*
X163970Y448000D02*
X165240Y448000D01*
X165240Y452460D02*
X165240Y448000D01*
X163970Y452460D02*
X165240D01*
X163970Y462000D02*
X165240D01*
Y457540D02*
Y462000D01*
X163970Y457540D02*
X165240D01*
X350000Y458500D02*
Y462000D01*
Y448000D02*
Y451500D01*
X334760Y448000D02*
X334760Y449920D01*
X334760Y448000D02*
X365000Y448000D01*
X363970D02*
Y452460D01*
Y457540D02*
Y462000D01*
X334760D02*
X365000D01*
X334760Y460080D02*
Y462000D01*
X363970Y448000D02*
X365240D01*
Y452460D01*
X363970D02*
X365240D01*
X363970Y462000D02*
X365240D01*
Y457540D02*
Y462000D01*
X363970Y457540D02*
X365240D01*
X448000Y350000D02*
X451500D01*
X458500D02*
X462000D01*
X460080Y334760D02*
X462000D01*
Y365000D01*
X457540Y363970D02*
X462000D01*
X448000D02*
X452460D01*
X448000Y334760D02*
Y365000D01*
Y334760D02*
X449920D01*
X462000Y363970D02*
Y365240D01*
X457540D02*
X462000D01*
X457540Y363970D02*
Y365240D01*
X448000Y363970D02*
Y365240D01*
X452460Y365240D01*
Y363970D02*
Y365240D01*
X448000Y250000D02*
X451500D01*
X458500D02*
X462000D01*
X460080Y234760D02*
X462000D01*
Y265000D01*
X457540Y263970D02*
X462000Y263970D01*
X448000D02*
X452460D01*
X448000Y234760D02*
Y265000D01*
Y234760D02*
X449920D01*
X462000Y263970D02*
Y265240D01*
X457540Y265240D02*
X462000Y265240D01*
X457540Y263970D02*
Y265240D01*
X448000Y263970D02*
Y265240D01*
X452460Y265240D01*
Y263970D02*
Y265240D01*
X448000Y150000D02*
X451500D01*
X458500D02*
X462000D01*
X460080Y134760D02*
X462000Y134760D01*
Y165000D01*
X457540Y163970D02*
X462000D01*
X448000D02*
X452460D01*
X448000Y134760D02*
Y165000D01*
Y134760D02*
X449920Y134760D01*
X462000Y163970D02*
Y165240D01*
X457540D02*
X462000D01*
X457540Y163970D02*
Y165240D01*
X448000Y163970D02*
Y165240D01*
X452460D01*
Y163970D02*
Y165240D01*
X350000Y48500D02*
Y52000D01*
Y38000D02*
Y41500D01*
X334760Y38000D02*
Y39920D01*
Y38000D02*
X365000D01*
X363970D02*
Y42460D01*
Y47540D02*
Y52000D01*
X334760D02*
X365000D01*
X334760Y50080D02*
Y52000D01*
X363970Y38000D02*
X365240D01*
Y42460D01*
X363970D02*
X365240D01*
X363970Y52000D02*
X365240D01*
Y47540D02*
Y52000D01*
X363970Y47540D02*
X365240D01*
X250000Y48500D02*
Y52000D01*
Y38000D02*
Y41500D01*
X234760Y38000D02*
Y39920D01*
Y38000D02*
X265000D01*
X263970D02*
Y42460D01*
Y47540D02*
Y52000D01*
X234760D02*
X265000D01*
X234760Y50080D02*
Y52000D01*
X263970Y38000D02*
X265240D01*
Y42460D01*
X263970D02*
X265240D01*
X263970Y52000D02*
X265240D01*
Y47540D02*
Y52000D01*
X263970Y47540D02*
X265240D01*
X150000Y48500D02*
Y52000D01*
Y38000D02*
Y41500D01*
X134760Y38000D02*
Y39920D01*
Y38000D02*
X165000D01*
X163970D02*
Y42460D01*
Y47540D02*
Y52000D01*
X134760D02*
X165000D01*
X134760Y50080D02*
Y52000D01*
X163970Y38000D02*
X165240D01*
Y42460D01*
X163970D02*
X165240D01*
X163970Y52000D02*
X165240D01*
Y47540D02*
Y52000D01*
X163970Y47540D02*
X165240D01*
X189080Y435300D02*
X191000D01*
Y460700D01*
X189080D02*
X191000D01*
X177000D02*
X178920D01*
X177000Y435300D02*
Y460700D01*
Y435300D02*
X178920D01*
X177000Y448000D02*
X191000D01*
M02*
