G04 Layer_Color=8388736*
%FSLAX44Y44*%
%MOMM*%
G71*
G01*
G75*
%ADD25R,1.0532X1.0532*%
%ADD26R,1.8032X1.2032*%
%ADD27R,1.0032X1.1032*%
%ADD28R,1.1032X1.4532*%
%ADD29P,2.1683X8X292.5*%
%ADD30C,2.0032*%
G04:AMPARAMS|DCode=31|XSize=0.2032mm|YSize=0.2032mm|CornerRadius=0mm|HoleSize=0mm|Usage=FLASHONLY|Rotation=0.000|XOffset=0mm|YOffset=0mm|HoleType=Round|Shape=RoundedRectangle|*
%AMROUNDEDRECTD31*
21,1,0.2032,0.2032,0,0,0.0*
21,1,0.2032,0.2032,0,0,0.0*
1,1,0.0000,0.1016,-0.1016*
1,1,0.0000,-0.1016,-0.1016*
1,1,0.0000,-0.1016,0.1016*
1,1,0.0000,0.1016,0.1016*
%
%ADD31ROUNDEDRECTD31*%
%ADD32P,2.1683X8X22.5*%
%ADD33C,0.2032*%
%ADD34C,4.2032*%
%ADD35C,6.2032*%
D25*
X281250Y298000D02*
D03*
X267250D02*
D03*
D26*
X339000Y358000D02*
D03*
Y328000D02*
D03*
D27*
X407510Y572500D02*
D03*
Y592500D02*
D03*
X330510Y572500D02*
D03*
Y592500D02*
D03*
D28*
X347010Y560750D02*
D03*
X362010D02*
D03*
X395010D02*
D03*
D29*
X102000Y370850D02*
D03*
X102000Y532600D02*
D03*
X102000Y211650D02*
D03*
D30*
Y345450D02*
D03*
Y320050D02*
D03*
Y294650D02*
D03*
X570000Y345450D02*
D03*
Y320050D02*
D03*
Y294650D02*
D03*
Y370850D02*
D03*
X102000Y507200D02*
D03*
Y481800D02*
D03*
Y456400D02*
D03*
X322300Y120000D02*
D03*
X347700D02*
D03*
X373100D02*
D03*
X570000Y507050D02*
D03*
Y481650D02*
D03*
Y456250D02*
D03*
Y532450D02*
D03*
X102000Y186250D02*
D03*
Y160850D02*
D03*
Y135450D02*
D03*
X570000Y211900D02*
D03*
Y135700D02*
D03*
Y161100D02*
D03*
Y186500D02*
D03*
D31*
X335000Y97200D02*
D03*
D32*
X296900Y120000D02*
D03*
D33*
X384010Y582500D02*
D03*
X354010D02*
D03*
D34*
X515000Y255000D02*
D03*
Y425000D02*
D03*
X145000D02*
D03*
Y255000D02*
D03*
D35*
X570000Y50000D02*
D03*
X40000D02*
D03*
Y590000D02*
D03*
X565000D02*
D03*
M02*
