G04 Layer_Color=32896*
%FSLAX44Y44*%
%MOMM*%
G71*
G01*
G75*
%ADD24C,0.2000*%
%ADD37C,0.0508*%
D24*
X493500Y498250D02*
Y507250D01*
X481000Y498250D02*
Y508250D01*
Y498250D02*
X503000D01*
Y508250D01*
X481000D02*
X503000D01*
X464250Y462250D02*
Y471250D01*
X451750Y462250D02*
Y472250D01*
Y462250D02*
X473750D01*
Y472250D01*
X451750D02*
X473750D01*
D37*
X334896Y381446D02*
X347088D01*
X331848Y380938D02*
X350136D01*
X329816Y380430D02*
X352676D01*
X327784Y379922D02*
X354200D01*
X326260Y379414D02*
X355724D01*
X325244Y378906D02*
X357248D01*
X323720Y378398D02*
X358772D01*
X322704Y377890D02*
X359788D01*
X321688Y377382D02*
X360804D01*
X320672Y376874D02*
X361820D01*
X319656Y376366D02*
X362836D01*
X318640Y375858D02*
X363852D01*
X317624Y375350D02*
X364868D01*
X317116Y374842D02*
X365376D01*
X316100Y374334D02*
X366392D01*
X315592Y373826D02*
X366900D01*
X314576Y373318D02*
X367916D01*
X314068Y372810D02*
X368424D01*
X313560Y372302D02*
X368932D01*
X312544Y371794D02*
X369948D01*
X312036Y371286D02*
X370456D01*
X311528Y370778D02*
X370456D01*
X311020Y370270D02*
X370964D01*
X310512Y369762D02*
X371472D01*
X310004Y369254D02*
X337436D01*
X345056D02*
X371472D01*
X309496Y368746D02*
X334388D01*
X348104D02*
X364360D01*
X366900D02*
X371472D01*
X308988Y368238D02*
X332356D01*
X350136D02*
X363852D01*
X367408D02*
X371980D01*
X308480Y367730D02*
X330832D01*
X351660D02*
X363344D01*
X367916D02*
X371980D01*
X307972Y367222D02*
X329308D01*
X353184D02*
X363344D01*
X367916D02*
X371980D01*
X307464Y366714D02*
X328292D01*
X354200D02*
X363344D01*
X367916D02*
X371980D01*
X306956Y366206D02*
X326768D01*
X355216D02*
X363344D01*
X367916D02*
X371980D01*
X306448Y365698D02*
X325752D01*
X356232D02*
X363852D01*
X367916D02*
X371980D01*
X305940Y365190D02*
X325244D01*
X336928D02*
X345056D01*
X357248D02*
X363852D01*
X367408D02*
X371472D01*
X305940Y364682D02*
X324228D01*
X334388D02*
X348104D01*
X358264D02*
X364868D01*
X366900D02*
X371472D01*
X305432Y364174D02*
X323212D01*
X332356D02*
X349628D01*
X358772D02*
X371472D01*
X304924Y363666D02*
X322704D01*
X330832D02*
X351152D01*
X359788D02*
X370964D01*
X304416Y363158D02*
X321688D01*
X329816D02*
X352676D01*
X360296D02*
X370456D01*
X304416Y362650D02*
X321180D01*
X328800D02*
X353692D01*
X361312D02*
X370456D01*
X303908Y362142D02*
X320672D01*
X327784D02*
X354708D01*
X361820D02*
X369440D01*
X303400Y361634D02*
X320164D01*
X326768D02*
X355724D01*
X362328D02*
X368932D01*
X303400Y361126D02*
X319148D01*
X325752D02*
X356232D01*
X363852D02*
X367916D01*
X302892Y360618D02*
X318640D01*
X325244D02*
X357248D01*
X302384Y360110D02*
X318132D01*
X324228D02*
X357756D01*
X302384Y359602D02*
X317624D01*
X323720D02*
X358772D01*
X301876Y359094D02*
X317116D01*
X323212D02*
X359280D01*
X301876Y358586D02*
X316608D01*
X322196D02*
X359788D01*
X301368Y358078D02*
X316608D01*
X322196D02*
X360296D01*
X300860Y357570D02*
X316100D01*
X321688D02*
X360804D01*
X300860Y357062D02*
X315592D01*
X321180D02*
X361312D01*
X300352Y356554D02*
X315084D01*
X321180D02*
X361820D01*
X300352Y356046D02*
X314576D01*
X321180D02*
X362328D01*
X299844Y355538D02*
X314576D01*
X320672D02*
X362836D01*
X299844Y355030D02*
X314068D01*
X320672D02*
X363344D01*
X299844Y354522D02*
X313560D01*
X320672D02*
X363852D01*
X299336Y354014D02*
X313560D01*
X320672D02*
X364360D01*
X299336Y353506D02*
X313052D01*
X320672D02*
X364360D01*
X298828Y352998D02*
X312544D01*
X320672D02*
X339468D01*
X343024D02*
X364868D01*
X298828Y352490D02*
X312544D01*
X321180D02*
X336928D01*
X345564D02*
X365376D01*
X298828Y351982D02*
X312036D01*
X321180D02*
X335404D01*
X347088D02*
X365376D01*
X298320Y351474D02*
X312036D01*
X321180D02*
X333880D01*
X348104D02*
X365884D01*
X298320Y350966D02*
X311528D01*
X321688D02*
X332864D01*
X349120D02*
X366392D01*
X298320Y350458D02*
X311528D01*
X322196D02*
X332356D01*
X350136D02*
X366392D01*
X297812Y349950D02*
X311020D01*
X322196D02*
X331340D01*
X350644D02*
X366900D01*
X297812Y349442D02*
X311020D01*
X322704D02*
X330832D01*
X351152D02*
X366900D01*
X297812Y348934D02*
X311020D01*
X323720D02*
X330324D01*
X352168D02*
X367408D01*
X297304Y348426D02*
X310512D01*
X324736D02*
X328800D01*
X352676D02*
X367408D01*
X297304Y347918D02*
X310512D01*
X353184D02*
X367916D01*
X297304Y347410D02*
X310004D01*
X353692D02*
X367916D01*
X297304Y346902D02*
X310004D01*
X353692D02*
X367916D01*
X296796Y346394D02*
X310004D01*
X354200D02*
X368424D01*
X296796Y345886D02*
X309496D01*
X354708D02*
X368424D01*
X296796Y345378D02*
X309496D01*
X355216D02*
X368424D01*
X296796Y344870D02*
X309496D01*
X355216D02*
X368932D01*
X296796Y344362D02*
X309496D01*
X355724D02*
X368932D01*
X296288Y343854D02*
X308988D01*
X355724D02*
X368932D01*
X296288Y343346D02*
X308988D01*
X356232D02*
X369440D01*
X296288Y342838D02*
X342008D01*
X356232D02*
X369440D01*
X296288Y342330D02*
X344040D01*
X356740D02*
X369440D01*
X296288Y341822D02*
X345056D01*
X356740D02*
X369440D01*
X296288Y341314D02*
X345564D01*
X356740D02*
X369440D01*
X296288Y340806D02*
X346072D01*
X357248D02*
X369440D01*
X296288Y340298D02*
X346580D01*
X357248D02*
X369948D01*
X296288Y339790D02*
X339976D01*
X342008D02*
X346580D01*
X357248D02*
X369948D01*
X296288Y339282D02*
X339468D01*
X343024D02*
X347088D01*
X357248D02*
X369948D01*
X295780Y338774D02*
X338452D01*
X343532D02*
X347088D01*
X357248D02*
X369948D01*
X295780Y338266D02*
X338452D01*
X344040D02*
X347088D01*
X357248D02*
X369948D01*
X295780Y337758D02*
X337944D01*
X344548D02*
X347596D01*
X357756D02*
X369948D01*
X295780Y337250D02*
X337944D01*
X344548D02*
X347596D01*
X357756D02*
X369948D01*
X295780Y336742D02*
X337944D01*
X344548D02*
X347596D01*
X357756D02*
X369948D01*
X295780Y336234D02*
X337944D01*
X344548D02*
X347596D01*
X357756D02*
X369948D01*
X295780Y335726D02*
X337944D01*
X344548D02*
X347596D01*
X357756D02*
X369948D01*
X295780Y335218D02*
X338452D01*
X344040D02*
X347596D01*
X357756D02*
X369948D01*
X295780Y334710D02*
X338452D01*
X344040D02*
X347088D01*
X357248D02*
X369948D01*
X295780Y334202D02*
X338960D01*
X343532D02*
X347088D01*
X357248D02*
X369948D01*
X296288Y333694D02*
X339468D01*
X342516D02*
X346580D01*
X357248D02*
X369948D01*
X296288Y333186D02*
X346580D01*
X357248D02*
X369948D01*
X296288Y332678D02*
X346072D01*
X357248D02*
X369948D01*
X296288Y332170D02*
X345564D01*
X356740D02*
X369440D01*
X296288Y331662D02*
X345056D01*
X356740D02*
X369440D01*
X296288Y331154D02*
X344040D01*
X356740D02*
X369440D01*
X296288Y330646D02*
X342516D01*
X356232D02*
X369440D01*
X296288Y330138D02*
X308988D01*
X356232D02*
X369440D01*
X296288Y329630D02*
X308988D01*
X356232D02*
X368932D01*
X296796Y329122D02*
X308988D01*
X355724D02*
X368932D01*
X296796Y328614D02*
X309496D01*
X355216D02*
X368932D01*
X296796Y328106D02*
X309496D01*
X355216D02*
X368932D01*
X296796Y327598D02*
X309496D01*
X354708D02*
X368424D01*
X296796Y327090D02*
X310004D01*
X354708D02*
X368424D01*
X297304Y326582D02*
X310004D01*
X354200D02*
X368424D01*
X297304Y326074D02*
X310004D01*
X353692D02*
X367916D01*
X297304Y325566D02*
X310512D01*
X353184D02*
X367916D01*
X297304Y325058D02*
X310512D01*
X325244D02*
X328292D01*
X352676D02*
X367408D01*
X297812Y324550D02*
X310512D01*
X324228D02*
X329816D01*
X352168D02*
X367408D01*
X297812Y324042D02*
X311020D01*
X323212D02*
X330324D01*
X351660D02*
X366900D01*
X297812Y323534D02*
X311020D01*
X322704D02*
X331340D01*
X351152D02*
X366900D01*
X297812Y323026D02*
X311528D01*
X322196D02*
X331848D01*
X350136D02*
X366392D01*
X298320Y322518D02*
X311528D01*
X321688D02*
X332864D01*
X349628D02*
X366392D01*
X298320Y322010D02*
X312036D01*
X321180D02*
X333880D01*
X348612D02*
X365884D01*
X298320Y321502D02*
X312036D01*
X321180D02*
X334896D01*
X347596D02*
X365884D01*
X298828Y320994D02*
X312544D01*
X321180D02*
X335912D01*
X346072D02*
X365376D01*
X298828Y320486D02*
X312544D01*
X320672D02*
X337944D01*
X344040D02*
X364868D01*
X299336Y319978D02*
X313052D01*
X320672D02*
X364868D01*
X299336Y319470D02*
X313052D01*
X320672D02*
X364360D01*
X299336Y318962D02*
X313560D01*
X320672D02*
X363852D01*
X299844Y318454D02*
X314068D01*
X320672D02*
X363344D01*
X299844Y317946D02*
X314068D01*
X320672D02*
X363344D01*
X300352Y317438D02*
X314576D01*
X320672D02*
X362836D01*
X300352Y316930D02*
X315084D01*
X321180D02*
X362328D01*
X300860Y316422D02*
X315592D01*
X321180D02*
X361820D01*
X300860Y315914D02*
X315592D01*
X321688D02*
X361312D01*
X301368Y315406D02*
X316100D01*
X321688D02*
X360804D01*
X301368Y314898D02*
X316608D01*
X322196D02*
X360296D01*
X301876Y314390D02*
X317116D01*
X322704D02*
X359280D01*
X301876Y313882D02*
X317624D01*
X323212D02*
X358772D01*
X302384Y313374D02*
X318132D01*
X324228D02*
X358264D01*
X302892Y312866D02*
X318640D01*
X324736D02*
X357756D01*
X302892Y312358D02*
X319148D01*
X325244D02*
X356740D01*
X364360D02*
X366900D01*
X303400Y311850D02*
X319656D01*
X326260D02*
X355724D01*
X362836D02*
X368424D01*
X303908Y311342D02*
X320164D01*
X327276D02*
X355216D01*
X362328D02*
X369440D01*
X303908Y310834D02*
X321180D01*
X328292D02*
X354200D01*
X361312D02*
X369948D01*
X304416Y310326D02*
X321688D01*
X329308D02*
X353184D01*
X360804D02*
X370456D01*
X304924Y309818D02*
X322196D01*
X330324D02*
X351660D01*
X360296D02*
X370964D01*
X304924Y309310D02*
X323212D01*
X331848D02*
X350644D01*
X359280D02*
X370964D01*
X305432Y308802D02*
X323720D01*
X333372D02*
X348612D01*
X358772D02*
X371472D01*
X305940Y308294D02*
X324736D01*
X335912D02*
X346580D01*
X357756D02*
X364360D01*
X366900D02*
X371472D01*
X306448Y307786D02*
X325752D01*
X356740D02*
X363852D01*
X367408D02*
X371980D01*
X306956Y307278D02*
X326768D01*
X355724D02*
X363344D01*
X367916D02*
X371980D01*
X307464Y306770D02*
X327784D01*
X354708D02*
X363344D01*
X367916D02*
X371980D01*
X307464Y306262D02*
X328800D01*
X353692D02*
X363344D01*
X367916D02*
X371980D01*
X307972Y305754D02*
X329816D01*
X352168D02*
X363344D01*
X367916D02*
X371980D01*
X308480Y305246D02*
X331340D01*
X350644D02*
X363852D01*
X367916D02*
X371980D01*
X308988Y304738D02*
X333372D01*
X349120D02*
X363852D01*
X367408D02*
X371980D01*
X309496Y304230D02*
X335912D01*
X346580D02*
X364868D01*
X366900D02*
X371472D01*
X310004Y303722D02*
X371472D01*
X310512Y303214D02*
X370964D01*
X311020Y302706D02*
X370964D01*
X312036Y302198D02*
X370456D01*
X312544Y301690D02*
X369948D01*
X313052Y301182D02*
X369440D01*
X313560Y300674D02*
X368424D01*
X314576Y300166D02*
X367916D01*
X315084Y299658D02*
X367408D01*
X315592Y299150D02*
X366392D01*
X316608Y298642D02*
X365884D01*
X317624Y298134D02*
X364868D01*
X318132Y297626D02*
X364360D01*
X319148Y297118D02*
X363344D01*
X320164Y296610D02*
X362328D01*
X321180Y296102D02*
X361312D01*
X322196Y295594D02*
X360296D01*
X323212Y295086D02*
X359280D01*
X324736Y294578D02*
X357756D01*
X325752Y294070D02*
X356740D01*
X327276Y293562D02*
X355216D01*
X328800Y293054D02*
X353184D01*
X330832Y292546D02*
X351152D01*
X333880Y292038D02*
X348612D01*
X337944Y291530D02*
X344548D01*
M02*
