G04 Layer_Color=16711935*
%FSLAX44Y44*%
%MOMM*%
G71*
G01*
G75*
%ADD27C,6.2032*%
%ADD28C,2.0032*%
%ADD29P,2.1683X8X292.5*%
%ADD30C,0.2032*%
%ADD31P,2.1683X8X22.5*%
G04:AMPARAMS|DCode=32|XSize=0.2032mm|YSize=0.2032mm|CornerRadius=0mm|HoleSize=0mm|Usage=FLASHONLY|Rotation=0.000|XOffset=0mm|YOffset=0mm|HoleType=Round|Shape=RoundedRectangle|*
%AMROUNDEDRECTD32*
21,1,0.2032,0.2032,0,0,0.0*
21,1,0.2032,0.2032,0,0,0.0*
1,1,0.0000,0.1016,-0.1016*
1,1,0.0000,-0.1016,-0.1016*
1,1,0.0000,-0.1016,0.1016*
1,1,0.0000,0.1016,0.1016*
%
%ADD32ROUNDEDRECTD32*%
%ADD33C,4.2032*%
D27*
X505000Y550000D02*
D03*
X45000D02*
D03*
Y50000D02*
D03*
X505000D02*
D03*
D28*
Y335400D02*
D03*
Y259200D02*
D03*
Y284600D02*
D03*
Y310000D02*
D03*
X107000Y307950D02*
D03*
Y282550D02*
D03*
Y257150D02*
D03*
X313100Y80000D02*
D03*
X287700D02*
D03*
X262300D02*
D03*
D29*
X107000Y333350D02*
D03*
D30*
X60000Y429760D02*
D03*
Y459760D02*
D03*
D31*
X236900Y80000D02*
D03*
D32*
X275000Y57200D02*
D03*
D33*
X165000Y460000D02*
D03*
Y140000D02*
D03*
X385000D02*
D03*
Y460000D02*
D03*
M02*
