G04 Layer_Physical_Order=2*
G04 Layer_Color=16711680*
%FSLAX44Y44*%
%MOMM*%
G71*
G01*
G75*
%ADD12C,0.5000*%
%ADD13C,0.2540*%
%ADD14C,1.8000*%
%ADD15P,1.9483X8X112.5*%
G36*
X363149Y135831D02*
X366177Y134912D01*
X368967Y133420D01*
X371413Y131413D01*
X373420Y128967D01*
X374912Y126177D01*
X375831Y123149D01*
X376132Y120085D01*
X376115Y120000D01*
Y20000D01*
X376132Y19915D01*
X375831Y16851D01*
X374912Y13823D01*
X373420Y11033D01*
X371413Y8587D01*
X368967Y6579D01*
X366177Y5088D01*
X363149Y4169D01*
X360085Y3868D01*
X360000Y3885D01*
X20000D01*
X19915Y3868D01*
X16851Y4169D01*
X13823Y5088D01*
X11033Y6579D01*
X8587Y8587D01*
X6579Y11033D01*
X5088Y13823D01*
X4169Y16851D01*
X3868Y19915D01*
X3885Y20000D01*
Y120000D01*
X3868Y120085D01*
X4169Y123149D01*
X5088Y126177D01*
X6579Y128967D01*
X8587Y131413D01*
X11033Y133420D01*
X13823Y134912D01*
X16851Y135831D01*
X19915Y136132D01*
X20000Y136115D01*
X360000D01*
X360085Y136132D01*
X363149Y135831D01*
D02*
G37*
%LPC*%
G36*
X278000Y70240D02*
X274988Y69843D01*
X272180Y68680D01*
X269770Y66830D01*
X267920Y64420D01*
X267638Y63739D01*
X265392D01*
X263957Y65174D01*
X262290Y66288D01*
X260323Y66679D01*
X57677D01*
X55710Y66288D01*
X54043Y65174D01*
X52608Y63739D01*
X50362D01*
X50080Y64420D01*
X48230Y66830D01*
X45820Y68680D01*
X43012Y69843D01*
X40000Y70240D01*
X36988Y69843D01*
X34180Y68680D01*
X31770Y66830D01*
X29920Y64420D01*
X28757Y61613D01*
X28360Y58600D01*
X28757Y55588D01*
X29920Y52780D01*
X31770Y50370D01*
X34180Y48520D01*
X36988Y47357D01*
X40000Y46961D01*
X43012Y47357D01*
X45820Y48520D01*
X47697Y49960D01*
X48536Y49003D01*
X43694Y44161D01*
X43012Y44443D01*
X40000Y44840D01*
X36988Y44443D01*
X34180Y43280D01*
X31770Y41430D01*
X29920Y39020D01*
X28757Y36213D01*
X28360Y33200D01*
X28757Y30187D01*
X29920Y27380D01*
X31770Y24970D01*
X34180Y23120D01*
X36988Y21957D01*
X40000Y21560D01*
X43012Y21957D01*
X45820Y23120D01*
X48230Y24970D01*
X50080Y27380D01*
X51243Y30187D01*
X51639Y33200D01*
X51243Y36213D01*
X50961Y36894D01*
X62929Y48861D01*
X79004D01*
X79192Y47591D01*
X78767Y47462D01*
X75499Y45716D01*
X72635Y43365D01*
X70284Y40501D01*
X68538Y37233D01*
X67462Y33687D01*
X67099Y30000D01*
X67462Y26313D01*
X68538Y22767D01*
X70284Y19499D01*
X72635Y16635D01*
X75499Y14284D01*
X78767Y12538D01*
X82313Y11462D01*
X86000Y11099D01*
X89687Y11462D01*
X93233Y12538D01*
X96501Y14284D01*
X99365Y16635D01*
X101716Y19499D01*
X103462Y22767D01*
X104538Y26313D01*
X104901Y30000D01*
X104538Y33687D01*
X103462Y37233D01*
X101716Y40501D01*
X99365Y43365D01*
X96501Y45716D01*
X93233Y47462D01*
X92808Y47591D01*
X92996Y48861D01*
X229004D01*
X229192Y47591D01*
X228767Y47462D01*
X225499Y45716D01*
X222635Y43365D01*
X220284Y40501D01*
X218538Y37233D01*
X217462Y33687D01*
X217099Y30000D01*
X217462Y26313D01*
X218538Y22767D01*
X220284Y19499D01*
X222635Y16635D01*
X225499Y14284D01*
X228767Y12538D01*
X232313Y11462D01*
X236000Y11099D01*
X239687Y11462D01*
X243233Y12538D01*
X246501Y14284D01*
X249365Y16635D01*
X251716Y19499D01*
X253462Y22767D01*
X254538Y26313D01*
X254901Y30000D01*
X254538Y33687D01*
X253462Y37233D01*
X251716Y40501D01*
X249365Y43365D01*
X246501Y45716D01*
X243233Y47462D01*
X242808Y47591D01*
X242996Y48861D01*
X255072D01*
X266410Y37522D01*
Y28700D01*
X266607Y27709D01*
X267169Y26869D01*
X271669Y22369D01*
X272509Y21807D01*
X273500Y21610D01*
X282500D01*
X283491Y21807D01*
X284331Y22369D01*
X288831Y26869D01*
X289393Y27709D01*
X289590Y28700D01*
Y37700D01*
X289393Y38691D01*
X288831Y39531D01*
X284331Y44031D01*
X283491Y44593D01*
X282500Y44790D01*
X273678D01*
X269464Y49003D01*
X270303Y49960D01*
X272180Y48520D01*
X274988Y47357D01*
X278000Y46961D01*
X281012Y47357D01*
X283820Y48520D01*
X286230Y50370D01*
X288080Y52780D01*
X289243Y55588D01*
X289640Y58600D01*
X289243Y61613D01*
X288080Y64420D01*
X286230Y66830D01*
X283820Y68680D01*
X281012Y69843D01*
X278000Y70240D01*
D02*
G37*
G36*
X236000Y128901D02*
X232313Y128538D01*
X228767Y127462D01*
X225499Y125716D01*
X222635Y123365D01*
X220284Y120501D01*
X218538Y117233D01*
X217462Y113687D01*
X217099Y110000D01*
X217462Y106313D01*
X218538Y102767D01*
X220284Y99499D01*
X222635Y96635D01*
X225348Y94409D01*
X225246Y93274D01*
X225212Y93139D01*
X96788D01*
X96754Y93274D01*
X96652Y94409D01*
X99365Y96635D01*
X101716Y99499D01*
X103462Y102767D01*
X104538Y106313D01*
X104901Y110000D01*
X104538Y113687D01*
X103462Y117233D01*
X101716Y120501D01*
X99365Y123365D01*
X96501Y125716D01*
X93233Y127462D01*
X89687Y128538D01*
X86000Y128901D01*
X82313Y128538D01*
X78767Y127462D01*
X75499Y125716D01*
X72635Y123365D01*
X70284Y120501D01*
X68538Y117233D01*
X67462Y113687D01*
X67099Y110000D01*
X67462Y106313D01*
X68082Y104270D01*
X66959Y103597D01*
X57522Y113034D01*
X55855Y114148D01*
X53888Y114539D01*
X50362D01*
X50080Y115220D01*
X48230Y117630D01*
X45820Y119480D01*
X43012Y120643D01*
X40000Y121040D01*
X36988Y120643D01*
X34180Y119480D01*
X31770Y117630D01*
X29920Y115220D01*
X28757Y112413D01*
X28360Y109400D01*
X28757Y106388D01*
X29920Y103580D01*
X31770Y101170D01*
X34180Y99320D01*
X36988Y98157D01*
X40000Y97760D01*
X43012Y98157D01*
X45820Y99320D01*
X48230Y101170D01*
X50080Y103580D01*
X50362Y104261D01*
X51760D01*
X65709Y90312D01*
X65223Y89139D01*
X50362D01*
X50080Y89820D01*
X48230Y92230D01*
X45820Y94080D01*
X43012Y95243D01*
X40000Y95640D01*
X36988Y95243D01*
X34180Y94080D01*
X31770Y92230D01*
X29920Y89820D01*
X28757Y87013D01*
X28360Y84000D01*
X28757Y80988D01*
X29920Y78180D01*
X31770Y75770D01*
X34180Y73920D01*
X36988Y72757D01*
X40000Y72361D01*
X43012Y72757D01*
X45820Y73920D01*
X48230Y75770D01*
X50080Y78180D01*
X50362Y78861D01*
X66497D01*
X68531Y76826D01*
X70199Y75712D01*
X72165Y75321D01*
X250123D01*
X252090Y75712D01*
X253757Y76826D01*
X255792Y78861D01*
X267638D01*
X267920Y78180D01*
X269770Y75770D01*
X272180Y73920D01*
X274988Y72757D01*
X278000Y72361D01*
X281012Y72757D01*
X283820Y73920D01*
X286230Y75770D01*
X288080Y78180D01*
X289243Y80988D01*
X289640Y84000D01*
X289243Y87013D01*
X288080Y89820D01*
X286230Y92230D01*
X283820Y94080D01*
X281012Y95243D01*
X278000Y95640D01*
X274988Y95243D01*
X272180Y94080D01*
X269770Y92230D01*
X267920Y89820D01*
X267638Y89139D01*
X257065D01*
X256579Y90312D01*
X268076Y101809D01*
X269343Y101726D01*
X269770Y101170D01*
X272180Y99320D01*
X274988Y98157D01*
X278000Y97760D01*
X281012Y98157D01*
X283820Y99320D01*
X286230Y101170D01*
X288080Y103580D01*
X289243Y106388D01*
X289640Y109400D01*
X289243Y112413D01*
X288080Y115220D01*
X286230Y117630D01*
X283820Y119480D01*
X281012Y120643D01*
X278000Y121040D01*
X274988Y120643D01*
X272180Y119480D01*
X269770Y117630D01*
X267920Y115220D01*
X267569Y114374D01*
X266434Y114148D01*
X264766Y113034D01*
X254916Y103183D01*
X253793Y103856D01*
X254538Y106313D01*
X254901Y110000D01*
X254538Y113687D01*
X253462Y117233D01*
X251716Y120501D01*
X249365Y123365D01*
X246501Y125716D01*
X243233Y127462D01*
X239687Y128538D01*
X236000Y128901D01*
D02*
G37*
%LPD*%
D12*
X257200Y54000D02*
X278000Y33200D01*
X40000D02*
X60800Y54000D01*
X257200D01*
X40000Y109400D02*
X53888D01*
X75288Y88000D01*
X247000D01*
X268400Y109400D01*
X278000D01*
X40000Y84000D02*
X68625D01*
X72165Y80460D01*
X250123D01*
X253663Y84000D01*
X278000D01*
X263263Y58600D02*
X278000D01*
X260323Y61540D02*
X263263Y58600D01*
X57677Y61540D02*
X260323D01*
X54737Y58600D02*
X57677Y61540D01*
X40000Y58600D02*
X54737D01*
D13*
X251000Y110000D02*
G03*
X251000Y110000I-15000J0D01*
G01*
Y30000D02*
G03*
X251000Y30000I-15000J0D01*
G01*
X101000D02*
G03*
X101000Y30000I-15000J0D01*
G01*
Y110000D02*
G03*
X101000Y110000I-15000J0D01*
G01*
D14*
X40000Y33200D02*
D03*
Y109400D02*
D03*
Y84000D02*
D03*
Y58600D02*
D03*
X278000D02*
D03*
Y84000D02*
D03*
Y109400D02*
D03*
D15*
Y33200D02*
D03*
M02*
