G04 Layer_Color=65535*
%FSLAX44Y44*%
%MOMM*%
G71*
G01*
G75*
%ADD16C,0.1500*%
%ADD17C,0.2000*%
G36*
X120355Y79495D02*
X120472D01*
X120609Y79475D01*
X120901Y79397D01*
X121252Y79280D01*
X121623Y79124D01*
X122013Y78890D01*
X122189Y78734D01*
X122364Y78578D01*
X122384Y78559D01*
X122403Y78539D01*
X122443Y78481D01*
X122521Y78422D01*
X122657Y78227D01*
X122833Y77954D01*
X123008Y77642D01*
X123164Y77252D01*
X123262Y76822D01*
X123281Y76588D01*
X123301Y76354D01*
Y76335D01*
Y76257D01*
X123281Y76140D01*
Y76003D01*
X123242Y75827D01*
X123203Y75633D01*
X123145Y75398D01*
X123067Y75164D01*
X122969Y74930D01*
X122833Y74677D01*
X122696Y74443D01*
X122501Y74208D01*
X122286Y73974D01*
X122033Y73760D01*
X121740Y73584D01*
X121409Y73428D01*
X123242Y69761D01*
X123262Y69741D01*
X123281Y69683D01*
X123301Y69605D01*
Y69507D01*
Y69468D01*
X123281Y69390D01*
X123223Y69273D01*
X123125Y69156D01*
X123106Y69137D01*
X123028Y69078D01*
X122911Y69019D01*
X122774Y69000D01*
X122716D01*
X122598Y69039D01*
X122501Y69078D01*
X122423Y69117D01*
X122345Y69195D01*
X122286Y69293D01*
X120336Y73194D01*
X120316D01*
X120277Y73214D01*
X118053D01*
Y69527D01*
Y69507D01*
Y69449D01*
X118034Y69351D01*
X117995Y69273D01*
X117917Y69176D01*
X117839Y69078D01*
X117702Y69019D01*
X117527Y69000D01*
X117449D01*
X117351Y69019D01*
X117273Y69058D01*
X117176Y69117D01*
X117078Y69215D01*
X117020Y69332D01*
X117000Y69507D01*
Y78988D01*
Y79007D01*
Y79066D01*
X117020Y79163D01*
X117058Y79261D01*
X117117Y79339D01*
X117214Y79436D01*
X117332Y79495D01*
X117507Y79514D01*
X120277D01*
X120355Y79495D01*
D02*
G37*
G36*
X122950Y96995D02*
X123047Y96956D01*
X123125Y96878D01*
X123223Y96800D01*
X123281Y96663D01*
X123301Y96488D01*
Y96468D01*
Y96410D01*
X123281Y96312D01*
X123242Y96234D01*
X123164Y96137D01*
X123086Y96039D01*
X122950Y95981D01*
X122774Y95961D01*
X119497D01*
X119380Y95941D01*
X119224Y95903D01*
X119048Y95844D01*
X118873Y95766D01*
X118678Y95649D01*
X118502Y95493D01*
X118483Y95473D01*
X118424Y95415D01*
X118365Y95317D01*
X118287Y95181D01*
X118190Y95025D01*
X118131Y94830D01*
X118073Y94615D01*
X118053Y94381D01*
Y89114D01*
Y89094D01*
Y88997D01*
X118073Y88880D01*
X118112Y88724D01*
X118170Y88548D01*
X118249Y88373D01*
X118346Y88178D01*
X118502Y88002D01*
X118522Y87983D01*
X118580Y87924D01*
X118678Y87865D01*
X118814Y87788D01*
X118970Y87690D01*
X119165Y87631D01*
X119380Y87573D01*
X119614Y87553D01*
X122247D01*
Y91747D01*
X121116D01*
X121018Y91767D01*
X120940Y91806D01*
X120843Y91884D01*
X120745Y91962D01*
X120687Y92099D01*
X120667Y92274D01*
Y92294D01*
Y92352D01*
X120687Y92450D01*
X120726Y92547D01*
X120804Y92625D01*
X120882Y92723D01*
X121018Y92781D01*
X121194Y92801D01*
X122852D01*
X122950Y92781D01*
X123047Y92742D01*
X123125Y92664D01*
X123223Y92586D01*
X123281Y92450D01*
X123301Y92274D01*
Y87007D01*
Y86988D01*
Y86929D01*
X123281Y86851D01*
X123242Y86754D01*
X123164Y86656D01*
X123086Y86578D01*
X122950Y86519D01*
X122774Y86500D01*
X119516D01*
X119438Y86519D01*
X119224Y86539D01*
X118970Y86597D01*
X118678Y86695D01*
X118365Y86812D01*
X118053Y87007D01*
X117761Y87261D01*
X117722Y87300D01*
X117644Y87397D01*
X117527Y87553D01*
X117390Y87788D01*
X117234Y88041D01*
X117117Y88373D01*
X117039Y88724D01*
X117000Y89114D01*
Y94381D01*
Y94400D01*
Y94439D01*
Y94478D01*
X117020Y94557D01*
X117039Y94771D01*
X117098Y95025D01*
X117195Y95317D01*
X117312Y95629D01*
X117507Y95941D01*
X117761Y96234D01*
X117800Y96273D01*
X117897Y96351D01*
X118053Y96488D01*
X118287Y96624D01*
X118541Y96761D01*
X118873Y96897D01*
X119224Y96975D01*
X119614Y97014D01*
X122852D01*
X122950Y96995D01*
D02*
G37*
G36*
X120336Y64495D02*
X120531Y64475D01*
X120784Y64417D01*
X121096Y64339D01*
X121409Y64202D01*
X121721Y64007D01*
X122013Y63754D01*
X122052Y63715D01*
X122130Y63617D01*
X122247Y63461D01*
X122403Y63227D01*
X122540Y62954D01*
X122657Y62642D01*
X122735Y62291D01*
X122774Y61881D01*
Y61861D01*
Y61822D01*
Y61764D01*
X122755Y61666D01*
X122716Y61432D01*
X122657Y61159D01*
X122540Y60827D01*
X122365Y60476D01*
X122247Y60320D01*
X122130Y60145D01*
X121974Y59989D01*
X121799Y59833D01*
X121818Y59813D01*
X121857Y59794D01*
X121935Y59735D01*
X122033Y59657D01*
X122150Y59579D01*
X122267Y59462D01*
X122403Y59325D01*
X122559Y59169D01*
X122696Y58974D01*
X122833Y58779D01*
X122950Y58565D01*
X123067Y58311D01*
X123164Y58057D01*
X123242Y57765D01*
X123281Y57472D01*
X123301Y57141D01*
Y57121D01*
Y57082D01*
Y57024D01*
X123281Y56926D01*
Y56809D01*
X123262Y56673D01*
X123184Y56380D01*
X123067Y56029D01*
X122911Y55658D01*
X122677Y55268D01*
X122521Y55092D01*
X122365Y54917D01*
X122345D01*
X122325Y54878D01*
X122267Y54839D01*
X122208Y54780D01*
X122013Y54624D01*
X121740Y54468D01*
X121428Y54293D01*
X121038Y54137D01*
X120609Y54039D01*
X120375Y54019D01*
X120141Y54000D01*
X117429D01*
X117351Y54019D01*
X117254Y54058D01*
X117156Y54117D01*
X117078Y54215D01*
X117020Y54332D01*
X117000Y54507D01*
Y63988D01*
Y64007D01*
Y64066D01*
X117020Y64163D01*
X117058Y64261D01*
X117117Y64339D01*
X117215Y64436D01*
X117332Y64495D01*
X117507Y64514D01*
X120258D01*
X120336Y64495D01*
D02*
G37*
%LPC*%
G36*
X120141Y78461D02*
X118053D01*
Y74267D01*
X120180D01*
X120297Y74286D01*
X120453Y74306D01*
X120648Y74345D01*
X120882Y74423D01*
X121136Y74521D01*
X121389Y74677D01*
X121623Y74872D01*
X121643Y74891D01*
X121721Y74989D01*
X121818Y75106D01*
X121935Y75281D01*
X122052Y75496D01*
X122150Y75750D01*
X122228Y76042D01*
X122247Y76354D01*
Y76374D01*
Y76393D01*
Y76510D01*
X122208Y76666D01*
X122169Y76861D01*
X122091Y77095D01*
X121994Y77349D01*
X121838Y77603D01*
X121623Y77837D01*
X121604Y77856D01*
X121506Y77934D01*
X121389Y78032D01*
X121214Y78149D01*
X120999Y78266D01*
X120745Y78363D01*
X120453Y78442D01*
X120141Y78461D01*
D02*
G37*
G36*
X120141Y63461D02*
X118053D01*
Y60301D01*
X120258D01*
X120375Y60320D01*
X120531Y60359D01*
X120687Y60418D01*
X120882Y60496D01*
X121077Y60594D01*
X121253Y60750D01*
X121272Y60769D01*
X121331Y60827D01*
X121409Y60925D01*
X121487Y61062D01*
X121565Y61237D01*
X121643Y61432D01*
X121701Y61647D01*
X121721Y61881D01*
Y61900D01*
Y61998D01*
X121701Y62115D01*
X121662Y62271D01*
X121604Y62427D01*
X121526Y62622D01*
X121409Y62817D01*
X121253Y62993D01*
X121233Y63012D01*
X121174Y63071D01*
X121077Y63149D01*
X120940Y63227D01*
X120784Y63305D01*
X120589Y63383D01*
X120375Y63442D01*
X120141Y63461D01*
D02*
G37*
G36*
Y59247D02*
X118053D01*
Y55053D01*
X120180D01*
X120297Y55073D01*
X120453Y55092D01*
X120648Y55131D01*
X120882Y55209D01*
X121136Y55307D01*
X121389Y55463D01*
X121623Y55658D01*
X121643Y55678D01*
X121721Y55775D01*
X121818Y55892D01*
X121935Y56068D01*
X122052Y56282D01*
X122150Y56536D01*
X122228Y56829D01*
X122247Y57141D01*
Y57160D01*
Y57180D01*
Y57297D01*
X122208Y57453D01*
X122169Y57648D01*
X122091Y57882D01*
X121994Y58135D01*
X121838Y58389D01*
X121623Y58623D01*
X121604Y58643D01*
X121506Y58721D01*
X121389Y58818D01*
X121214Y58935D01*
X120999Y59052D01*
X120745Y59150D01*
X120453Y59228D01*
X120141Y59247D01*
D02*
G37*
%LPD*%
D16*
X136200Y47080D02*
Y49000D01*
X110800D02*
X136200D01*
X110800Y47080D02*
Y49000D01*
Y35000D02*
Y36920D01*
Y35000D02*
X136200D01*
Y36920D01*
X123500Y35000D02*
Y49000D01*
D17*
X264000Y123300D02*
X292000D01*
X264000Y19000D02*
X292000D01*
Y123300D01*
X264000Y19000D02*
Y123300D01*
X172000Y64000D02*
Y84000D01*
X152000Y64000D02*
Y84000D01*
X149500Y74000D02*
X174500D01*
X152000Y84000D02*
X172000Y74000D01*
X152000Y64000D02*
X172000Y74000D01*
M02*
