G04 Layer_Physical_Order=1*
G04 Layer_Color=255*
%FSLAX44Y44*%
%MOMM*%
G71*
G01*
G75*
%ADD10C,0.7000*%
%ADD11R,0.8000X0.8000*%
%ADD12R,0.4000X1.6000*%
%ADD13R,0.8500X0.8500*%
%ADD14R,0.8500X0.8500*%
%ADD15C,0.3000*%
%ADD16C,0.7000*%
%ADD17C,6.0000*%
%ADD18C,2.6400*%
%ADD19C,1.2000*%
%ADD20C,2.0000*%
G36*
X403431Y641756D02*
X412771Y640370D01*
X421931Y638076D01*
X430821Y634895D01*
X439357Y630858D01*
X447456Y626003D01*
X455041Y620378D01*
X462037Y614037D01*
X468378Y607041D01*
X474003Y599456D01*
X477239Y594058D01*
X477274Y594078D01*
X727274Y161065D01*
X727239Y161045D01*
X728857Y158345D01*
X732895Y149809D01*
X736076Y140918D01*
X738370Y131759D01*
X739756Y122418D01*
X740219Y112987D01*
X739756Y103556D01*
X738370Y94216D01*
X736076Y85056D01*
X732895Y76166D01*
X728857Y67630D01*
X724003Y59531D01*
X718378Y51947D01*
X712037Y44950D01*
X705041Y38609D01*
X697456Y32984D01*
X689357Y28130D01*
X680821Y24093D01*
X671931Y20912D01*
X662771Y18617D01*
X653431Y17232D01*
X644253Y16781D01*
X644000Y16831D01*
X144000D01*
X143747Y16781D01*
X134569Y17232D01*
X125229Y18617D01*
X116069Y20912D01*
X107179Y24093D01*
X98643Y28130D01*
X90544Y32984D01*
X82959Y38609D01*
X75963Y44950D01*
X69622Y51947D01*
X63997Y59531D01*
X59142Y67630D01*
X55105Y76166D01*
X51924Y85056D01*
X49630Y94216D01*
X48244Y103556D01*
X47781Y112987D01*
X48244Y122418D01*
X49630Y131759D01*
X51924Y140918D01*
X55105Y149809D01*
X59142Y158345D01*
X60761Y161045D01*
X60726Y161065D01*
X310726Y594078D01*
X310761Y594058D01*
X313997Y599456D01*
X319622Y607041D01*
X325963Y614037D01*
X332959Y620378D01*
X340544Y626003D01*
X348643Y630858D01*
X357179Y634895D01*
X366069Y638076D01*
X375229Y640370D01*
X384569Y641756D01*
X394000Y642219D01*
X403431Y641756D01*
D02*
G37*
%LPC*%
G36*
X430250Y68776D02*
X427172Y68473D01*
X424213Y67575D01*
X421485Y66117D01*
X419095Y64155D01*
X417133Y61765D01*
X415675Y59037D01*
X414777Y56078D01*
X414474Y53000D01*
X414777Y49922D01*
X415675Y46963D01*
X417133Y44235D01*
X419095Y41845D01*
X421485Y39883D01*
X424213Y38425D01*
X427172Y37527D01*
X430250Y37224D01*
X433328Y37527D01*
X436287Y38425D01*
X439015Y39883D01*
X441405Y41845D01*
X443367Y44235D01*
X444825Y46963D01*
X445723Y49922D01*
X446026Y53000D01*
X445723Y56078D01*
X444825Y59037D01*
X443367Y61765D01*
X441405Y64155D01*
X439015Y66117D01*
X436287Y67575D01*
X433328Y68473D01*
X430250Y68776D01*
D02*
G37*
G36*
X144000Y145590D02*
X138900Y145189D01*
X133926Y143995D01*
X129200Y142037D01*
X124838Y139364D01*
X120948Y136042D01*
X117626Y132152D01*
X114953Y127790D01*
X112995Y123064D01*
X111801Y118090D01*
X111399Y112990D01*
X111801Y107890D01*
X112995Y102916D01*
X114953Y98190D01*
X117626Y93828D01*
X120948Y89938D01*
X124838Y86616D01*
X129200Y83943D01*
X133926Y81985D01*
X138900Y80791D01*
X144000Y80389D01*
X149100Y80791D01*
X154074Y81985D01*
X158800Y83943D01*
X163162Y86616D01*
X167052Y89938D01*
X170374Y93828D01*
X173047Y98190D01*
X175005Y102916D01*
X176199Y107890D01*
X176600Y112990D01*
X176199Y118090D01*
X175005Y123064D01*
X173047Y127790D01*
X170374Y132152D01*
X167052Y136042D01*
X163162Y139364D01*
X158800Y142037D01*
X154074Y143995D01*
X149100Y145189D01*
X144000Y145590D01*
D02*
G37*
G36*
X644000D02*
X638900Y145189D01*
X633926Y143995D01*
X629200Y142037D01*
X624838Y139364D01*
X620948Y136042D01*
X617626Y132152D01*
X614953Y127790D01*
X612995Y123064D01*
X611801Y118090D01*
X611399Y112990D01*
X611801Y107890D01*
X612995Y102916D01*
X614953Y98190D01*
X617626Y93828D01*
X620948Y89938D01*
X624838Y86616D01*
X629200Y83943D01*
X633926Y81985D01*
X638900Y80791D01*
X644000Y80389D01*
X649100Y80791D01*
X654074Y81985D01*
X658800Y83943D01*
X663162Y86616D01*
X667052Y89938D01*
X670374Y93828D01*
X673047Y98190D01*
X675005Y102916D01*
X676199Y107890D01*
X676600Y112990D01*
X676199Y118090D01*
X675005Y123064D01*
X673047Y127790D01*
X670374Y132152D01*
X667052Y136042D01*
X663162Y139364D01*
X658800Y142037D01*
X654074Y143995D01*
X649100Y145189D01*
X644000Y145590D01*
D02*
G37*
G36*
X394000Y578601D02*
X388900Y578199D01*
X383926Y577005D01*
X379200Y575047D01*
X374838Y572374D01*
X370948Y569052D01*
X367626Y565162D01*
X364953Y560800D01*
X362995Y556074D01*
X361801Y551100D01*
X361399Y546000D01*
X361801Y540900D01*
X362995Y535926D01*
X364953Y531200D01*
X367626Y526838D01*
X370948Y522948D01*
X374838Y519626D01*
X379200Y516953D01*
X383926Y514995D01*
X388900Y513801D01*
X394000Y513400D01*
X399100Y513801D01*
X404074Y514995D01*
X408800Y516953D01*
X413162Y519626D01*
X417052Y522948D01*
X420374Y526838D01*
X423047Y531200D01*
X425005Y535926D01*
X426199Y540900D01*
X426600Y546000D01*
X426199Y551100D01*
X425005Y556074D01*
X423047Y560800D01*
X420374Y565162D01*
X417052Y569052D01*
X413162Y572374D01*
X408800Y575047D01*
X404074Y577005D01*
X399100Y578199D01*
X394000Y578601D01*
D02*
G37*
G36*
X506000Y412118D02*
X224000D01*
X223686Y412055D01*
X220516Y411743D01*
X217166Y410727D01*
X214079Y409076D01*
X212374Y407678D01*
X212272Y407635D01*
X212242Y407610D01*
X212225Y407603D01*
X211350Y406878D01*
X210586Y405946D01*
X210573Y405917D01*
X210554Y405898D01*
X209912Y404915D01*
X176878Y354346D01*
X176626Y353719D01*
X176271Y353145D01*
X176185Y352622D01*
X175988Y352131D01*
X175995Y351456D01*
X175886Y350789D01*
X176886Y321789D01*
X177040Y321134D01*
X177079Y320462D01*
X177311Y319984D01*
X177432Y319466D01*
X177825Y318919D01*
X178118Y318314D01*
X178515Y317960D01*
X178826Y317528D01*
X179398Y317173D01*
X179900Y316726D01*
X180403Y316551D01*
X180855Y316271D01*
X181519Y316162D01*
X182155Y315941D01*
X225155Y309941D01*
X225292Y309949D01*
X225424Y309910D01*
X226479Y310018D01*
X227538Y310079D01*
X227661Y310139D01*
X227798Y310153D01*
X228732Y310656D01*
X229686Y311118D01*
X229778Y311221D01*
X229899Y311286D01*
X230569Y312109D01*
X231274Y312900D01*
X231319Y313030D01*
X231406Y313137D01*
X231710Y314153D01*
X232059Y315155D01*
X232051Y315292D01*
X232090Y315424D01*
X233713Y332569D01*
X234954Y333083D01*
X237565Y335086D01*
X239569Y337697D01*
X240828Y340738D01*
X241258Y344001D01*
X240828Y347265D01*
X239569Y350305D01*
X237772Y352647D01*
X237773Y352649D01*
X238422Y353774D01*
X238424Y353776D01*
X241350Y353391D01*
X244613Y353820D01*
X245681Y354263D01*
X263280Y339251D01*
X263330Y337982D01*
X237674Y312326D01*
X236348Y310341D01*
X235882Y308000D01*
X236348Y305659D01*
X237674Y303674D01*
X367882Y173466D01*
Y148000D01*
Y122000D01*
Y115000D01*
X368348Y112659D01*
X369674Y110674D01*
X371659Y109348D01*
X374000Y108883D01*
X382045D01*
X382775Y108395D01*
X383750Y108201D01*
X392250D01*
X393225Y108395D01*
X394052Y108948D01*
X394292Y109306D01*
X395708D01*
X395948Y108948D01*
X396775Y108395D01*
X397750Y108201D01*
X397922D01*
Y106189D01*
X394811Y103078D01*
X381000D01*
X379439Y102768D01*
X378116Y101884D01*
X377232Y100561D01*
X376922Y99000D01*
Y94389D01*
X376645Y93975D01*
X376451Y93000D01*
Y86973D01*
X375181Y86347D01*
X374037Y87225D01*
X371969Y88081D01*
X369750Y88373D01*
X367531Y88081D01*
X365463Y87225D01*
X363688Y85862D01*
X362325Y84087D01*
X361469Y82019D01*
X361177Y79800D01*
X361469Y77581D01*
X362325Y75513D01*
X363688Y73738D01*
X365463Y72375D01*
X367531Y71519D01*
X369750Y71227D01*
X371969Y71519D01*
X374037Y72375D01*
X375812Y73738D01*
X376939Y75206D01*
X377198Y75198D01*
X378025Y74645D01*
X379000Y74451D01*
X383000D01*
X383975Y74645D01*
X384250Y74829D01*
X384525Y74645D01*
X385500Y74451D01*
X389500D01*
X390475Y74645D01*
X390750Y74829D01*
X391025Y74645D01*
X392000Y74451D01*
X396000D01*
X396975Y74645D01*
X397250Y74829D01*
X397525Y74645D01*
X398500Y74451D01*
X402500D01*
X403475Y74645D01*
X403750Y74829D01*
X404025Y74645D01*
X405000Y74451D01*
X409000D01*
X409975Y74645D01*
X410802Y75198D01*
X411061Y75206D01*
X412188Y73738D01*
X413963Y72375D01*
X416031Y71519D01*
X418250Y71227D01*
X420469Y71519D01*
X422537Y72375D01*
X424312Y73738D01*
X425675Y75513D01*
X426531Y77581D01*
X426823Y79800D01*
X426531Y82019D01*
X425675Y84087D01*
X424312Y85862D01*
X422537Y87225D01*
X420469Y88081D01*
X418250Y88373D01*
X416031Y88081D01*
X413963Y87225D01*
X412819Y86347D01*
X411549Y86973D01*
Y93000D01*
X411355Y93975D01*
X411078Y94389D01*
Y96311D01*
X414134Y99367D01*
X415659Y98348D01*
X418000Y97882D01*
X420341Y98348D01*
X422326Y99674D01*
X423652Y101659D01*
X424118Y104000D01*
X423652Y106341D01*
X422326Y108326D01*
X420341Y109652D01*
X418000Y110118D01*
X415659Y109652D01*
X413674Y108326D01*
X413509Y108078D01*
X413000D01*
X411439Y107768D01*
X410116Y106884D01*
X410116Y106884D01*
X407284Y104052D01*
X406411Y104376D01*
X406078Y104642D01*
Y108201D01*
X406250D01*
X407225Y108395D01*
X408052Y108948D01*
X408605Y109775D01*
X408799Y110750D01*
Y119250D01*
X408605Y120225D01*
X408052Y121052D01*
X408351Y122358D01*
X408892Y122882D01*
X413000D01*
X415341Y123348D01*
X417326Y124674D01*
X418326Y125674D01*
X419652Y127659D01*
X420117Y130000D01*
Y152000D01*
Y175882D01*
X438000D01*
X438818Y176045D01*
X439649Y176109D01*
X439978Y176276D01*
X440341Y176348D01*
X441034Y176811D01*
X441778Y177188D01*
X442019Y177469D01*
X442326Y177674D01*
X442789Y178367D01*
X443332Y179000D01*
X542581Y355400D01*
X542650Y355391D01*
X545576Y355776D01*
X545578Y355774D01*
X546227Y354649D01*
X546228Y354647D01*
X544431Y352305D01*
X543172Y349265D01*
X542742Y346001D01*
X543172Y342738D01*
X544431Y339697D01*
X546435Y337086D01*
X549046Y335083D01*
X552087Y333823D01*
X555350Y333394D01*
X558613Y333823D01*
X561654Y335083D01*
X564265Y337086D01*
X566269Y339697D01*
X567528Y342738D01*
X567557Y342955D01*
X568802Y343203D01*
X574128Y333980D01*
X574783Y333232D01*
X575675Y332792D01*
X576668Y332727D01*
X577610Y333047D01*
X577610Y333047D01*
X594930Y343047D01*
X595678Y343703D01*
X596118Y344594D01*
X596183Y345587D01*
X595863Y346529D01*
X563363Y402820D01*
X562707Y403568D01*
X561815Y404008D01*
X560823Y404073D01*
X559881Y403753D01*
X559881Y403753D01*
X542561Y393753D01*
X541813Y393097D01*
X541373Y392206D01*
X541308Y391213D01*
X541628Y390271D01*
X546953Y381048D01*
X546115Y380093D01*
X545913Y380177D01*
X542650Y380606D01*
X539402Y380179D01*
X510403Y410247D01*
X510357Y410279D01*
X510326Y410326D01*
X509379Y410959D01*
X508443Y411609D01*
X508388Y411621D01*
X508341Y411652D01*
X507223Y411874D01*
X506111Y412117D01*
X506055Y412107D01*
X506000Y412118D01*
D02*
G37*
G36*
X357750Y68776D02*
X354672Y68473D01*
X351713Y67575D01*
X348985Y66117D01*
X346595Y64155D01*
X344633Y61765D01*
X343175Y59037D01*
X342277Y56078D01*
X341974Y53000D01*
X342277Y49922D01*
X343175Y46963D01*
X344633Y44235D01*
X346595Y41845D01*
X348985Y39883D01*
X351713Y38425D01*
X354672Y37527D01*
X357750Y37224D01*
X360828Y37527D01*
X363787Y38425D01*
X366515Y39883D01*
X368905Y41845D01*
X370867Y44235D01*
X372325Y46963D01*
X373223Y49922D01*
X373526Y53000D01*
X373223Y56078D01*
X372325Y59037D01*
X370867Y61765D01*
X368905Y64155D01*
X366515Y66117D01*
X363787Y67575D01*
X360828Y68473D01*
X357750Y68776D01*
D02*
G37*
%LPD*%
G36*
X216443Y340955D02*
X216472Y340738D01*
X217731Y337697D01*
X219735Y335086D01*
X221531Y333708D01*
X220599Y323857D01*
X219602Y323069D01*
X188937Y327348D01*
X188504Y339907D01*
X189749Y340655D01*
X206390Y331047D01*
X206390Y331047D01*
X207332Y330727D01*
X208325Y330792D01*
X209217Y331232D01*
X209872Y331980D01*
X215198Y341203D01*
X216443Y340955D01*
D02*
G37*
G36*
X530632Y371648D02*
X530472Y371262D01*
X530042Y367999D01*
X530472Y364735D01*
X531731Y361695D01*
X531935Y361429D01*
X434423Y188118D01*
X416534D01*
X412326Y192326D01*
X410341Y193652D01*
X408000Y194118D01*
X390000D01*
X387659Y193652D01*
X385674Y192326D01*
X382174Y188826D01*
X380848Y186841D01*
X380382Y184500D01*
Y181331D01*
X380145Y180975D01*
X379978Y180138D01*
X379604Y179944D01*
X378681Y179794D01*
X378326Y180326D01*
X250651Y308000D01*
X277326Y334674D01*
X277462Y334878D01*
X277654Y335030D01*
X278121Y335864D01*
X278652Y336659D01*
X278700Y336899D01*
X278819Y337113D01*
X278931Y338062D01*
X279118Y339000D01*
X279070Y339240D01*
X279098Y339484D01*
X278838Y340403D01*
X278652Y341341D01*
X278516Y341545D01*
X278449Y341781D01*
X277857Y342531D01*
X277326Y343326D01*
X277122Y343462D01*
X276970Y343654D01*
X253637Y363559D01*
X253958Y365999D01*
X253528Y369262D01*
X252269Y372303D01*
X250265Y374914D01*
X247654Y376917D01*
X244613Y378177D01*
X241350Y378606D01*
X238087Y378177D01*
X237885Y378093D01*
X237047Y379048D01*
X242372Y388271D01*
X242692Y389213D01*
X242627Y390205D01*
X242187Y391097D01*
X241439Y391753D01*
X229484Y398656D01*
X229813Y399883D01*
X503401D01*
X530632Y371648D01*
D02*
G37*
G36*
X394948Y151948D02*
X395775Y151395D01*
X396750Y151201D01*
X405250D01*
X406226Y151395D01*
X406613Y151654D01*
X407882Y151078D01*
Y136577D01*
X406612Y135727D01*
X406250Y135799D01*
X397750D01*
X396775Y135605D01*
X395948Y135052D01*
X394642Y135351D01*
X394118Y135892D01*
Y140743D01*
X394367Y142000D01*
X393902Y144341D01*
X392576Y146326D01*
X390591Y147652D01*
X388250Y148118D01*
X385909Y147652D01*
X383924Y146326D01*
X383674Y146076D01*
X382348Y144091D01*
X381882Y141750D01*
Y135254D01*
X381388Y134735D01*
X380118Y135243D01*
Y145466D01*
X385853Y151201D01*
X391250D01*
X392225Y151395D01*
X393052Y151948D01*
X393292Y152306D01*
X394708D01*
X394948Y151948D01*
D02*
G37*
D10*
X224000Y406000D02*
G03*
X215676Y402552I0J-11772D01*
G01*
X414000Y182000D02*
X438000D01*
X374000Y148000D02*
Y176000D01*
X242000Y308000D02*
X374000Y176000D01*
X388000Y141750D02*
X388250Y142000D01*
X374000Y148000D02*
X384000Y158000D01*
X374000Y122000D02*
Y148000D01*
X414000Y152000D02*
Y182000D01*
X408000Y188000D02*
X414000Y182000D01*
X390000Y188000D02*
X408000D01*
X386500Y184500D02*
X390000Y188000D01*
X386500Y176000D02*
Y184500D01*
X401500Y168000D02*
Y176000D01*
X399750Y166250D02*
X401500Y168000D01*
X399750Y158000D02*
Y166250D01*
X402000Y129000D02*
X413000D01*
X414000Y130000D01*
Y152000D01*
X374000Y115000D02*
X388000D01*
X374000D02*
Y122000D01*
X388000Y127750D02*
Y141750D01*
X182000Y351000D02*
X183000Y322000D01*
X226000Y316000D01*
X228650Y344002D01*
X241350Y365999D02*
X273000Y339000D01*
X242000Y308000D02*
X273000Y339000D01*
X506000Y406000D02*
X542650Y367999D01*
X438000Y182000D02*
X542650Y367999D01*
X182000Y351000D02*
X215676Y402552D01*
X215676Y402552D01*
X224000Y406000D02*
X506000D01*
X384000Y158000D02*
X388250D01*
D11*
X386500Y176000D02*
D03*
X401500D02*
D03*
D12*
X381000Y85000D02*
D03*
X387500D02*
D03*
X394000D02*
D03*
X400500D02*
D03*
X407000D02*
D03*
D13*
X388000Y115000D02*
D03*
Y129000D02*
D03*
X402000D02*
D03*
Y115000D02*
D03*
D14*
X401000Y158000D02*
D03*
X387000D02*
D03*
D15*
X381000Y85000D02*
Y99000D01*
X396500D01*
X402000Y104500D01*
Y115000D01*
X407000Y85000D02*
Y98000D01*
X413000Y104000D01*
X418000D01*
D16*
X388250Y142000D02*
D03*
X418000Y104000D02*
D03*
D17*
X644000Y112990D02*
D03*
X144000D02*
D03*
X394000Y546000D02*
D03*
D18*
X430250Y53000D02*
D03*
X357750D02*
D03*
D19*
X418250Y79800D02*
D03*
X369750D02*
D03*
D20*
X542650Y367999D02*
D03*
X555350Y346002D02*
D03*
X228650Y344002D02*
D03*
X241350Y365999D02*
D03*
M02*
