M48
;Layer_Color=9474304
;FILE_FORMAT=4:4
METRIC,LZ
;TYPE=PLATED
T1F00S00C0.7112
T2F00S00C0.9000
T3F00S00C1.0000
T4F00S00C1.1000
T6F00S00C3.0000
T7F00S00C4.8000
;TYPE=NON_PLATED
T8F00S00C0.9000
%
T01
X00202Y0025
X0026693Y00282
X00316Y00234
X00234Y00342
T02
X002Y00476
X0028
T03
X0018Y00188
X00324Y0034
T04
X004595Y002119
Y002373
Y002627
Y002881
X0007
Y002627
Y002373
Y002119
T06
X0035Y00165
X00165
Y0035
X0035
T07
X00455Y00045
X00045
Y00455
X00455
T08
X00235395Y001
X00265395
M30
