M48
;Layer_Color=9474304
;FILE_FORMAT=4:4
METRIC,LZ
;TYPE=PLATED
T1F00S00C0.3000
T2F00S00C0.5000
T3F00S00C0.7000
T4F00S00C0.7620
T5F00S00C1.1000
T6F00S00C1.7600
T8F00S00C3.0000
T9F00S00C4.8000
;TYPE=NON_PLATED
T10F00S00C0.9000
%
T01
X0101175Y0036025
X0100025Y004835
X003065Y003225
X00424Y00741013
X0039425Y00779013
X00834Y0070575
X0087Y0070575
X008615Y0085175
X0081425Y0092775
X01162542Y0120501
X0093025Y0099725
X00826Y0095925
Y009435
T02
X00269Y000475
X0027525
X0028175
X002885
X00295
X00869
X0087525
X0088175
X008885
X00895
X01394
X0140025
X0140675
X014135
X0142
X01366Y00445
Y00451
Y00457
Y00464
Y00471
Y00478
Y00485
X01331501Y00485
Y00478
Y00471
Y00464
Y00457
Y00451
Y00445
X01188499Y00445
Y00451
Y00457
Y00464
Y00471
Y00478
Y00485
X01151
Y00478
Y00472
Y00466
Y00459
Y00452
Y00445
X0060775Y003355
Y00329
Y0032225
Y0031575
Y003095
X005925Y00309
Y0031525
Y0032175
Y003285
Y00335
X0004775Y00348
Y0035525
Y0036225
Y0036875
Y003755
Y00382
X003195Y0063225
X0032575
X0033225
X00339
X003455
X00345Y006475
X003385
X0033175
X0032525
X00319
X008645Y0064775
X00871
X0087775
X0088425
X008905
X00891Y006325
X0088475
X0087825
X008715
X00865
X010495Y0063225
X0105575
X0106225
X01069
X010755
X01075Y006475
X010685
X0106175
X0105525
X01049
X01131443Y00735
Y00743
Y00752
Y00761
Y00769
Y00777
Y00786
X01171
Y00777
Y00769
Y00761
Y00752
Y00743
Y00735
X009875Y00785
Y007915
Y0079825
Y0080475
Y00811
X0097225Y008105
Y0080425
Y0079775
Y00791
Y007845
X01514Y007275
X0152025
X0152675
X015335
X0154
X015405Y0071225
X01534
X0152725
X0152075
X015145
X01469561Y00573
Y00566
Y00559
Y00552
Y00545
Y00537
X01448
Y00545
Y00552
Y00559
Y00566
Y00573
X01611636Y00569687
Y00576687
Y00583687
Y00590687
Y00597687
X01612Y00562
X01581Y00852
Y0086
Y00869
Y00877
Y00887
Y00897
X01543Y01031989
X01536
X01529
X01522
X01514
X01506
X01498
Y01142
X01506
X01514
X01522
X01529
X01536
X01543
X01611Y01163
Y01171
Y01178
Y01187
X01213Y01251
X01205
X01196
X01187
X01177
X01171Y01048
Y0104
Y01032
Y01025
Y01018
Y0101
Y01002
X00971559
Y0101
Y01018
Y01025
Y01032
Y0104
Y01048
X00769Y01072
Y01081
Y0109
Y01098
Y00998
Y00991
Y00984
Y00977
Y00969
Y00962
X00645
X0064Y0097
X00636Y00977
X00632Y00984
X00627Y00991
X00623Y00998
X00642Y0116
X00651
X00661
X00671
X0068
X00688
X00202Y01047
X00198Y01041
X00194Y01034
X0019Y01027
X00186Y0102
X00182Y01013
X00178Y01006
X00174Y00998
X00169Y00991
X00165Y00983
X00039Y01192
Y01199
Y01208
X0032Y01352
Y0136
Y01368
Y01376
Y01383
Y01391
Y01399
Y01407
X00449
Y01399
Y01391
Y01383
Y01376
Y01368
Y0136
Y01352
X01177Y01329
X01187
X01196
X01205
X01213
X01301Y01354
Y01362
Y01369
Y01377
Y01387
Y01396
X011705Y0147225
X01164
X0115725
X0115075
X011445
X01336552Y01396
Y01387
Y01377
Y01369
Y01362
Y01354
T03
X0037575Y00716813
X0042425
T04
X00008Y00018
X01674Y01503
T05
X002819Y0012
X003073
X003327
X003581
X008419Y0012
X008673
X008927
X009181
X01537058Y0017999
X01562458
X01587858
Y0021499
X01562458
X01537058
X015278Y0049
X015024
X015532
X015786
X012986Y0039
X012732
X012478
X012224
X0110725Y0040385
Y0042925
Y0045465
Y0048005
X01108Y002774
Y00252
Y002266
Y002012
X01227058Y0021499
X01252458
X01277858
Y0017999
X01252458
X01227058
X007125Y0020095
Y0022635
Y0025175
Y0027715
X00712Y0040365
Y0042905
Y0045445
Y0047985
X00152Y0037335
Y0034795
Y0032255
Y0029715
X010211Y0069225
X010465
X010719
X010973
X010976Y0087
X010722
X010468
X010214
X01199842Y0079301
X01225242
X012227Y0056775
X012481
X012735
X012989
X01394458Y0062099
X01419858
X015027Y0066775
X015281
X015535
X015789
X014427Y009078
X014173
X01397942Y0114501
X01372542
X01347142
X01502153Y01182977
X01527552
X01552953
X01578353
X01377552Y01314877
X01077942Y0114501
X01052542
X01027142
X0087125Y0108315
Y0105775
Y0103235
Y0100695
X0054865Y01005011
X0056135Y00983014
X006146Y01199988
X0064
X006654
X006908
X00148112Y0121
X0024735Y01003011
X0023465Y00981014
X00122712Y0121
X00097312
X00071912
X00280012Y013346
Y0136
Y013854
Y014108
X0049Y01408088
Y01382688
Y01357288
Y01331888
X0108Y013614
Y013868
Y014122
Y014376
X0125775Y014373
Y014119
Y013865
Y013611
X01377552Y01365677
Y01391077
Y01340277
T06
X0036375Y00690013
X0043625
T08
X00965Y00255
Y00425
X00795
Y00255
X00415
Y00425
X00245
Y00255
X00795Y00725
X00945
X0137Y0083
Y0093
X0149
Y0083
X0087Y01325
T09
X0009Y0009
X0055
X0065
X0111
X0009Y0059
X0015Y00750003
X0065
X0065Y0059
X0055
X0111
X0132Y0077
X0154
Y0099
X0132
X004Y01183013
T10
X0104875Y004465
Y004765
M30
