G04 Layer_Color=8388736*
%FSLAX44Y44*%
%MOMM*%
G71*
G01*
G75*
%ADD24R,1.0032X1.0032*%
%ADD25R,0.6032X1.8032*%
%ADD26R,1.0532X1.0532*%
%ADD27R,1.0532X1.0532*%
%ADD28C,0.9032*%
%ADD29C,6.2032*%
%ADD30C,2.8432*%
%ADD31C,1.4032*%
G04:AMPARAMS|DCode=32|XSize=0.2032mm|YSize=0.2032mm|CornerRadius=0mm|HoleSize=0mm|Usage=FLASHONLY|Rotation=120.000|XOffset=0mm|YOffset=0mm|HoleType=Round|Shape=RoundedRectangle|*
%AMROUNDEDRECTD32*
21,1,0.2032,0.2032,0,0,120.0*
21,1,0.2032,0.2032,0,0,120.0*
1,1,0.0000,0.0372,0.1388*
1,1,0.0000,0.1388,-0.0372*
1,1,0.0000,-0.0372,-0.1388*
1,1,0.0000,-0.1388,0.0372*
%
%ADD32ROUNDEDRECTD32*%
%ADD33C,2.2032*%
G04:AMPARAMS|DCode=34|XSize=0.2032mm|YSize=0.2032mm|CornerRadius=0mm|HoleSize=0mm|Usage=FLASHONLY|Rotation=240.000|XOffset=0mm|YOffset=0mm|HoleType=Round|Shape=RoundedRectangle|*
%AMROUNDEDRECTD34*
21,1,0.2032,0.2032,0,0,240.0*
21,1,0.2032,0.2032,0,0,240.0*
1,1,0.0000,-0.1388,-0.0372*
1,1,0.0000,-0.0372,0.1388*
1,1,0.0000,0.1388,0.0372*
1,1,0.0000,0.0372,-0.1388*
%
%ADD34ROUNDEDRECTD34*%
D24*
X386500Y176000D02*
D03*
X401500D02*
D03*
D25*
X381000Y85000D02*
D03*
X387500D02*
D03*
X394000D02*
D03*
X400500D02*
D03*
X407000D02*
D03*
D26*
X388000Y115000D02*
D03*
Y129000D02*
D03*
X402000D02*
D03*
Y115000D02*
D03*
D27*
X401000Y158000D02*
D03*
X387000D02*
D03*
D28*
X388250Y142000D02*
D03*
X418000Y104000D02*
D03*
D29*
X644000Y112990D02*
D03*
X144000D02*
D03*
X394000Y546000D02*
D03*
D30*
X430250Y53000D02*
D03*
X357750D02*
D03*
D31*
X418250Y79800D02*
D03*
X369750D02*
D03*
D32*
X568745Y368400D02*
D03*
D33*
X542650Y367999D02*
D03*
X555350Y346002D02*
D03*
X228650Y344002D02*
D03*
X241350Y365999D02*
D03*
D34*
X215255Y366400D02*
D03*
M02*
