G04 Layer_Color=65535*
%FSLAX44Y44*%
%MOMM*%
G71*
G01*
G75*
%ADD21C,0.1000*%
%ADD22C,0.1500*%
%ADD23C,0.2000*%
G36*
X545604Y249368D02*
X545995Y249211D01*
X546307Y248899D01*
X546698Y248586D01*
X546932Y248040D01*
X547010Y247337D01*
Y226248D01*
Y226170D01*
Y225936D01*
X547088Y225546D01*
X547245Y225233D01*
X547557Y224842D01*
X547869Y224452D01*
X548416Y224218D01*
X549119Y224140D01*
X549431D01*
X549822Y224062D01*
X550213Y223905D01*
X550525Y223593D01*
X550915Y223280D01*
X551150Y222734D01*
X551228Y222031D01*
Y221953D01*
Y221718D01*
X551150Y221406D01*
X550994Y221015D01*
X550681Y220625D01*
X550369Y220312D01*
X549822Y220078D01*
X549119Y220000D01*
X548651D01*
X548104Y220156D01*
X547401Y220312D01*
X546620Y220547D01*
X545839Y220937D01*
X545058Y221484D01*
X544277Y222187D01*
X544198Y222109D01*
X543886Y221875D01*
X543339Y221484D01*
X542715Y221094D01*
X541855Y220703D01*
X540918Y220312D01*
X539825Y220078D01*
X538575Y220000D01*
X534201D01*
X533811Y220078D01*
X533108Y220156D01*
X532327Y220312D01*
X531389Y220625D01*
X530374Y221015D01*
X529359Y221640D01*
X528421Y222421D01*
X528343Y222499D01*
X528031Y222890D01*
X527640Y223358D01*
X527250Y224062D01*
X526781Y224921D01*
X526391Y225936D01*
X526078Y227108D01*
X526000Y228357D01*
Y241010D01*
Y241088D01*
Y241166D01*
X526078Y241635D01*
X526156Y242260D01*
X526312Y243041D01*
X526625Y243978D01*
X527015Y244994D01*
X527640Y246009D01*
X528421Y246946D01*
X528499Y247024D01*
X528890Y247337D01*
X529359Y247727D01*
X530061Y248196D01*
X530921Y248665D01*
X531936Y249055D01*
X533108Y249368D01*
X534357Y249446D01*
X545214D01*
X545604Y249368D01*
D02*
G37*
G36*
X510457Y249289D02*
X511238Y249133D01*
X512175Y248821D01*
X513191Y248430D01*
X514206Y247805D01*
X515143Y246946D01*
X515222Y246868D01*
X515534Y246478D01*
X515924Y246009D01*
X516393Y245306D01*
X516862Y244447D01*
X517252Y243431D01*
X517565Y242260D01*
X517643Y241010D01*
Y222031D01*
Y221953D01*
Y221718D01*
X517565Y221406D01*
X517408Y221015D01*
X517096Y220625D01*
X516784Y220312D01*
X516237Y220078D01*
X515534Y220000D01*
X515222D01*
X514831Y220078D01*
X514519Y220234D01*
X514128Y220469D01*
X513738Y220859D01*
X513503Y221328D01*
X513425Y222031D01*
Y241010D01*
Y241088D01*
Y241323D01*
X513347Y241635D01*
X513269Y242026D01*
X513113Y242494D01*
X512878Y243041D01*
X512566Y243510D01*
X512175Y243978D01*
X512097Y244056D01*
X511941Y244213D01*
X511707Y244369D01*
X511316Y244603D01*
X510926Y244837D01*
X510379Y245072D01*
X509832Y245150D01*
X509207Y245228D01*
X504990D01*
Y222031D01*
Y221953D01*
Y221718D01*
X504912Y221406D01*
X504756Y221015D01*
X504443Y220625D01*
X504131Y220312D01*
X503584Y220078D01*
X502881Y220000D01*
X502569D01*
X502178Y220078D01*
X501866Y220234D01*
X501475Y220469D01*
X501085Y220859D01*
X500850Y221328D01*
X500772Y222031D01*
Y245228D01*
X492337D01*
Y222031D01*
Y221953D01*
Y221718D01*
X492259Y221406D01*
X492103Y221015D01*
X491790Y220625D01*
X491478Y220312D01*
X490931Y220078D01*
X490228Y220000D01*
X489916D01*
X489525Y220078D01*
X489213Y220234D01*
X488822Y220469D01*
X488432Y220859D01*
X488197Y221328D01*
X488119Y222031D01*
Y247337D01*
Y247415D01*
Y247649D01*
X488197Y248040D01*
X488353Y248430D01*
X488666Y248743D01*
X488978Y249133D01*
X489525Y249368D01*
X490228Y249446D01*
X509832D01*
X510457Y249289D01*
D02*
G37*
G36*
X364713Y249368D02*
X365104Y249211D01*
X365416Y248899D01*
X365807Y248586D01*
X366041Y248040D01*
X366119Y247337D01*
Y222031D01*
Y221953D01*
Y221718D01*
X366041Y221406D01*
X365885Y221015D01*
X365572Y220625D01*
X365260Y220312D01*
X364713Y220078D01*
X364010Y220000D01*
X353310D01*
X352919Y220078D01*
X352216Y220156D01*
X351435Y220312D01*
X350498Y220625D01*
X349483Y221015D01*
X348467Y221640D01*
X347530Y222421D01*
X347452Y222499D01*
X347140Y222890D01*
X346749Y223358D01*
X346358Y224062D01*
X345890Y224921D01*
X345499Y225936D01*
X345187Y227108D01*
X345109Y228357D01*
Y247337D01*
Y247415D01*
Y247649D01*
X345187Y248040D01*
X345343Y248430D01*
X345656Y248743D01*
X345968Y249133D01*
X346515Y249368D01*
X347218Y249446D01*
X347530D01*
X347921Y249368D01*
X348311Y249211D01*
X348624Y248899D01*
X349014Y248586D01*
X349248Y248040D01*
X349327Y247337D01*
Y228357D01*
Y228279D01*
Y228045D01*
X349405Y227732D01*
X349483Y227342D01*
X349639Y226873D01*
X349795Y226405D01*
X350108Y225858D01*
X350498Y225389D01*
X350576Y225311D01*
X350732Y225233D01*
X350967Y224999D01*
X351357Y224842D01*
X351748Y224608D01*
X352295Y224374D01*
X352841Y224296D01*
X353466Y224218D01*
X361901D01*
Y247337D01*
Y247415D01*
Y247649D01*
X361979Y248040D01*
X362136Y248430D01*
X362448Y248743D01*
X362761Y249133D01*
X363307Y249368D01*
X364010Y249446D01*
X364323D01*
X364713Y249368D01*
D02*
G37*
G36*
X638159D02*
X638549Y249211D01*
X638862Y248899D01*
X639252Y248586D01*
X639487Y248040D01*
X639565Y247337D01*
Y222031D01*
Y221953D01*
Y221718D01*
X639487Y221406D01*
X639330Y221015D01*
X639018Y220625D01*
X638706Y220312D01*
X638159Y220078D01*
X637456Y220000D01*
X637144D01*
X636753Y220078D01*
X636441Y220234D01*
X636050Y220547D01*
X635659Y220859D01*
X635425Y221406D01*
X635347Y222109D01*
Y232653D01*
X631051D01*
X622304Y220859D01*
X622225Y220703D01*
X621835Y220469D01*
X621288Y220156D01*
X620976Y220078D01*
X620585Y220000D01*
X620273D01*
X619960Y220078D01*
X619570Y220234D01*
X619179Y220547D01*
X618867Y220859D01*
X618633Y221406D01*
X618554Y222109D01*
Y222265D01*
X618633Y222499D01*
X618711Y222968D01*
X618867Y223358D01*
X625974Y232653D01*
X625818D01*
X625428Y232731D01*
X624881Y232887D01*
X624100Y233122D01*
X623241Y233512D01*
X622382Y233981D01*
X621522Y234606D01*
X620663Y235387D01*
X620585Y235465D01*
X620351Y235777D01*
X619960Y236324D01*
X619648Y236949D01*
X619257Y237808D01*
X618867Y238745D01*
X618633Y239839D01*
X618554Y241010D01*
Y241088D01*
Y241166D01*
X618633Y241635D01*
X618711Y242260D01*
X618867Y243041D01*
X619179Y243978D01*
X619570Y244994D01*
X620195Y246009D01*
X620976Y246946D01*
X621054Y247024D01*
X621444Y247337D01*
X621913Y247727D01*
X622616Y248196D01*
X623475Y248665D01*
X624490Y249055D01*
X625662Y249368D01*
X626912Y249446D01*
X637768D01*
X638159Y249368D01*
D02*
G37*
G36*
X241229Y249289D02*
X242010Y249133D01*
X242948Y248821D01*
X243963Y248430D01*
X244978Y247805D01*
X245916Y246946D01*
X245994Y246868D01*
X246306Y246478D01*
X246697Y246009D01*
X247165Y245306D01*
X247634Y244447D01*
X248024Y243431D01*
X248337Y242260D01*
X248415Y241010D01*
Y222031D01*
Y221953D01*
Y221718D01*
X248337Y221406D01*
X248181Y221015D01*
X247868Y220625D01*
X247556Y220312D01*
X247009Y220078D01*
X246306Y220000D01*
X245994D01*
X245603Y220078D01*
X245291Y220234D01*
X244900Y220469D01*
X244510Y220859D01*
X244275Y221328D01*
X244197Y222031D01*
Y241010D01*
Y241088D01*
Y241323D01*
X244119Y241635D01*
X244041Y242026D01*
X243885Y242494D01*
X243650Y243041D01*
X243338Y243510D01*
X242948Y243978D01*
X242869Y244056D01*
X242713Y244213D01*
X242479Y244369D01*
X242088Y244603D01*
X241698Y244837D01*
X241151Y245072D01*
X240604Y245150D01*
X239979Y245228D01*
X235762D01*
Y222031D01*
Y221953D01*
Y221718D01*
X235684Y221406D01*
X235527Y221015D01*
X235215Y220625D01*
X234903Y220312D01*
X234356Y220078D01*
X233653Y220000D01*
X233341D01*
X232950Y220078D01*
X232638Y220234D01*
X232247Y220469D01*
X231857Y220859D01*
X231622Y221328D01*
X231544Y222031D01*
Y245228D01*
X223109D01*
Y222031D01*
Y221953D01*
Y221718D01*
X223031Y221406D01*
X222875Y221015D01*
X222562Y220625D01*
X222250Y220312D01*
X221703Y220078D01*
X221000Y220000D01*
X220688D01*
X220297Y220078D01*
X219985Y220234D01*
X219594Y220469D01*
X219204Y220859D01*
X218969Y221328D01*
X218891Y222031D01*
Y247337D01*
Y247415D01*
Y247649D01*
X218969Y248040D01*
X219125Y248430D01*
X219438Y248743D01*
X219750Y249133D01*
X220297Y249368D01*
X221000Y249446D01*
X240604D01*
X241229Y249289D01*
D02*
G37*
G36*
X209050Y249368D02*
X209440Y249211D01*
X209753Y248899D01*
X210143Y248586D01*
X210378Y248040D01*
X210456Y247337D01*
Y247259D01*
Y247024D01*
X210378Y246634D01*
X210222Y246321D01*
X209909Y245931D01*
X209597Y245540D01*
X209050Y245306D01*
X208347Y245228D01*
X201708D01*
X201396Y245150D01*
X201005Y245072D01*
X200536Y244916D01*
X200068Y244681D01*
X199521Y244369D01*
X199053Y243978D01*
X198974Y243900D01*
X198896Y243744D01*
X198662Y243510D01*
X198506Y243119D01*
X198272Y242729D01*
X198037Y242182D01*
X197959Y241635D01*
X197881Y241010D01*
Y228357D01*
Y228279D01*
Y228045D01*
X197959Y227732D01*
X198037Y227342D01*
X198193Y226873D01*
X198350Y226405D01*
X198662Y225858D01*
X199053Y225389D01*
X199131Y225311D01*
X199287Y225233D01*
X199521Y224999D01*
X199912Y224842D01*
X200302Y224608D01*
X200849Y224374D01*
X201396Y224296D01*
X202020Y224218D01*
X208659D01*
X209050Y224140D01*
X209440Y223983D01*
X209753Y223671D01*
X210143Y223358D01*
X210378Y222812D01*
X210456Y222109D01*
Y222031D01*
Y221796D01*
X210378Y221406D01*
X210222Y221094D01*
X209909Y220703D01*
X209597Y220312D01*
X209050Y220078D01*
X208347Y220000D01*
X201864D01*
X201474Y220078D01*
X200771Y220156D01*
X199990Y220312D01*
X199053Y220625D01*
X198037Y221015D01*
X197022Y221640D01*
X196084Y222421D01*
X196006Y222499D01*
X195694Y222890D01*
X195303Y223358D01*
X194913Y224062D01*
X194444Y224921D01*
X194054Y225936D01*
X193741Y227108D01*
X193663Y228357D01*
Y241010D01*
Y241088D01*
Y241166D01*
X193741Y241635D01*
X193820Y242260D01*
X193976Y243041D01*
X194288Y243978D01*
X194679Y244994D01*
X195303Y246009D01*
X196084Y246946D01*
X196163Y247024D01*
X196553Y247337D01*
X197022Y247727D01*
X197725Y248196D01*
X198584Y248665D01*
X199599Y249055D01*
X200771Y249368D01*
X202020Y249446D01*
X208659D01*
X209050Y249368D01*
D02*
G37*
G36*
X443052Y249289D02*
X443834Y249133D01*
X444771Y248821D01*
X445786Y248430D01*
X446802Y247805D01*
X447739Y246946D01*
X447817Y246868D01*
X448129Y246478D01*
X448520Y246009D01*
X448988Y245306D01*
X449457Y244447D01*
X449848Y243431D01*
X450160Y242260D01*
X450238Y241010D01*
Y222031D01*
Y221953D01*
Y221718D01*
X450160Y221406D01*
X450004Y221015D01*
X449692Y220625D01*
X449379Y220312D01*
X448832Y220078D01*
X448129Y220000D01*
X447817D01*
X447426Y220078D01*
X447114Y220234D01*
X446724Y220469D01*
X446333Y220859D01*
X446099Y221328D01*
X446021Y222031D01*
Y241010D01*
Y241088D01*
Y241323D01*
X445942Y241635D01*
X445864Y242026D01*
X445708Y242494D01*
X445474Y243041D01*
X445161Y243510D01*
X444771Y243978D01*
X444693Y244056D01*
X444537Y244213D01*
X444302Y244369D01*
X443990Y244603D01*
X443521Y244837D01*
X443052Y245072D01*
X442428Y245150D01*
X441803Y245228D01*
X433446D01*
Y222031D01*
Y221953D01*
Y221718D01*
X433368Y221406D01*
X433211Y221015D01*
X432899Y220625D01*
X432587Y220312D01*
X432040Y220078D01*
X431337Y220000D01*
X431024D01*
X430634Y220078D01*
X430321Y220234D01*
X429931Y220469D01*
X429540Y220859D01*
X429306Y221328D01*
X429228Y222031D01*
Y247337D01*
Y247415D01*
Y247649D01*
X429306Y248040D01*
X429462Y248430D01*
X429697Y248743D01*
X430087Y249133D01*
X430556Y249368D01*
X431259Y249446D01*
X442428D01*
X443052Y249289D01*
D02*
G37*
G36*
X268019Y249368D02*
X268800Y249289D01*
X269816Y249055D01*
X271065Y248743D01*
X272315Y248196D01*
X273565Y247415D01*
X274736Y246399D01*
X274893Y246243D01*
X275205Y245853D01*
X275674Y245228D01*
X276298Y244291D01*
X276845Y243197D01*
X277314Y241947D01*
X277626Y240542D01*
X277782Y238901D01*
Y230466D01*
Y230388D01*
Y230310D01*
Y230076D01*
X277704Y229763D01*
X277626Y228904D01*
X277392Y227889D01*
X277001Y226717D01*
X276455Y225467D01*
X275674Y224218D01*
X274658Y223046D01*
X274502Y222890D01*
X274111Y222577D01*
X273487Y222109D01*
X272627Y221562D01*
X271534Y220937D01*
X270284Y220469D01*
X268800Y220156D01*
X267238Y220000D01*
X266848D01*
X266535Y220078D01*
X265676Y220156D01*
X264661Y220390D01*
X263489Y220781D01*
X262239Y221250D01*
X260990Y222031D01*
X259818Y223046D01*
X259662Y223202D01*
X259350Y223593D01*
X258881Y224218D01*
X258334Y225155D01*
X257709Y226170D01*
X257241Y227498D01*
X256928Y228904D01*
X256772Y230466D01*
Y238901D01*
Y238979D01*
Y239136D01*
Y239292D01*
X256850Y239604D01*
X256928Y240464D01*
X257163Y241479D01*
X257553Y242651D01*
X258022Y243900D01*
X258803Y245150D01*
X259818Y246321D01*
X259974Y246478D01*
X260365Y246790D01*
X260990Y247337D01*
X261927Y247883D01*
X262942Y248430D01*
X264270Y248977D01*
X265676Y249289D01*
X267238Y249446D01*
X267707D01*
X268019Y249368D01*
D02*
G37*
G36*
X478278D02*
X478668Y249211D01*
X478981Y248899D01*
X479371Y248586D01*
X479606Y248040D01*
X479684Y247337D01*
Y222031D01*
Y221953D01*
Y221718D01*
X479606Y221406D01*
X479450Y221015D01*
X479137Y220625D01*
X478825Y220312D01*
X478278Y220078D01*
X477575Y220000D01*
X466875D01*
X466484Y220078D01*
X465781Y220156D01*
X465000Y220312D01*
X464063Y220625D01*
X463047Y221015D01*
X462032Y221640D01*
X461095Y222421D01*
X461017Y222499D01*
X460704Y222890D01*
X460314Y223358D01*
X459923Y224062D01*
X459455Y224921D01*
X459064Y225936D01*
X458752Y227108D01*
X458674Y228357D01*
Y247337D01*
Y247415D01*
Y247649D01*
X458752Y248040D01*
X458908Y248430D01*
X459220Y248743D01*
X459533Y249133D01*
X460079Y249368D01*
X460782Y249446D01*
X461095D01*
X461485Y249368D01*
X461876Y249211D01*
X462188Y248899D01*
X462579Y248586D01*
X462813Y248040D01*
X462891Y247337D01*
Y228357D01*
Y228279D01*
Y228045D01*
X462969Y227732D01*
X463047Y227342D01*
X463204Y226873D01*
X463360Y226405D01*
X463672Y225858D01*
X464063Y225389D01*
X464141Y225311D01*
X464297Y225233D01*
X464531Y224999D01*
X464922Y224842D01*
X465312Y224608D01*
X465859Y224374D01*
X466406Y224296D01*
X467031Y224218D01*
X475466D01*
Y247337D01*
Y247415D01*
Y247649D01*
X475544Y248040D01*
X475700Y248430D01*
X476013Y248743D01*
X476325Y249133D01*
X476872Y249368D01*
X477575Y249446D01*
X477887D01*
X478278Y249368D01*
D02*
G37*
G36*
X305822D02*
X306213Y249211D01*
X306525Y248899D01*
X306915Y248586D01*
X307150Y248040D01*
X307228Y247337D01*
Y222031D01*
Y221953D01*
Y221718D01*
X307150Y221406D01*
X306994Y221015D01*
X306681Y220625D01*
X306369Y220312D01*
X305822Y220078D01*
X305119Y220000D01*
X304807D01*
X304416Y220078D01*
X304104Y220234D01*
X303713Y220547D01*
X303323Y220859D01*
X303088Y221406D01*
X303010Y222109D01*
Y232653D01*
X294419D01*
X294028Y232731D01*
X293325Y232809D01*
X292544Y232965D01*
X291607Y233200D01*
X290592Y233668D01*
X289576Y234215D01*
X288639Y234996D01*
X288561Y235074D01*
X288248Y235465D01*
X287858Y235933D01*
X287467Y236636D01*
X286999Y237495D01*
X286608Y238511D01*
X286296Y239604D01*
X286218Y240854D01*
Y247337D01*
Y247415D01*
Y247649D01*
X286296Y248040D01*
X286452Y248430D01*
X286764Y248743D01*
X287077Y249133D01*
X287624Y249368D01*
X288326Y249446D01*
X288639D01*
X289030Y249368D01*
X289420Y249211D01*
X289732Y248899D01*
X290123Y248586D01*
X290357Y248040D01*
X290435Y247337D01*
Y241010D01*
Y240932D01*
Y240698D01*
X290513Y240385D01*
X290592Y239995D01*
X290748Y239526D01*
X290904Y239058D01*
X291216Y238511D01*
X291607Y238042D01*
X291685Y237964D01*
X291841Y237886D01*
X292076Y237652D01*
X292466Y237495D01*
X292857Y237261D01*
X293403Y237027D01*
X293950Y236949D01*
X294575Y236871D01*
X303010D01*
Y247337D01*
Y247415D01*
Y247649D01*
X303088Y248040D01*
X303245Y248430D01*
X303557Y248743D01*
X303869Y249133D01*
X304416Y249368D01*
X305119Y249446D01*
X305431D01*
X305822Y249368D01*
D02*
G37*
G36*
X394159D02*
X394549Y249211D01*
X394862Y248899D01*
X395252Y248586D01*
X395487Y248040D01*
X395565Y247337D01*
Y247181D01*
X395487Y246868D01*
X395330Y246321D01*
X394940Y245853D01*
X385723Y236558D01*
X395174Y223280D01*
X395252Y223202D01*
X395409Y222890D01*
X395487Y222499D01*
X395565Y222031D01*
Y221953D01*
Y221718D01*
X395487Y221406D01*
X395330Y221015D01*
X395018Y220625D01*
X394706Y220312D01*
X394159Y220078D01*
X393456Y220000D01*
X393300D01*
X392831Y220078D01*
X392284Y220390D01*
X391972Y220547D01*
X391738Y220859D01*
X382677Y233512D01*
X378772Y229607D01*
Y222031D01*
Y221953D01*
Y221718D01*
X378694Y221406D01*
X378538Y221015D01*
X378225Y220625D01*
X377913Y220312D01*
X377366Y220078D01*
X376663Y220000D01*
X376351D01*
X375960Y220078D01*
X375648Y220234D01*
X375257Y220469D01*
X374867Y220859D01*
X374633Y221328D01*
X374554Y222031D01*
Y247337D01*
Y247415D01*
Y247649D01*
X374633Y248040D01*
X374789Y248430D01*
X375101Y248743D01*
X375414Y249133D01*
X375960Y249368D01*
X376663Y249446D01*
X376976D01*
X377366Y249368D01*
X377757Y249211D01*
X378069Y248899D01*
X378460Y248586D01*
X378694Y248040D01*
X378772Y247337D01*
Y235621D01*
X391972Y248821D01*
X392050Y248899D01*
X392362Y249133D01*
X392831Y249368D01*
X393456Y249446D01*
X393768D01*
X394159Y249368D01*
D02*
G37*
G36*
X579268D02*
X579658Y249211D01*
X579971Y248899D01*
X580361Y248586D01*
X580595Y248040D01*
X580673Y247337D01*
Y222031D01*
Y221953D01*
Y221718D01*
X580595Y221406D01*
X580439Y221015D01*
X580127Y220625D01*
X579814Y220312D01*
X579268Y220078D01*
X578565Y220000D01*
X578252D01*
X577862Y220078D01*
X577549Y220234D01*
X577159Y220547D01*
X576768Y220859D01*
X576534Y221406D01*
X576456Y222109D01*
Y232653D01*
X563881D01*
Y222109D01*
Y222031D01*
Y221796D01*
X563803Y221406D01*
X563647Y221094D01*
X563334Y220703D01*
X563022Y220312D01*
X562475Y220078D01*
X561772Y220000D01*
X561460D01*
X561069Y220078D01*
X560757Y220234D01*
X560366Y220469D01*
X559976Y220859D01*
X559741Y221328D01*
X559663Y222031D01*
Y247337D01*
Y247415D01*
Y247649D01*
X559741Y248040D01*
X559898Y248430D01*
X560210Y248743D01*
X560522Y249133D01*
X561069Y249368D01*
X561772Y249446D01*
X562085D01*
X562475Y249368D01*
X562866Y249211D01*
X563178Y248899D01*
X563568Y248586D01*
X563803Y248040D01*
X563881Y247337D01*
Y236871D01*
X576456D01*
Y247337D01*
Y247415D01*
Y247649D01*
X576534Y248040D01*
X576690Y248430D01*
X577003Y248743D01*
X577315Y249133D01*
X577862Y249368D01*
X578565Y249446D01*
X578877D01*
X579268Y249368D01*
D02*
G37*
G36*
X335268D02*
X335658Y249211D01*
X335971Y248899D01*
X336361Y248586D01*
X336595Y248040D01*
X336674Y247337D01*
Y222031D01*
Y221953D01*
Y221718D01*
X336595Y221406D01*
X336439Y221015D01*
X336127Y220625D01*
X335814Y220312D01*
X335268Y220078D01*
X334565Y220000D01*
X334252D01*
X333862Y220078D01*
X333549Y220234D01*
X333159Y220547D01*
X332768Y220859D01*
X332534Y221406D01*
X332456Y222109D01*
Y232653D01*
X319881D01*
Y222109D01*
Y222031D01*
Y221796D01*
X319803Y221406D01*
X319647Y221094D01*
X319334Y220703D01*
X319022Y220312D01*
X318475Y220078D01*
X317772Y220000D01*
X317460D01*
X317069Y220078D01*
X316757Y220234D01*
X316366Y220469D01*
X315976Y220859D01*
X315741Y221328D01*
X315663Y222031D01*
Y247337D01*
Y247415D01*
Y247649D01*
X315741Y248040D01*
X315898Y248430D01*
X316210Y248743D01*
X316522Y249133D01*
X317069Y249368D01*
X317772Y249446D01*
X318085D01*
X318475Y249368D01*
X318866Y249211D01*
X319178Y248899D01*
X319569Y248586D01*
X319803Y248040D01*
X319881Y247337D01*
Y236871D01*
X332456D01*
Y247337D01*
Y247415D01*
Y247649D01*
X332534Y248040D01*
X332690Y248430D01*
X333003Y248743D01*
X333315Y249133D01*
X333862Y249368D01*
X334565Y249446D01*
X334877D01*
X335268Y249368D01*
D02*
G37*
G36*
X608713D02*
X609104Y249211D01*
X609416Y248899D01*
X609807Y248586D01*
X610041Y248040D01*
X610119Y247337D01*
Y222031D01*
Y221953D01*
Y221718D01*
X610041Y221406D01*
X609885Y221015D01*
X609572Y220625D01*
X609260Y220312D01*
X608713Y220078D01*
X608010Y220000D01*
X597310D01*
X596919Y220078D01*
X596216Y220156D01*
X595435Y220312D01*
X594498Y220625D01*
X593483Y221015D01*
X592467Y221640D01*
X591530Y222421D01*
X591452Y222499D01*
X591140Y222890D01*
X590749Y223358D01*
X590359Y224062D01*
X589890Y224921D01*
X589499Y225936D01*
X589187Y227108D01*
X589109Y228357D01*
Y247337D01*
Y247415D01*
Y247649D01*
X589187Y248040D01*
X589343Y248430D01*
X589656Y248743D01*
X589968Y249133D01*
X590515Y249368D01*
X591218Y249446D01*
X591530D01*
X591921Y249368D01*
X592311Y249211D01*
X592624Y248899D01*
X593014Y248586D01*
X593248Y248040D01*
X593327Y247337D01*
Y228357D01*
Y228279D01*
Y228045D01*
X593405Y227732D01*
X593483Y227342D01*
X593639Y226873D01*
X593795Y226405D01*
X594108Y225858D01*
X594498Y225389D01*
X594576Y225311D01*
X594732Y225233D01*
X594967Y224999D01*
X595357Y224842D01*
X595748Y224608D01*
X596295Y224374D01*
X596841Y224296D01*
X597466Y224218D01*
X605901D01*
Y247337D01*
Y247415D01*
Y247649D01*
X605980Y248040D01*
X606136Y248430D01*
X606448Y248743D01*
X606761Y249133D01*
X607307Y249368D01*
X608010Y249446D01*
X608323D01*
X608713Y249368D01*
D02*
G37*
G36*
X183822Y262020D02*
X184213Y261864D01*
X184525Y261552D01*
X184916Y261239D01*
X185150Y260693D01*
X185228Y259990D01*
Y222031D01*
Y221953D01*
Y221718D01*
X185150Y221406D01*
X184994Y221015D01*
X184681Y220625D01*
X184369Y220312D01*
X183822Y220078D01*
X183119Y220000D01*
X182807D01*
X182416Y220078D01*
X182104Y220234D01*
X181713Y220469D01*
X181323Y220859D01*
X181088Y221328D01*
X181010Y222031D01*
Y250070D01*
X164218Y224140D01*
Y224062D01*
Y223827D01*
Y223437D01*
Y222968D01*
X164140Y222031D01*
Y221718D01*
X164062Y221406D01*
Y221328D01*
X163983Y221172D01*
X163671Y220703D01*
X163437Y220469D01*
X163046Y220234D01*
X162656Y220078D01*
X162109Y220000D01*
X161796D01*
X161406Y220078D01*
X161094Y220234D01*
X160703Y220469D01*
X160312Y220859D01*
X160078Y221328D01*
X160000Y222031D01*
Y259990D01*
Y260068D01*
Y260302D01*
X160078Y260693D01*
X160234Y261083D01*
X160547Y261396D01*
X160859Y261786D01*
X161406Y262020D01*
X162109Y262099D01*
X162421D01*
X162812Y262020D01*
X163202Y261864D01*
X163515Y261552D01*
X163905Y261239D01*
X164140Y260693D01*
X164218Y259990D01*
Y231872D01*
X181010Y257803D01*
Y257881D01*
Y258193D01*
Y258584D01*
Y258974D01*
X181088Y259912D01*
Y260302D01*
X181166Y260615D01*
Y260693D01*
X181245Y260849D01*
X181557Y261396D01*
X181791Y261630D01*
X182104Y261864D01*
X182572Y262020D01*
X183119Y262099D01*
X183431D01*
X183822Y262020D01*
D02*
G37*
%LPC*%
G36*
X542793Y245228D02*
X534045D01*
X533732Y245150D01*
X533342Y245072D01*
X532873Y244916D01*
X532405Y244681D01*
X531858Y244369D01*
X531389Y243978D01*
X531311Y243900D01*
X531233Y243744D01*
X530999Y243510D01*
X530843Y243119D01*
X530608Y242729D01*
X530374Y242182D01*
X530296Y241635D01*
X530218Y241010D01*
Y228357D01*
Y228279D01*
Y228045D01*
X530296Y227732D01*
X530374Y227342D01*
X530530Y226873D01*
X530686Y226405D01*
X530999Y225858D01*
X531389Y225389D01*
X531467Y225311D01*
X531624Y225233D01*
X531858Y224999D01*
X532248Y224842D01*
X532639Y224608D01*
X533186Y224374D01*
X533732Y224296D01*
X534357Y224218D01*
X538887D01*
X539200Y224296D01*
X539590Y224374D01*
X540059Y224530D01*
X540528Y224686D01*
X541074Y224999D01*
X541543Y225389D01*
X541621Y225467D01*
X541777Y225624D01*
X541934Y225858D01*
X542168Y226248D01*
X542402Y226639D01*
X542636Y227186D01*
X542715Y227732D01*
X542793Y228357D01*
Y245228D01*
D02*
G37*
G36*
X635347D02*
X626599D01*
X626287Y245150D01*
X625896Y245072D01*
X625428Y244916D01*
X624959Y244681D01*
X624412Y244369D01*
X623944Y243978D01*
X623866Y243900D01*
X623787Y243744D01*
X623553Y243510D01*
X623397Y243119D01*
X623163Y242729D01*
X622928Y242182D01*
X622850Y241635D01*
X622772Y241010D01*
Y240932D01*
Y240698D01*
X622850Y240385D01*
X622928Y239995D01*
X623085Y239526D01*
X623241Y239058D01*
X623553Y238511D01*
X623944Y238042D01*
X624022Y237964D01*
X624178Y237886D01*
X624412Y237652D01*
X624803Y237495D01*
X625193Y237261D01*
X625740Y237027D01*
X626287Y236949D01*
X626912Y236871D01*
X635347D01*
Y245228D01*
D02*
G37*
G36*
X267238D02*
X266848D01*
X266301Y245150D01*
X265754Y244994D01*
X265051Y244759D01*
X264270Y244447D01*
X263489Y243978D01*
X262786Y243353D01*
X262708Y243275D01*
X262474Y243041D01*
X262239Y242651D01*
X261927Y242104D01*
X261537Y241479D01*
X261302Y240698D01*
X261068Y239839D01*
X260990Y238901D01*
Y230466D01*
Y230388D01*
Y229998D01*
X261068Y229529D01*
X261224Y228904D01*
X261458Y228201D01*
X261771Y227498D01*
X262161Y226717D01*
X262786Y226014D01*
X262864Y225936D01*
X263099Y225702D01*
X263489Y225467D01*
X264036Y225155D01*
X264661Y224764D01*
X265442Y224530D01*
X266301Y224296D01*
X267238Y224218D01*
X267707D01*
X268175Y224296D01*
X268800Y224452D01*
X269425Y224686D01*
X270206Y224999D01*
X270987Y225389D01*
X271690Y226014D01*
X271768Y226092D01*
X272003Y226327D01*
X272315Y226717D01*
X272627Y227264D01*
X272940Y227889D01*
X273252Y228670D01*
X273487Y229529D01*
X273565Y230466D01*
Y238901D01*
Y238979D01*
Y239370D01*
X273487Y239839D01*
X273330Y240464D01*
X273096Y241088D01*
X272784Y241869D01*
X272315Y242651D01*
X271690Y243353D01*
X271612Y243431D01*
X271378Y243666D01*
X270987Y243978D01*
X270441Y244291D01*
X269816Y244603D01*
X269035Y244916D01*
X268175Y245150D01*
X267238Y245228D01*
D02*
G37*
%LPD*%
D21*
X374000Y89000D02*
G03*
X374000Y90000I0J500D01*
G01*
D02*
G03*
X374000Y89000I0J-500D01*
G01*
X392250Y173500D02*
X395750Y176000D01*
X392250Y173500D02*
Y176000D01*
X395750Y173750D02*
Y176000D01*
Y178250D01*
X392250Y176000D02*
Y178500D01*
X395750Y176000D01*
X434000Y69000D02*
Y82400D01*
X426000Y82400D02*
X434000Y82400D01*
X354000Y69000D02*
Y82400D01*
X362000Y82400D01*
X434000Y25000D02*
Y37000D01*
X354000Y25000D02*
X434000D01*
X354000D02*
Y37000D01*
D22*
X394000Y179500D02*
Y183000D01*
Y169000D02*
Y172500D01*
X407970Y178540D02*
X409240D01*
Y183000D01*
X407970D02*
X409240D01*
X407970Y173460D02*
X409240D01*
Y169000D02*
Y173460D01*
X407970Y169000D02*
X409240D01*
X378760Y181080D02*
Y183000D01*
X409000D01*
X407970Y178540D02*
Y183000D01*
Y169000D02*
Y173460D01*
X378760Y169000D02*
X409000D01*
X378760D02*
Y170920D01*
D23*
X381750Y108750D02*
Y135250D01*
X394250Y108750D02*
Y135250D01*
X381750Y108750D02*
X394250D01*
X381750Y135250D02*
X394250D01*
X408250Y108750D02*
Y135250D01*
X395750Y108750D02*
Y135250D01*
X408250D01*
X395750Y108750D02*
X408250D01*
X380750Y151750D02*
X407250D01*
X380750Y164250D02*
X407250D01*
Y151750D02*
Y164250D01*
X380750Y151750D02*
Y164250D01*
M02*
