G04 Layer_Physical_Order=1*
G04 Layer_Color=255*
%FSLAX44Y44*%
%MOMM*%
G71*
G01*
G75*
%ADD10C,1.0000*%
%ADD11R,0.8500X0.8500*%
%ADD12R,1.0000X1.6000*%
%ADD13C,0.6000*%
%ADD14R,1.2500X1.0000*%
%ADD15R,0.8500X0.8500*%
G04:AMPARAMS|DCode=16|XSize=1.3mm|YSize=1mm|CornerRadius=0.25mm|HoleSize=0mm|Usage=FLASHONLY|Rotation=45.000|XOffset=0mm|YOffset=0mm|HoleType=Round|Shape=RoundedRectangle|*
%AMROUNDEDRECTD16*
21,1,1.3000,0.5000,0,0,45.0*
21,1,0.8000,1.0000,0,0,45.0*
1,1,0.5000,0.4596,0.1061*
1,1,0.5000,-0.1061,-0.4596*
1,1,0.5000,-0.4596,-0.1061*
1,1,0.5000,0.1061,0.4596*
%
%ADD16ROUNDEDRECTD16*%
%ADD17C,0.5000*%
%ADD18C,0.3000*%
G04:AMPARAMS|DCode=19|XSize=1.3mm|YSize=1mm|CornerRadius=0.25mm|HoleSize=0mm|Usage=FLASHONLY|Rotation=270.000|XOffset=0mm|YOffset=0mm|HoleType=Round|Shape=RoundedRectangle|*
%AMROUNDEDRECTD19*
21,1,1.3000,0.5000,0,0,270.0*
21,1,0.8000,1.0000,0,0,270.0*
1,1,0.5000,-0.2500,-0.4000*
1,1,0.5000,-0.2500,0.4000*
1,1,0.5000,0.2500,0.4000*
1,1,0.5000,0.2500,-0.4000*
%
%ADD19ROUNDEDRECTD19*%
%ADD20R,1.0000X1.2500*%
%ADD21R,0.6000X1.1000*%
%ADD22R,1.1000X0.6000*%
%ADD23C,0.4000*%
G04:AMPARAMS|DCode=24|XSize=1.3mm|YSize=1mm|CornerRadius=0.25mm|HoleSize=0mm|Usage=FLASHONLY|Rotation=180.000|XOffset=0mm|YOffset=0mm|HoleType=Round|Shape=RoundedRectangle|*
%AMROUNDEDRECTD24*
21,1,1.3000,0.5000,0,0,180.0*
21,1,0.8000,1.0000,0,0,180.0*
1,1,0.5000,-0.4000,0.2500*
1,1,0.5000,0.4000,0.2500*
1,1,0.5000,0.4000,-0.2500*
1,1,0.5000,-0.4000,-0.2500*
%
%ADD24ROUNDEDRECTD24*%
%ADD25C,0.7000*%
%ADD26R,0.4000X1.6000*%
%ADD27R,0.8000X0.8000*%
%ADD28C,1.5240*%
%ADD29C,1.8000*%
%ADD30R,2.0000X2.0000*%
%ADD31C,2.0000*%
%ADD32C,4.0000*%
%ADD33C,6.0000*%
%ADD34C,0.7000*%
%ADD35P,1.9483X8X202.5*%
%ADD36C,1.2000*%
%ADD37C,2.6400*%
G36*
X901146Y1077355D02*
X901146Y976277D01*
X901146Y976102D01*
X901132Y974863D01*
X901030Y974137D01*
X901126Y974802D01*
X900962Y973655D01*
X900921Y973448D01*
X900226Y972409D01*
X899187Y971715D01*
X898871Y971652D01*
X898871Y971652D01*
X898483Y971470D01*
X874007Y961039D01*
X871396Y960695D01*
X868046Y959308D01*
X865170Y957101D01*
X863868Y955405D01*
X862598Y955836D01*
Y1012219D01*
X864813Y1014434D01*
X873783D01*
X874072Y1013738D01*
X876075Y1011127D01*
X878686Y1009123D01*
X881413Y1007993D01*
X881414Y1007992D01*
Y1006692D01*
X881413Y1006690D01*
X878686Y1005560D01*
X876075Y1003557D01*
X874072Y1000946D01*
X872812Y997905D01*
X872383Y994642D01*
X872812Y991378D01*
X874072Y988338D01*
X876075Y985727D01*
X878686Y983723D01*
X881727Y982463D01*
X884990Y982034D01*
X888253Y982463D01*
X891294Y983723D01*
X893905Y985727D01*
X895909Y988338D01*
X897169Y991378D01*
X897598Y994642D01*
X897169Y997905D01*
X895909Y1000946D01*
X893905Y1003557D01*
X891294Y1005560D01*
X888568Y1006690D01*
X888567Y1006692D01*
Y1007992D01*
X888568Y1007993D01*
X891294Y1009123D01*
X893905Y1011127D01*
X895909Y1013738D01*
X897169Y1016778D01*
X897598Y1020042D01*
X897169Y1023305D01*
X895909Y1026346D01*
X893905Y1028957D01*
X891294Y1030960D01*
X889695Y1031623D01*
X889948Y1032893D01*
X894990D01*
X895966Y1033087D01*
X896793Y1033639D01*
X897345Y1034466D01*
X897539Y1035442D01*
Y1055442D01*
X897345Y1056417D01*
X896793Y1057244D01*
X895966Y1057797D01*
X894990Y1057991D01*
X874990D01*
X874015Y1057797D01*
X873188Y1057244D01*
X872635Y1056417D01*
X872441Y1055442D01*
Y1035442D01*
X872635Y1034466D01*
X873188Y1033639D01*
X874015Y1033087D01*
X874990Y1032893D01*
X880033D01*
X880285Y1031623D01*
X878686Y1030960D01*
X876075Y1028957D01*
X874072Y1026346D01*
X873783Y1025649D01*
X862490D01*
X860344Y1025222D01*
X858525Y1024007D01*
X853025Y1018507D01*
X851809Y1016688D01*
X851383Y1014542D01*
Y706391D01*
X850938Y706094D01*
X850804Y705893D01*
X849518Y705814D01*
X848598Y706722D01*
Y782042D01*
X848171Y784188D01*
X846956Y786007D01*
X830598Y802365D01*
Y807635D01*
X830642Y807701D01*
X831108Y810042D01*
X830642Y812383D01*
X830598Y812449D01*
Y842493D01*
X831240D01*
X832216Y842687D01*
X833043Y843239D01*
X833595Y844066D01*
X833789Y845042D01*
Y855042D01*
X833595Y856017D01*
X833043Y856844D01*
X832216Y857397D01*
X831240Y857591D01*
X818740D01*
X817765Y857397D01*
X816938Y856844D01*
X816385Y856017D01*
X816191Y855042D01*
Y845042D01*
X816385Y844066D01*
X816938Y843239D01*
X817765Y842687D01*
X818740Y842493D01*
X819383D01*
Y812449D01*
X819339Y812383D01*
X818873Y810042D01*
X819339Y807701D01*
X819383Y807635D01*
Y800042D01*
X819809Y797896D01*
X821025Y796076D01*
X837383Y779719D01*
Y706391D01*
X836938Y706094D01*
X836385Y705267D01*
X836191Y704292D01*
Y695792D01*
X836385Y694816D01*
X836938Y693989D01*
X837765Y693437D01*
X838740Y693243D01*
X847240D01*
X848216Y693437D01*
X849043Y693989D01*
X849282Y694348D01*
X850698D01*
X850938Y693989D01*
X851765Y693437D01*
X852740Y693243D01*
X861240D01*
X862216Y693437D01*
X863043Y693989D01*
X863340Y694434D01*
X873783D01*
X874072Y693738D01*
X876075Y691126D01*
X878686Y689123D01*
X881413Y687993D01*
X881414Y687992D01*
Y686692D01*
X881413Y686690D01*
X878686Y685560D01*
X876075Y683557D01*
X874072Y680946D01*
X872812Y677905D01*
X872383Y674642D01*
X872812Y671378D01*
X874072Y668338D01*
X876075Y665726D01*
X878686Y663723D01*
X881727Y662463D01*
X884990Y662034D01*
X888253Y662463D01*
X891294Y663723D01*
X893905Y665726D01*
X895909Y668338D01*
X897169Y671378D01*
X897598Y674642D01*
X897169Y677905D01*
X895909Y680946D01*
X893905Y683557D01*
X891294Y685560D01*
X888568Y686690D01*
X888567Y686692D01*
Y687992D01*
X888568Y687993D01*
X891294Y689123D01*
X893905Y691126D01*
X895909Y693738D01*
X897169Y696778D01*
X897598Y700042D01*
X897169Y703305D01*
X895909Y706346D01*
X893905Y708957D01*
X891294Y710960D01*
X889695Y711623D01*
X889948Y712893D01*
X894990D01*
X895966Y713087D01*
X896793Y713639D01*
X897345Y714466D01*
X897539Y715442D01*
Y735442D01*
X897345Y736417D01*
X896793Y737244D01*
X895966Y737797D01*
X894990Y737991D01*
X874990D01*
X874015Y737797D01*
X873188Y737244D01*
X872635Y736417D01*
X872441Y735442D01*
Y715442D01*
X872635Y714466D01*
X873188Y713639D01*
X874015Y713087D01*
X874990Y712893D01*
X880033D01*
X880285Y711623D01*
X878686Y710960D01*
X876075Y708957D01*
X874072Y706346D01*
X873783Y705649D01*
X863340D01*
X863043Y706094D01*
X862598Y706391D01*
Y763464D01*
X863868Y763895D01*
X865170Y762199D01*
X868046Y759992D01*
X871396Y758604D01*
X874146Y758242D01*
X897428Y749029D01*
X897743Y748905D01*
X898862Y748435D01*
X899015Y748355D01*
X898875Y748429D01*
X899898Y747889D01*
X899015Y748355D01*
X899975Y747842D01*
X900226Y747674D01*
X900921Y746635D01*
X900962Y746428D01*
X901126Y745282D01*
X901030Y745946D01*
X900962Y746428D01*
X900954Y746468D01*
X901030Y745946D01*
X901132Y745220D01*
X901146Y743981D01*
X901146Y743806D01*
X901146Y642728D01*
X900055Y642078D01*
X787294Y703165D01*
X786821Y703421D01*
X786469Y703587D01*
X786461Y703593D01*
X786213Y703709D01*
X785155Y704280D01*
X784600Y704651D01*
X783834Y705798D01*
Y1014285D01*
X784600Y1015432D01*
X785926Y1016318D01*
X786213Y1016375D01*
X786213Y1016375D01*
X786455Y1016489D01*
X786461Y1016490D01*
X786470Y1016496D01*
X786821Y1016662D01*
X900055Y1078005D01*
X901146Y1077355D01*
D02*
G37*
G36*
X409431Y998768D02*
X418771Y997383D01*
X427931Y995089D01*
X436821Y991907D01*
X445357Y987870D01*
X453456Y983016D01*
X461041Y977391D01*
X468037Y971050D01*
X474378Y964053D01*
X480003Y956469D01*
X483239Y951071D01*
X483274Y951091D01*
X733274Y518078D01*
X733239Y518058D01*
X734857Y515357D01*
X738895Y506821D01*
X742076Y497931D01*
X744370Y488771D01*
X745756Y479431D01*
X746219Y470000D01*
X745756Y460569D01*
X744370Y451229D01*
X742076Y442069D01*
X738895Y433179D01*
X734857Y424643D01*
X730003Y416544D01*
X724378Y408959D01*
X718037Y401963D01*
X711041Y395622D01*
X703456Y389997D01*
X695357Y385143D01*
X686821Y381105D01*
X677931Y377924D01*
X668771Y375630D01*
X659431Y374244D01*
X650253Y373793D01*
X650000Y373844D01*
X150000D01*
X149747Y373793D01*
X140569Y374244D01*
X131229Y375630D01*
X122069Y377924D01*
X113179Y381105D01*
X104643Y385143D01*
X96544Y389997D01*
X88959Y395622D01*
X81963Y401963D01*
X75622Y408959D01*
X69997Y416544D01*
X65142Y424643D01*
X61105Y433179D01*
X57924Y442069D01*
X55630Y451229D01*
X54244Y460569D01*
X53781Y470000D01*
X54244Y479431D01*
X55630Y488771D01*
X57924Y497931D01*
X61105Y506821D01*
X65142Y515357D01*
X66761Y518058D01*
X66726Y518078D01*
X316726Y951091D01*
X316761Y951071D01*
X319997Y956469D01*
X325622Y964053D01*
X331963Y971050D01*
X338959Y977391D01*
X346544Y983016D01*
X354643Y987870D01*
X363179Y991907D01*
X372069Y995089D01*
X381229Y997383D01*
X390569Y998768D01*
X400000Y999232D01*
X409431Y998768D01*
D02*
G37*
G36*
X865000Y900131D02*
X867876Y897924D01*
X871226Y896537D01*
X874821Y896064D01*
Y896091D01*
X874822Y896093D01*
X1356633Y896306D01*
X1357962Y893097D01*
X1360170Y890221D01*
X1363046Y888014D01*
X1366396Y886626D01*
X1369990Y886153D01*
Y886153D01*
X1371231Y886224D01*
X1374305Y886290D01*
X1375226Y885674D01*
X1375921Y884635D01*
X1375962Y884428D01*
X1376126Y883282D01*
X1376030Y883946D01*
X1375962Y884428D01*
X1375954Y884468D01*
X1376030Y883946D01*
X1376132Y883220D01*
X1376147Y881981D01*
X1376147Y881806D01*
Y838277D01*
X1376147Y838102D01*
X1376132Y836863D01*
X1376030Y836137D01*
X1376126Y836802D01*
X1375962Y835655D01*
X1375921Y835448D01*
X1375226Y834409D01*
X1374294Y833786D01*
X1369218Y833840D01*
X1368990Y833885D01*
Y833931D01*
X1365396Y833457D01*
X1362046Y832070D01*
X1359169Y829863D01*
X1356962Y826986D01*
X1355633Y823778D01*
X874992Y823991D01*
X874990Y824036D01*
X871396Y823562D01*
X868046Y822175D01*
X865170Y819968D01*
X863868Y818272D01*
X862598Y818703D01*
Y841734D01*
X1226866D01*
X1226945Y841542D01*
X1228789Y839140D01*
X1231191Y837296D01*
X1233988Y836138D01*
X1236990Y835742D01*
X1239993Y836138D01*
X1242790Y837296D01*
X1245192Y839140D01*
X1247036Y841542D01*
X1248194Y844340D01*
X1248590Y847342D01*
X1248194Y850344D01*
X1247036Y853141D01*
X1245192Y855544D01*
X1242790Y857387D01*
X1239993Y858546D01*
X1236990Y858941D01*
X1233988Y858546D01*
X1231191Y857387D01*
X1228789Y855544D01*
X1226945Y853141D01*
X1226866Y852949D01*
X862598D01*
Y901175D01*
X863868Y901606D01*
X865000Y900131D01*
D02*
G37*
G36*
X1331492Y749161D02*
X1331192Y747919D01*
X1330860Y747963D01*
X1312849D01*
Y750358D01*
X1312652Y751349D01*
X1312091Y752189D01*
X1311251Y752751D01*
X1310260Y752948D01*
X1290260D01*
X1289268Y752751D01*
X1288428Y752189D01*
X1287867Y751349D01*
X1287670Y750358D01*
Y747963D01*
X1275230D01*
X1274203Y749302D01*
X1271584Y751312D01*
X1268533Y752576D01*
X1265260Y753007D01*
X1261986Y752576D01*
X1258935Y751312D01*
X1256316Y749302D01*
X1254306Y746682D01*
X1253042Y743632D01*
X1252611Y740358D01*
X1253042Y737085D01*
X1254306Y734034D01*
X1256316Y731415D01*
X1258935Y729405D01*
X1261492Y728346D01*
Y726971D01*
X1258935Y725912D01*
X1256316Y723902D01*
X1254306Y721282D01*
X1253042Y718232D01*
X1252611Y714958D01*
X1253042Y711685D01*
X1254306Y708634D01*
X1256316Y706015D01*
X1258935Y704005D01*
X1260352Y703418D01*
X1260099Y702148D01*
X1255260D01*
X1254268Y701951D01*
X1253428Y701389D01*
X1252867Y700549D01*
X1252670Y699558D01*
Y679558D01*
X1252867Y678567D01*
X1253428Y677727D01*
X1254268Y677166D01*
X1255260Y676969D01*
X1275260D01*
X1276251Y677166D01*
X1277091Y677727D01*
X1277652Y678567D01*
X1277849Y679558D01*
Y681953D01*
X1290289D01*
X1291316Y680615D01*
X1293936Y678605D01*
X1296986Y677341D01*
X1300260Y676910D01*
X1303533Y677341D01*
X1306584Y678605D01*
X1309203Y680615D01*
X1311213Y683234D01*
X1312477Y686285D01*
X1312908Y689558D01*
X1312477Y692832D01*
X1311213Y695882D01*
X1309203Y698502D01*
X1306584Y700512D01*
X1304027Y701571D01*
Y702946D01*
X1306584Y704005D01*
X1309203Y706015D01*
X1310230Y707353D01*
X1321109D01*
X1330654Y697808D01*
Y422108D01*
X1321109Y412563D01*
X1310230D01*
X1309203Y413902D01*
X1306584Y415912D01*
X1304027Y416971D01*
Y418346D01*
X1306584Y419405D01*
X1309203Y421415D01*
X1311213Y424034D01*
X1312477Y427085D01*
X1312908Y430358D01*
X1312477Y433632D01*
X1311213Y436682D01*
X1309203Y439302D01*
X1306584Y441312D01*
X1303533Y442575D01*
X1300260Y443007D01*
X1296986Y442575D01*
X1293936Y441312D01*
X1291316Y439302D01*
X1290289Y437963D01*
X1277849D01*
Y440358D01*
X1277652Y441349D01*
X1277091Y442189D01*
X1276251Y442751D01*
X1275260Y442948D01*
X1255260D01*
X1254268Y442751D01*
X1253428Y442189D01*
X1252867Y441349D01*
X1252670Y440358D01*
Y420358D01*
X1252867Y419367D01*
X1253428Y418527D01*
X1254268Y417966D01*
X1255260Y417769D01*
X1260099D01*
X1260352Y416498D01*
X1258935Y415912D01*
X1256316Y413902D01*
X1254306Y411282D01*
X1253042Y408232D01*
X1252611Y404958D01*
X1253042Y401685D01*
X1254306Y398634D01*
X1256316Y396015D01*
X1258935Y394005D01*
X1261492Y392946D01*
Y391571D01*
X1258935Y390512D01*
X1256316Y388502D01*
X1254306Y385882D01*
X1253042Y382832D01*
X1252611Y379558D01*
X1253042Y376285D01*
X1254306Y373234D01*
X1256316Y370615D01*
X1258935Y368605D01*
X1261986Y367341D01*
X1265260Y366910D01*
X1268533Y367341D01*
X1271584Y368605D01*
X1274203Y370615D01*
X1275230Y371953D01*
X1287670D01*
Y369558D01*
X1287867Y368567D01*
X1288428Y367727D01*
X1289268Y367166D01*
X1290260Y366968D01*
X1310260D01*
X1311251Y367166D01*
X1312091Y367727D01*
X1312652Y368567D01*
X1312849Y369558D01*
Y371953D01*
X1330860D01*
X1331192Y371997D01*
X1331492Y370756D01*
X1250182Y341755D01*
X1249144Y342487D01*
X1249144Y443722D01*
X1249144Y443900D01*
X1249159Y445138D01*
X1249265Y445893D01*
X1249337Y446385D01*
X1249329Y446347D01*
X1249265Y445893D01*
X1249165Y445202D01*
X1249329Y446347D01*
X1249367Y446536D01*
X1250052Y447562D01*
X1251078Y448247D01*
X1251390Y448310D01*
X1251390Y448310D01*
X1251783Y448492D01*
X1276256Y458922D01*
X1278865Y459266D01*
X1282224Y460657D01*
X1285109Y462871D01*
X1287323Y465755D01*
X1288714Y469115D01*
X1289189Y472720D01*
X1289189D01*
X1289146Y472763D01*
X1289228Y509614D01*
X1289314Y510048D01*
X1289358D01*
X1288884Y513653D01*
X1287492Y517012D01*
X1285279Y519897D01*
X1282394Y522111D01*
X1279034Y523502D01*
X1275429Y523977D01*
Y523950D01*
X1275427Y523948D01*
X793643Y523735D01*
X792323Y526923D01*
X790109Y529808D01*
X787224Y532021D01*
X783865Y533413D01*
X780260Y533887D01*
Y533887D01*
X779019Y533817D01*
X775955Y533751D01*
X775052Y534355D01*
X774367Y535380D01*
X774329Y535570D01*
X774165Y536715D01*
X774265Y536024D01*
X774159Y536779D01*
X774144Y538017D01*
X774144Y538195D01*
Y581722D01*
X774144Y581900D01*
X774159Y583138D01*
X774265Y583893D01*
X774337Y584385D01*
X774329Y584347D01*
X774265Y583893D01*
X774165Y583202D01*
X774329Y584347D01*
X774367Y584536D01*
X775052Y585562D01*
X775955Y586165D01*
X779019Y586099D01*
X780260Y586029D01*
Y586029D01*
X783865Y586504D01*
X787224Y587895D01*
X790109Y590109D01*
X792323Y592994D01*
X793643Y596182D01*
X1275258Y595969D01*
X1275260Y595924D01*
X1278865Y596399D01*
X1282224Y597790D01*
X1285109Y600004D01*
X1287323Y602889D01*
X1288714Y606248D01*
X1289112Y609267D01*
X1289229Y609862D01*
X1289144Y647936D01*
X1289189Y647980D01*
X1289189D01*
X1288714Y651586D01*
X1287323Y654945D01*
X1285109Y657830D01*
X1282224Y660043D01*
X1278865Y661435D01*
X1276117Y661797D01*
X1252838Y671008D01*
X1252519Y671134D01*
X1251401Y671603D01*
X1251221Y671698D01*
X1250289Y672197D01*
X1250052Y672355D01*
X1249367Y673380D01*
X1249329Y673570D01*
X1249165Y674715D01*
X1249265Y674024D01*
X1249159Y674779D01*
X1249144Y676016D01*
X1249144Y676195D01*
X1249144Y777430D01*
X1250182Y778161D01*
X1331492Y749161D01*
D02*
G37*
G36*
X1287670Y730358D02*
X1287867Y729367D01*
X1288428Y728527D01*
X1289268Y727966D01*
X1290260Y727768D01*
X1295099D01*
X1295352Y726498D01*
X1293936Y725912D01*
X1291316Y723902D01*
X1290289Y722563D01*
X1275230D01*
X1274203Y723902D01*
X1271584Y725912D01*
X1269027Y726971D01*
Y728346D01*
X1271584Y729405D01*
X1274203Y731415D01*
X1275230Y732753D01*
X1287670D01*
Y730358D01*
D02*
G37*
G36*
X1358955Y739366D02*
X1359610Y739269D01*
X1359756Y739240D01*
X1359741Y739122D01*
X1360736Y738991D01*
X1362608Y738216D01*
X1364216Y736982D01*
X1365450Y735374D01*
X1366226Y733501D01*
X1366461Y731719D01*
X1366357Y730477D01*
X1366357Y730476D01*
X1366375Y729268D01*
Y717257D01*
X1365202Y716771D01*
X1336237Y745736D01*
X1335301Y746454D01*
X1335916Y747583D01*
X1358955Y739366D01*
D02*
G37*
G36*
X1291316Y706015D02*
X1293936Y704005D01*
X1296492Y702946D01*
Y701571D01*
X1293936Y700512D01*
X1291316Y698502D01*
X1290289Y697163D01*
X1277849D01*
Y699558D01*
X1277652Y700549D01*
X1277091Y701389D01*
X1276251Y701951D01*
X1275260Y702148D01*
X1270420D01*
X1270168Y703418D01*
X1271584Y704005D01*
X1274203Y706015D01*
X1275230Y707353D01*
X1290289D01*
X1291316Y706015D01*
D02*
G37*
G36*
X1370626Y618658D02*
X1373692Y616306D01*
X1377262Y614827D01*
X1379390Y614547D01*
X1379621Y614460D01*
X1418758Y607937D01*
X1419958Y607710D01*
Y607710D01*
X1419958Y607710D01*
X1421235Y607542D01*
X1422920Y606843D01*
X1424368Y605733D01*
X1425478Y604286D01*
X1426176Y602600D01*
X1426323Y601487D01*
X1426344Y600260D01*
X1426344Y600259D01*
X1426375Y599035D01*
X1426375Y598733D01*
X1426375Y521183D01*
X1426375Y520882D01*
X1426344Y519658D01*
X1426344Y519657D01*
X1426323Y518430D01*
X1426176Y517316D01*
X1425478Y515631D01*
X1424368Y514184D01*
X1422920Y513073D01*
X1421235Y512375D01*
X1419958Y512207D01*
X1419958Y512207D01*
Y512207D01*
X1418758Y511980D01*
X1379621Y505457D01*
X1379390Y505369D01*
X1377262Y505089D01*
X1373692Y503610D01*
X1370626Y501258D01*
X1370056Y500514D01*
X1368853Y500922D01*
Y618994D01*
X1370056Y619402D01*
X1370626Y618658D01*
D02*
G37*
G36*
X1028447Y495833D02*
X1029717Y495580D01*
X1031561Y494348D01*
X1032794Y492503D01*
X1033156Y490680D01*
Y455827D01*
X1033146Y455815D01*
X1033137Y455815D01*
X1033542Y449642D01*
X1034779Y443421D01*
X1036363Y438755D01*
X1036391Y438615D01*
X1036391Y438615D01*
X1036411Y438513D01*
X1036560Y438290D01*
X1036642Y438133D01*
X1036960Y437538D01*
X1038402Y434841D01*
X1046411Y421962D01*
X1055245Y409634D01*
X1064866Y397910D01*
X1075234Y386840D01*
X1086303Y376473D01*
X1098027Y366851D01*
X1107355Y360167D01*
X1107374Y360193D01*
X1108054Y359739D01*
X1108191Y359711D01*
X1109043Y359291D01*
X1114545Y357424D01*
X1120243Y356290D01*
X1126041Y355910D01*
X1126917Y355967D01*
X1127041Y355943D01*
X1158496D01*
X1159541Y355943D01*
X1159745Y355954D01*
X1160947Y355833D01*
X1162216Y355580D01*
X1164061Y354348D01*
X1165294Y352503D01*
X1165656Y350680D01*
Y230827D01*
X1165689Y230660D01*
X1165252Y228462D01*
X1163912Y226456D01*
X1161907Y225116D01*
X1159708Y224679D01*
X1159541Y224712D01*
X1127204D01*
X1126041Y224712D01*
X1125945Y224710D01*
X1124681Y224667D01*
X1119302Y225091D01*
X1113703Y226435D01*
X1111286Y227436D01*
X1110123Y227930D01*
Y227930D01*
X1110123Y227930D01*
X1100153Y232349D01*
X1083074Y240946D01*
X1073590Y246319D01*
X1073925Y247589D01*
X1119179D01*
X1119461Y246908D01*
X1121310Y244497D01*
X1123721Y242647D01*
X1126528Y241485D01*
X1129541Y241088D01*
X1132553Y241485D01*
X1135361Y242647D01*
X1137771Y244497D01*
X1139621Y246908D01*
X1140784Y249715D01*
X1141180Y252727D01*
X1140784Y255740D01*
X1139621Y258547D01*
X1137771Y260958D01*
X1135361Y262808D01*
X1132553Y263970D01*
X1129541Y264367D01*
X1127425Y264088D01*
X1125632Y265881D01*
X1126351Y266958D01*
X1126528Y266884D01*
X1129541Y266488D01*
X1132553Y266884D01*
X1135361Y268047D01*
X1137771Y269897D01*
X1139621Y272308D01*
X1140784Y275115D01*
X1141180Y278127D01*
X1140784Y281140D01*
X1139621Y283947D01*
X1137771Y286358D01*
X1135361Y288208D01*
X1132553Y289370D01*
X1129541Y289767D01*
X1126528Y289370D01*
X1125847Y289088D01*
X1121005Y293931D01*
X1121844Y294888D01*
X1123721Y293447D01*
X1126528Y292285D01*
X1129541Y291888D01*
X1132553Y292285D01*
X1135361Y293447D01*
X1137771Y295297D01*
X1139621Y297708D01*
X1140784Y300515D01*
X1141180Y303527D01*
X1140784Y306540D01*
X1139621Y309347D01*
X1137771Y311758D01*
X1135361Y313608D01*
X1132553Y314770D01*
X1129541Y315167D01*
X1126528Y314770D01*
X1125847Y314488D01*
X1121005Y319331D01*
X1121844Y320288D01*
X1123721Y318847D01*
X1126528Y317684D01*
X1129541Y317288D01*
X1132553Y317684D01*
X1135361Y318847D01*
X1137771Y320697D01*
X1139621Y323108D01*
X1140784Y325915D01*
X1141180Y328927D01*
X1140784Y331940D01*
X1139621Y334747D01*
X1137771Y337158D01*
X1135361Y339008D01*
X1132553Y340170D01*
X1129541Y340567D01*
X1126528Y340170D01*
X1123721Y339008D01*
X1121310Y337158D01*
X1119461Y334747D01*
X1118298Y331940D01*
X1117901Y328927D01*
X1118298Y325915D01*
X1119461Y323108D01*
X1120901Y321231D01*
X1119944Y320391D01*
X1068624Y371711D01*
X1066957Y372825D01*
X1064991Y373216D01*
X1056589D01*
X1055925Y374211D01*
X1054257Y375325D01*
X1052291Y375716D01*
X1044291D01*
X1042324Y375325D01*
X1040657Y374211D01*
X1039543Y372544D01*
X1039152Y370577D01*
Y365577D01*
X1039543Y363611D01*
X1040657Y361944D01*
X1042278Y360861D01*
X1042324Y360561D01*
Y359844D01*
X1042278Y359544D01*
X1040657Y358461D01*
X1039993Y357466D01*
X1031541D01*
X1029574Y357075D01*
X1027907Y355961D01*
X1018157Y346211D01*
X1017043Y344544D01*
X1016652Y342577D01*
Y321966D01*
X1004919D01*
X999120Y327765D01*
X999606Y328939D01*
X1005291D01*
X1007257Y329330D01*
X1008924Y330444D01*
X1010038Y332111D01*
X1010430Y334077D01*
Y339077D01*
X1010038Y341044D01*
X1008924Y342711D01*
X1007303Y343794D01*
X1007257Y344094D01*
Y344811D01*
X1007303Y345111D01*
X1008924Y346194D01*
X1010038Y347861D01*
X1010430Y349827D01*
Y354827D01*
X1010038Y356794D01*
X1008924Y358461D01*
X1007303Y359544D01*
X1007257Y359844D01*
Y360561D01*
X1007303Y360861D01*
X1008924Y361944D01*
X1010038Y363611D01*
X1010430Y365577D01*
Y370577D01*
X1010038Y372544D01*
X1008924Y374211D01*
X1007257Y375325D01*
X1006430Y375490D01*
Y380164D01*
X1006532Y380185D01*
X1007372Y380746D01*
X1007562Y381031D01*
X1009019D01*
X1009210Y380746D01*
X1010050Y380185D01*
X1011041Y379988D01*
X1019541D01*
X1020532Y380185D01*
X1021372Y380746D01*
X1021934Y381586D01*
X1022131Y382577D01*
Y391077D01*
X1021934Y392068D01*
X1021372Y392909D01*
X1020532Y393470D01*
X1020430Y393490D01*
Y416327D01*
X1020038Y418294D01*
X1018924Y419961D01*
X1010080Y428806D01*
Y449365D01*
X1010432Y449435D01*
X1011272Y449996D01*
X1015772Y454496D01*
X1016333Y455336D01*
X1016531Y456327D01*
Y465327D01*
X1016333Y466319D01*
X1015772Y467159D01*
X1011272Y471659D01*
X1010432Y472220D01*
X1009441Y472417D01*
X1000441D01*
X999450Y472220D01*
X998610Y471659D01*
X994110Y467159D01*
X993548Y466319D01*
X993351Y465327D01*
Y456327D01*
X993548Y455336D01*
X994110Y454496D01*
X998610Y449996D01*
X999450Y449435D01*
X999802Y449365D01*
Y426677D01*
X1000193Y424711D01*
X1001307Y423044D01*
X1010152Y414199D01*
Y393490D01*
X1010050Y393470D01*
X1009210Y392909D01*
X1009019Y392624D01*
X1007562D01*
X1007372Y392909D01*
X1006532Y393470D01*
X1005541Y393667D01*
X997041D01*
X996050Y393470D01*
X995210Y392909D01*
X994648Y392068D01*
X994451Y391077D01*
Y382577D01*
X994648Y381586D01*
X995210Y380746D01*
X996050Y380185D01*
X996152Y380164D01*
Y375490D01*
X995324Y375325D01*
X993657Y374211D01*
X992543Y372544D01*
X992152Y370577D01*
Y365577D01*
X992543Y363611D01*
X993657Y361944D01*
X995278Y360861D01*
X995324Y360561D01*
Y359844D01*
X995278Y359544D01*
X993657Y358461D01*
X992543Y356794D01*
X992152Y354827D01*
Y349827D01*
X992543Y347861D01*
X993657Y346194D01*
X995278Y345111D01*
X995324Y344811D01*
Y344094D01*
X995278Y343794D01*
X993657Y342711D01*
X992543Y341044D01*
X992152Y339077D01*
Y336393D01*
X990979Y335907D01*
X981448Y345437D01*
Y438659D01*
X981057Y440625D01*
X979943Y442293D01*
X971005Y451231D01*
X971844Y452188D01*
X973721Y450747D01*
X976528Y449585D01*
X979541Y449188D01*
X982553Y449585D01*
X985361Y450747D01*
X987771Y452597D01*
X989621Y455008D01*
X990784Y457815D01*
X991180Y460827D01*
X990784Y463840D01*
X989621Y466647D01*
X987771Y469058D01*
X985361Y470908D01*
X982553Y472070D01*
X979541Y472467D01*
X976528Y472070D01*
X973721Y470908D01*
X971310Y469058D01*
X969461Y466647D01*
X968298Y463840D01*
X967901Y460827D01*
X968298Y457815D01*
X969461Y455008D01*
X970901Y453130D01*
X969944Y452291D01*
X965102Y457134D01*
X965384Y457815D01*
X965780Y460827D01*
X965384Y463840D01*
X964221Y466647D01*
X962371Y469058D01*
X959961Y470908D01*
X957153Y472070D01*
X954141Y472467D01*
X951128Y472070D01*
X948321Y470908D01*
X945910Y469058D01*
X944061Y466647D01*
X942898Y463840D01*
X942501Y460827D01*
X942898Y457815D01*
X944061Y455008D01*
X945910Y452597D01*
X948321Y450747D01*
X951128Y449585D01*
X954141Y449188D01*
X957153Y449585D01*
X957834Y449867D01*
X971171Y436530D01*
Y410624D01*
X969997Y410138D01*
X933880Y446256D01*
Y450465D01*
X934561Y450747D01*
X936971Y452597D01*
X938821Y455008D01*
X939984Y457815D01*
X940380Y460827D01*
X939984Y463840D01*
X938821Y466647D01*
X936971Y469058D01*
X934561Y470908D01*
X931753Y472070D01*
X928741Y472467D01*
X925728Y472070D01*
X922921Y470908D01*
X920510Y469058D01*
X918661Y466647D01*
X917498Y463840D01*
X917101Y460827D01*
X917498Y457815D01*
X918661Y455008D01*
X920510Y452597D01*
X922921Y450747D01*
X923602Y450465D01*
Y444127D01*
X923993Y442161D01*
X925107Y440494D01*
X963631Y401970D01*
Y341931D01*
X962361Y341494D01*
X953812Y352448D01*
X942802Y368081D01*
X932573Y384235D01*
X923148Y400872D01*
X914551Y417951D01*
X906803Y435431D01*
X904693Y440901D01*
X904695Y440906D01*
X904695Y440905D01*
X903879Y442874D01*
X902386Y449094D01*
X901913Y455103D01*
X901958Y455327D01*
Y488752D01*
X901988Y489960D01*
X902183Y491184D01*
X902798Y492668D01*
X903855Y494046D01*
X905232Y495103D01*
X906836Y495767D01*
X907945Y495913D01*
X909173Y495912D01*
X909174Y495912D01*
X910392Y495943D01*
X910773Y495943D01*
X1025996D01*
X1027041Y495943D01*
X1027245Y495954D01*
X1028447Y495833D01*
D02*
G37*
G36*
X1291316Y421415D02*
X1293936Y419405D01*
X1296492Y418346D01*
Y416971D01*
X1293936Y415912D01*
X1291316Y413902D01*
X1290289Y412563D01*
X1275230D01*
X1274203Y413902D01*
X1271584Y415912D01*
X1270168Y416498D01*
X1270420Y417769D01*
X1275260D01*
X1276251Y417966D01*
X1277091Y418527D01*
X1277652Y419367D01*
X1277849Y420358D01*
Y422753D01*
X1290289D01*
X1291316Y421415D01*
D02*
G37*
G36*
X1353643Y706820D02*
Y413097D01*
X1327710Y387163D01*
X1312849D01*
Y389558D01*
X1312652Y390549D01*
X1312091Y391390D01*
X1311251Y391951D01*
X1310260Y392148D01*
X1305420D01*
X1305168Y393418D01*
X1306584Y394005D01*
X1309203Y396015D01*
X1310230Y397353D01*
X1324260D01*
X1326228Y397612D01*
X1328062Y398372D01*
X1329637Y399581D01*
X1343637Y413581D01*
X1344846Y415156D01*
X1345605Y416990D01*
X1345865Y418958D01*
Y700958D01*
X1345605Y702927D01*
X1344846Y704761D01*
X1343637Y706336D01*
X1329637Y720336D01*
X1328062Y721544D01*
X1326228Y722304D01*
X1324260Y722563D01*
X1310230D01*
X1309203Y723902D01*
X1306584Y725912D01*
X1305168Y726498D01*
X1305420Y727768D01*
X1310260D01*
X1311251Y727966D01*
X1312091Y728527D01*
X1312652Y729367D01*
X1312849Y730358D01*
Y732753D01*
X1327710D01*
X1353643Y706820D01*
D02*
G37*
G36*
X1291316Y396015D02*
X1293936Y394005D01*
X1295352Y393418D01*
X1295099Y392148D01*
X1290260D01*
X1289268Y391951D01*
X1288428Y391390D01*
X1287867Y390549D01*
X1287670Y389558D01*
Y387163D01*
X1275230D01*
X1274203Y388502D01*
X1271584Y390512D01*
X1269027Y391571D01*
Y392946D01*
X1271584Y394005D01*
X1274203Y396015D01*
X1275230Y397353D01*
X1290289D01*
X1291316Y396015D01*
D02*
G37*
G36*
X1366375Y402659D02*
Y390649D01*
X1366357Y389441D01*
X1366357Y389440D01*
X1366461Y388198D01*
X1366226Y386415D01*
X1365450Y384543D01*
X1364216Y382935D01*
X1362608Y381701D01*
X1360736Y380925D01*
X1359741Y380794D01*
X1359756Y380676D01*
X1359610Y380647D01*
X1358955Y380550D01*
X1335916Y372333D01*
X1335301Y373463D01*
X1336237Y374181D01*
X1365202Y403145D01*
X1366375Y402659D01*
D02*
G37*
G36*
X342381Y345749D02*
X344400Y344400D01*
X345749Y342381D01*
X346189Y340167D01*
X346156Y340000D01*
Y60000D01*
X346189Y59833D01*
X345749Y57619D01*
X344400Y55600D01*
X342381Y54251D01*
X340167Y53811D01*
X340000Y53844D01*
X60000D01*
X59833Y53811D01*
X57619Y54251D01*
X55600Y55600D01*
X54251Y57619D01*
X53811Y59833D01*
X53844Y60000D01*
Y340000D01*
X53811Y340167D01*
X54251Y342381D01*
X55600Y344400D01*
X57619Y345749D01*
X59833Y346189D01*
X60000Y346156D01*
X340000D01*
X340167Y346189D01*
X342381Y345749D01*
D02*
G37*
G36*
X1118580Y307221D02*
X1118298Y306540D01*
X1117901Y303527D01*
X1118298Y300515D01*
X1119461Y297708D01*
X1120901Y295830D01*
X1119944Y294991D01*
X1058975Y355961D01*
X1057307Y357075D01*
X1056781Y357180D01*
X1055925Y358461D01*
X1054304Y359544D01*
X1054257Y359844D01*
Y360561D01*
X1054304Y360861D01*
X1055925Y361944D01*
X1056589Y362939D01*
X1062862D01*
X1118580Y307221D01*
D02*
G37*
G36*
Y281821D02*
X1118298Y281140D01*
X1117901Y278127D01*
X1118298Y275115D01*
X1118371Y274938D01*
X1117294Y274219D01*
X1065930Y325584D01*
Y332812D01*
X1067103Y333298D01*
X1118580Y281821D01*
D02*
G37*
G36*
X1040657Y346194D02*
X1042278Y345111D01*
X1042324Y344811D01*
Y344094D01*
X1042278Y343794D01*
X1040657Y342711D01*
X1039543Y341044D01*
X1039152Y339077D01*
Y334077D01*
X1039543Y332111D01*
X1040657Y330444D01*
X1042324Y329330D01*
X1044291Y328939D01*
X1052291D01*
X1054257Y329330D01*
X1054532Y329513D01*
X1055652Y328915D01*
Y323455D01*
X1056043Y321488D01*
X1057157Y319821D01*
X1117939Y259039D01*
X1117453Y257866D01*
X1075404D01*
X1071981Y261289D01*
X1070314Y262403D01*
X1068348Y262794D01*
X1061525D01*
X1060262Y263638D01*
X1059896Y263710D01*
X1045324Y278282D01*
X1043657Y279396D01*
X1041691Y279787D01*
X1036881D01*
X1031813Y284856D01*
X1030468Y285755D01*
X1005707Y310515D01*
X1006193Y311689D01*
X1021791D01*
X1023757Y312080D01*
X1025424Y313194D01*
X1026538Y314861D01*
X1026930Y316827D01*
Y340449D01*
X1033669Y347189D01*
X1039993D01*
X1040657Y346194D01*
D02*
G37*
G36*
X1377366Y279527D02*
X1379372Y278187D01*
X1380712Y276181D01*
X1381149Y273983D01*
X1381116Y273815D01*
Y243413D01*
X1381120Y243391D01*
X1381116Y243369D01*
X1381167Y238872D01*
X1381137Y237626D01*
Y237626D01*
X1381137Y237626D01*
X1381306Y232890D01*
X1380848Y220065D01*
X1379476Y207304D01*
X1377198Y194674D01*
X1374024Y182239D01*
X1369971Y170062D01*
X1365060Y158206D01*
X1359315Y146729D01*
X1352766Y135692D01*
X1345447Y125150D01*
X1337394Y115157D01*
X1328649Y105764D01*
X1319256Y97019D01*
X1309263Y88967D01*
X1301307Y83442D01*
X1300490Y84421D01*
X1335913Y119845D01*
X1336806Y121181D01*
X1337120Y122757D01*
Y125050D01*
X1336806Y126626D01*
X1336029Y127789D01*
X1337098Y129390D01*
X1337489Y131356D01*
X1337098Y133323D01*
X1335984Y134990D01*
X1332449Y138525D01*
X1330782Y139639D01*
X1328815Y140030D01*
X1326903Y139650D01*
X1326658Y139830D01*
X1326151Y140336D01*
X1325972Y140581D01*
X1326352Y142493D01*
X1326119Y143667D01*
X1366134Y183682D01*
X1367248Y185349D01*
X1367639Y187316D01*
Y208053D01*
X1368320Y208335D01*
X1370731Y210185D01*
X1372581Y212596D01*
X1373743Y215403D01*
X1374140Y218416D01*
X1373743Y221428D01*
X1372581Y224235D01*
X1370731Y226646D01*
X1368320Y228496D01*
X1365513Y229659D01*
X1362500Y230055D01*
X1359488Y229659D01*
X1356681Y228496D01*
X1354270Y226646D01*
X1352420Y224235D01*
X1351257Y221428D01*
X1350861Y218416D01*
X1351257Y215403D01*
X1352420Y212596D01*
X1354270Y210185D01*
X1356681Y208335D01*
X1357362Y208053D01*
Y189444D01*
X1318852Y150934D01*
X1317678Y151167D01*
X1315766Y150787D01*
X1315521Y150967D01*
X1315014Y151473D01*
X1314835Y151718D01*
X1315215Y153630D01*
X1314982Y154804D01*
X1325634Y165456D01*
X1326748Y167123D01*
X1327139Y169089D01*
Y210465D01*
X1328342Y210874D01*
X1328870Y210185D01*
X1331281Y208335D01*
X1334088Y207173D01*
X1337100Y206776D01*
X1340113Y207173D01*
X1342920Y208335D01*
X1345331Y210185D01*
X1347181Y212596D01*
X1348343Y215403D01*
X1348740Y218416D01*
X1348343Y221428D01*
X1347181Y224235D01*
X1345331Y226646D01*
X1342920Y228496D01*
X1340113Y229659D01*
X1337100Y230055D01*
X1334088Y229659D01*
X1331281Y228496D01*
X1328870Y226646D01*
X1328342Y225958D01*
X1327139Y226366D01*
Y235865D01*
X1328342Y236274D01*
X1328870Y235585D01*
X1331281Y233735D01*
X1334088Y232573D01*
X1337100Y232176D01*
X1340113Y232573D01*
X1342920Y233735D01*
X1345331Y235585D01*
X1347181Y237996D01*
X1348343Y240803D01*
X1348740Y243815D01*
X1348343Y246828D01*
X1347181Y249635D01*
X1345740Y251513D01*
X1346697Y252352D01*
X1351540Y247509D01*
X1351257Y246828D01*
X1350861Y243815D01*
X1351257Y240803D01*
X1352420Y237996D01*
X1354270Y235585D01*
X1356681Y233735D01*
X1359488Y232573D01*
X1362500Y232176D01*
X1365513Y232573D01*
X1368320Y233735D01*
X1370731Y235585D01*
X1372581Y237996D01*
X1373743Y240803D01*
X1374140Y243815D01*
X1373743Y246828D01*
X1372581Y249635D01*
X1370731Y252046D01*
X1368320Y253896D01*
X1365513Y255058D01*
X1362500Y255455D01*
X1359488Y255058D01*
X1358807Y254776D01*
X1348134Y265449D01*
X1346467Y266563D01*
X1344500Y266954D01*
X1322310D01*
X1320344Y266563D01*
X1320005Y266337D01*
X1318885Y266935D01*
Y272771D01*
X1318885Y273815D01*
X1318874Y274019D01*
X1318995Y275221D01*
X1319248Y276491D01*
X1320480Y278336D01*
X1322325Y279568D01*
X1324148Y279931D01*
X1375000D01*
X1375167Y279964D01*
X1377366Y279527D01*
D02*
G37*
G36*
X1316862Y209489D02*
Y171218D01*
X1307715Y162071D01*
X1306541Y162304D01*
X1304575Y161913D01*
X1302908Y160799D01*
X1297251Y155142D01*
X1296137Y153475D01*
X1295746Y151509D01*
X1296137Y149542D01*
X1297251Y147875D01*
X1300786Y144340D01*
X1302453Y143226D01*
X1304420Y142835D01*
X1306332Y143215D01*
X1306577Y143035D01*
X1307083Y142529D01*
X1307263Y142284D01*
X1306883Y140372D01*
X1307274Y138405D01*
X1308388Y136738D01*
X1311923Y133203D01*
X1313590Y132089D01*
X1315557Y131698D01*
X1317469Y132078D01*
X1317714Y131898D01*
X1318220Y131392D01*
X1318400Y131147D01*
X1318020Y129235D01*
X1318411Y127268D01*
X1319525Y125601D01*
X1323060Y122066D01*
X1324036Y121414D01*
X1324265Y119847D01*
X1304969Y100551D01*
X1303402Y100780D01*
X1302750Y101756D01*
X1299215Y105291D01*
X1297547Y106405D01*
X1295581Y106797D01*
X1293669Y106416D01*
X1293424Y106596D01*
X1292917Y107102D01*
X1292738Y107347D01*
X1293118Y109259D01*
X1292727Y111226D01*
X1291613Y112893D01*
X1288078Y116428D01*
X1286411Y117542D01*
X1284444Y117933D01*
X1282532Y117553D01*
X1282287Y117732D01*
X1281781Y118239D01*
X1281601Y118484D01*
X1281981Y120396D01*
X1281590Y122363D01*
X1280476Y124030D01*
X1276941Y127565D01*
X1275274Y128679D01*
X1273307Y129070D01*
X1271341Y128679D01*
X1269673Y127565D01*
X1264017Y121908D01*
X1262903Y120241D01*
X1262512Y118275D01*
X1262903Y116308D01*
X1264017Y114641D01*
X1267552Y111106D01*
X1269219Y109992D01*
X1271186Y109600D01*
X1273098Y109981D01*
X1273343Y109802D01*
X1273849Y109295D01*
X1274029Y109050D01*
X1273649Y107138D01*
X1273882Y105964D01*
X1271872Y103954D01*
X1261663D01*
X1261643Y104057D01*
X1261082Y104897D01*
X1260241Y105458D01*
X1259250Y105655D01*
X1250750D01*
X1249759Y105458D01*
X1248919Y104897D01*
X1248729Y104612D01*
X1247272D01*
X1247082Y104897D01*
X1246242Y105458D01*
X1245250Y105655D01*
X1238428D01*
X1227596Y116488D01*
X1226435Y117263D01*
X1226689Y118621D01*
X1227683Y118841D01*
X1237932Y122072D01*
X1247859Y126185D01*
X1257391Y131146D01*
X1266454Y136920D01*
X1274979Y143462D01*
X1282902Y150721D01*
X1290161Y158644D01*
X1296703Y167169D01*
X1302477Y176232D01*
X1307438Y185763D01*
X1311550Y195691D01*
X1314782Y205940D01*
X1315599Y209627D01*
X1316862Y209489D01*
D02*
G37*
G36*
X1234161Y95388D02*
Y94565D01*
X1234358Y93574D01*
X1234919Y92734D01*
X1235759Y92173D01*
X1236750Y91976D01*
X1245250D01*
X1246242Y92173D01*
X1247082Y92734D01*
X1247272Y93019D01*
X1248729D01*
X1248919Y92734D01*
X1249759Y92173D01*
X1250750Y91976D01*
X1259250D01*
X1260241Y92173D01*
X1261082Y92734D01*
X1261643Y93574D01*
X1261663Y93677D01*
X1274000D01*
X1275967Y94068D01*
X1277634Y95182D01*
X1281149Y98697D01*
X1282323Y98464D01*
X1284235Y98844D01*
X1284480Y98665D01*
X1284986Y98158D01*
X1285166Y97913D01*
X1284785Y96001D01*
X1285177Y94034D01*
X1286291Y92367D01*
X1287440Y91218D01*
X1286954Y90044D01*
X1283110D01*
X1281534Y89731D01*
X1280198Y88838D01*
X1267294Y75935D01*
X1233707D01*
X1210213Y99428D01*
X1208877Y100321D01*
X1207300Y100635D01*
X1194567D01*
X1193654Y102840D01*
X1191644Y105459D01*
X1189025Y107469D01*
X1189287Y108735D01*
X1220814D01*
X1234161Y95388D01*
D02*
G37*
G36*
X1229088Y68903D02*
X1230424Y68010D01*
X1232000Y67696D01*
X1269000D01*
X1269215Y66457D01*
X1264351Y64443D01*
X1252174Y60390D01*
X1239739Y57216D01*
X1227109Y54937D01*
X1214349Y53565D01*
X1201523Y53107D01*
X1198229Y53225D01*
Y53225D01*
X1196977Y53200D01*
X1151045D01*
X1150000Y53200D01*
X1149797Y53189D01*
X1148595Y53310D01*
X1147325Y53563D01*
X1145480Y54795D01*
X1144248Y56640D01*
X1143885Y58464D01*
Y67571D01*
X1145083Y67842D01*
X1146347Y64791D01*
X1148357Y62172D01*
X1150976Y60162D01*
X1154027Y58898D01*
X1157300Y58467D01*
X1160574Y58898D01*
X1163624Y60162D01*
X1166244Y62172D01*
X1168254Y64791D01*
X1169313Y67348D01*
X1170688D01*
X1171747Y64791D01*
X1173757Y62172D01*
X1176376Y60162D01*
X1179427Y58898D01*
X1182700Y58467D01*
X1185974Y58898D01*
X1189025Y60162D01*
X1191644Y62172D01*
X1193654Y64791D01*
X1194918Y67842D01*
X1195349Y71115D01*
X1194918Y74389D01*
X1193654Y77440D01*
X1191644Y80059D01*
X1189025Y82069D01*
X1186468Y83128D01*
Y84503D01*
X1189025Y85562D01*
X1191644Y87572D01*
X1193654Y90191D01*
X1194567Y92396D01*
X1205594D01*
X1229088Y68903D01*
D02*
G37*
G36*
X380000Y245646D02*
X432222D01*
X432531Y244414D01*
X432160Y244216D01*
X428658Y241342D01*
X425784Y237840D01*
X423648Y233844D01*
X422333Y229509D01*
X421889Y225000D01*
X422333Y220491D01*
X423648Y216156D01*
X425784Y212160D01*
X428658Y208658D01*
X432160Y205784D01*
X436156Y203648D01*
X440491Y202333D01*
X445000Y201889D01*
X449509Y202333D01*
X453844Y203648D01*
X457840Y205784D01*
X461342Y208658D01*
X464216Y212160D01*
X466352Y216156D01*
X467667Y220491D01*
X468111Y225000D01*
X467667Y229509D01*
X466352Y233844D01*
X464216Y237840D01*
X461342Y241342D01*
X457840Y244216D01*
X457469Y244414D01*
X457778Y245646D01*
X849867D01*
X849874Y245639D01*
X849874Y245639D01*
X849874Y245639D01*
X855075Y245298D01*
X861636Y243993D01*
X865865Y242557D01*
X867042Y242138D01*
X867043Y242138D01*
X867043Y242138D01*
X867963Y241845D01*
X899955Y231675D01*
X944732Y216387D01*
X989175Y200152D01*
X1033263Y182977D01*
X1068940Y168200D01*
X1071142Y165621D01*
X1073321Y162065D01*
X1074917Y158212D01*
X1075891Y154157D01*
X1076218Y150000D01*
X1075891Y145843D01*
X1074917Y141788D01*
X1073321Y137935D01*
X1071142Y134379D01*
X1068940Y131800D01*
X1033263Y117023D01*
X989175Y99848D01*
X944732Y83613D01*
X899955Y68325D01*
X867963Y58155D01*
X867043Y57862D01*
Y57862D01*
X866780Y57753D01*
X865596Y57351D01*
X861636Y56007D01*
X855075Y54702D01*
X849874Y54361D01*
X849874Y54361D01*
Y54361D01*
X849867Y54354D01*
X457778D01*
X457469Y55586D01*
X457840Y55784D01*
X461342Y58658D01*
X464216Y62160D01*
X466352Y66156D01*
X467667Y70491D01*
X468111Y75000D01*
X467667Y79509D01*
X466352Y83844D01*
X464216Y87840D01*
X461342Y91342D01*
X457840Y94216D01*
X453844Y96352D01*
X449509Y97667D01*
X445000Y98111D01*
X440491Y97667D01*
X436156Y96352D01*
X432160Y94216D01*
X428658Y91342D01*
X425784Y87840D01*
X423648Y83844D01*
X422333Y79509D01*
X421889Y75000D01*
X422333Y70491D01*
X423648Y66156D01*
X425784Y62160D01*
X428658Y58658D01*
X432160Y55784D01*
X432531Y55586D01*
X432222Y54354D01*
X380000D01*
X379833Y54320D01*
X377814Y54722D01*
X375960Y55960D01*
X374722Y57814D01*
X374320Y59833D01*
X374354Y60000D01*
Y240000D01*
X374320Y240167D01*
X374722Y242186D01*
X375960Y244040D01*
X377814Y245278D01*
X379833Y245680D01*
X380000Y245646D01*
D02*
G37*
%LPC*%
G36*
X901030Y974137D02*
X900954Y973615D01*
X900962Y973655D01*
X901030Y974137D01*
D02*
G37*
G36*
X831240Y877591D02*
X818740D01*
X817765Y877397D01*
X816938Y876844D01*
X816385Y876017D01*
X816191Y875042D01*
Y865042D01*
X816385Y864066D01*
X816938Y863239D01*
X817765Y862687D01*
X818740Y862493D01*
X831240D01*
X832216Y862687D01*
X833043Y863239D01*
X833595Y864066D01*
X833789Y865042D01*
Y875042D01*
X833595Y876017D01*
X833043Y876844D01*
X832216Y877397D01*
X831240Y877591D01*
D02*
G37*
G36*
X400000Y935613D02*
X394900Y935212D01*
X389926Y934018D01*
X385200Y932060D01*
X380838Y929387D01*
X376948Y926065D01*
X373626Y922175D01*
X370953Y917813D01*
X368995Y913087D01*
X367801Y908113D01*
X367399Y903013D01*
X367801Y897913D01*
X368995Y892939D01*
X370953Y888212D01*
X373626Y883851D01*
X376948Y879961D01*
X380838Y876638D01*
X385200Y873966D01*
X389926Y872008D01*
X394900Y870814D01*
X400000Y870412D01*
X405100Y870814D01*
X410074Y872008D01*
X414800Y873966D01*
X419162Y876638D01*
X423052Y879961D01*
X426374Y883851D01*
X429047Y888212D01*
X431005Y892939D01*
X432199Y897913D01*
X432601Y903013D01*
X432199Y908113D01*
X431005Y913087D01*
X429047Y917813D01*
X426374Y922175D01*
X423052Y926065D01*
X419162Y929387D01*
X414800Y932060D01*
X410074Y934018D01*
X405100Y935212D01*
X400000Y935613D01*
D02*
G37*
G36*
X512000Y769130D02*
X230000D01*
X229686Y769068D01*
X226516Y768756D01*
X223166Y767739D01*
X220079Y766089D01*
X218374Y764690D01*
X218272Y764648D01*
X218242Y764623D01*
X218225Y764616D01*
X217350Y763891D01*
X216586Y762958D01*
X216573Y762930D01*
X216554Y762910D01*
X215912Y761927D01*
X182878Y711358D01*
X182626Y710732D01*
X182271Y710158D01*
X182185Y709635D01*
X181988Y709144D01*
X181995Y708468D01*
X181886Y707802D01*
X182886Y678802D01*
X183040Y678147D01*
X183079Y677475D01*
X183311Y676996D01*
X183432Y676478D01*
X183825Y675932D01*
X184118Y675326D01*
X184515Y674973D01*
X184826Y674540D01*
X185398Y674186D01*
X185900Y673739D01*
X186403Y673564D01*
X186855Y673283D01*
X187519Y673175D01*
X188155Y672954D01*
X231155Y666954D01*
X231292Y666962D01*
X231424Y666922D01*
X232479Y667030D01*
X233538Y667092D01*
X233661Y667151D01*
X233798Y667165D01*
X234732Y667669D01*
X235686Y668131D01*
X235778Y668233D01*
X235899Y668299D01*
X236569Y669121D01*
X237274Y669913D01*
X237319Y670043D01*
X237406Y670150D01*
X237710Y671166D01*
X238059Y672167D01*
X238051Y672305D01*
X238090Y672436D01*
X239713Y689581D01*
X240954Y690096D01*
X243565Y692099D01*
X245569Y694710D01*
X246828Y697751D01*
X247258Y701014D01*
X246828Y704277D01*
X245569Y707318D01*
X243772Y709660D01*
X243773Y709662D01*
X244422Y710787D01*
X244424Y710789D01*
X247350Y710403D01*
X250613Y710833D01*
X251681Y711275D01*
X269280Y696263D01*
X269330Y694994D01*
X243674Y669339D01*
X242348Y667354D01*
X241882Y665013D01*
X242348Y662672D01*
X243674Y660687D01*
X373882Y530479D01*
Y505013D01*
Y479013D01*
Y472013D01*
X374348Y469672D01*
X375674Y467687D01*
X377659Y466361D01*
X380000Y465895D01*
X388045D01*
X388774Y465408D01*
X389750Y465214D01*
X398250D01*
X399225Y465408D01*
X400052Y465960D01*
X400292Y466319D01*
X401708D01*
X401948Y465960D01*
X402775Y465408D01*
X403750Y465214D01*
X403922D01*
Y463202D01*
X400811Y460091D01*
X387000D01*
X385439Y459781D01*
X384116Y458897D01*
X383232Y457574D01*
X382922Y456013D01*
Y451402D01*
X382645Y450988D01*
X382451Y450013D01*
Y443986D01*
X381181Y443359D01*
X380037Y444238D01*
X377969Y445094D01*
X375750Y445386D01*
X373531Y445094D01*
X371463Y444238D01*
X369688Y442875D01*
X368325Y441099D01*
X367469Y439032D01*
X367177Y436813D01*
X367469Y434594D01*
X368325Y432526D01*
X369688Y430751D01*
X371463Y429388D01*
X373531Y428532D01*
X375750Y428239D01*
X377969Y428532D01*
X380037Y429388D01*
X381812Y430751D01*
X382939Y432219D01*
X383198Y432210D01*
X384025Y431658D01*
X385000Y431464D01*
X389000D01*
X389975Y431658D01*
X390250Y431841D01*
X390524Y431658D01*
X391500Y431464D01*
X395500D01*
X396475Y431658D01*
X396750Y431841D01*
X397025Y431658D01*
X398000Y431464D01*
X402000D01*
X402975Y431658D01*
X403250Y431841D01*
X403525Y431658D01*
X404500Y431464D01*
X408500D01*
X409475Y431658D01*
X409750Y431841D01*
X410025Y431658D01*
X411000Y431464D01*
X415000D01*
X415975Y431658D01*
X416802Y432210D01*
X417061Y432219D01*
X418188Y430751D01*
X419963Y429388D01*
X422031Y428532D01*
X424250Y428239D01*
X426469Y428532D01*
X428537Y429388D01*
X430312Y430751D01*
X431675Y432526D01*
X432531Y434594D01*
X432823Y436813D01*
X432531Y439032D01*
X431675Y441099D01*
X430312Y442875D01*
X428537Y444238D01*
X426469Y445094D01*
X424250Y445386D01*
X422031Y445094D01*
X419963Y444238D01*
X418819Y443359D01*
X417549Y443986D01*
Y450013D01*
X417355Y450988D01*
X417078Y451402D01*
Y453323D01*
X420134Y456380D01*
X421659Y455361D01*
X424000Y454895D01*
X426341Y455361D01*
X428326Y456687D01*
X429652Y458672D01*
X430117Y461013D01*
X429652Y463354D01*
X428326Y465339D01*
X426341Y466665D01*
X424000Y467130D01*
X421659Y466665D01*
X419674Y465339D01*
X419509Y465091D01*
X419000D01*
X417439Y464781D01*
X416116Y463897D01*
X416116Y463896D01*
X413284Y461064D01*
X412411Y461389D01*
X412078Y461655D01*
Y465214D01*
X412250D01*
X413225Y465408D01*
X414052Y465960D01*
X414605Y466787D01*
X414799Y467763D01*
Y476263D01*
X414605Y477238D01*
X414052Y478065D01*
X414351Y479370D01*
X414892Y479895D01*
X419000D01*
X421341Y480361D01*
X423326Y481687D01*
X424326Y482687D01*
X425652Y484672D01*
X426118Y487013D01*
Y509013D01*
Y532895D01*
X444000D01*
X444818Y533058D01*
X445649Y533122D01*
X445978Y533289D01*
X446341Y533361D01*
X447034Y533824D01*
X447778Y534201D01*
X448018Y534482D01*
X448326Y534687D01*
X448789Y535380D01*
X449332Y536013D01*
X548581Y712412D01*
X548650Y712403D01*
X551576Y712789D01*
X551577Y712787D01*
X552227Y711662D01*
X552228Y711660D01*
X550431Y709318D01*
X549172Y706277D01*
X548742Y703014D01*
X549172Y699751D01*
X550431Y696710D01*
X552435Y694099D01*
X555046Y692095D01*
X558087Y690836D01*
X561350Y690406D01*
X564613Y690836D01*
X567654Y692095D01*
X570265Y694099D01*
X572269Y696710D01*
X573528Y699751D01*
X573557Y699968D01*
X574803Y700216D01*
X580128Y690992D01*
X580783Y690245D01*
X581675Y689805D01*
X582668Y689740D01*
X583610Y690060D01*
X583610Y690060D01*
X600930Y700060D01*
X601678Y700715D01*
X602118Y701607D01*
X602183Y702600D01*
X601863Y703541D01*
X569363Y759833D01*
X568707Y760581D01*
X567815Y761021D01*
X566823Y761086D01*
X565881Y760766D01*
X565881Y760766D01*
X548561Y750766D01*
X547813Y750110D01*
X547373Y749218D01*
X547308Y748226D01*
X547628Y747284D01*
X552953Y738061D01*
X552115Y737106D01*
X551913Y737190D01*
X548650Y737619D01*
X545402Y737191D01*
X516403Y767260D01*
X516357Y767292D01*
X516326Y767338D01*
X515379Y767971D01*
X514443Y768621D01*
X514388Y768633D01*
X514341Y768665D01*
X513223Y768887D01*
X512111Y769129D01*
X512055Y769119D01*
X512000Y769130D01*
D02*
G37*
G36*
X650000Y502603D02*
X644900Y502202D01*
X639926Y501008D01*
X635200Y499050D01*
X630838Y496377D01*
X626948Y493055D01*
X623626Y489165D01*
X620953Y484803D01*
X618995Y480077D01*
X617801Y475103D01*
X617399Y470003D01*
X617801Y464903D01*
X618995Y459929D01*
X620953Y455202D01*
X623626Y450841D01*
X626948Y446951D01*
X630838Y443628D01*
X635200Y440956D01*
X639926Y438998D01*
X644900Y437804D01*
X650000Y437402D01*
X655100Y437804D01*
X660074Y438998D01*
X664800Y440956D01*
X669162Y443628D01*
X673052Y446951D01*
X676374Y450841D01*
X679047Y455202D01*
X681005Y459929D01*
X682199Y464903D01*
X682600Y470003D01*
X682199Y475103D01*
X681005Y480077D01*
X679047Y484803D01*
X676374Y489165D01*
X673052Y493055D01*
X669162Y496377D01*
X664800Y499050D01*
X660074Y501008D01*
X655100Y502202D01*
X650000Y502603D01*
D02*
G37*
G36*
X150000D02*
X144900Y502202D01*
X139926Y501008D01*
X135200Y499050D01*
X130838Y496377D01*
X126948Y493055D01*
X123626Y489165D01*
X120953Y484803D01*
X118995Y480077D01*
X117801Y475103D01*
X117400Y470003D01*
X117801Y464903D01*
X118995Y459929D01*
X120953Y455202D01*
X123626Y450841D01*
X126948Y446951D01*
X130838Y443628D01*
X135200Y440956D01*
X139926Y438998D01*
X144900Y437804D01*
X150000Y437402D01*
X155100Y437804D01*
X160074Y438998D01*
X164800Y440956D01*
X169162Y443628D01*
X173052Y446951D01*
X176374Y450841D01*
X179047Y455202D01*
X181005Y459929D01*
X182199Y464903D01*
X182600Y470003D01*
X182199Y475103D01*
X181005Y480077D01*
X179047Y484803D01*
X176374Y489165D01*
X173052Y493055D01*
X169162Y496377D01*
X164800Y499050D01*
X160074Y501008D01*
X155100Y502202D01*
X150000Y502603D01*
D02*
G37*
G36*
X436250Y425789D02*
X433172Y425486D01*
X430213Y424588D01*
X427485Y423130D01*
X425095Y421168D01*
X423133Y418777D01*
X421675Y416050D01*
X420777Y413091D01*
X420474Y410013D01*
X420777Y406935D01*
X421675Y403975D01*
X423133Y401248D01*
X425095Y398857D01*
X427485Y396895D01*
X430213Y395438D01*
X433172Y394540D01*
X436250Y394237D01*
X439328Y394540D01*
X442287Y395438D01*
X445015Y396895D01*
X447405Y398857D01*
X449367Y401248D01*
X450825Y403975D01*
X451723Y406935D01*
X452026Y410013D01*
X451723Y413091D01*
X450825Y416050D01*
X449367Y418777D01*
X447405Y421168D01*
X445015Y423130D01*
X442287Y424588D01*
X439328Y425486D01*
X436250Y425789D01*
D02*
G37*
G36*
X363750D02*
X360672Y425486D01*
X357713Y424588D01*
X354985Y423130D01*
X352595Y421168D01*
X350633Y418777D01*
X349175Y416050D01*
X348277Y413091D01*
X347974Y410013D01*
X348277Y406935D01*
X349175Y403975D01*
X350633Y401248D01*
X352595Y398857D01*
X354985Y396895D01*
X357713Y395438D01*
X360672Y394540D01*
X363750Y394237D01*
X366828Y394540D01*
X369787Y395438D01*
X372515Y396895D01*
X374905Y398857D01*
X376867Y401248D01*
X378325Y403975D01*
X379223Y406935D01*
X379526Y410013D01*
X379223Y413091D01*
X378325Y416050D01*
X376867Y418777D01*
X374905Y421168D01*
X372515Y423130D01*
X369787Y424588D01*
X366828Y425486D01*
X363750Y425789D01*
D02*
G37*
%LPD*%
G36*
X222443Y697968D02*
X222472Y697751D01*
X223731Y694710D01*
X225735Y692099D01*
X227531Y690721D01*
X226599Y680870D01*
X225602Y680082D01*
X194937Y684361D01*
X194504Y696920D01*
X195749Y697667D01*
X212390Y688059D01*
X212390Y688059D01*
X213332Y687740D01*
X214325Y687805D01*
X215217Y688245D01*
X215872Y688992D01*
X221197Y698216D01*
X222443Y697968D01*
D02*
G37*
G36*
X536632Y728660D02*
X536472Y728274D01*
X536042Y725011D01*
X536472Y721748D01*
X537731Y718707D01*
X537935Y718442D01*
X440423Y545130D01*
X422534D01*
X418326Y549338D01*
X416341Y550665D01*
X414000Y551130D01*
X396000D01*
X393659Y550665D01*
X391674Y549338D01*
X388174Y545839D01*
X386848Y543854D01*
X386382Y541513D01*
Y538343D01*
X386145Y537988D01*
X385979Y537151D01*
X385603Y536956D01*
X384681Y536807D01*
X384326Y537338D01*
X256651Y665013D01*
X283326Y691687D01*
X283462Y691891D01*
X283654Y692043D01*
X284121Y692877D01*
X284652Y693672D01*
X284700Y693912D01*
X284819Y694126D01*
X284931Y695075D01*
X285117Y696013D01*
X285070Y696253D01*
X285098Y696496D01*
X284838Y697416D01*
X284652Y698354D01*
X284516Y698558D01*
X284449Y698793D01*
X283857Y699544D01*
X283326Y700339D01*
X283122Y700475D01*
X282970Y700667D01*
X259637Y720571D01*
X259958Y723011D01*
X259528Y726274D01*
X258269Y729315D01*
X256265Y731926D01*
X253654Y733930D01*
X250613Y735190D01*
X247350Y735619D01*
X244087Y735190D01*
X243885Y735106D01*
X243047Y736061D01*
X248372Y745284D01*
X248692Y746226D01*
X248627Y747218D01*
X248187Y748110D01*
X247439Y748766D01*
X235484Y755668D01*
X235813Y756895D01*
X509401D01*
X536632Y728660D01*
D02*
G37*
G36*
X400948Y508960D02*
X401775Y508408D01*
X402750Y508214D01*
X411250D01*
X412225Y508408D01*
X412612Y508666D01*
X413882Y508091D01*
Y493590D01*
X412612Y492740D01*
X412250Y492812D01*
X403750D01*
X402775Y492618D01*
X401948Y492065D01*
X400642Y492363D01*
X400117Y492904D01*
Y497756D01*
X400368Y499013D01*
X399902Y501354D01*
X398576Y503339D01*
X396591Y504665D01*
X394250Y505130D01*
X391909Y504665D01*
X389924Y503339D01*
X389674Y503088D01*
X388348Y501104D01*
X387882Y498763D01*
Y492267D01*
X387388Y491748D01*
X386118Y492256D01*
Y502479D01*
X391852Y508214D01*
X397250D01*
X398225Y508408D01*
X399052Y508960D01*
X399292Y509319D01*
X400708D01*
X400948Y508960D01*
D02*
G37*
%LPC*%
G36*
X1236990Y884341D02*
X1233988Y883946D01*
X1231191Y882787D01*
X1228789Y880944D01*
X1226945Y878541D01*
X1225786Y875744D01*
X1225391Y872742D01*
X1225786Y869740D01*
X1226945Y866942D01*
X1228789Y864540D01*
X1231191Y862696D01*
X1233988Y861538D01*
X1236990Y861142D01*
X1239993Y861538D01*
X1242790Y862696D01*
X1245192Y864540D01*
X1247036Y866942D01*
X1248194Y869740D01*
X1248590Y872742D01*
X1248194Y875744D01*
X1247036Y878541D01*
X1245192Y880944D01*
X1242790Y882787D01*
X1239993Y883946D01*
X1236990Y884341D01*
D02*
G37*
G36*
X1376030Y836137D02*
X1375954Y835615D01*
X1375962Y835655D01*
X1376030Y836137D01*
D02*
G37*
G36*
X859260Y583998D02*
X856247Y583601D01*
X853440Y582438D01*
X851029Y580589D01*
X849180Y578178D01*
X848017Y575371D01*
X847620Y572358D01*
X848017Y569346D01*
X849180Y566539D01*
X851029Y564128D01*
X853440Y562278D01*
X856247Y561115D01*
X859260Y560719D01*
X862272Y561115D01*
X865079Y562278D01*
X867490Y564128D01*
X869340Y566539D01*
X870503Y569346D01*
X870899Y572358D01*
X870503Y575371D01*
X869340Y578178D01*
X867490Y580589D01*
X865079Y582438D01*
X862272Y583601D01*
X859260Y583998D01*
D02*
G37*
G36*
Y558598D02*
X856247Y558201D01*
X853440Y557038D01*
X851029Y555189D01*
X849180Y552778D01*
X848017Y549971D01*
X847620Y546958D01*
X848017Y543946D01*
X849180Y541138D01*
X851029Y538728D01*
X853440Y536878D01*
X856247Y535715D01*
X859260Y535319D01*
X862272Y535715D01*
X865079Y536878D01*
X867490Y538728D01*
X869340Y541138D01*
X870503Y543946D01*
X870899Y546958D01*
X870503Y549971D01*
X869340Y552778D01*
X867490Y555189D01*
X865079Y557038D01*
X862272Y558201D01*
X859260Y558598D01*
D02*
G37*
G36*
X310000Y342601D02*
X304900Y342199D01*
X299926Y341005D01*
X295200Y339047D01*
X290838Y336374D01*
X286948Y333052D01*
X283626Y329162D01*
X280953Y324800D01*
X278995Y320074D01*
X277801Y315100D01*
X277400Y310000D01*
X277801Y304900D01*
X278995Y299926D01*
X280953Y295200D01*
X283626Y290838D01*
X286948Y286948D01*
X290838Y283626D01*
X295200Y280953D01*
X299926Y278995D01*
X304900Y277801D01*
X310000Y277400D01*
X315100Y277801D01*
X320074Y278995D01*
X324800Y280953D01*
X329162Y283626D01*
X333052Y286948D01*
X336374Y290838D01*
X339047Y295200D01*
X341005Y299926D01*
X342199Y304900D01*
X342601Y310000D01*
X342199Y315100D01*
X341005Y320074D01*
X339047Y324800D01*
X336374Y329162D01*
X333052Y333052D01*
X329162Y336374D01*
X324800Y339047D01*
X320074Y341005D01*
X315100Y342199D01*
X310000Y342601D01*
D02*
G37*
G36*
X90000D02*
X84900Y342199D01*
X79926Y341005D01*
X75200Y339047D01*
X70838Y336374D01*
X66948Y333052D01*
X63626Y329162D01*
X60953Y324800D01*
X58995Y320074D01*
X57801Y315100D01*
X57400Y310000D01*
X57801Y304900D01*
X58995Y299926D01*
X60953Y295200D01*
X63626Y290838D01*
X66948Y286948D01*
X70838Y283626D01*
X75200Y280953D01*
X79926Y278995D01*
X84900Y277801D01*
X90000Y277400D01*
X95100Y277801D01*
X100074Y278995D01*
X104800Y280953D01*
X109162Y283626D01*
X113052Y286948D01*
X116374Y290838D01*
X119047Y295200D01*
X121005Y299926D01*
X122199Y304900D01*
X122600Y310000D01*
X122199Y315100D01*
X121005Y320074D01*
X119047Y324800D01*
X116374Y329162D01*
X113052Y333052D01*
X109162Y336374D01*
X104800Y339047D01*
X100074Y341005D01*
X95100Y342199D01*
X90000Y342601D01*
D02*
G37*
G36*
X212700Y240408D02*
X209437Y239978D01*
X206396Y238719D01*
X203785Y236715D01*
X201781Y234104D01*
X200652Y231377D01*
X200650Y231377D01*
X199350D01*
X199348Y231377D01*
X198219Y234104D01*
X196215Y236715D01*
X193604Y238719D01*
X190563Y239978D01*
X187300Y240408D01*
X184037Y239978D01*
X180996Y238719D01*
X178385Y236715D01*
X176381Y234104D01*
X176093Y233408D01*
X169800D01*
X167654Y232981D01*
X165835Y231765D01*
X135387Y201317D01*
X134840Y200499D01*
X134261Y199703D01*
X134234Y199593D01*
X134171Y199498D01*
X133979Y198533D01*
X133749Y197576D01*
X133766Y197464D01*
X133744Y197352D01*
X133936Y196387D01*
X134089Y195415D01*
X134149Y195318D01*
X134171Y195206D01*
X134718Y194388D01*
X135231Y193548D01*
X148479Y179196D01*
X148572Y179129D01*
X148635Y179035D01*
X149453Y178488D01*
X150249Y177909D01*
X150359Y177882D01*
X150454Y177819D01*
X151419Y177627D01*
X152376Y177397D01*
X152488Y177414D01*
X152600Y177392D01*
X154677D01*
X164035Y168035D01*
X165854Y166819D01*
X168000Y166392D01*
X178451D01*
Y164000D01*
X178645Y163025D01*
X179198Y162198D01*
X180025Y161645D01*
X181000Y161451D01*
X191000D01*
X191975Y161645D01*
X192802Y162198D01*
X193355Y163025D01*
X193549Y164000D01*
Y180000D01*
X193355Y180975D01*
X192802Y181802D01*
X191975Y182355D01*
X191000Y182549D01*
X181000D01*
X180025Y182355D01*
X179198Y181802D01*
X178645Y180975D01*
X178451Y180000D01*
Y177608D01*
X170323D01*
X160965Y186965D01*
X159146Y188181D01*
X157000Y188608D01*
X155055D01*
X147127Y197197D01*
X163681Y213750D01*
X164951Y213224D01*
Y195000D01*
X165145Y194025D01*
X165698Y193198D01*
X166525Y192645D01*
X167500Y192451D01*
X232500D01*
X233475Y192645D01*
X234302Y193198D01*
X234855Y194025D01*
X235049Y195000D01*
Y213224D01*
X236319Y213750D01*
X247035Y203035D01*
X248854Y201819D01*
X251000Y201392D01*
X256250D01*
X256548Y200948D01*
X256749Y200813D01*
X256828Y199527D01*
X255919Y198608D01*
X253600D01*
X251454Y198181D01*
X249635Y196965D01*
X230277Y177608D01*
X223549D01*
Y180000D01*
X223355Y180975D01*
X222802Y181802D01*
X221975Y182355D01*
X221000Y182549D01*
X211000D01*
X210025Y182355D01*
X209198Y181802D01*
X208645Y180975D01*
X208451Y180000D01*
Y164000D01*
X208645Y163025D01*
X209198Y162198D01*
X210025Y161645D01*
X211000Y161451D01*
X221000D01*
X221975Y161645D01*
X222802Y162198D01*
X223355Y163025D01*
X223549Y164000D01*
Y166392D01*
X232600D01*
X234746Y166819D01*
X236565Y168035D01*
X255204Y186673D01*
X256548Y186948D01*
X257375Y186395D01*
X258350Y186201D01*
X266850D01*
X267825Y186395D01*
X268652Y186948D01*
X269205Y187775D01*
X269399Y188750D01*
Y197250D01*
X269205Y198225D01*
X268652Y199052D01*
X268294Y199292D01*
Y200708D01*
X268652Y200948D01*
X269205Y201775D01*
X269399Y202750D01*
Y211250D01*
X269205Y212225D01*
X268652Y213052D01*
X267825Y213605D01*
X266850Y213799D01*
X258350D01*
X257375Y213605D01*
X256548Y213052D01*
X256250Y212608D01*
X253323D01*
X234165Y231765D01*
X232346Y232981D01*
X230200Y233408D01*
X223907D01*
X223619Y234104D01*
X221615Y236715D01*
X219004Y238719D01*
X215963Y239978D01*
X212700Y240408D01*
D02*
G37*
G36*
X260000Y272609D02*
X255589Y272174D01*
X251348Y270888D01*
X247439Y268799D01*
X244013Y265987D01*
X241201Y262561D01*
X239112Y258652D01*
X237826Y254411D01*
X237391Y250000D01*
X237826Y245589D01*
X239112Y241348D01*
X241201Y237439D01*
X244013Y234013D01*
X247439Y231201D01*
X251348Y229112D01*
X255589Y227826D01*
X260000Y227391D01*
X264411Y227826D01*
X268652Y229112D01*
X272561Y231201D01*
X275987Y234013D01*
X278799Y237439D01*
X280888Y241348D01*
X282174Y245589D01*
X282609Y250000D01*
X282174Y254411D01*
X280888Y258652D01*
X278799Y262561D01*
X275987Y265987D01*
X272561Y268799D01*
X268652Y270888D01*
X264411Y272174D01*
X260000Y272609D01*
D02*
G37*
G36*
X140000D02*
X135589Y272174D01*
X131348Y270888D01*
X127439Y268799D01*
X124013Y265987D01*
X121201Y262561D01*
X119112Y258652D01*
X117825Y254411D01*
X117391Y250000D01*
X117825Y245589D01*
X119112Y241348D01*
X121201Y237439D01*
X124013Y234013D01*
X127439Y231201D01*
X131348Y229112D01*
X135589Y227826D01*
X140000Y227391D01*
X144411Y227826D01*
X148652Y229112D01*
X152561Y231201D01*
X155987Y234013D01*
X158799Y237439D01*
X160888Y241348D01*
X162174Y245589D01*
X162609Y250000D01*
X162174Y254411D01*
X160888Y258652D01*
X158799Y262561D01*
X155987Y265987D01*
X152561Y268799D01*
X148652Y270888D01*
X144411Y272174D01*
X140000Y272609D01*
D02*
G37*
G36*
X260000Y172609D02*
X255589Y172174D01*
X251348Y170888D01*
X247439Y168799D01*
X244013Y165987D01*
X241201Y162561D01*
X239112Y158652D01*
X237826Y154411D01*
X237391Y150000D01*
X237826Y145589D01*
X239112Y141348D01*
X241201Y137439D01*
X244013Y134013D01*
X247439Y131201D01*
X251348Y129112D01*
X255589Y127826D01*
X260000Y127391D01*
X264411Y127826D01*
X268652Y129112D01*
X272561Y131201D01*
X275987Y134013D01*
X278799Y137439D01*
X280888Y141348D01*
X282174Y145589D01*
X282609Y150000D01*
X282174Y154411D01*
X280888Y158652D01*
X278799Y162561D01*
X275987Y165987D01*
X272561Y168799D01*
X268652Y170888D01*
X264411Y172174D01*
X260000Y172609D01*
D02*
G37*
G36*
X140000D02*
X135589Y172174D01*
X131348Y170888D01*
X127439Y168799D01*
X124013Y165987D01*
X121201Y162561D01*
X119112Y158652D01*
X117825Y154411D01*
X117391Y150000D01*
X117825Y145589D01*
X119112Y141348D01*
X121201Y137439D01*
X124013Y134013D01*
X127439Y131201D01*
X131348Y129112D01*
X135589Y127826D01*
X140000Y127391D01*
X144411Y127826D01*
X148652Y129112D01*
X152561Y131201D01*
X155987Y134013D01*
X158799Y137439D01*
X160888Y141348D01*
X162174Y145589D01*
X162609Y150000D01*
X162174Y154411D01*
X160888Y158652D01*
X158799Y162561D01*
X155987Y165987D01*
X152561Y168799D01*
X148652Y170888D01*
X144411Y172174D01*
X140000Y172609D01*
D02*
G37*
G36*
X310000Y122600D02*
X304900Y122199D01*
X299926Y121005D01*
X295200Y119047D01*
X290838Y116374D01*
X286948Y113052D01*
X283626Y109162D01*
X280953Y104800D01*
X278995Y100074D01*
X277801Y95100D01*
X277400Y90000D01*
X277801Y84900D01*
X278995Y79926D01*
X280953Y75200D01*
X283626Y70838D01*
X286948Y66948D01*
X290838Y63626D01*
X295200Y60953D01*
X299926Y58995D01*
X304900Y57801D01*
X310000Y57400D01*
X315100Y57801D01*
X320074Y58995D01*
X324800Y60953D01*
X329162Y63626D01*
X333052Y66948D01*
X336374Y70838D01*
X339047Y75200D01*
X341005Y79926D01*
X342199Y84900D01*
X342601Y90000D01*
X342199Y95100D01*
X341005Y100074D01*
X339047Y104800D01*
X336374Y109162D01*
X333052Y113052D01*
X329162Y116374D01*
X324800Y119047D01*
X320074Y121005D01*
X315100Y122199D01*
X310000Y122600D01*
D02*
G37*
G36*
X90000D02*
X84900Y122199D01*
X79926Y121005D01*
X75200Y119047D01*
X70838Y116374D01*
X66948Y113052D01*
X63626Y109162D01*
X60953Y104800D01*
X58995Y100074D01*
X57801Y95100D01*
X57400Y90000D01*
X57801Y84900D01*
X58995Y79926D01*
X60953Y75200D01*
X63626Y70838D01*
X66948Y66948D01*
X70838Y63626D01*
X75200Y60953D01*
X79926Y58995D01*
X84900Y57801D01*
X90000Y57400D01*
X95100Y57801D01*
X100074Y58995D01*
X104800Y60953D01*
X109162Y63626D01*
X113052Y66948D01*
X116374Y70838D01*
X119047Y75200D01*
X121005Y79926D01*
X122199Y84900D01*
X122600Y90000D01*
X122199Y95100D01*
X121005Y100074D01*
X119047Y104800D01*
X116374Y109162D01*
X113052Y113052D01*
X109162Y116374D01*
X104800Y119047D01*
X100074Y121005D01*
X95100Y122199D01*
X90000Y122600D01*
D02*
G37*
G36*
X538500Y192840D02*
X534770D01*
Y185270D01*
X541090D01*
Y190250D01*
X540893Y191241D01*
X540331Y192081D01*
X539491Y192643D01*
X538500Y192840D01*
D02*
G37*
G36*
X532230D02*
X528500D01*
X527509Y192643D01*
X526669Y192081D01*
X526107Y191241D01*
X525910Y190250D01*
Y185270D01*
X532230D01*
Y192840D01*
D02*
G37*
G36*
X541090Y182730D02*
X534770D01*
Y175160D01*
X538500D01*
X539491Y175357D01*
X540331Y175919D01*
X540893Y176759D01*
X541090Y177750D01*
Y182730D01*
D02*
G37*
G36*
X532230D02*
X525910D01*
Y177750D01*
X526107Y176759D01*
X526669Y175919D01*
X527509Y175357D01*
X528500Y175160D01*
X532230D01*
Y182730D01*
D02*
G37*
G36*
X538230Y170840D02*
X535250D01*
X534259Y170643D01*
X533419Y170081D01*
X532857Y169241D01*
X532660Y168250D01*
Y165270D01*
X538230D01*
Y170840D01*
D02*
G37*
G36*
X587500Y165809D02*
X579000D01*
X577829Y165576D01*
X576837Y164913D01*
X576640Y164618D01*
X573966D01*
X573447Y164833D01*
X571750Y165056D01*
X570053Y164833D01*
X568472Y164178D01*
X567114Y163136D01*
X566072Y161778D01*
X565417Y160197D01*
X565194Y158500D01*
X565417Y156803D01*
X566072Y155222D01*
X567114Y153864D01*
X568472Y152822D01*
X570053Y152167D01*
X571750Y151944D01*
X573447Y152167D01*
X573966Y152382D01*
X575918D01*
X576729Y151150D01*
X576674Y150669D01*
X576174Y149921D01*
X575941Y148750D01*
Y140250D01*
X576174Y139080D01*
X576837Y138087D01*
X577829Y137424D01*
X579000Y137191D01*
X587500D01*
X588671Y137424D01*
X589663Y138087D01*
X589860Y138383D01*
X604064D01*
X604174Y137830D01*
X604837Y136837D01*
X605829Y136174D01*
X607000Y135941D01*
X613000D01*
X614170Y136174D01*
X615163Y136837D01*
X615826Y137830D01*
X616059Y139000D01*
Y144205D01*
X616118Y144500D01*
X616059Y144796D01*
Y150000D01*
X615826Y151171D01*
X615163Y152163D01*
X614170Y152826D01*
X613000Y153059D01*
X607000D01*
X605829Y152826D01*
X604837Y152163D01*
X604174Y151171D01*
X604064Y150618D01*
X590841D01*
X589771Y151851D01*
X589826Y152331D01*
X590326Y153080D01*
X590559Y154250D01*
Y162750D01*
X590326Y163921D01*
X589663Y164913D01*
X588671Y165576D01*
X587500Y165809D01*
D02*
G37*
G36*
X606090Y167230D02*
X601770D01*
Y160410D01*
X603500D01*
X604491Y160607D01*
X605331Y161169D01*
X605893Y162009D01*
X606090Y163000D01*
Y167230D01*
D02*
G37*
G36*
X599230D02*
X594910D01*
Y163000D01*
X595107Y162009D01*
X595669Y161169D01*
X596509Y160607D01*
X597500Y160410D01*
X599230D01*
Y167230D01*
D02*
G37*
G36*
X538230Y162730D02*
X532660D01*
Y159750D01*
X532857Y158759D01*
X533419Y157919D01*
X534259Y157357D01*
X535250Y157160D01*
X538230D01*
Y162730D01*
D02*
G37*
G36*
X807650Y160340D02*
X804420D01*
Y150020D01*
X814740D01*
Y153250D01*
X814543Y154241D01*
X813981Y155081D01*
X809481Y159581D01*
X808641Y160143D01*
X807650Y160340D01*
D02*
G37*
G36*
X801880D02*
X798650D01*
X797659Y160143D01*
X796819Y159581D01*
X792319Y155081D01*
X791757Y154241D01*
X791560Y153250D01*
Y150020D01*
X801880D01*
Y160340D01*
D02*
G37*
G36*
X537500Y153090D02*
X535770D01*
Y146270D01*
X540090D01*
Y150500D01*
X539893Y151491D01*
X539331Y152331D01*
X538491Y152893D01*
X537500Y153090D01*
D02*
G37*
G36*
X533230D02*
X531500D01*
X530509Y152893D01*
X529669Y152331D01*
X529107Y151491D01*
X528910Y150500D01*
Y146270D01*
X533230D01*
Y153090D01*
D02*
G37*
G36*
X411000Y159309D02*
X401000D01*
X399829Y159076D01*
X398837Y158413D01*
X398174Y157421D01*
X397941Y156250D01*
Y143750D01*
X398174Y142579D01*
X398837Y141587D01*
X399829Y140924D01*
X401000Y140691D01*
X411000D01*
X412170Y140924D01*
X413163Y141587D01*
X413826Y142579D01*
X414059Y143750D01*
Y143883D01*
X423534D01*
X424053Y143667D01*
X425750Y143444D01*
X427447Y143667D01*
X429028Y144322D01*
X430386Y145364D01*
X431428Y146722D01*
X432083Y148303D01*
X432306Y150000D01*
X432083Y151697D01*
X431428Y153278D01*
X430386Y154636D01*
X429028Y155678D01*
X427447Y156333D01*
X425750Y156556D01*
X424053Y156333D01*
X423534Y156118D01*
X414059D01*
Y156250D01*
X413826Y157421D01*
X413163Y158413D01*
X412170Y159076D01*
X411000Y159309D01*
D02*
G37*
G36*
X540090Y143730D02*
X535770D01*
Y136910D01*
X537500D01*
X538491Y137107D01*
X539331Y137669D01*
X539893Y138509D01*
X540090Y139500D01*
Y143730D01*
D02*
G37*
G36*
X533230D02*
X528910D01*
Y139500D01*
X529107Y138509D01*
X529669Y137669D01*
X530509Y137107D01*
X531500Y136910D01*
X533230D01*
Y143730D01*
D02*
G37*
G36*
X633250Y224118D02*
X502000D01*
X499659Y223652D01*
X497674Y222326D01*
X451466Y176118D01*
X413249D01*
X412864Y177388D01*
X413163Y177587D01*
X413826Y178580D01*
X414059Y179750D01*
Y179883D01*
X423534D01*
X424053Y179667D01*
X425750Y179444D01*
X427447Y179667D01*
X429028Y180322D01*
X430386Y181364D01*
X431428Y182722D01*
X432083Y184303D01*
X432306Y186000D01*
X432083Y187697D01*
X431428Y189278D01*
X430386Y190636D01*
X429028Y191678D01*
X427447Y192333D01*
X425750Y192556D01*
X424053Y192333D01*
X423534Y192118D01*
X414059D01*
Y192250D01*
X413826Y193421D01*
X413163Y194413D01*
X412170Y195076D01*
X411000Y195309D01*
X401000D01*
X399829Y195076D01*
X398837Y194413D01*
X398174Y193421D01*
X397941Y192250D01*
Y179750D01*
X398174Y178580D01*
X398837Y177587D01*
X399136Y177388D01*
X398750Y176118D01*
X393249D01*
X392864Y177388D01*
X393163Y177587D01*
X393826Y178580D01*
X394059Y179750D01*
Y192250D01*
X393826Y193421D01*
X393163Y194413D01*
X392170Y195076D01*
X391000Y195309D01*
X381000D01*
X379829Y195076D01*
X378837Y194413D01*
X378174Y193421D01*
X377941Y192250D01*
Y179750D01*
X378174Y178580D01*
X378837Y177587D01*
X379829Y176924D01*
X379882Y176914D01*
Y159087D01*
X379829Y159076D01*
X378837Y158413D01*
X378174Y157421D01*
X377941Y156250D01*
Y143750D01*
X378174Y142579D01*
X378837Y141587D01*
X379829Y140924D01*
X379882Y140914D01*
Y123087D01*
X379829Y123076D01*
X378837Y122413D01*
X378174Y121421D01*
X377941Y120250D01*
Y107750D01*
X378174Y106580D01*
X378837Y105587D01*
X379829Y104924D01*
X381000Y104691D01*
X391000D01*
X392170Y104924D01*
X393163Y105587D01*
X393826Y106580D01*
X394059Y107750D01*
Y120250D01*
X393826Y121421D01*
X393163Y122413D01*
X392170Y123076D01*
X392118Y123087D01*
Y140914D01*
X392170Y140924D01*
X393163Y141587D01*
X393826Y142579D01*
X394059Y143750D01*
Y156250D01*
X393826Y157421D01*
X393163Y158413D01*
X392170Y159076D01*
X392118Y159087D01*
Y163883D01*
X454000D01*
X456341Y164348D01*
X458326Y165674D01*
X504534Y211882D01*
X546626D01*
X546995Y210908D01*
X547053Y210613D01*
X546424Y209671D01*
X546191Y208500D01*
Y200000D01*
X546424Y198829D01*
X547087Y197837D01*
X548079Y197174D01*
X548402Y197110D01*
Y193289D01*
X547329Y193076D01*
X546337Y192413D01*
X545674Y191421D01*
X545441Y190250D01*
Y177750D01*
X545674Y176579D01*
X546337Y175587D01*
X547329Y174924D01*
X548402Y174711D01*
Y171140D01*
X548079Y171076D01*
X547087Y170413D01*
X546987Y170263D01*
X545790Y170108D01*
X545413Y170194D01*
X544741Y170643D01*
X543750Y170840D01*
X540770D01*
Y164000D01*
Y157160D01*
X543750D01*
X544741Y157357D01*
X545413Y157807D01*
X545790Y157892D01*
X546987Y157737D01*
X547087Y157587D01*
X548079Y156924D01*
X548402Y156860D01*
Y152706D01*
X548337Y152663D01*
X547674Y151671D01*
X547441Y150500D01*
Y139500D01*
X547674Y138329D01*
X548337Y137337D01*
X549329Y136674D01*
X550500Y136441D01*
X556500D01*
X557671Y136674D01*
X558663Y137337D01*
X559326Y138329D01*
X559559Y139500D01*
Y150500D01*
X559326Y151671D01*
X558663Y152663D01*
X558598Y152706D01*
Y156860D01*
X558921Y156924D01*
X559913Y157587D01*
X560576Y158580D01*
X560809Y159750D01*
Y168250D01*
X560576Y169421D01*
X559913Y170413D01*
X558921Y171076D01*
X558598Y171140D01*
Y174711D01*
X559670Y174924D01*
X560663Y175587D01*
X561326Y176579D01*
X561559Y177750D01*
Y190250D01*
X561326Y191421D01*
X560663Y192413D01*
X559670Y193076D01*
X558598Y193289D01*
Y197110D01*
X558921Y197174D01*
X559913Y197837D01*
X561087D01*
X562079Y197174D01*
X563250Y196941D01*
X571750D01*
X572920Y197174D01*
X573913Y197837D01*
X574576Y198829D01*
X574809Y200000D01*
Y208500D01*
X574576Y209671D01*
X573947Y210613D01*
X574006Y210908D01*
X574374Y211882D01*
X590290D01*
X591032Y210760D01*
X590573Y209868D01*
X587250D01*
X584909Y209402D01*
X582924Y208076D01*
X581598Y206091D01*
X581132Y203750D01*
Y187250D01*
X581598Y184909D01*
X582660Y183319D01*
Y180750D01*
X582857Y179759D01*
X583419Y178919D01*
X584259Y178357D01*
X585250Y178160D01*
X588230D01*
Y185000D01*
X590770D01*
Y178160D01*
X593750D01*
X594741Y178357D01*
X595413Y178806D01*
X595790Y178892D01*
X596987Y178737D01*
X597087Y178587D01*
X598079Y177924D01*
X598403Y177860D01*
X598278Y176590D01*
X597500D01*
X596509Y176393D01*
X595669Y175831D01*
X595107Y174991D01*
X594910Y174000D01*
Y169770D01*
X606090D01*
Y174000D01*
X605893Y174991D01*
X605331Y175831D01*
X604491Y176393D01*
X604347Y176421D01*
X604472Y177691D01*
X607750D01*
X608921Y177924D01*
X609913Y178587D01*
X610110Y178883D01*
X612807D01*
X612837Y178837D01*
X613382Y178473D01*
Y168500D01*
X613441Y168204D01*
Y163000D01*
X613674Y161829D01*
X614337Y160837D01*
X615329Y160174D01*
X616500Y159941D01*
X622500D01*
X623671Y160174D01*
X624663Y160837D01*
X625326Y161829D01*
X625559Y163000D01*
Y168204D01*
X625617Y168500D01*
Y177119D01*
X626875Y177808D01*
X627132Y177653D01*
Y132110D01*
X627081Y132076D01*
X625663Y131913D01*
X624670Y132576D01*
X623500Y132809D01*
X615000D01*
X613829Y132576D01*
X612837Y131913D01*
X612174Y130921D01*
X611941Y129750D01*
Y121250D01*
X612174Y120079D01*
X612837Y119087D01*
X613132Y118890D01*
Y116436D01*
X612579Y116326D01*
X611587Y115663D01*
X610924Y114671D01*
X610691Y113500D01*
Y101000D01*
X610924Y99830D01*
X611587Y98837D01*
X612579Y98174D01*
X612632Y98164D01*
Y95110D01*
X612337Y94913D01*
X612237Y94763D01*
X611040Y94608D01*
X610663Y94694D01*
X609991Y95143D01*
X609000Y95340D01*
X606020D01*
Y88500D01*
Y81660D01*
X609000D01*
X609991Y81857D01*
X610663Y82306D01*
X611040Y82392D01*
X612237Y82237D01*
X612337Y82087D01*
X613330Y81424D01*
X614500Y81191D01*
X623000D01*
X624170Y81424D01*
X625163Y82087D01*
X625826Y83080D01*
X625890Y83402D01*
X629000D01*
X630951Y83790D01*
X632605Y84895D01*
X635605Y87895D01*
X636710Y89549D01*
X637098Y91500D01*
Y93191D01*
X641955D01*
X642250Y93132D01*
X642545Y93191D01*
X647750D01*
X648921Y93424D01*
X649913Y94087D01*
X650576Y95079D01*
X650809Y96250D01*
Y102250D01*
X650576Y103420D01*
X649913Y104413D01*
X648921Y105076D01*
X647750Y105309D01*
X642546D01*
X642250Y105368D01*
X641954Y105309D01*
X636750D01*
X635579Y105076D01*
X634587Y104413D01*
X634544Y104348D01*
X632000D01*
X630049Y103960D01*
X628395Y102855D01*
X628079Y102381D01*
X626809Y102767D01*
Y113500D01*
X626576Y114671D01*
X625913Y115663D01*
X625368Y116027D01*
Y118890D01*
X625419Y118924D01*
X626837Y119087D01*
X627830Y118424D01*
X629000Y118191D01*
X637500D01*
X638671Y118424D01*
X638841Y118538D01*
X640111Y117859D01*
Y115000D01*
X640502Y113034D01*
X641616Y111367D01*
X643283Y110253D01*
X645250Y109861D01*
X646480D01*
Y119000D01*
Y128139D01*
X645250D01*
X643283Y127748D01*
X641829Y126776D01*
X640559Y127163D01*
Y129750D01*
X640326Y130921D01*
X639663Y131913D01*
X639367Y132110D01*
Y142633D01*
X716518D01*
X718391Y140191D01*
X720898Y138268D01*
X723817Y137059D01*
X726950Y136646D01*
X730083Y137059D01*
X733002Y138268D01*
X735508Y140191D01*
X737432Y142698D01*
X738641Y145617D01*
X738934Y147845D01*
X739009Y148416D01*
X740290D01*
X740366Y147845D01*
X740659Y145617D01*
X741868Y142698D01*
X743792Y140191D01*
X746298Y138268D01*
X749217Y137059D01*
X752350Y136646D01*
X755483Y137059D01*
X758402Y138268D01*
X760909Y140191D01*
X762832Y142698D01*
X764041Y145617D01*
X764334Y147845D01*
X764409Y148416D01*
X765690D01*
X765766Y147845D01*
X766059Y145617D01*
X767268Y142698D01*
X769192Y140191D01*
X771698Y138268D01*
X774617Y137059D01*
X777750Y136646D01*
X780883Y137059D01*
X783802Y138268D01*
X786309Y140191D01*
X788232Y142698D01*
X789441Y145617D01*
X789854Y148750D01*
X789441Y151883D01*
X788232Y154802D01*
X786309Y157309D01*
X783802Y159232D01*
X780883Y160441D01*
X777750Y160854D01*
X774617Y160441D01*
X771698Y159232D01*
X769192Y157309D01*
X767268Y154802D01*
X766059Y151883D01*
X765766Y149655D01*
X765690Y149084D01*
X764409D01*
X764334Y149655D01*
X764041Y151883D01*
X762832Y154802D01*
X760909Y157309D01*
X758402Y159232D01*
X755483Y160441D01*
X752350Y160854D01*
X749217Y160441D01*
X746298Y159232D01*
X743792Y157309D01*
X741868Y154802D01*
X740659Y151883D01*
X740366Y149655D01*
X740290Y149084D01*
X739009D01*
X738934Y149655D01*
X738641Y151883D01*
X737432Y154802D01*
X735508Y157309D01*
X733002Y159232D01*
X730083Y160441D01*
X726950Y160854D01*
X723817Y160441D01*
X720898Y159232D01*
X718391Y157309D01*
X716518Y154868D01*
X641284D01*
X639367Y156784D01*
Y158618D01*
X640638Y159003D01*
X641285Y158035D01*
X643104Y156819D01*
X645250Y156392D01*
X650250D01*
X652396Y156819D01*
X654215Y158035D01*
X654861Y159002D01*
X656389D01*
X657035Y158035D01*
X658854Y156819D01*
X661000Y156392D01*
X666000D01*
X668146Y156819D01*
X669965Y158035D01*
X670611Y159002D01*
X672139D01*
X672785Y158035D01*
X674604Y156819D01*
X676750Y156392D01*
X681750D01*
X683896Y156819D01*
X685715Y158035D01*
X686931Y159854D01*
X687358Y162000D01*
Y170000D01*
X686931Y172146D01*
X685715Y173965D01*
X685368Y174198D01*
Y191784D01*
X685583Y192303D01*
X685806Y194000D01*
X685583Y195697D01*
X684928Y197278D01*
X683886Y198636D01*
X682528Y199678D01*
X680947Y200333D01*
X679250Y200556D01*
X677553Y200333D01*
X675972Y199678D01*
X674614Y198636D01*
X673572Y197278D01*
X672917Y195697D01*
X672694Y194000D01*
X672917Y192303D01*
X673132Y191784D01*
Y174198D01*
X672785Y173965D01*
X672139Y172999D01*
X670611D01*
X669965Y173965D01*
X669617Y174198D01*
Y191784D01*
X669833Y192303D01*
X670056Y194000D01*
X669833Y195697D01*
X669178Y197278D01*
X668136Y198636D01*
X666778Y199678D01*
X665197Y200333D01*
X663500Y200556D01*
X661803Y200333D01*
X660222Y199678D01*
X658864Y198636D01*
X657822Y197278D01*
X657167Y195697D01*
X656944Y194000D01*
X657167Y192303D01*
X657382Y191784D01*
Y174198D01*
X657035Y173965D01*
X656389Y172999D01*
X654861D01*
X654215Y173965D01*
X653867Y174198D01*
Y203534D01*
X654083Y204053D01*
X654306Y205750D01*
X654083Y207447D01*
X653428Y209028D01*
X652386Y210386D01*
X651028Y211428D01*
X649447Y212083D01*
X647750Y212306D01*
X646053Y212083D01*
X644472Y211428D01*
X643114Y210386D01*
X642072Y209028D01*
X641417Y207447D01*
X641194Y205750D01*
X641417Y204053D01*
X641632Y203534D01*
Y190612D01*
X640362Y190487D01*
X640326Y190671D01*
X639663Y191663D01*
X639367Y191860D01*
Y218000D01*
X638902Y220341D01*
X637576Y222326D01*
X635591Y223652D01*
X633250Y224118D01*
D02*
G37*
G36*
X547000Y129559D02*
X541000D01*
X539829Y129326D01*
X538837Y128663D01*
X538174Y127671D01*
X538064Y127118D01*
X520943D01*
X520913Y127163D01*
X519921Y127826D01*
X518750Y128059D01*
X510250D01*
X509079Y127826D01*
X508087Y127163D01*
X506913D01*
X505920Y127826D01*
X504750Y128059D01*
X496250D01*
X495079Y127826D01*
X494087Y127163D01*
X493890Y126868D01*
X450250D01*
X447909Y126402D01*
X445924Y125076D01*
X440966Y120118D01*
X414059D01*
Y120250D01*
X413826Y121421D01*
X413163Y122413D01*
X412170Y123076D01*
X411000Y123309D01*
X401000D01*
X399829Y123076D01*
X398837Y122413D01*
X398174Y121421D01*
X397941Y120250D01*
Y107750D01*
X398174Y106580D01*
X398837Y105587D01*
X399829Y104924D01*
X401000Y104691D01*
X411000D01*
X412170Y104924D01*
X413163Y105587D01*
X413826Y106580D01*
X414059Y107750D01*
Y107882D01*
X443500D01*
X445841Y108348D01*
X447826Y109674D01*
X452784Y114633D01*
X493890D01*
X494087Y114337D01*
X495079Y113674D01*
X496250Y113441D01*
X504750D01*
X505920Y113674D01*
X506913Y114337D01*
X508087D01*
X509079Y113674D01*
X510250Y113441D01*
X518750D01*
X519921Y113674D01*
X520913Y114337D01*
X521277Y114882D01*
X538064D01*
X538174Y114330D01*
X538837Y113337D01*
X539829Y112674D01*
X541000Y112441D01*
X547000D01*
X548171Y112674D01*
X549163Y113337D01*
X549826Y114330D01*
X550059Y115500D01*
Y120704D01*
X550117Y121000D01*
X550059Y121295D01*
Y126500D01*
X549826Y127671D01*
X549163Y128663D01*
X548171Y129326D01*
X547000Y129559D01*
D02*
G37*
G36*
X1045000Y173111D02*
X1040491Y172667D01*
X1036156Y171352D01*
X1032160Y169216D01*
X1028658Y166342D01*
X1025784Y162840D01*
X1023648Y158844D01*
X1022333Y154509D01*
X1021889Y150000D01*
X1022333Y145491D01*
X1023648Y141156D01*
X1025784Y137160D01*
X1028658Y133658D01*
X1032160Y130784D01*
X1036156Y128648D01*
X1040491Y127333D01*
X1045000Y126889D01*
X1049509Y127333D01*
X1053844Y128648D01*
X1057840Y130784D01*
X1061342Y133658D01*
X1064216Y137160D01*
X1066352Y141156D01*
X1067667Y145491D01*
X1068111Y150000D01*
X1067667Y154509D01*
X1066352Y158844D01*
X1064216Y162840D01*
X1061342Y166342D01*
X1057840Y169216D01*
X1053844Y171352D01*
X1049509Y172667D01*
X1045000Y173111D01*
D02*
G37*
G36*
X814740Y147480D02*
X791560D01*
Y144250D01*
X791757Y143259D01*
X792319Y142419D01*
X796819Y137919D01*
X797032Y137776D01*
Y135434D01*
X786716Y125118D01*
X686397D01*
X685384Y126634D01*
X683716Y127748D01*
X681750Y128139D01*
X680520D01*
Y119000D01*
Y109861D01*
X681750D01*
X683716Y110253D01*
X685384Y111367D01*
X686397Y112882D01*
X789250D01*
X791591Y113348D01*
X793576Y114674D01*
X807476Y128574D01*
X808802Y130559D01*
X809268Y132900D01*
Y137776D01*
X809481Y137919D01*
X813981Y142419D01*
X814543Y143259D01*
X814740Y144250D01*
Y147480D01*
D02*
G37*
G36*
X677980Y128139D02*
X676750D01*
X674783Y127748D01*
X673116Y126634D01*
X672103Y125118D01*
X670647D01*
X669634Y126634D01*
X667966Y127748D01*
X666000Y128139D01*
X664770D01*
Y119000D01*
Y109861D01*
X666000D01*
X667966Y110253D01*
X669634Y111367D01*
X670647Y112882D01*
X672103D01*
X673116Y111367D01*
X674783Y110253D01*
X676750Y109861D01*
X677980D01*
Y119000D01*
Y128139D01*
D02*
G37*
G36*
X662230D02*
X661000D01*
X659034Y127748D01*
X657366Y126634D01*
X656353Y125118D01*
X654897D01*
X653884Y126634D01*
X652216Y127748D01*
X650250Y128139D01*
X649020D01*
Y119000D01*
Y109861D01*
X650250D01*
X652216Y110253D01*
X653884Y111367D01*
X654897Y112882D01*
X656353D01*
X657366Y111367D01*
X659034Y110253D01*
X661000Y109861D01*
X662230D01*
Y119000D01*
Y128139D01*
D02*
G37*
G36*
X603750Y116090D02*
X600020D01*
Y108520D01*
X606340D01*
Y113500D01*
X606143Y114491D01*
X605581Y115331D01*
X604741Y115893D01*
X603750Y116090D01*
D02*
G37*
G36*
X597480D02*
X593750D01*
X592759Y115893D01*
X591919Y115331D01*
X591357Y114491D01*
X591160Y113500D01*
Y108520D01*
X597480D01*
Y116090D01*
D02*
G37*
G36*
X606340Y105980D02*
X600020D01*
Y98410D01*
X603750D01*
X604741Y98607D01*
X605581Y99169D01*
X606143Y100009D01*
X606340Y101000D01*
Y105980D01*
D02*
G37*
G36*
X597480D02*
X591160D01*
Y101000D01*
X591357Y100009D01*
X591919Y99169D01*
X592759Y98607D01*
X593750Y98410D01*
X597480D01*
Y105980D01*
D02*
G37*
G36*
X703250Y97059D02*
X694750D01*
X693579Y96826D01*
X692587Y96163D01*
X691413D01*
X690421Y96826D01*
X689250Y97059D01*
X680750D01*
X679579Y96826D01*
X678587Y96163D01*
X677924Y95171D01*
X677860Y94848D01*
X673956D01*
X673913Y94913D01*
X672921Y95576D01*
X671750Y95809D01*
X660750D01*
X659579Y95576D01*
X658587Y94913D01*
X657924Y93920D01*
X657691Y92750D01*
Y86750D01*
X657924Y85580D01*
X658587Y84587D01*
X659579Y83924D01*
X660750Y83691D01*
X671750D01*
X672921Y83924D01*
X673913Y84587D01*
X673956Y84652D01*
X677860D01*
X677924Y84330D01*
X678587Y83337D01*
X679579Y82674D01*
X680750Y82441D01*
X689250D01*
X690421Y82674D01*
X691413Y83337D01*
X692587D01*
X693579Y82674D01*
X694750Y82441D01*
X703250D01*
X704420Y82674D01*
X705413Y83337D01*
X705610Y83632D01*
X715034D01*
X715553Y83417D01*
X717250Y83194D01*
X718947Y83417D01*
X720528Y84072D01*
X721886Y85114D01*
X722928Y86472D01*
X723583Y88053D01*
X723806Y89750D01*
X723583Y91447D01*
X722928Y93028D01*
X721886Y94386D01*
X720528Y95428D01*
X718947Y96083D01*
X717250Y96306D01*
X715553Y96083D01*
X715034Y95868D01*
X705610D01*
X705413Y96163D01*
X704420Y96826D01*
X703250Y97059D01*
D02*
G37*
G36*
X603480Y95340D02*
X600500D01*
X599509Y95143D01*
X598669Y94581D01*
X598107Y93741D01*
X597910Y92750D01*
Y89770D01*
X603480D01*
Y95340D01*
D02*
G37*
G36*
Y87230D02*
X597910D01*
Y84250D01*
X598107Y83259D01*
X598669Y82419D01*
X599509Y81857D01*
X600500Y81660D01*
X603480D01*
Y87230D01*
D02*
G37*
G36*
X647750Y85840D02*
X643520D01*
Y81520D01*
X650340D01*
Y83250D01*
X650143Y84241D01*
X649581Y85081D01*
X648741Y85643D01*
X647750Y85840D01*
D02*
G37*
G36*
X640980D02*
X636750D01*
X635759Y85643D01*
X634919Y85081D01*
X634357Y84241D01*
X634160Y83250D01*
Y81520D01*
X640980D01*
Y85840D01*
D02*
G37*
G36*
X650340Y78980D02*
X643520D01*
Y74660D01*
X647750D01*
X648741Y74857D01*
X649581Y75419D01*
X650143Y76259D01*
X650340Y77250D01*
Y78980D01*
D02*
G37*
G36*
X640980D02*
X634160D01*
Y77250D01*
X634357Y76259D01*
X634919Y75419D01*
X635759Y74857D01*
X636750Y74660D01*
X640980D01*
Y78980D01*
D02*
G37*
%LPD*%
D10*
X1265260Y714958D02*
X1300260D01*
X1265260Y689558D02*
X1300260D01*
X1265260Y740358D02*
X1300260D01*
X1265260Y404958D02*
X1300260D01*
X1265260Y379558D02*
X1300260D01*
X1265260Y430358D02*
X1300260D01*
Y379558D02*
X1330860D01*
X1361248Y409947D02*
X1330860Y379558D01*
Y740358D02*
X1361248Y709970D01*
X1300260Y740358D02*
X1330860D01*
X1361248Y709970D02*
Y409947D01*
X1300260Y404958D02*
X1324260D01*
X1338260Y418958D02*
X1324260Y404958D01*
Y714958D02*
X1338260Y700958D01*
X1300260Y714958D02*
X1324260D01*
X1338260Y700958D02*
Y418958D01*
D11*
X262600Y207000D02*
D03*
Y193000D02*
D03*
X583250Y158500D02*
D03*
Y144500D02*
D03*
X408000Y472013D02*
D03*
Y486013D02*
D03*
X394000D02*
D03*
Y472013D02*
D03*
D12*
X216000Y172000D02*
D03*
X186000D02*
D03*
D13*
X216000D02*
X232600D01*
X253600Y193000D01*
X168000Y172000D02*
X186000D01*
X157000Y183000D02*
X168000Y172000D01*
X152600Y183000D02*
X157000D01*
X169800Y227800D02*
X187300D01*
X139352Y197352D02*
X169800Y227800D01*
X139352Y197352D02*
X152600Y183000D01*
X251000Y207000D02*
X262600D01*
X230200Y227800D02*
X251000Y207000D01*
X212700Y227800D02*
X230200D01*
X253600Y193000D02*
X262600D01*
X1236990Y847342D02*
X857190D01*
X884990Y700042D02*
X856990D01*
X842990D02*
Y782042D01*
X824990Y800042D01*
Y810042D01*
Y850042D01*
X856990Y1014542D02*
X862490Y1020042D01*
X884990D02*
X862490D01*
X857190Y847342D02*
X856990Y847542D01*
Y700042D02*
Y847542D01*
Y1014542D01*
X647750Y205750D02*
Y166000D01*
X679250Y194000D02*
Y166000D01*
X663500Y194000D02*
Y166000D01*
X638750Y148750D02*
X726950D01*
X633250Y154250D02*
X638750Y148750D01*
X633250Y185250D02*
Y154250D01*
X619000Y203750D02*
Y185500D01*
X619250Y185250D01*
X619500Y185000D02*
Y168500D01*
X619250Y185250D02*
X619500Y185000D01*
X603500D02*
X619000D01*
X619250Y185250D02*
X619000Y185000D01*
X587250Y203750D02*
X599000D01*
X587250D02*
Y187250D01*
X589500Y185000D01*
X647750Y119000D02*
X663500D01*
X679250D01*
X803150Y148750D02*
Y132900D01*
X789250Y119000D01*
X679250D02*
X789250D01*
X583250Y144500D02*
X610000D01*
X583250D02*
X583250Y144500D01*
X619250Y125500D02*
Y107750D01*
X618750Y107250D01*
X618750Y107250D02*
Y88500D01*
X618750Y107250D02*
X618750Y107250D01*
X633250Y154250D02*
Y125500D01*
X642250Y99250D02*
X642250Y99250D01*
X633250Y218000D02*
Y185250D01*
X568000Y218000D02*
X633250D01*
X568000D02*
X567500Y217500D01*
Y204250D01*
X514750Y121000D02*
X544000D01*
X514750D02*
X514500Y120750D01*
X450250D02*
X500500D01*
X450250D02*
X443500Y114000D01*
X406000D02*
X443500D01*
X406000Y186000D02*
X425750D01*
X571750Y158500D02*
X583250D01*
X699000Y89750D02*
X717250D01*
X406000Y150000D02*
X425750D01*
X502000Y218000D02*
X568000D01*
X502000D02*
X454000Y170000D01*
X387500D02*
X454000D01*
X386000Y171500D02*
X387500Y170000D01*
X386000Y186000D02*
Y171500D01*
Y150000D01*
Y114000D01*
D14*
X824990Y850042D02*
D03*
Y870042D02*
D03*
D15*
X856990Y700042D02*
D03*
X842990D02*
D03*
X1255000Y98815D02*
D03*
X1241000D02*
D03*
X500500Y120750D02*
D03*
X514500D02*
D03*
X567500Y204250D02*
D03*
X553500D02*
D03*
X699000Y89750D02*
D03*
X685000D02*
D03*
X633250Y125500D02*
D03*
X619250D02*
D03*
X633250Y185250D02*
D03*
X619250D02*
D03*
X553500Y164000D02*
D03*
X539500D02*
D03*
X618750Y88500D02*
D03*
X604750D02*
D03*
X603500Y185000D02*
D03*
X589500D02*
D03*
X1015291Y386827D02*
D03*
X1001291D02*
D03*
X393000Y515013D02*
D03*
X407000D02*
D03*
D16*
X1294520Y97062D02*
D03*
X1283383Y108198D02*
D03*
X1272246Y119335D02*
D03*
X1305480Y152570D02*
D03*
X1316617Y141433D02*
D03*
X1327754Y130296D02*
D03*
D17*
X1362500Y218416D02*
Y187316D01*
X1316617Y141433D01*
X1362500Y243815D02*
X1344500Y261815D01*
X1322310D01*
X1322000Y261506D01*
Y169089D01*
X1305480Y152570D01*
X1294520Y97062D02*
X1283383Y108198D01*
X1272246Y119335D01*
X1274000Y98815D02*
X1255000D01*
X1283383Y108198D02*
X1274000Y98815D01*
X1241000D02*
X1238000D01*
X1223962Y112854D01*
X1129541Y303527D02*
X1064991Y368077D01*
X1048291D01*
X1129541Y278127D02*
X1055341Y352327D01*
X1048291D01*
X1129541Y252727D02*
Y254705D01*
X1060791Y323455D01*
Y335577D01*
X1059791Y336577D01*
X1048291D01*
X1001291D02*
Y352327D01*
Y368077D01*
Y386827D01*
X1004941Y426677D02*
Y460827D01*
X1015291Y416327D02*
X1004941Y426677D01*
X1015291Y386827D02*
Y416327D01*
X1048291Y352327D02*
X1031541D01*
X1021791Y342577D02*
X1031541Y352327D01*
X1021791Y316827D02*
Y342577D01*
Y316827D02*
X1002791D01*
X928741Y444127D02*
Y460827D01*
X976309Y343309D02*
Y438659D01*
X954141Y460827D01*
X968769Y404099D02*
X928741Y444127D01*
X968769Y340186D02*
Y404099D01*
X1027733Y281222D02*
X968769Y340186D01*
X1002791Y316827D02*
X976309Y343309D01*
X1129541Y252727D02*
X1073276D01*
X1068348Y257655D01*
X1059531D01*
X1058296Y258890D01*
X1034753Y274648D02*
X1028179Y281222D01*
X1027733D01*
X1058296Y258890D02*
X1057449D01*
X1041691Y274648D01*
X1034753D01*
D18*
X1223962Y112854D02*
X1155039D01*
Y98777D01*
X1157300Y96516D02*
X1155039Y98777D01*
X1207300Y96516D02*
X1182700D01*
X1232000Y71816D02*
X1207300Y96516D01*
X1269000Y71816D02*
X1232000D01*
X1283110Y85925D02*
X1269000Y71816D01*
X1296169Y85925D02*
X1283110D01*
X1333000Y122757D02*
X1296169Y85925D01*
X1333000Y125050D02*
Y122757D01*
Y125050D02*
X1327754Y130296D01*
X419000Y461013D02*
X424000D01*
X413000Y455013D02*
X419000Y461013D01*
X413000Y442013D02*
Y455013D01*
X408000Y461513D02*
Y472013D01*
X402500Y456013D02*
X408000Y461513D01*
X387000Y456013D02*
X402500D01*
X387000Y442013D02*
Y456013D01*
D19*
X679250Y166000D02*
D03*
X663500D02*
D03*
X647750D02*
D03*
Y119000D02*
D03*
X663500D02*
D03*
X679250D02*
D03*
D20*
X406000Y114000D02*
D03*
X386000D02*
D03*
X406000Y150000D02*
D03*
X386000D02*
D03*
X406000Y186000D02*
D03*
X386000D02*
D03*
X533500Y184000D02*
D03*
X553500D02*
D03*
X598750Y107250D02*
D03*
X618750D02*
D03*
X599000Y203750D02*
D03*
X619000D02*
D03*
D21*
X553500Y145000D02*
D03*
X534500D02*
D03*
X544000Y121000D02*
D03*
X619500Y168500D02*
D03*
X600500D02*
D03*
X610000Y144500D02*
D03*
D22*
X642250Y99250D02*
D03*
Y80250D02*
D03*
X666250Y89750D02*
D03*
D23*
X618750Y88500D02*
X629000D01*
X632000Y91500D02*
X629000Y88500D01*
X632000Y99250D02*
Y91500D01*
Y99250D02*
X642250D01*
X666250Y89750D02*
X685000D01*
X685000Y89750D02*
X685000Y89750D01*
X553500Y164000D02*
Y145000D01*
X553500Y164000D02*
X553500Y164000D01*
X553500Y184000D02*
Y164000D01*
Y204250D02*
Y184000D01*
X553500Y204250D02*
X553500Y204250D01*
D24*
X1048291Y336577D02*
D03*
Y352327D02*
D03*
Y368077D02*
D03*
X1001291D02*
D03*
Y352327D02*
D03*
Y336577D02*
D03*
D25*
X230000Y763013D02*
G03*
X221676Y759565I0J-11772D01*
G01*
X390000Y515013D02*
X394250D01*
X230000Y763013D02*
X512000D01*
X221676Y759565D02*
X221676Y759565D01*
X188000Y708013D02*
X221676Y759565D01*
X444000Y539013D02*
X548650Y725011D01*
X512000Y763013D02*
X548650Y725011D01*
X248000Y665013D02*
X279000Y696013D01*
X247350Y723011D02*
X279000Y696013D01*
X232000Y673013D02*
X234650Y701014D01*
X189000Y679013D02*
X232000Y673013D01*
X188000Y708013D02*
X189000Y679013D01*
X394000Y484763D02*
Y498763D01*
X380000Y472013D02*
Y479013D01*
Y472013D02*
X394000D01*
X420000Y487013D02*
Y509013D01*
X419000Y486013D02*
X420000Y487013D01*
X408000Y486013D02*
X419000D01*
X405750Y515013D02*
Y523263D01*
X407500Y525013D01*
Y533013D01*
X392500D02*
Y541513D01*
X396000Y545013D01*
X414000D01*
X420000Y539013D01*
Y509013D02*
Y539013D01*
X380000Y479013D02*
Y505013D01*
X390000Y515013D01*
X394000Y498763D02*
X394250Y499013D01*
X248000Y665013D02*
X380000Y533013D01*
Y505013D02*
Y533013D01*
X420000Y539013D02*
X444000D01*
D26*
X413000Y442013D02*
D03*
X406500D02*
D03*
X400000D02*
D03*
X393500D02*
D03*
X387000D02*
D03*
D27*
X407500Y533013D02*
D03*
X392500D02*
D03*
D28*
X17500Y17500D02*
D03*
X1492500Y1132500D02*
D03*
D29*
X859260Y546958D02*
D03*
Y572358D02*
D03*
X1236990Y847342D02*
D03*
Y872742D02*
D03*
X1362500Y243815D02*
D03*
Y218416D02*
D03*
X1337100Y243815D02*
D03*
Y218416D02*
D03*
X777750Y148750D02*
D03*
X752350D02*
D03*
X726950D02*
D03*
X979541Y460827D02*
D03*
X954141D02*
D03*
X928741D02*
D03*
X1129541Y328927D02*
D03*
Y252727D02*
D03*
Y278127D02*
D03*
Y303527D02*
D03*
D30*
X1265260Y689558D02*
D03*
Y430358D02*
D03*
X1300260Y740358D02*
D03*
Y379558D02*
D03*
X884990Y725442D02*
D03*
Y1045442D02*
D03*
X1157300Y96516D02*
D03*
D31*
X1265260Y714958D02*
D03*
Y740358D02*
D03*
Y404958D02*
D03*
Y379558D02*
D03*
X1300260Y714958D02*
D03*
Y689558D02*
D03*
Y404958D02*
D03*
Y430358D02*
D03*
X187300Y227800D02*
D03*
X212700D02*
D03*
X884990Y674642D02*
D03*
Y700042D02*
D03*
Y994642D02*
D03*
Y1020042D02*
D03*
X1157300Y71115D02*
D03*
X1182700D02*
D03*
Y96516D02*
D03*
X247350Y723011D02*
D03*
X234650Y701014D02*
D03*
X561350Y703014D02*
D03*
X548650Y725011D02*
D03*
D32*
X260000Y250000D02*
D03*
X140000D02*
D03*
Y150000D02*
D03*
X260000D02*
D03*
X445000Y225000D02*
D03*
Y75000D02*
D03*
X1045000Y150000D02*
D03*
D33*
X90000Y310000D02*
D03*
X310000D02*
D03*
Y90000D02*
D03*
X90000D02*
D03*
X400000Y903013D02*
D03*
X150000Y470003D02*
D03*
X650000D02*
D03*
D34*
X824990Y810042D02*
D03*
X647750Y205750D02*
D03*
X679250Y194000D02*
D03*
X663500D02*
D03*
X425750Y186000D02*
D03*
X571750Y158500D02*
D03*
X717250Y89750D02*
D03*
X425750Y150000D02*
D03*
X424000Y461013D02*
D03*
X394250Y499013D02*
D03*
D35*
X803150Y148750D02*
D03*
X1004941Y460827D02*
D03*
D36*
X375750Y436813D02*
D03*
X424250D02*
D03*
D37*
X363750Y410013D02*
D03*
X436250D02*
D03*
M02*
