G04 Layer_Color=16711935*
%FSLAX44Y44*%
%MOMM*%
G71*
G01*
G75*
%ADD43R,1.0532X1.0532*%
%ADD45R,1.4532X1.2032*%
%ADD46R,1.0532X1.0532*%
G04:AMPARAMS|DCode=52|XSize=1.5032mm|YSize=1.2032mm|CornerRadius=0.3516mm|HoleSize=0mm|Usage=FLASHONLY|Rotation=180.000|XOffset=0mm|YOffset=0mm|HoleType=Round|Shape=RoundedRectangle|*
%AMROUNDEDRECTD52*
21,1,1.5032,0.5000,0,0,180.0*
21,1,0.8000,1.2032,0,0,180.0*
1,1,0.7032,-0.4000,0.2500*
1,1,0.7032,0.4000,0.2500*
1,1,0.7032,0.4000,-0.2500*
1,1,0.7032,-0.4000,-0.2500*
%
%ADD52ROUNDEDRECTD52*%
%ADD55C,0.2032*%
%ADD56C,1.7272*%
%ADD57C,2.0032*%
%ADD58R,2.2032X2.2032*%
%ADD59C,2.2032*%
G04:AMPARAMS|DCode=60|XSize=0.2032mm|YSize=0.2032mm|CornerRadius=0mm|HoleSize=0mm|Usage=FLASHONLY|Rotation=0.000|XOffset=0mm|YOffset=0mm|HoleType=Round|Shape=RoundedRectangle|*
%AMROUNDEDRECTD60*
21,1,0.2032,0.2032,0,0,0.0*
21,1,0.2032,0.2032,0,0,0.0*
1,1,0.0000,0.1016,-0.1016*
1,1,0.0000,-0.1016,-0.1016*
1,1,0.0000,-0.1016,0.1016*
1,1,0.0000,0.1016,0.1016*
%
%ADD60ROUNDEDRECTD60*%
%ADD61C,4.2032*%
%ADD62C,6.2032*%
%ADD63C,0.9032*%
%ADD64P,2.1683X8X202.5*%
G04:AMPARAMS|DCode=65|XSize=0.2032mm|YSize=0.2032mm|CornerRadius=0mm|HoleSize=0mm|Usage=FLASHONLY|Rotation=240.000|XOffset=0mm|YOffset=0mm|HoleType=Round|Shape=RoundedRectangle|*
%AMROUNDEDRECTD65*
21,1,0.2032,0.2032,0,0,240.0*
21,1,0.2032,0.2032,0,0,240.0*
1,1,0.0000,-0.1388,-0.0372*
1,1,0.0000,-0.0372,0.1388*
1,1,0.0000,0.1388,0.0372*
1,1,0.0000,0.0372,-0.1388*
%
%ADD65ROUNDEDRECTD65*%
G04:AMPARAMS|DCode=66|XSize=0.2032mm|YSize=0.2032mm|CornerRadius=0mm|HoleSize=0mm|Usage=FLASHONLY|Rotation=120.000|XOffset=0mm|YOffset=0mm|HoleType=Round|Shape=RoundedRectangle|*
%AMROUNDEDRECTD66*
21,1,0.2032,0.2032,0,0,120.0*
21,1,0.2032,0.2032,0,0,120.0*
1,1,0.0000,0.0372,0.1388*
1,1,0.0000,0.1388,-0.0372*
1,1,0.0000,-0.0372,-0.1388*
1,1,0.0000,-0.1388,0.0372*
%
%ADD66ROUNDEDRECTD66*%
%ADD67C,1.4032*%
%ADD68C,2.8432*%
D43*
X663500Y205250D02*
D03*
Y219250D02*
D03*
D45*
X824990Y870042D02*
D03*
Y850042D02*
D03*
D46*
X647750Y220000D02*
D03*
X633750D02*
D03*
X679250Y207250D02*
D03*
X693250D02*
D03*
X1015041Y386827D02*
D03*
X1001041D02*
D03*
D52*
X1048291Y368327D02*
D03*
Y352577D02*
D03*
Y336827D02*
D03*
X1001291D02*
D03*
Y352577D02*
D03*
Y368327D02*
D03*
D55*
X1170541Y281805D02*
D03*
Y274804D02*
D03*
X1171000Y268000D02*
D03*
Y256000D02*
D03*
X204500Y367750D02*
D03*
X211000D02*
D03*
X224250D02*
D03*
X217750D02*
D03*
X230500D02*
D03*
X231000Y352500D02*
D03*
X218250D02*
D03*
X224750D02*
D03*
X211500D02*
D03*
X205000D02*
D03*
X174500Y47750D02*
D03*
X181000D02*
D03*
X194250D02*
D03*
X187750D02*
D03*
X200500D02*
D03*
X47500Y221000D02*
D03*
Y208250D02*
D03*
Y214750D02*
D03*
Y201500D02*
D03*
Y195000D02*
D03*
X352250Y124500D02*
D03*
Y131000D02*
D03*
Y144250D02*
D03*
Y137750D02*
D03*
Y150500D02*
D03*
X367500Y151000D02*
D03*
Y138250D02*
D03*
Y144750D02*
D03*
Y131500D02*
D03*
Y125000D02*
D03*
X519000Y47500D02*
D03*
X531750D02*
D03*
X525250D02*
D03*
X538500D02*
D03*
X545000D02*
D03*
X779000D02*
D03*
X791750D02*
D03*
X785250D02*
D03*
X798500D02*
D03*
X805000D02*
D03*
X1365500Y286250D02*
D03*
X1359000D02*
D03*
X1345750D02*
D03*
X1352250D02*
D03*
X1339500D02*
D03*
X1432500Y549000D02*
D03*
Y561750D02*
D03*
Y555250D02*
D03*
Y568500D02*
D03*
Y575000D02*
D03*
X1382500Y846500D02*
D03*
Y859250D02*
D03*
Y852750D02*
D03*
Y866000D02*
D03*
Y872500D02*
D03*
X1023500Y902500D02*
D03*
X1010750D02*
D03*
X1017250D02*
D03*
X1004000D02*
D03*
X997500D02*
D03*
X1228500D02*
D03*
X1215750D02*
D03*
X1222250D02*
D03*
X1209000D02*
D03*
X1202500D02*
D03*
X552000Y367750D02*
D03*
X558500D02*
D03*
X571750D02*
D03*
X565250D02*
D03*
X578000D02*
D03*
X578000Y252000D02*
D03*
X566000D02*
D03*
X572000D02*
D03*
X559000D02*
D03*
X552500Y252500D02*
D03*
X977093Y502315D02*
D03*
X983593D02*
D03*
X996843D02*
D03*
X990343D02*
D03*
X1003093D02*
D03*
X1002593Y517565D02*
D03*
X989843D02*
D03*
X996343D02*
D03*
X983093D02*
D03*
X976593D02*
D03*
X202000Y767000D02*
D03*
X198000Y761000D02*
D03*
X194000Y754000D02*
D03*
X190000Y747000D02*
D03*
X186000Y740000D02*
D03*
X182000Y733000D02*
D03*
X178000Y726000D02*
D03*
X174000Y718000D02*
D03*
X169000Y711000D02*
D03*
X165000Y703000D02*
D03*
X572000Y809000D02*
D03*
X567000Y817000D02*
D03*
X563000Y824000D02*
D03*
X559000Y831000D02*
D03*
X554000Y838000D02*
D03*
X550000Y845000D02*
D03*
X778000Y844000D02*
D03*
Y837000D02*
D03*
Y830000D02*
D03*
Y823000D02*
D03*
Y816000D02*
D03*
Y809000D02*
D03*
X986000Y602500D02*
D03*
X973250D02*
D03*
X979750D02*
D03*
X966500D02*
D03*
X960000D02*
D03*
X1176000D02*
D03*
X1163250D02*
D03*
X1169750D02*
D03*
X1156500D02*
D03*
X1150000D02*
D03*
X1175500Y817750D02*
D03*
X1162750D02*
D03*
X1169250D02*
D03*
X1156000D02*
D03*
X1149500D02*
D03*
X985500D02*
D03*
X972750D02*
D03*
X979250D02*
D03*
X966000D02*
D03*
X959500D02*
D03*
X1138250Y71500D02*
D03*
Y84250D02*
D03*
Y77750D02*
D03*
Y91000D02*
D03*
Y97500D02*
D03*
X1017000Y105000D02*
D03*
X1009000Y102000D02*
D03*
X1000000Y99000D02*
D03*
X991000Y95000D02*
D03*
X981000Y91000D02*
D03*
X971000Y87000D02*
D03*
X962000Y84000D02*
D03*
X953000Y81000D02*
D03*
X944000Y77000D02*
D03*
X936000Y74000D02*
D03*
X925000Y70000D02*
D03*
X915000Y67000D02*
D03*
X1171000Y262000D02*
D03*
X1315000Y257000D02*
D03*
Y249000D02*
D03*
D56*
X17500Y17500D02*
D03*
X1492500Y1132500D02*
D03*
D57*
X859260Y546958D02*
D03*
Y572358D02*
D03*
X1236990Y847342D02*
D03*
Y872742D02*
D03*
X1362500Y243815D02*
D03*
Y218416D02*
D03*
X1337100Y243815D02*
D03*
Y218416D02*
D03*
X777750Y148750D02*
D03*
X752350D02*
D03*
X726950D02*
D03*
X979541Y460827D02*
D03*
X954141D02*
D03*
X928741D02*
D03*
X1129541Y328927D02*
D03*
Y252727D02*
D03*
Y278127D02*
D03*
Y303527D02*
D03*
D58*
X1265260Y689558D02*
D03*
Y430358D02*
D03*
X1300260Y740358D02*
D03*
Y379558D02*
D03*
X884990Y725442D02*
D03*
Y1045442D02*
D03*
X1157300Y96516D02*
D03*
D59*
X1265260Y714958D02*
D03*
Y740358D02*
D03*
Y404958D02*
D03*
Y379558D02*
D03*
X1300260Y714958D02*
D03*
Y689558D02*
D03*
Y404958D02*
D03*
Y430358D02*
D03*
X187300Y227800D02*
D03*
X212700D02*
D03*
X884990Y674642D02*
D03*
Y700042D02*
D03*
Y994642D02*
D03*
Y1020042D02*
D03*
X1157300Y71115D02*
D03*
X1182700D02*
D03*
Y96516D02*
D03*
X247350Y723011D02*
D03*
X234650Y701014D02*
D03*
X561350Y703014D02*
D03*
X548650Y725011D02*
D03*
D60*
X200000Y205000D02*
D03*
D61*
X260000Y250000D02*
D03*
X140000D02*
D03*
Y150000D02*
D03*
X260000D02*
D03*
X445000Y225000D02*
D03*
Y75000D02*
D03*
X1045000Y150000D02*
D03*
D62*
X90000Y310000D02*
D03*
X310000D02*
D03*
Y90000D02*
D03*
X90000D02*
D03*
X400000Y903013D02*
D03*
X150000Y470003D02*
D03*
X650000D02*
D03*
D63*
X824990Y810042D02*
D03*
X647750Y205750D02*
D03*
X679250Y194000D02*
D03*
X663500D02*
D03*
X425750Y186000D02*
D03*
X571750Y158500D02*
D03*
X717250Y89750D02*
D03*
X425750Y150000D02*
D03*
X424000Y461013D02*
D03*
X394250Y499013D02*
D03*
D64*
X803150Y148750D02*
D03*
X1004941Y460827D02*
D03*
D65*
X221255Y723413D02*
D03*
D66*
X574745Y725413D02*
D03*
D67*
X375750Y436813D02*
D03*
X424250D02*
D03*
D68*
X363750Y410013D02*
D03*
X436250D02*
D03*
M02*
