G04 Layer_Color=32896*
%FSLAX44Y44*%
%MOMM*%
G71*
G01*
G75*
%ADD38C,0.2000*%
%ADD69C,0.0254*%
%ADD70C,0.0508*%
G36*
X1063510Y355166D02*
X1063529Y355400D01*
X1063627Y355829D01*
X1063783Y356219D01*
X1063958Y356531D01*
X1064134Y356804D01*
X1064270Y356999D01*
X1064348Y357058D01*
X1064387Y357117D01*
X1064407Y357136D01*
X1064426Y357155D01*
X1064602Y357312D01*
X1064778Y357468D01*
X1065168Y357702D01*
X1065538Y357858D01*
X1065889Y357975D01*
X1066182Y358053D01*
X1066319Y358072D01*
X1066436D01*
X1066514Y358092D01*
X1066592D01*
X1066631D01*
X1066650D01*
X1069284D01*
X1069459Y358072D01*
X1069576Y358014D01*
X1069674Y357916D01*
X1069732Y357838D01*
X1069771Y357741D01*
X1069791Y357643D01*
Y348085D01*
X1069771Y347909D01*
X1069713Y347792D01*
X1069615Y347695D01*
X1069518Y347636D01*
X1069440Y347597D01*
X1069342Y347577D01*
X1069284D01*
X1069264D01*
X1069089Y347597D01*
X1068952Y347655D01*
X1068874Y347753D01*
X1068796Y347850D01*
X1068757Y347929D01*
X1068737Y348026D01*
Y351791D01*
X1066650D01*
X1066572D01*
X1066514D01*
X1066475Y351772D01*
X1066455D01*
X1064504Y347870D01*
X1064446Y347772D01*
X1064368Y347695D01*
X1064290Y347655D01*
X1064192Y347616D01*
X1064075Y347577D01*
X1064036D01*
X1064017D01*
X1063880Y347597D01*
X1063763Y347655D01*
X1063685Y347714D01*
X1063666Y347733D01*
X1063568Y347850D01*
X1063510Y347968D01*
X1063490Y348046D01*
Y348182D01*
X1063510Y348260D01*
X1063529Y348319D01*
X1063549Y348338D01*
X1065382Y352006D01*
X1065051Y352162D01*
X1064758Y352337D01*
X1064504Y352552D01*
X1064290Y352786D01*
X1064095Y353020D01*
X1063958Y353254D01*
X1063822Y353508D01*
X1063724Y353742D01*
X1063646Y353976D01*
X1063588Y354210D01*
X1063549Y354405D01*
X1063510Y354580D01*
Y354717D01*
X1063490Y354834D01*
Y354932D01*
X1063510Y355166D01*
D02*
G37*
G36*
Y375241D02*
X1063568Y375377D01*
X1063666Y375455D01*
X1063744Y375533D01*
X1063841Y375572D01*
X1063939Y375592D01*
X1063997D01*
X1064017D01*
X1067177D01*
X1067567Y375553D01*
X1067918Y375475D01*
X1068250Y375338D01*
X1068503Y375202D01*
X1068737Y375065D01*
X1068894Y374929D01*
X1068991Y374851D01*
X1069030Y374812D01*
X1069284Y374519D01*
X1069479Y374207D01*
X1069596Y373895D01*
X1069693Y373602D01*
X1069752Y373349D01*
X1069771Y373134D01*
X1069791Y373056D01*
Y367691D01*
X1069752Y367301D01*
X1069674Y366950D01*
X1069557Y366618D01*
X1069401Y366365D01*
X1069264Y366131D01*
X1069147Y365975D01*
X1069069Y365877D01*
X1069030Y365838D01*
X1068737Y365585D01*
X1068425Y365390D01*
X1068113Y365272D01*
X1067821Y365175D01*
X1067567Y365116D01*
X1067352Y365097D01*
X1067274Y365077D01*
X1067216D01*
X1067196D01*
X1067177D01*
X1064017D01*
X1063841Y365097D01*
X1063705Y365155D01*
X1063627Y365233D01*
X1063549Y365331D01*
X1063510Y365429D01*
X1063490Y365507D01*
Y370852D01*
X1063510Y371027D01*
X1063568Y371164D01*
X1063666Y371242D01*
X1063744Y371320D01*
X1063841Y371359D01*
X1063939Y371378D01*
X1063997D01*
X1064017D01*
X1065597D01*
X1065772Y371359D01*
X1065909Y371300D01*
X1065987Y371203D01*
X1066065Y371125D01*
X1066104Y371027D01*
X1066124Y370930D01*
Y370852D01*
X1066104Y370676D01*
X1066046Y370539D01*
X1065948Y370461D01*
X1065850Y370383D01*
X1065772Y370344D01*
X1065675Y370325D01*
X1065616D01*
X1065597D01*
X1064543D01*
Y366131D01*
X1067177D01*
X1067411Y366150D01*
X1067626Y366209D01*
X1067821Y366267D01*
X1067977Y366365D01*
X1068113Y366443D01*
X1068211Y366502D01*
X1068269Y366560D01*
X1068289Y366580D01*
X1068445Y366755D01*
X1068542Y366950D01*
X1068620Y367126D01*
X1068679Y367301D01*
X1068718Y367457D01*
X1068737Y367574D01*
Y372958D01*
X1068718Y373192D01*
X1068659Y373407D01*
X1068601Y373602D01*
X1068503Y373758D01*
X1068425Y373895D01*
X1068367Y373992D01*
X1068308Y374051D01*
X1068289Y374070D01*
X1068113Y374226D01*
X1067918Y374343D01*
X1067743Y374421D01*
X1067567Y374480D01*
X1067411Y374519D01*
X1067294Y374538D01*
X1067196D01*
X1067177D01*
X1064017D01*
X1063841Y374558D01*
X1063705Y374616D01*
X1063627Y374714D01*
X1063549Y374812D01*
X1063510Y374889D01*
X1063490Y374987D01*
Y375065D01*
X1063510Y375241D01*
D02*
G37*
G36*
Y336050D02*
X1063549Y336342D01*
X1063627Y336635D01*
X1063724Y336889D01*
X1063841Y337142D01*
X1063958Y337357D01*
X1064095Y337552D01*
X1064231Y337747D01*
X1064387Y337903D01*
X1064524Y338040D01*
X1064641Y338157D01*
X1064758Y338234D01*
X1064855Y338313D01*
X1064934Y338371D01*
X1064973Y338391D01*
X1064992Y338410D01*
X1064817Y338566D01*
X1064660Y338722D01*
X1064543Y338898D01*
X1064426Y339054D01*
X1064251Y339405D01*
X1064134Y339737D01*
X1064075Y340010D01*
X1064036Y340244D01*
X1064017Y340341D01*
Y340458D01*
X1064056Y340868D01*
X1064134Y341219D01*
X1064251Y341531D01*
X1064387Y341804D01*
X1064543Y342038D01*
X1064660Y342195D01*
X1064738Y342292D01*
X1064778Y342331D01*
X1065070Y342585D01*
X1065382Y342780D01*
X1065694Y342916D01*
X1066006Y342994D01*
X1066260Y343053D01*
X1066455Y343072D01*
X1066533Y343092D01*
X1066592D01*
X1066631D01*
X1066650D01*
X1069284D01*
X1069459Y343072D01*
X1069576Y343014D01*
X1069674Y342916D01*
X1069732Y342838D01*
X1069771Y342741D01*
X1069791Y342643D01*
Y333085D01*
X1069771Y332909D01*
X1069713Y332792D01*
X1069635Y332695D01*
X1069537Y332636D01*
X1069440Y332597D01*
X1069362Y332577D01*
X1069303D01*
X1069284D01*
X1066650D01*
X1066416Y332597D01*
X1066182Y332617D01*
X1065753Y332714D01*
X1065363Y332870D01*
X1065051Y333046D01*
X1064778Y333202D01*
X1064582Y333358D01*
X1064524Y333416D01*
X1064465Y333455D01*
X1064446Y333494D01*
X1064426D01*
X1064270Y333670D01*
X1064114Y333845D01*
X1063880Y334236D01*
X1063724Y334606D01*
X1063607Y334957D01*
X1063529Y335250D01*
X1063510Y335387D01*
Y335504D01*
X1063490Y335601D01*
Y335718D01*
X1063510Y336050D01*
D02*
G37*
%LPC*%
G36*
X1064543Y355088D02*
Y354932D01*
X1064563Y354619D01*
X1064641Y354327D01*
X1064738Y354073D01*
X1064855Y353859D01*
X1064973Y353683D01*
X1065070Y353566D01*
X1065148Y353469D01*
X1065168Y353449D01*
X1065402Y353254D01*
X1065655Y353098D01*
X1065909Y353000D01*
X1066143Y352922D01*
X1066338Y352883D01*
X1066494Y352864D01*
X1066611Y352844D01*
X1066631D01*
X1066650D01*
X1068737D01*
Y357038D01*
X1066650D01*
X1066338Y357019D01*
X1066046Y356941D01*
X1065792Y356843D01*
X1065577Y356726D01*
X1065402Y356609D01*
X1065285Y356512D01*
X1065187Y356434D01*
X1065168Y356414D01*
X1064953Y356180D01*
X1064797Y355927D01*
X1064699Y355673D01*
X1064621Y355439D01*
X1064582Y355244D01*
X1064543Y355088D01*
D02*
G37*
G36*
X1065070Y340575D02*
Y340458D01*
X1065090Y340224D01*
X1065148Y340010D01*
X1065226Y339815D01*
X1065304Y339639D01*
X1065382Y339502D01*
X1065460Y339405D01*
X1065519Y339346D01*
X1065538Y339327D01*
X1065714Y339171D01*
X1065909Y339073D01*
X1066104Y338995D01*
X1066260Y338937D01*
X1066416Y338898D01*
X1066533Y338878D01*
X1066631D01*
X1066650D01*
X1068737D01*
Y342038D01*
X1066650D01*
X1066416Y342019D01*
X1066201Y341960D01*
X1066006Y341882D01*
X1065850Y341804D01*
X1065714Y341726D01*
X1065616Y341648D01*
X1065558Y341590D01*
X1065538Y341570D01*
X1065382Y341395D01*
X1065265Y341200D01*
X1065187Y341005D01*
X1065129Y340849D01*
X1065090Y340692D01*
X1065070Y340575D01*
D02*
G37*
G36*
X1064543Y335874D02*
Y335718D01*
X1064563Y335406D01*
X1064641Y335113D01*
X1064738Y334860D01*
X1064855Y334645D01*
X1064973Y334470D01*
X1065070Y334353D01*
X1065148Y334255D01*
X1065168Y334236D01*
X1065402Y334040D01*
X1065655Y333884D01*
X1065909Y333787D01*
X1066143Y333709D01*
X1066338Y333670D01*
X1066494Y333650D01*
X1066611Y333631D01*
X1066631D01*
X1066650D01*
X1068737D01*
Y337825D01*
X1066650D01*
X1066338Y337805D01*
X1066046Y337727D01*
X1065792Y337630D01*
X1065577Y337513D01*
X1065402Y337396D01*
X1065285Y337298D01*
X1065187Y337220D01*
X1065168Y337201D01*
X1064953Y336967D01*
X1064797Y336713D01*
X1064699Y336459D01*
X1064621Y336225D01*
X1064582Y336030D01*
X1064543Y335874D01*
D02*
G37*
%LPD*%
D38*
X1293910Y702258D02*
X1287560Y695908D01*
Y683208D01*
X1293910Y676858D01*
X1306610D01*
X1312960Y683208D02*
X1306610Y676858D01*
X1312960Y695908D02*
Y683208D01*
X1306610Y702258D02*
X1312960Y695908D01*
Y753058D02*
Y727658D01*
X1306610D02*
X1312960Y721308D01*
Y708608D01*
X1306610Y702258D01*
X1293910D02*
X1306610D01*
X1287560Y708608D02*
X1293910Y702258D01*
X1287560Y721308D02*
Y708608D01*
X1293910Y727658D02*
X1287560Y721308D01*
Y753058D02*
X1312960D01*
X1287560Y727658D02*
X1312960D01*
X1287560Y753058D02*
Y727658D01*
X1312960Y424008D02*
X1306610Y417658D01*
X1312960Y436708D02*
Y424008D01*
X1306610Y443058D02*
X1312960Y436708D01*
X1293910Y443058D02*
X1306610D01*
X1293910D02*
X1287560Y436708D01*
Y424008D01*
X1293910Y417658D01*
X1287560Y392258D02*
Y366858D01*
Y398608D02*
X1293910Y392258D01*
X1287560Y411308D02*
Y398608D01*
X1293910Y417658D02*
X1287560Y411308D01*
X1293910Y417658D02*
X1306610D01*
X1312960Y411308D01*
Y398608D01*
X1306610Y392258D01*
X1287560Y366858D02*
X1312960D01*
X1287560Y392258D02*
X1312960D01*
Y366858D01*
X816740Y843042D02*
Y877042D01*
X833240Y843042D02*
Y877042D01*
X816740D01*
X833240Y843042D02*
X816740D01*
X669750Y225500D02*
Y199000D01*
X657250Y225500D02*
Y199000D01*
X669750D01*
X657250Y225500D02*
X669750D01*
X627500Y226250D02*
X654000D01*
X627500Y213750D02*
X654000D01*
Y226250D02*
Y213750D01*
X627500Y226250D02*
Y213750D01*
X673000Y201000D02*
X699500D01*
X673000Y213500D02*
X699500D01*
X673000D02*
Y201000D01*
X699500Y213500D02*
Y201000D01*
X1014791Y342577D02*
Y362577D01*
X1034791Y342577D02*
Y362577D01*
X1037291Y352577D02*
X1012291D01*
X1014791D02*
X1034791Y362577D01*
Y342577D02*
X1014791Y352577D01*
X1021291Y393077D02*
X994791D01*
X1021291Y380577D02*
X994791D01*
X1021291D02*
Y393077D01*
X994791Y380577D02*
Y393077D01*
D69*
X199238Y145082D02*
X202540D01*
X197206Y144828D02*
X204572D01*
X195682Y144574D02*
X205842D01*
X194666Y144320D02*
X206858D01*
X193904Y144066D02*
X207874D01*
X193142Y143812D02*
X208636D01*
X192634Y143558D02*
X209144D01*
X191872Y143304D02*
X209906D01*
X191364Y143050D02*
X210414D01*
X190856Y142796D02*
X210922D01*
X190348Y142542D02*
X211430D01*
X189840Y142288D02*
X211938D01*
X189332Y142034D02*
X212446D01*
X189078Y141780D02*
X212700D01*
X188570Y141526D02*
X213208D01*
X188062Y141272D02*
X213462D01*
X187808Y141018D02*
X213970D01*
X187554Y140764D02*
X214224D01*
X187046Y140510D02*
X214478D01*
X186792Y140256D02*
X214986D01*
X186538Y140002D02*
X215240D01*
X186284Y139748D02*
X215494D01*
X185776Y139494D02*
X215748D01*
X185522Y139240D02*
X215748D01*
X185268Y138986D02*
X216002D01*
X213716Y138732D02*
X216002D01*
X203556D02*
X212700D01*
X185014D02*
X198222D01*
X213970Y138478D02*
X216256D01*
X204826D02*
X212192D01*
X184760D02*
X196952D01*
X214224Y138224D02*
X216256D01*
X205588D02*
X212192D01*
X184506D02*
X195936D01*
X214224Y137970D02*
X216256D01*
X206350D02*
X211938D01*
X184252D02*
X195174D01*
X214224Y137716D02*
X216256D01*
X207112D02*
X211938D01*
X183998D02*
X194666D01*
X214224Y137462D02*
X216256D01*
X207620D02*
X211938D01*
X183998D02*
X194158D01*
X214224Y137208D02*
X216256D01*
X208128D02*
X211938D01*
X183744D02*
X193650D01*
X213970Y136954D02*
X216256D01*
X208636D02*
X212192D01*
X183490D02*
X193142D01*
X213716Y136700D02*
X216002D01*
X209144D02*
X212446D01*
X198222D02*
X203556D01*
X183236D02*
X192634D01*
X209652Y136446D02*
X216002D01*
X196952D02*
X204572D01*
X182982D02*
X192126D01*
X209906Y136192D02*
X215748D01*
X196190D02*
X205588D01*
X182728D02*
X191872D01*
X210414Y135938D02*
X215748D01*
X195428D02*
X206096D01*
X182728D02*
X191364D01*
X210668Y135684D02*
X215494D01*
X194920D02*
X206858D01*
X182474D02*
X191110D01*
X210922Y135430D02*
X215240D01*
X194412D02*
X207366D01*
X182220D02*
X190856D01*
X211430Y135176D02*
X214986D01*
X193904D02*
X207874D01*
X182220D02*
X190348D01*
X211684Y134922D02*
X214478D01*
X193396D02*
X208128D01*
X181966D02*
X190094D01*
X212446Y134668D02*
X213716D01*
X192888D02*
X208636D01*
X181712D02*
X189840D01*
X192634Y134414D02*
X209144D01*
X181712D02*
X189586D01*
X192380Y134160D02*
X209398D01*
X181458D02*
X189332D01*
X191872Y133906D02*
X209652D01*
X181204D02*
X189078D01*
X191618Y133652D02*
X209906D01*
X181204D02*
X188824D01*
X191364Y133398D02*
X210414D01*
X180950D02*
X188570D01*
X191110Y133144D02*
X210668D01*
X180950D02*
X188316D01*
X191110Y132890D02*
X210922D01*
X180696D02*
X188062D01*
X190856Y132636D02*
X211176D01*
X180696D02*
X188062D01*
X190856Y132382D02*
X211430D01*
X180442D02*
X187808D01*
X190602Y132128D02*
X211684D01*
X180442D02*
X187554D01*
X190602Y131874D02*
X211938D01*
X180188D02*
X187300D01*
X190602Y131620D02*
X211938D01*
X180188D02*
X187300D01*
X190602Y131366D02*
X212192D01*
X179934D02*
X187046D01*
X190602Y131112D02*
X212446D01*
X179934D02*
X186792D01*
X190602Y130858D02*
X212700D01*
X179934D02*
X186792D01*
X202286Y130604D02*
X212700D01*
X190602D02*
X199238D01*
X179680D02*
X186538D01*
X203302Y130350D02*
X212954D01*
X190856D02*
X198222D01*
X179680D02*
X186538D01*
X204064Y130096D02*
X213208D01*
X190856D02*
X197714D01*
X179426D02*
X186284D01*
X204572Y129842D02*
X213208D01*
X190856D02*
X197206D01*
X179426D02*
X186284D01*
X205080Y129588D02*
X213462D01*
X191110D02*
X196698D01*
X179426D02*
X186030D01*
X205334Y129334D02*
X213462D01*
X191364D02*
X196190D01*
X179172D02*
X186030D01*
X205842Y129080D02*
X213716D01*
X191618D02*
X195936D01*
X179172D02*
X185776D01*
X206096Y128826D02*
X213716D01*
X191872D02*
X195428D01*
X179172D02*
X185776D01*
X206350Y128572D02*
X213970D01*
X192380D02*
X195174D01*
X179172D02*
X185522D01*
X206604Y128318D02*
X213970D01*
X192888D02*
X194412D01*
X178918D02*
X185522D01*
X206858Y128064D02*
X214224D01*
X178918D02*
X185522D01*
X207112Y127810D02*
X214224D01*
X178918D02*
X185268D01*
X207366Y127556D02*
X214478D01*
X178918D02*
X185268D01*
X207620Y127302D02*
X214478D01*
X178664D02*
X185268D01*
X207620Y127048D02*
X214478D01*
X178664D02*
X185014D01*
X207874Y126794D02*
X214732D01*
X178664D02*
X185014D01*
X207874Y126540D02*
X214732D01*
X178664D02*
X185014D01*
X208128Y126286D02*
X214732D01*
X178664D02*
X184760D01*
X208382Y126032D02*
X214732D01*
X178410D02*
X184760D01*
X208382Y125778D02*
X214986D01*
X178410D02*
X184760D01*
X208382Y125524D02*
X214986D01*
X178410D02*
X201524D01*
X208636Y125270D02*
X214986D01*
X178410D02*
X202286D01*
X208636Y125016D02*
X214986D01*
X178410D02*
X202794D01*
X208636Y124762D02*
X214986D01*
X178410D02*
X203048D01*
X208890Y124508D02*
X215240D01*
X178410D02*
X203302D01*
X208890Y124254D02*
X215240D01*
X178410D02*
X203556D01*
X208890Y124000D02*
X215240D01*
X201524D02*
X203556D01*
X178410D02*
X200000D01*
X208890Y123746D02*
X215240D01*
X202032D02*
X203810D01*
X178156D02*
X199746D01*
X208890Y123492D02*
X215240D01*
X202286D02*
X203810D01*
X178156D02*
X199492D01*
X209144Y123238D02*
X215240D01*
X202286D02*
X204064D01*
X178156D02*
X199492D01*
X209144Y122984D02*
X215240D01*
X202540D02*
X204064D01*
X178156D02*
X199238D01*
X209144Y122730D02*
X215240D01*
X202540D02*
X204064D01*
X178156D02*
X199238D01*
X209144Y122476D02*
X215240D01*
X202540D02*
X204064D01*
X178156D02*
X199238D01*
X209144Y122222D02*
X215240D01*
X202540D02*
X204064D01*
X178156D02*
X199238D01*
X209144Y121968D02*
X215240D01*
X202540D02*
X204064D01*
X178156D02*
X199238D01*
X208890Y121714D02*
X215240D01*
X202286D02*
X203810D01*
X178156D02*
X199492D01*
X208890Y121460D02*
X215240D01*
X202032D02*
X203810D01*
X178156D02*
X199492D01*
X208890Y121206D02*
X215240D01*
X201778D02*
X203810D01*
X178410D02*
X200000D01*
X208890Y120952D02*
X215240D01*
X201270D02*
X203556D01*
X178410D02*
X200254D01*
X208890Y120698D02*
X215240D01*
X178410D02*
X203556D01*
X208890Y120444D02*
X214986D01*
X178410D02*
X203302D01*
X208636Y120190D02*
X214986D01*
X178410D02*
X203048D01*
X208636Y119936D02*
X214986D01*
X178410D02*
X202794D01*
X208636Y119682D02*
X214986D01*
X178410D02*
X202286D01*
X208382Y119428D02*
X214986D01*
X178410D02*
X201270D01*
X208382Y119174D02*
X214986D01*
X178410D02*
X184760D01*
X208128Y118920D02*
X214732D01*
X178410D02*
X184760D01*
X208128Y118666D02*
X214732D01*
X178664D02*
X185014D01*
X207874Y118412D02*
X214732D01*
X178664D02*
X185014D01*
X207874Y118158D02*
X214478D01*
X178664D02*
X185014D01*
X207620Y117904D02*
X214478D01*
X178664D02*
X185014D01*
X207366Y117650D02*
X214478D01*
X178664D02*
X185268D01*
X207112Y117396D02*
X214224D01*
X178918D02*
X185268D01*
X207112Y117142D02*
X214224D01*
X178918D02*
X185268D01*
X206858Y116888D02*
X214224D01*
X178918D02*
X185522D01*
X206604Y116634D02*
X213970D01*
X192634D02*
X194666D01*
X178918D02*
X185522D01*
X206350Y116380D02*
X213970D01*
X192126D02*
X195428D01*
X179172D02*
X185776D01*
X205842Y116126D02*
X213716D01*
X191618D02*
X195682D01*
X179172D02*
X185776D01*
X205588Y115872D02*
X213716D01*
X191364D02*
X195936D01*
X179172D02*
X185776D01*
X205334Y115618D02*
X213462D01*
X191364D02*
X196444D01*
X179426D02*
X186030D01*
X204826Y115364D02*
X213462D01*
X191110D02*
X196698D01*
X179426D02*
X186030D01*
X204318Y115110D02*
X213208D01*
X190856D02*
X197206D01*
X179426D02*
X186284D01*
X203810Y114856D02*
X212954D01*
X190856D02*
X197968D01*
X179680D02*
X186284D01*
X203048Y114602D02*
X212954D01*
X190856D02*
X198730D01*
X179680D02*
X186538D01*
X201778Y114348D02*
X212700D01*
X190602D02*
X200000D01*
X179680D02*
X186538D01*
X190602Y114094D02*
X212446D01*
X179934D02*
X186792D01*
X190602Y113840D02*
X212446D01*
X179934D02*
X187046D01*
X190602Y113586D02*
X212192D01*
X180188D02*
X187046D01*
X190602Y113332D02*
X211938D01*
X180188D02*
X187300D01*
X190602Y113078D02*
X211684D01*
X180188D02*
X187554D01*
X190856Y112824D02*
X211430D01*
X180442D02*
X187554D01*
X190856Y112570D02*
X211176D01*
X180442D02*
X187808D01*
X190856Y112316D02*
X210922D01*
X180696D02*
X188062D01*
X191110Y112062D02*
X210668D01*
X180696D02*
X188316D01*
X191364Y111808D02*
X210414D01*
X180950D02*
X188570D01*
X191364Y111554D02*
X210160D01*
X181204D02*
X188570D01*
X191872Y111300D02*
X209906D01*
X181204D02*
X188824D01*
X192126Y111046D02*
X209652D01*
X181458D02*
X189078D01*
X192380Y110792D02*
X209144D01*
X181458D02*
X189332D01*
X192888Y110538D02*
X208890D01*
X181712D02*
X189586D01*
X212192Y110284D02*
X214224D01*
X193142D02*
X208382D01*
X181966D02*
X189840D01*
X211430Y110030D02*
X214732D01*
X193650D02*
X208128D01*
X181966D02*
X190348D01*
X211176Y109776D02*
X214986D01*
X194158D02*
X207620D01*
X182220D02*
X190602D01*
X210922Y109522D02*
X215494D01*
X194666D02*
X207112D01*
X182474D02*
X190856D01*
X210414Y109268D02*
X215494D01*
X195174D02*
X206604D01*
X182474D02*
X191110D01*
X210160Y109014D02*
X215748D01*
X195682D02*
X205842D01*
X182728D02*
X191618D01*
X209652Y108760D02*
X216002D01*
X196444D02*
X205080D01*
X182982D02*
X191872D01*
X213716Y108506D02*
X216002D01*
X209398D02*
X212700D01*
X197460D02*
X204318D01*
X183236D02*
X192380D01*
X213970Y108252D02*
X216002D01*
X208890D02*
X212192D01*
X198730D02*
X202794D01*
X183236D02*
X192888D01*
X214224Y107998D02*
X216256D01*
X208382D02*
X212192D01*
X183490D02*
X193142D01*
X214224Y107744D02*
X216256D01*
X207874D02*
X211938D01*
X183744D02*
X193650D01*
X214224Y107490D02*
X216256D01*
X207366D02*
X211938D01*
X183998D02*
X194412D01*
X214224Y107236D02*
X216256D01*
X206858D02*
X211938D01*
X184252D02*
X194920D01*
X214224Y106982D02*
X216256D01*
X206096D02*
X211938D01*
X184506D02*
X195682D01*
X213970Y106728D02*
X216256D01*
X205334D02*
X212192D01*
X184760D02*
X196444D01*
X213716Y106474D02*
X216002D01*
X204318D02*
X212446D01*
X185014D02*
X197460D01*
X202794Y106220D02*
X216002D01*
X185268D02*
X198984D01*
X185522Y105966D02*
X216002D01*
X185776Y105712D02*
X215748D01*
X186030Y105458D02*
X215494D01*
X186284Y105204D02*
X215494D01*
X186538Y104950D02*
X215240D01*
X187046Y104696D02*
X214732D01*
X187300Y104442D02*
X214478D01*
X187554Y104188D02*
X214224D01*
X188062Y103934D02*
X213716D01*
X188316Y103680D02*
X213462D01*
X188824Y103426D02*
X212954D01*
X189078Y103172D02*
X212700D01*
X189586Y102918D02*
X212192D01*
X190094Y102664D02*
X211684D01*
X190602Y102410D02*
X211176D01*
X191110Y102156D02*
X210668D01*
X191618Y101902D02*
X210160D01*
X192126Y101648D02*
X209652D01*
X192888Y101394D02*
X208890D01*
X193396Y101140D02*
X208128D01*
X194158Y100886D02*
X207366D01*
X195174Y100632D02*
X206604D01*
X196190Y100378D02*
X205334D01*
X197714Y100124D02*
X203810D01*
X1276876Y860042D02*
Y863344D01*
X1277130Y858010D02*
Y865376D01*
X1277384Y856486D02*
Y866646D01*
X1277638Y855470D02*
Y867662D01*
X1277892Y854708D02*
Y868678D01*
X1278146Y853946D02*
Y869440D01*
X1278400Y853438D02*
Y869948D01*
X1278654Y852676D02*
Y870710D01*
X1278908Y852168D02*
Y871218D01*
X1279162Y851660D02*
Y871726D01*
X1279416Y851152D02*
Y872234D01*
X1279670Y850644D02*
Y872742D01*
X1279924Y850136D02*
Y873250D01*
X1280178Y849882D02*
Y873504D01*
X1280432Y849374D02*
Y874012D01*
X1280686Y848866D02*
Y874266D01*
X1280940Y848612D02*
Y874774D01*
X1281194Y848358D02*
Y875028D01*
X1281448Y847850D02*
Y875282D01*
X1281702Y847596D02*
Y875790D01*
X1281956Y847342D02*
Y876044D01*
X1282210Y847088D02*
Y876298D01*
X1282464Y846580D02*
Y876552D01*
X1282718Y846326D02*
Y876552D01*
X1282972Y846072D02*
Y876806D01*
X1283226Y874520D02*
Y876806D01*
Y864360D02*
Y873504D01*
Y845818D02*
Y859026D01*
X1283480Y874774D02*
Y877060D01*
Y865630D02*
Y872996D01*
Y845564D02*
Y857756D01*
X1283734Y875028D02*
Y877060D01*
Y866392D02*
Y872996D01*
Y845310D02*
Y856740D01*
X1283988Y875028D02*
Y877060D01*
Y867154D02*
Y872742D01*
Y845056D02*
Y855978D01*
X1284242Y875028D02*
Y877060D01*
Y867916D02*
Y872742D01*
Y844802D02*
Y855470D01*
X1284496Y875028D02*
Y877060D01*
Y868424D02*
Y872742D01*
Y844802D02*
Y854962D01*
X1284750Y875028D02*
Y877060D01*
Y868932D02*
Y872742D01*
Y844548D02*
Y854454D01*
X1285004Y874774D02*
Y877060D01*
Y869440D02*
Y872996D01*
Y844294D02*
Y853946D01*
X1285258Y874520D02*
Y876806D01*
Y869948D02*
Y873250D01*
Y859026D02*
Y864360D01*
Y844040D02*
Y853438D01*
X1285512Y870456D02*
Y876806D01*
Y857756D02*
Y865376D01*
Y843786D02*
Y852930D01*
X1285766Y870710D02*
Y876552D01*
Y856994D02*
Y866392D01*
Y843532D02*
Y852676D01*
X1286020Y871218D02*
Y876552D01*
Y856232D02*
Y866900D01*
Y843532D02*
Y852168D01*
X1286274Y871472D02*
Y876298D01*
Y855724D02*
Y867662D01*
Y843278D02*
Y851914D01*
X1286528Y871726D02*
Y876044D01*
Y855216D02*
Y868170D01*
Y843024D02*
Y851660D01*
X1286782Y872234D02*
Y875790D01*
Y854708D02*
Y868678D01*
Y843024D02*
Y851152D01*
X1287036Y872488D02*
Y875282D01*
Y854200D02*
Y868932D01*
Y842770D02*
Y850898D01*
X1287290Y873250D02*
Y874520D01*
Y853692D02*
Y869440D01*
Y842516D02*
Y850644D01*
X1287544Y853438D02*
Y869948D01*
Y842516D02*
Y850390D01*
X1287798Y853184D02*
Y870202D01*
Y842262D02*
Y850136D01*
X1288052Y852676D02*
Y870456D01*
Y842008D02*
Y849882D01*
X1288306Y852422D02*
Y870710D01*
Y842008D02*
Y849628D01*
X1288560Y852168D02*
Y871218D01*
Y841754D02*
Y849374D01*
X1288814Y851914D02*
Y871472D01*
Y841754D02*
Y849120D01*
X1289068Y851914D02*
Y871726D01*
Y841500D02*
Y848866D01*
X1289322Y851660D02*
Y871980D01*
Y841500D02*
Y848866D01*
X1289576Y851660D02*
Y872234D01*
Y841246D02*
Y848612D01*
X1289830Y851406D02*
Y872488D01*
Y841246D02*
Y848358D01*
X1290084Y851406D02*
Y872742D01*
Y840992D02*
Y848104D01*
X1290338Y851406D02*
Y872742D01*
Y840992D02*
Y848104D01*
X1290592Y851406D02*
Y872996D01*
Y840738D02*
Y847850D01*
X1290846Y851406D02*
Y873250D01*
Y840738D02*
Y847596D01*
X1291100Y851406D02*
Y873504D01*
Y840738D02*
Y847596D01*
X1291354Y863090D02*
Y873504D01*
Y851406D02*
Y860042D01*
Y840484D02*
Y847342D01*
X1291608Y864106D02*
Y873758D01*
Y851660D02*
Y859026D01*
Y840484D02*
Y847342D01*
X1291862Y864868D02*
Y874012D01*
Y851660D02*
Y858518D01*
Y840230D02*
Y847088D01*
X1292116Y865376D02*
Y874012D01*
Y851660D02*
Y858010D01*
Y840230D02*
Y847088D01*
X1292370Y865884D02*
Y874266D01*
Y851914D02*
Y857502D01*
Y840230D02*
Y846834D01*
X1292624Y866138D02*
Y874266D01*
Y852168D02*
Y856994D01*
Y839976D02*
Y846834D01*
X1292878Y866646D02*
Y874520D01*
Y852422D02*
Y856740D01*
Y839976D02*
Y846580D01*
X1293132Y866900D02*
Y874520D01*
Y852676D02*
Y856232D01*
Y839976D02*
Y846580D01*
X1293386Y867154D02*
Y874774D01*
Y853184D02*
Y855978D01*
Y839976D02*
Y846326D01*
X1293640Y867408D02*
Y874774D01*
Y853692D02*
Y855216D01*
Y839722D02*
Y846326D01*
X1293894Y867662D02*
Y875028D01*
Y839722D02*
Y846326D01*
X1294148Y867916D02*
Y875028D01*
Y839722D02*
Y846072D01*
X1294402Y868170D02*
Y875282D01*
Y839722D02*
Y846072D01*
X1294656Y868424D02*
Y875282D01*
Y839468D02*
Y846072D01*
X1294910Y868424D02*
Y875282D01*
Y839468D02*
Y845818D01*
X1295164Y868678D02*
Y875536D01*
Y839468D02*
Y845818D01*
X1295418Y868678D02*
Y875536D01*
Y839468D02*
Y845818D01*
X1295672Y868932D02*
Y875536D01*
Y839468D02*
Y845564D01*
X1295926Y869186D02*
Y875536D01*
Y839214D02*
Y845564D01*
X1296180Y869186D02*
Y875790D01*
Y839214D02*
Y845564D01*
X1296434Y869186D02*
Y875790D01*
Y839214D02*
Y862328D01*
X1296688Y869440D02*
Y875790D01*
Y839214D02*
Y863090D01*
X1296942Y869440D02*
Y875790D01*
Y839214D02*
Y863598D01*
X1297196Y869440D02*
Y875790D01*
Y839214D02*
Y863852D01*
X1297450Y869694D02*
Y876044D01*
Y839214D02*
Y864106D01*
X1297704Y869694D02*
Y876044D01*
Y839214D02*
Y864360D01*
X1297958Y869694D02*
Y876044D01*
Y862328D02*
Y864360D01*
Y839214D02*
Y860804D01*
X1298212Y869694D02*
Y876044D01*
Y862836D02*
Y864614D01*
Y838960D02*
Y860550D01*
X1298466Y869694D02*
Y876044D01*
Y863090D02*
Y864614D01*
Y838960D02*
Y860296D01*
X1298720Y869948D02*
Y876044D01*
Y863090D02*
Y864868D01*
Y838960D02*
Y860296D01*
X1298974Y869948D02*
Y876044D01*
Y863344D02*
Y864868D01*
Y838960D02*
Y860042D01*
X1299228Y869948D02*
Y876044D01*
Y863344D02*
Y864868D01*
Y838960D02*
Y860042D01*
X1299482Y869948D02*
Y876044D01*
Y863344D02*
Y864868D01*
Y838960D02*
Y860042D01*
X1299736Y869948D02*
Y876044D01*
Y863344D02*
Y864868D01*
Y838960D02*
Y860042D01*
X1299990Y869948D02*
Y876044D01*
Y863344D02*
Y864868D01*
Y838960D02*
Y860042D01*
X1300244Y869694D02*
Y876044D01*
Y863090D02*
Y864614D01*
Y838960D02*
Y860296D01*
X1300498Y869694D02*
Y876044D01*
Y862836D02*
Y864614D01*
Y838960D02*
Y860296D01*
X1300752Y869694D02*
Y876044D01*
Y862582D02*
Y864614D01*
Y839214D02*
Y860804D01*
X1301006Y869694D02*
Y876044D01*
Y862074D02*
Y864360D01*
Y839214D02*
Y861058D01*
X1301260Y869694D02*
Y876044D01*
Y839214D02*
Y864360D01*
X1301514Y869694D02*
Y875790D01*
Y839214D02*
Y864106D01*
X1301768Y869440D02*
Y875790D01*
Y839214D02*
Y863852D01*
X1302022Y869440D02*
Y875790D01*
Y839214D02*
Y863598D01*
X1302276Y869440D02*
Y875790D01*
Y839214D02*
Y863090D01*
X1302530Y869186D02*
Y875790D01*
Y839214D02*
Y862074D01*
X1302784Y869186D02*
Y875790D01*
Y839214D02*
Y845564D01*
X1303038Y868932D02*
Y875536D01*
Y839214D02*
Y845564D01*
X1303292Y868932D02*
Y875536D01*
Y839468D02*
Y845818D01*
X1303546Y868678D02*
Y875536D01*
Y839468D02*
Y845818D01*
X1303800Y868678D02*
Y875282D01*
Y839468D02*
Y845818D01*
X1304054Y868424D02*
Y875282D01*
Y839468D02*
Y845818D01*
X1304308Y868170D02*
Y875282D01*
Y839468D02*
Y846072D01*
X1304562Y867916D02*
Y875028D01*
Y839722D02*
Y846072D01*
X1304816Y867916D02*
Y875028D01*
Y839722D02*
Y846072D01*
X1305070Y867662D02*
Y875028D01*
Y839722D02*
Y846326D01*
X1305324Y867408D02*
Y874774D01*
Y853438D02*
Y855470D01*
Y839722D02*
Y846326D01*
X1305578Y867154D02*
Y874774D01*
Y852930D02*
Y856232D01*
Y839976D02*
Y846580D01*
X1305832Y866646D02*
Y874520D01*
Y852422D02*
Y856486D01*
Y839976D02*
Y846580D01*
X1306086Y866392D02*
Y874520D01*
Y852168D02*
Y856740D01*
Y839976D02*
Y846580D01*
X1306340Y866138D02*
Y874266D01*
Y852168D02*
Y857248D01*
Y840230D02*
Y846834D01*
X1306594Y865630D02*
Y874266D01*
Y851914D02*
Y857502D01*
Y840230D02*
Y846834D01*
X1306848Y865122D02*
Y874012D01*
Y851660D02*
Y858010D01*
Y840230D02*
Y847088D01*
X1307102Y864614D02*
Y873758D01*
Y851660D02*
Y858772D01*
Y840484D02*
Y847088D01*
X1307356Y863852D02*
Y873758D01*
Y851660D02*
Y859534D01*
Y840484D02*
Y847342D01*
X1307610Y862582D02*
Y873504D01*
Y851406D02*
Y860804D01*
Y840484D02*
Y847342D01*
X1307864Y851406D02*
Y873250D01*
Y840738D02*
Y847596D01*
X1308118Y851406D02*
Y873250D01*
Y840738D02*
Y847850D01*
X1308372Y851406D02*
Y872996D01*
Y840992D02*
Y847850D01*
X1308626Y851406D02*
Y872742D01*
Y840992D02*
Y848104D01*
X1308880Y851406D02*
Y872488D01*
Y840992D02*
Y848358D01*
X1309134Y851660D02*
Y872234D01*
Y841246D02*
Y848358D01*
X1309388Y851660D02*
Y871980D01*
Y841246D02*
Y848612D01*
X1309642Y851660D02*
Y871726D01*
Y841500D02*
Y848866D01*
X1309896Y851914D02*
Y871472D01*
Y841500D02*
Y849120D01*
X1310150Y852168D02*
Y871218D01*
Y841754D02*
Y849374D01*
X1310404Y852168D02*
Y870964D01*
Y842008D02*
Y849374D01*
X1310658Y852676D02*
Y870710D01*
Y842008D02*
Y849628D01*
X1310912Y852930D02*
Y870456D01*
Y842262D02*
Y849882D01*
X1311166Y853184D02*
Y869948D01*
Y842262D02*
Y850136D01*
X1311420Y853692D02*
Y869694D01*
Y842516D02*
Y850390D01*
X1311674Y872996D02*
Y875028D01*
Y853946D02*
Y869186D01*
Y842770D02*
Y850644D01*
X1311928Y872234D02*
Y875536D01*
Y854454D02*
Y868932D01*
Y842770D02*
Y851152D01*
X1312182Y871980D02*
Y875790D01*
Y854962D02*
Y868424D01*
Y843024D02*
Y851406D01*
X1312436Y871726D02*
Y876298D01*
Y855470D02*
Y867916D01*
Y843278D02*
Y851660D01*
X1312690Y871218D02*
Y876298D01*
Y855978D02*
Y867408D01*
Y843278D02*
Y851914D01*
X1312944Y870964D02*
Y876552D01*
Y856486D02*
Y866646D01*
Y843532D02*
Y852422D01*
X1313198Y870456D02*
Y876806D01*
Y857248D02*
Y865884D01*
Y843786D02*
Y852676D01*
X1313452Y874520D02*
Y876806D01*
Y870202D02*
Y873504D01*
Y858264D02*
Y865122D01*
Y844040D02*
Y853184D01*
X1313706Y874774D02*
Y876806D01*
Y869694D02*
Y872996D01*
Y859534D02*
Y863598D01*
Y844040D02*
Y853692D01*
X1313960Y875028D02*
Y877060D01*
Y869186D02*
Y872996D01*
Y844294D02*
Y853946D01*
X1314214Y875028D02*
Y877060D01*
Y868678D02*
Y872742D01*
Y844548D02*
Y854454D01*
X1314468Y875028D02*
Y877060D01*
Y868170D02*
Y872742D01*
Y844802D02*
Y855216D01*
X1314722Y875028D02*
Y877060D01*
Y867662D02*
Y872742D01*
Y845056D02*
Y855724D01*
X1314976Y875028D02*
Y877060D01*
Y866900D02*
Y872742D01*
Y845310D02*
Y856486D01*
X1315230Y874774D02*
Y877060D01*
Y866138D02*
Y872996D01*
Y845564D02*
Y857248D01*
X1315484Y874520D02*
Y876806D01*
Y865122D02*
Y873250D01*
Y845818D02*
Y858264D01*
X1315738Y863598D02*
Y876806D01*
Y846072D02*
Y859788D01*
X1315992Y846326D02*
Y876806D01*
X1316246Y846580D02*
Y876552D01*
X1316500Y846834D02*
Y876298D01*
X1316754Y847088D02*
Y876298D01*
X1317008Y847342D02*
Y876044D01*
X1317262Y847850D02*
Y875536D01*
X1317516Y848104D02*
Y875282D01*
X1317770Y848358D02*
Y875028D01*
X1318024Y848866D02*
Y874520D01*
X1318278Y849120D02*
Y874266D01*
X1318532Y849628D02*
Y873758D01*
X1318786Y849882D02*
Y873504D01*
X1319040Y850390D02*
Y872996D01*
X1319294Y850898D02*
Y872488D01*
X1319548Y851406D02*
Y871980D01*
X1319802Y851914D02*
Y871472D01*
X1320056Y852422D02*
Y870964D01*
X1320310Y852930D02*
Y870456D01*
X1320564Y853692D02*
Y869694D01*
X1320818Y854200D02*
Y868932D01*
X1321072Y854962D02*
Y868170D01*
X1321326Y855978D02*
Y867408D01*
X1321580Y856994D02*
Y866138D01*
X1321834Y858518D02*
Y864614D01*
X955106Y147500D02*
Y144198D01*
X954852Y149532D02*
Y142166D01*
X954598Y151056D02*
Y140896D01*
X954344Y152072D02*
Y139880D01*
X954090Y152834D02*
Y138864D01*
X953836Y153596D02*
Y138102D01*
X953582Y154104D02*
Y137594D01*
X953328Y154866D02*
Y136832D01*
X953074Y155374D02*
Y136324D01*
X952820Y155882D02*
Y135816D01*
X952566Y156390D02*
Y135308D01*
X952312Y156898D02*
Y134800D01*
X952058Y157406D02*
Y134292D01*
X951804Y157660D02*
Y134038D01*
X951550Y158168D02*
Y133530D01*
X951296Y158676D02*
Y133276D01*
X951042Y158930D02*
Y132768D01*
X950788Y159184D02*
Y132514D01*
X950534Y159692D02*
Y132260D01*
X950280Y159946D02*
Y131752D01*
X950026Y160200D02*
Y131498D01*
X949772Y160454D02*
Y131244D01*
X949518Y160962D02*
Y130990D01*
X949264Y161216D02*
Y130990D01*
X949010Y161470D02*
Y130736D01*
X948756Y133022D02*
Y130736D01*
Y143182D02*
Y134038D01*
Y161724D02*
Y148516D01*
X948502Y132768D02*
Y130482D01*
Y141912D02*
Y134546D01*
Y161978D02*
Y149786D01*
X948248Y132514D02*
Y130482D01*
Y141150D02*
Y134546D01*
Y162232D02*
Y150802D01*
X947994Y132514D02*
Y130482D01*
Y140388D02*
Y134800D01*
Y162486D02*
Y151564D01*
X947740Y132514D02*
Y130482D01*
Y139626D02*
Y134800D01*
Y162740D02*
Y152072D01*
X947486Y132514D02*
Y130482D01*
Y139118D02*
Y134800D01*
Y162740D02*
Y152580D01*
X947232Y132514D02*
Y130482D01*
Y138610D02*
Y134800D01*
Y162994D02*
Y153088D01*
X946978Y132768D02*
Y130482D01*
Y138102D02*
Y134546D01*
Y163248D02*
Y153596D01*
X946724Y133022D02*
Y130736D01*
Y137594D02*
Y134292D01*
Y148516D02*
Y143182D01*
Y163502D02*
Y154104D01*
X946470Y137086D02*
Y130736D01*
Y149786D02*
Y142166D01*
Y163756D02*
Y154612D01*
X946216Y136832D02*
Y130990D01*
Y150548D02*
Y141150D01*
Y164010D02*
Y154866D01*
X945962Y136324D02*
Y130990D01*
Y151310D02*
Y140642D01*
Y164010D02*
Y155374D01*
X945708Y136070D02*
Y131244D01*
Y151818D02*
Y139880D01*
Y164264D02*
Y155628D01*
X945454Y135816D02*
Y131498D01*
Y152326D02*
Y139372D01*
Y164518D02*
Y155882D01*
X945200Y135308D02*
Y131752D01*
Y152834D02*
Y138864D01*
Y164518D02*
Y156390D01*
X944946Y135054D02*
Y132260D01*
Y153342D02*
Y138610D01*
Y164772D02*
Y156644D01*
X944692Y134292D02*
Y133022D01*
Y153850D02*
Y138102D01*
Y165026D02*
Y156898D01*
X944438Y154104D02*
Y137594D01*
Y165026D02*
Y157152D01*
X944184Y154358D02*
Y137340D01*
Y165280D02*
Y157406D01*
X943930Y154866D02*
Y137086D01*
Y165534D02*
Y157660D01*
X943676Y155120D02*
Y136832D01*
Y165534D02*
Y157914D01*
X943422Y155374D02*
Y136324D01*
Y165788D02*
Y158168D01*
X943168Y155628D02*
Y136070D01*
Y165788D02*
Y158422D01*
X942914Y155628D02*
Y135816D01*
Y166042D02*
Y158676D01*
X942660Y155882D02*
Y135562D01*
Y166042D02*
Y158676D01*
X942406Y155882D02*
Y135308D01*
Y166296D02*
Y158930D01*
X942152Y156136D02*
Y135054D01*
Y166296D02*
Y159184D01*
X941898Y156136D02*
Y134800D01*
Y166550D02*
Y159438D01*
X941644Y156136D02*
Y134800D01*
Y166550D02*
Y159438D01*
X941390Y156136D02*
Y134546D01*
Y166804D02*
Y159692D01*
X941136Y156136D02*
Y134292D01*
Y166804D02*
Y159946D01*
X940882Y156136D02*
Y134038D01*
Y166804D02*
Y159946D01*
X940628Y144452D02*
Y134038D01*
Y156136D02*
Y147500D01*
Y167058D02*
Y160200D01*
X940374Y143436D02*
Y133784D01*
Y155882D02*
Y148516D01*
Y167058D02*
Y160200D01*
X940120Y142674D02*
Y133530D01*
Y155882D02*
Y149024D01*
Y167312D02*
Y160454D01*
X939866Y142166D02*
Y133530D01*
Y155882D02*
Y149532D01*
Y167312D02*
Y160454D01*
X939612Y141658D02*
Y133276D01*
Y155628D02*
Y150040D01*
Y167312D02*
Y160708D01*
X939358Y141404D02*
Y133276D01*
Y155374D02*
Y150548D01*
Y167566D02*
Y160708D01*
X939104Y140896D02*
Y133022D01*
Y155120D02*
Y150802D01*
Y167566D02*
Y160962D01*
X938850Y140642D02*
Y133022D01*
Y154866D02*
Y151310D01*
Y167566D02*
Y160962D01*
X938596Y140388D02*
Y132768D01*
Y154358D02*
Y151564D01*
Y167566D02*
Y161216D01*
X938342Y140134D02*
Y132768D01*
Y153850D02*
Y152326D01*
Y167820D02*
Y161216D01*
X938088Y139880D02*
Y132514D01*
Y167820D02*
Y161216D01*
X937834Y139626D02*
Y132514D01*
Y167820D02*
Y161470D01*
X937580Y139372D02*
Y132260D01*
Y167820D02*
Y161470D01*
X937326Y139118D02*
Y132260D01*
Y168074D02*
Y161470D01*
X937072Y139118D02*
Y132260D01*
Y168074D02*
Y161724D01*
X936818Y138864D02*
Y132006D01*
Y168074D02*
Y161724D01*
X936564Y138864D02*
Y132006D01*
Y168074D02*
Y161724D01*
X936310Y138610D02*
Y132006D01*
Y168074D02*
Y161978D01*
X936056Y138356D02*
Y132006D01*
Y168328D02*
Y161978D01*
X935802Y138356D02*
Y131752D01*
Y168328D02*
Y161978D01*
X935548Y138356D02*
Y131752D01*
Y168328D02*
Y145214D01*
X935294Y138102D02*
Y131752D01*
Y168328D02*
Y144452D01*
X935040Y138102D02*
Y131752D01*
Y168328D02*
Y143944D01*
X934786Y138102D02*
Y131752D01*
Y168328D02*
Y143690D01*
X934532Y137848D02*
Y131498D01*
Y168328D02*
Y143436D01*
X934278Y137848D02*
Y131498D01*
Y168328D02*
Y143182D01*
X934024Y137848D02*
Y131498D01*
Y145214D02*
Y143182D01*
Y168328D02*
Y146738D01*
X933770Y137848D02*
Y131498D01*
Y144706D02*
Y142928D01*
Y168582D02*
Y146992D01*
X933516Y137848D02*
Y131498D01*
Y144452D02*
Y142928D01*
Y168582D02*
Y147246D01*
X933262Y137594D02*
Y131498D01*
Y144452D02*
Y142674D01*
Y168582D02*
Y147246D01*
X933008Y137594D02*
Y131498D01*
Y144198D02*
Y142674D01*
Y168582D02*
Y147500D01*
X932754Y137594D02*
Y131498D01*
Y144198D02*
Y142674D01*
Y168582D02*
Y147500D01*
X932500Y137594D02*
Y131498D01*
Y144198D02*
Y142674D01*
Y168582D02*
Y147500D01*
X932246Y137594D02*
Y131498D01*
Y144198D02*
Y142674D01*
Y168582D02*
Y147500D01*
X931992Y137594D02*
Y131498D01*
Y144198D02*
Y142674D01*
Y168582D02*
Y147500D01*
X931738Y137848D02*
Y131498D01*
Y144452D02*
Y142928D01*
Y168582D02*
Y147246D01*
X931484Y137848D02*
Y131498D01*
Y144706D02*
Y142928D01*
Y168582D02*
Y147246D01*
X931230Y137848D02*
Y131498D01*
Y144960D02*
Y142928D01*
Y168328D02*
Y146738D01*
X930976Y137848D02*
Y131498D01*
Y145468D02*
Y143182D01*
Y168328D02*
Y146484D01*
X930722Y137848D02*
Y131498D01*
Y168328D02*
Y143182D01*
X930468Y137848D02*
Y131752D01*
Y168328D02*
Y143436D01*
X930214Y138102D02*
Y131752D01*
Y168328D02*
Y143690D01*
X929960Y138102D02*
Y131752D01*
Y168328D02*
Y143944D01*
X929706Y138102D02*
Y131752D01*
Y168328D02*
Y144452D01*
X929452Y138356D02*
Y131752D01*
Y168328D02*
Y145468D01*
X929198Y138356D02*
Y131752D01*
Y168328D02*
Y161978D01*
X928944Y138610D02*
Y132006D01*
Y168328D02*
Y161978D01*
X928690Y138610D02*
Y132006D01*
Y168074D02*
Y161724D01*
X928436Y138864D02*
Y132006D01*
Y168074D02*
Y161724D01*
X928182Y138864D02*
Y132260D01*
Y168074D02*
Y161724D01*
X927928Y139118D02*
Y132260D01*
Y168074D02*
Y161724D01*
X927674Y139372D02*
Y132260D01*
Y168074D02*
Y161470D01*
X927420Y139626D02*
Y132514D01*
Y167820D02*
Y161470D01*
X927166Y139626D02*
Y132514D01*
Y167820D02*
Y161470D01*
X926912Y139880D02*
Y132514D01*
Y167820D02*
Y161216D01*
X926658Y140134D02*
Y132768D01*
Y154104D02*
Y152072D01*
Y167820D02*
Y161216D01*
X926404Y140388D02*
Y132768D01*
Y154612D02*
Y151310D01*
Y167566D02*
Y160962D01*
X926150Y140896D02*
Y133022D01*
Y155120D02*
Y151056D01*
Y167566D02*
Y160962D01*
X925896Y141150D02*
Y133022D01*
Y155374D02*
Y150802D01*
Y167566D02*
Y160962D01*
X925642Y141404D02*
Y133276D01*
Y155374D02*
Y150294D01*
Y167312D02*
Y160708D01*
X925388Y141912D02*
Y133276D01*
Y155628D02*
Y150040D01*
Y167312D02*
Y160708D01*
X925134Y142420D02*
Y133530D01*
Y155882D02*
Y149532D01*
Y167312D02*
Y160454D01*
X924880Y142928D02*
Y133784D01*
Y155882D02*
Y148770D01*
Y167058D02*
Y160454D01*
X924626Y143690D02*
Y133784D01*
Y155882D02*
Y148008D01*
Y167058D02*
Y160200D01*
X924372Y144960D02*
Y134038D01*
Y156136D02*
Y146738D01*
Y167058D02*
Y160200D01*
X924118Y156136D02*
Y134292D01*
Y166804D02*
Y159946D01*
X923864Y156136D02*
Y134292D01*
Y166804D02*
Y159692D01*
X923610Y156136D02*
Y134546D01*
Y166550D02*
Y159692D01*
X923356Y156136D02*
Y134800D01*
Y166550D02*
Y159438D01*
X923102Y156136D02*
Y135054D01*
Y166550D02*
Y159184D01*
X922848Y155882D02*
Y135308D01*
Y166296D02*
Y159184D01*
X922594Y155882D02*
Y135562D01*
Y166296D02*
Y158930D01*
X922340Y155882D02*
Y135816D01*
Y166042D02*
Y158676D01*
X922086Y155628D02*
Y136070D01*
Y166042D02*
Y158422D01*
X921832Y155374D02*
Y136324D01*
Y165788D02*
Y158168D01*
X921578Y155374D02*
Y136578D01*
Y165534D02*
Y158168D01*
X921324Y154866D02*
Y136832D01*
Y165534D02*
Y157914D01*
X921070Y154612D02*
Y137086D01*
Y165280D02*
Y157660D01*
X920816Y154358D02*
Y137594D01*
Y165280D02*
Y157406D01*
X920562Y153850D02*
Y137848D01*
Y165026D02*
Y157152D01*
X920308Y134546D02*
Y132514D01*
Y153596D02*
Y138356D01*
Y164772D02*
Y156898D01*
X920054Y135308D02*
Y132006D01*
Y153088D02*
Y138610D01*
Y164772D02*
Y156390D01*
X919800Y135562D02*
Y131752D01*
Y152580D02*
Y139118D01*
Y164518D02*
Y156136D01*
X919546Y135816D02*
Y131244D01*
Y152072D02*
Y139626D01*
Y164264D02*
Y155882D01*
X919292Y136324D02*
Y131244D01*
Y151564D02*
Y140134D01*
Y164264D02*
Y155628D01*
X919038Y136578D02*
Y130990D01*
Y151056D02*
Y140896D01*
Y164010D02*
Y155120D01*
X918784Y137086D02*
Y130736D01*
Y150294D02*
Y141658D01*
Y163756D02*
Y154866D01*
X918530Y133022D02*
Y130736D01*
Y137340D02*
Y134038D01*
Y149278D02*
Y142420D01*
Y163502D02*
Y154358D01*
X918276Y132768D02*
Y130736D01*
Y137848D02*
Y134546D01*
Y148008D02*
Y143944D01*
Y163502D02*
Y153850D01*
X918022Y132514D02*
Y130482D01*
Y138356D02*
Y134546D01*
Y163248D02*
Y153596D01*
X917768Y132514D02*
Y130482D01*
Y138864D02*
Y134800D01*
Y162994D02*
Y153088D01*
X917514Y132514D02*
Y130482D01*
Y139372D02*
Y134800D01*
Y162740D02*
Y152326D01*
X917260Y132514D02*
Y130482D01*
Y139880D02*
Y134800D01*
Y162486D02*
Y151818D01*
X917006Y132514D02*
Y130482D01*
Y140642D02*
Y134800D01*
Y162232D02*
Y151056D01*
X916752Y132768D02*
Y130482D01*
Y141404D02*
Y134546D01*
Y161978D02*
Y150294D01*
X916498Y133022D02*
Y130736D01*
Y142420D02*
Y134292D01*
Y161724D02*
Y149278D01*
X916244Y143944D02*
Y130736D01*
Y161470D02*
Y147754D01*
X915990Y161216D02*
Y130736D01*
X915736Y160962D02*
Y130990D01*
X915482Y160708D02*
Y131244D01*
X915228Y160454D02*
Y131244D01*
X914974Y160200D02*
Y131498D01*
X914720Y159692D02*
Y132006D01*
X914466Y159438D02*
Y132260D01*
X914212Y159184D02*
Y132514D01*
X913958Y158676D02*
Y133022D01*
X913704Y158422D02*
Y133276D01*
X913450Y157914D02*
Y133784D01*
X913196Y157660D02*
Y134038D01*
X912942Y157152D02*
Y134546D01*
X912688Y156644D02*
Y135054D01*
X912434Y156136D02*
Y135562D01*
X912180Y155628D02*
Y136070D01*
X911926Y155120D02*
Y136578D01*
X911672Y154612D02*
Y137086D01*
X911418Y153850D02*
Y137848D01*
X911164Y153342D02*
Y138610D01*
X910910Y152580D02*
Y139372D01*
X910656Y151564D02*
Y140134D01*
X910402Y150548D02*
Y141404D01*
X910148Y149024D02*
Y142928D01*
D70*
X399396Y690193D02*
X411588D01*
X396348Y689685D02*
X414636D01*
X394316Y689177D02*
X417176D01*
X392284Y688669D02*
X418700D01*
X390760Y688161D02*
X420224D01*
X389744Y687653D02*
X421748D01*
X388220Y687145D02*
X423272D01*
X387204Y686637D02*
X424288D01*
X386188Y686129D02*
X425304D01*
X385172Y685621D02*
X426320D01*
X384156Y685113D02*
X427336D01*
X383140Y684605D02*
X428352D01*
X382124Y684097D02*
X429368D01*
X381616Y683589D02*
X429876D01*
X380600Y683081D02*
X430892D01*
X380092Y682573D02*
X431400D01*
X379076Y682065D02*
X432416D01*
X378568Y681557D02*
X432924D01*
X378060Y681049D02*
X433432D01*
X377044Y680541D02*
X434448D01*
X376536Y680033D02*
X434956D01*
X376028Y679525D02*
X434956D01*
X375520Y679017D02*
X435464D01*
X375012Y678509D02*
X435972D01*
X374504Y678001D02*
X401936D01*
X409556D02*
X435972D01*
X373996Y677493D02*
X398888D01*
X412604D02*
X428860D01*
X431400D02*
X435972D01*
X373488Y676985D02*
X396856D01*
X414636D02*
X428352D01*
X431908D02*
X436480D01*
X372980Y676477D02*
X395332D01*
X416160D02*
X427844D01*
X432416D02*
X436480D01*
X372472Y675969D02*
X393808D01*
X417684D02*
X427844D01*
X432416D02*
X436480D01*
X371964Y675461D02*
X392792D01*
X418700D02*
X427844D01*
X432416D02*
X436480D01*
X371456Y674953D02*
X391268D01*
X419716D02*
X427844D01*
X432416D02*
X436480D01*
X370948Y674445D02*
X390252D01*
X420732D02*
X428352D01*
X432416D02*
X436480D01*
X370440Y673937D02*
X389744D01*
X401428D02*
X409556D01*
X421748D02*
X428352D01*
X431908D02*
X435972D01*
X370440Y673429D02*
X388728D01*
X398888D02*
X412604D01*
X422764D02*
X429368D01*
X431400D02*
X435972D01*
X369932Y672921D02*
X387712D01*
X396856D02*
X414128D01*
X423272D02*
X435972D01*
X369424Y672413D02*
X387204D01*
X395332D02*
X415652D01*
X424288D02*
X435464D01*
X368916Y671905D02*
X386188D01*
X394316D02*
X417176D01*
X424796D02*
X434956D01*
X368916Y671397D02*
X385680D01*
X393300D02*
X418192D01*
X425812D02*
X434956D01*
X368408Y670889D02*
X385172D01*
X392284D02*
X419208D01*
X426320D02*
X433940D01*
X367900Y670381D02*
X384664D01*
X391268D02*
X420224D01*
X426828D02*
X433432D01*
X367900Y669873D02*
X383648D01*
X390252D02*
X420732D01*
X428352D02*
X432416D01*
X367392Y669365D02*
X383140D01*
X389744D02*
X421748D01*
X366884Y668857D02*
X382632D01*
X388728D02*
X422256D01*
X366884Y668349D02*
X382124D01*
X388220D02*
X423272D01*
X366376Y667841D02*
X381616D01*
X387712D02*
X423780D01*
X366376Y667333D02*
X381108D01*
X386696D02*
X424288D01*
X365868Y666825D02*
X381108D01*
X386696D02*
X424796D01*
X365360Y666317D02*
X380600D01*
X386188D02*
X425304D01*
X365360Y665809D02*
X380092D01*
X385680D02*
X425812D01*
X364852Y665301D02*
X379584D01*
X385680D02*
X426320D01*
X364852Y664793D02*
X379076D01*
X385680D02*
X426828D01*
X364344Y664285D02*
X379076D01*
X385172D02*
X427336D01*
X364344Y663777D02*
X378568D01*
X385172D02*
X427844D01*
X364344Y663269D02*
X378060D01*
X385172D02*
X428352D01*
X363836Y662761D02*
X378060D01*
X385172D02*
X428860D01*
X363836Y662253D02*
X377552D01*
X385172D02*
X428860D01*
X363328Y661745D02*
X377044D01*
X385172D02*
X403968D01*
X407524D02*
X429368D01*
X363328Y661237D02*
X377044D01*
X385680D02*
X401428D01*
X410064D02*
X429876D01*
X363328Y660729D02*
X376536D01*
X385680D02*
X399904D01*
X411588D02*
X429876D01*
X362820Y660221D02*
X376536D01*
X385680D02*
X398380D01*
X412604D02*
X430384D01*
X362820Y659713D02*
X376028D01*
X386188D02*
X397364D01*
X413620D02*
X430892D01*
X362820Y659205D02*
X376028D01*
X386696D02*
X396856D01*
X414636D02*
X430892D01*
X362312Y658697D02*
X375520D01*
X386696D02*
X395840D01*
X415144D02*
X431400D01*
X362312Y658189D02*
X375520D01*
X387204D02*
X395332D01*
X415652D02*
X431400D01*
X362312Y657681D02*
X375520D01*
X388220D02*
X394824D01*
X416668D02*
X431908D01*
X361804Y657173D02*
X375012D01*
X389236D02*
X393300D01*
X417176D02*
X431908D01*
X361804Y656665D02*
X375012D01*
X417684D02*
X432416D01*
X361804Y656157D02*
X374504D01*
X418192D02*
X432416D01*
X361804Y655649D02*
X374504D01*
X418192D02*
X432416D01*
X361296Y655141D02*
X374504D01*
X418700D02*
X432924D01*
X361296Y654633D02*
X373996D01*
X419208D02*
X432924D01*
X361296Y654125D02*
X373996D01*
X419716D02*
X432924D01*
X361296Y653617D02*
X373996D01*
X419716D02*
X433432D01*
X361296Y653109D02*
X373996D01*
X420224D02*
X433432D01*
X360788Y652601D02*
X373488D01*
X420224D02*
X433432D01*
X360788Y652093D02*
X373488D01*
X420732D02*
X433940D01*
X360788Y651585D02*
X406508D01*
X420732D02*
X433940D01*
X360788Y651077D02*
X408540D01*
X421240D02*
X433940D01*
X360788Y650569D02*
X409556D01*
X421240D02*
X433940D01*
X360788Y650061D02*
X410064D01*
X421240D02*
X433940D01*
X360788Y649553D02*
X410572D01*
X421748D02*
X433940D01*
X360788Y649045D02*
X411080D01*
X421748D02*
X434448D01*
X360788Y648537D02*
X404476D01*
X406508D02*
X411080D01*
X421748D02*
X434448D01*
X360788Y648029D02*
X403968D01*
X407524D02*
X411588D01*
X421748D02*
X434448D01*
X360280Y647521D02*
X402952D01*
X408032D02*
X411588D01*
X421748D02*
X434448D01*
X360280Y647013D02*
X402952D01*
X408540D02*
X411588D01*
X421748D02*
X434448D01*
X360280Y646505D02*
X402444D01*
X409048D02*
X412096D01*
X422256D02*
X434448D01*
X360280Y645997D02*
X402444D01*
X409048D02*
X412096D01*
X422256D02*
X434448D01*
X360280Y645489D02*
X402444D01*
X409048D02*
X412096D01*
X422256D02*
X434448D01*
X360280Y644981D02*
X402444D01*
X409048D02*
X412096D01*
X422256D02*
X434448D01*
X360280Y644473D02*
X402444D01*
X409048D02*
X412096D01*
X422256D02*
X434448D01*
X360280Y643965D02*
X402952D01*
X408540D02*
X412096D01*
X422256D02*
X434448D01*
X360280Y643457D02*
X402952D01*
X408540D02*
X411588D01*
X421748D02*
X434448D01*
X360280Y642949D02*
X403460D01*
X408032D02*
X411588D01*
X421748D02*
X434448D01*
X360788Y642441D02*
X403968D01*
X407016D02*
X411080D01*
X421748D02*
X434448D01*
X360788Y641933D02*
X411080D01*
X421748D02*
X434448D01*
X360788Y641425D02*
X410572D01*
X421748D02*
X434448D01*
X360788Y640917D02*
X410064D01*
X421240D02*
X433940D01*
X360788Y640409D02*
X409556D01*
X421240D02*
X433940D01*
X360788Y639901D02*
X408540D01*
X421240D02*
X433940D01*
X360788Y639393D02*
X407016D01*
X420732D02*
X433940D01*
X360788Y638885D02*
X373488D01*
X420732D02*
X433940D01*
X360788Y638377D02*
X373488D01*
X420732D02*
X433432D01*
X361296Y637869D02*
X373488D01*
X420224D02*
X433432D01*
X361296Y637361D02*
X373996D01*
X419716D02*
X433432D01*
X361296Y636853D02*
X373996D01*
X419716D02*
X433432D01*
X361296Y636345D02*
X373996D01*
X419208D02*
X432924D01*
X361296Y635837D02*
X374504D01*
X419208D02*
X432924D01*
X361804Y635329D02*
X374504D01*
X418700D02*
X432924D01*
X361804Y634821D02*
X374504D01*
X418192D02*
X432416D01*
X361804Y634313D02*
X375012D01*
X417684D02*
X432416D01*
X361804Y633805D02*
X375012D01*
X389744D02*
X392792D01*
X417176D02*
X431908D01*
X362312Y633297D02*
X375012D01*
X388728D02*
X394316D01*
X416668D02*
X431908D01*
X362312Y632789D02*
X375520D01*
X387712D02*
X394824D01*
X416160D02*
X431400D01*
X362312Y632281D02*
X375520D01*
X387204D02*
X395840D01*
X415652D02*
X431400D01*
X362312Y631773D02*
X376028D01*
X386696D02*
X396348D01*
X414636D02*
X430892D01*
X362820Y631265D02*
X376028D01*
X386188D02*
X397364D01*
X414128D02*
X430892D01*
X362820Y630757D02*
X376536D01*
X385680D02*
X398380D01*
X413112D02*
X430384D01*
X362820Y630249D02*
X376536D01*
X385680D02*
X399396D01*
X412096D02*
X430384D01*
X363328Y629741D02*
X377044D01*
X385680D02*
X400412D01*
X410572D02*
X429876D01*
X363328Y629233D02*
X377044D01*
X385172D02*
X402444D01*
X408540D02*
X429368D01*
X363836Y628725D02*
X377552D01*
X385172D02*
X429368D01*
X363836Y628217D02*
X377552D01*
X385172D02*
X428860D01*
X363836Y627709D02*
X378060D01*
X385172D02*
X428352D01*
X364344Y627201D02*
X378568D01*
X385172D02*
X427844D01*
X364344Y626693D02*
X378568D01*
X385172D02*
X427844D01*
X364852Y626185D02*
X379076D01*
X385172D02*
X427336D01*
X364852Y625677D02*
X379584D01*
X385680D02*
X426828D01*
X365360Y625169D02*
X380092D01*
X385680D02*
X426320D01*
X365360Y624661D02*
X380092D01*
X386188D02*
X425812D01*
X365868Y624153D02*
X380600D01*
X386188D02*
X425304D01*
X365868Y623645D02*
X381108D01*
X386696D02*
X424796D01*
X366376Y623137D02*
X381616D01*
X387204D02*
X423780D01*
X366376Y622629D02*
X382124D01*
X387712D02*
X423272D01*
X366884Y622121D02*
X382632D01*
X388728D02*
X422764D01*
X367392Y621613D02*
X383140D01*
X389236D02*
X422256D01*
X367392Y621105D02*
X383648D01*
X389744D02*
X421240D01*
X428860D02*
X431400D01*
X367900Y620597D02*
X384156D01*
X390760D02*
X420224D01*
X427336D02*
X432924D01*
X368408Y620089D02*
X384664D01*
X391776D02*
X419716D01*
X426828D02*
X433940D01*
X368408Y619581D02*
X385680D01*
X392792D02*
X418700D01*
X425812D02*
X434448D01*
X368916Y619073D02*
X386188D01*
X393808D02*
X417684D01*
X425304D02*
X434956D01*
X369424Y618565D02*
X386696D01*
X394824D02*
X416160D01*
X424796D02*
X435464D01*
X369424Y618057D02*
X387712D01*
X396348D02*
X415144D01*
X423780D02*
X435464D01*
X369932Y617549D02*
X388220D01*
X397872D02*
X413112D01*
X423272D02*
X435972D01*
X370440Y617041D02*
X389236D01*
X400412D02*
X411080D01*
X422256D02*
X428860D01*
X431400D02*
X435972D01*
X370948Y616533D02*
X390252D01*
X421240D02*
X428352D01*
X431908D02*
X436480D01*
X371456Y616025D02*
X391268D01*
X420224D02*
X427844D01*
X432416D02*
X436480D01*
X371964Y615517D02*
X392284D01*
X419208D02*
X427844D01*
X432416D02*
X436480D01*
X371964Y615009D02*
X393300D01*
X418192D02*
X427844D01*
X432416D02*
X436480D01*
X372472Y614501D02*
X394316D01*
X416668D02*
X427844D01*
X432416D02*
X436480D01*
X372980Y613993D02*
X395840D01*
X415144D02*
X428352D01*
X432416D02*
X436480D01*
X373488Y613485D02*
X397872D01*
X413620D02*
X428352D01*
X431908D02*
X436480D01*
X373996Y612977D02*
X400412D01*
X411080D02*
X429368D01*
X431400D02*
X435972D01*
X374504Y612469D02*
X435972D01*
X375012Y611961D02*
X435464D01*
X375520Y611453D02*
X435464D01*
X376536Y610945D02*
X434956D01*
X377044Y610437D02*
X434448D01*
X377552Y609929D02*
X433940D01*
X378060Y609421D02*
X432924D01*
X379076Y608913D02*
X432416D01*
X379584Y608405D02*
X431908D01*
X380092Y607897D02*
X430892D01*
X381108Y607389D02*
X430384D01*
X382124Y606881D02*
X429368D01*
X382632Y606373D02*
X428860D01*
X383648Y605865D02*
X427844D01*
X384664Y605357D02*
X426828D01*
X385680Y604849D02*
X425812D01*
X386696Y604341D02*
X424796D01*
X387712Y603833D02*
X423780D01*
X389236Y603325D02*
X422256D01*
X390252Y602817D02*
X421240D01*
X391776Y602309D02*
X419716D01*
X393300Y601801D02*
X417684D01*
X395332Y601293D02*
X415652D01*
X398380Y600785D02*
X413112D01*
X402444Y600277D02*
X409048D01*
M02*
