G04 Layer_Physical_Order=1*
G04 Layer_Color=255*
%FSLAX44Y44*%
%MOMM*%
G71*
G01*
G75*
%ADD10R,0.8500X0.8500*%
%ADD11R,1.6000X1.0000*%
%ADD12R,0.9000X0.8000*%
%ADD13R,1.2500X0.9000*%
%ADD14C,0.6000*%
%ADD15C,0.4000*%
%ADD16P,1.9483X8X292.5*%
%ADD17C,1.8000*%
%ADD18P,1.9483X8X22.5*%
%ADD19C,4.0000*%
%ADD20C,6.0000*%
%ADD21C,0.7000*%
G36*
X537381Y585749D02*
X539400Y584400D01*
X540749Y582381D01*
X541189Y580167D01*
X541156Y580000D01*
Y20000D01*
X541189Y19833D01*
X540749Y17619D01*
X539400Y15600D01*
X537381Y14251D01*
X536199Y14016D01*
X535000Y13844D01*
Y13844D01*
X15000D01*
X14833Y13811D01*
X12619Y14251D01*
X10600Y15600D01*
X9251Y17619D01*
X9016Y18801D01*
X8844Y20000D01*
X8844D01*
Y580000D01*
X8811Y580167D01*
X9251Y582381D01*
X10600Y584400D01*
X12619Y585749D01*
X14833Y586189D01*
X15000Y586156D01*
X535000D01*
X535167Y586189D01*
X537381Y585749D01*
D02*
G37*
%LPC*%
G36*
X503000Y223599D02*
X499998Y223204D01*
X497200Y222045D01*
X494798Y220202D01*
X492955Y217800D01*
X491796Y215002D01*
X491401Y212000D01*
X491796Y208998D01*
X492955Y206200D01*
X494798Y203798D01*
X497200Y201955D01*
X499998Y200796D01*
X503000Y200401D01*
X506002Y200796D01*
X508800Y201955D01*
X511202Y203798D01*
X513045Y206200D01*
X514204Y208998D01*
X514599Y212000D01*
X514204Y215002D01*
X513045Y217800D01*
X511202Y220202D01*
X508800Y222045D01*
X506002Y223204D01*
X503000Y223599D01*
D02*
G37*
G36*
X107500Y223349D02*
X104498Y222954D01*
X101700Y221795D01*
X99298Y219952D01*
X97455Y217550D01*
X96296Y214752D01*
X95901Y211750D01*
X96296Y208748D01*
X97455Y205950D01*
X99298Y203548D01*
X101700Y201705D01*
X104498Y200546D01*
X107500Y200151D01*
X110502Y200546D01*
X113300Y201705D01*
X115702Y203548D01*
X117545Y205950D01*
X118704Y208748D01*
X119099Y211750D01*
X118704Y214752D01*
X117545Y217550D01*
X115702Y219952D01*
X113300Y221795D01*
X110502Y222954D01*
X107500Y223349D01*
D02*
G37*
G36*
X360000Y237609D02*
X355589Y237174D01*
X351348Y235888D01*
X347439Y233799D01*
X344013Y230987D01*
X341201Y227561D01*
X339112Y223652D01*
X337826Y219411D01*
X337391Y215000D01*
X337826Y210589D01*
X339112Y206348D01*
X341201Y202439D01*
X344013Y199013D01*
X347439Y196201D01*
X351348Y194112D01*
X355589Y192826D01*
X360000Y192391D01*
X364411Y192826D01*
X368652Y194112D01*
X372561Y196201D01*
X375987Y199013D01*
X378799Y202439D01*
X380888Y206348D01*
X382174Y210589D01*
X382609Y215000D01*
X382174Y219411D01*
X380888Y223652D01*
X378799Y227561D01*
X375987Y230987D01*
X372561Y233799D01*
X368652Y235888D01*
X364411Y237174D01*
X360000Y237609D01*
D02*
G37*
G36*
X112000Y248699D02*
X103000D01*
X102025Y248505D01*
X101198Y247952D01*
X96698Y243452D01*
X96145Y242626D01*
X95951Y241650D01*
Y232650D01*
X96145Y231675D01*
X96698Y230848D01*
X101198Y226348D01*
X102025Y225795D01*
X103000Y225601D01*
X112000D01*
X112976Y225795D01*
X113802Y226348D01*
X118302Y230848D01*
X118855Y231675D01*
X119049Y232650D01*
Y241650D01*
X118855Y242626D01*
X118302Y243452D01*
X113802Y247952D01*
X112976Y248505D01*
X112814Y248537D01*
X112000Y248699D01*
D02*
G37*
G36*
X190000Y407609D02*
X185589Y407174D01*
X181348Y405888D01*
X177439Y403798D01*
X174013Y400987D01*
X171201Y397561D01*
X169112Y393652D01*
X167826Y389411D01*
X167391Y385000D01*
X167826Y380589D01*
X169112Y376348D01*
X171201Y372439D01*
X174013Y369013D01*
X177439Y366201D01*
X181348Y364112D01*
X185589Y362826D01*
X190000Y362391D01*
X194411Y362826D01*
X198652Y364112D01*
X202561Y366201D01*
X205987Y369013D01*
X208799Y372439D01*
X210888Y376348D01*
X212174Y380589D01*
X212609Y385000D01*
X212174Y389411D01*
X210888Y393652D01*
X208799Y397561D01*
X205987Y400987D01*
X202561Y403798D01*
X198652Y405888D01*
X194411Y407174D01*
X190000Y407609D01*
D02*
G37*
G36*
X502250Y375449D02*
X499248Y375054D01*
X496450Y373895D01*
X494048Y372052D01*
X492205Y369650D01*
X492125Y369458D01*
X442100D01*
X439954Y369031D01*
X438135Y367815D01*
X417427Y347108D01*
X166573D01*
X146065Y367615D01*
X144246Y368831D01*
X142100Y369258D01*
X117125D01*
X117045Y369450D01*
X115202Y371852D01*
X112800Y373695D01*
X110002Y374854D01*
X107000Y375249D01*
X103998Y374854D01*
X101200Y373695D01*
X98798Y371852D01*
X96955Y369450D01*
X95796Y366652D01*
X95401Y363650D01*
X95796Y360648D01*
X96955Y357850D01*
X98798Y355448D01*
X101200Y353605D01*
X103998Y352446D01*
X107000Y352051D01*
X110002Y352446D01*
X112800Y353605D01*
X115202Y355448D01*
X117045Y357850D01*
X117125Y358042D01*
X139777D01*
X160285Y337535D01*
X162104Y336319D01*
X164250Y335892D01*
X419750D01*
X421896Y336319D01*
X423715Y337535D01*
X444423Y358242D01*
X492125D01*
X492205Y358050D01*
X494048Y355648D01*
X496450Y353805D01*
X499248Y352646D01*
X502250Y352251D01*
X505252Y352646D01*
X508050Y353805D01*
X510452Y355648D01*
X512295Y358050D01*
X513454Y360848D01*
X513849Y363850D01*
X513454Y366852D01*
X512295Y369650D01*
X510452Y372052D01*
X508050Y373895D01*
X505252Y375054D01*
X502250Y375449D01*
D02*
G37*
G36*
X406750Y326368D02*
X404409Y325902D01*
X402424Y324576D01*
X401098Y322591D01*
X400633Y320250D01*
X401098Y317909D01*
X401142Y317843D01*
Y121323D01*
X365427Y85608D01*
X323225D01*
X323145Y85800D01*
X321302Y88202D01*
X318900Y90045D01*
X316102Y91204D01*
X313100Y91599D01*
X310098Y91204D01*
X307300Y90045D01*
X304898Y88202D01*
X303055Y85800D01*
X301896Y83002D01*
X301501Y80000D01*
X301896Y76998D01*
X303055Y74200D01*
X304898Y71798D01*
X305914Y71019D01*
X305482Y69749D01*
X295318D01*
X294886Y71019D01*
X295902Y71798D01*
X297745Y74200D01*
X298904Y76998D01*
X299299Y80000D01*
X298904Y83002D01*
X297745Y85800D01*
X295902Y88202D01*
X293500Y90045D01*
X293308Y90125D01*
Y230550D01*
X292881Y232696D01*
X291665Y234515D01*
X289846Y235731D01*
X289838Y235732D01*
Y251201D01*
X290500D01*
X291476Y251395D01*
X292302Y251948D01*
X292855Y252775D01*
X293049Y253750D01*
Y262250D01*
X292855Y263225D01*
X292302Y264052D01*
X291476Y264605D01*
X290500Y264799D01*
X282000D01*
X281025Y264605D01*
X280198Y264052D01*
X280063Y263851D01*
X278777Y263772D01*
X277858Y264681D01*
Y280451D01*
X280250D01*
X281225Y280645D01*
X282052Y281198D01*
X282605Y282025D01*
X282799Y283000D01*
Y293000D01*
X282605Y293975D01*
X282052Y294802D01*
X281225Y295355D01*
X280250Y295549D01*
X264250D01*
X263275Y295355D01*
X262448Y294802D01*
X261895Y293975D01*
X261701Y293000D01*
Y283000D01*
X261895Y282025D01*
X262448Y281198D01*
X263275Y280645D01*
X264250Y280451D01*
X266642D01*
Y264349D01*
X266198Y264052D01*
X265645Y263225D01*
X265451Y262250D01*
Y253750D01*
X265645Y252775D01*
X266198Y251948D01*
X267025Y251395D01*
X268000Y251201D01*
X276500D01*
X277475Y251395D01*
X278302Y251948D01*
X278452Y252171D01*
X279727Y252249D01*
X280662Y251328D01*
Y233000D01*
X281011Y231244D01*
X282006Y229756D01*
X282092Y229669D01*
Y90125D01*
X281900Y90045D01*
X279498Y88202D01*
X277655Y85800D01*
X276496Y83002D01*
X276101Y80000D01*
X276496Y76998D01*
X277655Y74200D01*
X279498Y71798D01*
X280513Y71019D01*
X280082Y69749D01*
X269918D01*
X269487Y71019D01*
X270502Y71798D01*
X272345Y74200D01*
X273504Y76998D01*
X273899Y80000D01*
X273504Y83002D01*
X272345Y85800D01*
X270502Y88202D01*
X268100Y90045D01*
X267908Y90125D01*
Y111200D01*
X267481Y113346D01*
X266265Y115165D01*
X258358Y123073D01*
Y312392D01*
X261822D01*
X261895Y312025D01*
X262448Y311198D01*
X263275Y310645D01*
X264250Y310451D01*
X280250D01*
X281225Y310645D01*
X282052Y311198D01*
X282605Y312025D01*
X282799Y313000D01*
Y323000D01*
X282605Y323975D01*
X282052Y324802D01*
X281225Y325355D01*
X280250Y325549D01*
X264250D01*
X263275Y325355D01*
X262448Y324802D01*
X261895Y323975D01*
X261822Y323608D01*
X252750D01*
X250604Y323181D01*
X248785Y321965D01*
X247569Y320146D01*
X247142Y318000D01*
Y120750D01*
X247569Y118604D01*
X248785Y116785D01*
X256692Y108877D01*
Y90125D01*
X256500Y90045D01*
X254098Y88202D01*
X252255Y85800D01*
X251096Y83002D01*
X250701Y80000D01*
X251096Y76998D01*
X252255Y74200D01*
X254098Y71798D01*
X255114Y71019D01*
X254682Y69749D01*
X245413D01*
X244927Y70922D01*
X247702Y73698D01*
X248255Y74525D01*
X248449Y75500D01*
Y84500D01*
X248255Y85476D01*
X247702Y86302D01*
X243202Y90802D01*
X242375Y91355D01*
X241400Y91549D01*
X232400D01*
X231425Y91355D01*
X230598Y90802D01*
X226098Y86302D01*
X225545Y85476D01*
X225351Y84500D01*
Y75500D01*
X225545Y74525D01*
X226098Y73698D01*
X230598Y69198D01*
X231425Y68645D01*
X232400Y68451D01*
X238918D01*
X239951Y67200D01*
Y47200D01*
X240145Y46225D01*
X240698Y45398D01*
X241525Y44845D01*
X242500Y44651D01*
X307500D01*
X308475Y44845D01*
X309302Y45398D01*
X309855Y46225D01*
X310049Y47200D01*
Y67200D01*
X309983Y67530D01*
X310904Y68662D01*
X310950Y68684D01*
X313100Y68401D01*
X316102Y68796D01*
X318900Y69955D01*
X321302Y71798D01*
X323145Y74200D01*
X323225Y74392D01*
X367750D01*
X369896Y74819D01*
X371715Y76035D01*
X410715Y115035D01*
X411931Y116854D01*
X412358Y119000D01*
Y317843D01*
X412402Y317909D01*
X412868Y320250D01*
X412402Y322591D01*
X411076Y324576D01*
X409091Y325902D01*
X406750Y326368D01*
D02*
G37*
G36*
X107500Y172549D02*
X104498Y172154D01*
X101700Y170995D01*
X99298Y169152D01*
X97455Y166750D01*
X96296Y163952D01*
X95901Y160950D01*
X96296Y157948D01*
X97455Y155150D01*
X99298Y152748D01*
X101700Y150905D01*
X104498Y149746D01*
X107500Y149351D01*
X110502Y149746D01*
X113300Y150905D01*
X115702Y152748D01*
X117545Y155150D01*
X118704Y157948D01*
X119099Y160950D01*
X118704Y163952D01*
X117545Y166750D01*
X115702Y169152D01*
X113300Y170995D01*
X110502Y172154D01*
X107500Y172549D01*
D02*
G37*
G36*
X505000Y82600D02*
X499900Y82199D01*
X494926Y81005D01*
X490200Y79047D01*
X485838Y76374D01*
X481948Y73052D01*
X478626Y69162D01*
X475953Y64800D01*
X473995Y60074D01*
X472801Y55100D01*
X472399Y50000D01*
X472801Y44900D01*
X473995Y39926D01*
X475953Y35200D01*
X478626Y30838D01*
X481948Y26948D01*
X485838Y23626D01*
X490200Y20953D01*
X494926Y18995D01*
X499900Y17801D01*
X505000Y17399D01*
X510100Y17801D01*
X515074Y18995D01*
X519800Y20953D01*
X524162Y23626D01*
X528052Y26948D01*
X531374Y30838D01*
X534047Y35200D01*
X536005Y39926D01*
X537199Y44900D01*
X537601Y50000D01*
X537199Y55100D01*
X536005Y60074D01*
X534047Y64800D01*
X531374Y69162D01*
X528052Y73052D01*
X524162Y76374D01*
X519800Y79047D01*
X515074Y81005D01*
X510100Y82199D01*
X505000Y82600D01*
D02*
G37*
G36*
X45000D02*
X39900Y82199D01*
X34926Y81005D01*
X30200Y79047D01*
X25838Y76374D01*
X21948Y73052D01*
X18626Y69162D01*
X15953Y64800D01*
X13995Y60074D01*
X12801Y55100D01*
X12399Y50000D01*
X12801Y44900D01*
X13995Y39926D01*
X15953Y35200D01*
X18626Y30838D01*
X21948Y26948D01*
X25838Y23626D01*
X30200Y20953D01*
X34926Y18995D01*
X39900Y17801D01*
X45000Y17399D01*
X50100Y17801D01*
X55074Y18995D01*
X59800Y20953D01*
X64162Y23626D01*
X68052Y26948D01*
X71374Y30838D01*
X74047Y35200D01*
X76005Y39926D01*
X77199Y44900D01*
X77600Y50000D01*
X77199Y55100D01*
X76005Y60074D01*
X74047Y64800D01*
X71374Y69162D01*
X68052Y73052D01*
X64162Y76374D01*
X59800Y79047D01*
X55074Y81005D01*
X50100Y82199D01*
X45000Y82600D01*
D02*
G37*
G36*
X503000Y172799D02*
X499998Y172404D01*
X497200Y171245D01*
X494798Y169402D01*
X492955Y167000D01*
X491796Y164202D01*
X491401Y161200D01*
X491796Y158198D01*
X492955Y155400D01*
X494798Y152998D01*
X497200Y151155D01*
X499998Y149996D01*
X503000Y149601D01*
X506002Y149996D01*
X508800Y151155D01*
X511202Y152998D01*
X513045Y155400D01*
X514204Y158198D01*
X514599Y161200D01*
X514204Y164202D01*
X513045Y167000D01*
X511202Y169402D01*
X508800Y171245D01*
X506002Y172404D01*
X503000Y172799D01*
D02*
G37*
G36*
X190000Y237609D02*
X185589Y237174D01*
X181348Y235888D01*
X177439Y233799D01*
X174013Y230987D01*
X171201Y227561D01*
X169112Y223652D01*
X167826Y219411D01*
X167391Y215000D01*
X167826Y210589D01*
X169112Y206348D01*
X171201Y202439D01*
X174013Y199013D01*
X177439Y196201D01*
X181348Y194112D01*
X185589Y192826D01*
X190000Y192391D01*
X194411Y192826D01*
X198652Y194112D01*
X202561Y196201D01*
X205987Y199013D01*
X208799Y202439D01*
X210888Y206348D01*
X212174Y210589D01*
X212609Y215000D01*
X212174Y219411D01*
X210888Y223652D01*
X208799Y227561D01*
X205987Y230987D01*
X202561Y233799D01*
X198652Y235888D01*
X194411Y237174D01*
X190000Y237609D01*
D02*
G37*
G36*
X503000Y198199D02*
X499998Y197804D01*
X497200Y196645D01*
X494798Y194802D01*
X492955Y192400D01*
X491796Y189602D01*
X491401Y186600D01*
X491796Y183598D01*
X492955Y180800D01*
X494798Y178398D01*
X497200Y176555D01*
X499998Y175396D01*
X503000Y175001D01*
X506002Y175396D01*
X508800Y176555D01*
X511202Y178398D01*
X513045Y180800D01*
X514204Y183598D01*
X514599Y186600D01*
X514204Y189602D01*
X513045Y192400D01*
X511202Y194802D01*
X508800Y196645D01*
X506002Y197804D01*
X503000Y198199D01*
D02*
G37*
G36*
X107500Y197949D02*
X104498Y197554D01*
X101700Y196395D01*
X99298Y194552D01*
X97455Y192150D01*
X96296Y189352D01*
X95901Y186350D01*
X96296Y183348D01*
X97455Y180550D01*
X99298Y178148D01*
X101700Y176305D01*
X104498Y175146D01*
X107500Y174751D01*
X110502Y175146D01*
X113300Y176305D01*
X115702Y178148D01*
X117545Y180550D01*
X118704Y183348D01*
X119099Y186350D01*
X118704Y189352D01*
X117545Y192150D01*
X115702Y194552D01*
X113300Y196395D01*
X110502Y197554D01*
X107500Y197949D01*
D02*
G37*
G36*
X360000Y407609D02*
X355589Y407174D01*
X351348Y405888D01*
X347439Y403798D01*
X344013Y400987D01*
X341201Y397561D01*
X339112Y393652D01*
X337826Y389411D01*
X337391Y385000D01*
X337826Y380589D01*
X339112Y376348D01*
X341201Y372439D01*
X344013Y369013D01*
X347439Y366201D01*
X351348Y364112D01*
X355589Y362826D01*
X360000Y362391D01*
X364411Y362826D01*
X368652Y364112D01*
X372561Y366201D01*
X375987Y369013D01*
X378799Y372439D01*
X380888Y376348D01*
X382174Y380589D01*
X382609Y385000D01*
X382174Y389411D01*
X380888Y393652D01*
X378799Y397561D01*
X375987Y400987D01*
X372561Y403798D01*
X368652Y405888D01*
X364411Y407174D01*
X360000Y407609D01*
D02*
G37*
G36*
X444247Y443588D02*
X443253D01*
X441497Y443239D01*
X440578Y442858D01*
X439090Y441864D01*
X438386Y441161D01*
X437392Y439672D01*
X437011Y438753D01*
X436662Y436997D01*
Y436746D01*
X436613Y436500D01*
X436662Y436254D01*
Y436003D01*
X437011Y434247D01*
X437392Y433328D01*
X438386Y431839D01*
X439090Y431136D01*
X440578Y430142D01*
X441497Y429761D01*
X443253Y429412D01*
X444247D01*
X446003Y429761D01*
X446922Y430142D01*
X448410Y431136D01*
X449114Y431839D01*
X450108Y433328D01*
X450489Y434247D01*
X450838Y436003D01*
Y436254D01*
X450887Y436500D01*
X450838Y436746D01*
Y436997D01*
X450489Y438753D01*
X450108Y439672D01*
X449114Y441160D01*
X448410Y441864D01*
X446922Y442858D01*
X446003Y443239D01*
X444247Y443588D01*
D02*
G37*
G36*
X111500Y451399D02*
X102500D01*
X101525Y451205D01*
X100698Y450652D01*
X96198Y446152D01*
X95645Y445326D01*
X95451Y444350D01*
Y435350D01*
X95645Y434375D01*
X96198Y433548D01*
X100698Y429048D01*
X101525Y428495D01*
X102500Y428301D01*
X111500D01*
X112476Y428495D01*
X113302Y429048D01*
X117802Y433548D01*
X118355Y434375D01*
X118549Y435350D01*
Y444350D01*
X118355Y445326D01*
X117802Y446152D01*
X113302Y450652D01*
X112476Y451205D01*
X112314Y451237D01*
X111500Y451399D01*
D02*
G37*
G36*
X502250Y451649D02*
X499248Y451254D01*
X496450Y450095D01*
X494048Y448252D01*
X492205Y445850D01*
X492125Y445658D01*
X484800D01*
X482654Y445231D01*
X480835Y444015D01*
X463427Y426608D01*
X441323D01*
X435465Y432465D01*
X433646Y433681D01*
X431500Y434108D01*
X430517D01*
X430052Y434802D01*
X429231Y435351D01*
X429226Y435379D01*
Y436620D01*
X429231Y436649D01*
X430052Y437198D01*
X430605Y438025D01*
X430799Y439000D01*
Y448000D01*
X430605Y448975D01*
X430052Y449802D01*
X429226Y450355D01*
X428250Y450549D01*
X415750D01*
X414775Y450355D01*
X413948Y449802D01*
X413484Y449108D01*
X397657D01*
X397591Y449152D01*
X395250Y449618D01*
X392909Y449152D01*
X390924Y447826D01*
X389598Y445841D01*
X389132Y443500D01*
X389598Y441159D01*
X390924Y439174D01*
X392909Y437848D01*
X395250Y437383D01*
X397591Y437848D01*
X397657Y437892D01*
X413484D01*
X413948Y437198D01*
X414769Y436649D01*
X414775Y436620D01*
Y435379D01*
X414769Y435351D01*
X413948Y434802D01*
X413395Y433975D01*
X413201Y433000D01*
Y424000D01*
X413395Y423025D01*
X413948Y422198D01*
X414775Y421645D01*
X415750Y421451D01*
X428250D01*
X429226Y421645D01*
X429944Y422125D01*
X435035Y417035D01*
X436854Y415819D01*
X439000Y415392D01*
X465750D01*
X467896Y415819D01*
X469715Y417035D01*
X487123Y434442D01*
X492125D01*
X492205Y434250D01*
X494048Y431848D01*
X496450Y430005D01*
X499248Y428846D01*
X502250Y428451D01*
X505252Y428846D01*
X508050Y430005D01*
X510452Y431848D01*
X512295Y434250D01*
X512375Y434442D01*
X518392D01*
Y244823D01*
X516577Y243008D01*
X513125D01*
X513045Y243200D01*
X511202Y245602D01*
X508800Y247445D01*
X506002Y248604D01*
X503000Y248999D01*
X499998Y248604D01*
X497200Y247445D01*
X494798Y245602D01*
X492955Y243200D01*
X491796Y240402D01*
X491401Y237400D01*
X491796Y234398D01*
X492955Y231600D01*
X494798Y229198D01*
X497200Y227355D01*
X499998Y226196D01*
X503000Y225801D01*
X506002Y226196D01*
X508800Y227355D01*
X511202Y229198D01*
X513045Y231600D01*
X513125Y231792D01*
X518900D01*
X521046Y232219D01*
X522865Y233435D01*
X527965Y238535D01*
X529181Y240354D01*
X529608Y242500D01*
Y439250D01*
X529181Y441396D01*
X527965Y443215D01*
X527165Y444015D01*
X525346Y445231D01*
X523200Y445658D01*
X512375D01*
X512295Y445850D01*
X510452Y448252D01*
X508050Y450095D01*
X505252Y451254D01*
X502250Y451649D01*
D02*
G37*
G36*
X438250Y466549D02*
X429250D01*
X428275Y466355D01*
X427448Y465802D01*
X426895Y464975D01*
X426701Y464000D01*
Y456000D01*
X426895Y455025D01*
X427448Y454198D01*
X428275Y453645D01*
X429250Y453451D01*
X438250D01*
X439225Y453645D01*
X440052Y454198D01*
X440605Y455025D01*
X440799Y456000D01*
Y464000D01*
X440605Y464975D01*
X440052Y465802D01*
X439225Y466355D01*
X438250Y466549D01*
D02*
G37*
G36*
X505000Y582601D02*
X499900Y582199D01*
X494926Y581005D01*
X490200Y579047D01*
X485838Y576374D01*
X481948Y573052D01*
X478626Y569162D01*
X475953Y564800D01*
X473995Y560074D01*
X472801Y555100D01*
X472399Y550000D01*
X472801Y544900D01*
X473995Y539926D01*
X475953Y535200D01*
X478626Y530838D01*
X481948Y526948D01*
X485838Y523626D01*
X490200Y520953D01*
X494926Y518995D01*
X499900Y517801D01*
X505000Y517399D01*
X510100Y517801D01*
X515074Y518995D01*
X519800Y520953D01*
X524162Y523626D01*
X528052Y526948D01*
X531374Y530838D01*
X534047Y535200D01*
X536005Y539926D01*
X537199Y544900D01*
X537601Y550000D01*
X537199Y555100D01*
X536005Y560074D01*
X534047Y564800D01*
X531374Y569162D01*
X528052Y573052D01*
X524162Y576374D01*
X519800Y579047D01*
X515074Y581005D01*
X510100Y582199D01*
X505000Y582601D01*
D02*
G37*
G36*
X45000D02*
X39900Y582199D01*
X34926Y581005D01*
X30200Y579047D01*
X25838Y576374D01*
X21948Y573052D01*
X18626Y569162D01*
X15953Y564800D01*
X13995Y560074D01*
X12801Y555100D01*
X12399Y550000D01*
X12801Y544900D01*
X13995Y539926D01*
X15953Y535200D01*
X18626Y530838D01*
X21948Y526948D01*
X25838Y523626D01*
X30200Y520953D01*
X34926Y518995D01*
X39900Y517801D01*
X45000Y517399D01*
X50100Y517801D01*
X55074Y518995D01*
X59800Y520953D01*
X64162Y523626D01*
X68052Y526948D01*
X71374Y530838D01*
X74047Y535200D01*
X76005Y539926D01*
X77199Y544900D01*
X77600Y550000D01*
X77199Y555100D01*
X76005Y560074D01*
X74047Y564800D01*
X71374Y569162D01*
X68052Y573052D01*
X64162Y576374D01*
X59800Y579047D01*
X55074Y581005D01*
X50100Y582199D01*
X45000Y582601D01*
D02*
G37*
G36*
X458250Y466549D02*
X449250D01*
X448275Y466355D01*
X447448Y465802D01*
X446895Y464975D01*
X446701Y464000D01*
Y456000D01*
X446895Y455025D01*
X447448Y454198D01*
X448275Y453645D01*
X449250Y453451D01*
X458250D01*
X459225Y453645D01*
X460052Y454198D01*
X460605Y455025D01*
X460799Y456000D01*
Y464000D01*
X460605Y464975D01*
X460052Y465802D01*
X459225Y466355D01*
X458250Y466549D01*
D02*
G37*
G36*
X107000Y400649D02*
X103998Y400254D01*
X101200Y399095D01*
X98798Y397252D01*
X96955Y394850D01*
X95796Y392052D01*
X95401Y389050D01*
X95796Y386048D01*
X96955Y383250D01*
X98798Y380848D01*
X101200Y379005D01*
X103998Y377846D01*
X107000Y377451D01*
X110002Y377846D01*
X112800Y379005D01*
X115202Y380848D01*
X117045Y383250D01*
X118204Y386048D01*
X118599Y389050D01*
X118204Y392052D01*
X117045Y394850D01*
X115202Y397252D01*
X112800Y399095D01*
X110002Y400254D01*
X107000Y400649D01*
D02*
G37*
G36*
X458250Y389549D02*
X449250D01*
X448275Y389355D01*
X447448Y388802D01*
X446895Y387975D01*
X446701Y387000D01*
Y379000D01*
X446895Y378025D01*
X447448Y377198D01*
X448275Y376645D01*
X449250Y376451D01*
X458250D01*
X459225Y376645D01*
X460052Y377198D01*
X460605Y378025D01*
X460799Y379000D01*
Y387000D01*
X460605Y387975D01*
X460052Y388802D01*
X459225Y389355D01*
X458250Y389549D01*
D02*
G37*
G36*
X428250Y402549D02*
X415750D01*
X414775Y402355D01*
X413948Y401802D01*
X413395Y400975D01*
X413201Y400000D01*
Y391000D01*
X413395Y390025D01*
X413948Y389198D01*
X414775Y388645D01*
X415750Y388451D01*
X425802D01*
X426737Y387181D01*
X426701Y387000D01*
Y379000D01*
X426895Y378025D01*
X427448Y377198D01*
X428275Y376645D01*
X429250Y376451D01*
X438250D01*
X439225Y376645D01*
X440052Y377198D01*
X440605Y378025D01*
X440799Y379000D01*
Y387000D01*
X440605Y387975D01*
X440052Y388802D01*
X439225Y389355D01*
X438250Y389549D01*
X431698D01*
X430763Y390819D01*
X430799Y391000D01*
Y400000D01*
X430605Y400975D01*
X430052Y401802D01*
X429226Y402355D01*
X428250Y402549D01*
D02*
G37*
G36*
X502250Y400849D02*
X499248Y400454D01*
X496450Y399295D01*
X494048Y397452D01*
X492205Y395050D01*
X491046Y392252D01*
X490651Y389250D01*
X491046Y386248D01*
X492205Y383450D01*
X494048Y381048D01*
X496450Y379205D01*
X499248Y378046D01*
X502250Y377651D01*
X505252Y378046D01*
X508050Y379205D01*
X510452Y381048D01*
X512295Y383450D01*
X513454Y386248D01*
X513849Y389250D01*
X513454Y392252D01*
X512295Y395050D01*
X510452Y397452D01*
X508050Y399295D01*
X505252Y400454D01*
X502250Y400849D01*
D02*
G37*
G36*
Y426249D02*
X499248Y425854D01*
X496450Y424695D01*
X494048Y422852D01*
X492205Y420450D01*
X491046Y417652D01*
X490651Y414650D01*
X491046Y411648D01*
X492205Y408850D01*
X494048Y406448D01*
X496450Y404605D01*
X499248Y403446D01*
X502250Y403051D01*
X505252Y403446D01*
X508050Y404605D01*
X510452Y406448D01*
X512295Y408850D01*
X513454Y411648D01*
X513849Y414650D01*
X513454Y417652D01*
X512295Y420450D01*
X510452Y422852D01*
X508050Y424695D01*
X505252Y425854D01*
X502250Y426249D01*
D02*
G37*
G36*
X107000Y426049D02*
X103998Y425654D01*
X101200Y424495D01*
X98798Y422652D01*
X96955Y420250D01*
X95796Y417452D01*
X95401Y414450D01*
X95796Y411448D01*
X96955Y408650D01*
X98798Y406248D01*
X101200Y404405D01*
X103998Y403246D01*
X107000Y402851D01*
X110002Y403246D01*
X112800Y404405D01*
X115202Y406248D01*
X117045Y408650D01*
X118204Y411448D01*
X118599Y414450D01*
X118204Y417452D01*
X117045Y420250D01*
X115202Y422652D01*
X112800Y424495D01*
X110002Y425654D01*
X107000Y426049D01*
D02*
G37*
G36*
X444247Y413588D02*
X443253D01*
X441497Y413239D01*
X440578Y412858D01*
X439090Y411864D01*
X438386Y411161D01*
X437392Y409672D01*
X437011Y408753D01*
X436662Y406997D01*
Y406746D01*
X436613Y406500D01*
X436662Y406254D01*
Y406003D01*
X437011Y404247D01*
X437392Y403328D01*
X438386Y401840D01*
X439090Y401136D01*
X440578Y400142D01*
X441497Y399761D01*
X443253Y399412D01*
X444247D01*
X446003Y399761D01*
X446922Y400142D01*
X448410Y401136D01*
X449114Y401839D01*
X450108Y403328D01*
X450489Y404247D01*
X450838Y406003D01*
Y406254D01*
X450887Y406500D01*
X450838Y406746D01*
Y406997D01*
X450489Y408753D01*
X450108Y409672D01*
X449114Y411160D01*
X448410Y411864D01*
X446922Y412858D01*
X446003Y413239D01*
X444247Y413588D01*
D02*
G37*
%LPD*%
D10*
X286250Y258000D02*
D03*
X272250D02*
D03*
D11*
Y318000D02*
D03*
Y288000D02*
D03*
D12*
X433750Y383000D02*
D03*
X453750D02*
D03*
X433750Y460000D02*
D03*
X453750D02*
D03*
D13*
X422000Y443500D02*
D03*
Y428500D02*
D03*
Y395500D02*
D03*
D14*
X395250Y443500D02*
X422000D01*
X406750Y119000D02*
Y320250D01*
X367750Y80000D02*
X406750Y119000D01*
X313100Y80000D02*
X367750D01*
X484800Y440050D02*
X502250D01*
X465750Y421000D02*
X484800Y440050D01*
X439000Y421000D02*
X465750D01*
X431500Y428500D02*
X439000Y421000D01*
X422000Y428500D02*
X431500D01*
X502250Y440050D02*
X523200D01*
X524000Y439250D01*
Y242500D02*
Y439250D01*
X518900Y237400D02*
X524000Y242500D01*
X503000Y237400D02*
X518900D01*
X442100Y363850D02*
X502250D01*
X419750Y341500D02*
X442100Y363850D01*
X164250Y341500D02*
X419750D01*
X142100Y363650D02*
X164250Y341500D01*
X107000Y363650D02*
X142100D01*
X262300Y80000D02*
Y111200D01*
X252750Y120750D02*
X262300Y111200D01*
X252750Y120750D02*
Y318000D01*
X272250D01*
Y258000D02*
Y288000D01*
X287700Y80000D02*
Y230550D01*
D15*
X285250Y257000D02*
X286250Y258000D01*
X285250Y233000D02*
Y257000D01*
Y233000D02*
X287700Y230550D01*
D16*
X107500Y237150D02*
D03*
X107000Y439850D02*
D03*
D17*
X107500Y211750D02*
D03*
Y186350D02*
D03*
Y160950D02*
D03*
X503000Y212000D02*
D03*
Y186600D02*
D03*
Y161200D02*
D03*
Y237400D02*
D03*
X107000Y414450D02*
D03*
Y389050D02*
D03*
Y363650D02*
D03*
X262300Y80000D02*
D03*
X287700D02*
D03*
X313100D02*
D03*
X502250Y414650D02*
D03*
Y389250D02*
D03*
Y363850D02*
D03*
Y440050D02*
D03*
D18*
X236900Y80000D02*
D03*
D19*
X360000Y215000D02*
D03*
X190000D02*
D03*
Y385000D02*
D03*
X360000D02*
D03*
D20*
X505000Y50000D02*
D03*
X45000D02*
D03*
Y550000D02*
D03*
X505000D02*
D03*
D21*
X395250Y443500D02*
D03*
X406750Y320250D02*
D03*
M02*
