%TF.GenerationSoftware,Altium Limited,Altium Designer,18.1.7 (191)*%
G04 Layer_Physical_Order=2*
G04 Layer_Color=16711680*
%FSLAX42Y42*%
%MOMM*%
%TF.FileFunction,Copper,L2,Bot,Signal*%
%TF.Part,Single*%
G01*
G75*
%TA.AperFunction,SMDPad,CuDef*%
%ADD11R,1.00X1.25*%
%TA.AperFunction,Conductor*%
%ADD13C,0.60*%
%TA.AperFunction,ComponentPad*%
%ADD15C,1.80*%
%ADD16C,2.00*%
%ADD17R,2.00X2.00*%
%TA.AperFunction,ViaPad*%
%ADD18C,0.70*%
%TA.AperFunction,Conductor*%
%ADD19C,0.50*%
G36*
X-900Y4962D02*
X887Y4961D01*
X900Y4961D01*
X912Y4959D01*
X924Y4957D01*
X944Y4944D01*
X957Y4924D01*
X961Y4902D01*
X961Y4900D01*
Y3900D01*
X961Y3898D01*
X957Y3876D01*
X944Y3856D01*
X924Y3843D01*
X902Y3839D01*
X900Y3839D01*
X700Y3839D01*
X700Y3839D01*
X700Y3839D01*
X688Y3841D01*
X676Y3843D01*
X656Y3856D01*
X643Y3876D01*
X639Y3898D01*
X639Y3900D01*
X639Y4050D01*
X639Y4400D01*
X636Y4415D01*
X627Y4427D01*
X615Y4436D01*
X600Y4439D01*
X404D01*
X399Y4452D01*
X550Y4603D01*
X674D01*
Y4554D01*
X676Y4544D01*
X682Y4536D01*
X690Y4530D01*
X700Y4528D01*
X748D01*
X751Y4515D01*
X737Y4510D01*
X711Y4489D01*
X690Y4463D01*
X678Y4433D01*
X674Y4400D01*
X678Y4367D01*
X690Y4337D01*
X711Y4311D01*
X737Y4290D01*
X762Y4280D01*
Y4266D01*
X737Y4256D01*
X711Y4235D01*
X690Y4209D01*
X678Y4179D01*
X674Y4146D01*
X678Y4113D01*
X690Y4083D01*
X711Y4057D01*
X737Y4036D01*
X767Y4024D01*
X800Y4020D01*
X833Y4024D01*
X863Y4036D01*
X889Y4057D01*
X910Y4083D01*
X922Y4113D01*
X926Y4146D01*
X922Y4179D01*
X910Y4209D01*
X889Y4235D01*
X863Y4256D01*
X838Y4266D01*
Y4280D01*
X863Y4290D01*
X889Y4311D01*
X910Y4337D01*
X922Y4367D01*
X926Y4400D01*
X922Y4433D01*
X910Y4463D01*
X889Y4489D01*
X863Y4510D01*
X849Y4515D01*
X852Y4528D01*
X900D01*
X910Y4530D01*
X918Y4536D01*
X924Y4544D01*
X926Y4554D01*
Y4754D01*
X924Y4764D01*
X918Y4772D01*
X910Y4778D01*
X900Y4780D01*
X700D01*
X690Y4778D01*
X682Y4772D01*
X676Y4764D01*
X674Y4754D01*
Y4705D01*
X529D01*
X509Y4701D01*
X493Y4690D01*
X91Y4288D01*
X80Y4272D01*
X76Y4252D01*
Y1534D01*
X69Y1531D01*
X45Y1512D01*
X26Y1488D01*
X15Y1460D01*
X11Y1430D01*
X15Y1400D01*
X26Y1372D01*
X45Y1348D01*
X69Y1329D01*
X97Y1318D01*
X127Y1314D01*
X157Y1318D01*
X185Y1329D01*
X209Y1348D01*
X228Y1372D01*
X239Y1400D01*
X243Y1430D01*
X239Y1460D01*
X228Y1488D01*
X209Y1512D01*
X185Y1531D01*
X178Y1534D01*
Y4231D01*
X347Y4399D01*
X360Y4394D01*
X361Y1800D01*
X363Y1793D01*
X364Y1785D01*
X364Y1785D01*
X364Y1785D01*
X368Y1779D01*
X373Y1773D01*
X373Y1773D01*
X373Y1773D01*
X379Y1768D01*
X385Y1764D01*
X385Y1764D01*
X385Y1764D01*
X393Y1763D01*
X400Y1761D01*
X412Y1760D01*
X431Y1758D01*
X462Y1749D01*
X490Y1734D01*
X514Y1714D01*
X534Y1690D01*
X549Y1662D01*
X558Y1631D01*
X561Y1601D01*
X561Y1600D01*
X561Y400D01*
X561Y399D01*
X558Y369D01*
X549Y338D01*
X534Y310D01*
X514Y286D01*
X490Y266D01*
X462Y251D01*
X431Y242D01*
X412Y240D01*
X400Y239D01*
Y239D01*
X364Y235D01*
X330Y221D01*
X302Y198D01*
X279Y170D01*
X265Y136D01*
X261Y100D01*
X261D01*
X261Y88D01*
X262Y57D01*
X256Y48D01*
X246Y41D01*
X244Y41D01*
X232Y39D01*
X239Y40D01*
X244Y41D01*
X244Y41D01*
X239Y40D01*
X232Y39D01*
X219Y39D01*
X218Y39D01*
X-218D01*
X-219Y39D01*
X-232Y39D01*
X-239Y40D01*
X-244Y41D01*
X-244Y41D01*
X-239Y40D01*
X-232Y39D01*
X-244Y41D01*
X-246Y41D01*
X-256Y48D01*
X-262Y57D01*
X-261Y88D01*
X-261Y100D01*
Y100D01*
X-261Y100D01*
X-265Y136D01*
X-279Y170D01*
X-302Y198D01*
X-330Y221D01*
X-364Y235D01*
X-388Y238D01*
X-400Y239D01*
X-412Y240D01*
X-431Y242D01*
X-462Y251D01*
X-490Y266D01*
X-514Y286D01*
X-534Y310D01*
X-549Y338D01*
X-558Y369D01*
X-561Y399D01*
X-561Y400D01*
Y1600D01*
X-561Y1601D01*
X-558Y1631D01*
X-549Y1662D01*
X-534Y1690D01*
X-514Y1714D01*
X-490Y1734D01*
X-462Y1749D01*
X-431Y1758D01*
X-412Y1760D01*
X-400Y1761D01*
X-393Y1763D01*
X-385Y1764D01*
X-385Y1764D01*
X-385Y1764D01*
X-379Y1768D01*
X-373Y1772D01*
X-373Y1773D01*
X-373Y1773D01*
X-368Y1779D01*
X-364Y1785D01*
X-364Y1785D01*
X-364Y1785D01*
X-363Y1793D01*
X-361Y1800D01*
X-358Y3952D01*
X-358Y3952D01*
X-358Y3952D01*
X-360Y4400D01*
X-362Y4408D01*
X-363Y4415D01*
X-363Y4415D01*
X-363Y4415D01*
X-368Y4421D01*
X-372Y4427D01*
X-372Y4428D01*
X-372Y4428D01*
X-378Y4432D01*
X-384Y4436D01*
X-384Y4436D01*
X-385Y4436D01*
X-392Y4437D01*
X-399Y4439D01*
X-600D01*
X-615Y4436D01*
X-627Y4427D01*
X-636Y4415D01*
X-639Y4400D01*
X-639Y4051D01*
X-639Y3914D01*
X-639Y3901D01*
X-641Y3889D01*
X-643Y3877D01*
X-656Y3857D01*
X-676Y3844D01*
X-688Y3841D01*
X-700Y3840D01*
Y3840D01*
X-900Y3840D01*
X-902Y3839D01*
X-924Y3844D01*
X-944Y3857D01*
X-957Y3877D01*
X-961Y3899D01*
X-961Y3901D01*
Y4901D01*
X-961Y4903D01*
X-957Y4925D01*
X-944Y4945D01*
X-924Y4958D01*
X-902Y4962D01*
X-900Y4962D01*
D02*
G37*
%LPC*%
G36*
X100Y4837D02*
X76Y4832D01*
X56Y4819D01*
X43Y4799D01*
X38Y4775D01*
X43Y4751D01*
X44Y4751D01*
Y4687D01*
X40Y4686D01*
X32Y4681D01*
X26Y4672D01*
X24Y4662D01*
Y4538D01*
X26Y4528D01*
X32Y4519D01*
X40Y4514D01*
X50Y4512D01*
X150D01*
X160Y4514D01*
X168Y4519D01*
X174Y4528D01*
X176Y4538D01*
Y4662D01*
X174Y4672D01*
X168Y4681D01*
X160Y4686D01*
X156Y4687D01*
Y4751D01*
X157Y4751D01*
X162Y4775D01*
X157Y4799D01*
X144Y4819D01*
X124Y4832D01*
X100Y4837D01*
D02*
G37*
G36*
X-50Y4688D02*
X-150D01*
X-160Y4686D01*
X-168Y4681D01*
X-174Y4672D01*
X-176Y4662D01*
Y4538D01*
X-174Y4528D01*
X-168Y4519D01*
X-160Y4514D01*
X-150Y4512D01*
X-50D01*
X-40Y4514D01*
X-32Y4519D01*
X-26Y4528D01*
X-24Y4538D01*
Y4662D01*
X-26Y4672D01*
X-32Y4681D01*
X-40Y4686D01*
X-50Y4688D01*
D02*
G37*
G36*
X-700Y4780D02*
X-900D01*
X-910Y4778D01*
X-918Y4772D01*
X-924Y4764D01*
X-926Y4754D01*
Y4554D01*
X-924Y4544D01*
X-918Y4536D01*
X-910Y4530D01*
X-900Y4528D01*
X-852D01*
X-849Y4515D01*
X-863Y4510D01*
X-889Y4489D01*
X-910Y4463D01*
X-922Y4433D01*
X-926Y4400D01*
X-922Y4367D01*
X-910Y4337D01*
X-889Y4311D01*
X-863Y4290D01*
X-838Y4280D01*
Y4266D01*
X-863Y4256D01*
X-889Y4235D01*
X-910Y4209D01*
X-922Y4179D01*
X-926Y4146D01*
X-922Y4113D01*
X-910Y4083D01*
X-889Y4057D01*
X-863Y4036D01*
X-833Y4024D01*
X-800Y4020D01*
X-767Y4024D01*
X-737Y4036D01*
X-711Y4057D01*
X-690Y4083D01*
X-678Y4113D01*
X-674Y4146D01*
X-678Y4179D01*
X-690Y4209D01*
X-711Y4235D01*
X-737Y4256D01*
X-762Y4266D01*
Y4280D01*
X-737Y4290D01*
X-711Y4311D01*
X-690Y4337D01*
X-678Y4367D01*
X-674Y4400D01*
X-678Y4433D01*
X-690Y4463D01*
X-711Y4489D01*
X-737Y4510D01*
X-751Y4515D01*
X-748Y4528D01*
X-700D01*
X-690Y4530D01*
X-682Y4536D01*
X-676Y4544D01*
X-674Y4554D01*
Y4754D01*
X-676Y4764D01*
X-682Y4772D01*
X-690Y4778D01*
X-700Y4780D01*
D02*
G37*
G36*
X381Y1546D02*
X351Y1542D01*
X323Y1531D01*
X299Y1512D01*
X280Y1488D01*
X269Y1460D01*
X265Y1430D01*
X269Y1400D01*
X280Y1372D01*
X299Y1348D01*
X323Y1329D01*
X351Y1318D01*
X381Y1314D01*
X411Y1318D01*
X439Y1329D01*
X463Y1348D01*
X482Y1372D01*
X493Y1400D01*
X497Y1430D01*
X493Y1460D01*
X482Y1488D01*
X463Y1512D01*
X439Y1531D01*
X411Y1542D01*
X381Y1546D01*
D02*
G37*
G36*
X-127D02*
X-157Y1542D01*
X-185Y1531D01*
X-209Y1512D01*
X-228Y1488D01*
X-239Y1460D01*
X-243Y1430D01*
X-239Y1400D01*
X-228Y1372D01*
X-209Y1348D01*
X-185Y1329D01*
X-157Y1318D01*
X-127Y1314D01*
X-97Y1318D01*
X-69Y1329D01*
X-45Y1348D01*
X-26Y1372D01*
X-15Y1400D01*
X-11Y1430D01*
X-15Y1460D01*
X-26Y1488D01*
X-45Y1512D01*
X-69Y1531D01*
X-97Y1542D01*
X-127Y1546D01*
D02*
G37*
G36*
X-381D02*
X-411Y1542D01*
X-439Y1531D01*
X-463Y1512D01*
X-482Y1488D01*
X-493Y1460D01*
X-497Y1430D01*
X-493Y1400D01*
X-482Y1372D01*
X-463Y1348D01*
X-439Y1329D01*
X-411Y1318D01*
X-381Y1314D01*
X-351Y1318D01*
X-323Y1329D01*
X-299Y1348D01*
X-280Y1372D01*
X-269Y1400D01*
X-265Y1430D01*
X-269Y1460D01*
X-280Y1488D01*
X-299Y1512D01*
X-323Y1531D01*
X-351Y1542D01*
X-381Y1546D01*
D02*
G37*
%LPD*%
D11*
X-100Y4600D02*
D03*
X100D02*
D03*
D13*
Y4775D01*
D15*
X127Y1430D02*
D03*
X-127D02*
D03*
X-381D02*
D03*
X381D02*
D03*
D16*
X-800Y4146D02*
D03*
Y4400D02*
D03*
X800Y4146D02*
D03*
Y4400D02*
D03*
D17*
X-800Y4654D02*
D03*
X800D02*
D03*
D18*
X100Y4775D02*
D03*
D19*
X529Y4654D02*
X800D01*
X127Y4252D02*
X529Y4654D01*
X127Y1430D02*
Y4252D01*
%TF.MD5,d9c64e5567804268033625c94984fccd*%
M02*
