G04 Layer_Physical_Order=1*
G04 Layer_Color=255*
%FSLAX44Y44*%
%MOMM*%
G71*
G01*
G75*
%ADD10R,0.9000X0.8000*%
%ADD11R,1.2500X0.9000*%
%ADD12R,1.2500X1.0000*%
%ADD13R,0.8500X0.8500*%
%ADD14R,0.5000X0.4000*%
%ADD15C,0.6000*%
%ADD16C,0.8000*%
%ADD17C,0.3000*%
%ADD18C,1.8000*%
%ADD19P,1.9483X8X22.5*%
%ADD20P,1.9483X8X292.5*%
%ADD21C,4.0000*%
%ADD22C,6.0000*%
G36*
X537366Y585711D02*
X539371Y584371D01*
X540711Y582366D01*
X541149Y580167D01*
X541115Y580000D01*
Y20000D01*
X541149Y19833D01*
X540711Y17634D01*
X539371Y15629D01*
X537366Y14289D01*
X536199Y14057D01*
X535000Y13885D01*
Y13885D01*
X15000D01*
X14833Y13851D01*
X12634Y14289D01*
X10629Y15629D01*
X9289Y17634D01*
X9057Y18801D01*
X8885Y20000D01*
X8885D01*
Y580000D01*
X8851Y580167D01*
X9289Y582366D01*
X10629Y584371D01*
X12634Y585711D01*
X14833Y586149D01*
X15000Y586115D01*
X535000D01*
X535167Y586149D01*
X537366Y585711D01*
D02*
G37*
%LPC*%
G36*
X449500Y281330D02*
X437000D01*
X436009Y281133D01*
X435169Y280571D01*
X434607Y279731D01*
X434410Y278740D01*
Y269740D01*
X434607Y268749D01*
X435169Y267909D01*
X436009Y267347D01*
X437000Y267150D01*
X446976D01*
X447938Y265880D01*
X447910Y265740D01*
Y257740D01*
X448107Y256749D01*
X448669Y255909D01*
X449509Y255347D01*
X450500Y255150D01*
X459500D01*
X460491Y255347D01*
X461331Y255909D01*
X461893Y256749D01*
X462090Y257740D01*
Y265740D01*
X461893Y266731D01*
X461331Y267571D01*
X460491Y268133D01*
X459500Y268330D01*
X453024D01*
X452062Y269600D01*
X452090Y269740D01*
Y278740D01*
X451893Y279731D01*
X451331Y280571D01*
X450491Y281133D01*
X449500Y281330D01*
D02*
G37*
G36*
X504500Y243790D02*
X501488Y243393D01*
X498680Y242230D01*
X496270Y240380D01*
X494420Y237970D01*
X493257Y235163D01*
X492860Y232150D01*
X493257Y229137D01*
X494420Y226330D01*
X496270Y223920D01*
X498680Y222070D01*
X501488Y220907D01*
X504500Y220511D01*
X507513Y220907D01*
X510320Y222070D01*
X512730Y223920D01*
X514580Y226330D01*
X515743Y229137D01*
X516140Y232150D01*
X515743Y235163D01*
X514580Y237970D01*
X512730Y240380D01*
X510320Y242230D01*
X507513Y243393D01*
X504500Y243790D01*
D02*
G37*
G36*
X479500Y268330D02*
X470500D01*
X469509Y268133D01*
X468669Y267571D01*
X468107Y266731D01*
X467910Y265740D01*
Y257740D01*
X468107Y256749D01*
X468669Y255909D01*
X469509Y255347D01*
X470500Y255150D01*
X479500D01*
X480491Y255347D01*
X481331Y255909D01*
X481893Y256749D01*
X482090Y257740D01*
Y265740D01*
X481893Y266731D01*
X481331Y267571D01*
X480491Y268133D01*
X479500Y268330D01*
D02*
G37*
G36*
X107000Y298940D02*
X103988Y298543D01*
X101180Y297380D01*
X98770Y295530D01*
X96920Y293120D01*
X95757Y290313D01*
X95360Y287300D01*
X95757Y284287D01*
X96920Y281480D01*
X98770Y279070D01*
X101180Y277220D01*
X103988Y276057D01*
X107000Y275660D01*
X110013Y276057D01*
X112820Y277220D01*
X115230Y279070D01*
X117080Y281480D01*
X117764Y283131D01*
X139850D01*
X140259Y282857D01*
X141250Y282660D01*
X146250D01*
X147241Y282857D01*
X148081Y283419D01*
X148643Y284259D01*
X148840Y285250D01*
Y289250D01*
X148643Y290241D01*
X148081Y291081D01*
X147241Y291643D01*
X146250Y291840D01*
X141250D01*
X140259Y291643D01*
X139850Y291369D01*
X117805D01*
X117080Y293120D01*
X115230Y295530D01*
X112820Y297380D01*
X110013Y298543D01*
X107000Y298940D01*
D02*
G37*
G36*
Y273540D02*
X103988Y273143D01*
X101180Y271980D01*
X98770Y270130D01*
X96920Y267720D01*
X95757Y264913D01*
X95360Y261900D01*
X95757Y258888D01*
X96920Y256080D01*
X98770Y253670D01*
X101180Y251820D01*
X103988Y250657D01*
X107000Y250261D01*
X110013Y250657D01*
X112820Y251820D01*
X115230Y253670D01*
X117080Y256080D01*
X117722Y257631D01*
X140100D01*
X140509Y257357D01*
X141500Y257160D01*
X146500D01*
X147491Y257357D01*
X148331Y257919D01*
X148893Y258759D01*
X149090Y259750D01*
Y263750D01*
X148893Y264741D01*
X148331Y265581D01*
X147491Y266143D01*
X146500Y266340D01*
X141500D01*
X140509Y266143D01*
X140100Y265869D01*
X117847D01*
X117080Y267720D01*
X115230Y270130D01*
X112820Y271980D01*
X110013Y273143D01*
X107000Y273540D01*
D02*
G37*
G36*
X504500Y218390D02*
X501488Y217993D01*
X498680Y216830D01*
X496270Y214980D01*
X494420Y212570D01*
X493257Y209762D01*
X492860Y206750D01*
X493257Y203738D01*
X494420Y200930D01*
X496270Y198520D01*
X498680Y196670D01*
X501488Y195507D01*
X504500Y195110D01*
X507513Y195507D01*
X510320Y196670D01*
X512730Y198520D01*
X514580Y200930D01*
X515743Y203738D01*
X516140Y206750D01*
X515743Y209762D01*
X514580Y212570D01*
X512730Y214980D01*
X510320Y216830D01*
X507513Y217993D01*
X504500Y218390D01*
D02*
G37*
G36*
X505000Y82641D02*
X499894Y82239D01*
X494913Y81043D01*
X490182Y79083D01*
X485814Y76407D01*
X481920Y73080D01*
X478593Y69186D01*
X475917Y64819D01*
X473957Y60086D01*
X472761Y55106D01*
X472359Y50000D01*
X472761Y44894D01*
X473957Y39913D01*
X475917Y35182D01*
X478593Y30814D01*
X481920Y26920D01*
X485814Y23593D01*
X490182Y20917D01*
X494913Y18957D01*
X499894Y17761D01*
X505000Y17359D01*
X510106Y17761D01*
X515087Y18957D01*
X519818Y20917D01*
X524186Y23593D01*
X528080Y26920D01*
X531407Y30814D01*
X534083Y35182D01*
X536043Y39913D01*
X537239Y44894D01*
X537641Y50000D01*
X537239Y55106D01*
X536043Y60086D01*
X534083Y64819D01*
X531407Y69186D01*
X528080Y73080D01*
X524186Y76407D01*
X519818Y79083D01*
X515087Y81043D01*
X510106Y82239D01*
X505000Y82641D01*
D02*
G37*
G36*
X45000D02*
X39894Y82239D01*
X34913Y81043D01*
X30182Y79083D01*
X25814Y76407D01*
X21920Y73080D01*
X18593Y69186D01*
X15917Y64819D01*
X13957Y60086D01*
X12761Y55106D01*
X12359Y50000D01*
X12761Y44894D01*
X13957Y39913D01*
X15917Y35182D01*
X18593Y30814D01*
X21920Y26920D01*
X25814Y23593D01*
X30182Y20917D01*
X34913Y18957D01*
X39894Y17761D01*
X45000Y17359D01*
X50106Y17761D01*
X55086Y18957D01*
X59819Y20917D01*
X64186Y23593D01*
X68080Y26920D01*
X71407Y30814D01*
X74083Y35182D01*
X76043Y39913D01*
X77239Y44894D01*
X77641Y50000D01*
X77239Y55106D01*
X76043Y60086D01*
X74083Y64819D01*
X71407Y69186D01*
X68080Y73080D01*
X64186Y76407D01*
X59819Y79083D01*
X55086Y81043D01*
X50106Y82239D01*
X45000Y82641D01*
D02*
G37*
G36*
X504500Y192990D02*
X501488Y192593D01*
X498680Y191430D01*
X496270Y189580D01*
X494420Y187170D01*
X493257Y184363D01*
X492860Y181350D01*
X493257Y178337D01*
X494420Y175530D01*
X496270Y173120D01*
X498680Y171270D01*
X501488Y170107D01*
X504500Y169711D01*
X507513Y170107D01*
X510320Y171270D01*
X512730Y173120D01*
X514580Y175530D01*
X515743Y178337D01*
X516140Y181350D01*
X515743Y184363D01*
X514580Y187170D01*
X512730Y189580D01*
X510320Y191430D01*
X507513Y192593D01*
X504500Y192990D01*
D02*
G37*
G36*
X360000Y237649D02*
X355581Y237214D01*
X351333Y235925D01*
X347417Y233832D01*
X343985Y231015D01*
X341168Y227583D01*
X339075Y223667D01*
X337786Y219419D01*
X337351Y215000D01*
X337786Y210581D01*
X339075Y206333D01*
X341168Y202417D01*
X343985Y198985D01*
X347417Y196168D01*
X351333Y194075D01*
X355581Y192786D01*
X360000Y192351D01*
X364419Y192786D01*
X368667Y194075D01*
X372583Y196168D01*
X376015Y198985D01*
X378832Y202417D01*
X380925Y206333D01*
X382214Y210581D01*
X382649Y215000D01*
X382214Y219419D01*
X380925Y223667D01*
X378832Y227583D01*
X376015Y231015D01*
X372583Y233832D01*
X368667Y235925D01*
X364419Y237214D01*
X360000Y237649D01*
D02*
G37*
G36*
X190000D02*
X185581Y237214D01*
X181333Y235925D01*
X177417Y233832D01*
X173985Y231015D01*
X171168Y227583D01*
X169075Y223667D01*
X167786Y219419D01*
X167351Y215000D01*
X167786Y210581D01*
X169075Y206333D01*
X171168Y202417D01*
X173985Y198985D01*
X177417Y196168D01*
X181333Y194075D01*
X185581Y192786D01*
X190000Y192351D01*
X194419Y192786D01*
X198667Y194075D01*
X202583Y196168D01*
X206015Y198985D01*
X208832Y202417D01*
X210925Y206333D01*
X212214Y210581D01*
X212649Y215000D01*
X212214Y219419D01*
X210925Y223667D01*
X208832Y227583D01*
X206015Y231015D01*
X202583Y233832D01*
X198667Y235925D01*
X194419Y237214D01*
X190000Y237649D01*
D02*
G37*
G36*
X248000Y313596D02*
X246293Y313372D01*
X244702Y312713D01*
X243336Y311664D01*
X230146Y298474D01*
X229097Y297108D01*
X228438Y295517D01*
X228214Y293810D01*
Y134190D01*
X228438Y132483D01*
X229097Y130892D01*
X230146Y129526D01*
X255704Y103968D01*
Y89484D01*
X254070Y88230D01*
X252220Y85820D01*
X251057Y83013D01*
X250660Y80000D01*
X251057Y76988D01*
X252220Y74180D01*
X254070Y71770D01*
X254995Y71060D01*
X254564Y69790D01*
X245512D01*
X245026Y70963D01*
X247731Y73669D01*
X248293Y74509D01*
X248490Y75500D01*
Y84500D01*
X248293Y85491D01*
X247731Y86331D01*
X243231Y90831D01*
X242391Y91393D01*
X241400Y91590D01*
X232400D01*
X231409Y91393D01*
X230569Y90831D01*
X226069Y86331D01*
X225507Y85491D01*
X225310Y84500D01*
Y75500D01*
X225507Y74509D01*
X226069Y73669D01*
X230569Y69169D01*
X231409Y68607D01*
X232400Y68410D01*
X238856D01*
X239910Y67200D01*
Y47200D01*
X240107Y46209D01*
X240669Y45369D01*
X241509Y44807D01*
X242500Y44610D01*
X307500D01*
X308491Y44807D01*
X309331Y45369D01*
X309893Y46209D01*
X310090Y47200D01*
Y67200D01*
X310033Y67483D01*
X311006Y68636D01*
X313100Y68361D01*
X316113Y68757D01*
X318920Y69920D01*
X321330Y71770D01*
X323180Y74180D01*
X324343Y76988D01*
X324740Y80000D01*
X324343Y83013D01*
X323180Y85820D01*
X321330Y88230D01*
X318920Y90080D01*
X316113Y91243D01*
X313100Y91640D01*
X310088Y91243D01*
X307280Y90080D01*
X304870Y88230D01*
X303020Y85820D01*
X301857Y83013D01*
X301460Y80000D01*
X301857Y76988D01*
X303020Y74180D01*
X304870Y71770D01*
X305795Y71060D01*
X305364Y69790D01*
X295436D01*
X295005Y71060D01*
X295930Y71770D01*
X297780Y74180D01*
X298943Y76988D01*
X299340Y80000D01*
X298943Y83013D01*
X297780Y85820D01*
X295930Y88230D01*
X293520Y90080D01*
X293349Y90151D01*
Y115300D01*
X293349Y115300D01*
X292919Y117462D01*
X291694Y119294D01*
X291694Y119294D01*
X290648Y120340D01*
Y127630D01*
X291081Y127919D01*
X291643Y128759D01*
X291840Y129750D01*
Y138250D01*
X291643Y139241D01*
X291081Y140081D01*
X290796Y140272D01*
Y141728D01*
X291081Y141919D01*
X291643Y142759D01*
X291840Y143750D01*
Y152250D01*
X291643Y153241D01*
X291081Y154081D01*
X290648Y154370D01*
Y207660D01*
X290994Y208006D01*
X290994Y208006D01*
X292219Y209838D01*
X292649Y212000D01*
X292649Y212000D01*
Y278489D01*
X293241Y278607D01*
X294081Y279169D01*
X294643Y280009D01*
X294840Y281000D01*
Y291000D01*
X294643Y291991D01*
X294081Y292831D01*
X293241Y293393D01*
X292250Y293590D01*
X279750D01*
X278759Y293393D01*
X277919Y292831D01*
X277357Y291991D01*
X277160Y291000D01*
Y281000D01*
X277357Y280009D01*
X277919Y279169D01*
X278759Y278607D01*
X279750Y278410D01*
X281352D01*
Y214340D01*
X281006Y213994D01*
X279781Y212162D01*
X279352Y210000D01*
Y154370D01*
X278919Y154081D01*
X278357Y153241D01*
X278160Y152250D01*
Y143750D01*
X278357Y142759D01*
X278919Y141919D01*
X279203Y141728D01*
Y140272D01*
X278919Y140081D01*
X278357Y139241D01*
X278160Y138250D01*
Y129750D01*
X278357Y128759D01*
X278919Y127919D01*
X279352Y127630D01*
Y118000D01*
X279351Y118000D01*
X279781Y115838D01*
X281006Y114006D01*
X282052Y112960D01*
Y90151D01*
X281880Y90080D01*
X279470Y88230D01*
X277620Y85820D01*
X276457Y83013D01*
X276061Y80000D01*
X276457Y76988D01*
X277620Y74180D01*
X279470Y71770D01*
X280395Y71060D01*
X279963Y69790D01*
X270037D01*
X269605Y71060D01*
X270530Y71770D01*
X272380Y74180D01*
X273543Y76988D01*
X273940Y80000D01*
X273543Y83013D01*
X272380Y85820D01*
X270530Y88230D01*
X268896Y89484D01*
Y103145D01*
X269372Y104293D01*
X269596Y106000D01*
X269372Y107707D01*
X268713Y109298D01*
X267664Y110664D01*
X241406Y136922D01*
Y291078D01*
X251680Y301352D01*
X277160D01*
Y301000D01*
X277357Y300009D01*
X277919Y299169D01*
X278759Y298607D01*
X279750Y298410D01*
X292250D01*
X293241Y298607D01*
X294081Y299169D01*
X294643Y300009D01*
X294840Y301000D01*
Y311000D01*
X294643Y311991D01*
X294081Y312831D01*
X293241Y313393D01*
X292250Y313590D01*
X279750D01*
X278759Y313393D01*
X277919Y312831D01*
X277797Y312649D01*
X251382D01*
X251298Y312713D01*
X249707Y313372D01*
X248000Y313596D01*
D02*
G37*
G36*
X360000Y407649D02*
X355581Y407214D01*
X351333Y405925D01*
X347417Y403832D01*
X343985Y401015D01*
X341168Y397583D01*
X339075Y393667D01*
X337786Y389419D01*
X337351Y385000D01*
X337786Y380581D01*
X339075Y376333D01*
X341168Y372417D01*
X343985Y368985D01*
X347417Y366168D01*
X351333Y364075D01*
X355581Y362786D01*
X360000Y362351D01*
X364419Y362786D01*
X368667Y364075D01*
X372583Y366168D01*
X376015Y368985D01*
X378832Y372417D01*
X380925Y376333D01*
X382214Y380581D01*
X382649Y385000D01*
X382214Y389419D01*
X380925Y393667D01*
X378832Y397583D01*
X376015Y401015D01*
X372583Y403832D01*
X368667Y405925D01*
X364419Y407214D01*
X360000Y407649D01*
D02*
G37*
G36*
X190000D02*
X185581Y407214D01*
X181333Y405925D01*
X177417Y403832D01*
X173985Y401015D01*
X171168Y397583D01*
X169075Y393667D01*
X167786Y389419D01*
X167351Y385000D01*
X167786Y380581D01*
X169075Y376333D01*
X171168Y372417D01*
X173985Y368985D01*
X177417Y366168D01*
X181333Y364075D01*
X185581Y362786D01*
X190000Y362351D01*
X194419Y362786D01*
X198667Y364075D01*
X202583Y366168D01*
X206015Y368985D01*
X208832Y372417D01*
X210925Y376333D01*
X212214Y380581D01*
X212649Y385000D01*
X212214Y389419D01*
X210925Y393667D01*
X208832Y397583D01*
X206015Y401015D01*
X202583Y403832D01*
X198667Y405925D01*
X194419Y407214D01*
X190000Y407649D01*
D02*
G37*
G36*
X505000Y454740D02*
X501987Y454343D01*
X499180Y453180D01*
X496770Y451330D01*
X494920Y448920D01*
X493757Y446113D01*
X493360Y443100D01*
X493757Y440088D01*
X494920Y437280D01*
X496770Y434870D01*
X499180Y433020D01*
X501987Y431857D01*
X505000Y431460D01*
X508013Y431857D01*
X510820Y433020D01*
X513230Y434870D01*
X515080Y437280D01*
X516243Y440088D01*
X516640Y443100D01*
X516243Y446113D01*
X515080Y448920D01*
X513230Y451330D01*
X510820Y453180D01*
X508013Y454343D01*
X505000Y454740D01*
D02*
G37*
G36*
Y582641D02*
X499894Y582239D01*
X494913Y581043D01*
X490182Y579083D01*
X485814Y576407D01*
X481920Y573080D01*
X478593Y569186D01*
X475917Y564818D01*
X473957Y560087D01*
X472761Y555106D01*
X472359Y550000D01*
X472761Y544894D01*
X473957Y539913D01*
X475917Y535182D01*
X478593Y530814D01*
X481920Y526920D01*
X485814Y523593D01*
X490182Y520917D01*
X494913Y518957D01*
X499894Y517761D01*
X505000Y517359D01*
X510106Y517761D01*
X515087Y518957D01*
X519818Y520917D01*
X524186Y523593D01*
X528080Y526920D01*
X531407Y530814D01*
X534083Y535182D01*
X536043Y539913D01*
X537239Y544894D01*
X537641Y550000D01*
X537239Y555106D01*
X536043Y560087D01*
X534083Y564818D01*
X531407Y569186D01*
X528080Y573080D01*
X524186Y576407D01*
X519818Y579083D01*
X515087Y581043D01*
X510106Y582239D01*
X505000Y582641D01*
D02*
G37*
G36*
X45000D02*
X39894Y582239D01*
X34913Y581043D01*
X30182Y579083D01*
X25814Y576407D01*
X21920Y573080D01*
X18593Y569186D01*
X15917Y564818D01*
X13957Y560087D01*
X12761Y555106D01*
X12359Y550000D01*
X12761Y544894D01*
X13957Y539913D01*
X15917Y535182D01*
X18593Y530814D01*
X21920Y526920D01*
X25814Y523593D01*
X30182Y520917D01*
X34913Y518957D01*
X39894Y517761D01*
X45000Y517359D01*
X50106Y517761D01*
X55086Y518957D01*
X59819Y520917D01*
X64186Y523593D01*
X68080Y526920D01*
X71407Y530814D01*
X74083Y535182D01*
X76043Y539913D01*
X77239Y544894D01*
X77641Y550000D01*
X77239Y555106D01*
X76043Y560087D01*
X74083Y564818D01*
X71407Y569186D01*
X68080Y573080D01*
X64186Y576407D01*
X59819Y579083D01*
X55086Y581043D01*
X50106Y582239D01*
X45000Y582641D01*
D02*
G37*
G36*
X479500Y345330D02*
X470500D01*
X469509Y345133D01*
X468669Y344571D01*
X468107Y343731D01*
X467910Y342740D01*
Y334740D01*
X468107Y333749D01*
X468669Y332909D01*
X469509Y332347D01*
X470500Y332150D01*
X479500D01*
X480491Y332347D01*
X481331Y332909D01*
X481893Y333749D01*
X482090Y334740D01*
Y342740D01*
X481893Y343731D01*
X481331Y344571D01*
X480491Y345133D01*
X479500Y345330D01*
D02*
G37*
G36*
X505000Y429340D02*
X501987Y428943D01*
X499180Y427780D01*
X496770Y425930D01*
X494920Y423520D01*
X493757Y420713D01*
X493360Y417700D01*
X493757Y414688D01*
X494920Y411880D01*
X496770Y409470D01*
X498404Y408216D01*
Y401784D01*
X496770Y400530D01*
X494920Y398120D01*
X493757Y395312D01*
X493360Y392300D01*
X493757Y389287D01*
X494920Y386480D01*
X496770Y384070D01*
X498404Y382816D01*
Y376384D01*
X496770Y375130D01*
X494920Y372720D01*
X493757Y369912D01*
X493360Y366900D01*
X493757Y363887D01*
X494920Y361080D01*
X496770Y358670D01*
X498404Y357416D01*
Y303148D01*
X452090D01*
Y311740D01*
X451893Y312731D01*
X451331Y313571D01*
X450583Y314071D01*
X450510Y314740D01*
X450583Y315409D01*
X451331Y315909D01*
X451893Y316749D01*
X452090Y317740D01*
Y326740D01*
X451893Y327731D01*
X451331Y328571D01*
X450491Y329133D01*
X449500Y329330D01*
X437000D01*
X436009Y329133D01*
X435169Y328571D01*
X434607Y327731D01*
X434591Y327649D01*
X416680D01*
X403664Y340664D01*
X402298Y341713D01*
X400707Y342372D01*
X399000Y342596D01*
X203000D01*
X201293Y342372D01*
X199702Y341713D01*
X198336Y340664D01*
X197287Y339298D01*
X196628Y337707D01*
X196404Y336000D01*
X196628Y334293D01*
X197287Y332702D01*
X198336Y331336D01*
X198881Y330917D01*
Y301206D01*
X189044Y291369D01*
X160650D01*
X160241Y291643D01*
X159250Y291840D01*
X154250D01*
X153259Y291643D01*
X152419Y291081D01*
X151857Y290241D01*
X151660Y289250D01*
Y285250D01*
X151857Y284259D01*
X152419Y283419D01*
X152881Y283110D01*
Y265723D01*
X152669Y265581D01*
X152107Y264741D01*
X151910Y263750D01*
Y259750D01*
X152107Y258759D01*
X152669Y257919D01*
X153509Y257357D01*
X154500Y257160D01*
X159500D01*
X160491Y257357D01*
X161331Y257919D01*
X161893Y258759D01*
X162090Y259750D01*
Y263750D01*
X161893Y264741D01*
X161331Y265581D01*
X161119Y265723D01*
Y283131D01*
X190750D01*
X192326Y283444D01*
X193663Y284337D01*
X205913Y296587D01*
X206806Y297924D01*
X207119Y299500D01*
Y329404D01*
X396268D01*
X408336Y317336D01*
X409702Y316287D01*
X411293Y315628D01*
X413000Y315404D01*
X414707Y315628D01*
X416298Y316287D01*
X416382Y316352D01*
X434873D01*
X435169Y315909D01*
X435916Y315409D01*
X435990Y314740D01*
X435916Y314071D01*
X435169Y313571D01*
X434713Y312889D01*
X413622D01*
X413538Y312953D01*
X411947Y313612D01*
X410240Y313836D01*
X408533Y313612D01*
X406942Y312953D01*
X405576Y311904D01*
X398336Y304664D01*
X397287Y303298D01*
X396628Y301707D01*
X396404Y300000D01*
Y229000D01*
X396628Y227293D01*
X397287Y225702D01*
X398336Y224336D01*
X431354Y191318D01*
Y155950D01*
X431578Y154243D01*
X432237Y152652D01*
X433286Y151286D01*
X434652Y150237D01*
X436243Y149578D01*
X437950Y149354D01*
X495016D01*
X496270Y147720D01*
X498680Y145870D01*
X501488Y144707D01*
X504500Y144311D01*
X507513Y144707D01*
X510320Y145870D01*
X512730Y147720D01*
X514580Y150130D01*
X515743Y152937D01*
X516140Y155950D01*
X515743Y158962D01*
X514580Y161770D01*
X512730Y164180D01*
X510320Y166030D01*
X507513Y167193D01*
X504500Y167590D01*
X501488Y167193D01*
X498680Y166030D01*
X496270Y164180D01*
X495016Y162546D01*
X444546D01*
Y194050D01*
X444322Y195757D01*
X443663Y197348D01*
X442614Y198714D01*
X409596Y231732D01*
Y297268D01*
X413920Y301591D01*
X434713D01*
X435169Y300909D01*
X436009Y300347D01*
X437000Y300150D01*
X437602D01*
Y297500D01*
X438032Y295338D01*
X439256Y293506D01*
X441088Y292281D01*
X443250Y291852D01*
X459848D01*
X460246Y290822D01*
X460261Y290581D01*
X459602Y289923D01*
X459602Y289923D01*
X458608Y288435D01*
X458221Y287501D01*
X457872Y285745D01*
Y285490D01*
X457822Y285240D01*
X457872Y284990D01*
Y284735D01*
X458221Y282979D01*
X458608Y282045D01*
X459602Y280557D01*
X459602Y280557D01*
X460317Y279842D01*
X460317Y279842D01*
X461805Y278848D01*
X462739Y278461D01*
X464495Y278112D01*
X465505D01*
X467261Y278461D01*
X468195Y278848D01*
X469683Y279842D01*
X469683Y279842D01*
X470398Y280557D01*
X470398Y280557D01*
X471392Y282045D01*
X471779Y282979D01*
X472128Y284735D01*
Y284990D01*
X472178Y285240D01*
X472128Y285490D01*
Y285745D01*
X471779Y287501D01*
X471392Y288435D01*
X470398Y289923D01*
X470398Y289923D01*
X469739Y290581D01*
X469754Y290822D01*
X470153Y291852D01*
X501618D01*
X501702Y291787D01*
X503293Y291128D01*
X505000Y290904D01*
X506707Y291128D01*
X508298Y291787D01*
X509664Y292836D01*
X510713Y294202D01*
X511372Y295793D01*
X511596Y297500D01*
Y357416D01*
X513230Y358670D01*
X515080Y361080D01*
X516243Y363887D01*
X516640Y366900D01*
X516243Y369912D01*
X515080Y372720D01*
X513230Y375130D01*
X511596Y376384D01*
Y382816D01*
X513230Y384070D01*
X515080Y386480D01*
X516243Y389287D01*
X516640Y392300D01*
X516243Y395312D01*
X515080Y398120D01*
X513230Y400530D01*
X511596Y401784D01*
Y408216D01*
X513230Y409470D01*
X515080Y411880D01*
X516243Y414688D01*
X516640Y417700D01*
X516243Y420713D01*
X515080Y423520D01*
X513230Y425930D01*
X510820Y427780D01*
X508013Y428943D01*
X505000Y429340D01*
D02*
G37*
G36*
X107000Y324340D02*
X103988Y323943D01*
X101180Y322780D01*
X98770Y320930D01*
X96920Y318520D01*
X95757Y315713D01*
X95360Y312700D01*
X95757Y309688D01*
X96920Y306880D01*
X98770Y304470D01*
X101180Y302620D01*
X103988Y301457D01*
X107000Y301061D01*
X110013Y301457D01*
X112820Y302620D01*
X115230Y304470D01*
X117080Y306880D01*
X118243Y309688D01*
X118640Y312700D01*
X118243Y315713D01*
X117080Y318520D01*
X115230Y320930D01*
X112820Y322780D01*
X110013Y323943D01*
X107000Y324340D01*
D02*
G37*
G36*
X465505Y322368D02*
X464495D01*
X462739Y322019D01*
X461805Y321632D01*
X460317Y320638D01*
X460317Y320638D01*
X459602Y319923D01*
X459602Y319923D01*
X458608Y318435D01*
X458221Y317501D01*
X457872Y315745D01*
Y315490D01*
X457822Y315240D01*
X457872Y314990D01*
Y314735D01*
X458221Y312979D01*
X458608Y312045D01*
X459602Y310557D01*
X459602Y310557D01*
X460317Y309842D01*
X460317Y309842D01*
X461805Y308848D01*
X462739Y308461D01*
X464495Y308112D01*
X465505D01*
X467261Y308461D01*
X468195Y308848D01*
X469683Y309842D01*
X469683Y309842D01*
X470398Y310557D01*
X470398Y310557D01*
X471392Y312045D01*
X471779Y312979D01*
X472128Y314735D01*
Y314990D01*
X472178Y315240D01*
X472128Y315490D01*
Y315745D01*
X471779Y317501D01*
X471392Y318435D01*
X470398Y319923D01*
X470398Y319923D01*
X469683Y320638D01*
X469683Y320638D01*
X468195Y321632D01*
X467261Y322019D01*
X465505Y322368D01*
D02*
G37*
G36*
X459500Y345330D02*
X450500D01*
X449509Y345133D01*
X448669Y344571D01*
X448107Y343731D01*
X447910Y342740D01*
Y334740D01*
X448107Y333749D01*
X448669Y332909D01*
X449509Y332347D01*
X450500Y332150D01*
X459500D01*
X460491Y332347D01*
X461331Y332909D01*
X461893Y333749D01*
X462090Y334740D01*
Y342740D01*
X461893Y343731D01*
X461331Y344571D01*
X460491Y345133D01*
X459500Y345330D01*
D02*
G37*
G36*
X111500Y349690D02*
X102500D01*
X101509Y349493D01*
X100669Y348931D01*
X96169Y344431D01*
X95607Y343591D01*
X95410Y342600D01*
Y333600D01*
X95607Y332609D01*
X96169Y331769D01*
X100669Y327269D01*
X101509Y326707D01*
X102500Y326510D01*
X111500D01*
X112491Y326707D01*
X113331Y327269D01*
X117831Y331769D01*
X118393Y332609D01*
X118590Y333600D01*
Y342600D01*
X118393Y343591D01*
X117831Y344431D01*
X113331Y348931D01*
X112491Y349493D01*
X111500Y349690D01*
D02*
G37*
%LPD*%
D10*
X455000Y261740D02*
D03*
X475000D02*
D03*
X455000Y338740D02*
D03*
X475000D02*
D03*
D11*
X443250Y322240D02*
D03*
Y307240D02*
D03*
Y274240D02*
D03*
D12*
X286000Y286000D02*
D03*
Y306000D02*
D03*
D13*
X285000Y148000D02*
D03*
Y134000D02*
D03*
D14*
X156750Y287250D02*
D03*
X143750D02*
D03*
X157000Y261750D02*
D03*
X144000D02*
D03*
D15*
X248000Y307000D02*
X286000D01*
X413000Y322000D02*
X443010D01*
X443250Y322240D01*
X410240Y307240D02*
X443250D01*
Y297500D02*
Y307240D01*
Y297500D02*
X505000D01*
X287700Y80000D02*
Y115300D01*
X285000Y118000D02*
X287700Y115300D01*
X285000Y118000D02*
Y134000D01*
Y148000D02*
Y210000D01*
X285000Y210000D02*
X287000Y212000D01*
Y286000D01*
D16*
X505000Y392300D02*
Y417700D01*
Y366900D02*
Y392300D01*
X437950Y155950D02*
X504500D01*
X437950D02*
Y194050D01*
X403000Y229000D02*
X437950Y194050D01*
X403000Y229000D02*
Y300000D01*
X410240Y307240D01*
X505000Y297500D02*
Y366900D01*
X234810Y134190D02*
X263000Y106000D01*
X262300Y80000D02*
Y105300D01*
X263000Y106000D01*
X203000Y336000D02*
X399000D01*
X413000Y322000D01*
X234810Y134190D02*
Y293810D01*
X248000Y307000D01*
D17*
X107050Y287250D02*
X143750D01*
X107000Y287300D02*
X107050Y287250D01*
X107150Y261750D02*
X144000D01*
X107000Y261900D02*
X107150Y261750D01*
X157000D02*
Y287000D01*
X156750Y287250D02*
X157000Y287000D01*
X156750Y287250D02*
X190750D01*
X203000Y299500D01*
Y336000D01*
D18*
X505000Y417700D02*
D03*
Y392300D02*
D03*
Y366900D02*
D03*
Y443100D02*
D03*
X504500Y206750D02*
D03*
Y181350D02*
D03*
Y155950D02*
D03*
Y232150D02*
D03*
X262300Y80000D02*
D03*
X287700D02*
D03*
X313100D02*
D03*
X107000Y261900D02*
D03*
Y287300D02*
D03*
Y312700D02*
D03*
D19*
X236900Y80000D02*
D03*
D20*
X107000Y338100D02*
D03*
D21*
X360000Y385000D02*
D03*
X190000D02*
D03*
Y215000D02*
D03*
X360000D02*
D03*
D22*
X505000Y550000D02*
D03*
X45000D02*
D03*
Y50000D02*
D03*
X505000D02*
D03*
M02*
