G04 Layer_Color=65535*
%FSLAX44Y44*%
%MOMM*%
G71*
G01*
G75*
%ADD23C,0.2000*%
%ADD24C,0.2540*%
G36*
X335493Y554992D02*
X336352Y554836D01*
X337368Y554524D01*
X338383Y554055D01*
X339476Y553352D01*
X340492Y552493D01*
X340570Y552415D01*
X340882Y552024D01*
X341351Y551478D01*
X341819Y550775D01*
X342288Y549837D01*
X342757Y548744D01*
X343069Y547572D01*
X343147Y546245D01*
Y546166D01*
Y546010D01*
Y545776D01*
X343069Y545463D01*
X342991Y544683D01*
X342757Y543667D01*
X342444Y542652D01*
X341898Y541636D01*
X341195Y540699D01*
X340257Y539996D01*
X340414Y539918D01*
X340726Y539684D01*
X341195Y539293D01*
X341741Y538668D01*
X342210Y537809D01*
X342679Y536794D01*
X342991Y535466D01*
X343147Y533826D01*
Y533748D01*
Y533670D01*
Y533201D01*
X342991Y532498D01*
X342835Y531639D01*
X342522Y530702D01*
X342054Y529608D01*
X341351Y528593D01*
X340492Y527578D01*
X340414Y527499D01*
X340023Y527187D01*
X339476Y526796D01*
X338773Y526328D01*
X337836Y525781D01*
X336743Y525391D01*
X335493Y525078D01*
X334165Y525000D01*
X331666D01*
X331197Y525078D01*
X330572Y525156D01*
X329713Y525312D01*
X328854Y525469D01*
X327761Y525781D01*
X326667Y526172D01*
X326511Y526250D01*
X326120Y526406D01*
X325574Y526718D01*
X324949Y527109D01*
X324324Y527578D01*
X323777Y528202D01*
X323387Y528827D01*
X323309Y529218D01*
X323231Y529608D01*
Y529686D01*
Y529764D01*
X323309Y530155D01*
X323465Y530702D01*
X323777Y531405D01*
Y531483D01*
X323855Y531561D01*
X324246Y531951D01*
X324715Y532264D01*
X325027Y532342D01*
X325417Y532420D01*
X325495D01*
X325652Y532342D01*
X325808Y532264D01*
X326199Y532186D01*
X326667Y532029D01*
X327292Y531717D01*
X328073Y531405D01*
X328151Y531326D01*
X328464Y531248D01*
X328932Y531092D01*
X329479Y530936D01*
X330807Y530545D01*
X331432Y530467D01*
X332056Y530389D01*
X334399D01*
X334634Y530467D01*
X335024Y530545D01*
X335805Y530858D01*
X336196Y531092D01*
X336586Y531405D01*
X336665Y531483D01*
X336743Y531561D01*
X336899Y531795D01*
X337133Y532108D01*
X337524Y532889D01*
X337602Y533357D01*
X337680Y533826D01*
Y533904D01*
Y534138D01*
X337602Y534373D01*
Y534763D01*
X337289Y535622D01*
X337055Y536013D01*
X336743Y536403D01*
X336586Y536559D01*
X336196Y536794D01*
X335493Y537106D01*
X334634Y537341D01*
X331822D01*
X331353Y537497D01*
X330729Y537731D01*
X330182Y538122D01*
X330026Y538278D01*
X329791Y538668D01*
X329557Y539215D01*
X329401Y539996D01*
Y540074D01*
Y540152D01*
X329479Y540621D01*
X329713Y541246D01*
X330182Y541871D01*
X330260Y541949D01*
X330338Y542027D01*
X330494Y542183D01*
X330807Y542339D01*
X331119Y542495D01*
X331588Y542574D01*
X332056Y542730D01*
X334243D01*
X334556Y542808D01*
X335024Y542886D01*
X335883Y543120D01*
X336352Y543355D01*
X336743Y543667D01*
X336821Y543745D01*
X336899Y543823D01*
X337055Y544058D01*
X337211Y544370D01*
X337524Y545151D01*
X337680Y545698D01*
Y546245D01*
Y546323D01*
Y546479D01*
X337602Y546713D01*
X337524Y547104D01*
X337289Y547885D01*
X336977Y548275D01*
X336665Y548666D01*
X336586Y548744D01*
X336508Y548822D01*
X336274Y548978D01*
X335962Y549212D01*
X335181Y549603D01*
X334712Y549681D01*
X334165Y549759D01*
X331432D01*
X330963Y549681D01*
X330416D01*
X329791Y549603D01*
X329010Y549447D01*
X328229Y549291D01*
X328151D01*
X327917Y549212D01*
X327526Y549134D01*
X327058Y549056D01*
X326120Y548666D01*
X325730Y548510D01*
X325417Y548275D01*
X325339D01*
X325261Y548197D01*
X324871Y548119D01*
X324558Y548041D01*
X324324Y548119D01*
X324011Y548275D01*
X323777Y548588D01*
Y548666D01*
X323699Y548744D01*
X323543Y549212D01*
X323309Y549837D01*
X323231Y550462D01*
Y550540D01*
X323309Y550775D01*
X323465Y551165D01*
X323699Y551634D01*
X324168Y552180D01*
X324793Y552805D01*
X325730Y553430D01*
X326355Y553665D01*
X326979Y553977D01*
X327136Y554055D01*
X327448Y554133D01*
X327995Y554367D01*
X328698Y554602D01*
X329479Y554758D01*
X330338Y554992D01*
X331197Y555070D01*
X332056Y555149D01*
X334790D01*
X335493Y554992D01*
D02*
G37*
G36*
X433515Y555070D02*
X433905Y554992D01*
X434452Y554836D01*
X434999Y554446D01*
X435389Y553977D01*
X435702Y553352D01*
X435858Y552415D01*
Y527656D01*
Y527578D01*
X435780Y527265D01*
X435702Y526796D01*
X435546Y526328D01*
X435155Y525859D01*
X434686Y525391D01*
X433983Y525078D01*
X433046Y525000D01*
X422580D01*
X422111Y525078D01*
X421409Y525156D01*
X420549Y525312D01*
X419534Y525625D01*
X418519Y526093D01*
X417425Y526640D01*
X416410Y527499D01*
X416332Y527656D01*
X416019Y527968D01*
X415629Y528515D01*
X415160Y529296D01*
X414691Y530155D01*
X414301Y531248D01*
X413988Y532498D01*
X413910Y533826D01*
Y552415D01*
Y552571D01*
X413988Y552883D01*
X414067Y553274D01*
X414223Y553821D01*
X414535Y554289D01*
X415004Y554758D01*
X415707Y555070D01*
X416566Y555149D01*
X416722D01*
X417035Y555070D01*
X417425Y554992D01*
X417972Y554836D01*
X418519Y554446D01*
X418909Y553977D01*
X419221Y553352D01*
X419378Y552415D01*
Y533826D01*
Y533748D01*
Y533591D01*
X419456Y533357D01*
X419534Y532967D01*
X419846Y532186D01*
X420081Y531795D01*
X420393Y531405D01*
X420471Y531326D01*
X420549Y531248D01*
X420784Y531092D01*
X421096Y530936D01*
X421799Y530545D01*
X422268Y530467D01*
X422736Y530389D01*
X430391D01*
Y552415D01*
Y552571D01*
X430469Y552883D01*
X430547Y553274D01*
X430703Y553821D01*
X431015Y554289D01*
X431484Y554758D01*
X432187Y555070D01*
X433046Y555149D01*
X433202D01*
X433515Y555070D01*
D02*
G37*
G36*
X370250D02*
X370640Y554992D01*
X371187Y554836D01*
X371734Y554446D01*
X372124Y553977D01*
X372437Y553352D01*
X372593Y552415D01*
Y527656D01*
Y527578D01*
X372515Y527265D01*
X372437Y526796D01*
X372280Y526328D01*
X371890Y525859D01*
X371421Y525391D01*
X370718Y525078D01*
X369781Y525000D01*
X369703D01*
X369390Y525078D01*
X368922Y525156D01*
X368453Y525312D01*
X367985Y525625D01*
X367516Y526093D01*
X367204Y526796D01*
X367126Y527656D01*
Y537419D01*
X356113D01*
Y527656D01*
Y527578D01*
X356035Y527265D01*
X355956Y526796D01*
X355800Y526328D01*
X355410Y525859D01*
X354941Y525391D01*
X354238Y525078D01*
X353301Y525000D01*
X353223D01*
X352910Y525078D01*
X352442Y525156D01*
X351973Y525312D01*
X351505Y525625D01*
X351036Y526093D01*
X350723Y526796D01*
X350645Y527656D01*
Y552415D01*
Y552571D01*
X350723Y552883D01*
X350802Y553274D01*
X350958Y553821D01*
X351270Y554289D01*
X351739Y554758D01*
X352442Y555070D01*
X353301Y555149D01*
X353457D01*
X353769Y555070D01*
X354160Y554992D01*
X354707Y554836D01*
X355253Y554446D01*
X355644Y553977D01*
X355956Y553352D01*
X356113Y552415D01*
Y542808D01*
X367126D01*
Y552415D01*
Y552571D01*
X367204Y552883D01*
X367282Y553274D01*
X367438Y553821D01*
X367750Y554289D01*
X368219Y554758D01*
X368922Y555070D01*
X369781Y555149D01*
X369937D01*
X370250Y555070D01*
D02*
G37*
G36*
X383293D02*
X383684Y554992D01*
X384230Y554836D01*
X384777Y554446D01*
X385168Y553977D01*
X385480Y553352D01*
X385636Y552415D01*
Y542808D01*
X389620D01*
X390323Y542652D01*
X391182Y542495D01*
X392197Y542183D01*
X393213Y541715D01*
X394306Y541012D01*
X395321Y540152D01*
X395400Y540074D01*
X395712Y539684D01*
X396181Y539137D01*
X396649Y538434D01*
X397118Y537497D01*
X397587Y536403D01*
X397899Y535232D01*
X397977Y533904D01*
Y533826D01*
Y533748D01*
Y533279D01*
X397821Y532576D01*
X397665Y531717D01*
X397352Y530702D01*
X396884Y529686D01*
X396181Y528593D01*
X395321Y527578D01*
X395243Y527499D01*
X394853Y527187D01*
X394306Y526796D01*
X393603Y526328D01*
X392666Y525781D01*
X391572Y525391D01*
X390323Y525078D01*
X388995Y525000D01*
X382747D01*
X382434Y525078D01*
X381965Y525156D01*
X381497Y525312D01*
X381028Y525625D01*
X380560Y526093D01*
X380247Y526796D01*
X380169Y527656D01*
Y552415D01*
Y552571D01*
X380247Y552883D01*
X380325Y553274D01*
X380481Y553821D01*
X380794Y554289D01*
X381263Y554758D01*
X381965Y555070D01*
X382825Y555149D01*
X382981D01*
X383293Y555070D01*
D02*
G37*
G36*
X403913D02*
X404304Y554992D01*
X404850Y554836D01*
X405397Y554446D01*
X405788Y553977D01*
X406100Y553352D01*
X406256Y552415D01*
Y527656D01*
Y527578D01*
X406178Y527265D01*
X406100Y526796D01*
X405944Y526328D01*
X405553Y525859D01*
X405084Y525391D01*
X404382Y525078D01*
X403444Y525000D01*
X403366D01*
X403054Y525078D01*
X402585Y525156D01*
X402117Y525312D01*
X401648Y525625D01*
X401179Y526093D01*
X400867Y526796D01*
X400789Y527656D01*
Y552415D01*
Y552571D01*
X400867Y552883D01*
X400945Y553274D01*
X401101Y553821D01*
X401414Y554289D01*
X401882Y554758D01*
X402585Y555070D01*
X403444Y555149D01*
X403601D01*
X403913Y555070D01*
D02*
G37*
G36*
X212087D02*
X212478Y554992D01*
X213024Y554836D01*
X213571Y554446D01*
X213962Y553977D01*
X214274Y553352D01*
X214430Y552415D01*
Y521485D01*
Y521407D01*
Y521329D01*
Y520860D01*
X214274Y520158D01*
X214118Y519298D01*
X213805Y518361D01*
X213337Y517268D01*
X212712Y516252D01*
X211853Y515237D01*
X211775Y515159D01*
X211384Y514846D01*
X210837Y514378D01*
X210135Y513909D01*
X209197Y513441D01*
X208104Y512972D01*
X206854Y512659D01*
X205526Y512581D01*
X197091D01*
X196779Y512659D01*
X196310Y512738D01*
X195841Y512894D01*
X195373Y513284D01*
X194904Y513753D01*
X194592Y514378D01*
X194513Y515315D01*
Y515393D01*
Y515471D01*
X194592Y515940D01*
X194826Y516565D01*
X195294Y517189D01*
X195373D01*
X195451Y517346D01*
X195841Y517580D01*
X196466Y517814D01*
X197169Y517971D01*
X205683D01*
X205995Y518049D01*
X206307Y518127D01*
X207167Y518439D01*
X207557Y518674D01*
X207948Y518986D01*
X208026Y519064D01*
X208104Y519142D01*
X208260Y519376D01*
X208494Y519689D01*
X208807Y520470D01*
X208885Y520938D01*
X208963Y521485D01*
Y525000D01*
X201152D01*
X200684Y525078D01*
X199981Y525156D01*
X199122Y525312D01*
X198106Y525625D01*
X197091Y526093D01*
X195997Y526718D01*
X194982Y527578D01*
X194904Y527734D01*
X194592Y528046D01*
X194201Y528593D01*
X193732Y529296D01*
X193264Y530233D01*
X192873Y531326D01*
X192561Y532498D01*
X192483Y533826D01*
Y552415D01*
Y552571D01*
X192561Y552883D01*
X192639Y553274D01*
X192795Y553821D01*
X193108Y554289D01*
X193576Y554758D01*
X194279Y555070D01*
X195138Y555149D01*
X195294D01*
X195607Y555070D01*
X195997Y554992D01*
X196544Y554836D01*
X197091Y554446D01*
X197481Y553977D01*
X197794Y553352D01*
X197950Y552415D01*
Y533826D01*
Y533748D01*
Y533591D01*
X198028Y533357D01*
X198106Y532967D01*
X198419Y532186D01*
X198653Y531795D01*
X198965Y531405D01*
X199044Y531326D01*
X199122Y531248D01*
X199356Y531092D01*
X199668Y530936D01*
X200371Y530545D01*
X200840Y530467D01*
X201309Y530389D01*
X208963D01*
Y552415D01*
Y552571D01*
X209041Y552883D01*
X209119Y553274D01*
X209275Y553821D01*
X209588Y554289D01*
X210056Y554758D01*
X210759Y555070D01*
X211618Y555149D01*
X211775D01*
X212087Y555070D01*
D02*
G37*
G36*
X241611D02*
X242001Y554992D01*
X242548Y554836D01*
X243095Y554446D01*
X243485Y553977D01*
X243798Y553352D01*
X243954Y552415D01*
Y552259D01*
X243876Y551946D01*
X243798Y551399D01*
X243485Y550853D01*
X236143Y539996D01*
X243485Y529140D01*
X243563Y528983D01*
X243720Y528671D01*
X243876Y528202D01*
X243954Y527656D01*
Y527578D01*
X243876Y527265D01*
X243798Y526796D01*
X243641Y526328D01*
X243251Y525859D01*
X242782Y525391D01*
X242079Y525078D01*
X241142Y525000D01*
X240908D01*
X240674Y525078D01*
X240361D01*
X239736Y525391D01*
X239424Y525547D01*
X239189Y525859D01*
X232941Y535700D01*
X226927Y526172D01*
Y526093D01*
X226771Y526015D01*
X226380Y525625D01*
X225677Y525156D01*
X225209Y525078D01*
X224662Y525000D01*
X224506D01*
X224037Y525078D01*
X223412Y525312D01*
X222787Y525781D01*
X222631Y525937D01*
X222397Y526328D01*
X222163Y526875D01*
X222006Y527656D01*
Y527812D01*
X222085Y528124D01*
X222163Y528593D01*
X222397Y529140D01*
X229817Y539996D01*
X222397Y550931D01*
X222319Y551087D01*
X222241Y551399D01*
X222085Y551868D01*
X222006Y552415D01*
Y552571D01*
X222085Y552883D01*
X222163Y553274D01*
X222319Y553821D01*
X222631Y554289D01*
X223100Y554758D01*
X223803Y555070D01*
X224662Y555149D01*
X224896D01*
X225209Y555070D01*
X225521Y554992D01*
X225834Y554836D01*
X226224Y554602D01*
X226615Y554289D01*
X226927Y553899D01*
X232941Y544370D01*
X238955Y553899D01*
Y553977D01*
X239111Y554133D01*
X239502Y554524D01*
X240205Y554992D01*
X240674Y555070D01*
X241142Y555149D01*
X241298D01*
X241611Y555070D01*
D02*
G37*
G36*
X466917Y209991D02*
X467347Y209913D01*
X467854Y209757D01*
X468362Y209523D01*
X468908Y209171D01*
X469416Y208742D01*
X469455Y208703D01*
X469611Y208508D01*
X469845Y208235D01*
X470079Y207883D01*
X470314Y207415D01*
X470548Y206868D01*
X470704Y206283D01*
X470743Y205619D01*
Y196327D01*
Y196288D01*
X470704Y196132D01*
X470665Y195898D01*
X470587Y195664D01*
X470392Y195429D01*
X470157Y195195D01*
X469806Y195039D01*
X469338Y195000D01*
X469299D01*
X469142Y195039D01*
X468908Y195078D01*
X468674Y195156D01*
X468440Y195312D01*
X468205Y195546D01*
X468049Y195898D01*
X468010Y196327D01*
Y205619D01*
Y205658D01*
Y205736D01*
X467971Y205892D01*
X467932Y206048D01*
X467776Y206478D01*
X467659Y206673D01*
X467464Y206868D01*
X467425Y206907D01*
X467386Y206946D01*
X467268Y207024D01*
X467112Y207141D01*
X466722Y207297D01*
X466527Y207337D01*
X466253Y207376D01*
X464536D01*
Y196327D01*
Y196288D01*
X464497Y196132D01*
X464458Y195898D01*
X464380Y195664D01*
X464184Y195429D01*
X463950Y195195D01*
X463599Y195039D01*
X463130Y195000D01*
X463091D01*
X462935Y195039D01*
X462701Y195078D01*
X462467Y195156D01*
X462232Y195312D01*
X461998Y195546D01*
X461842Y195898D01*
X461803Y196327D01*
Y207376D01*
X458328D01*
Y196327D01*
Y196288D01*
X458289Y196132D01*
X458250Y195898D01*
X458172Y195664D01*
X457977Y195429D01*
X457743Y195195D01*
X457391Y195039D01*
X456923Y195000D01*
X456884D01*
X456728Y195039D01*
X456493Y195078D01*
X456259Y195156D01*
X456025Y195312D01*
X455791Y195546D01*
X455635Y195898D01*
X455596Y196327D01*
Y208703D01*
Y208781D01*
X455635Y208937D01*
X455674Y209132D01*
X455752Y209406D01*
X455908Y209640D01*
X456142Y209874D01*
X456493Y210030D01*
X456923Y210069D01*
X466566D01*
X466917Y209991D01*
D02*
G37*
G36*
X476130Y210030D02*
X476326Y209991D01*
X476599Y209913D01*
X476872Y209718D01*
X477067Y209484D01*
X477224Y209171D01*
X477302Y208703D01*
Y203901D01*
X481362D01*
X481713Y203823D01*
X482143Y203745D01*
X482650Y203589D01*
X483158Y203354D01*
X483704Y203003D01*
X484212Y202574D01*
X484251Y202535D01*
X484407Y202339D01*
X484641Y202066D01*
X484875Y201715D01*
X485110Y201246D01*
X485344Y200700D01*
X485500Y200114D01*
X485539Y199450D01*
Y199412D01*
Y199372D01*
Y199138D01*
X485461Y198787D01*
X485383Y198357D01*
X485227Y197850D01*
X484993Y197342D01*
X484641Y196796D01*
X484212Y196288D01*
X484173Y196249D01*
X483978Y196093D01*
X483704Y195898D01*
X483353Y195664D01*
X482884Y195390D01*
X482338Y195195D01*
X481713Y195039D01*
X481049Y195000D01*
X475857D01*
X475701Y195039D01*
X475467Y195078D01*
X475233Y195156D01*
X474998Y195312D01*
X474764Y195546D01*
X474608Y195898D01*
X474569Y196327D01*
Y208703D01*
Y208781D01*
X474608Y208937D01*
X474647Y209132D01*
X474725Y209406D01*
X474881Y209640D01*
X475116Y209874D01*
X475467Y210030D01*
X475896Y210069D01*
X475974D01*
X476130Y210030D01*
D02*
G37*
G36*
X416868Y216238D02*
X417063Y216199D01*
X417337Y216120D01*
X417610Y215925D01*
X417805Y215691D01*
X417961Y215379D01*
X418039Y214910D01*
Y196327D01*
Y196288D01*
X418000Y196132D01*
X417961Y195898D01*
X417883Y195664D01*
X417688Y195429D01*
X417454Y195195D01*
X417102Y195039D01*
X416634Y195000D01*
X416595D01*
X416439Y195039D01*
X416204Y195078D01*
X415970Y195156D01*
X415736Y195312D01*
X415502Y195546D01*
X415345Y195898D01*
X415307Y196327D01*
Y205306D01*
X407733D01*
Y196327D01*
Y196288D01*
X407694Y196132D01*
X407655Y195898D01*
X407577Y195664D01*
X407381Y195429D01*
X407147Y195195D01*
X406796Y195039D01*
X406327Y195000D01*
X406288D01*
X406132Y195039D01*
X405898Y195078D01*
X405664Y195156D01*
X405429Y195312D01*
X405195Y195546D01*
X405039Y195898D01*
X405000Y196327D01*
Y214910D01*
Y214988D01*
X405039Y215145D01*
X405078Y215340D01*
X405156Y215613D01*
X405312Y215847D01*
X405547Y216082D01*
X405898Y216238D01*
X406327Y216277D01*
X406405D01*
X406562Y216238D01*
X406757Y216199D01*
X407030Y216120D01*
X407303Y215925D01*
X407499Y215691D01*
X407655Y215379D01*
X407733Y214910D01*
Y208000D01*
X415307D01*
Y214910D01*
Y214988D01*
X415345Y215145D01*
X415385Y215340D01*
X415463Y215613D01*
X415619Y215847D01*
X415853Y216082D01*
X416204Y216238D01*
X416634Y216277D01*
X416712D01*
X416868Y216238D01*
D02*
G37*
G36*
X429375Y567489D02*
X429766Y567411D01*
X430312Y567255D01*
X430859Y566864D01*
X431250Y566396D01*
X431562Y565771D01*
X431718Y564833D01*
Y564755D01*
X431640Y564443D01*
X431562Y563974D01*
X431406Y563506D01*
X431015Y563037D01*
X430547Y562569D01*
X429844Y562256D01*
X428907Y562178D01*
X420627D01*
X420315Y562256D01*
X419846Y562334D01*
X419378Y562490D01*
X418831Y562803D01*
X418441Y563271D01*
X418128Y563974D01*
X417972Y564833D01*
Y564990D01*
X418050Y565302D01*
X418128Y565693D01*
X418284Y566239D01*
X418675Y566708D01*
X419143Y567177D01*
X419768Y567489D01*
X420705Y567567D01*
X429063D01*
X429375Y567489D01*
D02*
G37*
G36*
X444391Y214168D02*
X444586Y214130D01*
X444860Y214051D01*
X445133Y213856D01*
X445328Y213622D01*
X445484Y213310D01*
X445562Y212841D01*
Y210069D01*
X445875D01*
X446187Y210030D01*
X446616D01*
X447046Y209952D01*
X447514Y209874D01*
X447983Y209796D01*
X448373Y209640D01*
X448451Y209601D01*
X448647Y209523D01*
X448920Y209367D01*
X449271Y209171D01*
X449661Y208859D01*
X450052Y208508D01*
X450481Y208117D01*
X450833Y207610D01*
X450872Y207532D01*
X450989Y207376D01*
X451145Y207102D01*
X451301Y206712D01*
X451457Y206283D01*
X451614Y205775D01*
X451731Y205189D01*
X451770Y204604D01*
Y200466D01*
Y200427D01*
Y200348D01*
Y200231D01*
X451731Y200075D01*
X451692Y199685D01*
X451575Y199138D01*
X451379Y198514D01*
X451067Y197889D01*
X450677Y197225D01*
X450130Y196601D01*
X450052Y196523D01*
X449857Y196366D01*
X449505Y196093D01*
X449037Y195820D01*
X448490Y195508D01*
X447827Y195234D01*
X447046Y195078D01*
X446226Y195000D01*
X445562D01*
Y190159D01*
Y190120D01*
X445523Y189964D01*
X445484Y189730D01*
X445406Y189495D01*
X445211Y189222D01*
X444977Y189027D01*
X444625Y188871D01*
X444157Y188793D01*
X444118D01*
X443962Y188832D01*
X443727Y188871D01*
X443493Y188949D01*
X443259Y189144D01*
X443025Y189378D01*
X442869Y189691D01*
X442830Y190159D01*
Y195000D01*
X441854D01*
X441697Y195039D01*
X441307Y195078D01*
X440760Y195195D01*
X440136Y195390D01*
X439511Y195664D01*
X438848Y196054D01*
X438223Y196562D01*
X438145Y196640D01*
X437989Y196835D01*
X437715Y197186D01*
X437442Y197655D01*
X437130Y198201D01*
X436856Y198904D01*
X436700Y199646D01*
X436622Y200466D01*
Y204565D01*
Y204604D01*
Y204682D01*
Y204799D01*
X436661Y204955D01*
X436700Y205385D01*
X436817Y205931D01*
X437013Y206517D01*
X437286Y207180D01*
X437676Y207844D01*
X438223Y208469D01*
X438301Y208547D01*
X438496Y208703D01*
X438848Y208976D01*
X439316Y209289D01*
X439863Y209562D01*
X440526Y209835D01*
X441268Y209991D01*
X442088Y210069D01*
X442830D01*
Y212841D01*
Y212919D01*
X442869Y213075D01*
X442908Y213271D01*
X442986Y213544D01*
X443142Y213778D01*
X443376Y214012D01*
X443727Y214168D01*
X444157Y214208D01*
X444235D01*
X444391Y214168D01*
D02*
G37*
G36*
X427721Y210030D02*
X428151Y209991D01*
X428697Y209874D01*
X429283Y209679D01*
X429946Y209406D01*
X430610Y209015D01*
X431235Y208469D01*
X431313Y208391D01*
X431469Y208195D01*
X431742Y207844D01*
X432055Y207376D01*
X432328Y206829D01*
X432601Y206165D01*
X432757Y205424D01*
X432835Y204604D01*
Y201207D01*
X424598D01*
Y199450D01*
Y199412D01*
Y199333D01*
X424637Y199177D01*
X424676Y199021D01*
X424832Y198631D01*
X424949Y198396D01*
X425106Y198201D01*
X425145Y198162D01*
X425184Y198123D01*
X425301Y198045D01*
X425457Y197967D01*
X425808Y197772D01*
X426043Y197733D01*
X426277Y197694D01*
X431508D01*
X431664Y197655D01*
X431859Y197616D01*
X432133Y197538D01*
X432406Y197342D01*
X432601Y197108D01*
X432757Y196796D01*
X432835Y196327D01*
Y196288D01*
X432796Y196132D01*
X432757Y195898D01*
X432679Y195664D01*
X432484Y195429D01*
X432250Y195195D01*
X431898Y195039D01*
X431430Y195000D01*
X426199D01*
X425964Y195039D01*
X425613Y195078D01*
X425184Y195156D01*
X424676Y195312D01*
X424169Y195546D01*
X423622Y195820D01*
X423115Y196249D01*
X423075Y196327D01*
X422919Y196483D01*
X422724Y196757D01*
X422490Y197147D01*
X422256Y197577D01*
X422060Y198123D01*
X421904Y198748D01*
X421865Y199412D01*
Y204565D01*
Y204604D01*
Y204682D01*
Y204799D01*
X421904Y204955D01*
X421943Y205385D01*
X422060Y205931D01*
X422256Y206517D01*
X422529Y207180D01*
X422919Y207844D01*
X423427Y208469D01*
X423505Y208547D01*
X423700Y208703D01*
X424051Y208976D01*
X424520Y209289D01*
X425066Y209562D01*
X425769Y209835D01*
X426511Y209991D01*
X427331Y210069D01*
X427565D01*
X427721Y210030D01*
D02*
G37*
G36*
X187022Y505070D02*
X187881Y504992D01*
X188974Y504758D01*
X190146Y504367D01*
X191474Y503821D01*
X192801Y503040D01*
X194051Y501946D01*
X194207Y501790D01*
X194520Y501399D01*
X195067Y500696D01*
X195691Y499759D01*
X196238Y498666D01*
X196785Y497338D01*
X197097Y495854D01*
X197253Y494214D01*
Y487419D01*
X180773D01*
Y483904D01*
Y483826D01*
Y483670D01*
X180851Y483357D01*
X180930Y483045D01*
X181242Y482264D01*
X181476Y481795D01*
X181789Y481405D01*
X181867Y481326D01*
X181945Y481248D01*
X182179Y481092D01*
X182492Y480936D01*
X183195Y480545D01*
X183663Y480467D01*
X184132Y480389D01*
X194598D01*
X194910Y480311D01*
X195301Y480233D01*
X195848Y480077D01*
X196394Y479686D01*
X196785Y479218D01*
X197097Y478593D01*
X197253Y477656D01*
Y477578D01*
X197175Y477265D01*
X197097Y476796D01*
X196941Y476328D01*
X196551Y475859D01*
X196082Y475391D01*
X195379Y475078D01*
X194442Y475000D01*
X183976D01*
X183507Y475078D01*
X182804Y475156D01*
X181945Y475312D01*
X180930Y475625D01*
X179914Y476093D01*
X178821Y476640D01*
X177805Y477499D01*
X177727Y477656D01*
X177415Y477968D01*
X177024Y478515D01*
X176556Y479296D01*
X176087Y480155D01*
X175697Y481248D01*
X175384Y482498D01*
X175306Y483826D01*
Y494136D01*
Y494214D01*
Y494370D01*
Y494604D01*
X175384Y494917D01*
X175462Y495776D01*
X175697Y496869D01*
X176087Y498041D01*
X176634Y499369D01*
X177415Y500696D01*
X178430Y501946D01*
X178586Y502102D01*
X178977Y502415D01*
X179680Y502962D01*
X180617Y503586D01*
X181711Y504133D01*
X183116Y504680D01*
X184601Y504992D01*
X186241Y505149D01*
X186709D01*
X187022Y505070D01*
D02*
G37*
G36*
X219123Y504992D02*
X219982Y504836D01*
X220997Y504524D01*
X222013Y504055D01*
X223106Y503352D01*
X224122Y502493D01*
X224200Y502415D01*
X224512Y502024D01*
X224981Y501478D01*
X225449Y500775D01*
X225918Y499837D01*
X226387Y498744D01*
X226699Y497572D01*
X226777Y496245D01*
Y477656D01*
Y477578D01*
X226699Y477265D01*
X226621Y476796D01*
X226465Y476328D01*
X226074Y475859D01*
X225606Y475391D01*
X224903Y475078D01*
X223965Y475000D01*
X223887D01*
X223575Y475078D01*
X223106Y475156D01*
X222638Y475312D01*
X222169Y475625D01*
X221700Y476093D01*
X221388Y476796D01*
X221310Y477656D01*
Y496245D01*
Y496323D01*
Y496479D01*
X221232Y496791D01*
X221154Y497104D01*
X220919Y497963D01*
X220607Y498353D01*
X220294Y498744D01*
X220216Y498822D01*
X220138Y498900D01*
X219904Y499056D01*
X219592Y499291D01*
X218811Y499603D01*
X218342Y499681D01*
X217795Y499759D01*
X210297D01*
Y477656D01*
Y477578D01*
X210219Y477265D01*
X210141Y476796D01*
X209985Y476328D01*
X209594Y475859D01*
X209125Y475391D01*
X208423Y475078D01*
X207485Y475000D01*
X207407D01*
X207095Y475078D01*
X206626Y475156D01*
X206157Y475312D01*
X205689Y475625D01*
X205220Y476093D01*
X204908Y476796D01*
X204830Y477656D01*
Y502415D01*
Y502571D01*
X204908Y502883D01*
X204986Y503274D01*
X205142Y503821D01*
X205455Y504289D01*
X205923Y504758D01*
X206626Y505070D01*
X207485Y505149D01*
X218420D01*
X219123Y504992D01*
D02*
G37*
G36*
X253958Y505070D02*
X254348Y504992D01*
X254895Y504836D01*
X255442Y504446D01*
X255832Y503977D01*
X256145Y503352D01*
X256301Y502415D01*
Y481795D01*
Y481717D01*
Y481561D01*
X256379Y481326D01*
X256535Y481092D01*
X256770Y480780D01*
X257160Y480545D01*
X257629Y480389D01*
X258332Y480311D01*
X258644D01*
X259035Y480155D01*
X259425Y479999D01*
X259737Y479686D01*
X260128Y479218D01*
X260362Y478515D01*
X260441Y477656D01*
Y477578D01*
X260362Y477265D01*
X260284Y476796D01*
X260128Y476328D01*
X259737Y475859D01*
X259269Y475391D01*
X258566Y475078D01*
X257629Y475000D01*
X257082D01*
X256535Y475156D01*
X255832Y475312D01*
X255129Y475547D01*
X254270Y475937D01*
X253567Y476484D01*
X252864Y477187D01*
X252786Y477109D01*
X252474Y476875D01*
X252083Y476484D01*
X251458Y476093D01*
X250677Y475703D01*
X249740Y475312D01*
X248568Y475078D01*
X247319Y475000D01*
X243023D01*
X242554Y475078D01*
X241852Y475156D01*
X240992Y475312D01*
X239977Y475625D01*
X238962Y476093D01*
X237868Y476640D01*
X236853Y477499D01*
X236775Y477656D01*
X236462Y477968D01*
X236072Y478515D01*
X235603Y479296D01*
X235135Y480155D01*
X234744Y481248D01*
X234431Y482498D01*
X234353Y483826D01*
Y496245D01*
Y496323D01*
Y496401D01*
X234431Y496869D01*
X234510Y497572D01*
X234666Y498432D01*
X234978Y499447D01*
X235447Y500462D01*
X235994Y501556D01*
X236853Y502571D01*
X237009Y502649D01*
X237321Y502962D01*
X237868Y503352D01*
X238649Y503899D01*
X239508Y504367D01*
X240602Y504758D01*
X241852Y505070D01*
X243179Y505149D01*
X253645D01*
X253958Y505070D01*
D02*
G37*
G36*
X282388Y504992D02*
X283247Y504836D01*
X284263Y504524D01*
X285278Y504055D01*
X286371Y503352D01*
X287387Y502493D01*
X287465Y502415D01*
X287777Y502024D01*
X288246Y501478D01*
X288715Y500775D01*
X289183Y499837D01*
X289652Y498744D01*
X289964Y497572D01*
X290042Y496245D01*
Y483826D01*
Y483748D01*
Y483670D01*
Y483201D01*
X289886Y482498D01*
X289730Y481639D01*
X289417Y480702D01*
X288949Y479608D01*
X288246Y478593D01*
X287387Y477578D01*
X287309Y477499D01*
X286918Y477187D01*
X286371Y476796D01*
X285668Y476328D01*
X284731Y475781D01*
X283638Y475391D01*
X282388Y475078D01*
X281060Y475000D01*
X273562D01*
Y465315D01*
Y465237D01*
X273484Y464924D01*
X273406Y464456D01*
X273250Y463987D01*
X272859Y463440D01*
X272390Y463050D01*
X271688Y462738D01*
X270750Y462581D01*
X270672D01*
X270360Y462659D01*
X269891Y462738D01*
X269422Y462894D01*
X268954Y463284D01*
X268485Y463753D01*
X268173Y464378D01*
X268095Y465315D01*
Y502415D01*
Y502571D01*
X268173Y502883D01*
X268251Y503274D01*
X268407Y503821D01*
X268720Y504289D01*
X269188Y504758D01*
X269891Y505070D01*
X270750Y505149D01*
X281685D01*
X282388Y504992D01*
D02*
G37*
G36*
X413136D02*
X413995Y504836D01*
X415010Y504524D01*
X416026Y504055D01*
X417119Y503352D01*
X418134Y502493D01*
X418213Y502415D01*
X418525Y502024D01*
X418994Y501478D01*
X419462Y500775D01*
X419931Y499837D01*
X420400Y498744D01*
X420712Y497572D01*
X420790Y496245D01*
Y483826D01*
Y483748D01*
Y483670D01*
Y483201D01*
X420634Y482498D01*
X420478Y481639D01*
X420165Y480702D01*
X419697Y479608D01*
X418994Y478593D01*
X418134Y477578D01*
X418056Y477499D01*
X417666Y477187D01*
X417119Y476796D01*
X416416Y476328D01*
X415479Y475781D01*
X414385Y475391D01*
X413136Y475078D01*
X411808Y475000D01*
X404310D01*
Y465315D01*
Y465237D01*
X404232Y464924D01*
X404154Y464456D01*
X403997Y463987D01*
X403607Y463440D01*
X403138Y463050D01*
X402435Y462738D01*
X401498Y462581D01*
X401420D01*
X401108Y462659D01*
X400639Y462738D01*
X400170Y462894D01*
X399702Y463284D01*
X399233Y463753D01*
X398921Y464378D01*
X398843Y465315D01*
Y502415D01*
Y502571D01*
X398921Y502883D01*
X398999Y503274D01*
X399155Y503821D01*
X399467Y504289D01*
X399936Y504758D01*
X400639Y505070D01*
X401498Y505149D01*
X412433D01*
X413136Y504992D01*
D02*
G37*
G36*
X165465Y505070D02*
X165855Y504992D01*
X166402Y504836D01*
X166949Y504446D01*
X167339Y503977D01*
X167652Y503352D01*
X167808Y502415D01*
Y502337D01*
X167730Y502024D01*
X167652Y501556D01*
X167495Y501087D01*
X167105Y500618D01*
X166636Y500150D01*
X166012Y499837D01*
X165074Y499759D01*
X158592D01*
X158357Y499681D01*
X157967Y499603D01*
X157186Y499369D01*
X156795Y499056D01*
X156405Y498744D01*
Y498666D01*
X156248Y498588D01*
X156092Y498353D01*
X155936Y498041D01*
X155624Y497260D01*
X155546Y496791D01*
X155467Y496245D01*
Y483826D01*
Y483748D01*
Y483591D01*
X155546Y483357D01*
X155624Y482967D01*
X155936Y482186D01*
X156170Y481795D01*
X156483Y481405D01*
X156561Y481326D01*
X156639Y481248D01*
X156873Y481092D01*
X157186Y480936D01*
X157889Y480545D01*
X158357Y480467D01*
X158826Y480389D01*
X165231D01*
X165543Y480311D01*
X165933Y480233D01*
X166480Y480077D01*
X166949Y479686D01*
X167417Y479218D01*
X167730Y478593D01*
X167808Y477656D01*
Y477578D01*
X167730Y477265D01*
X167652Y476796D01*
X167495Y476328D01*
X167105Y475859D01*
X166636Y475391D01*
X165933Y475078D01*
X164996Y475000D01*
X158670D01*
X158201Y475078D01*
X157498Y475156D01*
X156639Y475312D01*
X155624Y475625D01*
X154608Y476093D01*
X153515Y476640D01*
X152499Y477499D01*
X152421Y477656D01*
X152109Y477968D01*
X151718Y478515D01*
X151250Y479296D01*
X150781Y480155D01*
X150391Y481248D01*
X150078Y482498D01*
X150000Y483826D01*
Y496245D01*
Y496323D01*
Y496401D01*
X150078Y496869D01*
X150156Y497572D01*
X150312Y498432D01*
X150625Y499447D01*
X151094Y500462D01*
X151640Y501556D01*
X152499Y502571D01*
X152656Y502649D01*
X152968Y502962D01*
X153515Y503352D01*
X154296Y503899D01*
X155155Y504367D01*
X156248Y504758D01*
X157498Y505070D01*
X158826Y505149D01*
X165152D01*
X165465Y505070D01*
D02*
G37*
G36*
X317223D02*
X317613Y504992D01*
X318160Y504836D01*
X318707Y504446D01*
X319097Y503977D01*
X319410Y503352D01*
X319566Y502415D01*
Y481795D01*
Y481717D01*
Y481561D01*
X319644Y481326D01*
X319800Y481092D01*
X320035Y480780D01*
X320425Y480545D01*
X320894Y480389D01*
X321597Y480311D01*
X321909D01*
X322300Y480155D01*
X322690Y479999D01*
X323003Y479686D01*
X323393Y479218D01*
X323627Y478515D01*
X323705Y477656D01*
Y477578D01*
X323627Y477265D01*
X323549Y476796D01*
X323393Y476328D01*
X323003Y475859D01*
X322534Y475391D01*
X321831Y475078D01*
X320894Y475000D01*
X320347D01*
X319800Y475156D01*
X319097Y475312D01*
X318394Y475547D01*
X317535Y475937D01*
X316832Y476484D01*
X316129Y477187D01*
X316051Y477109D01*
X315739Y476875D01*
X315348Y476484D01*
X314723Y476093D01*
X313942Y475703D01*
X313005Y475312D01*
X311834Y475078D01*
X310584Y475000D01*
X306288D01*
X305819Y475078D01*
X305117Y475156D01*
X304257Y475312D01*
X303242Y475625D01*
X302227Y476093D01*
X301133Y476640D01*
X300118Y477499D01*
X300040Y477656D01*
X299727Y477968D01*
X299337Y478515D01*
X298868Y479296D01*
X298400Y480155D01*
X298009Y481248D01*
X297697Y482498D01*
X297619Y483826D01*
Y496245D01*
Y496323D01*
Y496401D01*
X297697Y496869D01*
X297775Y497572D01*
X297931Y498432D01*
X298243Y499447D01*
X298712Y500462D01*
X299259Y501556D01*
X300118Y502571D01*
X300274Y502649D01*
X300586Y502962D01*
X301133Y503352D01*
X301914Y503899D01*
X302773Y504367D01*
X303867Y504758D01*
X305117Y505070D01*
X306444Y505149D01*
X316910D01*
X317223Y505070D01*
D02*
G37*
G36*
X148744Y567489D02*
X149134Y567411D01*
X149681Y567255D01*
X150228Y566864D01*
X150618Y566396D01*
X150931Y565771D01*
X151087Y564833D01*
Y530389D01*
X151946D01*
X152649Y530311D01*
X152962D01*
X153196Y530233D01*
X153274D01*
X153508Y530155D01*
X153821Y529921D01*
X154211Y529686D01*
X154602Y529374D01*
X154914Y528905D01*
X155148Y528358D01*
X155227Y527656D01*
Y521563D01*
Y521485D01*
X155148Y521173D01*
X155070Y520704D01*
X154914Y520236D01*
X154524Y519689D01*
X154055Y519298D01*
X153352Y518986D01*
X152415Y518830D01*
X152337D01*
X152024Y518908D01*
X151556Y518986D01*
X151087Y519142D01*
X150618Y519533D01*
X150150Y520001D01*
X149837Y520626D01*
X149759Y521563D01*
Y525000D01*
X130467D01*
Y521563D01*
Y521485D01*
X130389Y521173D01*
X130311Y520704D01*
X130155Y520236D01*
X129764Y519689D01*
X129296Y519298D01*
X128593Y518986D01*
X127656Y518830D01*
X127577D01*
X127265Y518908D01*
X126796Y518986D01*
X126328Y519142D01*
X125859Y519533D01*
X125391Y520001D01*
X125078Y520626D01*
X125000Y521563D01*
Y527656D01*
Y527734D01*
Y527968D01*
X125078Y528358D01*
X125234Y528749D01*
X125469Y529218D01*
X125781Y529608D01*
X126250Y529999D01*
X126875Y530233D01*
X126953D01*
X127109Y530311D01*
X127656D01*
X128046Y530389D01*
X129140D01*
X133435Y564990D01*
Y565068D01*
X133513Y565380D01*
X133670Y565771D01*
X133904Y566317D01*
X134216Y566786D01*
X134607Y567177D01*
X135232Y567489D01*
X135935Y567567D01*
X148432D01*
X148744Y567489D01*
D02*
G37*
G36*
X173113Y567411D02*
X173972Y567255D01*
X174987Y566942D01*
X176003Y566474D01*
X177096Y565771D01*
X178111Y564912D01*
X178190Y564833D01*
X178502Y564443D01*
X178971Y563896D01*
X179439Y563193D01*
X179908Y562256D01*
X180376Y561163D01*
X180689Y559991D01*
X180767Y558663D01*
Y558507D01*
Y558116D01*
X180689Y557492D01*
X180533Y556789D01*
X180220Y556008D01*
X179908Y555149D01*
X179361Y554446D01*
X178658Y553821D01*
X178814Y553743D01*
X179127Y553665D01*
X179595Y553430D01*
X180220Y553040D01*
X180923Y552571D01*
X181626Y551946D01*
X182407Y551087D01*
X183110Y550150D01*
X183188Y549994D01*
X183423Y549681D01*
X183657Y549134D01*
X184047Y548353D01*
X184360Y547494D01*
X184594Y546479D01*
X184828Y545385D01*
X184907Y544214D01*
Y535935D01*
Y535857D01*
Y535700D01*
Y535466D01*
X184828Y535154D01*
X184750Y534295D01*
X184516Y533201D01*
X184125Y532029D01*
X183501Y530702D01*
X182720Y529374D01*
X181626Y528124D01*
X181470Y527968D01*
X181079Y527656D01*
X180376Y527109D01*
X179439Y526562D01*
X178346Y526015D01*
X177018Y525469D01*
X175534Y525156D01*
X173894Y525000D01*
X173425D01*
X173113Y525078D01*
X172253Y525156D01*
X171160Y525391D01*
X169988Y525781D01*
X168661Y526328D01*
X167333Y527109D01*
X166083Y528124D01*
X165927Y528280D01*
X165615Y528671D01*
X165068Y529374D01*
X164521Y530311D01*
X163974Y531405D01*
X163428Y532811D01*
X163115Y534295D01*
X162959Y535935D01*
Y558663D01*
Y558741D01*
Y558820D01*
X163037Y559288D01*
X163115Y559991D01*
X163272Y560850D01*
X163584Y561866D01*
X164053Y562881D01*
X164677Y563974D01*
X165536Y564990D01*
X165693Y565068D01*
X166005Y565380D01*
X166552Y565771D01*
X167255Y566317D01*
X168192Y566786D01*
X169286Y567177D01*
X170457Y567489D01*
X171785Y567567D01*
X172410D01*
X173113Y567411D01*
D02*
G37*
G36*
X309093Y555070D02*
X309484Y554992D01*
X310031Y554836D01*
X310578Y554446D01*
X310968Y553977D01*
X311280Y553352D01*
X311437Y552415D01*
Y531795D01*
Y531717D01*
Y531561D01*
X311515Y531326D01*
X311671Y531092D01*
X311905Y530780D01*
X312296Y530545D01*
X312764Y530389D01*
X313467Y530311D01*
X313780D01*
X314170Y530155D01*
X314561Y529999D01*
X314873Y529686D01*
X315264Y529218D01*
X315498Y528515D01*
X315576Y527656D01*
Y527578D01*
X315498Y527265D01*
X315420Y526796D01*
X315264Y526328D01*
X314873Y525859D01*
X314405Y525391D01*
X313702Y525078D01*
X312764Y525000D01*
X312218D01*
X311671Y525156D01*
X310968Y525312D01*
X310265Y525547D01*
X309406Y525937D01*
X308703Y526484D01*
X308000Y527187D01*
X307922Y527109D01*
X307610Y526875D01*
X307219Y526484D01*
X306594Y526093D01*
X305813Y525703D01*
X304876Y525312D01*
X303704Y525078D01*
X302455Y525000D01*
X298159D01*
X297690Y525078D01*
X296987Y525156D01*
X296128Y525312D01*
X295113Y525625D01*
X294097Y526093D01*
X293004Y526640D01*
X291989Y527499D01*
X291910Y527656D01*
X291598Y527968D01*
X291207Y528515D01*
X290739Y529296D01*
X290270Y530155D01*
X289880Y531248D01*
X289567Y532498D01*
X289489Y533826D01*
Y546245D01*
Y546323D01*
Y546401D01*
X289567Y546869D01*
X289645Y547572D01*
X289802Y548432D01*
X290114Y549447D01*
X290583Y550462D01*
X291129Y551556D01*
X291989Y552571D01*
X292145Y552649D01*
X292457Y552962D01*
X293004Y553352D01*
X293785Y553899D01*
X294644Y554367D01*
X295737Y554758D01*
X296987Y555070D01*
X298315Y555149D01*
X308781D01*
X309093Y555070D01*
D02*
G37*
G36*
X354010Y504992D02*
X354869Y504836D01*
X355885Y504524D01*
X356900Y504055D01*
X357994Y503352D01*
X359009Y502493D01*
X359087Y502415D01*
X359399Y502024D01*
X359868Y501478D01*
X360337Y500775D01*
X360805Y499837D01*
X361274Y498744D01*
X361586Y497572D01*
X361665Y496245D01*
Y477656D01*
Y477578D01*
X361586Y477265D01*
X361508Y476796D01*
X361352Y476328D01*
X360962Y475859D01*
X360493Y475391D01*
X359790Y475078D01*
X358853Y475000D01*
X358775D01*
X358462Y475078D01*
X357994Y475156D01*
X357525Y475312D01*
X357056Y475625D01*
X356588Y476093D01*
X356275Y476796D01*
X356197Y477656D01*
Y496245D01*
Y496323D01*
Y496479D01*
X356119Y496791D01*
X356041Y497104D01*
X355729Y497963D01*
X355494Y498353D01*
X355104Y498744D01*
X355026Y498822D01*
X354948Y498900D01*
X354713Y499056D01*
X354401Y499291D01*
X353620Y499603D01*
X353229Y499681D01*
X352682Y499759D01*
X349246D01*
Y477656D01*
Y477578D01*
X349168Y477265D01*
X349090Y476796D01*
X348933Y476328D01*
X348543Y475859D01*
X348074Y475391D01*
X347371Y475078D01*
X346434Y475000D01*
X346356D01*
X346044Y475078D01*
X345575Y475156D01*
X345106Y475312D01*
X344638Y475625D01*
X344169Y476093D01*
X343857Y476796D01*
X343778Y477656D01*
Y499759D01*
X336827D01*
Y477656D01*
Y477578D01*
X336749Y477265D01*
X336671Y476796D01*
X336515Y476328D01*
X336124Y475859D01*
X335656Y475391D01*
X334953Y475078D01*
X334015Y475000D01*
X333937D01*
X333625Y475078D01*
X333156Y475156D01*
X332688Y475312D01*
X332219Y475625D01*
X331750Y476093D01*
X331438Y476796D01*
X331360Y477656D01*
Y502415D01*
Y502571D01*
X331438Y502883D01*
X331516Y503274D01*
X331672Y503821D01*
X331985Y504289D01*
X332453Y504758D01*
X333156Y505070D01*
X334015Y505149D01*
X353307D01*
X354010Y504992D01*
D02*
G37*
G36*
X381035Y505070D02*
X381894Y504992D01*
X382987Y504758D01*
X384159Y504367D01*
X385487Y503821D01*
X386814Y503040D01*
X388064Y501946D01*
X388220Y501790D01*
X388533Y501399D01*
X389079Y500696D01*
X389704Y499759D01*
X390251Y498666D01*
X390798Y497338D01*
X391110Y495776D01*
X391266Y494136D01*
Y485935D01*
Y485857D01*
Y485700D01*
Y485466D01*
X391188Y485154D01*
X391110Y484373D01*
X390876Y483279D01*
X390485Y482029D01*
X389860Y480780D01*
X389079Y479452D01*
X387986Y478202D01*
X387830Y478046D01*
X387439Y477734D01*
X386736Y477187D01*
X385799Y476640D01*
X384706Y476015D01*
X383378Y475469D01*
X381894Y475156D01*
X380253Y475000D01*
X379785D01*
X379473Y475078D01*
X378613Y475156D01*
X377520Y475391D01*
X376348Y475781D01*
X375020Y476328D01*
X373693Y477109D01*
X372443Y478124D01*
X372287Y478280D01*
X371974Y478671D01*
X371428Y479374D01*
X370881Y480311D01*
X370334Y481405D01*
X369787Y482811D01*
X369475Y484295D01*
X369319Y485935D01*
Y494136D01*
Y494214D01*
Y494370D01*
Y494604D01*
X369397Y494917D01*
X369475Y495776D01*
X369709Y496869D01*
X370100Y498041D01*
X370647Y499369D01*
X371428Y500696D01*
X372443Y501946D01*
X372599Y502102D01*
X372990Y502415D01*
X373693Y502962D01*
X374630Y503586D01*
X375723Y504133D01*
X377129Y504680D01*
X378613Y504992D01*
X380253Y505149D01*
X380722D01*
X381035Y505070D01*
D02*
G37*
G36*
X267073Y563349D02*
X267463Y563271D01*
X268010Y563115D01*
X268557Y562725D01*
X268948Y562256D01*
X269260Y561631D01*
X269416Y560694D01*
Y555149D01*
X270041D01*
X270666Y555070D01*
X271525D01*
X272384Y554914D01*
X273321Y554758D01*
X274259Y554602D01*
X275040Y554289D01*
X275196Y554211D01*
X275586Y554055D01*
X276133Y553743D01*
X276836Y553352D01*
X277617Y552727D01*
X278398Y552024D01*
X279257Y551243D01*
X279960Y550228D01*
X280038Y550072D01*
X280273Y549759D01*
X280585Y549212D01*
X280898Y548432D01*
X281210Y547572D01*
X281522Y546557D01*
X281757Y545385D01*
X281835Y544214D01*
Y535935D01*
Y535857D01*
Y535700D01*
Y535466D01*
X281757Y535154D01*
X281679Y534373D01*
X281444Y533279D01*
X281054Y532029D01*
X280429Y530780D01*
X279648Y529452D01*
X278554Y528202D01*
X278398Y528046D01*
X278008Y527734D01*
X277305Y527187D01*
X276367Y526640D01*
X275274Y526015D01*
X273946Y525469D01*
X272384Y525156D01*
X270744Y525000D01*
X269416D01*
Y515315D01*
Y515237D01*
X269338Y514924D01*
X269260Y514456D01*
X269104Y513987D01*
X268713Y513441D01*
X268245Y513050D01*
X267542Y512738D01*
X266604Y512581D01*
X266526D01*
X266214Y512659D01*
X265745Y512738D01*
X265277Y512894D01*
X264808Y513284D01*
X264339Y513753D01*
X264027Y514378D01*
X263949Y515315D01*
Y525000D01*
X261996D01*
X261684Y525078D01*
X260903Y525156D01*
X259809Y525391D01*
X258560Y525781D01*
X257310Y526328D01*
X255982Y527109D01*
X254732Y528124D01*
X254576Y528280D01*
X254264Y528671D01*
X253717Y529374D01*
X253170Y530311D01*
X252546Y531405D01*
X251999Y532811D01*
X251686Y534295D01*
X251530Y535935D01*
Y544136D01*
Y544214D01*
Y544370D01*
Y544604D01*
X251608Y544917D01*
X251686Y545776D01*
X251921Y546869D01*
X252311Y548041D01*
X252858Y549369D01*
X253639Y550696D01*
X254732Y551946D01*
X254889Y552102D01*
X255279Y552415D01*
X255982Y552962D01*
X256919Y553586D01*
X258013Y554133D01*
X259341Y554680D01*
X260825Y554992D01*
X262465Y555149D01*
X263949D01*
Y560694D01*
Y560850D01*
X264027Y561163D01*
X264105Y561553D01*
X264261Y562100D01*
X264574Y562569D01*
X265042Y563037D01*
X265745Y563349D01*
X266604Y563428D01*
X266761D01*
X267073Y563349D01*
D02*
G37*
G36*
X109417Y222491D02*
X109847Y222413D01*
X110354Y222257D01*
X110862Y222023D01*
X111408Y221672D01*
X111916Y221242D01*
X111955Y221203D01*
X112111Y221008D01*
X112345Y220735D01*
X112579Y220383D01*
X112814Y219915D01*
X113048Y219368D01*
X113204Y218783D01*
X113243Y218119D01*
Y208827D01*
Y208788D01*
X113204Y208632D01*
X113165Y208398D01*
X113087Y208164D01*
X112892Y207929D01*
X112657Y207695D01*
X112306Y207539D01*
X111838Y207500D01*
X111799D01*
X111642Y207539D01*
X111408Y207578D01*
X111174Y207656D01*
X110940Y207812D01*
X110705Y208047D01*
X110549Y208398D01*
X110510Y208827D01*
Y218119D01*
Y218158D01*
Y218236D01*
X110471Y218392D01*
X110432Y218548D01*
X110276Y218978D01*
X110159Y219173D01*
X109964Y219368D01*
X109925Y219407D01*
X109886Y219446D01*
X109768Y219524D01*
X109612Y219641D01*
X109222Y219798D01*
X109027Y219837D01*
X108753Y219876D01*
X107036D01*
Y208827D01*
Y208788D01*
X106997Y208632D01*
X106958Y208398D01*
X106880Y208164D01*
X106684Y207929D01*
X106450Y207695D01*
X106099Y207539D01*
X105630Y207500D01*
X105591D01*
X105435Y207539D01*
X105201Y207578D01*
X104967Y207656D01*
X104732Y207812D01*
X104498Y208047D01*
X104342Y208398D01*
X104303Y208827D01*
Y219876D01*
X100828D01*
Y208827D01*
Y208788D01*
X100789Y208632D01*
X100750Y208398D01*
X100672Y208164D01*
X100477Y207929D01*
X100243Y207695D01*
X99891Y207539D01*
X99423Y207500D01*
X99384D01*
X99228Y207539D01*
X98994Y207578D01*
X98759Y207656D01*
X98525Y207812D01*
X98291Y208047D01*
X98135Y208398D01*
X98096Y208827D01*
Y221203D01*
Y221281D01*
X98135Y221437D01*
X98174Y221632D01*
X98252Y221906D01*
X98408Y222140D01*
X98642Y222374D01*
X98994Y222530D01*
X99423Y222569D01*
X109066D01*
X109417Y222491D01*
D02*
G37*
G36*
X70221Y222530D02*
X70651Y222491D01*
X71197Y222374D01*
X71783Y222179D01*
X72446Y221906D01*
X73110Y221515D01*
X73735Y220969D01*
X73813Y220891D01*
X73969Y220695D01*
X74242Y220344D01*
X74555Y219876D01*
X74828Y219329D01*
X75101Y218665D01*
X75257Y217924D01*
X75335Y217104D01*
Y213707D01*
X67098D01*
Y211951D01*
Y211912D01*
Y211833D01*
X67137Y211677D01*
X67176Y211521D01*
X67332Y211131D01*
X67449Y210896D01*
X67606Y210701D01*
X67645Y210662D01*
X67684Y210623D01*
X67801Y210545D01*
X67957Y210467D01*
X68308Y210272D01*
X68542Y210233D01*
X68777Y210194D01*
X74008D01*
X74164Y210155D01*
X74359Y210116D01*
X74633Y210038D01*
X74906Y209842D01*
X75101Y209608D01*
X75257Y209296D01*
X75335Y208827D01*
Y208788D01*
X75296Y208632D01*
X75257Y208398D01*
X75179Y208164D01*
X74984Y207929D01*
X74750Y207695D01*
X74398Y207539D01*
X73930Y207500D01*
X68699D01*
X68464Y207539D01*
X68113Y207578D01*
X67684Y207656D01*
X67176Y207812D01*
X66669Y208047D01*
X66122Y208320D01*
X65615Y208749D01*
X65575Y208827D01*
X65419Y208983D01*
X65224Y209257D01*
X64990Y209647D01*
X64756Y210077D01*
X64560Y210623D01*
X64404Y211248D01*
X64365Y211912D01*
Y217065D01*
Y217104D01*
Y217182D01*
Y217299D01*
X64404Y217455D01*
X64443Y217885D01*
X64560Y218431D01*
X64756Y219017D01*
X65029Y219680D01*
X65419Y220344D01*
X65927Y220969D01*
X66005Y221047D01*
X66200Y221203D01*
X66551Y221476D01*
X67020Y221789D01*
X67566Y222062D01*
X68269Y222335D01*
X69011Y222491D01*
X69831Y222569D01*
X70065D01*
X70221Y222530D01*
D02*
G37*
G36*
X497003Y274073D02*
X497101Y274034D01*
X497179Y273956D01*
X497276Y273878D01*
X497335Y273741D01*
X497354Y273566D01*
Y273546D01*
Y273488D01*
X497335Y273390D01*
X497296Y273293D01*
X497218Y273215D01*
X497140Y273117D01*
X497003Y273058D01*
X496828Y273039D01*
X494214D01*
Y271986D01*
Y271966D01*
Y271947D01*
Y271830D01*
X494175Y271674D01*
X494136Y271479D01*
X494058Y271244D01*
X493960Y270991D01*
X493804Y270737D01*
X493589Y270503D01*
X493570Y270484D01*
X493472Y270406D01*
X493355Y270308D01*
X493180Y270191D01*
X492965Y270074D01*
X492711Y269976D01*
X492419Y269898D01*
X492107Y269879D01*
X491951D01*
X491795Y269918D01*
X491580Y269957D01*
X491346Y270035D01*
X491092Y270133D01*
X490839Y270289D01*
X490605Y270503D01*
X490585Y270523D01*
X490507Y270620D01*
X490410Y270737D01*
X490312Y270913D01*
X490195Y271127D01*
X490098Y271381D01*
X490019Y271674D01*
X490000Y271986D01*
Y273566D01*
Y273585D01*
Y273644D01*
X490019Y273741D01*
X490059Y273819D01*
X490117Y273917D01*
X490215Y274014D01*
X490332Y274073D01*
X490507Y274092D01*
X496906D01*
X497003Y274073D01*
D02*
G37*
G36*
X118631Y222530D02*
X118826Y222491D01*
X119099Y222413D01*
X119372Y222218D01*
X119567Y221984D01*
X119724Y221672D01*
X119802Y221203D01*
Y216401D01*
X123862D01*
X124213Y216323D01*
X124643Y216245D01*
X125150Y216089D01*
X125658Y215854D01*
X126204Y215503D01*
X126712Y215074D01*
X126751Y215035D01*
X126907Y214839D01*
X127141Y214566D01*
X127375Y214215D01*
X127610Y213746D01*
X127844Y213200D01*
X128000Y212614D01*
X128039Y211951D01*
Y211912D01*
Y211873D01*
Y211638D01*
X127961Y211287D01*
X127883Y210857D01*
X127727Y210350D01*
X127493Y209842D01*
X127141Y209296D01*
X126712Y208788D01*
X126673Y208749D01*
X126477Y208593D01*
X126204Y208398D01*
X125853Y208164D01*
X125384Y207890D01*
X124838Y207695D01*
X124213Y207539D01*
X123549Y207500D01*
X118357D01*
X118201Y207539D01*
X117967Y207578D01*
X117733Y207656D01*
X117498Y207812D01*
X117264Y208047D01*
X117108Y208398D01*
X117069Y208827D01*
Y221203D01*
Y221281D01*
X117108Y221437D01*
X117147Y221632D01*
X117225Y221906D01*
X117381Y222140D01*
X117615Y222374D01*
X117967Y222530D01*
X118396Y222569D01*
X118474D01*
X118631Y222530D01*
D02*
G37*
G36*
X497003Y268825D02*
X497101Y268787D01*
X497179Y268708D01*
X497276Y268630D01*
X497335Y268494D01*
X497354Y268318D01*
Y268299D01*
Y268240D01*
X497335Y268143D01*
X497296Y268045D01*
X497218Y267967D01*
X497140Y267870D01*
X497003Y267811D01*
X496828Y267792D01*
X490429D01*
X490351Y267811D01*
X490254Y267850D01*
X490156Y267928D01*
X490078Y268006D01*
X490019Y268143D01*
X490000Y268318D01*
Y268338D01*
Y268396D01*
X490019Y268494D01*
X490059Y268572D01*
X490117Y268669D01*
X490215Y268767D01*
X490332Y268825D01*
X490507Y268845D01*
X496906D01*
X497003Y268825D01*
D02*
G37*
G36*
Y334073D02*
X497101Y334034D01*
X497179Y333956D01*
X497276Y333878D01*
X497335Y333741D01*
X497354Y333566D01*
Y333546D01*
Y333488D01*
X497335Y333390D01*
X497296Y333293D01*
X497218Y333215D01*
X497140Y333117D01*
X497003Y333059D01*
X496828Y333039D01*
X493901D01*
X497198Y329742D01*
X497218Y329723D01*
X497276Y329645D01*
X497335Y329528D01*
X497354Y329372D01*
Y329352D01*
Y329294D01*
X497335Y329196D01*
X497296Y329099D01*
X497218Y329021D01*
X497140Y328923D01*
X497003Y328865D01*
X496828Y328845D01*
X496788D01*
X496711Y328865D01*
X496574Y328904D01*
X496457Y329001D01*
X494136Y331303D01*
X490819Y328942D01*
X490800Y328923D01*
X490722Y328884D01*
X490624Y328865D01*
X490507Y328845D01*
X490429D01*
X490351Y328865D01*
X490254Y328904D01*
X490156Y328982D01*
X490078Y329060D01*
X490019Y329196D01*
X490000Y329372D01*
Y329391D01*
Y329411D01*
X490019Y329528D01*
X490098Y329664D01*
X490137Y329742D01*
X490215Y329801D01*
X493375Y332064D01*
X492399Y333039D01*
X490429D01*
X490351Y333059D01*
X490254Y333098D01*
X490156Y333176D01*
X490078Y333254D01*
X490019Y333390D01*
X490000Y333566D01*
Y333585D01*
Y333644D01*
X490019Y333741D01*
X490059Y333819D01*
X490117Y333917D01*
X490215Y334014D01*
X490332Y334073D01*
X490507Y334092D01*
X496906D01*
X497003Y334073D01*
D02*
G37*
G36*
X500163Y342481D02*
X500261Y342441D01*
X500339Y342383D01*
X500436Y342285D01*
X500495Y342168D01*
X500514Y341993D01*
Y339359D01*
Y339340D01*
Y339301D01*
Y339242D01*
X500495Y339164D01*
X500475Y338969D01*
X500417Y338716D01*
X500339Y338404D01*
X500202Y338091D01*
X500007Y337779D01*
X499754Y337487D01*
X499715Y337448D01*
X499617Y337370D01*
X499461Y337253D01*
X499227Y337096D01*
X498954Y336960D01*
X498642Y336843D01*
X498291Y336765D01*
X497881Y336726D01*
X497764D01*
X497666Y336745D01*
X497432Y336784D01*
X497159Y336843D01*
X496828Y336960D01*
X496476Y337136D01*
X496320Y337253D01*
X496145Y337370D01*
X495989Y337526D01*
X495833Y337701D01*
X495813Y337682D01*
X495794Y337643D01*
X495735Y337565D01*
X495657Y337467D01*
X495579Y337350D01*
X495462Y337233D01*
X495326Y337096D01*
X495169Y336940D01*
X494974Y336804D01*
X494779Y336667D01*
X494565Y336550D01*
X494311Y336433D01*
X494058Y336336D01*
X493765Y336258D01*
X493472Y336219D01*
X493141Y336199D01*
X493024D01*
X492926Y336219D01*
X492809D01*
X492673Y336238D01*
X492380Y336316D01*
X492029Y336433D01*
X491658Y336589D01*
X491268Y336823D01*
X491092Y336979D01*
X490917Y337136D01*
Y337155D01*
X490878Y337175D01*
X490839Y337233D01*
X490780Y337292D01*
X490624Y337487D01*
X490468Y337760D01*
X490293Y338072D01*
X490137Y338462D01*
X490039Y338891D01*
X490019Y339125D01*
X490000Y339359D01*
Y341993D01*
Y342012D01*
Y342071D01*
X490019Y342149D01*
X490059Y342246D01*
X490117Y342344D01*
X490215Y342422D01*
X490332Y342481D01*
X490507Y342500D01*
X500066D01*
X500163Y342481D01*
D02*
G37*
G36*
X490683Y326719D02*
X496925Y324651D01*
X496945D01*
X496984Y324612D01*
X497062Y324573D01*
X497140Y324534D01*
X497218Y324456D01*
X497296Y324358D01*
X497335Y324261D01*
X497354Y324124D01*
Y322018D01*
Y321998D01*
Y321939D01*
X497335Y321842D01*
X497296Y321744D01*
X497218Y321666D01*
X497140Y321569D01*
X497003Y321510D01*
X496828Y321491D01*
X490429D01*
X490351Y321510D01*
X490254Y321549D01*
X490156Y321627D01*
X490078Y321705D01*
X490019Y321842D01*
X490000Y322018D01*
Y322037D01*
Y322095D01*
X490019Y322193D01*
X490059Y322271D01*
X490117Y322369D01*
X490215Y322466D01*
X490332Y322525D01*
X490507Y322544D01*
X496301D01*
Y323754D01*
X490351Y325724D01*
X490332D01*
X490293Y325743D01*
X490176Y325821D01*
X490117Y325899D01*
X490059Y325977D01*
X490019Y326075D01*
X490000Y326212D01*
Y326231D01*
Y326289D01*
X490019Y326387D01*
X490059Y326465D01*
X490137Y326563D01*
X490215Y326660D01*
X490351Y326719D01*
X490527Y326738D01*
X490585D01*
X490683Y326719D01*
D02*
G37*
G36*
X500163Y282481D02*
X500261Y282442D01*
X500339Y282383D01*
X500436Y282285D01*
X500495Y282168D01*
X500514Y281993D01*
Y279359D01*
Y279340D01*
Y279301D01*
Y279242D01*
X500495Y279164D01*
X500475Y278969D01*
X500417Y278716D01*
X500339Y278403D01*
X500202Y278091D01*
X500007Y277779D01*
X499754Y277487D01*
X499715Y277448D01*
X499617Y277370D01*
X499461Y277253D01*
X499227Y277097D01*
X498954Y276960D01*
X498642Y276843D01*
X498291Y276765D01*
X497881Y276726D01*
X497764D01*
X497666Y276745D01*
X497432Y276784D01*
X497159Y276843D01*
X496828Y276960D01*
X496476Y277136D01*
X496320Y277253D01*
X496145Y277370D01*
X495989Y277526D01*
X495833Y277701D01*
X495813Y277682D01*
X495794Y277643D01*
X495735Y277565D01*
X495657Y277467D01*
X495579Y277350D01*
X495462Y277233D01*
X495326Y277097D01*
X495169Y276940D01*
X494974Y276804D01*
X494779Y276667D01*
X494565Y276550D01*
X494311Y276433D01*
X494058Y276336D01*
X493765Y276258D01*
X493472Y276219D01*
X493141Y276199D01*
X493024D01*
X492926Y276219D01*
X492809D01*
X492673Y276238D01*
X492380Y276316D01*
X492029Y276433D01*
X491658Y276589D01*
X491268Y276823D01*
X491092Y276980D01*
X490917Y277136D01*
Y277155D01*
X490878Y277175D01*
X490839Y277233D01*
X490780Y277292D01*
X490624Y277487D01*
X490468Y277760D01*
X490293Y278072D01*
X490137Y278462D01*
X490039Y278891D01*
X490019Y279125D01*
X490000Y279359D01*
Y281993D01*
Y282012D01*
Y282071D01*
X490019Y282149D01*
X490059Y282246D01*
X490117Y282344D01*
X490215Y282422D01*
X490332Y282481D01*
X490507Y282500D01*
X500066D01*
X500163Y282481D01*
D02*
G37*
G36*
X86891Y226669D02*
X87086Y226630D01*
X87360Y226551D01*
X87633Y226356D01*
X87828Y226122D01*
X87984Y225810D01*
X88062Y225341D01*
Y222569D01*
X88375D01*
X88687Y222530D01*
X89116D01*
X89546Y222452D01*
X90014Y222374D01*
X90483Y222296D01*
X90873Y222140D01*
X90951Y222101D01*
X91146Y222023D01*
X91420Y221867D01*
X91771Y221672D01*
X92162Y221359D01*
X92552Y221008D01*
X92981Y220617D01*
X93333Y220110D01*
X93372Y220032D01*
X93489Y219876D01*
X93645Y219602D01*
X93801Y219212D01*
X93957Y218783D01*
X94114Y218275D01*
X94231Y217689D01*
X94270Y217104D01*
Y212966D01*
Y212927D01*
Y212848D01*
Y212731D01*
X94231Y212575D01*
X94192Y212185D01*
X94074Y211638D01*
X93879Y211014D01*
X93567Y210389D01*
X93177Y209725D01*
X92630Y209101D01*
X92552Y209023D01*
X92357Y208866D01*
X92005Y208593D01*
X91537Y208320D01*
X90990Y208008D01*
X90327Y207734D01*
X89546Y207578D01*
X88726Y207500D01*
X88062D01*
Y202659D01*
Y202620D01*
X88023Y202464D01*
X87984Y202230D01*
X87906Y201995D01*
X87711Y201722D01*
X87477Y201527D01*
X87125Y201371D01*
X86657Y201293D01*
X86618D01*
X86462Y201332D01*
X86228Y201371D01*
X85993Y201449D01*
X85759Y201644D01*
X85525Y201878D01*
X85369Y202191D01*
X85330Y202659D01*
Y207500D01*
X84354D01*
X84197Y207539D01*
X83807Y207578D01*
X83260Y207695D01*
X82636Y207890D01*
X82011Y208164D01*
X81348Y208554D01*
X80723Y209062D01*
X80645Y209140D01*
X80489Y209335D01*
X80215Y209686D01*
X79942Y210155D01*
X79630Y210701D01*
X79356Y211404D01*
X79200Y212146D01*
X79122Y212966D01*
Y217065D01*
Y217104D01*
Y217182D01*
Y217299D01*
X79161Y217455D01*
X79200Y217885D01*
X79317Y218431D01*
X79513Y219017D01*
X79786Y219680D01*
X80176Y220344D01*
X80723Y220969D01*
X80801Y221047D01*
X80996Y221203D01*
X81348Y221476D01*
X81816Y221789D01*
X82362Y222062D01*
X83026Y222335D01*
X83768Y222491D01*
X84588Y222569D01*
X85330D01*
Y225341D01*
Y225419D01*
X85369Y225575D01*
X85408Y225771D01*
X85486Y226044D01*
X85642Y226278D01*
X85876Y226512D01*
X86228Y226669D01*
X86657Y226708D01*
X86735D01*
X86891Y226669D01*
D02*
G37*
G36*
X447056Y427530D02*
X447251Y427491D01*
X447524Y427413D01*
X447798Y427218D01*
X447993Y426984D01*
X448149Y426671D01*
X448227Y426203D01*
Y415896D01*
Y415857D01*
Y415779D01*
X448266Y415662D01*
X448344Y415545D01*
X448461Y415389D01*
X448657Y415272D01*
X448891Y415194D01*
X449242Y415155D01*
X449398D01*
X449594Y415077D01*
X449789Y414999D01*
X449945Y414842D01*
X450140Y414608D01*
X450257Y414257D01*
X450296Y413827D01*
Y413788D01*
X450257Y413632D01*
X450218Y413398D01*
X450140Y413164D01*
X449945Y412929D01*
X449711Y412695D01*
X449359Y412539D01*
X448891Y412500D01*
X448618D01*
X448344Y412578D01*
X447993Y412656D01*
X447642Y412773D01*
X447212Y412968D01*
X446861Y413242D01*
X446510Y413593D01*
X446470Y413554D01*
X446314Y413437D01*
X446119Y413242D01*
X445807Y413046D01*
X445416Y412851D01*
X444948Y412656D01*
X444362Y412539D01*
X443738Y412500D01*
X441590D01*
X441356Y412539D01*
X441005Y412578D01*
X440575Y412656D01*
X440068Y412812D01*
X439560Y413046D01*
X439014Y413320D01*
X438506Y413749D01*
X438467Y413827D01*
X438311Y413983D01*
X438116Y414257D01*
X437882Y414647D01*
X437647Y415077D01*
X437452Y415623D01*
X437296Y416248D01*
X437257Y416912D01*
Y423119D01*
Y423158D01*
Y423197D01*
X437296Y423431D01*
X437335Y423783D01*
X437413Y424212D01*
X437569Y424719D01*
X437804Y425227D01*
X438077Y425774D01*
X438506Y426281D01*
X438584Y426320D01*
X438741Y426476D01*
X439014Y426671D01*
X439404Y426945D01*
X439834Y427179D01*
X440380Y427374D01*
X441005Y427530D01*
X441669Y427569D01*
X446900D01*
X447056Y427530D01*
D02*
G37*
G36*
X432299Y433738D02*
X432494Y433699D01*
X432767Y433620D01*
X433041Y433425D01*
X433236Y433191D01*
X433392Y432879D01*
X433470Y432410D01*
Y432371D01*
X433431Y432215D01*
X433392Y431981D01*
X433314Y431747D01*
X433119Y431512D01*
X432885Y431278D01*
X432533Y431122D01*
X432065Y431083D01*
X425233D01*
Y413827D01*
Y413788D01*
X425194Y413632D01*
X425155Y413398D01*
X425077Y413164D01*
X424881Y412929D01*
X424647Y412695D01*
X424296Y412539D01*
X423827Y412500D01*
X423788D01*
X423632Y412539D01*
X423398Y412578D01*
X423164Y412656D01*
X422929Y412812D01*
X422695Y413046D01*
X422539Y413398D01*
X422500Y413827D01*
Y432410D01*
Y432488D01*
X422539Y432645D01*
X422578Y432840D01*
X422656Y433113D01*
X422812Y433347D01*
X423047Y433582D01*
X423398Y433738D01*
X423827Y433777D01*
X432143D01*
X432299Y433738D01*
D02*
G37*
G36*
X59368Y228738D02*
X59563Y228699D01*
X59837Y228620D01*
X60110Y228425D01*
X60305Y228191D01*
X60461Y227879D01*
X60539Y227410D01*
Y208827D01*
Y208788D01*
X60500Y208632D01*
X60461Y208398D01*
X60383Y208164D01*
X60188Y207929D01*
X59954Y207695D01*
X59602Y207539D01*
X59134Y207500D01*
X59095D01*
X58939Y207539D01*
X58704Y207578D01*
X58470Y207656D01*
X58236Y207812D01*
X58002Y208047D01*
X57846Y208398D01*
X57807Y208827D01*
Y217806D01*
X50233D01*
Y208827D01*
Y208788D01*
X50194Y208632D01*
X50155Y208398D01*
X50077Y208164D01*
X49881Y207929D01*
X49647Y207695D01*
X49296Y207539D01*
X48827Y207500D01*
X48788D01*
X48632Y207539D01*
X48398Y207578D01*
X48164Y207656D01*
X47929Y207812D01*
X47695Y208047D01*
X47539Y208398D01*
X47500Y208827D01*
Y227410D01*
Y227488D01*
X47539Y227645D01*
X47578Y227840D01*
X47656Y228113D01*
X47812Y228347D01*
X48047Y228582D01*
X48398Y228738D01*
X48827Y228777D01*
X48905D01*
X49062Y228738D01*
X49257Y228699D01*
X49530Y228620D01*
X49803Y228425D01*
X49999Y228191D01*
X50155Y227879D01*
X50233Y227410D01*
Y220500D01*
X57807D01*
Y227410D01*
Y227488D01*
X57846Y227645D01*
X57885Y227840D01*
X57963Y228113D01*
X58119Y228347D01*
X58353Y228582D01*
X58704Y228738D01*
X59134Y228777D01*
X59212D01*
X59368Y228738D01*
D02*
G37*
G36*
X490683Y258311D02*
X496925Y256243D01*
X496945D01*
X496984Y256204D01*
X497062Y256165D01*
X497140Y256126D01*
X497218Y256048D01*
X497296Y255951D01*
X497335Y255853D01*
X497354Y255717D01*
Y253610D01*
Y253590D01*
Y253532D01*
X497335Y253434D01*
X497296Y253337D01*
X497218Y253259D01*
X497140Y253161D01*
X497003Y253103D01*
X496828Y253083D01*
X490429D01*
X490351Y253103D01*
X490254Y253142D01*
X490156Y253220D01*
X490078Y253298D01*
X490019Y253434D01*
X490000Y253610D01*
Y253629D01*
Y253688D01*
X490019Y253785D01*
X490059Y253863D01*
X490117Y253961D01*
X490215Y254058D01*
X490332Y254117D01*
X490507Y254137D01*
X496301D01*
Y255346D01*
X490351Y257316D01*
X490332D01*
X490293Y257336D01*
X490176Y257414D01*
X490117Y257492D01*
X490059Y257570D01*
X490019Y257667D01*
X490000Y257804D01*
Y257823D01*
Y257882D01*
X490019Y257980D01*
X490059Y258057D01*
X490137Y258155D01*
X490215Y258253D01*
X490351Y258311D01*
X490527Y258331D01*
X490585D01*
X490683Y258311D01*
D02*
G37*
G36*
X497003Y265665D02*
X497101Y265626D01*
X497179Y265548D01*
X497276Y265470D01*
X497335Y265334D01*
X497354Y265158D01*
Y265139D01*
Y265080D01*
X497335Y264983D01*
X497296Y264885D01*
X497218Y264807D01*
X497140Y264709D01*
X497003Y264651D01*
X496828Y264631D01*
X493901D01*
X497198Y261335D01*
X497218Y261315D01*
X497276Y261237D01*
X497335Y261120D01*
X497354Y260964D01*
Y260945D01*
Y260886D01*
X497335Y260788D01*
X497296Y260691D01*
X497218Y260613D01*
X497140Y260515D01*
X497003Y260457D01*
X496828Y260437D01*
X496788D01*
X496711Y260457D01*
X496574Y260496D01*
X496457Y260593D01*
X494136Y262895D01*
X490819Y260535D01*
X490800Y260515D01*
X490722Y260476D01*
X490624Y260457D01*
X490507Y260437D01*
X490429D01*
X490351Y260457D01*
X490254Y260496D01*
X490156Y260574D01*
X490078Y260652D01*
X490019Y260788D01*
X490000Y260964D01*
Y260984D01*
Y261003D01*
X490019Y261120D01*
X490098Y261257D01*
X490137Y261335D01*
X490215Y261393D01*
X493375Y263656D01*
X492399Y264631D01*
X490429D01*
X490351Y264651D01*
X490254Y264690D01*
X490156Y264768D01*
X490078Y264846D01*
X490019Y264983D01*
X490000Y265158D01*
Y265178D01*
Y265236D01*
X490019Y265334D01*
X490059Y265412D01*
X490117Y265509D01*
X490215Y265607D01*
X490332Y265665D01*
X490507Y265685D01*
X496906D01*
X497003Y265665D01*
D02*
G37*
G36*
X460252Y427491D02*
X460681Y427413D01*
X461188Y427257D01*
X461696Y427023D01*
X462243Y426671D01*
X462750Y426242D01*
X462789Y426203D01*
X462945Y426008D01*
X463180Y425734D01*
X463414Y425383D01*
X463648Y424915D01*
X463882Y424368D01*
X464038Y423783D01*
X464077Y423119D01*
Y423080D01*
Y423002D01*
Y422885D01*
X464038Y422728D01*
X463999Y422338D01*
X463882Y421830D01*
X463726Y421323D01*
X463453Y420816D01*
X463101Y420347D01*
X462633Y419996D01*
X462711Y419957D01*
X462867Y419840D01*
X463101Y419644D01*
X463375Y419332D01*
X463609Y418903D01*
X463843Y418395D01*
X463999Y417731D01*
X464077Y416912D01*
Y416872D01*
Y416833D01*
Y416599D01*
X463999Y416248D01*
X463921Y415818D01*
X463765Y415350D01*
X463531Y414803D01*
X463180Y414296D01*
X462750Y413788D01*
X462711Y413749D01*
X462516Y413593D01*
X462243Y413398D01*
X461891Y413164D01*
X461423Y412890D01*
X460876Y412695D01*
X460252Y412539D01*
X459588Y412500D01*
X458339D01*
X458104Y412539D01*
X457792Y412578D01*
X457363Y412656D01*
X456933Y412734D01*
X456386Y412890D01*
X455840Y413086D01*
X455762Y413125D01*
X455567Y413203D01*
X455293Y413359D01*
X454981Y413554D01*
X454669Y413788D01*
X454395Y414101D01*
X454200Y414413D01*
X454161Y414608D01*
X454122Y414803D01*
Y414842D01*
Y414881D01*
X454161Y415077D01*
X454239Y415350D01*
X454395Y415701D01*
Y415740D01*
X454435Y415779D01*
X454630Y415975D01*
X454864Y416131D01*
X455020Y416170D01*
X455215Y416209D01*
X455254D01*
X455332Y416170D01*
X455410Y416131D01*
X455606Y416092D01*
X455840Y416014D01*
X456152Y415857D01*
X456543Y415701D01*
X456582Y415662D01*
X456738Y415623D01*
X456972Y415545D01*
X457245Y415467D01*
X457909Y415272D01*
X458221Y415233D01*
X458534Y415194D01*
X459705D01*
X459822Y415233D01*
X460017Y415272D01*
X460408Y415428D01*
X460603Y415545D01*
X460798Y415701D01*
X460837Y415740D01*
X460876Y415779D01*
X460954Y415896D01*
X461071Y416053D01*
X461267Y416443D01*
X461306Y416677D01*
X461345Y416912D01*
Y416950D01*
Y417068D01*
X461306Y417185D01*
Y417380D01*
X461149Y417809D01*
X461032Y418005D01*
X460876Y418200D01*
X460798Y418278D01*
X460603Y418395D01*
X460252Y418551D01*
X459822Y418668D01*
X458417D01*
X458182Y418746D01*
X457870Y418863D01*
X457597Y419059D01*
X457519Y419137D01*
X457402Y419332D01*
X457285Y419605D01*
X457206Y419996D01*
Y420035D01*
Y420074D01*
X457245Y420308D01*
X457363Y420620D01*
X457597Y420933D01*
X457636Y420972D01*
X457675Y421011D01*
X457753Y421089D01*
X457909Y421167D01*
X458065Y421245D01*
X458299Y421284D01*
X458534Y421362D01*
X459627D01*
X459783Y421401D01*
X460017Y421440D01*
X460447Y421557D01*
X460681Y421674D01*
X460876Y421830D01*
X460915Y421870D01*
X460954Y421909D01*
X461032Y422026D01*
X461110Y422182D01*
X461267Y422572D01*
X461345Y422845D01*
Y423119D01*
Y423158D01*
Y423236D01*
X461306Y423353D01*
X461267Y423548D01*
X461149Y423939D01*
X460993Y424134D01*
X460837Y424329D01*
X460798Y424368D01*
X460759Y424407D01*
X460642Y424485D01*
X460486Y424602D01*
X460095Y424798D01*
X459861Y424837D01*
X459588Y424876D01*
X458221D01*
X457987Y424837D01*
X457714D01*
X457402Y424798D01*
X457011Y424719D01*
X456621Y424641D01*
X456582D01*
X456465Y424602D01*
X456269Y424563D01*
X456035Y424524D01*
X455567Y424329D01*
X455372Y424251D01*
X455215Y424134D01*
X455176D01*
X455137Y424095D01*
X454942Y424056D01*
X454786Y424017D01*
X454669Y424056D01*
X454513Y424134D01*
X454395Y424290D01*
Y424329D01*
X454356Y424368D01*
X454278Y424602D01*
X454161Y424915D01*
X454122Y425227D01*
Y425266D01*
X454161Y425383D01*
X454239Y425578D01*
X454356Y425813D01*
X454591Y426086D01*
X454903Y426398D01*
X455372Y426711D01*
X455684Y426828D01*
X455996Y426984D01*
X456074Y427023D01*
X456230Y427062D01*
X456504Y427179D01*
X456855Y427296D01*
X457245Y427374D01*
X457675Y427491D01*
X458104Y427530D01*
X458534Y427569D01*
X459900D01*
X460252Y427491D01*
D02*
G37*
%LPC*%
G36*
X388995Y537419D02*
X385636D01*
Y530389D01*
X389229D01*
X389464Y530467D01*
X389854Y530545D01*
X390635Y530858D01*
X391026Y531092D01*
X391416Y531405D01*
X391494Y531483D01*
X391572Y531561D01*
X391729Y531795D01*
X391963Y532108D01*
X392353Y532889D01*
X392431Y533357D01*
X392510Y533904D01*
Y533982D01*
Y534138D01*
X392431Y534451D01*
X392353Y534763D01*
X392119Y535622D01*
X391807Y536013D01*
X391494Y536403D01*
X391416Y536481D01*
X391338Y536559D01*
X391104Y536716D01*
X390791Y536950D01*
X390010Y537262D01*
X389542Y537341D01*
X388995Y537419D01*
D02*
G37*
G36*
X481049Y201207D02*
X477302D01*
Y197694D01*
X481167D01*
X481284Y197733D01*
X481479Y197772D01*
X481869Y197928D01*
X482065Y198045D01*
X482260Y198201D01*
X482299Y198240D01*
X482338Y198279D01*
X482416Y198396D01*
X482533Y198553D01*
X482728Y198943D01*
X482767Y199177D01*
X482806Y199450D01*
Y199490D01*
Y199568D01*
X482767Y199724D01*
X482728Y199880D01*
X482611Y200309D01*
X482455Y200505D01*
X482299Y200700D01*
X482260Y200739D01*
X482221Y200778D01*
X482104Y200856D01*
X481947Y200973D01*
X481557Y201129D01*
X481323Y201168D01*
X481049Y201207D01*
D02*
G37*
G36*
X442830Y207376D02*
X441893D01*
X441697Y207337D01*
X441424Y207258D01*
X441112Y207180D01*
X440799Y207024D01*
X440448Y206829D01*
X440136Y206556D01*
X440097Y206517D01*
X440019Y206400D01*
X439902Y206243D01*
X439745Y206009D01*
X439589Y205697D01*
X439472Y205385D01*
X439394Y204994D01*
X439355Y204565D01*
Y200466D01*
Y200427D01*
Y200270D01*
X439394Y200036D01*
X439472Y199763D01*
X439550Y199450D01*
X439667Y199099D01*
X439863Y198787D01*
X440136Y198475D01*
X440175Y198435D01*
X440292Y198357D01*
X440448Y198240D01*
X440682Y198084D01*
X440956Y197928D01*
X441307Y197811D01*
X441697Y197733D01*
X442088Y197694D01*
X442830D01*
Y207376D01*
D02*
G37*
G36*
X446226D02*
X445562D01*
Y197694D01*
X446421D01*
X446656Y197733D01*
X446929Y197811D01*
X447241Y197889D01*
X447553Y198006D01*
X447905Y198201D01*
X448217Y198475D01*
X448256Y198514D01*
X448334Y198631D01*
X448490Y198787D01*
X448647Y199021D01*
X448764Y199333D01*
X448920Y199646D01*
X448998Y200036D01*
X449037Y200466D01*
Y204565D01*
Y204604D01*
Y204760D01*
X448998Y204994D01*
X448920Y205268D01*
X448842Y205580D01*
X448685Y205892D01*
X448451Y206243D01*
X448178Y206556D01*
X448139Y206595D01*
X448022Y206673D01*
X447866Y206829D01*
X447631Y206985D01*
X447358Y207102D01*
X447007Y207258D01*
X446656Y207337D01*
X446226Y207376D01*
D02*
G37*
G36*
X427331D02*
X427136D01*
X426940Y207337D01*
X426667Y207258D01*
X426355Y207180D01*
X426043Y207024D01*
X425691Y206829D01*
X425379Y206556D01*
X425340Y206517D01*
X425262Y206400D01*
X425145Y206243D01*
X424988Y206009D01*
X424832Y205736D01*
X424715Y205385D01*
X424637Y205033D01*
X424598Y204604D01*
Y203901D01*
X430103D01*
Y204604D01*
Y204643D01*
Y204799D01*
X430064Y204994D01*
X429986Y205268D01*
X429907Y205580D01*
X429751Y205892D01*
X429556Y206243D01*
X429283Y206556D01*
X429244Y206595D01*
X429127Y206673D01*
X428970Y206829D01*
X428736Y206985D01*
X428463Y207102D01*
X428112Y207258D01*
X427760Y207337D01*
X427331Y207376D01*
D02*
G37*
G36*
X186241Y499759D02*
X185850D01*
X185460Y499681D01*
X184913Y499525D01*
X184288Y499369D01*
X183663Y499056D01*
X182960Y498666D01*
X182335Y498119D01*
X182257Y498041D01*
X182101Y497807D01*
X181867Y497494D01*
X181554Y497026D01*
X181242Y496479D01*
X181008Y495776D01*
X180851Y495073D01*
X180773Y494214D01*
Y492808D01*
X191786D01*
Y494214D01*
Y494292D01*
Y494604D01*
X191708Y494995D01*
X191552Y495542D01*
X191396Y496166D01*
X191083Y496791D01*
X190693Y497494D01*
X190146Y498119D01*
X190068Y498197D01*
X189834Y498353D01*
X189521Y498666D01*
X189053Y498978D01*
X188506Y499212D01*
X187803Y499525D01*
X187100Y499681D01*
X186241Y499759D01*
D02*
G37*
G36*
X250834D02*
X242945D01*
X242711Y499681D01*
X242320Y499603D01*
X241539Y499369D01*
X241148Y499056D01*
X240758Y498744D01*
Y498666D01*
X240602Y498588D01*
X240446Y498353D01*
X240289Y498041D01*
X239977Y497260D01*
X239899Y496791D01*
X239821Y496245D01*
Y483826D01*
Y483748D01*
Y483591D01*
X239899Y483357D01*
X239977Y482967D01*
X240289Y482186D01*
X240524Y481795D01*
X240836Y481405D01*
X240914Y481326D01*
X240992Y481248D01*
X241227Y481092D01*
X241539Y480936D01*
X242242Y480545D01*
X242711Y480467D01*
X243179Y480389D01*
X247553D01*
X247787Y480467D01*
X248178Y480545D01*
X248959Y480858D01*
X249350Y481092D01*
X249740Y481405D01*
X249818Y481483D01*
X249896Y481561D01*
X250053Y481795D01*
X250287Y482108D01*
X250677Y482889D01*
X250756Y483357D01*
X250834Y483826D01*
Y499759D01*
D02*
G37*
G36*
X281060D02*
X273562D01*
Y480389D01*
X281294D01*
X281529Y480467D01*
X281919Y480545D01*
X282700Y480858D01*
X283091Y481092D01*
X283481Y481405D01*
X283560Y481483D01*
X283638Y481561D01*
X283794Y481795D01*
X284028Y482108D01*
X284419Y482889D01*
X284497Y483357D01*
X284575Y483826D01*
Y496245D01*
Y496323D01*
Y496479D01*
X284497Y496791D01*
X284419Y497104D01*
X284184Y497963D01*
X283872Y498353D01*
X283560Y498744D01*
X283481Y498822D01*
X283403Y498900D01*
X283169Y499056D01*
X282857Y499291D01*
X282076Y499603D01*
X281607Y499681D01*
X281060Y499759D01*
D02*
G37*
G36*
X411808D02*
X404310D01*
Y480389D01*
X412042D01*
X412277Y480467D01*
X412667Y480545D01*
X413448Y480858D01*
X413839Y481092D01*
X414229Y481405D01*
X414307Y481483D01*
X414385Y481561D01*
X414542Y481795D01*
X414776Y482108D01*
X415167Y482889D01*
X415245Y483357D01*
X415323Y483826D01*
Y496245D01*
Y496323D01*
Y496479D01*
X415245Y496791D01*
X415167Y497104D01*
X414932Y497963D01*
X414620Y498353D01*
X414307Y498744D01*
X414229Y498822D01*
X414151Y498900D01*
X413917Y499056D01*
X413604Y499291D01*
X412823Y499603D01*
X412355Y499681D01*
X411808Y499759D01*
D02*
G37*
G36*
X314099D02*
X306210D01*
X305976Y499681D01*
X305585Y499603D01*
X304804Y499369D01*
X304414Y499056D01*
X304023Y498744D01*
Y498666D01*
X303867Y498588D01*
X303711Y498353D01*
X303554Y498041D01*
X303242Y497260D01*
X303164Y496791D01*
X303086Y496245D01*
Y483826D01*
Y483748D01*
Y483591D01*
X303164Y483357D01*
X303242Y482967D01*
X303554Y482186D01*
X303789Y481795D01*
X304101Y481405D01*
X304179Y481326D01*
X304257Y481248D01*
X304492Y481092D01*
X304804Y480936D01*
X305507Y480545D01*
X305976Y480467D01*
X306444Y480389D01*
X310818D01*
X311052Y480467D01*
X311443Y480545D01*
X312224Y480858D01*
X312615Y481092D01*
X313005Y481405D01*
X313083Y481483D01*
X313161Y481561D01*
X313318Y481795D01*
X313552Y482108D01*
X313942Y482889D01*
X314021Y483357D01*
X314099Y483826D01*
Y499759D01*
D02*
G37*
G36*
X145620Y562178D02*
X138590D01*
X134529Y530311D01*
X145620Y530389D01*
Y562178D01*
D02*
G37*
G36*
X171785D02*
X171551D01*
X171316Y562100D01*
X170926Y562022D01*
X170145Y561787D01*
X169754Y561475D01*
X169364Y561163D01*
Y561085D01*
X169207Y561006D01*
X169051Y560772D01*
X168895Y560460D01*
X168583Y559679D01*
X168505Y559210D01*
X168426Y558663D01*
Y553040D01*
X168505Y553118D01*
X168739Y553352D01*
X169051Y553743D01*
X169520Y554133D01*
X170145Y554446D01*
X170848Y554836D01*
X171629Y555070D01*
X172488Y555149D01*
X172644D01*
X173035Y555305D01*
X173659Y555617D01*
X173972Y555852D01*
X174284Y556242D01*
X174362Y556320D01*
X174440Y556476D01*
X174597Y556711D01*
X174831Y557023D01*
X175143Y557804D01*
X175222Y558195D01*
X175300Y558663D01*
Y558741D01*
Y558898D01*
X175222Y559210D01*
X175143Y559522D01*
X174909Y560382D01*
X174597Y560772D01*
X174284Y561163D01*
X174206Y561241D01*
X174128Y561319D01*
X173894Y561475D01*
X173581Y561709D01*
X172800Y562022D01*
X172332Y562100D01*
X171785Y562178D01*
D02*
G37*
G36*
X173894Y549759D02*
X173503D01*
X173113Y549681D01*
X172566Y549525D01*
X171941Y549369D01*
X171316Y549056D01*
X170613Y548666D01*
X169988Y548119D01*
X169910Y548041D01*
X169754Y547807D01*
X169520Y547494D01*
X169207Y547026D01*
X168895Y546401D01*
X168661Y545776D01*
X168505Y544995D01*
X168426Y544136D01*
Y535935D01*
Y535857D01*
Y535544D01*
X168505Y535075D01*
X168661Y534529D01*
X168817Y533904D01*
X169051Y533201D01*
X169442Y532576D01*
X169988Y531951D01*
X170067Y531873D01*
X170301Y531717D01*
X170613Y531483D01*
X171082Y531170D01*
X171629Y530858D01*
X172332Y530624D01*
X173035Y530467D01*
X173894Y530389D01*
X174284D01*
X174753Y530467D01*
X175300Y530624D01*
X175846Y530780D01*
X176549Y531014D01*
X177174Y531405D01*
X177799Y531951D01*
X177877Y532029D01*
X178033Y532264D01*
X178346Y532576D01*
X178658Y533045D01*
X178892Y533670D01*
X179205Y534295D01*
X179361Y535075D01*
X179439Y535935D01*
Y544136D01*
Y544214D01*
Y544526D01*
X179361Y544995D01*
X179205Y545542D01*
X179049Y546166D01*
X178736Y546791D01*
X178346Y547494D01*
X177799Y548119D01*
X177721Y548197D01*
X177487Y548353D01*
X177174Y548666D01*
X176705Y548978D01*
X176159Y549212D01*
X175456Y549525D01*
X174753Y549681D01*
X173894Y549759D01*
D02*
G37*
G36*
X305969D02*
X298081D01*
X297846Y549681D01*
X297456Y549603D01*
X296675Y549369D01*
X296284Y549056D01*
X295894Y548744D01*
Y548666D01*
X295737Y548588D01*
X295581Y548353D01*
X295425Y548041D01*
X295113Y547260D01*
X295035Y546791D01*
X294956Y546245D01*
Y533826D01*
Y533748D01*
Y533591D01*
X295035Y533357D01*
X295113Y532967D01*
X295425Y532186D01*
X295659Y531795D01*
X295972Y531405D01*
X296050Y531326D01*
X296128Y531248D01*
X296362Y531092D01*
X296675Y530936D01*
X297378Y530545D01*
X297846Y530467D01*
X298315Y530389D01*
X302689D01*
X302923Y530467D01*
X303314Y530545D01*
X304095Y530858D01*
X304485Y531092D01*
X304876Y531405D01*
X304954Y531483D01*
X305032Y531561D01*
X305188Y531795D01*
X305423Y532108D01*
X305813Y532889D01*
X305891Y533357D01*
X305969Y533826D01*
Y549759D01*
D02*
G37*
G36*
X380253Y499759D02*
X379863D01*
X379473Y499681D01*
X378926Y499525D01*
X378301Y499369D01*
X377676Y499056D01*
X376973Y498666D01*
X376348Y498119D01*
X376270Y498041D01*
X376114Y497807D01*
X375880Y497494D01*
X375567Y497026D01*
X375255Y496401D01*
X375020Y495776D01*
X374864Y494995D01*
X374786Y494136D01*
Y485935D01*
Y485857D01*
Y485544D01*
X374864Y485075D01*
X375020Y484529D01*
X375177Y483904D01*
X375411Y483201D01*
X375802Y482576D01*
X376348Y481951D01*
X376426Y481873D01*
X376661Y481717D01*
X376973Y481483D01*
X377442Y481170D01*
X377989Y480858D01*
X378691Y480624D01*
X379394Y480467D01*
X380253Y480389D01*
X380644D01*
X381035Y480467D01*
X381581Y480624D01*
X382206Y480780D01*
X382831Y481014D01*
X383534Y481405D01*
X384159Y481951D01*
X384237Y482029D01*
X384393Y482264D01*
X384706Y482576D01*
X385018Y483045D01*
X385252Y483670D01*
X385565Y484295D01*
X385721Y485075D01*
X385799Y485935D01*
Y494136D01*
Y494214D01*
Y494526D01*
X385721Y494995D01*
X385565Y495542D01*
X385409Y496166D01*
X385096Y496791D01*
X384706Y497494D01*
X384159Y498119D01*
X384081Y498197D01*
X383846Y498353D01*
X383534Y498666D01*
X383065Y498978D01*
X382519Y499212D01*
X381816Y499525D01*
X381113Y499681D01*
X380253Y499759D01*
D02*
G37*
G36*
X270744Y549759D02*
X269416D01*
Y530389D01*
X271134D01*
X271603Y530467D01*
X272150Y530624D01*
X272775Y530780D01*
X273400Y531014D01*
X274102Y531405D01*
X274727Y531951D01*
X274805Y532029D01*
X274962Y532264D01*
X275274Y532576D01*
X275586Y533045D01*
X275821Y533670D01*
X276133Y534295D01*
X276289Y535075D01*
X276367Y535935D01*
Y544136D01*
Y544214D01*
Y544526D01*
X276289Y544995D01*
X276133Y545542D01*
X275977Y546166D01*
X275665Y546791D01*
X275196Y547494D01*
X274649Y548119D01*
X274571Y548197D01*
X274337Y548353D01*
X274024Y548666D01*
X273556Y548978D01*
X273009Y549212D01*
X272306Y549525D01*
X271603Y549681D01*
X270744Y549759D01*
D02*
G37*
G36*
X263949D02*
X262074D01*
X261684Y549681D01*
X261137Y549525D01*
X260512Y549369D01*
X259887Y549056D01*
X259184Y548666D01*
X258560Y548119D01*
X258481Y548041D01*
X258325Y547807D01*
X258091Y547494D01*
X257778Y547026D01*
X257466Y546401D01*
X257232Y545776D01*
X257076Y544995D01*
X256998Y544136D01*
Y535935D01*
Y535857D01*
Y535544D01*
X257076Y535075D01*
X257232Y534529D01*
X257388Y533904D01*
X257622Y533201D01*
X258013Y532576D01*
X258560Y531951D01*
X258638Y531873D01*
X258872Y531717D01*
X259184Y531483D01*
X259653Y531170D01*
X260200Y530858D01*
X260903Y530624D01*
X261684Y530467D01*
X262465Y530389D01*
X263949D01*
Y549759D01*
D02*
G37*
G36*
X69831Y219876D02*
X69636D01*
X69440Y219837D01*
X69167Y219758D01*
X68855Y219680D01*
X68542Y219524D01*
X68191Y219329D01*
X67879Y219056D01*
X67840Y219017D01*
X67762Y218900D01*
X67645Y218743D01*
X67488Y218509D01*
X67332Y218236D01*
X67215Y217885D01*
X67137Y217533D01*
X67098Y217104D01*
Y216401D01*
X72603D01*
Y217104D01*
Y217143D01*
Y217299D01*
X72564Y217494D01*
X72485Y217768D01*
X72407Y218080D01*
X72251Y218392D01*
X72056Y218743D01*
X71783Y219056D01*
X71744Y219095D01*
X71627Y219173D01*
X71470Y219329D01*
X71236Y219485D01*
X70963Y219602D01*
X70612Y219758D01*
X70260Y219837D01*
X69831Y219876D01*
D02*
G37*
G36*
X493160Y273039D02*
X491053D01*
Y271986D01*
Y271966D01*
Y271908D01*
X491073Y271830D01*
X491092Y271732D01*
X491131Y271615D01*
X491170Y271498D01*
X491249Y271361D01*
X491346Y271244D01*
X491366Y271225D01*
X491404Y271186D01*
X491463Y271147D01*
X491561Y271088D01*
X491678Y271030D01*
X491795Y270971D01*
X491951Y270952D01*
X492107Y270932D01*
X492185D01*
X492263Y270952D01*
X492360Y270971D01*
X492477Y271010D01*
X492594Y271069D01*
X492731Y271147D01*
X492848Y271244D01*
X492868Y271264D01*
X492907Y271303D01*
X492946Y271361D01*
X493004Y271459D01*
X493063Y271556D01*
X493121Y271693D01*
X493141Y271830D01*
X493160Y271986D01*
Y273039D01*
D02*
G37*
G36*
X123549Y213707D02*
X119802D01*
Y210194D01*
X123667D01*
X123784Y210233D01*
X123979Y210272D01*
X124369Y210428D01*
X124565Y210545D01*
X124760Y210701D01*
X124799Y210740D01*
X124838Y210779D01*
X124916Y210896D01*
X125033Y211053D01*
X125228Y211443D01*
X125267Y211677D01*
X125306Y211951D01*
Y211990D01*
Y212068D01*
X125267Y212224D01*
X125228Y212380D01*
X125111Y212809D01*
X124955Y213005D01*
X124799Y213200D01*
X124760Y213239D01*
X124721Y213278D01*
X124604Y213356D01*
X124447Y213473D01*
X124057Y213629D01*
X123823Y213668D01*
X123549Y213707D01*
D02*
G37*
G36*
X499461Y341447D02*
X496301D01*
Y339359D01*
Y339340D01*
Y339242D01*
X496320Y339125D01*
X496359Y338969D01*
X496418Y338813D01*
X496496Y338618D01*
X496593Y338423D01*
X496749Y338247D01*
X496769Y338228D01*
X496828Y338169D01*
X496925Y338091D01*
X497062Y338013D01*
X497237Y337935D01*
X497432Y337857D01*
X497647Y337799D01*
X497881Y337779D01*
X497998D01*
X498115Y337799D01*
X498271Y337838D01*
X498427Y337896D01*
X498622Y337974D01*
X498817Y338091D01*
X498993Y338247D01*
X499012Y338267D01*
X499071Y338326D01*
X499149Y338423D01*
X499227Y338560D01*
X499305Y338716D01*
X499383Y338911D01*
X499441Y339125D01*
X499461Y339359D01*
Y341447D01*
D02*
G37*
G36*
X495247D02*
X491053D01*
Y339359D01*
Y339340D01*
Y339320D01*
X491073Y339203D01*
X491092Y339047D01*
X491131Y338852D01*
X491209Y338618D01*
X491307Y338364D01*
X491463Y338111D01*
X491658Y337877D01*
X491678Y337857D01*
X491775Y337779D01*
X491892Y337682D01*
X492068Y337565D01*
X492282Y337448D01*
X492536Y337350D01*
X492829Y337272D01*
X493141Y337253D01*
X493297D01*
X493453Y337292D01*
X493648Y337331D01*
X493882Y337409D01*
X494136Y337506D01*
X494389Y337662D01*
X494623Y337877D01*
X494643Y337896D01*
X494721Y337994D01*
X494818Y338111D01*
X494935Y338287D01*
X495052Y338501D01*
X495150Y338755D01*
X495228Y339047D01*
X495247Y339359D01*
Y341447D01*
D02*
G37*
G36*
X499461Y281447D02*
X496301D01*
Y279359D01*
Y279340D01*
Y279242D01*
X496320Y279125D01*
X496359Y278969D01*
X496418Y278813D01*
X496496Y278618D01*
X496593Y278423D01*
X496749Y278247D01*
X496769Y278228D01*
X496828Y278169D01*
X496925Y278091D01*
X497062Y278013D01*
X497237Y277935D01*
X497432Y277857D01*
X497647Y277799D01*
X497881Y277779D01*
X497998D01*
X498115Y277799D01*
X498271Y277838D01*
X498427Y277896D01*
X498622Y277974D01*
X498817Y278091D01*
X498993Y278247D01*
X499012Y278267D01*
X499071Y278326D01*
X499149Y278423D01*
X499227Y278560D01*
X499305Y278716D01*
X499383Y278911D01*
X499441Y279125D01*
X499461Y279359D01*
Y281447D01*
D02*
G37*
G36*
X495247D02*
X491053D01*
Y279359D01*
Y279340D01*
Y279320D01*
X491073Y279203D01*
X491092Y279047D01*
X491131Y278852D01*
X491209Y278618D01*
X491307Y278365D01*
X491463Y278111D01*
X491658Y277877D01*
X491678Y277857D01*
X491775Y277779D01*
X491892Y277682D01*
X492068Y277565D01*
X492282Y277448D01*
X492536Y277350D01*
X492829Y277272D01*
X493141Y277253D01*
X493297D01*
X493453Y277292D01*
X493648Y277331D01*
X493882Y277409D01*
X494136Y277506D01*
X494389Y277662D01*
X494623Y277877D01*
X494643Y277896D01*
X494721Y277994D01*
X494818Y278111D01*
X494935Y278286D01*
X495052Y278501D01*
X495150Y278755D01*
X495228Y279047D01*
X495247Y279359D01*
Y281447D01*
D02*
G37*
G36*
X88726Y219876D02*
X88062D01*
Y210194D01*
X88921D01*
X89156Y210233D01*
X89429Y210311D01*
X89741Y210389D01*
X90053Y210506D01*
X90405Y210701D01*
X90717Y210975D01*
X90756Y211014D01*
X90834Y211131D01*
X90990Y211287D01*
X91146Y211521D01*
X91264Y211833D01*
X91420Y212146D01*
X91498Y212536D01*
X91537Y212966D01*
Y217065D01*
Y217104D01*
Y217260D01*
X91498Y217494D01*
X91420Y217768D01*
X91342Y218080D01*
X91186Y218392D01*
X90951Y218743D01*
X90678Y219056D01*
X90639Y219095D01*
X90522Y219173D01*
X90366Y219329D01*
X90132Y219485D01*
X89858Y219602D01*
X89507Y219758D01*
X89156Y219837D01*
X88726Y219876D01*
D02*
G37*
G36*
X85330D02*
X84393D01*
X84197Y219837D01*
X83924Y219758D01*
X83612Y219680D01*
X83300Y219524D01*
X82948Y219329D01*
X82636Y219056D01*
X82597Y219017D01*
X82519Y218900D01*
X82402Y218743D01*
X82245Y218509D01*
X82089Y218197D01*
X81972Y217885D01*
X81894Y217494D01*
X81855Y217065D01*
Y212966D01*
Y212927D01*
Y212770D01*
X81894Y212536D01*
X81972Y212263D01*
X82050Y211951D01*
X82167Y211599D01*
X82362Y211287D01*
X82636Y210975D01*
X82675Y210935D01*
X82792Y210857D01*
X82948Y210740D01*
X83182Y210584D01*
X83456Y210428D01*
X83807Y210311D01*
X84197Y210233D01*
X84588Y210194D01*
X85330D01*
Y219876D01*
D02*
G37*
G36*
X445494Y424876D02*
X441551D01*
X441434Y424837D01*
X441239Y424798D01*
X440849Y424680D01*
X440653Y424524D01*
X440458Y424368D01*
Y424329D01*
X440380Y424290D01*
X440302Y424173D01*
X440224Y424017D01*
X440068Y423626D01*
X440029Y423392D01*
X439990Y423119D01*
Y416912D01*
Y416872D01*
Y416794D01*
X440029Y416677D01*
X440068Y416482D01*
X440224Y416092D01*
X440341Y415896D01*
X440497Y415701D01*
X440536Y415662D01*
X440575Y415623D01*
X440692Y415545D01*
X440849Y415467D01*
X441200Y415272D01*
X441434Y415233D01*
X441669Y415194D01*
X443855D01*
X443972Y415233D01*
X444167Y415272D01*
X444557Y415428D01*
X444753Y415545D01*
X444948Y415701D01*
X444987Y415740D01*
X445026Y415779D01*
X445104Y415896D01*
X445221Y416053D01*
X445416Y416443D01*
X445455Y416677D01*
X445494Y416912D01*
Y424876D01*
D02*
G37*
%LPD*%
D23*
X327000Y66000D02*
Y94000D01*
X222700Y66000D02*
Y94000D01*
Y66000D02*
X327000D01*
X222700Y94000D02*
X327000D01*
X121000Y248000D02*
Y352300D01*
X93000Y248000D02*
Y352300D01*
X121000D01*
X93000Y248000D02*
X121000D01*
X277750Y279000D02*
X294250D01*
X277750Y313000D02*
X294250D01*
X277750Y279000D02*
Y313000D01*
X294250Y279000D02*
Y313000D01*
X278750Y154250D02*
X291250D01*
X278750Y127750D02*
X291250D01*
Y154250D01*
X278750Y127750D02*
Y154250D01*
X139250Y282250D02*
X161250D01*
Y292250D01*
X139250D02*
X161250D01*
X139250Y282250D02*
Y292250D01*
X151750Y283250D02*
Y292250D01*
X139500Y256750D02*
X161500D01*
Y266750D01*
X139500D02*
X161500D01*
X139500Y256750D02*
Y266750D01*
X152000Y257750D02*
Y266750D01*
D24*
X57500Y187500D02*
X117500D01*
X102500Y182500D02*
X117500Y187500D01*
X102500Y192500D02*
X117500Y187500D01*
X460000Y397500D02*
X475000Y392500D01*
X460000Y387500D02*
X475000Y392500D01*
X415000D02*
X475000D01*
X465500Y179750D02*
X480500Y174750D01*
X465500Y169750D02*
X480500Y174750D01*
X420500D02*
X480500D01*
M02*
