G04*
G04 #@! TF.GenerationSoftware,Altium Limited,Altium Designer,18.1.7 (191)*
G04*
G04 Layer_Physical_Order=2*
G04 Layer_Color=16711680*
%FSLAX44Y44*%
%MOMM*%
G71*
G01*
G75*
%ADD18C,0.3000*%
%ADD19C,0.5000*%
%ADD20C,2.0000*%
%ADD21R,2.0000X2.0000*%
%ADD22C,1.8000*%
G36*
X198345Y166311D02*
X192317Y164974D01*
X182069Y161743D01*
X172141Y157631D01*
X162609Y152669D01*
X161072Y151690D01*
X160277Y152680D01*
X175178Y167581D01*
X198206D01*
X198345Y166311D01*
D02*
G37*
G36*
X175162Y223988D02*
X45352Y94178D01*
X44249Y94806D01*
X45977Y101576D01*
X50030Y113753D01*
X54941Y125610D01*
X60685Y137086D01*
X67234Y148123D01*
X74553Y158665D01*
X82606Y168658D01*
X91351Y178051D01*
X100744Y186796D01*
X110737Y194849D01*
X121279Y202168D01*
X132316Y208717D01*
X143792Y214462D01*
X155649Y219373D01*
X167826Y223426D01*
X174510Y225132D01*
X175162Y223988D01*
D02*
G37*
G36*
X226346Y180976D02*
X228356Y178356D01*
X230008Y177089D01*
X229577Y175819D01*
X173472D01*
X171895Y175506D01*
X170559Y174613D01*
X94087Y98141D01*
X93194Y96805D01*
X92881Y95228D01*
Y73325D01*
X91678Y72916D01*
X91130Y73630D01*
X88720Y75480D01*
X87019Y76185D01*
Y94194D01*
X176006Y183181D01*
X225433D01*
X226346Y180976D01*
D02*
G37*
G36*
X118503Y109121D02*
X117524Y107584D01*
X112562Y98052D01*
X108450Y88124D01*
X105219Y77876D01*
X102893Y67385D01*
X102389Y63559D01*
X101119Y63643D01*
Y93522D01*
X117513Y109916D01*
X118503Y109121D01*
D02*
G37*
G36*
X226346Y206376D02*
X228356Y203756D01*
X230976Y201746D01*
X233533Y200687D01*
Y199313D01*
X230976Y198254D01*
X228356Y196244D01*
X226346Y193624D01*
X225433Y191419D01*
X174300D01*
X172724Y191106D01*
X171387Y190213D01*
X79987Y98813D01*
X79094Y97476D01*
X78781Y95900D01*
Y76185D01*
X77080Y75480D01*
X74670Y73630D01*
X72820Y71220D01*
X71657Y68412D01*
X71260Y65400D01*
X71657Y62387D01*
X72820Y59580D01*
X74670Y57170D01*
X77080Y55320D01*
X79887Y54157D01*
X82900Y53760D01*
X85913Y54157D01*
X88720Y55320D01*
X91130Y57170D01*
X91678Y57884D01*
X92881Y57475D01*
Y55806D01*
X87613Y50539D01*
X85913Y51243D01*
X82900Y51639D01*
X79887Y51243D01*
X77080Y50080D01*
X74670Y48230D01*
X72820Y45820D01*
X71657Y43012D01*
X71260Y40000D01*
X71657Y36988D01*
X72820Y34180D01*
X74670Y31770D01*
X77080Y29920D01*
X79887Y28757D01*
X82900Y28360D01*
X85913Y28757D01*
X88720Y29920D01*
X91130Y31770D01*
X92980Y34180D01*
X94143Y36988D01*
X94540Y40000D01*
X94143Y43012D01*
X93439Y44713D01*
X99913Y51187D01*
X99981Y51290D01*
X101235Y50880D01*
X101021Y45996D01*
X101164Y42742D01*
X101115Y42500D01*
Y11045D01*
X101115Y10000D01*
X101126Y9796D01*
X101005Y8594D01*
X100753Y7324D01*
X99520Y5480D01*
X97676Y4247D01*
X95852Y3885D01*
X45000D01*
X44833Y3851D01*
X42634Y4289D01*
X40629Y5629D01*
X39289Y7634D01*
X38851Y9833D01*
X38885Y10000D01*
Y38400D01*
X40155Y38525D01*
X40252Y38033D01*
X41366Y36366D01*
X43033Y35252D01*
X45000Y34861D01*
X47138D01*
X47420Y34180D01*
X49270Y31770D01*
X51680Y29920D01*
X54488Y28757D01*
X57500Y28360D01*
X60513Y28757D01*
X63320Y29920D01*
X65730Y31770D01*
X67580Y34180D01*
X68743Y36988D01*
X69140Y40000D01*
X68743Y43012D01*
X67580Y45820D01*
X65730Y48230D01*
X63320Y50080D01*
X60513Y51243D01*
X57500Y51639D01*
X54488Y51243D01*
X51680Y50080D01*
X49849Y48675D01*
X48579Y49301D01*
Y56099D01*
X49849Y56725D01*
X51680Y55320D01*
X54488Y54157D01*
X57500Y53760D01*
X60513Y54157D01*
X63320Y55320D01*
X65730Y57170D01*
X67580Y59580D01*
X68743Y62387D01*
X69140Y65400D01*
X68743Y68412D01*
X67580Y71220D01*
X65730Y73630D01*
X63320Y75480D01*
X61619Y76185D01*
Y89794D01*
X180406Y208581D01*
X225433D01*
X226346Y206376D01*
D02*
G37*
D18*
X247400Y228000D02*
X262700Y212700D01*
X224000Y228000D02*
X247400D01*
X220000Y224000D02*
X224000Y228000D01*
X181945Y224000D02*
X220000D01*
X179450Y221506D02*
X181945Y224000D01*
X178506Y221506D02*
X179450D01*
X45007Y88007D02*
X178506Y221506D01*
X45007Y84007D02*
Y88007D01*
X44460Y83460D02*
X45007Y84007D01*
X44460Y40540D02*
Y83460D01*
Y40540D02*
X45000Y40000D01*
X178700Y212700D02*
X237300D01*
X57500Y91500D02*
X178700Y212700D01*
X57500Y65400D02*
Y91500D01*
X82900Y40000D02*
X97000Y54100D01*
Y95228D01*
X173472Y171700D01*
X262700D01*
Y187300D01*
X82900Y65400D02*
Y95900D01*
X174300Y187300D01*
X237300D01*
D19*
X45000Y40000D02*
X57500D01*
D20*
X237300Y187300D02*
D03*
Y212700D02*
D03*
X262700D02*
D03*
D21*
Y187300D02*
D03*
D22*
X82900Y65400D02*
D03*
Y40000D02*
D03*
X57500Y65400D02*
D03*
Y40000D02*
D03*
M02*
