G04*
G04 #@! TF.GenerationSoftware,Altium Limited,Altium Designer,18.1.7 (191)*
G04*
G04 Layer_Color=65535*
%FSLAX44Y44*%
%MOMM*%
G71*
G01*
G75*
%ADD10C,0.2000*%
G36*
X99350Y123447D02*
X99612Y123395D01*
X99913Y123303D01*
X100214Y123159D01*
X100528Y122976D01*
X100843Y122714D01*
X100856Y122701D01*
X100882Y122675D01*
X100934Y122622D01*
X100974Y122557D01*
X101039Y122465D01*
X101118Y122360D01*
X101262Y122112D01*
X101419Y121797D01*
X101537Y121444D01*
X101589Y121234D01*
X101615Y121025D01*
Y120789D01*
X101602Y120567D01*
X101628D01*
X101681Y120593D01*
X101772Y120606D01*
X101890Y120619D01*
X102034Y120632D01*
X102205Y120645D01*
X102401Y120632D01*
X102610D01*
X102846Y120606D01*
X103069Y120567D01*
X103317Y120501D01*
X103566Y120410D01*
X103828Y120279D01*
X104090Y120148D01*
X104326Y119964D01*
X104574Y119742D01*
X104587Y119729D01*
X104614Y119703D01*
X104666Y119650D01*
X104718Y119572D01*
X104784Y119480D01*
X104862Y119375D01*
X105046Y119113D01*
X105216Y118786D01*
X105360Y118406D01*
X105412Y118197D01*
X105452Y117974D01*
X105478Y117739D01*
X105491Y117490D01*
Y117464D01*
Y117437D01*
X105478Y117372D01*
Y117267D01*
X105438Y117045D01*
X105360Y116730D01*
X105255Y116390D01*
X105085Y116010D01*
X104862Y115631D01*
X104718Y115460D01*
X104561Y115277D01*
X102636Y113352D01*
X102545Y113313D01*
X102453Y113274D01*
X102348Y113248D01*
X102218D01*
X102087Y113300D01*
X101956Y113405D01*
X95252Y120108D01*
X95239Y120121D01*
X95187Y120174D01*
X95160Y120252D01*
X95108Y120357D01*
X95082Y120462D01*
Y120593D01*
X95134Y120724D01*
X95239Y120855D01*
X97177Y122793D01*
X97242Y122832D01*
X97399Y122963D01*
X97622Y123107D01*
X97897Y123251D01*
X98224Y123369D01*
X98578Y123460D01*
X98970Y123486D01*
X99154D01*
X99350Y123447D01*
D02*
G37*
G36*
X88953Y134237D02*
X89071Y134224D01*
X89202Y134198D01*
X89503Y134132D01*
X89843Y134028D01*
X90223Y133857D01*
X90603Y133635D01*
X90786Y133478D01*
X90969Y133321D01*
X90983Y133308D01*
X91035Y133255D01*
X91100Y133163D01*
X91192Y133046D01*
X91310Y132902D01*
X91414Y132744D01*
X91519Y132535D01*
X91637Y132312D01*
X91742Y132077D01*
X91833Y131802D01*
X91899Y131527D01*
X91938Y131226D01*
Y130911D01*
X91899Y130584D01*
X91820Y130244D01*
X91703Y129890D01*
X95604Y128607D01*
X95631D01*
X95683Y128581D01*
X95748Y128541D01*
X95814Y128476D01*
X95840Y128450D01*
X95892Y128371D01*
X95932Y128253D01*
X95958Y128096D01*
X95945Y128057D01*
X95932Y127965D01*
X95892Y127848D01*
X95801Y127730D01*
X95761Y127690D01*
X95709Y127664D01*
X95644Y127625D01*
X95565Y127599D01*
X95486Y127573D01*
X95382D01*
X95277Y127599D01*
X91113Y128987D01*
X89490Y127363D01*
X92095Y124758D01*
X92108Y124745D01*
X92148Y124705D01*
X92200Y124627D01*
X92226Y124522D01*
X92253Y124417D01*
Y124286D01*
X92200Y124155D01*
X92082Y124011D01*
X92030Y123959D01*
X91938Y123920D01*
X91847Y123880D01*
X91742Y123854D01*
X91611D01*
X91480Y123906D01*
X91349Y124011D01*
X84645Y130715D01*
X84632Y130728D01*
X84580Y130780D01*
X84554Y130859D01*
X84501Y130964D01*
X84475Y131068D01*
Y131199D01*
X84528Y131330D01*
X84632Y131461D01*
X86583Y133412D01*
X86662Y133465D01*
X86740Y133543D01*
X86858Y133609D01*
X87120Y133792D01*
X87447Y133962D01*
X87827Y134106D01*
X88036Y134158D01*
X88246Y134211D01*
X88482Y134237D01*
X88730Y134250D01*
X88861D01*
X88953Y134237D01*
D02*
G37*
G36*
X76592Y147672D02*
X76736Y147554D01*
X76749Y147541D01*
X76788Y147502D01*
X76841Y147423D01*
X76867Y147318D01*
X76893Y147214D01*
Y147083D01*
X76841Y146952D01*
X76723Y146808D01*
X74418Y144503D01*
X74340Y144399D01*
X74261Y144268D01*
X74170Y144098D01*
X74104Y143901D01*
X74052Y143692D01*
X74026Y143456D01*
Y143430D01*
Y143351D01*
X74052Y143220D01*
X74091Y143076D01*
X74156Y142906D01*
X74235Y142723D01*
X74353Y142526D01*
X74510Y142343D01*
X78228Y138625D01*
X78255Y138598D01*
X78307Y138546D01*
X78412Y138468D01*
X78543Y138389D01*
X78713Y138297D01*
X78896Y138219D01*
X79106Y138166D01*
X79341Y138140D01*
X79367D01*
X79459Y138153D01*
X79577Y138166D01*
X79721Y138206D01*
X79891Y138271D01*
X80075Y138350D01*
X80271Y138468D01*
X80454Y138625D01*
X82313Y140484D01*
X79341Y143456D01*
X78543Y142657D01*
X78451Y142618D01*
X78359Y142579D01*
X78242Y142539D01*
X78124Y142552D01*
X77980Y142592D01*
X77849Y142697D01*
X77836Y142710D01*
X77783Y142762D01*
X77757Y142841D01*
X77705Y142945D01*
X77678Y143050D01*
Y143181D01*
X77731Y143312D01*
X77849Y143456D01*
X79027Y144634D01*
X79093Y144674D01*
X79210Y144713D01*
X79315Y144739D01*
X79446D01*
X79577Y144687D01*
X79721Y144569D01*
X83440Y140850D01*
X83453Y140837D01*
X83492Y140798D01*
X83544Y140719D01*
X83570Y140615D01*
X83597Y140510D01*
Y140379D01*
X83544Y140248D01*
X83426Y140104D01*
X81122Y137800D01*
X81057Y137760D01*
X80899Y137629D01*
X80677Y137486D01*
X80402Y137341D01*
X80101Y137224D01*
X79734Y137119D01*
X79341Y137093D01*
X79289D01*
X79158Y137119D01*
X78962Y137132D01*
X78713Y137197D01*
X78412Y137289D01*
X78098Y137420D01*
X77783Y137629D01*
X77482Y137878D01*
X73764Y141597D01*
X73751Y141610D01*
X73724Y141636D01*
X73685Y141675D01*
X73646Y141741D01*
X73515Y141898D01*
X73371Y142121D01*
X73227Y142395D01*
X73096Y142710D01*
X73004Y143063D01*
X72978Y143456D01*
Y143508D01*
X72991Y143652D01*
X73017Y143836D01*
X73070Y144098D01*
X73161Y144399D01*
X73305Y144700D01*
X73502Y145027D01*
X73751Y145328D01*
X76042Y147620D01*
X76107Y147659D01*
X76225Y147698D01*
X76330Y147724D01*
X76461D01*
X76592Y147672D01*
D02*
G37*
%LPC*%
G36*
X98983Y122426D02*
X98879D01*
X98748Y122400D01*
X98591Y122374D01*
X98407Y122321D01*
X98224Y122243D01*
X98028Y122125D01*
X97844Y121968D01*
X96365Y120488D01*
X98604Y118249D01*
X100162Y119807D01*
X100240Y119912D01*
X100319Y120043D01*
X100411Y120213D01*
X100476Y120410D01*
X100528Y120619D01*
X100555Y120855D01*
Y120881D01*
Y120960D01*
X100528Y121090D01*
X100502Y121248D01*
X100437Y121418D01*
X100358Y121601D01*
X100254Y121784D01*
X100096Y121968D01*
X100070Y121994D01*
X100018Y122046D01*
X99926Y122112D01*
X99782Y122203D01*
X99625Y122282D01*
X99429Y122347D01*
X99219Y122400D01*
X98983Y122426D01*
D02*
G37*
G36*
X102322Y119611D02*
X102296D01*
X102178Y119598D01*
X102021Y119572D01*
X101812Y119545D01*
X101576Y119467D01*
X101327Y119349D01*
X101078Y119205D01*
X100843Y118996D01*
X99350Y117503D01*
X102322Y114531D01*
X103841Y116049D01*
X103907Y116141D01*
X104011Y116272D01*
X104129Y116442D01*
X104234Y116652D01*
X104339Y116914D01*
X104417Y117176D01*
X104443Y117490D01*
X104430Y117529D01*
Y117634D01*
X104417Y117804D01*
X104365Y118013D01*
X104299Y118236D01*
X104195Y118498D01*
X104038Y118760D01*
X103828Y118996D01*
X103815Y119009D01*
X103802Y119022D01*
X103723Y119100D01*
X103579Y119192D01*
X103409Y119310D01*
X103187Y119428D01*
X102938Y119519D01*
X102636Y119585D01*
X102322Y119611D01*
D02*
G37*
G36*
X88743Y133190D02*
X88717D01*
X88600Y133176D01*
X88429Y133163D01*
X88233Y133124D01*
X87997Y133046D01*
X87735Y132941D01*
X87473Y132784D01*
X87238Y132574D01*
X85758Y131095D01*
X88743Y128109D01*
X90249Y129615D01*
X90315Y129707D01*
X90420Y129838D01*
X90537Y130008D01*
X90655Y130231D01*
X90747Y130479D01*
X90825Y130767D01*
X90851Y131082D01*
X90838Y131121D01*
Y131226D01*
X90812Y131383D01*
X90773Y131605D01*
X90708Y131828D01*
X90590Y132077D01*
X90433Y132338D01*
X90223Y132574D01*
X90210Y132587D01*
X90197Y132600D01*
X90118Y132679D01*
X89974Y132771D01*
X89804Y132888D01*
X89595Y132993D01*
X89333Y133098D01*
X89058Y133163D01*
X88743Y133190D01*
D02*
G37*
%LPD*%
D10*
X250000Y174600D02*
X275400D01*
X224600Y180950D02*
Y193650D01*
X256350Y200000D02*
X275400D01*
X250000Y174600D02*
Y193650D01*
X224600D02*
X230950Y200000D01*
X243650D02*
X250000Y193650D01*
X243650Y174600D02*
X250000Y180950D01*
X230950Y174600D02*
X243650D01*
X224600Y180950D02*
X230950Y174600D01*
X275400D02*
Y200000D01*
X224600Y180950D02*
Y193650D01*
X230950Y200000D02*
X243650D01*
X224600Y180950D02*
Y193650D01*
Y206350D02*
Y219050D01*
X256350Y225400D02*
X269050D01*
Y200000D02*
X275400Y206350D01*
X269050Y225400D02*
X275400Y219050D01*
X250000D02*
X256350Y225400D01*
X250000Y206350D02*
X256350Y200000D01*
X224600Y206350D02*
X230950Y200000D01*
X224600Y206350D02*
Y219050D01*
X230950Y225400D01*
X243650D02*
X250000Y219050D01*
Y206350D02*
Y219050D01*
X243650Y200000D02*
X250000Y206350D01*
X230950Y225400D02*
X243650D01*
X275400Y206350D02*
Y219050D01*
X158750Y178750D02*
X185250D01*
X158750Y191250D02*
X185250D01*
Y178750D02*
Y191250D01*
X158750Y178750D02*
Y191250D01*
X120000Y173142D02*
X134142Y159000D01*
X105858D02*
X120000Y144858D01*
X111161Y150161D02*
X128839Y167839D01*
X105858Y159000D02*
X127071Y166071D01*
X120000Y144858D02*
X127071Y166071D01*
M02*
