G04 Layer_Color=16711935*
%FSLAX44Y44*%
%MOMM*%
G71*
G01*
G75*
%ADD27C,6.2032*%
%ADD28C,2.0032*%
%ADD29P,2.1683X8X22.5*%
G04:AMPARAMS|DCode=30|XSize=0.2032mm|YSize=0.2032mm|CornerRadius=0mm|HoleSize=0mm|Usage=FLASHONLY|Rotation=0.000|XOffset=0mm|YOffset=0mm|HoleType=Round|Shape=RoundedRectangle|*
%AMROUNDEDRECTD30*
21,1,0.2032,0.2032,0,0,0.0*
21,1,0.2032,0.2032,0,0,0.0*
1,1,0.0000,0.1016,-0.1016*
1,1,0.0000,-0.1016,-0.1016*
1,1,0.0000,-0.1016,0.1016*
1,1,0.0000,0.1016,0.1016*
%
%ADD30ROUNDEDRECTD30*%
%ADD31P,2.1683X8X292.5*%
%ADD32C,0.2032*%
%ADD33C,4.2032*%
D27*
X505000Y50000D02*
D03*
X45000D02*
D03*
Y550000D02*
D03*
X505000D02*
D03*
D28*
X313100Y80000D02*
D03*
X287700D02*
D03*
X262300D02*
D03*
X107000Y312700D02*
D03*
Y287300D02*
D03*
Y261900D02*
D03*
X504500Y232150D02*
D03*
Y155950D02*
D03*
Y181350D02*
D03*
Y206750D02*
D03*
X505000Y443100D02*
D03*
Y366900D02*
D03*
Y392300D02*
D03*
Y417700D02*
D03*
D29*
X236900Y80000D02*
D03*
D30*
X275000Y57200D02*
D03*
D31*
X107000Y338100D02*
D03*
D32*
X465000Y315240D02*
D03*
Y285240D02*
D03*
D33*
X385000Y460000D02*
D03*
Y140000D02*
D03*
X165000D02*
D03*
Y460000D02*
D03*
M02*
