M48
;Layer_Color=9474304
;FILE_FORMAT=4:4
METRIC,LZ
;TYPE=PLATED
T1F00S00C1.1000
T3F00S00C3.0000
T4F00S00C4.8000
;TYPE=NON_PLATED
T5F00S00C0.9000
%
T01
X0043Y0021041
Y0023581
Y0026121
Y0028661
X0016764Y004595
X0014224
X0011684
X0009144
X000919Y00102
X001173
X00142
X001681
T03
X0017Y0014
Y0036
X0039
Y0014
T04
X00045Y00045
X00455
Y00455
X00045
T05
X00328605Y0005
X00358605
M30
