M48
;Layer_Color=9474304
;FILE_FORMAT=4:4
METRIC,LZ
;TYPE=PLATED
T1F00S00C0.3000
T2F00S00C1.1000
T4F00S00C3.0000
T5F00S00C4.8000
;TYPE=NON_PLATED
T6F00S00C0.9000
%
T01
X004075Y003225
X004875Y003
T02
X005045Y0015595
Y0018135
Y0020675
Y0023215
X00505Y003669
X00107Y003381
Y003127
Y002873
Y002619
X002369Y0008
X002623
X002877
X003131
X00505Y003923
Y004177
Y004431
T04
X0019Y00115
X0036
Y00485
X0019
T05
X00505Y0005
X00045
Y0055
X00505
T06
X00465Y0028524
Y0031524
M30
