G04 Layer_Color=8388736*
%FSLAX44Y44*%
%MOMM*%
G71*
G01*
G75*
%ADD30R,1.1032X1.4532*%
%ADD31R,1.0032X1.1032*%
%ADD32R,1.0532X1.1532*%
%ADD33R,1.0032X1.0032*%
%ADD34R,1.4032X1.9532*%
%ADD35R,1.2532X0.8032*%
%ADD36R,2.3032X0.9532*%
%ADD37R,1.7032X1.8032*%
%ADD38C,0.2032*%
%ADD39C,2.0032*%
%ADD40C,1.2032*%
G04:AMPARAMS|DCode=41|XSize=0.2032mm|YSize=0.2032mm|CornerRadius=0mm|HoleSize=0mm|Usage=FLASHONLY|Rotation=270.000|XOffset=0mm|YOffset=0mm|HoleType=Round|Shape=RoundedRectangle|*
%AMROUNDEDRECTD41*
21,1,0.2032,0.2032,0,0,270.0*
21,1,0.2032,0.2032,0,0,270.0*
1,1,0.0000,-0.1016,-0.1016*
1,1,0.0000,-0.1016,0.1016*
1,1,0.0000,0.1016,0.1016*
1,1,0.0000,0.1016,-0.1016*
%
%ADD41ROUNDEDRECTD41*%
%ADD42P,2.1683X8X292.5*%
%ADD43C,1.7272*%
%ADD44C,5.7032*%
%ADD45C,1.4732*%
D30*
X276395Y78250D02*
D03*
X243395D02*
D03*
X228395D02*
D03*
D31*
X211895Y110000D02*
D03*
Y90000D02*
D03*
X288895Y110000D02*
D03*
Y90000D02*
D03*
D32*
X284500Y324000D02*
D03*
X271500D02*
D03*
X271500Y308000D02*
D03*
X284500D02*
D03*
X228000Y306100D02*
D03*
X215000D02*
D03*
X228500Y324000D02*
D03*
X215500D02*
D03*
X228500Y288000D02*
D03*
X215500D02*
D03*
X215500Y270000D02*
D03*
X228500D02*
D03*
D33*
X180000Y407500D02*
D03*
Y392500D02*
D03*
X320000Y407500D02*
D03*
Y392500D02*
D03*
X250000Y407500D02*
D03*
Y392500D02*
D03*
D34*
X210000Y447250D02*
D03*
X230000Y447250D02*
D03*
X270000Y447250D02*
D03*
X290000D02*
D03*
D35*
X295000Y269500D02*
D03*
Y250500D02*
D03*
X317000Y260000D02*
D03*
D36*
X295500Y195400D02*
D03*
Y220600D02*
D03*
X204500D02*
D03*
Y195400D02*
D03*
D37*
X268000Y248000D02*
D03*
X232000D02*
D03*
D38*
X235395Y100000D02*
D03*
X265395D02*
D03*
D39*
X180000Y188000D02*
D03*
X324000Y340000D02*
D03*
X459500Y288100D02*
D03*
Y211900D02*
D03*
Y237300D02*
D03*
Y262700D02*
D03*
X70000D02*
D03*
Y237300D02*
D03*
Y211900D02*
D03*
D40*
X200000Y476000D02*
D03*
X280000D02*
D03*
D41*
X47200Y250000D02*
D03*
D42*
X70000Y288100D02*
D03*
D43*
X350000Y165000D02*
D03*
X165000Y350000D02*
D03*
X350000D02*
D03*
X165000Y165000D02*
D03*
D44*
X45000Y455000D02*
D03*
X455000D02*
D03*
X45000Y45000D02*
D03*
X455000D02*
D03*
D45*
X202000Y250000D02*
D03*
X316000Y234000D02*
D03*
X266930Y282000D02*
D03*
X234000Y342000D02*
D03*
M02*
