G04 Layer_Physical_Order=2*
G04 Layer_Color=16711680*
%FSLAX44Y44*%
%MOMM*%
G71*
G01*
G75*
%ADD10C,1.0000*%
%ADD11R,0.8500X0.8500*%
%ADD13C,0.6000*%
%ADD14R,1.2500X1.0000*%
%ADD15R,0.8500X0.8500*%
%ADD17C,0.5000*%
%ADD18C,0.3000*%
G04:AMPARAMS|DCode=24|XSize=1.3mm|YSize=1mm|CornerRadius=0.25mm|HoleSize=0mm|Usage=FLASHONLY|Rotation=180.000|XOffset=0mm|YOffset=0mm|HoleType=Round|Shape=RoundedRectangle|*
%AMROUNDEDRECTD24*
21,1,1.3000,0.5000,0,0,180.0*
21,1,0.8000,1.0000,0,0,180.0*
1,1,0.5000,-0.4000,0.2500*
1,1,0.5000,0.4000,0.2500*
1,1,0.5000,0.4000,-0.2500*
1,1,0.5000,-0.4000,-0.2500*
%
%ADD24ROUNDEDRECTD24*%
%ADD25C,0.7000*%
%ADD28C,1.5240*%
%ADD29C,1.8000*%
%ADD30R,2.0000X2.0000*%
%ADD31C,2.0000*%
%ADD32C,4.0000*%
%ADD33C,6.0000*%
%ADD34C,0.7000*%
%ADD35P,1.9483X8X202.5*%
%ADD36C,1.2000*%
%ADD37C,2.6400*%
G36*
X901146Y1077355D02*
X901146Y976277D01*
X901146Y976102D01*
X901132Y974863D01*
X901030Y974137D01*
X901126Y974802D01*
X900962Y973655D01*
X900921Y973448D01*
X900226Y972409D01*
X899187Y971715D01*
X898871Y971652D01*
X898871Y971652D01*
X898483Y971470D01*
X874007Y961039D01*
X871396Y960695D01*
X868046Y959308D01*
X865170Y957101D01*
X862962Y954224D01*
X861575Y950875D01*
X861102Y947280D01*
X861102D01*
X861145Y947237D01*
X861063Y910386D01*
X860977Y909952D01*
X860932D01*
X861405Y906358D01*
X862793Y903008D01*
X865000Y900131D01*
X867876Y897924D01*
X871226Y896537D01*
X874821Y896064D01*
Y896091D01*
X874822Y896093D01*
X1356633Y896306D01*
X1357962Y893097D01*
X1360170Y890221D01*
X1363046Y888014D01*
X1366396Y886626D01*
X1369990Y886153D01*
Y886153D01*
X1371231Y886224D01*
X1374305Y886290D01*
X1375226Y885674D01*
X1375921Y884635D01*
X1375962Y884428D01*
X1376126Y883282D01*
X1376030Y883946D01*
X1375962Y884428D01*
X1375954Y884468D01*
X1376030Y883946D01*
X1376132Y883220D01*
X1376147Y881981D01*
X1376147Y881806D01*
Y838277D01*
X1376147Y838102D01*
X1376132Y836863D01*
X1376030Y836137D01*
X1376126Y836802D01*
X1375962Y835655D01*
X1375921Y835448D01*
X1375226Y834409D01*
X1374294Y833786D01*
X1369218Y833840D01*
X1368990Y833885D01*
Y833931D01*
X1365396Y833457D01*
X1362046Y832070D01*
X1359169Y829863D01*
X1356962Y826986D01*
X1355633Y823778D01*
X874992Y823991D01*
X874990Y824036D01*
X871396Y823562D01*
X868046Y822175D01*
X865170Y819968D01*
X862962Y817091D01*
X861575Y813742D01*
X861178Y810726D01*
X861062Y810138D01*
X861146Y772065D01*
X861102Y772020D01*
X861102D01*
X861575Y768425D01*
X862962Y765075D01*
X865170Y762199D01*
X868046Y759992D01*
X871396Y758604D01*
X874146Y758242D01*
X897428Y749029D01*
X897743Y748905D01*
X898862Y748435D01*
X899015Y748355D01*
X898875Y748429D01*
X899898Y747889D01*
X899015Y748355D01*
X899975Y747842D01*
X900226Y747674D01*
X900921Y746635D01*
X900962Y746428D01*
X901126Y745282D01*
X901030Y745946D01*
X900962Y746428D01*
X900954Y746468D01*
X901030Y745946D01*
X901132Y745220D01*
X901146Y743981D01*
X901146Y743806D01*
X901146Y642728D01*
X900055Y642078D01*
X787294Y703165D01*
X786821Y703421D01*
X786469Y703587D01*
X786461Y703593D01*
X786213Y703709D01*
X785155Y704280D01*
X784600Y704651D01*
X783834Y705798D01*
Y1014285D01*
X784600Y1015432D01*
X785926Y1016318D01*
X786213Y1016375D01*
X786213Y1016375D01*
X786455Y1016489D01*
X786461Y1016490D01*
X786470Y1016496D01*
X786821Y1016662D01*
X900055Y1078005D01*
X901146Y1077355D01*
D02*
G37*
G36*
X409431Y998768D02*
X418771Y997383D01*
X427931Y995089D01*
X436821Y991907D01*
X445357Y987870D01*
X453456Y983016D01*
X461041Y977391D01*
X468037Y971050D01*
X474378Y964053D01*
X480003Y956469D01*
X483239Y951071D01*
X483274Y951091D01*
X733274Y518078D01*
X733239Y518058D01*
X734857Y515357D01*
X738895Y506821D01*
X742076Y497931D01*
X744370Y488771D01*
X745756Y479431D01*
X746219Y470000D01*
X745756Y460569D01*
X744370Y451229D01*
X742076Y442069D01*
X738895Y433179D01*
X734857Y424643D01*
X730003Y416544D01*
X724378Y408959D01*
X718037Y401963D01*
X711041Y395622D01*
X703456Y389997D01*
X695357Y385143D01*
X686821Y381105D01*
X677931Y377924D01*
X668771Y375630D01*
X659431Y374244D01*
X650253Y373793D01*
X650000Y373844D01*
X150000D01*
X149747Y373793D01*
X140569Y374244D01*
X131229Y375630D01*
X122069Y377924D01*
X113179Y381105D01*
X104643Y385143D01*
X96544Y389997D01*
X88959Y395622D01*
X81963Y401963D01*
X75622Y408959D01*
X69997Y416544D01*
X65142Y424643D01*
X61105Y433179D01*
X57924Y442069D01*
X55630Y451229D01*
X54244Y460569D01*
X53781Y470000D01*
X54244Y479431D01*
X55630Y488771D01*
X57924Y497931D01*
X61105Y506821D01*
X65142Y515357D01*
X66761Y518058D01*
X66726Y518078D01*
X316726Y951091D01*
X316761Y951071D01*
X319997Y956469D01*
X325622Y964053D01*
X331963Y971050D01*
X338959Y977391D01*
X346544Y983016D01*
X354643Y987870D01*
X363179Y991907D01*
X372069Y995089D01*
X381229Y997383D01*
X390569Y998768D01*
X400000Y999232D01*
X409431Y998768D01*
D02*
G37*
G36*
X1358955Y739366D02*
X1359610Y739269D01*
X1359756Y739240D01*
X1359741Y739122D01*
X1360736Y738991D01*
X1362608Y738216D01*
X1364216Y736982D01*
X1365450Y735374D01*
X1366226Y733501D01*
X1366461Y731719D01*
X1366357Y730477D01*
X1366357Y730476D01*
X1366375Y729268D01*
X1366375Y629958D01*
X1366390Y629880D01*
X1366291Y629125D01*
X1366795Y625294D01*
X1368274Y621724D01*
X1370626Y618658D01*
X1373692Y616306D01*
X1377262Y614827D01*
X1379390Y614547D01*
X1379621Y614460D01*
X1418758Y607937D01*
X1419958Y607710D01*
Y607710D01*
X1419958Y607710D01*
X1421235Y607542D01*
X1422920Y606843D01*
X1424368Y605733D01*
X1425478Y604286D01*
X1426176Y602600D01*
X1426323Y601487D01*
X1426344Y600260D01*
X1426344Y600259D01*
X1426375Y599035D01*
X1426375Y598733D01*
X1426375Y521183D01*
X1426375Y520882D01*
X1426344Y519658D01*
X1426344Y519657D01*
X1426323Y518430D01*
X1426176Y517316D01*
X1425478Y515631D01*
X1424368Y514184D01*
X1422920Y513073D01*
X1421235Y512375D01*
X1419958Y512207D01*
X1419958Y512207D01*
Y512207D01*
X1418758Y511980D01*
X1379621Y505457D01*
X1379390Y505369D01*
X1377262Y505089D01*
X1373692Y503610D01*
X1370626Y501258D01*
X1368274Y498193D01*
X1366795Y494623D01*
X1366291Y490792D01*
X1366390Y490036D01*
X1366375Y489958D01*
X1366375Y390649D01*
X1366357Y389441D01*
X1366357Y389440D01*
X1366461Y388198D01*
X1366226Y386415D01*
X1365450Y384543D01*
X1364216Y382935D01*
X1362608Y381701D01*
X1360736Y380925D01*
X1359741Y380794D01*
X1359756Y380676D01*
X1359610Y380647D01*
X1358955Y380550D01*
X1250182Y341755D01*
X1249144Y342487D01*
X1249144Y443722D01*
X1249144Y443900D01*
X1249159Y445138D01*
X1249265Y445893D01*
X1249337Y446385D01*
X1249329Y446347D01*
X1249265Y445893D01*
X1249165Y445202D01*
X1249329Y446347D01*
X1249367Y446536D01*
X1250052Y447562D01*
X1251078Y448247D01*
X1251390Y448310D01*
X1251390Y448310D01*
X1251783Y448492D01*
X1276256Y458922D01*
X1278865Y459266D01*
X1282224Y460657D01*
X1285109Y462871D01*
X1287323Y465755D01*
X1288714Y469115D01*
X1289189Y472720D01*
X1289189D01*
X1289146Y472763D01*
X1289228Y509614D01*
X1289314Y510048D01*
X1289358D01*
X1288884Y513653D01*
X1287492Y517012D01*
X1285279Y519897D01*
X1282394Y522111D01*
X1279034Y523502D01*
X1275429Y523977D01*
Y523950D01*
X1275427Y523948D01*
X793643Y523735D01*
X792323Y526923D01*
X790109Y529808D01*
X787224Y532021D01*
X783865Y533413D01*
X780260Y533887D01*
Y533887D01*
X779019Y533817D01*
X775955Y533751D01*
X775052Y534355D01*
X774367Y535380D01*
X774329Y535570D01*
X774165Y536715D01*
X774265Y536024D01*
X774329Y535570D01*
X774337Y535531D01*
X774265Y536024D01*
X774159Y536779D01*
X774144Y538017D01*
X774144Y538195D01*
Y581722D01*
X774144Y581900D01*
X774159Y583138D01*
X774265Y583893D01*
X774337Y584385D01*
X774329Y584347D01*
X774265Y583893D01*
X774165Y583202D01*
X774329Y584347D01*
X774367Y584536D01*
X775052Y585562D01*
X775955Y586165D01*
X779019Y586099D01*
X780260Y586029D01*
Y586029D01*
X783865Y586504D01*
X787224Y587895D01*
X790109Y590109D01*
X792323Y592994D01*
X793643Y596182D01*
X1275258Y595969D01*
X1275260Y595924D01*
X1278865Y596399D01*
X1282224Y597790D01*
X1285109Y600004D01*
X1287323Y602889D01*
X1288714Y606248D01*
X1289112Y609267D01*
X1289229Y609862D01*
X1289144Y647936D01*
X1289189Y647980D01*
X1289189D01*
X1288714Y651586D01*
X1287323Y654945D01*
X1285109Y657830D01*
X1282224Y660043D01*
X1278865Y661435D01*
X1276117Y661797D01*
X1252838Y671008D01*
X1252519Y671134D01*
X1251401Y671603D01*
X1251221Y671698D01*
X1251386Y671609D01*
X1250360Y672153D01*
X1251221Y671698D01*
X1250289Y672197D01*
X1250052Y672355D01*
X1249367Y673380D01*
X1249329Y673570D01*
X1249165Y674715D01*
X1249265Y674024D01*
X1249329Y673570D01*
X1249337Y673531D01*
X1249265Y674024D01*
X1249159Y674779D01*
X1249144Y676016D01*
X1249144Y676195D01*
X1249144Y777430D01*
X1250182Y778161D01*
X1358955Y739366D01*
D02*
G37*
G36*
X1028447Y495833D02*
X1029717Y495580D01*
X1031561Y494348D01*
X1032794Y492503D01*
X1033156Y490680D01*
Y455827D01*
X1033146Y455815D01*
X1033137Y455815D01*
X1033542Y449642D01*
X1034779Y443421D01*
X1036363Y438755D01*
X1036391Y438615D01*
X1036391Y438615D01*
X1036411Y438513D01*
X1036560Y438290D01*
X1036642Y438133D01*
X1036960Y437538D01*
X1038402Y434841D01*
X1046411Y421962D01*
X1055245Y409634D01*
X1064866Y397910D01*
X1075234Y386840D01*
X1086303Y376473D01*
X1098027Y366851D01*
X1107355Y360167D01*
X1107374Y360193D01*
X1108054Y359739D01*
X1108191Y359711D01*
X1109043Y359291D01*
X1114545Y357424D01*
X1120243Y356290D01*
X1126041Y355910D01*
X1126917Y355967D01*
X1127041Y355943D01*
X1158496D01*
X1159541Y355943D01*
X1159745Y355954D01*
X1160947Y355833D01*
X1162216Y355580D01*
X1164061Y354348D01*
X1165294Y352503D01*
X1165656Y350680D01*
Y230827D01*
X1165689Y230660D01*
X1165252Y228462D01*
X1163912Y226456D01*
X1161907Y225116D01*
X1159708Y224679D01*
X1159541Y224712D01*
X1127204D01*
X1126041Y224712D01*
X1125945Y224710D01*
X1124681Y224667D01*
X1119302Y225091D01*
X1113703Y226435D01*
X1111286Y227436D01*
X1110123Y227930D01*
Y227930D01*
X1110123Y227930D01*
X1100153Y232349D01*
X1083074Y240946D01*
X1066437Y250371D01*
X1050283Y260600D01*
X1034650Y271610D01*
X1019576Y283374D01*
X1005098Y295863D01*
X991250Y309048D01*
X978065Y322896D01*
X965576Y337374D01*
X953812Y352448D01*
X942802Y368081D01*
X932573Y384235D01*
X923148Y400872D01*
X914551Y417951D01*
X906803Y435431D01*
X904693Y440901D01*
X904695Y440906D01*
X904695Y440905D01*
X903879Y442874D01*
X902386Y449094D01*
X901913Y455103D01*
X901958Y455327D01*
Y488752D01*
X901988Y489960D01*
X902183Y491184D01*
X902798Y492668D01*
X903855Y494046D01*
X905232Y495103D01*
X906836Y495767D01*
X907945Y495913D01*
X909173Y495912D01*
X909174Y495912D01*
X910392Y495943D01*
X910773Y495943D01*
X1025996D01*
X1027041Y495943D01*
X1027245Y495954D01*
X1028447Y495833D01*
D02*
G37*
G36*
X342381Y345749D02*
X344400Y344400D01*
X345749Y342381D01*
X346189Y340167D01*
X346156Y340000D01*
Y60000D01*
X346189Y59833D01*
X345749Y57619D01*
X344400Y55600D01*
X342381Y54251D01*
X340167Y53811D01*
X340000Y53844D01*
X60000D01*
X59833Y53811D01*
X57619Y54251D01*
X55600Y55600D01*
X54251Y57619D01*
X53811Y59833D01*
X53844Y60000D01*
Y340000D01*
X53811Y340167D01*
X54251Y342381D01*
X55600Y344400D01*
X57619Y345749D01*
X59833Y346189D01*
X60000Y346156D01*
X340000D01*
X340167Y346189D01*
X342381Y345749D01*
D02*
G37*
G36*
X1377366Y279527D02*
X1379372Y278187D01*
X1380712Y276181D01*
X1381149Y273983D01*
X1381116Y273815D01*
Y245416D01*
X1379846Y245291D01*
X1379748Y245782D01*
X1378634Y247449D01*
X1376967Y248563D01*
X1375000Y248954D01*
X1372863D01*
X1372581Y249635D01*
X1370731Y252046D01*
X1368320Y253896D01*
X1365513Y255058D01*
X1362500Y255455D01*
X1359488Y255058D01*
X1356681Y253896D01*
X1354270Y252046D01*
X1352420Y249635D01*
X1351257Y246828D01*
X1350861Y243815D01*
X1351257Y240803D01*
X1352420Y237996D01*
X1354270Y235585D01*
X1356681Y233735D01*
X1359488Y232573D01*
X1362500Y232176D01*
X1365513Y232573D01*
X1368320Y233735D01*
X1370151Y235140D01*
X1371421Y234514D01*
Y227717D01*
X1370151Y227091D01*
X1368320Y228496D01*
X1365513Y229659D01*
X1362500Y230055D01*
X1359488Y229659D01*
X1356681Y228496D01*
X1354270Y226646D01*
X1352420Y224235D01*
X1351257Y221428D01*
X1350861Y218416D01*
X1351257Y215403D01*
X1352420Y212596D01*
X1354270Y210185D01*
X1356681Y208335D01*
X1358381Y207631D01*
Y194022D01*
X1239594Y75235D01*
X1194567D01*
X1193654Y77440D01*
X1191644Y80059D01*
X1189025Y82069D01*
X1186468Y83128D01*
Y84503D01*
X1189025Y85562D01*
X1191644Y87572D01*
X1193654Y90191D01*
X1194567Y92396D01*
X1245700D01*
X1247277Y92710D01*
X1248613Y93603D01*
X1340013Y185003D01*
X1340906Y186339D01*
X1341220Y187915D01*
Y207631D01*
X1342920Y208335D01*
X1345331Y210185D01*
X1347181Y212596D01*
X1348343Y215403D01*
X1348740Y218416D01*
X1348343Y221428D01*
X1347181Y224235D01*
X1345331Y226646D01*
X1342920Y228496D01*
X1340113Y229659D01*
X1337100Y230055D01*
X1334088Y229659D01*
X1331281Y228496D01*
X1328870Y226646D01*
X1328322Y225932D01*
X1327120Y226340D01*
Y228009D01*
X1332387Y233277D01*
X1334088Y232573D01*
X1337100Y232176D01*
X1340113Y232573D01*
X1342920Y233735D01*
X1345331Y235585D01*
X1347181Y237996D01*
X1348343Y240803D01*
X1348740Y243815D01*
X1348343Y246828D01*
X1347181Y249635D01*
X1345331Y252046D01*
X1342920Y253896D01*
X1340113Y255058D01*
X1337100Y255455D01*
X1334088Y255058D01*
X1331281Y253896D01*
X1328870Y252046D01*
X1327020Y249635D01*
X1325858Y246828D01*
X1325461Y243815D01*
X1325858Y240803D01*
X1326562Y239102D01*
X1320088Y232628D01*
X1320019Y232525D01*
X1318766Y232936D01*
X1318979Y237820D01*
X1318837Y241073D01*
X1318885Y241315D01*
Y272771D01*
X1318885Y273815D01*
X1318874Y274019D01*
X1318995Y275221D01*
X1319248Y276491D01*
X1320480Y278336D01*
X1322325Y279568D01*
X1324148Y279931D01*
X1375000D01*
X1375167Y279964D01*
X1377366Y279527D01*
D02*
G37*
G36*
X1318881Y220173D02*
Y190293D01*
X1302487Y173900D01*
X1301497Y174694D01*
X1302477Y176232D01*
X1307438Y185763D01*
X1311550Y195691D01*
X1314782Y205940D01*
X1317108Y216431D01*
X1317611Y220256D01*
X1318881Y220173D01*
D02*
G37*
G36*
X1259723Y131135D02*
X1244823Y116235D01*
X1221794D01*
X1221655Y117505D01*
X1227683Y118841D01*
X1237932Y122072D01*
X1247859Y126185D01*
X1257391Y131146D01*
X1258928Y132126D01*
X1259723Y131135D01*
D02*
G37*
G36*
X1328870Y210185D02*
X1331281Y208335D01*
X1332981Y207631D01*
Y189622D01*
X1243994Y100635D01*
X1194567D01*
X1193654Y102840D01*
X1191644Y105459D01*
X1189993Y106726D01*
X1190424Y107996D01*
X1246529D01*
X1248105Y108310D01*
X1249442Y109203D01*
X1325913Y185674D01*
X1326806Y187011D01*
X1327120Y188587D01*
Y210491D01*
X1328322Y210899D01*
X1328870Y210185D01*
D02*
G37*
G36*
X1375752Y189009D02*
X1374024Y182239D01*
X1369971Y170062D01*
X1365060Y158206D01*
X1359315Y146729D01*
X1352766Y135692D01*
X1345447Y125150D01*
X1337394Y115157D01*
X1328649Y105764D01*
X1319256Y97019D01*
X1309263Y88967D01*
X1298721Y81647D01*
X1287684Y75098D01*
X1276208Y69354D01*
X1264351Y64443D01*
X1252174Y60390D01*
X1245490Y58684D01*
X1244838Y59828D01*
X1374648Y189638D01*
X1375752Y189009D01*
D02*
G37*
G36*
X380000Y245646D02*
X432222D01*
X432531Y244414D01*
X432160Y244216D01*
X428658Y241342D01*
X425784Y237840D01*
X423648Y233844D01*
X422333Y229509D01*
X421889Y225000D01*
X422333Y220491D01*
X423648Y216156D01*
X425784Y212160D01*
X428658Y208658D01*
X432160Y205784D01*
X436156Y203648D01*
X440491Y202333D01*
X445000Y201889D01*
X449509Y202333D01*
X453844Y203648D01*
X457840Y205784D01*
X461342Y208658D01*
X464216Y212160D01*
X466352Y216156D01*
X467667Y220491D01*
X468111Y225000D01*
X467667Y229509D01*
X466352Y233844D01*
X464216Y237840D01*
X461342Y241342D01*
X457840Y244216D01*
X457469Y244414D01*
X457778Y245646D01*
X849867D01*
X849874Y245639D01*
X849874Y245639D01*
X849874Y245639D01*
X855075Y245298D01*
X861636Y243993D01*
X865865Y242557D01*
X867042Y242138D01*
X867043Y242138D01*
X867043Y242138D01*
X867963Y241845D01*
X899955Y231675D01*
X944732Y216387D01*
X989175Y200152D01*
X1033263Y182977D01*
X1068940Y168200D01*
X1071142Y165621D01*
X1073321Y162065D01*
X1074917Y158212D01*
X1075891Y154157D01*
X1076218Y150000D01*
X1075891Y145843D01*
X1074917Y141788D01*
X1073321Y137935D01*
X1071142Y134379D01*
X1068940Y131800D01*
X1033263Y117023D01*
X989175Y99848D01*
X944732Y83613D01*
X899955Y68325D01*
X867963Y58155D01*
X867043Y57862D01*
Y57862D01*
X866780Y57753D01*
X865596Y57351D01*
X861636Y56007D01*
X855075Y54702D01*
X849874Y54361D01*
X849874Y54361D01*
Y54361D01*
X849867Y54354D01*
X457778D01*
X457469Y55586D01*
X457840Y55784D01*
X461342Y58658D01*
X464216Y62160D01*
X466352Y66156D01*
X467667Y70491D01*
X468111Y75000D01*
X467667Y79509D01*
X466352Y83844D01*
X464216Y87840D01*
X461342Y91342D01*
X457840Y94216D01*
X453844Y96352D01*
X449509Y97667D01*
X445000Y98111D01*
X440491Y97667D01*
X436156Y96352D01*
X432160Y94216D01*
X428658Y91342D01*
X425784Y87840D01*
X423648Y83844D01*
X422333Y79509D01*
X421889Y75000D01*
X422333Y70491D01*
X423648Y66156D01*
X425784Y62160D01*
X428658Y58658D01*
X432160Y55784D01*
X432531Y55586D01*
X432222Y54354D01*
X380000D01*
X379833Y54320D01*
X377814Y54722D01*
X375960Y55960D01*
X374722Y57814D01*
X374320Y59833D01*
X374354Y60000D01*
Y240000D01*
X374320Y240167D01*
X374722Y242186D01*
X375960Y244040D01*
X377814Y245278D01*
X379833Y245680D01*
X380000Y245646D01*
D02*
G37*
%LPC*%
G36*
X894990Y1057991D02*
X874990D01*
X874015Y1057797D01*
X873188Y1057244D01*
X872635Y1056417D01*
X872441Y1055442D01*
Y1051049D01*
X867890D01*
X865744Y1050622D01*
X863925Y1049407D01*
X856025Y1041507D01*
X854809Y1039688D01*
X854383Y1037542D01*
Y999447D01*
X853125Y998607D01*
X821025Y966507D01*
X819809Y964688D01*
X819383Y962542D01*
Y877591D01*
X818740D01*
X817765Y877397D01*
X816938Y876844D01*
X816385Y876017D01*
X816312Y875649D01*
X807490D01*
X805344Y875222D01*
X803525Y874007D01*
X802309Y872188D01*
X801883Y870042D01*
Y765042D01*
X802309Y762896D01*
X803525Y761076D01*
X843125Y721476D01*
X844944Y720261D01*
X847090Y719834D01*
X857283D01*
Y677942D01*
X857710Y675796D01*
X858925Y673976D01*
X862225Y670676D01*
X864044Y669461D01*
X866190Y669034D01*
X873783D01*
X874072Y668338D01*
X876075Y665726D01*
X878686Y663723D01*
X881727Y662463D01*
X884990Y662034D01*
X888253Y662463D01*
X891294Y663723D01*
X893905Y665726D01*
X895909Y668338D01*
X897169Y671378D01*
X897598Y674642D01*
X897169Y677905D01*
X895909Y680946D01*
X893905Y683557D01*
X891294Y685560D01*
X888568Y686690D01*
X888567Y686692D01*
Y687992D01*
X888568Y687993D01*
X891294Y689123D01*
X893905Y691126D01*
X895909Y693738D01*
X897169Y696778D01*
X897598Y700042D01*
X897169Y703305D01*
X895909Y706346D01*
X893905Y708957D01*
X891294Y710960D01*
X889695Y711623D01*
X889948Y712893D01*
X894990D01*
X895966Y713087D01*
X896793Y713639D01*
X897345Y714466D01*
X897539Y715442D01*
Y735442D01*
X897345Y736417D01*
X896793Y737244D01*
X895966Y737797D01*
X894990Y737991D01*
X874990D01*
X874015Y737797D01*
X873188Y737244D01*
X872635Y736417D01*
X872441Y735442D01*
Y731049D01*
X849413D01*
X813098Y767365D01*
Y864434D01*
X816312D01*
X816385Y864066D01*
X816938Y863239D01*
X817765Y862687D01*
X818740Y862493D01*
X831240D01*
X832216Y862687D01*
X833043Y863239D01*
X833595Y864066D01*
X833789Y865042D01*
Y867134D01*
X1226866D01*
X1226945Y866942D01*
X1228789Y864540D01*
X1231191Y862696D01*
X1233988Y861538D01*
X1236990Y861142D01*
X1239993Y861538D01*
X1242790Y862696D01*
X1245192Y864540D01*
X1247036Y866942D01*
X1248194Y869740D01*
X1248590Y872742D01*
X1248194Y875744D01*
X1247036Y878541D01*
X1245192Y880944D01*
X1242790Y882787D01*
X1239993Y883946D01*
X1236990Y884341D01*
X1233988Y883946D01*
X1231191Y882787D01*
X1228789Y880944D01*
X1226945Y878541D01*
X1226866Y878349D01*
X830598D01*
Y960219D01*
X859413Y989034D01*
X873783D01*
X874072Y988338D01*
X876075Y985727D01*
X878686Y983723D01*
X881727Y982463D01*
X884990Y982034D01*
X888253Y982463D01*
X891294Y983723D01*
X893905Y985727D01*
X895909Y988338D01*
X897169Y991378D01*
X897598Y994642D01*
X897169Y997905D01*
X895909Y1000946D01*
X893905Y1003557D01*
X891294Y1005560D01*
X888568Y1006690D01*
X888567Y1006692D01*
Y1007992D01*
X888568Y1007993D01*
X891294Y1009123D01*
X893905Y1011127D01*
X895909Y1013738D01*
X897169Y1016778D01*
X897598Y1020042D01*
X897169Y1023305D01*
X895909Y1026346D01*
X893905Y1028957D01*
X891294Y1030960D01*
X889695Y1031623D01*
X889948Y1032893D01*
X894990D01*
X895966Y1033087D01*
X896793Y1033639D01*
X897345Y1034466D01*
X897539Y1035442D01*
Y1055442D01*
X897345Y1056417D01*
X896793Y1057244D01*
X895966Y1057797D01*
X894990Y1057991D01*
D02*
G37*
G36*
X901030Y974137D02*
X900954Y973615D01*
X900962Y973655D01*
X901030Y974137D01*
D02*
G37*
G36*
X1236990Y858941D02*
X1233988Y858546D01*
X1231191Y857387D01*
X1228789Y855544D01*
X1226945Y853141D01*
X1225786Y850344D01*
X1225391Y847342D01*
X1225786Y844340D01*
X1226945Y841542D01*
X1228789Y839140D01*
X1231191Y837296D01*
X1233988Y836138D01*
X1236990Y835742D01*
X1239993Y836138D01*
X1242790Y837296D01*
X1245192Y839140D01*
X1247036Y841542D01*
X1248194Y844340D01*
X1248590Y847342D01*
X1248194Y850344D01*
X1247036Y853141D01*
X1245192Y855544D01*
X1242790Y857387D01*
X1239993Y858546D01*
X1236990Y858941D01*
D02*
G37*
G36*
X1376030Y836137D02*
X1375954Y835615D01*
X1375962Y835655D01*
X1376030Y836137D01*
D02*
G37*
G36*
X831240Y857591D02*
X818740D01*
X817765Y857397D01*
X816938Y856844D01*
X816385Y856017D01*
X816191Y855042D01*
Y845042D01*
X816385Y844066D01*
X816938Y843239D01*
X817765Y842687D01*
X818740Y842493D01*
X819383D01*
Y812449D01*
X819339Y812383D01*
X818873Y810042D01*
X819339Y807701D01*
X820665Y805716D01*
X822649Y804390D01*
X824990Y803924D01*
X827331Y804390D01*
X829316Y805716D01*
X830642Y807701D01*
X831108Y810042D01*
X830642Y812383D01*
X830598Y812449D01*
Y842493D01*
X831240D01*
X832216Y842687D01*
X833043Y843239D01*
X833595Y844066D01*
X833789Y845042D01*
Y855042D01*
X833595Y856017D01*
X833043Y856844D01*
X832216Y857397D01*
X831240Y857591D01*
D02*
G37*
%LPD*%
G36*
X872441Y1035442D02*
X872635Y1034466D01*
X873188Y1033639D01*
X874015Y1033087D01*
X874990Y1032893D01*
X880033D01*
X880285Y1031623D01*
X878686Y1030960D01*
X876075Y1028957D01*
X874072Y1026346D01*
X872812Y1023305D01*
X872383Y1020042D01*
X872812Y1016778D01*
X874072Y1013738D01*
X876075Y1011127D01*
X878686Y1009123D01*
X881413Y1007993D01*
X881414Y1007992D01*
Y1006692D01*
X881413Y1006690D01*
X878686Y1005560D01*
X876075Y1003557D01*
X874072Y1000946D01*
X873783Y1000249D01*
X865598D01*
Y1035219D01*
X870213Y1039834D01*
X872441D01*
Y1035442D01*
D02*
G37*
G36*
Y715442D02*
X872635Y714466D01*
X873188Y713639D01*
X874015Y713087D01*
X874990Y712893D01*
X880033D01*
X880285Y711623D01*
X878686Y710960D01*
X876075Y708957D01*
X874072Y706346D01*
X872812Y703305D01*
X872383Y700042D01*
X872812Y696778D01*
X874072Y693738D01*
X876075Y691126D01*
X878686Y689123D01*
X881413Y687993D01*
X881414Y687992D01*
Y686692D01*
X881413Y686690D01*
X878686Y685560D01*
X876075Y683557D01*
X874072Y680946D01*
X873783Y680249D01*
X868513D01*
X868498Y680265D01*
Y719834D01*
X872441D01*
Y715442D01*
D02*
G37*
%LPC*%
G36*
X400000Y935613D02*
X394900Y935212D01*
X389926Y934018D01*
X385200Y932060D01*
X380838Y929387D01*
X376948Y926065D01*
X373626Y922175D01*
X370953Y917813D01*
X368995Y913087D01*
X367801Y908113D01*
X367399Y903013D01*
X367801Y897913D01*
X368995Y892939D01*
X370953Y888212D01*
X373626Y883851D01*
X376948Y879961D01*
X380838Y876638D01*
X385200Y873966D01*
X389926Y872008D01*
X394900Y870814D01*
X400000Y870412D01*
X405100Y870814D01*
X410074Y872008D01*
X414800Y873966D01*
X419162Y876638D01*
X423052Y879961D01*
X426374Y883851D01*
X429047Y888212D01*
X431005Y892939D01*
X432199Y897913D01*
X432601Y903013D01*
X432199Y908113D01*
X431005Y913087D01*
X429047Y917813D01*
X426374Y922175D01*
X423052Y926065D01*
X419162Y929387D01*
X414800Y932060D01*
X410074Y934018D01*
X405100Y935212D01*
X400000Y935613D01*
D02*
G37*
G36*
X566823Y761086D02*
X565881Y760766D01*
X565881Y760766D01*
X548561Y750766D01*
X547813Y750110D01*
X547373Y749218D01*
X547308Y748226D01*
X547628Y747284D01*
X552953Y738061D01*
X552115Y737106D01*
X551913Y737190D01*
X548650Y737619D01*
X545387Y737190D01*
X542346Y735930D01*
X539735Y733926D01*
X537731Y731315D01*
X536472Y728274D01*
X536042Y725011D01*
X536472Y721748D01*
X537731Y718707D01*
X539735Y716096D01*
X542346Y714093D01*
X545387Y712833D01*
X548650Y712403D01*
X551576Y712789D01*
X551577Y712787D01*
X552227Y711662D01*
X552228Y711660D01*
X550813Y709815D01*
X258639Y728422D01*
X258269Y729315D01*
X256265Y731926D01*
X253654Y733930D01*
X250613Y735190D01*
X247350Y735619D01*
X244087Y735190D01*
X243885Y735106D01*
X243047Y736061D01*
X248372Y745284D01*
X248692Y746226D01*
X248627Y747218D01*
X248187Y748110D01*
X247439Y748766D01*
X230119Y758766D01*
X230119Y758766D01*
X229177Y759086D01*
X228185Y759021D01*
X227293Y758581D01*
X226637Y757833D01*
X194137Y701541D01*
X193817Y700600D01*
X193882Y699607D01*
X194322Y698715D01*
X195070Y698059D01*
X212390Y688059D01*
X212390Y688059D01*
X213332Y687740D01*
X214325Y687805D01*
X215217Y688245D01*
X215872Y688992D01*
X221197Y698216D01*
X222443Y697968D01*
X222472Y697751D01*
X223731Y694710D01*
X225735Y692099D01*
X228346Y690096D01*
X231387Y688836D01*
X234650Y688406D01*
X237913Y688836D01*
X240954Y690096D01*
X243565Y692099D01*
X245569Y694710D01*
X246828Y697751D01*
X247258Y701014D01*
X246828Y704277D01*
X245569Y707318D01*
X243772Y709660D01*
X243773Y709662D01*
X244422Y710787D01*
X244424Y710789D01*
X247350Y710403D01*
X250613Y710833D01*
X253654Y712093D01*
X256265Y714096D01*
X257887Y716210D01*
X550061Y697603D01*
X550431Y696710D01*
X552435Y694099D01*
X555046Y692095D01*
X558087Y690836D01*
X561350Y690406D01*
X564613Y690836D01*
X567654Y692095D01*
X570265Y694099D01*
X572269Y696710D01*
X573528Y699751D01*
X573557Y699968D01*
X574803Y700216D01*
X580128Y690992D01*
X580783Y690245D01*
X581675Y689805D01*
X582668Y689740D01*
X583610Y690060D01*
X583610Y690060D01*
X600930Y700060D01*
X601678Y700715D01*
X602118Y701607D01*
X602183Y702600D01*
X601863Y703541D01*
X569363Y759833D01*
X568707Y760581D01*
X567815Y761021D01*
X566823Y761086D01*
D02*
G37*
G36*
X394250Y505130D02*
X391909Y504665D01*
X389924Y503339D01*
X388598Y501354D01*
X388132Y499013D01*
Y490763D01*
X388598Y488422D01*
X389924Y486437D01*
X419674Y456687D01*
X421659Y455361D01*
X424000Y454895D01*
X426341Y455361D01*
X428326Y456687D01*
X429652Y458672D01*
X430117Y461013D01*
X429652Y463354D01*
X428326Y465339D01*
X400368Y493297D01*
Y499013D01*
X399902Y501354D01*
X398576Y503339D01*
X396591Y504665D01*
X394250Y505130D01*
D02*
G37*
G36*
X650000Y502603D02*
X644900Y502202D01*
X639926Y501008D01*
X635200Y499050D01*
X630838Y496377D01*
X626948Y493055D01*
X623626Y489165D01*
X620953Y484803D01*
X618995Y480077D01*
X617801Y475103D01*
X617399Y470003D01*
X617801Y464903D01*
X618995Y459929D01*
X620953Y455202D01*
X623626Y450841D01*
X626948Y446951D01*
X630838Y443628D01*
X635200Y440956D01*
X639926Y438998D01*
X644900Y437804D01*
X650000Y437402D01*
X655100Y437804D01*
X660074Y438998D01*
X664800Y440956D01*
X669162Y443628D01*
X673052Y446951D01*
X676374Y450841D01*
X679047Y455202D01*
X681005Y459929D01*
X682199Y464903D01*
X682600Y470003D01*
X682199Y475103D01*
X681005Y480077D01*
X679047Y484803D01*
X676374Y489165D01*
X673052Y493055D01*
X669162Y496377D01*
X664800Y499050D01*
X660074Y501008D01*
X655100Y502202D01*
X650000Y502603D01*
D02*
G37*
G36*
X150000D02*
X144900Y502202D01*
X139926Y501008D01*
X135200Y499050D01*
X130838Y496377D01*
X126948Y493055D01*
X123626Y489165D01*
X120953Y484803D01*
X118995Y480077D01*
X117801Y475103D01*
X117400Y470003D01*
X117801Y464903D01*
X118995Y459929D01*
X120953Y455202D01*
X123626Y450841D01*
X126948Y446951D01*
X130838Y443628D01*
X135200Y440956D01*
X139926Y438998D01*
X144900Y437804D01*
X150000Y437402D01*
X155100Y437804D01*
X160074Y438998D01*
X164800Y440956D01*
X169162Y443628D01*
X173052Y446951D01*
X176374Y450841D01*
X179047Y455202D01*
X181005Y459929D01*
X182199Y464903D01*
X182600Y470003D01*
X182199Y475103D01*
X181005Y480077D01*
X179047Y484803D01*
X176374Y489165D01*
X173052Y493055D01*
X169162Y496377D01*
X164800Y499050D01*
X160074Y501008D01*
X155100Y502202D01*
X150000Y502603D01*
D02*
G37*
G36*
X424250Y445386D02*
X422031Y445094D01*
X419963Y444238D01*
X418188Y442875D01*
X416825Y441099D01*
X415969Y439032D01*
X415677Y436813D01*
X415969Y434594D01*
X416825Y432526D01*
X418188Y430751D01*
X419963Y429388D01*
X422031Y428532D01*
X424250Y428239D01*
X426469Y428532D01*
X428537Y429388D01*
X430312Y430751D01*
X431675Y432526D01*
X432531Y434594D01*
X432823Y436813D01*
X432531Y439032D01*
X431675Y441099D01*
X430312Y442875D01*
X428537Y444238D01*
X426469Y445094D01*
X424250Y445386D01*
D02*
G37*
G36*
X375750D02*
X373531Y445094D01*
X371463Y444238D01*
X369688Y442875D01*
X368325Y441099D01*
X367469Y439032D01*
X367177Y436813D01*
X367469Y434594D01*
X368325Y432526D01*
X369688Y430751D01*
X371463Y429388D01*
X373531Y428532D01*
X375750Y428239D01*
X377969Y428532D01*
X380037Y429388D01*
X381812Y430751D01*
X383175Y432526D01*
X384031Y434594D01*
X384323Y436813D01*
X384031Y439032D01*
X383175Y441099D01*
X381812Y442875D01*
X380037Y444238D01*
X377969Y445094D01*
X375750Y445386D01*
D02*
G37*
G36*
X436250Y425789D02*
X433172Y425486D01*
X430213Y424588D01*
X427485Y423130D01*
X425095Y421168D01*
X423133Y418777D01*
X421675Y416050D01*
X420777Y413091D01*
X420474Y410013D01*
X420777Y406935D01*
X421675Y403975D01*
X423133Y401248D01*
X425095Y398857D01*
X427485Y396895D01*
X430213Y395438D01*
X433172Y394540D01*
X436250Y394237D01*
X439328Y394540D01*
X442287Y395438D01*
X445015Y396895D01*
X447405Y398857D01*
X449367Y401248D01*
X450825Y403975D01*
X451723Y406935D01*
X452026Y410013D01*
X451723Y413091D01*
X450825Y416050D01*
X449367Y418777D01*
X447405Y421168D01*
X445015Y423130D01*
X442287Y424588D01*
X439328Y425486D01*
X436250Y425789D01*
D02*
G37*
G36*
X363750D02*
X360672Y425486D01*
X357713Y424588D01*
X354985Y423130D01*
X352595Y421168D01*
X350633Y418777D01*
X349175Y416050D01*
X348277Y413091D01*
X347974Y410013D01*
X348277Y406935D01*
X349175Y403975D01*
X350633Y401248D01*
X352595Y398857D01*
X354985Y396895D01*
X357713Y395438D01*
X360672Y394540D01*
X363750Y394237D01*
X366828Y394540D01*
X369787Y395438D01*
X372515Y396895D01*
X374905Y398857D01*
X376867Y401248D01*
X378325Y403975D01*
X379223Y406935D01*
X379526Y410013D01*
X379223Y413091D01*
X378325Y416050D01*
X376867Y418777D01*
X374905Y421168D01*
X372515Y423130D01*
X369787Y424588D01*
X366828Y425486D01*
X363750Y425789D01*
D02*
G37*
G36*
X1265260Y753007D02*
X1261986Y752576D01*
X1258935Y751312D01*
X1256316Y749302D01*
X1254306Y746682D01*
X1253042Y743632D01*
X1252611Y740358D01*
X1253042Y737085D01*
X1254306Y734034D01*
X1256316Y731415D01*
X1258935Y729405D01*
X1261492Y728346D01*
Y726971D01*
X1258935Y725912D01*
X1256316Y723902D01*
X1254306Y721282D01*
X1253042Y718232D01*
X1252611Y714958D01*
X1253042Y711685D01*
X1254306Y708634D01*
X1256316Y706015D01*
X1258935Y704005D01*
X1260352Y703418D01*
X1260099Y702148D01*
X1255260D01*
X1254268Y701951D01*
X1253428Y701389D01*
X1252867Y700549D01*
X1252670Y699558D01*
Y679558D01*
X1252867Y678567D01*
X1253428Y677727D01*
X1254268Y677166D01*
X1255260Y676969D01*
X1275260D01*
X1276251Y677166D01*
X1277091Y677727D01*
X1277652Y678567D01*
X1277849Y679558D01*
Y699558D01*
X1277652Y700549D01*
X1277091Y701389D01*
X1276251Y701951D01*
X1275260Y702148D01*
X1270420D01*
X1270168Y703418D01*
X1271584Y704005D01*
X1274203Y706015D01*
X1276213Y708634D01*
X1277477Y711685D01*
X1277908Y714958D01*
X1277477Y718232D01*
X1276213Y721282D01*
X1274203Y723902D01*
X1271584Y725912D01*
X1269027Y726971D01*
Y728346D01*
X1271584Y729405D01*
X1274203Y731415D01*
X1276213Y734034D01*
X1277477Y737085D01*
X1277908Y740358D01*
X1277477Y743632D01*
X1276213Y746682D01*
X1274203Y749302D01*
X1271584Y751312D01*
X1268533Y752576D01*
X1265260Y753007D01*
D02*
G37*
G36*
X1310260Y752948D02*
X1290260D01*
X1289268Y752751D01*
X1288428Y752189D01*
X1287867Y751349D01*
X1287670Y750358D01*
Y730358D01*
X1287867Y729367D01*
X1288428Y728527D01*
X1289268Y727966D01*
X1290260Y727768D01*
X1295099D01*
X1295352Y726498D01*
X1293936Y725912D01*
X1291316Y723902D01*
X1289306Y721282D01*
X1288042Y718232D01*
X1287611Y714958D01*
X1288042Y711685D01*
X1289306Y708634D01*
X1291316Y706015D01*
X1293936Y704005D01*
X1296492Y702946D01*
Y701571D01*
X1293936Y700512D01*
X1291316Y698502D01*
X1289306Y695882D01*
X1288042Y692832D01*
X1287611Y689558D01*
X1288042Y686285D01*
X1289306Y683234D01*
X1291316Y680615D01*
X1293936Y678605D01*
X1296986Y677341D01*
X1300260Y676910D01*
X1303533Y677341D01*
X1306584Y678605D01*
X1309203Y680615D01*
X1311213Y683234D01*
X1312477Y686285D01*
X1312908Y689558D01*
X1312477Y692832D01*
X1311213Y695882D01*
X1309203Y698502D01*
X1306584Y700512D01*
X1304027Y701571D01*
Y702946D01*
X1306584Y704005D01*
X1309203Y706015D01*
X1310230Y707353D01*
X1323654D01*
Y600108D01*
X1303810Y580263D01*
X867740D01*
X867490Y580589D01*
X865079Y582438D01*
X862272Y583601D01*
X859260Y583998D01*
X856247Y583601D01*
X853440Y582438D01*
X851029Y580589D01*
X849180Y578178D01*
X848017Y575371D01*
X847620Y572358D01*
X848017Y569346D01*
X849180Y566539D01*
X851029Y564128D01*
X853440Y562278D01*
X856247Y561115D01*
X859260Y560719D01*
X862272Y561115D01*
X865079Y562278D01*
X867490Y564128D01*
X868200Y565053D01*
X1306960D01*
X1308928Y565312D01*
X1310002Y565757D01*
X1310762Y566072D01*
X1312337Y567281D01*
X1336637Y591581D01*
X1337846Y593156D01*
X1338605Y594990D01*
X1338865Y596958D01*
Y714958D01*
X1338605Y716927D01*
X1337846Y718761D01*
X1336637Y720336D01*
X1335062Y721544D01*
X1333228Y722304D01*
X1331260Y722563D01*
X1310230D01*
X1309203Y723902D01*
X1306584Y725912D01*
X1305168Y726498D01*
X1305420Y727768D01*
X1310260D01*
X1311251Y727966D01*
X1312091Y728527D01*
X1312652Y729367D01*
X1312849Y730358D01*
Y750358D01*
X1312652Y751349D01*
X1312091Y752189D01*
X1311251Y752751D01*
X1310260Y752948D01*
D02*
G37*
G36*
X859260Y558598D02*
X856247Y558201D01*
X853440Y557038D01*
X851029Y555189D01*
X849180Y552778D01*
X848017Y549971D01*
X847620Y546958D01*
X848017Y543946D01*
X849180Y541138D01*
X851029Y538728D01*
X853440Y536878D01*
X856247Y535715D01*
X859260Y535319D01*
X862272Y535715D01*
X865079Y536878D01*
X867490Y538728D01*
X868200Y539653D01*
X1304810D01*
X1324655Y519808D01*
Y437963D01*
X1310230D01*
X1309203Y439302D01*
X1306584Y441312D01*
X1303533Y442575D01*
X1300260Y443007D01*
X1296986Y442575D01*
X1293936Y441312D01*
X1291316Y439302D01*
X1289306Y436682D01*
X1288042Y433632D01*
X1287611Y430358D01*
X1288042Y427085D01*
X1289306Y424034D01*
X1291316Y421415D01*
X1293936Y419405D01*
X1296492Y418346D01*
Y416971D01*
X1293936Y415912D01*
X1291316Y413902D01*
X1289306Y411282D01*
X1288042Y408232D01*
X1287611Y404958D01*
X1288042Y401685D01*
X1289306Y398634D01*
X1291316Y396015D01*
X1293936Y394005D01*
X1295352Y393418D01*
X1295099Y392148D01*
X1290260D01*
X1289268Y391951D01*
X1288428Y391390D01*
X1287867Y390549D01*
X1287670Y389558D01*
Y369558D01*
X1287867Y368567D01*
X1288428Y367727D01*
X1289268Y367166D01*
X1290260Y366968D01*
X1310260D01*
X1311251Y367166D01*
X1312091Y367727D01*
X1312652Y368567D01*
X1312849Y369558D01*
Y389558D01*
X1312652Y390549D01*
X1312091Y391390D01*
X1311251Y391951D01*
X1310260Y392148D01*
X1305420D01*
X1305168Y393418D01*
X1306584Y394005D01*
X1309203Y396015D01*
X1311213Y398634D01*
X1312477Y401685D01*
X1312908Y404958D01*
X1312477Y408232D01*
X1311213Y411282D01*
X1309203Y413902D01*
X1306584Y415912D01*
X1304027Y416971D01*
Y418346D01*
X1306584Y419405D01*
X1309203Y421415D01*
X1310230Y422753D01*
X1330660D01*
X1332628Y423012D01*
X1333702Y423457D01*
X1334462Y423772D01*
X1336037Y424981D01*
X1337637Y426581D01*
X1338846Y428156D01*
X1339606Y429990D01*
X1339865Y431958D01*
Y522958D01*
X1339606Y524927D01*
X1339160Y526001D01*
X1338846Y526761D01*
X1337637Y528336D01*
X1313337Y552636D01*
X1311762Y553844D01*
X1309928Y554604D01*
X1307960Y554863D01*
X867740D01*
X867490Y555189D01*
X865079Y557038D01*
X862272Y558201D01*
X859260Y558598D01*
D02*
G37*
G36*
X1275260Y442948D02*
X1255260D01*
X1254268Y442751D01*
X1253428Y442189D01*
X1252867Y441349D01*
X1252670Y440358D01*
Y420358D01*
X1252867Y419367D01*
X1253428Y418527D01*
X1254268Y417966D01*
X1255260Y417769D01*
X1260099D01*
X1260352Y416498D01*
X1258935Y415912D01*
X1256316Y413902D01*
X1254306Y411282D01*
X1253042Y408232D01*
X1252611Y404958D01*
X1253042Y401685D01*
X1254306Y398634D01*
X1256316Y396015D01*
X1258935Y394005D01*
X1261492Y392946D01*
Y391571D01*
X1258935Y390512D01*
X1256316Y388502D01*
X1254306Y385882D01*
X1253042Y382832D01*
X1252611Y379558D01*
X1253042Y376285D01*
X1254306Y373234D01*
X1256316Y370615D01*
X1258935Y368605D01*
X1261986Y367341D01*
X1265260Y366910D01*
X1268533Y367341D01*
X1271584Y368605D01*
X1274203Y370615D01*
X1276213Y373234D01*
X1277477Y376285D01*
X1277908Y379558D01*
X1277477Y382832D01*
X1276213Y385882D01*
X1274203Y388502D01*
X1271584Y390512D01*
X1269027Y391571D01*
Y392946D01*
X1271584Y394005D01*
X1274203Y396015D01*
X1276213Y398634D01*
X1277477Y401685D01*
X1277908Y404958D01*
X1277477Y408232D01*
X1276213Y411282D01*
X1274203Y413902D01*
X1271584Y415912D01*
X1270168Y416498D01*
X1270420Y417769D01*
X1275260D01*
X1276251Y417966D01*
X1277091Y418527D01*
X1277652Y419367D01*
X1277849Y420358D01*
Y440358D01*
X1277652Y441349D01*
X1277091Y442189D01*
X1276251Y442751D01*
X1275260Y442948D01*
D02*
G37*
G36*
X954141Y472467D02*
X951128Y472070D01*
X948321Y470908D01*
X945910Y469058D01*
X944061Y466647D01*
X942898Y463840D01*
X942501Y460827D01*
X942898Y457815D01*
X944061Y455008D01*
X945910Y452597D01*
X948321Y450747D01*
X951128Y449585D01*
X954141Y449188D01*
X957153Y449585D01*
X959961Y450747D01*
X962371Y452597D01*
X964221Y455008D01*
X965384Y457815D01*
X965780Y460827D01*
X965384Y463840D01*
X964221Y466647D01*
X962371Y469058D01*
X959961Y470908D01*
X957153Y472070D01*
X954141Y472467D01*
D02*
G37*
G36*
X928741D02*
X925728Y472070D01*
X922921Y470908D01*
X920510Y469058D01*
X918661Y466647D01*
X917498Y463840D01*
X917101Y460827D01*
X917498Y457815D01*
X918661Y455008D01*
X920510Y452597D01*
X922921Y450747D01*
X925728Y449585D01*
X928741Y449188D01*
X931753Y449585D01*
X934561Y450747D01*
X936971Y452597D01*
X938821Y455008D01*
X939984Y457815D01*
X940380Y460827D01*
X939984Y463840D01*
X938821Y466647D01*
X936971Y469058D01*
X934561Y470908D01*
X931753Y472070D01*
X928741Y472467D01*
D02*
G37*
G36*
X979541D02*
X976528Y472070D01*
X973721Y470908D01*
X971310Y469058D01*
X969461Y466647D01*
X968298Y463840D01*
X967901Y460827D01*
X968298Y457815D01*
X969461Y455008D01*
X971310Y452597D01*
X973721Y450747D01*
X976402Y449637D01*
Y435955D01*
X976793Y433988D01*
X977907Y432321D01*
X1015388Y394841D01*
X1014902Y393667D01*
X1010791D01*
X1009800Y393470D01*
X1008960Y392909D01*
X1008769Y392624D01*
X1007312D01*
X1007122Y392909D01*
X1006282Y393470D01*
X1005291Y393667D01*
X996791D01*
X995800Y393470D01*
X994960Y392909D01*
X994398Y392068D01*
X994201Y391077D01*
Y382577D01*
X994398Y381586D01*
X994960Y380746D01*
X995800Y380185D01*
X995902Y380164D01*
Y375690D01*
X995324Y375575D01*
X993657Y374461D01*
X992543Y372794D01*
X992152Y370827D01*
Y365827D01*
X992543Y363861D01*
X993657Y362194D01*
X995278Y361111D01*
X995324Y360811D01*
Y360094D01*
X995278Y359794D01*
X993657Y358711D01*
X992543Y357044D01*
X992152Y355077D01*
Y350077D01*
X992543Y348111D01*
X993657Y346444D01*
X995278Y345361D01*
X995324Y345061D01*
Y344344D01*
X995278Y344044D01*
X993657Y342961D01*
X992543Y341294D01*
X992152Y339327D01*
Y334327D01*
X992543Y332361D01*
X993657Y330694D01*
X995324Y329580D01*
X997291Y329189D01*
X1005291D01*
X1007257Y329580D01*
X1008924Y330694D01*
X1010038Y332361D01*
X1010430Y334327D01*
Y339327D01*
X1010038Y341294D01*
X1008924Y342961D01*
X1007303Y344044D01*
X1007257Y344344D01*
Y345061D01*
X1007303Y345361D01*
X1008924Y346444D01*
X1010038Y348111D01*
X1010430Y350077D01*
Y355077D01*
X1010038Y357044D01*
X1008924Y358711D01*
X1007303Y359794D01*
X1007257Y360094D01*
Y360811D01*
X1007303Y361111D01*
X1008924Y362194D01*
X1010038Y363861D01*
X1010430Y365827D01*
Y370827D01*
X1010038Y372794D01*
X1008924Y374461D01*
X1007257Y375575D01*
X1006180Y375789D01*
Y380164D01*
X1006282Y380185D01*
X1007122Y380746D01*
X1007312Y381031D01*
X1008769D01*
X1008960Y380746D01*
X1009800Y380185D01*
X1010791Y379988D01*
X1019291D01*
X1019902Y379486D01*
Y334827D01*
X1020293Y332861D01*
X1021407Y331194D01*
X1103507Y249094D01*
X1105174Y247980D01*
X1107141Y247589D01*
X1119179D01*
X1119461Y246908D01*
X1121310Y244497D01*
X1123721Y242647D01*
X1126528Y241485D01*
X1129541Y241088D01*
X1132553Y241485D01*
X1135361Y242647D01*
X1137771Y244497D01*
X1139621Y246908D01*
X1140784Y249715D01*
X1141180Y252727D01*
X1140784Y255740D01*
X1139621Y258547D01*
X1137771Y260958D01*
X1135361Y262808D01*
X1132553Y263970D01*
X1129541Y264367D01*
X1126528Y263970D01*
X1123721Y262808D01*
X1121310Y260958D01*
X1119461Y258547D01*
X1119179Y257866D01*
X1109269D01*
X1030180Y336956D01*
Y350262D01*
X1031353Y350748D01*
X1033157Y348944D01*
X1034824Y347830D01*
X1036791Y347439D01*
X1039993D01*
X1040657Y346444D01*
X1042278Y345361D01*
X1042324Y345061D01*
Y344344D01*
X1042278Y344044D01*
X1040657Y342961D01*
X1039543Y341294D01*
X1039152Y339327D01*
Y334327D01*
X1039543Y332361D01*
X1040657Y330694D01*
X1042324Y329580D01*
X1044291Y329189D01*
X1052291D01*
X1054257Y329580D01*
X1055925Y330694D01*
X1056589Y331689D01*
X1059412D01*
X1116607Y274494D01*
X1118274Y273380D01*
X1119083Y273219D01*
X1119461Y272308D01*
X1121310Y269897D01*
X1123721Y268047D01*
X1126528Y266884D01*
X1129541Y266488D01*
X1132553Y266884D01*
X1135361Y268047D01*
X1137771Y269897D01*
X1139621Y272308D01*
X1140784Y275115D01*
X1141180Y278127D01*
X1140784Y281140D01*
X1139621Y283947D01*
X1137771Y286358D01*
X1135361Y288208D01*
X1132553Y289370D01*
X1129541Y289767D01*
X1126528Y289370D01*
X1123721Y288208D01*
X1121310Y286358D01*
X1121014Y285972D01*
X1119747Y285889D01*
X1065174Y340461D01*
X1063507Y341575D01*
X1061541Y341966D01*
X1056589D01*
X1055925Y342961D01*
X1054304Y344044D01*
X1054257Y344344D01*
Y345061D01*
X1054304Y345361D01*
X1055925Y346444D01*
X1056589Y347439D01*
X1061662D01*
X1109207Y299894D01*
X1110874Y298780D01*
X1112841Y298389D01*
X1119179D01*
X1119461Y297708D01*
X1121310Y295297D01*
X1123721Y293447D01*
X1126528Y292285D01*
X1129541Y291888D01*
X1132553Y292285D01*
X1135361Y293447D01*
X1137771Y295297D01*
X1139621Y297708D01*
X1140784Y300515D01*
X1141180Y303527D01*
X1140784Y306540D01*
X1139621Y309347D01*
X1137771Y311758D01*
X1135361Y313608D01*
X1132553Y314770D01*
X1129541Y315167D01*
X1126528Y314770D01*
X1123721Y313608D01*
X1121310Y311758D01*
X1119461Y309347D01*
X1119179Y308666D01*
X1114969D01*
X1067424Y356211D01*
X1065757Y357325D01*
X1063791Y357716D01*
X1056589D01*
X1055925Y358711D01*
X1054304Y359794D01*
X1054257Y360094D01*
Y360811D01*
X1054304Y361111D01*
X1055925Y362194D01*
X1056589Y363189D01*
X1075412D01*
X1113307Y325294D01*
X1114974Y324180D01*
X1116941Y323789D01*
X1119179D01*
X1119461Y323108D01*
X1121310Y320697D01*
X1123721Y318847D01*
X1126528Y317684D01*
X1129541Y317288D01*
X1132553Y317684D01*
X1135361Y318847D01*
X1137771Y320697D01*
X1139621Y323108D01*
X1140784Y325915D01*
X1141180Y328927D01*
X1140784Y331940D01*
X1139621Y334747D01*
X1137771Y337158D01*
X1135361Y339008D01*
X1132553Y340170D01*
X1129541Y340567D01*
X1126528Y340170D01*
X1123721Y339008D01*
X1121310Y337158D01*
X1119775Y335157D01*
X1118508Y334906D01*
X1118175Y334961D01*
X1081174Y371961D01*
X1079507Y373075D01*
X1077541Y373466D01*
X1056589D01*
X1055925Y374461D01*
X1054257Y375575D01*
X1053430Y375740D01*
Y392077D01*
X1053038Y394044D01*
X1051925Y395711D01*
X1010080Y437556D01*
Y449365D01*
X1010432Y449435D01*
X1011272Y449996D01*
X1015772Y454496D01*
X1016333Y455336D01*
X1016531Y456327D01*
Y465327D01*
X1016333Y466319D01*
X1015772Y467159D01*
X1011272Y471659D01*
X1010432Y472220D01*
X1009441Y472417D01*
X1000441D01*
X999450Y472220D01*
X998610Y471659D01*
X994110Y467159D01*
X993548Y466319D01*
X993351Y465327D01*
Y456327D01*
X993548Y455336D01*
X994110Y454496D01*
X998610Y449996D01*
X999450Y449435D01*
X999802Y449365D01*
Y435427D01*
X1000193Y433461D01*
X1001307Y431794D01*
X1043152Y389949D01*
Y375740D01*
X1042324Y375575D01*
X1040657Y374461D01*
X1039543Y372794D01*
X1039152Y370827D01*
Y365827D01*
X1039543Y363861D01*
X1040657Y362194D01*
X1042278Y361111D01*
X1042324Y360811D01*
Y360094D01*
X1042278Y359794D01*
X1040657Y358711D01*
X1040114Y357898D01*
X1038817Y357819D01*
X1037720Y358916D01*
Y389241D01*
X1037328Y391207D01*
X1036215Y392874D01*
X1031088Y398001D01*
X1029420Y399115D01*
X1027454Y399506D01*
X1025257D01*
X986680Y438084D01*
Y451759D01*
X987771Y452597D01*
X989621Y455008D01*
X990784Y457815D01*
X991180Y460827D01*
X990784Y463840D01*
X989621Y466647D01*
X987771Y469058D01*
X985361Y470908D01*
X982553Y472070D01*
X979541Y472467D01*
D02*
G37*
G36*
X310000Y342601D02*
X304900Y342199D01*
X299926Y341005D01*
X295200Y339047D01*
X290838Y336374D01*
X286948Y333052D01*
X283626Y329162D01*
X280953Y324800D01*
X278995Y320074D01*
X277801Y315100D01*
X277400Y310000D01*
X277801Y304900D01*
X278995Y299926D01*
X280953Y295200D01*
X283626Y290838D01*
X286948Y286948D01*
X290838Y283626D01*
X295200Y280953D01*
X299926Y278995D01*
X304900Y277801D01*
X310000Y277400D01*
X315100Y277801D01*
X320074Y278995D01*
X324800Y280953D01*
X329162Y283626D01*
X333052Y286948D01*
X336374Y290838D01*
X339047Y295200D01*
X341005Y299926D01*
X342199Y304900D01*
X342601Y310000D01*
X342199Y315100D01*
X341005Y320074D01*
X339047Y324800D01*
X336374Y329162D01*
X333052Y333052D01*
X329162Y336374D01*
X324800Y339047D01*
X320074Y341005D01*
X315100Y342199D01*
X310000Y342601D01*
D02*
G37*
G36*
X90000D02*
X84900Y342199D01*
X79926Y341005D01*
X75200Y339047D01*
X70838Y336374D01*
X66948Y333052D01*
X63626Y329162D01*
X60953Y324800D01*
X58995Y320074D01*
X57801Y315100D01*
X57400Y310000D01*
X57801Y304900D01*
X58995Y299926D01*
X60953Y295200D01*
X63626Y290838D01*
X66948Y286948D01*
X70838Y283626D01*
X75200Y280953D01*
X79926Y278995D01*
X84900Y277801D01*
X90000Y277400D01*
X95100Y277801D01*
X100074Y278995D01*
X104800Y280953D01*
X109162Y283626D01*
X113052Y286948D01*
X116374Y290838D01*
X119047Y295200D01*
X121005Y299926D01*
X122199Y304900D01*
X122600Y310000D01*
X122199Y315100D01*
X121005Y320074D01*
X119047Y324800D01*
X116374Y329162D01*
X113052Y333052D01*
X109162Y336374D01*
X104800Y339047D01*
X100074Y341005D01*
X95100Y342199D01*
X90000Y342601D01*
D02*
G37*
G36*
X212700Y240408D02*
X209437Y239978D01*
X206396Y238719D01*
X203785Y236715D01*
X201781Y234104D01*
X200652Y231377D01*
X200650Y231377D01*
X199350D01*
X199348Y231377D01*
X198219Y234104D01*
X196215Y236715D01*
X193604Y238719D01*
X190563Y239978D01*
X187300Y240408D01*
X184037Y239978D01*
X180996Y238719D01*
X178385Y236715D01*
X176381Y234104D01*
X175122Y231063D01*
X174692Y227800D01*
X175122Y224537D01*
X176381Y221496D01*
X178385Y218885D01*
X178559Y218752D01*
X178150Y217549D01*
X167500D01*
X166525Y217355D01*
X165698Y216802D01*
X165145Y215975D01*
X164951Y215000D01*
Y195000D01*
X165145Y194025D01*
X165698Y193198D01*
X166525Y192645D01*
X167500Y192451D01*
X232500D01*
X233475Y192645D01*
X234302Y193198D01*
X234855Y194025D01*
X235049Y195000D01*
Y215000D01*
X234855Y215975D01*
X234302Y216802D01*
X233475Y217355D01*
X232500Y217549D01*
X221850D01*
X221441Y218752D01*
X221615Y218885D01*
X223619Y221496D01*
X224878Y224537D01*
X225308Y227800D01*
X224878Y231063D01*
X223619Y234104D01*
X221615Y236715D01*
X219004Y238719D01*
X215963Y239978D01*
X212700Y240408D01*
D02*
G37*
G36*
X260000Y272609D02*
X255589Y272174D01*
X251348Y270888D01*
X247439Y268799D01*
X244013Y265987D01*
X241201Y262561D01*
X239112Y258652D01*
X237826Y254411D01*
X237391Y250000D01*
X237826Y245589D01*
X239112Y241348D01*
X241201Y237439D01*
X244013Y234013D01*
X247439Y231201D01*
X251348Y229112D01*
X255589Y227826D01*
X260000Y227391D01*
X264411Y227826D01*
X268652Y229112D01*
X272561Y231201D01*
X275987Y234013D01*
X278799Y237439D01*
X280888Y241348D01*
X282174Y245589D01*
X282609Y250000D01*
X282174Y254411D01*
X280888Y258652D01*
X278799Y262561D01*
X275987Y265987D01*
X272561Y268799D01*
X268652Y270888D01*
X264411Y272174D01*
X260000Y272609D01*
D02*
G37*
G36*
X140000D02*
X135589Y272174D01*
X131348Y270888D01*
X127439Y268799D01*
X124013Y265987D01*
X121201Y262561D01*
X119112Y258652D01*
X117825Y254411D01*
X117391Y250000D01*
X117825Y245589D01*
X119112Y241348D01*
X121201Y237439D01*
X124013Y234013D01*
X127439Y231201D01*
X131348Y229112D01*
X135589Y227826D01*
X140000Y227391D01*
X144411Y227826D01*
X148652Y229112D01*
X152561Y231201D01*
X155987Y234013D01*
X158799Y237439D01*
X160888Y241348D01*
X162174Y245589D01*
X162609Y250000D01*
X162174Y254411D01*
X160888Y258652D01*
X158799Y262561D01*
X155987Y265987D01*
X152561Y268799D01*
X148652Y270888D01*
X144411Y272174D01*
X140000Y272609D01*
D02*
G37*
G36*
X260000Y172609D02*
X255589Y172174D01*
X251348Y170888D01*
X247439Y168799D01*
X244013Y165987D01*
X241201Y162561D01*
X239112Y158652D01*
X237826Y154411D01*
X237391Y150000D01*
X237826Y145589D01*
X239112Y141348D01*
X241201Y137439D01*
X244013Y134013D01*
X247439Y131201D01*
X251348Y129112D01*
X255589Y127826D01*
X260000Y127391D01*
X264411Y127826D01*
X268652Y129112D01*
X272561Y131201D01*
X275987Y134013D01*
X278799Y137439D01*
X280888Y141348D01*
X282174Y145589D01*
X282609Y150000D01*
X282174Y154411D01*
X280888Y158652D01*
X278799Y162561D01*
X275987Y165987D01*
X272561Y168799D01*
X268652Y170888D01*
X264411Y172174D01*
X260000Y172609D01*
D02*
G37*
G36*
X140000D02*
X135589Y172174D01*
X131348Y170888D01*
X127439Y168799D01*
X124013Y165987D01*
X121201Y162561D01*
X119112Y158652D01*
X117825Y154411D01*
X117391Y150000D01*
X117825Y145589D01*
X119112Y141348D01*
X121201Y137439D01*
X124013Y134013D01*
X127439Y131201D01*
X131348Y129112D01*
X135589Y127826D01*
X140000Y127391D01*
X144411Y127826D01*
X148652Y129112D01*
X152561Y131201D01*
X155987Y134013D01*
X158799Y137439D01*
X160888Y141348D01*
X162174Y145589D01*
X162609Y150000D01*
X162174Y154411D01*
X160888Y158652D01*
X158799Y162561D01*
X155987Y165987D01*
X152561Y168799D01*
X148652Y170888D01*
X144411Y172174D01*
X140000Y172609D01*
D02*
G37*
G36*
X310000Y122600D02*
X304900Y122199D01*
X299926Y121005D01*
X295200Y119047D01*
X290838Y116374D01*
X286948Y113052D01*
X283626Y109162D01*
X280953Y104800D01*
X278995Y100074D01*
X277801Y95100D01*
X277400Y90000D01*
X277801Y84900D01*
X278995Y79926D01*
X280953Y75200D01*
X283626Y70838D01*
X286948Y66948D01*
X290838Y63626D01*
X295200Y60953D01*
X299926Y58995D01*
X304900Y57801D01*
X310000Y57400D01*
X315100Y57801D01*
X320074Y58995D01*
X324800Y60953D01*
X329162Y63626D01*
X333052Y66948D01*
X336374Y70838D01*
X339047Y75200D01*
X341005Y79926D01*
X342199Y84900D01*
X342601Y90000D01*
X342199Y95100D01*
X341005Y100074D01*
X339047Y104800D01*
X336374Y109162D01*
X333052Y113052D01*
X329162Y116374D01*
X324800Y119047D01*
X320074Y121005D01*
X315100Y122199D01*
X310000Y122600D01*
D02*
G37*
G36*
X90000D02*
X84900Y122199D01*
X79926Y121005D01*
X75200Y119047D01*
X70838Y116374D01*
X66948Y113052D01*
X63626Y109162D01*
X60953Y104800D01*
X58995Y100074D01*
X57801Y95100D01*
X57400Y90000D01*
X57801Y84900D01*
X58995Y79926D01*
X60953Y75200D01*
X63626Y70838D01*
X66948Y66948D01*
X70838Y63626D01*
X75200Y60953D01*
X79926Y58995D01*
X84900Y57801D01*
X90000Y57400D01*
X95100Y57801D01*
X100074Y58995D01*
X104800Y60953D01*
X109162Y63626D01*
X113052Y66948D01*
X116374Y70838D01*
X119047Y75200D01*
X121005Y79926D01*
X122199Y84900D01*
X122600Y90000D01*
X122199Y95100D01*
X121005Y100074D01*
X119047Y104800D01*
X116374Y109162D01*
X113052Y113052D01*
X109162Y116374D01*
X104800Y119047D01*
X100074Y121005D01*
X95100Y122199D01*
X90000Y122600D01*
D02*
G37*
G36*
X425750Y192556D02*
X424053Y192333D01*
X422472Y191678D01*
X421114Y190636D01*
X420072Y189278D01*
X419417Y187697D01*
X419194Y186000D01*
X419417Y184303D01*
X420072Y182722D01*
X421114Y181364D01*
X422472Y180322D01*
X422991Y180107D01*
X448924Y154174D01*
X450909Y152848D01*
X453250Y152382D01*
X569534D01*
X570053Y152167D01*
X571750Y151944D01*
X573447Y152167D01*
X575028Y152822D01*
X576386Y153864D01*
X577428Y155222D01*
X578083Y156803D01*
X578306Y158500D01*
X578083Y160197D01*
X577428Y161778D01*
X576386Y163136D01*
X575028Y164178D01*
X573447Y164833D01*
X571750Y165056D01*
X570053Y164833D01*
X569534Y164618D01*
X455784D01*
X431643Y188759D01*
X431428Y189278D01*
X430386Y190636D01*
X429028Y191678D01*
X427447Y192333D01*
X425750Y192556D01*
D02*
G37*
G36*
X807650Y160340D02*
X804420D01*
Y150020D01*
X814740D01*
Y153250D01*
X814543Y154241D01*
X813981Y155081D01*
X809481Y159581D01*
X808641Y160143D01*
X807650Y160340D01*
D02*
G37*
G36*
X801880D02*
X798650D01*
X797659Y160143D01*
X796819Y159581D01*
X792319Y155081D01*
X791757Y154241D01*
X791560Y153250D01*
Y150020D01*
X801880D01*
Y160340D01*
D02*
G37*
G36*
X814740Y147480D02*
X804420D01*
Y137160D01*
X807650D01*
X808641Y137357D01*
X809481Y137919D01*
X813981Y142419D01*
X814543Y143259D01*
X814740Y144250D01*
Y147480D01*
D02*
G37*
G36*
X801880D02*
X791560D01*
Y144250D01*
X791757Y143259D01*
X792319Y142419D01*
X796819Y137919D01*
X797659Y137357D01*
X798650Y137160D01*
X801880D01*
Y147480D01*
D02*
G37*
G36*
X741000Y243868D02*
X633750D01*
X631409Y243402D01*
X629424Y242076D01*
X628098Y240091D01*
X627632Y237750D01*
Y226610D01*
X627337Y226413D01*
X626674Y225421D01*
X626441Y224250D01*
Y215750D01*
X626674Y214580D01*
X627337Y213587D01*
X628329Y212924D01*
X629500Y212691D01*
X638000D01*
X639170Y212924D01*
X640163Y213587D01*
X640444D01*
X641632Y212439D01*
Y207966D01*
X641417Y207447D01*
X641194Y205750D01*
X641417Y204053D01*
X642072Y202472D01*
X643114Y201114D01*
X644472Y200072D01*
X646053Y199417D01*
X647750Y199194D01*
X649447Y199417D01*
X651028Y200072D01*
X652386Y201114D01*
X653428Y202472D01*
X654083Y204053D01*
X654306Y205750D01*
X654083Y207447D01*
X653867Y207966D01*
Y213390D01*
X654163Y213587D01*
X654826Y214580D01*
X654921Y215058D01*
X656191Y215000D01*
X656424Y213829D01*
X657087Y212837D01*
Y211663D01*
X656424Y210671D01*
X656191Y209500D01*
Y201000D01*
X656424Y199830D01*
X657087Y198837D01*
X657382Y198640D01*
Y196216D01*
X657167Y195697D01*
X656944Y194000D01*
X657167Y192303D01*
X657822Y190722D01*
X658864Y189364D01*
X660222Y188322D01*
X661803Y187667D01*
X663500Y187444D01*
X665197Y187667D01*
X666778Y188322D01*
X668136Y189364D01*
X669178Y190722D01*
X669833Y192303D01*
X670056Y194000D01*
X669833Y195697D01*
X669617Y196216D01*
Y198640D01*
X669913Y198837D01*
X670576Y199830D01*
X670809Y201000D01*
Y202183D01*
X672079Y202309D01*
X672174Y201829D01*
X672837Y200837D01*
X673132Y200640D01*
Y196216D01*
X672917Y195697D01*
X672694Y194000D01*
X672917Y192303D01*
X673572Y190722D01*
X674614Y189364D01*
X675972Y188322D01*
X677553Y187667D01*
X679250Y187444D01*
X680947Y187667D01*
X682528Y188322D01*
X683886Y189364D01*
X684928Y190722D01*
X685583Y192303D01*
X685806Y194000D01*
X685583Y195697D01*
X685368Y196216D01*
Y199709D01*
X686250Y200243D01*
X687132Y199709D01*
Y157500D01*
X687598Y155159D01*
X688924Y153174D01*
X697674Y144424D01*
X699659Y143098D01*
X702000Y142633D01*
X716518D01*
X718391Y140191D01*
X720898Y138268D01*
X723817Y137059D01*
X726950Y136646D01*
X730083Y137059D01*
X733002Y138268D01*
X735508Y140191D01*
X737432Y142698D01*
X738641Y145617D01*
X738934Y147845D01*
X739009Y148416D01*
X740290D01*
X740366Y147845D01*
X740659Y145617D01*
X741868Y142698D01*
X743792Y140191D01*
X746298Y138268D01*
X749217Y137059D01*
X752350Y136646D01*
X755483Y137059D01*
X758402Y138268D01*
X760909Y140191D01*
X762832Y142698D01*
X764041Y145617D01*
X764334Y147845D01*
X764409Y148416D01*
X765690D01*
X765766Y147845D01*
X766059Y145617D01*
X767268Y142698D01*
X769192Y140191D01*
X771698Y138268D01*
X774617Y137059D01*
X777750Y136646D01*
X780883Y137059D01*
X783802Y138268D01*
X786309Y140191D01*
X788232Y142698D01*
X789441Y145617D01*
X789854Y148750D01*
X789441Y151883D01*
X788232Y154802D01*
X786309Y157309D01*
X783867Y159181D01*
Y201000D01*
X783402Y203341D01*
X782076Y205326D01*
X745326Y242076D01*
X743341Y243402D01*
X741000Y243868D01*
D02*
G37*
G36*
X1045000Y173111D02*
X1040491Y172667D01*
X1036156Y171352D01*
X1032160Y169216D01*
X1028658Y166342D01*
X1025784Y162840D01*
X1023648Y158844D01*
X1022333Y154509D01*
X1021889Y150000D01*
X1022333Y145491D01*
X1023648Y141156D01*
X1025784Y137160D01*
X1028658Y133658D01*
X1032160Y130784D01*
X1036156Y128648D01*
X1040491Y127333D01*
X1045000Y126889D01*
X1049509Y127333D01*
X1053844Y128648D01*
X1057840Y130784D01*
X1061342Y133658D01*
X1064216Y137160D01*
X1066352Y141156D01*
X1067667Y145491D01*
X1068111Y150000D01*
X1067667Y154509D01*
X1066352Y158844D01*
X1064216Y162840D01*
X1061342Y166342D01*
X1057840Y169216D01*
X1053844Y171352D01*
X1049509Y172667D01*
X1045000Y173111D01*
D02*
G37*
G36*
X425750Y156556D02*
X424053Y156333D01*
X422472Y155678D01*
X421114Y154636D01*
X420072Y153278D01*
X419417Y151697D01*
X419194Y150000D01*
X419417Y148303D01*
X420072Y146722D01*
X421114Y145364D01*
X422472Y144322D01*
X422991Y144107D01*
X474424Y92674D01*
X476409Y91348D01*
X478750Y90883D01*
X707466D01*
X711357Y86991D01*
X711572Y86472D01*
X712614Y85114D01*
X713972Y84072D01*
X715553Y83417D01*
X717250Y83194D01*
X718947Y83417D01*
X720528Y84072D01*
X721886Y85114D01*
X722928Y86472D01*
X723583Y88053D01*
X723806Y89750D01*
X723583Y91447D01*
X722928Y93028D01*
X721886Y94386D01*
X720528Y95428D01*
X720009Y95643D01*
X714326Y101326D01*
X712341Y102652D01*
X710000Y103118D01*
X481284D01*
X431643Y152759D01*
X431428Y153278D01*
X430386Y154636D01*
X429028Y155678D01*
X427447Y156333D01*
X425750Y156556D01*
D02*
G37*
%LPD*%
G36*
X771632Y198466D02*
Y159181D01*
X769192Y157309D01*
X767268Y154802D01*
X766059Y151883D01*
X765766Y149655D01*
X765690Y149084D01*
X764409D01*
X764334Y149655D01*
X764041Y151883D01*
X762832Y154802D01*
X760909Y157309D01*
X758467Y159181D01*
Y188650D01*
X758002Y190991D01*
X756676Y192976D01*
X726076Y223576D01*
X724091Y224902D01*
X721750Y225368D01*
X670110D01*
X669913Y225663D01*
X668921Y226326D01*
X667750Y226559D01*
X659250D01*
X658079Y226326D01*
X657087Y225663D01*
X656424Y224671D01*
X656329Y224192D01*
X655059Y224250D01*
X654826Y225421D01*
X654163Y226413D01*
X653170Y227076D01*
X652000Y227309D01*
X643500D01*
X642329Y227076D01*
X641337Y226413D01*
X639919Y226576D01*
X639868Y226610D01*
Y231632D01*
X738466D01*
X771632Y198466D01*
D02*
G37*
G36*
X746232Y186116D02*
Y159181D01*
X743792Y157309D01*
X741868Y154802D01*
X740659Y151883D01*
X740366Y149655D01*
X740290Y149084D01*
X739009D01*
X738934Y149655D01*
X738641Y151883D01*
X737432Y154802D01*
X735508Y157309D01*
X733002Y159232D01*
X730083Y160441D01*
X726950Y160854D01*
X723817Y160441D01*
X720898Y159232D01*
X718391Y157309D01*
X716518Y154868D01*
X704534D01*
X699368Y160034D01*
Y200640D01*
X699663Y200837D01*
X700326Y201829D01*
X700559Y203000D01*
Y211500D01*
X700487Y211863D01*
X701428Y213132D01*
X719216D01*
X746232Y186116D01*
D02*
G37*
D10*
X859260Y572658D02*
X1306960D01*
X859260Y547258D02*
X1307960D01*
X1331260Y596958D02*
X1306960Y572658D01*
X1331260Y714958D02*
Y596958D01*
X1300260Y714958D02*
X1331260D01*
X1307960Y547258D02*
X1332260Y522958D01*
Y431958D01*
X1330660Y430358D01*
X1300260D02*
X1330660D01*
D11*
X663500Y205250D02*
D03*
Y219250D02*
D03*
D13*
X1236990Y872742D02*
X827690D01*
X859990Y994642D02*
X857090D01*
X884990D02*
X859990D01*
X824990Y870042D02*
X827690Y872742D01*
X859990Y994642D02*
Y1037542D01*
X867890Y1045442D01*
X884990D02*
X867890D01*
X862890Y677942D02*
Y725442D01*
X866190Y674642D02*
X862890Y677942D01*
X884990Y674642D02*
X866190D01*
X824990Y810042D02*
Y850042D01*
Y870042D02*
Y962542D01*
X857090Y994642D01*
X847090Y725442D02*
X807490Y765042D01*
Y870042D01*
X824990D02*
X807490D01*
X884990Y725442D02*
X862890D01*
X847090D01*
X663500Y205250D02*
Y194000D01*
X679250Y207250D02*
Y194000D01*
X647750Y220000D02*
Y205750D01*
X647750Y220000D02*
X647750Y220000D01*
X693250Y207250D02*
Y157500D01*
X702000Y148750D01*
X726950D01*
X663500Y219250D02*
X721750D01*
X752350Y188650D01*
Y148750D01*
X633750Y237750D02*
Y220000D01*
Y237750D02*
X741000D01*
X777750Y201000D01*
Y148750D01*
X453250Y158500D02*
X571750D01*
X425750Y186000D02*
X453250Y158500D01*
X425750Y150000D02*
X478750Y97000D01*
X710000D01*
X717250Y89750D01*
D14*
X824990Y870042D02*
D03*
Y850042D02*
D03*
D15*
X647750Y220000D02*
D03*
X633750D02*
D03*
X679250Y207250D02*
D03*
X693250D02*
D03*
X1015041Y386827D02*
D03*
X1001041D02*
D03*
D17*
X1375000Y243815D02*
X1362500D01*
X1129541Y328927D02*
X1116941D01*
X1077541Y368327D01*
X1048291D01*
X1063791Y352577D02*
X1048291D01*
X1112841Y303527D02*
X1063791Y352577D01*
X1129541Y303527D02*
X1112841D01*
X1061541Y336827D02*
X1048291D01*
X1120241Y278127D02*
X1061541Y336827D01*
X1129541Y278127D02*
X1120241D01*
X1001291Y336827D02*
X1001041Y337077D01*
X1129541Y252727D02*
X1107141D01*
X1025041Y334827D01*
Y386117D01*
X1024331Y386827D02*
X1015041D01*
X1025041Y386117D02*
X1024331Y386827D01*
X1048291Y368327D02*
Y392077D01*
X1004941Y435427D01*
Y460827D01*
X1048291Y352577D02*
X1036791D01*
X1032581Y356787D01*
Y389241D01*
X1027454Y394367D01*
X1023129D01*
X981541Y435955D01*
Y458827D01*
X979541Y460827D01*
X1001041Y337077D02*
Y386827D01*
D18*
X1245700Y96516D02*
X1182700D01*
X1337100Y187915D02*
X1245700Y96516D01*
X1337100Y218416D02*
Y187915D01*
X1157300Y112115D02*
Y96516D01*
X1246529Y112115D02*
X1157300D01*
X1323000Y188587D02*
X1246529Y112115D01*
X1323000Y229715D02*
Y188587D01*
X1337100Y243815D02*
X1323000Y229715D01*
X1362500Y218416D02*
Y192316D01*
X1241300Y71115D01*
X1182700D01*
X1375540Y243276D02*
X1375000Y243815D01*
X1375540Y243276D02*
Y200355D01*
X1374993Y199808D01*
Y195808D01*
X1241495Y62310D01*
X1240550D01*
X1238056Y59816D01*
X1200000D01*
X1196000Y55816D01*
X1172600D01*
X1157300Y71115D01*
D24*
X1048291Y368327D02*
D03*
Y352577D02*
D03*
Y336827D02*
D03*
X1001291D02*
D03*
Y352577D02*
D03*
Y368327D02*
D03*
D25*
X247350Y723011D02*
X561350Y703014D01*
X394250Y490763D02*
Y499013D01*
Y490763D02*
X424000Y461013D01*
D28*
X17500Y17500D02*
D03*
X1492500Y1132500D02*
D03*
D29*
X859260Y546958D02*
D03*
Y572358D02*
D03*
X1236990Y847342D02*
D03*
Y872742D02*
D03*
X1362500Y243815D02*
D03*
Y218416D02*
D03*
X1337100Y243815D02*
D03*
Y218416D02*
D03*
X777750Y148750D02*
D03*
X752350D02*
D03*
X726950D02*
D03*
X979541Y460827D02*
D03*
X954141D02*
D03*
X928741D02*
D03*
X1129541Y328927D02*
D03*
Y252727D02*
D03*
Y278127D02*
D03*
Y303527D02*
D03*
D30*
X1265260Y689558D02*
D03*
Y430358D02*
D03*
X1300260Y740358D02*
D03*
Y379558D02*
D03*
X884990Y725442D02*
D03*
Y1045442D02*
D03*
X1157300Y96516D02*
D03*
D31*
X1265260Y714958D02*
D03*
Y740358D02*
D03*
Y404958D02*
D03*
Y379558D02*
D03*
X1300260Y714958D02*
D03*
Y689558D02*
D03*
Y404958D02*
D03*
Y430358D02*
D03*
X187300Y227800D02*
D03*
X212700D02*
D03*
X884990Y674642D02*
D03*
Y700042D02*
D03*
Y994642D02*
D03*
Y1020042D02*
D03*
X1157300Y71115D02*
D03*
X1182700D02*
D03*
Y96516D02*
D03*
X247350Y723011D02*
D03*
X234650Y701014D02*
D03*
X561350Y703014D02*
D03*
X548650Y725011D02*
D03*
D32*
X260000Y250000D02*
D03*
X140000D02*
D03*
Y150000D02*
D03*
X260000D02*
D03*
X445000Y225000D02*
D03*
Y75000D02*
D03*
X1045000Y150000D02*
D03*
D33*
X90000Y310000D02*
D03*
X310000D02*
D03*
Y90000D02*
D03*
X90000D02*
D03*
X400000Y903013D02*
D03*
X150000Y470003D02*
D03*
X650000D02*
D03*
D34*
X824990Y810042D02*
D03*
X647750Y205750D02*
D03*
X679250Y194000D02*
D03*
X663500D02*
D03*
X425750Y186000D02*
D03*
X571750Y158500D02*
D03*
X717250Y89750D02*
D03*
X425750Y150000D02*
D03*
X424000Y461013D02*
D03*
X394250Y499013D02*
D03*
D35*
X803150Y148750D02*
D03*
X1004941Y460827D02*
D03*
D36*
X375750Y436813D02*
D03*
X424250D02*
D03*
D37*
X363750Y410013D02*
D03*
X436250D02*
D03*
M02*
