G04 Layer_Physical_Order=2*
G04 Layer_Color=16711680*
%FSLAX44Y44*%
%MOMM*%
G71*
G01*
G75*
G04:AMPARAMS|DCode=10|XSize=1.3mm|YSize=1mm|CornerRadius=0.25mm|HoleSize=0mm|Usage=FLASHONLY|Rotation=45.000|XOffset=0mm|YOffset=0mm|HoleType=Round|Shape=RoundedRectangle|*
%AMROUNDEDRECTD10*
21,1,1.3000,0.5000,0,0,45.0*
21,1,0.8000,1.0000,0,0,45.0*
1,1,0.5000,0.4596,0.1061*
1,1,0.5000,-0.1061,-0.4596*
1,1,0.5000,-0.4596,-0.1061*
1,1,0.5000,0.1061,0.4596*
%
%ADD10ROUNDEDRECTD10*%
%ADD11P,1.2021X4X90.0*%
%ADD12C,0.4000*%
%ADD13C,4.0000*%
%ADD14C,1.8000*%
%ADD15P,1.9483X8X112.5*%
G36*
X1023494Y851710D02*
X1023147Y851191D01*
X1022950Y850200D01*
X1023147Y849209D01*
X1023709Y848369D01*
X1029719Y842358D01*
X1030559Y841797D01*
X1031550Y841600D01*
X1031886Y841666D01*
X1032916Y840636D01*
X1032850Y840300D01*
X1033047Y839309D01*
X1033608Y838469D01*
X1039619Y832459D01*
X1040459Y831897D01*
X1041450Y831700D01*
X1042441Y831897D01*
X1043281Y832459D01*
X1049291Y838469D01*
X1049853Y839309D01*
X1050050Y840300D01*
X1049853Y841291D01*
X1049291Y842132D01*
X1043281Y848142D01*
X1042441Y848703D01*
X1041450Y848900D01*
X1041114Y848834D01*
X1040084Y849864D01*
X1040150Y850200D01*
X1039953Y851191D01*
X1039607Y851710D01*
X1041050Y853153D01*
X1051237Y842967D01*
X1051237Y842967D01*
X1052739Y841963D01*
X1054510Y841611D01*
X1054510Y841611D01*
X1083640D01*
X1083640Y841611D01*
X1084425Y841767D01*
X1085050Y840597D01*
X1048083Y803629D01*
X1036667D01*
X1031449Y808848D01*
X1032030Y810062D01*
X1033660Y810386D01*
X1035327Y811500D01*
X1040984Y817157D01*
X1042098Y818824D01*
X1042489Y820791D01*
X1042098Y822757D01*
X1040984Y824424D01*
X1037448Y827960D01*
X1035781Y829074D01*
X1033815Y829465D01*
X1031902Y829085D01*
X1031658Y829264D01*
X1031151Y829771D01*
X1030972Y830016D01*
X1031352Y831928D01*
X1030961Y833894D01*
X1029847Y835561D01*
X1026311Y839097D01*
X1024644Y840211D01*
X1022678Y840602D01*
X1020766Y840222D01*
X1020521Y840401D01*
X1020014Y840908D01*
X1019835Y841152D01*
X1020215Y843065D01*
X1019824Y845031D01*
X1018710Y846698D01*
X1015174Y850234D01*
X1013507Y851348D01*
X1011541Y851739D01*
X1009574Y851348D01*
X1007907Y850234D01*
X1002250Y844577D01*
X1001136Y842910D01*
X1000745Y840943D01*
X1001136Y838977D01*
X1001312Y838714D01*
X1000538Y837587D01*
X998979Y837277D01*
X997477Y836273D01*
X997477Y836273D01*
X979476Y818272D01*
X978307Y818505D01*
X976340Y818114D01*
X974673Y817000D01*
X969016Y811343D01*
X967902Y809676D01*
X967511Y807709D01*
X967744Y806540D01*
X962477Y801273D01*
X961473Y799771D01*
X961121Y798000D01*
X961473Y796229D01*
X962477Y794727D01*
X970731Y786473D01*
Y767850D01*
X969461Y767532D01*
X967734Y770763D01*
X964917Y774195D01*
X961485Y777012D01*
X957569Y779105D01*
X953320Y780394D01*
X948902Y780829D01*
X944483Y780394D01*
X940234Y779105D01*
X936319Y777012D01*
X932887Y774195D01*
X930261Y770996D01*
X928991Y771248D01*
Y779194D01*
X1012500Y862704D01*
X1023494Y851710D01*
D02*
G37*
G36*
X1192428Y896281D02*
X1195912Y894838D01*
X1198903Y892543D01*
X1201198Y889552D01*
X1202641Y886068D01*
X1203023Y883173D01*
X1203076Y881936D01*
X1203055Y881830D01*
X1203055Y881830D01*
X1203055Y880670D01*
Y781076D01*
X1203021Y779847D01*
X1203021Y779846D01*
X1203073Y778587D01*
X1202820Y776020D01*
X1201964Y773198D01*
X1200574Y770597D01*
X1198703Y768317D01*
X1196423Y766446D01*
X1193822Y765056D01*
X1191000Y764200D01*
X1188957Y763999D01*
X1188956Y763999D01*
Y763999D01*
X1188924Y763965D01*
X1079690D01*
X1079501Y763927D01*
X1077690Y764106D01*
X1073052Y763649D01*
X1068592Y762296D01*
X1064481Y760099D01*
X1060878Y757142D01*
X1057921Y753539D01*
X1055724Y749428D01*
X1054371Y744968D01*
X1054167Y742889D01*
X1054055Y742330D01*
Y690572D01*
X1054055Y689330D01*
X1054060Y689304D01*
X1053964Y688074D01*
X1053787Y686277D01*
X1052933Y683461D01*
X1051546Y680865D01*
X1049679Y678591D01*
X1047404Y676724D01*
X1044809Y675337D01*
X1041993Y674483D01*
X1039217Y674209D01*
X1039190Y674215D01*
X936690D01*
X936621Y674201D01*
X933737Y674485D01*
X930898Y675346D01*
X928281Y676745D01*
X925987Y678627D01*
X924105Y680921D01*
X922706Y683538D01*
X921845Y686377D01*
X921561Y689258D01*
X921575Y689325D01*
X921629Y731326D01*
X922803Y731811D01*
X939210Y715403D01*
X938717Y714212D01*
X938320Y711200D01*
X938717Y708187D01*
X939880Y705380D01*
X941730Y702970D01*
X944140Y701120D01*
X946947Y699957D01*
X949960Y699560D01*
X952972Y699957D01*
X955780Y701120D01*
X958190Y702970D01*
X960040Y705380D01*
X961203Y708187D01*
X961600Y711200D01*
X961203Y714212D01*
X960040Y717020D01*
X958190Y719430D01*
X955780Y721280D01*
X952972Y722443D01*
X949960Y722840D01*
X946947Y722443D01*
X945757Y721950D01*
X928991Y738716D01*
Y745112D01*
X930261Y745364D01*
X932887Y742165D01*
X936319Y739348D01*
X940234Y737255D01*
X944483Y735966D01*
X948902Y735531D01*
X953320Y735966D01*
X957569Y737255D01*
X961485Y739348D01*
X964917Y742165D01*
X967734Y745597D01*
X969461Y748828D01*
X970731Y748510D01*
Y721773D01*
X969540Y721280D01*
X967130Y719430D01*
X965280Y717020D01*
X964117Y714212D01*
X963720Y711200D01*
X964117Y708187D01*
X965280Y705380D01*
X967130Y702970D01*
X969540Y701120D01*
X972347Y699957D01*
X975360Y699560D01*
X978372Y699957D01*
X981180Y701120D01*
X983590Y702970D01*
X985440Y705380D01*
X986603Y708187D01*
X987000Y711200D01*
X986603Y714212D01*
X985440Y717020D01*
X983590Y719430D01*
X981180Y721280D01*
X979989Y721773D01*
Y723765D01*
X981162Y724251D01*
X990010Y715403D01*
X989517Y714212D01*
X989120Y711200D01*
X989517Y708187D01*
X990680Y705380D01*
X992530Y702970D01*
X994940Y701120D01*
X997747Y699957D01*
X1000760Y699560D01*
X1003773Y699957D01*
X1006580Y701120D01*
X1008990Y702970D01*
X1010840Y705380D01*
X1012003Y708187D01*
X1012400Y711200D01*
X1012003Y714212D01*
X1010840Y717020D01*
X1008990Y719430D01*
X1006580Y721280D01*
X1003773Y722443D01*
X1000760Y722840D01*
X997747Y722443D01*
X996557Y721950D01*
X987129Y731377D01*
Y741956D01*
X987792Y742314D01*
X988399Y742415D01*
X1015410Y715403D01*
X1014917Y714212D01*
X1014520Y711200D01*
X1014917Y708187D01*
X1016080Y705380D01*
X1017930Y702970D01*
X1020340Y701120D01*
X1023148Y699957D01*
X1026160Y699560D01*
X1029173Y699957D01*
X1031980Y701120D01*
X1034390Y702970D01*
X1036240Y705380D01*
X1037403Y708187D01*
X1037800Y711200D01*
X1037403Y714212D01*
X1036240Y717020D01*
X1034390Y719430D01*
X1031980Y721280D01*
X1029173Y722443D01*
X1026160Y722840D01*
X1023148Y722443D01*
X1021957Y721950D01*
X996153Y747754D01*
Y776058D01*
X997249Y777002D01*
X998459Y776761D01*
X1000426Y777152D01*
X1002093Y778266D01*
X1007750Y783923D01*
X1008864Y785590D01*
X1009255Y787557D01*
X1008902Y789332D01*
X1012762Y793192D01*
X1023307Y782647D01*
X1023307Y782647D01*
X1024732Y781694D01*
X1024747Y781569D01*
X1024483Y780394D01*
X1020234Y779105D01*
X1016319Y777012D01*
X1012887Y774195D01*
X1010070Y770763D01*
X1007977Y766847D01*
X1006688Y762599D01*
X1006253Y758180D01*
X1006688Y753761D01*
X1007977Y749513D01*
X1010070Y745597D01*
X1012887Y742165D01*
X1016319Y739348D01*
X1020234Y737255D01*
X1024483Y735966D01*
X1028902Y735531D01*
X1033320Y735966D01*
X1037569Y737255D01*
X1041485Y739348D01*
X1044917Y742165D01*
X1047734Y745597D01*
X1049827Y749513D01*
X1051116Y753761D01*
X1051551Y758180D01*
X1051116Y762599D01*
X1049827Y766847D01*
X1047734Y770763D01*
X1044917Y774195D01*
X1041485Y777012D01*
X1037569Y779105D01*
X1034549Y780021D01*
X1034738Y781291D01*
X1055418D01*
X1055418Y781291D01*
X1057189Y781643D01*
X1058691Y782647D01*
X1062565Y786521D01*
X1093186D01*
X1093357Y785659D01*
X1093919Y784819D01*
X1098419Y780319D01*
X1099259Y779757D01*
X1100250Y779560D01*
X1109250D01*
X1110241Y779757D01*
X1111081Y780319D01*
X1115581Y784819D01*
X1116143Y785659D01*
X1116340Y786650D01*
Y795650D01*
X1116143Y796641D01*
X1115581Y797481D01*
X1111081Y801981D01*
X1110241Y802543D01*
X1109250Y802740D01*
X1100250D01*
X1099259Y802543D01*
X1098419Y801981D01*
X1093919Y797481D01*
X1093357Y796641D01*
X1093186Y795779D01*
X1064234D01*
X1063748Y796952D01*
X1078716Y811921D01*
X1094177D01*
X1094670Y810730D01*
X1096520Y808320D01*
X1098930Y806470D01*
X1101737Y805307D01*
X1104750Y804911D01*
X1107763Y805307D01*
X1110570Y806470D01*
X1112980Y808320D01*
X1114830Y810730D01*
X1115993Y813538D01*
X1116389Y816550D01*
X1115993Y819563D01*
X1114830Y822370D01*
X1112980Y824780D01*
X1110570Y826630D01*
X1107763Y827793D01*
X1104750Y828190D01*
X1101737Y827793D01*
X1098930Y826630D01*
X1096520Y824780D01*
X1094670Y822370D01*
X1094177Y821179D01*
X1080385D01*
X1079899Y822352D01*
X1093502Y835956D01*
X1095018Y835676D01*
X1096520Y833720D01*
X1098930Y831870D01*
X1101737Y830707D01*
X1104750Y830311D01*
X1107763Y830707D01*
X1110570Y831870D01*
X1112980Y833720D01*
X1114830Y836130D01*
X1115993Y838938D01*
X1116389Y841950D01*
X1115993Y844962D01*
X1114830Y847770D01*
X1112980Y850180D01*
X1110570Y852030D01*
X1107763Y853193D01*
X1104750Y853590D01*
X1101737Y853193D01*
X1098930Y852030D01*
X1096520Y850180D01*
X1094670Y847770D01*
X1094177Y846579D01*
X1092950D01*
X1092165Y846423D01*
X1091540Y847593D01*
X1100547Y856600D01*
X1101737Y856107D01*
X1104750Y855711D01*
X1107763Y856107D01*
X1110570Y857270D01*
X1112980Y859120D01*
X1114830Y861530D01*
X1115993Y864337D01*
X1116389Y867350D01*
X1115993Y870362D01*
X1114830Y873170D01*
X1112980Y875580D01*
X1110570Y877430D01*
X1107763Y878593D01*
X1104750Y878990D01*
X1101737Y878593D01*
X1098930Y877430D01*
X1096520Y875580D01*
X1094670Y873170D01*
X1093507Y870362D01*
X1093110Y867350D01*
X1093507Y864337D01*
X1094000Y863147D01*
X1081723Y850869D01*
X1079970D01*
X1079718Y852139D01*
X1082917Y854765D01*
X1085734Y858197D01*
X1087827Y862113D01*
X1089116Y866361D01*
X1089551Y870780D01*
X1089116Y875199D01*
X1087827Y879447D01*
X1085734Y883363D01*
X1082917Y886795D01*
X1079485Y889612D01*
X1075569Y891705D01*
X1071320Y892994D01*
X1066902Y893429D01*
X1062483Y892994D01*
X1058234Y891705D01*
X1054319Y889612D01*
X1050887Y886795D01*
X1048070Y883363D01*
X1045977Y879447D01*
X1044688Y875199D01*
X1044253Y870780D01*
X1044688Y866361D01*
X1045577Y863430D01*
X1044494Y862627D01*
X1043521Y863277D01*
X1041750Y863629D01*
X1041750Y863629D01*
X1040351D01*
X1040350Y863629D01*
X1038579Y863277D01*
X1037077Y862273D01*
X1037077Y862273D01*
X1033060Y858256D01*
X1032541Y858603D01*
X1031550Y858800D01*
X1030559Y858603D01*
X1030040Y858256D01*
X1015773Y872523D01*
X1014271Y873527D01*
X1012500Y873879D01*
X1010729Y873527D01*
X1009227Y872523D01*
X1009227Y872523D01*
X922874Y786170D01*
X921701Y786657D01*
X921823Y880810D01*
X921825Y882075D01*
Y882080D01*
X921916Y883312D01*
X922245Y885816D01*
X923688Y889298D01*
X925982Y892288D01*
X928972Y894582D01*
X932454Y896025D01*
X934958Y896354D01*
X936190Y896445D01*
X937460Y896447D01*
X1189194Y896695D01*
X1189229Y896702D01*
X1192428Y896281D01*
D02*
G37*
%LPC*%
G36*
X948902Y893429D02*
X944483Y892994D01*
X940234Y891705D01*
X936319Y889612D01*
X932887Y886795D01*
X930070Y883363D01*
X927977Y879447D01*
X926688Y875199D01*
X926253Y870780D01*
X926688Y866361D01*
X927977Y862113D01*
X930070Y858197D01*
X932887Y854765D01*
X936319Y851948D01*
X940234Y849855D01*
X944483Y848566D01*
X948902Y848131D01*
X953320Y848566D01*
X957569Y849855D01*
X961485Y851948D01*
X964917Y854765D01*
X967734Y858197D01*
X969827Y862113D01*
X971116Y866361D01*
X971551Y870780D01*
X971116Y875199D01*
X969827Y879447D01*
X967734Y883363D01*
X964917Y886795D01*
X961485Y889612D01*
X957569Y891705D01*
X953320Y892994D01*
X948902Y893429D01*
D02*
G37*
%LPD*%
D10*
X999520Y786496D02*
D03*
X988383Y797633D02*
D03*
X977246Y808770D02*
D03*
X1010480Y842004D02*
D03*
X1021617Y830867D02*
D03*
X1032754Y819730D02*
D03*
D11*
X1041450Y840300D02*
D03*
X1031550Y850200D02*
D03*
D12*
X1010480Y842004D02*
X1021617Y830867D01*
X1032754Y819730D01*
X965750Y798000D02*
X975360Y788390D01*
X965750Y798000D02*
X976520Y808770D01*
X982500Y729460D02*
X1000760Y711200D01*
X982500Y791750D02*
X988383Y797633D01*
X991524Y778500D02*
X999520Y786496D01*
X991524Y745836D02*
Y778500D01*
Y745836D02*
X1026160Y711200D01*
X982500Y729460D02*
Y791750D01*
X975360Y711200D02*
Y788390D01*
X924362Y736798D02*
X949960Y711200D01*
X1083640Y846240D02*
X1104750Y867350D01*
X1054510Y846240D02*
X1083640D01*
X1041750Y859000D02*
X1054510Y846240D01*
X1040350Y859000D02*
X1041750D01*
X1031550Y850200D02*
X1040350Y859000D01*
X1092950Y841950D02*
X1104750D01*
X1050000Y799000D02*
X1092950Y841950D01*
X1034750Y799000D02*
X1050000D01*
X1000750Y833000D02*
X1034750Y799000D01*
X1076799Y816550D02*
X1104750D01*
X1052709Y792460D02*
X1076799Y816550D01*
X1032041Y792460D02*
X1052709D01*
X1007125Y817375D02*
X1032041Y792460D01*
X988383Y798633D02*
X1007125Y817375D01*
X988383Y797633D02*
Y798633D01*
X1060648Y791150D02*
X1104750D01*
X1055418Y785920D02*
X1060648Y791150D01*
X1026580Y785920D02*
X1055418D01*
X1013500Y799000D02*
X1026580Y785920D01*
X1012024Y799000D02*
X1013500D01*
X999520Y786496D02*
X1012024Y799000D01*
X924362Y736798D02*
Y781112D01*
X1012500Y869250D01*
X1031550Y850200D01*
X976520Y808770D02*
Y808770D01*
X1000750Y833000D01*
D13*
X1028902Y758180D02*
D03*
X948902D02*
D03*
Y870780D02*
D03*
X1066902D02*
D03*
D14*
X1026160Y711200D02*
D03*
X949960D02*
D03*
X975360D02*
D03*
X1000760D02*
D03*
X1104750Y816550D02*
D03*
Y841950D02*
D03*
Y867350D02*
D03*
D15*
Y791150D02*
D03*
M02*
