G04 Layer_Physical_Order=1*
G04 Layer_Color=255*
%FSLAX44Y44*%
%MOMM*%
G71*
G01*
G75*
G04:AMPARAMS|DCode=10|XSize=1.3mm|YSize=1mm|CornerRadius=0.25mm|HoleSize=0mm|Usage=FLASHONLY|Rotation=45.000|XOffset=0mm|YOffset=0mm|HoleType=Round|Shape=RoundedRectangle|*
%AMROUNDEDRECTD10*
21,1,1.3000,0.5000,0,0,45.0*
21,1,0.8000,1.0000,0,0,45.0*
1,1,0.5000,0.4596,0.1061*
1,1,0.5000,-0.1061,-0.4596*
1,1,0.5000,-0.4596,-0.1061*
1,1,0.5000,0.1061,0.4596*
%
%ADD10ROUNDEDRECTD10*%
%ADD11P,1.2021X4X90.0*%
%ADD12C,0.4000*%
%ADD13C,4.0000*%
%ADD14C,1.8000*%
%ADD15P,1.9483X8X112.5*%
G36*
X1192428Y896281D02*
X1195912Y894838D01*
X1198903Y892543D01*
X1201198Y889552D01*
X1202641Y886068D01*
X1203023Y883173D01*
X1203076Y881936D01*
X1203055Y881830D01*
X1203055Y881830D01*
X1203055Y880670D01*
Y781076D01*
X1203021Y779847D01*
X1203021Y779846D01*
X1203073Y778587D01*
X1202820Y776020D01*
X1201964Y773198D01*
X1200574Y770597D01*
X1198703Y768317D01*
X1196423Y766446D01*
X1193822Y765056D01*
X1191000Y764200D01*
X1188957Y763999D01*
X1188956Y763999D01*
Y763999D01*
X1188924Y763965D01*
X1079690D01*
X1079501Y763927D01*
X1077690Y764106D01*
X1073052Y763649D01*
X1068592Y762296D01*
X1064481Y760099D01*
X1060878Y757142D01*
X1057921Y753539D01*
X1055724Y749428D01*
X1054371Y744968D01*
X1054167Y742889D01*
X1054055Y742330D01*
Y690572D01*
X1054055Y689330D01*
X1054060Y689304D01*
X1053964Y688074D01*
X1053787Y686277D01*
X1052933Y683461D01*
X1051546Y680865D01*
X1049679Y678591D01*
X1047404Y676724D01*
X1044809Y675337D01*
X1041993Y674483D01*
X1039217Y674209D01*
X1039190Y674215D01*
X936690D01*
X936621Y674201D01*
X933737Y674485D01*
X930898Y675346D01*
X928281Y676745D01*
X925987Y678627D01*
X924105Y680921D01*
X922706Y683538D01*
X921845Y686377D01*
X921561Y689258D01*
X921575Y689325D01*
X921823Y880810D01*
X921825Y882075D01*
Y882080D01*
X921916Y883312D01*
X922245Y885816D01*
X923688Y889298D01*
X925982Y892288D01*
X928972Y894582D01*
X932454Y896025D01*
X934958Y896354D01*
X936190Y896445D01*
X937460Y896447D01*
X1189194Y896695D01*
X1189229Y896702D01*
X1192428Y896281D01*
D02*
G37*
%LPC*%
G36*
X1104750Y828190D02*
X1101737Y827793D01*
X1098930Y826630D01*
X1096520Y824780D01*
X1094670Y822370D01*
X1093507Y819563D01*
X1093110Y816550D01*
X1093507Y813538D01*
X1094670Y810730D01*
X1096520Y808320D01*
X1098930Y806470D01*
X1101737Y805307D01*
X1104750Y804911D01*
X1107763Y805307D01*
X1110570Y806470D01*
X1112980Y808320D01*
X1114830Y810730D01*
X1115993Y813538D01*
X1116389Y816550D01*
X1115993Y819563D01*
X1114830Y822370D01*
X1112980Y824780D01*
X1110570Y826630D01*
X1107763Y827793D01*
X1104750Y828190D01*
D02*
G37*
G36*
X1028902Y780829D02*
X1024483Y780394D01*
X1020234Y779105D01*
X1016319Y777012D01*
X1012887Y774195D01*
X1010070Y770763D01*
X1007977Y766847D01*
X1006688Y762599D01*
X1006253Y758180D01*
X1006688Y753761D01*
X1007977Y749513D01*
X1010070Y745597D01*
X1012887Y742165D01*
X1016319Y739348D01*
X1020234Y737255D01*
X1024483Y735966D01*
X1028902Y735531D01*
X1033320Y735966D01*
X1037569Y737255D01*
X1041485Y739348D01*
X1044917Y742165D01*
X1047734Y745597D01*
X1049827Y749513D01*
X1051116Y753761D01*
X1051551Y758180D01*
X1051116Y762599D01*
X1049827Y766847D01*
X1047734Y770763D01*
X1044917Y774195D01*
X1041485Y777012D01*
X1037569Y779105D01*
X1033320Y780394D01*
X1028902Y780829D01*
D02*
G37*
G36*
X978307Y819005D02*
X976340Y818614D01*
X974673Y817500D01*
X969016Y811843D01*
X967902Y810176D01*
X967511Y808209D01*
X967864Y806434D01*
X955227Y793797D01*
X954223Y792295D01*
X953871Y790524D01*
X953871Y790524D01*
Y787500D01*
X953871Y787500D01*
X954223Y785729D01*
X955227Y784227D01*
X960447Y779007D01*
X959682Y777976D01*
X957569Y779105D01*
X953320Y780394D01*
X948902Y780829D01*
X944483Y780394D01*
X940234Y779105D01*
X936319Y777012D01*
X932887Y774195D01*
X930070Y770763D01*
X927977Y766847D01*
X926688Y762599D01*
X926253Y758180D01*
X926688Y753761D01*
X927977Y749513D01*
X930070Y745597D01*
X932887Y742165D01*
X936319Y739348D01*
X940234Y737255D01*
X944483Y735966D01*
X948902Y735531D01*
X953320Y735966D01*
X957569Y737255D01*
X961485Y739348D01*
X964917Y742165D01*
X967543Y745364D01*
X968813Y745112D01*
Y736599D01*
X954163Y721950D01*
X952972Y722443D01*
X949960Y722840D01*
X946947Y722443D01*
X944140Y721280D01*
X941730Y719430D01*
X939880Y717020D01*
X938717Y714212D01*
X938320Y711200D01*
X938717Y708187D01*
X939880Y705380D01*
X941730Y702970D01*
X944140Y701120D01*
X946947Y699957D01*
X949960Y699560D01*
X952972Y699957D01*
X955780Y701120D01*
X958190Y702970D01*
X960040Y705380D01*
X961203Y708187D01*
X961600Y711200D01*
X961203Y714212D01*
X960710Y715403D01*
X969558Y724251D01*
X970731Y723765D01*
Y721773D01*
X969540Y721280D01*
X967130Y719430D01*
X965280Y717020D01*
X964117Y714212D01*
X963720Y711200D01*
X964117Y708187D01*
X965280Y705380D01*
X967130Y702970D01*
X969540Y701120D01*
X972347Y699957D01*
X975360Y699560D01*
X978372Y699957D01*
X981180Y701120D01*
X983590Y702970D01*
X985440Y705380D01*
X986603Y708187D01*
X987000Y711200D01*
X986603Y714212D01*
X985440Y717020D01*
X983590Y719430D01*
X981180Y721280D01*
X979989Y721773D01*
Y725434D01*
X983255Y728700D01*
X983255Y728700D01*
X984258Y730201D01*
X984611Y731973D01*
Y787760D01*
X984767Y787975D01*
X985881Y788685D01*
X987322Y788398D01*
X989234Y788778D01*
X989479Y788599D01*
X989986Y788092D01*
X990165Y787848D01*
X989785Y785935D01*
X990176Y783969D01*
X991290Y782302D01*
X994826Y778766D01*
X994891Y778723D01*
Y721242D01*
X992530Y719430D01*
X990680Y717020D01*
X989517Y714212D01*
X989120Y711200D01*
X989517Y708187D01*
X990680Y705380D01*
X992530Y702970D01*
X994940Y701120D01*
X997747Y699957D01*
X1000760Y699560D01*
X1003773Y699957D01*
X1006580Y701120D01*
X1008990Y702970D01*
X1010840Y705380D01*
X1012003Y708187D01*
X1012400Y711200D01*
X1012003Y714212D01*
X1010840Y717020D01*
X1008990Y719430D01*
X1006580Y721280D01*
X1004149Y722287D01*
Y780822D01*
X1007750Y784423D01*
X1008864Y786090D01*
X1009255Y788057D01*
X1008864Y790023D01*
X1007750Y791690D01*
X1004214Y795226D01*
X1002547Y796340D01*
X1000581Y796731D01*
X998669Y796351D01*
X998424Y796530D01*
X997917Y797037D01*
X997738Y797282D01*
X998118Y799194D01*
X997727Y801160D01*
X996613Y802827D01*
X993077Y806363D01*
X991410Y807477D01*
X989444Y807868D01*
X987532Y807488D01*
X987287Y807667D01*
X986780Y808174D01*
X986601Y808419D01*
X986981Y810331D01*
X986590Y812297D01*
X985476Y813964D01*
X981940Y817500D01*
X980273Y818614D01*
X978307Y819005D01*
D02*
G37*
G36*
X1026160Y722840D02*
X1023148Y722443D01*
X1020340Y721280D01*
X1017930Y719430D01*
X1016080Y717020D01*
X1014917Y714212D01*
X1014520Y711200D01*
X1014917Y708187D01*
X1016080Y705380D01*
X1017930Y702970D01*
X1020340Y701120D01*
X1023148Y699957D01*
X1026160Y699560D01*
X1029173Y699957D01*
X1031980Y701120D01*
X1034390Y702970D01*
X1036240Y705380D01*
X1037403Y708187D01*
X1037800Y711200D01*
X1037403Y714212D01*
X1036240Y717020D01*
X1034390Y719430D01*
X1031980Y721280D01*
X1029173Y722443D01*
X1026160Y722840D01*
D02*
G37*
G36*
X1025250Y861379D02*
X1023479Y861027D01*
X1021977Y860023D01*
X1021977Y860023D01*
X1013683Y851730D01*
X1013507Y851848D01*
X1011541Y852239D01*
X1009574Y851848D01*
X1007907Y850734D01*
X1002250Y845077D01*
X1001136Y843410D01*
X1000745Y841443D01*
X1001136Y839477D01*
X1002250Y837810D01*
X1005786Y834274D01*
X1007453Y833160D01*
X1009419Y832769D01*
X1011331Y833149D01*
X1011576Y832970D01*
X1012083Y832463D01*
X1012262Y832218D01*
X1011882Y830306D01*
X1012273Y828340D01*
X1013387Y826673D01*
X1016923Y823137D01*
X1018590Y822023D01*
X1020556Y821632D01*
X1022468Y822012D01*
X1022713Y821833D01*
X1023220Y821326D01*
X1023399Y821081D01*
X1023019Y819169D01*
X1023410Y817203D01*
X1024524Y815536D01*
X1028060Y812000D01*
X1029727Y810886D01*
X1031693Y810495D01*
X1033660Y810886D01*
X1035327Y812000D01*
X1040984Y817657D01*
X1042098Y819324D01*
X1042489Y821291D01*
X1042098Y823257D01*
X1040984Y824924D01*
X1037448Y828460D01*
X1035781Y829574D01*
X1033815Y829965D01*
X1031902Y829585D01*
X1031658Y829764D01*
X1031151Y830271D01*
X1030972Y830516D01*
X1031352Y832428D01*
X1030961Y834394D01*
X1029847Y836061D01*
X1026311Y839597D01*
X1024644Y840711D01*
X1022678Y841102D01*
X1020766Y840722D01*
X1020521Y840901D01*
X1020014Y841408D01*
X1019835Y841653D01*
X1020215Y843565D01*
X1019949Y844902D01*
X1023687Y848640D01*
X1029669Y842658D01*
X1030509Y842097D01*
X1031500Y841900D01*
X1031836Y841967D01*
X1032866Y840936D01*
X1032799Y840601D01*
X1032997Y839609D01*
X1033558Y838769D01*
X1039568Y832759D01*
X1040408Y832197D01*
X1041400Y832000D01*
X1042391Y832197D01*
X1042909Y832544D01*
X1087577Y787877D01*
X1089079Y786873D01*
X1090850Y786521D01*
X1090850Y786521D01*
X1093186D01*
X1093357Y785659D01*
X1093919Y784819D01*
X1098419Y780319D01*
X1099259Y779757D01*
X1100250Y779560D01*
X1109250D01*
X1110241Y779757D01*
X1111081Y780319D01*
X1115581Y784819D01*
X1116143Y785659D01*
X1116340Y786650D01*
Y795650D01*
X1116143Y796641D01*
X1115581Y797481D01*
X1111081Y801981D01*
X1110241Y802543D01*
X1109250Y802740D01*
X1100250D01*
X1099259Y802543D01*
X1098419Y801981D01*
X1093919Y797481D01*
X1093495Y796847D01*
X1092558Y796562D01*
X1092036Y796510D01*
X1049456Y839090D01*
X1049802Y839609D01*
X1050000Y840601D01*
X1049802Y841592D01*
X1049241Y842432D01*
X1043231Y848442D01*
X1042391Y849004D01*
X1041400Y849201D01*
X1041064Y849134D01*
X1040033Y850164D01*
X1040100Y850500D01*
X1039903Y851491D01*
X1039342Y852331D01*
X1033331Y858342D01*
X1032491Y858903D01*
X1031500Y859100D01*
X1030509Y858903D01*
X1029990Y858556D01*
X1028523Y860023D01*
X1027021Y861027D01*
X1025250Y861379D01*
D02*
G37*
G36*
X1104750Y878990D02*
X1101737Y878593D01*
X1098930Y877430D01*
X1096520Y875580D01*
X1094670Y873170D01*
X1093507Y870362D01*
X1093110Y867350D01*
X1093507Y864337D01*
X1094670Y861530D01*
X1096520Y859120D01*
X1098930Y857270D01*
X1101737Y856107D01*
X1104750Y855711D01*
X1107763Y856107D01*
X1110570Y857270D01*
X1112980Y859120D01*
X1114830Y861530D01*
X1115993Y864337D01*
X1116389Y867350D01*
X1115993Y870362D01*
X1114830Y873170D01*
X1112980Y875580D01*
X1110570Y877430D01*
X1107763Y878593D01*
X1104750Y878990D01*
D02*
G37*
G36*
X1066902Y893429D02*
X1062483Y892994D01*
X1058234Y891705D01*
X1054319Y889612D01*
X1050887Y886795D01*
X1048070Y883363D01*
X1045977Y879447D01*
X1044688Y875199D01*
X1044253Y870780D01*
X1044688Y866361D01*
X1045977Y862113D01*
X1048070Y858197D01*
X1050887Y854765D01*
X1054319Y851948D01*
X1058234Y849855D01*
X1062483Y848566D01*
X1066902Y848131D01*
X1071320Y848566D01*
X1075569Y849855D01*
X1079485Y851948D01*
X1082917Y854765D01*
X1085734Y858197D01*
X1087827Y862113D01*
X1089116Y866361D01*
X1089551Y870780D01*
X1089116Y875199D01*
X1087827Y879447D01*
X1085734Y883363D01*
X1082917Y886795D01*
X1079485Y889612D01*
X1075569Y891705D01*
X1071320Y892994D01*
X1066902Y893429D01*
D02*
G37*
G36*
X1104750Y853590D02*
X1101737Y853193D01*
X1098930Y852030D01*
X1096520Y850180D01*
X1094670Y847770D01*
X1093507Y844962D01*
X1093110Y841950D01*
X1093507Y838938D01*
X1094670Y836130D01*
X1096520Y833720D01*
X1098930Y831870D01*
X1101737Y830707D01*
X1104750Y830311D01*
X1107763Y830707D01*
X1110570Y831870D01*
X1112980Y833720D01*
X1114830Y836130D01*
X1115993Y838938D01*
X1116389Y841950D01*
X1115993Y844962D01*
X1114830Y847770D01*
X1112980Y850180D01*
X1110570Y852030D01*
X1107763Y853193D01*
X1104750Y853590D01*
D02*
G37*
G36*
X948902Y893429D02*
X944483Y892994D01*
X940234Y891705D01*
X936319Y889612D01*
X932887Y886795D01*
X930070Y883363D01*
X927977Y879447D01*
X926688Y875199D01*
X926253Y870780D01*
X926688Y866361D01*
X927977Y862113D01*
X930070Y858197D01*
X932887Y854765D01*
X936319Y851948D01*
X940234Y849855D01*
X944483Y848566D01*
X948902Y848131D01*
X953320Y848566D01*
X957569Y849855D01*
X961485Y851948D01*
X964917Y854765D01*
X967734Y858197D01*
X969827Y862113D01*
X971116Y866361D01*
X971551Y870780D01*
X971116Y875199D01*
X969827Y879447D01*
X967734Y883363D01*
X964917Y886795D01*
X961485Y889612D01*
X957569Y891705D01*
X953320Y892994D01*
X948902Y893429D01*
D02*
G37*
%LPD*%
D10*
X977246Y809270D02*
D03*
X988383Y798133D02*
D03*
X999520Y786996D02*
D03*
X1032754Y820230D02*
D03*
X1021617Y831367D02*
D03*
X1010480Y842504D02*
D03*
D11*
X1041400Y840601D02*
D03*
X1031500Y850500D02*
D03*
D12*
X949960Y711200D02*
X973442Y734682D01*
Y768537D01*
X973250Y768728D02*
X973442Y768537D01*
X973250Y768728D02*
Y772750D01*
X958500Y787500D02*
X973250Y772750D01*
X958500Y787500D02*
Y790524D01*
X977246Y809270D01*
X987383Y798133D02*
X988383D01*
X979982Y790732D02*
X987383Y798133D01*
X979982Y731973D02*
Y790732D01*
X975360Y727351D02*
X979982Y731973D01*
X975360Y711200D02*
Y727351D01*
X999520Y712440D02*
X1000760Y711200D01*
X999520Y712440D02*
Y786996D01*
X1021617Y831367D02*
X1032754Y820230D01*
X1010480Y842504D02*
X1021617Y831367D01*
X1025250Y856750D02*
X1031500Y850500D01*
X1011004Y842504D02*
X1025250Y856750D01*
X1010480Y842504D02*
X1011004D01*
X1041400Y840601D02*
X1090850Y791150D01*
X1104750D01*
D13*
X1028902Y758180D02*
D03*
X948902D02*
D03*
Y870780D02*
D03*
X1066902D02*
D03*
D14*
X1026160Y711200D02*
D03*
X949960D02*
D03*
X975360D02*
D03*
X1000760D02*
D03*
X1104750Y816550D02*
D03*
Y841950D02*
D03*
Y867350D02*
D03*
D15*
Y791150D02*
D03*
M02*
