G04 Layer_Physical_Order=1*
G04 Layer_Color=255*
%FSLAX44Y44*%
%MOMM*%
G71*
G01*
G75*
%ADD10R,1.2500X0.9000*%
%ADD11R,0.9000X0.8000*%
%ADD12R,0.8500X0.8500*%
%ADD13R,1.2500X1.0000*%
%ADD14R,0.5000X0.4000*%
%ADD15C,0.6000*%
%ADD16C,0.4000*%
%ADD17C,0.3000*%
%ADD18C,6.0000*%
%ADD19C,4.0000*%
%ADD20C,1.8000*%
%ADD21P,1.9483X8X292.5*%
%ADD22P,1.9483X8X22.5*%
G36*
X537186Y585278D02*
X539040Y584040D01*
X540278Y582186D01*
X540680Y580167D01*
X540646Y580000D01*
Y20000D01*
X540680Y19833D01*
X540278Y17814D01*
X539040Y15960D01*
X537186Y14722D01*
X536199Y14526D01*
X535000Y14354D01*
Y14354D01*
X15000D01*
X14833Y14320D01*
X12814Y14722D01*
X10961Y15960D01*
X9722Y17814D01*
X9526Y18801D01*
X9354Y20000D01*
X9354D01*
Y580000D01*
X9320Y580167D01*
X9722Y582186D01*
X10961Y584040D01*
X12814Y585278D01*
X14833Y585680D01*
X15000Y585646D01*
X535000D01*
X535167Y585680D01*
X537186Y585278D01*
D02*
G37*
%LPC*%
G36*
X296300Y312419D02*
X283800D01*
X282630Y312186D01*
X281637Y311523D01*
X280974Y310530D01*
X280741Y309360D01*
Y299360D01*
X280974Y298190D01*
X281637Y297197D01*
X282630Y296534D01*
X283800Y296301D01*
X296300D01*
X297471Y296534D01*
X298463Y297197D01*
X299126Y298190D01*
X299339Y299262D01*
X310208D01*
X310712Y298758D01*
Y260568D01*
X298300D01*
X298236Y260891D01*
X297573Y261883D01*
X296581Y262546D01*
X295410Y262779D01*
X286910D01*
X285739Y262546D01*
X284747Y261883D01*
X284084Y260891D01*
X283851Y259720D01*
Y251220D01*
X284084Y250049D01*
X284584Y249301D01*
X284680Y248470D01*
X284584Y247639D01*
X284084Y246891D01*
X283851Y245720D01*
Y237220D01*
X284084Y236049D01*
X284747Y235057D01*
X285739Y234394D01*
X286062Y234330D01*
Y219522D01*
X284095Y217555D01*
X282990Y215901D01*
X282602Y213950D01*
Y90877D01*
X281648Y90482D01*
X279142Y88559D01*
X277218Y86052D01*
X276009Y83133D01*
X275716Y80905D01*
X275640Y80334D01*
X274360D01*
X274284Y80905D01*
X273991Y83133D01*
X272782Y86052D01*
X270858Y88559D01*
X268352Y90482D01*
X267398Y90877D01*
Y254498D01*
X289201Y276301D01*
X296300D01*
X297471Y276534D01*
X298463Y277197D01*
X299126Y278190D01*
X299359Y279360D01*
Y289360D01*
X299126Y290530D01*
X298463Y291523D01*
X297471Y292186D01*
X296300Y292419D01*
X283800D01*
X282630Y292186D01*
X281637Y291523D01*
X280974Y290530D01*
X280741Y289360D01*
Y282261D01*
X258695Y260215D01*
X257590Y258561D01*
X257202Y256610D01*
Y90877D01*
X256248Y90482D01*
X253741Y88559D01*
X251818Y86052D01*
X250609Y83133D01*
X250362Y81255D01*
X249656Y80910D01*
X249029Y80862D01*
X248959Y80944D01*
Y84500D01*
X248959Y84500D01*
X248726Y85670D01*
X248063Y86663D01*
X243563Y91163D01*
X242570Y91826D01*
X241400Y92059D01*
X232400D01*
X232400Y92059D01*
X231229Y91826D01*
X230237Y91163D01*
X225737Y86663D01*
X225074Y85670D01*
X224841Y84500D01*
Y75500D01*
X224841Y75500D01*
X225074Y74330D01*
X225737Y73337D01*
X230237Y68837D01*
X231229Y68174D01*
X232400Y67941D01*
X238833D01*
X239441Y67200D01*
Y47200D01*
X239674Y46029D01*
X240337Y45037D01*
X241329Y44374D01*
X242500Y44141D01*
X307500D01*
X308671Y44374D01*
X309663Y45037D01*
X310326Y46029D01*
X310559Y47200D01*
Y66950D01*
X311352Y68046D01*
X311418Y68118D01*
X313100Y67896D01*
X316233Y68309D01*
X319152Y69518D01*
X321659Y71441D01*
X323582Y73948D01*
X324791Y76867D01*
X325204Y80000D01*
X324791Y83133D01*
X323582Y86052D01*
X321659Y88559D01*
X319152Y90482D01*
X316233Y91691D01*
X313100Y92104D01*
X309967Y91691D01*
X307048Y90482D01*
X304541Y88559D01*
X302618Y86052D01*
X301409Y83133D01*
X301116Y80905D01*
X301040Y80334D01*
X299760D01*
X299684Y80905D01*
X299391Y83133D01*
X298182Y86052D01*
X296259Y88559D01*
X293752Y90482D01*
X292798Y90877D01*
Y211838D01*
X294765Y213805D01*
X295870Y215459D01*
X296258Y217410D01*
Y234330D01*
X296581Y234394D01*
X297573Y235057D01*
X298236Y236049D01*
X298469Y237220D01*
Y245720D01*
X298236Y246891D01*
X297736Y247639D01*
X297640Y248470D01*
X297736Y249301D01*
X298236Y250049D01*
X298300Y250372D01*
X315810D01*
X317761Y250760D01*
X319415Y251865D01*
X320520Y253519D01*
X320908Y255470D01*
Y300870D01*
X320520Y302821D01*
X319415Y304475D01*
X315925Y307965D01*
X314271Y309070D01*
X312320Y309458D01*
X299339D01*
X299126Y310530D01*
X298463Y311523D01*
X297471Y312186D01*
X296300Y312419D01*
D02*
G37*
G36*
X102500Y345409D02*
X101329Y345176D01*
X100337Y344513D01*
X95837Y340013D01*
X95174Y339021D01*
X94941Y337850D01*
Y328850D01*
X94941Y328850D01*
X95174Y327679D01*
X95837Y326687D01*
X100337Y322187D01*
X101329Y321524D01*
X102500Y321291D01*
X106671D01*
X106755Y320021D01*
X106038Y319927D01*
X103867Y319641D01*
X100948Y318432D01*
X98441Y316509D01*
X96518Y314002D01*
X95309Y311083D01*
X94896Y307950D01*
X95309Y304817D01*
X96518Y301898D01*
X98441Y299391D01*
X100948Y297468D01*
X103867Y296259D01*
X106095Y295966D01*
X106666Y295890D01*
Y294610D01*
X106095Y294534D01*
X103867Y294241D01*
X100948Y293032D01*
X98441Y291108D01*
X96518Y288602D01*
X95309Y285683D01*
X94896Y282550D01*
X95309Y279417D01*
X96518Y276498D01*
X98441Y273992D01*
X100948Y272068D01*
X103867Y270859D01*
X106095Y270566D01*
X106666Y270490D01*
Y269210D01*
X106095Y269134D01*
X103867Y268841D01*
X100948Y267632D01*
X98441Y265709D01*
X96518Y263202D01*
X95309Y260283D01*
X94896Y257150D01*
X95309Y254017D01*
X96518Y251098D01*
X98441Y248591D01*
X100948Y246668D01*
X103867Y245459D01*
X107000Y245047D01*
X110133Y245459D01*
X113052Y246668D01*
X115559Y248591D01*
X116955Y250412D01*
X132974D01*
X133329Y250174D01*
X134500Y249941D01*
X139500D01*
X140670Y250174D01*
X141663Y250837D01*
X142326Y251829D01*
X142559Y253000D01*
Y257000D01*
X142326Y258171D01*
X141663Y259163D01*
X140670Y259826D01*
X139500Y260059D01*
X134500D01*
X133329Y259826D01*
X132974Y259588D01*
X118783D01*
X118691Y260283D01*
X117482Y263202D01*
X115559Y265709D01*
X113052Y267632D01*
X110133Y268841D01*
X107905Y269134D01*
X107334Y269210D01*
Y270490D01*
X107905Y270566D01*
X110133Y270859D01*
X113052Y272068D01*
X115559Y273992D01*
X116648Y275412D01*
X132974D01*
X133329Y275174D01*
X134500Y274941D01*
X139500D01*
X140670Y275174D01*
X141663Y275837D01*
X142326Y276829D01*
X142559Y278000D01*
Y282000D01*
X142326Y283171D01*
X141663Y284163D01*
X140670Y284826D01*
X139500Y285059D01*
X134500D01*
X133329Y284826D01*
X132974Y284588D01*
X118835D01*
X118691Y285683D01*
X117482Y288602D01*
X115559Y291108D01*
X113052Y293032D01*
X110133Y294241D01*
X107905Y294534D01*
X107334Y294610D01*
Y295890D01*
X107905Y295966D01*
X110133Y296259D01*
X113052Y297468D01*
X115559Y299391D01*
X117482Y301898D01*
X118691Y304817D01*
X119103Y307950D01*
X118691Y311083D01*
X117482Y314002D01*
X115559Y316509D01*
X113052Y318432D01*
X110133Y319641D01*
X107962Y319927D01*
X107245Y320021D01*
X107329Y321291D01*
X111500D01*
X111500Y321291D01*
X112670Y321524D01*
X113663Y322187D01*
X118163Y326687D01*
X118826Y327679D01*
X119059Y328850D01*
Y337850D01*
X119059Y337850D01*
X118826Y339021D01*
X118163Y340013D01*
X113663Y344513D01*
X112670Y345176D01*
X111500Y345409D01*
X102500D01*
X102500Y345409D01*
D02*
G37*
G36*
X66980Y409409D02*
X57980D01*
X56810Y409176D01*
X55817Y408513D01*
X55154Y407520D01*
X54921Y406350D01*
Y398350D01*
X55154Y397179D01*
X55817Y396187D01*
X56810Y395524D01*
X57980Y395291D01*
X66980D01*
X68151Y395524D01*
X69143Y396187D01*
X69806Y397179D01*
X70039Y398350D01*
Y406350D01*
X69806Y407520D01*
X69143Y408513D01*
X68151Y409176D01*
X66980Y409409D01*
D02*
G37*
G36*
X385000Y163111D02*
X380491Y162667D01*
X376156Y161352D01*
X372160Y159216D01*
X368658Y156342D01*
X365784Y152840D01*
X363648Y148844D01*
X362333Y144509D01*
X361889Y140000D01*
X362333Y135491D01*
X363648Y131156D01*
X365784Y127160D01*
X368658Y123658D01*
X372160Y120784D01*
X376156Y118648D01*
X380491Y117333D01*
X385000Y116889D01*
X389509Y117333D01*
X393844Y118648D01*
X397840Y120784D01*
X401342Y123658D01*
X404216Y127160D01*
X406352Y131156D01*
X407667Y135491D01*
X408111Y140000D01*
X407667Y144509D01*
X406352Y148844D01*
X404216Y152840D01*
X401342Y156342D01*
X397840Y159216D01*
X393844Y161352D01*
X389509Y162667D01*
X385000Y163111D01*
D02*
G37*
G36*
X45000Y83102D02*
X39822Y82695D01*
X34771Y81482D01*
X29972Y79494D01*
X25543Y76780D01*
X21593Y73407D01*
X18220Y69457D01*
X15506Y65028D01*
X13518Y60229D01*
X12306Y55178D01*
X11898Y50000D01*
X12306Y44822D01*
X13518Y39771D01*
X15506Y34972D01*
X18220Y30543D01*
X21593Y26593D01*
X25543Y23220D01*
X29972Y20506D01*
X34771Y18518D01*
X39822Y17306D01*
X45000Y16898D01*
X50178Y17306D01*
X55229Y18518D01*
X60028Y20506D01*
X64457Y23220D01*
X68407Y26593D01*
X71780Y30543D01*
X74494Y34972D01*
X76482Y39771D01*
X77695Y44822D01*
X78102Y50000D01*
X77695Y55178D01*
X76482Y60229D01*
X74494Y65028D01*
X71780Y69457D01*
X68407Y73407D01*
X64457Y76780D01*
X60028Y79494D01*
X55229Y81482D01*
X50178Y82695D01*
X45000Y83102D01*
D02*
G37*
G36*
X505000D02*
X499822Y82695D01*
X494771Y81482D01*
X489972Y79494D01*
X485543Y76780D01*
X481593Y73407D01*
X478220Y69457D01*
X475506Y65028D01*
X473518Y60229D01*
X472305Y55178D01*
X471898Y50000D01*
X472305Y44822D01*
X473518Y39771D01*
X475506Y34972D01*
X478220Y30543D01*
X481593Y26593D01*
X485543Y23220D01*
X489972Y20506D01*
X494771Y18518D01*
X499822Y17306D01*
X505000Y16898D01*
X510178Y17306D01*
X515229Y18518D01*
X520028Y20506D01*
X524457Y23220D01*
X528407Y26593D01*
X531780Y30543D01*
X534494Y34972D01*
X536482Y39771D01*
X537695Y44822D01*
X538102Y50000D01*
X537695Y55178D01*
X536482Y60229D01*
X534494Y65028D01*
X531780Y69457D01*
X528407Y73407D01*
X524457Y76780D01*
X520028Y79494D01*
X515229Y81482D01*
X510178Y82695D01*
X505000Y83102D01*
D02*
G37*
G36*
X165000Y163111D02*
X160491Y162667D01*
X156156Y161352D01*
X152160Y159216D01*
X148658Y156342D01*
X145784Y152840D01*
X143648Y148844D01*
X142333Y144509D01*
X141889Y140000D01*
X142333Y135491D01*
X143648Y131156D01*
X145784Y127160D01*
X148658Y123658D01*
X152160Y120784D01*
X156156Y118648D01*
X160491Y117333D01*
X165000Y116889D01*
X169509Y117333D01*
X173844Y118648D01*
X177840Y120784D01*
X181342Y123658D01*
X184216Y127160D01*
X186352Y131156D01*
X187667Y135491D01*
X188111Y140000D01*
X187667Y144509D01*
X186352Y148844D01*
X184216Y152840D01*
X181342Y156342D01*
X177840Y159216D01*
X173844Y161352D01*
X169509Y162667D01*
X165000Y163111D01*
D02*
G37*
G36*
X86980Y409409D02*
X77980D01*
X76810Y409176D01*
X75817Y408513D01*
X75154Y407520D01*
X74921Y406350D01*
Y398350D01*
X75154Y397179D01*
X75817Y396187D01*
X76810Y395524D01*
X77980Y395291D01*
X86980D01*
X88151Y395524D01*
X89143Y396187D01*
X89806Y397179D01*
X90039Y398350D01*
Y406350D01*
X89806Y407520D01*
X89143Y408513D01*
X88151Y409176D01*
X86980Y409409D01*
D02*
G37*
G36*
X66980Y486409D02*
X57980D01*
X56810Y486176D01*
X55817Y485513D01*
X55154Y484520D01*
X54921Y483350D01*
Y475350D01*
X55154Y474179D01*
X55817Y473187D01*
X56810Y472524D01*
X57980Y472291D01*
X66980D01*
X68151Y472524D01*
X69143Y473187D01*
X69806Y474179D01*
X70039Y475350D01*
Y483350D01*
X69806Y484520D01*
X69143Y485513D01*
X68151Y486176D01*
X66980Y486409D01*
D02*
G37*
G36*
X45000Y583102D02*
X39822Y582695D01*
X34771Y581482D01*
X29972Y579494D01*
X25543Y576780D01*
X21593Y573407D01*
X18220Y569457D01*
X15506Y565028D01*
X13518Y560229D01*
X12306Y555178D01*
X11898Y550000D01*
X12306Y544822D01*
X13518Y539771D01*
X15506Y534972D01*
X18220Y530543D01*
X21593Y526593D01*
X25543Y523220D01*
X29972Y520506D01*
X34771Y518518D01*
X39822Y517305D01*
X45000Y516898D01*
X50178Y517305D01*
X55229Y518518D01*
X60028Y520506D01*
X64457Y523220D01*
X68407Y526593D01*
X71780Y530543D01*
X74494Y534972D01*
X76482Y539771D01*
X77695Y544822D01*
X78102Y550000D01*
X77695Y555178D01*
X76482Y560229D01*
X74494Y565028D01*
X71780Y569457D01*
X68407Y573407D01*
X64457Y576780D01*
X60028Y579494D01*
X55229Y581482D01*
X50178Y582695D01*
X45000Y583102D01*
D02*
G37*
G36*
X505000D02*
X499822Y582695D01*
X494771Y581482D01*
X489972Y579494D01*
X485543Y576780D01*
X481593Y573407D01*
X478220Y569457D01*
X475506Y565028D01*
X473518Y560229D01*
X472305Y555178D01*
X471898Y550000D01*
X472305Y544822D01*
X473518Y539771D01*
X475506Y534972D01*
X478220Y530543D01*
X481593Y526593D01*
X485543Y523220D01*
X489972Y520506D01*
X494771Y518518D01*
X499822Y517305D01*
X505000Y516898D01*
X510178Y517305D01*
X515229Y518518D01*
X520028Y520506D01*
X524457Y523220D01*
X528407Y526593D01*
X531780Y530543D01*
X534494Y534972D01*
X536482Y539771D01*
X537695Y544822D01*
X538102Y550000D01*
X537695Y555178D01*
X536482Y560229D01*
X534494Y565028D01*
X531780Y569457D01*
X528407Y573407D01*
X524457Y576780D01*
X520028Y579494D01*
X515229Y581482D01*
X510178Y582695D01*
X505000Y583102D01*
D02*
G37*
G36*
X86980Y486409D02*
X77980D01*
X76810Y486176D01*
X75817Y485513D01*
X75154Y484520D01*
X74921Y483350D01*
Y475350D01*
X75154Y474179D01*
X75817Y473187D01*
X76810Y472524D01*
X77980Y472291D01*
X84149D01*
X84921Y471350D01*
Y462350D01*
X85154Y461180D01*
X85817Y460187D01*
X86810Y459524D01*
X87980Y459291D01*
X100480D01*
X101650Y459524D01*
X102643Y460187D01*
X103306Y461180D01*
X103539Y462350D01*
Y471350D01*
X103306Y472520D01*
X102643Y473513D01*
X101650Y474176D01*
X100480Y474409D01*
X90811D01*
X90039Y475350D01*
Y483350D01*
X89806Y484520D01*
X89143Y485513D01*
X88151Y486176D01*
X86980Y486409D01*
D02*
G37*
G36*
X73077Y433438D02*
X71883D01*
X70128Y433089D01*
X69025Y432632D01*
X67536Y431638D01*
X66692Y430794D01*
X65698Y429305D01*
X65241Y428203D01*
X64892Y426447D01*
Y426146D01*
X64833Y425850D01*
X64892Y425555D01*
Y425253D01*
X65241Y423498D01*
X65698Y422395D01*
X66692Y420906D01*
X67536Y420062D01*
X69025Y419068D01*
X70128Y418611D01*
X71883Y418262D01*
X73077D01*
X74833Y418611D01*
X75935Y419068D01*
X77424Y420062D01*
X78268Y420906D01*
X79262Y422395D01*
X79719Y423498D01*
X80068Y425253D01*
Y425555D01*
X80127Y425850D01*
X80068Y426146D01*
Y426447D01*
X79719Y428203D01*
X79262Y429305D01*
X78268Y430794D01*
X77424Y431638D01*
X75935Y432632D01*
X74833Y433089D01*
X73077Y433438D01*
D02*
G37*
G36*
X504500Y506423D02*
X501367Y506011D01*
X498448Y504802D01*
X495942Y502878D01*
X494018Y500372D01*
X492809Y497453D01*
X492397Y494320D01*
X492809Y491187D01*
X494018Y488268D01*
X495942Y485761D01*
X498448Y483838D01*
X501367Y482629D01*
X503595Y482336D01*
X504166Y482261D01*
Y480980D01*
X503595Y480904D01*
X501367Y480611D01*
X498448Y479402D01*
X495942Y477478D01*
X494018Y474972D01*
X492809Y472053D01*
X492397Y468920D01*
X492809Y465787D01*
X494018Y462868D01*
X495942Y460362D01*
X498382Y458489D01*
Y453951D01*
X495942Y452079D01*
X494018Y449572D01*
X492809Y446653D01*
X492397Y443520D01*
X492809Y440387D01*
X494018Y437468D01*
X495942Y434962D01*
X498382Y433088D01*
Y428551D01*
X495942Y426679D01*
X494068Y424238D01*
X489414D01*
X475476Y438176D01*
X473491Y439502D01*
X471150Y439967D01*
X398847D01*
X398393Y441237D01*
X401342Y443658D01*
X404216Y447160D01*
X406352Y451156D01*
X407667Y455491D01*
X408111Y460000D01*
X407667Y464509D01*
X406352Y468844D01*
X404216Y472840D01*
X401342Y476342D01*
X397840Y479216D01*
X393844Y481352D01*
X389509Y482667D01*
X385000Y483111D01*
X380491Y482667D01*
X376156Y481352D01*
X372160Y479216D01*
X368658Y476342D01*
X365784Y472840D01*
X363648Y468844D01*
X362333Y464509D01*
X361889Y460000D01*
X362333Y455491D01*
X363648Y451156D01*
X365784Y447160D01*
X368658Y443658D01*
X371607Y441237D01*
X371153Y439967D01*
X178847D01*
X178393Y441237D01*
X181342Y443658D01*
X184216Y447160D01*
X186352Y451156D01*
X187667Y455491D01*
X188111Y460000D01*
X187667Y464509D01*
X186352Y468844D01*
X184216Y472840D01*
X181342Y476342D01*
X177840Y479216D01*
X173844Y481352D01*
X169509Y482667D01*
X165000Y483111D01*
X160491Y482667D01*
X156156Y481352D01*
X152160Y479216D01*
X148658Y476342D01*
X145784Y472840D01*
X143648Y468844D01*
X142333Y464509D01*
X141889Y460000D01*
X142333Y455491D01*
X143648Y451156D01*
X145784Y447160D01*
X148658Y443658D01*
X151607Y441237D01*
X151153Y439967D01*
X103007D01*
X102643Y440513D01*
X101650Y441176D01*
X100480Y441409D01*
X87980D01*
X86810Y441176D01*
X85817Y440513D01*
X85154Y439520D01*
X84921Y438350D01*
Y429350D01*
X85154Y428180D01*
X85817Y427187D01*
X85927Y427114D01*
Y425586D01*
X85817Y425513D01*
X85154Y424520D01*
X84921Y423350D01*
Y414350D01*
X85154Y413180D01*
X85817Y412187D01*
X86810Y411524D01*
X87980Y411291D01*
X100480D01*
X101650Y411524D01*
X102643Y412187D01*
X103007Y412732D01*
X123616D01*
X138883Y397466D01*
Y320550D01*
X139348Y318209D01*
X140412Y316617D01*
Y305000D01*
X140761Y303244D01*
X141756Y301756D01*
X145412Y298099D01*
Y284213D01*
X145337Y284163D01*
X144674Y283171D01*
X144441Y282000D01*
Y278000D01*
X144674Y276829D01*
X145337Y275837D01*
X145412Y275787D01*
Y259213D01*
X145337Y259163D01*
X144674Y258171D01*
X144441Y257000D01*
Y253000D01*
X144674Y251829D01*
X145337Y250837D01*
X146329Y250174D01*
X147500Y249941D01*
X152500D01*
X153671Y250174D01*
X154663Y250837D01*
X155326Y251829D01*
X155559Y253000D01*
Y257000D01*
X155326Y258171D01*
X154663Y259163D01*
X154588Y259213D01*
Y275787D01*
X154663Y275837D01*
X155326Y276829D01*
X155559Y278000D01*
Y282000D01*
X155326Y283171D01*
X154663Y284163D01*
X154588Y284213D01*
Y300000D01*
X154239Y301756D01*
X153244Y303244D01*
X149588Y306901D01*
Y316617D01*
X150652Y318209D01*
X151118Y320550D01*
Y400000D01*
X150652Y402341D01*
X149326Y404326D01*
X130476Y423176D01*
X128491Y424502D01*
X126150Y424967D01*
X103007D01*
X102643Y425513D01*
X102631Y426763D01*
X103547Y427732D01*
X438882D01*
Y280000D01*
Y170000D01*
X439348Y167659D01*
X440674Y165674D01*
X454204Y152144D01*
X456189Y150818D01*
X458530Y150352D01*
X494068D01*
X495942Y147912D01*
X498448Y145988D01*
X501367Y144779D01*
X503595Y144486D01*
X504166Y144410D01*
Y143130D01*
X503595Y143055D01*
X501367Y142761D01*
X498448Y141552D01*
X495942Y139628D01*
X494018Y137122D01*
X492809Y134203D01*
X492397Y131070D01*
X492809Y127937D01*
X494018Y125018D01*
X495942Y122512D01*
X498448Y120588D01*
X501367Y119379D01*
X503595Y119086D01*
X504166Y119010D01*
Y117730D01*
X503595Y117654D01*
X501367Y117361D01*
X498448Y116152D01*
X495942Y114228D01*
X494018Y111722D01*
X492809Y108803D01*
X492397Y105670D01*
X492809Y102537D01*
X494018Y99618D01*
X495942Y97112D01*
X498448Y95188D01*
X501367Y93979D01*
X504500Y93567D01*
X507633Y93979D01*
X510552Y95188D01*
X513059Y97112D01*
X514982Y99618D01*
X516191Y102537D01*
X516604Y105670D01*
X516191Y108803D01*
X514982Y111722D01*
X513059Y114228D01*
X510552Y116152D01*
X507633Y117361D01*
X505405Y117654D01*
X504834Y117730D01*
Y119010D01*
X505405Y119086D01*
X507633Y119379D01*
X510552Y120588D01*
X513059Y122512D01*
X514982Y125018D01*
X516191Y127937D01*
X516604Y131070D01*
X516191Y134203D01*
X514982Y137122D01*
X513059Y139628D01*
X510552Y141552D01*
X507633Y142761D01*
X505405Y143055D01*
X504834Y143130D01*
Y144410D01*
X505405Y144486D01*
X507633Y144779D01*
X510552Y145988D01*
X513059Y147912D01*
X514982Y150418D01*
X516191Y153337D01*
X516604Y156470D01*
X516191Y159603D01*
X514982Y162522D01*
X513059Y165028D01*
X510552Y166952D01*
X507633Y168161D01*
X505405Y168454D01*
X504834Y168530D01*
Y169811D01*
X505405Y169886D01*
X507633Y170179D01*
X510552Y171388D01*
X513059Y173312D01*
X514982Y175818D01*
X516191Y178737D01*
X516604Y181870D01*
X516191Y185003D01*
X514982Y187922D01*
X513059Y190429D01*
X510552Y192352D01*
X507633Y193561D01*
X504500Y193974D01*
X501367Y193561D01*
X498448Y192352D01*
X495942Y190429D01*
X494018Y187922D01*
X492809Y185003D01*
X492397Y181870D01*
X492809Y178737D01*
X494018Y175818D01*
X495942Y173312D01*
X498448Y171388D01*
X501367Y170179D01*
X503595Y169886D01*
X504166Y169811D01*
Y168530D01*
X503595Y168454D01*
X501367Y168161D01*
X498448Y166952D01*
X495942Y165028D01*
X494068Y162588D01*
X461064D01*
X451118Y172534D01*
Y263572D01*
X452291Y264058D01*
X458754Y257594D01*
X460739Y256268D01*
X463080Y255802D01*
X494068D01*
X495942Y253361D01*
X498448Y251438D01*
X501367Y250229D01*
X504500Y249816D01*
X507633Y250229D01*
X510552Y251438D01*
X513059Y253361D01*
X514982Y255868D01*
X516191Y258787D01*
X516604Y261920D01*
X516191Y265053D01*
X514982Y267972D01*
X513059Y270478D01*
X510552Y272402D01*
X507633Y273611D01*
X505405Y273904D01*
X504834Y273980D01*
Y275261D01*
X505405Y275336D01*
X507633Y275629D01*
X510552Y276838D01*
X513059Y278762D01*
X514982Y281268D01*
X516191Y284187D01*
X516604Y287320D01*
X516191Y290453D01*
X514982Y293372D01*
X513059Y295879D01*
X510552Y297802D01*
X507633Y299011D01*
X505405Y299305D01*
X504834Y299380D01*
Y300660D01*
X505405Y300736D01*
X507633Y301029D01*
X510552Y302238D01*
X513059Y304161D01*
X514982Y306668D01*
X516191Y309587D01*
X516604Y312720D01*
X516191Y315853D01*
X514982Y318772D01*
X513059Y321278D01*
X510552Y323202D01*
X507633Y324411D01*
X505405Y324705D01*
X504834Y324780D01*
Y326060D01*
X505405Y326136D01*
X507633Y326429D01*
X510552Y327638D01*
X513059Y329562D01*
X514982Y332068D01*
X516191Y334987D01*
X516604Y338120D01*
X516191Y341253D01*
X514982Y344172D01*
X513059Y346679D01*
X510552Y348602D01*
X507633Y349811D01*
X504500Y350224D01*
X501367Y349811D01*
X498448Y348602D01*
X495942Y346679D01*
X494018Y344172D01*
X492809Y341253D01*
X492397Y338120D01*
X492809Y334987D01*
X494018Y332068D01*
X495942Y329562D01*
X498448Y327638D01*
X501367Y326429D01*
X503595Y326136D01*
X504166Y326060D01*
Y324780D01*
X503595Y324705D01*
X501367Y324411D01*
X498448Y323202D01*
X495942Y321278D01*
X494018Y318772D01*
X492809Y315853D01*
X492397Y312720D01*
X492809Y309587D01*
X494018Y306668D01*
X495942Y304161D01*
X498448Y302238D01*
X501367Y301029D01*
X503595Y300736D01*
X504166Y300660D01*
Y299380D01*
X503595Y299305D01*
X501367Y299011D01*
X498448Y297802D01*
X495942Y295879D01*
X494018Y293372D01*
X492809Y290453D01*
X492397Y287320D01*
X492809Y284187D01*
X494018Y281268D01*
X495942Y278762D01*
X498448Y276838D01*
X501367Y275629D01*
X503595Y275336D01*
X504166Y275261D01*
Y273980D01*
X503595Y273904D01*
X501367Y273611D01*
X498448Y272402D01*
X495942Y270478D01*
X494068Y268038D01*
X465614D01*
X451118Y282534D01*
Y427732D01*
X468616D01*
X482554Y413794D01*
X484539Y412468D01*
X486880Y412002D01*
X494068D01*
X495942Y409562D01*
X498448Y407638D01*
X501367Y406429D01*
X504500Y406017D01*
X507633Y406429D01*
X510552Y407638D01*
X513059Y409562D01*
X514982Y412068D01*
X516191Y414987D01*
X516604Y418120D01*
X516191Y421253D01*
X514982Y424172D01*
X513059Y426679D01*
X510617Y428551D01*
Y433088D01*
X513059Y434962D01*
X514982Y437468D01*
X516191Y440387D01*
X516604Y443520D01*
X516191Y446653D01*
X514982Y449572D01*
X513059Y452079D01*
X510617Y453951D01*
Y458489D01*
X513059Y460362D01*
X514982Y462868D01*
X516191Y465787D01*
X516604Y468920D01*
X516191Y472053D01*
X514982Y474972D01*
X513059Y477478D01*
X510552Y479402D01*
X507633Y480611D01*
X505405Y480904D01*
X504834Y480980D01*
Y482261D01*
X505405Y482336D01*
X507633Y482629D01*
X510552Y483838D01*
X513059Y485761D01*
X514982Y488268D01*
X516191Y491187D01*
X516604Y494320D01*
X516191Y497453D01*
X514982Y500372D01*
X513059Y502878D01*
X510552Y504802D01*
X507633Y506011D01*
X504500Y506423D01*
D02*
G37*
G36*
X73077Y463438D02*
X71883D01*
X70128Y463089D01*
X69025Y462632D01*
X67536Y461638D01*
X66692Y460794D01*
X65698Y459305D01*
X65241Y458203D01*
X64892Y456447D01*
Y456146D01*
X64833Y455850D01*
X64892Y455555D01*
Y455253D01*
X65241Y453498D01*
X65698Y452395D01*
X66692Y450906D01*
X67536Y450062D01*
X69025Y449068D01*
X70128Y448611D01*
X71883Y448262D01*
X73077D01*
X74833Y448611D01*
X75935Y449068D01*
X77424Y450062D01*
X78268Y450906D01*
X79262Y452395D01*
X79719Y453497D01*
X80068Y455253D01*
Y455555D01*
X80127Y455850D01*
X80068Y456146D01*
Y456447D01*
X79719Y458203D01*
X79262Y459305D01*
X78268Y460794D01*
X77424Y461638D01*
X75935Y462632D01*
X74833Y463089D01*
X73077Y463438D01*
D02*
G37*
%LPD*%
D10*
X94230Y466850D02*
D03*
Y433850D02*
D03*
Y418850D02*
D03*
D11*
X62480Y402350D02*
D03*
X82480D02*
D03*
X62480Y479350D02*
D03*
X82480D02*
D03*
D12*
X291160Y241470D02*
D03*
Y255470D02*
D03*
D13*
X290050Y284360D02*
D03*
Y304360D02*
D03*
D14*
X150000Y255000D02*
D03*
X137000D02*
D03*
X150000Y280000D02*
D03*
X137000D02*
D03*
D15*
X458530Y156470D02*
X504500D01*
X445000Y170000D02*
X458530Y156470D01*
X445000Y170000D02*
Y280000D01*
Y433850D02*
X471150D01*
X94230D02*
X445000D01*
X463080Y261920D02*
X504500D01*
X445000Y280000D02*
X463080Y261920D01*
X445000Y280000D02*
Y433850D01*
X504500Y443520D02*
Y468920D01*
Y418120D02*
Y443520D01*
X486880Y418120D02*
X504500D01*
X471150Y433850D02*
X486880Y418120D01*
X94230Y418850D02*
X126150D01*
X145000Y400000D01*
Y320550D02*
Y400000D01*
D16*
X262300Y80000D02*
Y256610D01*
X290050Y284360D01*
Y304360D02*
X312320D01*
X315810Y300870D01*
Y255470D02*
Y300870D01*
X291160Y255470D02*
X315810D01*
X291160Y217410D02*
Y241470D01*
X287700Y213950D02*
X291160Y217410D01*
X287700Y80000D02*
Y213950D01*
D17*
X109550Y280000D02*
X137000D01*
X107000Y282550D02*
X109550Y280000D01*
X109150Y255000D02*
X137000D01*
X107000Y257150D02*
X109150Y255000D01*
X150000D02*
Y280000D01*
Y300000D01*
X145000Y305000D02*
X150000Y300000D01*
X145000Y305000D02*
Y320550D01*
D18*
X505000Y550000D02*
D03*
X45000D02*
D03*
Y50000D02*
D03*
X505000D02*
D03*
D19*
X165000Y460000D02*
D03*
Y140000D02*
D03*
X385000D02*
D03*
Y460000D02*
D03*
D20*
X504500Y494320D02*
D03*
Y418120D02*
D03*
Y443520D02*
D03*
Y468920D02*
D03*
X107000Y307950D02*
D03*
Y282550D02*
D03*
Y257150D02*
D03*
X504500Y338120D02*
D03*
Y261920D02*
D03*
Y287320D02*
D03*
Y312720D02*
D03*
Y181870D02*
D03*
Y105670D02*
D03*
Y131070D02*
D03*
Y156470D02*
D03*
X313100Y80000D02*
D03*
X287700D02*
D03*
X262300D02*
D03*
D21*
X107000Y333350D02*
D03*
D22*
X236900Y80000D02*
D03*
M02*
