G04 Layer_Color=65535*
%FSLAX44Y44*%
%MOMM*%
G71*
G01*
G75*
%ADD23C,0.2540*%
%ADD24C,0.2000*%
G36*
X477752Y474991D02*
X478181Y474913D01*
X478689Y474757D01*
X479196Y474523D01*
X479743Y474171D01*
X480250Y473742D01*
X480289Y473703D01*
X480445Y473508D01*
X480680Y473234D01*
X480914Y472883D01*
X481148Y472415D01*
X481382Y471868D01*
X481538Y471283D01*
X481577Y470619D01*
Y470580D01*
Y470502D01*
Y470385D01*
X481538Y470228D01*
X481499Y469838D01*
X481382Y469330D01*
X481226Y468823D01*
X480953Y468316D01*
X480601Y467847D01*
X480133Y467496D01*
X480211Y467457D01*
X480367Y467340D01*
X480601Y467144D01*
X480875Y466832D01*
X481109Y466403D01*
X481343Y465895D01*
X481499Y465231D01*
X481577Y464412D01*
Y464372D01*
Y464333D01*
Y464099D01*
X481499Y463748D01*
X481421Y463318D01*
X481265Y462850D01*
X481031Y462303D01*
X480680Y461796D01*
X480250Y461288D01*
X480211Y461249D01*
X480016Y461093D01*
X479743Y460898D01*
X479391Y460664D01*
X478923Y460390D01*
X478376Y460195D01*
X477752Y460039D01*
X477088Y460000D01*
X475839D01*
X475604Y460039D01*
X475292Y460078D01*
X474863Y460156D01*
X474433Y460234D01*
X473887Y460390D01*
X473340Y460586D01*
X473262Y460625D01*
X473067Y460703D01*
X472793Y460859D01*
X472481Y461054D01*
X472169Y461288D01*
X471895Y461601D01*
X471700Y461913D01*
X471661Y462108D01*
X471622Y462303D01*
Y462342D01*
Y462381D01*
X471661Y462577D01*
X471739Y462850D01*
X471895Y463201D01*
Y463240D01*
X471935Y463279D01*
X472130Y463475D01*
X472364Y463631D01*
X472520Y463670D01*
X472715Y463709D01*
X472754D01*
X472832Y463670D01*
X472911Y463631D01*
X473106Y463592D01*
X473340Y463514D01*
X473652Y463357D01*
X474043Y463201D01*
X474082Y463162D01*
X474238Y463123D01*
X474472Y463045D01*
X474745Y462967D01*
X475409Y462772D01*
X475721Y462733D01*
X476034Y462694D01*
X477205D01*
X477322Y462733D01*
X477517Y462772D01*
X477908Y462928D01*
X478103Y463045D01*
X478298Y463201D01*
X478337Y463240D01*
X478376Y463279D01*
X478454Y463396D01*
X478571Y463553D01*
X478767Y463943D01*
X478806Y464177D01*
X478845Y464412D01*
Y464450D01*
Y464568D01*
X478806Y464685D01*
Y464880D01*
X478649Y465309D01*
X478532Y465505D01*
X478376Y465700D01*
X478298Y465778D01*
X478103Y465895D01*
X477752Y466051D01*
X477322Y466168D01*
X475917D01*
X475682Y466246D01*
X475370Y466363D01*
X475097Y466559D01*
X475019Y466637D01*
X474902Y466832D01*
X474785Y467105D01*
X474706Y467496D01*
Y467535D01*
Y467574D01*
X474745Y467808D01*
X474863Y468120D01*
X475097Y468433D01*
X475136Y468472D01*
X475175Y468511D01*
X475253Y468589D01*
X475409Y468667D01*
X475565Y468745D01*
X475799Y468784D01*
X476034Y468862D01*
X477127D01*
X477283Y468901D01*
X477517Y468940D01*
X477947Y469057D01*
X478181Y469174D01*
X478376Y469330D01*
X478415Y469370D01*
X478454Y469409D01*
X478532Y469526D01*
X478610Y469682D01*
X478767Y470072D01*
X478845Y470345D01*
Y470619D01*
Y470658D01*
Y470736D01*
X478806Y470853D01*
X478767Y471048D01*
X478649Y471439D01*
X478493Y471634D01*
X478337Y471829D01*
X478298Y471868D01*
X478259Y471907D01*
X478142Y471985D01*
X477986Y472102D01*
X477595Y472298D01*
X477361Y472337D01*
X477088Y472376D01*
X475721D01*
X475487Y472337D01*
X475214D01*
X474902Y472298D01*
X474511Y472220D01*
X474121Y472141D01*
X474082D01*
X473965Y472102D01*
X473769Y472063D01*
X473535Y472024D01*
X473067Y471829D01*
X472872Y471751D01*
X472715Y471634D01*
X472676D01*
X472637Y471595D01*
X472442Y471556D01*
X472286Y471517D01*
X472169Y471556D01*
X472013Y471634D01*
X471895Y471790D01*
Y471829D01*
X471856Y471868D01*
X471778Y472102D01*
X471661Y472415D01*
X471622Y472727D01*
Y472766D01*
X471661Y472883D01*
X471739Y473078D01*
X471856Y473313D01*
X472091Y473586D01*
X472403Y473898D01*
X472872Y474211D01*
X473184Y474328D01*
X473496Y474484D01*
X473574Y474523D01*
X473730Y474562D01*
X474004Y474679D01*
X474355Y474796D01*
X474745Y474874D01*
X475175Y474991D01*
X475604Y475030D01*
X476034Y475069D01*
X477400D01*
X477752Y474991D01*
D02*
G37*
G36*
X124183Y459311D02*
X130425Y457243D01*
X130445D01*
X130484Y457204D01*
X130562Y457165D01*
X130640Y457126D01*
X130718Y457048D01*
X130796Y456951D01*
X130835Y456853D01*
X130854Y456717D01*
Y454610D01*
Y454590D01*
Y454532D01*
X130835Y454434D01*
X130796Y454337D01*
X130718Y454259D01*
X130640Y454161D01*
X130503Y454103D01*
X130328Y454083D01*
X123929D01*
X123851Y454103D01*
X123754Y454142D01*
X123656Y454220D01*
X123578Y454298D01*
X123519Y454434D01*
X123500Y454610D01*
Y454629D01*
Y454688D01*
X123519Y454785D01*
X123559Y454863D01*
X123617Y454961D01*
X123715Y455059D01*
X123832Y455117D01*
X124007Y455136D01*
X129801D01*
Y456346D01*
X123851Y458316D01*
X123832D01*
X123793Y458336D01*
X123676Y458414D01*
X123617Y458492D01*
X123559Y458570D01*
X123519Y458667D01*
X123500Y458804D01*
Y458823D01*
Y458882D01*
X123519Y458979D01*
X123559Y459058D01*
X123637Y459155D01*
X123715Y459253D01*
X123851Y459311D01*
X124027Y459331D01*
X124085D01*
X124183Y459311D01*
D02*
G37*
G36*
X464556Y475030D02*
X464751Y474991D01*
X465024Y474913D01*
X465298Y474718D01*
X465493Y474484D01*
X465649Y474171D01*
X465727Y473703D01*
Y463396D01*
Y463357D01*
Y463279D01*
X465766Y463162D01*
X465844Y463045D01*
X465961Y462889D01*
X466157Y462772D01*
X466391Y462694D01*
X466742Y462655D01*
X466898D01*
X467094Y462577D01*
X467289Y462499D01*
X467445Y462342D01*
X467640Y462108D01*
X467757Y461757D01*
X467796Y461327D01*
Y461288D01*
X467757Y461132D01*
X467718Y460898D01*
X467640Y460664D01*
X467445Y460429D01*
X467211Y460195D01*
X466859Y460039D01*
X466391Y460000D01*
X466118D01*
X465844Y460078D01*
X465493Y460156D01*
X465142Y460273D01*
X464712Y460468D01*
X464361Y460742D01*
X464010Y461093D01*
X463970Y461054D01*
X463814Y460937D01*
X463619Y460742D01*
X463307Y460547D01*
X462916Y460351D01*
X462448Y460156D01*
X461862Y460039D01*
X461238Y460000D01*
X459090D01*
X458856Y460039D01*
X458505Y460078D01*
X458075Y460156D01*
X457568Y460312D01*
X457060Y460547D01*
X456514Y460820D01*
X456006Y461249D01*
X455967Y461327D01*
X455811Y461483D01*
X455616Y461757D01*
X455382Y462147D01*
X455148Y462577D01*
X454952Y463123D01*
X454796Y463748D01*
X454757Y464412D01*
Y470619D01*
Y470658D01*
Y470697D01*
X454796Y470931D01*
X454835Y471283D01*
X454913Y471712D01*
X455069Y472220D01*
X455304Y472727D01*
X455577Y473274D01*
X456006Y473781D01*
X456084Y473820D01*
X456241Y473976D01*
X456514Y474171D01*
X456904Y474445D01*
X457334Y474679D01*
X457880Y474874D01*
X458505Y475030D01*
X459169Y475069D01*
X464400D01*
X464556Y475030D01*
D02*
G37*
G36*
X292485Y552489D02*
X292876Y552411D01*
X293423Y552255D01*
X293969Y551864D01*
X294360Y551396D01*
X294672Y550771D01*
X294828Y549834D01*
Y512656D01*
Y512578D01*
X294750Y512265D01*
X294672Y511796D01*
X294516Y511328D01*
X294125Y510859D01*
X293657Y510391D01*
X292954Y510078D01*
X292017Y510000D01*
X291939D01*
X291626Y510078D01*
X291157Y510156D01*
X290689Y510312D01*
X290220Y510625D01*
X289752Y511093D01*
X289439Y511796D01*
X289361Y512656D01*
Y547178D01*
X274209D01*
Y512656D01*
Y512578D01*
X274131Y512265D01*
X274053Y511796D01*
X273896Y511328D01*
X273506Y510859D01*
X273037Y510391D01*
X272334Y510078D01*
X271397Y510000D01*
X271319D01*
X271006Y510078D01*
X270538Y510156D01*
X270069Y510312D01*
X269601Y510625D01*
X269132Y511093D01*
X268820Y511796D01*
X268741Y512656D01*
Y549834D01*
Y549990D01*
X268820Y550302D01*
X268898Y550693D01*
X269054Y551240D01*
X269366Y551708D01*
X269835Y552177D01*
X270538Y552489D01*
X271397Y552567D01*
X292173D01*
X292485Y552489D01*
D02*
G37*
G36*
X130503Y475073D02*
X130601Y475034D01*
X130679Y474956D01*
X130776Y474878D01*
X130835Y474741D01*
X130854Y474566D01*
Y474546D01*
Y474488D01*
X130835Y474390D01*
X130796Y474293D01*
X130718Y474215D01*
X130640Y474117D01*
X130503Y474058D01*
X130328Y474039D01*
X127714D01*
Y472986D01*
Y472966D01*
Y472947D01*
Y472830D01*
X127675Y472673D01*
X127635Y472478D01*
X127557Y472244D01*
X127460Y471991D01*
X127304Y471737D01*
X127089Y471503D01*
X127070Y471484D01*
X126972Y471405D01*
X126855Y471308D01*
X126680Y471191D01*
X126465Y471074D01*
X126212Y470976D01*
X125919Y470898D01*
X125607Y470879D01*
X125451D01*
X125295Y470918D01*
X125080Y470957D01*
X124846Y471035D01*
X124592Y471132D01*
X124339Y471288D01*
X124105Y471503D01*
X124085Y471523D01*
X124007Y471620D01*
X123910Y471737D01*
X123812Y471913D01*
X123695Y472127D01*
X123597Y472381D01*
X123519Y472673D01*
X123500Y472986D01*
Y474566D01*
Y474585D01*
Y474644D01*
X123519Y474741D01*
X123559Y474819D01*
X123617Y474917D01*
X123715Y475014D01*
X123832Y475073D01*
X124007Y475092D01*
X130406D01*
X130503Y475073D01*
D02*
G37*
G36*
X133663Y483480D02*
X133761Y483442D01*
X133839Y483383D01*
X133936Y483285D01*
X133995Y483168D01*
X134014Y482993D01*
Y480359D01*
Y480340D01*
Y480301D01*
Y480242D01*
X133995Y480164D01*
X133975Y479969D01*
X133917Y479716D01*
X133839Y479403D01*
X133702Y479091D01*
X133507Y478779D01*
X133254Y478487D01*
X133215Y478448D01*
X133117Y478370D01*
X132961Y478253D01*
X132727Y478097D01*
X132454Y477960D01*
X132142Y477843D01*
X131791Y477765D01*
X131381Y477726D01*
X131264D01*
X131166Y477745D01*
X130932Y477784D01*
X130659Y477843D01*
X130328Y477960D01*
X129976Y478135D01*
X129820Y478253D01*
X129645Y478370D01*
X129489Y478526D01*
X129333Y478701D01*
X129313Y478682D01*
X129294Y478643D01*
X129235Y478565D01*
X129157Y478467D01*
X129079Y478350D01*
X128962Y478233D01*
X128826Y478097D01*
X128669Y477940D01*
X128474Y477804D01*
X128279Y477667D01*
X128065Y477550D01*
X127811Y477433D01*
X127557Y477336D01*
X127265Y477258D01*
X126972Y477219D01*
X126641Y477199D01*
X126524D01*
X126426Y477219D01*
X126309D01*
X126173Y477238D01*
X125880Y477316D01*
X125529Y477433D01*
X125158Y477589D01*
X124768Y477823D01*
X124592Y477980D01*
X124417Y478135D01*
Y478155D01*
X124378Y478175D01*
X124339Y478233D01*
X124280Y478292D01*
X124124Y478487D01*
X123968Y478760D01*
X123793Y479072D01*
X123637Y479462D01*
X123539Y479891D01*
X123519Y480125D01*
X123500Y480359D01*
Y482993D01*
Y483012D01*
Y483071D01*
X123519Y483149D01*
X123559Y483246D01*
X123617Y483344D01*
X123715Y483422D01*
X123832Y483480D01*
X124007Y483500D01*
X133566D01*
X133663Y483480D01*
D02*
G37*
G36*
X130503Y466665D02*
X130601Y466626D01*
X130679Y466548D01*
X130776Y466470D01*
X130835Y466334D01*
X130854Y466158D01*
Y466139D01*
Y466080D01*
X130835Y465983D01*
X130796Y465885D01*
X130718Y465807D01*
X130640Y465709D01*
X130503Y465651D01*
X130328Y465631D01*
X127401D01*
X130698Y462335D01*
X130718Y462315D01*
X130776Y462237D01*
X130835Y462120D01*
X130854Y461964D01*
Y461945D01*
Y461886D01*
X130835Y461788D01*
X130796Y461691D01*
X130718Y461613D01*
X130640Y461515D01*
X130503Y461457D01*
X130328Y461437D01*
X130288D01*
X130211Y461457D01*
X130074Y461496D01*
X129957Y461593D01*
X127635Y463895D01*
X124319Y461535D01*
X124300Y461515D01*
X124222Y461476D01*
X124124Y461457D01*
X124007Y461437D01*
X123929D01*
X123851Y461457D01*
X123754Y461496D01*
X123656Y461574D01*
X123578Y461652D01*
X123519Y461788D01*
X123500Y461964D01*
Y461984D01*
Y462003D01*
X123519Y462120D01*
X123597Y462257D01*
X123637Y462335D01*
X123715Y462393D01*
X126875Y464656D01*
X125899Y465631D01*
X123929D01*
X123851Y465651D01*
X123754Y465690D01*
X123656Y465768D01*
X123578Y465846D01*
X123519Y465983D01*
X123500Y466158D01*
Y466178D01*
Y466236D01*
X123519Y466334D01*
X123559Y466412D01*
X123617Y466509D01*
X123715Y466607D01*
X123832Y466665D01*
X124007Y466685D01*
X130406D01*
X130503Y466665D01*
D02*
G37*
G36*
Y469826D02*
X130601Y469786D01*
X130679Y469708D01*
X130776Y469630D01*
X130835Y469494D01*
X130854Y469318D01*
Y469299D01*
Y469240D01*
X130835Y469143D01*
X130796Y469045D01*
X130718Y468967D01*
X130640Y468870D01*
X130503Y468811D01*
X130328Y468792D01*
X123929D01*
X123851Y468811D01*
X123754Y468850D01*
X123656Y468928D01*
X123578Y469006D01*
X123519Y469143D01*
X123500Y469318D01*
Y469338D01*
Y469396D01*
X123519Y469494D01*
X123559Y469572D01*
X123617Y469669D01*
X123715Y469767D01*
X123832Y469826D01*
X124007Y469845D01*
X130406D01*
X130503Y469826D01*
D02*
G37*
G36*
X444883Y308153D02*
X445259Y308119D01*
X445737Y308016D01*
X446249Y307845D01*
X446830Y307606D01*
X447411Y307264D01*
X447957Y306786D01*
X448026Y306718D01*
X448162Y306547D01*
X448402Y306240D01*
X448675Y305830D01*
X448914Y305351D01*
X449153Y304771D01*
X449290Y304121D01*
X449358Y303404D01*
Y300432D01*
X442150D01*
Y298895D01*
Y298860D01*
Y298792D01*
X442184Y298655D01*
X442218Y298519D01*
X442355Y298177D01*
X442457Y297972D01*
X442594Y297801D01*
X442628Y297767D01*
X442662Y297733D01*
X442765Y297665D01*
X442901Y297596D01*
X443209Y297426D01*
X443414Y297391D01*
X443619Y297357D01*
X448197D01*
X448333Y297323D01*
X448504Y297289D01*
X448743Y297221D01*
X448982Y297050D01*
X449153Y296845D01*
X449290Y296572D01*
X449358Y296161D01*
Y296127D01*
X449324Y295991D01*
X449290Y295786D01*
X449222Y295581D01*
X449051Y295376D01*
X448846Y295171D01*
X448538Y295034D01*
X448128Y295000D01*
X443550D01*
X443345Y295034D01*
X443038Y295068D01*
X442662Y295137D01*
X442218Y295273D01*
X441774Y295478D01*
X441296Y295717D01*
X440852Y296093D01*
X440817Y296161D01*
X440681Y296298D01*
X440510Y296537D01*
X440305Y296879D01*
X440100Y297255D01*
X439929Y297733D01*
X439793Y298280D01*
X439758Y298860D01*
Y303370D01*
Y303404D01*
Y303472D01*
Y303575D01*
X439793Y303712D01*
X439827Y304087D01*
X439929Y304566D01*
X440100Y305078D01*
X440339Y305659D01*
X440681Y306240D01*
X441125Y306786D01*
X441193Y306855D01*
X441364Y306991D01*
X441671Y307230D01*
X442081Y307504D01*
X442560Y307743D01*
X443175Y307982D01*
X443824Y308119D01*
X444541Y308187D01*
X444746D01*
X444883Y308153D01*
D02*
G37*
G36*
X459470Y311774D02*
X459641Y311740D01*
X459880Y311672D01*
X460120Y311501D01*
X460290Y311296D01*
X460427Y311022D01*
X460495Y310613D01*
Y308187D01*
X460769D01*
X461042Y308153D01*
X461418D01*
X461794Y308084D01*
X462203Y308016D01*
X462613Y307948D01*
X462955Y307811D01*
X463023Y307777D01*
X463194Y307709D01*
X463433Y307572D01*
X463741Y307401D01*
X464082Y307128D01*
X464424Y306820D01*
X464800Y306479D01*
X465107Y306035D01*
X465141Y305966D01*
X465244Y305830D01*
X465381Y305590D01*
X465517Y305249D01*
X465654Y304873D01*
X465791Y304429D01*
X465893Y303916D01*
X465927Y303404D01*
Y299783D01*
Y299749D01*
Y299680D01*
Y299578D01*
X465893Y299441D01*
X465859Y299100D01*
X465756Y298621D01*
X465586Y298075D01*
X465312Y297528D01*
X464971Y296947D01*
X464492Y296401D01*
X464424Y296332D01*
X464253Y296196D01*
X463946Y295957D01*
X463536Y295717D01*
X463058Y295444D01*
X462477Y295205D01*
X461794Y295068D01*
X461076Y295000D01*
X460495D01*
Y290764D01*
Y290730D01*
X460461Y290593D01*
X460427Y290388D01*
X460359Y290183D01*
X460188Y289944D01*
X459983Y289773D01*
X459675Y289636D01*
X459266Y289568D01*
X459231D01*
X459095Y289602D01*
X458890Y289636D01*
X458685Y289705D01*
X458480Y289876D01*
X458275Y290081D01*
X458138Y290354D01*
X458104Y290764D01*
Y295000D01*
X457250D01*
X457113Y295034D01*
X456772Y295068D01*
X456293Y295171D01*
X455747Y295342D01*
X455200Y295581D01*
X454619Y295922D01*
X454073Y296367D01*
X454004Y296435D01*
X453868Y296606D01*
X453629Y296913D01*
X453389Y297323D01*
X453116Y297801D01*
X452877Y298416D01*
X452740Y299065D01*
X452672Y299783D01*
Y303370D01*
Y303404D01*
Y303472D01*
Y303575D01*
X452706Y303712D01*
X452740Y304087D01*
X452843Y304566D01*
X453014Y305078D01*
X453253Y305659D01*
X453594Y306240D01*
X454073Y306786D01*
X454141Y306855D01*
X454312Y306991D01*
X454619Y307230D01*
X455029Y307504D01*
X455508Y307743D01*
X456088Y307982D01*
X456737Y308119D01*
X457455Y308187D01*
X458104D01*
Y310613D01*
Y310681D01*
X458138Y310818D01*
X458172Y310988D01*
X458241Y311227D01*
X458377Y311432D01*
X458582Y311637D01*
X458890Y311774D01*
X459266Y311808D01*
X459334D01*
X459470Y311774D01*
D02*
G37*
G36*
X479183Y308119D02*
X479558Y308050D01*
X480002Y307914D01*
X480447Y307709D01*
X480925Y307401D01*
X481369Y307025D01*
X481403Y306991D01*
X481540Y306820D01*
X481745Y306581D01*
X481950Y306274D01*
X482155Y305864D01*
X482360Y305385D01*
X482496Y304873D01*
X482531Y304292D01*
Y296161D01*
Y296127D01*
X482496Y295991D01*
X482462Y295786D01*
X482394Y295581D01*
X482223Y295376D01*
X482018Y295171D01*
X481711Y295034D01*
X481301Y295000D01*
X481266D01*
X481130Y295034D01*
X480925Y295068D01*
X480720Y295137D01*
X480515Y295273D01*
X480310Y295478D01*
X480173Y295786D01*
X480139Y296161D01*
Y304292D01*
Y304326D01*
Y304395D01*
X480105Y304531D01*
X480071Y304668D01*
X479934Y305044D01*
X479832Y305215D01*
X479661Y305385D01*
X479627Y305420D01*
X479593Y305454D01*
X479490Y305522D01*
X479353Y305625D01*
X479012Y305761D01*
X478841Y305795D01*
X478602Y305830D01*
X477099D01*
Y296161D01*
Y296127D01*
X477064Y295991D01*
X477030Y295786D01*
X476962Y295581D01*
X476791Y295376D01*
X476586Y295171D01*
X476279Y295034D01*
X475869Y295000D01*
X475835D01*
X475698Y295034D01*
X475493Y295068D01*
X475288Y295137D01*
X475083Y295273D01*
X474878Y295478D01*
X474741Y295786D01*
X474707Y296161D01*
Y305830D01*
X471667D01*
Y296161D01*
Y296127D01*
X471632Y295991D01*
X471598Y295786D01*
X471530Y295581D01*
X471359Y295376D01*
X471154Y295171D01*
X470847Y295034D01*
X470437Y295000D01*
X470403D01*
X470266Y295034D01*
X470061Y295068D01*
X469856Y295137D01*
X469651Y295273D01*
X469446Y295478D01*
X469309Y295786D01*
X469275Y296161D01*
Y306991D01*
Y307059D01*
X469309Y307196D01*
X469344Y307367D01*
X469412Y307606D01*
X469548Y307811D01*
X469753Y308016D01*
X470061Y308153D01*
X470437Y308187D01*
X478875D01*
X479183Y308119D01*
D02*
G37*
G36*
X487245Y308153D02*
X487416Y308119D01*
X487655Y308050D01*
X487894Y307879D01*
X488065Y307675D01*
X488201Y307401D01*
X488270Y306991D01*
Y302789D01*
X491823D01*
X492130Y302721D01*
X492506Y302652D01*
X492950Y302516D01*
X493394Y302311D01*
X493873Y302003D01*
X494317Y301628D01*
X494351Y301593D01*
X494487Y301423D01*
X494692Y301183D01*
X494897Y300876D01*
X495103Y300466D01*
X495307Y299988D01*
X495444Y299475D01*
X495478Y298895D01*
Y298860D01*
Y298826D01*
Y298621D01*
X495410Y298314D01*
X495342Y297938D01*
X495205Y297494D01*
X495000Y297050D01*
X494692Y296572D01*
X494317Y296127D01*
X494283Y296093D01*
X494112Y295957D01*
X493873Y295786D01*
X493565Y295581D01*
X493155Y295342D01*
X492677Y295171D01*
X492130Y295034D01*
X491549Y295000D01*
X487006D01*
X486869Y295034D01*
X486664Y295068D01*
X486459Y295137D01*
X486254Y295273D01*
X486049Y295478D01*
X485913Y295786D01*
X485878Y296161D01*
Y306991D01*
Y307059D01*
X485913Y307196D01*
X485947Y307367D01*
X486015Y307606D01*
X486152Y307811D01*
X486357Y308016D01*
X486664Y308153D01*
X487040Y308187D01*
X487108D01*
X487245Y308153D01*
D02*
G37*
G36*
X435386Y313585D02*
X435556Y313550D01*
X435796Y313482D01*
X436035Y313311D01*
X436205Y313106D01*
X436342Y312833D01*
X436410Y312423D01*
Y296161D01*
Y296127D01*
X436376Y295991D01*
X436342Y295786D01*
X436274Y295581D01*
X436103Y295376D01*
X435898Y295171D01*
X435591Y295034D01*
X435181Y295000D01*
X435146D01*
X435010Y295034D01*
X434805Y295068D01*
X434600Y295137D01*
X434395Y295273D01*
X434190Y295478D01*
X434053Y295786D01*
X434019Y296161D01*
Y304019D01*
X427391D01*
Y296161D01*
Y296127D01*
X427357Y295991D01*
X427323Y295786D01*
X427255Y295581D01*
X427084Y295376D01*
X426879Y295171D01*
X426572Y295034D01*
X426161Y295000D01*
X426127D01*
X425991Y295034D01*
X425786Y295068D01*
X425581Y295137D01*
X425376Y295273D01*
X425171Y295478D01*
X425034Y295786D01*
X425000Y296161D01*
Y312423D01*
Y312491D01*
X425034Y312628D01*
X425068Y312799D01*
X425137Y313038D01*
X425273Y313243D01*
X425478Y313448D01*
X425786Y313585D01*
X426161Y313619D01*
X426230D01*
X426367Y313585D01*
X426537Y313550D01*
X426777Y313482D01*
X427016Y313311D01*
X427186Y313106D01*
X427323Y312833D01*
X427391Y312423D01*
Y306376D01*
X434019D01*
Y312423D01*
Y312491D01*
X434053Y312628D01*
X434087Y312799D01*
X434156Y313038D01*
X434292Y313243D01*
X434497Y313448D01*
X434805Y313585D01*
X435181Y313619D01*
X435249D01*
X435386Y313585D01*
D02*
G37*
G36*
X449799Y481238D02*
X449994Y481199D01*
X450267Y481120D01*
X450541Y480925D01*
X450736Y480691D01*
X450892Y480379D01*
X450970Y479910D01*
Y479871D01*
X450931Y479715D01*
X450892Y479481D01*
X450814Y479247D01*
X450619Y479012D01*
X450385Y478778D01*
X450033Y478622D01*
X449565Y478583D01*
X442733D01*
Y461327D01*
Y461288D01*
X442694Y461132D01*
X442655Y460898D01*
X442577Y460664D01*
X442381Y460429D01*
X442147Y460195D01*
X441796Y460039D01*
X441327Y460000D01*
X441288D01*
X441132Y460039D01*
X440898Y460078D01*
X440664Y460156D01*
X440429Y460312D01*
X440195Y460547D01*
X440039Y460898D01*
X440000Y461327D01*
Y479910D01*
Y479988D01*
X440039Y480145D01*
X440078Y480340D01*
X440156Y480613D01*
X440312Y480847D01*
X440547Y481082D01*
X440898Y481238D01*
X441327Y481277D01*
X449643D01*
X449799Y481238D01*
D02*
G37*
G36*
X326227Y552489D02*
X326617Y552411D01*
X327164Y552255D01*
X327711Y551864D01*
X328101Y551396D01*
X328414Y550771D01*
X328570Y549834D01*
Y512656D01*
Y512578D01*
X328492Y512265D01*
X328414Y511796D01*
X328257Y511328D01*
X327867Y510859D01*
X327398Y510391D01*
X326695Y510078D01*
X325758Y510000D01*
X325680D01*
X325368Y510078D01*
X324899Y510156D01*
X324430Y510312D01*
X323962Y510625D01*
X323493Y511093D01*
X323181Y511796D01*
X323102Y512656D01*
Y530620D01*
X307950D01*
Y512656D01*
Y512578D01*
X307872Y512265D01*
X307794Y511796D01*
X307638Y511328D01*
X307247Y510859D01*
X306779Y510391D01*
X306076Y510078D01*
X305138Y510000D01*
X305060D01*
X304748Y510078D01*
X304279Y510156D01*
X303811Y510312D01*
X303342Y510625D01*
X302873Y511093D01*
X302561Y511796D01*
X302483Y512656D01*
Y549834D01*
Y549990D01*
X302561Y550302D01*
X302639Y550693D01*
X302795Y551240D01*
X303108Y551708D01*
X303576Y552177D01*
X304279Y552489D01*
X305138Y552567D01*
X305294D01*
X305607Y552489D01*
X305998Y552411D01*
X306544Y552255D01*
X307091Y551864D01*
X307481Y551396D01*
X307794Y550771D01*
X307950Y549834D01*
Y536009D01*
X323102D01*
Y549834D01*
Y549990D01*
X323181Y550302D01*
X323259Y550693D01*
X323415Y551240D01*
X323727Y551708D01*
X324196Y552177D01*
X324899Y552489D01*
X325758Y552567D01*
X325914D01*
X326227Y552489D01*
D02*
G37*
G36*
X258744D02*
X259135Y552411D01*
X259681Y552255D01*
X260228Y551864D01*
X260618Y551396D01*
X260931Y550771D01*
X261087Y549834D01*
Y518826D01*
Y518748D01*
Y518670D01*
Y518201D01*
X260931Y517498D01*
X260775Y516639D01*
X260462Y515702D01*
X259994Y514608D01*
X259291Y513593D01*
X258431Y512578D01*
X258353Y512499D01*
X257963Y512187D01*
X257416Y511796D01*
X256713Y511328D01*
X255776Y510781D01*
X254683Y510391D01*
X253433Y510078D01*
X252105Y510000D01*
X241717D01*
X241405Y510078D01*
X240936Y510156D01*
X240467Y510312D01*
X239921Y510625D01*
X239530Y511093D01*
X239218Y511796D01*
X239062Y512656D01*
Y512812D01*
X239140Y513124D01*
X239218Y513515D01*
X239374Y514062D01*
X239764Y514530D01*
X240233Y514999D01*
X240858Y515311D01*
X241795Y515389D01*
X252339D01*
X252574Y515467D01*
X252964Y515546D01*
X253745Y515858D01*
X254136Y516092D01*
X254526Y516405D01*
X254604Y516483D01*
X254683Y516561D01*
X254839Y516795D01*
X255073Y517108D01*
X255464Y517889D01*
X255542Y518357D01*
X255620Y518826D01*
Y526480D01*
X245700D01*
X245310Y526558D01*
X244919D01*
X244373Y526636D01*
X243826Y526793D01*
X242420Y527183D01*
X241639Y527495D01*
X240858Y527886D01*
X240077Y528277D01*
X239296Y528823D01*
X238515Y529526D01*
X237734Y530229D01*
X237031Y531088D01*
X236406Y532104D01*
X236328Y532182D01*
X236172Y532494D01*
X235937Y532963D01*
X235703Y533588D01*
X235469Y534369D01*
X235234Y535306D01*
X235078Y536321D01*
X235000Y537415D01*
Y549834D01*
Y549990D01*
X235078Y550302D01*
X235156Y550693D01*
X235312Y551240D01*
X235625Y551708D01*
X236094Y552177D01*
X236796Y552489D01*
X237656Y552567D01*
X237812D01*
X238124Y552489D01*
X238515Y552411D01*
X239062Y552255D01*
X239608Y551864D01*
X239999Y551396D01*
X240311Y550771D01*
X240467Y549834D01*
Y537415D01*
Y537337D01*
Y537024D01*
X240546Y536556D01*
X240702Y536009D01*
X240858Y535384D01*
X241092Y534759D01*
X241483Y534056D01*
X242029Y533432D01*
X242108Y533353D01*
X242342Y533197D01*
X242654Y532963D01*
X243123Y532650D01*
X243670Y532338D01*
X244373Y532104D01*
X245154Y531948D01*
X245935Y531869D01*
X255620D01*
Y549834D01*
Y549990D01*
X255698Y550302D01*
X255776Y550693D01*
X255932Y551240D01*
X256245Y551708D01*
X256713Y552177D01*
X257416Y552489D01*
X258275Y552567D01*
X258431D01*
X258744Y552489D01*
D02*
G37*
G36*
X118631Y222530D02*
X118826Y222491D01*
X119099Y222413D01*
X119372Y222218D01*
X119567Y221984D01*
X119724Y221672D01*
X119802Y221203D01*
Y216401D01*
X123862D01*
X124213Y216323D01*
X124643Y216245D01*
X125150Y216089D01*
X125658Y215854D01*
X126204Y215503D01*
X126712Y215074D01*
X126751Y215035D01*
X126907Y214839D01*
X127141Y214566D01*
X127375Y214215D01*
X127610Y213746D01*
X127844Y213200D01*
X128000Y212614D01*
X128039Y211951D01*
Y211912D01*
Y211873D01*
Y211638D01*
X127961Y211287D01*
X127883Y210857D01*
X127727Y210350D01*
X127493Y209842D01*
X127141Y209296D01*
X126712Y208788D01*
X126673Y208749D01*
X126477Y208593D01*
X126204Y208398D01*
X125853Y208164D01*
X125384Y207890D01*
X124838Y207695D01*
X124213Y207539D01*
X123549Y207500D01*
X118357D01*
X118201Y207539D01*
X117967Y207578D01*
X117733Y207656D01*
X117498Y207812D01*
X117264Y208047D01*
X117108Y208398D01*
X117069Y208827D01*
Y221203D01*
Y221281D01*
X117108Y221437D01*
X117147Y221632D01*
X117225Y221906D01*
X117381Y222140D01*
X117615Y222374D01*
X117967Y222530D01*
X118396Y222569D01*
X118474D01*
X118631Y222530D01*
D02*
G37*
G36*
X486178Y180030D02*
X486373Y179991D01*
X486647Y179913D01*
X486920Y179718D01*
X487115Y179484D01*
X487271Y179171D01*
X487350Y178703D01*
Y168396D01*
Y168357D01*
Y168279D01*
X487388Y168162D01*
X487467Y168045D01*
X487584Y167889D01*
X487779Y167772D01*
X488013Y167694D01*
X488364Y167655D01*
X488521D01*
X488716Y167577D01*
X488911Y167498D01*
X489067Y167342D01*
X489262Y167108D01*
X489380Y166757D01*
X489419Y166327D01*
Y166288D01*
X489380Y166132D01*
X489341Y165898D01*
X489262Y165664D01*
X489067Y165429D01*
X488833Y165195D01*
X488482Y165039D01*
X488013Y165000D01*
X487740D01*
X487467Y165078D01*
X487115Y165156D01*
X486764Y165273D01*
X486334Y165469D01*
X485983Y165742D01*
X485632Y166093D01*
X485593Y166054D01*
X485437Y165937D01*
X485241Y165742D01*
X484929Y165547D01*
X484539Y165351D01*
X484070Y165156D01*
X483484Y165039D01*
X482860Y165000D01*
X480713D01*
X480479Y165039D01*
X480127Y165078D01*
X479698Y165156D01*
X479190Y165312D01*
X478683Y165547D01*
X478136Y165820D01*
X477629Y166249D01*
X477589Y166327D01*
X477433Y166483D01*
X477238Y166757D01*
X477004Y167147D01*
X476770Y167577D01*
X476575Y168123D01*
X476418Y168748D01*
X476379Y169412D01*
Y175619D01*
Y175658D01*
Y175697D01*
X476418Y175931D01*
X476457Y176283D01*
X476535Y176712D01*
X476692Y177220D01*
X476926Y177727D01*
X477199Y178274D01*
X477629Y178781D01*
X477707Y178820D01*
X477863Y178976D01*
X478136Y179171D01*
X478526Y179445D01*
X478956Y179679D01*
X479502Y179874D01*
X480127Y180030D01*
X480791Y180069D01*
X486022D01*
X486178Y180030D01*
D02*
G37*
G36*
X70221Y222530D02*
X70651Y222491D01*
X71197Y222374D01*
X71783Y222179D01*
X72446Y221906D01*
X73110Y221515D01*
X73735Y220969D01*
X73813Y220891D01*
X73969Y220695D01*
X74242Y220344D01*
X74555Y219876D01*
X74828Y219329D01*
X75101Y218665D01*
X75257Y217924D01*
X75335Y217104D01*
Y213707D01*
X67098D01*
Y211951D01*
Y211912D01*
Y211833D01*
X67137Y211677D01*
X67176Y211521D01*
X67332Y211131D01*
X67449Y210896D01*
X67606Y210701D01*
X67645Y210662D01*
X67684Y210623D01*
X67801Y210545D01*
X67957Y210467D01*
X68308Y210272D01*
X68542Y210233D01*
X68777Y210194D01*
X74008D01*
X74164Y210155D01*
X74359Y210116D01*
X74633Y210038D01*
X74906Y209842D01*
X75101Y209608D01*
X75257Y209296D01*
X75335Y208827D01*
Y208788D01*
X75296Y208632D01*
X75257Y208398D01*
X75179Y208164D01*
X74984Y207929D01*
X74750Y207695D01*
X74398Y207539D01*
X73930Y207500D01*
X68699D01*
X68464Y207539D01*
X68113Y207578D01*
X67684Y207656D01*
X67176Y207812D01*
X66669Y208047D01*
X66122Y208320D01*
X65615Y208749D01*
X65575Y208827D01*
X65419Y208983D01*
X65224Y209257D01*
X64990Y209647D01*
X64756Y210077D01*
X64560Y210623D01*
X64404Y211248D01*
X64365Y211912D01*
Y217065D01*
Y217104D01*
Y217182D01*
Y217299D01*
X64404Y217455D01*
X64443Y217885D01*
X64560Y218431D01*
X64756Y219017D01*
X65029Y219680D01*
X65419Y220344D01*
X65927Y220969D01*
X66005Y221047D01*
X66200Y221203D01*
X66551Y221476D01*
X67020Y221789D01*
X67566Y222062D01*
X68269Y222335D01*
X69011Y222491D01*
X69831Y222569D01*
X70065D01*
X70221Y222530D01*
D02*
G37*
G36*
X109417Y222491D02*
X109847Y222413D01*
X110354Y222257D01*
X110862Y222023D01*
X111408Y221672D01*
X111916Y221242D01*
X111955Y221203D01*
X112111Y221008D01*
X112345Y220735D01*
X112579Y220383D01*
X112814Y219915D01*
X113048Y219368D01*
X113204Y218783D01*
X113243Y218119D01*
Y208827D01*
Y208788D01*
X113204Y208632D01*
X113165Y208398D01*
X113087Y208164D01*
X112892Y207929D01*
X112657Y207695D01*
X112306Y207539D01*
X111838Y207500D01*
X111799D01*
X111642Y207539D01*
X111408Y207578D01*
X111174Y207656D01*
X110940Y207812D01*
X110705Y208047D01*
X110549Y208398D01*
X110510Y208827D01*
Y218119D01*
Y218158D01*
Y218236D01*
X110471Y218392D01*
X110432Y218548D01*
X110276Y218978D01*
X110159Y219173D01*
X109964Y219368D01*
X109925Y219407D01*
X109886Y219446D01*
X109768Y219524D01*
X109612Y219641D01*
X109222Y219798D01*
X109027Y219837D01*
X108753Y219876D01*
X107036D01*
Y208827D01*
Y208788D01*
X106997Y208632D01*
X106958Y208398D01*
X106880Y208164D01*
X106684Y207929D01*
X106450Y207695D01*
X106099Y207539D01*
X105630Y207500D01*
X105591D01*
X105435Y207539D01*
X105201Y207578D01*
X104967Y207656D01*
X104732Y207812D01*
X104498Y208047D01*
X104342Y208398D01*
X104303Y208827D01*
Y219876D01*
X100828D01*
Y208827D01*
Y208788D01*
X100789Y208632D01*
X100750Y208398D01*
X100672Y208164D01*
X100477Y207929D01*
X100243Y207695D01*
X99891Y207539D01*
X99423Y207500D01*
X99384D01*
X99228Y207539D01*
X98994Y207578D01*
X98759Y207656D01*
X98525Y207812D01*
X98291Y208047D01*
X98135Y208398D01*
X98096Y208827D01*
Y221203D01*
Y221281D01*
X98135Y221437D01*
X98174Y221632D01*
X98252Y221906D01*
X98408Y222140D01*
X98642Y222374D01*
X98994Y222530D01*
X99423Y222569D01*
X109066D01*
X109417Y222491D01*
D02*
G37*
G36*
X436871Y186238D02*
X437300Y186199D01*
X437847Y186082D01*
X438472Y185886D01*
X439135Y185613D01*
X439799Y185223D01*
X440424Y184676D01*
X440502Y184598D01*
X440658Y184403D01*
X440931Y184051D01*
X441244Y183583D01*
X441517Y183036D01*
X441790Y182373D01*
X441946Y181592D01*
X442024Y180772D01*
Y180733D01*
Y180655D01*
Y180538D01*
X441985Y180343D01*
X441907Y179874D01*
X441790Y179289D01*
X441556Y178664D01*
X441204Y178000D01*
X440970Y177649D01*
X440736Y177337D01*
X440424Y177063D01*
X440072Y176790D01*
X440111D01*
X440189Y176712D01*
X440346Y176634D01*
X440541Y176478D01*
X440775Y176283D01*
X441009Y176087D01*
X441283Y175814D01*
X441556Y175502D01*
X441829Y175150D01*
X442102Y174760D01*
X442337Y174331D01*
X442571Y173862D01*
X442766Y173316D01*
X442922Y172769D01*
X443000Y172144D01*
X443039Y171481D01*
Y171442D01*
Y171364D01*
Y171207D01*
X443000Y171012D01*
Y170817D01*
X442922Y170544D01*
X442805Y169880D01*
X442571Y169177D01*
X442220Y168396D01*
X442024Y168006D01*
X441751Y167616D01*
X441478Y167225D01*
X441126Y166874D01*
X441087Y166835D01*
X441048Y166796D01*
X440931Y166718D01*
X440775Y166601D01*
X440385Y166288D01*
X439838Y165937D01*
X439135Y165586D01*
X438354Y165312D01*
X437457Y165078D01*
X436988Y165039D01*
X436481Y165000D01*
X431288D01*
X431132Y165039D01*
X430898Y165078D01*
X430664Y165156D01*
X430429Y165312D01*
X430195Y165547D01*
X430039Y165898D01*
X430000Y166327D01*
Y184910D01*
Y184988D01*
X430039Y185145D01*
X430078Y185340D01*
X430156Y185613D01*
X430312Y185847D01*
X430547Y186082D01*
X430898Y186238D01*
X431327Y186277D01*
X436715D01*
X436871Y186238D01*
D02*
G37*
G36*
X59368Y228738D02*
X59563Y228699D01*
X59837Y228620D01*
X60110Y228425D01*
X60305Y228191D01*
X60461Y227879D01*
X60539Y227410D01*
Y208827D01*
Y208788D01*
X60500Y208632D01*
X60461Y208398D01*
X60383Y208164D01*
X60188Y207929D01*
X59954Y207695D01*
X59602Y207539D01*
X59134Y207500D01*
X59095D01*
X58939Y207539D01*
X58704Y207578D01*
X58470Y207656D01*
X58236Y207812D01*
X58002Y208047D01*
X57846Y208398D01*
X57807Y208827D01*
Y217806D01*
X50233D01*
Y208827D01*
Y208788D01*
X50194Y208632D01*
X50155Y208398D01*
X50077Y208164D01*
X49881Y207929D01*
X49647Y207695D01*
X49296Y207539D01*
X48827Y207500D01*
X48788D01*
X48632Y207539D01*
X48398Y207578D01*
X48164Y207656D01*
X47929Y207812D01*
X47695Y208047D01*
X47539Y208398D01*
X47500Y208827D01*
Y227410D01*
Y227488D01*
X47539Y227645D01*
X47578Y227840D01*
X47656Y228113D01*
X47812Y228347D01*
X48047Y228582D01*
X48398Y228738D01*
X48827Y228777D01*
X48905D01*
X49062Y228738D01*
X49257Y228699D01*
X49530Y228620D01*
X49803Y228425D01*
X49999Y228191D01*
X50155Y227879D01*
X50233Y227410D01*
Y220500D01*
X57807D01*
Y227410D01*
Y227488D01*
X57846Y227645D01*
X57885Y227840D01*
X57963Y228113D01*
X58119Y228347D01*
X58353Y228582D01*
X58704Y228738D01*
X59134Y228777D01*
X59212D01*
X59368Y228738D01*
D02*
G37*
G36*
X468767Y186199D02*
X469196Y186120D01*
X469703Y185964D01*
X470211Y185730D01*
X470758Y185379D01*
X471265Y184949D01*
X471304Y184910D01*
X471460Y184715D01*
X471694Y184442D01*
X471929Y184090D01*
X472163Y183622D01*
X472397Y183075D01*
X472553Y182490D01*
X472592Y181826D01*
Y169412D01*
Y169373D01*
Y169333D01*
Y169099D01*
X472514Y168748D01*
X472436Y168318D01*
X472280Y167850D01*
X472046Y167303D01*
X471694Y166796D01*
X471265Y166288D01*
X471226Y166249D01*
X471031Y166093D01*
X470758Y165898D01*
X470406Y165664D01*
X469938Y165390D01*
X469391Y165195D01*
X468767Y165039D01*
X468103Y165000D01*
X465956D01*
X465721Y165039D01*
X465370Y165078D01*
X464941Y165156D01*
X464433Y165312D01*
X463926Y165547D01*
X463379Y165859D01*
X462872Y166288D01*
X462832Y166366D01*
X462676Y166523D01*
X462481Y166796D01*
X462247Y167147D01*
X462013Y167616D01*
X461817Y168162D01*
X461661Y168748D01*
X461622Y169412D01*
Y175619D01*
Y175658D01*
Y175697D01*
X461661Y175931D01*
X461700Y176283D01*
X461778Y176712D01*
X461935Y177220D01*
X462169Y177727D01*
X462481Y178274D01*
X462911Y178781D01*
X462989Y178820D01*
X463145Y178976D01*
X463418Y179171D01*
X463769Y179445D01*
X464238Y179679D01*
X464785Y179874D01*
X465370Y180030D01*
X466034Y180069D01*
X469860D01*
Y181826D01*
Y181865D01*
Y181943D01*
X469821Y182099D01*
X469782Y182256D01*
X469664Y182685D01*
X469508Y182880D01*
X469352Y183075D01*
X469313Y183114D01*
X469274Y183153D01*
X469157Y183232D01*
X469001Y183349D01*
X468610Y183505D01*
X468376Y183544D01*
X468103Y183583D01*
X464980D01*
X464823Y183622D01*
X464589Y183661D01*
X464355Y183739D01*
X464121Y183895D01*
X463886Y184130D01*
X463730Y184481D01*
X463691Y184910D01*
Y184988D01*
X463730Y185145D01*
X463769Y185340D01*
X463848Y185613D01*
X464004Y185847D01*
X464238Y186082D01*
X464589Y186238D01*
X465019Y186277D01*
X468415D01*
X468767Y186199D01*
D02*
G37*
G36*
X452721Y180030D02*
X453151Y179991D01*
X453697Y179874D01*
X454283Y179679D01*
X454946Y179406D01*
X455610Y179015D01*
X456235Y178469D01*
X456313Y178391D01*
X456469Y178195D01*
X456742Y177844D01*
X457055Y177376D01*
X457328Y176829D01*
X457601Y176165D01*
X457757Y175385D01*
X457835Y174565D01*
Y170466D01*
Y170427D01*
Y170348D01*
Y170231D01*
X457796Y170075D01*
X457757Y169685D01*
X457640Y169138D01*
X457445Y168514D01*
X457133Y167889D01*
X456742Y167225D01*
X456196Y166601D01*
X456118Y166523D01*
X455922Y166366D01*
X455571Y166093D01*
X455103Y165820D01*
X454556Y165508D01*
X453892Y165234D01*
X453151Y165078D01*
X452331Y165000D01*
X452096D01*
X451940Y165039D01*
X451511Y165078D01*
X450964Y165195D01*
X450379Y165390D01*
X449715Y165664D01*
X449051Y166054D01*
X448427Y166562D01*
X448349Y166640D01*
X448193Y166835D01*
X447919Y167186D01*
X447646Y167655D01*
X447373Y168201D01*
X447099Y168904D01*
X446943Y169646D01*
X446865Y170466D01*
Y174565D01*
Y174604D01*
Y174682D01*
Y174799D01*
X446904Y174955D01*
X446943Y175385D01*
X447060Y175931D01*
X447256Y176517D01*
X447529Y177180D01*
X447919Y177844D01*
X448427Y178469D01*
X448505Y178547D01*
X448700Y178703D01*
X449051Y178976D01*
X449520Y179289D01*
X450066Y179562D01*
X450769Y179835D01*
X451511Y179991D01*
X452331Y180069D01*
X452565D01*
X452721Y180030D01*
D02*
G37*
G36*
X86891Y226669D02*
X87086Y226630D01*
X87360Y226551D01*
X87633Y226356D01*
X87828Y226122D01*
X87984Y225810D01*
X88062Y225341D01*
Y222569D01*
X88375D01*
X88687Y222530D01*
X89116D01*
X89546Y222452D01*
X90014Y222374D01*
X90483Y222296D01*
X90873Y222140D01*
X90951Y222101D01*
X91146Y222023D01*
X91420Y221867D01*
X91771Y221672D01*
X92162Y221359D01*
X92552Y221008D01*
X92981Y220617D01*
X93333Y220110D01*
X93372Y220032D01*
X93489Y219876D01*
X93645Y219602D01*
X93801Y219212D01*
X93957Y218783D01*
X94114Y218275D01*
X94231Y217689D01*
X94270Y217104D01*
Y212966D01*
Y212927D01*
Y212848D01*
Y212731D01*
X94231Y212575D01*
X94192Y212185D01*
X94074Y211638D01*
X93879Y211014D01*
X93567Y210389D01*
X93177Y209725D01*
X92630Y209101D01*
X92552Y209023D01*
X92357Y208866D01*
X92005Y208593D01*
X91537Y208320D01*
X90990Y208008D01*
X90327Y207734D01*
X89546Y207578D01*
X88726Y207500D01*
X88062D01*
Y202659D01*
Y202620D01*
X88023Y202464D01*
X87984Y202230D01*
X87906Y201995D01*
X87711Y201722D01*
X87477Y201527D01*
X87125Y201371D01*
X86657Y201293D01*
X86618D01*
X86462Y201332D01*
X86228Y201371D01*
X85993Y201449D01*
X85759Y201644D01*
X85525Y201878D01*
X85369Y202191D01*
X85330Y202659D01*
Y207500D01*
X84354D01*
X84197Y207539D01*
X83807Y207578D01*
X83260Y207695D01*
X82636Y207890D01*
X82011Y208164D01*
X81348Y208554D01*
X80723Y209062D01*
X80645Y209140D01*
X80489Y209335D01*
X80215Y209686D01*
X79942Y210155D01*
X79630Y210701D01*
X79356Y211404D01*
X79200Y212146D01*
X79122Y212966D01*
Y217065D01*
Y217104D01*
Y217182D01*
Y217299D01*
X79161Y217455D01*
X79200Y217885D01*
X79317Y218431D01*
X79513Y219017D01*
X79786Y219680D01*
X80176Y220344D01*
X80723Y220969D01*
X80801Y221047D01*
X80996Y221203D01*
X81348Y221476D01*
X81816Y221789D01*
X82362Y222062D01*
X83026Y222335D01*
X83768Y222491D01*
X84588Y222569D01*
X85330D01*
Y225341D01*
Y225419D01*
X85369Y225575D01*
X85408Y225771D01*
X85486Y226044D01*
X85642Y226278D01*
X85876Y226512D01*
X86228Y226669D01*
X86657Y226708D01*
X86735D01*
X86891Y226669D01*
D02*
G37*
G36*
X129753Y421073D02*
X129851Y421034D01*
X129929Y420956D01*
X130026Y420878D01*
X130085Y420741D01*
X130104Y420566D01*
Y420546D01*
Y420488D01*
X130085Y420390D01*
X130046Y420293D01*
X129968Y420215D01*
X129890Y420117D01*
X129753Y420059D01*
X129578Y420039D01*
X126651D01*
X129948Y416742D01*
X129968Y416723D01*
X130026Y416645D01*
X130085Y416528D01*
X130104Y416372D01*
Y416352D01*
Y416294D01*
X130085Y416196D01*
X130046Y416099D01*
X129968Y416021D01*
X129890Y415923D01*
X129753Y415864D01*
X129578Y415845D01*
X129538D01*
X129460Y415864D01*
X129324Y415904D01*
X129207Y416001D01*
X126885Y418303D01*
X123569Y415942D01*
X123550Y415923D01*
X123472Y415884D01*
X123374Y415864D01*
X123257Y415845D01*
X123179D01*
X123101Y415864D01*
X123004Y415904D01*
X122906Y415981D01*
X122828Y416059D01*
X122769Y416196D01*
X122750Y416372D01*
Y416391D01*
Y416411D01*
X122769Y416528D01*
X122847Y416664D01*
X122886Y416742D01*
X122965Y416801D01*
X126125Y419064D01*
X125149Y420039D01*
X123179D01*
X123101Y420059D01*
X123004Y420098D01*
X122906Y420176D01*
X122828Y420254D01*
X122769Y420390D01*
X122750Y420566D01*
Y420585D01*
Y420644D01*
X122769Y420741D01*
X122809Y420819D01*
X122867Y420917D01*
X122965Y421014D01*
X123082Y421073D01*
X123257Y421092D01*
X129656D01*
X129753Y421073D01*
D02*
G37*
G36*
X123433Y413719D02*
X129675Y411651D01*
X129695D01*
X129734Y411612D01*
X129812Y411573D01*
X129890Y411534D01*
X129968Y411456D01*
X130046Y411358D01*
X130085Y411261D01*
X130104Y411124D01*
Y409017D01*
Y408998D01*
Y408939D01*
X130085Y408842D01*
X130046Y408744D01*
X129968Y408666D01*
X129890Y408569D01*
X129753Y408510D01*
X129578Y408491D01*
X123179D01*
X123101Y408510D01*
X123004Y408549D01*
X122906Y408627D01*
X122828Y408705D01*
X122769Y408842D01*
X122750Y409017D01*
Y409037D01*
Y409095D01*
X122769Y409193D01*
X122809Y409271D01*
X122867Y409369D01*
X122965Y409466D01*
X123082Y409525D01*
X123257Y409544D01*
X129051D01*
Y410754D01*
X123101Y412724D01*
X123082D01*
X123043Y412743D01*
X122926Y412821D01*
X122867Y412899D01*
X122809Y412977D01*
X122769Y413075D01*
X122750Y413212D01*
Y413231D01*
Y413289D01*
X122769Y413387D01*
X122809Y413465D01*
X122886Y413563D01*
X122965Y413660D01*
X123101Y413719D01*
X123277Y413738D01*
X123335D01*
X123433Y413719D01*
D02*
G37*
G36*
X132913Y429481D02*
X133011Y429441D01*
X133089Y429383D01*
X133186Y429285D01*
X133245Y429168D01*
X133264Y428993D01*
Y426359D01*
Y426340D01*
Y426301D01*
Y426242D01*
X133245Y426164D01*
X133225Y425969D01*
X133167Y425716D01*
X133089Y425404D01*
X132952Y425091D01*
X132757Y424779D01*
X132504Y424487D01*
X132465Y424448D01*
X132367Y424370D01*
X132211Y424253D01*
X131977Y424096D01*
X131704Y423960D01*
X131392Y423843D01*
X131041Y423765D01*
X130631Y423726D01*
X130514D01*
X130416Y423745D01*
X130182Y423784D01*
X129909Y423843D01*
X129578Y423960D01*
X129226Y424136D01*
X129070Y424253D01*
X128895Y424370D01*
X128739Y424526D01*
X128583Y424701D01*
X128563Y424682D01*
X128544Y424643D01*
X128485Y424565D01*
X128407Y424467D01*
X128329Y424350D01*
X128212Y424233D01*
X128076Y424096D01*
X127919Y423941D01*
X127724Y423804D01*
X127529Y423667D01*
X127315Y423550D01*
X127061Y423433D01*
X126807Y423336D01*
X126515Y423258D01*
X126222Y423219D01*
X125891Y423199D01*
X125774D01*
X125676Y423219D01*
X125559D01*
X125422Y423238D01*
X125130Y423316D01*
X124779Y423433D01*
X124408Y423589D01*
X124018Y423823D01*
X123842Y423979D01*
X123667Y424136D01*
Y424155D01*
X123628Y424174D01*
X123589Y424233D01*
X123530Y424292D01*
X123374Y424487D01*
X123218Y424760D01*
X123043Y425072D01*
X122886Y425462D01*
X122789Y425891D01*
X122769Y426125D01*
X122750Y426359D01*
Y428993D01*
Y429012D01*
Y429071D01*
X122769Y429149D01*
X122809Y429246D01*
X122867Y429344D01*
X122965Y429422D01*
X123082Y429481D01*
X123257Y429500D01*
X132816D01*
X132913Y429481D01*
D02*
G37*
%LPC*%
G36*
X462994Y472376D02*
X459051D01*
X458934Y472337D01*
X458739Y472298D01*
X458349Y472180D01*
X458153Y472024D01*
X457958Y471868D01*
Y471829D01*
X457880Y471790D01*
X457802Y471673D01*
X457724Y471517D01*
X457568Y471126D01*
X457529Y470892D01*
X457490Y470619D01*
Y464412D01*
Y464372D01*
Y464294D01*
X457529Y464177D01*
X457568Y463982D01*
X457724Y463592D01*
X457841Y463396D01*
X457997Y463201D01*
X458036Y463162D01*
X458075Y463123D01*
X458193Y463045D01*
X458349Y462967D01*
X458700Y462772D01*
X458934Y462733D01*
X459169Y462694D01*
X461355D01*
X461472Y462733D01*
X461667Y462772D01*
X462057Y462928D01*
X462253Y463045D01*
X462448Y463201D01*
X462487Y463240D01*
X462526Y463279D01*
X462604Y463396D01*
X462721Y463553D01*
X462916Y463943D01*
X462955Y464177D01*
X462994Y464412D01*
Y472376D01*
D02*
G37*
G36*
X126660Y474039D02*
X124553D01*
Y472986D01*
Y472966D01*
Y472908D01*
X124573Y472830D01*
X124592Y472732D01*
X124631Y472615D01*
X124670Y472498D01*
X124748Y472361D01*
X124846Y472244D01*
X124866Y472225D01*
X124904Y472186D01*
X124963Y472147D01*
X125061Y472088D01*
X125178Y472030D01*
X125295Y471971D01*
X125451Y471952D01*
X125607Y471932D01*
X125685D01*
X125763Y471952D01*
X125860Y471971D01*
X125977Y472010D01*
X126095Y472069D01*
X126231Y472147D01*
X126348Y472244D01*
X126368Y472264D01*
X126407Y472303D01*
X126446Y472361D01*
X126504Y472459D01*
X126563Y472556D01*
X126621Y472693D01*
X126641Y472830D01*
X126660Y472986D01*
Y474039D01*
D02*
G37*
G36*
X132961Y482447D02*
X129801D01*
Y480359D01*
Y480340D01*
Y480242D01*
X129820Y480125D01*
X129859Y479969D01*
X129918Y479813D01*
X129996Y479618D01*
X130093Y479423D01*
X130250Y479247D01*
X130269Y479228D01*
X130328Y479169D01*
X130425Y479091D01*
X130562Y479013D01*
X130737Y478935D01*
X130932Y478857D01*
X131147Y478799D01*
X131381Y478779D01*
X131498D01*
X131615Y478799D01*
X131771Y478838D01*
X131927Y478896D01*
X132122Y478974D01*
X132317Y479091D01*
X132493Y479247D01*
X132512Y479267D01*
X132571Y479325D01*
X132649Y479423D01*
X132727Y479560D01*
X132805Y479716D01*
X132883Y479911D01*
X132942Y480125D01*
X132961Y480359D01*
Y482447D01*
D02*
G37*
G36*
X128747D02*
X124553D01*
Y480359D01*
Y480340D01*
Y480320D01*
X124573Y480203D01*
X124592Y480047D01*
X124631Y479852D01*
X124710Y479618D01*
X124807Y479365D01*
X124963Y479111D01*
X125158Y478877D01*
X125178Y478857D01*
X125275Y478779D01*
X125392Y478682D01*
X125568Y478565D01*
X125782Y478448D01*
X126036Y478350D01*
X126329Y478272D01*
X126641Y478253D01*
X126797D01*
X126953Y478292D01*
X127148Y478331D01*
X127382Y478409D01*
X127635Y478506D01*
X127889Y478662D01*
X128123Y478877D01*
X128143Y478896D01*
X128221Y478994D01*
X128318Y479111D01*
X128435Y479286D01*
X128552Y479501D01*
X128650Y479755D01*
X128728Y480047D01*
X128747Y480359D01*
Y482447D01*
D02*
G37*
G36*
X444541Y305830D02*
X444370D01*
X444200Y305795D01*
X443960Y305727D01*
X443687Y305659D01*
X443414Y305522D01*
X443106Y305351D01*
X442833Y305112D01*
X442799Y305078D01*
X442731Y304976D01*
X442628Y304839D01*
X442491Y304634D01*
X442355Y304395D01*
X442252Y304087D01*
X442184Y303780D01*
X442150Y303404D01*
Y302789D01*
X446967D01*
Y303404D01*
Y303438D01*
Y303575D01*
X446933Y303746D01*
X446864Y303985D01*
X446796Y304258D01*
X446659Y304531D01*
X446488Y304839D01*
X446249Y305112D01*
X446215Y305146D01*
X446113Y305215D01*
X445976Y305351D01*
X445771Y305488D01*
X445532Y305590D01*
X445224Y305727D01*
X444917Y305795D01*
X444541Y305830D01*
D02*
G37*
G36*
X461076D02*
X460495D01*
Y297357D01*
X461247D01*
X461452Y297391D01*
X461691Y297460D01*
X461964Y297528D01*
X462238Y297631D01*
X462545Y297801D01*
X462818Y298041D01*
X462853Y298075D01*
X462921Y298177D01*
X463058Y298314D01*
X463194Y298519D01*
X463297Y298792D01*
X463433Y299065D01*
X463502Y299407D01*
X463536Y299783D01*
Y303370D01*
Y303404D01*
Y303541D01*
X463502Y303746D01*
X463433Y303985D01*
X463365Y304258D01*
X463228Y304531D01*
X463023Y304839D01*
X462784Y305112D01*
X462750Y305146D01*
X462648Y305215D01*
X462511Y305351D01*
X462306Y305488D01*
X462067Y305590D01*
X461759Y305727D01*
X461452Y305795D01*
X461076Y305830D01*
D02*
G37*
G36*
X458104D02*
X457284D01*
X457113Y305795D01*
X456874Y305727D01*
X456601Y305659D01*
X456328Y305522D01*
X456020Y305351D01*
X455747Y305112D01*
X455713Y305078D01*
X455644Y304976D01*
X455542Y304839D01*
X455405Y304634D01*
X455268Y304361D01*
X455166Y304087D01*
X455098Y303746D01*
X455063Y303370D01*
Y299783D01*
Y299749D01*
Y299612D01*
X455098Y299407D01*
X455166Y299168D01*
X455234Y298895D01*
X455337Y298587D01*
X455508Y298314D01*
X455747Y298041D01*
X455781Y298006D01*
X455883Y297938D01*
X456020Y297836D01*
X456225Y297699D01*
X456464Y297562D01*
X456772Y297460D01*
X457113Y297391D01*
X457455Y297357D01*
X458104D01*
Y305830D01*
D02*
G37*
G36*
X491549Y300432D02*
X488270D01*
Y297357D01*
X491652D01*
X491754Y297391D01*
X491925Y297426D01*
X492267Y297562D01*
X492438Y297665D01*
X492609Y297801D01*
X492643Y297836D01*
X492677Y297870D01*
X492745Y297972D01*
X492848Y298109D01*
X493018Y298451D01*
X493053Y298655D01*
X493087Y298895D01*
Y298929D01*
Y298997D01*
X493053Y299134D01*
X493018Y299270D01*
X492916Y299646D01*
X492779Y299817D01*
X492643Y299988D01*
X492609Y300022D01*
X492574Y300056D01*
X492472Y300124D01*
X492335Y300227D01*
X491994Y300364D01*
X491789Y300398D01*
X491549Y300432D01*
D02*
G37*
G36*
X123549Y213707D02*
X119802D01*
Y210194D01*
X123667D01*
X123784Y210233D01*
X123979Y210272D01*
X124369Y210428D01*
X124565Y210545D01*
X124760Y210701D01*
X124799Y210740D01*
X124838Y210779D01*
X124916Y210896D01*
X125033Y211053D01*
X125228Y211443D01*
X125267Y211677D01*
X125306Y211951D01*
Y211990D01*
Y212068D01*
X125267Y212224D01*
X125228Y212380D01*
X125111Y212809D01*
X124955Y213005D01*
X124799Y213200D01*
X124760Y213239D01*
X124721Y213278D01*
X124604Y213356D01*
X124447Y213473D01*
X124057Y213629D01*
X123823Y213668D01*
X123549Y213707D01*
D02*
G37*
G36*
X484617Y177376D02*
X480674D01*
X480556Y177337D01*
X480361Y177297D01*
X479971Y177180D01*
X479776Y177024D01*
X479580Y176868D01*
Y176829D01*
X479502Y176790D01*
X479424Y176673D01*
X479346Y176517D01*
X479190Y176126D01*
X479151Y175892D01*
X479112Y175619D01*
Y169412D01*
Y169373D01*
Y169294D01*
X479151Y169177D01*
X479190Y168982D01*
X479346Y168592D01*
X479463Y168396D01*
X479620Y168201D01*
X479659Y168162D01*
X479698Y168123D01*
X479815Y168045D01*
X479971Y167967D01*
X480322Y167772D01*
X480556Y167733D01*
X480791Y167694D01*
X482977D01*
X483094Y167733D01*
X483289Y167772D01*
X483680Y167928D01*
X483875Y168045D01*
X484070Y168201D01*
X484109Y168240D01*
X484148Y168279D01*
X484226Y168396D01*
X484343Y168553D01*
X484539Y168943D01*
X484578Y169177D01*
X484617Y169412D01*
Y177376D01*
D02*
G37*
G36*
X69831Y219876D02*
X69636D01*
X69440Y219837D01*
X69167Y219758D01*
X68855Y219680D01*
X68542Y219524D01*
X68191Y219329D01*
X67879Y219056D01*
X67840Y219017D01*
X67762Y218900D01*
X67645Y218743D01*
X67488Y218509D01*
X67332Y218236D01*
X67215Y217885D01*
X67137Y217533D01*
X67098Y217104D01*
Y216401D01*
X72603D01*
Y217104D01*
Y217143D01*
Y217299D01*
X72564Y217494D01*
X72485Y217768D01*
X72407Y218080D01*
X72251Y218392D01*
X72056Y218743D01*
X71783Y219056D01*
X71744Y219095D01*
X71627Y219173D01*
X71470Y219329D01*
X71236Y219485D01*
X70963Y219602D01*
X70612Y219758D01*
X70260Y219837D01*
X69831Y219876D01*
D02*
G37*
G36*
X436481Y183583D02*
X432733D01*
Y178000D01*
X436676D01*
X436910Y178039D01*
X437183Y178117D01*
X437496Y178195D01*
X437808Y178313D01*
X438159Y178508D01*
X438472Y178781D01*
X438511Y178820D01*
X438589Y178937D01*
X438745Y179093D01*
X438901Y179328D01*
X439018Y179640D01*
X439174Y179952D01*
X439252Y180343D01*
X439291Y180772D01*
Y180811D01*
Y180967D01*
X439252Y181162D01*
X439174Y181436D01*
X439096Y181748D01*
X438940Y182060D01*
X438745Y182412D01*
X438472Y182724D01*
X438433Y182763D01*
X438316Y182841D01*
X438159Y182997D01*
X437925Y183153D01*
X437613Y183310D01*
X437300Y183466D01*
X436910Y183544D01*
X436481Y183583D01*
D02*
G37*
G36*
Y175306D02*
X432733D01*
Y167694D01*
X436754D01*
X437027Y167772D01*
X437418Y167850D01*
X437847Y167967D01*
X438276Y168162D01*
X438745Y168435D01*
X439174Y168787D01*
X439213Y168826D01*
X439370Y168982D01*
X439526Y169216D01*
X439760Y169529D01*
X439955Y169919D01*
X440150Y170387D01*
X440267Y170895D01*
X440307Y171481D01*
Y171559D01*
Y171754D01*
X440267Y172027D01*
X440150Y172418D01*
X440033Y172847D01*
X439838Y173276D01*
X439565Y173745D01*
X439174Y174174D01*
X439135Y174213D01*
X438979Y174370D01*
X438745Y174526D01*
X438433Y174760D01*
X438042Y174955D01*
X437574Y175150D01*
X437066Y175268D01*
X436481Y175306D01*
D02*
G37*
G36*
X469860Y177376D02*
X465917D01*
X465799Y177337D01*
X465604Y177297D01*
X465214Y177180D01*
X465019Y177024D01*
X464823Y176868D01*
X464785Y176829D01*
X464745Y176790D01*
X464667Y176673D01*
X464589Y176517D01*
X464394Y176126D01*
X464355Y175892D01*
X464316Y175619D01*
Y169412D01*
Y169373D01*
Y169294D01*
X464355Y169177D01*
X464394Y168982D01*
X464550Y168592D01*
X464667Y168396D01*
X464823Y168201D01*
X464863Y168162D01*
X464902Y168123D01*
X465019Y168045D01*
X465175Y167967D01*
X465565Y167772D01*
X465799Y167733D01*
X466034Y167694D01*
X468220D01*
X468337Y167733D01*
X468532Y167772D01*
X468923Y167928D01*
X469118Y168045D01*
X469313Y168201D01*
X469352Y168240D01*
X469391Y168279D01*
X469469Y168396D01*
X469586Y168553D01*
X469782Y168943D01*
X469821Y169177D01*
X469860Y169412D01*
Y177376D01*
D02*
G37*
G36*
X452331D02*
X452136D01*
X451940Y177337D01*
X451667Y177258D01*
X451355Y177180D01*
X451043Y177024D01*
X450691Y176829D01*
X450379Y176556D01*
X450340Y176517D01*
X450262Y176400D01*
X450145Y176243D01*
X449988Y176009D01*
X449832Y175697D01*
X449715Y175385D01*
X449637Y174994D01*
X449598Y174565D01*
Y170466D01*
Y170427D01*
Y170270D01*
X449637Y170036D01*
X449715Y169763D01*
X449793Y169450D01*
X449910Y169099D01*
X450106Y168787D01*
X450379Y168475D01*
X450418Y168435D01*
X450535Y168357D01*
X450691Y168240D01*
X450925Y168084D01*
X451199Y167928D01*
X451550Y167811D01*
X451901Y167733D01*
X452331Y167694D01*
X452526D01*
X452721Y167733D01*
X452994Y167811D01*
X453307Y167889D01*
X453619Y168006D01*
X453970Y168201D01*
X454283Y168475D01*
X454322Y168514D01*
X454400Y168631D01*
X454556Y168787D01*
X454712Y169021D01*
X454829Y169333D01*
X454986Y169646D01*
X455064Y170036D01*
X455103Y170466D01*
Y174565D01*
Y174604D01*
Y174760D01*
X455064Y174994D01*
X454986Y175268D01*
X454907Y175580D01*
X454751Y175892D01*
X454556Y176243D01*
X454283Y176556D01*
X454244Y176595D01*
X454127Y176673D01*
X453970Y176829D01*
X453736Y176985D01*
X453463Y177102D01*
X453112Y177258D01*
X452760Y177337D01*
X452331Y177376D01*
D02*
G37*
G36*
X85330Y219876D02*
X84393D01*
X84197Y219837D01*
X83924Y219758D01*
X83612Y219680D01*
X83300Y219524D01*
X82948Y219329D01*
X82636Y219056D01*
X82597Y219017D01*
X82519Y218900D01*
X82402Y218743D01*
X82245Y218509D01*
X82089Y218197D01*
X81972Y217885D01*
X81894Y217494D01*
X81855Y217065D01*
Y212966D01*
Y212927D01*
Y212770D01*
X81894Y212536D01*
X81972Y212263D01*
X82050Y211951D01*
X82167Y211599D01*
X82362Y211287D01*
X82636Y210975D01*
X82675Y210935D01*
X82792Y210857D01*
X82948Y210740D01*
X83182Y210584D01*
X83456Y210428D01*
X83807Y210311D01*
X84197Y210233D01*
X84588Y210194D01*
X85330D01*
Y219876D01*
D02*
G37*
G36*
X88726D02*
X88062D01*
Y210194D01*
X88921D01*
X89156Y210233D01*
X89429Y210311D01*
X89741Y210389D01*
X90053Y210506D01*
X90405Y210701D01*
X90717Y210975D01*
X90756Y211014D01*
X90834Y211131D01*
X90990Y211287D01*
X91146Y211521D01*
X91264Y211833D01*
X91420Y212146D01*
X91498Y212536D01*
X91537Y212966D01*
Y217065D01*
Y217104D01*
Y217260D01*
X91498Y217494D01*
X91420Y217768D01*
X91342Y218080D01*
X91186Y218392D01*
X90951Y218743D01*
X90678Y219056D01*
X90639Y219095D01*
X90522Y219173D01*
X90366Y219329D01*
X90132Y219485D01*
X89858Y219602D01*
X89507Y219758D01*
X89156Y219837D01*
X88726Y219876D01*
D02*
G37*
G36*
X132211Y428447D02*
X129051D01*
Y426359D01*
Y426340D01*
Y426242D01*
X129070Y426125D01*
X129109Y425969D01*
X129168Y425813D01*
X129246Y425618D01*
X129343Y425423D01*
X129500Y425247D01*
X129519Y425228D01*
X129578Y425169D01*
X129675Y425091D01*
X129812Y425013D01*
X129987Y424935D01*
X130182Y424857D01*
X130397Y424799D01*
X130631Y424779D01*
X130748D01*
X130865Y424799D01*
X131021Y424838D01*
X131177Y424896D01*
X131372Y424974D01*
X131567Y425091D01*
X131743Y425247D01*
X131762Y425267D01*
X131821Y425326D01*
X131899Y425423D01*
X131977Y425560D01*
X132055Y425716D01*
X132133Y425911D01*
X132191Y426125D01*
X132211Y426359D01*
Y428447D01*
D02*
G37*
G36*
X127997D02*
X123803D01*
Y426359D01*
Y426340D01*
Y426320D01*
X123823Y426203D01*
X123842Y426047D01*
X123881Y425852D01*
X123959Y425618D01*
X124057Y425364D01*
X124213Y425111D01*
X124408Y424877D01*
X124428Y424857D01*
X124525Y424779D01*
X124642Y424682D01*
X124818Y424565D01*
X125032Y424448D01*
X125286Y424350D01*
X125578Y424272D01*
X125891Y424253D01*
X126047D01*
X126203Y424292D01*
X126398Y424331D01*
X126632Y424409D01*
X126885Y424506D01*
X127139Y424662D01*
X127373Y424877D01*
X127393Y424896D01*
X127471Y424994D01*
X127568Y425111D01*
X127685Y425286D01*
X127802Y425501D01*
X127900Y425755D01*
X127978Y426047D01*
X127997Y426359D01*
Y428447D01*
D02*
G37*
%LPD*%
D23*
X57500Y187500D02*
X117500D01*
X102500Y182500D02*
X117500Y187500D01*
X102500Y192500D02*
X117500Y187500D01*
X468320Y444460D02*
X483320Y439460D01*
X468320Y434460D02*
X483320Y439460D01*
X423320D02*
X483320D01*
X424060Y145310D02*
X484060D01*
X469060Y140310D02*
X484060Y145310D01*
X469060Y150310D02*
X484060Y145310D01*
X474080Y280000D02*
X489080Y275000D01*
X474080Y270000D02*
X489080Y275000D01*
X429080D02*
X489080D01*
D24*
X93000Y243250D02*
X121000D01*
X93000Y347550D02*
X121000D01*
X93000Y243250D02*
Y347550D01*
X121000Y243250D02*
Y347550D01*
X284910Y235220D02*
Y261720D01*
X297410Y235220D02*
Y261720D01*
X284910Y235220D02*
X297410D01*
X284910Y261720D02*
X297410D01*
X281800Y277360D02*
Y311360D01*
X298300Y277360D02*
Y311360D01*
X281800Y277360D02*
X298300D01*
X281800Y311360D02*
X298300D01*
X222700Y94000D02*
X327000D01*
X222700Y66000D02*
X327000D01*
X222700D02*
Y94000D01*
X327000Y66000D02*
Y94000D01*
X132500Y250000D02*
X154500D01*
Y260000D01*
X132500D02*
X154500D01*
X132500Y250000D02*
Y260000D01*
X145000Y251000D02*
Y260000D01*
X132500Y275000D02*
X154500D01*
Y285000D01*
X132500D02*
X154500D01*
X132500Y275000D02*
Y285000D01*
X145000Y276000D02*
Y285000D01*
M02*
