M48
;Layer_Color=9474304
;FILE_FORMAT=4:4
METRIC,LZ
;TYPE=PLATED
T1F00S00C1.1000
T3F00S00C3.0000
T4F00S00C4.8000
;TYPE=NON_PLATED
T5F00S00C0.9000
%
T01
X0009144Y001016
X0011684
X0014154
X0016764
X00168Y0046
X001426
X001172
X000918
X0042926Y0028575
Y0026035
Y0023495
Y0020955
T03
X0022Y00065
X0039
Y00435
X0022
T04
X00045Y00045
X00455
Y00455
X00045
T05
X00444Y0012
Y0015
M30
