M48
;Layer_Color=9474304
;FILE_FORMAT=4:4
METRIC,LZ
;TYPE=PLATED
T1F00S00C1.1000
T3F00S00C3.0000
T4F00S00C4.8000
;TYPE=NON_PLATED
T5F00S00C0.9000
%
T01
X000919Y00102
X001173
X00142
X001681
X0043Y0021041
Y0023581
Y0026121
Y0028661
X001681Y004595
X001427
X001173
X000919
T03
X0022Y00065
X0039
Y00435
X0022
T04
X00455Y00045
X00045
Y00455
X00455
T05
X00444Y00122605
Y00152605
M30
