G04 Layer_Physical_Order=2*
G04 Layer_Color=16711680*
%FSLAX44Y44*%
%MOMM*%
G71*
G01*
G75*
%ADD12C,0.6000*%
%ADD13P,1.9483X8X292.5*%
%ADD14C,1.8000*%
G36*
X243149Y135831D02*
X246177Y134912D01*
X248967Y133420D01*
X251413Y131413D01*
X253421Y128967D01*
X254912Y126177D01*
X255831Y123149D01*
X256132Y120085D01*
X256115Y120000D01*
Y20000D01*
X256132Y19915D01*
X255831Y16851D01*
X254912Y13823D01*
X253421Y11033D01*
X251413Y8587D01*
X248967Y6579D01*
X246177Y5088D01*
X243149Y4169D01*
X240085Y3868D01*
X240000Y3885D01*
X20000D01*
X19915Y3868D01*
X16851Y4169D01*
X13823Y5088D01*
X11033Y6579D01*
X8587Y8587D01*
X6579Y11033D01*
X5088Y13823D01*
X4169Y16851D01*
X3868Y19915D01*
X3885Y20000D01*
Y120000D01*
X3868Y120085D01*
X4169Y123149D01*
X5088Y126177D01*
X6579Y128967D01*
X8587Y131413D01*
X11033Y133420D01*
X13823Y134912D01*
X16851Y135831D01*
X19915Y136132D01*
X20000Y136115D01*
X240000D01*
X240085Y136132D01*
X243149Y135831D01*
D02*
G37*
%LPC*%
G36*
X42250Y69740D02*
X39237Y69343D01*
X36430Y68180D01*
X34020Y66330D01*
X32170Y63920D01*
X31007Y61113D01*
X30610Y58100D01*
X31007Y55087D01*
X32170Y52280D01*
X34020Y49870D01*
X36430Y48020D01*
X39237Y46857D01*
X42250Y46460D01*
X45262Y46857D01*
X48070Y48020D01*
X50480Y49870D01*
X52231Y52151D01*
X209849D01*
X209920Y51980D01*
X211770Y49570D01*
X214180Y47720D01*
X216987Y46557D01*
X220000Y46160D01*
X223013Y46557D01*
X225820Y47720D01*
X228230Y49570D01*
X230080Y51980D01*
X231243Y54788D01*
X231640Y57800D01*
X231243Y60813D01*
X230080Y63620D01*
X228230Y66030D01*
X225820Y67880D01*
X223013Y69043D01*
X220000Y69440D01*
X216987Y69043D01*
X214180Y67880D01*
X211770Y66030D01*
X209920Y63620D01*
X209849Y63449D01*
X52525D01*
X52330Y63920D01*
X50480Y66330D01*
X48070Y68180D01*
X45262Y69343D01*
X42250Y69740D01*
D02*
G37*
G36*
Y44340D02*
X39237Y43943D01*
X36430Y42780D01*
X34020Y40930D01*
X32170Y38520D01*
X31007Y35713D01*
X30610Y32700D01*
X31007Y29688D01*
X32170Y26880D01*
X34020Y24470D01*
X36430Y22620D01*
X39237Y21457D01*
X42250Y21061D01*
X45262Y21457D01*
X48070Y22620D01*
X50480Y24470D01*
X52231Y26751D01*
X209849D01*
X209920Y26580D01*
X211770Y24170D01*
X214180Y22320D01*
X216987Y21157D01*
X220000Y20761D01*
X223013Y21157D01*
X225820Y22320D01*
X228230Y24170D01*
X230080Y26580D01*
X231243Y29388D01*
X231640Y32400D01*
X231243Y35413D01*
X230080Y38220D01*
X228230Y40630D01*
X225820Y42480D01*
X223013Y43643D01*
X220000Y44040D01*
X216987Y43643D01*
X214180Y42480D01*
X211770Y40630D01*
X209920Y38220D01*
X209849Y38049D01*
X52525D01*
X52330Y38520D01*
X50480Y40930D01*
X48070Y42780D01*
X45262Y43943D01*
X42250Y44340D01*
D02*
G37*
G36*
X46750Y120490D02*
X37750D01*
X36759Y120293D01*
X35919Y119731D01*
X31419Y115231D01*
X30857Y114391D01*
X30660Y113400D01*
Y104400D01*
X30857Y103409D01*
X31419Y102569D01*
X35919Y98069D01*
X36759Y97507D01*
X37750Y97310D01*
X46750D01*
X47741Y97507D01*
X48581Y98069D01*
X53081Y102569D01*
X53337Y102951D01*
X209849D01*
X209920Y102780D01*
X211770Y100370D01*
X214180Y98520D01*
X216987Y97357D01*
X220000Y96960D01*
X223013Y97357D01*
X225820Y98520D01*
X228230Y100370D01*
X230080Y102780D01*
X231243Y105588D01*
X231640Y108600D01*
X231243Y111613D01*
X230080Y114420D01*
X228230Y116830D01*
X225820Y118680D01*
X223013Y119843D01*
X220000Y120240D01*
X216987Y119843D01*
X214180Y118680D01*
X211770Y116830D01*
X209920Y114420D01*
X209849Y114249D01*
X53671D01*
X53643Y114391D01*
X53081Y115231D01*
X48581Y119731D01*
X47741Y120293D01*
X46750Y120490D01*
D02*
G37*
G36*
X42250Y95140D02*
X39237Y94743D01*
X36430Y93580D01*
X34020Y91730D01*
X32170Y89320D01*
X31007Y86513D01*
X30610Y83500D01*
X31007Y80487D01*
X32170Y77680D01*
X34020Y75270D01*
X36430Y73420D01*
X39237Y72257D01*
X42250Y71860D01*
X45262Y72257D01*
X48070Y73420D01*
X50480Y75270D01*
X52231Y77551D01*
X209849D01*
X209920Y77380D01*
X211770Y74970D01*
X214180Y73120D01*
X216987Y71957D01*
X220000Y71561D01*
X223013Y71957D01*
X225820Y73120D01*
X228230Y74970D01*
X230080Y77380D01*
X231243Y80188D01*
X231640Y83200D01*
X231243Y86213D01*
X230080Y89020D01*
X228230Y91430D01*
X225820Y93280D01*
X223013Y94443D01*
X220000Y94840D01*
X216987Y94443D01*
X214180Y93280D01*
X211770Y91430D01*
X209920Y89020D01*
X209849Y88848D01*
X52525D01*
X52330Y89320D01*
X50480Y91730D01*
X48070Y93580D01*
X45262Y94743D01*
X42250Y95140D01*
D02*
G37*
%LPD*%
D12*
Y57800D02*
X220000D01*
X42250Y108600D02*
X220000D01*
X42250Y32400D02*
X220000D01*
X42250Y83200D02*
X220000D01*
D13*
X42250Y108900D02*
D03*
D14*
Y83500D02*
D03*
Y58100D02*
D03*
Y32700D02*
D03*
X220000Y108600D02*
D03*
Y32400D02*
D03*
Y57800D02*
D03*
Y83200D02*
D03*
M02*
