G04 Layer_Color=32896*
%FSLAX44Y44*%
%MOMM*%
G71*
G01*
G75*
%ADD36C,0.0508*%
D36*
X283396Y339400D02*
X295588D01*
X280348Y338892D02*
X298636D01*
X278316Y338384D02*
X301176D01*
X276284Y337876D02*
X302700D01*
X274760Y337368D02*
X304224D01*
X273744Y336860D02*
X305748D01*
X272220Y336352D02*
X307272D01*
X271204Y335844D02*
X308288D01*
X270188Y335336D02*
X309304D01*
X269172Y334828D02*
X310320D01*
X268156Y334320D02*
X311336D01*
X267140Y333812D02*
X312352D01*
X266124Y333304D02*
X313368D01*
X265616Y332796D02*
X313876D01*
X264600Y332288D02*
X314892D01*
X264092Y331780D02*
X315400D01*
X263076Y331272D02*
X316416D01*
X262568Y330764D02*
X316924D01*
X262060Y330256D02*
X317432D01*
X261044Y329748D02*
X318448D01*
X260536Y329240D02*
X318956D01*
X260028Y328732D02*
X318956D01*
X259520Y328224D02*
X319464D01*
X259012Y327716D02*
X319972D01*
X258504Y327208D02*
X285936D01*
X293556D02*
X319972D01*
X257996Y326700D02*
X282888D01*
X296604D02*
X312860D01*
X315400D02*
X319972D01*
X257488Y326192D02*
X280856D01*
X298636D02*
X312352D01*
X315908D02*
X320480D01*
X256980Y325684D02*
X279332D01*
X300160D02*
X311844D01*
X316416D02*
X320480D01*
X256472Y325176D02*
X277808D01*
X301684D02*
X311844D01*
X316416D02*
X320480D01*
X255964Y324668D02*
X276792D01*
X302700D02*
X311844D01*
X316416D02*
X320480D01*
X255456Y324160D02*
X275268D01*
X303716D02*
X311844D01*
X316416D02*
X320480D01*
X254948Y323652D02*
X274252D01*
X304732D02*
X312352D01*
X316416D02*
X320480D01*
X254440Y323144D02*
X273744D01*
X285428D02*
X293556D01*
X305748D02*
X312352D01*
X315908D02*
X319972D01*
X254440Y322636D02*
X272728D01*
X282888D02*
X296604D01*
X306764D02*
X313368D01*
X315400D02*
X319972D01*
X253932Y322128D02*
X271712D01*
X280856D02*
X298128D01*
X307272D02*
X319972D01*
X253424Y321620D02*
X271204D01*
X279332D02*
X299652D01*
X308288D02*
X319464D01*
X252916Y321112D02*
X270188D01*
X278316D02*
X301176D01*
X308796D02*
X318956D01*
X252916Y320604D02*
X269680D01*
X277300D02*
X302192D01*
X309812D02*
X318956D01*
X252408Y320096D02*
X269172D01*
X276284D02*
X303208D01*
X310320D02*
X317940D01*
X251900Y319588D02*
X268664D01*
X275268D02*
X304224D01*
X310828D02*
X317432D01*
X251900Y319080D02*
X267648D01*
X274252D02*
X304732D01*
X312352D02*
X316416D01*
X251392Y318572D02*
X267140D01*
X273744D02*
X305748D01*
X250884Y318064D02*
X266632D01*
X272728D02*
X306256D01*
X250884Y317556D02*
X266124D01*
X272220D02*
X307272D01*
X250376Y317048D02*
X265616D01*
X271712D02*
X307780D01*
X250376Y316540D02*
X265108D01*
X270696D02*
X308288D01*
X249868Y316032D02*
X265108D01*
X270696D02*
X308796D01*
X249360Y315524D02*
X264600D01*
X270188D02*
X309304D01*
X249360Y315016D02*
X264092D01*
X269680D02*
X309812D01*
X248852Y314508D02*
X263584D01*
X269680D02*
X310320D01*
X248852Y314000D02*
X263076D01*
X269680D02*
X310828D01*
X248344Y313492D02*
X263076D01*
X269172D02*
X311336D01*
X248344Y312984D02*
X262568D01*
X269172D02*
X311844D01*
X248344Y312476D02*
X262060D01*
X269172D02*
X312352D01*
X247836Y311968D02*
X262060D01*
X269172D02*
X312860D01*
X247836Y311460D02*
X261552D01*
X269172D02*
X312860D01*
X247328Y310952D02*
X261044D01*
X269172D02*
X287968D01*
X291524D02*
X313368D01*
X247328Y310444D02*
X261044D01*
X269680D02*
X285428D01*
X294064D02*
X313876D01*
X247328Y309936D02*
X260536D01*
X269680D02*
X283904D01*
X295588D02*
X313876D01*
X246820Y309428D02*
X260536D01*
X269680D02*
X282380D01*
X296604D02*
X314384D01*
X246820Y308920D02*
X260028D01*
X270188D02*
X281364D01*
X297620D02*
X314892D01*
X246820Y308412D02*
X260028D01*
X270696D02*
X280856D01*
X298636D02*
X314892D01*
X246312Y307904D02*
X259520D01*
X270696D02*
X279840D01*
X299144D02*
X315400D01*
X246312Y307396D02*
X259520D01*
X271204D02*
X279332D01*
X299652D02*
X315400D01*
X246312Y306888D02*
X259520D01*
X272220D02*
X278824D01*
X300668D02*
X315908D01*
X245804Y306380D02*
X259012D01*
X273236D02*
X277300D01*
X301176D02*
X315908D01*
X245804Y305872D02*
X259012D01*
X301684D02*
X316416D01*
X245804Y305364D02*
X258504D01*
X302192D02*
X316416D01*
X245804Y304856D02*
X258504D01*
X302192D02*
X316416D01*
X245296Y304348D02*
X258504D01*
X302700D02*
X316924D01*
X245296Y303840D02*
X257996D01*
X303208D02*
X316924D01*
X245296Y303332D02*
X257996D01*
X303716D02*
X316924D01*
X245296Y302824D02*
X257996D01*
X303716D02*
X317432D01*
X245296Y302316D02*
X257996D01*
X304224D02*
X317432D01*
X244788Y301808D02*
X257488D01*
X304224D02*
X317432D01*
X244788Y301300D02*
X257488D01*
X304732D02*
X317940D01*
X244788Y300792D02*
X290508D01*
X304732D02*
X317940D01*
X244788Y300284D02*
X292540D01*
X305240D02*
X317940D01*
X244788Y299776D02*
X293556D01*
X305240D02*
X317940D01*
X244788Y299268D02*
X294064D01*
X305240D02*
X317940D01*
X244788Y298760D02*
X294572D01*
X305748D02*
X317940D01*
X244788Y298252D02*
X295080D01*
X305748D02*
X318448D01*
X244788Y297744D02*
X288476D01*
X290508D02*
X295080D01*
X305748D02*
X318448D01*
X244788Y297236D02*
X287968D01*
X291524D02*
X295588D01*
X305748D02*
X318448D01*
X244280Y296728D02*
X286952D01*
X292032D02*
X295588D01*
X305748D02*
X318448D01*
X244280Y296220D02*
X286952D01*
X292540D02*
X295588D01*
X305748D02*
X318448D01*
X244280Y295712D02*
X286444D01*
X293048D02*
X296096D01*
X306256D02*
X318448D01*
X244280Y295204D02*
X286444D01*
X293048D02*
X296096D01*
X306256D02*
X318448D01*
X244280Y294696D02*
X286444D01*
X293048D02*
X296096D01*
X306256D02*
X318448D01*
X244280Y294188D02*
X286444D01*
X293048D02*
X296096D01*
X306256D02*
X318448D01*
X244280Y293680D02*
X286444D01*
X293048D02*
X296096D01*
X306256D02*
X318448D01*
X244280Y293172D02*
X286952D01*
X292540D02*
X296096D01*
X306256D02*
X318448D01*
X244280Y292664D02*
X286952D01*
X292540D02*
X295588D01*
X305748D02*
X318448D01*
X244280Y292156D02*
X287460D01*
X292032D02*
X295588D01*
X305748D02*
X318448D01*
X244788Y291648D02*
X287968D01*
X291016D02*
X295080D01*
X305748D02*
X318448D01*
X244788Y291140D02*
X295080D01*
X305748D02*
X318448D01*
X244788Y290632D02*
X294572D01*
X305748D02*
X318448D01*
X244788Y290124D02*
X294064D01*
X305240D02*
X317940D01*
X244788Y289616D02*
X293556D01*
X305240D02*
X317940D01*
X244788Y289108D02*
X292540D01*
X305240D02*
X317940D01*
X244788Y288600D02*
X291016D01*
X304732D02*
X317940D01*
X244788Y288092D02*
X257488D01*
X304732D02*
X317940D01*
X244788Y287584D02*
X257488D01*
X304732D02*
X317432D01*
X245296Y287076D02*
X257488D01*
X304224D02*
X317432D01*
X245296Y286568D02*
X257996D01*
X303716D02*
X317432D01*
X245296Y286060D02*
X257996D01*
X303716D02*
X317432D01*
X245296Y285552D02*
X257996D01*
X303208D02*
X316924D01*
X245296Y285044D02*
X258504D01*
X303208D02*
X316924D01*
X245804Y284536D02*
X258504D01*
X302700D02*
X316924D01*
X245804Y284028D02*
X258504D01*
X302192D02*
X316416D01*
X245804Y283520D02*
X259012D01*
X301684D02*
X316416D01*
X245804Y283012D02*
X259012D01*
X273744D02*
X276792D01*
X301176D02*
X315908D01*
X246312Y282504D02*
X259012D01*
X272728D02*
X278316D01*
X300668D02*
X315908D01*
X246312Y281996D02*
X259520D01*
X271712D02*
X278824D01*
X300160D02*
X315400D01*
X246312Y281488D02*
X259520D01*
X271204D02*
X279840D01*
X299652D02*
X315400D01*
X246312Y280980D02*
X260028D01*
X270696D02*
X280348D01*
X298636D02*
X314892D01*
X246820Y280472D02*
X260028D01*
X270188D02*
X281364D01*
X298128D02*
X314892D01*
X246820Y279964D02*
X260536D01*
X269680D02*
X282380D01*
X297112D02*
X314384D01*
X246820Y279456D02*
X260536D01*
X269680D02*
X283396D01*
X296096D02*
X314384D01*
X247328Y278948D02*
X261044D01*
X269680D02*
X284412D01*
X294572D02*
X313876D01*
X247328Y278440D02*
X261044D01*
X269172D02*
X286444D01*
X292540D02*
X313368D01*
X247836Y277932D02*
X261552D01*
X269172D02*
X313368D01*
X247836Y277424D02*
X261552D01*
X269172D02*
X312860D01*
X247836Y276916D02*
X262060D01*
X269172D02*
X312352D01*
X248344Y276408D02*
X262568D01*
X269172D02*
X311844D01*
X248344Y275900D02*
X262568D01*
X269172D02*
X311844D01*
X248852Y275392D02*
X263076D01*
X269172D02*
X311336D01*
X248852Y274884D02*
X263584D01*
X269680D02*
X310828D01*
X249360Y274376D02*
X264092D01*
X269680D02*
X310320D01*
X249360Y273868D02*
X264092D01*
X270188D02*
X309812D01*
X249868Y273360D02*
X264600D01*
X270188D02*
X309304D01*
X249868Y272852D02*
X265108D01*
X270696D02*
X308796D01*
X250376Y272344D02*
X265616D01*
X271204D02*
X307780D01*
X250376Y271836D02*
X266124D01*
X271712D02*
X307272D01*
X250884Y271328D02*
X266632D01*
X272728D02*
X306764D01*
X251392Y270820D02*
X267140D01*
X273236D02*
X306256D01*
X251392Y270312D02*
X267648D01*
X273744D02*
X305240D01*
X312860D02*
X315400D01*
X251900Y269804D02*
X268156D01*
X274760D02*
X304224D01*
X311336D02*
X316924D01*
X252408Y269296D02*
X268664D01*
X275776D02*
X303716D01*
X310828D02*
X317940D01*
X252408Y268788D02*
X269680D01*
X276792D02*
X302700D01*
X309812D02*
X318448D01*
X252916Y268280D02*
X270188D01*
X277808D02*
X301684D01*
X309304D02*
X318956D01*
X253424Y267772D02*
X270696D01*
X278824D02*
X300160D01*
X308796D02*
X319464D01*
X253424Y267264D02*
X271712D01*
X280348D02*
X299144D01*
X307780D02*
X319464D01*
X253932Y266756D02*
X272220D01*
X281872D02*
X297112D01*
X307272D02*
X319972D01*
X254440Y266248D02*
X273236D01*
X284412D02*
X295080D01*
X306256D02*
X312860D01*
X315400D02*
X319972D01*
X254948Y265740D02*
X274252D01*
X305240D02*
X312352D01*
X315908D02*
X320480D01*
X255456Y265232D02*
X275268D01*
X304224D02*
X311844D01*
X316416D02*
X320480D01*
X255964Y264724D02*
X276284D01*
X303208D02*
X311844D01*
X316416D02*
X320480D01*
X255964Y264216D02*
X277300D01*
X302192D02*
X311844D01*
X316416D02*
X320480D01*
X256472Y263708D02*
X278316D01*
X300668D02*
X311844D01*
X316416D02*
X320480D01*
X256980Y263200D02*
X279840D01*
X299144D02*
X312352D01*
X316416D02*
X320480D01*
X257488Y262692D02*
X281872D01*
X297620D02*
X312352D01*
X315908D02*
X320480D01*
X257996Y262184D02*
X284412D01*
X295080D02*
X313368D01*
X315400D02*
X319972D01*
X258504Y261676D02*
X319972D01*
X259012Y261168D02*
X319464D01*
X259520Y260660D02*
X319464D01*
X260536Y260152D02*
X318956D01*
X261044Y259644D02*
X318448D01*
X261552Y259136D02*
X317940D01*
X262060Y258628D02*
X316924D01*
X263076Y258120D02*
X316416D01*
X263584Y257612D02*
X315908D01*
X264092Y257104D02*
X314892D01*
X265108Y256596D02*
X314384D01*
X266124Y256088D02*
X313368D01*
X266632Y255580D02*
X312860D01*
X267648Y255072D02*
X311844D01*
X268664Y254564D02*
X310828D01*
X269680Y254056D02*
X309812D01*
X270696Y253548D02*
X308796D01*
X271712Y253040D02*
X307780D01*
X273236Y252532D02*
X306256D01*
X274252Y252024D02*
X305240D01*
X275776Y251516D02*
X303716D01*
X277300Y251008D02*
X301684D01*
X279332Y250500D02*
X299652D01*
X282380Y249992D02*
X297112D01*
X286444Y249484D02*
X293048D01*
M02*
