G04 Layer_Physical_Order=2*
G04 Layer_Color=16711680*
%FSLAX44Y44*%
%MOMM*%
G71*
G01*
G75*
%ADD12R,0.8500X0.8500*%
%ADD13R,0.8500X0.8500*%
%ADD16C,0.6000*%
%ADD18P,1.9483X8X292.5*%
%ADD19C,1.8000*%
%ADD20C,4.0000*%
%ADD21C,0.7000*%
G36*
X104157Y705891D02*
X108212Y704917D01*
X112065Y703321D01*
X115621Y701142D01*
X118200Y698940D01*
X132977Y663263D01*
X150152Y619175D01*
X166387Y574732D01*
X181675Y529955D01*
X191845Y497963D01*
X192138Y497043D01*
X192138D01*
X192247Y496780D01*
X192649Y495596D01*
X193993Y491636D01*
X195298Y485075D01*
X195639Y479874D01*
X195639Y479874D01*
X195639D01*
X195646Y479867D01*
Y87778D01*
X194414Y87469D01*
X194216Y87840D01*
X191342Y91342D01*
X187840Y94216D01*
X183844Y96352D01*
X179509Y97667D01*
X175000Y98111D01*
X170491Y97667D01*
X166156Y96352D01*
X162160Y94216D01*
X158658Y91342D01*
X155784Y87840D01*
X153648Y83844D01*
X152333Y79509D01*
X151889Y75000D01*
X152333Y70491D01*
X153648Y66156D01*
X155784Y62160D01*
X158658Y58658D01*
X162160Y55784D01*
X166156Y53648D01*
X170491Y52333D01*
X175000Y51889D01*
X179509Y52333D01*
X183844Y53648D01*
X187840Y55784D01*
X191342Y58658D01*
X194216Y62160D01*
X194414Y62531D01*
X195646Y62222D01*
Y10000D01*
X195680Y9833D01*
X195278Y7814D01*
X194040Y5960D01*
X192186Y4722D01*
X190167Y4320D01*
X190000Y4354D01*
X10000D01*
X9833Y4320D01*
X7814Y4722D01*
X5960Y5960D01*
X4722Y7814D01*
X4320Y9833D01*
X4354Y10000D01*
Y62222D01*
X5586Y62531D01*
X5784Y62160D01*
X8658Y58658D01*
X12160Y55784D01*
X16156Y53648D01*
X20491Y52333D01*
X25000Y51889D01*
X29509Y52333D01*
X33844Y53648D01*
X37840Y55784D01*
X41342Y58658D01*
X44216Y62160D01*
X46352Y66156D01*
X47667Y70491D01*
X48111Y75000D01*
X47667Y79509D01*
X46352Y83844D01*
X44216Y87840D01*
X41342Y91342D01*
X37840Y94216D01*
X33844Y96352D01*
X29509Y97667D01*
X25000Y98111D01*
X20491Y97667D01*
X16156Y96352D01*
X12160Y94216D01*
X8658Y91342D01*
X5784Y87840D01*
X5586Y87469D01*
X4354Y87778D01*
Y479867D01*
X4361Y479874D01*
X4361Y479874D01*
X4361Y479874D01*
X4702Y485075D01*
X6007Y491636D01*
X7443Y495865D01*
X7862Y497043D01*
X7862Y497043D01*
X7862Y497043D01*
X8155Y497963D01*
X18325Y529955D01*
X33613Y574732D01*
X49848Y619175D01*
X67023Y663263D01*
X81800Y698940D01*
X84379Y701142D01*
X87935Y703321D01*
X91788Y704917D01*
X95843Y705891D01*
X100000Y706218D01*
X104157Y705891D01*
D02*
G37*
%LPC*%
G36*
X160250Y353806D02*
X158553Y353583D01*
X156972Y352928D01*
X155614Y351886D01*
X154572Y350528D01*
X154357Y350009D01*
X148674Y344326D01*
X147348Y342341D01*
X146882Y340000D01*
Y111284D01*
X97241Y61643D01*
X96722Y61428D01*
X95364Y60386D01*
X94322Y59028D01*
X93667Y57447D01*
X93444Y55750D01*
X93667Y54053D01*
X94322Y52472D01*
X95364Y51114D01*
X96722Y50072D01*
X98303Y49417D01*
X100000Y49194D01*
X101697Y49417D01*
X103278Y50072D01*
X104636Y51114D01*
X105678Y52472D01*
X105893Y52991D01*
X157326Y104424D01*
X158652Y106409D01*
X159117Y108750D01*
Y337466D01*
X163009Y341357D01*
X163528Y341572D01*
X164886Y342614D01*
X165928Y343972D01*
X166583Y345553D01*
X166806Y347250D01*
X166583Y348947D01*
X165928Y350528D01*
X164886Y351886D01*
X163528Y352928D01*
X161947Y353583D01*
X160250Y353806D01*
D02*
G37*
G36*
X101250Y419854D02*
X98117Y419441D01*
X95198Y418232D01*
X92691Y416309D01*
X90819Y413867D01*
X49000D01*
X46659Y413402D01*
X44674Y412076D01*
X7924Y375326D01*
X6598Y373341D01*
X6133Y371000D01*
Y263750D01*
X6598Y261409D01*
X7924Y259424D01*
X9909Y258098D01*
X12250Y257633D01*
X23390D01*
X23587Y257337D01*
X24580Y256674D01*
X25750Y256441D01*
X34250D01*
X35420Y256674D01*
X36413Y257337D01*
X37076Y258330D01*
X37309Y259500D01*
Y268000D01*
X37076Y269170D01*
X36413Y270163D01*
Y270444D01*
X37561Y271632D01*
X42034D01*
X42553Y271417D01*
X44250Y271194D01*
X45947Y271417D01*
X47528Y272072D01*
X48886Y273114D01*
X49928Y274472D01*
X50583Y276053D01*
X50806Y277750D01*
X50583Y279447D01*
X49928Y281028D01*
X48886Y282386D01*
X47528Y283428D01*
X45947Y284083D01*
X44250Y284306D01*
X42553Y284083D01*
X42034Y283867D01*
X36610D01*
X36413Y284163D01*
X35420Y284826D01*
X34942Y284921D01*
X35000Y286191D01*
X36170Y286424D01*
X37163Y287087D01*
X38337D01*
X39330Y286424D01*
X40500Y286191D01*
X49000D01*
X50170Y286424D01*
X51163Y287087D01*
X51360Y287382D01*
X53784D01*
X54303Y287167D01*
X56000Y286944D01*
X57697Y287167D01*
X59278Y287822D01*
X60636Y288864D01*
X61678Y290222D01*
X62333Y291803D01*
X62556Y293500D01*
X62333Y295197D01*
X61678Y296778D01*
X60636Y298136D01*
X59278Y299178D01*
X57697Y299833D01*
X56000Y300056D01*
X54303Y299833D01*
X53784Y299618D01*
X51360D01*
X51163Y299913D01*
X50170Y300576D01*
X49000Y300809D01*
X47817D01*
X47691Y302079D01*
X48170Y302174D01*
X49163Y302837D01*
X49360Y303132D01*
X53784D01*
X54303Y302917D01*
X56000Y302694D01*
X57697Y302917D01*
X59278Y303572D01*
X60636Y304614D01*
X61678Y305972D01*
X62333Y307553D01*
X62556Y309250D01*
X62333Y310947D01*
X61678Y312528D01*
X60636Y313886D01*
X59278Y314928D01*
X57697Y315583D01*
X56000Y315806D01*
X54303Y315583D01*
X53784Y315368D01*
X50291D01*
X49757Y316250D01*
X50291Y317132D01*
X92500D01*
X94841Y317598D01*
X96826Y318924D01*
X105576Y327674D01*
X106902Y329659D01*
X107368Y332000D01*
Y346519D01*
X109809Y348391D01*
X111732Y350898D01*
X112941Y353817D01*
X113354Y356950D01*
X112941Y360083D01*
X111732Y363002D01*
X109809Y365508D01*
X107302Y367432D01*
X104383Y368641D01*
X102155Y368934D01*
X101584Y369010D01*
Y370290D01*
X102155Y370366D01*
X104383Y370659D01*
X107302Y371868D01*
X109809Y373792D01*
X111732Y376298D01*
X112941Y379217D01*
X113354Y382350D01*
X112941Y385483D01*
X111732Y388402D01*
X109809Y390909D01*
X107302Y392832D01*
X104383Y394041D01*
X102155Y394334D01*
X101584Y394410D01*
Y395690D01*
X102155Y395766D01*
X104383Y396059D01*
X107302Y397268D01*
X109809Y399192D01*
X111732Y401698D01*
X112941Y404617D01*
X113354Y407750D01*
X112941Y410883D01*
X111732Y413802D01*
X109809Y416309D01*
X107302Y418232D01*
X104383Y419441D01*
X101250Y419854D01*
D02*
G37*
G36*
X91500Y208306D02*
X89803Y208083D01*
X88222Y207428D01*
X86864Y206386D01*
X85822Y205028D01*
X85167Y203447D01*
X84944Y201750D01*
X85167Y200053D01*
X85382Y199534D01*
Y85784D01*
X61241Y61643D01*
X60722Y61428D01*
X59364Y60386D01*
X58322Y59028D01*
X57667Y57447D01*
X57444Y55750D01*
X57667Y54053D01*
X58322Y52472D01*
X59364Y51114D01*
X60722Y50072D01*
X62303Y49417D01*
X64000Y49194D01*
X65697Y49417D01*
X67278Y50072D01*
X68636Y51114D01*
X69678Y52472D01*
X69893Y52991D01*
X95826Y78924D01*
X97152Y80909D01*
X97618Y83250D01*
Y199534D01*
X97833Y200053D01*
X98056Y201750D01*
X97833Y203447D01*
X97178Y205028D01*
X96136Y206386D01*
X94778Y207428D01*
X93197Y208083D01*
X91500Y208306D01*
D02*
G37*
G36*
X99980Y431880D02*
X89660D01*
Y428650D01*
X89857Y427659D01*
X90419Y426819D01*
X94919Y422319D01*
X95759Y421757D01*
X96750Y421560D01*
X99980D01*
Y431880D01*
D02*
G37*
G36*
X105750Y444740D02*
X102520D01*
Y434420D01*
X112840D01*
Y437650D01*
X112643Y438641D01*
X112081Y439481D01*
X107581Y443981D01*
X106741Y444543D01*
X105750Y444740D01*
D02*
G37*
G36*
X100000Y698111D02*
X95491Y697667D01*
X91156Y696352D01*
X87160Y694216D01*
X83658Y691342D01*
X80784Y687840D01*
X78648Y683844D01*
X77333Y679509D01*
X76889Y675000D01*
X77333Y670491D01*
X78648Y666156D01*
X80784Y662160D01*
X83658Y658658D01*
X87160Y655784D01*
X91156Y653648D01*
X95491Y652333D01*
X100000Y651889D01*
X104509Y652333D01*
X108844Y653648D01*
X112840Y655784D01*
X116342Y658658D01*
X119216Y662160D01*
X121352Y666156D01*
X122667Y670491D01*
X123111Y675000D01*
X122667Y679509D01*
X121352Y683844D01*
X119216Y687840D01*
X116342Y691342D01*
X112840Y694216D01*
X108844Y696352D01*
X104509Y697667D01*
X100000Y698111D01*
D02*
G37*
G36*
X112840Y431880D02*
X102520D01*
Y421560D01*
X105750D01*
X106741Y421757D01*
X107581Y422319D01*
X112081Y426819D01*
X112643Y427659D01*
X112840Y428650D01*
Y431880D01*
D02*
G37*
G36*
X99980Y444740D02*
X96750D01*
X95759Y444543D01*
X94919Y443981D01*
X90419Y439481D01*
X89857Y438641D01*
X89660Y437650D01*
Y434420D01*
X99980D01*
Y444740D01*
D02*
G37*
%LPD*%
G36*
X92691Y373792D02*
X95198Y371868D01*
X98117Y370659D01*
X100345Y370366D01*
X100916Y370290D01*
Y369010D01*
X100345Y368934D01*
X98117Y368641D01*
X95198Y367432D01*
X92691Y365508D01*
X90768Y363002D01*
X89559Y360083D01*
X89146Y356950D01*
X89559Y353817D01*
X90768Y350898D01*
X92691Y348391D01*
X95133Y346519D01*
Y334534D01*
X89966Y329367D01*
X49360D01*
X49163Y329663D01*
X48170Y330326D01*
X47000Y330559D01*
X38500D01*
X38138Y330487D01*
X36867Y331428D01*
Y349216D01*
X63884Y376232D01*
X90819D01*
X92691Y373792D01*
D02*
G37*
G36*
Y399192D02*
X95198Y397268D01*
X98117Y396059D01*
X100345Y395766D01*
X100916Y395690D01*
Y394410D01*
X100345Y394334D01*
X98117Y394041D01*
X95198Y392832D01*
X92691Y390909D01*
X90819Y388467D01*
X61350D01*
X59009Y388002D01*
X57024Y386676D01*
X26424Y356076D01*
X25098Y354091D01*
X24632Y351750D01*
Y300110D01*
X24337Y299913D01*
X23674Y298920D01*
X23441Y297750D01*
Y289250D01*
X23674Y288079D01*
X24337Y287087D01*
X25329Y286424D01*
X25808Y286329D01*
X25750Y285059D01*
X24580Y284826D01*
X23587Y284163D01*
X22924Y283171D01*
X22691Y282000D01*
Y273500D01*
X22924Y272330D01*
X23587Y271337D01*
X23424Y269919D01*
X23390Y269867D01*
X18368D01*
Y368466D01*
X51534Y401632D01*
X90819D01*
X92691Y399192D01*
D02*
G37*
D12*
X30000Y277750D02*
D03*
Y263750D02*
D03*
X42750Y309250D02*
D03*
Y323250D02*
D03*
D13*
X44750Y293500D02*
D03*
X30750D02*
D03*
D16*
X44750D02*
X56000D01*
X42750Y309250D02*
X56000D01*
X30000Y277750D02*
X44250D01*
X30000Y277750D02*
X30000Y277750D01*
X42750Y323250D02*
X92500D01*
X101250Y332000D01*
Y356950D01*
X30750Y293500D02*
Y351750D01*
X61350Y382350D01*
X101250D01*
X12250Y263750D02*
X30000D01*
X12250D02*
Y371000D01*
X49000Y407750D01*
X101250D01*
X91500Y83250D02*
Y201750D01*
X64000Y55750D02*
X91500Y83250D01*
X100000Y55750D02*
X153000Y108750D01*
Y340000D01*
X160250Y347250D01*
D18*
X101250Y433150D02*
D03*
D19*
Y407750D02*
D03*
Y382350D02*
D03*
Y356950D02*
D03*
D20*
X25000Y75000D02*
D03*
X175000D02*
D03*
X100000Y675000D02*
D03*
D21*
X44250Y277750D02*
D03*
X56000Y309250D02*
D03*
Y293500D02*
D03*
X64000Y55750D02*
D03*
X91500Y201750D02*
D03*
X160250Y347250D02*
D03*
X100000Y55750D02*
D03*
M02*
