G04 Layer_Color=65535*
%FSLAX44Y44*%
%MOMM*%
G71*
G01*
G75*
%ADD22C,0.2500*%
%ADD23C,0.2000*%
G36*
X65855Y298995D02*
X65972D01*
X66109Y298975D01*
X66401Y298897D01*
X66753Y298780D01*
X67123Y298624D01*
X67513Y298390D01*
X67689Y298234D01*
X67864Y298078D01*
X67884Y298058D01*
X67903Y298039D01*
X67943Y297980D01*
X68021Y297922D01*
X68157Y297727D01*
X68333Y297454D01*
X68508Y297142D01*
X68664Y296751D01*
X68762Y296322D01*
X68781Y296088D01*
X68801Y295854D01*
Y295835D01*
Y295757D01*
X68781Y295640D01*
Y295503D01*
X68742Y295327D01*
X68703Y295132D01*
X68645Y294898D01*
X68567Y294664D01*
X68469Y294430D01*
X68333Y294177D01*
X68196Y293943D01*
X68001Y293708D01*
X67786Y293474D01*
X67533Y293260D01*
X67240Y293084D01*
X66909Y292928D01*
X68742Y289261D01*
X68762Y289241D01*
X68781Y289183D01*
X68801Y289105D01*
Y289007D01*
Y288968D01*
X68781Y288890D01*
X68723Y288773D01*
X68625Y288656D01*
X68606Y288636D01*
X68528Y288578D01*
X68411Y288519D01*
X68274Y288500D01*
X68216D01*
X68099Y288539D01*
X68001Y288578D01*
X67923Y288617D01*
X67845Y288695D01*
X67786Y288793D01*
X65836Y292694D01*
X65816D01*
X65777Y292714D01*
X63553D01*
Y289027D01*
Y289007D01*
Y288949D01*
X63534Y288851D01*
X63495Y288773D01*
X63417Y288675D01*
X63339Y288578D01*
X63202Y288519D01*
X63027Y288500D01*
X62949D01*
X62851Y288519D01*
X62773Y288559D01*
X62675Y288617D01*
X62578Y288715D01*
X62519Y288832D01*
X62500Y289007D01*
Y298488D01*
Y298507D01*
Y298566D01*
X62519Y298663D01*
X62558Y298761D01*
X62617Y298839D01*
X62715Y298936D01*
X62832Y298995D01*
X63007Y299014D01*
X65777D01*
X65855Y298995D01*
D02*
G37*
G36*
X68450Y316495D02*
X68547Y316456D01*
X68625Y316378D01*
X68723Y316300D01*
X68781Y316163D01*
X68801Y315988D01*
Y315968D01*
Y315910D01*
X68781Y315812D01*
X68742Y315734D01*
X68664Y315637D01*
X68586Y315539D01*
X68450Y315480D01*
X68274Y315461D01*
X64997D01*
X64880Y315441D01*
X64724Y315402D01*
X64548Y315344D01*
X64373Y315266D01*
X64178Y315149D01*
X64002Y314993D01*
X63983Y314973D01*
X63924Y314915D01*
X63865Y314817D01*
X63787Y314681D01*
X63690Y314525D01*
X63631Y314329D01*
X63573Y314115D01*
X63553Y313881D01*
Y308614D01*
Y308594D01*
Y308497D01*
X63573Y308380D01*
X63612Y308224D01*
X63670Y308048D01*
X63748Y307873D01*
X63846Y307678D01*
X64002Y307502D01*
X64022Y307482D01*
X64080Y307424D01*
X64178Y307365D01*
X64314Y307287D01*
X64470Y307190D01*
X64665Y307131D01*
X64880Y307073D01*
X65114Y307053D01*
X67747D01*
Y311247D01*
X66616D01*
X66518Y311267D01*
X66440Y311306D01*
X66343Y311384D01*
X66245Y311462D01*
X66187Y311598D01*
X66167Y311774D01*
Y311794D01*
Y311852D01*
X66187Y311950D01*
X66226Y312047D01*
X66304Y312125D01*
X66382Y312223D01*
X66518Y312281D01*
X66694Y312301D01*
X68352D01*
X68450Y312281D01*
X68547Y312242D01*
X68625Y312164D01*
X68723Y312086D01*
X68781Y311950D01*
X68801Y311774D01*
Y306507D01*
Y306488D01*
Y306429D01*
X68781Y306351D01*
X68742Y306254D01*
X68664Y306156D01*
X68586Y306078D01*
X68450Y306019D01*
X68274Y306000D01*
X65016D01*
X64938Y306019D01*
X64724Y306039D01*
X64470Y306098D01*
X64178Y306195D01*
X63865Y306312D01*
X63553Y306507D01*
X63261Y306761D01*
X63222Y306800D01*
X63144Y306897D01*
X63027Y307053D01*
X62890Y307287D01*
X62734Y307541D01*
X62617Y307873D01*
X62539Y308224D01*
X62500Y308614D01*
Y313881D01*
Y313900D01*
Y313939D01*
Y313978D01*
X62519Y314056D01*
X62539Y314271D01*
X62597Y314525D01*
X62695Y314817D01*
X62812Y315129D01*
X63007Y315441D01*
X63261Y315734D01*
X63300Y315773D01*
X63397Y315851D01*
X63553Y315988D01*
X63787Y316124D01*
X64041Y316261D01*
X64373Y316397D01*
X64724Y316475D01*
X65114Y316514D01*
X68352D01*
X68450Y316495D01*
D02*
G37*
G36*
X65836Y283995D02*
X66031Y283975D01*
X66284Y283917D01*
X66596Y283839D01*
X66909Y283702D01*
X67221Y283507D01*
X67513Y283254D01*
X67552Y283215D01*
X67630Y283117D01*
X67747Y282961D01*
X67903Y282727D01*
X68040Y282454D01*
X68157Y282142D01*
X68235Y281791D01*
X68274Y281381D01*
Y281361D01*
Y281322D01*
Y281264D01*
X68255Y281166D01*
X68216Y280932D01*
X68157Y280659D01*
X68040Y280327D01*
X67864Y279976D01*
X67747Y279820D01*
X67630Y279645D01*
X67474Y279489D01*
X67299Y279333D01*
X67318Y279313D01*
X67357Y279294D01*
X67435Y279235D01*
X67533Y279157D01*
X67650Y279079D01*
X67767Y278962D01*
X67903Y278825D01*
X68060Y278669D01*
X68196Y278474D01*
X68333Y278279D01*
X68450Y278065D01*
X68567Y277811D01*
X68664Y277558D01*
X68742Y277265D01*
X68781Y276972D01*
X68801Y276641D01*
Y276621D01*
Y276582D01*
Y276524D01*
X68781Y276426D01*
Y276309D01*
X68762Y276173D01*
X68684Y275880D01*
X68567Y275529D01*
X68411Y275158D01*
X68176Y274768D01*
X68021Y274592D01*
X67864Y274417D01*
X67845D01*
X67825Y274378D01*
X67767Y274339D01*
X67708Y274280D01*
X67513Y274124D01*
X67240Y273968D01*
X66928Y273793D01*
X66538Y273636D01*
X66109Y273539D01*
X65875Y273519D01*
X65641Y273500D01*
X62929D01*
X62851Y273519D01*
X62754Y273559D01*
X62656Y273617D01*
X62578Y273715D01*
X62519Y273832D01*
X62500Y274007D01*
Y283488D01*
Y283507D01*
Y283566D01*
X62519Y283663D01*
X62558Y283761D01*
X62617Y283839D01*
X62715Y283936D01*
X62832Y283995D01*
X63007Y284014D01*
X65758D01*
X65836Y283995D01*
D02*
G37*
%LPC*%
G36*
X65641Y297961D02*
X63553D01*
Y293767D01*
X65680D01*
X65797Y293786D01*
X65953Y293806D01*
X66148Y293845D01*
X66382Y293923D01*
X66635Y294021D01*
X66889Y294177D01*
X67123Y294372D01*
X67143Y294391D01*
X67221Y294489D01*
X67318Y294606D01*
X67435Y294781D01*
X67552Y294996D01*
X67650Y295250D01*
X67728Y295542D01*
X67747Y295854D01*
Y295874D01*
Y295893D01*
Y296010D01*
X67708Y296166D01*
X67669Y296361D01*
X67591Y296595D01*
X67494Y296849D01*
X67338Y297103D01*
X67123Y297337D01*
X67104Y297356D01*
X67006Y297434D01*
X66889Y297532D01*
X66714Y297649D01*
X66499Y297766D01*
X66245Y297863D01*
X65953Y297941D01*
X65641Y297961D01*
D02*
G37*
G36*
Y282961D02*
X63553D01*
Y279801D01*
X65758D01*
X65875Y279820D01*
X66031Y279859D01*
X66187Y279918D01*
X66382Y279996D01*
X66577Y280093D01*
X66753Y280250D01*
X66772Y280269D01*
X66831Y280327D01*
X66909Y280425D01*
X66987Y280562D01*
X67065Y280737D01*
X67143Y280932D01*
X67201Y281147D01*
X67221Y281381D01*
Y281400D01*
Y281498D01*
X67201Y281615D01*
X67162Y281771D01*
X67104Y281927D01*
X67026Y282122D01*
X66909Y282317D01*
X66753Y282493D01*
X66733Y282512D01*
X66674Y282571D01*
X66577Y282649D01*
X66440Y282727D01*
X66284Y282805D01*
X66089Y282883D01*
X65875Y282941D01*
X65641Y282961D01*
D02*
G37*
G36*
Y278747D02*
X63553D01*
Y274553D01*
X65680D01*
X65797Y274573D01*
X65953Y274592D01*
X66148Y274631D01*
X66382Y274709D01*
X66635Y274807D01*
X66889Y274963D01*
X67123Y275158D01*
X67143Y275178D01*
X67221Y275275D01*
X67318Y275392D01*
X67435Y275568D01*
X67552Y275782D01*
X67650Y276036D01*
X67728Y276329D01*
X67747Y276641D01*
Y276660D01*
Y276680D01*
Y276797D01*
X67708Y276953D01*
X67669Y277148D01*
X67591Y277382D01*
X67494Y277635D01*
X67338Y277889D01*
X67123Y278123D01*
X67104Y278143D01*
X67006Y278221D01*
X66889Y278318D01*
X66714Y278435D01*
X66499Y278552D01*
X66245Y278650D01*
X65953Y278728D01*
X65641Y278747D01*
D02*
G37*
%LPD*%
D22*
X106250Y192000D02*
G03*
X106250Y192000I-1250J0D01*
G01*
X143500Y272250D02*
G03*
X143500Y272250I-1250J0D01*
G01*
X82750Y258000D02*
G03*
X82750Y258000I-1250J0D01*
G01*
D23*
X87250Y343050D02*
X115250D01*
X87250Y447350D02*
X115250D01*
X87250Y343050D02*
Y447350D01*
X115250Y343050D02*
Y447350D01*
X117500Y283500D02*
Y303500D01*
X97500Y283500D02*
Y303500D01*
X95000Y293500D02*
X120000D01*
X97500Y303500D02*
X117500Y293500D01*
X97500Y283500D02*
X117500Y293500D01*
X144250Y9000D02*
Y43000D01*
X127750Y9000D02*
Y43000D01*
X144250D01*
X127750Y9000D02*
X144250D01*
X108250D02*
Y43000D01*
X91750Y9000D02*
Y43000D01*
X108250D01*
X91750Y9000D02*
X108250D01*
X72250D02*
Y43000D01*
X55750Y9000D02*
Y43000D01*
X72250D01*
X55750Y9000D02*
X72250D01*
X123000Y124250D02*
Y150750D01*
X135500Y124250D02*
Y150750D01*
X123000Y124250D02*
X135500D01*
X123000Y150750D02*
X135500D01*
X52000Y177250D02*
Y203750D01*
X39500Y177250D02*
Y203750D01*
X52000D01*
X39500Y177250D02*
X52000D01*
X166500Y308750D02*
Y335250D01*
X154000Y308750D02*
Y335250D01*
X166500D01*
X154000Y308750D02*
X166500D01*
X130750Y243000D02*
Y269500D01*
X118250Y243000D02*
Y269500D01*
X130750D01*
X118250Y243000D02*
X130750D01*
X85250Y219500D02*
X111750D01*
X85250Y207000D02*
X111750D01*
X85250D02*
Y219500D01*
X111750Y207000D02*
Y219500D01*
X71000Y243000D02*
Y269500D01*
X58500Y243000D02*
Y269500D01*
X71000D01*
X58500Y243000D02*
X71000D01*
X114000Y189000D02*
X124000D01*
Y181000D02*
Y189000D01*
X114000Y159000D02*
X124000D01*
Y167000D01*
X145250Y281250D02*
Y291250D01*
X153250D01*
X175250Y281250D02*
Y291250D01*
X167250D02*
X175250D01*
X90500Y255000D02*
X100500D01*
Y247000D02*
Y255000D01*
X90500Y225000D02*
X100500D01*
Y233000D01*
X92250Y163250D02*
Y189750D01*
X79750Y163250D02*
Y189750D01*
X92250D01*
X79750Y163250D02*
X92250D01*
X167750Y228500D02*
Y255000D01*
X155250Y228500D02*
Y255000D01*
X167750D01*
X155250Y228500D02*
X167750D01*
X71250Y213250D02*
Y239750D01*
X58750Y213250D02*
Y239750D01*
X71250D01*
X58750Y213250D02*
X71250D01*
X57750Y156500D02*
X74250D01*
X57750Y190500D02*
X74250D01*
X57750Y156500D02*
Y190500D01*
X74250Y156500D02*
Y190500D01*
X134500Y221750D02*
X151000D01*
X134500Y255750D02*
X151000D01*
X134500Y221750D02*
Y255750D01*
X151000Y221750D02*
Y255750D01*
X38000Y222000D02*
X54500D01*
X38000Y256000D02*
X54500D01*
X38000Y222000D02*
Y256000D01*
X54500Y222000D02*
Y256000D01*
M02*
