G04 Layer_Color=8388736*
%FSLAX44Y44*%
%MOMM*%
G71*
G01*
G75*
G04:AMPARAMS|DCode=24|XSize=1.5032mm|YSize=1.2032mm|CornerRadius=0.3516mm|HoleSize=0mm|Usage=FLASHONLY|Rotation=0.000|XOffset=0mm|YOffset=0mm|HoleType=Round|Shape=RoundedRectangle|*
%AMROUNDEDRECTD24*
21,1,1.5032,0.5000,0,0,0.0*
21,1,0.8000,1.2032,0,0,0.0*
1,1,0.7032,0.4000,-0.2500*
1,1,0.7032,-0.4000,-0.2500*
1,1,0.7032,-0.4000,0.2500*
1,1,0.7032,0.4000,0.2500*
%
%ADD24ROUNDEDRECTD24*%
%ADD25R,1.4532X1.2032*%
%ADD26R,1.0532X1.0532*%
%ADD27R,1.0532X1.0532*%
%ADD28R,1.3032X0.8032*%
%ADD29R,0.8032X1.3032*%
%ADD30P,2.1683X8X292.5*%
%ADD31C,2.0032*%
%ADD32C,4.2032*%
%ADD33C,0.9032*%
D24*
X84000Y309250D02*
D03*
Y293500D02*
D03*
Y277750D02*
D03*
X131000D02*
D03*
Y293500D02*
D03*
Y309250D02*
D03*
D25*
X136000Y36000D02*
D03*
Y16000D02*
D03*
X100000Y36000D02*
D03*
Y16000D02*
D03*
X64000Y36000D02*
D03*
Y16000D02*
D03*
X66000Y163500D02*
D03*
Y183500D02*
D03*
X142750Y228750D02*
D03*
Y248750D02*
D03*
X46250Y229000D02*
D03*
Y249000D02*
D03*
D26*
X129250Y130500D02*
D03*
Y144500D02*
D03*
X45750Y197500D02*
D03*
Y183500D02*
D03*
X160250Y329000D02*
D03*
Y315000D02*
D03*
X124500Y263250D02*
D03*
Y249250D02*
D03*
X64750Y263250D02*
D03*
Y249250D02*
D03*
X86000Y183500D02*
D03*
Y169500D02*
D03*
X161500Y248750D02*
D03*
Y234750D02*
D03*
X65000Y233500D02*
D03*
Y219500D02*
D03*
D27*
X91500Y213250D02*
D03*
X105500D02*
D03*
D28*
X105000Y183500D02*
D03*
Y164500D02*
D03*
X129000Y174000D02*
D03*
X81500Y249500D02*
D03*
Y230500D02*
D03*
X105500Y240000D02*
D03*
D29*
X150750Y272250D02*
D03*
X169750D02*
D03*
X160250Y296250D02*
D03*
D30*
X101250Y433150D02*
D03*
D31*
Y407750D02*
D03*
Y382350D02*
D03*
Y356950D02*
D03*
D32*
X25000Y75000D02*
D03*
X175000D02*
D03*
X100000Y675000D02*
D03*
D33*
X44250Y277750D02*
D03*
X56000Y309250D02*
D03*
Y293500D02*
D03*
X64000Y55750D02*
D03*
X91500Y201750D02*
D03*
X160250Y347250D02*
D03*
X100000Y55750D02*
D03*
M02*
