G04 Layer_Color=16711935*
%FSLAX44Y44*%
%MOMM*%
G71*
G01*
G75*
%ADD32C,0.2540*%
%ADD41C,0.2000*%
D32*
X586000Y1530000D02*
G03*
X666500Y1649000I-250114J255923D01*
G01*
X81940Y1379330D02*
G03*
X100940Y1360330I19000J0D01*
G01*
X100440Y1590330D02*
G03*
X82190Y1572080I0J-18250D01*
G01*
X371190Y1571830D02*
G03*
X353440Y1590580I-18250J500D01*
G01*
Y1450080D02*
G03*
X371190Y1470080I-1125J18875D01*
G01*
X243940Y1450080D02*
G03*
X222190Y1432330I-2000J-19750D01*
G01*
X203440Y1360330D02*
G03*
X222190Y1379330I-125J18875D01*
G01*
X670000Y1700000D02*
G03*
X660000Y1710000I-10000J0D01*
G01*
X540000D02*
G03*
X531000Y1700000I500J-9500D01*
G01*
X527500Y1650000D02*
G03*
X531000Y1667500I-37000J16500D01*
G01*
X435000Y1577500D02*
G03*
X450827Y1580459I-144J44576D01*
G01*
Y1580459D02*
G03*
X527500Y1650000I-110725J199119D01*
G01*
X400000Y1577500D02*
G03*
X391000Y1567500I500J-9500D01*
G01*
Y1450000D02*
G03*
X400500Y1438532I10484J-984D01*
G01*
X666500Y1649000D02*
G03*
X670000Y1666500I-37000J16500D01*
G01*
X449926Y1440939D02*
G03*
X532016Y1484976I-143610J366233D01*
G01*
X741327Y1441491D02*
G03*
X956500Y1649000I-145011J365681D01*
G01*
X725500Y1438532D02*
G03*
X741327Y1441491I-144J44576D01*
G01*
X956500Y1649000D02*
G03*
X960000Y1666500I-37000J16500D01*
G01*
X681000Y1450000D02*
G03*
X690500Y1438532I10484J-984D01*
G01*
X690000Y1577500D02*
G03*
X681000Y1567500I500J-9500D01*
G01*
X740827Y1580459D02*
G03*
X817500Y1650000I-110725J199119D01*
G01*
X725000Y1577500D02*
G03*
X740827Y1580459I-144J44576D01*
G01*
X817500Y1650000D02*
G03*
X821000Y1667500I-37000J16500D01*
G01*
X830000Y1710000D02*
G03*
X821000Y1700000I500J-9500D01*
G01*
X960000D02*
G03*
X950000Y1710000I-10000J0D01*
G01*
X820000Y1110000D02*
G03*
X840000Y1090000I20000J0D01*
G01*
X940000D02*
G03*
X960000Y1110000I0J20000D01*
G01*
X840000Y1350000D02*
G03*
X820000Y1330000I0J-20000D01*
G01*
X960000D02*
G03*
X940000Y1350000I-20000J0D01*
G01*
X660000Y1110000D02*
G03*
X680000Y1090000I20000J0D01*
G01*
X780000D02*
G03*
X800000Y1110000I0J20000D01*
G01*
X680000Y1350000D02*
G03*
X660000Y1330000I0J-20000D01*
G01*
X800000D02*
G03*
X780000Y1350000I-20000J0D01*
G01*
X120000Y1230000D02*
G03*
X100000Y1210000I0J-20000D01*
G01*
Y1110000D02*
G03*
X120000Y1090000I20000J0D01*
G01*
X360000Y1210000D02*
G03*
X340000Y1230000I-20000J0D01*
G01*
Y1090000D02*
G03*
X360000Y1110000I0J20000D01*
G01*
X400000Y1230000D02*
G03*
X380000Y1210000I0J-20000D01*
G01*
Y1110000D02*
G03*
X400000Y1090000I20000J0D01*
G01*
X640000Y1210000D02*
G03*
X620000Y1230000I-20000J0D01*
G01*
Y1090000D02*
G03*
X640000Y1110000I0J20000D01*
G01*
X280000Y1390000D02*
G03*
X260000Y1370000I0J-20000D01*
G01*
Y1270000D02*
G03*
X280000Y1250000I20000J0D01*
G01*
X620000D02*
G03*
X640000Y1270000I0J20000D01*
G01*
Y1370000D02*
G03*
X620000Y1390000I-20000J0D01*
G01*
X1580000Y1090000D02*
G03*
X1590000Y1100000I0J10000D01*
G01*
X980000Y1100000D02*
G03*
X990000Y1090000I10000J0D01*
G01*
X1590000Y1700000D02*
G03*
X1580000Y1710000I-10000J0D01*
G01*
X990000D02*
G03*
X980000Y1700000I0J-10000D01*
G01*
X80000Y1070000D02*
G03*
X50000Y1040000I0J-30000D01*
G01*
X550000D02*
G03*
X520000Y1070000I-30000J0D01*
G01*
Y570000D02*
G03*
X550000Y600000I0J30000D01*
G01*
X50000D02*
G03*
X80000Y570000I30000J0D01*
G01*
X600000Y1070000D02*
G03*
X570000Y1040000I0J-30000D01*
G01*
X1070000D02*
G03*
X1040000Y1070000I-30000J0D01*
G01*
Y570000D02*
G03*
X1070000Y600000I0J30000D01*
G01*
X570000D02*
G03*
X600000Y570000I30000J0D01*
G01*
X1120000Y1070000D02*
G03*
X1090000Y1040000I0J-30000D01*
G01*
X1590000D02*
G03*
X1560000Y1070000I-30000J0D01*
G01*
Y570000D02*
G03*
X1590000Y600000I0J30000D01*
G01*
X1090000D02*
G03*
X1120000Y570000I30000J0D01*
G01*
X1090000Y80000D02*
G03*
X1120000Y50000I30000J0D01*
G01*
X1560000D02*
G03*
X1590000Y80000I0J30000D01*
G01*
Y520000D02*
G03*
X1560000Y550000I-30000J0D01*
G01*
X1120000D02*
G03*
X1090000Y520000I0J-30000D01*
G01*
X570000Y80000D02*
G03*
X600000Y50000I30000J0D01*
G01*
X1040000D02*
G03*
X1070000Y80000I0J30000D01*
G01*
Y520000D02*
G03*
X1040000Y550000I-30000J0D01*
G01*
X600000D02*
G03*
X570000Y520000I0J-30000D01*
G01*
X50000Y80000D02*
G03*
X80000Y50000I30000J0D01*
G01*
X520000D02*
G03*
X550000Y80000I0J30000D01*
G01*
Y520000D02*
G03*
X520000Y550000I-30000J0D01*
G01*
X80000D02*
G03*
X50000Y520000I0J-30000D01*
G01*
X532000Y1485000D02*
X661000Y1485000D01*
X586000Y1530000D02*
X661000D01*
X450000Y1390000D02*
X620000D01*
X30000Y1340000D02*
X131750Y1340000D01*
X176750D02*
X240000Y1340000D01*
X30000Y1290000D02*
X80000D01*
X30000Y1180000D02*
Y1290000D01*
Y1180000D02*
X80000D01*
X449926Y1440939D02*
X450000Y1410000D01*
X400500Y1438532D02*
X405000Y1438250D01*
X405000Y1410000D02*
X405000Y1438250D01*
X30000Y1340000D02*
Y1730000D01*
X190000D01*
Y1610000D02*
Y1730000D01*
Y1610000D02*
X201750D01*
X250000Y1730000D02*
X580000D01*
X250000Y1610000D02*
Y1730000D01*
X246750Y1610000D02*
X250000D01*
X371000Y1543000D02*
X371190Y1571830D01*
X390988Y1567500D02*
X391000Y1543000D01*
Y1450000D02*
Y1498000D01*
X371000D02*
X371190Y1470080D01*
X100940Y1360330D02*
X131750Y1360000D01*
X176750D02*
X203440Y1360330D01*
X246750Y1590000D02*
X353440Y1590580D01*
X100440Y1590330D02*
X201750Y1590000D01*
X280000Y1390000D02*
X405000D01*
X681000Y1450000D02*
Y1485000D01*
Y1530000D02*
Y1567500D01*
X910000Y1730000D02*
X1325000Y1730000D01*
X625000D02*
X865000Y1730000D01*
X830000Y1710000D02*
X865000Y1710000D01*
X910000D02*
X950000Y1710000D01*
X540000Y1710000D02*
X580000Y1710000D01*
X625000D02*
X660000Y1710000D01*
X260000Y1370000D02*
X260000Y1340000D01*
X260000Y1270000D02*
X260000Y1295000D01*
X240000D02*
X240000Y1290000D01*
X80000D02*
X240000D01*
X100000Y1180000D02*
Y1210000D01*
Y1110000D02*
Y1135000D01*
X80000Y1130000D02*
Y1135000D01*
X30000Y1130000D02*
X80000D01*
X30000Y855000D02*
Y1130000D01*
X990000Y1710000D02*
X1325000Y1710000D01*
X1370000D02*
X1580000Y1710000D01*
X1370000Y1730000D02*
X1610000D01*
X1590000Y1580000D02*
X1590000Y1700000D01*
X1610000Y1580000D02*
Y1730000D01*
Y1270000D02*
Y1535000D01*
X1590000Y1270000D02*
Y1535000D01*
Y1100000D02*
Y1225000D01*
Y600000D02*
Y790000D01*
Y835000D02*
Y1040000D01*
X1610000Y835000D02*
Y1225000D01*
X495000Y1070000D02*
X520000Y1070000D01*
X50000Y810000D02*
X50000Y600000D01*
X50000Y855000D02*
X50000Y1040000D01*
X80000Y1070000D02*
X210000Y1070000D01*
X255000D02*
X450000D01*
X550000Y845000D02*
X550000Y1040000D01*
X550000Y800000D02*
X550000Y600000D01*
X750000Y1090000D02*
X780000Y1090000D01*
X750000Y1070000D02*
X875000D01*
X920000D02*
X1040000Y1070000D01*
X570000Y800000D02*
X570000Y600000D01*
X570000Y845000D02*
X570000Y1040000D01*
X600000Y1070000D02*
X705000Y1070000D01*
X840000Y1090000D02*
X875000Y1090000D01*
X920000D02*
X940000Y1090000D01*
X820000Y1110000D02*
X820000Y1200000D01*
X820000Y1330000D02*
X820000Y1245000D01*
X800000D02*
Y1330000D01*
Y1110000D02*
Y1200000D01*
X660000Y1330000D02*
X660000Y1185000D01*
X495000Y1090000D02*
X620000Y1090000D01*
X680000D02*
X705000Y1090000D01*
X660000Y1110000D02*
X660000Y1140000D01*
X640000Y1110000D02*
Y1140000D01*
Y1185000D02*
Y1210000D01*
X540000Y1250000D02*
X620000Y1250000D01*
X540000Y1230000D02*
X620000Y1230000D01*
X280000Y1250000D02*
X495000Y1250000D01*
X400000Y1230000D02*
X495000Y1230000D01*
X360000Y1180000D02*
Y1210000D01*
X380000Y1180000D02*
Y1210000D01*
X400000Y1090000D02*
X450000Y1090000D01*
X360000Y1110000D02*
Y1135000D01*
X380000Y1110000D02*
Y1120000D01*
Y1135000D01*
X120000Y1090000D02*
X210000Y1090000D01*
X255000D02*
X340000Y1090000D01*
X980000Y1235000D02*
X980000Y1700000D01*
X960000Y1235000D02*
X960000Y1330000D01*
X980000Y1190000D02*
X980000Y1100000D01*
X960000Y1190000D02*
X960000Y1110000D01*
X990000Y1090000D02*
X1305000D01*
X1120000Y1070000D02*
X1305000Y1070000D01*
X1350000Y1090000D02*
X1580000Y1090000D01*
X1350000Y1070000D02*
X1560000Y1070000D01*
X1070000Y865000D02*
X1070000Y1040000D01*
X1090000Y865000D02*
Y1040000D01*
X1070000Y820000D02*
X1070000Y600000D01*
X1090000D02*
Y820000D01*
X1120000Y570000D02*
X1325000Y570000D01*
X1120000Y550000D02*
X1325000Y550000D01*
X1370000Y570000D02*
X1560000Y570000D01*
X1370000Y550000D02*
X1560000Y550000D01*
X1590000Y320000D02*
Y520000D01*
X1610000Y320000D02*
Y790000D01*
X1590000Y80000D02*
Y275000D01*
X1610000Y30000D02*
Y275000D01*
X1365000Y50000D02*
X1560000Y50000D01*
X1365000Y30000D02*
X1610000D01*
X825000Y50000D02*
X1040000Y50000D01*
X825000Y30000D02*
X1320000D01*
X1120000Y50000D02*
X1320000Y50000D01*
X1070000Y325000D02*
Y520000D01*
X1090000Y325000D02*
Y520000D01*
Y80000D02*
Y280000D01*
X1070000D02*
X1070000Y80000D01*
X30000Y320000D02*
Y810000D01*
X80000Y570000D02*
X275000Y570000D01*
X320000D02*
X520000Y570000D01*
X570000Y320000D02*
X570000Y520000D01*
X550000Y320000D02*
X550000Y520000D01*
X570000Y275000D02*
X570000Y80000D01*
X600000Y50000D02*
X780000Y50000D01*
X337500Y30000D02*
X780000D01*
X30000D02*
Y275000D01*
X50000D02*
X50000Y80000D01*
X50000Y320000D02*
X50000Y520000D01*
X80000Y550000D02*
X275000Y550000D01*
X320000D02*
X520000Y550000D01*
X550000Y275000D02*
X550000Y80000D01*
X337500Y50000D02*
X520000Y50000D01*
X30000Y30000D02*
X292500D01*
X80000Y50000D02*
X292500Y50000D01*
X222190Y1379330D02*
Y1432330D01*
X243940Y1450080D02*
X353440D01*
X81940Y1379330D02*
X82190Y1572080D01*
X531000Y1667500D02*
Y1700000D01*
X400000Y1577500D02*
X435000D01*
X670000Y1666500D02*
Y1700000D01*
X690500Y1438532D02*
X725500D01*
X960000Y1666500D02*
Y1700000D01*
X690000Y1577500D02*
X725000D01*
X821000Y1667500D02*
Y1700000D01*
X840000Y1350000D02*
X940000D01*
X680000D02*
X780000D01*
X120000Y1230000D02*
X340000D01*
X640000Y1270000D02*
Y1370000D01*
X0Y0D02*
Y1760000D01*
X1640000D01*
Y0D02*
Y1760000D01*
X0Y0D02*
X1640000D01*
X600000Y570000D02*
X790000Y570000D01*
X600000Y550000D02*
X790000Y550000D01*
X835000Y570000D02*
X1040000Y570000D01*
X835000Y550000D02*
X1040000Y550000D01*
X81750Y1379000D02*
G03*
X100750Y1360000I19000J0D01*
G01*
X100250Y1590000D02*
G03*
X82000Y1571750I0J-18250D01*
G01*
X371000Y1571500D02*
G03*
X353250Y1590250I-18250J500D01*
G01*
Y1449750D02*
G03*
X371000Y1469750I-1125J18875D01*
G01*
X243750Y1449750D02*
G03*
X222000Y1432000I-2000J-19750D01*
G01*
X203250Y1360000D02*
G03*
X222000Y1379000I-125J18875D01*
G01*
X100750Y1360000D02*
X203250D01*
X222000Y1379000D02*
Y1432000D01*
X243750Y1449750D02*
X353250D01*
X371000Y1469750D02*
Y1571500D01*
X100250Y1590000D02*
X353250Y1590250D01*
X81750Y1379000D02*
X82000Y1571750D01*
X669988Y1700000D02*
G03*
X659988Y1710000I-10000J0D01*
G01*
X539988D02*
G03*
X530988Y1700000I500J-9500D01*
G01*
X527488Y1650000D02*
G03*
X530988Y1667500I-37000J16500D01*
G01*
X434988Y1577500D02*
G03*
X450815Y1580459I-144J44576D01*
G01*
Y1580459D02*
G03*
X527488Y1650000I-110725J199119D01*
G01*
X399988Y1577500D02*
G03*
X390988Y1567500I500J-9500D01*
G01*
Y1450000D02*
G03*
X400488Y1438532I10484J-984D01*
G01*
X666488Y1649000D02*
G03*
X669988Y1666500I-37000J16500D01*
G01*
X435488Y1438532D02*
G03*
X451315Y1441491I-144J44576D01*
G01*
Y1441491D02*
G03*
X666488Y1649000I-145011J365681D01*
G01*
X659988Y1710000D02*
X539988D01*
X530988Y1700000D02*
Y1667500D01*
X434988Y1577500D02*
X399988D01*
X390988Y1567500D02*
Y1450000D01*
X669988Y1700000D02*
Y1666500D01*
X435488Y1438532D02*
X400488D01*
X959988Y1700000D02*
G03*
X949988Y1710000I-10000J0D01*
G01*
X829988D02*
G03*
X820988Y1700000I500J-9500D01*
G01*
X817488Y1650000D02*
G03*
X820988Y1667500I-37000J16500D01*
G01*
X724988Y1577500D02*
G03*
X740815Y1580459I-144J44576D01*
G01*
Y1580459D02*
G03*
X817488Y1650000I-110725J199119D01*
G01*
X689988Y1577500D02*
G03*
X680988Y1567500I500J-9500D01*
G01*
Y1450000D02*
G03*
X690488Y1438532I10484J-984D01*
G01*
X956488Y1649000D02*
G03*
X959988Y1666500I-37000J16500D01*
G01*
X725488Y1438532D02*
G03*
X741315Y1441491I-144J44576D01*
G01*
Y1441491D02*
G03*
X956488Y1649000I-145011J365681D01*
G01*
X949988Y1710000D02*
X829988D01*
X820988Y1700000D02*
Y1667500D01*
X724988Y1577500D02*
X689988D01*
X680988Y1567500D02*
Y1450000D01*
X959988Y1700000D02*
Y1666500D01*
X725488Y1438532D02*
X690488D01*
X640000Y1370000D02*
G03*
X620000Y1390000I-20000J0D01*
G01*
Y1250000D02*
G03*
X640000Y1270000I0J20000D01*
G01*
X260000D02*
G03*
X280000Y1250000I20000J0D01*
G01*
Y1390000D02*
G03*
X260000Y1370000I0J-20000D01*
G01*
X620000Y1390000D02*
X280000D01*
X640000Y1370000D02*
Y1270000D01*
X620000Y1250000D02*
X280000D01*
X260000Y1370000D02*
Y1270000D01*
X1580000Y1090000D02*
G03*
X1590000Y1100000I0J10000D01*
G01*
X980000Y1100000D02*
G03*
X990000Y1090000I10000J0D01*
G01*
X1590000Y1700000D02*
G03*
X1580000Y1710000I-10000J0D01*
G01*
X990000D02*
G03*
X980000Y1700000I0J-10000D01*
G01*
X990000Y1090000D02*
X1580000D01*
X1590000Y1100000D02*
Y1700000D01*
X980000Y1100000D02*
Y1700000D01*
X990000Y1710000D02*
X1580000D01*
X800000Y1330000D02*
G03*
X780000Y1350000I-20000J0D01*
G01*
X680000D02*
G03*
X660000Y1330000I0J-20000D01*
G01*
X780000Y1090000D02*
G03*
X800000Y1110000I0J20000D01*
G01*
X660000D02*
G03*
X680000Y1090000I20000J0D01*
G01*
X800000Y1110000D02*
Y1330000D01*
X780000Y1350000D02*
X680000D01*
X660000Y1110000D02*
Y1330000D01*
X780000Y1090000D02*
X680000D01*
X120000Y1230000D02*
G03*
X100000Y1210000I0J-20000D01*
G01*
Y1110000D02*
G03*
X120000Y1090000I20000J0D01*
G01*
X360000Y1210000D02*
G03*
X340000Y1230000I-20000J0D01*
G01*
Y1090000D02*
G03*
X360000Y1110000I0J20000D01*
G01*
X340000Y1230000D02*
X120000D01*
X100000Y1210000D02*
Y1110000D01*
X340000Y1090000D02*
X120000D01*
X360000Y1210000D02*
Y1110000D01*
X400000Y1230000D02*
G03*
X380000Y1210000I0J-20000D01*
G01*
Y1110000D02*
G03*
X400000Y1090000I20000J0D01*
G01*
X640000Y1210000D02*
G03*
X620000Y1230000I-20000J0D01*
G01*
Y1090000D02*
G03*
X640000Y1110000I0J20000D01*
G01*
X620000Y1230000D02*
X400000D01*
X380000Y1210000D02*
Y1110000D01*
X620000Y1090000D02*
X400000D01*
X640000Y1210000D02*
Y1110000D01*
X960000Y1330000D02*
G03*
X940000Y1350000I-20000J0D01*
G01*
X840000D02*
G03*
X820000Y1330000I0J-20000D01*
G01*
X940000Y1090000D02*
G03*
X960000Y1110000I0J20000D01*
G01*
X820000D02*
G03*
X840000Y1090000I20000J0D01*
G01*
X960000Y1110000D02*
Y1330000D01*
X940000Y1350000D02*
X840000D01*
X820000Y1110000D02*
Y1330000D01*
X940000Y1090000D02*
X840000D01*
X50000Y600000D02*
G03*
X80000Y570000I30000J0D01*
G01*
Y1070000D02*
G03*
X50000Y1040000I0J-30000D01*
G01*
X550000D02*
G03*
X520000Y1070000I-30000J0D01*
G01*
Y570000D02*
G03*
X550000Y600000I0J30000D01*
G01*
X50000D02*
X50000Y1040000D01*
X80000Y1070000D02*
X520000Y1070000D01*
Y570000D02*
X80000Y570000D01*
X550000Y600000D02*
X550000Y1040000D01*
X570000Y600000D02*
G03*
X600000Y570000I30000J0D01*
G01*
Y1070000D02*
G03*
X570000Y1040000I0J-30000D01*
G01*
X1070000D02*
G03*
X1040000Y1070000I-30000J0D01*
G01*
Y570000D02*
G03*
X1070000Y600000I0J30000D01*
G01*
X570000D02*
X570000Y1040000D01*
X600000Y1070000D02*
X1040000Y1070000D01*
Y570000D02*
X600000Y570000D01*
X1070000Y600000D02*
X1070000Y1040000D01*
X1560000Y570000D02*
G03*
X1590000Y600000I0J30000D01*
G01*
Y1040000D02*
G03*
X1560000Y1070000I-30000J0D01*
G01*
X1120000D02*
G03*
X1090000Y1040000I0J-30000D01*
G01*
Y600000D02*
G03*
X1120000Y570000I30000J0D01*
G01*
X1590000Y1040000D02*
X1590000Y600000D01*
X1120000Y1070000D02*
X1560000Y1070000D01*
X1090000Y600000D02*
X1090000Y1040000D01*
X1120000Y570000D02*
X1560000Y570000D01*
X1560000Y50000D02*
G03*
X1590000Y80000I0J30000D01*
G01*
Y520000D02*
G03*
X1560000Y550000I-30000J0D01*
G01*
X1120000D02*
G03*
X1090000Y520000I0J-30000D01*
G01*
Y80000D02*
G03*
X1120000Y50000I30000J0D01*
G01*
X1590000Y520000D02*
X1590000Y80000D01*
X1120000Y550000D02*
X1560000Y550000D01*
X1090000Y80000D02*
X1090000Y520000D01*
X1120000Y50000D02*
X1560000Y50000D01*
X570000Y80000D02*
G03*
X600000Y50000I30000J0D01*
G01*
Y550000D02*
G03*
X570000Y520000I0J-30000D01*
G01*
X1070000D02*
G03*
X1040000Y550000I-30000J0D01*
G01*
Y50000D02*
G03*
X1070000Y80000I0J30000D01*
G01*
X600000Y50000D02*
X1040000Y50000D01*
X570000Y80000D02*
X570000Y520000D01*
X600000Y550000D02*
X1040000Y550000D01*
X1070000Y520000D02*
X1070000Y80000D01*
X80000Y550000D02*
G03*
X50000Y520000I0J-30000D01*
G01*
X550000D02*
G03*
X520000Y550000I-30000J0D01*
G01*
Y50000D02*
G03*
X550000Y80000I0J30000D01*
G01*
X50000D02*
G03*
X80000Y50000I30000J0D01*
G01*
X550000Y520000D02*
X550000Y80000D01*
X80000Y50000D02*
X520000Y50000D01*
X50000Y80000D02*
X50000Y520000D01*
X80000Y550000D02*
X520000Y550000D01*
D41*
X240000Y1340000D02*
G03*
X260000Y1340000I10000J0D01*
G01*
X391000Y1498000D02*
G03*
X371000Y1498000I-10000J0D01*
G01*
Y1543000D02*
G03*
X391000Y1543000I10000J0D01*
G01*
X661000Y1530000D02*
G03*
X681000Y1530000I10000J0D01*
G01*
X405000Y1390000D02*
G03*
X405000Y1410000I0J10000D01*
G01*
X450000D02*
G03*
X450000Y1390000I0J-10000D01*
G01*
X681000Y1485000D02*
G03*
X661000Y1485000I-10000J0D01*
G01*
X865000Y1710000D02*
G03*
X865000Y1730000I0J10000D01*
G01*
X910000D02*
G03*
X910000Y1710000I0J-10000D01*
G01*
X625000Y1730000D02*
G03*
X625000Y1710000I0J-10000D01*
G01*
X580000D02*
G03*
X580000Y1730000I0J10000D01*
G01*
X246750Y1610000D02*
G03*
X246750Y1590000I0J-10000D01*
G01*
X201750D02*
G03*
X201750Y1610000I0J10000D01*
G01*
X176750Y1360000D02*
G03*
X176750Y1340000I0J-10000D01*
G01*
X131750D02*
G03*
X131750Y1360000I0J10000D01*
G01*
X260000Y1295000D02*
G03*
X240000Y1295000I-10000J0D01*
G01*
X100000Y1135000D02*
G03*
X80000Y1135000I-10000J0D01*
G01*
Y1180000D02*
G03*
X100000Y1180000I10000J0D01*
G01*
X1370000Y1730000D02*
G03*
X1370000Y1710000I0J-10000D01*
G01*
X1325000D02*
G03*
X1325000Y1730000I0J10000D01*
G01*
X50000Y810000D02*
G03*
X30000Y810000I-10000J0D01*
G01*
Y855000D02*
G03*
X50000Y855000I10000J0D01*
G01*
X570000Y800000D02*
G03*
X550000Y800000I-10000J0D01*
G01*
Y845000D02*
G03*
X570000Y845000I10000J0D01*
G01*
X210000Y1070000D02*
G03*
X210000Y1090000I0J10000D01*
G01*
X255000D02*
G03*
X255000Y1070000I0J-10000D01*
G01*
X450000D02*
G03*
X450000Y1090000I0J10000D01*
G01*
X495000D02*
G03*
X495000Y1070000I0J-10000D01*
G01*
X360000Y1180000D02*
G03*
X380000Y1180000I10000J0D01*
G01*
Y1135000D02*
G03*
X360000Y1135000I-10000J0D01*
G01*
X540000Y1250000D02*
G03*
X540000Y1230000I0J-10000D01*
G01*
X495000D02*
G03*
X495000Y1250000I0J10000D01*
G01*
X920000Y1090000D02*
G03*
X920000Y1070000I0J-10000D01*
G01*
X875000D02*
G03*
X875000Y1090000I0J10000D01*
G01*
X750000D02*
G03*
X750000Y1070000I0J-10000D01*
G01*
X705000D02*
G03*
X705000Y1090000I0J10000D01*
G01*
X660000Y1140000D02*
G03*
X640000Y1140000I-10000J0D01*
G01*
Y1185000D02*
G03*
X660000Y1185000I10000J0D01*
G01*
X820000Y1200000D02*
G03*
X800000Y1200000I-10000J0D01*
G01*
Y1245000D02*
G03*
X820000Y1245000I10000J0D01*
G01*
X980000Y1190000D02*
G03*
X960000Y1190000I-10000J0D01*
G01*
Y1235000D02*
G03*
X980000Y1235000I10000J0D01*
G01*
X1590000Y1580000D02*
G03*
X1610000Y1580000I10000J0D01*
G01*
Y1535000D02*
G03*
X1590000Y1535000I-10000J0D01*
G01*
Y1270000D02*
G03*
X1610000Y1270000I10000J0D01*
G01*
Y1225000D02*
G03*
X1590000Y1225000I-10000J0D01*
G01*
X1350000Y1090000D02*
G03*
X1350000Y1070000I0J-10000D01*
G01*
X1305000D02*
G03*
X1305000Y1090000I0J10000D01*
G01*
X1090000Y820000D02*
G03*
X1070000Y820000I-10000J0D01*
G01*
Y865000D02*
G03*
X1090000Y865000I10000J0D01*
G01*
X1610000Y790000D02*
G03*
X1590000Y790000I-10000J0D01*
G01*
Y835000D02*
G03*
X1610000Y835000I10000J0D01*
G01*
X1320000Y30000D02*
G03*
X1320000Y50000I0J10000D01*
G01*
X1365000D02*
G03*
X1365000Y30000I0J-10000D01*
G01*
X1590000Y320000D02*
G03*
X1610000Y320000I10000J0D01*
G01*
Y275000D02*
G03*
X1590000Y275000I-10000J0D01*
G01*
X1370000Y570000D02*
G03*
X1370000Y550000I0J-10000D01*
G01*
X1325000D02*
G03*
X1325000Y570000I0J10000D01*
G01*
X1090000Y280000D02*
G03*
X1070000Y280000I-10000J0D01*
G01*
Y325000D02*
G03*
X1090000Y325000I10000J0D01*
G01*
X790000Y550000D02*
G03*
X790000Y570000I0J10000D01*
G01*
X835000D02*
G03*
X835000Y550000I0J-10000D01*
G01*
X780000Y30000D02*
G03*
X780000Y50000I0J10000D01*
G01*
X825000D02*
G03*
X825000Y30000I0J-10000D01*
G01*
X550000Y320000D02*
G03*
X570000Y320000I10000J0D01*
G01*
Y275000D02*
G03*
X550000Y275000I-10000J0D01*
G01*
X30000Y320000D02*
G03*
X50000Y320000I10000J0D01*
G01*
Y275000D02*
G03*
X30000Y275000I-10000J0D01*
G01*
X320000Y570000D02*
G03*
X320000Y550000I0J-10000D01*
G01*
X275000D02*
G03*
X275000Y570000I0J10000D01*
G01*
X292500Y30000D02*
G03*
X292500Y50000I0J10000D01*
G01*
X337500D02*
G03*
X337500Y30000I0J-10000D01*
G01*
M02*
