G04 Layer_Color=32896*
%FSLAX44Y44*%
%MOMM*%
G71*
G01*
G75*
%ADD41C,0.2000*%
%ADD72C,0.0508*%
G36*
X523514Y1610211D02*
X523865Y1610133D01*
X524197Y1610016D01*
X524450Y1609860D01*
X524684Y1609723D01*
X524840Y1609606D01*
X524938Y1609528D01*
X524977Y1609489D01*
X525230Y1609197D01*
X525425Y1608884D01*
X525543Y1608572D01*
X525640Y1608280D01*
X525699Y1608026D01*
X525718Y1607812D01*
X525738Y1607734D01*
Y1607675D01*
Y1607656D01*
Y1607636D01*
Y1604476D01*
X525718Y1604300D01*
X525660Y1604164D01*
X525582Y1604086D01*
X525484Y1604008D01*
X525387Y1603969D01*
X525308Y1603949D01*
X519963D01*
X519788Y1603969D01*
X519651Y1604027D01*
X519573Y1604125D01*
X519495Y1604203D01*
X519456Y1604300D01*
X519437Y1604398D01*
Y1604456D01*
Y1604476D01*
Y1606056D01*
X519456Y1606232D01*
X519515Y1606368D01*
X519612Y1606446D01*
X519690Y1606524D01*
X519788Y1606563D01*
X519885Y1606583D01*
X519963D01*
X520139Y1606563D01*
X520276Y1606505D01*
X520354Y1606407D01*
X520432Y1606310D01*
X520471Y1606232D01*
X520490Y1606134D01*
Y1606075D01*
Y1606056D01*
Y1605003D01*
X524684D01*
Y1607636D01*
X524665Y1607870D01*
X524606Y1608085D01*
X524548Y1608280D01*
X524450Y1608436D01*
X524372Y1608572D01*
X524314Y1608670D01*
X524255Y1608728D01*
X524236Y1608748D01*
X524060Y1608904D01*
X523865Y1609002D01*
X523689Y1609080D01*
X523514Y1609138D01*
X523358Y1609177D01*
X523241Y1609197D01*
X517857D01*
X517623Y1609177D01*
X517408Y1609119D01*
X517213Y1609060D01*
X517057Y1608963D01*
X516920Y1608884D01*
X516823Y1608826D01*
X516764Y1608768D01*
X516745Y1608748D01*
X516589Y1608572D01*
X516472Y1608377D01*
X516394Y1608202D01*
X516335Y1608026D01*
X516296Y1607870D01*
X516277Y1607753D01*
Y1607656D01*
Y1607636D01*
Y1604476D01*
X516257Y1604300D01*
X516199Y1604164D01*
X516101Y1604086D01*
X516004Y1604008D01*
X515925Y1603969D01*
X515828Y1603949D01*
X515750D01*
X515574Y1603969D01*
X515438Y1604027D01*
X515360Y1604125D01*
X515282Y1604203D01*
X515243Y1604300D01*
X515223Y1604398D01*
Y1604456D01*
Y1604476D01*
Y1607636D01*
X515262Y1608026D01*
X515340Y1608377D01*
X515477Y1608709D01*
X515613Y1608963D01*
X515750Y1609197D01*
X515886Y1609353D01*
X515965Y1609450D01*
X516004Y1609489D01*
X516296Y1609743D01*
X516608Y1609938D01*
X516920Y1610055D01*
X517213Y1610152D01*
X517467Y1610211D01*
X517681Y1610231D01*
X517759Y1610250D01*
X523124D01*
X523514Y1610211D01*
D02*
G37*
G36*
X813514Y1610211D02*
X813865Y1610133D01*
X814197Y1610016D01*
X814450Y1609860D01*
X814684Y1609723D01*
X814840Y1609606D01*
X814938Y1609528D01*
X814977Y1609489D01*
X815230Y1609197D01*
X815425Y1608884D01*
X815543Y1608572D01*
X815640Y1608280D01*
X815699Y1608026D01*
X815718Y1607812D01*
X815738Y1607734D01*
Y1607675D01*
Y1607655D01*
Y1607636D01*
Y1604476D01*
X815718Y1604300D01*
X815660Y1604164D01*
X815582Y1604086D01*
X815484Y1604008D01*
X815387Y1603969D01*
X815309Y1603949D01*
X809964D01*
X809788Y1603969D01*
X809651Y1604027D01*
X809573Y1604125D01*
X809495Y1604203D01*
X809456Y1604300D01*
X809437Y1604398D01*
Y1604456D01*
Y1604476D01*
Y1606056D01*
X809456Y1606232D01*
X809515Y1606368D01*
X809612Y1606446D01*
X809690Y1606524D01*
X809788Y1606563D01*
X809885Y1606583D01*
X809964D01*
X810139Y1606563D01*
X810276Y1606505D01*
X810354Y1606407D01*
X810432Y1606310D01*
X810471Y1606232D01*
X810490Y1606134D01*
Y1606075D01*
Y1606056D01*
Y1605003D01*
X814684D01*
Y1607636D01*
X814665Y1607870D01*
X814606Y1608085D01*
X814548Y1608280D01*
X814450Y1608436D01*
X814372Y1608572D01*
X814314Y1608670D01*
X814255Y1608728D01*
X814236Y1608748D01*
X814060Y1608904D01*
X813865Y1609001D01*
X813689Y1609080D01*
X813514Y1609138D01*
X813358Y1609177D01*
X813241Y1609197D01*
X807857D01*
X807623Y1609177D01*
X807408Y1609119D01*
X807213Y1609060D01*
X807057Y1608963D01*
X806920Y1608884D01*
X806823Y1608826D01*
X806764Y1608767D01*
X806745Y1608748D01*
X806589Y1608572D01*
X806472Y1608377D01*
X806394Y1608202D01*
X806335Y1608026D01*
X806296Y1607870D01*
X806277Y1607753D01*
Y1607655D01*
Y1607636D01*
Y1604476D01*
X806257Y1604300D01*
X806199Y1604164D01*
X806101Y1604086D01*
X806003Y1604008D01*
X805926Y1603969D01*
X805828Y1603949D01*
X805750D01*
X805574Y1603969D01*
X805438Y1604027D01*
X805360Y1604125D01*
X805282Y1604203D01*
X805243Y1604300D01*
X805223Y1604398D01*
Y1604456D01*
Y1604476D01*
Y1607636D01*
X805262Y1608026D01*
X805340Y1608377D01*
X805477Y1608709D01*
X805613Y1608963D01*
X805750Y1609197D01*
X805887Y1609353D01*
X805965Y1609450D01*
X806003Y1609489D01*
X806296Y1609743D01*
X806608Y1609938D01*
X806920Y1610055D01*
X807213Y1610152D01*
X807467Y1610211D01*
X807681Y1610231D01*
X807759Y1610250D01*
X813124D01*
X813514Y1610211D01*
D02*
G37*
G36*
X557906Y1610231D02*
X558023Y1610172D01*
X558121Y1610094D01*
X558179Y1609996D01*
X558218Y1609899D01*
X558238Y1609821D01*
Y1609762D01*
Y1609743D01*
Y1607109D01*
X558218Y1606875D01*
X558199Y1606641D01*
X558101Y1606212D01*
X557945Y1605822D01*
X557770Y1605510D01*
X557613Y1605237D01*
X557457Y1605042D01*
X557399Y1604983D01*
X557360Y1604925D01*
X557321Y1604905D01*
Y1604886D01*
X557145Y1604729D01*
X556970Y1604573D01*
X556580Y1604339D01*
X556209Y1604183D01*
X555858Y1604066D01*
X555565Y1603988D01*
X555429Y1603969D01*
X555312D01*
X555214Y1603949D01*
X555097D01*
X554765Y1603969D01*
X554473Y1604008D01*
X554180Y1604086D01*
X553927Y1604183D01*
X553673Y1604300D01*
X553458Y1604417D01*
X553263Y1604554D01*
X553068Y1604691D01*
X552912Y1604846D01*
X552776Y1604983D01*
X552659Y1605100D01*
X552581Y1605217D01*
X552503Y1605315D01*
X552444Y1605393D01*
X552425Y1605432D01*
X552405Y1605451D01*
X552249Y1605276D01*
X552093Y1605120D01*
X551917Y1605003D01*
X551761Y1604886D01*
X551410Y1604710D01*
X551078Y1604593D01*
X550805Y1604534D01*
X550571Y1604495D01*
X550474Y1604476D01*
X550357D01*
X549947Y1604515D01*
X549596Y1604593D01*
X549284Y1604710D01*
X549011Y1604846D01*
X548777Y1605003D01*
X548621Y1605120D01*
X548523Y1605198D01*
X548484Y1605237D01*
X548231Y1605529D01*
X548035Y1605841D01*
X547899Y1606154D01*
X547821Y1606466D01*
X547762Y1606719D01*
X547743Y1606914D01*
X547723Y1606992D01*
Y1607051D01*
Y1607090D01*
Y1607109D01*
Y1609743D01*
X547743Y1609918D01*
X547801Y1610035D01*
X547899Y1610133D01*
X547977Y1610191D01*
X548074Y1610231D01*
X548172Y1610250D01*
X557730D01*
X557906Y1610231D01*
D02*
G37*
G36*
X542906D02*
X543023Y1610172D01*
X543121Y1610074D01*
X543179Y1609977D01*
X543218Y1609899D01*
X543238Y1609801D01*
Y1609743D01*
Y1609723D01*
X543218Y1609548D01*
X543160Y1609411D01*
X543062Y1609333D01*
X542965Y1609255D01*
X542887Y1609216D01*
X542789Y1609197D01*
X539024D01*
Y1607109D01*
Y1607031D01*
Y1606973D01*
X539044Y1606934D01*
Y1606914D01*
X542945Y1604964D01*
X543043Y1604905D01*
X543121Y1604827D01*
X543160Y1604749D01*
X543199Y1604651D01*
X543238Y1604534D01*
Y1604495D01*
Y1604476D01*
X543218Y1604339D01*
X543160Y1604222D01*
X543101Y1604144D01*
X543082Y1604125D01*
X542965Y1604027D01*
X542848Y1603969D01*
X542770Y1603949D01*
X542633D01*
X542555Y1603969D01*
X542496Y1603988D01*
X542477Y1604008D01*
X538810Y1605841D01*
X538653Y1605510D01*
X538478Y1605217D01*
X538263Y1604964D01*
X538029Y1604749D01*
X537795Y1604554D01*
X537561Y1604417D01*
X537308Y1604281D01*
X537073Y1604183D01*
X536839Y1604105D01*
X536605Y1604047D01*
X536410Y1604008D01*
X536235Y1603969D01*
X536098D01*
X535981Y1603949D01*
X535883D01*
X535649Y1603969D01*
X535415Y1603988D01*
X534986Y1604086D01*
X534596Y1604242D01*
X534284Y1604417D01*
X534011Y1604593D01*
X533816Y1604729D01*
X533757Y1604807D01*
X533699Y1604846D01*
X533679Y1604866D01*
X533660Y1604886D01*
X533504Y1605061D01*
X533348Y1605237D01*
X533113Y1605627D01*
X532957Y1605997D01*
X532840Y1606349D01*
X532762Y1606641D01*
X532743Y1606778D01*
Y1606895D01*
X532723Y1606973D01*
Y1607051D01*
Y1607090D01*
Y1607109D01*
Y1609743D01*
X532743Y1609918D01*
X532801Y1610035D01*
X532899Y1610133D01*
X532977Y1610191D01*
X533074Y1610231D01*
X533172Y1610250D01*
X542730D01*
X542906Y1610231D01*
D02*
G37*
G36*
X847906Y1610231D02*
X848023Y1610172D01*
X848121Y1610094D01*
X848179Y1609996D01*
X848218Y1609899D01*
X848238Y1609821D01*
Y1609762D01*
Y1609743D01*
Y1607109D01*
X848218Y1606875D01*
X848199Y1606641D01*
X848101Y1606212D01*
X847945Y1605822D01*
X847769Y1605510D01*
X847613Y1605237D01*
X847457Y1605042D01*
X847399Y1604983D01*
X847360Y1604924D01*
X847321Y1604905D01*
Y1604886D01*
X847145Y1604729D01*
X846970Y1604573D01*
X846580Y1604339D01*
X846209Y1604183D01*
X845858Y1604066D01*
X845565Y1603988D01*
X845429Y1603969D01*
X845312D01*
X845214Y1603949D01*
X845097D01*
X844765Y1603969D01*
X844473Y1604008D01*
X844180Y1604086D01*
X843926Y1604183D01*
X843673Y1604300D01*
X843458Y1604417D01*
X843263Y1604554D01*
X843068Y1604690D01*
X842912Y1604846D01*
X842776Y1604983D01*
X842659Y1605100D01*
X842580Y1605217D01*
X842503Y1605315D01*
X842444Y1605393D01*
X842424Y1605432D01*
X842405Y1605451D01*
X842249Y1605276D01*
X842093Y1605120D01*
X841917Y1605003D01*
X841761Y1604886D01*
X841410Y1604710D01*
X841078Y1604593D01*
X840805Y1604534D01*
X840571Y1604495D01*
X840474Y1604476D01*
X840357D01*
X839947Y1604515D01*
X839596Y1604593D01*
X839284Y1604710D01*
X839011Y1604846D01*
X838777Y1605003D01*
X838621Y1605120D01*
X838523Y1605198D01*
X838484Y1605237D01*
X838230Y1605529D01*
X838035Y1605841D01*
X837899Y1606154D01*
X837821Y1606466D01*
X837762Y1606719D01*
X837743Y1606914D01*
X837723Y1606992D01*
Y1607051D01*
Y1607090D01*
Y1607109D01*
Y1609743D01*
X837743Y1609918D01*
X837801Y1610035D01*
X837899Y1610133D01*
X837977Y1610191D01*
X838074Y1610231D01*
X838172Y1610250D01*
X847730D01*
X847906Y1610231D01*
D02*
G37*
G36*
X832906D02*
X833023Y1610172D01*
X833121Y1610074D01*
X833179Y1609977D01*
X833218Y1609899D01*
X833238Y1609801D01*
Y1609743D01*
Y1609723D01*
X833218Y1609548D01*
X833160Y1609411D01*
X833062Y1609333D01*
X832964Y1609255D01*
X832887Y1609216D01*
X832789Y1609197D01*
X829024D01*
Y1607109D01*
Y1607031D01*
Y1606973D01*
X829044Y1606934D01*
Y1606914D01*
X832945Y1604964D01*
X833043Y1604905D01*
X833121Y1604827D01*
X833160Y1604749D01*
X833199Y1604651D01*
X833238Y1604534D01*
Y1604495D01*
Y1604476D01*
X833218Y1604339D01*
X833160Y1604222D01*
X833101Y1604144D01*
X833082Y1604125D01*
X832964Y1604027D01*
X832848Y1603969D01*
X832769Y1603949D01*
X832633D01*
X832555Y1603969D01*
X832496Y1603988D01*
X832477Y1604008D01*
X828810Y1605841D01*
X828653Y1605510D01*
X828478Y1605217D01*
X828263Y1604964D01*
X828029Y1604749D01*
X827795Y1604554D01*
X827561Y1604417D01*
X827307Y1604281D01*
X827073Y1604183D01*
X826839Y1604105D01*
X826605Y1604047D01*
X826410Y1604008D01*
X826235Y1603969D01*
X826098D01*
X825981Y1603949D01*
X825883D01*
X825649Y1603969D01*
X825415Y1603988D01*
X824986Y1604086D01*
X824596Y1604242D01*
X824284Y1604417D01*
X824011Y1604593D01*
X823816Y1604729D01*
X823757Y1604807D01*
X823699Y1604846D01*
X823679Y1604866D01*
X823660Y1604886D01*
X823503Y1605061D01*
X823347Y1605237D01*
X823113Y1605627D01*
X822957Y1605997D01*
X822840Y1606349D01*
X822762Y1606641D01*
X822743Y1606778D01*
Y1606895D01*
X822723Y1606973D01*
Y1607051D01*
Y1607090D01*
Y1607109D01*
Y1609743D01*
X822743Y1609918D01*
X822801Y1610035D01*
X822899Y1610133D01*
X822977Y1610191D01*
X823074Y1610231D01*
X823172Y1610250D01*
X832730D01*
X832906Y1610231D01*
D02*
G37*
G36*
X127774Y1489373D02*
X128009Y1489360D01*
X128450Y1489249D01*
X128822Y1489098D01*
X129153Y1488932D01*
X129416Y1488780D01*
X129526Y1488698D01*
X129609Y1488615D01*
X129691Y1488560D01*
X129733Y1488518D01*
X129760Y1488491D01*
X129774Y1488477D01*
X129995Y1488229D01*
X130174Y1487994D01*
X130326Y1487732D01*
X130436Y1487484D01*
X130533Y1487222D01*
X130602Y1486987D01*
X130643Y1486753D01*
X130685Y1486518D01*
Y1486297D01*
Y1486104D01*
Y1485939D01*
X130657Y1485801D01*
X130643Y1485677D01*
X130629Y1485580D01*
X130616Y1485539D01*
Y1485511D01*
X130850Y1485525D01*
X131071D01*
X131278Y1485484D01*
X131471Y1485456D01*
X131843Y1485332D01*
X132161Y1485180D01*
X132395Y1485029D01*
X132588Y1484891D01*
X132671Y1484835D01*
X132712Y1484794D01*
X132740Y1484766D01*
X132754Y1484753D01*
X133016Y1484435D01*
X133209Y1484132D01*
X133347Y1483828D01*
X133443Y1483539D01*
X133498Y1483263D01*
X133526Y1483070D01*
X133540Y1482946D01*
Y1482890D01*
X133512Y1482504D01*
X133429Y1482146D01*
X133305Y1481828D01*
X133140Y1481552D01*
X133002Y1481332D01*
X132878Y1481180D01*
X132836Y1481111D01*
X132795Y1481070D01*
X132767Y1481042D01*
X132754Y1481028D01*
X130892Y1479166D01*
X130753Y1479056D01*
X130629Y1479014D01*
X130492D01*
X130395Y1479028D01*
X130298Y1479070D01*
X130216Y1479125D01*
X130174Y1479166D01*
X130160Y1479180D01*
X123457Y1485884D01*
X123346Y1486022D01*
X123305Y1486146D01*
X123291Y1486270D01*
X123319Y1486380D01*
X123360Y1486477D01*
X123401Y1486546D01*
X123443Y1486587D01*
X123457Y1486601D01*
X125319Y1488463D01*
X125498Y1488615D01*
X125677Y1488767D01*
X126050Y1489001D01*
X126436Y1489167D01*
X126781Y1489263D01*
X127084Y1489346D01*
X127333Y1489373D01*
X127416D01*
X127484Y1489387D01*
X127526Y1489373D01*
X127540Y1489387D01*
X127774Y1489373D01*
D02*
G37*
G36*
X138298Y1479843D02*
X138422Y1479801D01*
X138491Y1479760D01*
X138519Y1479732D01*
X138588Y1479664D01*
X138629Y1479595D01*
X138657Y1479539D01*
Y1479512D01*
X139953Y1475622D01*
X140298Y1475746D01*
X140629Y1475829D01*
X140960Y1475856D01*
X141277Y1475843D01*
X141581Y1475815D01*
X141843Y1475746D01*
X142119Y1475663D01*
X142353Y1475567D01*
X142574Y1475456D01*
X142781Y1475332D01*
X142946Y1475222D01*
X143098Y1475125D01*
X143195Y1475029D01*
X143291Y1474960D01*
X143346Y1474905D01*
X143360Y1474891D01*
X143512Y1474712D01*
X143664Y1474532D01*
X143898Y1474160D01*
X144064Y1473774D01*
X144160Y1473429D01*
X144229Y1473112D01*
X144271Y1472877D01*
X144257Y1472780D01*
X144271Y1472711D01*
Y1472684D01*
Y1472656D01*
X144257Y1472422D01*
X144243Y1472187D01*
X144133Y1471746D01*
X143981Y1471373D01*
X143815Y1471042D01*
X143664Y1470780D01*
X143581Y1470670D01*
X143498Y1470587D01*
X143457Y1470518D01*
X143402Y1470463D01*
X143374Y1470435D01*
X143360Y1470422D01*
X141498Y1468560D01*
X141360Y1468449D01*
X141236Y1468408D01*
X141098D01*
X141002Y1468422D01*
X140905Y1468463D01*
X140822Y1468518D01*
X140781Y1468560D01*
X140767Y1468573D01*
X134063Y1475277D01*
X133953Y1475415D01*
X133912Y1475539D01*
Y1475677D01*
X133939Y1475788D01*
X133967Y1475870D01*
X134022Y1475953D01*
X134063Y1475994D01*
X134077Y1476008D01*
X134215Y1476118D01*
X134353Y1476174D01*
X134477Y1476160D01*
X134601Y1476146D01*
X134684Y1476118D01*
X134767Y1476063D01*
X134808Y1476022D01*
X134822Y1476008D01*
X137429Y1473401D01*
X138905Y1474877D01*
X138960Y1474932D01*
X139001Y1474974D01*
X139015Y1475015D01*
X139029Y1475029D01*
X137650Y1479167D01*
X137622Y1479277D01*
Y1479388D01*
X137650Y1479470D01*
X137691Y1479567D01*
X137746Y1479677D01*
X137774Y1479705D01*
X137788Y1479719D01*
X137898Y1479801D01*
X138022Y1479843D01*
X138119Y1479857D01*
X138146D01*
X138298Y1479843D01*
D02*
G37*
G36*
X150672Y1467496D02*
X150769Y1467455D01*
X150838Y1467413D01*
X150879Y1467372D01*
X150893Y1467358D01*
X154617Y1463634D01*
X154728Y1463496D01*
X154783Y1463358D01*
X154769Y1463234D01*
Y1463123D01*
X154728Y1463027D01*
X154672Y1462944D01*
X154631Y1462903D01*
X154617Y1462889D01*
X153500Y1461772D01*
X153362Y1461661D01*
X153224Y1461606D01*
X153100Y1461620D01*
X152990D01*
X152893Y1461661D01*
X152810Y1461716D01*
X152769Y1461758D01*
X152755Y1461772D01*
X152645Y1461910D01*
X152590Y1462047D01*
X152603Y1462172D01*
X152617Y1462296D01*
X152645Y1462379D01*
X152700Y1462461D01*
X152741Y1462503D01*
X152755Y1462516D01*
X153500Y1463261D01*
X150534Y1466227D01*
X148672Y1464365D01*
X148520Y1464186D01*
X148410Y1463992D01*
X148314Y1463813D01*
X148272Y1463634D01*
X148231Y1463482D01*
X148203Y1463372D01*
Y1463289D01*
Y1463261D01*
X148217Y1463027D01*
X148286Y1462820D01*
X148355Y1462641D01*
X148438Y1462475D01*
X148520Y1462337D01*
X148589Y1462241D01*
X148658Y1462172D01*
X148672Y1462158D01*
X152396Y1458434D01*
X152576Y1458282D01*
X152769Y1458172D01*
X152948Y1458075D01*
X153128Y1458034D01*
X153279Y1457992D01*
X153390Y1457965D01*
X153500D01*
X153735Y1457978D01*
X153955Y1458034D01*
X154135Y1458103D01*
X154300Y1458185D01*
X154438Y1458268D01*
X154535Y1458337D01*
X154604Y1458406D01*
X154617Y1458420D01*
X156852Y1460654D01*
X156990Y1460765D01*
X157128Y1460820D01*
X157252Y1460806D01*
X157376Y1460792D01*
X157459Y1460765D01*
X157542Y1460710D01*
X157583Y1460668D01*
X157597Y1460654D01*
X157707Y1460516D01*
X157762Y1460379D01*
X157748Y1460254D01*
Y1460144D01*
X157707Y1460047D01*
X157652Y1459965D01*
X157611Y1459923D01*
X157597Y1459910D01*
X155362Y1457675D01*
X155059Y1457427D01*
X154755Y1457234D01*
X154424Y1457096D01*
X154148Y1457013D01*
X153886Y1456944D01*
X153679Y1456930D01*
X153555Y1456916D01*
X153500D01*
X153114Y1456944D01*
X152755Y1457027D01*
X152452Y1457165D01*
X152176Y1457303D01*
X151955Y1457440D01*
X151790Y1457578D01*
X151721Y1457620D01*
X151693Y1457647D01*
X151665Y1457675D01*
X151652Y1457689D01*
X147927Y1461413D01*
X147679Y1461716D01*
X147486Y1462020D01*
X147334Y1462337D01*
X147265Y1462627D01*
X147196Y1462889D01*
X147169Y1463082D01*
X147155Y1463206D01*
Y1463261D01*
X147183Y1463648D01*
X147265Y1464006D01*
X147403Y1464310D01*
X147541Y1464586D01*
X147679Y1464806D01*
X147817Y1464972D01*
X147858Y1465041D01*
X147900Y1465082D01*
X147914Y1465096D01*
X147927Y1465110D01*
X150162Y1467344D01*
X150300Y1467455D01*
X150438Y1467510D01*
X150548D01*
X150672Y1467496D01*
D02*
G37*
%LPC*%
G36*
X551937Y1609197D02*
X548777D01*
Y1607109D01*
X548796Y1606875D01*
X548855Y1606661D01*
X548933Y1606466D01*
X549011Y1606310D01*
X549089Y1606173D01*
X549167Y1606075D01*
X549225Y1606017D01*
X549245Y1605997D01*
X549420Y1605841D01*
X549616Y1605724D01*
X549810Y1605646D01*
X549967Y1605588D01*
X550123Y1605549D01*
X550240Y1605529D01*
X550357D01*
X550591Y1605549D01*
X550805Y1605607D01*
X551001Y1605685D01*
X551176Y1605763D01*
X551313Y1605841D01*
X551410Y1605919D01*
X551469Y1605978D01*
X551488Y1605997D01*
X551644Y1606173D01*
X551742Y1606368D01*
X551820Y1606563D01*
X551878Y1606719D01*
X551917Y1606875D01*
X551937Y1606992D01*
Y1607090D01*
Y1607109D01*
Y1609197D01*
D02*
G37*
G36*
X557184D02*
X552990D01*
Y1607109D01*
X553010Y1606797D01*
X553088Y1606505D01*
X553185Y1606251D01*
X553302Y1606037D01*
X553419Y1605861D01*
X553517Y1605744D01*
X553595Y1605646D01*
X553614Y1605627D01*
X553848Y1605412D01*
X554102Y1605256D01*
X554356Y1605159D01*
X554590Y1605081D01*
X554785Y1605042D01*
X554941Y1605003D01*
X555097D01*
X555409Y1605022D01*
X555702Y1605100D01*
X555955Y1605198D01*
X556170Y1605315D01*
X556345Y1605432D01*
X556463Y1605529D01*
X556560Y1605607D01*
X556580Y1605627D01*
X556775Y1605861D01*
X556931Y1606115D01*
X557028Y1606368D01*
X557106Y1606602D01*
X557145Y1606797D01*
X557165Y1606953D01*
X557184Y1607070D01*
Y1607090D01*
Y1607109D01*
Y1609197D01*
D02*
G37*
G36*
X537971D02*
X533777D01*
Y1607109D01*
X533796Y1606797D01*
X533874Y1606505D01*
X533972Y1606251D01*
X534089Y1606037D01*
X534206Y1605861D01*
X534303Y1605744D01*
X534381Y1605646D01*
X534401Y1605627D01*
X534635Y1605412D01*
X534889Y1605256D01*
X535142Y1605159D01*
X535376Y1605081D01*
X535571Y1605042D01*
X535727Y1605003D01*
X535883D01*
X536195Y1605022D01*
X536488Y1605100D01*
X536742Y1605198D01*
X536956Y1605315D01*
X537132Y1605432D01*
X537249Y1605529D01*
X537346Y1605607D01*
X537366Y1605627D01*
X537561Y1605861D01*
X537717Y1606115D01*
X537815Y1606368D01*
X537893Y1606602D01*
X537932Y1606797D01*
X537951Y1606953D01*
X537971Y1607070D01*
Y1607090D01*
Y1607109D01*
Y1609197D01*
D02*
G37*
G36*
X841937Y1609197D02*
X838777D01*
Y1607109D01*
X838796Y1606875D01*
X838855Y1606661D01*
X838933Y1606466D01*
X839011Y1606310D01*
X839089Y1606173D01*
X839167Y1606075D01*
X839225Y1606017D01*
X839245Y1605997D01*
X839420Y1605841D01*
X839615Y1605724D01*
X839810Y1605646D01*
X839967Y1605588D01*
X840123Y1605549D01*
X840240Y1605529D01*
X840357D01*
X840591Y1605549D01*
X840805Y1605607D01*
X841001Y1605685D01*
X841176Y1605763D01*
X841313Y1605841D01*
X841410Y1605919D01*
X841469Y1605978D01*
X841488Y1605997D01*
X841644Y1606173D01*
X841742Y1606368D01*
X841820Y1606563D01*
X841878Y1606719D01*
X841917Y1606875D01*
X841937Y1606992D01*
Y1607090D01*
Y1607109D01*
Y1609197D01*
D02*
G37*
G36*
X847184D02*
X842990D01*
Y1607109D01*
X843010Y1606797D01*
X843088Y1606505D01*
X843185Y1606251D01*
X843302Y1606036D01*
X843419Y1605861D01*
X843517Y1605744D01*
X843595Y1605646D01*
X843614Y1605627D01*
X843848Y1605412D01*
X844102Y1605256D01*
X844356Y1605159D01*
X844590Y1605081D01*
X844785Y1605042D01*
X844941Y1605003D01*
X845097D01*
X845409Y1605022D01*
X845702Y1605100D01*
X845955Y1605198D01*
X846170Y1605315D01*
X846345Y1605432D01*
X846462Y1605529D01*
X846560Y1605607D01*
X846580Y1605627D01*
X846775Y1605861D01*
X846931Y1606115D01*
X847028Y1606368D01*
X847106Y1606602D01*
X847145Y1606797D01*
X847165Y1606953D01*
X847184Y1607070D01*
Y1607090D01*
Y1607109D01*
Y1609197D01*
D02*
G37*
G36*
X827971D02*
X823777D01*
Y1607109D01*
X823796Y1606797D01*
X823874Y1606505D01*
X823972Y1606251D01*
X824089Y1606036D01*
X824206Y1605861D01*
X824303Y1605744D01*
X824381Y1605646D01*
X824401Y1605627D01*
X824635Y1605412D01*
X824889Y1605256D01*
X825142Y1605159D01*
X825376Y1605081D01*
X825571Y1605042D01*
X825727Y1605003D01*
X825883D01*
X826196Y1605022D01*
X826488Y1605100D01*
X826742Y1605198D01*
X826956Y1605315D01*
X827132Y1605432D01*
X827249Y1605529D01*
X827346Y1605607D01*
X827366Y1605627D01*
X827561Y1605861D01*
X827717Y1606115D01*
X827815Y1606368D01*
X827893Y1606602D01*
X827932Y1606797D01*
X827951Y1606953D01*
X827971Y1607070D01*
Y1607090D01*
Y1607109D01*
Y1609197D01*
D02*
G37*
G36*
X127567Y1488339D02*
X127540D01*
X127236Y1488311D01*
X126946Y1488242D01*
X126698Y1488132D01*
X126477Y1488022D01*
X126312Y1487911D01*
X126188Y1487815D01*
X126091Y1487746D01*
X126077Y1487732D01*
X126064Y1487718D01*
X124588Y1486242D01*
X127553Y1483277D01*
X129029Y1484753D01*
X129236Y1484987D01*
X129388Y1485249D01*
X129498Y1485497D01*
X129567Y1485732D01*
X129609Y1485939D01*
X129622Y1486091D01*
X129636Y1486215D01*
Y1486242D01*
X129622Y1486560D01*
X129553Y1486849D01*
X129443Y1487098D01*
X129333Y1487318D01*
X129222Y1487484D01*
X129140Y1487622D01*
X129057Y1487704D01*
X129043Y1487718D01*
X129029Y1487732D01*
X128795Y1487939D01*
X128533Y1488091D01*
X128285Y1488201D01*
X128050Y1488270D01*
X127843Y1488311D01*
X127691Y1488325D01*
X127567Y1488339D01*
D02*
G37*
G36*
X130988Y1484477D02*
X130878D01*
X130643Y1484463D01*
X130436Y1484394D01*
X130243Y1484311D01*
X130091Y1484242D01*
X129953Y1484160D01*
X129857Y1484091D01*
X129788Y1484022D01*
X129774Y1484008D01*
X128298Y1482532D01*
X130533Y1480297D01*
X132009Y1481773D01*
X132161Y1481953D01*
X132271Y1482146D01*
X132354Y1482339D01*
X132409Y1482504D01*
X132450Y1482656D01*
X132464Y1482780D01*
Y1482863D01*
Y1482890D01*
X132450Y1483125D01*
X132395Y1483346D01*
X132312Y1483539D01*
X132243Y1483690D01*
X132161Y1483828D01*
X132092Y1483925D01*
X132023Y1483994D01*
X132009Y1484008D01*
X131830Y1484160D01*
X131636Y1484270D01*
X131443Y1484353D01*
X131264Y1484422D01*
X131112Y1484463D01*
X130988Y1484477D01*
D02*
G37*
G36*
X141153Y1474753D02*
X141126D01*
X140822Y1474725D01*
X140533Y1474656D01*
X140284Y1474546D01*
X140063Y1474436D01*
X139898Y1474325D01*
X139774Y1474229D01*
X139677Y1474160D01*
X139663Y1474146D01*
X139650Y1474132D01*
X138174Y1472656D01*
X141139Y1469691D01*
X142615Y1471167D01*
X142822Y1471401D01*
X142974Y1471663D01*
X143084Y1471911D01*
X143153Y1472146D01*
X143195Y1472353D01*
X143209Y1472505D01*
X143222Y1472629D01*
Y1472656D01*
X143209Y1472974D01*
X143139Y1473263D01*
X143029Y1473512D01*
X142919Y1473732D01*
X142809Y1473898D01*
X142726Y1474036D01*
X142643Y1474118D01*
X142629Y1474132D01*
X142615Y1474146D01*
X142381Y1474353D01*
X142119Y1474505D01*
X141870Y1474615D01*
X141636Y1474684D01*
X141429Y1474725D01*
X141277Y1474739D01*
X141153Y1474753D01*
D02*
G37*
%LPD*%
D41*
X186771Y1539870D02*
X195610Y1548709D01*
X205510Y1521131D02*
X214349Y1529970D01*
X186771Y1539870D02*
X205510Y1521131D01*
X195610Y1548709D02*
X214349Y1529970D01*
X154918Y1503920D02*
X176131Y1510991D01*
X169060Y1489778D02*
X176131Y1510991D01*
X160221Y1495081D02*
X177899Y1512759D01*
X154918Y1503920D02*
X169060Y1489778D01*
Y1518062D02*
X183202Y1503920D01*
X548238Y1555250D02*
X528238D01*
X548238Y1575250D02*
X528238D01*
X538238Y1577750D02*
Y1552750D01*
Y1555250D02*
X528238Y1575250D01*
X548238D02*
X538238Y1555250D01*
X497738Y1561750D02*
Y1535250D01*
X510238Y1561750D02*
Y1535250D01*
Y1561750D02*
X497738D01*
X510238Y1535250D02*
X497738D01*
X838238Y1555250D02*
X818238D01*
X838238Y1575250D02*
X818238D01*
X828238Y1577750D02*
Y1552750D01*
Y1555250D02*
X818238Y1575250D01*
X838238D02*
X828238Y1555250D01*
X787738Y1561750D02*
Y1535250D01*
X800238Y1561750D02*
Y1535250D01*
Y1561750D02*
X787738D01*
X800238Y1535250D02*
X787738D01*
X1122500Y1378000D02*
X1144500D01*
Y1368000D02*
Y1378000D01*
X1122500Y1368000D02*
X1144500D01*
X1122500D02*
Y1378000D01*
X1135000Y1368000D02*
Y1377000D01*
X1122500Y1404000D02*
X1144500D01*
Y1394000D02*
Y1404000D01*
X1122500Y1394000D02*
X1144500D01*
X1122500D02*
Y1404000D01*
X1135000Y1394000D02*
Y1403000D01*
D72*
X1317944Y1371530D02*
X1324548D01*
X1313880Y1372038D02*
X1328612D01*
X1310832Y1372546D02*
X1331152D01*
X1308800Y1373054D02*
X1333184D01*
X1307276Y1373562D02*
X1335216D01*
X1305752Y1374070D02*
X1336740D01*
X1304736Y1374578D02*
X1337756D01*
X1303212Y1375086D02*
X1339280D01*
X1302196Y1375594D02*
X1340296D01*
X1301180Y1376102D02*
X1341312D01*
X1300164Y1376610D02*
X1342328D01*
X1299148Y1377118D02*
X1343344D01*
X1298132Y1377626D02*
X1344360D01*
X1297624Y1378134D02*
X1344868D01*
X1296608Y1378642D02*
X1345884D01*
X1295592Y1379150D02*
X1346392D01*
X1295084Y1379658D02*
X1347408D01*
X1294576Y1380166D02*
X1347916D01*
X1293560Y1380674D02*
X1348424D01*
X1293052Y1381182D02*
X1349440D01*
X1292544Y1381690D02*
X1349948D01*
X1292036Y1382198D02*
X1350456D01*
X1291020Y1382706D02*
X1350964D01*
X1290512Y1383214D02*
X1350964D01*
X1290004Y1383722D02*
X1351472D01*
X1346900Y1384230D02*
X1351472D01*
X1326580D02*
X1344868D01*
X1289496D02*
X1315912D01*
X1347408Y1384738D02*
X1351980D01*
X1329120D02*
X1343852D01*
X1288988D02*
X1313372D01*
X1347916Y1385246D02*
X1351980D01*
X1330644D02*
X1343852D01*
X1288480D02*
X1311340D01*
X1347916Y1385754D02*
X1351980D01*
X1332168D02*
X1343344D01*
X1287972D02*
X1309816D01*
X1347916Y1386262D02*
X1351980D01*
X1333692D02*
X1343344D01*
X1287464D02*
X1308800D01*
X1347916Y1386770D02*
X1351980D01*
X1334708D02*
X1343344D01*
X1287464D02*
X1307784D01*
X1347916Y1387278D02*
X1351980D01*
X1335724D02*
X1343344D01*
X1286956D02*
X1306768D01*
X1347408Y1387786D02*
X1351980D01*
X1336740D02*
X1343852D01*
X1286448D02*
X1305752D01*
X1346900Y1388294D02*
X1351472D01*
X1337756D02*
X1344360D01*
X1315912D02*
X1326580D01*
X1285940D02*
X1304736D01*
X1338772Y1388802D02*
X1351472D01*
X1313372D02*
X1328612D01*
X1285432D02*
X1303720D01*
X1339280Y1389310D02*
X1350964D01*
X1311848D02*
X1330644D01*
X1284924D02*
X1303212D01*
X1340296Y1389818D02*
X1350964D01*
X1310324D02*
X1331660D01*
X1284924D02*
X1302196D01*
X1340804Y1390326D02*
X1350456D01*
X1309308D02*
X1333184D01*
X1284416D02*
X1301688D01*
X1341312Y1390834D02*
X1349948D01*
X1308292D02*
X1334200D01*
X1283908D02*
X1301180D01*
X1342328Y1391342D02*
X1349440D01*
X1307276D02*
X1335216D01*
X1283908D02*
X1300164D01*
X1342836Y1391850D02*
X1348424D01*
X1306260D02*
X1335724D01*
X1283400D02*
X1299656D01*
X1344360Y1392358D02*
X1346900D01*
X1305244D02*
X1336740D01*
X1282892D02*
X1299148D01*
X1304736Y1392866D02*
X1337756D01*
X1282892D02*
X1298640D01*
X1304228Y1393374D02*
X1338264D01*
X1282384D02*
X1298132D01*
X1303212Y1393882D02*
X1338772D01*
X1281876D02*
X1297624D01*
X1302704Y1394390D02*
X1339280D01*
X1281876D02*
X1297116D01*
X1302196Y1394898D02*
X1340296D01*
X1281368D02*
X1296608D01*
X1301688Y1395406D02*
X1340804D01*
X1281368D02*
X1296100D01*
X1301688Y1395914D02*
X1341312D01*
X1280860D02*
X1295592D01*
X1301180Y1396422D02*
X1341820D01*
X1280860D02*
X1295592D01*
X1301180Y1396930D02*
X1342328D01*
X1280352D02*
X1295084D01*
X1300672Y1397438D02*
X1342836D01*
X1280352D02*
X1294576D01*
X1300672Y1397946D02*
X1343344D01*
X1279844D02*
X1294068D01*
X1300672Y1398454D02*
X1343344D01*
X1279844D02*
X1294068D01*
X1300672Y1398962D02*
X1343852D01*
X1279336D02*
X1293560D01*
X1300672Y1399470D02*
X1344360D01*
X1279336D02*
X1293052D01*
X1300672Y1399978D02*
X1344868D01*
X1279336D02*
X1293052D01*
X1324040Y1400486D02*
X1344868D01*
X1300672D02*
X1317944D01*
X1278828D02*
X1292544D01*
X1326072Y1400994D02*
X1345376D01*
X1301180D02*
X1315912D01*
X1278828D02*
X1292544D01*
X1327596Y1401502D02*
X1345884D01*
X1301180D02*
X1314896D01*
X1278320D02*
X1292036D01*
X1328612Y1402010D02*
X1345884D01*
X1301180D02*
X1313880D01*
X1278320D02*
X1292036D01*
X1329628Y1402518D02*
X1346392D01*
X1301688D02*
X1312864D01*
X1278320D02*
X1291528D01*
X1330136Y1403026D02*
X1346392D01*
X1302196D02*
X1311848D01*
X1277812D02*
X1291528D01*
X1331152Y1403534D02*
X1346900D01*
X1302704D02*
X1311340D01*
X1277812D02*
X1291020D01*
X1331660Y1404042D02*
X1346900D01*
X1303212D02*
X1310324D01*
X1277812D02*
X1291020D01*
X1332168Y1404550D02*
X1347408D01*
X1304228D02*
X1309816D01*
X1277812D02*
X1290512D01*
X1332676Y1405058D02*
X1347408D01*
X1305244D02*
X1308292D01*
X1277304D02*
X1290512D01*
X1333184Y1405566D02*
X1347916D01*
X1277304D02*
X1290512D01*
X1333692Y1406074D02*
X1347916D01*
X1277304D02*
X1290004D01*
X1334200Y1406582D02*
X1348424D01*
X1277304D02*
X1290004D01*
X1334708Y1407090D02*
X1348424D01*
X1276796D02*
X1290004D01*
X1334708Y1407598D02*
X1348424D01*
X1276796D02*
X1289496D01*
X1335216Y1408106D02*
X1348932D01*
X1276796D02*
X1289496D01*
X1335216Y1408614D02*
X1348932D01*
X1276796D02*
X1289496D01*
X1335724Y1409122D02*
X1348932D01*
X1276796D02*
X1288988D01*
X1336232Y1409630D02*
X1348932D01*
X1276288D02*
X1288988D01*
X1336232Y1410138D02*
X1349440D01*
X1276288D02*
X1288988D01*
X1336232Y1410646D02*
X1349440D01*
X1276288D02*
X1322516D01*
X1336740Y1411154D02*
X1349440D01*
X1276288D02*
X1324040D01*
X1336740Y1411662D02*
X1349440D01*
X1276288D02*
X1325056D01*
X1336740Y1412170D02*
X1349440D01*
X1276288D02*
X1325564D01*
X1337248Y1412678D02*
X1349948D01*
X1276288D02*
X1326072D01*
X1337248Y1413186D02*
X1349948D01*
X1276288D02*
X1326580D01*
X1337248Y1413694D02*
X1349948D01*
X1322516D02*
X1326580D01*
X1276288D02*
X1319468D01*
X1337248Y1414202D02*
X1349948D01*
X1323532D02*
X1327088D01*
X1275780D02*
X1318960D01*
X1337248Y1414710D02*
X1349948D01*
X1324040D02*
X1327088D01*
X1275780D02*
X1318452D01*
X1337756Y1415218D02*
X1349948D01*
X1324040D02*
X1327596D01*
X1275780D02*
X1318452D01*
X1337756Y1415726D02*
X1349948D01*
X1324548D02*
X1327596D01*
X1275780D02*
X1317944D01*
X1337756Y1416234D02*
X1349948D01*
X1324548D02*
X1327596D01*
X1275780D02*
X1317944D01*
X1337756Y1416742D02*
X1349948D01*
X1324548D02*
X1327596D01*
X1275780D02*
X1317944D01*
X1337756Y1417250D02*
X1349948D01*
X1324548D02*
X1327596D01*
X1275780D02*
X1317944D01*
X1337756Y1417758D02*
X1349948D01*
X1324548D02*
X1327596D01*
X1275780D02*
X1317944D01*
X1337248Y1418266D02*
X1349948D01*
X1324040D02*
X1327088D01*
X1275780D02*
X1318452D01*
X1337248Y1418774D02*
X1349948D01*
X1323532D02*
X1327088D01*
X1275780D02*
X1318452D01*
X1337248Y1419282D02*
X1349948D01*
X1323024D02*
X1327088D01*
X1276288D02*
X1319468D01*
X1337248Y1419790D02*
X1349948D01*
X1322008D02*
X1326580D01*
X1276288D02*
X1319976D01*
X1337248Y1420298D02*
X1349948D01*
X1276288D02*
X1326580D01*
X1337248Y1420806D02*
X1349440D01*
X1276288D02*
X1326072D01*
X1336740Y1421314D02*
X1349440D01*
X1276288D02*
X1325564D01*
X1336740Y1421822D02*
X1349440D01*
X1276288D02*
X1325056D01*
X1336740Y1422330D02*
X1349440D01*
X1276288D02*
X1324040D01*
X1336232Y1422838D02*
X1349440D01*
X1276288D02*
X1322008D01*
X1336232Y1423346D02*
X1349440D01*
X1276288D02*
X1288988D01*
X1335724Y1423854D02*
X1348932D01*
X1276288D02*
X1288988D01*
X1335724Y1424362D02*
X1348932D01*
X1276796D02*
X1289496D01*
X1335216Y1424870D02*
X1348932D01*
X1276796D02*
X1289496D01*
X1335216Y1425378D02*
X1348424D01*
X1276796D02*
X1289496D01*
X1334708Y1425886D02*
X1348424D01*
X1276796D02*
X1289496D01*
X1334200Y1426394D02*
X1348424D01*
X1276796D02*
X1290004D01*
X1333692Y1426902D02*
X1347916D01*
X1277304D02*
X1290004D01*
X1333692Y1427410D02*
X1347916D01*
X1277304D02*
X1290004D01*
X1333184Y1427918D02*
X1347916D01*
X1277304D02*
X1290512D01*
X1332676Y1428426D02*
X1347408D01*
X1304736D02*
X1308800D01*
X1277304D02*
X1290512D01*
X1332168Y1428934D02*
X1347408D01*
X1303720D02*
X1310324D01*
X1277812D02*
X1291020D01*
X1331152Y1429442D02*
X1346900D01*
X1302704D02*
X1310832D01*
X1277812D02*
X1291020D01*
X1330644Y1429950D02*
X1346900D01*
X1302196D02*
X1311340D01*
X1277812D02*
X1291020D01*
X1330136Y1430458D02*
X1346392D01*
X1302196D02*
X1312356D01*
X1278320D02*
X1291528D01*
X1329120Y1430966D02*
X1346392D01*
X1301688D02*
X1312864D01*
X1278320D02*
X1291528D01*
X1328104Y1431474D02*
X1345884D01*
X1301180D02*
X1313880D01*
X1278320D02*
X1292036D01*
X1327088Y1431982D02*
X1345376D01*
X1301180D02*
X1315404D01*
X1278828D02*
X1292036D01*
X1325564Y1432490D02*
X1345376D01*
X1301180D02*
X1316928D01*
X1278828D02*
X1292544D01*
X1323024Y1432998D02*
X1344868D01*
X1300672D02*
X1319468D01*
X1278828D02*
X1292544D01*
X1300672Y1433506D02*
X1344360D01*
X1279336D02*
X1293052D01*
X1300672Y1434014D02*
X1344360D01*
X1279336D02*
X1293560D01*
X1300672Y1434522D02*
X1343852D01*
X1279844D02*
X1293560D01*
X1300672Y1435030D02*
X1343344D01*
X1279844D02*
X1294068D01*
X1300672Y1435538D02*
X1342836D01*
X1279844D02*
X1294576D01*
X1301180Y1436046D02*
X1342328D01*
X1280352D02*
X1294576D01*
X1301180Y1436554D02*
X1341820D01*
X1280352D02*
X1295084D01*
X1301180Y1437062D02*
X1341312D01*
X1280860D02*
X1295592D01*
X1301688Y1437570D02*
X1340804D01*
X1280860D02*
X1296100D01*
X1302196Y1438078D02*
X1340296D01*
X1281368D02*
X1296608D01*
X1302196Y1438586D02*
X1339788D01*
X1281876D02*
X1296608D01*
X1303212Y1439094D02*
X1339280D01*
X1281876D02*
X1297116D01*
X1303720Y1439602D02*
X1338772D01*
X1282384D02*
X1297624D01*
X1304228Y1440110D02*
X1337756D01*
X1282384D02*
X1298132D01*
X1305244Y1440618D02*
X1337248D01*
X1282892D02*
X1298640D01*
X1343852Y1441126D02*
X1347916D01*
X1305752D02*
X1336232D01*
X1283400D02*
X1299148D01*
X1342328Y1441634D02*
X1348932D01*
X1306768D02*
X1335724D01*
X1283400D02*
X1300164D01*
X1341820Y1442142D02*
X1349440D01*
X1307784D02*
X1334708D01*
X1283908D02*
X1300672D01*
X1341312Y1442650D02*
X1350456D01*
X1308800D02*
X1333692D01*
X1284416D02*
X1301180D01*
X1340296Y1443158D02*
X1350456D01*
X1309816D02*
X1332676D01*
X1284416D02*
X1301688D01*
X1339788Y1443666D02*
X1350964D01*
X1310832D02*
X1331152D01*
X1284924D02*
X1302704D01*
X1338772Y1444174D02*
X1351472D01*
X1312356D02*
X1329628D01*
X1285432D02*
X1303212D01*
X1346900Y1444682D02*
X1351472D01*
X1338264D02*
X1344868D01*
X1314388D02*
X1328104D01*
X1285940D02*
X1304228D01*
X1347408Y1445190D02*
X1351472D01*
X1337248D02*
X1343852D01*
X1316928D02*
X1325056D01*
X1285940D02*
X1305244D01*
X1347916Y1445698D02*
X1351980D01*
X1336232D02*
X1343852D01*
X1286448D02*
X1305752D01*
X1347916Y1446206D02*
X1351980D01*
X1335216D02*
X1343344D01*
X1286956D02*
X1306768D01*
X1347916Y1446714D02*
X1351980D01*
X1334200D02*
X1343344D01*
X1287464D02*
X1308292D01*
X1347916Y1447222D02*
X1351980D01*
X1333184D02*
X1343344D01*
X1287972D02*
X1309308D01*
X1347916Y1447730D02*
X1351980D01*
X1331660D02*
X1343344D01*
X1288480D02*
X1310832D01*
X1347408Y1448238D02*
X1351980D01*
X1330136D02*
X1343852D01*
X1288988D02*
X1312356D01*
X1346900Y1448746D02*
X1351472D01*
X1328104D02*
X1344360D01*
X1289496D02*
X1314388D01*
X1325056Y1449254D02*
X1351472D01*
X1290004D02*
X1317436D01*
X1290512Y1449762D02*
X1351472D01*
X1291020Y1450270D02*
X1350964D01*
X1291528Y1450778D02*
X1350456D01*
X1292036Y1451286D02*
X1350456D01*
X1292544Y1451794D02*
X1349948D01*
X1293560Y1452302D02*
X1348932D01*
X1294068Y1452810D02*
X1348424D01*
X1294576Y1453318D02*
X1347916D01*
X1295592Y1453826D02*
X1346900D01*
X1296100Y1454334D02*
X1346392D01*
X1297116Y1454842D02*
X1345376D01*
X1297624Y1455350D02*
X1344868D01*
X1298640Y1455858D02*
X1343852D01*
X1299656Y1456366D02*
X1342836D01*
X1300672Y1456874D02*
X1341820D01*
X1301688Y1457382D02*
X1340804D01*
X1302704Y1457890D02*
X1339788D01*
X1303720Y1458398D02*
X1338772D01*
X1305244Y1458906D02*
X1337248D01*
X1306260Y1459414D02*
X1335724D01*
X1307784Y1459922D02*
X1334200D01*
X1309816Y1460430D02*
X1332676D01*
X1311848Y1460938D02*
X1330136D01*
X1314896Y1461446D02*
X1327088D01*
X313560Y769392D02*
X306956D01*
X317624Y769900D02*
X302892D01*
X320164Y770408D02*
X299844D01*
X322196Y770916D02*
X297812D01*
X324228Y771424D02*
X296288D01*
X325752Y771932D02*
X294764D01*
X326768Y772440D02*
X293748D01*
X328292Y772948D02*
X292224D01*
X329308Y773456D02*
X291208D01*
X330324Y773964D02*
X290192D01*
X331340Y774472D02*
X289176D01*
X332356Y774980D02*
X288160D01*
X333372Y775488D02*
X287144D01*
X333880Y775996D02*
X286636D01*
X334896Y776504D02*
X285620D01*
X335404Y777012D02*
X284604D01*
X336420Y777520D02*
X284096D01*
X336928Y778028D02*
X283588D01*
X337436Y778536D02*
X282572D01*
X338452Y779044D02*
X282064D01*
X338960Y779552D02*
X281556D01*
X339468Y780060D02*
X281048D01*
X339976Y780568D02*
X280032D01*
X339976Y781076D02*
X279524D01*
X340484Y781584D02*
X279016D01*
X340484Y782092D02*
X335912D01*
X333880D02*
X315592D01*
X304924D02*
X278508D01*
X340992Y782600D02*
X336420D01*
X332864D02*
X318132D01*
X302384D02*
X278000D01*
X340992Y783108D02*
X336928D01*
X332864D02*
X319656D01*
X300352D02*
X277492D01*
X340992Y783616D02*
X336928D01*
X332356D02*
X321180D01*
X298828D02*
X276984D01*
X340992Y784124D02*
X336928D01*
X332356D02*
X322704D01*
X297812D02*
X276476D01*
X340992Y784632D02*
X336928D01*
X332356D02*
X323720D01*
X296796D02*
X276476D01*
X340992Y785140D02*
X336928D01*
X332356D02*
X324736D01*
X295780D02*
X275968D01*
X340992Y785648D02*
X336420D01*
X332864D02*
X325752D01*
X294764D02*
X275460D01*
X340484Y786156D02*
X335912D01*
X333372D02*
X326768D01*
X315592D02*
X304924D01*
X293748D02*
X274952D01*
X340484Y786664D02*
X327784D01*
X317624D02*
X302384D01*
X292732D02*
X274444D01*
X339976Y787172D02*
X328292D01*
X319656D02*
X300860D01*
X292224D02*
X273936D01*
X339976Y787680D02*
X329308D01*
X320672D02*
X299336D01*
X291208D02*
X273936D01*
X339468Y788188D02*
X329816D01*
X322196D02*
X298320D01*
X290700D02*
X273428D01*
X338960Y788696D02*
X330324D01*
X323212D02*
X297304D01*
X290192D02*
X272920D01*
X338452Y789204D02*
X331340D01*
X324228D02*
X296288D01*
X289176D02*
X272920D01*
X337436Y789712D02*
X331848D01*
X324736D02*
X295272D01*
X288668D02*
X272412D01*
X335912Y790220D02*
X333372D01*
X325752D02*
X294256D01*
X288160D02*
X271904D01*
X326768Y790728D02*
X293748D01*
X287652D02*
X271904D01*
X327276Y791236D02*
X293240D01*
X287144D02*
X271396D01*
X327784Y791744D02*
X292224D01*
X286636D02*
X270888D01*
X328292Y792252D02*
X291716D01*
X286128D02*
X270888D01*
X329308Y792760D02*
X291208D01*
X285620D02*
X270380D01*
X329816Y793268D02*
X290700D01*
X285112D02*
X270380D01*
X330324Y793776D02*
X290700D01*
X284604D02*
X269872D01*
X330832Y794284D02*
X290192D01*
X284604D02*
X269872D01*
X331340Y794792D02*
X290192D01*
X284096D02*
X269364D01*
X331848Y795300D02*
X289684D01*
X283588D02*
X269364D01*
X332356Y795808D02*
X289684D01*
X283080D02*
X268856D01*
X332356Y796316D02*
X289684D01*
X283080D02*
X268856D01*
X332864Y796824D02*
X289684D01*
X282572D02*
X268348D01*
X333372Y797332D02*
X289684D01*
X282064D02*
X268348D01*
X333880Y797840D02*
X289684D01*
X282064D02*
X268348D01*
X333880Y798348D02*
X313052D01*
X306956D02*
X289684D01*
X281556D02*
X267840D01*
X334388Y798856D02*
X315084D01*
X304924D02*
X290192D01*
X281556D02*
X267840D01*
X334896Y799364D02*
X316608D01*
X303908D02*
X290192D01*
X281048D02*
X267332D01*
X334896Y799872D02*
X317624D01*
X302892D02*
X290192D01*
X281048D02*
X267332D01*
X335404Y800380D02*
X318640D01*
X301876D02*
X290700D01*
X280540D02*
X267332D01*
X335404Y800888D02*
X319148D01*
X300860D02*
X291208D01*
X280540D02*
X266824D01*
X335912Y801396D02*
X320164D01*
X300352D02*
X291716D01*
X280032D02*
X266824D01*
X335912Y801904D02*
X320672D01*
X299336D02*
X292224D01*
X280032D02*
X266824D01*
X336420Y802412D02*
X321180D01*
X298828D02*
X293240D01*
X279524D02*
X266824D01*
X336420Y802920D02*
X321688D01*
X297304D02*
X294256D01*
X279524D02*
X266316D01*
X336928Y803428D02*
X322196D01*
X279524D02*
X266316D01*
X336928Y803936D02*
X322704D01*
X279016D02*
X266316D01*
X337436Y804444D02*
X323212D01*
X279016D02*
X266316D01*
X337436Y804952D02*
X323720D01*
X279016D02*
X265808D01*
X337436Y805460D02*
X323720D01*
X278508D02*
X265808D01*
X337944Y805968D02*
X324228D01*
X278508D02*
X265808D01*
X337944Y806476D02*
X324228D01*
X278508D02*
X265808D01*
X337944Y806984D02*
X324736D01*
X278000D02*
X265808D01*
X337944Y807492D02*
X325244D01*
X278000D02*
X265300D01*
X338452Y808000D02*
X325244D01*
X278000D02*
X265300D01*
X338452Y808508D02*
X325244D01*
X311528D02*
X265300D01*
X338452Y809016D02*
X325752D01*
X313052D02*
X265300D01*
X338452Y809524D02*
X325752D01*
X314068D02*
X265300D01*
X338452Y810032D02*
X325752D01*
X314576D02*
X265300D01*
X338960Y810540D02*
X326260D01*
X315084D02*
X265300D01*
X338960Y811048D02*
X326260D01*
X315592D02*
X265300D01*
X338960Y811556D02*
X326260D01*
X315592D02*
X311528D01*
X308480D02*
X265300D01*
X338960Y812064D02*
X326260D01*
X316100D02*
X312544D01*
X307972D02*
X264792D01*
X338960Y812572D02*
X326260D01*
X316100D02*
X313052D01*
X307464D02*
X264792D01*
X338960Y813080D02*
X326768D01*
X316608D02*
X313052D01*
X307464D02*
X264792D01*
X338960Y813588D02*
X326768D01*
X316608D02*
X313560D01*
X306956D02*
X264792D01*
X338960Y814096D02*
X326768D01*
X316608D02*
X313560D01*
X306956D02*
X264792D01*
X338960Y814604D02*
X326768D01*
X316608D02*
X313560D01*
X306956D02*
X264792D01*
X338960Y815112D02*
X326768D01*
X316608D02*
X313560D01*
X306956D02*
X264792D01*
X338960Y815620D02*
X326768D01*
X316608D02*
X313560D01*
X306956D02*
X264792D01*
X338960Y816128D02*
X326260D01*
X316100D02*
X313052D01*
X307464D02*
X264792D01*
X338960Y816636D02*
X326260D01*
X316100D02*
X312544D01*
X307464D02*
X264792D01*
X338960Y817144D02*
X326260D01*
X316100D02*
X312036D01*
X308480D02*
X265300D01*
X338960Y817652D02*
X326260D01*
X315592D02*
X311020D01*
X308988D02*
X265300D01*
X338960Y818160D02*
X326260D01*
X315592D02*
X265300D01*
X338452Y818668D02*
X326260D01*
X315084D02*
X265300D01*
X338452Y819176D02*
X325752D01*
X314576D02*
X265300D01*
X338452Y819684D02*
X325752D01*
X314068D02*
X265300D01*
X338452Y820192D02*
X325752D01*
X313052D02*
X265300D01*
X338452Y820700D02*
X325244D01*
X311020D02*
X265300D01*
X338452Y821208D02*
X325244D01*
X278000D02*
X265300D01*
X337944Y821716D02*
X324736D01*
X278000D02*
X265300D01*
X337944Y822224D02*
X324736D01*
X278508D02*
X265808D01*
X337944Y822732D02*
X324228D01*
X278508D02*
X265808D01*
X337436Y823240D02*
X324228D01*
X278508D02*
X265808D01*
X337436Y823748D02*
X323720D01*
X278508D02*
X265808D01*
X337436Y824256D02*
X323212D01*
X279016D02*
X265808D01*
X336928Y824764D02*
X322704D01*
X279016D02*
X266316D01*
X336928Y825272D02*
X322704D01*
X279016D02*
X266316D01*
X336928Y825780D02*
X322196D01*
X279524D02*
X266316D01*
X336420Y826288D02*
X321688D01*
X297812D02*
X293748D01*
X279524D02*
X266316D01*
X336420Y826796D02*
X321180D01*
X299336D02*
X292732D01*
X280032D02*
X266824D01*
X335912Y827304D02*
X320164D01*
X299844D02*
X291716D01*
X280032D02*
X266824D01*
X335912Y827812D02*
X319656D01*
X300352D02*
X291208D01*
X280032D02*
X266824D01*
X335404Y828320D02*
X319148D01*
X301368D02*
X291208D01*
X280540D02*
X267332D01*
X335404Y828828D02*
X318132D01*
X301876D02*
X290700D01*
X280540D02*
X267332D01*
X334896Y829336D02*
X317116D01*
X302892D02*
X290192D01*
X281048D02*
X267332D01*
X334388Y829844D02*
X316100D01*
X304416D02*
X290192D01*
X281048D02*
X267840D01*
X334388Y830352D02*
X314576D01*
X305940D02*
X290192D01*
X281556D02*
X267840D01*
X333880Y830860D02*
X312036D01*
X308480D02*
X289684D01*
X281556D02*
X267840D01*
X333372Y831368D02*
X289684D01*
X282064D02*
X268348D01*
X333372Y831876D02*
X289684D01*
X282572D02*
X268348D01*
X332864Y832384D02*
X289684D01*
X282572D02*
X268856D01*
X332356Y832892D02*
X289684D01*
X283080D02*
X268856D01*
X331848Y833400D02*
X289684D01*
X283588D02*
X268856D01*
X331340Y833908D02*
X290192D01*
X283588D02*
X269364D01*
X330832Y834416D02*
X290192D01*
X284096D02*
X269364D01*
X330324Y834924D02*
X290192D01*
X284604D02*
X269872D01*
X329816Y835432D02*
X290700D01*
X285112D02*
X269872D01*
X329308Y835940D02*
X291208D01*
X285620D02*
X270380D01*
X328800Y836448D02*
X291208D01*
X285620D02*
X270888D01*
X328292Y836956D02*
X292224D01*
X286128D02*
X270888D01*
X327784Y837464D02*
X292732D01*
X286636D02*
X271396D01*
X326768Y837972D02*
X293240D01*
X287144D02*
X271396D01*
X326260Y838480D02*
X294256D01*
X287652D02*
X271904D01*
X336928Y838988D02*
X332864D01*
X325244D02*
X294764D01*
X288160D02*
X272412D01*
X337944Y839496D02*
X331340D01*
X324736D02*
X295780D01*
X289176D02*
X272412D01*
X338452Y840004D02*
X330832D01*
X323720D02*
X296796D01*
X289684D02*
X272920D01*
X339468Y840512D02*
X330324D01*
X322704D02*
X297812D01*
X290192D02*
X273428D01*
X339468Y841020D02*
X329308D01*
X321688D02*
X298828D01*
X290700D02*
X273428D01*
X339976Y841528D02*
X328800D01*
X320164D02*
X299844D01*
X291716D02*
X273936D01*
X340484Y842036D02*
X327784D01*
X318640D02*
X301368D01*
X292224D02*
X274444D01*
X340484Y842544D02*
X335912D01*
X333880D02*
X327276D01*
X317116D02*
X303400D01*
X293240D02*
X274952D01*
X340484Y843052D02*
X336420D01*
X332864D02*
X326260D01*
X314068D02*
X305940D01*
X294256D02*
X274952D01*
X340992Y843560D02*
X336928D01*
X332864D02*
X325244D01*
X294764D02*
X275460D01*
X340992Y844068D02*
X336928D01*
X332356D02*
X324228D01*
X295780D02*
X275968D01*
X340992Y844576D02*
X336928D01*
X332356D02*
X323212D01*
X297304D02*
X276476D01*
X340992Y845084D02*
X336928D01*
X332356D02*
X322196D01*
X298320D02*
X276984D01*
X340992Y845592D02*
X336928D01*
X332356D02*
X320672D01*
X299844D02*
X277492D01*
X340992Y846100D02*
X336420D01*
X332864D02*
X319148D01*
X301368D02*
X278000D01*
X340484Y846608D02*
X335912D01*
X333372D02*
X317116D01*
X303400D02*
X278508D01*
X340484Y847116D02*
X314068D01*
X306448D02*
X279016D01*
X340484Y847624D02*
X279524D01*
X339976Y848132D02*
X280032D01*
X339468Y848640D02*
X280540D01*
X339468Y849148D02*
X281048D01*
X338960Y849656D02*
X281556D01*
X337944Y850164D02*
X282572D01*
X337436Y850672D02*
X283080D01*
X336928Y851180D02*
X283588D01*
X335912Y851688D02*
X284604D01*
X335404Y852196D02*
X285112D01*
X334388Y852704D02*
X286128D01*
X333880Y853212D02*
X286636D01*
X332864Y853720D02*
X287652D01*
X331848Y854228D02*
X288668D01*
X330832Y854736D02*
X289684D01*
X329816Y855244D02*
X290700D01*
X328800Y855752D02*
X291716D01*
X327784Y856260D02*
X292732D01*
X326260Y856768D02*
X294256D01*
X324736Y857276D02*
X295272D01*
X323212Y857784D02*
X296796D01*
X321688Y858292D02*
X298828D01*
X319148Y858800D02*
X300860D01*
X316100Y859308D02*
X303908D01*
X836100D02*
X823908D01*
X839148Y858800D02*
X820860D01*
X841688Y858292D02*
X818828D01*
X843212Y857784D02*
X816796D01*
X844736Y857276D02*
X815272D01*
X846260Y856768D02*
X814256D01*
X847784Y856260D02*
X812732D01*
X848800Y855752D02*
X811716D01*
X849816Y855244D02*
X810700D01*
X850832Y854736D02*
X809684D01*
X851848Y854228D02*
X808668D01*
X852864Y853720D02*
X807652D01*
X853880Y853212D02*
X806636D01*
X854388Y852704D02*
X806128D01*
X855404Y852196D02*
X805112D01*
X855912Y851688D02*
X804604D01*
X856928Y851180D02*
X803588D01*
X857436Y850672D02*
X803080D01*
X857944Y850164D02*
X802572D01*
X858960Y849656D02*
X801556D01*
X859468Y849148D02*
X801048D01*
X859468Y848640D02*
X800540D01*
X859976Y848132D02*
X800032D01*
X860484Y847624D02*
X799524D01*
X826448Y847116D02*
X799016D01*
X860484D02*
X834068D01*
X823400Y846608D02*
X798508D01*
X853372D02*
X837116D01*
X860484D02*
X855912D01*
X821368Y846100D02*
X798000D01*
X852864D02*
X839148D01*
X860992D02*
X856420D01*
X819844Y845592D02*
X797492D01*
X852356D02*
X840672D01*
X860992D02*
X856928D01*
X818320Y845084D02*
X796984D01*
X852356D02*
X842196D01*
X860992D02*
X856928D01*
X817304Y844576D02*
X796476D01*
X852356D02*
X843212D01*
X860992D02*
X856928D01*
X815780Y844068D02*
X795968D01*
X852356D02*
X844228D01*
X860992D02*
X856928D01*
X814764Y843560D02*
X795460D01*
X852864D02*
X845244D01*
X860992D02*
X856928D01*
X814256Y843052D02*
X794952D01*
X834068D02*
X825940D01*
X852864D02*
X846260D01*
X860484D02*
X856420D01*
X813240Y842544D02*
X794952D01*
X837116D02*
X823400D01*
X853880D02*
X847276D01*
X860484D02*
X855912D01*
X812224Y842036D02*
X794444D01*
X838640D02*
X821368D01*
X860484D02*
X847784D01*
X811716Y841528D02*
X793936D01*
X840164D02*
X819844D01*
X859976D02*
X848800D01*
X810700Y841020D02*
X793428D01*
X841688D02*
X818828D01*
X859468D02*
X849308D01*
X810192Y840512D02*
X793428D01*
X842704D02*
X817812D01*
X859468D02*
X850324D01*
X809684Y840004D02*
X792920D01*
X843720D02*
X816796D01*
X858452D02*
X850832D01*
X809176Y839496D02*
X792412D01*
X844736D02*
X815780D01*
X857944D02*
X851340D01*
X808160Y838988D02*
X792412D01*
X845244D02*
X814764D01*
X856928D02*
X852864D01*
X807652Y838480D02*
X791904D01*
X846260D02*
X814256D01*
X807144Y837972D02*
X791396D01*
X846768D02*
X813240D01*
X806636Y837464D02*
X791396D01*
X847784D02*
X812732D01*
X806128Y836956D02*
X790888D01*
X848292D02*
X812224D01*
X805620Y836448D02*
X790888D01*
X848800D02*
X811208D01*
X805620Y835940D02*
X790380D01*
X849308D02*
X811208D01*
X805112Y835432D02*
X789872D01*
X849816D02*
X810700D01*
X804604Y834924D02*
X789872D01*
X850324D02*
X810192D01*
X804096Y834416D02*
X789364D01*
X850832D02*
X810192D01*
X803588Y833908D02*
X789364D01*
X851340D02*
X810192D01*
X803588Y833400D02*
X788856D01*
X851848D02*
X809684D01*
X803080Y832892D02*
X788856D01*
X852356D02*
X809684D01*
X802572Y832384D02*
X788856D01*
X852864D02*
X809684D01*
X802572Y831876D02*
X788348D01*
X853372D02*
X809684D01*
X802064Y831368D02*
X788348D01*
X853372D02*
X809684D01*
X801556Y830860D02*
X787840D01*
X828480D02*
X809684D01*
X853880D02*
X832036D01*
X801556Y830352D02*
X787840D01*
X825940D02*
X810192D01*
X854388D02*
X834576D01*
X801048Y829844D02*
X787840D01*
X824416D02*
X810192D01*
X854388D02*
X836100D01*
X801048Y829336D02*
X787332D01*
X822892D02*
X810192D01*
X854896D02*
X837116D01*
X800540Y828828D02*
X787332D01*
X821876D02*
X810700D01*
X855404D02*
X838132D01*
X800540Y828320D02*
X787332D01*
X821368D02*
X811208D01*
X855404D02*
X839148D01*
X800032Y827812D02*
X786824D01*
X820352D02*
X811208D01*
X855912D02*
X839656D01*
X800032Y827304D02*
X786824D01*
X819844D02*
X811716D01*
X855912D02*
X840164D01*
X800032Y826796D02*
X786824D01*
X819336D02*
X812732D01*
X856420D02*
X841180D01*
X799524Y826288D02*
X786316D01*
X817812D02*
X813748D01*
X856420D02*
X841688D01*
X799524Y825780D02*
X786316D01*
X856928D02*
X842196D01*
X799016Y825272D02*
X786316D01*
X856928D02*
X842704D01*
X799016Y824764D02*
X786316D01*
X856928D02*
X842704D01*
X799016Y824256D02*
X785808D01*
X857436D02*
X843212D01*
X798508Y823748D02*
X785808D01*
X857436D02*
X843720D01*
X798508Y823240D02*
X785808D01*
X857436D02*
X844228D01*
X798508Y822732D02*
X785808D01*
X857944D02*
X844228D01*
X798508Y822224D02*
X785808D01*
X857944D02*
X844736D01*
X798000Y821716D02*
X785300D01*
X857944D02*
X844736D01*
X798000Y821208D02*
X785300D01*
X858452D02*
X845244D01*
X831020Y820700D02*
X785300D01*
X858452D02*
X845244D01*
X833052Y820192D02*
X785300D01*
X858452D02*
X845752D01*
X834068Y819684D02*
X785300D01*
X858452D02*
X845752D01*
X834576Y819176D02*
X785300D01*
X858452D02*
X845752D01*
X835084Y818668D02*
X785300D01*
X858452D02*
X846260D01*
X835592Y818160D02*
X785300D01*
X858960D02*
X846260D01*
X828988Y817652D02*
X785300D01*
X835592D02*
X831020D01*
X858960D02*
X846260D01*
X828480Y817144D02*
X785300D01*
X836100D02*
X832036D01*
X858960D02*
X846260D01*
X827464Y816636D02*
X784792D01*
X836100D02*
X832544D01*
X858960D02*
X846260D01*
X827464Y816128D02*
X784792D01*
X836100D02*
X833052D01*
X858960D02*
X846260D01*
X826956Y815620D02*
X784792D01*
X836608D02*
X833560D01*
X858960D02*
X846768D01*
X826956Y815112D02*
X784792D01*
X836608D02*
X833560D01*
X858960D02*
X846768D01*
X826956Y814604D02*
X784792D01*
X836608D02*
X833560D01*
X858960D02*
X846768D01*
X826956Y814096D02*
X784792D01*
X836608D02*
X833560D01*
X858960D02*
X846768D01*
X826956Y813588D02*
X784792D01*
X836608D02*
X833560D01*
X858960D02*
X846768D01*
X827464Y813080D02*
X784792D01*
X836608D02*
X833052D01*
X858960D02*
X846768D01*
X827464Y812572D02*
X784792D01*
X836100D02*
X833052D01*
X858960D02*
X846260D01*
X827972Y812064D02*
X784792D01*
X836100D02*
X832544D01*
X858960D02*
X846260D01*
X828480Y811556D02*
X785300D01*
X835592D02*
X831528D01*
X858960D02*
X846260D01*
X835592Y811048D02*
X785300D01*
X858960D02*
X846260D01*
X835084Y810540D02*
X785300D01*
X858960D02*
X846260D01*
X834576Y810032D02*
X785300D01*
X858452D02*
X845752D01*
X834068Y809524D02*
X785300D01*
X858452D02*
X845752D01*
X833052Y809016D02*
X785300D01*
X858452D02*
X845752D01*
X831528Y808508D02*
X785300D01*
X858452D02*
X845244D01*
X798000Y808000D02*
X785300D01*
X858452D02*
X845244D01*
X798000Y807492D02*
X785300D01*
X857944D02*
X845244D01*
X798000Y806984D02*
X785808D01*
X857944D02*
X844736D01*
X798508Y806476D02*
X785808D01*
X857944D02*
X844228D01*
X798508Y805968D02*
X785808D01*
X857944D02*
X844228D01*
X798508Y805460D02*
X785808D01*
X857436D02*
X843720D01*
X799016Y804952D02*
X785808D01*
X857436D02*
X843720D01*
X799016Y804444D02*
X786316D01*
X857436D02*
X843212D01*
X799016Y803936D02*
X786316D01*
X856928D02*
X842704D01*
X799524Y803428D02*
X786316D01*
X856928D02*
X842196D01*
X799524Y802920D02*
X786316D01*
X817304D02*
X814256D01*
X856420D02*
X841688D01*
X799524Y802412D02*
X786824D01*
X818828D02*
X813240D01*
X856420D02*
X841180D01*
X800032Y801904D02*
X786824D01*
X819336D02*
X812224D01*
X855912D02*
X840672D01*
X800032Y801396D02*
X786824D01*
X820352D02*
X811716D01*
X855912D02*
X840164D01*
X800540Y800888D02*
X786824D01*
X820860D02*
X811208D01*
X855404D02*
X839148D01*
X800540Y800380D02*
X787332D01*
X821876D02*
X810700D01*
X855404D02*
X838640D01*
X801048Y799872D02*
X787332D01*
X822892D02*
X810192D01*
X854896D02*
X837624D01*
X801048Y799364D02*
X787332D01*
X823908D02*
X810192D01*
X854896D02*
X836608D01*
X801556Y798856D02*
X787840D01*
X824924D02*
X810192D01*
X854388D02*
X835084D01*
X801556Y798348D02*
X787840D01*
X826956D02*
X809684D01*
X853880D02*
X833052D01*
X802064Y797840D02*
X788348D01*
X853880D02*
X809684D01*
X802064Y797332D02*
X788348D01*
X853372D02*
X809684D01*
X802572Y796824D02*
X788348D01*
X852864D02*
X809684D01*
X803080Y796316D02*
X788856D01*
X852356D02*
X809684D01*
X803080Y795808D02*
X788856D01*
X852356D02*
X809684D01*
X803588Y795300D02*
X789364D01*
X851848D02*
X809684D01*
X804096Y794792D02*
X789364D01*
X851340D02*
X810192D01*
X804604Y794284D02*
X789872D01*
X850832D02*
X810192D01*
X804604Y793776D02*
X789872D01*
X850324D02*
X810700D01*
X805112Y793268D02*
X790380D01*
X849816D02*
X810700D01*
X805620Y792760D02*
X790380D01*
X849308D02*
X811208D01*
X806128Y792252D02*
X790888D01*
X848292D02*
X811716D01*
X806636Y791744D02*
X790888D01*
X847784D02*
X812224D01*
X807144Y791236D02*
X791396D01*
X847276D02*
X813240D01*
X807652Y790728D02*
X791904D01*
X846768D02*
X813748D01*
X808160Y790220D02*
X791904D01*
X845752D02*
X814256D01*
X855912D02*
X853372D01*
X808668Y789712D02*
X792412D01*
X844736D02*
X815272D01*
X857436D02*
X851848D01*
X809176Y789204D02*
X792920D01*
X844228D02*
X816288D01*
X858452D02*
X851340D01*
X810192Y788696D02*
X792920D01*
X843212D02*
X817304D01*
X858960D02*
X850324D01*
X810700Y788188D02*
X793428D01*
X842196D02*
X818320D01*
X859468D02*
X849816D01*
X811208Y787680D02*
X793936D01*
X840672D02*
X819336D01*
X859976D02*
X849308D01*
X812224Y787172D02*
X793936D01*
X839656D02*
X820860D01*
X859976D02*
X848292D01*
X812732Y786664D02*
X794444D01*
X837624D02*
X822384D01*
X860484D02*
X847784D01*
X813748Y786156D02*
X794952D01*
X835592D02*
X824924D01*
X853372D02*
X846768D01*
X860484D02*
X855912D01*
X814764Y785648D02*
X795460D01*
X852864D02*
X845752D01*
X860992D02*
X856420D01*
X815780Y785140D02*
X795968D01*
X852356D02*
X844736D01*
X860992D02*
X856928D01*
X816796Y784632D02*
X796476D01*
X852356D02*
X843720D01*
X860992D02*
X856928D01*
X817812Y784124D02*
X796476D01*
X852356D02*
X842704D01*
X860992D02*
X856928D01*
X818828Y783616D02*
X796984D01*
X852356D02*
X841180D01*
X860992D02*
X856928D01*
X820352Y783108D02*
X797492D01*
X852864D02*
X839656D01*
X860992D02*
X856928D01*
X822384Y782600D02*
X798000D01*
X852864D02*
X838132D01*
X860992D02*
X856420D01*
X824924Y782092D02*
X798508D01*
X853880D02*
X835592D01*
X860484D02*
X855912D01*
X860484Y781584D02*
X799016D01*
X859976Y781076D02*
X799524D01*
X859976Y780568D02*
X800032D01*
X859468Y780060D02*
X801048D01*
X858960Y779552D02*
X801556D01*
X858452Y779044D02*
X802064D01*
X857436Y778536D02*
X802572D01*
X856928Y778028D02*
X803588D01*
X856420Y777520D02*
X804096D01*
X855404Y777012D02*
X804604D01*
X854896Y776504D02*
X805620D01*
X853880Y775996D02*
X806636D01*
X853372Y775488D02*
X807144D01*
X852356Y774980D02*
X808160D01*
X851340Y774472D02*
X809176D01*
X850324Y773964D02*
X810192D01*
X849308Y773456D02*
X811208D01*
X848292Y772948D02*
X812224D01*
X846768Y772440D02*
X813748D01*
X845752Y771932D02*
X814764D01*
X844228Y771424D02*
X816288D01*
X842196Y770916D02*
X817812D01*
X840164Y770408D02*
X819844D01*
X837624Y769900D02*
X822892D01*
X833560Y769392D02*
X826956D01*
X1279296Y806000D02*
Y812604D01*
X1279804Y801936D02*
Y816668D01*
X1280312Y799396D02*
Y819716D01*
X1280820Y797364D02*
Y821748D01*
X1281328Y795332D02*
Y823272D01*
X1281836Y793808D02*
Y824796D01*
X1282344Y792792D02*
Y825812D01*
X1282852Y791268D02*
Y827336D01*
X1283360Y790252D02*
Y828352D01*
X1283868Y789236D02*
Y829368D01*
X1284376Y788220D02*
Y830384D01*
X1284884Y787204D02*
Y831400D01*
X1285392Y786188D02*
Y832416D01*
X1285900Y785680D02*
Y832924D01*
X1286408Y784664D02*
Y833940D01*
X1286916Y784156D02*
Y834956D01*
X1287424Y783140D02*
Y835464D01*
X1287932Y782632D02*
Y835972D01*
X1288440Y782124D02*
Y836988D01*
X1288948Y781108D02*
Y837496D01*
X1289456Y780600D02*
Y838004D01*
X1289964Y780092D02*
Y838512D01*
X1290472Y779584D02*
Y839528D01*
X1290980Y779584D02*
Y840036D01*
X1291488Y779076D02*
Y840544D01*
X1291996Y779076D02*
Y783648D01*
Y785680D02*
Y803968D01*
Y814636D02*
Y841052D01*
X1292504Y778568D02*
Y783140D01*
Y786696D02*
Y801428D01*
Y817176D02*
Y841560D01*
X1293012Y778568D02*
Y782632D01*
Y786696D02*
Y799904D01*
Y819208D02*
Y842068D01*
X1293520Y778568D02*
Y782632D01*
Y787204D02*
Y798380D01*
Y820732D02*
Y842576D01*
X1294028Y778568D02*
Y782632D01*
Y787204D02*
Y796856D01*
Y821748D02*
Y843084D01*
X1294536Y778568D02*
Y782632D01*
Y787204D02*
Y795840D01*
Y822764D02*
Y843084D01*
X1295044Y778568D02*
Y782632D01*
Y787204D02*
Y794824D01*
Y823780D02*
Y843592D01*
X1295552Y778568D02*
Y783140D01*
Y786696D02*
Y793808D01*
Y824796D02*
Y844100D01*
X1296060Y779076D02*
Y783648D01*
Y786188D02*
Y792792D01*
Y803968D02*
Y814636D01*
Y825812D02*
Y844608D01*
X1296568Y779076D02*
Y791776D01*
Y801936D02*
Y817176D01*
Y826828D02*
Y845116D01*
X1297076Y779584D02*
Y791268D01*
Y799904D02*
Y818700D01*
Y827336D02*
Y845624D01*
X1297584Y779584D02*
Y790252D01*
Y798888D02*
Y820224D01*
Y828352D02*
Y845624D01*
X1298092Y780092D02*
Y789744D01*
Y797364D02*
Y821240D01*
Y828860D02*
Y846132D01*
X1298600Y780600D02*
Y789236D01*
Y796348D02*
Y822256D01*
Y829368D02*
Y846640D01*
X1299108Y781108D02*
Y788220D01*
Y795332D02*
Y823272D01*
Y830384D02*
Y846640D01*
X1299616Y782124D02*
Y787712D01*
Y794824D02*
Y824288D01*
Y830892D02*
Y847148D01*
X1300124Y783648D02*
Y786188D01*
Y793808D02*
Y825304D01*
Y831400D02*
Y847656D01*
X1300632Y792792D02*
Y825812D01*
Y831908D02*
Y847656D01*
X1301140Y792284D02*
Y826320D01*
Y832416D02*
Y848164D01*
X1301648Y791776D02*
Y827336D01*
Y832924D02*
Y848672D01*
X1302156Y791268D02*
Y827844D01*
Y833432D02*
Y848672D01*
X1302664Y790252D02*
Y828352D01*
Y833940D02*
Y849180D01*
X1303172Y789744D02*
Y828860D01*
Y834448D02*
Y849180D01*
X1303680Y789236D02*
Y828860D01*
Y834956D02*
Y849688D01*
X1304188Y788728D02*
Y829368D01*
Y834956D02*
Y849688D01*
X1304696Y788220D02*
Y829368D01*
Y835464D02*
Y850196D01*
X1305204Y787712D02*
Y829876D01*
Y835972D02*
Y850196D01*
X1305712Y787204D02*
Y829876D01*
Y836480D02*
Y850704D01*
X1306220Y787204D02*
Y829876D01*
Y836480D02*
Y850704D01*
X1306728Y786696D02*
Y829876D01*
Y836988D02*
Y851212D01*
X1307236Y786188D02*
Y829876D01*
Y837496D02*
Y851212D01*
X1307744Y785680D02*
Y829876D01*
Y837496D02*
Y851212D01*
X1308252Y785680D02*
Y806508D01*
Y812604D02*
Y829876D01*
Y838004D02*
Y851720D01*
X1308760Y785172D02*
Y804476D01*
Y814636D02*
Y829368D01*
Y838004D02*
Y851720D01*
X1309268Y784664D02*
Y802952D01*
Y815652D02*
Y829368D01*
Y838512D02*
Y852228D01*
X1309776Y784664D02*
Y801936D01*
Y816668D02*
Y829368D01*
Y838512D02*
Y852228D01*
X1310284Y784156D02*
Y800920D01*
Y817684D02*
Y828860D01*
Y839020D02*
Y852228D01*
X1310792Y784156D02*
Y800412D01*
Y818700D02*
Y828352D01*
Y839020D02*
Y852736D01*
X1311300Y783648D02*
Y799396D01*
Y819208D02*
Y827844D01*
Y839528D02*
Y852736D01*
X1311808Y783648D02*
Y798888D01*
Y820224D02*
Y827336D01*
Y839528D02*
Y852736D01*
X1312316Y783140D02*
Y798380D01*
Y820732D02*
Y826320D01*
Y840036D02*
Y852736D01*
X1312824Y783140D02*
Y797872D01*
Y822256D02*
Y825304D01*
Y840036D02*
Y853244D01*
X1313332Y782632D02*
Y797364D01*
Y840036D02*
Y853244D01*
X1313840Y782632D02*
Y796856D01*
Y840544D02*
Y853244D01*
X1314348Y782124D02*
Y796348D01*
Y840544D02*
Y853244D01*
X1314856Y782124D02*
Y795840D01*
Y840544D02*
Y853752D01*
X1315364Y782124D02*
Y795840D01*
Y841052D02*
Y853752D01*
X1315872Y781616D02*
Y795332D01*
Y841052D02*
Y853752D01*
X1316380Y781616D02*
Y795332D01*
Y841052D02*
Y853752D01*
X1316888Y781616D02*
Y794824D01*
Y841560D02*
Y853752D01*
X1317396Y781616D02*
Y794316D01*
Y841560D02*
Y854260D01*
X1317904Y781108D02*
Y794316D01*
Y841560D02*
Y854260D01*
X1318412Y781108D02*
Y794316D01*
Y808032D02*
Y854260D01*
X1318920Y781108D02*
Y793808D01*
Y806508D02*
Y854260D01*
X1319428Y781108D02*
Y793808D01*
Y805492D02*
Y854260D01*
X1319936Y781108D02*
Y793808D01*
Y804984D02*
Y854260D01*
X1320444Y780600D02*
Y793300D01*
Y804476D02*
Y854260D01*
X1320952Y780600D02*
Y793300D01*
Y803968D02*
Y854260D01*
X1321460Y780600D02*
Y793300D01*
Y803968D02*
Y808032D01*
Y811080D02*
Y854260D01*
X1321968Y780600D02*
Y793300D01*
Y803460D02*
Y807016D01*
Y811588D02*
Y854768D01*
X1322476Y780600D02*
Y793300D01*
Y803460D02*
Y806508D01*
Y812096D02*
Y854768D01*
X1322984Y780600D02*
Y792792D01*
Y802952D02*
Y806508D01*
Y812096D02*
Y854768D01*
X1323492Y780600D02*
Y792792D01*
Y802952D02*
Y806000D01*
Y812604D02*
Y854768D01*
X1324000Y780600D02*
Y792792D01*
Y802952D02*
Y806000D01*
Y812604D02*
Y854768D01*
X1324508Y780600D02*
Y792792D01*
Y802952D02*
Y806000D01*
Y812604D02*
Y854768D01*
X1325016Y780600D02*
Y792792D01*
Y802952D02*
Y806000D01*
Y812604D02*
Y854768D01*
X1325524Y780600D02*
Y792792D01*
Y802952D02*
Y806000D01*
Y812604D02*
Y854768D01*
X1326032Y780600D02*
Y793300D01*
Y803460D02*
Y806508D01*
Y812096D02*
Y854768D01*
X1326540Y780600D02*
Y793300D01*
Y803460D02*
Y807016D01*
Y812096D02*
Y854768D01*
X1327048Y780600D02*
Y793300D01*
Y803460D02*
Y807524D01*
Y811080D02*
Y854260D01*
X1327556Y780600D02*
Y793300D01*
Y803968D02*
Y808540D01*
Y810572D02*
Y854260D01*
X1328064Y780600D02*
Y793300D01*
Y803968D02*
Y854260D01*
X1328572Y781108D02*
Y793300D01*
Y804476D02*
Y854260D01*
X1329080Y781108D02*
Y793808D01*
Y804984D02*
Y854260D01*
X1329588Y781108D02*
Y793808D01*
Y805492D02*
Y854260D01*
X1330096Y781108D02*
Y793808D01*
Y806508D02*
Y854260D01*
X1330604Y781108D02*
Y794316D01*
Y808540D02*
Y854260D01*
X1331112Y781108D02*
Y794316D01*
Y841560D02*
Y854260D01*
X1331620Y781616D02*
Y794824D01*
Y841560D02*
Y854260D01*
X1332128Y781616D02*
Y794824D01*
Y841052D02*
Y853752D01*
X1332636Y781616D02*
Y795332D01*
Y841052D02*
Y853752D01*
X1333144Y782124D02*
Y795332D01*
Y841052D02*
Y853752D01*
X1333652Y782124D02*
Y795840D01*
Y841052D02*
Y853752D01*
X1334160Y782124D02*
Y796348D01*
Y840544D02*
Y853752D01*
X1334668Y782632D02*
Y796856D01*
Y840544D02*
Y853244D01*
X1335176Y782632D02*
Y796856D01*
Y840544D02*
Y853244D01*
X1335684Y782632D02*
Y797364D01*
Y840036D02*
Y853244D01*
X1336192Y783140D02*
Y797872D01*
Y821748D02*
Y825812D01*
Y840036D02*
Y853244D01*
X1336700Y783140D02*
Y798380D01*
Y820224D02*
Y826828D01*
Y839528D02*
Y852736D01*
X1337208Y783648D02*
Y799396D01*
Y819716D02*
Y827844D01*
Y839528D02*
Y852736D01*
X1337716Y783648D02*
Y799904D01*
Y819208D02*
Y828352D01*
Y839528D02*
Y852736D01*
X1338224Y784156D02*
Y800412D01*
Y818192D02*
Y828352D01*
Y839020D02*
Y852228D01*
X1338732Y784156D02*
Y801428D01*
Y817684D02*
Y828860D01*
Y839020D02*
Y852228D01*
X1339240Y784664D02*
Y802444D01*
Y816668D02*
Y829368D01*
Y838512D02*
Y852228D01*
X1339748Y785172D02*
Y803460D01*
Y815144D02*
Y829368D01*
Y838512D02*
Y851720D01*
X1340256Y785172D02*
Y804984D01*
Y813620D02*
Y829368D01*
Y838004D02*
Y851720D01*
X1340764Y785680D02*
Y807524D01*
Y811080D02*
Y829876D01*
Y838004D02*
Y851720D01*
X1341272Y786188D02*
Y829876D01*
Y837496D02*
Y851212D01*
X1341780Y786188D02*
Y829876D01*
Y836988D02*
Y851212D01*
X1342288Y786696D02*
Y829876D01*
Y836988D02*
Y850704D01*
X1342796Y787204D02*
Y829876D01*
Y836480D02*
Y850704D01*
X1343304Y787712D02*
Y829876D01*
Y835972D02*
Y850704D01*
X1343812Y788220D02*
Y829368D01*
Y835972D02*
Y850196D01*
X1344320Y788728D02*
Y829368D01*
Y835464D02*
Y850196D01*
X1344828Y789236D02*
Y829368D01*
Y834956D02*
Y849688D01*
X1345336Y789744D02*
Y828860D01*
Y834448D02*
Y849688D01*
X1345844Y790252D02*
Y828352D01*
Y833940D02*
Y849180D01*
X1346352Y790760D02*
Y828352D01*
Y833940D02*
Y848672D01*
X1346860Y791268D02*
Y827336D01*
Y833432D02*
Y848672D01*
X1347368Y791776D02*
Y826828D01*
Y832924D02*
Y848164D01*
X1347876Y792792D02*
Y826320D01*
Y832416D02*
Y848164D01*
X1348384Y793300D02*
Y825304D01*
Y831908D02*
Y847656D01*
X1348892Y782632D02*
Y786696D01*
Y794316D02*
Y824796D01*
Y831400D02*
Y847148D01*
X1349400Y781616D02*
Y788220D01*
Y794824D02*
Y823780D01*
Y830384D02*
Y847148D01*
X1349908Y781108D02*
Y788728D01*
Y795840D02*
Y822764D01*
Y829876D02*
Y846640D01*
X1350416Y780092D02*
Y789236D01*
Y796856D02*
Y821748D01*
Y829368D02*
Y846132D01*
X1350924Y780092D02*
Y790252D01*
Y797872D02*
Y820732D01*
Y828860D02*
Y846132D01*
X1351432Y779584D02*
Y790760D01*
Y799396D02*
Y819716D01*
Y827844D02*
Y845624D01*
X1351940Y779076D02*
Y791776D01*
Y800920D02*
Y818192D01*
Y827336D02*
Y845116D01*
X1352448Y779076D02*
Y783648D01*
Y785680D02*
Y792284D01*
Y802444D02*
Y816160D01*
Y826320D02*
Y844608D01*
X1352956Y779076D02*
Y783140D01*
Y786696D02*
Y793300D01*
Y805492D02*
Y813620D01*
Y825304D02*
Y844608D01*
X1353464Y778568D02*
Y782632D01*
Y786696D02*
Y794316D01*
Y824796D02*
Y844100D01*
X1353972Y778568D02*
Y782632D01*
Y787204D02*
Y795332D01*
Y823780D02*
Y843592D01*
X1354480Y778568D02*
Y782632D01*
Y787204D02*
Y796348D01*
Y822256D02*
Y843084D01*
X1354988Y778568D02*
Y782632D01*
Y787204D02*
Y797364D01*
Y821240D02*
Y842576D01*
X1355496Y778568D02*
Y782632D01*
Y787204D02*
Y798888D01*
Y819716D02*
Y842068D01*
X1356004Y778568D02*
Y783140D01*
Y786696D02*
Y800412D01*
Y818192D02*
Y841560D01*
X1356512Y779076D02*
Y783648D01*
Y786188D02*
Y802444D01*
Y816160D02*
Y841052D01*
X1357020Y779076D02*
Y805492D01*
Y813112D02*
Y840544D01*
X1357528Y779076D02*
Y840036D01*
X1358036Y779584D02*
Y839528D01*
X1358544Y780092D02*
Y839020D01*
X1359052Y780092D02*
Y838512D01*
X1359560Y780600D02*
Y838004D01*
X1360068Y781616D02*
Y836988D01*
X1360576Y782124D02*
Y836480D01*
X1361084Y782632D02*
Y835972D01*
X1361592Y783648D02*
Y834956D01*
X1362100Y784156D02*
Y834448D01*
X1362608Y785172D02*
Y833432D01*
X1363116Y785680D02*
Y832924D01*
X1363624Y786696D02*
Y831908D01*
X1364132Y787712D02*
Y830892D01*
X1364640Y788728D02*
Y829876D01*
X1365148Y789744D02*
Y828860D01*
X1365656Y790760D02*
Y827844D01*
X1366164Y791776D02*
Y826828D01*
X1366672Y793300D02*
Y825304D01*
X1367180Y794824D02*
Y824288D01*
X1367688Y796348D02*
Y822764D01*
X1368196Y797872D02*
Y820732D01*
X1368704Y800412D02*
Y818700D01*
X1369212Y803460D02*
Y815652D01*
X1369212Y283460D02*
Y295652D01*
X1368704Y280412D02*
Y298700D01*
X1368196Y277872D02*
Y300732D01*
X1367688Y276348D02*
Y302764D01*
X1367180Y274824D02*
Y304288D01*
X1366672Y273300D02*
Y305304D01*
X1366164Y271776D02*
Y306828D01*
X1365656Y270760D02*
Y307844D01*
X1365148Y269744D02*
Y308860D01*
X1364640Y268728D02*
Y309876D01*
X1364132Y267712D02*
Y310892D01*
X1363624Y266696D02*
Y311908D01*
X1363116Y265680D02*
Y312924D01*
X1362608Y265172D02*
Y313432D01*
X1362100Y264156D02*
Y314448D01*
X1361592Y263648D02*
Y314956D01*
X1361084Y262632D02*
Y315972D01*
X1360576Y262124D02*
Y316480D01*
X1360068Y261616D02*
Y316988D01*
X1359560Y260600D02*
Y318004D01*
X1359052Y260092D02*
Y318512D01*
X1358544Y260092D02*
Y319020D01*
X1358036Y259584D02*
Y319528D01*
X1357528Y259076D02*
Y320036D01*
X1357020Y293112D02*
Y320544D01*
Y259076D02*
Y285492D01*
X1356512Y296160D02*
Y321052D01*
Y266188D02*
Y282444D01*
Y259076D02*
Y263648D01*
X1356004Y298192D02*
Y321560D01*
Y266696D02*
Y280412D01*
Y258568D02*
Y263140D01*
X1355496Y299716D02*
Y322068D01*
Y267204D02*
Y278888D01*
Y258568D02*
Y262632D01*
X1354988Y301240D02*
Y322576D01*
Y267204D02*
Y277364D01*
Y258568D02*
Y262632D01*
X1354480Y302256D02*
Y323084D01*
Y267204D02*
Y276348D01*
Y258568D02*
Y262632D01*
X1353972Y303780D02*
Y323592D01*
Y267204D02*
Y275332D01*
Y258568D02*
Y262632D01*
X1353464Y304796D02*
Y324100D01*
Y266696D02*
Y274316D01*
Y258568D02*
Y262632D01*
X1352956Y305304D02*
Y324608D01*
Y285492D02*
Y293620D01*
Y266696D02*
Y273300D01*
Y259076D02*
Y263140D01*
X1352448Y306320D02*
Y324608D01*
Y282444D02*
Y296160D01*
Y265680D02*
Y272284D01*
Y259076D02*
Y263648D01*
X1351940Y307336D02*
Y325116D01*
Y280920D02*
Y298192D01*
Y259076D02*
Y271776D01*
X1351432Y307844D02*
Y325624D01*
Y279396D02*
Y299716D01*
Y259584D02*
Y270760D01*
X1350924Y308860D02*
Y326132D01*
Y277872D02*
Y300732D01*
Y260092D02*
Y270252D01*
X1350416Y309368D02*
Y326132D01*
Y276856D02*
Y301748D01*
Y260092D02*
Y269236D01*
X1349908Y309876D02*
Y326640D01*
Y275840D02*
Y302764D01*
Y261108D02*
Y268728D01*
X1349400Y310384D02*
Y327148D01*
Y274824D02*
Y303780D01*
Y261616D02*
Y268220D01*
X1348892Y311400D02*
Y327148D01*
Y274316D02*
Y304796D01*
Y262632D02*
Y266696D01*
X1348384Y311908D02*
Y327656D01*
Y273300D02*
Y305304D01*
X1347876Y312416D02*
Y328164D01*
Y272792D02*
Y306320D01*
X1347368Y312924D02*
Y328164D01*
Y271776D02*
Y306828D01*
X1346860Y313432D02*
Y328672D01*
Y271268D02*
Y307336D01*
X1346352Y313940D02*
Y328672D01*
Y270760D02*
Y308352D01*
X1345844Y313940D02*
Y329180D01*
Y270252D02*
Y308352D01*
X1345336Y314448D02*
Y329688D01*
Y269744D02*
Y308860D01*
X1344828Y314956D02*
Y329688D01*
Y269236D02*
Y309368D01*
X1344320Y315464D02*
Y330196D01*
Y268728D02*
Y309368D01*
X1343812Y315972D02*
Y330196D01*
Y268220D02*
Y309368D01*
X1343304Y315972D02*
Y330704D01*
Y267712D02*
Y309876D01*
X1342796Y316480D02*
Y330704D01*
Y267204D02*
Y309876D01*
X1342288Y316988D02*
Y330704D01*
Y266696D02*
Y309876D01*
X1341780Y316988D02*
Y331212D01*
Y266188D02*
Y309876D01*
X1341272Y317496D02*
Y331212D01*
Y266188D02*
Y309876D01*
X1340764Y318004D02*
Y331720D01*
Y291080D02*
Y309876D01*
Y265680D02*
Y287524D01*
X1340256Y318004D02*
Y331720D01*
Y293620D02*
Y309368D01*
Y265172D02*
Y284984D01*
X1339748Y318512D02*
Y331720D01*
Y295144D02*
Y309368D01*
Y265172D02*
Y283460D01*
X1339240Y318512D02*
Y332228D01*
Y296668D02*
Y309368D01*
Y264664D02*
Y282444D01*
X1338732Y319020D02*
Y332228D01*
Y297684D02*
Y308860D01*
Y264156D02*
Y281428D01*
X1338224Y319020D02*
Y332228D01*
Y298192D02*
Y308352D01*
Y264156D02*
Y280412D01*
X1337716Y319528D02*
Y332736D01*
Y299208D02*
Y308352D01*
Y263648D02*
Y279904D01*
X1337208Y319528D02*
Y332736D01*
Y299716D02*
Y307844D01*
Y263648D02*
Y279396D01*
X1336700Y319528D02*
Y332736D01*
Y300224D02*
Y306828D01*
Y263140D02*
Y278380D01*
X1336192Y320036D02*
Y333244D01*
Y301748D02*
Y305812D01*
Y263140D02*
Y277872D01*
X1335684Y320036D02*
Y333244D01*
Y262632D02*
Y277364D01*
X1335176Y320544D02*
Y333244D01*
Y262632D02*
Y276856D01*
X1334668Y320544D02*
Y333244D01*
Y262632D02*
Y276856D01*
X1334160Y320544D02*
Y333752D01*
Y262124D02*
Y276348D01*
X1333652Y321052D02*
Y333752D01*
Y262124D02*
Y275840D01*
X1333144Y321052D02*
Y333752D01*
Y262124D02*
Y275332D01*
X1332636Y321052D02*
Y333752D01*
Y261616D02*
Y275332D01*
X1332128Y321052D02*
Y333752D01*
Y261616D02*
Y274824D01*
X1331620Y321560D02*
Y334260D01*
Y261616D02*
Y274824D01*
X1331112Y321560D02*
Y334260D01*
Y261108D02*
Y274316D01*
X1330604Y288540D02*
Y334260D01*
Y261108D02*
Y274316D01*
X1330096Y286508D02*
Y334260D01*
Y261108D02*
Y273808D01*
X1329588Y285492D02*
Y334260D01*
Y261108D02*
Y273808D01*
X1329080Y284984D02*
Y334260D01*
Y261108D02*
Y273808D01*
X1328572Y284476D02*
Y334260D01*
Y261108D02*
Y273300D01*
X1328064Y283968D02*
Y334260D01*
Y260600D02*
Y273300D01*
X1327556Y290572D02*
Y334260D01*
Y283968D02*
Y288540D01*
Y260600D02*
Y273300D01*
X1327048Y291080D02*
Y334260D01*
Y283460D02*
Y287524D01*
Y260600D02*
Y273300D01*
X1326540Y292096D02*
Y334768D01*
Y283460D02*
Y287016D01*
Y260600D02*
Y273300D01*
X1326032Y292096D02*
Y334768D01*
Y283460D02*
Y286508D01*
Y260600D02*
Y273300D01*
X1325524Y292604D02*
Y334768D01*
Y282952D02*
Y286000D01*
Y260600D02*
Y272792D01*
X1325016Y292604D02*
Y334768D01*
Y282952D02*
Y286000D01*
Y260600D02*
Y272792D01*
X1324508Y292604D02*
Y334768D01*
Y282952D02*
Y286000D01*
Y260600D02*
Y272792D01*
X1324000Y292604D02*
Y334768D01*
Y282952D02*
Y286000D01*
Y260600D02*
Y272792D01*
X1323492Y292604D02*
Y334768D01*
Y282952D02*
Y286000D01*
Y260600D02*
Y272792D01*
X1322984Y292096D02*
Y334768D01*
Y282952D02*
Y286508D01*
Y260600D02*
Y272792D01*
X1322476Y292096D02*
Y334768D01*
Y283460D02*
Y286508D01*
Y260600D02*
Y273300D01*
X1321968Y291588D02*
Y334768D01*
Y283460D02*
Y287016D01*
Y260600D02*
Y273300D01*
X1321460Y291080D02*
Y334260D01*
Y283968D02*
Y288032D01*
Y260600D02*
Y273300D01*
X1320952Y283968D02*
Y334260D01*
Y260600D02*
Y273300D01*
X1320444Y284476D02*
Y334260D01*
Y260600D02*
Y273300D01*
X1319936Y284984D02*
Y334260D01*
Y261108D02*
Y273808D01*
X1319428Y285492D02*
Y334260D01*
Y261108D02*
Y273808D01*
X1318920Y286508D02*
Y334260D01*
Y261108D02*
Y273808D01*
X1318412Y288032D02*
Y334260D01*
Y261108D02*
Y274316D01*
X1317904Y321560D02*
Y334260D01*
Y261108D02*
Y274316D01*
X1317396Y321560D02*
Y334260D01*
Y261616D02*
Y274316D01*
X1316888Y321560D02*
Y333752D01*
Y261616D02*
Y274824D01*
X1316380Y321052D02*
Y333752D01*
Y261616D02*
Y275332D01*
X1315872Y321052D02*
Y333752D01*
Y261616D02*
Y275332D01*
X1315364Y321052D02*
Y333752D01*
Y262124D02*
Y275840D01*
X1314856Y320544D02*
Y333752D01*
Y262124D02*
Y275840D01*
X1314348Y320544D02*
Y333244D01*
Y262124D02*
Y276348D01*
X1313840Y320544D02*
Y333244D01*
Y262632D02*
Y276856D01*
X1313332Y320036D02*
Y333244D01*
Y262632D02*
Y277364D01*
X1312824Y320036D02*
Y333244D01*
Y302256D02*
Y305304D01*
Y263140D02*
Y277872D01*
X1312316Y320036D02*
Y332736D01*
Y300732D02*
Y306320D01*
Y263140D02*
Y278380D01*
X1311808Y319528D02*
Y332736D01*
Y300224D02*
Y307336D01*
Y263648D02*
Y278888D01*
X1311300Y319528D02*
Y332736D01*
Y299208D02*
Y307844D01*
Y263648D02*
Y279396D01*
X1310792Y319020D02*
Y332736D01*
Y298700D02*
Y308352D01*
Y264156D02*
Y280412D01*
X1310284Y319020D02*
Y332228D01*
Y297684D02*
Y308860D01*
Y264156D02*
Y280920D01*
X1309776Y318512D02*
Y332228D01*
Y296668D02*
Y309368D01*
Y264664D02*
Y281936D01*
X1309268Y318512D02*
Y332228D01*
Y295652D02*
Y309368D01*
Y264664D02*
Y282952D01*
X1308760Y318004D02*
Y331720D01*
Y294636D02*
Y309368D01*
Y265172D02*
Y284476D01*
X1308252Y318004D02*
Y331720D01*
Y292604D02*
Y309876D01*
Y265680D02*
Y286508D01*
X1307744Y317496D02*
Y331212D01*
Y265680D02*
Y309876D01*
X1307236Y317496D02*
Y331212D01*
Y266188D02*
Y309876D01*
X1306728Y316988D02*
Y331212D01*
Y266696D02*
Y309876D01*
X1306220Y316480D02*
Y330704D01*
Y267204D02*
Y309876D01*
X1305712Y316480D02*
Y330704D01*
Y267204D02*
Y309876D01*
X1305204Y315972D02*
Y330196D01*
Y267712D02*
Y309876D01*
X1304696Y315464D02*
Y330196D01*
Y268220D02*
Y309368D01*
X1304188Y314956D02*
Y329688D01*
Y268728D02*
Y309368D01*
X1303680Y314956D02*
Y329688D01*
Y269236D02*
Y308860D01*
X1303172Y314448D02*
Y329180D01*
Y269744D02*
Y308860D01*
X1302664Y313940D02*
Y329180D01*
Y270252D02*
Y308352D01*
X1302156Y313432D02*
Y328672D01*
Y271268D02*
Y307844D01*
X1301648Y312924D02*
Y328672D01*
Y271776D02*
Y307336D01*
X1301140Y312416D02*
Y328164D01*
Y272284D02*
Y306320D01*
X1300632Y311908D02*
Y327656D01*
Y272792D02*
Y305812D01*
X1300124Y311400D02*
Y327656D01*
Y273808D02*
Y305304D01*
Y263648D02*
Y266188D01*
X1299616Y310892D02*
Y327148D01*
Y274824D02*
Y304288D01*
Y262124D02*
Y267712D01*
X1299108Y310384D02*
Y326640D01*
Y275332D02*
Y303272D01*
Y261108D02*
Y268220D01*
X1298600Y309368D02*
Y326640D01*
Y276348D02*
Y302256D01*
Y260600D02*
Y269236D01*
X1298092Y308860D02*
Y326132D01*
Y277364D02*
Y301240D01*
Y260092D02*
Y269744D01*
X1297584Y308352D02*
Y325624D01*
Y278888D02*
Y300224D01*
Y259584D02*
Y270252D01*
X1297076Y307336D02*
Y325624D01*
Y279904D02*
Y298700D01*
Y259584D02*
Y271268D01*
X1296568Y306828D02*
Y325116D01*
Y281936D02*
Y297176D01*
Y259076D02*
Y271776D01*
X1296060Y305812D02*
Y324608D01*
Y283968D02*
Y294636D01*
Y266188D02*
Y272792D01*
Y259076D02*
Y263648D01*
X1295552Y304796D02*
Y324100D01*
Y266696D02*
Y273808D01*
Y258568D02*
Y263140D01*
X1295044Y303780D02*
Y323592D01*
Y267204D02*
Y274824D01*
Y258568D02*
Y262632D01*
X1294536Y302764D02*
Y323084D01*
Y267204D02*
Y275840D01*
Y258568D02*
Y262632D01*
X1294028Y301748D02*
Y323084D01*
Y267204D02*
Y276856D01*
Y258568D02*
Y262632D01*
X1293520Y300732D02*
Y322576D01*
Y267204D02*
Y278380D01*
Y258568D02*
Y262632D01*
X1293012Y299208D02*
Y322068D01*
Y266696D02*
Y279904D01*
Y258568D02*
Y262632D01*
X1292504Y297176D02*
Y321560D01*
Y266696D02*
Y281428D01*
Y258568D02*
Y263140D01*
X1291996Y294636D02*
Y321052D01*
Y265680D02*
Y283968D01*
Y259076D02*
Y263648D01*
X1291488Y259076D02*
Y320544D01*
X1290980Y259584D02*
Y320036D01*
X1290472Y259584D02*
Y319528D01*
X1289964Y260092D02*
Y318512D01*
X1289456Y260600D02*
Y318004D01*
X1288948Y261108D02*
Y317496D01*
X1288440Y262124D02*
Y316988D01*
X1287932Y262632D02*
Y315972D01*
X1287424Y263140D02*
Y315464D01*
X1286916Y264156D02*
Y314956D01*
X1286408Y264664D02*
Y313940D01*
X1285900Y265680D02*
Y312924D01*
X1285392Y266188D02*
Y312416D01*
X1284884Y267204D02*
Y311400D01*
X1284376Y268220D02*
Y310384D01*
X1283868Y269236D02*
Y309368D01*
X1283360Y270252D02*
Y308352D01*
X1282852Y271268D02*
Y307336D01*
X1282344Y272792D02*
Y305812D01*
X1281836Y273808D02*
Y304796D01*
X1281328Y275332D02*
Y303272D01*
X1280820Y277364D02*
Y301748D01*
X1280312Y279396D02*
Y299716D01*
X1279804Y281936D02*
Y296668D01*
X1279296Y286000D02*
Y292604D01*
X759296Y286000D02*
Y292604D01*
X759804Y281936D02*
Y296668D01*
X760312Y279396D02*
Y299716D01*
X760820Y277364D02*
Y301748D01*
X761328Y275332D02*
Y303272D01*
X761836Y273808D02*
Y304796D01*
X762344Y272792D02*
Y305812D01*
X762852Y271268D02*
Y307336D01*
X763360Y270252D02*
Y308352D01*
X763868Y269236D02*
Y309368D01*
X764376Y268220D02*
Y310384D01*
X764884Y267204D02*
Y311400D01*
X765392Y266188D02*
Y312416D01*
X765900Y265680D02*
Y312924D01*
X766408Y264664D02*
Y313940D01*
X766916Y264156D02*
Y314956D01*
X767424Y263140D02*
Y315464D01*
X767932Y262632D02*
Y315972D01*
X768440Y262124D02*
Y316988D01*
X768948Y261108D02*
Y317496D01*
X769456Y260600D02*
Y318004D01*
X769964Y260092D02*
Y318512D01*
X770472Y259584D02*
Y319528D01*
X770980Y259584D02*
Y320036D01*
X771488Y259076D02*
Y320544D01*
X771996Y259076D02*
Y263648D01*
Y265680D02*
Y283968D01*
Y294636D02*
Y321052D01*
X772504Y258568D02*
Y263140D01*
Y266696D02*
Y281428D01*
Y297176D02*
Y321560D01*
X773012Y258568D02*
Y262632D01*
Y266696D02*
Y279904D01*
Y299208D02*
Y322068D01*
X773520Y258568D02*
Y262632D01*
Y267204D02*
Y278380D01*
Y300732D02*
Y322576D01*
X774028Y258568D02*
Y262632D01*
Y267204D02*
Y276856D01*
Y301748D02*
Y323084D01*
X774536Y258568D02*
Y262632D01*
Y267204D02*
Y275840D01*
Y302764D02*
Y323084D01*
X775044Y258568D02*
Y262632D01*
Y267204D02*
Y274824D01*
Y303780D02*
Y323592D01*
X775552Y258568D02*
Y263140D01*
Y266696D02*
Y273808D01*
Y304796D02*
Y324100D01*
X776060Y259076D02*
Y263648D01*
Y266188D02*
Y272792D01*
Y283968D02*
Y294636D01*
Y305812D02*
Y324608D01*
X776568Y259076D02*
Y271776D01*
Y281936D02*
Y297176D01*
Y306828D02*
Y325116D01*
X777076Y259584D02*
Y271268D01*
Y279904D02*
Y298700D01*
Y307336D02*
Y325624D01*
X777584Y259584D02*
Y270252D01*
Y278888D02*
Y300224D01*
Y308352D02*
Y325624D01*
X778092Y260092D02*
Y269744D01*
Y277364D02*
Y301240D01*
Y308860D02*
Y326132D01*
X778600Y260600D02*
Y269236D01*
Y276348D02*
Y302256D01*
Y309368D02*
Y326640D01*
X779108Y261108D02*
Y268220D01*
Y275332D02*
Y303272D01*
Y310384D02*
Y326640D01*
X779616Y262124D02*
Y267712D01*
Y274824D02*
Y304288D01*
Y310892D02*
Y327148D01*
X780124Y263648D02*
Y266188D01*
Y273808D02*
Y305304D01*
Y311400D02*
Y327656D01*
X780632Y272792D02*
Y305812D01*
Y311908D02*
Y327656D01*
X781140Y272284D02*
Y306320D01*
Y312416D02*
Y328164D01*
X781648Y271776D02*
Y307336D01*
Y312924D02*
Y328672D01*
X782156Y271268D02*
Y307844D01*
Y313432D02*
Y328672D01*
X782664Y270252D02*
Y308352D01*
Y313940D02*
Y329180D01*
X783172Y269744D02*
Y308860D01*
Y314448D02*
Y329180D01*
X783680Y269236D02*
Y308860D01*
Y314956D02*
Y329688D01*
X784188Y268728D02*
Y309368D01*
Y314956D02*
Y329688D01*
X784696Y268220D02*
Y309368D01*
Y315464D02*
Y330196D01*
X785204Y267712D02*
Y309876D01*
Y315972D02*
Y330196D01*
X785712Y267204D02*
Y309876D01*
Y316480D02*
Y330704D01*
X786220Y267204D02*
Y309876D01*
Y316480D02*
Y330704D01*
X786728Y266696D02*
Y309876D01*
Y316988D02*
Y331212D01*
X787236Y266188D02*
Y309876D01*
Y317496D02*
Y331212D01*
X787744Y265680D02*
Y309876D01*
Y317496D02*
Y331212D01*
X788252Y265680D02*
Y286508D01*
Y292604D02*
Y309876D01*
Y318004D02*
Y331720D01*
X788760Y265172D02*
Y284476D01*
Y294636D02*
Y309368D01*
Y318004D02*
Y331720D01*
X789268Y264664D02*
Y282952D01*
Y295652D02*
Y309368D01*
Y318512D02*
Y332228D01*
X789776Y264664D02*
Y281936D01*
Y296668D02*
Y309368D01*
Y318512D02*
Y332228D01*
X790284Y264156D02*
Y280920D01*
Y297684D02*
Y308860D01*
Y319020D02*
Y332228D01*
X790792Y264156D02*
Y280412D01*
Y298700D02*
Y308352D01*
Y319020D02*
Y332736D01*
X791300Y263648D02*
Y279396D01*
Y299208D02*
Y307844D01*
Y319528D02*
Y332736D01*
X791808Y263648D02*
Y278888D01*
Y300224D02*
Y307336D01*
Y319528D02*
Y332736D01*
X792316Y263140D02*
Y278380D01*
Y300732D02*
Y306320D01*
Y320036D02*
Y332736D01*
X792824Y263140D02*
Y277872D01*
Y302256D02*
Y305304D01*
Y320036D02*
Y333244D01*
X793332Y262632D02*
Y277364D01*
Y320036D02*
Y333244D01*
X793840Y262632D02*
Y276856D01*
Y320544D02*
Y333244D01*
X794348Y262124D02*
Y276348D01*
Y320544D02*
Y333244D01*
X794856Y262124D02*
Y275840D01*
Y320544D02*
Y333752D01*
X795364Y262124D02*
Y275840D01*
Y321052D02*
Y333752D01*
X795872Y261616D02*
Y275332D01*
Y321052D02*
Y333752D01*
X796380Y261616D02*
Y275332D01*
Y321052D02*
Y333752D01*
X796888Y261616D02*
Y274824D01*
Y321560D02*
Y333752D01*
X797396Y261616D02*
Y274316D01*
Y321560D02*
Y334260D01*
X797904Y261108D02*
Y274316D01*
Y321560D02*
Y334260D01*
X798412Y261108D02*
Y274316D01*
Y288032D02*
Y334260D01*
X798920Y261108D02*
Y273808D01*
Y286508D02*
Y334260D01*
X799428Y261108D02*
Y273808D01*
Y285492D02*
Y334260D01*
X799936Y261108D02*
Y273808D01*
Y284984D02*
Y334260D01*
X800444Y284476D02*
Y334260D01*
X800952Y260600D02*
Y273300D01*
Y283968D02*
Y334260D01*
X801460Y260600D02*
Y273300D01*
Y283968D02*
Y288032D01*
Y291080D02*
Y334260D01*
X801968Y260600D02*
Y273300D01*
Y283460D02*
Y287016D01*
Y291588D02*
Y334768D01*
X802476Y260600D02*
Y273300D01*
Y283460D02*
Y286508D01*
Y292096D02*
Y334768D01*
X802984Y260600D02*
Y272792D01*
Y282952D02*
Y286508D01*
Y292096D02*
Y334768D01*
X803492Y260600D02*
Y272792D01*
Y282952D02*
Y286000D01*
Y292604D02*
Y334768D01*
X804000Y260600D02*
Y272792D01*
Y282952D02*
Y286000D01*
Y292604D02*
Y334768D01*
X804508Y260600D02*
Y272792D01*
Y282952D02*
Y286000D01*
Y292604D02*
Y334768D01*
X805016Y260600D02*
Y272792D01*
Y282952D02*
Y286000D01*
Y292604D02*
Y334768D01*
X805524Y260600D02*
Y272792D01*
Y282952D02*
Y286000D01*
Y292604D02*
Y334768D01*
X806032Y260600D02*
Y273300D01*
Y283460D02*
Y286508D01*
Y292096D02*
Y334768D01*
X806540Y260600D02*
Y273300D01*
Y283460D02*
Y287016D01*
Y292096D02*
Y334768D01*
X807048Y260600D02*
Y273300D01*
Y283460D02*
Y287524D01*
Y291080D02*
Y334260D01*
X807556Y260600D02*
Y273300D01*
Y283968D02*
Y288540D01*
Y290572D02*
Y334260D01*
X808064Y260600D02*
Y273300D01*
Y283968D02*
Y334260D01*
X808572Y261108D02*
Y273300D01*
Y284476D02*
Y334260D01*
X809080Y261108D02*
Y273808D01*
Y284984D02*
Y334260D01*
X809588Y261108D02*
Y273808D01*
Y285492D02*
Y334260D01*
X810096Y261108D02*
Y273808D01*
Y286508D02*
Y334260D01*
X810604Y261108D02*
Y274316D01*
Y288540D02*
Y334260D01*
X811112Y261108D02*
Y274316D01*
Y321560D02*
Y334260D01*
X811620Y261616D02*
Y274824D01*
Y321560D02*
Y334260D01*
X812128Y261616D02*
Y274824D01*
Y321052D02*
Y333752D01*
X812636Y261616D02*
Y275332D01*
Y321052D02*
Y333752D01*
X813144Y262124D02*
Y275332D01*
Y321052D02*
Y333752D01*
X813652Y262124D02*
Y275840D01*
Y321052D02*
Y333752D01*
X814160Y262124D02*
Y276348D01*
Y320544D02*
Y333752D01*
X814668Y262632D02*
Y276856D01*
Y320544D02*
Y333244D01*
X815176Y262632D02*
Y276856D01*
Y320544D02*
Y333244D01*
X815684Y262632D02*
Y277364D01*
Y320036D02*
Y333244D01*
X816192Y263140D02*
Y277872D01*
Y301748D02*
Y305812D01*
Y320036D02*
Y333244D01*
X816700Y263140D02*
Y278380D01*
Y300224D02*
Y306828D01*
Y319528D02*
Y332736D01*
X817208Y263648D02*
Y279396D01*
Y299716D02*
Y307844D01*
Y319528D02*
Y332736D01*
X817716Y263648D02*
Y279904D01*
Y299208D02*
Y308352D01*
Y319528D02*
Y332736D01*
X818224Y264156D02*
Y280412D01*
Y298192D02*
Y308352D01*
Y319020D02*
Y332228D01*
X818732Y264156D02*
Y281428D01*
Y297684D02*
Y308860D01*
Y319020D02*
Y332228D01*
X819240Y264664D02*
Y282444D01*
Y296668D02*
Y309368D01*
Y318512D02*
Y332228D01*
X819748Y265172D02*
Y283460D01*
Y295144D02*
Y309368D01*
Y318512D02*
Y331720D01*
X820256Y265172D02*
Y284984D01*
Y293620D02*
Y309368D01*
Y318004D02*
Y331720D01*
X820764Y265680D02*
Y287524D01*
Y291080D02*
Y309876D01*
Y318004D02*
Y331720D01*
X821272Y266188D02*
Y309876D01*
Y317496D02*
Y331212D01*
X821780Y266188D02*
Y309876D01*
Y316988D02*
Y331212D01*
X822288Y266696D02*
Y309876D01*
Y316988D02*
Y330704D01*
X822796Y267204D02*
Y309876D01*
Y316480D02*
Y330704D01*
X823304Y267712D02*
Y309876D01*
Y315972D02*
Y330704D01*
X823812Y268220D02*
Y309368D01*
Y315972D02*
Y330196D01*
X824320Y268728D02*
Y309368D01*
Y315464D02*
Y330196D01*
X824828Y269236D02*
Y309368D01*
Y314956D02*
Y329688D01*
X825336Y269744D02*
Y308860D01*
Y314448D02*
Y329688D01*
X825844Y270252D02*
Y308352D01*
Y313940D02*
Y329180D01*
X826352Y270760D02*
Y308352D01*
Y313940D02*
Y328672D01*
X826860Y271268D02*
Y307336D01*
Y313432D02*
Y328672D01*
X827368Y271776D02*
Y306828D01*
Y312924D02*
Y328164D01*
X827876Y272792D02*
Y306320D01*
Y312416D02*
Y328164D01*
X828384Y273300D02*
Y305304D01*
Y311908D02*
Y327656D01*
X828892Y262632D02*
Y266696D01*
Y274316D02*
Y304796D01*
Y311400D02*
Y327148D01*
X829400Y261616D02*
Y268220D01*
Y274824D02*
Y303780D01*
Y310384D02*
Y327148D01*
X829908Y261108D02*
Y268728D01*
Y275840D02*
Y302764D01*
Y309876D02*
Y326640D01*
X830416Y260092D02*
Y269236D01*
Y276856D02*
Y301748D01*
Y309368D02*
Y326132D01*
X830924Y260092D02*
Y270252D01*
Y277872D02*
Y300732D01*
Y308860D02*
Y326132D01*
X831432Y259584D02*
Y270760D01*
Y279396D02*
Y299716D01*
Y307844D02*
Y325624D01*
X831940Y259076D02*
Y271776D01*
Y280920D02*
Y298192D01*
Y307336D02*
Y325116D01*
X832448Y259076D02*
Y263648D01*
Y265680D02*
Y272284D01*
Y282444D02*
Y296160D01*
Y306320D02*
Y324608D01*
X832956Y259076D02*
Y263140D01*
Y266696D02*
Y273300D01*
Y285492D02*
Y293620D01*
Y305304D02*
Y324608D01*
X833464Y258568D02*
Y262632D01*
Y266696D02*
Y274316D01*
Y304796D02*
Y324100D01*
X833972Y258568D02*
Y262632D01*
Y267204D02*
Y275332D01*
Y303780D02*
Y323592D01*
X834480Y258568D02*
Y262632D01*
Y267204D02*
Y276348D01*
Y302256D02*
Y323084D01*
X834988Y258568D02*
Y262632D01*
Y267204D02*
Y277364D01*
Y301240D02*
Y322576D01*
X835496Y258568D02*
Y262632D01*
Y267204D02*
Y278888D01*
Y299716D02*
Y322068D01*
X836004Y258568D02*
Y263140D01*
Y266696D02*
Y280412D01*
Y298192D02*
Y321560D01*
X836512Y259076D02*
Y263648D01*
Y266188D02*
Y282444D01*
Y296160D02*
Y321052D01*
X837020Y259076D02*
Y285492D01*
Y293112D02*
Y320544D01*
X837528Y259076D02*
Y320036D01*
X838036Y259584D02*
Y319528D01*
X838544Y260092D02*
Y319020D01*
X839052Y260092D02*
Y318512D01*
X839560Y260600D02*
Y318004D01*
X840068Y261616D02*
Y316988D01*
X840576Y262124D02*
Y316480D01*
X841084Y262632D02*
Y315972D01*
X841592Y263648D02*
Y314956D01*
X842100Y264156D02*
Y314448D01*
X842608Y265172D02*
Y313432D01*
X843116Y265680D02*
Y312924D01*
X843624Y266696D02*
Y311908D01*
X844132Y267712D02*
Y310892D01*
X844640Y268728D02*
Y309876D01*
X845148Y269744D02*
Y308860D01*
X845656Y270760D02*
Y307844D01*
X846164Y271776D02*
Y306828D01*
X846672Y273300D02*
Y305304D01*
X847180Y274824D02*
Y304288D01*
X847688Y276348D02*
Y302764D01*
X848196Y277872D02*
Y300732D01*
X848704Y280412D02*
Y298700D01*
X849212Y283460D02*
Y295652D01*
X339308Y283900D02*
Y296092D01*
X338800Y280852D02*
Y299140D01*
X338292Y278312D02*
Y301172D01*
X337784Y276788D02*
Y303204D01*
X337276Y275264D02*
Y304728D01*
X336768Y273740D02*
Y305744D01*
X336260Y272216D02*
Y307268D01*
X335752Y271200D02*
Y308284D01*
X335244Y270184D02*
Y309300D01*
X334736Y269168D02*
Y310316D01*
X334228Y268152D02*
Y311332D01*
X333720Y267136D02*
Y312348D01*
X333212Y266120D02*
Y313364D01*
X332704Y265612D02*
Y313872D01*
X332196Y264596D02*
Y314888D01*
X331688Y264088D02*
Y315396D01*
X331180Y263072D02*
Y316412D01*
X330672Y262564D02*
Y316920D01*
X330164Y262056D02*
Y317428D01*
X329656Y261040D02*
Y318444D01*
X329148Y260532D02*
Y318952D01*
X328640Y260532D02*
Y319460D01*
X328132Y260024D02*
Y319968D01*
X327624Y259516D02*
Y320476D01*
X327116Y293552D02*
Y320984D01*
Y259516D02*
Y285932D01*
X326608Y296600D02*
Y321492D01*
Y266628D02*
Y282884D01*
Y259516D02*
Y264088D01*
X326100Y298632D02*
Y322000D01*
Y267136D02*
Y280852D01*
Y259008D02*
Y263580D01*
X325592Y300156D02*
Y322508D01*
Y267644D02*
Y279328D01*
Y259008D02*
Y263072D01*
X325084Y301680D02*
Y323016D01*
Y267644D02*
Y277804D01*
Y259008D02*
Y263072D01*
X324576Y302696D02*
Y323524D01*
Y267644D02*
Y276788D01*
Y259008D02*
Y263072D01*
X324068Y304220D02*
Y324032D01*
Y267644D02*
Y275772D01*
Y259008D02*
Y263072D01*
X323560Y305236D02*
Y324540D01*
Y267136D02*
Y274756D01*
Y259008D02*
Y263072D01*
X323052Y305744D02*
Y325048D01*
Y285932D02*
Y294060D01*
Y267136D02*
Y273740D01*
Y259516D02*
Y263580D01*
X322544Y306760D02*
Y325048D01*
Y282884D02*
Y296600D01*
Y266120D02*
Y272724D01*
Y259516D02*
Y264088D01*
X322036Y307776D02*
Y325556D01*
Y281360D02*
Y298632D01*
Y259516D02*
Y272216D01*
X321528Y308284D02*
Y326064D01*
Y279836D02*
Y300156D01*
Y260024D02*
Y271200D01*
X321020Y309300D02*
Y326572D01*
Y278312D02*
Y301172D01*
Y260532D02*
Y270692D01*
X320512Y309808D02*
Y326572D01*
Y277296D02*
Y302188D01*
Y260532D02*
Y269676D01*
X320004Y310316D02*
Y327080D01*
Y276280D02*
Y303204D01*
Y261548D02*
Y269168D01*
X319496Y310824D02*
Y327588D01*
Y275264D02*
Y304220D01*
Y262056D02*
Y268660D01*
X318988Y311840D02*
Y327588D01*
Y274756D02*
Y305236D01*
Y263072D02*
Y267136D01*
X318480Y312348D02*
Y328096D01*
Y273740D02*
Y305744D01*
X317972Y312856D02*
Y328604D01*
Y273232D02*
Y306760D01*
X317464Y313364D02*
Y328604D01*
Y272216D02*
Y307268D01*
X316956Y313872D02*
Y329112D01*
Y271708D02*
Y307776D01*
X316448Y314380D02*
Y329112D01*
Y271200D02*
Y308792D01*
X315940Y314380D02*
Y329620D01*
Y270692D02*
Y308792D01*
X315432Y314888D02*
Y330128D01*
Y270184D02*
Y309300D01*
X314924Y315396D02*
Y330128D01*
Y269676D02*
Y309808D01*
X314416Y315904D02*
Y330636D01*
Y269168D02*
Y309808D01*
X313908Y316412D02*
Y330636D01*
Y268660D02*
Y309808D01*
X313400Y316412D02*
Y331144D01*
Y268152D02*
Y310316D01*
X312892Y316920D02*
Y331144D01*
Y267644D02*
Y310316D01*
X312384Y317428D02*
Y331144D01*
Y267136D02*
Y310316D01*
X311876Y317428D02*
Y331652D01*
Y266628D02*
Y310316D01*
X311368Y317936D02*
Y331652D01*
Y266628D02*
Y310316D01*
X310860Y318444D02*
Y332160D01*
Y291520D02*
Y310316D01*
Y266120D02*
Y287964D01*
X310352Y318444D02*
Y332160D01*
Y294060D02*
Y309808D01*
Y265612D02*
Y285424D01*
X309844Y318952D02*
Y332160D01*
Y295584D02*
Y309808D01*
Y265612D02*
Y283900D01*
X309336Y318952D02*
Y332668D01*
Y297108D02*
Y309808D01*
Y265104D02*
Y282884D01*
X308828Y319460D02*
Y332668D01*
Y298124D02*
Y309300D01*
Y264596D02*
Y281868D01*
X308320Y319460D02*
Y332668D01*
Y298632D02*
Y308792D01*
Y264596D02*
Y280852D01*
X307812Y319968D02*
Y333176D01*
Y299648D02*
Y308792D01*
Y264088D02*
Y280344D01*
X307304Y319968D02*
Y333176D01*
Y300156D02*
Y308284D01*
Y264088D02*
Y279836D01*
X306796Y319968D02*
Y333176D01*
Y300664D02*
Y307268D01*
Y263580D02*
Y278820D01*
X306288Y320476D02*
Y333684D01*
Y302188D02*
Y306252D01*
Y263580D02*
Y278312D01*
X305780Y320476D02*
Y333684D01*
Y263072D02*
Y277804D01*
X305272Y320984D02*
Y333684D01*
Y263072D02*
Y277296D01*
X304764Y320984D02*
Y333684D01*
Y263072D02*
Y277296D01*
X304256Y320984D02*
Y334192D01*
Y262564D02*
Y276788D01*
X303748Y321492D02*
Y334192D01*
Y262564D02*
Y276280D01*
X303240Y321492D02*
Y334192D01*
Y262564D02*
Y275772D01*
X302732Y321492D02*
Y334192D01*
Y262056D02*
Y275772D01*
X302224Y321492D02*
Y334192D01*
Y262056D02*
Y275264D01*
X301716Y322000D02*
Y334700D01*
Y262056D02*
Y275264D01*
X301208Y322000D02*
Y334700D01*
Y261548D02*
Y274756D01*
X300700Y288980D02*
Y334700D01*
Y261548D02*
Y274756D01*
X300192Y286948D02*
Y334700D01*
Y261548D02*
Y274248D01*
X299684Y285932D02*
Y334700D01*
Y261548D02*
Y274248D01*
X299176Y285424D02*
Y334700D01*
Y261548D02*
Y274248D01*
X298668Y284916D02*
Y334700D01*
Y261548D02*
Y273740D01*
X298160Y284408D02*
Y334700D01*
Y261040D02*
Y273740D01*
X297652Y291012D02*
Y334700D01*
Y284408D02*
Y288980D01*
Y261040D02*
Y273740D01*
X297144Y291520D02*
Y334700D01*
Y283900D02*
Y287964D01*
Y261040D02*
Y273740D01*
X296636Y292536D02*
Y335208D01*
Y283900D02*
Y287456D01*
Y261040D02*
Y273740D01*
X296128Y292536D02*
Y335208D01*
Y283900D02*
Y286948D01*
Y261040D02*
Y273740D01*
X295620Y293044D02*
Y335208D01*
Y283392D02*
Y286440D01*
Y261040D02*
Y273232D01*
X295112Y293044D02*
Y335208D01*
Y283392D02*
Y286440D01*
Y261040D02*
Y273232D01*
X294604Y293044D02*
Y335208D01*
Y283392D02*
Y286440D01*
Y261040D02*
Y273232D01*
X294096Y293044D02*
Y335208D01*
Y283392D02*
Y286440D01*
Y261040D02*
Y273232D01*
X293588Y293044D02*
Y335208D01*
Y283392D02*
Y286440D01*
Y261040D02*
Y273232D01*
X293080Y292536D02*
Y335208D01*
Y283392D02*
Y286948D01*
Y261040D02*
Y273232D01*
X292572Y292536D02*
Y335208D01*
Y283900D02*
Y286948D01*
Y261040D02*
Y273740D01*
X292064Y292028D02*
Y335208D01*
Y283900D02*
Y287456D01*
Y261040D02*
Y273740D01*
X291556Y291520D02*
Y334700D01*
Y284408D02*
Y288472D01*
Y261040D02*
Y273740D01*
X291048Y284408D02*
Y334700D01*
Y261040D02*
Y273740D01*
X290540Y284916D02*
Y334700D01*
Y261040D02*
Y273740D01*
X290032Y285424D02*
Y334700D01*
Y261548D02*
Y274248D01*
X289524Y285932D02*
Y334700D01*
Y261548D02*
Y274248D01*
X289016Y286948D02*
Y334700D01*
Y261548D02*
Y274248D01*
X288508Y288472D02*
Y334700D01*
Y261548D02*
Y274756D01*
X288000Y322000D02*
Y334700D01*
Y261548D02*
Y274756D01*
X287492Y322000D02*
Y334700D01*
Y262056D02*
Y274756D01*
X286984Y322000D02*
Y334192D01*
Y262056D02*
Y275264D01*
X286476Y321492D02*
Y334192D01*
Y262056D02*
Y275772D01*
X285968Y321492D02*
Y334192D01*
Y262056D02*
Y275772D01*
X285460Y321492D02*
Y334192D01*
Y262564D02*
Y276280D01*
X284952Y320984D02*
Y334192D01*
Y262564D02*
Y276280D01*
X284444Y320984D02*
Y333684D01*
Y262564D02*
Y276788D01*
X283936Y320984D02*
Y333684D01*
Y263072D02*
Y277296D01*
X283428Y320476D02*
Y333684D01*
Y263072D02*
Y277804D01*
X282920Y320476D02*
Y333684D01*
Y302696D02*
Y305744D01*
Y263580D02*
Y278312D01*
X282412Y320476D02*
Y333176D01*
Y301172D02*
Y306760D01*
Y263580D02*
Y278820D01*
X281904Y319968D02*
Y333176D01*
Y300664D02*
Y307776D01*
Y264088D02*
Y279328D01*
X281396Y319968D02*
Y333176D01*
Y299648D02*
Y308284D01*
Y264088D02*
Y279836D01*
X280888Y319460D02*
Y333176D01*
Y299140D02*
Y308792D01*
Y264596D02*
Y280852D01*
X280380Y319460D02*
Y332668D01*
Y298124D02*
Y309300D01*
Y264596D02*
Y281360D01*
X279872Y318952D02*
Y332668D01*
Y297108D02*
Y309808D01*
Y265104D02*
Y282376D01*
X279364Y318952D02*
Y332668D01*
Y296092D02*
Y309808D01*
Y265104D02*
Y283392D01*
X278856Y318444D02*
Y332160D01*
Y295076D02*
Y309808D01*
Y265612D02*
Y284916D01*
X278348Y318444D02*
Y332160D01*
Y293044D02*
Y310316D01*
Y266120D02*
Y286948D01*
X277840Y317936D02*
Y331652D01*
Y266120D02*
Y310316D01*
X277332Y317936D02*
Y331652D01*
Y266628D02*
Y310316D01*
X276824Y317428D02*
Y331652D01*
Y267136D02*
Y310316D01*
X276316Y316920D02*
Y331144D01*
Y267644D02*
Y310316D01*
X275808Y316920D02*
Y331144D01*
Y267644D02*
Y310316D01*
X275300Y316412D02*
Y330636D01*
Y268152D02*
Y310316D01*
X274792Y315904D02*
Y330636D01*
Y268660D02*
Y309808D01*
X274284Y315396D02*
Y330128D01*
Y269168D02*
Y309808D01*
X273776Y315396D02*
Y330128D01*
Y269676D02*
Y309300D01*
X273268Y314888D02*
Y329620D01*
Y270184D02*
Y309300D01*
X272760Y314380D02*
Y329620D01*
Y270692D02*
Y308792D01*
X272252Y313872D02*
Y329112D01*
Y271708D02*
Y308284D01*
X271744Y313364D02*
Y329112D01*
Y272216D02*
Y307776D01*
X271236Y312856D02*
Y328604D01*
Y272724D02*
Y306760D01*
X270728Y312348D02*
Y328096D01*
Y273232D02*
Y306252D01*
X270220Y311840D02*
Y328096D01*
Y274248D02*
Y305744D01*
Y264088D02*
Y266628D01*
X269712Y311332D02*
Y327588D01*
Y275264D02*
Y304728D01*
Y262564D02*
Y268152D01*
X269204Y310824D02*
Y327080D01*
Y275772D02*
Y303712D01*
Y261548D02*
Y268660D01*
X268696Y309808D02*
Y327080D01*
Y276788D02*
Y302696D01*
Y261040D02*
Y269676D01*
X268188Y309300D02*
Y326572D01*
Y277804D02*
Y301680D01*
Y260532D02*
Y270184D01*
X267680Y308792D02*
Y326064D01*
Y279328D02*
Y300664D01*
Y260024D02*
Y270692D01*
X267172Y307776D02*
Y326064D01*
Y280344D02*
Y299140D01*
Y260024D02*
Y271708D01*
X266664Y307268D02*
Y325556D01*
Y282376D02*
Y297616D01*
Y259516D02*
Y272216D01*
X266156Y306252D02*
Y325048D01*
Y284408D02*
Y295076D01*
Y266628D02*
Y273232D01*
Y259516D02*
Y264088D01*
X265648Y305236D02*
Y324540D01*
Y267136D02*
Y274248D01*
Y259008D02*
Y263580D01*
X265140Y304220D02*
Y324032D01*
Y267644D02*
Y275264D01*
Y259008D02*
Y263072D01*
X264632Y303204D02*
Y323524D01*
Y267644D02*
Y276280D01*
Y259008D02*
Y263072D01*
X264124Y302188D02*
Y323524D01*
Y267644D02*
Y277296D01*
Y259008D02*
Y263072D01*
X263616Y301172D02*
Y323016D01*
Y267644D02*
Y278820D01*
Y259008D02*
Y263072D01*
X263108Y299648D02*
Y322508D01*
Y267136D02*
Y280344D01*
Y259008D02*
Y263072D01*
X262600Y297616D02*
Y322000D01*
Y267136D02*
Y281868D01*
Y259008D02*
Y263580D01*
X262092Y295076D02*
Y321492D01*
Y266120D02*
Y284408D01*
Y259516D02*
Y264088D01*
X261584Y259516D02*
Y320984D01*
X261076Y260024D02*
Y320476D01*
X260568Y260024D02*
Y319968D01*
X260060Y260532D02*
Y318952D01*
X259552Y261040D02*
Y318444D01*
X259044Y261548D02*
Y317936D01*
X258536Y262564D02*
Y317428D01*
X258028Y263072D02*
Y316412D01*
X257520Y263580D02*
Y315904D01*
X257012Y264596D02*
Y315396D01*
X256504Y265104D02*
Y314380D01*
X255996Y266120D02*
Y313364D01*
X255488Y266628D02*
Y312856D01*
X254980Y267644D02*
Y311840D01*
X254472Y268660D02*
Y310824D01*
X253964Y269676D02*
Y309808D01*
X253456Y270692D02*
Y308792D01*
X252948Y271708D02*
Y307776D01*
X252440Y273232D02*
Y306252D01*
X251932Y274248D02*
Y305236D01*
X251424Y275772D02*
Y303712D01*
X250916Y277804D02*
Y302188D01*
X250408Y279836D02*
Y300156D01*
X249900Y282376D02*
Y297108D01*
X249392Y286440D02*
Y293044D01*
M02*
