G04 Layer_Physical_Order=2*
G04 Layer_Color=16711680*
%FSLAX44Y44*%
%MOMM*%
G71*
G01*
G75*
%ADD10P,1.2021X4X90.0*%
G04:AMPARAMS|DCode=11|XSize=1.3mm|YSize=1mm|CornerRadius=0.25mm|HoleSize=0mm|Usage=FLASHONLY|Rotation=225.000|XOffset=0mm|YOffset=0mm|HoleType=Round|Shape=RoundedRectangle|*
%AMROUNDEDRECTD11*
21,1,1.3000,0.5000,0,0,225.0*
21,1,0.8000,1.0000,0,0,225.0*
1,1,0.5000,-0.4596,-0.1061*
1,1,0.5000,0.1061,0.4596*
1,1,0.5000,0.4596,0.1061*
1,1,0.5000,-0.1061,-0.4596*
%
%ADD11ROUNDEDRECTD11*%
%ADD12C,0.4000*%
%ADD13R,0.8500X0.8500*%
G04:AMPARAMS|DCode=14|XSize=1.3mm|YSize=1mm|CornerRadius=0.25mm|HoleSize=0mm|Usage=FLASHONLY|Rotation=270.000|XOffset=0mm|YOffset=0mm|HoleType=Round|Shape=RoundedRectangle|*
%AMROUNDEDRECTD14*
21,1,1.3000,0.5000,0,0,270.0*
21,1,0.8000,1.0000,0,0,270.0*
1,1,0.5000,-0.2500,-0.4000*
1,1,0.5000,-0.2500,0.4000*
1,1,0.5000,0.2500,0.4000*
1,1,0.5000,0.2500,-0.4000*
%
%ADD14ROUNDEDRECTD14*%
%ADD15C,0.5000*%
%ADD22C,0.6000*%
%ADD28C,1.5240*%
%ADD29C,1.8000*%
%ADD30P,1.9483X8X112.5*%
%ADD31C,4.0000*%
%ADD32C,0.2540*%
%ADD33C,6.0000*%
%ADD34P,1.9483X8X22.5*%
%ADD35P,1.9483X8X382.5*%
%ADD36C,5.5000*%
%ADD37C,2.0000*%
%ADD38R,0.5000X0.4000*%
%ADD39C,0.7000*%
%ADD40C,0.3000*%
G36*
X1582186Y1705278D02*
X1584040Y1704040D01*
X1585278Y1702186D01*
X1585680Y1700167D01*
X1585646Y1700000D01*
Y1100000D01*
X1585680Y1099833D01*
X1585278Y1097814D01*
X1584040Y1095960D01*
X1582186Y1094722D01*
X1581209Y1094528D01*
X1580000Y1094354D01*
X1580000Y1094354D01*
X1578757Y1094354D01*
X990000D01*
X989833Y1094320D01*
X987814Y1094722D01*
X985960Y1095960D01*
X984722Y1097814D01*
X984526Y1098801D01*
X984354Y1100000D01*
X984354D01*
Y1700000D01*
X984320Y1700167D01*
X984722Y1702186D01*
X985960Y1704040D01*
X987814Y1705278D01*
X989833Y1705680D01*
X990000Y1705646D01*
X1580000D01*
X1580167Y1705680D01*
X1582186Y1705278D01*
D02*
G37*
G36*
X662353Y1705711D02*
X664359Y1704371D01*
X665699Y1702366D01*
X666136Y1700167D01*
X666103Y1700000D01*
Y1667663D01*
X666103Y1666500D01*
X666105Y1666404D01*
X666148Y1665140D01*
X665724Y1659761D01*
X664380Y1654163D01*
X663379Y1651745D01*
X662885Y1650582D01*
X662885D01*
X662885Y1650582D01*
X658466Y1640612D01*
X649869Y1623533D01*
X640444Y1606896D01*
X630215Y1590742D01*
X619205Y1575109D01*
X607441Y1560035D01*
X594952Y1545557D01*
X581767Y1531709D01*
X567919Y1518524D01*
X553441Y1506035D01*
X538367Y1494272D01*
X522734Y1483262D01*
X506580Y1473032D01*
X489943Y1463607D01*
X472864Y1455011D01*
X455384Y1447262D01*
X449914Y1445152D01*
X449910Y1445154D01*
X449910Y1445154D01*
X447941Y1444339D01*
X441721Y1442845D01*
X435712Y1442372D01*
X435488Y1442417D01*
X402063D01*
X400855Y1442448D01*
X399631Y1442642D01*
X398147Y1443257D01*
X396769Y1444314D01*
X395713Y1445691D01*
X395048Y1447295D01*
X394902Y1448405D01*
X394903Y1449633D01*
X394903Y1449633D01*
X394872Y1450851D01*
X394872Y1451232D01*
Y1566455D01*
X394872Y1567500D01*
X394861Y1567704D01*
X394982Y1568906D01*
X395235Y1570176D01*
X396468Y1572020D01*
X398312Y1573253D01*
X400136Y1573615D01*
X434988D01*
X435000Y1573605D01*
X435000Y1573596D01*
X441173Y1574001D01*
X447394Y1575238D01*
X452061Y1576822D01*
X452200Y1576850D01*
X452200Y1576850D01*
X452302Y1576870D01*
X452525Y1577019D01*
X452682Y1577101D01*
X453278Y1577420D01*
X455974Y1578861D01*
X468853Y1586870D01*
X481181Y1595704D01*
X492905Y1605325D01*
X503975Y1615693D01*
X514342Y1626763D01*
X523964Y1638486D01*
X530648Y1647814D01*
X530622Y1647833D01*
X531077Y1648513D01*
X531104Y1648650D01*
X531524Y1649502D01*
X533392Y1655004D01*
X534525Y1660702D01*
X534905Y1666500D01*
X534848Y1667376D01*
X534872Y1667500D01*
Y1698955D01*
X534872Y1700000D01*
X534861Y1700204D01*
X534982Y1701406D01*
X535235Y1702676D01*
X536468Y1704520D01*
X538312Y1705753D01*
X540136Y1706115D01*
X659988D01*
X660155Y1706149D01*
X662353Y1705711D01*
D02*
G37*
G36*
X952353Y1705711D02*
X954359Y1704371D01*
X955699Y1702366D01*
X956136Y1700167D01*
X956103Y1700000D01*
Y1667663D01*
X956103Y1666500D01*
X956105Y1666404D01*
X956148Y1665140D01*
X955724Y1659761D01*
X954380Y1654163D01*
X953379Y1651745D01*
X952885Y1650582D01*
X952885D01*
X952885Y1650582D01*
X948466Y1640612D01*
X939869Y1623533D01*
X930444Y1606896D01*
X920215Y1590742D01*
X909205Y1575109D01*
X897441Y1560035D01*
X884952Y1545557D01*
X871767Y1531709D01*
X857919Y1518524D01*
X843441Y1506035D01*
X828367Y1494272D01*
X812734Y1483262D01*
X796580Y1473032D01*
X779943Y1463607D01*
X762864Y1455011D01*
X745384Y1447262D01*
X739914Y1445152D01*
X739910Y1445154D01*
X739910Y1445154D01*
X737941Y1444339D01*
X731721Y1442845D01*
X725712Y1442372D01*
X725488Y1442417D01*
X692063D01*
X690855Y1442447D01*
X689631Y1442642D01*
X688147Y1443257D01*
X686769Y1444314D01*
X685713Y1445691D01*
X685048Y1447295D01*
X684902Y1448405D01*
X684903Y1449633D01*
X684903Y1449633D01*
X684872Y1450851D01*
X684872Y1451232D01*
Y1566455D01*
X684872Y1567500D01*
X684861Y1567704D01*
X684982Y1568906D01*
X685235Y1570176D01*
X686468Y1572020D01*
X688312Y1573253D01*
X690136Y1573615D01*
X724988D01*
X725000Y1573605D01*
X725000Y1573596D01*
X731173Y1574001D01*
X737394Y1575238D01*
X742060Y1576822D01*
X742200Y1576850D01*
X742200Y1576850D01*
X742302Y1576870D01*
X742525Y1577019D01*
X742682Y1577101D01*
X743278Y1577419D01*
X745974Y1578861D01*
X758853Y1586870D01*
X771181Y1595704D01*
X782905Y1605325D01*
X793975Y1615693D01*
X804342Y1626763D01*
X813964Y1638486D01*
X820648Y1647814D01*
X820622Y1647833D01*
X821077Y1648513D01*
X821104Y1648650D01*
X821524Y1649502D01*
X823392Y1655004D01*
X824525Y1660702D01*
X824905Y1666500D01*
X824848Y1667376D01*
X824872Y1667500D01*
Y1698955D01*
X824872Y1700000D01*
X824861Y1700204D01*
X824982Y1701406D01*
X825235Y1702676D01*
X826468Y1704520D01*
X828312Y1705753D01*
X830136Y1706115D01*
X949988D01*
X950155Y1706149D01*
X952353Y1705711D01*
D02*
G37*
G36*
X356488Y1585951D02*
X359972Y1584508D01*
X362963Y1582213D01*
X365258Y1579222D01*
X366701Y1575738D01*
X367082Y1572843D01*
X367136Y1571606D01*
X367115Y1571500D01*
X367115Y1571500D01*
X367115Y1570340D01*
Y1470746D01*
X367081Y1469517D01*
X367081Y1469516D01*
X367133Y1468257D01*
X366880Y1465690D01*
X366024Y1462868D01*
X364634Y1460267D01*
X362763Y1457987D01*
X360483Y1456116D01*
X357882Y1454726D01*
X355060Y1453870D01*
X353017Y1453669D01*
X353016Y1453669D01*
Y1453669D01*
X352984Y1453635D01*
X243750D01*
X243561Y1453597D01*
X241750Y1453775D01*
X237112Y1453319D01*
X232652Y1451966D01*
X228541Y1449769D01*
X224938Y1446812D01*
X221981Y1443209D01*
X219784Y1439099D01*
X218431Y1434638D01*
X218227Y1432559D01*
X218115Y1432000D01*
Y1380242D01*
X218115Y1379000D01*
X218120Y1378974D01*
X218024Y1377744D01*
X217847Y1375947D01*
X216993Y1373131D01*
X215606Y1370535D01*
X213739Y1368261D01*
X211465Y1366394D01*
X208869Y1365007D01*
X206053Y1364153D01*
X203277Y1363879D01*
X203250Y1363885D01*
X100750D01*
X100681Y1363871D01*
X97797Y1364155D01*
X94958Y1365016D01*
X92341Y1366415D01*
X90047Y1368297D01*
X88165Y1370591D01*
X86766Y1373208D01*
X85905Y1376047D01*
X85621Y1378928D01*
X85635Y1378995D01*
X85689Y1420996D01*
X86863Y1421481D01*
X103270Y1405073D01*
X102777Y1403883D01*
X102380Y1400870D01*
X102777Y1397858D01*
X103940Y1395050D01*
X105790Y1392640D01*
X108200Y1390790D01*
X111007Y1389627D01*
X114020Y1389230D01*
X117032Y1389627D01*
X119840Y1390790D01*
X122250Y1392640D01*
X124100Y1395050D01*
X125263Y1397858D01*
X125660Y1400870D01*
X125263Y1403883D01*
X124100Y1406690D01*
X122250Y1409100D01*
X119840Y1410950D01*
X117032Y1412113D01*
X114020Y1412510D01*
X111007Y1412113D01*
X109817Y1411620D01*
X93051Y1428386D01*
Y1434782D01*
X94321Y1435034D01*
X96946Y1431835D01*
X100379Y1429018D01*
X104294Y1426925D01*
X108543Y1425636D01*
X112962Y1425201D01*
X117380Y1425636D01*
X121629Y1426925D01*
X125545Y1429018D01*
X128977Y1431835D01*
X131794Y1435267D01*
X133521Y1438498D01*
X134791Y1438180D01*
Y1411443D01*
X133600Y1410950D01*
X131190Y1409100D01*
X129340Y1406690D01*
X128177Y1403883D01*
X127780Y1400870D01*
X128177Y1397858D01*
X129340Y1395050D01*
X131190Y1392640D01*
X133600Y1390790D01*
X136407Y1389627D01*
X139420Y1389230D01*
X142432Y1389627D01*
X145240Y1390790D01*
X147650Y1392640D01*
X149500Y1395050D01*
X150663Y1397858D01*
X151060Y1400870D01*
X150663Y1403883D01*
X149500Y1406690D01*
X147650Y1409100D01*
X145240Y1410950D01*
X144049Y1411443D01*
Y1413435D01*
X145222Y1413921D01*
X154070Y1405073D01*
X153577Y1403883D01*
X153180Y1400870D01*
X153577Y1397858D01*
X154740Y1395050D01*
X156590Y1392640D01*
X159000Y1390790D01*
X161807Y1389627D01*
X164820Y1389230D01*
X167833Y1389627D01*
X170640Y1390790D01*
X173050Y1392640D01*
X174900Y1395050D01*
X176063Y1397858D01*
X176460Y1400870D01*
X176063Y1403883D01*
X174900Y1406690D01*
X173050Y1409100D01*
X170640Y1410950D01*
X167833Y1412113D01*
X164820Y1412510D01*
X161807Y1412113D01*
X160617Y1411620D01*
X151189Y1421047D01*
Y1431626D01*
X151852Y1431984D01*
X152459Y1432085D01*
X179470Y1405073D01*
X178977Y1403883D01*
X178580Y1400870D01*
X178977Y1397858D01*
X180140Y1395050D01*
X181990Y1392640D01*
X184400Y1390790D01*
X187207Y1389627D01*
X190220Y1389230D01*
X193232Y1389627D01*
X196040Y1390790D01*
X198450Y1392640D01*
X200300Y1395050D01*
X201463Y1397858D01*
X201859Y1400870D01*
X201463Y1403883D01*
X200300Y1406690D01*
X198450Y1409100D01*
X196040Y1410950D01*
X193232Y1412113D01*
X190220Y1412510D01*
X187207Y1412113D01*
X186017Y1411620D01*
X160213Y1437424D01*
Y1465728D01*
X161309Y1466672D01*
X162519Y1466431D01*
X164486Y1466822D01*
X166153Y1467936D01*
X171810Y1473593D01*
X172924Y1475260D01*
X173315Y1477227D01*
X172962Y1479002D01*
X176822Y1482862D01*
X187367Y1472317D01*
X187367Y1472317D01*
X188792Y1471364D01*
X188807Y1471239D01*
X188543Y1470064D01*
X184294Y1468775D01*
X180379Y1466682D01*
X176947Y1463865D01*
X174130Y1460433D01*
X172037Y1456517D01*
X170748Y1452269D01*
X170313Y1447850D01*
X170748Y1443431D01*
X172037Y1439183D01*
X174130Y1435267D01*
X176947Y1431835D01*
X180379Y1429018D01*
X184294Y1426925D01*
X188543Y1425636D01*
X192962Y1425201D01*
X197380Y1425636D01*
X201629Y1426925D01*
X205545Y1429018D01*
X208977Y1431835D01*
X211794Y1435267D01*
X213887Y1439183D01*
X215176Y1443431D01*
X215611Y1447850D01*
X215176Y1452269D01*
X213887Y1456517D01*
X211794Y1460433D01*
X208977Y1463865D01*
X205545Y1466682D01*
X201629Y1468775D01*
X198609Y1469691D01*
X198798Y1470961D01*
X219478D01*
X219478Y1470961D01*
X221249Y1471313D01*
X222751Y1472317D01*
X226625Y1476191D01*
X257246D01*
X257417Y1475329D01*
X257979Y1474489D01*
X262479Y1469989D01*
X263319Y1469427D01*
X264310Y1469230D01*
X273310D01*
X274301Y1469427D01*
X275141Y1469989D01*
X279641Y1474489D01*
X280203Y1475329D01*
X280400Y1476320D01*
Y1485320D01*
X280203Y1486311D01*
X279641Y1487151D01*
X275141Y1491651D01*
X274301Y1492213D01*
X273310Y1492410D01*
X264310D01*
X263319Y1492213D01*
X262479Y1491651D01*
X257979Y1487151D01*
X257417Y1486311D01*
X257246Y1485449D01*
X228293D01*
X227808Y1486622D01*
X242776Y1501591D01*
X258237D01*
X258730Y1500400D01*
X260580Y1497990D01*
X262990Y1496140D01*
X265797Y1494977D01*
X268810Y1494581D01*
X271822Y1494977D01*
X274630Y1496140D01*
X277040Y1497990D01*
X278890Y1500400D01*
X280053Y1503208D01*
X280450Y1506220D01*
X280053Y1509233D01*
X278890Y1512040D01*
X277040Y1514450D01*
X274630Y1516300D01*
X271822Y1517463D01*
X268810Y1517860D01*
X265797Y1517463D01*
X262990Y1516300D01*
X260580Y1514450D01*
X258730Y1512040D01*
X258237Y1510849D01*
X244445D01*
X243959Y1512022D01*
X257562Y1525626D01*
X259078Y1525346D01*
X260580Y1523390D01*
X262990Y1521540D01*
X265797Y1520377D01*
X268810Y1519980D01*
X271822Y1520377D01*
X274630Y1521540D01*
X277040Y1523390D01*
X278890Y1525800D01*
X280053Y1528607D01*
X280450Y1531620D01*
X280053Y1534633D01*
X278890Y1537440D01*
X277040Y1539850D01*
X274630Y1541700D01*
X271822Y1542863D01*
X268810Y1543260D01*
X265797Y1542863D01*
X262990Y1541700D01*
X260580Y1539850D01*
X258730Y1537440D01*
X258237Y1536249D01*
X257010D01*
X256225Y1536093D01*
X255600Y1537263D01*
X264607Y1546270D01*
X265797Y1545777D01*
X268810Y1545381D01*
X271822Y1545777D01*
X274630Y1546940D01*
X277040Y1548790D01*
X278890Y1551200D01*
X280053Y1554008D01*
X280450Y1557020D01*
X280053Y1560033D01*
X278890Y1562840D01*
X277040Y1565250D01*
X274630Y1567100D01*
X271822Y1568263D01*
X268810Y1568660D01*
X265797Y1568263D01*
X262990Y1567100D01*
X260580Y1565250D01*
X258730Y1562840D01*
X257567Y1560033D01*
X257170Y1557020D01*
X257567Y1554008D01*
X258060Y1552817D01*
X245783Y1540539D01*
X244030D01*
X243778Y1541809D01*
X246977Y1544435D01*
X249794Y1547867D01*
X251887Y1551783D01*
X253176Y1556031D01*
X253611Y1560450D01*
X253176Y1564869D01*
X251887Y1569117D01*
X249794Y1573033D01*
X246977Y1576465D01*
X243545Y1579282D01*
X239629Y1581375D01*
X235380Y1582664D01*
X230962Y1583099D01*
X226543Y1582664D01*
X222294Y1581375D01*
X218379Y1579282D01*
X214946Y1576465D01*
X212130Y1573033D01*
X210037Y1569117D01*
X208748Y1564869D01*
X208313Y1560450D01*
X208748Y1556031D01*
X209637Y1553101D01*
X208554Y1552297D01*
X207581Y1552947D01*
X205810Y1553299D01*
X205810Y1553299D01*
X204411D01*
X204410Y1553299D01*
X202639Y1552947D01*
X201137Y1551943D01*
X201137Y1551943D01*
X197120Y1547926D01*
X196601Y1548273D01*
X195610Y1548470D01*
X194619Y1548273D01*
X194100Y1547926D01*
X179833Y1562193D01*
X178331Y1563197D01*
X176560Y1563549D01*
X174789Y1563197D01*
X173287Y1562193D01*
X173287Y1562193D01*
X86934Y1475840D01*
X85761Y1476327D01*
X85883Y1570480D01*
X85885Y1571745D01*
Y1571750D01*
X85976Y1572982D01*
X86305Y1575486D01*
X87748Y1578968D01*
X90042Y1581958D01*
X93032Y1584252D01*
X96514Y1585695D01*
X99018Y1586024D01*
X100250Y1586115D01*
X101520Y1586117D01*
X353254Y1586365D01*
X353289Y1586373D01*
X356488Y1585951D01*
D02*
G37*
G36*
X187554Y1541380D02*
X187207Y1540861D01*
X187010Y1539870D01*
X187207Y1538879D01*
X187769Y1538038D01*
X193779Y1532028D01*
X194619Y1531467D01*
X195610Y1531270D01*
X195946Y1531336D01*
X196976Y1530306D01*
X196910Y1529970D01*
X197107Y1528979D01*
X197668Y1528139D01*
X203678Y1522129D01*
X204519Y1521567D01*
X205510Y1521370D01*
X206501Y1521567D01*
X207341Y1522129D01*
X213351Y1528139D01*
X213913Y1528979D01*
X214110Y1529970D01*
X213913Y1530961D01*
X213351Y1531801D01*
X207341Y1537812D01*
X206501Y1538373D01*
X205510Y1538570D01*
X205174Y1538504D01*
X204144Y1539534D01*
X204210Y1539870D01*
X204013Y1540861D01*
X203666Y1541380D01*
X205110Y1542823D01*
X215297Y1532637D01*
X215297Y1532637D01*
X216799Y1531633D01*
X218570Y1531281D01*
X218570Y1531281D01*
X247700D01*
X247700Y1531281D01*
X248485Y1531437D01*
X249110Y1530267D01*
X212143Y1493299D01*
X200727D01*
X195509Y1498517D01*
X196090Y1499732D01*
X197720Y1500056D01*
X199387Y1501170D01*
X205044Y1506827D01*
X206158Y1508494D01*
X206549Y1510461D01*
X206158Y1512427D01*
X205044Y1514094D01*
X201508Y1517630D01*
X199841Y1518744D01*
X197875Y1519135D01*
X195963Y1518755D01*
X195718Y1518934D01*
X195211Y1519441D01*
X195032Y1519686D01*
X195412Y1521598D01*
X195021Y1523564D01*
X193907Y1525231D01*
X190371Y1528767D01*
X188704Y1529881D01*
X186738Y1530272D01*
X184826Y1529892D01*
X184581Y1530071D01*
X184074Y1530578D01*
X183895Y1530823D01*
X184275Y1532735D01*
X183884Y1534701D01*
X182770Y1536368D01*
X179234Y1539904D01*
X177567Y1541018D01*
X175601Y1541409D01*
X173634Y1541018D01*
X171967Y1539904D01*
X166310Y1534247D01*
X165196Y1532580D01*
X164805Y1530613D01*
X165196Y1528647D01*
X165372Y1528383D01*
X164598Y1527257D01*
X163039Y1526947D01*
X161537Y1525943D01*
X161537Y1525943D01*
X143536Y1507942D01*
X142367Y1508175D01*
X140400Y1507784D01*
X138733Y1506670D01*
X133076Y1501013D01*
X131962Y1499346D01*
X131571Y1497379D01*
X131804Y1496210D01*
X126537Y1490943D01*
X125533Y1489441D01*
X125181Y1487670D01*
X125533Y1485899D01*
X126537Y1484397D01*
X134791Y1476143D01*
Y1457520D01*
X133521Y1457202D01*
X131794Y1460433D01*
X128977Y1463865D01*
X125545Y1466682D01*
X121629Y1468775D01*
X117380Y1470064D01*
X112962Y1470499D01*
X108543Y1470064D01*
X104294Y1468775D01*
X100379Y1466682D01*
X96946Y1463865D01*
X94321Y1460666D01*
X93051Y1460918D01*
Y1468864D01*
X176560Y1552374D01*
X187554Y1541380D01*
D02*
G37*
G36*
X623149Y1385831D02*
X626177Y1384912D01*
X628967Y1383421D01*
X631413Y1381413D01*
X633420Y1378967D01*
X634912Y1376177D01*
X635831Y1373149D01*
X636132Y1370085D01*
X636115Y1370000D01*
Y1270000D01*
X636132Y1269915D01*
X635831Y1266851D01*
X634912Y1263823D01*
X633420Y1261033D01*
X631413Y1258587D01*
X628967Y1256580D01*
X626177Y1255088D01*
X623149Y1254169D01*
X620085Y1253868D01*
X620000Y1253885D01*
X280000D01*
X279915Y1253868D01*
X276851Y1254169D01*
X273823Y1255088D01*
X271033Y1256580D01*
X268587Y1258587D01*
X266579Y1261033D01*
X265088Y1263823D01*
X264169Y1266851D01*
X263868Y1269915D01*
X263885Y1270000D01*
Y1370000D01*
X263868Y1370085D01*
X264169Y1373149D01*
X265088Y1376177D01*
X266579Y1378967D01*
X268587Y1381413D01*
X271033Y1383421D01*
X273823Y1384912D01*
X276851Y1385831D01*
X279915Y1386132D01*
X280000Y1386115D01*
X620000D01*
X620085Y1386132D01*
X623149Y1385831D01*
D02*
G37*
G36*
X943149Y1345831D02*
X946177Y1344912D01*
X948967Y1343421D01*
X951413Y1341413D01*
X953420Y1338967D01*
X954912Y1336177D01*
X955831Y1333149D01*
X956132Y1330085D01*
X956115Y1330000D01*
Y1110000D01*
X956132Y1109915D01*
X955831Y1106851D01*
X954912Y1103823D01*
X953420Y1101033D01*
X951413Y1098587D01*
X948967Y1096580D01*
X946177Y1095088D01*
X943149Y1094169D01*
X940085Y1093868D01*
X940000Y1093885D01*
X840000D01*
X839915Y1093868D01*
X836851Y1094169D01*
X833823Y1095088D01*
X831033Y1096580D01*
X828587Y1098587D01*
X826580Y1101033D01*
X825088Y1103823D01*
X824169Y1106851D01*
X823868Y1109915D01*
X823885Y1110000D01*
Y1330000D01*
X823868Y1330085D01*
X824169Y1333149D01*
X825088Y1336177D01*
X826580Y1338967D01*
X828587Y1341413D01*
X831033Y1343421D01*
X833823Y1344912D01*
X836851Y1345831D01*
X839915Y1346132D01*
X840000Y1346115D01*
X940000D01*
X940085Y1346132D01*
X943149Y1345831D01*
D02*
G37*
G36*
X783149D02*
X786177Y1344912D01*
X788967Y1343421D01*
X791413Y1341413D01*
X793420Y1338967D01*
X794912Y1336177D01*
X795831Y1333149D01*
X796132Y1330085D01*
X796115Y1330000D01*
Y1110000D01*
X796132Y1109915D01*
X795831Y1106851D01*
X794912Y1103823D01*
X793420Y1101033D01*
X791413Y1098587D01*
X788967Y1096580D01*
X786177Y1095088D01*
X783149Y1094169D01*
X780085Y1093868D01*
X780000Y1093885D01*
X680000D01*
X679915Y1093868D01*
X676851Y1094169D01*
X673823Y1095088D01*
X671033Y1096580D01*
X668587Y1098587D01*
X666580Y1101033D01*
X665088Y1103823D01*
X664169Y1106851D01*
X663868Y1109915D01*
X663885Y1110000D01*
Y1330000D01*
X663868Y1330085D01*
X664169Y1333149D01*
X665088Y1336177D01*
X666580Y1338967D01*
X668587Y1341413D01*
X671033Y1343421D01*
X673823Y1344912D01*
X676851Y1345831D01*
X679915Y1346132D01*
X680000Y1346115D01*
X780000D01*
X780085Y1346132D01*
X783149Y1345831D01*
D02*
G37*
G36*
X623149Y1225831D02*
X626177Y1224912D01*
X628967Y1223420D01*
X631413Y1221413D01*
X633420Y1218967D01*
X634912Y1216177D01*
X635831Y1213149D01*
X636132Y1210085D01*
X636115Y1210000D01*
Y1110000D01*
X636132Y1109915D01*
X635831Y1106851D01*
X634912Y1103823D01*
X633420Y1101033D01*
X631413Y1098587D01*
X628967Y1096580D01*
X626177Y1095088D01*
X623149Y1094169D01*
X620085Y1093868D01*
X620000Y1093885D01*
X400000D01*
X399915Y1093868D01*
X396851Y1094169D01*
X393823Y1095088D01*
X391033Y1096580D01*
X388587Y1098587D01*
X386580Y1101033D01*
X385088Y1103823D01*
X384169Y1106851D01*
X383868Y1109915D01*
X383885Y1110000D01*
Y1210000D01*
X383868Y1210085D01*
X384169Y1213149D01*
X385088Y1216177D01*
X386580Y1218967D01*
X388587Y1221413D01*
X391033Y1223420D01*
X393823Y1224912D01*
X396851Y1225831D01*
X399915Y1226132D01*
X400000Y1226115D01*
X620000D01*
X620085Y1226132D01*
X623149Y1225831D01*
D02*
G37*
G36*
X343149D02*
X346177Y1224912D01*
X348967Y1223420D01*
X351413Y1221413D01*
X353420Y1218967D01*
X354912Y1216177D01*
X355831Y1213149D01*
X356132Y1210085D01*
X356115Y1210000D01*
Y1110000D01*
X356132Y1109915D01*
X355831Y1106851D01*
X354912Y1103823D01*
X353420Y1101033D01*
X351413Y1098587D01*
X348967Y1096580D01*
X346177Y1095088D01*
X343149Y1094169D01*
X340085Y1093868D01*
X340000Y1093885D01*
X120000D01*
X119915Y1093868D01*
X116851Y1094169D01*
X113823Y1095088D01*
X111033Y1096580D01*
X108587Y1098587D01*
X106580Y1101033D01*
X105088Y1103823D01*
X104169Y1106851D01*
X103868Y1109915D01*
X103885Y1110000D01*
Y1210000D01*
X103868Y1210085D01*
X104169Y1213149D01*
X105088Y1216177D01*
X106580Y1218967D01*
X108587Y1221413D01*
X111033Y1223420D01*
X113823Y1224912D01*
X116851Y1225831D01*
X119915Y1226132D01*
X120000Y1226115D01*
X340000D01*
X340085Y1226132D01*
X343149Y1225831D01*
D02*
G37*
G36*
X1565109Y1065686D02*
X1570022Y1064196D01*
X1574550Y1061776D01*
X1578519Y1058519D01*
X1581776Y1054550D01*
X1584196Y1050022D01*
X1585686Y1045109D01*
X1586165Y1040248D01*
X1586115Y1040000D01*
X1586115Y600000D01*
X1586165Y599752D01*
X1585686Y594891D01*
X1584196Y589978D01*
X1581776Y585450D01*
X1578519Y581482D01*
X1574550Y578225D01*
X1570022Y575804D01*
X1565109Y574314D01*
X1561250Y573934D01*
X1560000Y573885D01*
X1560000Y573885D01*
X1558730Y573885D01*
X1121269Y573885D01*
X1120000Y573885D01*
X1118750Y573934D01*
X1114891Y574314D01*
X1109978Y575804D01*
X1105450Y578225D01*
X1101481Y581482D01*
X1098225Y585450D01*
X1095804Y589978D01*
X1094314Y594891D01*
X1093934Y598750D01*
X1093885Y600000D01*
X1093885Y600000D01*
X1093885Y601252D01*
X1093885Y1040000D01*
X1093835Y1040248D01*
X1094314Y1045109D01*
X1095804Y1050022D01*
X1098225Y1054550D01*
X1101481Y1058519D01*
X1105450Y1061776D01*
X1109978Y1064196D01*
X1114891Y1065686D01*
X1119752Y1066165D01*
X1120000Y1066115D01*
X1560000Y1066115D01*
X1560248Y1066165D01*
X1565109Y1065686D01*
D02*
G37*
G36*
X525109Y1065686D02*
X530022Y1064196D01*
X534550Y1061776D01*
X538518Y1058519D01*
X541775Y1054550D01*
X544196Y1050022D01*
X545686Y1045109D01*
X546066Y1041250D01*
X546115Y1040000D01*
X546115Y1040000D01*
X546115Y1038730D01*
X546115Y601269D01*
X546115Y600000D01*
X546066Y598750D01*
X545686Y594891D01*
X544196Y589978D01*
X541775Y585450D01*
X538518Y581482D01*
X534550Y578225D01*
X530022Y575804D01*
X525109Y574314D01*
X521250Y573934D01*
X520000Y573885D01*
X520000Y573885D01*
X518748Y573885D01*
X80000Y573885D01*
X79752Y573835D01*
X74891Y574314D01*
X69978Y575804D01*
X65450Y578225D01*
X61481Y581482D01*
X58225Y585450D01*
X55804Y589978D01*
X54314Y594891D01*
X53835Y599752D01*
X53885Y600000D01*
X53885Y1040000D01*
X53835Y1040248D01*
X54314Y1045109D01*
X55804Y1050022D01*
X58225Y1054550D01*
X61481Y1058519D01*
X65450Y1061776D01*
X69978Y1064196D01*
X74891Y1065686D01*
X79752Y1066165D01*
X80000Y1066115D01*
X520000Y1066115D01*
X520248Y1066165D01*
X525109Y1065686D01*
D02*
G37*
G36*
X1045109Y1065686D02*
X1050022Y1064196D01*
X1054550Y1061775D01*
X1058518Y1058519D01*
X1061775Y1054550D01*
X1064195Y1050022D01*
X1065686Y1045109D01*
X1066066Y1041250D01*
X1066115Y1040000D01*
X1066115Y1040000D01*
X1066115Y1038730D01*
X1066115Y601269D01*
X1066115Y600000D01*
X1066066Y598750D01*
X1065686Y594891D01*
X1064195Y589978D01*
X1061775Y585450D01*
X1058518Y581482D01*
X1054550Y578224D01*
X1050022Y575804D01*
X1045109Y574314D01*
X1041249Y573934D01*
X1040000Y573885D01*
X1040000Y573885D01*
X1038748Y573885D01*
X600000Y573885D01*
X599752Y573835D01*
X594891Y574314D01*
X589978Y575804D01*
X585450Y578224D01*
X581482Y581482D01*
X578224Y585450D01*
X575804Y589978D01*
X574314Y594891D01*
X573835Y599752D01*
X573885Y600000D01*
X573885Y1040000D01*
X573835Y1040248D01*
X574314Y1045109D01*
X575804Y1050022D01*
X578224Y1054550D01*
X581482Y1058519D01*
X585450Y1061775D01*
X589978Y1064196D01*
X594891Y1065686D01*
X599752Y1066165D01*
X600000Y1066115D01*
X1040000Y1066115D01*
X1040248Y1066165D01*
X1045109Y1065686D01*
D02*
G37*
G36*
X1565109Y545686D02*
X1570022Y544196D01*
X1574550Y541776D01*
X1578519Y538519D01*
X1581776Y534550D01*
X1584196Y530022D01*
X1585686Y525109D01*
X1586165Y520248D01*
X1586115Y520000D01*
X1586115Y80000D01*
X1586165Y79752D01*
X1585686Y74891D01*
X1584196Y69978D01*
X1581776Y65450D01*
X1578519Y61482D01*
X1574550Y58225D01*
X1570022Y55805D01*
X1565109Y54314D01*
X1561250Y53934D01*
X1560000Y53885D01*
X1560000Y53885D01*
X1558730Y53885D01*
X1121269Y53885D01*
X1120000Y53885D01*
X1118751Y53934D01*
X1114891Y54314D01*
X1109978Y55805D01*
X1105450Y58225D01*
X1101482Y61482D01*
X1098225Y65450D01*
X1095805Y69978D01*
X1094314Y74891D01*
X1093934Y78751D01*
X1093885Y80000D01*
X1093885Y80000D01*
X1093885Y81252D01*
X1093885Y520000D01*
X1093835Y520248D01*
X1094314Y525109D01*
X1095805Y530022D01*
X1098225Y534550D01*
X1101482Y538519D01*
X1105450Y541776D01*
X1109978Y544196D01*
X1114891Y545686D01*
X1119752Y546165D01*
X1120000Y546115D01*
X1560000Y546115D01*
X1560248Y546165D01*
X1565109Y545686D01*
D02*
G37*
G36*
X1045109D02*
X1050022Y544196D01*
X1054550Y541776D01*
X1058519Y538519D01*
X1061776Y534550D01*
X1064196Y530022D01*
X1065686Y525109D01*
X1066165Y520248D01*
X1066115Y520000D01*
X1066115Y80000D01*
X1066165Y79752D01*
X1065686Y74891D01*
X1064196Y69978D01*
X1061776Y65450D01*
X1058519Y61482D01*
X1054550Y58225D01*
X1050022Y55805D01*
X1045109Y54314D01*
X1041250Y53934D01*
X1040000Y53885D01*
X1040000Y53885D01*
X1038730Y53885D01*
X601269Y53885D01*
X600000Y53885D01*
X598750Y53934D01*
X594891Y54314D01*
X589978Y55805D01*
X585450Y58225D01*
X581482Y61482D01*
X578225Y65450D01*
X575804Y69978D01*
X574314Y74891D01*
X573934Y78751D01*
X573885Y80000D01*
X573885Y80000D01*
X573885Y81252D01*
X573885Y520000D01*
X573835Y520248D01*
X574314Y525109D01*
X575804Y530022D01*
X578225Y534550D01*
X581482Y538519D01*
X585450Y541776D01*
X589978Y544196D01*
X594891Y545686D01*
X599752Y546165D01*
X600000Y546115D01*
X1040000Y546115D01*
X1040248Y546165D01*
X1045109Y545686D01*
D02*
G37*
G36*
X525019Y545233D02*
X529845Y543769D01*
X534293Y541391D01*
X538192Y538192D01*
X541391Y534293D01*
X543769Y529845D01*
X545233Y525019D01*
X545700Y520271D01*
X545646Y520000D01*
X545646Y80000D01*
X545700Y79729D01*
X545233Y74981D01*
X543769Y70155D01*
X541391Y65707D01*
X538192Y61808D01*
X534293Y58609D01*
X529845Y56231D01*
X525019Y54767D01*
X521252Y54397D01*
X520000Y54354D01*
X520000Y54354D01*
X518730Y54354D01*
X81269Y54354D01*
X80000Y54354D01*
X78748Y54397D01*
X74981Y54767D01*
X70155Y56231D01*
X65707Y58609D01*
X61808Y61808D01*
X58609Y65707D01*
X56231Y70155D01*
X54767Y74981D01*
X54397Y78748D01*
X54354Y80000D01*
X54354Y80000D01*
X54354Y81252D01*
X54354Y520000D01*
X54300Y520271D01*
X54767Y525019D01*
X56231Y529845D01*
X58609Y534293D01*
X61808Y538192D01*
X65707Y541391D01*
X70155Y543769D01*
X74981Y545233D01*
X79729Y545700D01*
X80000Y545646D01*
X520000Y545646D01*
X520271Y545700D01*
X525019Y545233D01*
D02*
G37*
%LPC*%
G36*
X1364010Y1670147D02*
X1363714Y1670088D01*
X1363413D01*
X1361658Y1669739D01*
X1360555Y1669282D01*
X1359066Y1668288D01*
X1358222Y1667444D01*
X1357228Y1665955D01*
X1356771Y1664853D01*
X1356422Y1663097D01*
Y1661903D01*
X1356771Y1660148D01*
X1357228Y1659045D01*
X1358222Y1657556D01*
X1359066Y1656712D01*
X1360555Y1655718D01*
X1361658Y1655261D01*
X1363413Y1654912D01*
X1363714D01*
X1364010Y1654853D01*
X1364306Y1654912D01*
X1364607D01*
X1366362Y1655261D01*
X1367465Y1655718D01*
X1368954Y1656712D01*
X1369798Y1657556D01*
X1370792Y1659045D01*
X1371249Y1660148D01*
X1371598Y1661903D01*
Y1663097D01*
X1371249Y1664852D01*
X1370792Y1665955D01*
X1369798Y1667444D01*
X1368954Y1668288D01*
X1367465Y1669282D01*
X1366363Y1669739D01*
X1364607Y1670088D01*
X1364306D01*
X1364010Y1670147D01*
D02*
G37*
G36*
X1334010D02*
X1333715Y1670088D01*
X1333413D01*
X1331658Y1669739D01*
X1330555Y1669282D01*
X1329066Y1668288D01*
X1328222Y1667444D01*
X1327228Y1665955D01*
X1326771Y1664853D01*
X1326422Y1663097D01*
Y1661903D01*
X1326771Y1660148D01*
X1327228Y1659045D01*
X1328222Y1657556D01*
X1329066Y1656712D01*
X1330555Y1655718D01*
X1331658Y1655261D01*
X1333413Y1654912D01*
X1333715D01*
X1334010Y1654853D01*
X1334306Y1654912D01*
X1334607D01*
X1336363Y1655261D01*
X1337465Y1655718D01*
X1338954Y1656712D01*
X1339798Y1657556D01*
X1340792Y1659045D01*
X1341249Y1660148D01*
X1341598Y1661903D01*
Y1663097D01*
X1341249Y1664852D01*
X1340792Y1665955D01*
X1339798Y1667444D01*
X1338954Y1668288D01*
X1337465Y1669282D01*
X1336363Y1669739D01*
X1334607Y1670088D01*
X1334306D01*
X1334010Y1670147D01*
D02*
G37*
G36*
X1545000Y1703102D02*
X1539822Y1702695D01*
X1534771Y1701482D01*
X1529972Y1699494D01*
X1525543Y1696780D01*
X1521593Y1693407D01*
X1518220Y1689457D01*
X1515506Y1685028D01*
X1513518Y1680229D01*
X1512305Y1675178D01*
X1511898Y1670000D01*
X1512305Y1664822D01*
X1513518Y1659771D01*
X1515506Y1654972D01*
X1518220Y1650543D01*
X1521593Y1646593D01*
X1525543Y1643220D01*
X1529972Y1640506D01*
X1534771Y1638518D01*
X1539822Y1637305D01*
X1545000Y1636898D01*
X1550178Y1637305D01*
X1555229Y1638518D01*
X1560028Y1640506D01*
X1564457Y1643220D01*
X1568407Y1646593D01*
X1571780Y1650543D01*
X1574494Y1654972D01*
X1576482Y1659771D01*
X1577695Y1664822D01*
X1578102Y1670000D01*
X1577695Y1675178D01*
X1576482Y1680229D01*
X1574494Y1685028D01*
X1571780Y1689457D01*
X1568407Y1693407D01*
X1564457Y1696780D01*
X1560028Y1699494D01*
X1555229Y1701482D01*
X1550178Y1702695D01*
X1545000Y1703102D01*
D02*
G37*
G36*
X1020000D02*
X1014822Y1702695D01*
X1009771Y1701482D01*
X1004972Y1699494D01*
X1000543Y1696780D01*
X996593Y1693407D01*
X993220Y1689457D01*
X990506Y1685028D01*
X988518Y1680229D01*
X987306Y1675178D01*
X986898Y1670000D01*
X987306Y1664822D01*
X988518Y1659771D01*
X990506Y1654972D01*
X993220Y1650543D01*
X996593Y1646593D01*
X1000543Y1643220D01*
X1004972Y1640506D01*
X1009771Y1638518D01*
X1014822Y1637305D01*
X1020000Y1636898D01*
X1025178Y1637305D01*
X1030229Y1638518D01*
X1035028Y1640506D01*
X1039457Y1643220D01*
X1043407Y1646593D01*
X1046780Y1650543D01*
X1049494Y1654972D01*
X1051482Y1659771D01*
X1052694Y1664822D01*
X1053102Y1670000D01*
X1052694Y1675178D01*
X1051482Y1680229D01*
X1049494Y1685028D01*
X1046780Y1689457D01*
X1043407Y1693407D01*
X1039457Y1696780D01*
X1035028Y1699494D01*
X1030229Y1701482D01*
X1025178Y1702695D01*
X1020000Y1703102D01*
D02*
G37*
G36*
X1077500Y1624659D02*
X1076329Y1624426D01*
X1075337Y1623763D01*
X1070837Y1619263D01*
X1070473Y1618717D01*
X1049350D01*
X1047009Y1618252D01*
X1045024Y1616926D01*
X1038924Y1610826D01*
X1037598Y1608841D01*
X1037132Y1606500D01*
Y1451750D01*
Y1316000D01*
Y1199500D01*
X1037598Y1197159D01*
X1038924Y1195174D01*
X1062174Y1171924D01*
X1064159Y1170598D01*
X1066500Y1170133D01*
X1188150D01*
X1190491Y1170598D01*
X1192476Y1171924D01*
X1214434Y1193883D01*
X1265373D01*
X1265737Y1193337D01*
X1270237Y1188837D01*
X1271229Y1188174D01*
X1272400Y1187941D01*
X1278833D01*
X1279441Y1187200D01*
Y1167200D01*
X1279674Y1166030D01*
X1280337Y1165037D01*
X1281329Y1164374D01*
X1282500Y1164141D01*
X1347500D01*
X1348671Y1164374D01*
X1349663Y1165037D01*
X1350326Y1166030D01*
X1350559Y1167200D01*
Y1186950D01*
X1351351Y1188046D01*
X1351418Y1188118D01*
X1353100Y1187896D01*
X1356233Y1188309D01*
X1359152Y1189518D01*
X1361658Y1191441D01*
X1363582Y1193948D01*
X1364791Y1196867D01*
X1365204Y1200000D01*
X1364791Y1203133D01*
X1363582Y1206052D01*
X1361658Y1208559D01*
X1359152Y1210482D01*
X1356233Y1211691D01*
X1353100Y1212104D01*
X1349967Y1211691D01*
X1347048Y1210482D01*
X1344541Y1208559D01*
X1342618Y1206052D01*
X1341409Y1203133D01*
X1341116Y1200905D01*
X1341040Y1200334D01*
X1339760D01*
X1339684Y1200905D01*
X1339391Y1203133D01*
X1338182Y1206052D01*
X1336259Y1208559D01*
X1333752Y1210482D01*
X1330833Y1211691D01*
X1327700Y1212104D01*
X1324567Y1211691D01*
X1321648Y1210482D01*
X1319142Y1208559D01*
X1317218Y1206052D01*
X1316009Y1203133D01*
X1315716Y1200905D01*
X1315640Y1200334D01*
X1314360D01*
X1314284Y1200905D01*
X1313991Y1203133D01*
X1312782Y1206052D01*
X1310858Y1208559D01*
X1308352Y1210482D01*
X1305433Y1211691D01*
X1302300Y1212104D01*
X1299167Y1211691D01*
X1296248Y1210482D01*
X1293741Y1208559D01*
X1291818Y1206052D01*
X1290609Y1203133D01*
X1290362Y1201255D01*
X1289656Y1200910D01*
X1289029Y1200862D01*
X1288959Y1200944D01*
Y1204500D01*
X1288959Y1204500D01*
X1288726Y1205670D01*
X1288063Y1206663D01*
X1283563Y1211163D01*
X1282570Y1211826D01*
X1281400Y1212059D01*
X1272400D01*
X1272400Y1212059D01*
X1271229Y1211826D01*
X1270237Y1211163D01*
X1265737Y1206663D01*
X1265373Y1206118D01*
X1211900D01*
X1209559Y1205652D01*
X1207574Y1204326D01*
X1185616Y1182367D01*
X1069034D01*
X1049368Y1202034D01*
Y1299572D01*
X1050541Y1300058D01*
X1063274Y1287324D01*
X1065259Y1285998D01*
X1067600Y1285533D01*
X1070473D01*
X1070837Y1284987D01*
X1075337Y1280487D01*
X1076329Y1279824D01*
X1077500Y1279591D01*
X1081056D01*
X1081138Y1279521D01*
X1081090Y1278894D01*
X1080745Y1278188D01*
X1078867Y1277941D01*
X1075948Y1276732D01*
X1073441Y1274809D01*
X1071518Y1272302D01*
X1070309Y1269383D01*
X1069896Y1266250D01*
X1070309Y1263117D01*
X1071518Y1260198D01*
X1073441Y1257691D01*
X1075948Y1255768D01*
X1078867Y1254559D01*
X1081095Y1254266D01*
X1081666Y1254190D01*
Y1252910D01*
X1081096Y1252834D01*
X1078867Y1252541D01*
X1075948Y1251332D01*
X1073441Y1249408D01*
X1071518Y1246902D01*
X1070309Y1243983D01*
X1069896Y1240850D01*
X1070309Y1237717D01*
X1071518Y1234798D01*
X1073441Y1232291D01*
X1075948Y1230368D01*
X1078867Y1229159D01*
X1081095Y1228866D01*
X1081666Y1228790D01*
Y1227510D01*
X1081096Y1227434D01*
X1078867Y1227141D01*
X1075948Y1225932D01*
X1073441Y1224008D01*
X1071518Y1221502D01*
X1070309Y1218583D01*
X1069896Y1215450D01*
X1070309Y1212317D01*
X1071518Y1209398D01*
X1073441Y1206891D01*
X1075948Y1204968D01*
X1078867Y1203759D01*
X1082000Y1203346D01*
X1085133Y1203759D01*
X1088052Y1204968D01*
X1090558Y1206891D01*
X1092482Y1209398D01*
X1093691Y1212317D01*
X1094104Y1215450D01*
X1093691Y1218583D01*
X1092482Y1221502D01*
X1090558Y1224008D01*
X1088052Y1225932D01*
X1085133Y1227141D01*
X1082905Y1227434D01*
X1082334Y1227510D01*
Y1228790D01*
X1082905Y1228866D01*
X1085133Y1229159D01*
X1088052Y1230368D01*
X1090558Y1232291D01*
X1092482Y1234798D01*
X1093691Y1237717D01*
X1094104Y1240850D01*
X1093691Y1243983D01*
X1092482Y1246902D01*
X1090558Y1249408D01*
X1088052Y1251332D01*
X1085133Y1252541D01*
X1082905Y1252834D01*
X1082334Y1252910D01*
Y1254190D01*
X1082905Y1254266D01*
X1085133Y1254559D01*
X1088052Y1255768D01*
X1090558Y1257691D01*
X1092431Y1260133D01*
X1539760D01*
X1541441Y1257942D01*
X1543948Y1256018D01*
X1546867Y1254809D01*
X1549095Y1254516D01*
X1549666Y1254440D01*
Y1253160D01*
X1549095Y1253084D01*
X1546867Y1252791D01*
X1543948Y1251582D01*
X1541441Y1249659D01*
X1539518Y1247152D01*
X1538309Y1244233D01*
X1537897Y1241100D01*
X1538309Y1237967D01*
X1539518Y1235048D01*
X1541441Y1232542D01*
X1543948Y1230618D01*
X1546867Y1229409D01*
X1549095Y1229116D01*
X1549666Y1229040D01*
Y1227760D01*
X1549095Y1227684D01*
X1546867Y1227391D01*
X1543948Y1226182D01*
X1541441Y1224258D01*
X1539518Y1221752D01*
X1538309Y1218833D01*
X1537897Y1215700D01*
X1538309Y1212567D01*
X1539518Y1209648D01*
X1541441Y1207141D01*
X1543948Y1205218D01*
X1546867Y1204009D01*
X1550000Y1203596D01*
X1553133Y1204009D01*
X1556052Y1205218D01*
X1558559Y1207141D01*
X1560482Y1209648D01*
X1561691Y1212567D01*
X1562104Y1215700D01*
X1561691Y1218833D01*
X1560482Y1221752D01*
X1558559Y1224258D01*
X1556052Y1226182D01*
X1553133Y1227391D01*
X1550905Y1227684D01*
X1550334Y1227760D01*
Y1229040D01*
X1550905Y1229116D01*
X1553133Y1229409D01*
X1556052Y1230618D01*
X1558559Y1232542D01*
X1560482Y1235048D01*
X1561691Y1237967D01*
X1562104Y1241100D01*
X1561691Y1244233D01*
X1560482Y1247152D01*
X1558559Y1249659D01*
X1556052Y1251582D01*
X1553133Y1252791D01*
X1550905Y1253084D01*
X1550334Y1253160D01*
Y1254440D01*
X1550905Y1254516D01*
X1553133Y1254809D01*
X1556052Y1256018D01*
X1558559Y1257942D01*
X1560482Y1260448D01*
X1561691Y1263367D01*
X1562104Y1266500D01*
X1561691Y1269633D01*
X1560482Y1272552D01*
X1558559Y1275059D01*
X1556052Y1276982D01*
X1553133Y1278191D01*
X1550905Y1278484D01*
X1550334Y1278560D01*
Y1279840D01*
X1550905Y1279916D01*
X1553133Y1280209D01*
X1556052Y1281418D01*
X1558559Y1283342D01*
X1560482Y1285848D01*
X1561691Y1288767D01*
X1562104Y1291900D01*
X1561702Y1294950D01*
X1577326Y1310574D01*
X1578652Y1312559D01*
X1579118Y1314900D01*
Y1442750D01*
Y1611250D01*
X1578652Y1613591D01*
X1577326Y1615576D01*
X1576126Y1616776D01*
X1574141Y1618102D01*
X1571800Y1618568D01*
X1560432D01*
X1558559Y1621008D01*
X1556052Y1622932D01*
X1553133Y1624141D01*
X1550000Y1624554D01*
X1546867Y1624141D01*
X1543948Y1622932D01*
X1541441Y1621008D01*
X1539518Y1618502D01*
X1538309Y1615583D01*
X1537897Y1612450D01*
X1538309Y1609317D01*
X1539518Y1606398D01*
X1541441Y1603891D01*
X1543948Y1601968D01*
X1546867Y1600759D01*
X1549095Y1600466D01*
X1549666Y1600390D01*
Y1599110D01*
X1549095Y1599034D01*
X1546867Y1598741D01*
X1543948Y1597532D01*
X1541441Y1595609D01*
X1539905Y1593606D01*
X1092210D01*
X1090558Y1595759D01*
X1088052Y1597682D01*
X1085133Y1598891D01*
X1083255Y1599138D01*
X1082910Y1599844D01*
X1082862Y1600471D01*
X1082944Y1600541D01*
X1086500D01*
X1086500Y1600541D01*
X1087671Y1600774D01*
X1088663Y1601437D01*
X1093163Y1605937D01*
X1093826Y1606929D01*
X1094059Y1608100D01*
Y1617100D01*
X1094059Y1617100D01*
X1093826Y1618271D01*
X1093163Y1619263D01*
X1088663Y1623763D01*
X1087671Y1624426D01*
X1086500Y1624659D01*
X1077500D01*
X1077500Y1624659D01*
D02*
G37*
G36*
X1550000Y1163102D02*
X1544822Y1162694D01*
X1539771Y1161482D01*
X1534972Y1159494D01*
X1530543Y1156780D01*
X1526593Y1153407D01*
X1523220Y1149457D01*
X1520506Y1145028D01*
X1518518Y1140229D01*
X1517306Y1135178D01*
X1516898Y1130000D01*
X1517306Y1124822D01*
X1518518Y1119771D01*
X1520506Y1114972D01*
X1523220Y1110543D01*
X1526593Y1106593D01*
X1530543Y1103220D01*
X1534972Y1100506D01*
X1539771Y1098518D01*
X1544822Y1097306D01*
X1550000Y1096898D01*
X1555178Y1097306D01*
X1560229Y1098518D01*
X1565028Y1100506D01*
X1569457Y1103220D01*
X1573407Y1106593D01*
X1576780Y1110543D01*
X1579494Y1114972D01*
X1581482Y1119771D01*
X1582695Y1124822D01*
X1583102Y1130000D01*
X1582695Y1135178D01*
X1581482Y1140229D01*
X1579494Y1145028D01*
X1576780Y1149457D01*
X1573407Y1153407D01*
X1569457Y1156780D01*
X1565028Y1159494D01*
X1560229Y1161482D01*
X1555178Y1162694D01*
X1550000Y1163102D01*
D02*
G37*
G36*
X1020000D02*
X1014822Y1162694D01*
X1009771Y1161482D01*
X1004972Y1159494D01*
X1000543Y1156780D01*
X996593Y1153407D01*
X993220Y1149457D01*
X990506Y1145028D01*
X988518Y1140229D01*
X987306Y1135178D01*
X986898Y1130000D01*
X987306Y1124822D01*
X988518Y1119771D01*
X990506Y1114972D01*
X993220Y1110543D01*
X996593Y1106593D01*
X1000543Y1103220D01*
X1004972Y1100506D01*
X1009771Y1098518D01*
X1014822Y1097306D01*
X1020000Y1096898D01*
X1025178Y1097306D01*
X1030229Y1098518D01*
X1035028Y1100506D01*
X1039457Y1103220D01*
X1043407Y1106593D01*
X1046780Y1110543D01*
X1049494Y1114972D01*
X1051482Y1119771D01*
X1052694Y1124822D01*
X1053102Y1130000D01*
X1052694Y1135178D01*
X1051482Y1140229D01*
X1049494Y1145028D01*
X1046780Y1149457D01*
X1043407Y1153407D01*
X1039457Y1156780D01*
X1035028Y1159494D01*
X1030229Y1161482D01*
X1025178Y1162694D01*
X1020000Y1163102D01*
D02*
G37*
%LPD*%
G36*
X1070837Y1605937D02*
X1075337Y1601437D01*
X1076329Y1600774D01*
X1077500Y1600541D01*
X1081056D01*
X1081138Y1600471D01*
X1081090Y1599844D01*
X1080745Y1599138D01*
X1078867Y1598891D01*
X1075948Y1597682D01*
X1073442Y1595759D01*
X1071518Y1593252D01*
X1070309Y1590333D01*
X1069896Y1587200D01*
X1070309Y1584067D01*
X1071518Y1581148D01*
X1073442Y1578642D01*
X1075948Y1576718D01*
X1078867Y1575509D01*
X1081095Y1575216D01*
X1081666Y1575140D01*
Y1573860D01*
X1081096Y1573784D01*
X1078867Y1573491D01*
X1075948Y1572282D01*
X1073442Y1570358D01*
X1071518Y1567852D01*
X1070309Y1564933D01*
X1069896Y1561800D01*
X1070309Y1558667D01*
X1071518Y1555748D01*
X1073442Y1553241D01*
X1075948Y1551318D01*
X1078867Y1550109D01*
X1081095Y1549816D01*
X1081666Y1549740D01*
Y1548460D01*
X1081096Y1548384D01*
X1078867Y1548091D01*
X1075948Y1546882D01*
X1073442Y1544958D01*
X1071518Y1542452D01*
X1070309Y1539533D01*
X1069896Y1536400D01*
X1070309Y1533267D01*
X1071518Y1530348D01*
X1073442Y1527841D01*
X1075948Y1525918D01*
X1078867Y1524709D01*
X1082000Y1524297D01*
X1085133Y1524709D01*
X1088052Y1525918D01*
X1090558Y1527841D01*
X1092482Y1530348D01*
X1093691Y1533267D01*
X1094104Y1536400D01*
X1093691Y1539533D01*
X1092482Y1542452D01*
X1090558Y1544958D01*
X1088052Y1546882D01*
X1085133Y1548091D01*
X1082905Y1548384D01*
X1082334Y1548460D01*
Y1549740D01*
X1082905Y1549816D01*
X1085133Y1550109D01*
X1088052Y1551318D01*
X1090558Y1553241D01*
X1092482Y1555748D01*
X1093691Y1558667D01*
X1094104Y1561800D01*
X1093691Y1564933D01*
X1092482Y1567852D01*
X1090558Y1570358D01*
X1088052Y1572282D01*
X1085133Y1573491D01*
X1082905Y1573784D01*
X1082334Y1573860D01*
Y1575140D01*
X1082905Y1575216D01*
X1085133Y1575509D01*
X1088052Y1576718D01*
X1090558Y1578642D01*
X1091980Y1580494D01*
X1539905D01*
X1541441Y1578492D01*
X1543444Y1576955D01*
Y1571745D01*
X1541441Y1570208D01*
X1539518Y1567702D01*
X1538309Y1564783D01*
X1537897Y1561650D01*
X1538309Y1558517D01*
X1539518Y1555598D01*
X1541441Y1553091D01*
X1543444Y1551555D01*
Y1546345D01*
X1541441Y1544809D01*
X1539518Y1542302D01*
X1538309Y1539383D01*
X1537897Y1536250D01*
X1538309Y1533117D01*
X1539518Y1530198D01*
X1541441Y1527691D01*
X1543948Y1525768D01*
X1546867Y1524559D01*
X1550000Y1524147D01*
X1553133Y1524559D01*
X1556052Y1525768D01*
X1558559Y1527691D01*
X1560482Y1530198D01*
X1561691Y1533117D01*
X1562104Y1536250D01*
X1561691Y1539383D01*
X1560482Y1542302D01*
X1558559Y1544809D01*
X1556556Y1546345D01*
Y1551555D01*
X1558559Y1553091D01*
X1560482Y1555598D01*
X1561691Y1558517D01*
X1562104Y1561650D01*
X1561691Y1564783D01*
X1560482Y1567702D01*
X1558559Y1570208D01*
X1556556Y1571745D01*
Y1576955D01*
X1558559Y1578492D01*
X1560482Y1580998D01*
X1561691Y1583917D01*
X1562104Y1587050D01*
X1561691Y1590183D01*
X1560482Y1593102D01*
X1558559Y1595609D01*
X1556052Y1597532D01*
X1553133Y1598741D01*
X1550905Y1599034D01*
X1550334Y1599110D01*
Y1600390D01*
X1550905Y1600466D01*
X1553133Y1600759D01*
X1556052Y1601968D01*
X1558559Y1603891D01*
X1560432Y1606332D01*
X1566882D01*
Y1457574D01*
X1565901Y1456768D01*
X1564900Y1456967D01*
X1560432D01*
X1558559Y1459409D01*
X1556052Y1461332D01*
X1553133Y1462541D01*
X1550000Y1462953D01*
X1546867Y1462541D01*
X1543948Y1461332D01*
X1541441Y1459409D01*
X1539518Y1456902D01*
X1538309Y1453983D01*
X1537897Y1450850D01*
X1538309Y1447717D01*
X1539518Y1444798D01*
X1541441Y1442292D01*
X1543948Y1440368D01*
X1546867Y1439159D01*
X1549095Y1438866D01*
X1549666Y1438790D01*
Y1437510D01*
X1549095Y1437434D01*
X1546867Y1437141D01*
X1543948Y1435932D01*
X1541441Y1434008D01*
X1539518Y1431502D01*
X1538309Y1428583D01*
X1537897Y1425450D01*
X1538309Y1422317D01*
X1539518Y1419398D01*
X1541441Y1416891D01*
X1543948Y1414968D01*
X1546867Y1413759D01*
X1549095Y1413466D01*
X1549666Y1413390D01*
Y1412110D01*
X1549095Y1412034D01*
X1546867Y1411741D01*
X1543948Y1410532D01*
X1541441Y1408609D01*
X1539518Y1406102D01*
X1538309Y1403183D01*
X1537897Y1400050D01*
X1538309Y1396917D01*
X1539518Y1393998D01*
X1541441Y1391492D01*
X1543948Y1389568D01*
X1546867Y1388359D01*
X1549095Y1388066D01*
X1549666Y1387990D01*
Y1386710D01*
X1549095Y1386634D01*
X1546867Y1386341D01*
X1543948Y1385132D01*
X1541441Y1383208D01*
X1539518Y1380702D01*
X1538309Y1377783D01*
X1538283Y1377588D01*
X1144588D01*
Y1394787D01*
X1144663Y1394837D01*
X1145326Y1395829D01*
X1145559Y1397000D01*
Y1401000D01*
X1145326Y1402171D01*
X1144663Y1403163D01*
X1143671Y1403826D01*
X1142500Y1404059D01*
X1137500D01*
X1136329Y1403826D01*
X1135337Y1403163D01*
X1134674Y1402171D01*
X1134441Y1401000D01*
Y1397000D01*
X1134674Y1395829D01*
X1135337Y1394837D01*
X1135412Y1394787D01*
Y1377213D01*
X1135337Y1377163D01*
X1134674Y1376171D01*
X1134441Y1375000D01*
Y1371000D01*
X1134674Y1369830D01*
X1135337Y1368837D01*
X1136329Y1368174D01*
X1137500Y1367941D01*
X1142500D01*
X1143671Y1368174D01*
X1144026Y1368412D01*
X1539661D01*
X1541441Y1366091D01*
X1543948Y1364168D01*
X1546867Y1362959D01*
X1550000Y1362547D01*
X1553133Y1362959D01*
X1556052Y1364168D01*
X1558559Y1366091D01*
X1560482Y1368598D01*
X1561691Y1371517D01*
X1562104Y1374650D01*
X1561691Y1377783D01*
X1560482Y1380702D01*
X1558559Y1383208D01*
X1556052Y1385132D01*
X1553133Y1386341D01*
X1550905Y1386634D01*
X1550334Y1386710D01*
Y1387990D01*
X1550905Y1388066D01*
X1553133Y1388359D01*
X1556052Y1389568D01*
X1558559Y1391492D01*
X1560482Y1393998D01*
X1561691Y1396917D01*
X1562104Y1400050D01*
X1561691Y1403183D01*
X1560482Y1406102D01*
X1558559Y1408609D01*
X1556052Y1410532D01*
X1553133Y1411741D01*
X1550905Y1412034D01*
X1550334Y1412110D01*
Y1413390D01*
X1550905Y1413466D01*
X1553133Y1413759D01*
X1556052Y1414968D01*
X1558559Y1416891D01*
X1560482Y1419398D01*
X1561691Y1422317D01*
X1562104Y1425450D01*
X1561691Y1428583D01*
X1560482Y1431502D01*
X1558559Y1434008D01*
X1556052Y1435932D01*
X1553133Y1437141D01*
X1550905Y1437434D01*
X1550334Y1437510D01*
Y1438790D01*
X1550905Y1438866D01*
X1553133Y1439159D01*
X1556052Y1440368D01*
X1558559Y1442292D01*
X1560432Y1444733D01*
X1562366D01*
X1566882Y1440216D01*
Y1317434D01*
X1553051Y1303602D01*
X1550000Y1304003D01*
X1546867Y1303591D01*
X1543948Y1302382D01*
X1541441Y1300459D01*
X1539518Y1297952D01*
X1538309Y1295033D01*
X1537897Y1291900D01*
X1538309Y1288767D01*
X1539518Y1285848D01*
X1541441Y1283342D01*
X1543948Y1281418D01*
X1546867Y1280209D01*
X1549095Y1279916D01*
X1549666Y1279840D01*
Y1278560D01*
X1549095Y1278484D01*
X1546867Y1278191D01*
X1543948Y1276982D01*
X1541441Y1275059D01*
X1539518Y1272552D01*
X1539442Y1272367D01*
X1092431D01*
X1090558Y1274809D01*
X1088052Y1276732D01*
X1085133Y1277941D01*
X1083255Y1278188D01*
X1082910Y1278894D01*
X1082862Y1279521D01*
X1082944Y1279591D01*
X1086500D01*
X1086500Y1279591D01*
X1087671Y1279824D01*
X1088663Y1280487D01*
X1093163Y1284987D01*
X1093826Y1285979D01*
X1094059Y1287150D01*
Y1296150D01*
X1094059Y1296150D01*
X1093826Y1297321D01*
X1093163Y1298313D01*
X1088663Y1302813D01*
X1087671Y1303476D01*
X1086500Y1303709D01*
X1077500D01*
X1077500Y1303709D01*
X1076329Y1303476D01*
X1075337Y1302813D01*
X1070837Y1298313D01*
X1069421Y1298480D01*
X1049368Y1318534D01*
Y1444733D01*
X1070473D01*
X1070837Y1444187D01*
X1075337Y1439687D01*
X1076329Y1439024D01*
X1077500Y1438791D01*
X1081672D01*
X1081755Y1437521D01*
X1081038Y1437427D01*
X1078867Y1437141D01*
X1075948Y1435932D01*
X1073441Y1434008D01*
X1071518Y1431502D01*
X1070309Y1428583D01*
X1069896Y1425450D01*
X1070309Y1422317D01*
X1071518Y1419398D01*
X1073441Y1416891D01*
X1075948Y1414968D01*
X1078867Y1413759D01*
X1081095Y1413466D01*
X1081666Y1413390D01*
Y1412110D01*
X1081096Y1412034D01*
X1078867Y1411741D01*
X1075948Y1410532D01*
X1073441Y1408609D01*
X1071518Y1406102D01*
X1070309Y1403183D01*
X1069896Y1400050D01*
X1070309Y1396917D01*
X1071518Y1393998D01*
X1073441Y1391492D01*
X1075948Y1389568D01*
X1078867Y1388359D01*
X1081095Y1388066D01*
X1081666Y1387990D01*
Y1386710D01*
X1081096Y1386634D01*
X1078867Y1386341D01*
X1075948Y1385132D01*
X1073441Y1383208D01*
X1071518Y1380702D01*
X1070309Y1377783D01*
X1069896Y1374650D01*
X1070309Y1371517D01*
X1071518Y1368598D01*
X1073441Y1366091D01*
X1075948Y1364168D01*
X1078867Y1362959D01*
X1082000Y1362547D01*
X1085133Y1362959D01*
X1088052Y1364168D01*
X1090558Y1366091D01*
X1092339Y1368412D01*
X1122974D01*
X1123329Y1368174D01*
X1124500Y1367941D01*
X1129500D01*
X1130671Y1368174D01*
X1131663Y1368837D01*
X1132326Y1369830D01*
X1132559Y1371000D01*
Y1375000D01*
X1132326Y1376171D01*
X1131663Y1377163D01*
X1130671Y1377826D01*
X1129500Y1378059D01*
X1124500D01*
X1123329Y1377826D01*
X1122974Y1377588D01*
X1093717D01*
X1093691Y1377783D01*
X1092482Y1380702D01*
X1090558Y1383208D01*
X1088052Y1385132D01*
X1085133Y1386341D01*
X1082905Y1386634D01*
X1082334Y1386710D01*
Y1387990D01*
X1082905Y1388066D01*
X1085133Y1388359D01*
X1088052Y1389568D01*
X1090558Y1391492D01*
X1092482Y1393998D01*
X1092653Y1394412D01*
X1122974D01*
X1123329Y1394174D01*
X1124500Y1393941D01*
X1129500D01*
X1130671Y1394174D01*
X1131663Y1394837D01*
X1132326Y1395829D01*
X1132559Y1397000D01*
Y1401000D01*
X1132326Y1402171D01*
X1131663Y1403163D01*
X1130671Y1403826D01*
X1129500Y1404059D01*
X1124500D01*
X1123329Y1403826D01*
X1122974Y1403588D01*
X1093523D01*
X1092482Y1406102D01*
X1090558Y1408609D01*
X1088052Y1410532D01*
X1085133Y1411741D01*
X1082905Y1412034D01*
X1082334Y1412110D01*
Y1413390D01*
X1082905Y1413466D01*
X1085133Y1413759D01*
X1088052Y1414968D01*
X1090558Y1416891D01*
X1092482Y1419398D01*
X1093691Y1422317D01*
X1094104Y1425450D01*
X1093691Y1428583D01*
X1092482Y1431502D01*
X1090558Y1434008D01*
X1088052Y1435932D01*
X1085133Y1437141D01*
X1082962Y1437427D01*
X1082245Y1437521D01*
X1082328Y1438791D01*
X1086500D01*
X1086500Y1438791D01*
X1087671Y1439024D01*
X1088663Y1439687D01*
X1093163Y1444187D01*
X1093826Y1445179D01*
X1094059Y1446350D01*
Y1455350D01*
X1094059Y1455350D01*
X1093826Y1456521D01*
X1093163Y1457513D01*
X1088663Y1462013D01*
X1087671Y1462676D01*
X1086500Y1462909D01*
X1077500D01*
X1077500Y1462909D01*
X1076329Y1462676D01*
X1075337Y1462013D01*
X1070837Y1457513D01*
X1070473Y1456967D01*
X1049368D01*
Y1603966D01*
X1051884Y1606483D01*
X1070473D01*
X1070837Y1605937D01*
D02*
G37*
%LPC*%
G36*
X1495000Y1528111D02*
X1490491Y1527667D01*
X1486156Y1526352D01*
X1482160Y1524216D01*
X1478658Y1521342D01*
X1475784Y1517840D01*
X1473648Y1513844D01*
X1472333Y1509509D01*
X1471889Y1505000D01*
X1472333Y1500491D01*
X1473648Y1496156D01*
X1475784Y1492160D01*
X1478658Y1488658D01*
X1482160Y1485784D01*
X1486156Y1483648D01*
X1490491Y1482333D01*
X1495000Y1481889D01*
X1499509Y1482333D01*
X1503844Y1483648D01*
X1507840Y1485784D01*
X1511342Y1488658D01*
X1514216Y1492160D01*
X1516352Y1496156D01*
X1517667Y1500491D01*
X1518111Y1505000D01*
X1517667Y1509509D01*
X1516352Y1513844D01*
X1514216Y1517840D01*
X1511342Y1521342D01*
X1507840Y1524216D01*
X1503844Y1526352D01*
X1499509Y1527667D01*
X1495000Y1528111D01*
D02*
G37*
G36*
X1125000D02*
X1120491Y1527667D01*
X1116156Y1526352D01*
X1112160Y1524216D01*
X1108658Y1521342D01*
X1105784Y1517840D01*
X1103648Y1513844D01*
X1102333Y1509509D01*
X1101889Y1505000D01*
X1102333Y1500491D01*
X1103648Y1496156D01*
X1105784Y1492160D01*
X1108658Y1488658D01*
X1112160Y1485784D01*
X1116156Y1483648D01*
X1120491Y1482333D01*
X1125000Y1481889D01*
X1129509Y1482333D01*
X1133844Y1483648D01*
X1137840Y1485784D01*
X1141342Y1488658D01*
X1144216Y1492160D01*
X1146352Y1496156D01*
X1147667Y1500491D01*
X1148111Y1505000D01*
X1147667Y1509509D01*
X1146352Y1513844D01*
X1144216Y1517840D01*
X1141342Y1521342D01*
X1137840Y1524216D01*
X1133844Y1526352D01*
X1129509Y1527667D01*
X1125000Y1528111D01*
D02*
G37*
G36*
X1495000Y1358111D02*
X1490491Y1357667D01*
X1486156Y1356352D01*
X1482160Y1354216D01*
X1478658Y1351342D01*
X1475784Y1347840D01*
X1473648Y1343844D01*
X1472333Y1339509D01*
X1471889Y1335000D01*
X1472333Y1330491D01*
X1473648Y1326156D01*
X1475784Y1322160D01*
X1478658Y1318658D01*
X1482160Y1315784D01*
X1486156Y1313648D01*
X1490491Y1312333D01*
X1495000Y1311889D01*
X1499509Y1312333D01*
X1503844Y1313648D01*
X1507840Y1315784D01*
X1511342Y1318658D01*
X1514216Y1322160D01*
X1516352Y1326156D01*
X1517667Y1330491D01*
X1518111Y1335000D01*
X1517667Y1339509D01*
X1516352Y1343844D01*
X1514216Y1347840D01*
X1511342Y1351342D01*
X1507840Y1354216D01*
X1503844Y1356352D01*
X1499509Y1357667D01*
X1495000Y1358111D01*
D02*
G37*
G36*
X1125000D02*
X1120491Y1357667D01*
X1116156Y1356352D01*
X1112160Y1354216D01*
X1108658Y1351342D01*
X1105784Y1347840D01*
X1103648Y1343844D01*
X1102333Y1339509D01*
X1101889Y1335000D01*
X1102333Y1330491D01*
X1103648Y1326156D01*
X1105784Y1322160D01*
X1108658Y1318658D01*
X1112160Y1315784D01*
X1116156Y1313648D01*
X1120491Y1312333D01*
X1125000Y1311889D01*
X1129509Y1312333D01*
X1133844Y1313648D01*
X1137840Y1315784D01*
X1141342Y1318658D01*
X1144216Y1322160D01*
X1146352Y1326156D01*
X1147667Y1330491D01*
X1148111Y1335000D01*
X1147667Y1339509D01*
X1146352Y1343844D01*
X1144216Y1347840D01*
X1141342Y1351342D01*
X1137840Y1354216D01*
X1133844Y1356352D01*
X1129509Y1357667D01*
X1125000Y1358111D01*
D02*
G37*
G36*
X638088Y1681640D02*
X635075Y1681243D01*
X632268Y1680080D01*
X629857Y1678230D01*
X628008Y1675820D01*
X626845Y1673013D01*
X626448Y1670000D01*
X626845Y1666987D01*
X628008Y1664180D01*
X629857Y1661770D01*
X632268Y1659920D01*
X632949Y1659638D01*
Y1649729D01*
X553859Y1570639D01*
X540553D01*
X540067Y1571812D01*
X541871Y1573616D01*
X542985Y1575284D01*
X543376Y1577250D01*
Y1580452D01*
X544371Y1581116D01*
X545454Y1582737D01*
X545754Y1582784D01*
X546471D01*
X546771Y1582737D01*
X547854Y1581116D01*
X549521Y1580002D01*
X551488Y1579611D01*
X556488D01*
X558454Y1580002D01*
X560121Y1581116D01*
X561235Y1582784D01*
X561626Y1584750D01*
Y1592750D01*
X561235Y1594716D01*
X560121Y1596384D01*
X559126Y1597048D01*
Y1599872D01*
X616321Y1657066D01*
X617435Y1658734D01*
X617596Y1659542D01*
X618507Y1659920D01*
X620918Y1661770D01*
X622768Y1664180D01*
X623931Y1666987D01*
X624327Y1670000D01*
X623931Y1673013D01*
X622768Y1675820D01*
X620918Y1678230D01*
X618507Y1680080D01*
X615700Y1681243D01*
X612688Y1681640D01*
X609675Y1681243D01*
X606868Y1680080D01*
X604457Y1678230D01*
X602607Y1675820D01*
X601445Y1673013D01*
X601048Y1670000D01*
X601445Y1666987D01*
X602607Y1664180D01*
X604457Y1661770D01*
X604843Y1661473D01*
X604926Y1660206D01*
X550354Y1605634D01*
X549240Y1603967D01*
X548849Y1602000D01*
Y1597048D01*
X547854Y1596384D01*
X546771Y1594763D01*
X546471Y1594716D01*
X545754D01*
X545454Y1594763D01*
X544371Y1596384D01*
X543376Y1597048D01*
Y1602121D01*
X590921Y1649666D01*
X592035Y1651333D01*
X592426Y1653300D01*
Y1659638D01*
X593107Y1659920D01*
X595518Y1661770D01*
X597368Y1664180D01*
X598531Y1666987D01*
X598927Y1670000D01*
X598531Y1673013D01*
X597368Y1675820D01*
X595518Y1678230D01*
X593107Y1680080D01*
X590300Y1681243D01*
X587288Y1681640D01*
X584275Y1681243D01*
X581468Y1680080D01*
X579057Y1678230D01*
X577207Y1675820D01*
X576045Y1673013D01*
X575648Y1670000D01*
X576045Y1666987D01*
X577207Y1664180D01*
X579057Y1661770D01*
X581468Y1659920D01*
X582149Y1659638D01*
Y1655428D01*
X534604Y1607884D01*
X533490Y1606216D01*
X533099Y1604250D01*
Y1597048D01*
X532104Y1596384D01*
X531021Y1594763D01*
X530721Y1594716D01*
X530004D01*
X529704Y1594763D01*
X528621Y1596384D01*
X527626Y1597048D01*
Y1615871D01*
X565521Y1653766D01*
X566635Y1655434D01*
X567026Y1657400D01*
Y1659638D01*
X567707Y1659920D01*
X570118Y1661770D01*
X571968Y1664180D01*
X573131Y1666987D01*
X573527Y1670000D01*
X573131Y1673013D01*
X571968Y1675820D01*
X570118Y1678230D01*
X567707Y1680080D01*
X564900Y1681243D01*
X561888Y1681640D01*
X558875Y1681243D01*
X556068Y1680080D01*
X553657Y1678230D01*
X551808Y1675820D01*
X550645Y1673013D01*
X550248Y1670000D01*
X550645Y1666987D01*
X551808Y1664180D01*
X553657Y1661770D01*
X555658Y1660234D01*
X555910Y1658967D01*
X555854Y1658634D01*
X518854Y1621634D01*
X517740Y1619966D01*
X517349Y1618000D01*
Y1597048D01*
X516354Y1596384D01*
X515240Y1594716D01*
X515075Y1593889D01*
X498738D01*
X496771Y1593498D01*
X495104Y1592384D01*
X453259Y1550539D01*
X441450D01*
X441380Y1550891D01*
X440819Y1551731D01*
X436319Y1556231D01*
X435479Y1556793D01*
X434488Y1556990D01*
X425488D01*
X424497Y1556793D01*
X423656Y1556231D01*
X419156Y1551731D01*
X418595Y1550891D01*
X418398Y1549900D01*
Y1540900D01*
X418595Y1539909D01*
X419156Y1539069D01*
X423656Y1534569D01*
X424497Y1534007D01*
X425488Y1533810D01*
X434488D01*
X435479Y1534007D01*
X436319Y1534569D01*
X440819Y1539069D01*
X441380Y1539909D01*
X441450Y1540261D01*
X455388D01*
X457354Y1540652D01*
X459021Y1541766D01*
X500866Y1583611D01*
X515075D01*
X515240Y1582784D01*
X516354Y1581116D01*
X518021Y1580002D01*
X519988Y1579611D01*
X524988D01*
X526954Y1580002D01*
X528621Y1581116D01*
X529704Y1582737D01*
X530004Y1582784D01*
X530721D01*
X531021Y1582737D01*
X532104Y1581116D01*
X532917Y1580573D01*
X532996Y1579276D01*
X531899Y1578179D01*
X501575D01*
X499608Y1577788D01*
X497941Y1576674D01*
X492814Y1571547D01*
X491700Y1569880D01*
X491309Y1567913D01*
Y1565716D01*
X452732Y1527139D01*
X439056D01*
X438218Y1528230D01*
X435807Y1530080D01*
X433000Y1531243D01*
X429988Y1531640D01*
X426975Y1531243D01*
X424168Y1530080D01*
X421757Y1528230D01*
X419907Y1525820D01*
X418745Y1523013D01*
X418348Y1520000D01*
X418745Y1516987D01*
X419907Y1514180D01*
X421757Y1511770D01*
X424168Y1509920D01*
X426975Y1508757D01*
X429988Y1508360D01*
X433000Y1508757D01*
X435807Y1509920D01*
X438218Y1511770D01*
X440068Y1514180D01*
X441178Y1516861D01*
X454860D01*
X456827Y1517252D01*
X458494Y1518366D01*
X495975Y1555847D01*
X497148Y1555361D01*
Y1551250D01*
X497345Y1550259D01*
X497906Y1549419D01*
X498191Y1549229D01*
Y1547771D01*
X497906Y1547581D01*
X497345Y1546741D01*
X497148Y1545750D01*
Y1537250D01*
X497345Y1536259D01*
X497906Y1535419D01*
X498747Y1534857D01*
X499738Y1534660D01*
X508238D01*
X509229Y1534857D01*
X510069Y1535419D01*
X510630Y1536259D01*
X510651Y1536361D01*
X515125D01*
X515240Y1535784D01*
X516354Y1534116D01*
X518021Y1533002D01*
X519988Y1532611D01*
X524988D01*
X526954Y1533002D01*
X528621Y1534116D01*
X529704Y1535737D01*
X530004Y1535784D01*
X530721D01*
X531021Y1535737D01*
X532104Y1534116D01*
X533771Y1533002D01*
X535738Y1532611D01*
X540738D01*
X542704Y1533002D01*
X544371Y1534116D01*
X545454Y1535737D01*
X545754Y1535784D01*
X546471D01*
X546771Y1535737D01*
X547854Y1534116D01*
X549521Y1533002D01*
X551488Y1532611D01*
X556488D01*
X558454Y1533002D01*
X560121Y1534116D01*
X561235Y1535784D01*
X561626Y1537750D01*
Y1545750D01*
X561235Y1547717D01*
X560121Y1549384D01*
X558454Y1550498D01*
X556488Y1550889D01*
X551488D01*
X549521Y1550498D01*
X547854Y1549384D01*
X546771Y1547763D01*
X546471Y1547717D01*
X545754D01*
X545454Y1547763D01*
X544371Y1549384D01*
X542704Y1550498D01*
X540738Y1550889D01*
X535738D01*
X533771Y1550498D01*
X532104Y1549384D01*
X531021Y1547763D01*
X530721Y1547717D01*
X530004D01*
X529704Y1547763D01*
X528621Y1549384D01*
X526954Y1550498D01*
X524988Y1550889D01*
X519988D01*
X518021Y1550498D01*
X516354Y1549384D01*
X515240Y1547717D01*
X515026Y1546639D01*
X510651D01*
X510630Y1546741D01*
X510069Y1547581D01*
X509784Y1547771D01*
Y1549229D01*
X510069Y1549419D01*
X510630Y1550259D01*
X510827Y1551250D01*
Y1559750D01*
X511329Y1560361D01*
X555988D01*
X557954Y1560753D01*
X559621Y1561866D01*
X641721Y1643966D01*
X642835Y1645634D01*
X643226Y1647600D01*
Y1659638D01*
X643907Y1659920D01*
X646318Y1661770D01*
X648168Y1664180D01*
X649331Y1666987D01*
X649727Y1670000D01*
X649331Y1673013D01*
X648168Y1675820D01*
X646318Y1678230D01*
X643907Y1680080D01*
X641100Y1681243D01*
X638088Y1681640D01*
D02*
G37*
G36*
X429988Y1506240D02*
X426975Y1505843D01*
X424168Y1504680D01*
X421757Y1502830D01*
X419907Y1500420D01*
X418745Y1497612D01*
X418348Y1494600D01*
X418745Y1491588D01*
X419907Y1488780D01*
X421757Y1486370D01*
X424168Y1484520D01*
X426975Y1483357D01*
X429988Y1482961D01*
X433000Y1483357D01*
X435807Y1484520D01*
X438218Y1486370D01*
X440068Y1488780D01*
X441231Y1491588D01*
X441627Y1494600D01*
X441231Y1497612D01*
X440068Y1500420D01*
X438218Y1502830D01*
X435807Y1504680D01*
X433000Y1505843D01*
X429988Y1506240D01*
D02*
G37*
G36*
Y1480840D02*
X426975Y1480443D01*
X424168Y1479280D01*
X421757Y1477430D01*
X419907Y1475020D01*
X418745Y1472213D01*
X418348Y1469200D01*
X418745Y1466187D01*
X419907Y1463380D01*
X421757Y1460970D01*
X424168Y1459120D01*
X426975Y1457957D01*
X429988Y1457560D01*
X433000Y1457957D01*
X435807Y1459120D01*
X438218Y1460970D01*
X440068Y1463380D01*
X441231Y1466187D01*
X441627Y1469200D01*
X441231Y1472213D01*
X440068Y1475020D01*
X438218Y1477430D01*
X435807Y1479280D01*
X433000Y1480443D01*
X429988Y1480840D01*
D02*
G37*
G36*
X928088Y1681640D02*
X925075Y1681243D01*
X922268Y1680080D01*
X919857Y1678230D01*
X918008Y1675820D01*
X916845Y1673013D01*
X916448Y1670000D01*
X916845Y1666987D01*
X918008Y1664180D01*
X919857Y1661770D01*
X922268Y1659920D01*
X922949Y1659638D01*
Y1649729D01*
X843859Y1570639D01*
X830553D01*
X830067Y1571812D01*
X831871Y1573616D01*
X832985Y1575284D01*
X833376Y1577250D01*
Y1580452D01*
X834371Y1581116D01*
X835454Y1582737D01*
X835754Y1582784D01*
X836471D01*
X836771Y1582737D01*
X837854Y1581116D01*
X839521Y1580002D01*
X841488Y1579611D01*
X846488D01*
X848454Y1580002D01*
X850121Y1581116D01*
X851235Y1582784D01*
X851626Y1584750D01*
Y1592750D01*
X851235Y1594716D01*
X850121Y1596384D01*
X849126Y1597048D01*
Y1599872D01*
X906321Y1657066D01*
X907435Y1658734D01*
X907596Y1659542D01*
X908507Y1659920D01*
X910918Y1661770D01*
X912768Y1664180D01*
X913931Y1666987D01*
X914327Y1670000D01*
X913931Y1673013D01*
X912768Y1675820D01*
X910918Y1678230D01*
X908507Y1680080D01*
X905700Y1681243D01*
X902688Y1681640D01*
X899675Y1681243D01*
X896868Y1680080D01*
X894457Y1678230D01*
X892607Y1675820D01*
X891445Y1673013D01*
X891048Y1670000D01*
X891445Y1666987D01*
X892607Y1664180D01*
X894457Y1661770D01*
X894843Y1661473D01*
X894926Y1660206D01*
X840354Y1605634D01*
X839240Y1603967D01*
X838849Y1602000D01*
Y1597048D01*
X837854Y1596384D01*
X836771Y1594763D01*
X836471Y1594716D01*
X835754D01*
X835454Y1594763D01*
X834371Y1596384D01*
X833376Y1597048D01*
Y1602121D01*
X880921Y1649666D01*
X882035Y1651333D01*
X882426Y1653300D01*
Y1659638D01*
X883107Y1659920D01*
X885518Y1661770D01*
X887368Y1664180D01*
X888531Y1666987D01*
X888927Y1670000D01*
X888531Y1673013D01*
X887368Y1675820D01*
X885518Y1678230D01*
X883107Y1680080D01*
X880300Y1681243D01*
X877288Y1681640D01*
X874275Y1681243D01*
X871468Y1680080D01*
X869057Y1678230D01*
X867207Y1675820D01*
X866045Y1673013D01*
X865648Y1670000D01*
X866045Y1666987D01*
X867207Y1664180D01*
X869057Y1661770D01*
X871468Y1659920D01*
X872149Y1659638D01*
Y1655428D01*
X824604Y1607884D01*
X823490Y1606216D01*
X823099Y1604250D01*
Y1597048D01*
X822104Y1596384D01*
X821021Y1594763D01*
X820721Y1594716D01*
X820004D01*
X819704Y1594763D01*
X818621Y1596384D01*
X817626Y1597048D01*
Y1615871D01*
X855521Y1653766D01*
X856635Y1655433D01*
X857026Y1657400D01*
Y1659638D01*
X857707Y1659920D01*
X860118Y1661770D01*
X861968Y1664180D01*
X863131Y1666987D01*
X863527Y1670000D01*
X863131Y1673013D01*
X861968Y1675820D01*
X860118Y1678230D01*
X857707Y1680080D01*
X854900Y1681243D01*
X851888Y1681640D01*
X848875Y1681243D01*
X846068Y1680080D01*
X843657Y1678230D01*
X841807Y1675820D01*
X840645Y1673013D01*
X840248Y1670000D01*
X840645Y1666987D01*
X841807Y1664180D01*
X843657Y1661770D01*
X845658Y1660234D01*
X845910Y1658967D01*
X845854Y1658634D01*
X808854Y1621634D01*
X807740Y1619966D01*
X807349Y1618000D01*
Y1597048D01*
X806354Y1596384D01*
X805240Y1594716D01*
X805075Y1593889D01*
X788738D01*
X786771Y1593497D01*
X785104Y1592384D01*
X743259Y1550539D01*
X731450D01*
X731380Y1550891D01*
X730819Y1551731D01*
X726319Y1556231D01*
X725479Y1556793D01*
X724488Y1556990D01*
X715488D01*
X714497Y1556793D01*
X713656Y1556231D01*
X709156Y1551731D01*
X708595Y1550891D01*
X708398Y1549900D01*
Y1540900D01*
X708595Y1539909D01*
X709156Y1539069D01*
X713656Y1534569D01*
X714497Y1534007D01*
X715488Y1533810D01*
X724488D01*
X725479Y1534007D01*
X726319Y1534569D01*
X730819Y1539069D01*
X731380Y1539909D01*
X731450Y1540261D01*
X745388D01*
X747354Y1540652D01*
X749021Y1541766D01*
X790866Y1583611D01*
X805075D01*
X805240Y1582784D01*
X806354Y1581116D01*
X808021Y1580002D01*
X809988Y1579611D01*
X814988D01*
X816954Y1580002D01*
X818621Y1581116D01*
X819704Y1582737D01*
X820004Y1582784D01*
X820721D01*
X821021Y1582737D01*
X822104Y1581116D01*
X822917Y1580573D01*
X822996Y1579276D01*
X821899Y1578179D01*
X791574D01*
X789608Y1577787D01*
X787941Y1576674D01*
X782814Y1571547D01*
X781700Y1569880D01*
X781309Y1567913D01*
Y1565716D01*
X742731Y1527139D01*
X729056D01*
X728218Y1528230D01*
X725807Y1530080D01*
X723000Y1531243D01*
X719988Y1531640D01*
X716975Y1531243D01*
X714168Y1530080D01*
X711757Y1528230D01*
X709908Y1525820D01*
X708745Y1523013D01*
X708348Y1520000D01*
X708745Y1516987D01*
X709908Y1514180D01*
X711757Y1511770D01*
X714168Y1509920D01*
X716975Y1508757D01*
X719988Y1508360D01*
X723000Y1508757D01*
X725807Y1509920D01*
X728218Y1511770D01*
X730068Y1514180D01*
X731178Y1516861D01*
X744860D01*
X746826Y1517252D01*
X748494Y1518366D01*
X785975Y1555847D01*
X787148Y1555361D01*
Y1551250D01*
X787345Y1550259D01*
X787906Y1549419D01*
X788191Y1549228D01*
Y1547771D01*
X787906Y1547581D01*
X787345Y1546741D01*
X787148Y1545750D01*
Y1537250D01*
X787345Y1536259D01*
X787906Y1535419D01*
X788747Y1534857D01*
X789738Y1534660D01*
X798238D01*
X799229Y1534857D01*
X800069Y1535419D01*
X800630Y1536259D01*
X800651Y1536361D01*
X805125D01*
X805240Y1535784D01*
X806354Y1534116D01*
X808021Y1533002D01*
X809988Y1532611D01*
X814988D01*
X816954Y1533002D01*
X818621Y1534116D01*
X819704Y1535737D01*
X820004Y1535784D01*
X820721D01*
X821021Y1535737D01*
X822104Y1534116D01*
X823771Y1533002D01*
X825738Y1532611D01*
X830738D01*
X832704Y1533002D01*
X834371Y1534116D01*
X835454Y1535737D01*
X835754Y1535784D01*
X836471D01*
X836771Y1535737D01*
X837854Y1534116D01*
X839521Y1533002D01*
X841488Y1532611D01*
X846488D01*
X848454Y1533002D01*
X850121Y1534116D01*
X851235Y1535784D01*
X851626Y1537750D01*
Y1545750D01*
X851235Y1547717D01*
X850121Y1549384D01*
X848454Y1550497D01*
X846488Y1550889D01*
X841488D01*
X839521Y1550497D01*
X837854Y1549384D01*
X836771Y1547763D01*
X836471Y1547717D01*
X835754D01*
X835454Y1547763D01*
X834371Y1549384D01*
X832704Y1550497D01*
X830738Y1550889D01*
X825738D01*
X823771Y1550497D01*
X822104Y1549384D01*
X821021Y1547763D01*
X820721Y1547717D01*
X820004D01*
X819704Y1547763D01*
X818621Y1549384D01*
X816954Y1550497D01*
X814988Y1550889D01*
X809988D01*
X808021Y1550497D01*
X806354Y1549384D01*
X805240Y1547717D01*
X805026Y1546639D01*
X800651D01*
X800630Y1546741D01*
X800069Y1547581D01*
X799784Y1547771D01*
Y1549228D01*
X800069Y1549419D01*
X800630Y1550259D01*
X800827Y1551250D01*
Y1559750D01*
X801329Y1560361D01*
X845988D01*
X847954Y1560752D01*
X849621Y1561866D01*
X931721Y1643966D01*
X932835Y1645633D01*
X933226Y1647600D01*
Y1659638D01*
X933907Y1659920D01*
X936318Y1661770D01*
X938168Y1664180D01*
X939331Y1666987D01*
X939727Y1670000D01*
X939331Y1673013D01*
X938168Y1675820D01*
X936318Y1678230D01*
X933907Y1680080D01*
X931100Y1681243D01*
X928088Y1681640D01*
D02*
G37*
G36*
X719988Y1506239D02*
X716975Y1505843D01*
X714168Y1504680D01*
X711757Y1502830D01*
X709908Y1500420D01*
X708745Y1497612D01*
X708348Y1494600D01*
X708745Y1491587D01*
X709908Y1488780D01*
X711757Y1486370D01*
X714168Y1484520D01*
X716975Y1483357D01*
X719988Y1482960D01*
X723000Y1483357D01*
X725807Y1484520D01*
X728218Y1486370D01*
X730068Y1488780D01*
X731231Y1491587D01*
X731627Y1494600D01*
X731231Y1497612D01*
X730068Y1500420D01*
X728218Y1502830D01*
X725807Y1504680D01*
X723000Y1505843D01*
X719988Y1506239D01*
D02*
G37*
G36*
Y1480840D02*
X716975Y1480443D01*
X714168Y1479280D01*
X711757Y1477430D01*
X709908Y1475020D01*
X708745Y1472213D01*
X708348Y1469200D01*
X708745Y1466187D01*
X709908Y1463380D01*
X711757Y1460970D01*
X714168Y1459120D01*
X716975Y1457957D01*
X719988Y1457560D01*
X723000Y1457957D01*
X725807Y1459120D01*
X728218Y1460970D01*
X730068Y1463380D01*
X731231Y1466187D01*
X731627Y1469200D01*
X731231Y1472213D01*
X730068Y1475020D01*
X728218Y1477430D01*
X725807Y1479280D01*
X723000Y1480443D01*
X719988Y1480840D01*
D02*
G37*
G36*
X112962Y1583099D02*
X108543Y1582664D01*
X104294Y1581375D01*
X100379Y1579282D01*
X96946Y1576465D01*
X94130Y1573033D01*
X92037Y1569117D01*
X90748Y1564869D01*
X90313Y1560450D01*
X90748Y1556031D01*
X92037Y1551783D01*
X94130Y1547867D01*
X96946Y1544435D01*
X100379Y1541618D01*
X104294Y1539525D01*
X108543Y1538236D01*
X112962Y1537801D01*
X117380Y1538236D01*
X121629Y1539525D01*
X125545Y1541618D01*
X128977Y1544435D01*
X131794Y1547867D01*
X133887Y1551783D01*
X135176Y1556031D01*
X135611Y1560450D01*
X135176Y1564869D01*
X133887Y1569117D01*
X131794Y1573033D01*
X128977Y1576465D01*
X125545Y1579282D01*
X121629Y1581375D01*
X117380Y1582664D01*
X112962Y1583099D01*
D02*
G37*
G36*
X554000Y1378901D02*
X550313Y1378538D01*
X546767Y1377462D01*
X543499Y1375716D01*
X540635Y1373365D01*
X538284Y1370501D01*
X536538Y1367233D01*
X535462Y1363687D01*
X535099Y1360000D01*
X535462Y1356313D01*
X536538Y1352767D01*
X538284Y1349499D01*
X540635Y1346635D01*
X543499Y1344284D01*
X546767Y1342538D01*
X547192Y1342409D01*
X547004Y1341139D01*
X410996D01*
X410808Y1342409D01*
X411233Y1342538D01*
X414501Y1344284D01*
X417365Y1346635D01*
X419716Y1349499D01*
X421462Y1352767D01*
X422538Y1356313D01*
X422901Y1360000D01*
X422538Y1363687D01*
X421462Y1367233D01*
X419716Y1370501D01*
X417365Y1373365D01*
X414501Y1375716D01*
X411233Y1377462D01*
X407687Y1378538D01*
X404000Y1378901D01*
X400313Y1378538D01*
X396767Y1377462D01*
X393499Y1375716D01*
X390635Y1373365D01*
X388284Y1370501D01*
X386538Y1367233D01*
X385462Y1363687D01*
X385099Y1360000D01*
X385462Y1356313D01*
X386538Y1352767D01*
X388284Y1349499D01*
X390635Y1346635D01*
X393499Y1344284D01*
X396767Y1342538D01*
X397192Y1342409D01*
X397004Y1341139D01*
X384929D01*
X373590Y1352478D01*
Y1361300D01*
X373393Y1362291D01*
X372831Y1363131D01*
X368331Y1367631D01*
X367491Y1368193D01*
X366500Y1368390D01*
X357500D01*
X356509Y1368193D01*
X355669Y1367631D01*
X351169Y1363131D01*
X350607Y1362291D01*
X350410Y1361300D01*
Y1352300D01*
X350607Y1351309D01*
X351169Y1350469D01*
X355669Y1345969D01*
X356509Y1345407D01*
X357500Y1345210D01*
X366323D01*
X370536Y1340997D01*
X369697Y1340040D01*
X367820Y1341480D01*
X365013Y1342643D01*
X362000Y1343040D01*
X358987Y1342643D01*
X356180Y1341480D01*
X353769Y1339630D01*
X351920Y1337220D01*
X350757Y1334413D01*
X350360Y1331400D01*
X350757Y1328387D01*
X351920Y1325580D01*
X353769Y1323170D01*
X356180Y1321320D01*
X358987Y1320157D01*
X362000Y1319760D01*
X365013Y1320157D01*
X367820Y1321320D01*
X370230Y1323170D01*
X372080Y1325580D01*
X372362Y1326261D01*
X374608D01*
X376043Y1324826D01*
X377710Y1323712D01*
X379677Y1323321D01*
X582323D01*
X584290Y1323712D01*
X585957Y1324826D01*
X587392Y1326261D01*
X589638D01*
X589920Y1325580D01*
X591770Y1323170D01*
X594180Y1321320D01*
X596987Y1320157D01*
X600000Y1319760D01*
X603013Y1320157D01*
X605820Y1321320D01*
X608230Y1323170D01*
X610080Y1325580D01*
X611243Y1328387D01*
X611640Y1331400D01*
X611243Y1334413D01*
X610080Y1337220D01*
X608230Y1339630D01*
X605820Y1341480D01*
X603013Y1342643D01*
X600000Y1343040D01*
X596987Y1342643D01*
X594180Y1341480D01*
X592303Y1340040D01*
X591464Y1340997D01*
X596306Y1345839D01*
X596987Y1345557D01*
X600000Y1345160D01*
X603013Y1345557D01*
X605820Y1346720D01*
X608230Y1348570D01*
X610080Y1350980D01*
X611243Y1353787D01*
X611640Y1356800D01*
X611243Y1359812D01*
X610080Y1362620D01*
X608230Y1365030D01*
X605820Y1366880D01*
X603013Y1368043D01*
X600000Y1368439D01*
X596987Y1368043D01*
X594180Y1366880D01*
X591770Y1365030D01*
X589920Y1362620D01*
X588757Y1359812D01*
X588360Y1356800D01*
X588757Y1353787D01*
X589039Y1353106D01*
X577071Y1341139D01*
X560996D01*
X560808Y1342409D01*
X561233Y1342538D01*
X564501Y1344284D01*
X567365Y1346635D01*
X569716Y1349499D01*
X571462Y1352767D01*
X572538Y1356313D01*
X572901Y1360000D01*
X572538Y1363687D01*
X571462Y1367233D01*
X569716Y1370501D01*
X567365Y1373365D01*
X564501Y1375716D01*
X561233Y1377462D01*
X557687Y1378538D01*
X554000Y1378901D01*
D02*
G37*
G36*
X600000Y1317639D02*
X596987Y1317243D01*
X594180Y1316080D01*
X591770Y1314230D01*
X589920Y1311820D01*
X589638Y1311139D01*
X573503D01*
X571469Y1313174D01*
X569801Y1314288D01*
X567835Y1314679D01*
X389877D01*
X387910Y1314288D01*
X386243Y1313174D01*
X384208Y1311139D01*
X372362D01*
X372080Y1311820D01*
X370230Y1314230D01*
X367820Y1316080D01*
X365013Y1317243D01*
X362000Y1317639D01*
X358987Y1317243D01*
X356180Y1316080D01*
X353769Y1314230D01*
X351920Y1311820D01*
X350757Y1309012D01*
X350360Y1306000D01*
X350757Y1302987D01*
X351920Y1300180D01*
X353769Y1297770D01*
X356180Y1295920D01*
X358987Y1294757D01*
X362000Y1294360D01*
X365013Y1294757D01*
X367820Y1295920D01*
X370230Y1297770D01*
X372080Y1300180D01*
X372362Y1300861D01*
X382935D01*
X383421Y1299688D01*
X371924Y1288192D01*
X370657Y1288275D01*
X370230Y1288830D01*
X367820Y1290680D01*
X365013Y1291843D01*
X362000Y1292240D01*
X358987Y1291843D01*
X356180Y1290680D01*
X353769Y1288830D01*
X351920Y1286420D01*
X350757Y1283613D01*
X350360Y1280600D01*
X350757Y1277587D01*
X351920Y1274780D01*
X353769Y1272370D01*
X356180Y1270520D01*
X358987Y1269357D01*
X362000Y1268960D01*
X365013Y1269357D01*
X367820Y1270520D01*
X370230Y1272370D01*
X372080Y1274780D01*
X372431Y1275627D01*
X373567Y1275852D01*
X375234Y1276966D01*
X385084Y1286817D01*
X386207Y1286144D01*
X385462Y1283687D01*
X385099Y1280000D01*
X385462Y1276313D01*
X386538Y1272767D01*
X388284Y1269499D01*
X390635Y1266635D01*
X393499Y1264284D01*
X396767Y1262538D01*
X400313Y1261462D01*
X404000Y1261099D01*
X407687Y1261462D01*
X411233Y1262538D01*
X414501Y1264284D01*
X417365Y1266635D01*
X419716Y1269499D01*
X421462Y1272767D01*
X422538Y1276313D01*
X422901Y1280000D01*
X422538Y1283687D01*
X421462Y1287233D01*
X419716Y1290501D01*
X417365Y1293365D01*
X414652Y1295591D01*
X414754Y1296726D01*
X414788Y1296861D01*
X543212D01*
X543246Y1296726D01*
X543348Y1295591D01*
X540635Y1293365D01*
X538284Y1290501D01*
X536538Y1287233D01*
X535462Y1283687D01*
X535099Y1280000D01*
X535462Y1276313D01*
X536538Y1272767D01*
X538284Y1269499D01*
X540635Y1266635D01*
X543499Y1264284D01*
X546767Y1262538D01*
X550313Y1261462D01*
X554000Y1261099D01*
X557687Y1261462D01*
X561233Y1262538D01*
X564501Y1264284D01*
X567365Y1266635D01*
X569716Y1269499D01*
X571462Y1272767D01*
X572538Y1276313D01*
X572901Y1280000D01*
X572538Y1283687D01*
X571918Y1285730D01*
X573041Y1286403D01*
X582478Y1276966D01*
X584145Y1275852D01*
X586112Y1275461D01*
X589638D01*
X589920Y1274780D01*
X591770Y1272370D01*
X594180Y1270520D01*
X596987Y1269357D01*
X600000Y1268960D01*
X603013Y1269357D01*
X605820Y1270520D01*
X608230Y1272370D01*
X610080Y1274780D01*
X611243Y1277587D01*
X611640Y1280600D01*
X611243Y1283613D01*
X610080Y1286420D01*
X608230Y1288830D01*
X605820Y1290680D01*
X603013Y1291843D01*
X600000Y1292240D01*
X596987Y1291843D01*
X594180Y1290680D01*
X591770Y1288830D01*
X589920Y1286420D01*
X589638Y1285739D01*
X588240D01*
X574291Y1299688D01*
X574777Y1300861D01*
X589638D01*
X589920Y1300180D01*
X591770Y1297770D01*
X594180Y1295920D01*
X596987Y1294757D01*
X600000Y1294360D01*
X603013Y1294757D01*
X605820Y1295920D01*
X608230Y1297770D01*
X610080Y1300180D01*
X611243Y1302987D01*
X611640Y1306000D01*
X611243Y1309012D01*
X610080Y1311820D01*
X608230Y1314230D01*
X605820Y1316080D01*
X603013Y1317243D01*
X600000Y1317639D01*
D02*
G37*
G36*
X851400Y1321640D02*
X848388Y1321243D01*
X845580Y1320080D01*
X843170Y1318230D01*
X841320Y1315820D01*
X840157Y1313013D01*
X839760Y1310000D01*
X840157Y1306987D01*
X841320Y1304180D01*
X843170Y1301770D01*
X845580Y1299920D01*
X845751Y1299849D01*
Y1143671D01*
X845609Y1143643D01*
X844769Y1143081D01*
X840269Y1138581D01*
X839707Y1137741D01*
X839510Y1136750D01*
Y1127750D01*
X839707Y1126759D01*
X840269Y1125919D01*
X844769Y1121419D01*
X845609Y1120857D01*
X846600Y1120660D01*
X855600D01*
X856591Y1120857D01*
X857431Y1121419D01*
X861931Y1125919D01*
X862493Y1126759D01*
X862690Y1127750D01*
Y1136750D01*
X862493Y1137741D01*
X861931Y1138581D01*
X857431Y1143081D01*
X857048Y1143337D01*
Y1299849D01*
X857220Y1299920D01*
X859630Y1301770D01*
X861480Y1304180D01*
X862643Y1306987D01*
X863039Y1310000D01*
X862643Y1313013D01*
X861480Y1315820D01*
X859630Y1318230D01*
X857220Y1320080D01*
X854413Y1321243D01*
X851400Y1321640D01*
D02*
G37*
G36*
X927600D02*
X924587Y1321243D01*
X921780Y1320080D01*
X919370Y1318230D01*
X917520Y1315820D01*
X916357Y1313013D01*
X915960Y1310000D01*
X916357Y1306987D01*
X917520Y1304180D01*
X919370Y1301770D01*
X921780Y1299920D01*
X921952Y1299849D01*
Y1142525D01*
X921480Y1142330D01*
X919070Y1140480D01*
X917220Y1138070D01*
X916057Y1135263D01*
X915660Y1132250D01*
X916057Y1129237D01*
X917220Y1126430D01*
X919070Y1124020D01*
X921480Y1122170D01*
X924287Y1121007D01*
X927300Y1120610D01*
X930312Y1121007D01*
X933120Y1122170D01*
X935530Y1124020D01*
X937380Y1126430D01*
X938543Y1129237D01*
X938940Y1132250D01*
X938543Y1135263D01*
X937380Y1138070D01*
X935530Y1140480D01*
X933249Y1142231D01*
Y1299849D01*
X933420Y1299920D01*
X935830Y1301770D01*
X937680Y1304180D01*
X938843Y1306987D01*
X939240Y1310000D01*
X938843Y1313013D01*
X937680Y1315820D01*
X935830Y1318230D01*
X933420Y1320080D01*
X930612Y1321243D01*
X927600Y1321640D01*
D02*
G37*
G36*
X902200D02*
X899187Y1321243D01*
X896380Y1320080D01*
X893970Y1318230D01*
X892120Y1315820D01*
X890957Y1313013D01*
X890560Y1310000D01*
X890957Y1306987D01*
X892120Y1304180D01*
X893970Y1301770D01*
X896380Y1299920D01*
X896552Y1299849D01*
Y1142525D01*
X896080Y1142330D01*
X893670Y1140480D01*
X891820Y1138070D01*
X890657Y1135263D01*
X890260Y1132250D01*
X890657Y1129237D01*
X891820Y1126430D01*
X893670Y1124020D01*
X896080Y1122170D01*
X898887Y1121007D01*
X901900Y1120610D01*
X904912Y1121007D01*
X907720Y1122170D01*
X910130Y1124020D01*
X911980Y1126430D01*
X913143Y1129237D01*
X913540Y1132250D01*
X913143Y1135263D01*
X911980Y1138070D01*
X910130Y1140480D01*
X907849Y1142231D01*
Y1299849D01*
X908020Y1299920D01*
X910430Y1301770D01*
X912280Y1304180D01*
X913443Y1306987D01*
X913839Y1310000D01*
X913443Y1313013D01*
X912280Y1315820D01*
X910430Y1318230D01*
X908020Y1320080D01*
X905212Y1321243D01*
X902200Y1321640D01*
D02*
G37*
G36*
X876800D02*
X873788Y1321243D01*
X870980Y1320080D01*
X868570Y1318230D01*
X866720Y1315820D01*
X865557Y1313013D01*
X865160Y1310000D01*
X865557Y1306987D01*
X866720Y1304180D01*
X868570Y1301770D01*
X870980Y1299920D01*
X871152Y1299849D01*
Y1142525D01*
X870680Y1142330D01*
X868270Y1140480D01*
X866420Y1138070D01*
X865257Y1135263D01*
X864860Y1132250D01*
X865257Y1129237D01*
X866420Y1126430D01*
X868270Y1124020D01*
X870680Y1122170D01*
X873487Y1121007D01*
X876500Y1120610D01*
X879512Y1121007D01*
X882320Y1122170D01*
X884730Y1124020D01*
X886580Y1126430D01*
X887743Y1129237D01*
X888139Y1132250D01*
X887743Y1135263D01*
X886580Y1138070D01*
X884730Y1140480D01*
X882449Y1142231D01*
Y1299849D01*
X882620Y1299920D01*
X885030Y1301770D01*
X886880Y1304180D01*
X888043Y1306987D01*
X888439Y1310000D01*
X888043Y1313013D01*
X886880Y1315820D01*
X885030Y1318230D01*
X882620Y1320080D01*
X879812Y1321243D01*
X876800Y1321640D01*
D02*
G37*
G36*
X691400D02*
X688388Y1321243D01*
X685580Y1320080D01*
X683170Y1318230D01*
X681320Y1315820D01*
X680157Y1313013D01*
X679761Y1310000D01*
X680157Y1306987D01*
X681320Y1304180D01*
X683170Y1301770D01*
X685580Y1299920D01*
X685751Y1299849D01*
Y1143671D01*
X685609Y1143643D01*
X684769Y1143081D01*
X680269Y1138581D01*
X679707Y1137741D01*
X679510Y1136750D01*
Y1127750D01*
X679707Y1126759D01*
X680269Y1125919D01*
X684769Y1121419D01*
X685609Y1120857D01*
X686600Y1120660D01*
X695600D01*
X696591Y1120857D01*
X697431Y1121419D01*
X701931Y1125919D01*
X702493Y1126759D01*
X702690Y1127750D01*
Y1136750D01*
X702493Y1137741D01*
X701931Y1138581D01*
X697431Y1143081D01*
X697048Y1143337D01*
Y1299849D01*
X697220Y1299920D01*
X699630Y1301770D01*
X701480Y1304180D01*
X702643Y1306987D01*
X703040Y1310000D01*
X702643Y1313013D01*
X701480Y1315820D01*
X699630Y1318230D01*
X697220Y1320080D01*
X694413Y1321243D01*
X691400Y1321640D01*
D02*
G37*
G36*
X767600D02*
X764587Y1321243D01*
X761780Y1320080D01*
X759370Y1318230D01*
X757520Y1315820D01*
X756357Y1313013D01*
X755960Y1310000D01*
X756357Y1306987D01*
X757520Y1304180D01*
X759370Y1301770D01*
X761780Y1299920D01*
X761952Y1299849D01*
Y1142525D01*
X761480Y1142330D01*
X759070Y1140480D01*
X757220Y1138070D01*
X756057Y1135263D01*
X755660Y1132250D01*
X756057Y1129237D01*
X757220Y1126430D01*
X759070Y1124020D01*
X761480Y1122170D01*
X764287Y1121007D01*
X767300Y1120610D01*
X770313Y1121007D01*
X773120Y1122170D01*
X775530Y1124020D01*
X777380Y1126430D01*
X778543Y1129237D01*
X778940Y1132250D01*
X778543Y1135263D01*
X777380Y1138070D01*
X775530Y1140480D01*
X773249Y1142231D01*
Y1299849D01*
X773420Y1299920D01*
X775830Y1301770D01*
X777680Y1304180D01*
X778843Y1306987D01*
X779240Y1310000D01*
X778843Y1313013D01*
X777680Y1315820D01*
X775830Y1318230D01*
X773420Y1320080D01*
X770613Y1321243D01*
X767600Y1321640D01*
D02*
G37*
G36*
X742200D02*
X739187Y1321243D01*
X736380Y1320080D01*
X733970Y1318230D01*
X732120Y1315820D01*
X730957Y1313013D01*
X730561Y1310000D01*
X730957Y1306987D01*
X732120Y1304180D01*
X733970Y1301770D01*
X736380Y1299920D01*
X736552Y1299849D01*
Y1142525D01*
X736080Y1142330D01*
X733670Y1140480D01*
X731820Y1138070D01*
X730657Y1135263D01*
X730260Y1132250D01*
X730657Y1129237D01*
X731820Y1126430D01*
X733670Y1124020D01*
X736080Y1122170D01*
X738887Y1121007D01*
X741900Y1120610D01*
X744913Y1121007D01*
X747720Y1122170D01*
X750130Y1124020D01*
X751980Y1126430D01*
X753143Y1129237D01*
X753540Y1132250D01*
X753143Y1135263D01*
X751980Y1138070D01*
X750130Y1140480D01*
X747849Y1142231D01*
Y1299849D01*
X748020Y1299920D01*
X750430Y1301770D01*
X752280Y1304180D01*
X753443Y1306987D01*
X753840Y1310000D01*
X753443Y1313013D01*
X752280Y1315820D01*
X750430Y1318230D01*
X748020Y1320080D01*
X745213Y1321243D01*
X742200Y1321640D01*
D02*
G37*
G36*
X716800D02*
X713788Y1321243D01*
X710980Y1320080D01*
X708570Y1318230D01*
X706720Y1315820D01*
X705557Y1313013D01*
X705161Y1310000D01*
X705557Y1306987D01*
X706720Y1304180D01*
X708570Y1301770D01*
X710980Y1299920D01*
X711152Y1299849D01*
Y1142525D01*
X710680Y1142330D01*
X708270Y1140480D01*
X706420Y1138070D01*
X705257Y1135263D01*
X704861Y1132250D01*
X705257Y1129237D01*
X706420Y1126430D01*
X708270Y1124020D01*
X710680Y1122170D01*
X713487Y1121007D01*
X716500Y1120610D01*
X719513Y1121007D01*
X722320Y1122170D01*
X724730Y1124020D01*
X726580Y1126430D01*
X727743Y1129237D01*
X728140Y1132250D01*
X727743Y1135263D01*
X726580Y1138070D01*
X724730Y1140480D01*
X722449Y1142231D01*
Y1299849D01*
X722620Y1299920D01*
X725030Y1301770D01*
X726880Y1304180D01*
X728043Y1306987D01*
X728440Y1310000D01*
X728043Y1313013D01*
X726880Y1315820D01*
X725030Y1318230D01*
X722620Y1320080D01*
X719813Y1321243D01*
X716800Y1321640D01*
D02*
G37*
G36*
X420000Y1209240D02*
X416987Y1208843D01*
X414180Y1207680D01*
X411770Y1205830D01*
X409920Y1203420D01*
X408757Y1200612D01*
X408360Y1197600D01*
X408757Y1194587D01*
X409920Y1191780D01*
X411770Y1189370D01*
X414180Y1187520D01*
X416987Y1186357D01*
X420000Y1185960D01*
X423013Y1186357D01*
X425820Y1187520D01*
X428230Y1189370D01*
X430080Y1191780D01*
X430151Y1191952D01*
X587475D01*
X587670Y1191480D01*
X589520Y1189070D01*
X591930Y1187220D01*
X594738Y1186057D01*
X597750Y1185660D01*
X600763Y1186057D01*
X603570Y1187220D01*
X605980Y1189070D01*
X607830Y1191480D01*
X608993Y1194287D01*
X609390Y1197300D01*
X608993Y1200312D01*
X607830Y1203120D01*
X605980Y1205530D01*
X603570Y1207380D01*
X600763Y1208543D01*
X597750Y1208940D01*
X594738Y1208543D01*
X591930Y1207380D01*
X589520Y1205530D01*
X587769Y1203249D01*
X430151D01*
X430080Y1203420D01*
X428230Y1205830D01*
X425820Y1207680D01*
X423013Y1208843D01*
X420000Y1209240D01*
D02*
G37*
G36*
Y1183839D02*
X416987Y1183443D01*
X414180Y1182280D01*
X411770Y1180430D01*
X409920Y1178020D01*
X408757Y1175212D01*
X408360Y1172200D01*
X408757Y1169187D01*
X409920Y1166380D01*
X411770Y1163970D01*
X414180Y1162120D01*
X416987Y1160957D01*
X420000Y1160560D01*
X423013Y1160957D01*
X425820Y1162120D01*
X428230Y1163970D01*
X430080Y1166380D01*
X430151Y1166552D01*
X587475D01*
X587670Y1166080D01*
X589520Y1163670D01*
X591930Y1161820D01*
X594738Y1160657D01*
X597750Y1160260D01*
X600763Y1160657D01*
X603570Y1161820D01*
X605980Y1163670D01*
X607830Y1166080D01*
X608993Y1168887D01*
X609390Y1171900D01*
X608993Y1174912D01*
X607830Y1177720D01*
X605980Y1180130D01*
X603570Y1181980D01*
X600763Y1183143D01*
X597750Y1183540D01*
X594738Y1183143D01*
X591930Y1181980D01*
X589520Y1180130D01*
X587769Y1177849D01*
X430151D01*
X430080Y1178020D01*
X428230Y1180430D01*
X425820Y1182280D01*
X423013Y1183443D01*
X420000Y1183839D01*
D02*
G37*
G36*
Y1158439D02*
X416987Y1158043D01*
X414180Y1156880D01*
X411770Y1155030D01*
X409920Y1152620D01*
X408757Y1149812D01*
X408360Y1146800D01*
X408757Y1143788D01*
X409920Y1140980D01*
X411770Y1138570D01*
X414180Y1136720D01*
X416987Y1135557D01*
X420000Y1135160D01*
X423013Y1135557D01*
X425820Y1136720D01*
X428230Y1138570D01*
X430080Y1140980D01*
X430151Y1141152D01*
X587475D01*
X587670Y1140680D01*
X589520Y1138270D01*
X591930Y1136420D01*
X594738Y1135257D01*
X597750Y1134860D01*
X600763Y1135257D01*
X603570Y1136420D01*
X605980Y1138270D01*
X607830Y1140680D01*
X608993Y1143487D01*
X609390Y1146500D01*
X608993Y1149512D01*
X607830Y1152320D01*
X605980Y1154730D01*
X603570Y1156580D01*
X600763Y1157743D01*
X597750Y1158139D01*
X594738Y1157743D01*
X591930Y1156580D01*
X589520Y1154730D01*
X587769Y1152449D01*
X430151D01*
X430080Y1152620D01*
X428230Y1155030D01*
X425820Y1156880D01*
X423013Y1158043D01*
X420000Y1158439D01*
D02*
G37*
G36*
Y1133039D02*
X416987Y1132643D01*
X414180Y1131480D01*
X411770Y1129630D01*
X409920Y1127220D01*
X408757Y1124413D01*
X408360Y1121400D01*
X408757Y1118388D01*
X409920Y1115580D01*
X411770Y1113170D01*
X414180Y1111320D01*
X416987Y1110157D01*
X420000Y1109760D01*
X423013Y1110157D01*
X425820Y1111320D01*
X428230Y1113170D01*
X430080Y1115580D01*
X430151Y1115751D01*
X586329D01*
X586357Y1115609D01*
X586919Y1114769D01*
X591419Y1110269D01*
X592259Y1109707D01*
X593250Y1109510D01*
X602250D01*
X603241Y1109707D01*
X604081Y1110269D01*
X608581Y1114769D01*
X609143Y1115609D01*
X609340Y1116600D01*
Y1125600D01*
X609143Y1126591D01*
X608581Y1127431D01*
X604081Y1131931D01*
X603241Y1132493D01*
X602250Y1132690D01*
X593250D01*
X592259Y1132493D01*
X591419Y1131931D01*
X586919Y1127431D01*
X586663Y1127048D01*
X430151D01*
X430080Y1127220D01*
X428230Y1129630D01*
X425820Y1131480D01*
X423013Y1132643D01*
X420000Y1133039D01*
D02*
G37*
G36*
X140000Y1209240D02*
X136987Y1208843D01*
X134180Y1207680D01*
X131770Y1205830D01*
X129920Y1203420D01*
X128757Y1200612D01*
X128360Y1197600D01*
X128757Y1194587D01*
X129920Y1191780D01*
X131770Y1189370D01*
X134180Y1187520D01*
X136987Y1186357D01*
X140000Y1185960D01*
X143013Y1186357D01*
X145820Y1187520D01*
X148230Y1189370D01*
X150080Y1191780D01*
X150151Y1191952D01*
X307475D01*
X307670Y1191480D01*
X309520Y1189070D01*
X311930Y1187220D01*
X314737Y1186057D01*
X317750Y1185660D01*
X320763Y1186057D01*
X323570Y1187220D01*
X325980Y1189070D01*
X327830Y1191480D01*
X328993Y1194287D01*
X329390Y1197300D01*
X328993Y1200312D01*
X327830Y1203120D01*
X325980Y1205530D01*
X323570Y1207380D01*
X320763Y1208543D01*
X317750Y1208940D01*
X314737Y1208543D01*
X311930Y1207380D01*
X309520Y1205530D01*
X307769Y1203249D01*
X150151D01*
X150080Y1203420D01*
X148230Y1205830D01*
X145820Y1207680D01*
X143013Y1208843D01*
X140000Y1209240D01*
D02*
G37*
G36*
Y1183839D02*
X136987Y1183443D01*
X134180Y1182280D01*
X131770Y1180430D01*
X129920Y1178020D01*
X128757Y1175212D01*
X128360Y1172200D01*
X128757Y1169187D01*
X129920Y1166380D01*
X131770Y1163970D01*
X134180Y1162120D01*
X136987Y1160957D01*
X140000Y1160560D01*
X143013Y1160957D01*
X145820Y1162120D01*
X148230Y1163970D01*
X150080Y1166380D01*
X150151Y1166552D01*
X307475D01*
X307670Y1166080D01*
X309520Y1163670D01*
X311930Y1161820D01*
X314737Y1160657D01*
X317750Y1160260D01*
X320763Y1160657D01*
X323570Y1161820D01*
X325980Y1163670D01*
X327830Y1166080D01*
X328993Y1168887D01*
X329390Y1171900D01*
X328993Y1174912D01*
X327830Y1177720D01*
X325980Y1180130D01*
X323570Y1181980D01*
X320763Y1183143D01*
X317750Y1183540D01*
X314737Y1183143D01*
X311930Y1181980D01*
X309520Y1180130D01*
X307769Y1177849D01*
X150151D01*
X150080Y1178020D01*
X148230Y1180430D01*
X145820Y1182280D01*
X143013Y1183443D01*
X140000Y1183839D01*
D02*
G37*
G36*
Y1158439D02*
X136987Y1158043D01*
X134180Y1156880D01*
X131770Y1155030D01*
X129920Y1152620D01*
X128757Y1149812D01*
X128360Y1146800D01*
X128757Y1143788D01*
X129920Y1140980D01*
X131770Y1138570D01*
X134180Y1136720D01*
X136987Y1135557D01*
X140000Y1135160D01*
X143013Y1135557D01*
X145820Y1136720D01*
X148230Y1138570D01*
X150080Y1140980D01*
X150151Y1141152D01*
X307475D01*
X307670Y1140680D01*
X309520Y1138270D01*
X311930Y1136420D01*
X314737Y1135257D01*
X317750Y1134860D01*
X320763Y1135257D01*
X323570Y1136420D01*
X325980Y1138270D01*
X327830Y1140680D01*
X328993Y1143487D01*
X329390Y1146500D01*
X328993Y1149512D01*
X327830Y1152320D01*
X325980Y1154730D01*
X323570Y1156580D01*
X320763Y1157743D01*
X317750Y1158139D01*
X314737Y1157743D01*
X311930Y1156580D01*
X309520Y1154730D01*
X307769Y1152449D01*
X150151D01*
X150080Y1152620D01*
X148230Y1155030D01*
X145820Y1156880D01*
X143013Y1158043D01*
X140000Y1158439D01*
D02*
G37*
G36*
Y1133039D02*
X136987Y1132643D01*
X134180Y1131480D01*
X131770Y1129630D01*
X129920Y1127220D01*
X128757Y1124413D01*
X128360Y1121400D01*
X128757Y1118388D01*
X129920Y1115580D01*
X131770Y1113170D01*
X134180Y1111320D01*
X136987Y1110157D01*
X140000Y1109760D01*
X143013Y1110157D01*
X145820Y1111320D01*
X148230Y1113170D01*
X150080Y1115580D01*
X150151Y1115751D01*
X306329D01*
X306357Y1115609D01*
X306919Y1114769D01*
X311419Y1110269D01*
X312259Y1109707D01*
X313250Y1109510D01*
X322250D01*
X323241Y1109707D01*
X324081Y1110269D01*
X328581Y1114769D01*
X329143Y1115609D01*
X329340Y1116600D01*
Y1125600D01*
X329143Y1126591D01*
X328581Y1127431D01*
X324081Y1131931D01*
X323241Y1132493D01*
X322250Y1132690D01*
X313250D01*
X312259Y1132493D01*
X311419Y1131931D01*
X306919Y1127431D01*
X306663Y1127048D01*
X150151D01*
X150080Y1127220D01*
X148230Y1129630D01*
X145820Y1131480D01*
X143013Y1132643D01*
X140000Y1133039D01*
D02*
G37*
G36*
X1181800Y1041639D02*
X1178788Y1041243D01*
X1175980Y1040080D01*
X1173570Y1038230D01*
X1171720Y1035820D01*
X1170557Y1033012D01*
X1170160Y1030000D01*
X1170557Y1026988D01*
X1171720Y1024180D01*
X1173570Y1021770D01*
X1175980Y1019920D01*
X1178788Y1018757D01*
X1181800Y1018360D01*
X1184812Y1018757D01*
X1187620Y1019920D01*
X1190030Y1021770D01*
X1191880Y1024180D01*
X1193043Y1026988D01*
X1193439Y1030000D01*
X1193043Y1033012D01*
X1191880Y1035820D01*
X1190030Y1038230D01*
X1187620Y1040080D01*
X1184812Y1041243D01*
X1181800Y1041639D01*
D02*
G37*
G36*
X1545000Y1055133D02*
X1540286Y1054762D01*
X1535688Y1053658D01*
X1531320Y1051849D01*
X1527288Y1049378D01*
X1523693Y1046307D01*
X1520622Y1042712D01*
X1518151Y1038680D01*
X1516342Y1034312D01*
X1515238Y1029714D01*
X1514867Y1025000D01*
X1515238Y1020286D01*
X1516342Y1015688D01*
X1518151Y1011320D01*
X1520622Y1007288D01*
X1523693Y1003693D01*
X1527288Y1000622D01*
X1531320Y998151D01*
X1535688Y996342D01*
X1540286Y995238D01*
X1545000Y994867D01*
X1549714Y995238D01*
X1554312Y996342D01*
X1558680Y998151D01*
X1562712Y1000622D01*
X1566307Y1003693D01*
X1569378Y1007288D01*
X1571849Y1011320D01*
X1573658Y1015688D01*
X1574762Y1020286D01*
X1575133Y1025000D01*
X1574762Y1029714D01*
X1573658Y1034312D01*
X1571849Y1038680D01*
X1569378Y1042712D01*
X1566307Y1046307D01*
X1562712Y1049378D01*
X1558680Y1051849D01*
X1554312Y1053658D01*
X1549714Y1054762D01*
X1545000Y1055133D01*
D02*
G37*
G36*
X1135000D02*
X1130286Y1054762D01*
X1125688Y1053658D01*
X1121320Y1051849D01*
X1117288Y1049378D01*
X1113693Y1046307D01*
X1110622Y1042712D01*
X1108151Y1038680D01*
X1106342Y1034312D01*
X1105238Y1029714D01*
X1104867Y1025000D01*
X1105238Y1020286D01*
X1106342Y1015688D01*
X1108151Y1011320D01*
X1110622Y1007288D01*
X1113693Y1003693D01*
X1117288Y1000622D01*
X1121320Y998151D01*
X1125688Y996342D01*
X1130286Y995238D01*
X1135000Y994867D01*
X1139714Y995238D01*
X1144312Y996342D01*
X1148680Y998151D01*
X1152712Y1000622D01*
X1156307Y1003693D01*
X1159378Y1007288D01*
X1161849Y1011320D01*
X1163658Y1015688D01*
X1164762Y1020286D01*
X1165133Y1025000D01*
X1164762Y1029714D01*
X1163658Y1034312D01*
X1161849Y1038680D01*
X1159378Y1042712D01*
X1156307Y1046307D01*
X1152712Y1049378D01*
X1148680Y1051849D01*
X1144312Y1053658D01*
X1139714Y1054762D01*
X1135000Y1055133D01*
D02*
G37*
G36*
X1480000Y1027649D02*
X1475581Y1027214D01*
X1471333Y1025925D01*
X1467417Y1023832D01*
X1463985Y1021015D01*
X1461168Y1017583D01*
X1459075Y1013668D01*
X1457786Y1009419D01*
X1457351Y1005000D01*
X1457786Y1000582D01*
X1459075Y996333D01*
X1461168Y992417D01*
X1463985Y988985D01*
X1467417Y986168D01*
X1471333Y984075D01*
X1475581Y982786D01*
X1480000Y982351D01*
X1484419Y982786D01*
X1488667Y984075D01*
X1492583Y986168D01*
X1496015Y988985D01*
X1498832Y992417D01*
X1500925Y996333D01*
X1502214Y1000582D01*
X1502649Y1005000D01*
X1502214Y1009419D01*
X1500925Y1013668D01*
X1498832Y1017583D01*
X1496015Y1021015D01*
X1492583Y1023832D01*
X1488667Y1025925D01*
X1484419Y1027214D01*
X1480000Y1027649D01*
D02*
G37*
G36*
X1310000D02*
X1305581Y1027214D01*
X1301333Y1025925D01*
X1297417Y1023832D01*
X1293985Y1021015D01*
X1291168Y1017583D01*
X1289075Y1013668D01*
X1287786Y1009419D01*
X1287351Y1005000D01*
X1287786Y1000582D01*
X1289075Y996333D01*
X1291168Y992417D01*
X1293985Y988985D01*
X1297417Y986168D01*
X1301333Y984075D01*
X1305581Y982786D01*
X1310000Y982351D01*
X1314419Y982786D01*
X1318667Y984075D01*
X1322583Y986168D01*
X1326015Y988985D01*
X1328832Y992417D01*
X1330925Y996333D01*
X1332214Y1000582D01*
X1332649Y1005000D01*
X1332214Y1009419D01*
X1330925Y1013668D01*
X1328832Y1017583D01*
X1326015Y1021015D01*
X1322583Y1023832D01*
X1318667Y1025925D01*
X1314419Y1027214D01*
X1310000Y1027649D01*
D02*
G37*
G36*
X1519260Y867390D02*
X1516248Y866993D01*
X1513440Y865830D01*
X1511030Y863980D01*
X1509180Y861570D01*
X1508017Y858763D01*
X1507621Y855750D01*
X1508017Y852738D01*
X1509180Y849930D01*
X1511030Y847520D01*
X1513440Y845670D01*
X1516248Y844507D01*
X1519260Y844110D01*
X1522272Y844507D01*
X1525080Y845670D01*
X1527490Y847520D01*
X1528200Y848445D01*
X1529470Y848014D01*
Y838086D01*
X1528200Y837655D01*
X1527490Y838580D01*
X1525080Y840430D01*
X1522272Y841593D01*
X1519260Y841990D01*
X1516248Y841593D01*
X1513440Y840430D01*
X1511030Y838580D01*
X1509180Y836170D01*
X1508017Y833363D01*
X1507621Y830350D01*
X1508017Y827337D01*
X1509180Y824530D01*
X1511030Y822120D01*
X1513440Y820270D01*
X1516248Y819107D01*
X1519260Y818710D01*
X1522272Y819107D01*
X1525080Y820270D01*
X1527490Y822120D01*
X1528200Y823045D01*
X1529470Y822614D01*
Y812686D01*
X1528200Y812255D01*
X1527490Y813180D01*
X1525080Y815030D01*
X1522272Y816193D01*
X1519260Y816590D01*
X1516248Y816193D01*
X1513440Y815030D01*
X1511030Y813180D01*
X1509180Y810770D01*
X1508017Y807962D01*
X1507621Y804950D01*
X1508017Y801937D01*
X1509180Y799130D01*
X1511030Y796720D01*
X1513440Y794870D01*
X1516248Y793707D01*
X1519260Y793310D01*
X1522272Y793707D01*
X1525080Y794870D01*
X1527490Y796720D01*
X1528200Y797645D01*
X1529470Y797214D01*
Y788162D01*
X1528297Y787675D01*
X1525591Y790381D01*
X1524751Y790943D01*
X1523760Y791140D01*
X1514760D01*
X1513769Y790943D01*
X1512929Y790381D01*
X1508429Y785881D01*
X1507867Y785041D01*
X1507670Y784050D01*
Y775050D01*
X1507867Y774059D01*
X1508429Y773219D01*
X1512929Y768719D01*
X1513769Y768157D01*
X1514760Y767960D01*
X1523760D01*
X1524751Y768157D01*
X1525591Y768719D01*
X1530091Y773219D01*
X1530653Y774059D01*
X1530850Y775050D01*
Y781506D01*
X1532060Y782560D01*
X1552060D01*
X1553051Y782757D01*
X1553891Y783319D01*
X1554453Y784159D01*
X1554650Y785150D01*
Y850150D01*
X1554453Y851141D01*
X1553891Y851981D01*
X1553051Y852543D01*
X1552060Y852740D01*
X1532060D01*
X1531777Y852683D01*
X1530624Y853656D01*
X1530900Y855750D01*
X1530503Y858763D01*
X1529340Y861570D01*
X1527490Y863980D01*
X1525080Y865830D01*
X1522272Y866993D01*
X1519260Y867390D01*
D02*
G37*
G36*
X1534505Y727128D02*
X1533495D01*
X1531739Y726779D01*
X1530805Y726392D01*
X1529317Y725398D01*
X1529317Y725398D01*
X1528602Y724683D01*
X1528602Y724683D01*
X1527608Y723195D01*
X1527221Y722261D01*
X1526872Y720505D01*
Y720250D01*
X1526822Y720000D01*
X1526872Y719750D01*
Y719495D01*
X1527221Y717739D01*
X1527608Y716805D01*
X1528602Y715317D01*
X1528602Y715317D01*
X1529317Y714602D01*
X1529317Y714602D01*
X1530805Y713608D01*
X1531739Y713221D01*
X1533495Y712872D01*
X1534505D01*
X1536261Y713221D01*
X1537195Y713608D01*
X1538683Y714602D01*
X1538683Y714602D01*
X1539398Y715317D01*
X1539398Y715317D01*
X1540392Y716805D01*
X1540779Y717739D01*
X1541128Y719495D01*
Y719750D01*
X1541178Y720000D01*
X1541128Y720250D01*
Y720505D01*
X1540779Y722261D01*
X1540392Y723195D01*
X1539398Y724683D01*
X1539398Y724683D01*
X1538683Y725398D01*
X1538683Y725398D01*
X1537195Y726392D01*
X1536261Y726779D01*
X1534505Y727128D01*
D02*
G37*
G36*
Y697128D02*
X1533495D01*
X1531739Y696779D01*
X1530805Y696392D01*
X1529317Y695398D01*
X1529317Y695398D01*
X1528602Y694683D01*
X1528602Y694683D01*
X1527608Y693195D01*
X1527221Y692261D01*
X1526872Y690505D01*
Y690250D01*
X1526822Y690000D01*
X1526872Y689750D01*
Y689495D01*
X1527221Y687739D01*
X1527608Y686805D01*
X1528602Y685317D01*
X1528602Y685317D01*
X1529317Y684602D01*
X1529317Y684602D01*
X1530805Y683608D01*
X1531739Y683221D01*
X1533495Y682872D01*
X1534505D01*
X1536261Y683221D01*
X1537195Y683608D01*
X1538683Y684602D01*
X1538683Y684602D01*
X1539398Y685317D01*
X1539398Y685317D01*
X1540392Y686805D01*
X1540779Y687739D01*
X1541128Y689495D01*
Y689750D01*
X1541178Y690000D01*
X1541128Y690250D01*
Y690505D01*
X1540779Y692261D01*
X1540392Y693195D01*
X1539398Y694683D01*
X1539398Y694683D01*
X1538683Y695398D01*
X1538683Y695398D01*
X1537195Y696392D01*
X1536261Y696779D01*
X1534505Y697128D01*
D02*
G37*
G36*
X1185940Y683190D02*
X1176940D01*
X1175949Y682993D01*
X1175109Y682431D01*
X1170609Y677931D01*
X1170047Y677091D01*
X1169850Y676100D01*
Y667100D01*
X1170047Y666109D01*
X1170609Y665269D01*
X1175109Y660769D01*
X1175949Y660207D01*
X1176940Y660010D01*
X1185940D01*
X1186931Y660207D01*
X1187771Y660769D01*
X1192271Y665269D01*
X1192833Y666109D01*
X1193030Y667100D01*
Y676100D01*
X1192833Y677091D01*
X1192271Y677931D01*
X1187771Y682431D01*
X1186931Y682993D01*
X1185940Y683190D01*
D02*
G37*
G36*
X1258000Y1041639D02*
X1254987Y1041243D01*
X1252180Y1040080D01*
X1249770Y1038230D01*
X1247920Y1035820D01*
X1246757Y1033012D01*
X1246360Y1030000D01*
X1246757Y1026988D01*
X1247920Y1024180D01*
X1249770Y1021770D01*
X1252180Y1019920D01*
X1252451Y1019808D01*
Y681942D01*
X1251820Y681680D01*
X1249410Y679830D01*
X1247560Y677420D01*
X1246397Y674613D01*
X1246001Y671600D01*
X1246397Y668587D01*
X1247560Y665780D01*
X1249410Y663370D01*
X1251820Y661520D01*
X1254628Y660357D01*
X1257640Y659960D01*
X1260652Y660357D01*
X1263460Y661520D01*
X1265870Y663370D01*
X1267720Y665780D01*
X1268883Y668587D01*
X1269280Y671600D01*
X1268883Y674613D01*
X1267720Y677420D01*
X1265870Y679830D01*
X1263748Y681459D01*
Y1019890D01*
X1263820Y1019920D01*
X1266230Y1021770D01*
X1268080Y1024180D01*
X1269243Y1026988D01*
X1269640Y1030000D01*
X1269243Y1033012D01*
X1268080Y1035820D01*
X1266230Y1038230D01*
X1263820Y1040080D01*
X1261012Y1041243D01*
X1258000Y1041639D01*
D02*
G37*
G36*
X1232600D02*
X1229587Y1041243D01*
X1226780Y1040080D01*
X1224370Y1038230D01*
X1222520Y1035820D01*
X1221357Y1033012D01*
X1220960Y1030000D01*
X1221357Y1026988D01*
X1222520Y1024180D01*
X1224370Y1021770D01*
X1226351Y1020249D01*
Y681942D01*
X1225720Y681680D01*
X1223310Y679830D01*
X1221460Y677420D01*
X1220297Y674613D01*
X1219901Y671600D01*
X1220297Y668587D01*
X1221460Y665780D01*
X1223310Y663370D01*
X1225720Y661520D01*
X1228528Y660357D01*
X1231540Y659960D01*
X1234553Y660357D01*
X1237360Y661520D01*
X1239770Y663370D01*
X1241620Y665780D01*
X1242783Y668587D01*
X1243180Y671600D01*
X1242783Y674613D01*
X1241620Y677420D01*
X1239770Y679830D01*
X1237648Y681459D01*
Y1019600D01*
X1238420Y1019920D01*
X1240830Y1021770D01*
X1242680Y1024180D01*
X1243843Y1026988D01*
X1244240Y1030000D01*
X1243843Y1033012D01*
X1242680Y1035820D01*
X1240830Y1038230D01*
X1238420Y1040080D01*
X1235612Y1041243D01*
X1232600Y1041639D01*
D02*
G37*
G36*
X1207200D02*
X1204187Y1041243D01*
X1201380Y1040080D01*
X1198970Y1038230D01*
X1197120Y1035820D01*
X1195957Y1033012D01*
X1195560Y1030000D01*
X1195957Y1026988D01*
X1197120Y1024180D01*
X1198970Y1021770D01*
X1201380Y1019920D01*
X1201652Y1019808D01*
Y681942D01*
X1201020Y681680D01*
X1198610Y679830D01*
X1196760Y677420D01*
X1195597Y674613D01*
X1195201Y671600D01*
X1195597Y668587D01*
X1196760Y665780D01*
X1198610Y663370D01*
X1201020Y661520D01*
X1203828Y660357D01*
X1206840Y659960D01*
X1209853Y660357D01*
X1212660Y661520D01*
X1215070Y663370D01*
X1216920Y665780D01*
X1218083Y668587D01*
X1218480Y671600D01*
X1218083Y674613D01*
X1216920Y677420D01*
X1215070Y679830D01*
X1212949Y681459D01*
Y1019890D01*
X1213020Y1019920D01*
X1215430Y1021770D01*
X1217280Y1024180D01*
X1218443Y1026988D01*
X1218839Y1030000D01*
X1218443Y1033012D01*
X1217280Y1035820D01*
X1215430Y1038230D01*
X1213020Y1040080D01*
X1210212Y1041243D01*
X1207200Y1041639D01*
D02*
G37*
G36*
X1480000Y657649D02*
X1475581Y657214D01*
X1471333Y655925D01*
X1467417Y653832D01*
X1463985Y651015D01*
X1461168Y647583D01*
X1459075Y643668D01*
X1457786Y639419D01*
X1457351Y635000D01*
X1457786Y630582D01*
X1459075Y626333D01*
X1461168Y622417D01*
X1463985Y618985D01*
X1467417Y616168D01*
X1471333Y614075D01*
X1475581Y612786D01*
X1480000Y612351D01*
X1484419Y612786D01*
X1488667Y614075D01*
X1492583Y616168D01*
X1496015Y618985D01*
X1498832Y622417D01*
X1500925Y626333D01*
X1502214Y630582D01*
X1502649Y635000D01*
X1502214Y639419D01*
X1500925Y643668D01*
X1498832Y647583D01*
X1496015Y651015D01*
X1492583Y653832D01*
X1488667Y655925D01*
X1484419Y657214D01*
X1480000Y657649D01*
D02*
G37*
G36*
X1310000D02*
X1305581Y657214D01*
X1301333Y655925D01*
X1297417Y653832D01*
X1293985Y651015D01*
X1291168Y647583D01*
X1289075Y643668D01*
X1287786Y639419D01*
X1287351Y635000D01*
X1287786Y630582D01*
X1289075Y626333D01*
X1291168Y622417D01*
X1293985Y618985D01*
X1297417Y616168D01*
X1301333Y614075D01*
X1305581Y612786D01*
X1310000Y612351D01*
X1314419Y612786D01*
X1318667Y614075D01*
X1322583Y616168D01*
X1326015Y618985D01*
X1328832Y622417D01*
X1330925Y626333D01*
X1332214Y630582D01*
X1332649Y635000D01*
X1332214Y639419D01*
X1330925Y643668D01*
X1328832Y647583D01*
X1326015Y651015D01*
X1322583Y653832D01*
X1318667Y655925D01*
X1314419Y657214D01*
X1310000Y657649D01*
D02*
G37*
G36*
X1545000Y645133D02*
X1540286Y644762D01*
X1535688Y643658D01*
X1531320Y641849D01*
X1527288Y639378D01*
X1523693Y636307D01*
X1520622Y632712D01*
X1518151Y628680D01*
X1516342Y624312D01*
X1515238Y619714D01*
X1514867Y615000D01*
X1515238Y610286D01*
X1516342Y605689D01*
X1518151Y601320D01*
X1520622Y597288D01*
X1523693Y593693D01*
X1527288Y590622D01*
X1531320Y588152D01*
X1535688Y586342D01*
X1540286Y585238D01*
X1545000Y584867D01*
X1549714Y585238D01*
X1554312Y586342D01*
X1558680Y588152D01*
X1562712Y590622D01*
X1566307Y593693D01*
X1569378Y597288D01*
X1571849Y601320D01*
X1573658Y605689D01*
X1574762Y610286D01*
X1575133Y615000D01*
X1574762Y619714D01*
X1573658Y624312D01*
X1571849Y628680D01*
X1569378Y632712D01*
X1566307Y636307D01*
X1562712Y639378D01*
X1558680Y641849D01*
X1554312Y643658D01*
X1549714Y644762D01*
X1545000Y645133D01*
D02*
G37*
G36*
X1135000D02*
X1130286Y644762D01*
X1125688Y643658D01*
X1121320Y641849D01*
X1117288Y639378D01*
X1113693Y636307D01*
X1110622Y632712D01*
X1108151Y628680D01*
X1106342Y624312D01*
X1105238Y619714D01*
X1104867Y615000D01*
X1105238Y610286D01*
X1106342Y605689D01*
X1108151Y601320D01*
X1110622Y597288D01*
X1113693Y593693D01*
X1117288Y590622D01*
X1121320Y588152D01*
X1125688Y586342D01*
X1130286Y585238D01*
X1135000Y584867D01*
X1139714Y585238D01*
X1144312Y586342D01*
X1148680Y588152D01*
X1152712Y590622D01*
X1156307Y593693D01*
X1159378Y597288D01*
X1161849Y601320D01*
X1163658Y605689D01*
X1164762Y610286D01*
X1165133Y615000D01*
X1164762Y619714D01*
X1163658Y624312D01*
X1161849Y628680D01*
X1159378Y632712D01*
X1156307Y636307D01*
X1152712Y639378D01*
X1148680Y641849D01*
X1144312Y643658D01*
X1139714Y644762D01*
X1135000Y645133D01*
D02*
G37*
G36*
X332500Y1035390D02*
X267500D01*
X266509Y1035193D01*
X265669Y1034631D01*
X265107Y1033791D01*
X264910Y1032800D01*
Y1012800D01*
X264967Y1012517D01*
X263994Y1011364D01*
X261900Y1011640D01*
X258888Y1011243D01*
X256080Y1010080D01*
X253670Y1008230D01*
X251820Y1005820D01*
X250657Y1003012D01*
X250261Y1000000D01*
X250657Y996988D01*
X251820Y994180D01*
X253670Y991770D01*
X256080Y989920D01*
X258888Y988757D01*
X261900Y988361D01*
X264913Y988757D01*
X267720Y989920D01*
X270130Y991770D01*
X271980Y994180D01*
X273143Y996988D01*
X273540Y1000000D01*
X273143Y1003012D01*
X271980Y1005820D01*
X270130Y1008230D01*
X269205Y1008940D01*
X269636Y1010210D01*
X279564D01*
X279995Y1008940D01*
X279070Y1008230D01*
X277220Y1005820D01*
X276057Y1003012D01*
X275660Y1000000D01*
X276057Y996988D01*
X277220Y994180D01*
X279070Y991770D01*
X281480Y989920D01*
X284287Y988757D01*
X287300Y988361D01*
X290313Y988757D01*
X293120Y989920D01*
X295530Y991770D01*
X297380Y994180D01*
X298543Y996988D01*
X298940Y1000000D01*
X298543Y1003012D01*
X297380Y1005820D01*
X295530Y1008230D01*
X294605Y1008940D01*
X295037Y1010210D01*
X304964D01*
X305395Y1008940D01*
X304470Y1008230D01*
X302620Y1005820D01*
X301457Y1003012D01*
X301061Y1000000D01*
X301457Y996988D01*
X302620Y994180D01*
X304470Y991770D01*
X306880Y989920D01*
X309688Y988757D01*
X312700Y988361D01*
X315713Y988757D01*
X318520Y989920D01*
X320930Y991770D01*
X322780Y994180D01*
X323943Y996988D01*
X324340Y1000000D01*
X323943Y1003012D01*
X322780Y1005820D01*
X320930Y1008230D01*
X320005Y1008940D01*
X320437Y1010210D01*
X329488D01*
X329975Y1009037D01*
X327269Y1006331D01*
X326707Y1005491D01*
X326510Y1004500D01*
Y995500D01*
X326707Y994509D01*
X327269Y993669D01*
X331769Y989169D01*
X332609Y988607D01*
X333600Y988410D01*
X342600D01*
X343591Y988607D01*
X344431Y989169D01*
X348931Y993669D01*
X349493Y994509D01*
X349690Y995500D01*
Y1004500D01*
X349493Y1005491D01*
X348931Y1006331D01*
X344431Y1010831D01*
X343591Y1011393D01*
X342600Y1011590D01*
X336144D01*
X335090Y1012800D01*
Y1032800D01*
X334893Y1033791D01*
X334331Y1034631D01*
X333491Y1035193D01*
X332500Y1035390D01*
D02*
G37*
G36*
X505000Y1055133D02*
X500286Y1054762D01*
X495688Y1053658D01*
X491320Y1051849D01*
X487288Y1049378D01*
X483693Y1046307D01*
X480622Y1042712D01*
X478151Y1038680D01*
X476342Y1034312D01*
X475238Y1029714D01*
X474867Y1025000D01*
X475238Y1020286D01*
X476342Y1015688D01*
X478151Y1011320D01*
X480622Y1007288D01*
X483693Y1003693D01*
X487288Y1000622D01*
X491320Y998151D01*
X495688Y996342D01*
X500286Y995238D01*
X505000Y994867D01*
X509714Y995238D01*
X514311Y996342D01*
X518680Y998151D01*
X522712Y1000622D01*
X526307Y1003693D01*
X529378Y1007288D01*
X531848Y1011320D01*
X533658Y1015688D01*
X534762Y1020286D01*
X535133Y1025000D01*
X534762Y1029714D01*
X533658Y1034312D01*
X531848Y1038680D01*
X529378Y1042712D01*
X526307Y1046307D01*
X522712Y1049378D01*
X518680Y1051849D01*
X514311Y1053658D01*
X509714Y1054762D01*
X505000Y1055133D01*
D02*
G37*
G36*
X95000D02*
X90286Y1054762D01*
X85688Y1053658D01*
X81320Y1051849D01*
X77288Y1049378D01*
X73693Y1046307D01*
X70622Y1042712D01*
X68151Y1038680D01*
X66342Y1034312D01*
X65238Y1029714D01*
X64867Y1025000D01*
X65238Y1020286D01*
X66342Y1015688D01*
X68151Y1011320D01*
X70622Y1007288D01*
X73693Y1003693D01*
X77288Y1000622D01*
X81320Y998151D01*
X85688Y996342D01*
X90286Y995238D01*
X95000Y994867D01*
X99714Y995238D01*
X104312Y996342D01*
X108680Y998151D01*
X112712Y1000622D01*
X116307Y1003693D01*
X119378Y1007288D01*
X121848Y1011320D01*
X123658Y1015688D01*
X124762Y1020286D01*
X125133Y1025000D01*
X124762Y1029714D01*
X123658Y1034312D01*
X121848Y1038680D01*
X119378Y1042712D01*
X116307Y1046307D01*
X112712Y1049378D01*
X108680Y1051849D01*
X104312Y1053658D01*
X99714Y1054762D01*
X95000Y1055133D01*
D02*
G37*
G36*
X195395Y1007178D02*
X195145Y1007128D01*
X194890D01*
X193134Y1006779D01*
X192200Y1006392D01*
X190712Y1005398D01*
X190712Y1005398D01*
X189997Y1004683D01*
X189997Y1004683D01*
X189003Y1003195D01*
X188616Y1002261D01*
X188267Y1000505D01*
Y999495D01*
X188616Y997739D01*
X189003Y996805D01*
X189997Y995317D01*
X189997Y995317D01*
X190712Y994602D01*
X190712Y994602D01*
X192200Y993608D01*
X193134Y993221D01*
X194890Y992872D01*
X195145D01*
X195395Y992822D01*
X195645Y992872D01*
X195900D01*
X197656Y993221D01*
X198589Y993608D01*
X200078Y994602D01*
X200078Y994602D01*
X200792Y995317D01*
X200793Y995317D01*
X201787Y996805D01*
X202174Y997739D01*
X202523Y999495D01*
Y1000505D01*
X202174Y1002261D01*
X201787Y1003195D01*
X200793Y1004683D01*
X200792Y1004683D01*
X200078Y1005398D01*
X200078Y1005398D01*
X198589Y1006392D01*
X197656Y1006779D01*
X195900Y1007128D01*
X195645D01*
X195395Y1007178D01*
D02*
G37*
G36*
X165395D02*
X165145Y1007128D01*
X164890D01*
X163134Y1006779D01*
X162200Y1006392D01*
X160712Y1005398D01*
X160712Y1005398D01*
X159997Y1004683D01*
X159997Y1004683D01*
X159003Y1003195D01*
X158616Y1002261D01*
X158267Y1000505D01*
Y999495D01*
X158616Y997739D01*
X159003Y996805D01*
X159997Y995317D01*
X159997Y995317D01*
X160712Y994602D01*
X160712Y994602D01*
X162200Y993608D01*
X163134Y993221D01*
X164890Y992872D01*
X165145D01*
X165395Y992822D01*
X165645Y992872D01*
X165900D01*
X167656Y993221D01*
X168589Y993608D01*
X170078Y994602D01*
X170078Y994602D01*
X170792Y995317D01*
X170793Y995317D01*
X171787Y996805D01*
X172174Y997739D01*
X172523Y999495D01*
Y1000505D01*
X172174Y1002261D01*
X171787Y1003195D01*
X170793Y1004683D01*
X170792Y1004683D01*
X170078Y1005398D01*
X170078Y1005398D01*
X168589Y1006392D01*
X167656Y1006779D01*
X165900Y1007128D01*
X165645D01*
X165395Y1007178D01*
D02*
G37*
G36*
X485000Y952649D02*
X480581Y952214D01*
X476333Y950925D01*
X472417Y948832D01*
X468985Y946015D01*
X466168Y942583D01*
X464075Y938667D01*
X462786Y934419D01*
X462351Y930000D01*
X462786Y925581D01*
X464075Y921333D01*
X466168Y917417D01*
X468985Y913985D01*
X472417Y911168D01*
X476333Y909075D01*
X480581Y907786D01*
X485000Y907351D01*
X489419Y907786D01*
X493667Y909075D01*
X497583Y911168D01*
X501015Y913985D01*
X503832Y917417D01*
X505925Y921333D01*
X507214Y925581D01*
X507649Y930000D01*
X507214Y934419D01*
X505925Y938667D01*
X503832Y942583D01*
X501015Y946015D01*
X497583Y948832D01*
X493667Y950925D01*
X489419Y952214D01*
X485000Y952649D01*
D02*
G37*
G36*
X115000D02*
X110581Y952214D01*
X106333Y950925D01*
X102417Y948832D01*
X98985Y946015D01*
X96168Y942583D01*
X94075Y938667D01*
X92786Y934419D01*
X92351Y930000D01*
X92786Y925581D01*
X94075Y921333D01*
X96168Y917417D01*
X98985Y913985D01*
X102417Y911168D01*
X106333Y909075D01*
X110581Y907786D01*
X115000Y907351D01*
X119419Y907786D01*
X123667Y909075D01*
X127583Y911168D01*
X131015Y913985D01*
X133832Y917417D01*
X135925Y921333D01*
X137214Y925581D01*
X137649Y930000D01*
X137214Y934419D01*
X135925Y938667D01*
X133832Y942583D01*
X131015Y946015D01*
X127583Y948832D01*
X123667Y950925D01*
X119419Y952214D01*
X115000Y952649D01*
D02*
G37*
G36*
X485000Y732649D02*
X480581Y732214D01*
X476333Y730925D01*
X472417Y728832D01*
X468985Y726015D01*
X466168Y722583D01*
X464075Y718667D01*
X462786Y714419D01*
X462351Y710000D01*
X462786Y705581D01*
X464075Y701333D01*
X466168Y697417D01*
X468985Y693985D01*
X472417Y691168D01*
X476333Y689075D01*
X480581Y687786D01*
X485000Y687351D01*
X489419Y687786D01*
X493667Y689075D01*
X497583Y691168D01*
X501015Y693985D01*
X503832Y697417D01*
X505925Y701333D01*
X507214Y705581D01*
X507649Y710000D01*
X507214Y714419D01*
X505925Y718667D01*
X503832Y722583D01*
X501015Y726015D01*
X497583Y728832D01*
X493667Y730925D01*
X489419Y732214D01*
X485000Y732649D01*
D02*
G37*
G36*
X115000D02*
X110581Y732214D01*
X106333Y730925D01*
X102417Y728832D01*
X98985Y726015D01*
X96168Y722583D01*
X94075Y718667D01*
X92786Y714419D01*
X92351Y710000D01*
X92786Y705581D01*
X94075Y701333D01*
X96168Y697417D01*
X98985Y693985D01*
X102417Y691168D01*
X106333Y689075D01*
X110581Y687786D01*
X115000Y687351D01*
X119419Y687786D01*
X123667Y689075D01*
X127583Y691168D01*
X131015Y693985D01*
X133832Y697417D01*
X135925Y701333D01*
X137214Y705581D01*
X137649Y710000D01*
X137214Y714419D01*
X135925Y718667D01*
X133832Y722583D01*
X131015Y726015D01*
X127583Y728832D01*
X123667Y730925D01*
X119419Y732214D01*
X115000Y732649D01*
D02*
G37*
G36*
X505000Y645133D02*
X500286Y644762D01*
X495688Y643658D01*
X491320Y641849D01*
X487288Y639378D01*
X483693Y636307D01*
X480622Y632712D01*
X478151Y628680D01*
X476342Y624312D01*
X475238Y619714D01*
X474867Y615000D01*
X475238Y610286D01*
X476342Y605688D01*
X478151Y601320D01*
X480622Y597288D01*
X483693Y593693D01*
X487288Y590622D01*
X491320Y588151D01*
X495688Y586342D01*
X500286Y585238D01*
X505000Y584867D01*
X509714Y585238D01*
X514311Y586342D01*
X518680Y588151D01*
X522712Y590622D01*
X526307Y593693D01*
X529378Y597288D01*
X531848Y601320D01*
X533658Y605688D01*
X534762Y610286D01*
X535133Y615000D01*
X534762Y619714D01*
X533658Y624312D01*
X531848Y628680D01*
X529378Y632712D01*
X526307Y636307D01*
X522712Y639378D01*
X518680Y641849D01*
X514311Y643658D01*
X509714Y644762D01*
X505000Y645133D01*
D02*
G37*
G36*
X95000D02*
X90286Y644762D01*
X85688Y643658D01*
X81320Y641849D01*
X77288Y639378D01*
X73693Y636307D01*
X70622Y632712D01*
X68151Y628680D01*
X66342Y624312D01*
X65238Y619714D01*
X64867Y615000D01*
X65238Y610286D01*
X66342Y605688D01*
X68151Y601320D01*
X70622Y597288D01*
X73693Y593693D01*
X77288Y590622D01*
X81320Y588151D01*
X85688Y586342D01*
X90286Y585238D01*
X95000Y584867D01*
X99714Y585238D01*
X104312Y586342D01*
X108680Y588151D01*
X112712Y590622D01*
X116307Y593693D01*
X119378Y597288D01*
X121848Y601320D01*
X123658Y605688D01*
X124762Y610286D01*
X125133Y615000D01*
X124762Y619714D01*
X123658Y624312D01*
X121848Y628680D01*
X119378Y632712D01*
X116307Y636307D01*
X112712Y639378D01*
X108680Y641849D01*
X104312Y643658D01*
X99714Y644762D01*
X95000Y645133D01*
D02*
G37*
G36*
X852500Y1035390D02*
X787500D01*
X786509Y1035193D01*
X785669Y1034631D01*
X785107Y1033791D01*
X784910Y1032800D01*
Y1012800D01*
X784967Y1012517D01*
X783994Y1011364D01*
X781900Y1011639D01*
X778887Y1011243D01*
X776080Y1010080D01*
X773670Y1008230D01*
X771820Y1005820D01*
X770657Y1003012D01*
X770260Y1000000D01*
X770657Y996987D01*
X771820Y994180D01*
X773670Y991770D01*
X776080Y989920D01*
X778887Y988757D01*
X781900Y988360D01*
X784913Y988757D01*
X787720Y989920D01*
X790130Y991770D01*
X791980Y994180D01*
X793143Y996987D01*
X793540Y1000000D01*
X793143Y1003012D01*
X791980Y1005820D01*
X790130Y1008230D01*
X789205Y1008940D01*
X789637Y1010210D01*
X799564D01*
X799995Y1008940D01*
X799070Y1008230D01*
X797220Y1005820D01*
X796057Y1003012D01*
X795660Y1000000D01*
X796057Y996987D01*
X797220Y994180D01*
X799070Y991770D01*
X801480Y989920D01*
X804287Y988757D01*
X807300Y988360D01*
X810313Y988757D01*
X813120Y989920D01*
X815530Y991770D01*
X817380Y994180D01*
X818543Y996987D01*
X818940Y1000000D01*
X818543Y1003012D01*
X817380Y1005820D01*
X815530Y1008230D01*
X814605Y1008940D01*
X815036Y1010210D01*
X824964D01*
X825395Y1008940D01*
X824470Y1008230D01*
X822620Y1005820D01*
X821457Y1003012D01*
X821060Y1000000D01*
X821457Y996987D01*
X822620Y994180D01*
X824470Y991770D01*
X826880Y989920D01*
X829688Y988757D01*
X832700Y988360D01*
X835713Y988757D01*
X838520Y989920D01*
X840930Y991770D01*
X842780Y994180D01*
X843943Y996987D01*
X844340Y1000000D01*
X843943Y1003012D01*
X842780Y1005820D01*
X840930Y1008230D01*
X840005Y1008940D01*
X840436Y1010210D01*
X849488D01*
X849975Y1009037D01*
X847269Y1006331D01*
X846707Y1005491D01*
X846510Y1004500D01*
Y995500D01*
X846707Y994509D01*
X847269Y993669D01*
X851769Y989169D01*
X852609Y988607D01*
X853600Y988410D01*
X862600D01*
X863591Y988607D01*
X864431Y989169D01*
X868931Y993669D01*
X869493Y994509D01*
X869690Y995500D01*
Y1004500D01*
X869493Y1005491D01*
X868931Y1006331D01*
X864431Y1010831D01*
X863591Y1011393D01*
X862600Y1011590D01*
X856144D01*
X855090Y1012800D01*
Y1032800D01*
X854893Y1033791D01*
X854331Y1034631D01*
X853491Y1035193D01*
X852500Y1035390D01*
D02*
G37*
G36*
X1025000Y1055133D02*
X1020286Y1054762D01*
X1015688Y1053658D01*
X1011320Y1051849D01*
X1007288Y1049378D01*
X1003693Y1046307D01*
X1000622Y1042712D01*
X998151Y1038680D01*
X996342Y1034312D01*
X995238Y1029714D01*
X994867Y1025000D01*
X995238Y1020286D01*
X996342Y1015688D01*
X998151Y1011320D01*
X1000622Y1007288D01*
X1003693Y1003693D01*
X1007288Y1000622D01*
X1011320Y998151D01*
X1015688Y996342D01*
X1020286Y995238D01*
X1025000Y994867D01*
X1029714Y995238D01*
X1034312Y996342D01*
X1038680Y998151D01*
X1042712Y1000622D01*
X1046307Y1003693D01*
X1049378Y1007288D01*
X1051849Y1011320D01*
X1053658Y1015688D01*
X1054762Y1020286D01*
X1055133Y1025000D01*
X1054762Y1029714D01*
X1053658Y1034312D01*
X1051849Y1038680D01*
X1049378Y1042712D01*
X1046307Y1046307D01*
X1042712Y1049378D01*
X1038680Y1051849D01*
X1034312Y1053658D01*
X1029714Y1054762D01*
X1025000Y1055133D01*
D02*
G37*
G36*
X615000D02*
X610286Y1054762D01*
X605688Y1053658D01*
X601320Y1051849D01*
X597288Y1049378D01*
X593693Y1046307D01*
X590622Y1042712D01*
X588151Y1038680D01*
X586342Y1034312D01*
X585238Y1029714D01*
X584867Y1025000D01*
X585238Y1020286D01*
X586342Y1015688D01*
X588151Y1011320D01*
X590622Y1007288D01*
X593693Y1003693D01*
X597288Y1000622D01*
X601320Y998151D01*
X605688Y996342D01*
X610286Y995238D01*
X615000Y994867D01*
X619714Y995238D01*
X624311Y996342D01*
X628680Y998151D01*
X632712Y1000622D01*
X636307Y1003693D01*
X639378Y1007288D01*
X641849Y1011320D01*
X643658Y1015688D01*
X644762Y1020286D01*
X645133Y1025000D01*
X644762Y1029714D01*
X643658Y1034312D01*
X641849Y1038680D01*
X639378Y1042712D01*
X636307Y1046307D01*
X632712Y1049378D01*
X628680Y1051849D01*
X624311Y1053658D01*
X619714Y1054762D01*
X615000Y1055133D01*
D02*
G37*
G36*
X715395Y1007178D02*
X715145Y1007128D01*
X714890D01*
X713134Y1006779D01*
X712200Y1006392D01*
X710712Y1005398D01*
X710712Y1005398D01*
X709997Y1004683D01*
X709997Y1004683D01*
X709003Y1003195D01*
X708616Y1002261D01*
X708267Y1000505D01*
Y999495D01*
X708616Y997739D01*
X709003Y996805D01*
X709997Y995317D01*
X709997Y995317D01*
X710712Y994602D01*
X710712Y994602D01*
X712200Y993608D01*
X713134Y993221D01*
X714890Y992872D01*
X715145D01*
X715395Y992822D01*
X715645Y992872D01*
X715900D01*
X717656Y993221D01*
X718589Y993608D01*
X720078Y994602D01*
X720078Y994602D01*
X720792Y995317D01*
X720792Y995317D01*
X721787Y996805D01*
X722174Y997739D01*
X722523Y999495D01*
Y1000505D01*
X722174Y1002261D01*
X721787Y1003195D01*
X720792Y1004683D01*
X720792Y1004683D01*
X720078Y1005398D01*
X720078Y1005398D01*
X718589Y1006392D01*
X717656Y1006779D01*
X715900Y1007128D01*
X715645D01*
X715395Y1007178D01*
D02*
G37*
G36*
X685395D02*
X685145Y1007128D01*
X684890D01*
X683134Y1006779D01*
X682200Y1006392D01*
X680712Y1005398D01*
X680712Y1005398D01*
X679997Y1004683D01*
X679997Y1004683D01*
X679003Y1003195D01*
X678616Y1002261D01*
X678267Y1000505D01*
Y999495D01*
X678616Y997739D01*
X679003Y996805D01*
X679997Y995317D01*
X679997Y995317D01*
X680712Y994602D01*
X680712Y994602D01*
X682200Y993608D01*
X683134Y993221D01*
X684890Y992872D01*
X685145D01*
X685395Y992822D01*
X685645Y992872D01*
X685900D01*
X687656Y993221D01*
X688589Y993608D01*
X690078Y994602D01*
X690078Y994602D01*
X690792Y995317D01*
X690792Y995317D01*
X691787Y996805D01*
X692174Y997739D01*
X692523Y999495D01*
Y1000505D01*
X692174Y1002261D01*
X691787Y1003195D01*
X690792Y1004683D01*
X690792Y1004683D01*
X690078Y1005398D01*
X690078Y1005398D01*
X688589Y1006392D01*
X687656Y1006779D01*
X685900Y1007128D01*
X685645D01*
X685395Y1007178D01*
D02*
G37*
G36*
X1005000Y927649D02*
X1000581Y927214D01*
X996333Y925925D01*
X992417Y923832D01*
X988985Y921015D01*
X986168Y917583D01*
X984075Y913667D01*
X982786Y909419D01*
X982351Y905000D01*
X982786Y900581D01*
X984075Y896332D01*
X986168Y892417D01*
X988985Y888985D01*
X992417Y886168D01*
X996333Y884075D01*
X1000581Y882786D01*
X1005000Y882351D01*
X1009419Y882786D01*
X1013667Y884075D01*
X1017583Y886168D01*
X1021015Y888985D01*
X1023832Y892417D01*
X1025925Y896332D01*
X1027214Y900581D01*
X1027649Y905000D01*
X1027214Y909419D01*
X1025925Y913667D01*
X1023832Y917583D01*
X1021015Y921015D01*
X1017583Y923832D01*
X1013667Y925925D01*
X1009419Y927214D01*
X1005000Y927649D01*
D02*
G37*
G36*
X635000D02*
X630581Y927214D01*
X626333Y925925D01*
X622417Y923832D01*
X618985Y921015D01*
X616168Y917583D01*
X614075Y913667D01*
X612786Y909419D01*
X612351Y905000D01*
X612786Y900581D01*
X614075Y896332D01*
X616168Y892417D01*
X618985Y888985D01*
X622417Y886168D01*
X626333Y884075D01*
X630581Y882786D01*
X635000Y882351D01*
X639419Y882786D01*
X643667Y884075D01*
X647583Y886168D01*
X651015Y888985D01*
X653832Y892417D01*
X655925Y896332D01*
X657214Y900581D01*
X657649Y905000D01*
X657214Y909419D01*
X655925Y913667D01*
X653832Y917583D01*
X651015Y921015D01*
X647583Y923832D01*
X643667Y925925D01*
X639419Y927214D01*
X635000Y927649D01*
D02*
G37*
G36*
X1005000Y757649D02*
X1000581Y757214D01*
X996333Y755925D01*
X992417Y753832D01*
X988985Y751015D01*
X986168Y747583D01*
X984075Y743667D01*
X982786Y739419D01*
X982351Y735000D01*
X982786Y730581D01*
X984075Y726333D01*
X986168Y722417D01*
X988985Y718985D01*
X992417Y716168D01*
X996333Y714075D01*
X1000581Y712786D01*
X1005000Y712351D01*
X1009419Y712786D01*
X1013667Y714075D01*
X1017583Y716168D01*
X1021015Y718985D01*
X1023832Y722417D01*
X1025925Y726333D01*
X1027214Y730581D01*
X1027649Y735000D01*
X1027214Y739419D01*
X1025925Y743667D01*
X1023832Y747583D01*
X1021015Y751015D01*
X1017583Y753832D01*
X1013667Y755925D01*
X1009419Y757214D01*
X1005000Y757649D01*
D02*
G37*
G36*
X635000D02*
X630581Y757214D01*
X626333Y755925D01*
X622417Y753832D01*
X618985Y751015D01*
X616168Y747583D01*
X614075Y743667D01*
X612786Y739419D01*
X612351Y735000D01*
X612786Y730581D01*
X614075Y726333D01*
X616168Y722417D01*
X618985Y718985D01*
X622417Y716168D01*
X626333Y714075D01*
X630581Y712786D01*
X635000Y712351D01*
X639419Y712786D01*
X643667Y714075D01*
X647583Y716168D01*
X651015Y718985D01*
X653832Y722417D01*
X655925Y726333D01*
X657214Y730581D01*
X657649Y735000D01*
X657214Y739419D01*
X655925Y743667D01*
X653832Y747583D01*
X651015Y751015D01*
X647583Y753832D01*
X643667Y755925D01*
X639419Y757214D01*
X635000Y757649D01*
D02*
G37*
G36*
X1025000Y645133D02*
X1020286Y644762D01*
X1015688Y643658D01*
X1011320Y641849D01*
X1007288Y639378D01*
X1003693Y636307D01*
X1000622Y632712D01*
X998151Y628680D01*
X996342Y624312D01*
X995238Y619714D01*
X994867Y615000D01*
X995238Y610286D01*
X996342Y605688D01*
X998151Y601320D01*
X1000622Y597288D01*
X1003693Y593693D01*
X1007288Y590622D01*
X1011320Y588151D01*
X1015688Y586342D01*
X1020286Y585238D01*
X1025000Y584867D01*
X1029714Y585238D01*
X1034312Y586342D01*
X1038680Y588151D01*
X1042712Y590622D01*
X1046307Y593693D01*
X1049378Y597288D01*
X1051849Y601320D01*
X1053658Y605688D01*
X1054762Y610286D01*
X1055133Y615000D01*
X1054762Y619714D01*
X1053658Y624312D01*
X1051849Y628680D01*
X1049378Y632712D01*
X1046307Y636307D01*
X1042712Y639378D01*
X1038680Y641849D01*
X1034312Y643658D01*
X1029714Y644762D01*
X1025000Y645133D01*
D02*
G37*
G36*
X615000D02*
X610286Y644762D01*
X605688Y643658D01*
X601320Y641849D01*
X597288Y639378D01*
X593693Y636307D01*
X590622Y632712D01*
X588151Y628680D01*
X586342Y624312D01*
X585238Y619714D01*
X584867Y615000D01*
X585238Y610286D01*
X586342Y605688D01*
X588151Y601320D01*
X590622Y597288D01*
X593693Y593693D01*
X597288Y590622D01*
X601320Y588151D01*
X605688Y586342D01*
X610286Y585238D01*
X615000Y584867D01*
X619714Y585238D01*
X624311Y586342D01*
X628680Y588151D01*
X632712Y590622D01*
X636307Y593693D01*
X639378Y597288D01*
X641849Y601320D01*
X643658Y605688D01*
X644762Y610286D01*
X645133Y615000D01*
X644762Y619714D01*
X643658Y624312D01*
X641849Y628680D01*
X639378Y632712D01*
X636307Y636307D01*
X632712Y639378D01*
X628680Y641849D01*
X624311Y643658D01*
X619714Y644762D01*
X615000Y645133D01*
D02*
G37*
G36*
X1181900Y521139D02*
X1178887Y520743D01*
X1176080Y519580D01*
X1173670Y517730D01*
X1171820Y515320D01*
X1170657Y512513D01*
X1170260Y509500D01*
X1170657Y506488D01*
X1171820Y503680D01*
X1173670Y501270D01*
X1176080Y499420D01*
X1178887Y498257D01*
X1181900Y497860D01*
X1184913Y498257D01*
X1187720Y499420D01*
X1190130Y501270D01*
X1191980Y503680D01*
X1193143Y506488D01*
X1193540Y509500D01*
X1193143Y512513D01*
X1191980Y515320D01*
X1190130Y517730D01*
X1187720Y519580D01*
X1184913Y520743D01*
X1181900Y521139D01*
D02*
G37*
G36*
X1545000Y535133D02*
X1540286Y534762D01*
X1535688Y533658D01*
X1531320Y531849D01*
X1527288Y529378D01*
X1523693Y526307D01*
X1520622Y522712D01*
X1518151Y518680D01*
X1516342Y514312D01*
X1515238Y509714D01*
X1514867Y505000D01*
X1515238Y500286D01*
X1516342Y495689D01*
X1518151Y491320D01*
X1520622Y487288D01*
X1523693Y483693D01*
X1527288Y480622D01*
X1531320Y478152D01*
X1535688Y476342D01*
X1540286Y475238D01*
X1545000Y474867D01*
X1549714Y475238D01*
X1554312Y476342D01*
X1558680Y478152D01*
X1562712Y480622D01*
X1566307Y483693D01*
X1569378Y487288D01*
X1571849Y491320D01*
X1573658Y495689D01*
X1574762Y500286D01*
X1575133Y505000D01*
X1574762Y509714D01*
X1573658Y514312D01*
X1571849Y518680D01*
X1569378Y522712D01*
X1566307Y526307D01*
X1562712Y529378D01*
X1558680Y531849D01*
X1554312Y533658D01*
X1549714Y534762D01*
X1545000Y535133D01*
D02*
G37*
G36*
X1135000D02*
X1130286Y534762D01*
X1125688Y533658D01*
X1121320Y531849D01*
X1117288Y529378D01*
X1113693Y526307D01*
X1110622Y522712D01*
X1108151Y518680D01*
X1106342Y514312D01*
X1105238Y509714D01*
X1104867Y505000D01*
X1105238Y500286D01*
X1106342Y495689D01*
X1108151Y491320D01*
X1110622Y487288D01*
X1113693Y483693D01*
X1117288Y480622D01*
X1121320Y478152D01*
X1125688Y476342D01*
X1130286Y475238D01*
X1135000Y474867D01*
X1139714Y475238D01*
X1144312Y476342D01*
X1148680Y478152D01*
X1152712Y480622D01*
X1156307Y483693D01*
X1159378Y487288D01*
X1161849Y491320D01*
X1163658Y495689D01*
X1164762Y500286D01*
X1165133Y505000D01*
X1164762Y509714D01*
X1163658Y514312D01*
X1161849Y518680D01*
X1159378Y522712D01*
X1156307Y526307D01*
X1152712Y529378D01*
X1148680Y531849D01*
X1144312Y533658D01*
X1139714Y534762D01*
X1135000Y535133D01*
D02*
G37*
G36*
X1480000Y507649D02*
X1475581Y507214D01*
X1471333Y505925D01*
X1467417Y503832D01*
X1463985Y501015D01*
X1461168Y497583D01*
X1459075Y493667D01*
X1457786Y489419D01*
X1457351Y485000D01*
X1457786Y480582D01*
X1459075Y476333D01*
X1461168Y472417D01*
X1463985Y468985D01*
X1467417Y466168D01*
X1471333Y464075D01*
X1475581Y462786D01*
X1480000Y462351D01*
X1484419Y462786D01*
X1488667Y464075D01*
X1492583Y466168D01*
X1496015Y468985D01*
X1498832Y472417D01*
X1500925Y476333D01*
X1502214Y480582D01*
X1502649Y485000D01*
X1502214Y489419D01*
X1500925Y493667D01*
X1498832Y497583D01*
X1496015Y501015D01*
X1492583Y503832D01*
X1488667Y505925D01*
X1484419Y507214D01*
X1480000Y507649D01*
D02*
G37*
G36*
X1310000D02*
X1305581Y507214D01*
X1301333Y505925D01*
X1297417Y503832D01*
X1293985Y501015D01*
X1291168Y497583D01*
X1289075Y493667D01*
X1287786Y489419D01*
X1287351Y485000D01*
X1287786Y480582D01*
X1289075Y476333D01*
X1291168Y472417D01*
X1293985Y468985D01*
X1297417Y466168D01*
X1301333Y464075D01*
X1305581Y462786D01*
X1310000Y462351D01*
X1314419Y462786D01*
X1318667Y464075D01*
X1322583Y466168D01*
X1326015Y468985D01*
X1328832Y472417D01*
X1330925Y476333D01*
X1332214Y480582D01*
X1332649Y485000D01*
X1332214Y489419D01*
X1330925Y493667D01*
X1328832Y497583D01*
X1326015Y501015D01*
X1322583Y503832D01*
X1318667Y505925D01*
X1314419Y507214D01*
X1310000Y507649D01*
D02*
G37*
G36*
X1520000Y348250D02*
X1516987Y347853D01*
X1514180Y346690D01*
X1511770Y344841D01*
X1509920Y342430D01*
X1508757Y339623D01*
X1508360Y336610D01*
X1508757Y333598D01*
X1509920Y330790D01*
X1511770Y328380D01*
X1514180Y326530D01*
X1516987Y325367D01*
X1520000Y324971D01*
X1523013Y325367D01*
X1525820Y326530D01*
X1528230Y328380D01*
X1528940Y329305D01*
X1530210Y328874D01*
Y318947D01*
X1528940Y318515D01*
X1528230Y319441D01*
X1525820Y321290D01*
X1523013Y322453D01*
X1520000Y322850D01*
X1516987Y322453D01*
X1514180Y321290D01*
X1511770Y319441D01*
X1509920Y317030D01*
X1508757Y314223D01*
X1508360Y311210D01*
X1508757Y308198D01*
X1509920Y305390D01*
X1511770Y302980D01*
X1514180Y301130D01*
X1516987Y299967D01*
X1520000Y299571D01*
X1523013Y299967D01*
X1525820Y301130D01*
X1528230Y302980D01*
X1528940Y303905D01*
X1530210Y303474D01*
Y293547D01*
X1528940Y293116D01*
X1528230Y294041D01*
X1525820Y295890D01*
X1523013Y297053D01*
X1520000Y297450D01*
X1516987Y297053D01*
X1514180Y295890D01*
X1511770Y294041D01*
X1509920Y291630D01*
X1508757Y288823D01*
X1508360Y285810D01*
X1508757Y282798D01*
X1509920Y279990D01*
X1511770Y277580D01*
X1514180Y275730D01*
X1516987Y274567D01*
X1520000Y274171D01*
X1523013Y274567D01*
X1525820Y275730D01*
X1528230Y277580D01*
X1528940Y278505D01*
X1530210Y278074D01*
Y269022D01*
X1529037Y268536D01*
X1526331Y271241D01*
X1525491Y271803D01*
X1524500Y272000D01*
X1515500D01*
X1514509Y271803D01*
X1513669Y271241D01*
X1509169Y266741D01*
X1508607Y265901D01*
X1508410Y264910D01*
Y255910D01*
X1508607Y254919D01*
X1509169Y254079D01*
X1513669Y249579D01*
X1514509Y249018D01*
X1515500Y248820D01*
X1524500D01*
X1525491Y249018D01*
X1526331Y249579D01*
X1530831Y254079D01*
X1531393Y254919D01*
X1531590Y255910D01*
Y262366D01*
X1532800Y263420D01*
X1552800D01*
X1553791Y263617D01*
X1554631Y264179D01*
X1555193Y265019D01*
X1555390Y266010D01*
Y331010D01*
X1555193Y332001D01*
X1554631Y332841D01*
X1553791Y333403D01*
X1552800Y333600D01*
X1532800D01*
X1532517Y333544D01*
X1531364Y334517D01*
X1531640Y336610D01*
X1531243Y339623D01*
X1530080Y342430D01*
X1528230Y344841D01*
X1525820Y346690D01*
X1523013Y347853D01*
X1520000Y348250D01*
D02*
G37*
G36*
X1534505Y209733D02*
X1533495D01*
X1531739Y209384D01*
X1530805Y208997D01*
X1529317Y208003D01*
X1529317Y208003D01*
X1528602Y207288D01*
X1528602Y207288D01*
X1527608Y205800D01*
X1527221Y204866D01*
X1526872Y203110D01*
Y202855D01*
X1526822Y202605D01*
X1526872Y202355D01*
Y202100D01*
X1527221Y200344D01*
X1527608Y199411D01*
X1528602Y197922D01*
X1528602Y197922D01*
X1529317Y197208D01*
X1529317Y197208D01*
X1530805Y196213D01*
X1531739Y195826D01*
X1533495Y195477D01*
X1534505D01*
X1536261Y195826D01*
X1537195Y196213D01*
X1538683Y197208D01*
X1538683Y197208D01*
X1539398Y197922D01*
X1539398Y197922D01*
X1540392Y199411D01*
X1540779Y200344D01*
X1541128Y202100D01*
Y202355D01*
X1541178Y202605D01*
X1541128Y202855D01*
Y203110D01*
X1540779Y204866D01*
X1540392Y205800D01*
X1539398Y207288D01*
X1539398Y207288D01*
X1538683Y208003D01*
X1538683Y208003D01*
X1537195Y208997D01*
X1536261Y209384D01*
X1534505Y209733D01*
D02*
G37*
G36*
Y179733D02*
X1533495D01*
X1531739Y179384D01*
X1530805Y178997D01*
X1529317Y178003D01*
X1529317Y178003D01*
X1528602Y177288D01*
X1528602Y177288D01*
X1527608Y175800D01*
X1527221Y174866D01*
X1526872Y173110D01*
Y172855D01*
X1526822Y172605D01*
X1526872Y172355D01*
Y172100D01*
X1527221Y170344D01*
X1527608Y169411D01*
X1528602Y167922D01*
X1528602Y167922D01*
X1529317Y167208D01*
X1529317Y167208D01*
X1530805Y166213D01*
X1531739Y165826D01*
X1533495Y165477D01*
X1534505D01*
X1536261Y165826D01*
X1537195Y166213D01*
X1538683Y167208D01*
X1538683Y167208D01*
X1539398Y167922D01*
X1539398Y167922D01*
X1540392Y169411D01*
X1540779Y170344D01*
X1541128Y172100D01*
Y172355D01*
X1541178Y172605D01*
X1541128Y172855D01*
Y173110D01*
X1540779Y174866D01*
X1540392Y175800D01*
X1539398Y177288D01*
X1539398Y177288D01*
X1538683Y178003D01*
X1538683Y178003D01*
X1537195Y178997D01*
X1536261Y179384D01*
X1534505Y179733D01*
D02*
G37*
G36*
X1186400Y163590D02*
X1177400D01*
X1176409Y163393D01*
X1175569Y162831D01*
X1171069Y158331D01*
X1170507Y157491D01*
X1170310Y156500D01*
Y147500D01*
X1170507Y146509D01*
X1171069Y145669D01*
X1175569Y141169D01*
X1176409Y140607D01*
X1177400Y140410D01*
X1186400D01*
X1187391Y140607D01*
X1188231Y141169D01*
X1192731Y145669D01*
X1193293Y146509D01*
X1193490Y147500D01*
Y156500D01*
X1193293Y157491D01*
X1192731Y158331D01*
X1188231Y162831D01*
X1187391Y163393D01*
X1186400Y163590D01*
D02*
G37*
G36*
X1258100Y521139D02*
X1255088Y520743D01*
X1252280Y519580D01*
X1249870Y517730D01*
X1248020Y515320D01*
X1246857Y512513D01*
X1246460Y509500D01*
X1246857Y506488D01*
X1248020Y503680D01*
X1249870Y501270D01*
X1252280Y499420D01*
X1252451Y499349D01*
Y162151D01*
X1252280Y162080D01*
X1249870Y160230D01*
X1248020Y157820D01*
X1246857Y155013D01*
X1246460Y152000D01*
X1246857Y148988D01*
X1248020Y146180D01*
X1249870Y143770D01*
X1252280Y141920D01*
X1255088Y140757D01*
X1258100Y140360D01*
X1261113Y140757D01*
X1263920Y141920D01*
X1266330Y143770D01*
X1268180Y146180D01*
X1269343Y148988D01*
X1269740Y152000D01*
X1269343Y155013D01*
X1268180Y157820D01*
X1266330Y160230D01*
X1263920Y162080D01*
X1263749Y162151D01*
Y499349D01*
X1263920Y499420D01*
X1266330Y501270D01*
X1268180Y503680D01*
X1269343Y506488D01*
X1269740Y509500D01*
X1269343Y512513D01*
X1268180Y515320D01*
X1266330Y517730D01*
X1263920Y519580D01*
X1261113Y520743D01*
X1258100Y521139D01*
D02*
G37*
G36*
X1232700D02*
X1229688Y520743D01*
X1226880Y519580D01*
X1224470Y517730D01*
X1222620Y515320D01*
X1221457Y512513D01*
X1221060Y509500D01*
X1221457Y506488D01*
X1222620Y503680D01*
X1224470Y501270D01*
X1226351Y499826D01*
Y162151D01*
X1226180Y162080D01*
X1223770Y160230D01*
X1221920Y157820D01*
X1220757Y155013D01*
X1220360Y152000D01*
X1220757Y148988D01*
X1221920Y146180D01*
X1223770Y143770D01*
X1226180Y141920D01*
X1228988Y140757D01*
X1232000Y140360D01*
X1235013Y140757D01*
X1237820Y141920D01*
X1240230Y143770D01*
X1242080Y146180D01*
X1243243Y148988D01*
X1243640Y152000D01*
X1243243Y155013D01*
X1242080Y157820D01*
X1240230Y160230D01*
X1237820Y162080D01*
X1237649Y162151D01*
Y499059D01*
X1238520Y499420D01*
X1240930Y501270D01*
X1242780Y503680D01*
X1243943Y506488D01*
X1244340Y509500D01*
X1243943Y512513D01*
X1242780Y515320D01*
X1240930Y517730D01*
X1238520Y519580D01*
X1235713Y520743D01*
X1232700Y521139D01*
D02*
G37*
G36*
X1207300D02*
X1204287Y520743D01*
X1201480Y519580D01*
X1199070Y517730D01*
X1197220Y515320D01*
X1196057Y512513D01*
X1195660Y509500D01*
X1196057Y506488D01*
X1197220Y503680D01*
X1199070Y501270D01*
X1201480Y499420D01*
X1201652Y499349D01*
Y162151D01*
X1201480Y162080D01*
X1199070Y160230D01*
X1197220Y157820D01*
X1196057Y155013D01*
X1195660Y152000D01*
X1196057Y148988D01*
X1197220Y146180D01*
X1199070Y143770D01*
X1201480Y141920D01*
X1204287Y140757D01*
X1207300Y140360D01*
X1210313Y140757D01*
X1213120Y141920D01*
X1215530Y143770D01*
X1217380Y146180D01*
X1218543Y148988D01*
X1218940Y152000D01*
X1218543Y155013D01*
X1217380Y157820D01*
X1215530Y160230D01*
X1213120Y162080D01*
X1212949Y162151D01*
Y499349D01*
X1213120Y499420D01*
X1215530Y501270D01*
X1217380Y503680D01*
X1218543Y506488D01*
X1218940Y509500D01*
X1218543Y512513D01*
X1217380Y515320D01*
X1215530Y517730D01*
X1213120Y519580D01*
X1210313Y520743D01*
X1207300Y521139D01*
D02*
G37*
G36*
X1480000Y137649D02*
X1475581Y137214D01*
X1471333Y135925D01*
X1467417Y133832D01*
X1463985Y131015D01*
X1461168Y127583D01*
X1459075Y123667D01*
X1457786Y119419D01*
X1457351Y115000D01*
X1457786Y110582D01*
X1459075Y106333D01*
X1461168Y102417D01*
X1463985Y98985D01*
X1467417Y96168D01*
X1471333Y94075D01*
X1475581Y92786D01*
X1480000Y92351D01*
X1484419Y92786D01*
X1488667Y94075D01*
X1492583Y96168D01*
X1496015Y98985D01*
X1498832Y102417D01*
X1500925Y106333D01*
X1502214Y110582D01*
X1502649Y115000D01*
X1502214Y119419D01*
X1500925Y123667D01*
X1498832Y127583D01*
X1496015Y131015D01*
X1492583Y133832D01*
X1488667Y135925D01*
X1484419Y137214D01*
X1480000Y137649D01*
D02*
G37*
G36*
X1310000D02*
X1305581Y137214D01*
X1301333Y135925D01*
X1297417Y133832D01*
X1293985Y131015D01*
X1291168Y127583D01*
X1289075Y123667D01*
X1287786Y119419D01*
X1287351Y115000D01*
X1287786Y110582D01*
X1289075Y106333D01*
X1291168Y102417D01*
X1293985Y98985D01*
X1297417Y96168D01*
X1301333Y94075D01*
X1305581Y92786D01*
X1310000Y92351D01*
X1314419Y92786D01*
X1318667Y94075D01*
X1322583Y96168D01*
X1326015Y98985D01*
X1328832Y102417D01*
X1330925Y106333D01*
X1332214Y110582D01*
X1332649Y115000D01*
X1332214Y119419D01*
X1330925Y123667D01*
X1328832Y127583D01*
X1326015Y131015D01*
X1322583Y133832D01*
X1318667Y135925D01*
X1314419Y137214D01*
X1310000Y137649D01*
D02*
G37*
G36*
X1545000Y125133D02*
X1540286Y124762D01*
X1535688Y123658D01*
X1531320Y121849D01*
X1527288Y119378D01*
X1523693Y116307D01*
X1520622Y112712D01*
X1518151Y108680D01*
X1516342Y104312D01*
X1515238Y99714D01*
X1514867Y95000D01*
X1515238Y90286D01*
X1516342Y85688D01*
X1518151Y81320D01*
X1520622Y77288D01*
X1523693Y73693D01*
X1527288Y70622D01*
X1531320Y68151D01*
X1535688Y66342D01*
X1540286Y65238D01*
X1545000Y64867D01*
X1549714Y65238D01*
X1554312Y66342D01*
X1558680Y68151D01*
X1562712Y70622D01*
X1566307Y73693D01*
X1569378Y77288D01*
X1571849Y81320D01*
X1573658Y85688D01*
X1574762Y90286D01*
X1575133Y95000D01*
X1574762Y99714D01*
X1573658Y104312D01*
X1571849Y108680D01*
X1569378Y112712D01*
X1566307Y116307D01*
X1562712Y119378D01*
X1558680Y121849D01*
X1554312Y123658D01*
X1549714Y124762D01*
X1545000Y125133D01*
D02*
G37*
G36*
X1135000D02*
X1130286Y124762D01*
X1125688Y123658D01*
X1121320Y121849D01*
X1117288Y119378D01*
X1113693Y116307D01*
X1110622Y112712D01*
X1108151Y108680D01*
X1106342Y104312D01*
X1105238Y99714D01*
X1104867Y95000D01*
X1105238Y90286D01*
X1106342Y85688D01*
X1108151Y81320D01*
X1110622Y77288D01*
X1113693Y73693D01*
X1117288Y70622D01*
X1121320Y68151D01*
X1125688Y66342D01*
X1130286Y65238D01*
X1135000Y64867D01*
X1139714Y65238D01*
X1144312Y66342D01*
X1148680Y68151D01*
X1152712Y70622D01*
X1156307Y73693D01*
X1159378Y77288D01*
X1161849Y81320D01*
X1163658Y85688D01*
X1164762Y90286D01*
X1165133Y95000D01*
X1164762Y99714D01*
X1163658Y104312D01*
X1161849Y108680D01*
X1159378Y112712D01*
X1156307Y116307D01*
X1152712Y119378D01*
X1148680Y121849D01*
X1144312Y123658D01*
X1139714Y124762D01*
X1135000Y125133D01*
D02*
G37*
G36*
X661440Y521139D02*
X658428Y520743D01*
X655620Y519580D01*
X653210Y517730D01*
X651360Y515320D01*
X650197Y512513D01*
X649800Y509500D01*
X650197Y506488D01*
X651360Y503680D01*
X653210Y501270D01*
X655620Y499420D01*
X658428Y498257D01*
X661440Y497860D01*
X664453Y498257D01*
X667260Y499420D01*
X669670Y501270D01*
X671520Y503680D01*
X672683Y506488D01*
X673080Y509500D01*
X672683Y512513D01*
X671520Y515320D01*
X669670Y517730D01*
X667260Y519580D01*
X664453Y520743D01*
X661440Y521139D01*
D02*
G37*
G36*
X1025000Y535133D02*
X1020286Y534762D01*
X1015688Y533658D01*
X1011320Y531849D01*
X1007288Y529378D01*
X1003693Y526307D01*
X1000622Y522712D01*
X998151Y518680D01*
X996342Y514312D01*
X995238Y509714D01*
X994867Y505000D01*
X995238Y500286D01*
X996342Y495689D01*
X998151Y491320D01*
X1000622Y487288D01*
X1003693Y483693D01*
X1007288Y480622D01*
X1011320Y478152D01*
X1015688Y476342D01*
X1020286Y475238D01*
X1025000Y474867D01*
X1029714Y475238D01*
X1034312Y476342D01*
X1038680Y478152D01*
X1042712Y480622D01*
X1046307Y483693D01*
X1049378Y487288D01*
X1051849Y491320D01*
X1053658Y495689D01*
X1054762Y500286D01*
X1055133Y505000D01*
X1054762Y509714D01*
X1053658Y514312D01*
X1051849Y518680D01*
X1049378Y522712D01*
X1046307Y526307D01*
X1042712Y529378D01*
X1038680Y531849D01*
X1034312Y533658D01*
X1029714Y534762D01*
X1025000Y535133D01*
D02*
G37*
G36*
X615000D02*
X610286Y534762D01*
X605689Y533658D01*
X601320Y531849D01*
X597288Y529378D01*
X593693Y526307D01*
X590622Y522712D01*
X588151Y518680D01*
X586342Y514312D01*
X585238Y509714D01*
X584867Y505000D01*
X585238Y500286D01*
X586342Y495689D01*
X588151Y491320D01*
X590622Y487288D01*
X593693Y483693D01*
X597288Y480622D01*
X601320Y478152D01*
X605689Y476342D01*
X610286Y475238D01*
X615000Y474867D01*
X619714Y475238D01*
X624312Y476342D01*
X628680Y478152D01*
X632712Y480622D01*
X636307Y483693D01*
X639378Y487288D01*
X641849Y491320D01*
X643658Y495689D01*
X644762Y500286D01*
X645133Y505000D01*
X644762Y509714D01*
X643658Y514312D01*
X641849Y518680D01*
X639378Y522712D01*
X636307Y526307D01*
X632712Y529378D01*
X628680Y531849D01*
X624312Y533658D01*
X619714Y534762D01*
X615000Y535133D01*
D02*
G37*
G36*
X737640Y521139D02*
X734628Y520743D01*
X731820Y519580D01*
X729410Y517730D01*
X727560Y515320D01*
X726397Y512513D01*
X726001Y509500D01*
X726397Y506488D01*
X727560Y503680D01*
X729410Y501270D01*
X731820Y499420D01*
X732501Y499138D01*
Y445139D01*
X730033D01*
X728066Y444748D01*
X726399Y443634D01*
X711691Y428926D01*
X710577Y427259D01*
X710186Y425292D01*
Y420154D01*
X704409Y414376D01*
X704227Y414385D01*
X703139Y414782D01*
Y425872D01*
X714427Y437160D01*
X715874Y438126D01*
X716988Y439794D01*
X717379Y441760D01*
Y499138D01*
X718060Y499420D01*
X720470Y501270D01*
X722320Y503680D01*
X723483Y506488D01*
X723880Y509500D01*
X723483Y512513D01*
X722320Y515320D01*
X720470Y517730D01*
X718060Y519580D01*
X715253Y520743D01*
X712240Y521139D01*
X709228Y520743D01*
X706420Y519580D01*
X704010Y517730D01*
X702160Y515320D01*
X700997Y512513D01*
X700601Y509500D01*
X700997Y506488D01*
X702160Y503680D01*
X704010Y501270D01*
X706420Y499420D01*
X707101Y499138D01*
Y444369D01*
X694366Y431634D01*
X694219Y431412D01*
X692949Y431798D01*
Y499641D01*
X695070Y501270D01*
X696920Y503680D01*
X698083Y506488D01*
X698480Y509500D01*
X698083Y512513D01*
X696920Y515320D01*
X695070Y517730D01*
X692660Y519580D01*
X689853Y520743D01*
X686840Y521139D01*
X683828Y520743D01*
X681020Y519580D01*
X678610Y517730D01*
X676760Y515320D01*
X675597Y512513D01*
X675201Y509500D01*
X675597Y506488D01*
X676760Y503680D01*
X678610Y501270D01*
X681020Y499420D01*
X681652Y499158D01*
Y162151D01*
X681480Y162080D01*
X679070Y160230D01*
X677220Y157820D01*
X676057Y155013D01*
X675660Y152000D01*
X676057Y148988D01*
X677220Y146180D01*
X679070Y143770D01*
X681480Y141920D01*
X684287Y140757D01*
X687300Y140360D01*
X690313Y140757D01*
X693120Y141920D01*
X695530Y143770D01*
X697380Y146180D01*
X698543Y148988D01*
X698940Y152000D01*
X698543Y155013D01*
X697566Y157370D01*
X698643Y158090D01*
X701039Y155694D01*
X700757Y155013D01*
X700360Y152000D01*
X700757Y148988D01*
X701920Y146180D01*
X703770Y143770D01*
X706180Y141920D01*
X708988Y140757D01*
X712000Y140360D01*
X715013Y140757D01*
X717820Y141920D01*
X720230Y143770D01*
X722080Y146180D01*
X723243Y148988D01*
X723640Y152000D01*
X723243Y155013D01*
X722080Y157820D01*
X720230Y160230D01*
X717820Y162080D01*
X715013Y163243D01*
X712000Y163640D01*
X708988Y163243D01*
X708306Y162961D01*
X703139Y168129D01*
Y178018D01*
X704227Y178416D01*
X704409Y178424D01*
X727139Y155694D01*
X726857Y155013D01*
X726460Y152000D01*
X726857Y148988D01*
X728020Y146180D01*
X729870Y143770D01*
X732280Y141920D01*
X735088Y140757D01*
X738100Y140360D01*
X741113Y140757D01*
X743920Y141920D01*
X746330Y143770D01*
X748180Y146180D01*
X749343Y148988D01*
X749740Y152000D01*
X749343Y155013D01*
X748180Y157820D01*
X746624Y159848D01*
X746748Y160033D01*
X747139Y162000D01*
X746748Y163967D01*
X745634Y165634D01*
X744334Y166502D01*
X744391Y167364D01*
X744554Y167827D01*
X748667Y169075D01*
X752583Y171168D01*
X756015Y173985D01*
X758832Y177417D01*
X760925Y181333D01*
X762214Y185581D01*
X762649Y190000D01*
X762214Y194419D01*
X760925Y198667D01*
X758832Y202583D01*
X756015Y206015D01*
X752583Y208832D01*
X748667Y210925D01*
X744419Y212214D01*
X740000Y212649D01*
X735581Y212214D01*
X731333Y210925D01*
X727417Y208832D01*
X723985Y206015D01*
X721168Y202583D01*
X719075Y198667D01*
X717786Y194419D01*
X717351Y190000D01*
X717786Y185581D01*
X719075Y181333D01*
X720504Y178660D01*
X719473Y177895D01*
X713139Y184228D01*
Y408572D01*
X716322Y411755D01*
X717470Y411212D01*
X717351Y410000D01*
X717786Y405581D01*
X719075Y401333D01*
X721168Y397417D01*
X723985Y393985D01*
X727417Y391168D01*
X731333Y389075D01*
X735581Y387786D01*
X740000Y387351D01*
X744419Y387786D01*
X748667Y389075D01*
X752583Y391168D01*
X756015Y393985D01*
X758832Y397417D01*
X760925Y401333D01*
X762214Y405581D01*
X762649Y410000D01*
X762214Y414419D01*
X760925Y418667D01*
X758832Y422583D01*
X756015Y426015D01*
X752583Y428832D01*
X748667Y430925D01*
X744419Y432214D01*
X740000Y432649D01*
X735581Y432214D01*
X731333Y430925D01*
X728515Y429419D01*
X727750Y430450D01*
X732161Y434861D01*
X737640D01*
X739606Y435252D01*
X741274Y436366D01*
X742388Y438033D01*
X742779Y440000D01*
Y499138D01*
X743460Y499420D01*
X745870Y501270D01*
X747720Y503680D01*
X748883Y506488D01*
X749280Y509500D01*
X748883Y512513D01*
X747720Y515320D01*
X745870Y517730D01*
X743460Y519580D01*
X740652Y520743D01*
X737640Y521139D01*
D02*
G37*
G36*
X960000Y432649D02*
X955581Y432214D01*
X951333Y430925D01*
X947417Y428832D01*
X943985Y426015D01*
X941168Y422583D01*
X939075Y418667D01*
X937786Y414419D01*
X937351Y410000D01*
X937786Y405581D01*
X939075Y401333D01*
X941168Y397417D01*
X943985Y393985D01*
X947417Y391168D01*
X951333Y389075D01*
X955581Y387786D01*
X960000Y387351D01*
X964419Y387786D01*
X968667Y389075D01*
X972583Y391168D01*
X976015Y393985D01*
X978832Y397417D01*
X980925Y401333D01*
X982214Y405581D01*
X982649Y410000D01*
X982214Y414419D01*
X980925Y418667D01*
X978832Y422583D01*
X976015Y426015D01*
X972583Y428832D01*
X968667Y430925D01*
X964419Y432214D01*
X960000Y432649D01*
D02*
G37*
G36*
X1000000Y348250D02*
X996988Y347853D01*
X994180Y346690D01*
X991770Y344841D01*
X989920Y342430D01*
X988757Y339623D01*
X988361Y336610D01*
X988757Y333598D01*
X989920Y330790D01*
X991770Y328380D01*
X994180Y326530D01*
X996988Y325367D01*
X1000000Y324971D01*
X1003013Y325367D01*
X1005820Y326530D01*
X1008230Y328380D01*
X1008940Y329305D01*
X1010210Y328874D01*
Y318947D01*
X1008940Y318515D01*
X1008230Y319441D01*
X1005820Y321290D01*
X1003013Y322453D01*
X1000000Y322850D01*
X996988Y322453D01*
X994180Y321290D01*
X991770Y319441D01*
X989920Y317030D01*
X988757Y314223D01*
X988361Y311210D01*
X988757Y308198D01*
X989920Y305390D01*
X991770Y302980D01*
X994180Y301130D01*
X996988Y299967D01*
X1000000Y299571D01*
X1003013Y299967D01*
X1005820Y301130D01*
X1008230Y302980D01*
X1008940Y303905D01*
X1010210Y303474D01*
Y293547D01*
X1008940Y293116D01*
X1008230Y294041D01*
X1005820Y295890D01*
X1003013Y297053D01*
X1000000Y297450D01*
X996988Y297053D01*
X994180Y295890D01*
X991770Y294041D01*
X989920Y291630D01*
X988757Y288823D01*
X988361Y285810D01*
X988757Y282798D01*
X989920Y279990D01*
X991770Y277580D01*
X994180Y275730D01*
X996988Y274567D01*
X1000000Y274171D01*
X1003013Y274567D01*
X1005820Y275730D01*
X1008230Y277580D01*
X1008940Y278505D01*
X1010210Y278074D01*
Y269022D01*
X1009037Y268536D01*
X1006331Y271241D01*
X1005491Y271803D01*
X1004500Y272000D01*
X995500D01*
X994509Y271803D01*
X993669Y271241D01*
X989169Y266741D01*
X988607Y265901D01*
X988410Y264910D01*
Y255910D01*
X988607Y254919D01*
X989169Y254079D01*
X993669Y249579D01*
X994509Y249018D01*
X995500Y248820D01*
X1004500D01*
X1005491Y249018D01*
X1006331Y249579D01*
X1010831Y254079D01*
X1011393Y254919D01*
X1011590Y255910D01*
Y262366D01*
X1012800Y263420D01*
X1032800D01*
X1033791Y263617D01*
X1034631Y264179D01*
X1035193Y265019D01*
X1035390Y266010D01*
Y331010D01*
X1035193Y332001D01*
X1034631Y332841D01*
X1033791Y333403D01*
X1032800Y333600D01*
X1012800D01*
X1012517Y333544D01*
X1011364Y334517D01*
X1011640Y336610D01*
X1011243Y339623D01*
X1010080Y342430D01*
X1008230Y344841D01*
X1005820Y346690D01*
X1003013Y347853D01*
X1000000Y348250D01*
D02*
G37*
G36*
X960000Y212649D02*
X955581Y212214D01*
X951333Y210925D01*
X947417Y208832D01*
X943985Y206015D01*
X941168Y202583D01*
X939075Y198667D01*
X937786Y194419D01*
X937351Y190000D01*
X937786Y185581D01*
X939075Y181333D01*
X941168Y177417D01*
X943985Y173985D01*
X947417Y171168D01*
X951333Y169075D01*
X955581Y167786D01*
X960000Y167351D01*
X964419Y167786D01*
X968667Y169075D01*
X972583Y171168D01*
X976015Y173985D01*
X978832Y177417D01*
X980925Y181333D01*
X982214Y185581D01*
X982649Y190000D01*
X982214Y194419D01*
X980925Y198667D01*
X978832Y202583D01*
X976015Y206015D01*
X972583Y208832D01*
X968667Y210925D01*
X964419Y212214D01*
X960000Y212649D01*
D02*
G37*
G36*
X666400Y163590D02*
X657400D01*
X656409Y163393D01*
X655569Y162831D01*
X651069Y158331D01*
X650507Y157491D01*
X650310Y156500D01*
Y147500D01*
X650507Y146509D01*
X651069Y145669D01*
X655569Y141169D01*
X656409Y140607D01*
X657400Y140410D01*
X666400D01*
X667391Y140607D01*
X668231Y141169D01*
X672731Y145669D01*
X673293Y146509D01*
X673490Y147500D01*
Y156500D01*
X673293Y157491D01*
X672731Y158331D01*
X668231Y162831D01*
X667391Y163393D01*
X666400Y163590D01*
D02*
G37*
G36*
X928605Y107178D02*
X928355Y107128D01*
X928100D01*
X926344Y106779D01*
X925411Y106392D01*
X923922Y105398D01*
X923922Y105398D01*
X923208Y104683D01*
X923208Y104683D01*
X922213Y103195D01*
X921826Y102261D01*
X921477Y100505D01*
Y99495D01*
X921826Y97739D01*
X922213Y96805D01*
X923208Y95317D01*
X923208Y95317D01*
X923922Y94602D01*
X923922Y94602D01*
X925411Y93608D01*
X926344Y93221D01*
X928100Y92872D01*
X928355D01*
X928605Y92822D01*
X928855Y92872D01*
X929110D01*
X930866Y93221D01*
X931800Y93608D01*
X933288Y94602D01*
X933288Y94602D01*
X934003Y95317D01*
X934003Y95317D01*
X934997Y96805D01*
X935384Y97739D01*
X935733Y99495D01*
Y100505D01*
X935384Y102261D01*
X934997Y103195D01*
X934003Y104683D01*
X934003Y104683D01*
X933288Y105398D01*
X933288Y105398D01*
X931800Y106392D01*
X930866Y106779D01*
X929110Y107128D01*
X928855D01*
X928605Y107178D01*
D02*
G37*
G36*
X898605D02*
X898355Y107128D01*
X898100D01*
X896344Y106779D01*
X895411Y106392D01*
X893922Y105398D01*
X893922Y105398D01*
X893208Y104683D01*
X893208Y104683D01*
X892213Y103195D01*
X891826Y102261D01*
X891477Y100505D01*
Y99495D01*
X891826Y97739D01*
X892213Y96805D01*
X893208Y95317D01*
X893208Y95317D01*
X893922Y94602D01*
X893922Y94602D01*
X895411Y93608D01*
X896344Y93221D01*
X898100Y92872D01*
X898355D01*
X898605Y92822D01*
X898855Y92872D01*
X899110D01*
X900866Y93221D01*
X901800Y93608D01*
X903288Y94602D01*
X903288Y94602D01*
X904003Y95317D01*
X904003Y95317D01*
X904997Y96805D01*
X905384Y97739D01*
X905733Y99495D01*
Y100505D01*
X905384Y102261D01*
X904997Y103195D01*
X904003Y104683D01*
X904003Y104683D01*
X903288Y105398D01*
X903288Y105398D01*
X901800Y106392D01*
X900866Y106779D01*
X899110Y107128D01*
X898855D01*
X898605Y107178D01*
D02*
G37*
G36*
X1025000Y125133D02*
X1020286Y124762D01*
X1015688Y123658D01*
X1011320Y121849D01*
X1007288Y119378D01*
X1003693Y116307D01*
X1000622Y112712D01*
X998151Y108680D01*
X996342Y104312D01*
X995238Y99714D01*
X994867Y95000D01*
X995238Y90286D01*
X996342Y85688D01*
X998151Y81320D01*
X1000622Y77288D01*
X1003693Y73693D01*
X1007288Y70622D01*
X1011320Y68151D01*
X1015688Y66342D01*
X1020286Y65238D01*
X1025000Y64867D01*
X1029714Y65238D01*
X1034312Y66342D01*
X1038680Y68151D01*
X1042712Y70622D01*
X1046307Y73693D01*
X1049378Y77288D01*
X1051849Y81320D01*
X1053658Y85688D01*
X1054762Y90286D01*
X1055133Y95000D01*
X1054762Y99714D01*
X1053658Y104312D01*
X1051849Y108680D01*
X1049378Y112712D01*
X1046307Y116307D01*
X1042712Y119378D01*
X1038680Y121849D01*
X1034312Y123658D01*
X1029714Y124762D01*
X1025000Y125133D01*
D02*
G37*
G36*
X615000D02*
X610286Y124762D01*
X605689Y123658D01*
X601320Y121849D01*
X597288Y119378D01*
X593693Y116307D01*
X590622Y112712D01*
X588151Y108680D01*
X586342Y104312D01*
X585238Y99714D01*
X584867Y95000D01*
X585238Y90286D01*
X586342Y85688D01*
X588151Y81320D01*
X590622Y77288D01*
X593693Y73693D01*
X597288Y70622D01*
X601320Y68151D01*
X605689Y66342D01*
X610286Y65238D01*
X615000Y64867D01*
X619714Y65238D01*
X624312Y66342D01*
X628680Y68151D01*
X632712Y70622D01*
X636307Y73693D01*
X639378Y77288D01*
X641849Y81320D01*
X643658Y85688D01*
X644762Y90286D01*
X645133Y95000D01*
X644762Y99714D01*
X643658Y104312D01*
X641849Y108680D01*
X639378Y112712D01*
X636307Y116307D01*
X632712Y119378D01*
X628680Y121849D01*
X624312Y123658D01*
X619714Y124762D01*
X615000Y125133D01*
D02*
G37*
G36*
X505000Y535594D02*
X500214Y535218D01*
X495546Y534097D01*
X491110Y532260D01*
X487017Y529751D01*
X483367Y526633D01*
X480249Y522983D01*
X477740Y518890D01*
X475903Y514454D01*
X474782Y509786D01*
X474406Y505000D01*
X474782Y500214D01*
X475903Y495546D01*
X477740Y491110D01*
X480249Y487017D01*
X483367Y483367D01*
X487017Y480249D01*
X491110Y477740D01*
X495546Y475903D01*
X500214Y474782D01*
X505000Y474406D01*
X509786Y474782D01*
X514454Y475903D01*
X518890Y477740D01*
X522983Y480249D01*
X526633Y483367D01*
X529751Y487017D01*
X532260Y491110D01*
X534097Y495546D01*
X535218Y500214D01*
X535594Y505000D01*
X535218Y509786D01*
X534097Y514454D01*
X532260Y518890D01*
X529751Y522983D01*
X526633Y526633D01*
X522983Y529751D01*
X518890Y532260D01*
X514454Y534097D01*
X509786Y535218D01*
X505000Y535594D01*
D02*
G37*
G36*
X95000D02*
X90214Y535218D01*
X85546Y534097D01*
X81110Y532260D01*
X77017Y529751D01*
X73367Y526633D01*
X70249Y522983D01*
X67740Y518890D01*
X65903Y514454D01*
X64782Y509786D01*
X64406Y505000D01*
X64782Y500214D01*
X65903Y495546D01*
X67740Y491110D01*
X70249Y487017D01*
X73367Y483367D01*
X77017Y480249D01*
X81110Y477740D01*
X85546Y475903D01*
X90214Y474782D01*
X95000Y474406D01*
X99786Y474782D01*
X104454Y475903D01*
X108890Y477740D01*
X112983Y480249D01*
X116634Y483367D01*
X119751Y487017D01*
X122260Y491110D01*
X124097Y495546D01*
X125218Y500214D01*
X125594Y505000D01*
X125218Y509786D01*
X124097Y514454D01*
X122260Y518890D01*
X119751Y522983D01*
X116634Y526633D01*
X112983Y529751D01*
X108890Y532260D01*
X104454Y534097D01*
X99786Y535218D01*
X95000Y535594D01*
D02*
G37*
G36*
X332500Y519059D02*
X267500D01*
X266329Y518826D01*
X265337Y518163D01*
X264674Y517171D01*
X264441Y516000D01*
Y496000D01*
X264674Y494829D01*
X265337Y493837D01*
X266329Y493174D01*
X267500Y492941D01*
X276788D01*
X277414Y491671D01*
X275945Y489756D01*
X274635Y486594D01*
X274188Y483200D01*
X274635Y479806D01*
X275945Y476644D01*
X278028Y473928D01*
X280744Y471845D01*
X283906Y470535D01*
X287300Y470088D01*
X290694Y470535D01*
X293856Y471845D01*
X296572Y473928D01*
X298655Y476644D01*
X299313Y478231D01*
X300687D01*
X301345Y476644D01*
X303428Y473928D01*
X306144Y471845D01*
X309306Y470535D01*
X312700Y470088D01*
X316094Y470535D01*
X319256Y471845D01*
X321972Y473928D01*
X324055Y476644D01*
X325365Y479806D01*
X325812Y483200D01*
X325365Y486594D01*
X324055Y489756D01*
X322586Y491671D01*
X323212Y492941D01*
X332500D01*
X333671Y493174D01*
X334663Y493837D01*
X335326Y494829D01*
X335559Y496000D01*
Y516000D01*
X335326Y517171D01*
X334663Y518163D01*
X333671Y518826D01*
X332500Y519059D01*
D02*
G37*
G36*
X410000Y463111D02*
X405491Y462667D01*
X401156Y461352D01*
X397160Y459216D01*
X393658Y456342D01*
X390784Y452840D01*
X388648Y448844D01*
X387333Y444509D01*
X386889Y440000D01*
X387333Y435491D01*
X388648Y431156D01*
X390784Y427160D01*
X393658Y423658D01*
X397160Y420784D01*
X401156Y418648D01*
X405491Y417333D01*
X410000Y416889D01*
X414509Y417333D01*
X418844Y418648D01*
X422840Y420784D01*
X426342Y423658D01*
X429216Y427160D01*
X431352Y431156D01*
X432667Y435491D01*
X433111Y440000D01*
X432667Y444509D01*
X431352Y448844D01*
X429216Y452840D01*
X426342Y456342D01*
X422840Y459216D01*
X418844Y461352D01*
X414509Y462667D01*
X410000Y463111D01*
D02*
G37*
G36*
X190000D02*
X185491Y462667D01*
X181156Y461352D01*
X177160Y459216D01*
X173658Y456342D01*
X170784Y452840D01*
X168648Y448844D01*
X167333Y444509D01*
X166889Y440000D01*
X167333Y435491D01*
X168648Y431156D01*
X170784Y427160D01*
X173658Y423658D01*
X177160Y420784D01*
X181156Y418648D01*
X185491Y417333D01*
X190000Y416889D01*
X194509Y417333D01*
X198844Y418648D01*
X202840Y420784D01*
X206342Y423658D01*
X209216Y427160D01*
X211352Y431156D01*
X212667Y435491D01*
X213111Y440000D01*
X212667Y444509D01*
X211352Y448844D01*
X209216Y452840D01*
X206342Y456342D01*
X202840Y459216D01*
X198844Y461352D01*
X194509Y462667D01*
X190000Y463111D01*
D02*
G37*
G36*
X148500Y350159D02*
X147330Y349926D01*
X146337Y349263D01*
X141837Y344763D01*
X141174Y343771D01*
X140941Y342600D01*
Y333600D01*
X140941Y333600D01*
X141174Y332430D01*
X141837Y331437D01*
X146337Y326937D01*
X147330Y326274D01*
X148500Y326041D01*
X152672D01*
X152755Y324771D01*
X152038Y324677D01*
X149867Y324391D01*
X146948Y323182D01*
X144441Y321259D01*
X142518Y318752D01*
X141309Y315833D01*
X140897Y312700D01*
X141309Y309567D01*
X142518Y306648D01*
X144441Y304142D01*
X146948Y302218D01*
X149867Y301009D01*
X152096Y300716D01*
X152666Y300641D01*
Y299360D01*
X152096Y299285D01*
X149867Y298991D01*
X146948Y297782D01*
X144441Y295859D01*
X142518Y293352D01*
X141309Y290433D01*
X140897Y287300D01*
X141309Y284167D01*
X142518Y281248D01*
X144441Y278742D01*
X146948Y276818D01*
X149867Y275609D01*
X152095Y275316D01*
X152666Y275240D01*
Y273960D01*
X152095Y273885D01*
X149867Y273591D01*
X146948Y272382D01*
X144441Y270459D01*
X142518Y267952D01*
X141309Y265033D01*
X140897Y261900D01*
X141309Y258768D01*
X142518Y255848D01*
X144441Y253342D01*
X146948Y251418D01*
X149867Y250209D01*
X153000Y249797D01*
X156133Y250209D01*
X159052Y251418D01*
X161558Y253342D01*
X163482Y255848D01*
X164691Y258768D01*
X165104Y261900D01*
X164691Y265033D01*
X163482Y267952D01*
X161558Y270459D01*
X159052Y272382D01*
X156133Y273591D01*
X153905Y273885D01*
X153334Y273960D01*
Y275240D01*
X153905Y275316D01*
X156133Y275609D01*
X159052Y276818D01*
X161558Y278742D01*
X163482Y281248D01*
X164691Y284167D01*
X165104Y287300D01*
X164691Y290433D01*
X163482Y293352D01*
X161558Y295859D01*
X159052Y297782D01*
X156133Y298991D01*
X153904Y299285D01*
X153335Y299360D01*
Y300641D01*
X153904Y300716D01*
X156133Y301009D01*
X159052Y302218D01*
X161558Y304142D01*
X163482Y306648D01*
X164691Y309567D01*
X165104Y312700D01*
X164691Y315833D01*
X163482Y318752D01*
X161558Y321259D01*
X159052Y323182D01*
X156133Y324391D01*
X153962Y324677D01*
X153245Y324771D01*
X153328Y326041D01*
X157500D01*
X157500Y326041D01*
X158671Y326274D01*
X159663Y326937D01*
X164163Y331437D01*
X164826Y332430D01*
X165059Y333600D01*
Y342600D01*
X165059Y342600D01*
X164826Y343771D01*
X164163Y344763D01*
X159663Y349263D01*
X158671Y349926D01*
X157500Y350159D01*
X148500D01*
X148500Y350159D01*
D02*
G37*
G36*
X500597Y322193D02*
X499403D01*
X497648Y321844D01*
X496545Y321387D01*
X495056Y320393D01*
X494212Y319549D01*
X493218Y318060D01*
X492761Y316958D01*
X492412Y315202D01*
Y314901D01*
X492353Y314605D01*
X492412Y314310D01*
Y314009D01*
X492761Y312253D01*
X493218Y311150D01*
X494212Y309662D01*
X495056Y308818D01*
X496545Y307823D01*
X497648Y307366D01*
X499403Y307017D01*
X500597D01*
X502352Y307366D01*
X503455Y307823D01*
X504944Y308818D01*
X505788Y309662D01*
X506782Y311150D01*
X507239Y312253D01*
X507588Y314009D01*
Y314310D01*
X507647Y314605D01*
X507588Y314901D01*
Y315202D01*
X507239Y316958D01*
X506782Y318060D01*
X505788Y319549D01*
X504944Y320393D01*
X503455Y321387D01*
X502353Y321844D01*
X500597Y322193D01*
D02*
G37*
G36*
Y292193D02*
X499403D01*
X497648Y291844D01*
X496545Y291388D01*
X495056Y290393D01*
X494212Y289549D01*
X493218Y288060D01*
X492761Y286958D01*
X492412Y285202D01*
Y284901D01*
X492353Y284605D01*
X492412Y284310D01*
Y284009D01*
X492761Y282253D01*
X493218Y281150D01*
X494212Y279662D01*
X495056Y278818D01*
X496545Y277823D01*
X497648Y277366D01*
X499403Y277017D01*
X500597D01*
X502352Y277366D01*
X503455Y277823D01*
X504944Y278818D01*
X505788Y279662D01*
X506782Y281150D01*
X507239Y282253D01*
X507588Y284009D01*
Y284310D01*
X507647Y284605D01*
X507588Y284901D01*
Y285202D01*
X507239Y286958D01*
X506782Y288060D01*
X505788Y289549D01*
X504944Y290393D01*
X503455Y291388D01*
X502353Y291844D01*
X500597Y292193D01*
D02*
G37*
G36*
X410000Y143111D02*
X405491Y142667D01*
X401156Y141352D01*
X397160Y139216D01*
X393658Y136342D01*
X390784Y132840D01*
X388648Y128844D01*
X387333Y124509D01*
X386889Y120000D01*
X387333Y115491D01*
X388648Y111156D01*
X390784Y107160D01*
X393658Y103658D01*
X397160Y100784D01*
X401156Y98648D01*
X405491Y97333D01*
X410000Y96889D01*
X414509Y97333D01*
X418844Y98648D01*
X422840Y100784D01*
X426342Y103658D01*
X429216Y107160D01*
X431352Y111156D01*
X432667Y115491D01*
X433111Y120000D01*
X432667Y124509D01*
X431352Y128844D01*
X429216Y132840D01*
X426342Y136342D01*
X422840Y139216D01*
X418844Y141352D01*
X414509Y142667D01*
X410000Y143111D01*
D02*
G37*
G36*
X190000D02*
X185491Y142667D01*
X181156Y141352D01*
X177160Y139216D01*
X173658Y136342D01*
X170784Y132840D01*
X168648Y128844D01*
X167333Y124509D01*
X166889Y120000D01*
X167333Y115491D01*
X168648Y111156D01*
X170784Y107160D01*
X173658Y103658D01*
X177160Y100784D01*
X181156Y98648D01*
X185491Y97333D01*
X190000Y96889D01*
X194509Y97333D01*
X198844Y98648D01*
X202840Y100784D01*
X206342Y103658D01*
X209216Y107160D01*
X211352Y111156D01*
X212667Y115491D01*
X213111Y120000D01*
X212667Y124509D01*
X211352Y128844D01*
X209216Y132840D01*
X206342Y136342D01*
X202840Y139216D01*
X198844Y141352D01*
X194509Y142667D01*
X190000Y143111D01*
D02*
G37*
G36*
X505000Y125594D02*
X500214Y125218D01*
X495546Y124097D01*
X491110Y122260D01*
X487017Y119751D01*
X483367Y116634D01*
X480249Y112983D01*
X477740Y108890D01*
X475903Y104454D01*
X474782Y99786D01*
X474406Y95000D01*
X474782Y90214D01*
X475903Y85546D01*
X477740Y81110D01*
X480249Y77017D01*
X483367Y73367D01*
X487017Y70249D01*
X491110Y67740D01*
X495546Y65903D01*
X500214Y64782D01*
X505000Y64406D01*
X509786Y64782D01*
X514454Y65903D01*
X518890Y67740D01*
X522983Y70249D01*
X526633Y73367D01*
X529751Y77017D01*
X532260Y81110D01*
X534097Y85546D01*
X535218Y90214D01*
X535594Y95000D01*
X535218Y99786D01*
X534097Y104454D01*
X532260Y108890D01*
X529751Y112983D01*
X526633Y116634D01*
X522983Y119751D01*
X518890Y122260D01*
X514454Y124097D01*
X509786Y125218D01*
X505000Y125594D01*
D02*
G37*
G36*
X95000D02*
X90214Y125218D01*
X85546Y124097D01*
X81110Y122260D01*
X77017Y119751D01*
X73367Y116634D01*
X70249Y112983D01*
X67740Y108890D01*
X65903Y104454D01*
X64782Y99786D01*
X64406Y95000D01*
X64782Y90214D01*
X65903Y85546D01*
X67740Y81110D01*
X70249Y77017D01*
X73367Y73367D01*
X77017Y70249D01*
X81110Y67740D01*
X85546Y65903D01*
X90214Y64782D01*
X95000Y64406D01*
X99786Y64782D01*
X104454Y65903D01*
X108890Y67740D01*
X112983Y70249D01*
X116634Y73367D01*
X119751Y77017D01*
X122260Y81110D01*
X124097Y85546D01*
X125218Y90214D01*
X125594Y95000D01*
X125218Y99786D01*
X124097Y104454D01*
X122260Y108890D01*
X119751Y112983D01*
X116634Y116634D01*
X112983Y119751D01*
X108890Y122260D01*
X104454Y124097D01*
X99786Y125218D01*
X95000Y125594D01*
D02*
G37*
%LPD*%
D10*
X195610Y1539870D02*
D03*
X205510Y1529970D02*
D03*
D11*
X196814Y1509400D02*
D03*
X185677Y1520537D02*
D03*
X174540Y1531674D02*
D03*
X141306Y1498440D02*
D03*
X152443Y1487303D02*
D03*
X163580Y1476166D02*
D03*
D12*
X140580Y1498440D02*
X164810Y1522670D01*
X140580Y1498440D02*
Y1498440D01*
X176560Y1558920D02*
X195610Y1539870D01*
X88422Y1470782D02*
X176560Y1558920D01*
X88422Y1426468D02*
Y1470782D01*
X163580Y1476166D02*
X176084Y1488670D01*
X177560D01*
X190640Y1475590D01*
X219478D01*
X224708Y1480820D01*
X268810D01*
X152443Y1487303D02*
Y1488303D01*
X171185Y1507046D01*
X196101Y1482130D01*
X216769D01*
X240859Y1506220D01*
X268810D01*
X164810Y1522670D02*
X198810Y1488670D01*
X214060D01*
X257010Y1531620D01*
X268810D01*
X195610Y1539870D02*
X204410Y1548670D01*
X205810D01*
X218570Y1535910D01*
X247700D01*
X268810Y1557020D01*
X88422Y1426468D02*
X114020Y1400870D01*
X139420D02*
Y1478060D01*
X146560Y1419130D02*
Y1481420D01*
X155584Y1435506D02*
X190220Y1400870D01*
X155584Y1435506D02*
Y1468170D01*
X163580Y1476166D01*
X146560Y1481420D02*
X152443Y1487303D01*
X146560Y1419130D02*
X164820Y1400870D01*
X129810Y1487670D02*
X140580Y1498440D01*
X129810Y1487670D02*
X139420Y1478060D01*
X185677Y1520537D02*
X196814Y1509400D01*
X174540Y1531674D02*
X185677Y1520537D01*
D13*
X503988Y1555500D02*
D03*
Y1541500D02*
D03*
X793988Y1555500D02*
D03*
Y1541500D02*
D03*
D14*
X522488Y1588750D02*
D03*
X538238D02*
D03*
X553988D02*
D03*
Y1541750D02*
D03*
X538238D02*
D03*
X522488D02*
D03*
X812488Y1588750D02*
D03*
X828238D02*
D03*
X843988D02*
D03*
Y1541750D02*
D03*
X828238D02*
D03*
X812488D02*
D03*
D15*
X561888Y1670000D02*
Y1657400D01*
X522488Y1618000D01*
Y1588750D01*
X538238Y1604250D02*
Y1588750D01*
X587288Y1653300D02*
X538238Y1604250D01*
X587288Y1670000D02*
Y1653300D01*
X553988Y1602000D02*
Y1588750D01*
X612688Y1660700D02*
X553988Y1602000D01*
X612688Y1670000D02*
Y1660700D01*
X553988Y1541750D02*
X553738Y1541500D01*
X638088Y1670000D02*
Y1647600D01*
X555988Y1565500D01*
X504698D01*
X503988Y1564790D02*
Y1555500D01*
X504698Y1565500D02*
X503988Y1564790D01*
X522488Y1588750D02*
X498738D01*
X455388Y1545400D01*
X429988D01*
X538238Y1588750D02*
Y1577250D01*
X534028Y1573040D01*
X501575D01*
X496448Y1567913D01*
Y1563588D01*
X454860Y1522000D01*
X431988D01*
X429988Y1520000D01*
X553738Y1541500D02*
X503988D01*
X851888Y1670000D02*
Y1657400D01*
X812488Y1618000D01*
Y1588750D01*
X828238Y1604250D02*
Y1588750D01*
X877288Y1653300D02*
X828238Y1604250D01*
X877288Y1670000D02*
Y1653300D01*
X843988Y1602000D02*
Y1588750D01*
X902688Y1660700D02*
X843988Y1602000D01*
X902688Y1670000D02*
Y1660700D01*
X843988Y1541750D02*
X843738Y1541500D01*
X928088Y1670000D02*
Y1647600D01*
X845988Y1565500D01*
X794698D01*
X793988Y1564790D02*
Y1555500D01*
X794698Y1565500D02*
X793988Y1564790D01*
X812488Y1588750D02*
X788738D01*
X745388Y1545400D01*
X719988D01*
X828238Y1588750D02*
Y1577250D01*
X824028Y1573040D01*
X791574D01*
X786448Y1567913D01*
Y1563588D01*
X744860Y1522000D01*
X721988D01*
X719988Y1520000D01*
X843738Y1541500D02*
X793988D01*
X600000Y1331400D02*
X585263D01*
X582323Y1328460D01*
X379677D01*
X376737Y1331400D01*
X362000D01*
X386337Y1306000D02*
X362000D01*
X389877Y1309540D02*
X386337Y1306000D01*
X567835Y1309540D02*
X389877D01*
X571375Y1306000D02*
X567835Y1309540D01*
X600000Y1306000D02*
X571375D01*
X371600Y1280600D02*
X362000D01*
X393000Y1302000D02*
X371600Y1280600D01*
X564712Y1302000D02*
X393000D01*
X586112Y1280600D02*
X564712Y1302000D01*
X600000Y1280600D02*
X586112D01*
X579200Y1336000D02*
X382800D01*
X600000Y1356800D02*
X579200Y1336000D01*
X382800D02*
X362000Y1356800D01*
X708000Y182100D02*
X738100Y152000D01*
X737640Y440000D02*
Y509500D01*
X711760Y441760D02*
X712240D01*
X698000Y428000D02*
X711760Y441760D01*
X698000Y166000D02*
Y428000D01*
Y166000D02*
X712000Y152000D01*
X738100Y158100D02*
X742000Y162000D01*
X738100Y152000D02*
Y158100D01*
X712240Y509040D02*
Y509500D01*
Y441760D02*
Y509040D01*
X712000Y152000D02*
Y156000D01*
X730033Y440000D02*
X737640D01*
X708000Y182100D02*
Y410700D01*
X715325Y418025D02*
Y425292D01*
X708000Y410700D02*
X715325Y418025D01*
Y425292D02*
X730033Y440000D01*
D22*
X1211900Y1200000D02*
X1276900D01*
X1550000Y1612450D02*
X1571800D01*
X1573000Y1611250D01*
Y1442750D02*
Y1611250D01*
X1550000Y1450850D02*
X1564900D01*
X1573000Y1442750D01*
Y1314900D02*
Y1442750D01*
X1550000Y1291900D02*
X1573000Y1314900D01*
X1188150Y1176250D02*
X1211900Y1200000D01*
X1066500Y1176250D02*
X1188150D01*
X1043250Y1199500D02*
X1066500Y1176250D01*
X1043250Y1199500D02*
Y1316000D01*
Y1451750D02*
Y1606500D01*
Y1316000D02*
Y1451750D01*
X1044150Y1450850D01*
X1082000D01*
X1049350Y1612600D02*
X1082000D01*
X1043250Y1606500D02*
X1049350Y1612600D01*
X1043250Y1316000D02*
X1067600Y1291650D01*
X1082000D01*
Y1266250D02*
X1550000D01*
X742200Y1132250D02*
Y1310000D01*
X691400Y1132250D02*
Y1310000D01*
X767600Y1132250D02*
Y1310000D01*
X716800Y1132250D02*
Y1310000D01*
X317750Y1172200D02*
X140000D01*
X317750Y1121400D02*
X140000D01*
X317750Y1197600D02*
X140000D01*
X317750Y1146800D02*
X140000D01*
X597750Y1172200D02*
X420000D01*
X597750Y1121400D02*
X420000D01*
X597750Y1197600D02*
X420000D01*
X597750Y1146800D02*
X420000D01*
X902200Y1132250D02*
Y1310000D01*
X851400Y1132250D02*
Y1310000D01*
X927600Y1132250D02*
Y1310000D01*
X876800Y1132250D02*
Y1310000D01*
X1258100Y672000D02*
Y1029500D01*
X1232000Y672000D02*
Y1028800D01*
X1232700Y1029500D01*
X1207300Y672000D02*
Y1029500D01*
X1207300Y152000D02*
Y509500D01*
X1232000Y508800D02*
X1232700Y509500D01*
X1232000Y152000D02*
Y508800D01*
X1258100Y152000D02*
Y509500D01*
X712240Y509040D02*
X712700Y509500D01*
X712000Y508800D02*
X712240Y509040D01*
X687300Y152000D02*
Y509500D01*
D28*
X17500Y17500D02*
D03*
X1625000Y1745000D02*
D03*
D29*
X268810Y1557020D02*
D03*
Y1531620D02*
D03*
Y1506220D02*
D03*
X164820Y1400870D02*
D03*
X139420D02*
D03*
X114020D02*
D03*
X190220D02*
D03*
X429988Y1520000D02*
D03*
Y1494600D02*
D03*
Y1469200D02*
D03*
X561888Y1670000D02*
D03*
X638088D02*
D03*
X612688D02*
D03*
X587288D02*
D03*
X719988Y1520000D02*
D03*
Y1494600D02*
D03*
Y1469200D02*
D03*
X851888Y1670000D02*
D03*
X928088D02*
D03*
X902688D02*
D03*
X877288D02*
D03*
X362000Y1280600D02*
D03*
Y1306000D02*
D03*
Y1331400D02*
D03*
X600000D02*
D03*
Y1306000D02*
D03*
Y1280600D02*
D03*
Y1356800D02*
D03*
X1550000Y1266500D02*
D03*
Y1241100D02*
D03*
Y1215700D02*
D03*
Y1291900D02*
D03*
X1082000Y1215450D02*
D03*
Y1240850D02*
D03*
Y1266250D02*
D03*
X1550000Y1612450D02*
D03*
Y1536250D02*
D03*
Y1561650D02*
D03*
Y1587050D02*
D03*
X1353100Y1200000D02*
D03*
X1327700D02*
D03*
X1302300D02*
D03*
X1082000Y1536400D02*
D03*
Y1561800D02*
D03*
Y1587200D02*
D03*
X1550000Y1450850D02*
D03*
Y1374650D02*
D03*
Y1400050D02*
D03*
Y1425450D02*
D03*
X1082000Y1374650D02*
D03*
Y1400050D02*
D03*
Y1425450D02*
D03*
X716500Y1132250D02*
D03*
X741900D02*
D03*
X767300D02*
D03*
X691400Y1310000D02*
D03*
X767600D02*
D03*
X742200D02*
D03*
X716800D02*
D03*
X317750Y1146500D02*
D03*
Y1171900D02*
D03*
Y1197300D02*
D03*
X140000Y1121400D02*
D03*
Y1197600D02*
D03*
Y1172200D02*
D03*
Y1146800D02*
D03*
X597750Y1146500D02*
D03*
Y1171900D02*
D03*
Y1197300D02*
D03*
X420000Y1121400D02*
D03*
Y1197600D02*
D03*
Y1172200D02*
D03*
Y1146800D02*
D03*
X876500Y1132250D02*
D03*
X901900D02*
D03*
X927300D02*
D03*
X851400Y1310000D02*
D03*
X927600D02*
D03*
X902200D02*
D03*
X876800D02*
D03*
X312700Y1000000D02*
D03*
X287300D02*
D03*
X261900D02*
D03*
X832700Y1000000D02*
D03*
X807300D02*
D03*
X781900D02*
D03*
X1181800Y1030000D02*
D03*
X1258000D02*
D03*
X1232600D02*
D03*
X1207200D02*
D03*
X1519260Y855750D02*
D03*
Y830350D02*
D03*
Y804950D02*
D03*
X1257640Y671600D02*
D03*
X1231540D02*
D03*
X1206840D02*
D03*
X1520000Y285810D02*
D03*
Y311210D02*
D03*
Y336610D02*
D03*
X1207300Y152000D02*
D03*
X1232000D02*
D03*
X1258100D02*
D03*
X1181900Y509500D02*
D03*
X1258100D02*
D03*
X1232700D02*
D03*
X1207300D02*
D03*
X661440D02*
D03*
X737640D02*
D03*
X712240D02*
D03*
X686840D02*
D03*
X1000000Y336610D02*
D03*
Y311210D02*
D03*
Y285810D02*
D03*
X738100Y152000D02*
D03*
X712000D02*
D03*
X687300D02*
D03*
X153000Y261900D02*
D03*
Y287300D02*
D03*
Y312700D02*
D03*
D30*
X268810Y1480820D02*
D03*
X429988Y1545400D02*
D03*
X719988Y1545400D02*
D03*
X362000Y1356800D02*
D03*
X1082000Y1291650D02*
D03*
X1082000Y1612600D02*
D03*
X1082000Y1450850D02*
D03*
X317750Y1121100D02*
D03*
X597750D02*
D03*
X1519260Y779550D02*
D03*
X1520000Y260410D02*
D03*
X1000000D02*
D03*
X153000Y338100D02*
D03*
D31*
X230962Y1560450D02*
D03*
X112962D02*
D03*
Y1447850D02*
D03*
X192962D02*
D03*
X1125000Y1335000D02*
D03*
Y1505000D02*
D03*
X1495000D02*
D03*
Y1335000D02*
D03*
X485000Y930000D02*
D03*
Y710000D02*
D03*
X115000Y930000D02*
D03*
Y710000D02*
D03*
X635000Y735000D02*
D03*
Y905000D02*
D03*
X1005000Y735000D02*
D03*
Y905000D02*
D03*
X1310000Y1005000D02*
D03*
X1480000D02*
D03*
Y635000D02*
D03*
X1310000D02*
D03*
X1310000Y115000D02*
D03*
X1480000D02*
D03*
Y485000D02*
D03*
X1310000D02*
D03*
X740000Y410000D02*
D03*
X960000D02*
D03*
Y190000D02*
D03*
X740000D02*
D03*
X190000Y440000D02*
D03*
X410000D02*
D03*
Y120000D02*
D03*
X190000D02*
D03*
D32*
X539000Y1280000D02*
G03*
X539000Y1280000I15000J0D01*
G01*
Y1360000D02*
G03*
X539000Y1360000I15000J0D01*
G01*
X389000D02*
G03*
X389000Y1360000I15000J0D01*
G01*
Y1280000D02*
G03*
X389000Y1280000I15000J0D01*
G01*
D33*
X1545000Y1670000D02*
D03*
X1020000D02*
D03*
Y1130000D02*
D03*
X1550000D02*
D03*
D34*
X1276900Y1200000D02*
D03*
X338100Y1000000D02*
D03*
X858100Y1000000D02*
D03*
X1181440Y671600D02*
D03*
X1181900Y152000D02*
D03*
X661900D02*
D03*
D35*
X691100Y1132250D02*
D03*
X851100D02*
D03*
D36*
X95000Y615000D02*
D03*
Y1025000D02*
D03*
X505000Y615000D02*
D03*
Y1025000D02*
D03*
X1025000D02*
D03*
Y615000D02*
D03*
X615000Y1025000D02*
D03*
Y615000D02*
D03*
X1545000Y615000D02*
D03*
X1135000D02*
D03*
X1545000Y1025000D02*
D03*
X1135000D02*
D03*
X1135000Y505000D02*
D03*
X1545000D02*
D03*
X1135000Y95000D02*
D03*
X1545000D02*
D03*
X1025000D02*
D03*
X615000D02*
D03*
X1025000Y505000D02*
D03*
X615000D02*
D03*
X505000Y95000D02*
D03*
X95000D02*
D03*
X505000Y505000D02*
D03*
X95000D02*
D03*
D37*
X312700Y483200D02*
D03*
X287300D02*
D03*
D38*
X1140000Y1373000D02*
D03*
X1127000D02*
D03*
X1140000Y1399000D02*
D03*
X1127000D02*
D03*
D39*
X1082150Y1587050D02*
X1550000D01*
X1082000Y1587200D02*
X1082150Y1587050D01*
X1550000Y1536250D02*
Y1561650D01*
Y1587050D01*
D40*
X1083050Y1399000D02*
X1127000D01*
X1082000Y1400050D02*
X1083050Y1399000D01*
X1083650Y1373000D02*
X1127000D01*
X1082000Y1374650D02*
X1083650Y1373000D01*
X1140000D02*
Y1399000D01*
Y1373000D02*
X1548350D01*
X1550000Y1374650D01*
M02*
