G04 Layer_Color=65535*
%FSLAX44Y44*%
%MOMM*%
G71*
G01*
G75*
%ADD21C,1.0000*%
%ADD22C,0.2000*%
%ADD23C,0.1500*%
G36*
X89523Y243523D02*
X89913Y243474D01*
X90401Y243377D01*
X90987Y243181D01*
X91622Y242937D01*
X92257Y242547D01*
X92843Y242059D01*
X92891Y242010D01*
X93087Y241766D01*
X93331Y241473D01*
X93624Y241033D01*
X93917Y240496D01*
X94161Y239862D01*
X94356Y239129D01*
X94405Y238348D01*
Y231758D01*
Y231709D01*
Y231562D01*
X94356Y231318D01*
X94258Y231074D01*
X94063Y230879D01*
X93868Y230635D01*
X93526Y230488D01*
X93087Y230440D01*
X79710D01*
X79466Y230391D01*
X79271Y230293D01*
X79027Y230098D01*
X78783Y229903D01*
X78636Y229561D01*
X78587Y229121D01*
Y229073D01*
Y228926D01*
X78539Y228682D01*
X78441Y228438D01*
X78246Y228243D01*
X78050Y227999D01*
X77709Y227852D01*
X77269Y227803D01*
X77074D01*
X76879Y227852D01*
X76635Y227950D01*
X76391Y228145D01*
X76195Y228340D01*
X76049Y228682D01*
X76000Y229121D01*
Y229219D01*
Y229414D01*
X76098Y229756D01*
X76195Y230196D01*
X76342Y230684D01*
X76586Y231172D01*
X76928Y231660D01*
X77367Y232148D01*
X77318Y232197D01*
X77172Y232392D01*
X76928Y232734D01*
X76684Y233125D01*
X76439Y233662D01*
X76195Y234247D01*
X76049Y234931D01*
X76000Y235712D01*
Y238348D01*
Y238446D01*
X76049Y238690D01*
X76098Y239129D01*
X76195Y239618D01*
X76391Y240203D01*
X76635Y240838D01*
X77025Y241473D01*
X77513Y242059D01*
X77562Y242107D01*
X77806Y242303D01*
X78099Y242547D01*
X78539Y242791D01*
X79076Y243084D01*
X79710Y243328D01*
X80442Y243523D01*
X81224Y243572D01*
X89230D01*
X89523Y243523D01*
D02*
G37*
G36*
Y222482D02*
X89913Y222433D01*
X90401Y222336D01*
X90987Y222140D01*
X91622Y221896D01*
X92257Y221506D01*
X92843Y221018D01*
X92891Y220969D01*
X93087Y220725D01*
X93331Y220432D01*
X93624Y219992D01*
X93917Y219455D01*
X94161Y218821D01*
X94356Y218088D01*
X94405Y217307D01*
Y210717D01*
Y210668D01*
Y210522D01*
X94356Y210278D01*
X94258Y210033D01*
X94063Y209838D01*
X93868Y209594D01*
X93526Y209447D01*
X93087Y209399D01*
X77074D01*
X76879Y209447D01*
X76635Y209545D01*
X76391Y209740D01*
X76195Y209936D01*
X76049Y210278D01*
X76000Y210717D01*
Y210766D01*
Y210912D01*
X76049Y211156D01*
X76146Y211352D01*
X76342Y211596D01*
X76537Y211840D01*
X76879Y211986D01*
X77318Y212035D01*
X83909D01*
Y214720D01*
X76537Y220188D01*
X76439Y220236D01*
X76293Y220481D01*
X76098Y220822D01*
X76049Y221018D01*
X76000Y221262D01*
Y221311D01*
Y221457D01*
X76049Y221652D01*
X76146Y221896D01*
X76342Y222140D01*
X76537Y222336D01*
X76879Y222482D01*
X77318Y222531D01*
X77416D01*
X77562Y222482D01*
X77855Y222433D01*
X78099Y222336D01*
X83909Y217893D01*
Y217991D01*
X83958Y218235D01*
X84055Y218577D01*
X84202Y219065D01*
X84446Y219602D01*
X84739Y220139D01*
X85129Y220676D01*
X85617Y221213D01*
X85666Y221262D01*
X85861Y221408D01*
X86203Y221652D01*
X86594Y221847D01*
X87131Y222092D01*
X87717Y222336D01*
X88400Y222482D01*
X89132Y222531D01*
X89230D01*
X89523Y222482D01*
D02*
G37*
G36*
X479163Y180331D02*
X479261Y180292D01*
X479339Y180233D01*
X479436Y180135D01*
X479495Y180018D01*
X479514Y179843D01*
Y177209D01*
Y177190D01*
Y177151D01*
Y177092D01*
X479495Y177014D01*
X479475Y176819D01*
X479417Y176566D01*
X479339Y176254D01*
X479202Y175941D01*
X479007Y175629D01*
X478754Y175337D01*
X478715Y175298D01*
X478617Y175220D01*
X478461Y175103D01*
X478227Y174946D01*
X477954Y174810D01*
X477642Y174693D01*
X477291Y174615D01*
X476881Y174576D01*
X476764D01*
X476666Y174595D01*
X476432Y174634D01*
X476159Y174693D01*
X475827Y174810D01*
X475476Y174986D01*
X475320Y175103D01*
X475145Y175220D01*
X474989Y175376D01*
X474833Y175551D01*
X474813Y175532D01*
X474794Y175493D01*
X474735Y175415D01*
X474657Y175317D01*
X474579Y175200D01*
X474462Y175083D01*
X474325Y174946D01*
X474169Y174790D01*
X473974Y174654D01*
X473779Y174517D01*
X473565Y174400D01*
X473311Y174283D01*
X473058Y174186D01*
X472765Y174108D01*
X472472Y174069D01*
X472141Y174049D01*
X472024D01*
X471926Y174069D01*
X471809D01*
X471673Y174088D01*
X471380Y174166D01*
X471029Y174283D01*
X470658Y174439D01*
X470268Y174673D01*
X470092Y174830D01*
X469917Y174986D01*
Y175005D01*
X469878Y175025D01*
X469839Y175083D01*
X469780Y175142D01*
X469624Y175337D01*
X469468Y175610D01*
X469293Y175922D01*
X469137Y176312D01*
X469039Y176741D01*
X469020Y176975D01*
X469000Y177209D01*
Y179843D01*
Y179862D01*
Y179921D01*
X469020Y179999D01*
X469058Y180096D01*
X469117Y180194D01*
X469215Y180272D01*
X469332Y180331D01*
X469507Y180350D01*
X479066D01*
X479163Y180331D01*
D02*
G37*
G36*
X88253Y296101D02*
X88791Y296052D01*
X89425Y295906D01*
X90157Y295662D01*
X90939Y295369D01*
X91720Y294880D01*
X92452Y294246D01*
X92550Y294148D01*
X92745Y293904D01*
X93087Y293514D01*
X93428Y292928D01*
X93770Y292293D01*
X94112Y291463D01*
X94307Y290584D01*
X94405Y289608D01*
Y289559D01*
Y289461D01*
Y289315D01*
X94356Y289120D01*
X94307Y288632D01*
X94161Y287997D01*
X93965Y287216D01*
X93624Y286435D01*
X93135Y285654D01*
X92501Y284921D01*
X92403Y284824D01*
X92159Y284629D01*
X91769Y284336D01*
X91183Y283945D01*
X90499Y283603D01*
X89718Y283310D01*
X88839Y283115D01*
X87814Y283018D01*
X82298D01*
X82102Y283066D01*
X81565Y283115D01*
X80931Y283262D01*
X80198Y283506D01*
X79417Y283847D01*
X78636Y284336D01*
X77904Y284970D01*
X77806Y285068D01*
X77611Y285312D01*
X77318Y285702D01*
X76976Y286239D01*
X76586Y286923D01*
X76293Y287704D01*
X76098Y288632D01*
X76000Y289608D01*
Y289657D01*
Y289706D01*
Y289852D01*
X76049Y290047D01*
X76098Y290584D01*
X76244Y291219D01*
X76488Y291951D01*
X76781Y292732D01*
X77269Y293514D01*
X77904Y294246D01*
X78002Y294343D01*
X78246Y294539D01*
X78636Y294832D01*
X79222Y295173D01*
X79857Y295564D01*
X80687Y295857D01*
X81565Y296052D01*
X82542Y296150D01*
X88058D01*
X88253Y296101D01*
D02*
G37*
G36*
X89523Y277696D02*
X89913Y277647D01*
X90401Y277550D01*
X90987Y277355D01*
X91622Y277110D01*
X92257Y276720D01*
X92843Y276232D01*
X92891Y276183D01*
X93087Y275939D01*
X93331Y275646D01*
X93624Y275207D01*
X93917Y274669D01*
X94161Y274035D01*
X94356Y273302D01*
X94405Y272521D01*
Y268567D01*
Y268518D01*
Y268372D01*
X94356Y268128D01*
X94258Y267884D01*
X94063Y267688D01*
X93868Y267444D01*
X93526Y267298D01*
X93087Y267249D01*
X92891D01*
X92647Y267298D01*
X92452Y267395D01*
X92208Y267591D01*
X91964Y267786D01*
X91817Y268128D01*
X91769Y268567D01*
Y272521D01*
Y272570D01*
Y272717D01*
X91720Y272912D01*
X91671Y273156D01*
X91573Y273449D01*
X91427Y273742D01*
X91231Y274084D01*
X90987Y274377D01*
X90939Y274425D01*
X90841Y274474D01*
X90695Y274621D01*
X90450Y274718D01*
X90206Y274865D01*
X89865Y275011D01*
X89523Y275060D01*
X89132Y275109D01*
X81028D01*
X80833Y275060D01*
X80589Y275011D01*
X80296Y274914D01*
X80003Y274816D01*
X79661Y274621D01*
X79369Y274377D01*
X79320Y274328D01*
X79271Y274230D01*
X79124Y274084D01*
X79027Y273839D01*
X78880Y273595D01*
X78734Y273254D01*
X78685Y272912D01*
X78636Y272521D01*
Y268567D01*
Y268518D01*
Y268372D01*
X78587Y268128D01*
X78490Y267884D01*
X78295Y267688D01*
X78099Y267444D01*
X77758Y267298D01*
X77318Y267249D01*
X77123D01*
X76879Y267298D01*
X76684Y267395D01*
X76439Y267591D01*
X76195Y267786D01*
X76049Y268128D01*
X76000Y268567D01*
Y272521D01*
Y272619D01*
X76049Y272863D01*
X76098Y273302D01*
X76195Y273791D01*
X76391Y274377D01*
X76635Y275011D01*
X77025Y275646D01*
X77513Y276232D01*
X77562Y276280D01*
X77806Y276476D01*
X78099Y276720D01*
X78539Y276964D01*
X79076Y277257D01*
X79710Y277501D01*
X80442Y277696D01*
X81224Y277745D01*
X89230D01*
X89523Y277696D01*
D02*
G37*
G36*
X93526Y261928D02*
X93770Y261830D01*
X93965Y261635D01*
X94209Y261440D01*
X94356Y261098D01*
X94405Y260658D01*
Y260610D01*
Y260463D01*
X94356Y260219D01*
X94258Y259975D01*
X94063Y259780D01*
X93868Y259536D01*
X93526Y259389D01*
X93087Y259340D01*
X86545D01*
Y251481D01*
X93282D01*
X93526Y251432D01*
X93770Y251334D01*
X93965Y251139D01*
X94209Y250944D01*
X94356Y250602D01*
X94405Y250162D01*
Y250114D01*
Y249967D01*
X94356Y249723D01*
X94258Y249479D01*
X94063Y249284D01*
X93868Y249040D01*
X93526Y248893D01*
X93087Y248844D01*
X77074D01*
X76879Y248893D01*
X76635Y248991D01*
X76391Y249186D01*
X76195Y249381D01*
X76049Y249723D01*
X76000Y250162D01*
Y250211D01*
Y250358D01*
X76049Y250602D01*
X76146Y250797D01*
X76342Y251041D01*
X76537Y251285D01*
X76879Y251432D01*
X77318Y251481D01*
X83909D01*
Y259340D01*
X77123D01*
X76879Y259389D01*
X76684Y259487D01*
X76439Y259682D01*
X76195Y259877D01*
X76049Y260219D01*
X76000Y260658D01*
Y260707D01*
Y260854D01*
X76049Y261098D01*
X76146Y261293D01*
X76293Y261537D01*
X76537Y261781D01*
X76830Y261928D01*
X77269Y261977D01*
X93282D01*
X93526Y261928D01*
D02*
G37*
G36*
X476003Y171923D02*
X476101Y171884D01*
X476179Y171806D01*
X476276Y171728D01*
X476335Y171591D01*
X476354Y171416D01*
Y171396D01*
Y171338D01*
X476335Y171240D01*
X476296Y171143D01*
X476218Y171065D01*
X476140Y170967D01*
X476003Y170909D01*
X475827Y170889D01*
X472901D01*
X476198Y167592D01*
X476218Y167573D01*
X476276Y167495D01*
X476335Y167378D01*
X476354Y167222D01*
Y167202D01*
Y167144D01*
X476335Y167046D01*
X476296Y166949D01*
X476218Y166870D01*
X476140Y166773D01*
X476003Y166714D01*
X475827Y166695D01*
X475788D01*
X475710Y166714D01*
X475574Y166754D01*
X475457Y166851D01*
X473136Y169153D01*
X469819Y166793D01*
X469800Y166773D01*
X469722Y166734D01*
X469624Y166714D01*
X469507Y166695D01*
X469429D01*
X469351Y166714D01*
X469254Y166754D01*
X469156Y166831D01*
X469078Y166910D01*
X469020Y167046D01*
X469000Y167222D01*
Y167241D01*
Y167261D01*
X469020Y167378D01*
X469098Y167514D01*
X469137Y167592D01*
X469215Y167651D01*
X472375Y169914D01*
X471399Y170889D01*
X469429D01*
X469351Y170909D01*
X469254Y170947D01*
X469156Y171026D01*
X469078Y171104D01*
X469020Y171240D01*
X469000Y171416D01*
Y171435D01*
Y171494D01*
X469020Y171591D01*
X469058Y171669D01*
X469117Y171767D01*
X469215Y171864D01*
X469332Y171923D01*
X469507Y171942D01*
X475906D01*
X476003Y171923D01*
D02*
G37*
G36*
Y106676D02*
X476101Y106636D01*
X476179Y106558D01*
X476276Y106480D01*
X476335Y106344D01*
X476354Y106168D01*
Y106149D01*
Y106090D01*
X476335Y105993D01*
X476296Y105895D01*
X476218Y105817D01*
X476140Y105720D01*
X476003Y105661D01*
X475827Y105642D01*
X469429D01*
X469351Y105661D01*
X469254Y105700D01*
X469156Y105778D01*
X469078Y105856D01*
X469020Y105993D01*
X469000Y106168D01*
Y106188D01*
Y106246D01*
X469020Y106344D01*
X469058Y106422D01*
X469117Y106519D01*
X469215Y106617D01*
X469332Y106676D01*
X469507Y106695D01*
X475906D01*
X476003Y106676D01*
D02*
G37*
G36*
Y103515D02*
X476101Y103476D01*
X476179Y103398D01*
X476276Y103320D01*
X476335Y103184D01*
X476354Y103008D01*
Y102989D01*
Y102930D01*
X476335Y102832D01*
X476296Y102735D01*
X476218Y102657D01*
X476140Y102559D01*
X476003Y102501D01*
X475827Y102481D01*
X472901D01*
X476198Y99185D01*
X476218Y99165D01*
X476276Y99087D01*
X476335Y98970D01*
X476354Y98814D01*
Y98794D01*
Y98736D01*
X476335Y98638D01*
X476296Y98541D01*
X476218Y98463D01*
X476140Y98365D01*
X476003Y98307D01*
X475827Y98287D01*
X475788D01*
X475710Y98307D01*
X475574Y98346D01*
X475457Y98443D01*
X473136Y100745D01*
X469819Y98385D01*
X469800Y98365D01*
X469722Y98326D01*
X469624Y98307D01*
X469507Y98287D01*
X469429D01*
X469351Y98307D01*
X469254Y98346D01*
X469156Y98424D01*
X469078Y98502D01*
X469020Y98638D01*
X469000Y98814D01*
Y98834D01*
Y98853D01*
X469020Y98970D01*
X469098Y99107D01*
X469137Y99185D01*
X469215Y99243D01*
X472375Y101506D01*
X471399Y102481D01*
X469429D01*
X469351Y102501D01*
X469254Y102540D01*
X469156Y102618D01*
X469078Y102696D01*
X469020Y102832D01*
X469000Y103008D01*
Y103028D01*
Y103086D01*
X469020Y103184D01*
X469058Y103262D01*
X469117Y103359D01*
X469215Y103457D01*
X469332Y103515D01*
X469507Y103535D01*
X475906D01*
X476003Y103515D01*
D02*
G37*
G36*
X469683Y96161D02*
X475925Y94093D01*
X475945D01*
X475984Y94054D01*
X476062Y94015D01*
X476140Y93976D01*
X476218Y93898D01*
X476296Y93801D01*
X476335Y93703D01*
X476354Y93567D01*
Y91460D01*
Y91440D01*
Y91382D01*
X476335Y91284D01*
X476296Y91187D01*
X476218Y91109D01*
X476140Y91011D01*
X476003Y90953D01*
X475827Y90933D01*
X469429D01*
X469351Y90953D01*
X469254Y90992D01*
X469156Y91070D01*
X469078Y91148D01*
X469020Y91284D01*
X469000Y91460D01*
Y91479D01*
Y91538D01*
X469020Y91635D01*
X469058Y91713D01*
X469117Y91811D01*
X469215Y91909D01*
X469332Y91967D01*
X469507Y91987D01*
X475301D01*
Y93196D01*
X469351Y95166D01*
X469332D01*
X469293Y95186D01*
X469176Y95264D01*
X469117Y95342D01*
X469058Y95420D01*
X469020Y95517D01*
X469000Y95654D01*
Y95673D01*
Y95732D01*
X469020Y95829D01*
X469058Y95907D01*
X469137Y96005D01*
X469215Y96103D01*
X469351Y96161D01*
X469527Y96181D01*
X469585D01*
X469683Y96161D01*
D02*
G37*
G36*
Y164569D02*
X475925Y162501D01*
X475945D01*
X475984Y162462D01*
X476062Y162423D01*
X476140Y162384D01*
X476218Y162306D01*
X476296Y162208D01*
X476335Y162111D01*
X476354Y161974D01*
Y159867D01*
Y159848D01*
Y159789D01*
X476335Y159692D01*
X476296Y159594D01*
X476218Y159516D01*
X476140Y159419D01*
X476003Y159360D01*
X475827Y159341D01*
X469429D01*
X469351Y159360D01*
X469254Y159399D01*
X469156Y159477D01*
X469078Y159555D01*
X469020Y159692D01*
X469000Y159867D01*
Y159887D01*
Y159945D01*
X469020Y160043D01*
X469058Y160121D01*
X469117Y160219D01*
X469215Y160316D01*
X469332Y160375D01*
X469507Y160394D01*
X475301D01*
Y161604D01*
X469351Y163574D01*
X469332D01*
X469293Y163593D01*
X469176Y163671D01*
X469117Y163749D01*
X469058Y163827D01*
X469020Y163925D01*
X469000Y164062D01*
Y164081D01*
Y164139D01*
X469020Y164237D01*
X469058Y164315D01*
X469137Y164413D01*
X469215Y164510D01*
X469351Y164569D01*
X469527Y164588D01*
X469585D01*
X469683Y164569D01*
D02*
G37*
G36*
X479163Y120330D02*
X479261Y120292D01*
X479339Y120233D01*
X479436Y120135D01*
X479495Y120018D01*
X479514Y119843D01*
Y117209D01*
Y117190D01*
Y117151D01*
Y117092D01*
X479495Y117014D01*
X479475Y116819D01*
X479417Y116566D01*
X479339Y116253D01*
X479202Y115941D01*
X479007Y115629D01*
X478754Y115337D01*
X478715Y115298D01*
X478617Y115220D01*
X478461Y115103D01*
X478227Y114946D01*
X477954Y114810D01*
X477642Y114693D01*
X477291Y114615D01*
X476881Y114576D01*
X476764D01*
X476666Y114595D01*
X476432Y114634D01*
X476159Y114693D01*
X475827Y114810D01*
X475476Y114986D01*
X475320Y115103D01*
X475145Y115220D01*
X474989Y115376D01*
X474833Y115551D01*
X474813Y115532D01*
X474794Y115493D01*
X474735Y115415D01*
X474657Y115317D01*
X474579Y115200D01*
X474462Y115083D01*
X474325Y114946D01*
X474169Y114790D01*
X473974Y114654D01*
X473779Y114517D01*
X473565Y114400D01*
X473311Y114283D01*
X473058Y114186D01*
X472765Y114108D01*
X472472Y114069D01*
X472141Y114049D01*
X472024D01*
X471926Y114069D01*
X471809D01*
X471673Y114088D01*
X471380Y114166D01*
X471029Y114283D01*
X470658Y114439D01*
X470268Y114673D01*
X470092Y114830D01*
X469917Y114986D01*
Y115005D01*
X469878Y115024D01*
X469839Y115083D01*
X469780Y115142D01*
X469624Y115337D01*
X469468Y115610D01*
X469293Y115922D01*
X469137Y116312D01*
X469039Y116741D01*
X469020Y116975D01*
X469000Y117209D01*
Y119843D01*
Y119862D01*
Y119921D01*
X469020Y119999D01*
X469058Y120096D01*
X469117Y120194D01*
X469215Y120272D01*
X469332Y120330D01*
X469507Y120350D01*
X479066D01*
X479163Y120330D01*
D02*
G37*
G36*
X476003Y111923D02*
X476101Y111884D01*
X476179Y111806D01*
X476276Y111728D01*
X476335Y111591D01*
X476354Y111416D01*
Y111396D01*
Y111338D01*
X476335Y111240D01*
X476296Y111143D01*
X476218Y111065D01*
X476140Y110967D01*
X476003Y110908D01*
X475827Y110889D01*
X473214D01*
Y109836D01*
Y109816D01*
Y109797D01*
Y109680D01*
X473175Y109523D01*
X473136Y109328D01*
X473058Y109094D01*
X472960Y108841D01*
X472804Y108587D01*
X472589Y108353D01*
X472570Y108334D01*
X472472Y108256D01*
X472355Y108158D01*
X472180Y108041D01*
X471965Y107924D01*
X471712Y107826D01*
X471419Y107748D01*
X471107Y107729D01*
X470951D01*
X470795Y107768D01*
X470580Y107807D01*
X470346Y107885D01*
X470092Y107982D01*
X469839Y108139D01*
X469605Y108353D01*
X469585Y108373D01*
X469507Y108470D01*
X469410Y108587D01*
X469312Y108763D01*
X469195Y108977D01*
X469098Y109231D01*
X469020Y109523D01*
X469000Y109836D01*
Y111416D01*
Y111435D01*
Y111494D01*
X469020Y111591D01*
X469058Y111669D01*
X469117Y111767D01*
X469215Y111864D01*
X469332Y111923D01*
X469507Y111942D01*
X475906D01*
X476003Y111923D01*
D02*
G37*
G36*
X61526Y269060D02*
X61770Y268962D01*
X61965Y268767D01*
X62209Y268572D01*
X62356Y268230D01*
X62405Y267791D01*
Y267742D01*
Y267595D01*
X62356Y267351D01*
X62258Y267107D01*
X62063Y266912D01*
X61868Y266668D01*
X61526Y266521D01*
X61087Y266473D01*
X49028D01*
X48833Y266424D01*
X48589Y266375D01*
X48296Y266277D01*
X48003Y266180D01*
X47661Y265984D01*
X47368Y265740D01*
X47320Y265692D01*
X47271Y265594D01*
X47124Y265447D01*
X47027Y265203D01*
X46880Y264959D01*
X46734Y264618D01*
X46685Y264276D01*
X46636Y263885D01*
Y258613D01*
X61282D01*
X61526Y258564D01*
X61770Y258466D01*
X61965Y258271D01*
X62209Y258076D01*
X62356Y257734D01*
X62405Y257295D01*
Y257246D01*
Y257099D01*
X62356Y256855D01*
X62258Y256611D01*
X62063Y256416D01*
X61868Y256172D01*
X61526Y256025D01*
X61087Y255977D01*
X46636D01*
Y254658D01*
Y254610D01*
Y254463D01*
X46587Y254219D01*
X46490Y253975D01*
X46294Y253780D01*
X46099Y253536D01*
X45757Y253389D01*
X45318Y253340D01*
X41168D01*
X40924Y253389D01*
X40729Y253487D01*
X40485Y253682D01*
X40241Y253877D01*
X40094Y254219D01*
X40046Y254658D01*
Y254707D01*
Y254854D01*
X40094Y255098D01*
X40192Y255293D01*
X40387Y255537D01*
X40583Y255781D01*
X40924Y255928D01*
X41364Y255977D01*
X44000D01*
Y263885D01*
Y263983D01*
X44049Y264227D01*
X44098Y264666D01*
X44195Y265154D01*
X44391Y265740D01*
X44635Y266375D01*
X45025Y267010D01*
X45513Y267595D01*
X45562Y267644D01*
X45806Y267840D01*
X46099Y268084D01*
X46539Y268328D01*
X47076Y268621D01*
X47710Y268865D01*
X48443Y269060D01*
X49224Y269109D01*
X61282D01*
X61526Y269060D01*
D02*
G37*
G36*
Y248019D02*
X61770Y247921D01*
X61965Y247726D01*
X62209Y247531D01*
X62356Y247189D01*
X62405Y246750D01*
Y246701D01*
Y246555D01*
X62356Y246310D01*
X62258Y246066D01*
X62063Y245871D01*
X61868Y245627D01*
X61526Y245480D01*
X61087Y245432D01*
X49028D01*
X48833Y245383D01*
X48589Y245334D01*
X48296Y245236D01*
X48003Y245139D01*
X47661Y244944D01*
X47368Y244699D01*
X47320Y244651D01*
X47271Y244553D01*
X47124Y244407D01*
X47027Y244162D01*
X46880Y243918D01*
X46734Y243577D01*
X46685Y243235D01*
X46636Y242844D01*
Y237572D01*
X61282D01*
X61526Y237523D01*
X61770Y237425D01*
X61965Y237230D01*
X62209Y237035D01*
X62356Y236693D01*
X62405Y236254D01*
Y236205D01*
Y236059D01*
X62356Y235814D01*
X62258Y235570D01*
X62063Y235375D01*
X61868Y235131D01*
X61526Y234984D01*
X61087Y234936D01*
X45074D01*
X44879Y234984D01*
X44635Y235082D01*
X44391Y235277D01*
X44195Y235473D01*
X44049Y235814D01*
X44000Y236254D01*
Y242844D01*
Y242942D01*
X44049Y243186D01*
X44098Y243625D01*
X44195Y244114D01*
X44391Y244699D01*
X44635Y245334D01*
X45025Y245969D01*
X45513Y246555D01*
X45562Y246603D01*
X45806Y246799D01*
X46099Y247043D01*
X46539Y247287D01*
X47076Y247580D01*
X47710Y247824D01*
X48443Y248019D01*
X49224Y248068D01*
X61282D01*
X61526Y248019D01*
D02*
G37*
G36*
X57523Y229614D02*
X57913Y229566D01*
X58401Y229468D01*
X58987Y229273D01*
X59622Y229029D01*
X60257Y228638D01*
X60842Y228150D01*
X60891Y228101D01*
X61087Y227857D01*
X61331Y227564D01*
X61624Y227125D01*
X61916Y226588D01*
X62161Y225953D01*
X62356Y225221D01*
X62405Y224440D01*
Y217849D01*
Y217800D01*
Y217654D01*
X62356Y217410D01*
X62258Y217166D01*
X62063Y216970D01*
X61868Y216726D01*
X61526Y216580D01*
X61087Y216531D01*
X45074D01*
X44879Y216580D01*
X44635Y216677D01*
X44391Y216873D01*
X44195Y217068D01*
X44049Y217410D01*
X44000Y217849D01*
Y217898D01*
Y218044D01*
X44049Y218288D01*
X44146Y218484D01*
X44342Y218728D01*
X44537Y218972D01*
X44879Y219118D01*
X45318Y219167D01*
X51909D01*
Y221852D01*
X44537Y227320D01*
X44439Y227369D01*
X44293Y227613D01*
X44098Y227955D01*
X44049Y228150D01*
X44000Y228394D01*
Y228443D01*
Y228589D01*
X44049Y228785D01*
X44146Y229029D01*
X44342Y229273D01*
X44537Y229468D01*
X44879Y229614D01*
X45318Y229663D01*
X45416D01*
X45562Y229614D01*
X45855Y229566D01*
X46099Y229468D01*
X51909Y225025D01*
Y225123D01*
X51958Y225367D01*
X52055Y225709D01*
X52201Y226197D01*
X52446Y226734D01*
X52739Y227271D01*
X53129Y227808D01*
X53617Y228345D01*
X53666Y228394D01*
X53861Y228540D01*
X54203Y228785D01*
X54594Y228980D01*
X55131Y229224D01*
X55717Y229468D01*
X56400Y229614D01*
X57132Y229663D01*
X57230D01*
X57523Y229614D01*
D02*
G37*
G36*
X61526Y287465D02*
X61770Y287367D01*
X61965Y287172D01*
X62209Y286977D01*
X62356Y286635D01*
X62405Y286195D01*
Y286147D01*
Y286000D01*
X62356Y285756D01*
X62258Y285512D01*
X62063Y285317D01*
X61868Y285073D01*
X61526Y284926D01*
X61087Y284877D01*
X54545D01*
Y277017D01*
X61282D01*
X61526Y276969D01*
X61770Y276871D01*
X61965Y276676D01*
X62209Y276480D01*
X62356Y276139D01*
X62405Y275699D01*
Y275651D01*
Y275504D01*
X62356Y275260D01*
X62258Y275016D01*
X62063Y274821D01*
X61868Y274576D01*
X61526Y274430D01*
X61087Y274381D01*
X45074D01*
X44879Y274430D01*
X44635Y274528D01*
X44391Y274723D01*
X44195Y274918D01*
X44049Y275260D01*
X44000Y275699D01*
Y275748D01*
Y275895D01*
X44049Y276139D01*
X44146Y276334D01*
X44342Y276578D01*
X44537Y276822D01*
X44879Y276969D01*
X45318Y277017D01*
X51909D01*
Y284877D01*
X45123D01*
X44879Y284926D01*
X44683Y285024D01*
X44439Y285219D01*
X44195Y285414D01*
X44049Y285756D01*
X44000Y286195D01*
Y286244D01*
Y286391D01*
X44049Y286635D01*
X44146Y286830D01*
X44293Y287074D01*
X44537Y287318D01*
X44830Y287465D01*
X45269Y287514D01*
X61282D01*
X61526Y287465D01*
D02*
G37*
G36*
X57523Y347951D02*
X57913Y347902D01*
X58401Y347805D01*
X58987Y347609D01*
X59622Y347365D01*
X60257Y346975D01*
X60842Y346487D01*
X60891Y346438D01*
X61087Y346194D01*
X61331Y345901D01*
X61624Y345461D01*
X61916Y344924D01*
X62161Y344290D01*
X62356Y343558D01*
X62405Y342776D01*
Y338822D01*
Y338773D01*
Y338627D01*
X62356Y338383D01*
X62258Y338139D01*
X62063Y337943D01*
X61868Y337699D01*
X61526Y337553D01*
X61087Y337504D01*
X60891D01*
X60647Y337553D01*
X60452Y337650D01*
X60208Y337846D01*
X59964Y338041D01*
X59817Y338383D01*
X59769Y338822D01*
Y342776D01*
Y342825D01*
Y342972D01*
X59720Y343167D01*
X59671Y343411D01*
X59573Y343704D01*
X59427Y343997D01*
X59232Y344339D01*
X58987Y344632D01*
X58938Y344680D01*
X58841Y344729D01*
X58694Y344876D01*
X58450Y344973D01*
X58206Y345120D01*
X57864Y345266D01*
X57523Y345315D01*
X57132Y345364D01*
X49028D01*
X48833Y345315D01*
X48589Y345266D01*
X48296Y345168D01*
X48003Y345071D01*
X47661Y344876D01*
X47368Y344632D01*
X47320Y344583D01*
X47271Y344485D01*
X47124Y344339D01*
X47027Y344095D01*
X46880Y343850D01*
X46734Y343509D01*
X46685Y343167D01*
X46636Y342776D01*
Y338822D01*
Y338773D01*
Y338627D01*
X46587Y338383D01*
X46490Y338139D01*
X46294Y337943D01*
X46099Y337699D01*
X45757Y337553D01*
X45318Y337504D01*
X45123D01*
X44879Y337553D01*
X44683Y337650D01*
X44439Y337846D01*
X44195Y338041D01*
X44049Y338383D01*
X44000Y338822D01*
Y342776D01*
Y342874D01*
X44049Y343118D01*
X44098Y343558D01*
X44195Y344046D01*
X44391Y344632D01*
X44635Y345266D01*
X45025Y345901D01*
X45513Y346487D01*
X45562Y346535D01*
X45806Y346731D01*
X46099Y346975D01*
X46539Y347219D01*
X47076Y347512D01*
X47710Y347756D01*
X48443Y347951D01*
X49224Y348000D01*
X57230D01*
X57523Y347951D01*
D02*
G37*
G36*
X61526Y332183D02*
X61770Y332085D01*
X61965Y331890D01*
X62209Y331694D01*
X62356Y331353D01*
X62405Y330913D01*
Y319050D01*
Y319002D01*
Y318953D01*
Y318660D01*
X62307Y318269D01*
X62209Y317781D01*
X62014Y317195D01*
X61770Y316561D01*
X61379Y315926D01*
X60842Y315340D01*
X60794Y315291D01*
X60550Y315096D01*
X60257Y314852D01*
X59817Y314559D01*
X59280Y314266D01*
X58646Y314022D01*
X57913Y313827D01*
X57132Y313778D01*
X45074D01*
X44879Y313827D01*
X44635Y313925D01*
X44391Y314120D01*
X44195Y314315D01*
X44049Y314657D01*
X44000Y315096D01*
Y315145D01*
Y315291D01*
X44049Y315536D01*
X44146Y315731D01*
X44293Y315975D01*
X44537Y316219D01*
X44830Y316365D01*
X45269Y316414D01*
X57327D01*
X57523Y316463D01*
X57767Y316512D01*
X58060Y316609D01*
X58401Y316756D01*
X58694Y316951D01*
X58987Y317195D01*
X59036Y317244D01*
X59134Y317342D01*
X59232Y317488D01*
X59378Y317732D01*
X59524Y317976D01*
X59671Y318318D01*
X59720Y318660D01*
X59769Y319050D01*
Y321687D01*
X45074D01*
X44879Y321735D01*
X44635Y321833D01*
X44391Y322028D01*
X44195Y322224D01*
X44049Y322565D01*
X44000Y323005D01*
Y323054D01*
Y323200D01*
X44049Y323444D01*
X44146Y323639D01*
X44293Y323884D01*
X44537Y324128D01*
X44830Y324274D01*
X45269Y324323D01*
X59769D01*
Y329595D01*
X45074D01*
X44879Y329644D01*
X44635Y329742D01*
X44391Y329937D01*
X44195Y330132D01*
X44049Y330474D01*
X44000Y330913D01*
Y330962D01*
Y331109D01*
X44049Y331353D01*
X44146Y331548D01*
X44293Y331792D01*
X44537Y332036D01*
X44830Y332183D01*
X45269Y332231D01*
X61282D01*
X61526Y332183D01*
D02*
G37*
G36*
X57523Y308506D02*
X57913Y308457D01*
X58401Y308359D01*
X58987Y308164D01*
X59622Y307920D01*
X60257Y307529D01*
X60842Y307041D01*
X60891Y306992D01*
X61087Y306748D01*
X61331Y306455D01*
X61624Y306016D01*
X61916Y305479D01*
X62161Y304844D01*
X62356Y304112D01*
X62405Y303331D01*
Y296740D01*
Y296691D01*
Y296545D01*
X62356Y296301D01*
X62258Y296057D01*
X62063Y295861D01*
X61868Y295617D01*
X61526Y295471D01*
X61087Y295422D01*
X47710D01*
X47466Y295373D01*
X47271Y295276D01*
X47027Y295080D01*
X46783Y294885D01*
X46636Y294543D01*
X46587Y294104D01*
Y294055D01*
Y293909D01*
X46539Y293665D01*
X46441Y293421D01*
X46246Y293225D01*
X46050Y292981D01*
X45709Y292835D01*
X45269Y292786D01*
X45074D01*
X44879Y292835D01*
X44635Y292932D01*
X44391Y293128D01*
X44195Y293323D01*
X44049Y293665D01*
X44000Y294104D01*
Y294202D01*
Y294397D01*
X44098Y294739D01*
X44195Y295178D01*
X44342Y295666D01*
X44586Y296154D01*
X44928Y296643D01*
X45367Y297131D01*
X45318Y297180D01*
X45172Y297375D01*
X44928Y297717D01*
X44683Y298107D01*
X44439Y298644D01*
X44195Y299230D01*
X44049Y299914D01*
X44000Y300695D01*
Y303331D01*
Y303428D01*
X44049Y303673D01*
X44098Y304112D01*
X44195Y304600D01*
X44391Y305186D01*
X44635Y305821D01*
X45025Y306455D01*
X45513Y307041D01*
X45562Y307090D01*
X45806Y307285D01*
X46099Y307529D01*
X46539Y307773D01*
X47076Y308066D01*
X47710Y308310D01*
X48443Y308506D01*
X49224Y308554D01*
X57230D01*
X57523Y308506D01*
D02*
G37*
G36*
X89523Y332910D02*
X89913Y332862D01*
X90401Y332764D01*
X90987Y332569D01*
X91622Y332324D01*
X92257Y331934D01*
X92843Y331446D01*
X92891Y331397D01*
X93087Y331153D01*
X93331Y330860D01*
X93624Y330420D01*
X93917Y329883D01*
X94161Y329249D01*
X94356Y328517D01*
X94405Y327735D01*
Y321145D01*
Y321096D01*
Y320950D01*
X94356Y320706D01*
X94258Y320462D01*
X94063Y320266D01*
X93868Y320022D01*
X93526Y319876D01*
X93087Y319827D01*
X79710D01*
X79466Y319778D01*
X79271Y319680D01*
X79027Y319485D01*
X78783Y319290D01*
X78636Y318948D01*
X78587Y318509D01*
Y318460D01*
Y318314D01*
X78539Y318069D01*
X78441Y317825D01*
X78246Y317630D01*
X78050Y317386D01*
X77709Y317239D01*
X77269Y317191D01*
X77074D01*
X76879Y317239D01*
X76635Y317337D01*
X76391Y317532D01*
X76195Y317728D01*
X76049Y318069D01*
X76000Y318509D01*
Y318606D01*
Y318802D01*
X76098Y319143D01*
X76195Y319583D01*
X76342Y320071D01*
X76586Y320559D01*
X76928Y321047D01*
X77367Y321535D01*
X77318Y321584D01*
X77172Y321780D01*
X76928Y322121D01*
X76684Y322512D01*
X76439Y323049D01*
X76195Y323635D01*
X76049Y324318D01*
X76000Y325099D01*
Y327735D01*
Y327833D01*
X76049Y328077D01*
X76098Y328517D01*
X76195Y329005D01*
X76391Y329591D01*
X76635Y330225D01*
X77025Y330860D01*
X77513Y331446D01*
X77562Y331494D01*
X77806Y331690D01*
X78099Y331934D01*
X78539Y332178D01*
X79076Y332471D01*
X79710Y332715D01*
X80442Y332910D01*
X81224Y332959D01*
X89230D01*
X89523Y332910D01*
D02*
G37*
G36*
X101435Y353951D02*
X101679Y353853D01*
X101874Y353658D01*
X102118Y353463D01*
X102264Y353121D01*
X102313Y352682D01*
Y352633D01*
Y352487D01*
X102264Y352243D01*
X102167Y351998D01*
X101972Y351803D01*
X101776Y351559D01*
X101435Y351413D01*
X100995Y351364D01*
X91769D01*
Y340868D01*
X101191D01*
X101435Y340819D01*
X101679Y340721D01*
X101874Y340526D01*
X102118Y340331D01*
X102264Y339989D01*
X102313Y339550D01*
Y339501D01*
Y339354D01*
X102264Y339110D01*
X102167Y338866D01*
X101972Y338671D01*
X101776Y338427D01*
X101435Y338280D01*
X100995Y338232D01*
X77074D01*
X76879Y338280D01*
X76635Y338378D01*
X76391Y338573D01*
X76195Y338769D01*
X76049Y339110D01*
X76000Y339550D01*
Y339599D01*
Y339745D01*
X76049Y339989D01*
X76146Y340184D01*
X76293Y340428D01*
X76537Y340672D01*
X76830Y340819D01*
X77269Y340868D01*
X89132D01*
Y351364D01*
X77074D01*
X76879Y351413D01*
X76635Y351510D01*
X76391Y351706D01*
X76195Y351901D01*
X76049Y352243D01*
X76000Y352682D01*
Y352731D01*
Y352877D01*
X76049Y353121D01*
X76146Y353316D01*
X76293Y353561D01*
X76537Y353805D01*
X76830Y353951D01*
X77269Y354000D01*
X101191D01*
X101435Y353951D01*
D02*
G37*
G36*
X89523Y311869D02*
X89913Y311821D01*
X90401Y311723D01*
X90987Y311528D01*
X91622Y311284D01*
X92257Y310893D01*
X92843Y310405D01*
X92891Y310356D01*
X93087Y310112D01*
X93331Y309819D01*
X93624Y309380D01*
X93917Y308843D01*
X94161Y308208D01*
X94356Y307476D01*
X94405Y306695D01*
Y302740D01*
Y302691D01*
Y302545D01*
X94356Y302301D01*
X94258Y302057D01*
X94063Y301861D01*
X93868Y301617D01*
X93526Y301471D01*
X93087Y301422D01*
X92891D01*
X92647Y301471D01*
X92452Y301569D01*
X92208Y301764D01*
X91964Y301959D01*
X91817Y302301D01*
X91769Y302740D01*
Y306695D01*
Y306743D01*
Y306890D01*
X91720Y307085D01*
X91671Y307329D01*
X91573Y307622D01*
X91427Y307915D01*
X91231Y308257D01*
X90987Y308550D01*
X90939Y308598D01*
X90841Y308647D01*
X90695Y308794D01*
X90450Y308891D01*
X90206Y309038D01*
X89865Y309184D01*
X89523Y309233D01*
X89132Y309282D01*
X81028D01*
X80833Y309233D01*
X80589Y309184D01*
X80296Y309087D01*
X80003Y308989D01*
X79661Y308794D01*
X79369Y308550D01*
X79320Y308501D01*
X79271Y308403D01*
X79124Y308257D01*
X79027Y308013D01*
X78880Y307769D01*
X78734Y307427D01*
X78685Y307085D01*
X78636Y306695D01*
Y302740D01*
Y302691D01*
Y302545D01*
X78587Y302301D01*
X78490Y302057D01*
X78295Y301861D01*
X78099Y301617D01*
X77758Y301471D01*
X77318Y301422D01*
X77123D01*
X76879Y301471D01*
X76684Y301569D01*
X76439Y301764D01*
X76195Y301959D01*
X76049Y302301D01*
X76000Y302740D01*
Y306695D01*
Y306792D01*
X76049Y307036D01*
X76098Y307476D01*
X76195Y307964D01*
X76391Y308550D01*
X76635Y309184D01*
X77025Y309819D01*
X77513Y310405D01*
X77562Y310454D01*
X77806Y310649D01*
X78099Y310893D01*
X78539Y311137D01*
X79076Y311430D01*
X79710Y311674D01*
X80442Y311869D01*
X81224Y311918D01*
X89230D01*
X89523Y311869D01*
D02*
G37*
%LPC*%
G36*
X89132Y240936D02*
X81028D01*
X80833Y240887D01*
X80589Y240838D01*
X80296Y240740D01*
X80003Y240643D01*
X79661Y240448D01*
X79369Y240203D01*
X79320Y240155D01*
X79271Y240057D01*
X79124Y239911D01*
X79027Y239666D01*
X78880Y239422D01*
X78734Y239081D01*
X78685Y238739D01*
X78636Y238348D01*
Y235712D01*
Y235663D01*
Y235517D01*
X78685Y235322D01*
X78734Y235077D01*
X78832Y234785D01*
X78929Y234492D01*
X79124Y234150D01*
X79369Y233857D01*
X79417Y233808D01*
X79515Y233710D01*
X79661Y233613D01*
X79906Y233466D01*
X80150Y233320D01*
X80491Y233174D01*
X80833Y233125D01*
X81224Y233076D01*
X91769D01*
Y238348D01*
Y238397D01*
Y238543D01*
X91720Y238739D01*
X91671Y238983D01*
X91573Y239276D01*
X91427Y239569D01*
X91231Y239911D01*
X90987Y240203D01*
X90939Y240252D01*
X90841Y240301D01*
X90695Y240448D01*
X90450Y240545D01*
X90206Y240692D01*
X89865Y240838D01*
X89523Y240887D01*
X89132Y240936D01*
D02*
G37*
G36*
Y219895D02*
X88937D01*
X88742Y219846D01*
X88498Y219797D01*
X88205Y219699D01*
X87912Y219602D01*
X87570Y219407D01*
X87277Y219163D01*
X87228Y219114D01*
X87179Y219016D01*
X87033Y218870D01*
X86935Y218626D01*
X86789Y218381D01*
X86643Y218040D01*
X86594Y217698D01*
X86545Y217307D01*
Y212035D01*
X91769D01*
Y217307D01*
Y217356D01*
Y217503D01*
X91720Y217698D01*
X91671Y217942D01*
X91573Y218235D01*
X91427Y218528D01*
X91231Y218870D01*
X90987Y219163D01*
X90939Y219211D01*
X90841Y219260D01*
X90695Y219407D01*
X90450Y219504D01*
X90206Y219651D01*
X89865Y219797D01*
X89523Y219846D01*
X89132Y219895D01*
D02*
G37*
G36*
X474248Y179297D02*
X470053D01*
Y177209D01*
Y177190D01*
Y177170D01*
X470073Y177053D01*
X470092Y176897D01*
X470131Y176702D01*
X470210Y176468D01*
X470307Y176215D01*
X470463Y175961D01*
X470658Y175727D01*
X470678Y175707D01*
X470775Y175629D01*
X470892Y175532D01*
X471068Y175415D01*
X471282Y175298D01*
X471536Y175200D01*
X471829Y175122D01*
X472141Y175103D01*
X472297D01*
X472453Y175142D01*
X472648Y175181D01*
X472882Y175259D01*
X473136Y175356D01*
X473389Y175512D01*
X473623Y175727D01*
X473643Y175746D01*
X473721Y175844D01*
X473818Y175961D01*
X473935Y176136D01*
X474052Y176351D01*
X474150Y176605D01*
X474228Y176897D01*
X474248Y177209D01*
Y179297D01*
D02*
G37*
G36*
X478461D02*
X475301D01*
Y177209D01*
Y177190D01*
Y177092D01*
X475320Y176975D01*
X475359Y176819D01*
X475418Y176663D01*
X475496Y176468D01*
X475593Y176273D01*
X475750Y176097D01*
X475769Y176078D01*
X475827Y176019D01*
X475925Y175941D01*
X476062Y175863D01*
X476237Y175785D01*
X476432Y175707D01*
X476647Y175649D01*
X476881Y175629D01*
X476998D01*
X477115Y175649D01*
X477271Y175688D01*
X477427Y175746D01*
X477622Y175824D01*
X477817Y175941D01*
X477993Y176097D01*
X478012Y176117D01*
X478071Y176175D01*
X478149Y176273D01*
X478227Y176410D01*
X478305Y176566D01*
X478383Y176761D01*
X478442Y176975D01*
X478461Y177209D01*
Y179297D01*
D02*
G37*
G36*
X87814Y293514D02*
X82249D01*
X81956Y293465D01*
X81565Y293367D01*
X81126Y293221D01*
X80687Y293025D01*
X80198Y292781D01*
X79759Y292391D01*
X79710Y292342D01*
X79564Y292195D01*
X79417Y291951D01*
X79222Y291610D01*
X78978Y291219D01*
X78832Y290731D01*
X78685Y290194D01*
X78636Y289608D01*
Y289559D01*
Y289315D01*
X78685Y289022D01*
X78783Y288632D01*
X78929Y288241D01*
X79124Y287753D01*
X79369Y287265D01*
X79759Y286825D01*
X79808Y286777D01*
X79954Y286630D01*
X80198Y286435D01*
X80540Y286239D01*
X80931Y286044D01*
X81419Y285849D01*
X81956Y285702D01*
X82542Y285654D01*
X88107D01*
X88400Y285702D01*
X88791Y285800D01*
X89181Y285947D01*
X89669Y286142D01*
X90157Y286435D01*
X90597Y286825D01*
X90646Y286874D01*
X90792Y287021D01*
X90987Y287265D01*
X91183Y287606D01*
X91378Y287997D01*
X91573Y288485D01*
X91720Y289022D01*
X91769Y289608D01*
Y289657D01*
Y289852D01*
X91720Y290194D01*
X91622Y290536D01*
X91476Y290975D01*
X91280Y291463D01*
X90987Y291951D01*
X90597Y292391D01*
X90548Y292439D01*
X90401Y292586D01*
X90157Y292732D01*
X89816Y292928D01*
X89425Y293172D01*
X88937Y293318D01*
X88400Y293465D01*
X87814Y293514D01*
D02*
G37*
G36*
X474248Y119297D02*
X470053D01*
Y117209D01*
Y117190D01*
Y117170D01*
X470073Y117053D01*
X470092Y116897D01*
X470131Y116702D01*
X470210Y116468D01*
X470307Y116215D01*
X470463Y115961D01*
X470658Y115727D01*
X470678Y115707D01*
X470775Y115629D01*
X470892Y115532D01*
X471068Y115415D01*
X471282Y115298D01*
X471536Y115200D01*
X471829Y115122D01*
X472141Y115103D01*
X472297D01*
X472453Y115142D01*
X472648Y115181D01*
X472882Y115259D01*
X473136Y115356D01*
X473389Y115512D01*
X473623Y115727D01*
X473643Y115746D01*
X473721Y115844D01*
X473818Y115961D01*
X473935Y116136D01*
X474052Y116351D01*
X474150Y116605D01*
X474228Y116897D01*
X474248Y117209D01*
Y119297D01*
D02*
G37*
G36*
X478461D02*
X475301D01*
Y117209D01*
Y117190D01*
Y117092D01*
X475320Y116975D01*
X475359Y116819D01*
X475418Y116663D01*
X475496Y116468D01*
X475593Y116273D01*
X475750Y116097D01*
X475769Y116078D01*
X475827Y116019D01*
X475925Y115941D01*
X476062Y115863D01*
X476237Y115785D01*
X476432Y115707D01*
X476647Y115649D01*
X476881Y115629D01*
X476998D01*
X477115Y115649D01*
X477271Y115688D01*
X477427Y115746D01*
X477622Y115824D01*
X477817Y115941D01*
X477993Y116097D01*
X478012Y116117D01*
X478071Y116175D01*
X478149Y116273D01*
X478227Y116410D01*
X478305Y116566D01*
X478383Y116761D01*
X478442Y116975D01*
X478461Y117209D01*
Y119297D01*
D02*
G37*
G36*
X472160Y110889D02*
X470053D01*
Y109836D01*
Y109816D01*
Y109758D01*
X470073Y109680D01*
X470092Y109582D01*
X470131Y109465D01*
X470171Y109348D01*
X470248Y109211D01*
X470346Y109094D01*
X470365Y109075D01*
X470405Y109036D01*
X470463Y108997D01*
X470561Y108938D01*
X470678Y108880D01*
X470795Y108821D01*
X470951Y108802D01*
X471107Y108782D01*
X471185D01*
X471263Y108802D01*
X471360Y108821D01*
X471477Y108860D01*
X471595Y108919D01*
X471731Y108997D01*
X471848Y109094D01*
X471868Y109114D01*
X471907Y109153D01*
X471946Y109211D01*
X472004Y109309D01*
X472063Y109406D01*
X472121Y109543D01*
X472141Y109680D01*
X472160Y109836D01*
Y110889D01*
D02*
G37*
G36*
X57132Y227027D02*
X56937D01*
X56742Y226978D01*
X56498Y226929D01*
X56205Y226832D01*
X55912Y226734D01*
X55570Y226539D01*
X55277Y226295D01*
X55228Y226246D01*
X55180Y226148D01*
X55033Y226002D01*
X54935Y225758D01*
X54789Y225514D01*
X54643Y225172D01*
X54594Y224830D01*
X54545Y224440D01*
Y219167D01*
X59769D01*
Y224440D01*
Y224488D01*
Y224635D01*
X59720Y224830D01*
X59671Y225074D01*
X59573Y225367D01*
X59427Y225660D01*
X59232Y226002D01*
X58987Y226295D01*
X58938Y226343D01*
X58841Y226392D01*
X58694Y226539D01*
X58450Y226637D01*
X58206Y226783D01*
X57864Y226929D01*
X57523Y226978D01*
X57132Y227027D01*
D02*
G37*
G36*
Y305918D02*
X49028D01*
X48833Y305869D01*
X48589Y305821D01*
X48296Y305723D01*
X48003Y305625D01*
X47661Y305430D01*
X47368Y305186D01*
X47320Y305137D01*
X47271Y305039D01*
X47124Y304893D01*
X47027Y304649D01*
X46880Y304405D01*
X46734Y304063D01*
X46685Y303721D01*
X46636Y303331D01*
Y300695D01*
Y300646D01*
Y300499D01*
X46685Y300304D01*
X46734Y300060D01*
X46831Y299767D01*
X46929Y299474D01*
X47124Y299132D01*
X47368Y298839D01*
X47417Y298791D01*
X47515Y298693D01*
X47661Y298595D01*
X47906Y298449D01*
X48150Y298302D01*
X48491Y298156D01*
X48833Y298107D01*
X49224Y298058D01*
X59769D01*
Y303331D01*
Y303380D01*
Y303526D01*
X59720Y303721D01*
X59671Y303965D01*
X59573Y304258D01*
X59427Y304551D01*
X59232Y304893D01*
X58987Y305186D01*
X58938Y305235D01*
X58841Y305284D01*
X58694Y305430D01*
X58450Y305528D01*
X58206Y305674D01*
X57864Y305821D01*
X57523Y305869D01*
X57132Y305918D01*
D02*
G37*
G36*
X89132Y330323D02*
X81028D01*
X80833Y330274D01*
X80589Y330225D01*
X80296Y330128D01*
X80003Y330030D01*
X79661Y329835D01*
X79369Y329591D01*
X79320Y329542D01*
X79271Y329444D01*
X79124Y329298D01*
X79027Y329054D01*
X78880Y328810D01*
X78734Y328468D01*
X78685Y328126D01*
X78636Y327735D01*
Y325099D01*
Y325051D01*
Y324904D01*
X78685Y324709D01*
X78734Y324465D01*
X78832Y324172D01*
X78929Y323879D01*
X79124Y323537D01*
X79369Y323244D01*
X79417Y323195D01*
X79515Y323098D01*
X79661Y323000D01*
X79906Y322854D01*
X80150Y322707D01*
X80491Y322561D01*
X80833Y322512D01*
X81224Y322463D01*
X91769D01*
Y327735D01*
Y327784D01*
Y327931D01*
X91720Y328126D01*
X91671Y328370D01*
X91573Y328663D01*
X91427Y328956D01*
X91231Y329298D01*
X90987Y329591D01*
X90939Y329639D01*
X90841Y329688D01*
X90695Y329835D01*
X90450Y329932D01*
X90206Y330079D01*
X89865Y330225D01*
X89523Y330274D01*
X89132Y330323D01*
D02*
G37*
%LPD*%
D21*
X119323Y390540D02*
X129310Y420500D01*
X139297Y390540D01*
X128810Y165000D02*
Y415000D01*
D22*
X415260Y195350D02*
Y299650D01*
X443260Y195350D02*
Y299650D01*
X415260Y195350D02*
X443260D01*
X415260Y299650D02*
X443260D01*
X77240Y115600D02*
X181540D01*
X77240Y87600D02*
X181540D01*
X77240D02*
Y115600D01*
X181540Y87600D02*
Y115600D01*
D23*
X312800Y278130D02*
X315800D01*
Y220980D02*
Y278130D01*
X307340Y220980D02*
X315800D01*
X293800D02*
X302260D01*
X293800D02*
Y278130D01*
X296800D01*
X293800Y248920D02*
X315800D01*
X304800D02*
X308610Y254000D01*
X300990D02*
X304800Y248920D01*
Y246380D02*
Y248920D01*
Y254000D02*
Y256540D01*
X300990Y254000D02*
X308610D01*
X293800Y219710D02*
Y220980D01*
Y219710D02*
X302260D01*
Y220980D01*
X315800Y219710D02*
Y220980D01*
X307340Y219710D02*
X315800D01*
X307340D02*
Y220980D01*
X321930Y264160D02*
X335930D01*
X321930Y251460D02*
X323850D01*
X321930D02*
Y276860D01*
X323850Y276860D01*
X334010D02*
X335930Y276860D01*
Y251460D02*
Y276860D01*
X334010Y251460D02*
X335930D01*
M02*
