G04 Layer_Physical_Order=2*
G04 Layer_Color=16711680*
%FSLAX44Y44*%
%MOMM*%
G71*
G01*
G75*
%ADD15C,0.6000*%
%ADD16C,1.8000*%
%ADD17P,1.9483X8X112.5*%
%ADD18P,1.9483X8X22.5*%
%ADD19C,5.5000*%
%ADD20C,4.0000*%
G36*
X475109Y495686D02*
X480022Y494196D01*
X484550Y491776D01*
X488518Y488519D01*
X491776Y484550D01*
X494196Y480022D01*
X495686Y475109D01*
X496165Y470248D01*
X496115Y470000D01*
X496115Y30000D01*
X496165Y29752D01*
X495686Y24891D01*
X494196Y19978D01*
X491776Y15450D01*
X488518Y11482D01*
X484550Y8225D01*
X480022Y5804D01*
X475109Y4314D01*
X471250Y3934D01*
X470000Y3885D01*
X470000Y3885D01*
X468730Y3885D01*
X31269Y3885D01*
X30000Y3885D01*
X28750Y3934D01*
X24891Y4314D01*
X19978Y5804D01*
X15450Y8225D01*
X11481Y11482D01*
X8225Y15450D01*
X5804Y19978D01*
X4314Y24891D01*
X3934Y28751D01*
X3885Y30000D01*
X3885Y30000D01*
X3885Y31252D01*
X3885Y470000D01*
X3835Y470248D01*
X4314Y475109D01*
X5804Y480022D01*
X8225Y484550D01*
X11481Y488519D01*
X15450Y491776D01*
X19978Y494196D01*
X24891Y495686D01*
X29752Y496165D01*
X30000Y496115D01*
X470000Y496115D01*
X470248Y496165D01*
X475109Y495686D01*
D02*
G37*
%LPC*%
G36*
X142600Y471640D02*
X139587Y471243D01*
X136780Y470080D01*
X134370Y468230D01*
X132520Y465820D01*
X131357Y463013D01*
X130960Y460000D01*
X131357Y456987D01*
X132520Y454180D01*
X134370Y451770D01*
X136351Y450249D01*
Y111942D01*
X135720Y111680D01*
X133310Y109830D01*
X131460Y107420D01*
X130297Y104613D01*
X129901Y101600D01*
X130297Y98588D01*
X131460Y95780D01*
X133310Y93370D01*
X135720Y91520D01*
X138527Y90357D01*
X141540Y89960D01*
X144552Y90357D01*
X147360Y91520D01*
X149770Y93370D01*
X151620Y95780D01*
X152783Y98588D01*
X153180Y101600D01*
X152783Y104613D01*
X151620Y107420D01*
X149770Y109830D01*
X147648Y111459D01*
Y449600D01*
X148420Y449920D01*
X150830Y451770D01*
X152680Y454180D01*
X153843Y456987D01*
X154240Y460000D01*
X153843Y463013D01*
X152680Y465820D01*
X150830Y468230D01*
X148420Y470080D01*
X145612Y471243D01*
X142600Y471640D01*
D02*
G37*
G36*
X117200D02*
X114187Y471243D01*
X111380Y470080D01*
X108970Y468230D01*
X107120Y465820D01*
X105957Y463013D01*
X105560Y460000D01*
X105957Y456987D01*
X107120Y454180D01*
X108970Y451770D01*
X111380Y449920D01*
X111651Y449808D01*
Y111942D01*
X111020Y111680D01*
X108610Y109830D01*
X106760Y107420D01*
X105597Y104613D01*
X105200Y101600D01*
X105597Y98588D01*
X106760Y95780D01*
X108610Y93370D01*
X111020Y91520D01*
X113827Y90357D01*
X116840Y89960D01*
X119853Y90357D01*
X122660Y91520D01*
X125070Y93370D01*
X126920Y95780D01*
X128083Y98588D01*
X128479Y101600D01*
X128083Y104613D01*
X126920Y107420D01*
X125070Y109830D01*
X122949Y111459D01*
Y449890D01*
X123020Y449920D01*
X125430Y451770D01*
X127280Y454180D01*
X128443Y456987D01*
X128840Y460000D01*
X128443Y463013D01*
X127280Y465820D01*
X125430Y468230D01*
X123020Y470080D01*
X120212Y471243D01*
X117200Y471640D01*
D02*
G37*
G36*
X95940Y113190D02*
X86940D01*
X85949Y112993D01*
X85109Y112431D01*
X80609Y107931D01*
X80047Y107091D01*
X79850Y106100D01*
Y97100D01*
X80047Y96109D01*
X80609Y95269D01*
X85109Y90769D01*
X85949Y90207D01*
X86940Y90010D01*
X95940D01*
X96931Y90207D01*
X97771Y90769D01*
X102271Y95269D01*
X102833Y96109D01*
X103030Y97100D01*
Y106100D01*
X102833Y107091D01*
X102271Y107931D01*
X97771Y112431D01*
X96931Y112993D01*
X95940Y113190D01*
D02*
G37*
G36*
X168000Y471640D02*
X164988Y471243D01*
X162180Y470080D01*
X159770Y468230D01*
X157920Y465820D01*
X156757Y463013D01*
X156360Y460000D01*
X156757Y456987D01*
X157920Y454180D01*
X159770Y451770D01*
X162180Y449920D01*
X162451Y449808D01*
Y111942D01*
X161820Y111680D01*
X159410Y109830D01*
X157560Y107420D01*
X156397Y104613D01*
X156000Y101600D01*
X156397Y98588D01*
X157560Y95780D01*
X159410Y93370D01*
X161820Y91520D01*
X164627Y90357D01*
X167640Y89960D01*
X170653Y90357D01*
X173460Y91520D01*
X175870Y93370D01*
X177720Y95780D01*
X178883Y98588D01*
X179280Y101600D01*
X178883Y104613D01*
X177720Y107420D01*
X175870Y109830D01*
X173748Y111459D01*
Y449890D01*
X173820Y449920D01*
X176230Y451770D01*
X178080Y454180D01*
X179243Y456987D01*
X179639Y460000D01*
X179243Y463013D01*
X178080Y465820D01*
X176230Y468230D01*
X173820Y470080D01*
X171012Y471243D01*
X168000Y471640D01*
D02*
G37*
G36*
X455000Y75133D02*
X450286Y74762D01*
X445688Y73658D01*
X441320Y71849D01*
X437288Y69378D01*
X433693Y66307D01*
X430622Y62712D01*
X428151Y58680D01*
X426342Y54312D01*
X425238Y49714D01*
X424867Y45000D01*
X425238Y40286D01*
X426342Y35689D01*
X428151Y31320D01*
X430622Y27288D01*
X433693Y23693D01*
X437288Y20622D01*
X441320Y18152D01*
X445688Y16342D01*
X450286Y15238D01*
X455000Y14867D01*
X459714Y15238D01*
X464312Y16342D01*
X468680Y18152D01*
X472712Y20622D01*
X476307Y23693D01*
X479378Y27288D01*
X481849Y31320D01*
X483658Y35689D01*
X484762Y40286D01*
X485133Y45000D01*
X484762Y49714D01*
X483658Y54312D01*
X481849Y58680D01*
X479378Y62712D01*
X476307Y66307D01*
X472712Y69378D01*
X468680Y71849D01*
X464312Y73658D01*
X459714Y74762D01*
X455000Y75133D01*
D02*
G37*
G36*
X45000D02*
X40286Y74762D01*
X35688Y73658D01*
X31320Y71849D01*
X27288Y69378D01*
X23693Y66307D01*
X20622Y62712D01*
X18151Y58680D01*
X16342Y54312D01*
X15238Y49714D01*
X14867Y45000D01*
X15238Y40286D01*
X16342Y35689D01*
X18151Y31320D01*
X20622Y27288D01*
X23693Y23693D01*
X27288Y20622D01*
X31320Y18152D01*
X35688Y16342D01*
X40286Y15238D01*
X45000Y14867D01*
X49714Y15238D01*
X54311Y16342D01*
X58680Y18152D01*
X62712Y20622D01*
X66307Y23693D01*
X69378Y27288D01*
X71849Y31320D01*
X73658Y35689D01*
X74762Y40286D01*
X75133Y45000D01*
X74762Y49714D01*
X73658Y54312D01*
X71849Y58680D01*
X69378Y62712D01*
X66307Y66307D01*
X62712Y69378D01*
X58680Y71849D01*
X54311Y73658D01*
X49714Y74762D01*
X45000Y75133D01*
D02*
G37*
G36*
X390000Y87649D02*
X385581Y87214D01*
X381333Y85925D01*
X377417Y83832D01*
X373985Y81015D01*
X371168Y77583D01*
X369075Y73667D01*
X367786Y69419D01*
X367351Y65000D01*
X367786Y60581D01*
X369075Y56333D01*
X371168Y52417D01*
X373985Y48985D01*
X377417Y46168D01*
X381333Y44075D01*
X385581Y42786D01*
X390000Y42351D01*
X394419Y42786D01*
X398667Y44075D01*
X402583Y46168D01*
X406015Y48985D01*
X408832Y52417D01*
X410925Y56333D01*
X412214Y60581D01*
X412649Y65000D01*
X412214Y69419D01*
X410925Y73667D01*
X408832Y77583D01*
X406015Y81015D01*
X402583Y83832D01*
X398667Y85925D01*
X394419Y87214D01*
X390000Y87649D01*
D02*
G37*
G36*
X220000D02*
X215581Y87214D01*
X211333Y85925D01*
X207417Y83832D01*
X203985Y81015D01*
X201168Y77583D01*
X199075Y73667D01*
X197786Y69419D01*
X197351Y65000D01*
X197786Y60581D01*
X199075Y56333D01*
X201168Y52417D01*
X203985Y48985D01*
X207417Y46168D01*
X211333Y44075D01*
X215581Y42786D01*
X220000Y42351D01*
X224419Y42786D01*
X228667Y44075D01*
X232583Y46168D01*
X236015Y48985D01*
X238832Y52417D01*
X240925Y56333D01*
X242214Y60581D01*
X242649Y65000D01*
X242214Y69419D01*
X240925Y73667D01*
X238832Y77583D01*
X236015Y81015D01*
X232583Y83832D01*
X228667Y85925D01*
X224419Y87214D01*
X220000Y87649D01*
D02*
G37*
G36*
X45000Y485133D02*
X40286Y484762D01*
X35688Y483658D01*
X31320Y481849D01*
X27288Y479378D01*
X23693Y476307D01*
X20622Y472712D01*
X18151Y468680D01*
X16342Y464312D01*
X15238Y459714D01*
X14867Y455000D01*
X15238Y450286D01*
X16342Y445689D01*
X18151Y441320D01*
X20622Y437288D01*
X23693Y433693D01*
X27288Y430622D01*
X31320Y428152D01*
X35688Y426342D01*
X40286Y425238D01*
X45000Y424867D01*
X49714Y425238D01*
X54311Y426342D01*
X58680Y428152D01*
X62712Y430622D01*
X66307Y433693D01*
X69378Y437288D01*
X71849Y441320D01*
X73658Y445689D01*
X74762Y450286D01*
X75133Y455000D01*
X74762Y459714D01*
X73658Y464312D01*
X71849Y468680D01*
X69378Y472712D01*
X66307Y476307D01*
X62712Y479378D01*
X58680Y481849D01*
X54311Y483658D01*
X49714Y484762D01*
X45000Y485133D01*
D02*
G37*
G36*
X390000Y457649D02*
X385581Y457214D01*
X381333Y455925D01*
X377417Y453832D01*
X373985Y451015D01*
X371168Y447583D01*
X369075Y443667D01*
X367786Y439419D01*
X367351Y435000D01*
X367786Y430582D01*
X369075Y426333D01*
X371168Y422417D01*
X373985Y418985D01*
X377417Y416168D01*
X381333Y414075D01*
X385581Y412786D01*
X390000Y412351D01*
X394419Y412786D01*
X398667Y414075D01*
X402583Y416168D01*
X406015Y418985D01*
X408832Y422417D01*
X410925Y426333D01*
X412214Y430582D01*
X412649Y435000D01*
X412214Y439419D01*
X410925Y443667D01*
X408832Y447583D01*
X406015Y451015D01*
X402583Y453832D01*
X398667Y455925D01*
X394419Y457214D01*
X390000Y457649D01*
D02*
G37*
G36*
X91800Y471640D02*
X88787Y471243D01*
X85980Y470080D01*
X83570Y468230D01*
X81720Y465820D01*
X80557Y463013D01*
X80160Y460000D01*
X80557Y456987D01*
X81720Y454180D01*
X83570Y451770D01*
X85980Y449920D01*
X88787Y448757D01*
X91800Y448360D01*
X94812Y448757D01*
X97620Y449920D01*
X100030Y451770D01*
X101880Y454180D01*
X103043Y456987D01*
X103440Y460000D01*
X103043Y463013D01*
X101880Y465820D01*
X100030Y468230D01*
X97620Y470080D01*
X94812Y471243D01*
X91800Y471640D01*
D02*
G37*
G36*
X455000Y485133D02*
X450286Y484762D01*
X445688Y483658D01*
X441320Y481849D01*
X437288Y479378D01*
X433693Y476307D01*
X430622Y472712D01*
X428151Y468680D01*
X426342Y464312D01*
X425238Y459714D01*
X424867Y455000D01*
X425238Y450286D01*
X426342Y445689D01*
X428151Y441320D01*
X430622Y437288D01*
X433693Y433693D01*
X437288Y430622D01*
X441320Y428152D01*
X445688Y426342D01*
X450286Y425238D01*
X455000Y424867D01*
X459714Y425238D01*
X464312Y426342D01*
X468680Y428152D01*
X472712Y430622D01*
X476307Y433693D01*
X479378Y437288D01*
X481849Y441320D01*
X483658Y445689D01*
X484762Y450286D01*
X485133Y455000D01*
X484762Y459714D01*
X483658Y464312D01*
X481849Y468680D01*
X479378Y472712D01*
X476307Y476307D01*
X472712Y479378D01*
X468680Y481849D01*
X464312Y483658D01*
X459714Y484762D01*
X455000Y485133D01*
D02*
G37*
G36*
X444505Y157128D02*
X443495D01*
X441739Y156779D01*
X440805Y156392D01*
X439317Y155398D01*
X439317Y155398D01*
X438602Y154683D01*
X438602Y154683D01*
X437608Y153195D01*
X437221Y152261D01*
X436872Y150505D01*
Y150250D01*
X436822Y150000D01*
X436872Y149750D01*
Y149495D01*
X437221Y147739D01*
X437608Y146805D01*
X438602Y145317D01*
X438602Y145317D01*
X439317Y144602D01*
X439317Y144602D01*
X440805Y143608D01*
X441739Y143221D01*
X443495Y142872D01*
X444505D01*
X446261Y143221D01*
X447195Y143608D01*
X448683Y144602D01*
X448683Y144602D01*
X449398Y145317D01*
X449398Y145317D01*
X450392Y146805D01*
X450779Y147739D01*
X451128Y149495D01*
Y149750D01*
X451178Y150000D01*
X451128Y150250D01*
Y150505D01*
X450779Y152261D01*
X450392Y153195D01*
X449398Y154683D01*
X449398Y154683D01*
X448683Y155398D01*
X448683Y155398D01*
X447195Y156392D01*
X446261Y156779D01*
X444505Y157128D01*
D02*
G37*
G36*
Y127128D02*
X443495D01*
X441739Y126779D01*
X440805Y126392D01*
X439317Y125398D01*
X439317Y125398D01*
X438602Y124683D01*
X438602Y124683D01*
X437608Y123195D01*
X437221Y122261D01*
X436872Y120505D01*
Y120250D01*
X436822Y120000D01*
X436872Y119750D01*
Y119495D01*
X437221Y117739D01*
X437608Y116805D01*
X438602Y115317D01*
X438602Y115317D01*
X439317Y114602D01*
X439317Y114602D01*
X440805Y113608D01*
X441739Y113221D01*
X443495Y112872D01*
X444505D01*
X446261Y113221D01*
X447195Y113608D01*
X448683Y114602D01*
X448683Y114602D01*
X449398Y115317D01*
X449398Y115317D01*
X450392Y116805D01*
X450779Y117739D01*
X451128Y119495D01*
Y119750D01*
X451178Y120000D01*
X451128Y120250D01*
Y120505D01*
X450779Y122261D01*
X450392Y123195D01*
X449398Y124683D01*
X449398Y124683D01*
X448683Y125398D01*
X448683Y125398D01*
X447195Y126392D01*
X446261Y126779D01*
X444505Y127128D01*
D02*
G37*
G36*
X220000Y457649D02*
X215581Y457214D01*
X211333Y455925D01*
X207417Y453832D01*
X203985Y451015D01*
X201168Y447583D01*
X199075Y443667D01*
X197786Y439419D01*
X197351Y435000D01*
X197786Y430582D01*
X199075Y426333D01*
X201168Y422417D01*
X203985Y418985D01*
X207417Y416168D01*
X211333Y414075D01*
X215581Y412786D01*
X220000Y412351D01*
X224419Y412786D01*
X228667Y414075D01*
X232583Y416168D01*
X236015Y418985D01*
X238832Y422417D01*
X240925Y426333D01*
X242214Y430582D01*
X242649Y435000D01*
X242214Y439419D01*
X240925Y443667D01*
X238832Y447583D01*
X236015Y451015D01*
X232583Y453832D01*
X228667Y455925D01*
X224419Y457214D01*
X220000Y457649D01*
D02*
G37*
G36*
X429260Y297390D02*
X426247Y296993D01*
X423440Y295830D01*
X421030Y293980D01*
X419180Y291570D01*
X418017Y288762D01*
X417621Y285750D01*
X418017Y282738D01*
X419180Y279930D01*
X421030Y277520D01*
X423440Y275670D01*
X426247Y274507D01*
X429260Y274110D01*
X432272Y274507D01*
X435080Y275670D01*
X437490Y277520D01*
X438200Y278445D01*
X439470Y278013D01*
Y268086D01*
X438200Y267655D01*
X437490Y268580D01*
X435080Y270430D01*
X432272Y271593D01*
X429260Y271989D01*
X426247Y271593D01*
X423440Y270430D01*
X421030Y268580D01*
X419180Y266170D01*
X418017Y263363D01*
X417621Y260350D01*
X418017Y257337D01*
X419180Y254530D01*
X421030Y252120D01*
X423440Y250270D01*
X426247Y249107D01*
X429260Y248710D01*
X432272Y249107D01*
X435080Y250270D01*
X437490Y252120D01*
X438200Y253045D01*
X439470Y252614D01*
Y242687D01*
X438200Y242255D01*
X437490Y243180D01*
X435080Y245030D01*
X432272Y246193D01*
X429260Y246590D01*
X426247Y246193D01*
X423440Y245030D01*
X421030Y243180D01*
X419180Y240770D01*
X418017Y237962D01*
X417621Y234950D01*
X418017Y231938D01*
X419180Y229130D01*
X421030Y226720D01*
X423440Y224870D01*
X426247Y223707D01*
X429260Y223310D01*
X432272Y223707D01*
X435080Y224870D01*
X437490Y226720D01*
X438200Y227645D01*
X439470Y227213D01*
Y218162D01*
X438297Y217675D01*
X435591Y220381D01*
X434751Y220943D01*
X433760Y221140D01*
X424760D01*
X423769Y220943D01*
X422929Y220381D01*
X418429Y215881D01*
X417867Y215041D01*
X417670Y214050D01*
Y205050D01*
X417867Y204059D01*
X418429Y203219D01*
X422929Y198719D01*
X423769Y198157D01*
X424760Y197960D01*
X433760D01*
X434751Y198157D01*
X435591Y198719D01*
X440091Y203219D01*
X440653Y204059D01*
X440850Y205050D01*
Y211506D01*
X442060Y212560D01*
X462060D01*
X463051Y212757D01*
X463891Y213319D01*
X464453Y214159D01*
X464650Y215150D01*
Y280150D01*
X464453Y281141D01*
X463891Y281981D01*
X463051Y282543D01*
X462060Y282740D01*
X442060D01*
X441777Y282683D01*
X440624Y283656D01*
X440900Y285750D01*
X440503Y288762D01*
X439340Y291570D01*
X437490Y293980D01*
X435080Y295830D01*
X432272Y296993D01*
X429260Y297390D01*
D02*
G37*
%LPD*%
D15*
X168100Y102000D02*
Y459500D01*
X142000Y102000D02*
Y458800D01*
X142700Y459500D01*
X117300Y102000D02*
Y459500D01*
D16*
X91800Y460000D02*
D03*
X168000D02*
D03*
X142600D02*
D03*
X117200D02*
D03*
X429260Y285750D02*
D03*
Y260350D02*
D03*
Y234950D02*
D03*
X167640Y101600D02*
D03*
X141540D02*
D03*
X116840D02*
D03*
D17*
X429260Y209550D02*
D03*
D18*
X91440Y101600D02*
D03*
D19*
X455000Y45000D02*
D03*
X45000D02*
D03*
X455000Y455000D02*
D03*
X45000D02*
D03*
D20*
X220000Y435000D02*
D03*
X390000D02*
D03*
Y65000D02*
D03*
X220000D02*
D03*
M02*
