G04 Layer_Color=8388736*
%FSLAX44Y44*%
%MOMM*%
G71*
G01*
G75*
%ADD26R,1.4532X1.2032*%
%ADD27R,1.0532X1.0532*%
%ADD28R,1.8032X1.2032*%
%ADD29R,1.4532X1.1032*%
%ADD30R,1.1032X1.0032*%
%ADD31C,2.0032*%
%ADD32P,2.1683X8X22.5*%
G04:AMPARAMS|DCode=33|XSize=0.2032mm|YSize=0.2032mm|CornerRadius=0mm|HoleSize=0mm|Usage=FLASHONLY|Rotation=0.000|XOffset=0mm|YOffset=0mm|HoleType=Round|Shape=RoundedRectangle|*
%AMROUNDEDRECTD33*
21,1,0.2032,0.2032,0,0,0.0*
21,1,0.2032,0.2032,0,0,0.0*
1,1,0.0000,0.1016,-0.1016*
1,1,0.0000,-0.1016,-0.1016*
1,1,0.0000,-0.1016,0.1016*
1,1,0.0000,0.1016,0.1016*
%
%ADD33ROUNDEDRECTD33*%
%ADD34P,2.1683X8X292.5*%
%ADD35C,6.2032*%
%ADD36C,4.2032*%
%ADD37C,0.2032*%
%ADD38C,0.9032*%
D26*
X139250Y292250D02*
D03*
Y312250D02*
D03*
D27*
Y253000D02*
D03*
Y239000D02*
D03*
D28*
X271250Y283750D02*
D03*
Y313750D02*
D03*
D29*
X458250Y391500D02*
D03*
Y424500D02*
D03*
Y439500D02*
D03*
D30*
X490000Y456000D02*
D03*
X470000D02*
D03*
X490000Y379000D02*
D03*
X470000D02*
D03*
D31*
X308100Y70000D02*
D03*
X282700D02*
D03*
X257300D02*
D03*
X101500Y408850D02*
D03*
Y434250D02*
D03*
Y459650D02*
D03*
Y95050D02*
D03*
Y120450D02*
D03*
Y145850D02*
D03*
X101250Y252150D02*
D03*
Y277550D02*
D03*
Y302950D02*
D03*
X499500Y336100D02*
D03*
Y259900D02*
D03*
Y285300D02*
D03*
Y310700D02*
D03*
D32*
X231900Y70000D02*
D03*
D33*
X270000Y47200D02*
D03*
D34*
X101500Y485050D02*
D03*
Y171250D02*
D03*
X101250Y328350D02*
D03*
D35*
X500000Y540000D02*
D03*
X40000D02*
D03*
Y40000D02*
D03*
X500000D02*
D03*
D36*
X330000Y115000D02*
D03*
X210000D02*
D03*
X330000Y485000D02*
D03*
X210000D02*
D03*
D37*
X480000Y432500D02*
D03*
Y402500D02*
D03*
D38*
X239000Y169000D02*
D03*
X285000Y170000D02*
D03*
X159750Y312250D02*
D03*
M02*
