G04 Layer_Physical_Order=1*
G04 Layer_Color=255*
%FSLAX44Y44*%
%MOMM*%
G71*
G01*
G75*
%ADD10R,1.2500X1.0000*%
%ADD11R,0.8500X0.8500*%
%ADD12R,1.6000X1.0000*%
%ADD13R,1.2500X0.9000*%
%ADD14R,0.9000X0.8000*%
%ADD15C,0.6000*%
%ADD16C,0.3000*%
%ADD17C,1.8000*%
%ADD18P,1.9483X8X22.5*%
%ADD19P,1.9483X8X292.5*%
%ADD20C,6.0000*%
%ADD21C,4.0000*%
%ADD22C,0.7000*%
G36*
X532381Y575749D02*
X534400Y574400D01*
X535749Y572381D01*
X536189Y570167D01*
X536156Y570000D01*
Y10000D01*
X536189Y9833D01*
X535749Y7619D01*
X534400Y5600D01*
X532381Y4251D01*
X531199Y4016D01*
X530000Y3844D01*
Y3844D01*
X10000D01*
X9833Y3811D01*
X7619Y4251D01*
X5600Y5600D01*
X4251Y7619D01*
X4016Y8801D01*
X3844Y10000D01*
X3844D01*
Y570000D01*
X3811Y570167D01*
X4251Y572381D01*
X5600Y574400D01*
X7619Y575749D01*
X9833Y576189D01*
X10000Y576156D01*
X530000D01*
X530167Y576189D01*
X532381Y575749D01*
D02*
G37*
%LPC*%
G36*
X499500Y271499D02*
X496498Y271104D01*
X493700Y269945D01*
X491298Y268102D01*
X489455Y265700D01*
X488296Y262902D01*
X487901Y259900D01*
X488296Y256898D01*
X489455Y254100D01*
X491298Y251698D01*
X493700Y249855D01*
X496498Y248696D01*
X499500Y248301D01*
X502502Y248696D01*
X505300Y249855D01*
X507702Y251698D01*
X509545Y254100D01*
X510704Y256898D01*
X511099Y259900D01*
X510704Y262902D01*
X509545Y265700D01*
X507702Y268102D01*
X505300Y269945D01*
X502502Y271104D01*
X499500Y271499D01*
D02*
G37*
G36*
X101250Y263749D02*
X98248Y263354D01*
X95450Y262195D01*
X93048Y260352D01*
X91205Y257950D01*
X90046Y255152D01*
X89651Y252150D01*
X90046Y249148D01*
X91205Y246350D01*
X93048Y243948D01*
X95450Y242105D01*
X98248Y240946D01*
X101250Y240551D01*
X104252Y240946D01*
X107050Y242105D01*
X109452Y243948D01*
X111295Y246350D01*
X112454Y249148D01*
X112849Y252150D01*
X112454Y255152D01*
X111295Y257950D01*
X109452Y260352D01*
X107050Y262195D01*
X104252Y263354D01*
X101250Y263749D01*
D02*
G37*
G36*
X270500Y291358D02*
X270205Y291299D01*
X263250D01*
X262275Y291105D01*
X261448Y290552D01*
X260895Y289725D01*
X260701Y288750D01*
Y278750D01*
X260895Y277775D01*
X261448Y276948D01*
X262275Y276395D01*
X263250Y276201D01*
X272118D01*
X279392Y268927D01*
Y172407D01*
X279348Y172341D01*
X278882Y170000D01*
X279348Y167659D01*
X280674Y165674D01*
X282659Y164348D01*
X285000Y163883D01*
X287341Y164348D01*
X289326Y165674D01*
X290652Y167659D01*
X291117Y170000D01*
X290652Y172341D01*
X290608Y172407D01*
Y271250D01*
X290181Y273396D01*
X288965Y275215D01*
X281799Y282382D01*
Y288750D01*
X281605Y289725D01*
X281052Y290552D01*
X280225Y291105D01*
X279250Y291299D01*
X270795D01*
X270500Y291358D01*
D02*
G37*
G36*
X101250Y289149D02*
X98248Y288754D01*
X95450Y287595D01*
X93048Y285752D01*
X91205Y283350D01*
X90046Y280552D01*
X89651Y277550D01*
X90046Y274548D01*
X91205Y271750D01*
X93048Y269348D01*
X95450Y267505D01*
X98248Y266346D01*
X101250Y265951D01*
X104252Y266346D01*
X107050Y267505D01*
X109452Y269348D01*
X111295Y271750D01*
X112454Y274548D01*
X112849Y277550D01*
X112454Y280552D01*
X111295Y283350D01*
X109452Y285752D01*
X107050Y287595D01*
X104252Y288754D01*
X101250Y289149D01*
D02*
G37*
G36*
X105750Y339899D02*
X96750D01*
X95774Y339705D01*
X94948Y339152D01*
X90448Y334652D01*
X89895Y333825D01*
X89701Y332850D01*
Y323850D01*
X89895Y322875D01*
X90448Y322048D01*
X94948Y317548D01*
X95774Y316995D01*
X96750Y316801D01*
X105750D01*
X106725Y316995D01*
X107552Y317548D01*
X112052Y322048D01*
X112605Y322875D01*
X112799Y323850D01*
Y332850D01*
X112605Y333825D01*
X112052Y334652D01*
X107552Y339152D01*
X106725Y339705D01*
X106564Y339737D01*
X105750Y339899D01*
D02*
G37*
G36*
X499500Y322299D02*
X496498Y321904D01*
X493700Y320745D01*
X491298Y318902D01*
X489455Y316500D01*
X488296Y313702D01*
X487901Y310700D01*
X488296Y307698D01*
X489455Y304900D01*
X491298Y302498D01*
X493700Y300655D01*
X496498Y299496D01*
X499500Y299101D01*
X502502Y299496D01*
X505300Y300655D01*
X507702Y302498D01*
X509545Y304900D01*
X510704Y307698D01*
X511099Y310700D01*
X510704Y313702D01*
X509545Y316500D01*
X507702Y318902D01*
X505300Y320745D01*
X502502Y321904D01*
X499500Y322299D01*
D02*
G37*
G36*
X101250Y314549D02*
X98248Y314154D01*
X95450Y312995D01*
X93048Y311152D01*
X91205Y308750D01*
X90046Y305952D01*
X89651Y302950D01*
X90046Y299948D01*
X91205Y297150D01*
X93048Y294748D01*
X95450Y292905D01*
X98248Y291746D01*
X101250Y291351D01*
X104252Y291746D01*
X107050Y292905D01*
X109452Y294748D01*
X111295Y297150D01*
X112454Y299948D01*
X112849Y302950D01*
X112454Y305952D01*
X111295Y308750D01*
X109452Y311152D01*
X107050Y312995D01*
X104252Y314154D01*
X101250Y314549D01*
D02*
G37*
G36*
X279250Y321299D02*
X263250D01*
X262275Y321105D01*
X261448Y320552D01*
X260895Y319725D01*
X260701Y318750D01*
Y314358D01*
X239500D01*
X237354Y313931D01*
X235535Y312715D01*
X235035Y312215D01*
X233819Y310396D01*
X233392Y308250D01*
Y171407D01*
X233348Y171341D01*
X232882Y169000D01*
X233348Y166659D01*
X234674Y164674D01*
X236659Y163348D01*
X239000Y162882D01*
X241341Y163348D01*
X243326Y164674D01*
X244652Y166659D01*
X245117Y169000D01*
X244652Y171341D01*
X244608Y171407D01*
Y303142D01*
X271250D01*
X273396Y303569D01*
X275215Y304785D01*
X276162Y306201D01*
X279250D01*
X280225Y306395D01*
X281052Y306948D01*
X281605Y307775D01*
X281799Y308750D01*
Y318750D01*
X281605Y319725D01*
X281052Y320552D01*
X280225Y321105D01*
X279250Y321299D01*
D02*
G37*
G36*
X101500Y106649D02*
X98498Y106254D01*
X95700Y105095D01*
X93298Y103252D01*
X91455Y100850D01*
X90296Y98052D01*
X89901Y95050D01*
X90296Y92048D01*
X91455Y89250D01*
X93298Y86848D01*
X95700Y85005D01*
X98498Y83846D01*
X101500Y83451D01*
X104502Y83846D01*
X107300Y85005D01*
X109702Y86848D01*
X111545Y89250D01*
X112704Y92048D01*
X113099Y95050D01*
X112704Y98052D01*
X111545Y100850D01*
X109702Y103252D01*
X107300Y105095D01*
X104502Y106254D01*
X101500Y106649D01*
D02*
G37*
G36*
X500000Y72600D02*
X494900Y72199D01*
X489926Y71005D01*
X485200Y69047D01*
X480838Y66374D01*
X476948Y63052D01*
X473626Y59162D01*
X470953Y54800D01*
X468995Y50074D01*
X467801Y45100D01*
X467399Y40000D01*
X467801Y34900D01*
X468995Y29926D01*
X470953Y25200D01*
X473626Y20838D01*
X476948Y16948D01*
X480838Y13626D01*
X485200Y10953D01*
X489926Y8995D01*
X494900Y7801D01*
X500000Y7400D01*
X505100Y7801D01*
X510074Y8995D01*
X514800Y10953D01*
X519162Y13626D01*
X523052Y16948D01*
X526374Y20838D01*
X529047Y25200D01*
X531005Y29926D01*
X532199Y34900D01*
X532601Y40000D01*
X532199Y45100D01*
X531005Y50074D01*
X529047Y54800D01*
X526374Y59162D01*
X523052Y63052D01*
X519162Y66374D01*
X514800Y69047D01*
X510074Y71005D01*
X505100Y72199D01*
X500000Y72600D01*
D02*
G37*
G36*
X40000D02*
X34900Y72199D01*
X29926Y71005D01*
X25200Y69047D01*
X20838Y66374D01*
X16948Y63052D01*
X13626Y59162D01*
X10953Y54800D01*
X8995Y50074D01*
X7801Y45100D01*
X7400Y40000D01*
X7801Y34900D01*
X8995Y29926D01*
X10953Y25200D01*
X13626Y20838D01*
X16948Y16948D01*
X20838Y13626D01*
X25200Y10953D01*
X29926Y8995D01*
X34900Y7801D01*
X40000Y7400D01*
X45100Y7801D01*
X50074Y8995D01*
X54800Y10953D01*
X59162Y13626D01*
X63052Y16948D01*
X66374Y20838D01*
X69047Y25200D01*
X71005Y29926D01*
X72199Y34900D01*
X72600Y40000D01*
X72199Y45100D01*
X71005Y50074D01*
X69047Y54800D01*
X66374Y59162D01*
X63052Y63052D01*
X59162Y66374D01*
X54800Y69047D01*
X50074Y71005D01*
X45100Y72199D01*
X40000Y72600D01*
D02*
G37*
G36*
X210000Y137609D02*
X205589Y137174D01*
X201348Y135888D01*
X197439Y133799D01*
X194013Y130987D01*
X191201Y127561D01*
X189112Y123652D01*
X187826Y119411D01*
X187391Y115000D01*
X187826Y110589D01*
X189112Y106348D01*
X191201Y102439D01*
X194013Y99013D01*
X197439Y96201D01*
X201348Y94112D01*
X205589Y92826D01*
X210000Y92391D01*
X214411Y92826D01*
X218652Y94112D01*
X222561Y96201D01*
X225987Y99013D01*
X228799Y102439D01*
X230888Y106348D01*
X232174Y110589D01*
X232609Y115000D01*
X232174Y119411D01*
X230888Y123652D01*
X228799Y127561D01*
X225987Y130987D01*
X222561Y133799D01*
X218652Y135888D01*
X214411Y137174D01*
X210000Y137609D01*
D02*
G37*
G36*
X145500Y299799D02*
X133000D01*
X132025Y299605D01*
X131198Y299052D01*
X130645Y298225D01*
X130451Y297250D01*
Y287250D01*
X130645Y286275D01*
X131198Y285448D01*
X132025Y284895D01*
X133000Y284701D01*
X135172D01*
Y259799D01*
X135000D01*
X134024Y259605D01*
X133198Y259052D01*
X132645Y258225D01*
X132451Y257250D01*
Y248750D01*
X132645Y247775D01*
X133198Y246948D01*
X133556Y246708D01*
Y245292D01*
X133198Y245052D01*
X132645Y244225D01*
X132451Y243250D01*
Y234882D01*
X97535Y199965D01*
X96319Y198146D01*
X95892Y196000D01*
Y182516D01*
X95198Y182052D01*
X90698Y177552D01*
X90145Y176726D01*
X89951Y175750D01*
Y166750D01*
X90145Y165774D01*
X90698Y164948D01*
X95198Y160448D01*
X96025Y159895D01*
X97000Y159701D01*
X105118D01*
X107726Y157093D01*
X107007Y156016D01*
X104502Y157054D01*
X101500Y157449D01*
X98498Y157054D01*
X95700Y155895D01*
X93298Y154052D01*
X91455Y151650D01*
X90296Y148852D01*
X89901Y145850D01*
X90296Y142848D01*
X91455Y140050D01*
X93298Y137648D01*
X95700Y135805D01*
X98498Y134646D01*
X101500Y134251D01*
X104502Y134646D01*
X107300Y135805D01*
X109702Y137648D01*
X111545Y140050D01*
X112704Y142848D01*
X113099Y145850D01*
X112704Y148852D01*
X111666Y151357D01*
X112743Y152076D01*
X198785Y66035D01*
X200604Y64819D01*
X202750Y64392D01*
X220634D01*
X221098Y63698D01*
X225598Y59198D01*
X226425Y58645D01*
X227400Y58451D01*
X233918D01*
X234951Y57200D01*
Y37200D01*
X235145Y36225D01*
X235698Y35398D01*
X236525Y34845D01*
X237500Y34651D01*
X302500D01*
X303475Y34845D01*
X304302Y35398D01*
X304855Y36225D01*
X305049Y37200D01*
Y57200D01*
X304983Y57530D01*
X305904Y58662D01*
X305950Y58684D01*
X308100Y58401D01*
X311102Y58796D01*
X313900Y59955D01*
X316302Y61798D01*
X318145Y64200D01*
X319304Y66998D01*
X319699Y70000D01*
X319304Y73002D01*
X318145Y75800D01*
X316302Y78202D01*
X313900Y80045D01*
X311102Y81204D01*
X308100Y81599D01*
X305098Y81204D01*
X302300Y80045D01*
X299898Y78202D01*
X298055Y75800D01*
X296896Y73002D01*
X296501Y70000D01*
X296896Y66998D01*
X298055Y64200D01*
X299898Y61798D01*
X300914Y61019D01*
X300482Y59749D01*
X290318D01*
X289886Y61019D01*
X290902Y61798D01*
X292745Y64200D01*
X293904Y66998D01*
X294299Y70000D01*
X293904Y73002D01*
X292745Y75800D01*
X290902Y78202D01*
X288500Y80045D01*
X285702Y81204D01*
X282700Y81599D01*
X279698Y81204D01*
X276900Y80045D01*
X274498Y78202D01*
X272655Y75800D01*
X271496Y73002D01*
X271101Y70000D01*
X271496Y66998D01*
X272655Y64200D01*
X274498Y61798D01*
X275513Y61019D01*
X275082Y59749D01*
X264918D01*
X264487Y61019D01*
X265502Y61798D01*
X267345Y64200D01*
X268504Y66998D01*
X268899Y70000D01*
X268504Y73002D01*
X267345Y75800D01*
X265502Y78202D01*
X263100Y80045D01*
X260302Y81204D01*
X257300Y81599D01*
X254298Y81204D01*
X251500Y80045D01*
X249098Y78202D01*
X247255Y75800D01*
X246096Y73002D01*
X245701Y70000D01*
X246096Y66998D01*
X247255Y64200D01*
X249098Y61798D01*
X250114Y61019D01*
X249682Y59749D01*
X240413D01*
X239927Y60922D01*
X242702Y63698D01*
X243255Y64525D01*
X243449Y65500D01*
Y74500D01*
X243255Y75476D01*
X242702Y76302D01*
X238202Y80802D01*
X237375Y81355D01*
X236400Y81549D01*
X227400D01*
X226425Y81355D01*
X225598Y80802D01*
X221098Y76302D01*
X220634Y75608D01*
X205073D01*
X113049Y167632D01*
Y175750D01*
X112855Y176726D01*
X112302Y177552D01*
X107802Y182052D01*
X107108Y182516D01*
Y193677D01*
X143215Y229785D01*
X144431Y231604D01*
X144606Y232482D01*
X145302Y232948D01*
X145855Y233775D01*
X146049Y234750D01*
Y243250D01*
X145855Y244225D01*
X145302Y245052D01*
X144944Y245292D01*
Y246708D01*
X145302Y246948D01*
X145855Y247775D01*
X146049Y248750D01*
Y257250D01*
X145855Y258225D01*
X145302Y259052D01*
X144475Y259605D01*
X143500Y259799D01*
X143328D01*
Y284701D01*
X145500D01*
X146475Y284895D01*
X147302Y285448D01*
X147855Y286275D01*
X148049Y287250D01*
Y297250D01*
X147855Y298225D01*
X147302Y299052D01*
X146475Y299605D01*
X145500Y299799D01*
D02*
G37*
G36*
X101500Y132049D02*
X98498Y131654D01*
X95700Y130495D01*
X93298Y128652D01*
X91455Y126250D01*
X90296Y123452D01*
X89901Y120450D01*
X90296Y117448D01*
X91455Y114650D01*
X93298Y112248D01*
X95700Y110405D01*
X98498Y109246D01*
X101500Y108851D01*
X104502Y109246D01*
X107300Y110405D01*
X109702Y112248D01*
X111545Y114650D01*
X112704Y117448D01*
X113099Y120450D01*
X112704Y123452D01*
X111545Y126250D01*
X109702Y128652D01*
X107300Y130495D01*
X104502Y131654D01*
X101500Y132049D01*
D02*
G37*
G36*
X330000Y137609D02*
X325589Y137174D01*
X321348Y135888D01*
X317439Y133799D01*
X314013Y130987D01*
X311201Y127561D01*
X309112Y123652D01*
X307826Y119411D01*
X307391Y115000D01*
X307826Y110589D01*
X309112Y106348D01*
X311201Y102439D01*
X314013Y99013D01*
X317439Y96201D01*
X321348Y94112D01*
X325589Y92826D01*
X330000Y92391D01*
X334411Y92826D01*
X338652Y94112D01*
X342561Y96201D01*
X345987Y99013D01*
X348798Y102439D01*
X350888Y106348D01*
X352174Y110589D01*
X352609Y115000D01*
X352174Y119411D01*
X350888Y123652D01*
X348798Y127561D01*
X345987Y130987D01*
X342561Y133799D01*
X338652Y135888D01*
X334411Y137174D01*
X330000Y137609D01*
D02*
G37*
G36*
X499500Y347699D02*
X496498Y347304D01*
X493700Y346145D01*
X491298Y344302D01*
X489455Y341900D01*
X488296Y339102D01*
X487901Y336100D01*
X488296Y333098D01*
X489455Y330300D01*
X491298Y327898D01*
X493700Y326055D01*
X496498Y324896D01*
X499500Y324501D01*
X502502Y324896D01*
X505300Y326055D01*
X507702Y327898D01*
X509545Y330300D01*
X510704Y333098D01*
X511099Y336100D01*
X510704Y339102D01*
X509545Y341900D01*
X507702Y344302D01*
X505300Y346145D01*
X502502Y347304D01*
X499500Y347699D01*
D02*
G37*
G36*
X210000Y507609D02*
X205589Y507174D01*
X201348Y505888D01*
X197439Y503799D01*
X194013Y500987D01*
X191201Y497561D01*
X189112Y493652D01*
X187826Y489411D01*
X187391Y485000D01*
X187826Y480589D01*
X189112Y476348D01*
X191201Y472439D01*
X194013Y469013D01*
X197439Y466201D01*
X201348Y464112D01*
X205589Y462826D01*
X210000Y462391D01*
X214411Y462826D01*
X218652Y464112D01*
X222561Y466201D01*
X225987Y469013D01*
X228799Y472439D01*
X230888Y476348D01*
X232174Y480589D01*
X232609Y485000D01*
X232174Y489411D01*
X230888Y493652D01*
X228799Y497561D01*
X225987Y500987D01*
X222561Y503799D01*
X218652Y505888D01*
X214411Y507174D01*
X210000Y507609D01*
D02*
G37*
G36*
X494500Y462549D02*
X485500D01*
X484525Y462355D01*
X483698Y461802D01*
X483145Y460975D01*
X482951Y460000D01*
Y452000D01*
X483145Y451025D01*
X483698Y450198D01*
X484525Y449645D01*
X485500Y449451D01*
X494500D01*
X495475Y449645D01*
X496302Y450198D01*
X496855Y451025D01*
X497049Y452000D01*
Y460000D01*
X496855Y460975D01*
X496302Y461802D01*
X495475Y462355D01*
X494500Y462549D01*
D02*
G37*
G36*
X474500D02*
X465500D01*
X464525Y462355D01*
X463698Y461802D01*
X463145Y460975D01*
X462951Y460000D01*
Y452000D01*
X463145Y451025D01*
X463698Y450198D01*
X464525Y449645D01*
X465500Y449451D01*
X474500D01*
X475475Y449645D01*
X476302Y450198D01*
X476855Y451025D01*
X477049Y452000D01*
Y460000D01*
X476855Y460975D01*
X476302Y461802D01*
X475475Y462355D01*
X474500Y462549D01*
D02*
G37*
G36*
X330000Y507609D02*
X325589Y507174D01*
X321348Y505888D01*
X317439Y503799D01*
X314013Y500987D01*
X311201Y497561D01*
X309112Y493652D01*
X307826Y489411D01*
X307391Y485000D01*
X307826Y480589D01*
X309112Y476348D01*
X311201Y472439D01*
X314013Y469013D01*
X317439Y466201D01*
X321348Y464112D01*
X325589Y462826D01*
X330000Y462391D01*
X334411Y462826D01*
X338652Y464112D01*
X342561Y466201D01*
X345987Y469013D01*
X348798Y472439D01*
X350888Y476348D01*
X352174Y480589D01*
X352609Y485000D01*
X352174Y489411D01*
X350888Y493652D01*
X348798Y497561D01*
X345987Y500987D01*
X342561Y503799D01*
X338652Y505888D01*
X334411Y507174D01*
X330000Y507609D01*
D02*
G37*
G36*
X500000Y572601D02*
X494900Y572199D01*
X489926Y571005D01*
X485200Y569047D01*
X480838Y566374D01*
X476948Y563052D01*
X473626Y559162D01*
X470953Y554800D01*
X468995Y550074D01*
X467801Y545100D01*
X467399Y540000D01*
X467801Y534900D01*
X468995Y529926D01*
X470953Y525200D01*
X473626Y520838D01*
X476948Y516948D01*
X480838Y513626D01*
X485200Y510953D01*
X489926Y508995D01*
X494900Y507801D01*
X500000Y507399D01*
X505100Y507801D01*
X510074Y508995D01*
X514800Y510953D01*
X519162Y513626D01*
X523052Y516948D01*
X526374Y520838D01*
X529047Y525200D01*
X531005Y529926D01*
X532199Y534900D01*
X532601Y540000D01*
X532199Y545100D01*
X531005Y550074D01*
X529047Y554800D01*
X526374Y559162D01*
X523052Y563052D01*
X519162Y566374D01*
X514800Y569047D01*
X510074Y571005D01*
X505100Y572199D01*
X500000Y572601D01*
D02*
G37*
G36*
X40000D02*
X34900Y572199D01*
X29926Y571005D01*
X25200Y569047D01*
X20838Y566374D01*
X16948Y563052D01*
X13626Y559162D01*
X10953Y554800D01*
X8995Y550074D01*
X7801Y545100D01*
X7400Y540000D01*
X7801Y534900D01*
X8995Y529926D01*
X10953Y525200D01*
X13626Y520838D01*
X16948Y516948D01*
X20838Y513626D01*
X25200Y510953D01*
X29926Y508995D01*
X34900Y507801D01*
X40000Y507399D01*
X45100Y507801D01*
X50074Y508995D01*
X54800Y510953D01*
X59162Y513626D01*
X63052Y516948D01*
X66374Y520838D01*
X69047Y525200D01*
X71005Y529926D01*
X72199Y534900D01*
X72600Y540000D01*
X72199Y545100D01*
X71005Y550074D01*
X69047Y554800D01*
X66374Y559162D01*
X63052Y563052D01*
X59162Y566374D01*
X54800Y569047D01*
X50074Y571005D01*
X45100Y572199D01*
X40000Y572601D01*
D02*
G37*
G36*
X106000Y496599D02*
X97000D01*
X96025Y496405D01*
X95198Y495852D01*
X90698Y491352D01*
X90145Y490526D01*
X89951Y489550D01*
Y480550D01*
X90145Y479575D01*
X90698Y478748D01*
X95198Y474248D01*
X96025Y473695D01*
X97000Y473501D01*
X106000D01*
X106975Y473695D01*
X107802Y474248D01*
X112302Y478748D01*
X112855Y479575D01*
X113049Y480550D01*
Y489550D01*
X112855Y490526D01*
X112302Y491352D01*
X107802Y495852D01*
X106975Y496405D01*
X106814Y496437D01*
X106000Y496599D01*
D02*
G37*
G36*
X101500Y471249D02*
X98498Y470854D01*
X95700Y469695D01*
X93298Y467852D01*
X91455Y465450D01*
X90296Y462652D01*
X89901Y459650D01*
X90296Y456648D01*
X91455Y453850D01*
X93298Y451448D01*
X95700Y449605D01*
X98498Y448446D01*
X101500Y448051D01*
X104502Y448446D01*
X107300Y449605D01*
X109702Y451448D01*
X111545Y453850D01*
X112704Y456648D01*
X113099Y459650D01*
X112704Y462652D01*
X111545Y465450D01*
X109702Y467852D01*
X107300Y469695D01*
X104502Y470854D01*
X101500Y471249D01*
D02*
G37*
G36*
X480497Y409588D02*
X479503D01*
X477747Y409239D01*
X476828Y408858D01*
X475340Y407864D01*
X474636Y407160D01*
X473642Y405672D01*
X473261Y404753D01*
X472912Y402997D01*
Y402746D01*
X472863Y402500D01*
X472912Y402254D01*
Y402003D01*
X473261Y400247D01*
X473642Y399328D01*
X474636Y397840D01*
X475340Y397136D01*
X476828Y396142D01*
X477747Y395761D01*
X479503Y395412D01*
X480497D01*
X482253Y395761D01*
X483172Y396142D01*
X484660Y397136D01*
X485364Y397840D01*
X486358Y399328D01*
X486739Y400247D01*
X487088Y402003D01*
Y402254D01*
X487137Y402500D01*
X487088Y402746D01*
Y402997D01*
X486739Y404753D01*
X486358Y405672D01*
X485364Y407160D01*
X484660Y407864D01*
X483172Y408858D01*
X482253Y409239D01*
X480497Y409588D01*
D02*
G37*
G36*
X494500Y385549D02*
X485500D01*
X484525Y385355D01*
X483698Y384802D01*
X483145Y383975D01*
X482951Y383000D01*
Y375000D01*
X483145Y374025D01*
X483698Y373198D01*
X484525Y372645D01*
X485500Y372451D01*
X494500D01*
X495475Y372645D01*
X496302Y373198D01*
X496855Y374025D01*
X497049Y375000D01*
Y383000D01*
X496855Y383975D01*
X496302Y384802D01*
X495475Y385355D01*
X494500Y385549D01*
D02*
G37*
G36*
X464500Y398549D02*
X452000D01*
X451025Y398355D01*
X450198Y397802D01*
X449645Y396975D01*
X449451Y396000D01*
Y387000D01*
X449645Y386025D01*
X450198Y385198D01*
X451025Y384645D01*
X452000Y384451D01*
X462052D01*
X462987Y383181D01*
X462951Y383000D01*
Y375000D01*
X463145Y374025D01*
X463698Y373198D01*
X464525Y372645D01*
X465500Y372451D01*
X474500D01*
X475475Y372645D01*
X476302Y373198D01*
X476855Y374025D01*
X477049Y375000D01*
Y383000D01*
X476855Y383975D01*
X476302Y384802D01*
X475475Y385355D01*
X474500Y385549D01*
X467948D01*
X467013Y386819D01*
X467049Y387000D01*
Y396000D01*
X466855Y396975D01*
X466302Y397802D01*
X465475Y398355D01*
X464500Y398549D01*
D02*
G37*
G36*
X101500Y420449D02*
X98498Y420054D01*
X95700Y418895D01*
X93298Y417052D01*
X91455Y414650D01*
X90296Y411852D01*
X89901Y408850D01*
X90296Y405848D01*
X91455Y403050D01*
X93298Y400648D01*
X95700Y398805D01*
X98498Y397646D01*
X101500Y397251D01*
X104502Y397646D01*
X107300Y398805D01*
X109702Y400648D01*
X111545Y403050D01*
X112704Y405848D01*
X113099Y408850D01*
X112704Y411852D01*
X111545Y414650D01*
X109702Y417052D01*
X107300Y418895D01*
X104502Y420054D01*
X101500Y420449D01*
D02*
G37*
G36*
X480497Y439588D02*
X479503D01*
X477747Y439239D01*
X476828Y438858D01*
X475340Y437864D01*
X474636Y437160D01*
X473642Y435672D01*
X473261Y434753D01*
X472912Y432997D01*
Y432746D01*
X472863Y432500D01*
X472912Y432254D01*
Y432003D01*
X473261Y430247D01*
X473642Y429328D01*
X474636Y427840D01*
X475340Y427136D01*
X476828Y426142D01*
X477747Y425761D01*
X479503Y425412D01*
X480497D01*
X482253Y425761D01*
X483172Y426142D01*
X484660Y427136D01*
X485364Y427840D01*
X486358Y429328D01*
X486739Y430247D01*
X487088Y432003D01*
Y432254D01*
X487137Y432500D01*
X487088Y432746D01*
Y432997D01*
X486739Y434753D01*
X486358Y435672D01*
X485364Y437160D01*
X484660Y437864D01*
X483172Y438858D01*
X482253Y439239D01*
X480497Y439588D01*
D02*
G37*
G36*
X101500Y445849D02*
X98498Y445454D01*
X95700Y444295D01*
X93298Y442452D01*
X91455Y440050D01*
X90296Y437252D01*
X89901Y434250D01*
X90296Y431248D01*
X91455Y428450D01*
X93298Y426048D01*
X95700Y424205D01*
X98498Y423046D01*
X101500Y422651D01*
X104502Y423046D01*
X107300Y424205D01*
X109702Y426048D01*
X111545Y428450D01*
X112704Y431248D01*
X113099Y434250D01*
X112704Y437252D01*
X111545Y440050D01*
X109702Y442452D01*
X107300Y444295D01*
X104502Y445454D01*
X101500Y445849D01*
D02*
G37*
G36*
X464500Y446549D02*
X452000D01*
X451025Y446355D01*
X450198Y445802D01*
X449734Y445108D01*
X390500D01*
X388354Y444681D01*
X386535Y443465D01*
X374035Y430965D01*
X372819Y429146D01*
X372392Y427000D01*
Y352608D01*
X194500D01*
X192354Y352181D01*
X190535Y350965D01*
X157487Y317917D01*
X157409Y317902D01*
X157343Y317858D01*
X147928D01*
X147855Y318225D01*
X147302Y319052D01*
X146475Y319605D01*
X145500Y319799D01*
X133000D01*
X132025Y319605D01*
X131198Y319052D01*
X130645Y318225D01*
X130451Y317250D01*
Y307250D01*
X130645Y306275D01*
X131198Y305448D01*
X132025Y304895D01*
X133000Y304701D01*
X145500D01*
X146475Y304895D01*
X147302Y305448D01*
X147855Y306275D01*
X147928Y306642D01*
X157343D01*
X157409Y306598D01*
X159750Y306133D01*
X162091Y306598D01*
X164076Y307924D01*
X165402Y309909D01*
X165417Y309987D01*
X196823Y341392D01*
X378000D01*
X380146Y341819D01*
X381965Y343035D01*
X383181Y344854D01*
X383608Y347000D01*
Y424677D01*
X392823Y433892D01*
X449734D01*
X450198Y433198D01*
X451019Y432649D01*
X451025Y432621D01*
Y431380D01*
X451019Y431351D01*
X450198Y430802D01*
X449734Y430108D01*
X439500D01*
X437354Y429681D01*
X435535Y428465D01*
X434319Y426646D01*
X433892Y424500D01*
Y285500D01*
X434319Y283354D01*
X435535Y281535D01*
X435735Y281335D01*
X437554Y280119D01*
X439700Y279692D01*
X489375D01*
X489455Y279500D01*
X491298Y277098D01*
X493700Y275255D01*
X496498Y274096D01*
X499500Y273701D01*
X502502Y274096D01*
X505300Y275255D01*
X507702Y277098D01*
X509545Y279500D01*
X510704Y282298D01*
X511099Y285300D01*
X510704Y288302D01*
X509545Y291100D01*
X507702Y293502D01*
X505300Y295345D01*
X502502Y296504D01*
X499500Y296899D01*
X496498Y296504D01*
X493700Y295345D01*
X491298Y293502D01*
X489455Y291100D01*
X489375Y290908D01*
X445108D01*
Y418892D01*
X449734D01*
X450198Y418198D01*
X451025Y417645D01*
X452000Y417451D01*
X464500D01*
X465475Y417645D01*
X466302Y418198D01*
X466855Y419025D01*
X467049Y420000D01*
Y429000D01*
X466855Y429975D01*
X466302Y430802D01*
X465481Y431351D01*
X465476Y431380D01*
Y432621D01*
X465481Y432649D01*
X466302Y433198D01*
X466855Y434025D01*
X467049Y435000D01*
Y444000D01*
X466855Y444975D01*
X466302Y445802D01*
X465475Y446355D01*
X464500Y446549D01*
D02*
G37*
%LPD*%
D10*
X139250Y292250D02*
D03*
Y312250D02*
D03*
D11*
Y253000D02*
D03*
Y239000D02*
D03*
D12*
X271250Y283750D02*
D03*
Y313750D02*
D03*
D13*
X458250Y391500D02*
D03*
Y424500D02*
D03*
Y439500D02*
D03*
D14*
X490000Y456000D02*
D03*
X470000D02*
D03*
X490000Y379000D02*
D03*
X470000D02*
D03*
D15*
X239500Y308750D02*
X271250D01*
X239000Y169000D02*
Y308250D01*
X239500Y308750D01*
X270500Y285750D02*
X285000Y271250D01*
Y170000D02*
Y271250D01*
X194500Y347000D02*
X378000D01*
X159750Y312250D02*
X194500Y347000D01*
X139250Y312250D02*
X159750D01*
X390500Y439500D02*
X458250D01*
X378000Y427000D02*
X390500Y439500D01*
X378000Y347000D02*
Y427000D01*
X439500Y424500D02*
X458250D01*
X439500Y285500D02*
Y424500D01*
Y285500D02*
X439700Y285300D01*
X101500Y171250D02*
X202750Y70000D01*
X231900D01*
X139250Y233750D02*
Y239000D01*
X101500Y196000D02*
X139250Y233750D01*
X101500Y171250D02*
Y196000D01*
X439700Y285300D02*
X499500D01*
D16*
X139250Y253000D02*
Y292250D01*
D17*
X308100Y70000D02*
D03*
X282700D02*
D03*
X257300D02*
D03*
X101500Y408850D02*
D03*
Y434250D02*
D03*
Y459650D02*
D03*
Y95050D02*
D03*
Y120450D02*
D03*
Y145850D02*
D03*
X101250Y252150D02*
D03*
Y277550D02*
D03*
Y302950D02*
D03*
X499500Y336100D02*
D03*
Y259900D02*
D03*
Y285300D02*
D03*
Y310700D02*
D03*
D18*
X231900Y70000D02*
D03*
D19*
X101500Y485050D02*
D03*
Y171250D02*
D03*
X101250Y328350D02*
D03*
D20*
X500000Y540000D02*
D03*
X40000D02*
D03*
Y40000D02*
D03*
X500000D02*
D03*
D21*
X330000Y115000D02*
D03*
X210000D02*
D03*
X330000Y485000D02*
D03*
X210000D02*
D03*
D22*
X239000Y169000D02*
D03*
X285000Y170000D02*
D03*
X159750Y312250D02*
D03*
M02*
