G04 Layer_Physical_Order=2*
G04 Layer_Color=16711680*
%FSLAX44Y44*%
%MOMM*%
G71*
G01*
G75*
%ADD15C,5.5000*%
%ADD16C,4.0000*%
%ADD17P,1.9483X8X292.5*%
%ADD18C,1.8000*%
G36*
X475109Y495686D02*
X480022Y494196D01*
X484550Y491775D01*
X488518Y488518D01*
X491775Y484550D01*
X494196Y480022D01*
X495686Y475109D01*
X496165Y470248D01*
X496115Y470000D01*
X496115Y30000D01*
X496165Y29752D01*
X495686Y24891D01*
X494196Y19978D01*
X491775Y15450D01*
X488518Y11481D01*
X484550Y8224D01*
X480022Y5804D01*
X475109Y4314D01*
X470248Y3835D01*
X470000Y3885D01*
X30000Y3885D01*
X29752Y3835D01*
X24891Y4314D01*
X19978Y5804D01*
X15450Y8224D01*
X11481Y11481D01*
X8224Y15450D01*
X5804Y19978D01*
X4314Y24891D01*
X3934Y28750D01*
X3885Y30000D01*
X3885Y30000D01*
X3885Y31252D01*
X3885Y470000D01*
X3835Y470248D01*
X4314Y475109D01*
X5804Y480022D01*
X8224Y484550D01*
X11481Y488518D01*
X15450Y491775D01*
X19978Y494196D01*
X24891Y495686D01*
X29752Y496165D01*
X30000Y496115D01*
X470000Y496115D01*
X470248Y496165D01*
X475109Y495686D01*
D02*
G37*
%LPC*%
G36*
X101750Y236390D02*
X98737Y235993D01*
X95930Y234830D01*
X93520Y232980D01*
X91670Y230570D01*
X90507Y227763D01*
X90111Y224750D01*
X90507Y221737D01*
X91670Y218930D01*
X93520Y216520D01*
X95930Y214670D01*
X98737Y213507D01*
X101750Y213110D01*
X104763Y213507D01*
X107570Y214670D01*
X109980Y216520D01*
X111830Y218930D01*
X112993Y221737D01*
X113390Y224750D01*
X112993Y227763D01*
X111830Y230570D01*
X109980Y232980D01*
X107570Y234830D01*
X104763Y235993D01*
X101750Y236390D01*
D02*
G37*
G36*
Y261789D02*
X98737Y261393D01*
X95930Y260230D01*
X93520Y258380D01*
X91670Y255970D01*
X90507Y253162D01*
X90111Y250150D01*
X90507Y247138D01*
X91670Y244330D01*
X93520Y241920D01*
X95930Y240070D01*
X98737Y238907D01*
X101750Y238510D01*
X104763Y238907D01*
X107570Y240070D01*
X109980Y241920D01*
X111830Y244330D01*
X112993Y247138D01*
X113390Y250150D01*
X112993Y253162D01*
X111830Y255970D01*
X109980Y258380D01*
X107570Y260230D01*
X104763Y261393D01*
X101750Y261789D01*
D02*
G37*
G36*
Y287190D02*
X98737Y286793D01*
X95930Y285630D01*
X93520Y283780D01*
X91670Y281370D01*
X90507Y278563D01*
X90111Y275550D01*
X90507Y272537D01*
X91670Y269730D01*
X93520Y267320D01*
X95930Y265470D01*
X98737Y264307D01*
X101750Y263910D01*
X104763Y264307D01*
X107570Y265470D01*
X109980Y267320D01*
X111830Y269730D01*
X112993Y272537D01*
X113390Y275550D01*
X112993Y278563D01*
X111830Y281370D01*
X109980Y283780D01*
X107570Y285630D01*
X104763Y286793D01*
X101750Y287190D01*
D02*
G37*
G36*
X350000Y187649D02*
X345581Y187214D01*
X341333Y185925D01*
X337417Y183832D01*
X333985Y181015D01*
X331168Y177583D01*
X329075Y173667D01*
X327786Y169419D01*
X327351Y165000D01*
X327786Y160581D01*
X329075Y156333D01*
X331168Y152417D01*
X333985Y148985D01*
X337417Y146168D01*
X341333Y144075D01*
X345581Y142786D01*
X350000Y142351D01*
X354419Y142786D01*
X358667Y144075D01*
X362583Y146168D01*
X366015Y148985D01*
X368832Y152417D01*
X370925Y156333D01*
X372214Y160581D01*
X372649Y165000D01*
X372214Y169419D01*
X370925Y173667D01*
X368832Y177583D01*
X366015Y181015D01*
X362583Y183832D01*
X358667Y185925D01*
X354419Y187214D01*
X350000Y187649D01*
D02*
G37*
G36*
X45000Y75133D02*
X40286Y74762D01*
X35688Y73658D01*
X31320Y71849D01*
X27288Y69378D01*
X23693Y66307D01*
X20622Y62712D01*
X18151Y58680D01*
X16342Y54311D01*
X15238Y49714D01*
X14867Y45000D01*
X15238Y40286D01*
X16342Y35688D01*
X18151Y31320D01*
X20622Y27288D01*
X23693Y23693D01*
X27288Y20622D01*
X31320Y18151D01*
X35688Y16342D01*
X40286Y15238D01*
X45000Y14867D01*
X49714Y15238D01*
X54311Y16342D01*
X58680Y18151D01*
X62712Y20622D01*
X66307Y23693D01*
X69378Y27288D01*
X71849Y31320D01*
X73658Y35688D01*
X74762Y40286D01*
X75133Y45000D01*
X74762Y49714D01*
X73658Y54311D01*
X71849Y58680D01*
X69378Y62712D01*
X66307Y66307D01*
X62712Y69378D01*
X58680Y71849D01*
X54311Y73658D01*
X49714Y74762D01*
X45000Y75133D01*
D02*
G37*
G36*
X455000D02*
X450286Y74762D01*
X445688Y73658D01*
X441320Y71849D01*
X437288Y69378D01*
X433693Y66307D01*
X430622Y62712D01*
X428151Y58680D01*
X426342Y54311D01*
X425238Y49714D01*
X424867Y45000D01*
X425238Y40286D01*
X426342Y35688D01*
X428151Y31320D01*
X430622Y27288D01*
X433693Y23693D01*
X437288Y20622D01*
X441320Y18151D01*
X445688Y16342D01*
X450286Y15238D01*
X455000Y14867D01*
X459714Y15238D01*
X464312Y16342D01*
X468680Y18151D01*
X472712Y20622D01*
X476307Y23693D01*
X479378Y27288D01*
X481849Y31320D01*
X483658Y35688D01*
X484762Y40286D01*
X485133Y45000D01*
X484762Y49714D01*
X483658Y54311D01*
X481849Y58680D01*
X479378Y62712D01*
X476307Y66307D01*
X472712Y69378D01*
X468680Y71849D01*
X464312Y73658D01*
X459714Y74762D01*
X455000Y75133D01*
D02*
G37*
G36*
X165000Y187649D02*
X160581Y187214D01*
X156333Y185925D01*
X152417Y183832D01*
X148985Y181015D01*
X146168Y177583D01*
X144075Y173667D01*
X142786Y169419D01*
X142351Y165000D01*
X142786Y160581D01*
X144075Y156333D01*
X146168Y152417D01*
X148985Y148985D01*
X152417Y146168D01*
X156333Y144075D01*
X160581Y142786D01*
X165000Y142351D01*
X169419Y142786D01*
X173667Y144075D01*
X177583Y146168D01*
X181015Y148985D01*
X183832Y152417D01*
X185925Y156333D01*
X187214Y160581D01*
X187649Y165000D01*
X187214Y169419D01*
X185925Y173667D01*
X183832Y177583D01*
X181015Y181015D01*
X177583Y183832D01*
X173667Y185925D01*
X169419Y187214D01*
X165000Y187649D01*
D02*
G37*
G36*
X267260Y434678D02*
X267010Y434628D01*
X266755D01*
X264999Y434279D01*
X264065Y433892D01*
X262577Y432898D01*
X262577Y432898D01*
X261862Y432183D01*
X261862Y432183D01*
X260868Y430695D01*
X260481Y429761D01*
X260132Y428005D01*
Y426995D01*
X260481Y425239D01*
X260868Y424305D01*
X261862Y422817D01*
X261862Y422817D01*
X262577Y422102D01*
X262577Y422102D01*
X264065Y421108D01*
X264999Y420721D01*
X266755Y420372D01*
X267010D01*
X267260Y420322D01*
X267510Y420372D01*
X267765D01*
X269521Y420721D01*
X270455Y421108D01*
X271943Y422102D01*
X271943Y422102D01*
X272658Y422817D01*
X272658Y422817D01*
X273652Y424305D01*
X274039Y425239D01*
X274388Y426995D01*
Y428005D01*
X274039Y429761D01*
X273652Y430695D01*
X272658Y432183D01*
X272658Y432183D01*
X271943Y432898D01*
X271943Y432898D01*
X270455Y433892D01*
X269521Y434279D01*
X267765Y434628D01*
X267510D01*
X267260Y434678D01*
D02*
G37*
G36*
X45000Y485133D02*
X40286Y484762D01*
X35688Y483658D01*
X31320Y481849D01*
X27288Y479378D01*
X23693Y476307D01*
X20622Y472712D01*
X18151Y468680D01*
X16342Y464312D01*
X15238Y459714D01*
X14867Y455000D01*
X15238Y450286D01*
X16342Y445688D01*
X18151Y441320D01*
X20622Y437288D01*
X23693Y433693D01*
X27288Y430622D01*
X31320Y428151D01*
X35688Y426342D01*
X40286Y425238D01*
X45000Y424867D01*
X49714Y425238D01*
X54311Y426342D01*
X58680Y428151D01*
X62712Y430622D01*
X66307Y433693D01*
X69378Y437288D01*
X71849Y441320D01*
X73658Y445688D01*
X74762Y450286D01*
X75133Y455000D01*
X74762Y459714D01*
X73658Y464312D01*
X71849Y468680D01*
X69378Y472712D01*
X66307Y476307D01*
X62712Y479378D01*
X58680Y481849D01*
X54311Y483658D01*
X49714Y484762D01*
X45000Y485133D01*
D02*
G37*
G36*
X455000D02*
X450286Y484762D01*
X445688Y483658D01*
X441320Y481849D01*
X437288Y479378D01*
X433693Y476307D01*
X430622Y472712D01*
X428151Y468680D01*
X426342Y464312D01*
X425238Y459714D01*
X424867Y455000D01*
X425238Y450286D01*
X426342Y445688D01*
X428151Y441320D01*
X430622Y437288D01*
X433693Y433693D01*
X437288Y430622D01*
X441320Y428151D01*
X445688Y426342D01*
X450286Y425238D01*
X455000Y424867D01*
X459714Y425238D01*
X464312Y426342D01*
X468680Y428151D01*
X472712Y430622D01*
X476307Y433693D01*
X479378Y437288D01*
X481849Y441320D01*
X483658Y445688D01*
X484762Y450286D01*
X485133Y455000D01*
X484762Y459714D01*
X483658Y464312D01*
X481849Y468680D01*
X479378Y472712D01*
X476307Y476307D01*
X472712Y479378D01*
X468680Y481849D01*
X464312Y483658D01*
X459714Y484762D01*
X455000Y485133D01*
D02*
G37*
G36*
X237260Y434678D02*
X237010Y434628D01*
X236755D01*
X234999Y434279D01*
X234065Y433892D01*
X232577Y432898D01*
X232577Y432898D01*
X231862Y432183D01*
X231862Y432183D01*
X230868Y430695D01*
X230481Y429761D01*
X230132Y428005D01*
Y426995D01*
X230481Y425239D01*
X230868Y424305D01*
X231862Y422817D01*
X231862Y422817D01*
X232577Y422102D01*
X232577Y422102D01*
X234065Y421108D01*
X234999Y420721D01*
X236755Y420372D01*
X237010D01*
X237260Y420322D01*
X237510Y420372D01*
X237765D01*
X239521Y420721D01*
X240455Y421108D01*
X241943Y422102D01*
X241943Y422102D01*
X242658Y422817D01*
X242658Y422817D01*
X243652Y424305D01*
X244039Y425239D01*
X244388Y426995D01*
Y428005D01*
X244039Y429761D01*
X243652Y430695D01*
X242658Y432183D01*
X242658Y432183D01*
X241943Y432898D01*
X241943Y432898D01*
X240455Y433892D01*
X239521Y434279D01*
X237765Y434628D01*
X237510D01*
X237260Y434678D01*
D02*
G37*
G36*
X106250Y312540D02*
X97250D01*
X96259Y312343D01*
X95419Y311781D01*
X90919Y307281D01*
X90357Y306441D01*
X90160Y305450D01*
Y296450D01*
X90357Y295459D01*
X90919Y294619D01*
X95419Y290119D01*
X96259Y289557D01*
X97250Y289360D01*
X106250D01*
X107241Y289557D01*
X108081Y290119D01*
X112581Y294619D01*
X113143Y295459D01*
X113340Y296450D01*
Y305450D01*
X113143Y306441D01*
X112581Y307281D01*
X108081Y311781D01*
X107241Y312343D01*
X106250Y312540D01*
D02*
G37*
G36*
X165000Y372649D02*
X160581Y372214D01*
X156333Y370925D01*
X152417Y368832D01*
X148985Y366015D01*
X146168Y362583D01*
X144075Y358667D01*
X142786Y354419D01*
X142351Y350000D01*
X142786Y345581D01*
X144075Y341333D01*
X146168Y337417D01*
X148985Y333985D01*
X152417Y331168D01*
X156333Y329075D01*
X160581Y327786D01*
X165000Y327351D01*
X169419Y327786D01*
X173667Y329075D01*
X177583Y331168D01*
X181015Y333985D01*
X183832Y337417D01*
X185925Y341333D01*
X187214Y345581D01*
X187649Y350000D01*
X187214Y354419D01*
X185925Y358667D01*
X183832Y362583D01*
X181015Y366015D01*
X177583Y368832D01*
X173667Y370925D01*
X169419Y372214D01*
X165000Y372649D01*
D02*
G37*
G36*
X350000D02*
X345581Y372214D01*
X341333Y370925D01*
X337417Y368832D01*
X333985Y366015D01*
X331168Y362583D01*
X329075Y358667D01*
X327786Y354419D01*
X327351Y350000D01*
X327786Y345581D01*
X329075Y341333D01*
X331168Y337417D01*
X333985Y333985D01*
X337417Y331168D01*
X341333Y329075D01*
X345581Y327786D01*
X350000Y327351D01*
X354419Y327786D01*
X358667Y329075D01*
X362583Y331168D01*
X366015Y333985D01*
X368832Y337417D01*
X370925Y341333D01*
X372214Y345581D01*
X372649Y350000D01*
X372214Y354419D01*
X370925Y358667D01*
X368832Y362583D01*
X366015Y366015D01*
X362583Y368832D01*
X358667Y370925D01*
X354419Y372214D01*
X350000Y372649D01*
D02*
G37*
%LPD*%
D15*
X455000Y45000D02*
D03*
X45000D02*
D03*
X455000Y455000D02*
D03*
X45000D02*
D03*
D16*
X165000Y165000D02*
D03*
X350000Y350000D02*
D03*
X165000D02*
D03*
X350000Y165000D02*
D03*
D17*
X101750Y300950D02*
D03*
D18*
Y275550D02*
D03*
Y250150D02*
D03*
Y224750D02*
D03*
M02*
