G04 Layer_Color=32896*
%FSLAX44Y44*%
%MOMM*%
G71*
G01*
G75*
%ADD14C,0.2000*%
D14*
X167700Y542700D02*
X193100D01*
X167700Y517300D02*
Y542700D01*
X193100Y517300D02*
Y542700D01*
X161350D02*
X167700Y536350D01*
X148650Y542700D02*
X161350D01*
X142300Y536350D02*
X148650Y542700D01*
X142300Y523650D02*
Y536350D01*
Y523650D02*
X148650Y517300D01*
X161350D01*
X167700Y523650D01*
Y517300D02*
X193100D01*
X135950D02*
X142300Y523650D01*
X123250Y517300D02*
X135950D01*
X116900Y523650D02*
X123250Y517300D01*
X116900Y523650D02*
Y536350D01*
X123250Y542700D01*
X135950D01*
X142300Y536350D01*
X-193100Y517300D02*
X-167700D01*
Y542700D01*
X-193100Y517300D02*
Y542700D01*
X-167700Y523650D02*
X-161350Y517300D01*
X-148650D01*
X-142300Y523650D01*
Y536350D01*
X-148650Y542700D02*
X-142300Y536350D01*
X-161350Y542700D02*
X-148650D01*
X-167700Y536350D02*
X-161350Y542700D01*
X-193100D02*
X-167700D01*
X-142300Y536350D02*
X-135950Y542700D01*
X-123250D01*
X-116900Y536350D01*
Y523650D02*
Y536350D01*
X-123250Y517300D02*
X-116900Y523650D01*
X-135950Y517300D02*
X-123250D01*
X-142300Y523650D02*
X-135950Y517300D01*
M02*
