G04 Layer_Physical_Order=2*
G04 Layer_Color=16711680*
%FSLAX44Y44*%
%MOMM*%
G71*
G01*
G75*
%ADD10C,1.0000*%
%ADD11C,2.0000*%
%ADD12R,2.0000X2.0000*%
%ADD13C,1.8000*%
G36*
X39077Y656115D02*
X40300Y656085D01*
X40301Y656085D01*
X41529Y656063D01*
X42642Y655917D01*
X44327Y655219D01*
X45775Y654108D01*
X46885Y652661D01*
X47583Y650975D01*
X47751Y649699D01*
X47751Y649699D01*
X47751D01*
X47979Y648499D01*
X54502Y609361D01*
X54589Y609130D01*
X54869Y607002D01*
X56348Y603432D01*
X58700Y600367D01*
X61766Y598014D01*
X65336Y596536D01*
X69167Y596031D01*
X69922Y596131D01*
X70000Y596115D01*
X169309Y596115D01*
X170518Y596097D01*
X170519Y596097D01*
X171761Y596201D01*
X173543Y595966D01*
X175415Y595191D01*
X177023Y593957D01*
X178257Y592349D01*
X179033Y590476D01*
X179164Y589481D01*
X179282Y589497D01*
X179311Y589351D01*
X179408Y588695D01*
X218203Y479923D01*
X217471Y478885D01*
X116236Y478885D01*
X116058Y478885D01*
X114821Y478899D01*
X114066Y479006D01*
X113573Y479077D01*
X113611Y479070D01*
X114066Y479006D01*
X114756Y478905D01*
X113611Y479070D01*
X113422Y479107D01*
X112396Y479793D01*
X111711Y480819D01*
X111649Y481131D01*
X111649Y481131D01*
X111466Y481523D01*
X101036Y505997D01*
X100693Y508605D01*
X99301Y511965D01*
X97088Y514849D01*
X94203Y517063D01*
X90843Y518455D01*
X87238Y518929D01*
Y518929D01*
X87195Y518886D01*
X50344Y518968D01*
X49911Y519054D01*
Y519099D01*
X46305Y518624D01*
X42946Y517233D01*
X40061Y515019D01*
X37848Y512134D01*
X36456Y508775D01*
X35981Y505170D01*
X36009D01*
X36010Y505168D01*
X36223Y23384D01*
X33035Y22063D01*
X30151Y19849D01*
X27937Y16965D01*
X26545Y13605D01*
X26071Y10000D01*
X26071D01*
X26141Y8759D01*
X26207Y5695D01*
X25604Y4793D01*
X24578Y4107D01*
X24388Y4070D01*
X23244Y3905D01*
X23934Y4006D01*
X24388Y4070D01*
X24427Y4077D01*
X23934Y4006D01*
X23179Y3899D01*
X21942Y3885D01*
X21764Y3885D01*
X-21764D01*
X-21942Y3885D01*
X-23179Y3899D01*
X-23934Y4006D01*
X-24427Y4077D01*
X-24388Y4070D01*
X-23934Y4006D01*
X-23244Y3905D01*
X-24388Y4070D01*
X-24578Y4107D01*
X-25604Y4793D01*
X-26207Y5696D01*
X-26141Y8759D01*
X-26071Y10000D01*
X-26071D01*
X-26546Y13605D01*
X-27937Y16965D01*
X-30151Y19849D01*
X-33035Y22063D01*
X-36223Y23384D01*
X-36010Y504998D01*
X-35966Y505000D01*
X-36440Y508605D01*
X-37832Y511965D01*
X-40045Y514849D01*
X-42930Y517063D01*
X-46290Y518455D01*
X-49309Y518852D01*
X-49904Y518969D01*
X-87978Y518885D01*
X-88022Y518929D01*
Y518929D01*
X-91627Y518455D01*
X-94987Y517063D01*
X-97872Y514849D01*
X-100085Y511965D01*
X-101477Y508605D01*
X-101838Y505858D01*
X-111050Y482579D01*
X-111176Y482260D01*
X-111644Y481141D01*
X-111740Y480961D01*
X-111651Y481127D01*
X-112195Y480100D01*
X-111740Y480961D01*
X-112238Y480029D01*
X-112396Y479793D01*
X-113422Y479107D01*
X-113611Y479070D01*
X-114756Y478905D01*
X-114066Y479006D01*
X-113611Y479070D01*
X-113573Y479077D01*
X-114066Y479006D01*
X-114821Y478899D01*
X-116058Y478885D01*
X-116236Y478885D01*
X-217471Y478885D01*
X-218203Y479923D01*
X-179408Y588695D01*
X-179311Y589351D01*
X-179282Y589497D01*
X-179164Y589481D01*
X-179033Y590476D01*
X-178257Y592349D01*
X-177024Y593957D01*
X-175415Y595191D01*
X-173543Y595966D01*
X-171761Y596201D01*
X-170519Y596097D01*
X-170518Y596097D01*
X-169309Y596115D01*
X-70000Y596115D01*
X-69922Y596131D01*
X-69167Y596031D01*
X-65336Y596536D01*
X-61766Y598014D01*
X-58700Y600367D01*
X-56348Y603432D01*
X-54869Y607002D01*
X-54589Y609130D01*
X-54502Y609361D01*
X-47979Y648499D01*
X-47751Y649699D01*
X-47751D01*
X-47751Y649699D01*
X-47583Y650975D01*
X-46885Y652661D01*
X-45775Y654108D01*
X-44327Y655219D01*
X-42642Y655917D01*
X-41529Y656063D01*
X-40301Y656085D01*
X-40300Y656085D01*
X-39077Y656115D01*
X-38775Y656115D01*
X38775Y656115D01*
X39077Y656115D01*
D02*
G37*
%LPC*%
G36*
X-155000Y507648D02*
X-158274Y507217D01*
X-161324Y505954D01*
X-163944Y503944D01*
X-165954Y501324D01*
X-167013Y498767D01*
X-168387D01*
X-169446Y501324D01*
X-171456Y503944D01*
X-174076Y505954D01*
X-177126Y507217D01*
X-180400Y507648D01*
X-183674Y507217D01*
X-186724Y505954D01*
X-189344Y503944D01*
X-191354Y501324D01*
X-192617Y498274D01*
X-193048Y495000D01*
X-192617Y491726D01*
X-191354Y488676D01*
X-189344Y486056D01*
X-186724Y484046D01*
X-183674Y482783D01*
X-180400Y482352D01*
X-177126Y482783D01*
X-174076Y484046D01*
X-171456Y486056D01*
X-169446Y488676D01*
X-168387Y491233D01*
X-167013D01*
X-165954Y488676D01*
X-163944Y486056D01*
X-161324Y484046D01*
X-158274Y482783D01*
X-155000Y482352D01*
X-151726Y482783D01*
X-148676Y484046D01*
X-146056Y486056D01*
X-144046Y488676D01*
X-143460Y490092D01*
X-142190Y489839D01*
Y485000D01*
X-141993Y484009D01*
X-141431Y483169D01*
X-140591Y482607D01*
X-139600Y482410D01*
X-119600D01*
X-118609Y482607D01*
X-117769Y483169D01*
X-117207Y484009D01*
X-117010Y485000D01*
Y505000D01*
X-117207Y505991D01*
X-117769Y506831D01*
X-118609Y507393D01*
X-119600Y507590D01*
X-139600D01*
X-140591Y507393D01*
X-141431Y506831D01*
X-141993Y505991D01*
X-142190Y505000D01*
Y500161D01*
X-143460Y499908D01*
X-144046Y501324D01*
X-146056Y503944D01*
X-148676Y505954D01*
X-151726Y507217D01*
X-155000Y507648D01*
D02*
G37*
G36*
X-37000Y568605D02*
X-155000D01*
X-156968Y568346D01*
X-158802Y567586D01*
X-160378Y566378D01*
X-161586Y564803D01*
X-162346Y562968D01*
X-162605Y561000D01*
Y539971D01*
X-163944Y538944D01*
X-165954Y536324D01*
X-166540Y534908D01*
X-167810Y535161D01*
Y540000D01*
X-168007Y540991D01*
X-168569Y541831D01*
X-169409Y542393D01*
X-170400Y542590D01*
X-190400D01*
X-191391Y542393D01*
X-192231Y541831D01*
X-192793Y540991D01*
X-192990Y540000D01*
Y520000D01*
X-192793Y519009D01*
X-192231Y518169D01*
X-191391Y517607D01*
X-190400Y517410D01*
X-170400D01*
X-169409Y517607D01*
X-168569Y518169D01*
X-168007Y519009D01*
X-167810Y520000D01*
Y524839D01*
X-166540Y525092D01*
X-165954Y523676D01*
X-163944Y521056D01*
X-161324Y519046D01*
X-158274Y517783D01*
X-155000Y517352D01*
X-151726Y517783D01*
X-148676Y519046D01*
X-146056Y521056D01*
X-144046Y523676D01*
X-142987Y526233D01*
X-141613D01*
X-140554Y523676D01*
X-138544Y521056D01*
X-135924Y519046D01*
X-132874Y517783D01*
X-129600Y517352D01*
X-126326Y517783D01*
X-123276Y519046D01*
X-120656Y521056D01*
X-118646Y523676D01*
X-117383Y526726D01*
X-116952Y530000D01*
X-117383Y533274D01*
X-118646Y536324D01*
X-120656Y538944D01*
X-123276Y540954D01*
X-126326Y542217D01*
X-129600Y542648D01*
X-132874Y542217D01*
X-135924Y540954D01*
X-138544Y538944D01*
X-140554Y536324D01*
X-141613Y533767D01*
X-142987D01*
X-144046Y536324D01*
X-146056Y538944D01*
X-147395Y539971D01*
Y553395D01*
X-40150D01*
X-20305Y533550D01*
Y97480D01*
X-20630Y97230D01*
X-22480Y94820D01*
X-23643Y92013D01*
X-24040Y89000D01*
X-23643Y85988D01*
X-22480Y83180D01*
X-20630Y80770D01*
X-18220Y78920D01*
X-15412Y77757D01*
X-12400Y77360D01*
X-9388Y77757D01*
X-6580Y78920D01*
X-4170Y80770D01*
X-2320Y83180D01*
X-1157Y85988D01*
X-760Y89000D01*
X-1157Y92013D01*
X-2320Y94820D01*
X-4170Y97230D01*
X-5095Y97940D01*
Y536700D01*
X-5354Y538668D01*
X-5799Y539743D01*
X-6114Y540503D01*
X-7322Y542078D01*
X-31622Y566378D01*
X-33198Y567586D01*
X-35032Y568346D01*
X-37000Y568605D01*
D02*
G37*
G36*
X128000Y569605D02*
X37000D01*
X35032Y569346D01*
X33957Y568901D01*
X33198Y568586D01*
X31622Y567378D01*
X7322Y543078D01*
X6114Y541502D01*
X5354Y539668D01*
X5095Y537700D01*
Y97480D01*
X4770Y97230D01*
X2920Y94820D01*
X1757Y92013D01*
X1360Y89000D01*
X1757Y85988D01*
X2920Y83180D01*
X4770Y80770D01*
X7180Y78920D01*
X9987Y77757D01*
X13000Y77360D01*
X16013Y77757D01*
X18820Y78920D01*
X21230Y80770D01*
X23080Y83180D01*
X24243Y85988D01*
X24639Y89000D01*
X24243Y92013D01*
X23080Y94820D01*
X21230Y97230D01*
X20305Y97940D01*
Y534550D01*
X40150Y554395D01*
X121995D01*
Y539971D01*
X120656Y538944D01*
X118646Y536324D01*
X117383Y533274D01*
X116952Y530000D01*
X117383Y526726D01*
X118646Y523676D01*
X120656Y521056D01*
X123276Y519046D01*
X126326Y517783D01*
X129600Y517352D01*
X132874Y517783D01*
X135924Y519046D01*
X138544Y521056D01*
X140554Y523676D01*
X141613Y526233D01*
X142987D01*
X144046Y523676D01*
X146056Y521056D01*
X148676Y519046D01*
X151726Y517783D01*
X155000Y517352D01*
X158274Y517783D01*
X161324Y519046D01*
X163944Y521056D01*
X165954Y523676D01*
X166540Y525092D01*
X167810Y524839D01*
Y520000D01*
X168007Y519009D01*
X168569Y518169D01*
X169409Y517607D01*
X170400Y517410D01*
X190400D01*
X191391Y517607D01*
X192231Y518169D01*
X192793Y519009D01*
X192990Y520000D01*
Y540000D01*
X192793Y540991D01*
X192231Y541831D01*
X191391Y542393D01*
X190400Y542590D01*
X170400D01*
X169409Y542393D01*
X168569Y541831D01*
X168007Y540991D01*
X167810Y540000D01*
Y535161D01*
X166540Y534908D01*
X165954Y536324D01*
X163944Y538944D01*
X161324Y540954D01*
X158274Y542217D01*
X155000Y542648D01*
X151726Y542217D01*
X148676Y540954D01*
X146056Y538944D01*
X144046Y536324D01*
X142987Y533767D01*
X141613D01*
X140554Y536324D01*
X138544Y538944D01*
X137205Y539971D01*
Y560400D01*
X136946Y562368D01*
X136501Y563443D01*
X136186Y564202D01*
X134978Y565778D01*
X133378Y567378D01*
X131803Y568586D01*
X129968Y569346D01*
X128000Y569605D01*
D02*
G37*
G36*
X180400Y507648D02*
X177126Y507217D01*
X174076Y505954D01*
X171456Y503944D01*
X169446Y501324D01*
X168387Y498767D01*
X167013D01*
X165954Y501324D01*
X163944Y503944D01*
X161324Y505954D01*
X158274Y507217D01*
X155000Y507648D01*
X151726Y507217D01*
X148676Y505954D01*
X146056Y503944D01*
X144046Y501324D01*
X143460Y499908D01*
X142190Y500161D01*
Y505000D01*
X141993Y505991D01*
X141431Y506831D01*
X140591Y507393D01*
X139600Y507590D01*
X119600D01*
X118609Y507393D01*
X117769Y506831D01*
X117207Y505991D01*
X117010Y505000D01*
Y485000D01*
X117207Y484009D01*
X117769Y483169D01*
X118609Y482607D01*
X119600Y482410D01*
X139600D01*
X140591Y482607D01*
X141431Y483169D01*
X141993Y484009D01*
X142190Y485000D01*
Y489839D01*
X143460Y490092D01*
X144046Y488676D01*
X146056Y486056D01*
X148676Y484046D01*
X151726Y482783D01*
X155000Y482352D01*
X158274Y482783D01*
X161324Y484046D01*
X163944Y486056D01*
X165954Y488676D01*
X167013Y491233D01*
X168387D01*
X169446Y488676D01*
X171456Y486056D01*
X174076Y484046D01*
X177126Y482783D01*
X180400Y482352D01*
X183674Y482783D01*
X186724Y484046D01*
X189344Y486056D01*
X191354Y488676D01*
X192617Y491726D01*
X193048Y495000D01*
X192617Y498274D01*
X191354Y501324D01*
X189344Y503944D01*
X186724Y505954D01*
X183674Y507217D01*
X180400Y507648D01*
D02*
G37*
%LPD*%
D10*
X129600Y530000D02*
Y560400D01*
X128000Y562000D02*
X129600Y560400D01*
X37000Y562000D02*
X128000D01*
X12700Y537700D02*
X37000Y562000D01*
X-155000Y530000D02*
Y561000D01*
X-37000D01*
X-12700Y536700D01*
X12700Y89000D02*
Y537700D01*
X-12700Y89000D02*
Y536700D01*
D11*
X129600Y530000D02*
D03*
X155000D02*
D03*
X-129600D02*
D03*
X-155000D02*
D03*
X180400Y495000D02*
D03*
X155000D02*
D03*
X-180400D02*
D03*
X-155000D02*
D03*
D12*
X180400Y530000D02*
D03*
X-180400D02*
D03*
X129600Y495000D02*
D03*
X-129600D02*
D03*
D13*
X-12400Y89000D02*
D03*
X13000D02*
D03*
M02*
